<?xml version="1.0" encoding="UTF-8" standalone="no"?>
<!DOCTYPE svg PUBLIC "-//W3C//DTD SVG 1.1//EN"
 "http://www.w3.org/Graphics/SVG/1.1/DTD/svg11.dtd">
<!-- Generated by graphviz version 2.50.0 (20211204.2007)
 -->
<!-- Title: anchor_pane.h Pages: 1 -->
<svg width="1083pt" height="442pt"
 viewBox="0.00 0.00 1082.50 442.00" xmlns="http://www.w3.org/2000/svg" xmlns:xlink="http://www.w3.org/1999/xlink">
<g id="graph0" class="graph" transform="scale(1 1) rotate(0) translate(4 438)">
<title>anchor_pane.h</title>
<polygon fill="white" stroke="transparent" points="-4,4 -4,-438 1078.5,-438 1078.5,4 -4,4"/>
<!-- Node1 -->
<g id="node1" class="node">
<title>Node1</title>
<g id="a_node1"><a xlink:title=" ">
<polygon fill="#bfbfbf" stroke="black" points="718.5,-414.5 718.5,-433.5 798.5,-433.5 798.5,-414.5 718.5,-414.5"/>
<text text-anchor="middle" x="758.5" y="-421.5" font-family="Helvetica,sans-Serif" font-size="10.00">anchor_pane.h</text>
</a>
</g>
</g>
<!-- Node2 -->
<g id="node2" class="node">
<title>Node2</title>
<g id="a_node2"><a xlink:title=" ">
<polygon fill="white" stroke="#bfbfbf" points="662,-358.5 662,-377.5 745,-377.5 745,-358.5 662,-358.5"/>
<text text-anchor="middle" x="703.5" y="-365.5" font-family="Helvetica,sans-Serif" font-size="10.00">unordered_map</text>
</a>
</g>
</g>
<!-- Node1&#45;&gt;Node2 -->
<g id="edge1" class="edge">
<title>Node1&#45;&gt;Node2</title>
<path fill="none" stroke="midnightblue" d="M749.42,-414.08C741.33,-406.14 729.3,-394.34 719.59,-384.8"/>
<polygon fill="midnightblue" stroke="midnightblue" points="722,-382.26 712.41,-377.75 717.1,-387.25 722,-382.26"/>
</g>
<!-- Node3 -->
<g id="node3" class="node">
<title>Node3</title>
<g id="a_node3"><a xlink:href="layered__container_8h.html" target="_top" xlink:title=" ">
<polygon fill="white" stroke="black" points="763,-358.5 763,-377.5 864,-377.5 864,-358.5 763,-358.5"/>
<text text-anchor="middle" x="813.5" y="-365.5" font-family="Helvetica,sans-Serif" font-size="10.00">layered_container.h</text>
</a>
</g>
</g>
<!-- Node1&#45;&gt;Node3 -->
<g id="edge2" class="edge">
<title>Node1&#45;&gt;Node3</title>
<path fill="none" stroke="midnightblue" d="M767.58,-414.08C775.67,-406.14 787.7,-394.34 797.41,-384.8"/>
<polygon fill="midnightblue" stroke="midnightblue" points="799.9,-387.25 804.59,-377.75 795,-382.26 799.9,-387.25"/>
</g>
<!-- Node4 -->
<g id="node4" class="node">
<title>Node4</title>
<g id="a_node4"><a xlink:href="container_8h.html" target="_top" xlink:title=" ">
<polygon fill="white" stroke="black" points="781.5,-302.5 781.5,-321.5 845.5,-321.5 845.5,-302.5 781.5,-302.5"/>
<text text-anchor="middle" x="813.5" y="-309.5" font-family="Helvetica,sans-Serif" font-size="10.00">container.h</text>
</a>
</g>
</g>
<!-- Node3&#45;&gt;Node4 -->
<g id="edge3" class="edge">
<title>Node3&#45;&gt;Node4</title>
<path fill="none" stroke="midnightblue" d="M813.5,-358.08C813.5,-351.01 813.5,-340.86 813.5,-331.99"/>
<polygon fill="midnightblue" stroke="midnightblue" points="817,-331.75 813.5,-321.75 810,-331.75 817,-331.75"/>
</g>
<!-- Node5 -->
<g id="node5" class="node">
<title>Node5</title>
<g id="a_node5"><a xlink:href="parent_8h.html" target="_top" xlink:title=" ">
<polygon fill="white" stroke="black" points="783,-246.5 783,-265.5 844,-265.5 844,-246.5 783,-246.5"/>
<text text-anchor="middle" x="813.5" y="-253.5" font-family="Helvetica,sans-Serif" font-size="10.00">../parent.h</text>
</a>
</g>
</g>
<!-- Node4&#45;&gt;Node5 -->
<g id="edge4" class="edge">
<title>Node4&#45;&gt;Node5</title>
<path fill="none" stroke="midnightblue" d="M813.5,-302.08C813.5,-295.01 813.5,-284.86 813.5,-275.99"/>
<polygon fill="midnightblue" stroke="midnightblue" points="817,-275.75 813.5,-265.75 810,-275.75 817,-275.75"/>
</g>
<!-- Node6 -->
<g id="node6" class="node">
<title>Node6</title>
<g id="a_node6"><a xlink:href="component_8h.html" target="_top" xlink:title=" ">
<polygon fill="white" stroke="black" points="425,-190.5 425,-209.5 498,-209.5 498,-190.5 425,-190.5"/>
<text text-anchor="middle" x="461.5" y="-197.5" font-family="Helvetica,sans-Serif" font-size="10.00">component.h</text>
</a>
</g>
</g>
<!-- Node5&#45;&gt;Node6 -->
<g id="edge5" class="edge">
<title>Node5&#45;&gt;Node6</title>
<path fill="none" stroke="midnightblue" d="M782.88,-250.3C721.18,-240.84 581.58,-219.42 508.35,-208.19"/>
<polygon fill="midnightblue" stroke="midnightblue" points="508.45,-204.66 498.04,-206.61 507.39,-211.58 508.45,-204.66"/>
</g>
<!-- Node19 -->
<g id="node19" class="node">
<title>Node19</title>
<g id="a_node19"><a xlink:href="insets_8h.html" target="_top" xlink:title=" ">
<polygon fill="white" stroke="black" points="990.5,-129 990.5,-148 1074.5,-148 1074.5,-129 990.5,-129"/>
<text text-anchor="middle" x="1032.5" y="-136" font-family="Helvetica,sans-Serif" font-size="10.00">../paint/insets.h</text>
</a>
</g>
</g>
<!-- Node5&#45;&gt;Node19 -->
<g id="edge19" class="edge">
<title>Node5&#45;&gt;Node19</title>
<path fill="none" stroke="midnightblue" d="M844.04,-248.62C872.78,-241.78 916.38,-229.25 950.5,-210 976.68,-195.23 1002.18,-171.36 1017.62,-155.55"/>
<polygon fill="midnightblue" stroke="midnightblue" points="1020.35,-157.76 1024.72,-148.11 1015.29,-152.93 1020.35,-157.76"/>
</g>
<!-- Node21 -->
<g id="node21" class="node">
<title>Node21</title>
<g id="a_node21"><a xlink:href="border_8h.html" target="_top" xlink:title=" ">
<polygon fill="white" stroke="black" points="857.5,-190.5 857.5,-209.5 941.5,-209.5 941.5,-190.5 857.5,-190.5"/>
<text text-anchor="middle" x="899.5" y="-197.5" font-family="Helvetica,sans-Serif" font-size="10.00">../paint/border.h</text>
</a>
</g>
</g>
<!-- Node5&#45;&gt;Node21 -->
<g id="edge21" class="edge">
<title>Node5&#45;&gt;Node21</title>
<path fill="none" stroke="midnightblue" d="M827.32,-246.32C840.73,-237.9 861.32,-224.97 877.09,-215.07"/>
<polygon fill="midnightblue" stroke="midnightblue" points="879.11,-217.94 885.72,-209.65 875.39,-212.01 879.11,-217.94"/>
</g>
<!-- Node24 -->
<g id="node24" class="node">
<title>Node24</title>
<g id="a_node24"><a xlink:href="background_8h.html" target="_top" xlink:title=" ">
<polygon fill="white" stroke="black" points="694.5,-190.5 694.5,-209.5 802.5,-209.5 802.5,-190.5 694.5,-190.5"/>
<text text-anchor="middle" x="748.5" y="-197.5" font-family="Helvetica,sans-Serif" font-size="10.00">../paint/background.h</text>
</a>
</g>
</g>
<!-- Node5&#45;&gt;Node24 -->
<g id="edge25" class="edge">
<title>Node5&#45;&gt;Node24</title>
<path fill="none" stroke="midnightblue" d="M803.06,-246.32C793.35,-238.26 778.68,-226.08 767,-216.37"/>
<polygon fill="midnightblue" stroke="midnightblue" points="769.06,-213.53 759.13,-209.83 764.59,-218.92 769.06,-213.53"/>
</g>
<!-- Node7 -->
<g id="node7" class="node">
<title>Node7</title>
<g id="a_node7"><a xlink:title=" ">
<polygon fill="white" stroke="#bfbfbf" points="196.5,-129 196.5,-148 336.5,-148 336.5,-129 196.5,-129"/>
<text text-anchor="middle" x="266.5" y="-136" font-family="Helvetica,sans-Serif" font-size="10.00">sml/sml_graphics_wrapper.h</text>
</a>
</g>
</g>
<!-- Node6&#45;&gt;Node7 -->
<g id="edge6" class="edge">
<title>Node6&#45;&gt;Node7</title>
<path fill="none" stroke="midnightblue" d="M433.56,-190.48C399.53,-180.09 341.92,-162.51 304.04,-150.95"/>
<polygon fill="midnightblue" stroke="midnightblue" points="304.97,-147.58 294.39,-148.01 302.93,-154.28 304.97,-147.58"/>
</g>
<!-- Node8 -->
<g id="node8" class="node">
<title>Node8</title>
<g id="a_node8"><a xlink:href="gui__event__dispatching_8h.html" target="_top" xlink:title=" ">
<polygon fill="white" stroke="black" points="354.5,-123.5 354.5,-153.5 454.5,-153.5 454.5,-123.5 354.5,-123.5"/>
<text text-anchor="start" x="362.5" y="-141.5" font-family="Helvetica,sans-Serif" font-size="10.00">../events/gui_event</text>
<text text-anchor="middle" x="404.5" y="-130.5" font-family="Helvetica,sans-Serif" font-size="10.00">_dispatching.h</text>
</a>
</g>
</g>
<!-- Node6&#45;&gt;Node8 -->
<g id="edge7" class="edge">
<title>Node6&#45;&gt;Node8</title>
<path fill="none" stroke="midnightblue" d="M453.33,-190.48C445.97,-182.79 434.84,-171.17 425.06,-160.96"/>
<polygon fill="midnightblue" stroke="midnightblue" points="427.38,-158.32 417.93,-153.52 422.32,-163.17 427.38,-158.32"/>
</g>
<!-- Node16 -->
<g id="node16" class="node">
<title>Node16</title>
<g id="a_node16"><a xlink:href="shadow_8h.html" target="_top" xlink:title=" ">
<polygon fill="white" stroke="black" points="472.5,-129 472.5,-148 562.5,-148 562.5,-129 472.5,-129"/>
<text text-anchor="middle" x="517.5" y="-136" font-family="Helvetica,sans-Serif" font-size="10.00">../paint/shadow.h</text>
</a>
</g>
</g>
<!-- Node6&#45;&gt;Node16 -->
<g id="edge16" class="edge">
<title>Node6&#45;&gt;Node16</title>
<path fill="none" stroke="midnightblue" d="M469.52,-190.48C478.09,-181.37 491.86,-166.74 502.46,-155.48"/>
<polygon fill="midnightblue" stroke="midnightblue" points="505.19,-157.69 509.49,-148.01 500.09,-152.89 505.19,-157.69"/>
</g>
<!-- Node9 -->
<g id="node9" class="node">
<title>Node9</title>
<g id="a_node9"><a xlink:title=" ">
<polygon fill="white" stroke="#bfbfbf" points="573.5,-62 573.5,-81 617.5,-81 617.5,-62 573.5,-62"/>
<text text-anchor="middle" x="595.5" y="-69" font-family="Helvetica,sans-Serif" font-size="10.00">vector</text>
</a>
</g>
</g>
<!-- Node8&#45;&gt;Node9 -->
<g id="edge8" class="edge">
<title>Node8&#45;&gt;Node9</title>
<path fill="none" stroke="midnightblue" d="M454.82,-123.47C486.63,-114.15 528.4,-101.07 564.5,-87 565.92,-86.45 567.36,-85.86 568.82,-85.25"/>
<polygon fill="midnightblue" stroke="midnightblue" points="570.58,-88.3 578.3,-81.04 567.74,-81.9 570.58,-88.3"/>
</g>
<!-- Node10 -->
<g id="node10" class="node">
<title>Node10</title>
<g id="a_node10"><a xlink:title=" ">
<polygon fill="white" stroke="#bfbfbf" points="143,-62 143,-81 298,-81 298,-62 143,-62"/>
<text text-anchor="middle" x="220.5" y="-69" font-family="Helvetica,sans-Serif" font-size="10.00">sml/events/event_dispatching.h</text>
</a>
</g>
</g>
<!-- Node8&#45;&gt;Node10 -->
<g id="edge9" class="edge">
<title>Node8&#45;&gt;Node10</title>
<path fill="none" stroke="midnightblue" d="M364.57,-123.4C331.58,-111.74 285.25,-95.37 254.12,-84.38"/>
<polygon fill="midnightblue" stroke="midnightblue" points="255.18,-81.04 244.58,-81.01 252.84,-87.64 255.18,-81.04"/>
</g>
<!-- Node11 -->
<g id="node11" class="node">
<title>Node11</title>
<g id="a_node11"><a xlink:title=" ">
<polygon fill="white" stroke="#bfbfbf" points="316,-56.5 316,-86.5 415,-86.5 415,-56.5 316,-56.5"/>
<text text-anchor="start" x="324" y="-74.5" font-family="Helvetica,sans-Serif" font-size="10.00">sml/events/listener</text>
<text text-anchor="middle" x="365.5" y="-63.5" font-family="Helvetica,sans-Serif" font-size="10.00">_notifier.h</text>
</a>
</g>
</g>
<!-- Node8&#45;&gt;Node11 -->
<g id="edge10" class="edge">
<title>Node8&#45;&gt;Node11</title>
<path fill="none" stroke="midnightblue" d="M396.04,-123.4C391.13,-115.22 384.84,-104.73 379.24,-95.39"/>
<polygon fill="midnightblue" stroke="midnightblue" points="382.09,-93.35 373.95,-86.58 376.09,-96.95 382.09,-93.35"/>
</g>
<!-- Node12 -->
<g id="node12" class="node">
<title>Node12</title>
<g id="a_node12"><a xlink:title=" ">
<polygon fill="white" stroke="#bfbfbf" points="293,-0.5 293,-19.5 436,-19.5 436,-0.5 293,-0.5"/>
<text text-anchor="middle" x="364.5" y="-7.5" font-family="Helvetica,sans-Serif" font-size="10.00">sml/events/system_events.h</text>
</a>
</g>
</g>
<!-- Node8&#45;&gt;Node12 -->
<g id="edge11" class="edge">
<title>Node8&#45;&gt;Node12</title>
<path fill="none" stroke="midnightblue" d="M413.67,-123.29C423.27,-106.49 435.51,-78.02 424.5,-56 417.77,-42.54 404.89,-32.07 392.79,-24.62"/>
<polygon fill="midnightblue" stroke="midnightblue" points="394.22,-21.41 383.8,-19.52 390.77,-27.5 394.22,-21.41"/>
</g>
<!-- Node13 -->
<g id="node13" class="node">
<title>Node13</title>
<g id="a_node13"><a xlink:href="gui__event_8h.html" target="_top" xlink:title=" ">
<polygon fill="white" stroke="black" points="58,-62 58,-81 125,-81 125,-62 58,-62"/>
<text text-anchor="middle" x="91.5" y="-69" font-family="Helvetica,sans-Serif" font-size="10.00">gui_event.h</text>
</a>
</g>
</g>
<!-- Node8&#45;&gt;Node13 -->
<g id="edge12" class="edge">
<title>Node8&#45;&gt;Node13</title>
<path fill="none" stroke="midnightblue" d="M354.34,-124.91C351.36,-124.24 348.39,-123.6 345.5,-123 251.92,-103.58 226.09,-110.67 133.5,-87 130.29,-86.18 126.97,-85.22 123.67,-84.2"/>
<polygon fill="midnightblue" stroke="midnightblue" points="124.55,-80.81 113.96,-81.02 122.37,-87.46 124.55,-80.81"/>
</g>
<!-- Node13&#45;&gt;Node12 -->
<g id="edge14" class="edge">
<title>Node13&#45;&gt;Node12</title>
<path fill="none" stroke="midnightblue" d="M114.43,-61.94C120.57,-59.82 127.24,-57.68 133.5,-56 188.83,-41.14 252.84,-29.06 299.43,-21.17"/>
<polygon fill="midnightblue" stroke="midnightblue" points="300.11,-24.6 309.4,-19.5 298.96,-17.7 300.11,-24.6"/>
</g>
<!-- Node14 -->
<g id="node14" class="node">
<title>Node14</title>
<g id="a_node14"><a xlink:title=" ">
<polygon fill="white" stroke="#bfbfbf" points="95.5,-0.5 95.5,-19.5 195.5,-19.5 195.5,-0.5 95.5,-0.5"/>
<text text-anchor="middle" x="145.5" y="-7.5" font-family="Helvetica,sans-Serif" font-size="10.00">sml/events/event.h</text>
</a>
</g>
</g>
<!-- Node13&#45;&gt;Node14 -->
<g id="edge13" class="edge">
<title>Node13&#45;&gt;Node14</title>
<path fill="none" stroke="midnightblue" d="M99.24,-61.98C107.5,-52.87 120.78,-38.24 130.99,-26.98"/>
<polygon fill="midnightblue" stroke="midnightblue" points="133.65,-29.27 137.78,-19.51 128.47,-24.56 133.65,-29.27"/>
</g>
<!-- Node15 -->
<g id="node15" class="node">
<title>Node15</title>
<g id="a_node15"><a xlink:title=" ">
<polygon fill="white" stroke="#bfbfbf" points="0,-0.5 0,-19.5 77,-19.5 77,-0.5 0,-0.5"/>
<text text-anchor="middle" x="38.5" y="-7.5" font-family="Helvetica,sans-Serif" font-size="10.00">sml/sml_log.h</text>
</a>
</g>
</g>
<!-- Node13&#45;&gt;Node15 -->
<g id="edge15" class="edge">
<title>Node13&#45;&gt;Node15</title>
<path fill="none" stroke="midnightblue" d="M83.91,-61.98C75.8,-52.87 62.77,-38.24 52.74,-26.98"/>
<polygon fill="midnightblue" stroke="midnightblue" points="55.34,-24.65 46.08,-19.51 50.12,-29.3 55.34,-24.65"/>
</g>
<!-- Node17 -->
<g id="node17" class="node">
<title>Node17</title>
<g id="a_node17"><a xlink:title=" ">
<polygon fill="white" stroke="#bfbfbf" points="472,-62 472,-81 555,-81 555,-62 472,-62"/>
<text text-anchor="middle" x="513.5" y="-69" font-family="Helvetica,sans-Serif" font-size="10.00">sml/math/blur.h</text>
</a>
</g>
</g>
<!-- Node16&#45;&gt;Node17 -->
<g id="edge17" class="edge">
<title>Node16&#45;&gt;Node17</title>
<path fill="none" stroke="midnightblue" d="M516.96,-128.73C516.37,-119.18 515.41,-103.62 514.66,-91.28"/>
<polygon fill="midnightblue" stroke="midnightblue" points="518.14,-90.89 514.03,-81.13 511.15,-91.32 518.14,-90.89"/>
</g>
<!-- Node18 -->
<g id="node18" class="node">
<title>Node18</title>
<g id="a_node18"><a xlink:title=" ">
<polygon fill="white" stroke="#bfbfbf" points="635.5,-56.5 635.5,-86.5 747.5,-86.5 747.5,-56.5 635.5,-56.5"/>
<text text-anchor="start" x="643.5" y="-74.5" font-family="Helvetica,sans-Serif" font-size="10.00">sml/graphics_wrapper</text>
<text text-anchor="middle" x="691.5" y="-63.5" font-family="Helvetica,sans-Serif" font-size="10.00">/texture.h</text>
</a>
</g>
</g>
<!-- Node16&#45;&gt;Node18 -->
<g id="edge18" class="edge">
<title>Node16&#45;&gt;Node18</title>
<path fill="none" stroke="midnightblue" d="M540.61,-128.87C566.94,-119.03 610.69,-102.69 644.31,-90.13"/>
<polygon fill="midnightblue" stroke="midnightblue" points="645.81,-93.31 653.95,-86.53 643.36,-86.75 645.81,-93.31"/>
</g>
<!-- Node20 -->
<g id="node20" class="node">
<title>Node20</title>
<g id="a_node20"><a xlink:title=" ">
<polygon fill="white" stroke="#bfbfbf" points="1008,-62 1008,-81 1057,-81 1057,-62 1008,-62"/>
<text text-anchor="middle" x="1032.5" y="-69" font-family="Helvetica,sans-Serif" font-size="10.00">stdint.h</text>
</a>
</g>
</g>
<!-- Node19&#45;&gt;Node20 -->
<g id="edge20" class="edge">
<title>Node19&#45;&gt;Node20</title>
<path fill="none" stroke="midnightblue" d="M1032.5,-128.73C1032.5,-119.18 1032.5,-103.62 1032.5,-91.28"/>
<polygon fill="midnightblue" stroke="midnightblue" points="1036,-91.13 1032.5,-81.13 1029,-91.13 1036,-91.13"/>
</g>
<!-- Node21&#45;&gt;Node19 -->
<g id="edge24" class="edge">
<title>Node21&#45;&gt;Node19</title>
<path fill="none" stroke="midnightblue" d="M918.56,-190.48C940.97,-180.45 978.41,-163.7 1004.21,-152.15"/>
<polygon fill="midnightblue" stroke="midnightblue" points="1005.78,-155.29 1013.48,-148.01 1002.92,-148.9 1005.78,-155.29"/>
</g>
<!-- Node22 -->
<g id="node22" class="node">
<title>Node22</title>
<g id="a_node22"><a xlink:title=" ">
<polygon fill="white" stroke="#bfbfbf" points="822.5,-123.5 822.5,-153.5 934.5,-153.5 934.5,-123.5 822.5,-123.5"/>
<text text-anchor="start" x="830.5" y="-141.5" font-family="Helvetica,sans-Serif" font-size="10.00">sml/graphics_wrapper</text>
<text text-anchor="middle" x="878.5" y="-130.5" font-family="Helvetica,sans-Serif" font-size="10.00">/color.h</text>
</a>
</g>
</g>
<!-- Node21&#45;&gt;Node22 -->
<g id="edge22" class="edge">
<title>Node21&#45;&gt;Node22</title>
<path fill="none" stroke="midnightblue" d="M896.49,-190.48C893.97,-183.32 890.23,-172.75 886.82,-163.08"/>
<polygon fill="midnightblue" stroke="midnightblue" points="890.08,-161.79 883.45,-153.52 883.48,-164.12 890.08,-161.79"/>
</g>
<!-- Node23 -->
<g id="node23" class="node">
<title>Node23</title>
<g id="a_node23"><a xlink:title=" ">
<polygon fill="white" stroke="#bfbfbf" points="873.5,-62 873.5,-81 981.5,-81 981.5,-62 873.5,-62"/>
<text text-anchor="middle" x="927.5" y="-69" font-family="Helvetica,sans-Serif" font-size="10.00">sml/math/rectangle.h</text>
</a>
</g>
</g>
<!-- Node21&#45;&gt;Node23 -->
<g id="edge23" class="edge">
<title>Node21&#45;&gt;Node23</title>
<path fill="none" stroke="midnightblue" d="M912.28,-190.37C922.89,-182.36 937.23,-169.38 943.5,-154 951.97,-133.21 944.22,-107.57 936.85,-90.66"/>
<polygon fill="midnightblue" stroke="midnightblue" points="939.9,-88.92 932.45,-81.38 933.57,-91.92 939.9,-88.92"/>
</g>
<!-- Node24&#45;&gt;Node9 -->
<g id="edge26" class="edge">
<title>Node24&#45;&gt;Node9</title>
<path fill="none" stroke="midnightblue" d="M694.19,-193C667.01,-187.25 635.69,-176 615.5,-154 599.84,-136.93 595.91,-109.63 595.19,-91.39"/>
<polygon fill="midnightblue" stroke="midnightblue" points="598.69,-91.33 595.08,-81.37 591.69,-91.41 598.69,-91.33"/>
</g>
<!-- Node24&#45;&gt;Node23 -->
<g id="edge27" class="edge">
<title>Node24&#45;&gt;Node23</title>
<path fill="none" stroke="midnightblue" d="M753.96,-190.38C764.05,-175.02 787.04,-142.7 813.5,-123 836.59,-105.8 866.46,-92.84 889.83,-84.36"/>
<polygon fill="midnightblue" stroke="midnightblue" points="891.13,-87.61 899.41,-81 888.81,-81.01 891.13,-87.61"/>
</g>
<!-- Node25 -->
<g id="node25" class="node">
<title>Node25</title>
<g id="a_node25"><a xlink:href="fill_8h.html" target="_top" xlink:title=" ">
<polygon fill="white" stroke="black" points="731,-129 731,-148 766,-148 766,-129 731,-129"/>
<text text-anchor="middle" x="748.5" y="-136" font-family="Helvetica,sans-Serif" font-size="10.00">fill.h</text>
</a>
</g>
</g>
<!-- Node24&#45;&gt;Node25 -->
<g id="edge28" class="edge">
<title>Node24&#45;&gt;Node25</title>
<path fill="none" stroke="midnightblue" d="M748.5,-190.48C748.5,-182.08 748.5,-168.98 748.5,-158.16"/>
<polygon fill="midnightblue" stroke="midnightblue" points="752,-158.01 748.5,-148.01 745,-158.01 752,-158.01"/>
</g>
<!-- Node27 -->
<g id="node27" class="node">
<title>Node27</title>
<g id="a_node27"><a xlink:href="image_8h.html" target="_top" xlink:title=" ">
<polygon fill="white" stroke="black" points="624,-129 624,-148 713,-148 713,-129 624,-129"/>
<text text-anchor="middle" x="668.5" y="-136" font-family="Helvetica,sans-Serif" font-size="10.00">../media/image.h</text>
</a>
</g>
</g>
<!-- Node24&#45;&gt;Node27 -->
<g id="edge33" class="edge">
<title>Node24&#45;&gt;Node27</title>
<path fill="none" stroke="midnightblue" d="M737.04,-190.48C724.33,-181.02 703.59,-165.6 688.25,-154.19"/>
<polygon fill="midnightblue" stroke="midnightblue" points="690.05,-151.17 679.94,-148.01 685.88,-156.79 690.05,-151.17"/>
</g>
<!-- Node25&#45;&gt;Node9 -->
<g id="edge29" class="edge">
<title>Node25&#45;&gt;Node9</title>
<path fill="none" stroke="midnightblue" d="M734.12,-128.98C730.4,-126.91 726.35,-124.78 722.5,-123 681.15,-103.85 668.5,-104.67 626.5,-87 625.13,-86.42 623.73,-85.82 622.33,-85.21"/>
<polygon fill="midnightblue" stroke="midnightblue" points="623.65,-81.96 613.1,-81.02 620.76,-88.34 623.65,-81.96"/>
</g>
<!-- Node25&#45;&gt;Node18 -->
<g id="edge32" class="edge">
<title>Node25&#45;&gt;Node18</title>
<path fill="none" stroke="midnightblue" d="M740.81,-128.73C733.11,-119.95 720.95,-106.08 710.63,-94.31"/>
<polygon fill="midnightblue" stroke="midnightblue" points="713.08,-91.8 703.85,-86.59 707.82,-96.42 713.08,-91.8"/>
</g>
<!-- Node25&#45;&gt;Node23 -->
<g id="edge31" class="edge">
<title>Node25&#45;&gt;Node23</title>
<path fill="none" stroke="midnightblue" d="M766.31,-129.07C770.9,-127 775.85,-124.85 780.5,-123 817.45,-108.32 860.56,-93.81 890.5,-84.14"/>
<polygon fill="midnightblue" stroke="midnightblue" points="891.67,-87.44 900.13,-81.05 889.53,-80.77 891.67,-87.44"/>
</g>
<!-- Node26 -->
<g id="node26" class="node">
<title>Node26</title>
<g id="a_node26"><a xlink:title=" ">
<polygon fill="white" stroke="#bfbfbf" points="766,-62 766,-81 855,-81 855,-62 766,-62"/>
<text text-anchor="middle" x="810.5" y="-69" font-family="Helvetica,sans-Serif" font-size="10.00">sml/math/vec2.h</text>
</a>
</g>
</g>
<!-- Node25&#45;&gt;Node26 -->
<g id="edge30" class="edge">
<title>Node25&#45;&gt;Node26</title>
<path fill="none" stroke="midnightblue" d="M756.86,-128.73C766.62,-118.5 782.97,-101.36 795.05,-88.69"/>
<polygon fill="midnightblue" stroke="midnightblue" points="797.9,-90.78 802.27,-81.13 792.84,-85.95 797.9,-90.78"/>
</g>
<!-- Node27&#45;&gt;Node18 -->
<g id="edge34" class="edge">
<title>Node27&#45;&gt;Node18</title>
<path fill="none" stroke="midnightblue" d="M671.6,-128.73C674.56,-120.37 679.15,-107.4 683.18,-96.02"/>
<polygon fill="midnightblue" stroke="midnightblue" points="686.48,-97.18 686.51,-86.59 679.88,-94.85 686.48,-97.18"/>
</g>
</g>
</svg>
