<?xml version="1.0" encoding="UTF-8" standalone="no"?>
<!DOCTYPE svg PUBLIC "-//W3C//DTD SVG 1.1//EN"
 "http://www.w3.org/Graphics/SVG/1.1/DTD/svg11.dtd">
<!-- Generated by graphviz version 2.50.0 (20211204.2007)
 -->
<!-- Title: background.cpp Pages: 1 -->
<svg width="458pt" height="196pt"
 viewBox="0.00 0.00 457.50 196.00" xmlns="http://www.w3.org/2000/svg" xmlns:xlink="http://www.w3.org/1999/xlink">
<g id="graph0" class="graph" transform="scale(1 1) rotate(0) translate(4 192)">
<title>background.cpp</title>
<polygon fill="white" stroke="transparent" points="-4,4 -4,-192 453.5,-192 453.5,4 -4,4"/>
<!-- Node1 -->
<g id="node1" class="node">
<title>Node1</title>
<g id="a_node1"><a xlink:title=" ">
<polygon fill="#bfbfbf" stroke="black" points="181,-168.5 181,-187.5 267,-187.5 267,-168.5 181,-168.5"/>
<text text-anchor="middle" x="224" y="-175.5" font-family="Helvetica,sans-Serif" font-size="10.00">background.cpp</text>
</a>
</g>
</g>
<!-- Node2 -->
<g id="node2" class="node">
<title>Node2</title>
<g id="a_node2"><a xlink:href="background_8h.html" target="_top" xlink:title=" ">
<polygon fill="white" stroke="black" points="174.5,-112.5 174.5,-131.5 273.5,-131.5 273.5,-112.5 174.5,-112.5"/>
<text text-anchor="middle" x="224" y="-119.5" font-family="Helvetica,sans-Serif" font-size="10.00">paint/background.h</text>
</a>
</g>
</g>
<!-- Node1&#45;&gt;Node2 -->
<g id="edge1" class="edge">
<title>Node1&#45;&gt;Node2</title>
<path fill="none" stroke="midnightblue" d="M224,-168.08C224,-161.01 224,-150.86 224,-141.99"/>
<polygon fill="midnightblue" stroke="midnightblue" points="227.5,-141.75 224,-131.75 220.5,-141.75 227.5,-141.75"/>
</g>
<!-- Node5 -->
<g id="node5" class="node">
<title>Node5</title>
<g id="a_node5"><a xlink:href="fill_8h.html" target="_top" xlink:title=" ">
<polygon fill="white" stroke="black" points="144.5,-56.5 144.5,-75.5 179.5,-75.5 179.5,-56.5 144.5,-56.5"/>
<text text-anchor="middle" x="162" y="-63.5" font-family="Helvetica,sans-Serif" font-size="10.00">fill.h</text>
</a>
</g>
</g>
<!-- Node1&#45;&gt;Node5 -->
<g id="edge11" class="edge">
<title>Node1&#45;&gt;Node5</title>
<path fill="none" stroke="midnightblue" d="M205.52,-168.44C191.69,-160.95 173.73,-148.66 165,-132 157.54,-117.77 157.45,-99.3 158.83,-85.68"/>
<polygon fill="midnightblue" stroke="midnightblue" points="162.32,-85.97 160.21,-75.59 155.39,-85.02 162.32,-85.97"/>
</g>
<!-- Node8 -->
<g id="node8" class="node">
<title>Node8</title>
<g id="a_node8"><a xlink:href="image_8h.html" target="_top" xlink:title=" ">
<polygon fill="white" stroke="black" points="257.5,-56.5 257.5,-75.5 346.5,-75.5 346.5,-56.5 257.5,-56.5"/>
<text text-anchor="middle" x="302" y="-63.5" font-family="Helvetica,sans-Serif" font-size="10.00">../media/image.h</text>
</a>
</g>
</g>
<!-- Node1&#45;&gt;Node8 -->
<g id="edge12" class="edge">
<title>Node1&#45;&gt;Node8</title>
<path fill="none" stroke="midnightblue" d="M240.34,-168.44C253.68,-160.64 272.06,-147.93 283,-132 292.46,-118.22 297.28,-99.7 299.68,-85.95"/>
<polygon fill="midnightblue" stroke="midnightblue" points="303.19,-86.14 301.19,-75.73 296.27,-85.11 303.19,-86.14"/>
</g>
<!-- Node3 -->
<g id="node3" class="node">
<title>Node3</title>
<g id="a_node3"><a xlink:title=" ">
<polygon fill="white" stroke="#bfbfbf" points="0,-0.5 0,-19.5 44,-19.5 44,-0.5 0,-0.5"/>
<text text-anchor="middle" x="22" y="-7.5" font-family="Helvetica,sans-Serif" font-size="10.00">vector</text>
</a>
</g>
</g>
<!-- Node2&#45;&gt;Node3 -->
<g id="edge2" class="edge">
<title>Node2&#45;&gt;Node3</title>
<path fill="none" stroke="midnightblue" d="M206.46,-112.48C188.41,-103.63 159.53,-89.24 135,-76 103.63,-59.07 68.09,-38.36 45.38,-24.94"/>
<polygon fill="midnightblue" stroke="midnightblue" points="46.87,-21.76 36.49,-19.67 43.3,-27.78 46.87,-21.76"/>
</g>
<!-- Node4 -->
<g id="node4" class="node">
<title>Node4</title>
<g id="a_node4"><a xlink:title=" ">
<polygon fill="white" stroke="#bfbfbf" points="170,-0.5 170,-19.5 278,-19.5 278,-0.5 170,-0.5"/>
<text text-anchor="middle" x="224" y="-7.5" font-family="Helvetica,sans-Serif" font-size="10.00">sml/math/rectangle.h</text>
</a>
</g>
</g>
<!-- Node2&#45;&gt;Node4 -->
<g id="edge3" class="edge">
<title>Node2&#45;&gt;Node4</title>
<path fill="none" stroke="midnightblue" d="M224,-112.37C224,-94.62 224,-53.67 224,-29.6"/>
<polygon fill="midnightblue" stroke="midnightblue" points="227.5,-29.59 224,-19.59 220.5,-29.59 227.5,-29.59"/>
</g>
<!-- Node2&#45;&gt;Node5 -->
<g id="edge4" class="edge">
<title>Node2&#45;&gt;Node5</title>
<path fill="none" stroke="midnightblue" d="M214.04,-112.32C204.87,-104.34 191.06,-92.31 179.97,-82.65"/>
<polygon fill="midnightblue" stroke="midnightblue" points="181.98,-79.76 172.14,-75.83 177.38,-85.04 181.98,-79.76"/>
</g>
<!-- Node2&#45;&gt;Node8 -->
<g id="edge9" class="edge">
<title>Node2&#45;&gt;Node8</title>
<path fill="none" stroke="midnightblue" d="M236.53,-112.32C248.59,-103.98 267.03,-91.21 281.27,-81.35"/>
<polygon fill="midnightblue" stroke="midnightblue" points="283.27,-84.22 289.5,-75.65 279.28,-78.47 283.27,-84.22"/>
</g>
<!-- Node5&#45;&gt;Node3 -->
<g id="edge5" class="edge">
<title>Node5&#45;&gt;Node3</title>
<path fill="none" stroke="midnightblue" d="M144.27,-58.16C121.5,-49.38 81.58,-33.98 53.56,-23.17"/>
<polygon fill="midnightblue" stroke="midnightblue" points="54.79,-19.89 44.2,-19.56 52.27,-26.43 54.79,-19.89"/>
</g>
<!-- Node5&#45;&gt;Node4 -->
<g id="edge7" class="edge">
<title>Node5&#45;&gt;Node4</title>
<path fill="none" stroke="midnightblue" d="M171.96,-56.32C181.13,-48.34 194.94,-36.31 206.03,-26.65"/>
<polygon fill="midnightblue" stroke="midnightblue" points="208.62,-29.04 213.86,-19.83 204.02,-23.76 208.62,-29.04"/>
</g>
<!-- Node6 -->
<g id="node6" class="node">
<title>Node6</title>
<g id="a_node6"><a xlink:title=" ">
<polygon fill="white" stroke="#bfbfbf" points="62.5,-0.5 62.5,-19.5 151.5,-19.5 151.5,-0.5 62.5,-0.5"/>
<text text-anchor="middle" x="107" y="-7.5" font-family="Helvetica,sans-Serif" font-size="10.00">sml/math/vec2.h</text>
</a>
</g>
</g>
<!-- Node5&#45;&gt;Node6 -->
<g id="edge6" class="edge">
<title>Node5&#45;&gt;Node6</title>
<path fill="none" stroke="midnightblue" d="M152.92,-56.08C144.83,-48.14 132.8,-36.34 123.09,-26.8"/>
<polygon fill="midnightblue" stroke="midnightblue" points="125.5,-24.26 115.91,-19.75 120.6,-29.25 125.5,-24.26"/>
</g>
<!-- Node7 -->
<g id="node7" class="node">
<title>Node7</title>
<g id="a_node7"><a xlink:title=" ">
<polygon fill="white" stroke="#bfbfbf" points="296.5,-0.5 296.5,-19.5 449.5,-19.5 449.5,-0.5 296.5,-0.5"/>
<text text-anchor="middle" x="373" y="-7.5" font-family="Helvetica,sans-Serif" font-size="10.00">sml/graphics_wrapper/texture.h</text>
</a>
</g>
</g>
<!-- Node5&#45;&gt;Node7 -->
<g id="edge8" class="edge">
<title>Node5&#45;&gt;Node7</title>
<path fill="none" stroke="midnightblue" d="M179.63,-60.49C212.38,-52.11 283.51,-33.9 329.77,-22.06"/>
<polygon fill="midnightblue" stroke="midnightblue" points="330.7,-25.44 339.52,-19.57 328.97,-18.66 330.7,-25.44"/>
</g>
<!-- Node8&#45;&gt;Node7 -->
<g id="edge10" class="edge">
<title>Node8&#45;&gt;Node7</title>
<path fill="none" stroke="midnightblue" d="M313.41,-56.32C324.11,-48.18 340.34,-35.84 353.16,-26.09"/>
<polygon fill="midnightblue" stroke="midnightblue" points="355.54,-28.67 361.39,-19.83 351.31,-23.1 355.54,-28.67"/>
</g>
</g>
</svg>
