<?xml version="1.0" encoding="UTF-8" standalone="no"?>
<!DOCTYPE svg PUBLIC "-//W3C//DTD SVG 1.1//EN"
 "http://www.w3.org/Graphics/SVG/1.1/DTD/svg11.dtd">
<!-- Generated by graphviz version 2.50.0 (20211204.2007)
 -->
<!-- Title: background.h Pages: 1 -->
<svg width="457pt" height="140pt"
 viewBox="0.00 0.00 456.50 140.00" xmlns="http://www.w3.org/2000/svg" xmlns:xlink="http://www.w3.org/1999/xlink">
<g id="graph0" class="graph" transform="scale(1 1) rotate(0) translate(4 136)">
<title>background.h</title>
<polygon fill="white" stroke="transparent" points="-4,4 -4,-136 452.5,-136 452.5,4 -4,4"/>
<!-- Node1 -->
<g id="node1" class="node">
<title>Node1</title>
<g id="a_node1"><a xlink:title=" ">
<polygon fill="#bfbfbf" stroke="black" points="101.5,-112.5 101.5,-131.5 176.5,-131.5 176.5,-112.5 101.5,-112.5"/>
<text text-anchor="middle" x="139" y="-119.5" font-family="Helvetica,sans-Serif" font-size="10.00">background.h</text>
</a>
</g>
</g>
<!-- Node2 -->
<g id="node2" class="node">
<title>Node2</title>
<g id="a_node2"><a xlink:title=" ">
<polygon fill="white" stroke="#bfbfbf" points="0,-0.5 0,-19.5 44,-19.5 44,-0.5 0,-0.5"/>
<text text-anchor="middle" x="22" y="-7.5" font-family="Helvetica,sans-Serif" font-size="10.00">vector</text>
</a>
</g>
</g>
<!-- Node1&#45;&gt;Node2 -->
<g id="edge1" class="edge">
<title>Node1&#45;&gt;Node2</title>
<path fill="none" stroke="midnightblue" d="M129.82,-112.37C110.17,-93.89 63.79,-50.29 38.75,-26.74"/>
<polygon fill="midnightblue" stroke="midnightblue" points="40.82,-23.89 31.14,-19.59 36.03,-28.99 40.82,-23.89"/>
</g>
<!-- Node3 -->
<g id="node3" class="node">
<title>Node3</title>
<g id="a_node3"><a xlink:title=" ">
<polygon fill="white" stroke="#bfbfbf" points="62,-0.5 62,-19.5 170,-19.5 170,-0.5 62,-0.5"/>
<text text-anchor="middle" x="116" y="-7.5" font-family="Helvetica,sans-Serif" font-size="10.00">sml/math/rectangle.h</text>
</a>
</g>
</g>
<!-- Node1&#45;&gt;Node3 -->
<g id="edge2" class="edge">
<title>Node1&#45;&gt;Node3</title>
<path fill="none" stroke="midnightblue" d="M137.2,-112.37C133.48,-94.62 124.92,-53.67 119.89,-29.6"/>
<polygon fill="midnightblue" stroke="midnightblue" points="123.27,-28.66 117.8,-19.59 116.42,-30.1 123.27,-28.66"/>
</g>
<!-- Node4 -->
<g id="node4" class="node">
<title>Node4</title>
<g id="a_node4"><a xlink:href="fill_8h.html" target="_top" xlink:title=" ">
<polygon fill="white" stroke="black" points="144.5,-56.5 144.5,-75.5 179.5,-75.5 179.5,-56.5 144.5,-56.5"/>
<text text-anchor="middle" x="162" y="-63.5" font-family="Helvetica,sans-Serif" font-size="10.00">fill.h</text>
</a>
</g>
</g>
<!-- Node1&#45;&gt;Node4 -->
<g id="edge3" class="edge">
<title>Node1&#45;&gt;Node4</title>
<path fill="none" stroke="midnightblue" d="M142.8,-112.08C145.91,-104.77 150.42,-94.18 154.29,-85.1"/>
<polygon fill="midnightblue" stroke="midnightblue" points="157.57,-86.32 158.27,-75.75 151.13,-83.58 157.57,-86.32"/>
</g>
<!-- Node7 -->
<g id="node7" class="node">
<title>Node7</title>
<g id="a_node7"><a xlink:href="image_8h.html" target="_top" xlink:title=" ">
<polygon fill="white" stroke="black" points="262.5,-56.5 262.5,-75.5 351.5,-75.5 351.5,-56.5 262.5,-56.5"/>
<text text-anchor="middle" x="307" y="-63.5" font-family="Helvetica,sans-Serif" font-size="10.00">../media/image.h</text>
</a>
</g>
</g>
<!-- Node1&#45;&gt;Node7 -->
<g id="edge8" class="edge">
<title>Node1&#45;&gt;Node7</title>
<path fill="none" stroke="midnightblue" d="M165.62,-112.44C194.01,-103.32 239.14,-88.81 270.75,-78.65"/>
<polygon fill="midnightblue" stroke="midnightblue" points="272.06,-81.91 280.5,-75.52 269.91,-75.24 272.06,-81.91"/>
</g>
<!-- Node4&#45;&gt;Node2 -->
<g id="edge4" class="edge">
<title>Node4&#45;&gt;Node2</title>
<path fill="none" stroke="midnightblue" d="M144.27,-58.16C121.5,-49.38 81.58,-33.98 53.56,-23.17"/>
<polygon fill="midnightblue" stroke="midnightblue" points="54.79,-19.89 44.2,-19.56 52.27,-26.43 54.79,-19.89"/>
</g>
<!-- Node4&#45;&gt;Node3 -->
<g id="edge6" class="edge">
<title>Node4&#45;&gt;Node3</title>
<path fill="none" stroke="midnightblue" d="M154.4,-56.08C147.77,-48.3 137.98,-36.8 129.94,-27.37"/>
<polygon fill="midnightblue" stroke="midnightblue" points="132.6,-25.09 123.45,-19.75 127.27,-29.63 132.6,-25.09"/>
</g>
<!-- Node5 -->
<g id="node5" class="node">
<title>Node5</title>
<g id="a_node5"><a xlink:title=" ">
<polygon fill="white" stroke="#bfbfbf" points="188.5,-0.5 188.5,-19.5 277.5,-19.5 277.5,-0.5 188.5,-0.5"/>
<text text-anchor="middle" x="233" y="-7.5" font-family="Helvetica,sans-Serif" font-size="10.00">sml/math/vec2.h</text>
</a>
</g>
</g>
<!-- Node4&#45;&gt;Node5 -->
<g id="edge5" class="edge">
<title>Node4&#45;&gt;Node5</title>
<path fill="none" stroke="midnightblue" d="M173.41,-56.32C184.11,-48.18 200.34,-35.84 213.16,-26.09"/>
<polygon fill="midnightblue" stroke="midnightblue" points="215.54,-28.67 221.39,-19.83 211.31,-23.1 215.54,-28.67"/>
</g>
<!-- Node6 -->
<g id="node6" class="node">
<title>Node6</title>
<g id="a_node6"><a xlink:title=" ">
<polygon fill="white" stroke="#bfbfbf" points="295.5,-0.5 295.5,-19.5 448.5,-19.5 448.5,-0.5 295.5,-0.5"/>
<text text-anchor="middle" x="372" y="-7.5" font-family="Helvetica,sans-Serif" font-size="10.00">sml/graphics_wrapper/texture.h</text>
</a>
</g>
</g>
<!-- Node4&#45;&gt;Node6 -->
<g id="edge7" class="edge">
<title>Node4&#45;&gt;Node6</title>
<path fill="none" stroke="midnightblue" d="M179.54,-60.49C212.15,-52.11 282.93,-33.9 328.97,-22.06"/>
<polygon fill="midnightblue" stroke="midnightblue" points="329.87,-25.45 338.68,-19.57 328.12,-18.67 329.87,-25.45"/>
</g>
<!-- Node7&#45;&gt;Node6 -->
<g id="edge9" class="edge">
<title>Node7&#45;&gt;Node6</title>
<path fill="none" stroke="midnightblue" d="M317.44,-56.32C327.15,-48.26 341.82,-36.08 353.5,-26.37"/>
<polygon fill="midnightblue" stroke="midnightblue" points="355.91,-28.92 361.37,-19.83 351.44,-23.53 355.91,-28.92"/>
</g>
</g>
</svg>
