<?xml version="1.0" encoding="UTF-8" standalone="no"?>
<!DOCTYPE svg PUBLIC "-//W3C//DTD SVG 1.1//EN"
 "http://www.w3.org/Graphics/SVG/1.1/DTD/svg11.dtd">
<!-- Generated by graphviz version 2.50.0 (20211204.2007)
 -->
<!-- Title: background.h Pages: 1 -->
<!--zoomable 420 -->
<svg id="main" version="1.1" xmlns="http://www.w3.org/2000/svg" xmlns:xlink="http://www.w3.org/1999/xlink" xml:space="preserve" onload="init(evt)">
<style type="text/css"><![CDATA[
.edge:hover path { stroke: red; }
.edge:hover polygon { stroke: red; fill: red; }
]]></style>
<script type="text/javascript"><![CDATA[
var edges = document.getElementsByTagName('g');
if (edges && edges.length) {
  for (var i=0;i<edges.length;i++) {
    if (edges[i].id.substr(0,4)=='edge') {
      edges[i].setAttribute('class','edge');
    }
  }
}
]]></script>
        <defs>
                <circle id="rim" cx="0" cy="0" r="7"/>
                <circle id="rim2" cx="0" cy="0" r="3.5"/>
                <g id="zoomPlus">
                        <use xlink:href="#rim" fill="#404040">
                                <set attributeName="fill" to="#808080" begin="zoomplus.mouseover" end="zoomplus.mouseout"/>
                        </use>
                        <path d="M-4,0h8M0,-4v8" fill="none" stroke="white" stroke-width="1.5" pointer-events="none"/>
                </g>
                <g id="zoomMin">
                        <use xlink:href="#rim" fill="#404040">
                                <set attributeName="fill" to="#808080" begin="zoomminus.mouseover" end="zoomminus.mouseout"/>
                        </use>
                        <path d="M-4,0h8" fill="none" stroke="white" stroke-width="1.5" pointer-events="none"/>
                </g>
                <g id="dirArrow">
                        <path fill="none" stroke="white" stroke-width="1.5" d="M0,-3.0v7 M-2.5,-0.5L0,-3.0L2.5,-0.5"/>
                </g>
               <g id="resetDef">
                       <use xlink:href="#rim2" fill="#404040">
                               <set attributeName="fill" to="#808080" begin="reset.mouseover" end="reset.mouseout"/>
                       </use>
               </g>
        </defs>

<script type="text/javascript">
var viewWidth = 1173;
var viewHeight = 420;
var sectionId = 'dynsection-1';
</script>
<script xlink:href="svgpan.js"/>
<svg id="graph" class="graph">
<g id="viewport">
<title>background.h</title>
<polygon fill="white" stroke="transparent" points="-4,4 -4,-416 1169,-416 1169,4 -4,4"/>
<!-- Node1 -->
<g id="node1" class="node">
<title>Node1</title>
<g id="a_node1"><a xlink:title=" ">
<polygon fill="#bfbfbf" stroke="black" points="745.5,-392.5 745.5,-411.5 820.5,-411.5 820.5,-392.5 745.5,-392.5"/>
<text text-anchor="middle" x="783" y="-399.5" font-family="Helvetica,sans-Serif" font-size="10.00">background.h</text>
</a>
</g>
</g>
<!-- Node2 -->
<g id="node2" class="node">
<title>Node2</title>
<g id="a_node2"><a xlink:href="background_8cpp.html" target="_top" xlink:title=" ">
<polygon fill="white" stroke="black" points="512,-336.5 512,-355.5 598,-355.5 598,-336.5 512,-336.5"/>
<text text-anchor="middle" x="555" y="-343.5" font-family="Helvetica,sans-Serif" font-size="10.00">background.cpp</text>
</a>
</g>
</g>
<!-- Node1&#45;&gt;Node2 -->
<g id="edge1" class="edge">
<title>Node1&#45;&gt;Node2</title>
<path fill="none" stroke="midnightblue" d="M736.93,-390.09C693.85,-379.89 630.41,-364.86 590.96,-355.52"/>
<polygon fill="midnightblue" stroke="midnightblue" points="736.34,-393.54 746.87,-392.44 737.95,-386.73 736.34,-393.54"/>
</g>
<!-- Node3 -->
<g id="node3" class="node">
<title>Node3</title>
<g id="a_node3"><a xlink:href="default__skins_8h.html" target="_top" xlink:title=" ">
<polygon fill="white" stroke="black" points="1062.5,-224.5 1062.5,-243.5 1145.5,-243.5 1145.5,-224.5 1062.5,-224.5"/>
<text text-anchor="middle" x="1104" y="-231.5" font-family="Helvetica,sans-Serif" font-size="10.00">default_skins.h</text>
</a>
</g>
</g>
<!-- Node1&#45;&gt;Node3 -->
<g id="edge2" class="edge">
<title>Node1&#45;&gt;Node3</title>
<path fill="none" stroke="midnightblue" d="M830.56,-394.12C915.53,-380.72 1087.66,-348.14 1121,-300 1133.09,-282.55 1119.39,-257.06 1110.47,-243.78"/>
<polygon fill="midnightblue" stroke="midnightblue" points="829.99,-390.67 820.65,-395.66 831.07,-397.58 829.99,-390.67"/>
</g>
<!-- Node16 -->
<g id="node16" class="node">
<title>Node16</title>
<g id="a_node16"><a xlink:href="parent_8h.html" target="_top" xlink:title=" ">
<polygon fill="white" stroke="black" points="616,-336.5 616,-355.5 668,-355.5 668,-336.5 616,-336.5"/>
<text text-anchor="middle" x="642" y="-343.5" font-family="Helvetica,sans-Serif" font-size="10.00">parent.h</text>
</a>
</g>
</g>
<!-- Node1&#45;&gt;Node16 -->
<g id="edge18" class="edge">
<title>Node1&#45;&gt;Node16</title>
<path fill="none" stroke="midnightblue" d="M751.07,-388.77C724.59,-378.63 687.61,-364.47 664.24,-355.52"/>
<polygon fill="midnightblue" stroke="midnightblue" points="750.07,-392.14 760.66,-392.44 752.57,-385.6 750.07,-392.14"/>
</g>
<!-- Node35 -->
<g id="node35" class="node">
<title>Node35</title>
<g id="a_node35"><a xlink:href="shape_8h.html" target="_top" xlink:title=" ">
<polygon fill="white" stroke="black" points="912.5,-336.5 912.5,-355.5 963.5,-355.5 963.5,-336.5 912.5,-336.5"/>
<text text-anchor="middle" x="938" y="-343.5" font-family="Helvetica,sans-Serif" font-size="10.00">shape.h</text>
</a>
</g>
</g>
<!-- Node1&#45;&gt;Node35 -->
<g id="edge47" class="edge">
<title>Node1&#45;&gt;Node35</title>
<path fill="none" stroke="midnightblue" d="M817.33,-389.04C846.5,-378.88 887.64,-364.55 913.55,-355.52"/>
<polygon fill="midnightblue" stroke="midnightblue" points="815.85,-385.85 807.56,-392.44 818.16,-392.46 815.85,-385.85"/>
</g>
<!-- Node4 -->
<g id="node4" class="node">
<title>Node4</title>
<g id="a_node4"><a xlink:href="button_8h.html" target="_top" xlink:title=" ">
<polygon fill="white" stroke="black" points="603,-168.5 603,-187.5 655,-187.5 655,-168.5 603,-168.5"/>
<text text-anchor="middle" x="629" y="-175.5" font-family="Helvetica,sans-Serif" font-size="10.00">button.h</text>
</a>
</g>
</g>
<!-- Node3&#45;&gt;Node4 -->
<g id="edge3" class="edge">
<title>Node3&#45;&gt;Node4</title>
<path fill="none" stroke="midnightblue" d="M1052.05,-223.81C896.05,-201.88 720.92,-186.54 655.44,-181.13"/>
<polygon fill="midnightblue" stroke="midnightblue" points="1051.9,-227.32 1062.29,-225.26 1052.89,-220.39 1051.9,-227.32"/>
</g>
<!-- Node7 -->
<g id="node7" class="node">
<title>Node7</title>
<g id="a_node7"><a xlink:href="default__skins_8cpp.html" target="_top" xlink:title=" ">
<polygon fill="white" stroke="black" points="695.5,-112.5 695.5,-131.5 788.5,-131.5 788.5,-112.5 695.5,-112.5"/>
<text text-anchor="middle" x="742" y="-119.5" font-family="Helvetica,sans-Serif" font-size="10.00">default_skins.cpp</text>
</a>
</g>
</g>
<!-- Node3&#45;&gt;Node7 -->
<g id="edge14" class="edge">
<title>Node3&#45;&gt;Node7</title>
<path fill="none" stroke="midnightblue" d="M1086.31,-217.91C1067.61,-202.82 1036.64,-180.14 1006,-168 933.6,-139.31 842.92,-128.9 788.88,-125.13"/>
<polygon fill="midnightblue" stroke="midnightblue" points="1084.28,-220.78 1094.22,-224.44 1088.73,-215.38 1084.28,-220.78"/>
</g>
<!-- Node13 -->
<g id="node13" class="node">
<title>Node13</title>
<g id="a_node13"><a xlink:href="scroll__bar_8cpp.html" target="_top" xlink:title=" ">
<polygon fill="white" stroke="black" points="749.5,-168.5 749.5,-187.5 826.5,-187.5 826.5,-168.5 749.5,-168.5"/>
<text text-anchor="middle" x="788" y="-175.5" font-family="Helvetica,sans-Serif" font-size="10.00">scroll_bar.cpp</text>
</a>
</g>
</g>
<!-- Node3&#45;&gt;Node13 -->
<g id="edge15" class="edge">
<title>Node3&#45;&gt;Node13</title>
<path fill="none" stroke="midnightblue" d="M1052.33,-223.72C966.29,-208.74 876.68,-193.73 826.79,-185.43"/>
<polygon fill="midnightblue" stroke="midnightblue" points="1051.81,-227.18 1062.26,-225.45 1053.01,-220.29 1051.81,-227.18"/>
</g>
<!-- Node14 -->
<g id="node14" class="node">
<title>Node14</title>
<g id="a_node14"><a xlink:href="slider_8cpp.html" target="_top" xlink:title=" ">
<polygon fill="white" stroke="black" points="939,-168.5 939,-187.5 997,-187.5 997,-168.5 939,-168.5"/>
<text text-anchor="middle" x="968" y="-175.5" font-family="Helvetica,sans-Serif" font-size="10.00">slider.cpp</text>
</a>
</g>
</g>
<!-- Node3&#45;&gt;Node14 -->
<g id="edge16" class="edge">
<title>Node3&#45;&gt;Node14</title>
<path fill="none" stroke="midnightblue" d="M1072.87,-220.64C1047.34,-210.5 1011.89,-196.43 989.45,-187.52"/>
<polygon fill="midnightblue" stroke="midnightblue" points="1071.86,-224.01 1082.45,-224.44 1074.45,-217.5 1071.86,-224.01"/>
</g>
<!-- Node15 -->
<g id="node15" class="node">
<title>Node15</title>
<g id="a_node15"><a xlink:href="text_8cpp.html" target="_top" xlink:title=" ">
<polygon fill="white" stroke="black" points="1113,-168.5 1113,-187.5 1165,-187.5 1165,-168.5 1113,-168.5"/>
<text text-anchor="middle" x="1139" y="-175.5" font-family="Helvetica,sans-Serif" font-size="10.00">text.cpp</text>
</a>
</g>
</g>
<!-- Node3&#45;&gt;Node15 -->
<g id="edge17" class="edge">
<title>Node3&#45;&gt;Node15</title>
<path fill="none" stroke="midnightblue" d="M1115.3,-215.57C1121.32,-206.27 1128.47,-195.25 1133.33,-187.75"/>
<polygon fill="midnightblue" stroke="midnightblue" points="1112.28,-213.79 1109.78,-224.08 1118.16,-217.6 1112.28,-213.79"/>
</g>
<!-- Node5 -->
<g id="node5" class="node">
<title>Node5</title>
<g id="a_node5"><a xlink:href="button_8cpp.html" target="_top" xlink:title=" ">
<polygon fill="white" stroke="black" points="615,-112.5 615,-131.5 677,-131.5 677,-112.5 615,-112.5"/>
<text text-anchor="middle" x="646" y="-119.5" font-family="Helvetica,sans-Serif" font-size="10.00">button.cpp</text>
</a>
</g>
</g>
<!-- Node4&#45;&gt;Node5 -->
<g id="edge4" class="edge">
<title>Node4&#45;&gt;Node5</title>
<path fill="none" stroke="midnightblue" d="M634.86,-158.4C637.7,-149.36 640.98,-138.94 643.25,-131.75"/>
<polygon fill="midnightblue" stroke="midnightblue" points="631.47,-157.49 631.81,-168.08 638.15,-159.6 631.47,-157.49"/>
</g>
<!-- Node6 -->
<g id="node6" class="node">
<title>Node6</title>
<g id="a_node6"><a xlink:href="context__menu_8cpp.html" target="_top" xlink:title=" ">
<polygon fill="white" stroke="black" points="383.5,-0.5 383.5,-19.5 480.5,-19.5 480.5,-0.5 383.5,-0.5"/>
<text text-anchor="middle" x="432" y="-7.5" font-family="Helvetica,sans-Serif" font-size="10.00">context_menu.cpp</text>
</a>
</g>
</g>
<!-- Node4&#45;&gt;Node6 -->
<g id="edge5" class="edge">
<title>Node4&#45;&gt;Node6</title>
<path fill="none" stroke="midnightblue" d="M616.59,-160.34C597.35,-135.35 558.23,-87.7 517,-56 496.88,-40.53 470.69,-27.57 452.72,-19.59"/>
<polygon fill="midnightblue" stroke="midnightblue" points="613.91,-162.61 622.74,-168.46 619.49,-158.37 613.91,-162.61"/>
</g>
<!-- Node4&#45;&gt;Node7 -->
<g id="edge6" class="edge">
<title>Node4&#45;&gt;Node7</title>
<path fill="none" stroke="midnightblue" d="M656,-164.1C677.11,-154.01 705.86,-140.27 724.18,-131.52"/>
<polygon fill="midnightblue" stroke="midnightblue" points="654.42,-160.97 646.91,-168.44 657.44,-167.29 654.42,-160.97"/>
</g>
<!-- Node8 -->
<g id="node8" class="node">
<title>Node8</title>
<g id="a_node8"><a xlink:href="menu__bar_8h.html" target="_top" xlink:title=" ">
<polygon fill="white" stroke="black" points="491.5,-112.5 491.5,-131.5 558.5,-131.5 558.5,-112.5 491.5,-112.5"/>
<text text-anchor="middle" x="525" y="-119.5" font-family="Helvetica,sans-Serif" font-size="10.00">menu_bar.h</text>
</a>
</g>
</g>
<!-- Node4&#45;&gt;Node8 -->
<g id="edge7" class="edge">
<title>Node4&#45;&gt;Node8</title>
<path fill="none" stroke="midnightblue" d="M603.17,-163.59C583.94,-153.61 558.26,-140.27 541.67,-131.65"/>
<polygon fill="midnightblue" stroke="midnightblue" points="601.8,-166.82 612.29,-168.32 605.03,-160.61 601.8,-166.82"/>
</g>
<!-- Node9 -->
<g id="node9" class="node">
<title>Node9</title>
<g id="a_node9"><a xlink:href="menu__bar_8cpp.html" target="_top" xlink:title=" ">
<polygon fill="white" stroke="black" points="498.5,-0.5 498.5,-19.5 575.5,-19.5 575.5,-0.5 498.5,-0.5"/>
<text text-anchor="middle" x="537" y="-7.5" font-family="Helvetica,sans-Serif" font-size="10.00">menu_bar.cpp</text>
</a>
</g>
</g>
<!-- Node8&#45;&gt;Node9 -->
<g id="edge8" class="edge">
<title>Node8&#45;&gt;Node9</title>
<path fill="none" stroke="midnightblue" d="M527.03,-102.35C529.66,-78.25 534.13,-37.31 536.06,-19.59"/>
<polygon fill="midnightblue" stroke="midnightblue" points="523.55,-102.05 525.94,-112.37 530.51,-102.81 523.55,-102.05"/>
</g>
<!-- Node10 -->
<g id="node10" class="node">
<title>Node10</title>
<g id="a_node10"><a xlink:href="scene_8h.html" target="_top" xlink:title=" ">
<polygon fill="white" stroke="black" points="457.5,-56.5 457.5,-75.5 508.5,-75.5 508.5,-56.5 457.5,-56.5"/>
<text text-anchor="middle" x="483" y="-63.5" font-family="Helvetica,sans-Serif" font-size="10.00">scene.h</text>
</a>
</g>
</g>
<!-- Node8&#45;&gt;Node10 -->
<g id="edge9" class="edge">
<title>Node8&#45;&gt;Node10</title>
<path fill="none" stroke="midnightblue" d="M511.89,-104.14C504.57,-94.74 495.76,-83.4 489.81,-75.75"/>
<polygon fill="midnightblue" stroke="midnightblue" points="509.16,-106.34 518.06,-112.08 514.69,-102.04 509.16,-106.34"/>
</g>
<!-- Node10&#45;&gt;Node6 -->
<g id="edge11" class="edge">
<title>Node10&#45;&gt;Node6</title>
<path fill="none" stroke="midnightblue" d="M467.62,-48.72C458.63,-39.2 447.64,-27.56 440.26,-19.75"/>
<polygon fill="midnightblue" stroke="midnightblue" points="465.17,-51.22 474.58,-56.08 470.26,-46.41 465.17,-51.22"/>
</g>
<!-- Node10&#45;&gt;Node9 -->
<g id="edge12" class="edge">
<title>Node10&#45;&gt;Node9</title>
<path fill="none" stroke="midnightblue" d="M499,-49C508.57,-39.43 520.36,-27.64 528.25,-19.75"/>
<polygon fill="midnightblue" stroke="midnightblue" points="496.51,-46.54 491.92,-56.08 501.46,-51.49 496.51,-46.54"/>
</g>
<!-- Node11 -->
<g id="node11" class="node">
<title>Node11</title>
<g id="a_node11"><a xlink:href="component_8cpp.html" target="_top" xlink:title=" ">
<polygon fill="white" stroke="black" points="41.5,-0.5 41.5,-19.5 124.5,-19.5 124.5,-0.5 41.5,-0.5"/>
<text text-anchor="middle" x="83" y="-7.5" font-family="Helvetica,sans-Serif" font-size="10.00">component.cpp</text>
</a>
</g>
</g>
<!-- Node10&#45;&gt;Node11 -->
<g id="edge10" class="edge">
<title>Node10&#45;&gt;Node11</title>
<path fill="none" stroke="midnightblue" d="M447.15,-60.16C373.03,-50.15 203.3,-27.24 124.55,-16.61"/>
<polygon fill="midnightblue" stroke="midnightblue" points="446.99,-63.67 457.37,-61.54 447.93,-56.73 446.99,-63.67"/>
</g>
<!-- Node12 -->
<g id="node12" class="node">
<title>Node12</title>
<g id="a_node12"><a xlink:href="scene_8cpp.html" target="_top" xlink:title=" ">
<polygon fill="white" stroke="black" points="250,-0.5 250,-19.5 312,-19.5 312,-0.5 250,-0.5"/>
<text text-anchor="middle" x="281" y="-7.5" font-family="Helvetica,sans-Serif" font-size="10.00">scene.cpp</text>
</a>
</g>
</g>
<!-- Node10&#45;&gt;Node12 -->
<g id="edge13" class="edge">
<title>Node10&#45;&gt;Node12</title>
<path fill="none" stroke="midnightblue" d="M447.73,-55.57C409.47,-45.34 348.97,-29.17 312.33,-19.38"/>
<polygon fill="midnightblue" stroke="midnightblue" points="446.85,-58.96 457.42,-58.16 448.66,-52.2 446.85,-58.96"/>
</g>
<!-- Node16&#45;&gt;Node11 -->
<g id="edge19" class="edge">
<title>Node16&#45;&gt;Node11</title>
<path fill="none" stroke="midnightblue" d="M605.64,-336.21C472.06,-318.51 172.14,-348.6 65,-300 27.79,-283.12 0,-275.86 0,-235 0,-235 0,-235 0,-121 0,-75.07 46.69,-36.16 70.03,-19.57"/>
<polygon fill="midnightblue" stroke="midnightblue" points="605.33,-339.7 615.74,-337.69 606.35,-332.77 605.33,-339.7"/>
</g>
<!-- Node16&#45;&gt;Node12 -->
<g id="edge46" class="edge">
<title>Node16&#45;&gt;Node12</title>
<path fill="none" stroke="midnightblue" d="M605.72,-336.19C460.13,-315.37 38,-360.41 38,-235 38,-235 38,-235 38,-121 38,-29.08 184.1,-13.57 249.73,-11.24"/>
<polygon fill="midnightblue" stroke="midnightblue" points="605.29,-339.66 615.72,-337.81 606.4,-332.75 605.29,-339.66"/>
</g>
<!-- Node17 -->
<g id="node17" class="node">
<title>Node17</title>
<g id="a_node17"><a xlink:href="container_8h.html" target="_top" xlink:title=" ">
<polygon fill="white" stroke="black" points="280,-280.5 280,-299.5 344,-299.5 344,-280.5 280,-280.5"/>
<text text-anchor="middle" x="312" y="-287.5" font-family="Helvetica,sans-Serif" font-size="10.00">container.h</text>
</a>
</g>
</g>
<!-- Node16&#45;&gt;Node17 -->
<g id="edge20" class="edge">
<title>Node16&#45;&gt;Node17</title>
<path fill="none" stroke="midnightblue" d="M605.65,-335.89C504.82,-315.64 396.67,-301.32 344.05,-294.82"/>
<polygon fill="midnightblue" stroke="midnightblue" points="605.2,-339.37 615.69,-337.93 606.59,-332.51 605.2,-339.37"/>
</g>
<!-- Node28 -->
<g id="node28" class="node">
<title>Node28</title>
<g id="a_node28"><a xlink:href="control_8h.html" target="_top" xlink:title=" ">
<polygon fill="white" stroke="black" points="615,-280.5 615,-299.5 669,-299.5 669,-280.5 615,-280.5"/>
<text text-anchor="middle" x="642" y="-287.5" font-family="Helvetica,sans-Serif" font-size="10.00">control.h</text>
</a>
</g>
</g>
<!-- Node16&#45;&gt;Node28 -->
<g id="edge34" class="edge">
<title>Node16&#45;&gt;Node28</title>
<path fill="none" stroke="midnightblue" d="M642,-325.8C642,-316.91 642,-306.78 642,-299.75"/>
<polygon fill="midnightblue" stroke="midnightblue" points="638.5,-326.08 642,-336.08 645.5,-326.08 638.5,-326.08"/>
</g>
<!-- Node34 -->
<g id="node34" class="node">
<title>Node34</title>
<g id="a_node34"><a xlink:href="parent_8cpp.html" target="_top" xlink:title=" ">
<polygon fill="white" stroke="black" points="687,-280.5 687,-299.5 749,-299.5 749,-280.5 687,-280.5"/>
<text text-anchor="middle" x="718" y="-287.5" font-family="Helvetica,sans-Serif" font-size="10.00">parent.cpp</text>
</a>
</g>
</g>
<!-- Node16&#45;&gt;Node34 -->
<g id="edge45" class="edge">
<title>Node16&#45;&gt;Node34</title>
<path fill="none" stroke="midnightblue" d="M662.58,-330.38C676.31,-320.62 693.93,-308.11 705.57,-299.83"/>
<polygon fill="midnightblue" stroke="midnightblue" points="660.34,-327.68 654.21,-336.32 664.39,-333.38 660.34,-327.68"/>
</g>
<!-- Node18 -->
<g id="node18" class="node">
<title>Node18</title>
<g id="a_node18"><a xlink:href="box__container_8h.html" target="_top" xlink:title=" ">
<polygon fill="white" stroke="black" points="383.5,-224.5 383.5,-243.5 468.5,-243.5 468.5,-224.5 383.5,-224.5"/>
<text text-anchor="middle" x="426" y="-231.5" font-family="Helvetica,sans-Serif" font-size="10.00">box_container.h</text>
</a>
</g>
</g>
<!-- Node17&#45;&gt;Node18 -->
<g id="edge21" class="edge">
<title>Node17&#45;&gt;Node18</title>
<path fill="none" stroke="midnightblue" d="M339.24,-276.1C360.54,-266.01 389.54,-252.27 408.02,-243.52"/>
<polygon fill="midnightblue" stroke="midnightblue" points="337.6,-273 330.06,-280.44 340.6,-279.33 337.6,-273"/>
</g>
<!-- Node21 -->
<g id="node21" class="node">
<title>Node21</title>
<g id="a_node21"><a xlink:href="container_8cpp.html" target="_top" xlink:title=" ">
<polygon fill="white" stroke="black" points="169,-224.5 169,-243.5 243,-243.5 243,-224.5 169,-224.5"/>
<text text-anchor="middle" x="206" y="-231.5" font-family="Helvetica,sans-Serif" font-size="10.00">container.cpp</text>
</a>
</g>
</g>
<!-- Node17&#45;&gt;Node21 -->
<g id="edge27" class="edge">
<title>Node17&#45;&gt;Node21</title>
<path fill="none" stroke="midnightblue" d="M285.94,-275.73C266.32,-265.73 239.97,-252.31 222.99,-243.65"/>
<polygon fill="midnightblue" stroke="midnightblue" points="284.47,-278.9 294.97,-280.32 287.65,-272.67 284.47,-278.9"/>
</g>
<!-- Node22 -->
<g id="node22" class="node">
<title>Node22</title>
<g id="a_node22"><a xlink:href="layered__container_8h.html" target="_top" xlink:title=" ">
<polygon fill="white" stroke="black" points="261.5,-224.5 261.5,-243.5 362.5,-243.5 362.5,-224.5 261.5,-224.5"/>
<text text-anchor="middle" x="312" y="-231.5" font-family="Helvetica,sans-Serif" font-size="10.00">layered_container.h</text>
</a>
</g>
</g>
<!-- Node17&#45;&gt;Node22 -->
<g id="edge28" class="edge">
<title>Node17&#45;&gt;Node22</title>
<path fill="none" stroke="midnightblue" d="M312,-269.8C312,-260.91 312,-250.78 312,-243.75"/>
<polygon fill="midnightblue" stroke="midnightblue" points="308.5,-270.08 312,-280.08 315.5,-270.08 308.5,-270.08"/>
</g>
<!-- Node26 -->
<g id="node26" class="node">
<title>Node26</title>
<g id="a_node26"><a xlink:href="tile__pane_8h.html" target="_top" xlink:title=" ">
<polygon fill="white" stroke="black" points="79,-224.5 79,-243.5 143,-243.5 143,-224.5 79,-224.5"/>
<text text-anchor="middle" x="111" y="-231.5" font-family="Helvetica,sans-Serif" font-size="10.00">tile_pane.h</text>
</a>
</g>
</g>
<!-- Node17&#45;&gt;Node26 -->
<g id="edge32" class="edge">
<title>Node17&#45;&gt;Node26</title>
<path fill="none" stroke="midnightblue" d="M270.42,-277.83C232.47,-267.63 177.19,-252.78 142.7,-243.52"/>
<polygon fill="midnightblue" stroke="midnightblue" points="269.59,-281.23 280.15,-280.44 271.4,-274.47 269.59,-281.23"/>
</g>
<!-- Node18&#45;&gt;Node7 -->
<g id="edge26" class="edge">
<title>Node18&#45;&gt;Node7</title>
<path fill="none" stroke="midnightblue" d="M478.92,-226.16C538.72,-217.87 631.91,-203.14 664,-188 693.65,-174.01 721.39,-146.04 734.34,-131.78"/>
<polygon fill="midnightblue" stroke="midnightblue" points="478.33,-222.7 468.9,-227.53 479.28,-229.64 478.33,-222.7"/>
</g>
<!-- Node19 -->
<g id="node19" class="node">
<title>Node19</title>
<g id="a_node19"><a xlink:href="box__container_8cpp.html" target="_top" xlink:title=" ">
<polygon fill="white" stroke="black" points="385.5,-168.5 385.5,-187.5 480.5,-187.5 480.5,-168.5 385.5,-168.5"/>
<text text-anchor="middle" x="433" y="-175.5" font-family="Helvetica,sans-Serif" font-size="10.00">box_container.cpp</text>
</a>
</g>
</g>
<!-- Node18&#45;&gt;Node19 -->
<g id="edge22" class="edge">
<title>Node18&#45;&gt;Node19</title>
<path fill="none" stroke="midnightblue" d="M428.45,-214.1C429.61,-205.14 430.94,-194.86 431.87,-187.75"/>
<polygon fill="midnightblue" stroke="midnightblue" points="424.97,-213.72 427.16,-224.08 431.91,-214.62 424.97,-213.72"/>
</g>
<!-- Node20 -->
<g id="node20" class="node">
<title>Node20</title>
<g id="a_node20"><a xlink:href="context__menu_8h.html" target="_top" xlink:title=" ">
<polygon fill="white" stroke="black" points="499,-168.5 499,-187.5 585,-187.5 585,-168.5 499,-168.5"/>
<text text-anchor="middle" x="542" y="-175.5" font-family="Helvetica,sans-Serif" font-size="10.00">context_menu.h</text>
</a>
</g>
</g>
<!-- Node18&#45;&gt;Node20 -->
<g id="edge23" class="edge">
<title>Node18&#45;&gt;Node20</title>
<path fill="none" stroke="midnightblue" d="M453.72,-220.1C475.39,-210.01 504.9,-196.27 523.71,-187.52"/>
<polygon fill="midnightblue" stroke="midnightblue" points="451.97,-217.05 444.38,-224.44 454.92,-223.4 451.97,-217.05"/>
</g>
<!-- Node20&#45;&gt;Node6 -->
<g id="edge24" class="edge">
<title>Node20&#45;&gt;Node6</title>
<path fill="none" stroke="midnightblue" d="M519.1,-162.89C507.15,-154.81 492.8,-143.91 482,-132 462.44,-110.43 459.16,-102.89 448,-76 439.98,-56.68 435.33,-32.39 433.27,-19.68"/>
<polygon fill="midnightblue" stroke="midnightblue" points="517.4,-165.96 527.68,-168.5 521.22,-160.1 517.4,-165.96"/>
</g>
<!-- Node20&#45;&gt;Node8 -->
<g id="edge25" class="edge">
<title>Node20&#45;&gt;Node8</title>
<path fill="none" stroke="midnightblue" d="M536.14,-158.4C533.3,-149.36 530.02,-138.94 527.75,-131.75"/>
<polygon fill="midnightblue" stroke="midnightblue" points="532.85,-159.6 539.19,-168.08 539.53,-157.49 532.85,-159.6"/>
</g>
<!-- Node23 -->
<g id="node23" class="node">
<title>Node23</title>
<g id="a_node23"><a xlink:href="anchor__pane_8h.html" target="_top" xlink:title=" ">
<polygon fill="white" stroke="black" points="158,-168.5 158,-187.5 238,-187.5 238,-168.5 158,-168.5"/>
<text text-anchor="middle" x="198" y="-175.5" font-family="Helvetica,sans-Serif" font-size="10.00">anchor_pane.h</text>
</a>
</g>
</g>
<!-- Node22&#45;&gt;Node23 -->
<g id="edge29" class="edge">
<title>Node22&#45;&gt;Node23</title>
<path fill="none" stroke="midnightblue" d="M284.76,-220.1C263.46,-210.01 234.46,-196.27 215.98,-187.52"/>
<polygon fill="midnightblue" stroke="midnightblue" points="283.4,-223.33 293.94,-224.44 286.4,-217 283.4,-223.33"/>
</g>
<!-- Node25 -->
<g id="node25" class="node">
<title>Node25</title>
<g id="a_node25"><a xlink:href="layered__container_8cpp.html" target="_top" xlink:title=" ">
<polygon fill="white" stroke="black" points="256.5,-168.5 256.5,-187.5 367.5,-187.5 367.5,-168.5 256.5,-168.5"/>
<text text-anchor="middle" x="312" y="-175.5" font-family="Helvetica,sans-Serif" font-size="10.00">layered_container.cpp</text>
</a>
</g>
</g>
<!-- Node22&#45;&gt;Node25 -->
<g id="edge31" class="edge">
<title>Node22&#45;&gt;Node25</title>
<path fill="none" stroke="midnightblue" d="M312,-213.8C312,-204.91 312,-194.78 312,-187.75"/>
<polygon fill="midnightblue" stroke="midnightblue" points="308.5,-214.08 312,-224.08 315.5,-214.08 308.5,-214.08"/>
</g>
<!-- Node24 -->
<g id="node24" class="node">
<title>Node24</title>
<g id="a_node24"><a xlink:href="anchor__pane_8cpp.html" target="_top" xlink:title=" ">
<polygon fill="white" stroke="black" points="152.5,-112.5 152.5,-131.5 243.5,-131.5 243.5,-112.5 152.5,-112.5"/>
<text text-anchor="middle" x="198" y="-119.5" font-family="Helvetica,sans-Serif" font-size="10.00">anchor_pane.cpp</text>
</a>
</g>
</g>
<!-- Node23&#45;&gt;Node24 -->
<g id="edge30" class="edge">
<title>Node23&#45;&gt;Node24</title>
<path fill="none" stroke="midnightblue" d="M198,-157.8C198,-148.91 198,-138.78 198,-131.75"/>
<polygon fill="midnightblue" stroke="midnightblue" points="194.5,-158.08 198,-168.08 201.5,-158.08 194.5,-158.08"/>
</g>
<!-- Node27 -->
<g id="node27" class="node">
<title>Node27</title>
<g id="a_node27"><a xlink:href="tile__pane_8cpp.html" target="_top" xlink:title=" ">
<polygon fill="white" stroke="black" points="66,-168.5 66,-187.5 140,-187.5 140,-168.5 66,-168.5"/>
<text text-anchor="middle" x="103" y="-175.5" font-family="Helvetica,sans-Serif" font-size="10.00">tile_pane.cpp</text>
</a>
</g>
</g>
<!-- Node26&#45;&gt;Node27 -->
<g id="edge33" class="edge">
<title>Node26&#45;&gt;Node27</title>
<path fill="none" stroke="midnightblue" d="M108.2,-214.1C106.87,-205.14 105.35,-194.86 104.3,-187.75"/>
<polygon fill="midnightblue" stroke="midnightblue" points="104.75,-214.7 109.68,-224.08 111.68,-213.68 104.75,-214.7"/>
</g>
<!-- Node28&#45;&gt;Node4 -->
<g id="edge35" class="edge">
<title>Node28&#45;&gt;Node4</title>
<path fill="none" stroke="midnightblue" d="M604.78,-286.81C575.32,-282.88 535.93,-272.28 516,-244 510.88,-236.73 511.01,-231.36 516,-224 526.1,-209.1 572.87,-194.09 602.99,-185.72"/>
<polygon fill="midnightblue" stroke="midnightblue" points="604.41,-290.29 614.74,-287.94 605.19,-283.33 604.41,-290.29"/>
</g>
<!-- Node29 -->
<g id="node29" class="node">
<title>Node29</title>
<g id="a_node29"><a xlink:href="control_8cpp.html" target="_top" xlink:title=" ">
<polygon fill="white" stroke="black" points="525.5,-224.5 525.5,-243.5 590.5,-243.5 590.5,-224.5 525.5,-224.5"/>
<text text-anchor="middle" x="558" y="-231.5" font-family="Helvetica,sans-Serif" font-size="10.00">control.cpp</text>
</a>
</g>
</g>
<!-- Node28&#45;&gt;Node29 -->
<g id="edge36" class="edge">
<title>Node28&#45;&gt;Node29</title>
<path fill="none" stroke="midnightblue" d="M620.07,-274.9C604.66,-265 584.55,-252.07 571.46,-243.65"/>
<polygon fill="midnightblue" stroke="midnightblue" points="618.2,-277.86 628.5,-280.32 621.98,-271.97 618.2,-277.86"/>
</g>
<!-- Node30 -->
<g id="node30" class="node">
<title>Node30</title>
<g id="a_node30"><a xlink:href="label_8h.html" target="_top" xlink:title=" ">
<polygon fill="white" stroke="black" points="693.5,-224.5 693.5,-243.5 738.5,-243.5 738.5,-224.5 693.5,-224.5"/>
<text text-anchor="middle" x="716" y="-231.5" font-family="Helvetica,sans-Serif" font-size="10.00">label.h</text>
</a>
</g>
</g>
<!-- Node28&#45;&gt;Node30 -->
<g id="edge37" class="edge">
<title>Node28&#45;&gt;Node30</title>
<path fill="none" stroke="midnightblue" d="M662.03,-274.38C675.41,-264.62 692.56,-252.11 703.89,-243.83"/>
<polygon fill="midnightblue" stroke="midnightblue" points="659.9,-271.6 653.89,-280.32 664.03,-277.26 659.9,-271.6"/>
</g>
<!-- Node31 -->
<g id="node31" class="node">
<title>Node31</title>
<g id="a_node31"><a xlink:href="scroll__bar_8h.html" target="_top" xlink:title=" ">
<polygon fill="white" stroke="black" points="609,-224.5 609,-243.5 675,-243.5 675,-224.5 609,-224.5"/>
<text text-anchor="middle" x="642" y="-231.5" font-family="Helvetica,sans-Serif" font-size="10.00">scroll_bar.h</text>
</a>
</g>
</g>
<!-- Node28&#45;&gt;Node31 -->
<g id="edge38" class="edge">
<title>Node28&#45;&gt;Node31</title>
<path fill="none" stroke="midnightblue" d="M642,-269.8C642,-260.91 642,-250.78 642,-243.75"/>
<polygon fill="midnightblue" stroke="midnightblue" points="638.5,-270.08 642,-280.08 645.5,-270.08 638.5,-270.08"/>
</g>
<!-- Node32 -->
<g id="node32" class="node">
<title>Node32</title>
<g id="a_node32"><a xlink:href="skin_8cpp.html" target="_top" xlink:title=" ">
<polygon fill="white" stroke="black" points="756.5,-224.5 756.5,-243.5 809.5,-243.5 809.5,-224.5 756.5,-224.5"/>
<text text-anchor="middle" x="783" y="-231.5" font-family="Helvetica,sans-Serif" font-size="10.00">skin.cpp</text>
</a>
</g>
</g>
<!-- Node28&#45;&gt;Node32 -->
<g id="edge41" class="edge">
<title>Node28&#45;&gt;Node32</title>
<path fill="none" stroke="midnightblue" d="M673.93,-276.77C700.41,-266.63 737.39,-252.47 760.76,-243.52"/>
<polygon fill="midnightblue" stroke="midnightblue" points="672.43,-273.6 664.34,-280.44 674.93,-280.14 672.43,-273.6"/>
</g>
<!-- Node33 -->
<g id="node33" class="node">
<title>Node33</title>
<g id="a_node33"><a xlink:href="slider_8h.html" target="_top" xlink:title=" ">
<polygon fill="white" stroke="black" points="827.5,-224.5 827.5,-243.5 874.5,-243.5 874.5,-224.5 827.5,-224.5"/>
<text text-anchor="middle" x="851" y="-231.5" font-family="Helvetica,sans-Serif" font-size="10.00">slider.h</text>
</a>
</g>
</g>
<!-- Node28&#45;&gt;Node33 -->
<g id="edge42" class="edge">
<title>Node28&#45;&gt;Node33</title>
<path fill="none" stroke="midnightblue" d="M679.13,-279.69C714.78,-270.71 770.13,-256.65 818,-244 820.99,-243.21 824.12,-242.37 827.22,-241.53"/>
<polygon fill="midnightblue" stroke="midnightblue" points="678.01,-276.36 669.17,-282.2 679.72,-283.15 678.01,-276.36"/>
</g>
<!-- Node31&#45;&gt;Node7 -->
<g id="edge39" class="edge">
<title>Node31&#45;&gt;Node7</title>
<path fill="none" stroke="midnightblue" d="M662.75,-218.23C673.59,-209.99 686.7,-199.16 697,-188 713.94,-169.64 729.54,-144.53 737.14,-131.55"/>
<polygon fill="midnightblue" stroke="midnightblue" points="660.6,-215.47 654.65,-224.24 664.76,-221.1 660.6,-215.47"/>
</g>
<!-- Node31&#45;&gt;Node13 -->
<g id="edge40" class="edge">
<title>Node31&#45;&gt;Node13</title>
<path fill="none" stroke="midnightblue" d="M674.7,-220.91C702.15,-210.75 740.67,-196.51 764.97,-187.52"/>
<polygon fill="midnightblue" stroke="midnightblue" points="673.3,-217.69 665.13,-224.44 675.73,-224.26 673.3,-217.69"/>
</g>
<!-- Node33&#45;&gt;Node7 -->
<g id="edge43" class="edge">
<title>Node33&#45;&gt;Node7</title>
<path fill="none" stroke="midnightblue" d="M850.57,-214.38C849.34,-200.26 845.62,-181.11 835,-168 820.21,-149.74 796.21,-138.38 776.29,-131.65"/>
<polygon fill="midnightblue" stroke="midnightblue" points="847.08,-214.61 851.11,-224.41 854.07,-214.24 847.08,-214.61"/>
</g>
<!-- Node33&#45;&gt;Node14 -->
<g id="edge44" class="edge">
<title>Node33&#45;&gt;Node14</title>
<path fill="none" stroke="midnightblue" d="M878.66,-220.23C900.55,-210.13 930.5,-196.31 949.55,-187.52"/>
<polygon fill="midnightblue" stroke="midnightblue" points="877.15,-217.08 869.54,-224.44 880.09,-223.43 877.15,-217.08"/>
</g>
<!-- Node36 -->
<g id="node36" class="node">
<title>Node36</title>
<g id="a_node36"><a xlink:href="circle_8h.html" target="_top" xlink:title=" ">
<polygon fill="white" stroke="black" points="841,-280.5 841,-299.5 889,-299.5 889,-280.5 841,-280.5"/>
<text text-anchor="middle" x="865" y="-287.5" font-family="Helvetica,sans-Serif" font-size="10.00">circle.h</text>
</a>
</g>
</g>
<!-- Node35&#45;&gt;Node36 -->
<g id="edge48" class="edge">
<title>Node35&#45;&gt;Node36</title>
<path fill="none" stroke="midnightblue" d="M917.86,-330.1C904.72,-320.38 888.02,-308.03 876.94,-299.83"/>
<polygon fill="midnightblue" stroke="midnightblue" points="916.15,-333.19 926.27,-336.32 920.31,-327.56 916.15,-333.19"/>
</g>
<!-- Node38 -->
<g id="node38" class="node">
<title>Node38</title>
<g id="a_node38"><a xlink:href="rectangle_8h.html" target="_top" xlink:title=" ">
<polygon fill="white" stroke="black" points="987.5,-280.5 987.5,-299.5 1052.5,-299.5 1052.5,-280.5 987.5,-280.5"/>
<text text-anchor="middle" x="1020" y="-287.5" font-family="Helvetica,sans-Serif" font-size="10.00">rectangle.h</text>
</a>
</g>
</g>
<!-- Node35&#45;&gt;Node38 -->
<g id="edge50" class="edge">
<title>Node35&#45;&gt;Node38</title>
<path fill="none" stroke="midnightblue" d="M959.83,-330.62C974.81,-320.76 994.2,-307.99 1006.86,-299.65"/>
<polygon fill="midnightblue" stroke="midnightblue" points="957.6,-327.9 951.17,-336.32 961.45,-333.75 957.6,-327.9"/>
</g>
<!-- Node40 -->
<g id="node40" class="node">
<title>Node40</title>
<g id="a_node40"><a xlink:href="shape_8cpp.html" target="_top" xlink:title=" ">
<polygon fill="white" stroke="black" points="907,-280.5 907,-299.5 969,-299.5 969,-280.5 907,-280.5"/>
<text text-anchor="middle" x="938" y="-287.5" font-family="Helvetica,sans-Serif" font-size="10.00">shape.cpp</text>
</a>
</g>
</g>
<!-- Node35&#45;&gt;Node40 -->
<g id="edge53" class="edge">
<title>Node35&#45;&gt;Node40</title>
<path fill="none" stroke="midnightblue" d="M938,-325.8C938,-316.91 938,-306.78 938,-299.75"/>
<polygon fill="midnightblue" stroke="midnightblue" points="934.5,-326.08 938,-336.08 941.5,-326.08 934.5,-326.08"/>
</g>
<!-- Node41 -->
<g id="node41" class="node">
<title>Node41</title>
<g id="a_node41"><a xlink:href="text_8h.html" target="_top" xlink:title=" ">
<polygon fill="white" stroke="black" points="1070.5,-280.5 1070.5,-299.5 1111.5,-299.5 1111.5,-280.5 1070.5,-280.5"/>
<text text-anchor="middle" x="1091" y="-287.5" font-family="Helvetica,sans-Serif" font-size="10.00">text.h</text>
</a>
</g>
</g>
<!-- Node35&#45;&gt;Node41 -->
<g id="edge54" class="edge">
<title>Node35&#45;&gt;Node41</title>
<path fill="none" stroke="midnightblue" d="M971.92,-333.03C1002.03,-322.4 1045.06,-307.21 1070.3,-298.3"/>
<polygon fill="midnightblue" stroke="midnightblue" points="970.51,-329.81 962.24,-336.44 972.84,-336.42 970.51,-329.81"/>
</g>
<!-- Node37 -->
<g id="node37" class="node">
<title>Node37</title>
<g id="a_node37"><a xlink:href="circle_8cpp.html" target="_top" xlink:title=" ">
<polygon fill="white" stroke="black" points="892.5,-224.5 892.5,-243.5 951.5,-243.5 951.5,-224.5 892.5,-224.5"/>
<text text-anchor="middle" x="922" y="-231.5" font-family="Helvetica,sans-Serif" font-size="10.00">circle.cpp</text>
</a>
</g>
</g>
<!-- Node36&#45;&gt;Node37 -->
<g id="edge49" class="edge">
<title>Node36&#45;&gt;Node37</title>
<path fill="none" stroke="midnightblue" d="M881.62,-273.25C891.73,-263.67 904.28,-251.79 912.68,-243.83"/>
<polygon fill="midnightblue" stroke="midnightblue" points="879.01,-270.91 874.16,-280.32 883.82,-275.99 879.01,-270.91"/>
</g>
<!-- Node38&#45;&gt;Node3 -->
<g id="edge51" class="edge">
<title>Node38&#45;&gt;Node3</title>
<path fill="none" stroke="midnightblue" d="M1041.93,-274.9C1057.34,-265 1077.45,-252.07 1090.54,-243.65"/>
<polygon fill="midnightblue" stroke="midnightblue" points="1040.02,-271.97 1033.5,-280.32 1043.8,-277.86 1040.02,-271.97"/>
</g>
<!-- Node39 -->
<g id="node39" class="node">
<title>Node39</title>
<g id="a_node39"><a xlink:href="rectangle_8cpp.html" target="_top" xlink:title=" ">
<polygon fill="white" stroke="black" points="969.5,-224.5 969.5,-243.5 1044.5,-243.5 1044.5,-224.5 969.5,-224.5"/>
<text text-anchor="middle" x="1007" y="-231.5" font-family="Helvetica,sans-Serif" font-size="10.00">rectangle.cpp</text>
</a>
</g>
</g>
<!-- Node38&#45;&gt;Node39 -->
<g id="edge52" class="edge">
<title>Node38&#45;&gt;Node39</title>
<path fill="none" stroke="midnightblue" d="M1015.45,-270.1C1013.29,-261.14 1010.82,-250.86 1009.11,-243.75"/>
<polygon fill="midnightblue" stroke="midnightblue" points="1012.11,-271.18 1017.85,-280.08 1018.92,-269.54 1012.11,-271.18"/>
</g>
<!-- Node41&#45;&gt;Node3 -->
<g id="edge55" class="edge">
<title>Node41&#45;&gt;Node3</title>
<path fill="none" stroke="midnightblue" d="M1095.55,-270.1C1097.71,-261.14 1100.18,-250.86 1101.89,-243.75"/>
<polygon fill="midnightblue" stroke="midnightblue" points="1092.08,-269.54 1093.15,-280.08 1098.89,-271.18 1092.08,-269.54"/>
</g>
<!-- Node41&#45;&gt;Node15 -->
<g id="edge56" class="edge">
<title>Node41&#45;&gt;Node15</title>
<path fill="none" stroke="midnightblue" d="M1120.74,-276.02C1133.75,-268.66 1147.7,-258.06 1155,-244 1164.64,-225.44 1152.81,-200.84 1144.94,-187.88"/>
<polygon fill="midnightblue" stroke="midnightblue" points="1118.79,-273.09 1111.54,-280.81 1122.03,-279.3 1118.79,-273.09"/>
</g>
</g>
</svg>
        <g id="navigator" transform="translate(0 0)" fill="#404254">
                <rect fill="#f2f5e9" fill-opacity="0.5" stroke="#606060" stroke-width=".5" x="0" y="0" width="60" height="60"/>
                <use id="zoomplus" xlink:href="#zoomPlus" x="17" y="9" onmousedown="handleZoom(evt,'in')"/>
                <use id="zoomminus" xlink:href="#zoomMin" x="42" y="9" onmousedown="handleZoom(evt,'out')"/>
                <use id="reset" xlink:href="#resetDef" x="30" y="36" onmousedown="handleReset()"/>
                <g id="arrowUp" xlink:href="#dirArrow" transform="translate(30 24)" onmousedown="handlePan(0,-1)">
                  <use xlink:href="#rim" fill="#404040">
                        <set attributeName="fill" to="#808080" begin="arrowUp.mouseover" end="arrowUp.mouseout"/>
                  </use>
                  <path fill="none" stroke="white" stroke-width="1.5" d="M0,-3.0v7 M-2.5,-0.5L0,-3.0L2.5,-0.5"/>
                </g>
                <g id="arrowRight" xlink:href="#dirArrow" transform="rotate(90) translate(36 -43)" onmousedown="handlePan(1,0)">
                  <use xlink:href="#rim" fill="#404040">
                        <set attributeName="fill" to="#808080" begin="arrowRight.mouseover" end="arrowRight.mouseout"/>
                  </use>
                  <path fill="none" stroke="white" stroke-width="1.5" d="M0,-3.0v7 M-2.5,-0.5L0,-3.0L2.5,-0.5"/>
                </g>
                <g id="arrowDown" xlink:href="#dirArrow" transform="rotate(180) translate(-30 -48)" onmousedown="handlePan(0,1)">
                  <use xlink:href="#rim" fill="#404040">
                        <set attributeName="fill" to="#808080" begin="arrowDown.mouseover" end="arrowDown.mouseout"/>
                  </use>
                  <path fill="none" stroke="white" stroke-width="1.5" d="M0,-3.0v7 M-2.5,-0.5L0,-3.0L2.5,-0.5"/>
                </g>
                <g id="arrowLeft" xlink:href="#dirArrow" transform="rotate(270) translate(-36 17)" onmousedown="handlePan(-1,0)">
                  <use xlink:href="#rim" fill="#404040">
                        <set attributeName="fill" to="#808080" begin="arrowLeft.mouseover" end="arrowLeft.mouseout"/>
                  </use>
                  <path fill="none" stroke="white" stroke-width="1.5" d="M0,-3.0v7 M-2.5,-0.5L0,-3.0L2.5,-0.5"/>
                </g>
        </g>
        <svg viewBox="0 0 15 15" width="100%" height="30px" preserveAspectRatio="xMaxYMin meet">
         <g id="arrow_out" transform="scale(0.3 0.3)">
          <a xlink:href="background_8h__dep__incl_org.svg" target="_base">
           <rect id="button" ry="5" rx="5" y="6" x="6" height="38" width="38"
                fill="#f2f5e9" fill-opacity="0.5" stroke="#606060" stroke-width="1.0"/>
           <path id="arrow"
             d="M 11.500037,31.436501 C 11.940474,20.09759 22.043105,11.32322 32.158766,21.979434 L 37.068811,17.246167 C 37.068811,17.246167 37.088388,32 37.088388,32 L 22.160133,31.978069 C 22.160133,31.978069 26.997745,27.140456 26.997745,27.140456 C 18.528582,18.264221 13.291696,25.230495 11.500037,31.436501 z"
             style="fill:#404040;"/>
          </a>
         </g>
        </svg>
</svg>
