<?xml version="1.0" encoding="UTF-8" standalone="no"?>
<!DOCTYPE svg PUBLIC "-//W3C//DTD SVG 1.1//EN"
 "http://www.w3.org/Graphics/SVG/1.1/DTD/svg11.dtd">
<!-- Generated by graphviz version 2.50.0 (20211204.2007)
 -->
<!-- Title: background.cpp Pages: 1 -->
<svg width="416pt" height="207pt"
 viewBox="0.00 0.00 416.00 207.00" xmlns="http://www.w3.org/2000/svg" xmlns:xlink="http://www.w3.org/1999/xlink">
<g id="graph0" class="graph" transform="scale(1 1) rotate(0) translate(4 203)">
<title>background.cpp</title>
<polygon fill="white" stroke="transparent" points="-4,4 -4,-203 412,-203 412,4 -4,4"/>
<!-- Node1 -->
<g id="node1" class="node">
<title>Node1</title>
<g id="a_node1"><a xlink:title=" ">
<polygon fill="#bfbfbf" stroke="black" points="181,-179.5 181,-198.5 267,-198.5 267,-179.5 181,-179.5"/>
<text text-anchor="middle" x="224" y="-186.5" font-family="Helvetica,sans-Serif" font-size="10.00">background.cpp</text>
</a>
</g>
</g>
<!-- Node2 -->
<g id="node2" class="node">
<title>Node2</title>
<g id="a_node2"><a xlink:href="background_8h.html" target="_top" xlink:title=" ">
<polygon fill="white" stroke="black" points="174.5,-123.5 174.5,-142.5 273.5,-142.5 273.5,-123.5 174.5,-123.5"/>
<text text-anchor="middle" x="224" y="-130.5" font-family="Helvetica,sans-Serif" font-size="10.00">paint/background.h</text>
</a>
</g>
</g>
<!-- Node1&#45;&gt;Node2 -->
<g id="edge1" class="edge">
<title>Node1&#45;&gt;Node2</title>
<path fill="none" stroke="midnightblue" d="M224,-179.08C224,-172.01 224,-161.86 224,-152.99"/>
<polygon fill="midnightblue" stroke="midnightblue" points="227.5,-152.75 224,-142.75 220.5,-152.75 227.5,-152.75"/>
</g>
<!-- Node5 -->
<g id="node5" class="node">
<title>Node5</title>
<g id="a_node5"><a xlink:href="fill_8h.html" target="_top" xlink:title=" ">
<polygon fill="white" stroke="black" points="144.5,-67.5 144.5,-86.5 179.5,-86.5 179.5,-67.5 144.5,-67.5"/>
<text text-anchor="middle" x="162" y="-74.5" font-family="Helvetica,sans-Serif" font-size="10.00">fill.h</text>
</a>
</g>
</g>
<!-- Node1&#45;&gt;Node5 -->
<g id="edge11" class="edge">
<title>Node1&#45;&gt;Node5</title>
<path fill="none" stroke="midnightblue" d="M205.52,-179.44C191.69,-171.95 173.73,-159.66 165,-143 157.54,-128.77 157.45,-110.3 158.83,-96.68"/>
<polygon fill="midnightblue" stroke="midnightblue" points="162.32,-96.97 160.21,-86.59 155.39,-96.02 162.32,-96.97"/>
</g>
<!-- Node8 -->
<g id="node8" class="node">
<title>Node8</title>
<g id="a_node8"><a xlink:href="image_8h.html" target="_top" xlink:title=" ">
<polygon fill="white" stroke="black" points="257.5,-67.5 257.5,-86.5 346.5,-86.5 346.5,-67.5 257.5,-67.5"/>
<text text-anchor="middle" x="302" y="-74.5" font-family="Helvetica,sans-Serif" font-size="10.00">../media/image.h</text>
</a>
</g>
</g>
<!-- Node1&#45;&gt;Node8 -->
<g id="edge12" class="edge">
<title>Node1&#45;&gt;Node8</title>
<path fill="none" stroke="midnightblue" d="M240.34,-179.44C253.68,-171.64 272.06,-158.93 283,-143 292.46,-129.22 297.28,-110.7 299.68,-96.95"/>
<polygon fill="midnightblue" stroke="midnightblue" points="303.19,-97.14 301.19,-86.73 296.27,-96.11 303.19,-97.14"/>
</g>
<!-- Node3 -->
<g id="node3" class="node">
<title>Node3</title>
<g id="a_node3"><a xlink:title=" ">
<polygon fill="white" stroke="#bfbfbf" points="0,-6 0,-25 44,-25 44,-6 0,-6"/>
<text text-anchor="middle" x="22" y="-13" font-family="Helvetica,sans-Serif" font-size="10.00">vector</text>
</a>
</g>
</g>
<!-- Node2&#45;&gt;Node3 -->
<g id="edge2" class="edge">
<title>Node2&#45;&gt;Node3</title>
<path fill="none" stroke="midnightblue" d="M206.02,-123.5C187.87,-114.77 159.14,-100.6 135,-87 102.42,-68.65 65.91,-45.35 43.43,-30.68"/>
<polygon fill="midnightblue" stroke="midnightblue" points="45.27,-27.7 34.99,-25.14 41.43,-33.55 45.27,-27.7"/>
</g>
<!-- Node4 -->
<g id="node4" class="node">
<title>Node4</title>
<g id="a_node4"><a xlink:title=" ">
<polygon fill="white" stroke="#bfbfbf" points="170,-6 170,-25 278,-25 278,-6 170,-6"/>
<text text-anchor="middle" x="224" y="-13" font-family="Helvetica,sans-Serif" font-size="10.00">sml/math/rectangle.h</text>
</a>
</g>
</g>
<!-- Node2&#45;&gt;Node4 -->
<g id="edge3" class="edge">
<title>Node2&#45;&gt;Node4</title>
<path fill="none" stroke="midnightblue" d="M224,-123.32C224,-104.76 224,-60.84 224,-35.47"/>
<polygon fill="midnightblue" stroke="midnightblue" points="227.5,-35.28 224,-25.28 220.5,-35.28 227.5,-35.28"/>
</g>
<!-- Node2&#45;&gt;Node5 -->
<g id="edge4" class="edge">
<title>Node2&#45;&gt;Node5</title>
<path fill="none" stroke="midnightblue" d="M214.04,-123.32C204.87,-115.34 191.06,-103.31 179.97,-93.65"/>
<polygon fill="midnightblue" stroke="midnightblue" points="181.98,-90.76 172.14,-86.83 177.38,-96.04 181.98,-90.76"/>
</g>
<!-- Node2&#45;&gt;Node8 -->
<g id="edge9" class="edge">
<title>Node2&#45;&gt;Node8</title>
<path fill="none" stroke="midnightblue" d="M236.53,-123.32C248.59,-114.98 267.03,-102.21 281.27,-92.35"/>
<polygon fill="midnightblue" stroke="midnightblue" points="283.27,-95.22 289.5,-86.65 279.28,-89.47 283.27,-95.22"/>
</g>
<!-- Node5&#45;&gt;Node3 -->
<g id="edge5" class="edge">
<title>Node5&#45;&gt;Node3</title>
<path fill="none" stroke="midnightblue" d="M144.15,-68.92C122.47,-60.26 84.86,-45.02 53,-31 51.81,-30.48 50.59,-29.93 49.36,-29.38"/>
<polygon fill="midnightblue" stroke="midnightblue" points="50.52,-26.06 39.97,-25.07 47.6,-32.42 50.52,-26.06"/>
</g>
<!-- Node5&#45;&gt;Node4 -->
<g id="edge7" class="edge">
<title>Node5&#45;&gt;Node4</title>
<path fill="none" stroke="midnightblue" d="M170.88,-67.48C180.46,-58.28 195.91,-43.46 207.69,-32.16"/>
<polygon fill="midnightblue" stroke="midnightblue" points="210.34,-34.46 215.13,-25.01 205.49,-29.41 210.34,-34.46"/>
</g>
<!-- Node6 -->
<g id="node6" class="node">
<title>Node6</title>
<g id="a_node6"><a xlink:title=" ">
<polygon fill="white" stroke="#bfbfbf" points="62.5,-6 62.5,-25 151.5,-25 151.5,-6 62.5,-6"/>
<text text-anchor="middle" x="107" y="-13" font-family="Helvetica,sans-Serif" font-size="10.00">sml/math/vec2.h</text>
</a>
</g>
</g>
<!-- Node5&#45;&gt;Node6 -->
<g id="edge6" class="edge">
<title>Node5&#45;&gt;Node6</title>
<path fill="none" stroke="midnightblue" d="M154.12,-67.48C145.71,-58.37 132.18,-43.74 121.77,-32.48"/>
<polygon fill="midnightblue" stroke="midnightblue" points="124.22,-29.98 114.87,-25.01 119.08,-34.73 124.22,-29.98"/>
</g>
<!-- Node7 -->
<g id="node7" class="node">
<title>Node7</title>
<g id="a_node7"><a xlink:title=" ">
<polygon fill="white" stroke="#bfbfbf" points="296,-0.5 296,-30.5 408,-30.5 408,-0.5 296,-0.5"/>
<text text-anchor="start" x="304" y="-18.5" font-family="Helvetica,sans-Serif" font-size="10.00">sml/graphics_wrapper</text>
<text text-anchor="middle" x="352" y="-7.5" font-family="Helvetica,sans-Serif" font-size="10.00">/texture.h</text>
</a>
</g>
</g>
<!-- Node5&#45;&gt;Node7 -->
<g id="edge8" class="edge">
<title>Node5&#45;&gt;Node7</title>
<path fill="none" stroke="midnightblue" d="M179.53,-70.51C206.1,-62.19 257.67,-46.04 297.52,-33.56"/>
<polygon fill="midnightblue" stroke="midnightblue" points="298.63,-36.88 307.12,-30.55 296.53,-30.2 298.63,-36.88"/>
</g>
<!-- Node8&#45;&gt;Node7 -->
<g id="edge10" class="edge">
<title>Node8&#45;&gt;Node7</title>
<path fill="none" stroke="midnightblue" d="M309.16,-67.48C315.56,-59.87 325.19,-48.4 333.71,-38.26"/>
<polygon fill="midnightblue" stroke="midnightblue" points="336.46,-40.43 340.22,-30.52 331.1,-35.93 336.46,-40.43"/>
</g>
</g>
</svg>
