<?xml version="1.0" encoding="UTF-8" standalone="no"?>
<!DOCTYPE svg PUBLIC "-//W3C//DTD SVG 1.1//EN"
 "http://www.w3.org/Graphics/SVG/1.1/DTD/svg11.dtd">
<!-- Generated by graphviz version 2.50.0 (20211204.2007)
 -->
<!-- Title: background.h Pages: 1 -->
<svg width="416pt" height="151pt"
 viewBox="0.00 0.00 416.00 151.00" xmlns="http://www.w3.org/2000/svg" xmlns:xlink="http://www.w3.org/1999/xlink">
<g id="graph0" class="graph" transform="scale(1 1) rotate(0) translate(4 147)">
<title>background.h</title>
<polygon fill="white" stroke="transparent" points="-4,4 -4,-147 412,-147 412,4 -4,4"/>
<!-- Node1 -->
<g id="node1" class="node">
<title>Node1</title>
<g id="a_node1"><a xlink:title=" ">
<polygon fill="#bfbfbf" stroke="black" points="101.5,-123.5 101.5,-142.5 176.5,-142.5 176.5,-123.5 101.5,-123.5"/>
<text text-anchor="middle" x="139" y="-130.5" font-family="Helvetica,sans-Serif" font-size="10.00">background.h</text>
</a>
</g>
</g>
<!-- Node2 -->
<g id="node2" class="node">
<title>Node2</title>
<g id="a_node2"><a xlink:title=" ">
<polygon fill="white" stroke="#bfbfbf" points="0,-6 0,-25 44,-25 44,-6 0,-6"/>
<text text-anchor="middle" x="22" y="-13" font-family="Helvetica,sans-Serif" font-size="10.00">vector</text>
</a>
</g>
</g>
<!-- Node1&#45;&gt;Node2 -->
<g id="edge1" class="edge">
<title>Node1&#45;&gt;Node2</title>
<path fill="none" stroke="midnightblue" d="M130.21,-123.32C110.64,-104 63.27,-57.24 38.19,-32.48"/>
<polygon fill="midnightblue" stroke="midnightblue" points="40.47,-29.82 30.9,-25.28 35.55,-34.8 40.47,-29.82"/>
</g>
<!-- Node3 -->
<g id="node3" class="node">
<title>Node3</title>
<g id="a_node3"><a xlink:title=" ">
<polygon fill="white" stroke="#bfbfbf" points="62,-6 62,-25 170,-25 170,-6 62,-6"/>
<text text-anchor="middle" x="116" y="-13" font-family="Helvetica,sans-Serif" font-size="10.00">sml/math/rectangle.h</text>
</a>
</g>
</g>
<!-- Node1&#45;&gt;Node3 -->
<g id="edge2" class="edge">
<title>Node1&#45;&gt;Node3</title>
<path fill="none" stroke="midnightblue" d="M137.27,-123.32C133.56,-104.67 124.75,-60.44 119.71,-35.13"/>
<polygon fill="midnightblue" stroke="midnightblue" points="123.13,-34.41 117.75,-25.28 116.27,-35.77 123.13,-34.41"/>
</g>
<!-- Node4 -->
<g id="node4" class="node">
<title>Node4</title>
<g id="a_node4"><a xlink:href="fill_8h.html" target="_top" xlink:title=" ">
<polygon fill="white" stroke="black" points="144.5,-67.5 144.5,-86.5 179.5,-86.5 179.5,-67.5 144.5,-67.5"/>
<text text-anchor="middle" x="162" y="-74.5" font-family="Helvetica,sans-Serif" font-size="10.00">fill.h</text>
</a>
</g>
</g>
<!-- Node1&#45;&gt;Node4 -->
<g id="edge3" class="edge">
<title>Node1&#45;&gt;Node4</title>
<path fill="none" stroke="midnightblue" d="M142.8,-123.08C145.91,-115.77 150.42,-105.18 154.29,-96.1"/>
<polygon fill="midnightblue" stroke="midnightblue" points="157.57,-97.32 158.27,-86.75 151.13,-94.58 157.57,-97.32"/>
</g>
<!-- Node7 -->
<g id="node7" class="node">
<title>Node7</title>
<g id="a_node7"><a xlink:href="image_8h.html" target="_top" xlink:title=" ">
<polygon fill="white" stroke="black" points="252.5,-67.5 252.5,-86.5 341.5,-86.5 341.5,-67.5 252.5,-67.5"/>
<text text-anchor="middle" x="297" y="-74.5" font-family="Helvetica,sans-Serif" font-size="10.00">../media/image.h</text>
</a>
</g>
</g>
<!-- Node1&#45;&gt;Node7 -->
<g id="edge8" class="edge">
<title>Node1&#45;&gt;Node7</title>
<path fill="none" stroke="midnightblue" d="M164.04,-123.44C190.62,-114.36 232.81,-99.94 262.52,-89.78"/>
<polygon fill="midnightblue" stroke="midnightblue" points="263.75,-93.06 272.08,-86.52 261.49,-86.44 263.75,-93.06"/>
</g>
<!-- Node4&#45;&gt;Node2 -->
<g id="edge4" class="edge">
<title>Node4&#45;&gt;Node2</title>
<path fill="none" stroke="midnightblue" d="M144.15,-68.92C122.47,-60.26 84.86,-45.02 53,-31 51.81,-30.48 50.59,-29.93 49.36,-29.38"/>
<polygon fill="midnightblue" stroke="midnightblue" points="50.52,-26.06 39.97,-25.07 47.6,-32.42 50.52,-26.06"/>
</g>
<!-- Node4&#45;&gt;Node3 -->
<g id="edge6" class="edge">
<title>Node4&#45;&gt;Node3</title>
<path fill="none" stroke="midnightblue" d="M155.41,-67.48C148.51,-58.55 137.5,-44.31 128.87,-33.14"/>
<polygon fill="midnightblue" stroke="midnightblue" points="131.46,-30.78 122.58,-25.01 125.93,-35.06 131.46,-30.78"/>
</g>
<!-- Node5 -->
<g id="node5" class="node">
<title>Node5</title>
<g id="a_node5"><a xlink:title=" ">
<polygon fill="white" stroke="#bfbfbf" points="188.5,-6 188.5,-25 277.5,-25 277.5,-6 188.5,-6"/>
<text text-anchor="middle" x="233" y="-13" font-family="Helvetica,sans-Serif" font-size="10.00">sml/math/vec2.h</text>
</a>
</g>
</g>
<!-- Node4&#45;&gt;Node5 -->
<g id="edge5" class="edge">
<title>Node4&#45;&gt;Node5</title>
<path fill="none" stroke="midnightblue" d="M172.17,-67.48C183.35,-58.11 201.52,-42.88 215.09,-31.51"/>
<polygon fill="midnightblue" stroke="midnightblue" points="217.43,-34.11 222.85,-25.01 212.93,-28.75 217.43,-34.11"/>
</g>
<!-- Node6 -->
<g id="node6" class="node">
<title>Node6</title>
<g id="a_node6"><a xlink:title=" ">
<polygon fill="white" stroke="#bfbfbf" points="296,-0.5 296,-30.5 408,-30.5 408,-0.5 296,-0.5"/>
<text text-anchor="start" x="304" y="-18.5" font-family="Helvetica,sans-Serif" font-size="10.00">sml/graphics_wrapper</text>
<text text-anchor="middle" x="352" y="-7.5" font-family="Helvetica,sans-Serif" font-size="10.00">/texture.h</text>
</a>
</g>
</g>
<!-- Node4&#45;&gt;Node6 -->
<g id="edge7" class="edge">
<title>Node4&#45;&gt;Node6</title>
<path fill="none" stroke="midnightblue" d="M179.53,-70.51C206.1,-62.19 257.67,-46.04 297.52,-33.56"/>
<polygon fill="midnightblue" stroke="midnightblue" points="298.63,-36.88 307.12,-30.55 296.53,-30.2 298.63,-36.88"/>
</g>
<!-- Node7&#45;&gt;Node6 -->
<g id="edge9" class="edge">
<title>Node7&#45;&gt;Node6</title>
<path fill="none" stroke="midnightblue" d="M304.88,-67.48C311.98,-59.79 322.72,-48.17 332.16,-37.96"/>
<polygon fill="midnightblue" stroke="midnightblue" points="334.82,-40.24 339.04,-30.52 329.68,-35.49 334.82,-40.24"/>
</g>
</g>
</svg>
