<?xml version="1.0" encoding="UTF-8" standalone="no"?>
<!DOCTYPE svg PUBLIC "-//W3C//DTD SVG 1.1//EN"
 "http://www.w3.org/Graphics/SVG/1.1/DTD/svg11.dtd">
<!-- Generated by graphviz version 2.50.0 (20211204.2007)
 -->
<!-- Title: border.cpp Pages: 1 -->
<svg width="316pt" height="218pt"
 viewBox="0.00 0.00 315.50 218.00" xmlns="http://www.w3.org/2000/svg" xmlns:xlink="http://www.w3.org/1999/xlink">
<g id="graph0" class="graph" transform="scale(1 1) rotate(0) translate(4 214)">
<title>border.cpp</title>
<polygon fill="white" stroke="transparent" points="-4,4 -4,-214 311.5,-214 311.5,4 -4,4"/>
<!-- Node1 -->
<g id="node1" class="node">
<title>Node1</title>
<g id="a_node1"><a xlink:title=" ">
<polygon fill="#bfbfbf" stroke="black" points="97,-190.5 97,-209.5 159,-209.5 159,-190.5 97,-190.5"/>
<text text-anchor="middle" x="128" y="-197.5" font-family="Helvetica,sans-Serif" font-size="10.00">border.cpp</text>
</a>
</g>
</g>
<!-- Node2 -->
<g id="node2" class="node">
<title>Node2</title>
<g id="a_node2"><a xlink:title=" ">
<polygon fill="white" stroke="#bfbfbf" points="16,-123.5 16,-153.5 128,-153.5 128,-123.5 16,-123.5"/>
<text text-anchor="start" x="24" y="-141.5" font-family="Helvetica,sans-Serif" font-size="10.00">sml/graphics_wrapper</text>
<text text-anchor="middle" x="72" y="-130.5" font-family="Helvetica,sans-Serif" font-size="10.00">/primitives.h</text>
</a>
</g>
</g>
<!-- Node1&#45;&gt;Node2 -->
<g id="edge1" class="edge">
<title>Node1&#45;&gt;Node2</title>
<path fill="none" stroke="midnightblue" d="M119.98,-190.48C112.75,-182.79 101.81,-171.17 92.2,-160.96"/>
<polygon fill="midnightblue" stroke="midnightblue" points="94.6,-158.41 85.2,-153.52 89.5,-163.2 94.6,-158.41"/>
</g>
<!-- Node3 -->
<g id="node3" class="node">
<title>Node3</title>
<g id="a_node3"><a xlink:href="border_8h.html" target="_top" xlink:title=" ">
<polygon fill="white" stroke="black" points="146.5,-129 146.5,-148 221.5,-148 221.5,-129 146.5,-129"/>
<text text-anchor="middle" x="184" y="-136" font-family="Helvetica,sans-Serif" font-size="10.00">paint/border.h</text>
</a>
</g>
</g>
<!-- Node1&#45;&gt;Node3 -->
<g id="edge2" class="edge">
<title>Node1&#45;&gt;Node3</title>
<path fill="none" stroke="midnightblue" d="M136.02,-190.48C144.59,-181.37 158.36,-166.74 168.96,-155.48"/>
<polygon fill="midnightblue" stroke="midnightblue" points="171.69,-157.69 175.99,-148.01 166.59,-152.89 171.69,-157.69"/>
</g>
<!-- Node4 -->
<g id="node4" class="node">
<title>Node4</title>
<g id="a_node4"><a xlink:title=" ">
<polygon fill="white" stroke="#bfbfbf" points="0,-56.5 0,-86.5 112,-86.5 112,-56.5 0,-56.5"/>
<text text-anchor="start" x="8" y="-74.5" font-family="Helvetica,sans-Serif" font-size="10.00">sml/graphics_wrapper</text>
<text text-anchor="middle" x="56" y="-63.5" font-family="Helvetica,sans-Serif" font-size="10.00">/color.h</text>
</a>
</g>
</g>
<!-- Node3&#45;&gt;Node4 -->
<g id="edge3" class="edge">
<title>Node3&#45;&gt;Node4</title>
<path fill="none" stroke="midnightblue" d="M167,-128.87C148.19,-119.31 117.3,-103.63 92.87,-91.22"/>
<polygon fill="midnightblue" stroke="midnightblue" points="94.37,-88.06 83.87,-86.65 91.2,-94.3 94.37,-88.06"/>
</g>
<!-- Node5 -->
<g id="node5" class="node">
<title>Node5</title>
<g id="a_node5"><a xlink:title=" ">
<polygon fill="white" stroke="#bfbfbf" points="130,-62 130,-81 238,-81 238,-62 130,-62"/>
<text text-anchor="middle" x="184" y="-69" font-family="Helvetica,sans-Serif" font-size="10.00">sml/math/rectangle.h</text>
</a>
</g>
</g>
<!-- Node3&#45;&gt;Node5 -->
<g id="edge4" class="edge">
<title>Node3&#45;&gt;Node5</title>
<path fill="none" stroke="midnightblue" d="M184,-128.73C184,-119.18 184,-103.62 184,-91.28"/>
<polygon fill="midnightblue" stroke="midnightblue" points="187.5,-91.13 184,-81.13 180.5,-91.13 187.5,-91.13"/>
</g>
<!-- Node6 -->
<g id="node6" class="node">
<title>Node6</title>
<g id="a_node6"><a xlink:href="insets_8h.html" target="_top" xlink:title=" ">
<polygon fill="white" stroke="black" points="256.5,-62 256.5,-81 307.5,-81 307.5,-62 256.5,-62"/>
<text text-anchor="middle" x="282" y="-69" font-family="Helvetica,sans-Serif" font-size="10.00">insets.h</text>
</a>
</g>
</g>
<!-- Node3&#45;&gt;Node6 -->
<g id="edge5" class="edge">
<title>Node3&#45;&gt;Node6</title>
<path fill="none" stroke="midnightblue" d="M197.22,-128.73C213.45,-117.96 241.22,-99.55 260.53,-86.74"/>
<polygon fill="midnightblue" stroke="midnightblue" points="262.59,-89.57 268.99,-81.13 258.72,-83.74 262.59,-89.57"/>
</g>
<!-- Node7 -->
<g id="node7" class="node">
<title>Node7</title>
<g id="a_node7"><a xlink:title=" ">
<polygon fill="white" stroke="#bfbfbf" points="257.5,-0.5 257.5,-19.5 306.5,-19.5 306.5,-0.5 257.5,-0.5"/>
<text text-anchor="middle" x="282" y="-7.5" font-family="Helvetica,sans-Serif" font-size="10.00">stdint.h</text>
</a>
</g>
</g>
<!-- Node6&#45;&gt;Node7 -->
<g id="edge6" class="edge">
<title>Node6&#45;&gt;Node7</title>
<path fill="none" stroke="midnightblue" d="M282,-61.98C282,-53.58 282,-40.48 282,-29.66"/>
<polygon fill="midnightblue" stroke="midnightblue" points="285.5,-29.51 282,-19.51 278.5,-29.51 285.5,-29.51"/>
</g>
</g>
</svg>
