<?xml version="1.0" encoding="UTF-8" standalone="no"?>
<!DOCTYPE svg PUBLIC "-//W3C//DTD SVG 1.1//EN"
 "http://www.w3.org/Graphics/SVG/1.1/DTD/svg11.dtd">
<!-- Generated by graphviz version 2.50.0 (20211204.2007)
 -->
<!-- Title: border.h Pages: 1 -->
<svg width="1625pt" height="420pt"
 viewBox="0.00 0.00 1625.00 420.00" xmlns="http://www.w3.org/2000/svg" xmlns:xlink="http://www.w3.org/1999/xlink">
<g id="graph0" class="graph" transform="scale(1 1) rotate(0) translate(4 416)">
<title>border.h</title>
<polygon fill="white" stroke="transparent" points="-4,4 -4,-416 1621,-416 1621,4 -4,4"/>
<!-- Node1 -->
<g id="node1" class="node">
<title>Node1</title>
<g id="a_node1"><a xlink:title=" ">
<polygon fill="#bfbfbf" stroke="black" points="894,-392.5 894,-411.5 945,-411.5 945,-392.5 894,-392.5"/>
<text text-anchor="middle" x="919.5" y="-399.5" font-family="Helvetica,sans-Serif" font-size="10.00">border.h</text>
</a>
</g>
</g>
<!-- Node2 -->
<g id="node2" class="node">
<title>Node2</title>
<g id="a_node2"><a xlink:href="border_8cpp.html" target="_top" xlink:title=" ">
<polygon fill="white" stroke="black" points="621.5,-336.5 621.5,-355.5 683.5,-355.5 683.5,-336.5 621.5,-336.5"/>
<text text-anchor="middle" x="652.5" y="-343.5" font-family="Helvetica,sans-Serif" font-size="10.00">border.cpp</text>
</a>
</g>
</g>
<!-- Node1&#45;&gt;Node2 -->
<g id="edge1" class="edge">
<title>Node1&#45;&gt;Node2</title>
<path fill="none" stroke="midnightblue" d="M883.85,-394.22C839.09,-385.65 760,-370.28 692.5,-356 689.71,-355.41 686.82,-354.79 683.93,-354.15"/>
<polygon fill="midnightblue" stroke="midnightblue" points="883.44,-397.71 893.92,-396.15 884.76,-390.84 883.44,-397.71"/>
</g>
<!-- Node3 -->
<g id="node3" class="node">
<title>Node3</title>
<g id="a_node3"><a xlink:href="default__skins_8h.html" target="_top" xlink:title=" ">
<polygon fill="white" stroke="black" points="1289,-224.5 1289,-243.5 1372,-243.5 1372,-224.5 1289,-224.5"/>
<text text-anchor="middle" x="1330.5" y="-231.5" font-family="Helvetica,sans-Serif" font-size="10.00">default_skins.h</text>
</a>
</g>
</g>
<!-- Node1&#45;&gt;Node3 -->
<g id="edge2" class="edge">
<title>Node1&#45;&gt;Node3</title>
<path fill="none" stroke="midnightblue" d="M950.2,-388.6C1029.76,-356.47 1241.2,-271.07 1309.15,-243.62"/>
<polygon fill="midnightblue" stroke="midnightblue" points="948.69,-385.43 940.73,-392.42 951.31,-391.92 948.69,-385.43"/>
</g>
<!-- Node19 -->
<g id="node19" class="node">
<title>Node19</title>
<g id="a_node19"><a xlink:href="parent_8h.html" target="_top" xlink:title=" ">
<polygon fill="white" stroke="black" points="701.5,-336.5 701.5,-355.5 753.5,-355.5 753.5,-336.5 701.5,-336.5"/>
<text text-anchor="middle" x="727.5" y="-343.5" font-family="Helvetica,sans-Serif" font-size="10.00">parent.h</text>
</a>
</g>
</g>
<!-- Node1&#45;&gt;Node19 -->
<g id="edge21" class="edge">
<title>Node1&#45;&gt;Node19</title>
<path fill="none" stroke="midnightblue" d="M883.53,-390.88C845.73,-380.25 787.19,-363.79 753.6,-354.34"/>
<polygon fill="midnightblue" stroke="midnightblue" points="883.03,-394.38 893.61,-393.72 884.93,-387.64 883.03,-394.38"/>
</g>
<!-- Node39 -->
<g id="node39" class="node">
<title>Node39</title>
<g id="a_node39"><a xlink:href="shape_8h.html" target="_top" xlink:title=" ">
<polygon fill="white" stroke="black" points="1311,-336.5 1311,-355.5 1362,-355.5 1362,-336.5 1311,-336.5"/>
<text text-anchor="middle" x="1336.5" y="-343.5" font-family="Helvetica,sans-Serif" font-size="10.00">shape.h</text>
</a>
</g>
</g>
<!-- Node1&#45;&gt;Node39 -->
<g id="edge61" class="edge">
<title>Node1&#45;&gt;Node39</title>
<path fill="none" stroke="midnightblue" d="M955.42,-396.35C1037.95,-385.66 1239.49,-359.56 1310.9,-350.31"/>
<polygon fill="midnightblue" stroke="midnightblue" points="954.74,-392.91 945.27,-397.66 955.64,-399.85 954.74,-392.91"/>
</g>
<!-- Node4 -->
<g id="node4" class="node">
<title>Node4</title>
<g id="a_node4"><a xlink:href="button_8h.html" target="_top" xlink:title=" ">
<polygon fill="white" stroke="black" points="875.5,-168.5 875.5,-187.5 927.5,-187.5 927.5,-168.5 875.5,-168.5"/>
<text text-anchor="middle" x="901.5" y="-175.5" font-family="Helvetica,sans-Serif" font-size="10.00">button.h</text>
</a>
</g>
</g>
<!-- Node3&#45;&gt;Node4 -->
<g id="edge3" class="edge">
<title>Node3&#45;&gt;Node4</title>
<path fill="none" stroke="midnightblue" d="M1278.6,-229.37C1202.92,-223.55 1058.06,-210.46 936.5,-188 933.66,-187.48 930.71,-186.85 927.79,-186.17"/>
<polygon fill="midnightblue" stroke="midnightblue" points="1278.58,-232.87 1288.81,-230.14 1279.1,-225.89 1278.58,-232.87"/>
</g>
<!-- Node8 -->
<g id="node8" class="node">
<title>Node8</title>
<g id="a_node8"><a xlink:href="default__skins_8cpp.html" target="_top" xlink:title=" ">
<polygon fill="white" stroke="black" points="1061,-112.5 1061,-131.5 1154,-131.5 1154,-112.5 1061,-112.5"/>
<text text-anchor="middle" x="1107.5" y="-119.5" font-family="Helvetica,sans-Serif" font-size="10.00">default_skins.cpp</text>
</a>
</g>
</g>
<!-- Node3&#45;&gt;Node8 -->
<g id="edge16" class="edge">
<title>Node3&#45;&gt;Node8</title>
<path fill="none" stroke="midnightblue" d="M1329.96,-214.03C1328.5,-199.42 1324.1,-179.78 1311.5,-168 1289.11,-147.07 1207.38,-134.16 1154.41,-127.81"/>
<polygon fill="midnightblue" stroke="midnightblue" points="1326.49,-214.66 1330.6,-224.43 1333.48,-214.23 1326.49,-214.66"/>
</g>
<!-- Node15 -->
<g id="node15" class="node">
<title>Node15</title>
<g id="a_node15"><a xlink:href="scroll__bar_8cpp.html" target="_top" xlink:title=" ">
<polygon fill="white" stroke="black" points="1292,-112.5 1292,-131.5 1369,-131.5 1369,-112.5 1292,-112.5"/>
<text text-anchor="middle" x="1330.5" y="-119.5" font-family="Helvetica,sans-Serif" font-size="10.00">scroll_bar.cpp</text>
</a>
</g>
</g>
<!-- Node3&#45;&gt;Node15 -->
<g id="edge17" class="edge">
<title>Node3&#45;&gt;Node15</title>
<path fill="none" stroke="midnightblue" d="M1354.87,-218.73C1365.45,-211.09 1376.72,-200.64 1382.5,-188 1392.95,-165.13 1365.17,-143.32 1346.31,-131.7"/>
<polygon fill="midnightblue" stroke="midnightblue" points="1352.65,-216 1346.28,-224.47 1356.54,-221.82 1352.65,-216"/>
</g>
<!-- Node16 -->
<g id="node16" class="node">
<title>Node16</title>
<g id="a_node16"><a xlink:href="scroll__pane_8cpp.html" target="_top" xlink:title=" ">
<polygon fill="white" stroke="black" points="1394,-112.5 1394,-131.5 1479,-131.5 1479,-112.5 1394,-112.5"/>
<text text-anchor="middle" x="1436.5" y="-119.5" font-family="Helvetica,sans-Serif" font-size="10.00">scroll_pane.cpp</text>
</a>
</g>
</g>
<!-- Node3&#45;&gt;Node16 -->
<g id="edge18" class="edge">
<title>Node3&#45;&gt;Node16</title>
<path fill="none" stroke="midnightblue" d="M1356.64,-219.52C1370.24,-211.62 1386.49,-200.7 1398.5,-188 1414.85,-170.72 1427.16,-145.16 1432.91,-131.82"/>
<polygon fill="midnightblue" stroke="midnightblue" points="1354.75,-216.56 1347.73,-224.49 1358.17,-222.68 1354.75,-216.56"/>
</g>
<!-- Node17 -->
<g id="node17" class="node">
<title>Node17</title>
<g id="a_node17"><a xlink:href="slider_8cpp.html" target="_top" xlink:title=" ">
<polygon fill="white" stroke="black" points="1201.5,-112.5 1201.5,-131.5 1259.5,-131.5 1259.5,-112.5 1201.5,-112.5"/>
<text text-anchor="middle" x="1230.5" y="-119.5" font-family="Helvetica,sans-Serif" font-size="10.00">slider.cpp</text>
</a>
</g>
</g>
<!-- Node3&#45;&gt;Node17 -->
<g id="edge19" class="edge">
<title>Node3&#45;&gt;Node17</title>
<path fill="none" stroke="midnightblue" d="M1341.22,-215.16C1348.06,-201.24 1354.01,-181.98 1344.5,-168 1334.63,-153.49 1290.12,-138.99 1259.73,-130.51"/>
<polygon fill="midnightblue" stroke="midnightblue" points="1338.01,-213.74 1336.3,-224.2 1344.15,-217.09 1338.01,-213.74"/>
</g>
<!-- Node18 -->
<g id="node18" class="node">
<title>Node18</title>
<g id="a_node18"><a xlink:href="text_8cpp.html" target="_top" xlink:title=" ">
<polygon fill="white" stroke="black" points="1250.5,-168.5 1250.5,-187.5 1302.5,-187.5 1302.5,-168.5 1250.5,-168.5"/>
<text text-anchor="middle" x="1276.5" y="-175.5" font-family="Helvetica,sans-Serif" font-size="10.00">text.cpp</text>
</a>
</g>
</g>
<!-- Node3&#45;&gt;Node18 -->
<g id="edge20" class="edge">
<title>Node3&#45;&gt;Node18</title>
<path fill="none" stroke="midnightblue" d="M1314.5,-217C1304.93,-207.43 1293.14,-195.64 1285.25,-187.75"/>
<polygon fill="midnightblue" stroke="midnightblue" points="1312.04,-219.49 1321.58,-224.08 1316.99,-214.54 1312.04,-219.49"/>
</g>
<!-- Node5 -->
<g id="node5" class="node">
<title>Node5</title>
<g id="a_node5"><a xlink:href="button_8cpp.html" target="_top" xlink:title=" ">
<polygon fill="white" stroke="black" points="870.5,-112.5 870.5,-131.5 932.5,-131.5 932.5,-112.5 870.5,-112.5"/>
<text text-anchor="middle" x="901.5" y="-119.5" font-family="Helvetica,sans-Serif" font-size="10.00">button.cpp</text>
</a>
</g>
</g>
<!-- Node4&#45;&gt;Node5 -->
<g id="edge4" class="edge">
<title>Node4&#45;&gt;Node5</title>
<path fill="none" stroke="midnightblue" d="M901.5,-157.8C901.5,-148.91 901.5,-138.78 901.5,-131.75"/>
<polygon fill="midnightblue" stroke="midnightblue" points="898,-158.08 901.5,-168.08 905,-158.08 898,-158.08"/>
</g>
<!-- Node6 -->
<g id="node6" class="node">
<title>Node6</title>
<g id="a_node6"><a xlink:href="context__menu_8cpp.html" target="_top" xlink:title=" ">
<polygon fill="white" stroke="black" points="294,-0.5 294,-19.5 391,-19.5 391,-0.5 294,-0.5"/>
<text text-anchor="middle" x="342.5" y="-7.5" font-family="Helvetica,sans-Serif" font-size="10.00">context_menu.cpp</text>
</a>
</g>
</g>
<!-- Node4&#45;&gt;Node6 -->
<g id="edge5" class="edge">
<title>Node4&#45;&gt;Node6</title>
<path fill="none" stroke="midnightblue" d="M865.62,-166.35C762.25,-135.65 465.18,-47.43 371.3,-19.55"/>
<polygon fill="midnightblue" stroke="midnightblue" points="864.71,-169.72 875.29,-169.22 866.7,-163.01 864.71,-169.72"/>
</g>
<!-- Node7 -->
<g id="node7" class="node">
<title>Node7</title>
<g id="a_node7"><a xlink:href="controls_8h.html" target="_top" xlink:title=" ">
<polygon fill="white" stroke="black" points="984,-112.5 984,-131.5 1043,-131.5 1043,-112.5 984,-112.5"/>
<text text-anchor="middle" x="1013.5" y="-119.5" font-family="Helvetica,sans-Serif" font-size="10.00">controls.h</text>
</a>
</g>
</g>
<!-- Node4&#45;&gt;Node7 -->
<g id="edge6" class="edge">
<title>Node4&#45;&gt;Node7</title>
<path fill="none" stroke="midnightblue" d="M928.75,-163.86C949.52,-153.85 977.52,-140.35 995.55,-131.65"/>
<polygon fill="midnightblue" stroke="midnightblue" points="926.98,-160.83 919.49,-168.32 930.02,-167.13 926.98,-160.83"/>
</g>
<!-- Node4&#45;&gt;Node8 -->
<g id="edge7" class="edge">
<title>Node4&#45;&gt;Node8</title>
<path fill="none" stroke="midnightblue" d="M937.41,-167.59C976.18,-157.42 1037.39,-141.38 1074.84,-131.56"/>
<polygon fill="midnightblue" stroke="midnightblue" points="936.38,-164.24 927.59,-170.16 938.15,-171.01 936.38,-164.24"/>
</g>
<!-- Node9 -->
<g id="node9" class="node">
<title>Node9</title>
<g id="a_node9"><a xlink:href="menu__bar_8h.html" target="_top" xlink:title=" ">
<polygon fill="white" stroke="black" points="371,-112.5 371,-131.5 438,-131.5 438,-112.5 371,-112.5"/>
<text text-anchor="middle" x="404.5" y="-119.5" font-family="Helvetica,sans-Serif" font-size="10.00">menu_bar.h</text>
</a>
</g>
</g>
<!-- Node4&#45;&gt;Node9 -->
<g id="edge8" class="edge">
<title>Node4&#45;&gt;Node9</title>
<path fill="none" stroke="midnightblue" d="M865.15,-168.25C679.35,-138.01 628.1,-159.15 446.5,-132 443.84,-131.6 441.11,-131.14 438.36,-130.64"/>
<polygon fill="midnightblue" stroke="midnightblue" points="864.82,-171.74 875.26,-169.93 865.96,-164.84 864.82,-171.74"/>
</g>
<!-- Node10 -->
<g id="node10" class="node">
<title>Node10</title>
<g id="a_node10"><a xlink:href="containers_8h.html" target="_top" xlink:title=" ">
<polygon fill="white" stroke="black" points="174.5,-56.5 174.5,-75.5 244.5,-75.5 244.5,-56.5 174.5,-56.5"/>
<text text-anchor="middle" x="209.5" y="-63.5" font-family="Helvetica,sans-Serif" font-size="10.00">containers.h</text>
</a>
</g>
</g>
<!-- Node9&#45;&gt;Node10 -->
<g id="edge9" class="edge">
<title>Node9&#45;&gt;Node10</title>
<path fill="none" stroke="midnightblue" d="M363.69,-109.7C326.89,-99.51 273.57,-84.74 240.25,-75.52"/>
<polygon fill="midnightblue" stroke="midnightblue" points="363.03,-113.15 373.6,-112.44 364.9,-106.4 363.03,-113.15"/>
</g>
<!-- Node11 -->
<g id="node11" class="node">
<title>Node11</title>
<g id="a_node11"><a xlink:href="menu__bar_8cpp.html" target="_top" xlink:title=" ">
<polygon fill="white" stroke="black" points="492,-0.5 492,-19.5 569,-19.5 569,-0.5 492,-0.5"/>
<text text-anchor="middle" x="530.5" y="-7.5" font-family="Helvetica,sans-Serif" font-size="10.00">menu_bar.cpp</text>
</a>
</g>
</g>
<!-- Node9&#45;&gt;Node11 -->
<g id="edge10" class="edge">
<title>Node9&#45;&gt;Node11</title>
<path fill="none" stroke="midnightblue" d="M422.24,-105.51C449.16,-82.01 499.45,-38.11 520.66,-19.59"/>
<polygon fill="midnightblue" stroke="midnightblue" points="419.62,-103.16 414.39,-112.37 424.22,-108.43 419.62,-103.16"/>
</g>
<!-- Node12 -->
<g id="node12" class="node">
<title>Node12</title>
<g id="a_node12"><a xlink:href="scene_8h.html" target="_top" xlink:title=" ">
<polygon fill="white" stroke="black" points="263,-56.5 263,-75.5 314,-75.5 314,-56.5 263,-56.5"/>
<text text-anchor="middle" x="288.5" y="-63.5" font-family="Helvetica,sans-Serif" font-size="10.00">scene.h</text>
</a>
</g>
</g>
<!-- Node9&#45;&gt;Node12 -->
<g id="edge11" class="edge">
<title>Node9&#45;&gt;Node12</title>
<path fill="none" stroke="midnightblue" d="M376.78,-108.1C355.11,-98.01 325.6,-84.27 306.79,-75.52"/>
<polygon fill="midnightblue" stroke="midnightblue" points="375.58,-111.4 386.12,-112.44 378.53,-105.05 375.58,-111.4"/>
</g>
<!-- Node12&#45;&gt;Node6 -->
<g id="edge13" class="edge">
<title>Node12&#45;&gt;Node6</title>
<path fill="none" stroke="midnightblue" d="M304.5,-49C314.07,-39.43 325.86,-27.64 333.75,-19.75"/>
<polygon fill="midnightblue" stroke="midnightblue" points="302.01,-46.54 297.42,-56.08 306.96,-51.49 302.01,-46.54"/>
</g>
<!-- Node12&#45;&gt;Node11 -->
<g id="edge14" class="edge">
<title>Node12&#45;&gt;Node11</title>
<path fill="none" stroke="midnightblue" d="M324.29,-57.01C369.22,-46.99 445.98,-29.86 492.1,-19.57"/>
<polygon fill="midnightblue" stroke="midnightblue" points="323.4,-53.63 314.4,-59.22 324.92,-60.46 323.4,-53.63"/>
</g>
<!-- Node13 -->
<g id="node13" class="node">
<title>Node13</title>
<g id="a_node13"><a xlink:href="component_8cpp.html" target="_top" xlink:title=" ">
<polygon fill="white" stroke="black" points="0,-0.5 0,-19.5 83,-19.5 83,-0.5 0,-0.5"/>
<text text-anchor="middle" x="41.5" y="-7.5" font-family="Helvetica,sans-Serif" font-size="10.00">component.cpp</text>
</a>
</g>
</g>
<!-- Node12&#45;&gt;Node13 -->
<g id="edge12" class="edge">
<title>Node12&#45;&gt;Node13</title>
<path fill="none" stroke="midnightblue" d="M252.9,-55.94C187.88,-40.79 123.79,-27.51 83.05,-19.28"/>
<polygon fill="midnightblue" stroke="midnightblue" points="252.38,-59.41 262.92,-58.29 253.98,-52.6 252.38,-59.41"/>
</g>
<!-- Node14 -->
<g id="node14" class="node">
<title>Node14</title>
<g id="a_node14"><a xlink:href="scene_8cpp.html" target="_top" xlink:title=" ">
<polygon fill="white" stroke="black" points="176.5,-0.5 176.5,-19.5 238.5,-19.5 238.5,-0.5 176.5,-0.5"/>
<text text-anchor="middle" x="207.5" y="-7.5" font-family="Helvetica,sans-Serif" font-size="10.00">scene.cpp</text>
</a>
</g>
</g>
<!-- Node12&#45;&gt;Node14 -->
<g id="edge15" class="edge">
<title>Node12&#45;&gt;Node14</title>
<path fill="none" stroke="midnightblue" d="M266.93,-50.62C252.14,-40.76 232.99,-27.99 220.48,-19.65"/>
<polygon fill="midnightblue" stroke="midnightblue" points="265.22,-53.69 275.49,-56.32 269.11,-47.86 265.22,-53.69"/>
</g>
<!-- Node19&#45;&gt;Node13 -->
<g id="edge22" class="edge">
<title>Node19&#45;&gt;Node13</title>
<path fill="none" stroke="midnightblue" d="M691.04,-336.2C538.44,-316.45 189.33,-357.27 65.5,-300 29.26,-283.24 3.5,-274.92 3.5,-235 3.5,-235 3.5,-235 3.5,-121 3.5,-81.4 25.77,-37.96 36.22,-19.77"/>
<polygon fill="midnightblue" stroke="midnightblue" points="690.85,-339.71 701.24,-337.66 691.84,-332.78 690.85,-339.71"/>
</g>
<!-- Node19&#45;&gt;Node14 -->
<g id="edge60" class="edge">
<title>Node19&#45;&gt;Node14</title>
<path fill="none" stroke="midnightblue" d="M690.89,-336.11C527.1,-311.78 41.5,-378.25 41.5,-235 41.5,-235 41.5,-235 41.5,-121 41.5,-57.04 128.19,-28.08 176.28,-16.93"/>
<polygon fill="midnightblue" stroke="midnightblue" points="690.77,-339.64 701.21,-337.85 691.93,-332.74 690.77,-339.64"/>
</g>
<!-- Node20 -->
<g id="node20" class="node">
<title>Node20</title>
<g id="a_node20"><a xlink:href="container_8h.html" target="_top" xlink:title=" ">
<polygon fill="white" stroke="black" points="409.5,-280.5 409.5,-299.5 473.5,-299.5 473.5,-280.5 409.5,-280.5"/>
<text text-anchor="middle" x="441.5" y="-287.5" font-family="Helvetica,sans-Serif" font-size="10.00">container.h</text>
</a>
</g>
</g>
<!-- Node19&#45;&gt;Node20 -->
<g id="edge23" class="edge">
<title>Node19&#45;&gt;Node20</title>
<path fill="none" stroke="midnightblue" d="M691.24,-335.85C607.42,-317.83 519.84,-303.3 473.74,-295.99"/>
<polygon fill="midnightblue" stroke="midnightblue" points="690.66,-339.31 701.18,-338.01 692.15,-332.47 690.66,-339.31"/>
</g>
<!-- Node31 -->
<g id="node31" class="node">
<title>Node31</title>
<g id="a_node31"><a xlink:href="control_8h.html" target="_top" xlink:title=" ">
<polygon fill="white" stroke="black" points="908.5,-224.5 908.5,-243.5 962.5,-243.5 962.5,-224.5 908.5,-224.5"/>
<text text-anchor="middle" x="935.5" y="-231.5" font-family="Helvetica,sans-Serif" font-size="10.00">control.h</text>
</a>
</g>
</g>
<!-- Node19&#45;&gt;Node31 -->
<g id="edge41" class="edge">
<title>Node19&#45;&gt;Node31</title>
<path fill="none" stroke="midnightblue" d="M728.09,-326.09C729.58,-311.51 733.99,-291.89 746.5,-280 769.6,-258.04 861.61,-243.98 908.19,-238.12"/>
<polygon fill="midnightblue" stroke="midnightblue" points="724.58,-326.25 727.43,-336.46 731.56,-326.7 724.58,-326.25"/>
</g>
<!-- Node38 -->
<g id="node38" class="node">
<title>Node38</title>
<g id="a_node38"><a xlink:href="parent_8cpp.html" target="_top" xlink:title=" ">
<polygon fill="white" stroke="black" points="755.5,-280.5 755.5,-299.5 817.5,-299.5 817.5,-280.5 755.5,-280.5"/>
<text text-anchor="middle" x="786.5" y="-287.5" font-family="Helvetica,sans-Serif" font-size="10.00">parent.cpp</text>
</a>
</g>
</g>
<!-- Node19&#45;&gt;Node38 -->
<g id="edge59" class="edge">
<title>Node19&#45;&gt;Node38</title>
<path fill="none" stroke="midnightblue" d="M744.39,-329.54C754.91,-319.91 768.07,-307.87 776.85,-299.83"/>
<polygon fill="midnightblue" stroke="midnightblue" points="741.99,-326.99 736.98,-336.32 746.72,-332.15 741.99,-326.99"/>
</g>
<!-- Node21 -->
<g id="node21" class="node">
<title>Node21</title>
<g id="a_node21"><a xlink:href="box__container_8h.html" target="_top" xlink:title=" ">
<polygon fill="white" stroke="black" points="301,-224.5 301,-243.5 386,-243.5 386,-224.5 301,-224.5"/>
<text text-anchor="middle" x="343.5" y="-231.5" font-family="Helvetica,sans-Serif" font-size="10.00">box_container.h</text>
</a>
</g>
</g>
<!-- Node20&#45;&gt;Node21 -->
<g id="edge24" class="edge">
<title>Node20&#45;&gt;Node21</title>
<path fill="none" stroke="midnightblue" d="M416.91,-275.45C398.82,-265.48 374.77,-252.23 359.21,-243.65"/>
<polygon fill="midnightblue" stroke="midnightblue" points="415.31,-278.56 425.75,-280.32 418.69,-272.43 415.31,-278.56"/>
</g>
<!-- Node24 -->
<g id="node24" class="node">
<title>Node24</title>
<g id="a_node24"><a xlink:href="container_8cpp.html" target="_top" xlink:title=" ">
<polygon fill="white" stroke="black" points="404.5,-224.5 404.5,-243.5 478.5,-243.5 478.5,-224.5 404.5,-224.5"/>
<text text-anchor="middle" x="441.5" y="-231.5" font-family="Helvetica,sans-Serif" font-size="10.00">container.cpp</text>
</a>
</g>
</g>
<!-- Node20&#45;&gt;Node24 -->
<g id="edge32" class="edge">
<title>Node20&#45;&gt;Node24</title>
<path fill="none" stroke="midnightblue" d="M441.5,-269.8C441.5,-260.91 441.5,-250.78 441.5,-243.75"/>
<polygon fill="midnightblue" stroke="midnightblue" points="438,-270.08 441.5,-280.08 445,-270.08 438,-270.08"/>
</g>
<!-- Node25 -->
<g id="node25" class="node">
<title>Node25</title>
<g id="a_node25"><a xlink:href="layered__container_8h.html" target="_top" xlink:title=" ">
<polygon fill="white" stroke="black" points="497,-224.5 497,-243.5 598,-243.5 598,-224.5 497,-224.5"/>
<text text-anchor="middle" x="547.5" y="-231.5" font-family="Helvetica,sans-Serif" font-size="10.00">layered_container.h</text>
</a>
</g>
</g>
<!-- Node20&#45;&gt;Node25 -->
<g id="edge33" class="edge">
<title>Node20&#45;&gt;Node25</title>
<path fill="none" stroke="midnightblue" d="M467.56,-275.73C487.18,-265.73 513.53,-252.31 530.51,-243.65"/>
<polygon fill="midnightblue" stroke="midnightblue" points="465.85,-272.67 458.53,-280.32 469.03,-278.9 465.85,-272.67"/>
</g>
<!-- Node29 -->
<g id="node29" class="node">
<title>Node29</title>
<g id="a_node29"><a xlink:href="tile__pane_8h.html" target="_top" xlink:title=" ">
<polygon fill="white" stroke="black" points="139.5,-224.5 139.5,-243.5 203.5,-243.5 203.5,-224.5 139.5,-224.5"/>
<text text-anchor="middle" x="171.5" y="-231.5" font-family="Helvetica,sans-Serif" font-size="10.00">tile_pane.h</text>
</a>
</g>
</g>
<!-- Node20&#45;&gt;Node29 -->
<g id="edge38" class="edge">
<title>Node20&#45;&gt;Node29</title>
<path fill="none" stroke="midnightblue" d="M399.53,-280.61C345.51,-269.8 252.82,-251.26 203.91,-241.48"/>
<polygon fill="midnightblue" stroke="midnightblue" points="398.97,-284.06 409.47,-282.59 400.35,-277.2 398.97,-284.06"/>
</g>
<!-- Node21&#45;&gt;Node8 -->
<g id="edge31" class="edge">
<title>Node21&#45;&gt;Node8</title>
<path fill="none" stroke="midnightblue" d="M396.23,-222.84C446.29,-212.89 517.73,-197.84 544.5,-188 562.41,-181.41 564.16,-173.28 582.5,-168 783.38,-110.12 843.9,-156.61 1051.5,-132 1054.53,-131.64 1057.65,-131.24 1060.79,-130.8"/>
<polygon fill="midnightblue" stroke="midnightblue" points="395.34,-219.44 386.21,-224.81 396.7,-226.31 395.34,-219.44"/>
</g>
<!-- Node21&#45;&gt;Node10 -->
<g id="edge26" class="edge">
<title>Node21&#45;&gt;Node10</title>
<path fill="none" stroke="midnightblue" d="M291.06,-224.5C268.52,-218.17 243.88,-207.15 228.5,-188 201.33,-154.18 205.4,-97.43 208.17,-75.76"/>
<polygon fill="midnightblue" stroke="midnightblue" points="290.33,-227.93 300.89,-227.02 292.07,-221.15 290.33,-227.93"/>
</g>
<!-- Node22 -->
<g id="node22" class="node">
<title>Node22</title>
<g id="a_node22"><a xlink:href="box__container_8cpp.html" target="_top" xlink:title=" ">
<polygon fill="white" stroke="black" points="238,-168.5 238,-187.5 333,-187.5 333,-168.5 238,-168.5"/>
<text text-anchor="middle" x="285.5" y="-175.5" font-family="Helvetica,sans-Serif" font-size="10.00">box_container.cpp</text>
</a>
</g>
</g>
<!-- Node21&#45;&gt;Node22 -->
<g id="edge25" class="edge">
<title>Node21&#45;&gt;Node22</title>
<path fill="none" stroke="midnightblue" d="M326.59,-217.25C316.3,-207.67 303.53,-195.79 294.99,-187.83"/>
<polygon fill="midnightblue" stroke="midnightblue" points="324.48,-220.07 334.18,-224.32 329.25,-214.95 324.48,-220.07"/>
</g>
<!-- Node23 -->
<g id="node23" class="node">
<title>Node23</title>
<g id="a_node23"><a xlink:href="context__menu_8h.html" target="_top" xlink:title=" ">
<polygon fill="white" stroke="black" points="351.5,-168.5 351.5,-187.5 437.5,-187.5 437.5,-168.5 351.5,-168.5"/>
<text text-anchor="middle" x="394.5" y="-175.5" font-family="Helvetica,sans-Serif" font-size="10.00">context_menu.h</text>
</a>
</g>
</g>
<!-- Node21&#45;&gt;Node23 -->
<g id="edge27" class="edge">
<title>Node21&#45;&gt;Node23</title>
<path fill="none" stroke="midnightblue" d="M358.88,-216.72C367.87,-207.2 378.86,-195.56 386.24,-187.75"/>
<polygon fill="midnightblue" stroke="midnightblue" points="356.24,-214.41 351.92,-224.08 361.33,-219.22 356.24,-214.41"/>
</g>
<!-- Node23&#45;&gt;Node6 -->
<g id="edge29" class="edge">
<title>Node23&#45;&gt;Node6</title>
<path fill="none" stroke="midnightblue" d="M379.56,-160.66C373,-152.59 365.82,-142.38 361.5,-132 345,-92.34 342.71,-39.93 342.48,-19.59"/>
<polygon fill="midnightblue" stroke="midnightblue" points="377.11,-163.17 386.28,-168.48 382.42,-158.61 377.11,-163.17"/>
</g>
<!-- Node23&#45;&gt;Node9 -->
<g id="edge30" class="edge">
<title>Node23&#45;&gt;Node9</title>
<path fill="none" stroke="midnightblue" d="M398,-158.1C399.66,-149.14 401.56,-138.86 402.88,-131.75"/>
<polygon fill="midnightblue" stroke="midnightblue" points="394.53,-157.61 396.15,-168.08 401.41,-158.89 394.53,-157.61"/>
</g>
<!-- Node23&#45;&gt;Node10 -->
<g id="edge28" class="edge">
<title>Node23&#45;&gt;Node10</title>
<path fill="none" stroke="midnightblue" d="M357.81,-165.14C335.98,-157.3 308.21,-145.91 285.5,-132 258.26,-115.31 230.91,-89.04 217.69,-75.57"/>
<polygon fill="midnightblue" stroke="midnightblue" points="356.79,-168.49 367.38,-168.49 359.1,-161.89 356.79,-168.49"/>
</g>
<!-- Node26 -->
<g id="node26" class="node">
<title>Node26</title>
<g id="a_node26"><a xlink:href="anchor__pane_8h.html" target="_top" xlink:title=" ">
<polygon fill="white" stroke="black" points="455.5,-168.5 455.5,-187.5 535.5,-187.5 535.5,-168.5 455.5,-168.5"/>
<text text-anchor="middle" x="495.5" y="-175.5" font-family="Helvetica,sans-Serif" font-size="10.00">anchor_pane.h</text>
</a>
</g>
</g>
<!-- Node25&#45;&gt;Node26 -->
<g id="edge34" class="edge">
<title>Node25&#45;&gt;Node26</title>
<path fill="none" stroke="midnightblue" d="M531.82,-216.72C522.66,-207.2 511.45,-195.56 503.93,-187.75"/>
<polygon fill="midnightblue" stroke="midnightblue" points="529.46,-219.31 538.91,-224.08 534.5,-214.45 529.46,-219.31"/>
</g>
<!-- Node28 -->
<g id="node28" class="node">
<title>Node28</title>
<g id="a_node28"><a xlink:href="layered__container_8cpp.html" target="_top" xlink:title=" ">
<polygon fill="white" stroke="black" points="592,-168.5 592,-187.5 703,-187.5 703,-168.5 592,-168.5"/>
<text text-anchor="middle" x="647.5" y="-175.5" font-family="Helvetica,sans-Serif" font-size="10.00">layered_container.cpp</text>
</a>
</g>
</g>
<!-- Node25&#45;&gt;Node28 -->
<g id="edge37" class="edge">
<title>Node25&#45;&gt;Node28</title>
<path fill="none" stroke="midnightblue" d="M572.59,-219.45C591.05,-209.48 615.6,-196.23 631.47,-187.65"/>
<polygon fill="midnightblue" stroke="midnightblue" points="570.7,-216.49 563.57,-224.32 574.03,-222.65 570.7,-216.49"/>
</g>
<!-- Node26&#45;&gt;Node10 -->
<g id="edge36" class="edge">
<title>Node26&#45;&gt;Node10</title>
<path fill="none" stroke="midnightblue" d="M458.24,-165.37C431.19,-156.72 393.83,-144.32 361.5,-132 312.96,-113.5 257.07,-88.67 228.49,-75.71"/>
<polygon fill="midnightblue" stroke="midnightblue" points="457.48,-168.8 468.07,-168.5 459.6,-162.13 457.48,-168.8"/>
</g>
<!-- Node27 -->
<g id="node27" class="node">
<title>Node27</title>
<g id="a_node27"><a xlink:href="anchor__pane_8cpp.html" target="_top" xlink:title=" ">
<polygon fill="white" stroke="black" points="456,-112.5 456,-131.5 547,-131.5 547,-112.5 456,-112.5"/>
<text text-anchor="middle" x="501.5" y="-119.5" font-family="Helvetica,sans-Serif" font-size="10.00">anchor_pane.cpp</text>
</a>
</g>
</g>
<!-- Node26&#45;&gt;Node27 -->
<g id="edge35" class="edge">
<title>Node26&#45;&gt;Node27</title>
<path fill="none" stroke="midnightblue" d="M497.6,-158.1C498.6,-149.14 499.74,-138.86 500.53,-131.75"/>
<polygon fill="midnightblue" stroke="midnightblue" points="494.12,-157.76 496.49,-168.08 501.07,-158.53 494.12,-157.76"/>
</g>
<!-- Node29&#45;&gt;Node10 -->
<g id="edge39" class="edge">
<title>Node29&#45;&gt;Node10</title>
<path fill="none" stroke="midnightblue" d="M174.58,-214.3C178.65,-190.41 186.39,-147.85 195.5,-112 198.76,-99.15 203.5,-84.55 206.54,-75.55"/>
<polygon fill="midnightblue" stroke="midnightblue" points="171.08,-213.98 172.88,-224.42 177.98,-215.14 171.08,-213.98"/>
</g>
<!-- Node30 -->
<g id="node30" class="node">
<title>Node30</title>
<g id="a_node30"><a xlink:href="tile__pane_8cpp.html" target="_top" xlink:title=" ">
<polygon fill="white" stroke="black" points="69.5,-168.5 69.5,-187.5 143.5,-187.5 143.5,-168.5 69.5,-168.5"/>
<text text-anchor="middle" x="106.5" y="-175.5" font-family="Helvetica,sans-Serif" font-size="10.00">tile_pane.cpp</text>
</a>
</g>
</g>
<!-- Node29&#45;&gt;Node30 -->
<g id="edge40" class="edge">
<title>Node29&#45;&gt;Node30</title>
<path fill="none" stroke="midnightblue" d="M153.23,-217.82C141.58,-208.15 126.9,-195.95 117.13,-187.83"/>
<polygon fill="midnightblue" stroke="midnightblue" points="151.13,-220.63 161.06,-224.32 155.6,-215.24 151.13,-220.63"/>
</g>
<!-- Node31&#45;&gt;Node4 -->
<g id="edge42" class="edge">
<title>Node31&#45;&gt;Node4</title>
<path fill="none" stroke="midnightblue" d="M924.52,-215.57C918.67,-206.27 911.73,-195.25 907.01,-187.75"/>
<polygon fill="midnightblue" stroke="midnightblue" points="921.6,-217.49 929.89,-224.08 927.52,-213.76 921.6,-217.49"/>
</g>
<!-- Node32 -->
<g id="node32" class="node">
<title>Node32</title>
<g id="a_node32"><a xlink:href="control_8cpp.html" target="_top" xlink:title=" ">
<polygon fill="white" stroke="black" points="792,-168.5 792,-187.5 857,-187.5 857,-168.5 792,-168.5"/>
<text text-anchor="middle" x="824.5" y="-175.5" font-family="Helvetica,sans-Serif" font-size="10.00">control.cpp</text>
</a>
</g>
</g>
<!-- Node31&#45;&gt;Node32 -->
<g id="edge43" class="edge">
<title>Node31&#45;&gt;Node32</title>
<path fill="none" stroke="midnightblue" d="M908.49,-219.86C887.91,-209.85 860.16,-196.35 842.29,-187.65"/>
<polygon fill="midnightblue" stroke="midnightblue" points="907.14,-223.1 917.67,-224.32 910.2,-216.8 907.14,-223.1"/>
</g>
<!-- Node33 -->
<g id="node33" class="node">
<title>Node33</title>
<g id="a_node33"><a xlink:href="label_8h.html" target="_top" xlink:title=" ">
<polygon fill="white" stroke="black" points="946,-168.5 946,-187.5 991,-187.5 991,-168.5 946,-168.5"/>
<text text-anchor="middle" x="968.5" y="-175.5" font-family="Helvetica,sans-Serif" font-size="10.00">label.h</text>
</a>
</g>
</g>
<!-- Node31&#45;&gt;Node33 -->
<g id="edge44" class="edge">
<title>Node31&#45;&gt;Node33</title>
<path fill="none" stroke="midnightblue" d="M946.33,-215.27C951.97,-206.05 958.62,-195.17 963.15,-187.75"/>
<polygon fill="midnightblue" stroke="midnightblue" points="943.18,-213.73 940.95,-224.08 949.15,-217.38 943.18,-213.73"/>
</g>
<!-- Node34 -->
<g id="node34" class="node">
<title>Node34</title>
<g id="a_node34"><a xlink:href="scroll__bar_8h.html" target="_top" xlink:title=" ">
<polygon fill="white" stroke="black" points="1074.5,-168.5 1074.5,-187.5 1140.5,-187.5 1140.5,-168.5 1074.5,-168.5"/>
<text text-anchor="middle" x="1107.5" y="-175.5" font-family="Helvetica,sans-Serif" font-size="10.00">scroll_bar.h</text>
</a>
</g>
</g>
<!-- Node31&#45;&gt;Node34 -->
<g id="edge46" class="edge">
<title>Node31&#45;&gt;Node34</title>
<path fill="none" stroke="midnightblue" d="M972.33,-221.44C1004.76,-211.26 1051.24,-196.66 1080.37,-187.52"/>
<polygon fill="midnightblue" stroke="midnightblue" points="971.25,-218.11 962.75,-224.44 973.34,-224.79 971.25,-218.11"/>
</g>
<!-- Node35 -->
<g id="node35" class="node">
<title>Node35</title>
<g id="a_node35"><a xlink:href="scroll__pane_8h.html" target="_top" xlink:title=" ">
<polygon fill="white" stroke="black" points="1158.5,-168.5 1158.5,-187.5 1232.5,-187.5 1232.5,-168.5 1158.5,-168.5"/>
<text text-anchor="middle" x="1195.5" y="-175.5" font-family="Helvetica,sans-Serif" font-size="10.00">scroll_pane.h</text>
</a>
</g>
</g>
<!-- Node31&#45;&gt;Node35 -->
<g id="edge50" class="edge">
<title>Node31&#45;&gt;Node35</title>
<path fill="none" stroke="midnightblue" d="M972.78,-225.26C1022.14,-215.01 1108.71,-197.03 1158.13,-186.76"/>
<polygon fill="midnightblue" stroke="midnightblue" points="971.91,-221.86 962.83,-227.32 973.34,-228.72 971.91,-221.86"/>
</g>
<!-- Node36 -->
<g id="node36" class="node">
<title>Node36</title>
<g id="a_node36"><a xlink:href="skin_8cpp.html" target="_top" xlink:title=" ">
<polygon fill="white" stroke="black" points="721,-168.5 721,-187.5 774,-187.5 774,-168.5 721,-168.5"/>
<text text-anchor="middle" x="747.5" y="-175.5" font-family="Helvetica,sans-Serif" font-size="10.00">skin.cpp</text>
</a>
</g>
</g>
<!-- Node31&#45;&gt;Node36 -->
<g id="edge54" class="edge">
<title>Node31&#45;&gt;Node36</title>
<path fill="none" stroke="midnightblue" d="M898.36,-222.33C861.77,-211.82 806.76,-196.02 774.26,-186.69"/>
<polygon fill="midnightblue" stroke="midnightblue" points="897.59,-225.75 908.16,-225.15 899.52,-219.02 897.59,-225.75"/>
</g>
<!-- Node37 -->
<g id="node37" class="node">
<title>Node37</title>
<g id="a_node37"><a xlink:href="slider_8h.html" target="_top" xlink:title=" ">
<polygon fill="white" stroke="black" points="1009,-168.5 1009,-187.5 1056,-187.5 1056,-168.5 1009,-168.5"/>
<text text-anchor="middle" x="1032.5" y="-175.5" font-family="Helvetica,sans-Serif" font-size="10.00">slider.h</text>
</a>
</g>
</g>
<!-- Node31&#45;&gt;Node37 -->
<g id="edge55" class="edge">
<title>Node31&#45;&gt;Node37</title>
<path fill="none" stroke="midnightblue" d="M959.84,-219.45C977.74,-209.48 1001.55,-196.23 1016.95,-187.65"/>
<polygon fill="midnightblue" stroke="midnightblue" points="958.12,-216.4 951.08,-224.32 961.52,-222.52 958.12,-216.4"/>
</g>
<!-- Node33&#45;&gt;Node7 -->
<g id="edge45" class="edge">
<title>Node33&#45;&gt;Node7</title>
<path fill="none" stroke="midnightblue" d="M982.55,-160.14C990.39,-150.74 999.83,-139.4 1006.21,-131.75"/>
<polygon fill="midnightblue" stroke="midnightblue" points="979.64,-158.16 975.93,-168.08 985.02,-162.64 979.64,-158.16"/>
</g>
<!-- Node34&#45;&gt;Node7 -->
<g id="edge47" class="edge">
<title>Node34&#45;&gt;Node7</title>
<path fill="none" stroke="midnightblue" d="M1083.44,-163.18C1066.14,-153.24 1043.35,-140.15 1028.57,-131.65"/>
<polygon fill="midnightblue" stroke="midnightblue" points="1081.98,-166.38 1092.4,-168.32 1085.47,-160.31 1081.98,-166.38"/>
</g>
<!-- Node34&#45;&gt;Node8 -->
<g id="edge48" class="edge">
<title>Node34&#45;&gt;Node8</title>
<path fill="none" stroke="midnightblue" d="M1107.5,-157.8C1107.5,-148.91 1107.5,-138.78 1107.5,-131.75"/>
<polygon fill="midnightblue" stroke="midnightblue" points="1104,-158.08 1107.5,-168.08 1111,-158.08 1104,-158.08"/>
</g>
<!-- Node34&#45;&gt;Node15 -->
<g id="edge49" class="edge">
<title>Node34&#45;&gt;Node15</title>
<path fill="none" stroke="midnightblue" d="M1150.83,-166.51C1192.87,-156.33 1255.9,-141.07 1295.04,-131.59"/>
<polygon fill="midnightblue" stroke="midnightblue" points="1149.78,-163.16 1140.89,-168.92 1151.43,-169.96 1149.78,-163.16"/>
</g>
<!-- Node35&#45;&gt;Node7 -->
<g id="edge51" class="edge">
<title>Node35&#45;&gt;Node7</title>
<path fill="none" stroke="midnightblue" d="M1156.97,-165.57C1122.64,-155.38 1073.17,-140.7 1042.2,-131.52"/>
<polygon fill="midnightblue" stroke="midnightblue" points="1156.08,-168.95 1166.66,-168.44 1158.07,-162.24 1156.08,-168.95"/>
</g>
<!-- Node35&#45;&gt;Node8 -->
<g id="edge52" class="edge">
<title>Node35&#45;&gt;Node8</title>
<path fill="none" stroke="midnightblue" d="M1172.52,-162.9C1156.39,-153 1135.32,-140.07 1121.6,-131.65"/>
<polygon fill="midnightblue" stroke="midnightblue" points="1171.01,-166.08 1181.36,-168.32 1174.67,-160.11 1171.01,-166.08"/>
</g>
<!-- Node35&#45;&gt;Node16 -->
<g id="edge53" class="edge">
<title>Node35&#45;&gt;Node16</title>
<path fill="none" stroke="midnightblue" d="M1242.56,-166.46C1288.12,-156.25 1356.33,-140.96 1398.53,-131.51"/>
<polygon fill="midnightblue" stroke="midnightblue" points="1241.62,-163.08 1232.63,-168.68 1243.15,-169.91 1241.62,-163.08"/>
</g>
<!-- Node37&#45;&gt;Node7 -->
<g id="edge56" class="edge">
<title>Node37&#45;&gt;Node7</title>
<path fill="none" stroke="midnightblue" d="M1025.95,-158.4C1022.78,-149.36 1019.11,-138.94 1016.58,-131.75"/>
<polygon fill="midnightblue" stroke="midnightblue" points="1022.74,-159.81 1029.36,-168.08 1029.35,-157.49 1022.74,-159.81"/>
</g>
<!-- Node37&#45;&gt;Node8 -->
<g id="edge57" class="edge">
<title>Node37&#45;&gt;Node8</title>
<path fill="none" stroke="midnightblue" d="M1052.81,-162.38C1066.36,-152.62 1083.74,-140.11 1095.23,-131.83"/>
<polygon fill="midnightblue" stroke="midnightblue" points="1050.62,-159.64 1044.55,-168.32 1054.71,-165.32 1050.62,-159.64"/>
</g>
<!-- Node37&#45;&gt;Node17 -->
<g id="edge58" class="edge">
<title>Node37&#45;&gt;Node17</title>
<path fill="none" stroke="midnightblue" d="M1066.46,-167.74C1104.48,-157.37 1165.47,-140.74 1201.39,-130.94"/>
<polygon fill="midnightblue" stroke="midnightblue" points="1065.11,-164.48 1056.38,-170.49 1066.95,-171.23 1065.11,-164.48"/>
</g>
<!-- Node40 -->
<g id="node40" class="node">
<title>Node40</title>
<g id="a_node40"><a xlink:href="circle_8h.html" target="_top" xlink:title=" ">
<polygon fill="white" stroke="black" points="1487.5,-280.5 1487.5,-299.5 1535.5,-299.5 1535.5,-280.5 1487.5,-280.5"/>
<text text-anchor="middle" x="1511.5" y="-287.5" font-family="Helvetica,sans-Serif" font-size="10.00">circle.h</text>
</a>
</g>
</g>
<!-- Node39&#45;&gt;Node40 -->
<g id="edge62" class="edge">
<title>Node39&#45;&gt;Node40</title>
<path fill="none" stroke="midnightblue" d="M1371.96,-334.06C1406.27,-323.47 1457.36,-307.71 1487.26,-298.48"/>
<polygon fill="midnightblue" stroke="midnightblue" points="1370.85,-330.74 1362.32,-337.03 1372.91,-337.43 1370.85,-330.74"/>
</g>
<!-- Node43 -->
<g id="node43" class="node">
<title>Node43</title>
<g id="a_node43"><a xlink:href="rectangle_8h.html" target="_top" xlink:title=" ">
<polygon fill="white" stroke="black" points="1382,-280.5 1382,-299.5 1447,-299.5 1447,-280.5 1382,-280.5"/>
<text text-anchor="middle" x="1414.5" y="-287.5" font-family="Helvetica,sans-Serif" font-size="10.00">rectangle.h</text>
</a>
</g>
</g>
<!-- Node39&#45;&gt;Node43 -->
<g id="edge65" class="edge">
<title>Node39&#45;&gt;Node43</title>
<path fill="none" stroke="midnightblue" d="M1357.27,-330.62C1371.52,-320.76 1389.96,-307.99 1402,-299.65"/>
<polygon fill="midnightblue" stroke="midnightblue" points="1355.26,-327.75 1349.03,-336.32 1359.25,-333.51 1355.26,-327.75"/>
</g>
<!-- Node45 -->
<g id="node45" class="node">
<title>Node45</title>
<g id="a_node45"><a xlink:href="shape_8cpp.html" target="_top" xlink:title=" ">
<polygon fill="white" stroke="black" points="1235.5,-280.5 1235.5,-299.5 1297.5,-299.5 1297.5,-280.5 1235.5,-280.5"/>
<text text-anchor="middle" x="1266.5" y="-287.5" font-family="Helvetica,sans-Serif" font-size="10.00">shape.cpp</text>
</a>
</g>
</g>
<!-- Node39&#45;&gt;Node45 -->
<g id="edge69" class="edge">
<title>Node39&#45;&gt;Node45</title>
<path fill="none" stroke="midnightblue" d="M1317.19,-330.1C1304.59,-320.38 1288.57,-308.03 1277.95,-299.83"/>
<polygon fill="midnightblue" stroke="midnightblue" points="1315.2,-332.99 1325.25,-336.32 1319.47,-327.44 1315.2,-332.99"/>
</g>
<!-- Node46 -->
<g id="node46" class="node">
<title>Node46</title>
<g id="a_node46"><a xlink:href="text_8h.html" target="_top" xlink:title=" ">
<polygon fill="white" stroke="black" points="1316,-280.5 1316,-299.5 1357,-299.5 1357,-280.5 1316,-280.5"/>
<text text-anchor="middle" x="1336.5" y="-287.5" font-family="Helvetica,sans-Serif" font-size="10.00">text.h</text>
</a>
</g>
</g>
<!-- Node39&#45;&gt;Node46 -->
<g id="edge70" class="edge">
<title>Node39&#45;&gt;Node46</title>
<path fill="none" stroke="midnightblue" d="M1336.5,-325.8C1336.5,-316.91 1336.5,-306.78 1336.5,-299.75"/>
<polygon fill="midnightblue" stroke="midnightblue" points="1333,-326.08 1336.5,-336.08 1340,-326.08 1333,-326.08"/>
</g>
<!-- Node41 -->
<g id="node41" class="node">
<title>Node41</title>
<g id="a_node41"><a xlink:href="circle_8cpp.html" target="_top" xlink:title=" ">
<polygon fill="white" stroke="black" points="1558,-224.5 1558,-243.5 1617,-243.5 1617,-224.5 1558,-224.5"/>
<text text-anchor="middle" x="1587.5" y="-231.5" font-family="Helvetica,sans-Serif" font-size="10.00">circle.cpp</text>
</a>
</g>
</g>
<!-- Node40&#45;&gt;Node41 -->
<g id="edge63" class="edge">
<title>Node40&#45;&gt;Node41</title>
<path fill="none" stroke="midnightblue" d="M1532.08,-274.38C1545.81,-264.62 1563.43,-252.11 1575.07,-243.83"/>
<polygon fill="midnightblue" stroke="midnightblue" points="1529.84,-271.68 1523.71,-280.32 1533.89,-277.38 1529.84,-271.68"/>
</g>
<!-- Node42 -->
<g id="node42" class="node">
<title>Node42</title>
<g id="a_node42"><a xlink:href="shapes_8h.html" target="_top" xlink:title=" ">
<polygon fill="white" stroke="black" points="1483.5,-224.5 1483.5,-243.5 1539.5,-243.5 1539.5,-224.5 1483.5,-224.5"/>
<text text-anchor="middle" x="1511.5" y="-231.5" font-family="Helvetica,sans-Serif" font-size="10.00">shapes.h</text>
</a>
</g>
</g>
<!-- Node40&#45;&gt;Node42 -->
<g id="edge64" class="edge">
<title>Node40&#45;&gt;Node42</title>
<path fill="none" stroke="midnightblue" d="M1511.5,-269.8C1511.5,-260.91 1511.5,-250.78 1511.5,-243.75"/>
<polygon fill="midnightblue" stroke="midnightblue" points="1508,-270.08 1511.5,-280.08 1515,-270.08 1508,-270.08"/>
</g>
<!-- Node43&#45;&gt;Node3 -->
<g id="edge66" class="edge">
<title>Node43&#45;&gt;Node3</title>
<path fill="none" stroke="midnightblue" d="M1392.57,-274.9C1377.16,-265 1357.05,-252.07 1343.96,-243.65"/>
<polygon fill="midnightblue" stroke="midnightblue" points="1390.7,-277.86 1401,-280.32 1394.48,-271.97 1390.7,-277.86"/>
</g>
<!-- Node43&#45;&gt;Node42 -->
<g id="edge68" class="edge">
<title>Node43&#45;&gt;Node42</title>
<path fill="none" stroke="midnightblue" d="M1438.84,-275.45C1456.74,-265.48 1480.55,-252.23 1495.95,-243.65"/>
<polygon fill="midnightblue" stroke="midnightblue" points="1437.12,-272.4 1430.08,-280.32 1440.52,-278.52 1437.12,-272.4"/>
</g>
<!-- Node44 -->
<g id="node44" class="node">
<title>Node44</title>
<g id="a_node44"><a xlink:href="rectangle_8cpp.html" target="_top" xlink:title=" ">
<polygon fill="white" stroke="black" points="1390,-224.5 1390,-243.5 1465,-243.5 1465,-224.5 1390,-224.5"/>
<text text-anchor="middle" x="1427.5" y="-231.5" font-family="Helvetica,sans-Serif" font-size="10.00">rectangle.cpp</text>
</a>
</g>
</g>
<!-- Node43&#45;&gt;Node44 -->
<g id="edge67" class="edge">
<title>Node43&#45;&gt;Node44</title>
<path fill="none" stroke="midnightblue" d="M1419.05,-270.1C1421.21,-261.14 1423.68,-250.86 1425.39,-243.75"/>
<polygon fill="midnightblue" stroke="midnightblue" points="1415.58,-269.54 1416.65,-280.08 1422.39,-271.18 1415.58,-269.54"/>
</g>
<!-- Node46&#45;&gt;Node3 -->
<g id="edge71" class="edge">
<title>Node46&#45;&gt;Node3</title>
<path fill="none" stroke="midnightblue" d="M1334.4,-270.1C1333.4,-261.14 1332.26,-250.86 1331.47,-243.75"/>
<polygon fill="midnightblue" stroke="midnightblue" points="1330.93,-270.53 1335.51,-280.08 1337.88,-269.76 1330.93,-270.53"/>
</g>
<!-- Node46&#45;&gt;Node18 -->
<g id="edge73" class="edge">
<title>Node46&#45;&gt;Node18</title>
<path fill="none" stroke="midnightblue" d="M1310.34,-275.24C1298.75,-267.68 1286.25,-257.14 1279.5,-244 1270.11,-225.71 1272.55,-200.57 1274.75,-187.57"/>
<polygon fill="midnightblue" stroke="midnightblue" points="1308.54,-278.24 1318.9,-280.44 1312.17,-272.26 1308.54,-278.24"/>
</g>
<!-- Node46&#45;&gt;Node42 -->
<g id="edge72" class="edge">
<title>Node46&#45;&gt;Node42</title>
<path fill="none" stroke="midnightblue" d="M1366.83,-279.64C1399.79,-269.47 1452,-253.36 1483.86,-243.53"/>
<polygon fill="midnightblue" stroke="midnightblue" points="1365.79,-276.3 1357.26,-282.59 1367.85,-282.99 1365.79,-276.3"/>
</g>
</g>
</svg>
