<?xml version="1.0" encoding="UTF-8" standalone="no"?>
<!DOCTYPE svg PUBLIC "-//W3C//DTD SVG 1.1//EN"
 "http://www.w3.org/Graphics/SVG/1.1/DTD/svg11.dtd">
<!-- Generated by graphviz version 2.50.0 (20211204.2007)
 -->
<!-- Title: box_container.h Pages: 1 -->
<svg width="456pt" height="252pt"
 viewBox="0.00 0.00 456.00 252.00" xmlns="http://www.w3.org/2000/svg" xmlns:xlink="http://www.w3.org/1999/xlink">
<g id="graph0" class="graph" transform="scale(1 1) rotate(0) translate(4 248)">
<title>box_container.h</title>
<polygon fill="white" stroke="transparent" points="-4,4 -4,-248 452,-248 452,4 -4,4"/>
<!-- Node1 -->
<g id="node1" class="node">
<title>Node1</title>
<g id="a_node1"><a xlink:title=" ">
<polygon fill="#bfbfbf" stroke="black" points="116,-224.5 116,-243.5 201,-243.5 201,-224.5 116,-224.5"/>
<text text-anchor="middle" x="158.5" y="-231.5" font-family="Helvetica,sans-Serif" font-size="10.00">box_container.h</text>
</a>
</g>
</g>
<!-- Node2 -->
<g id="node2" class="node">
<title>Node2</title>
<g id="a_node2"><a xlink:href="box__container_8cpp.html" target="_top" xlink:title=" ">
<polygon fill="white" stroke="black" points="0,-168.5 0,-187.5 95,-187.5 95,-168.5 0,-168.5"/>
<text text-anchor="middle" x="47.5" y="-175.5" font-family="Helvetica,sans-Serif" font-size="10.00">box_container.cpp</text>
</a>
</g>
</g>
<!-- Node1&#45;&gt;Node2 -->
<g id="edge1" class="edge">
<title>Node1&#45;&gt;Node2</title>
<path fill="none" stroke="midnightblue" d="M131.49,-219.86C110.91,-209.85 83.16,-196.35 65.29,-187.65"/>
<polygon fill="midnightblue" stroke="midnightblue" points="130.14,-223.1 140.67,-224.32 133.2,-216.8 130.14,-223.1"/>
</g>
<!-- Node3 -->
<g id="node3" class="node">
<title>Node3</title>
<g id="a_node3"><a xlink:href="containers_8h.html" target="_top" xlink:title=" ">
<polygon fill="white" stroke="black" points="101.5,-56.5 101.5,-75.5 171.5,-75.5 171.5,-56.5 101.5,-56.5"/>
<text text-anchor="middle" x="136.5" y="-63.5" font-family="Helvetica,sans-Serif" font-size="10.00">containers.h</text>
</a>
</g>
</g>
<!-- Node1&#45;&gt;Node3 -->
<g id="edge2" class="edge">
<title>Node1&#45;&gt;Node3</title>
<path fill="none" stroke="midnightblue" d="M150.66,-214.79C147.55,-206.73 144.29,-197.05 142.5,-188 134.28,-146.53 135.27,-95.59 136.07,-75.61"/>
<polygon fill="midnightblue" stroke="midnightblue" points="147.5,-216.32 154.53,-224.25 153.98,-213.67 147.5,-216.32"/>
</g>
<!-- Node4 -->
<g id="node4" class="node">
<title>Node4</title>
<g id="a_node4"><a xlink:href="context__menu_8h.html" target="_top" xlink:title=" ">
<polygon fill="white" stroke="black" points="151.5,-168.5 151.5,-187.5 237.5,-187.5 237.5,-168.5 151.5,-168.5"/>
<text text-anchor="middle" x="194.5" y="-175.5" font-family="Helvetica,sans-Serif" font-size="10.00">context_menu.h</text>
</a>
</g>
</g>
<!-- Node1&#45;&gt;Node4 -->
<g id="edge3" class="edge">
<title>Node1&#45;&gt;Node4</title>
<path fill="none" stroke="midnightblue" d="M170.12,-215.57C176.32,-206.27 183.67,-195.25 188.67,-187.75"/>
<polygon fill="midnightblue" stroke="midnightblue" points="167.08,-213.82 164.44,-224.08 172.9,-217.7 167.08,-213.82"/>
</g>
<!-- Node11 -->
<g id="node11" class="node">
<title>Node11</title>
<g id="a_node11"><a xlink:href="default__skins_8cpp.html" target="_top" xlink:title=" ">
<polygon fill="white" stroke="black" points="256,-168.5 256,-187.5 349,-187.5 349,-168.5 256,-168.5"/>
<text text-anchor="middle" x="302.5" y="-175.5" font-family="Helvetica,sans-Serif" font-size="10.00">default_skins.cpp</text>
</a>
</g>
</g>
<!-- Node1&#45;&gt;Node11 -->
<g id="edge14" class="edge">
<title>Node1&#45;&gt;Node11</title>
<path fill="none" stroke="midnightblue" d="M190.75,-220.91C217.82,-210.75 255.82,-196.51 279.79,-187.52"/>
<polygon fill="midnightblue" stroke="midnightblue" points="189.45,-217.66 181.32,-224.44 191.91,-224.21 189.45,-217.66"/>
</g>
<!-- Node4&#45;&gt;Node3 -->
<g id="edge4" class="edge">
<title>Node4&#45;&gt;Node3</title>
<path fill="none" stroke="midnightblue" d="M185.18,-159.32C172.55,-135.37 150.5,-93.55 141.03,-75.59"/>
<polygon fill="midnightblue" stroke="midnightblue" points="182.19,-161.16 189.95,-168.37 188.38,-157.89 182.19,-161.16"/>
</g>
<!-- Node5 -->
<g id="node5" class="node">
<title>Node5</title>
<g id="a_node5"><a xlink:href="context__menu_8cpp.html" target="_top" xlink:title=" ">
<polygon fill="white" stroke="black" points="74,-0.5 74,-19.5 171,-19.5 171,-0.5 74,-0.5"/>
<text text-anchor="middle" x="122.5" y="-7.5" font-family="Helvetica,sans-Serif" font-size="10.00">context_menu.cpp</text>
</a>
</g>
</g>
<!-- Node4&#45;&gt;Node5 -->
<g id="edge5" class="edge">
<title>Node4&#45;&gt;Node5</title>
<path fill="none" stroke="midnightblue" d="M196.63,-158.11C198.54,-133.07 198.69,-88.29 180.5,-56 171.3,-39.68 153.54,-27.26 140.09,-19.65"/>
<polygon fill="midnightblue" stroke="midnightblue" points="193.11,-158.11 195.66,-168.4 200.08,-158.77 193.11,-158.11"/>
</g>
<!-- Node6 -->
<g id="node6" class="node">
<title>Node6</title>
<g id="a_node6"><a xlink:href="menu__bar_8h.html" target="_top" xlink:title=" ">
<polygon fill="white" stroke="black" points="228,-112.5 228,-131.5 295,-131.5 295,-112.5 228,-112.5"/>
<text text-anchor="middle" x="261.5" y="-119.5" font-family="Helvetica,sans-Serif" font-size="10.00">menu_bar.h</text>
</a>
</g>
</g>
<!-- Node4&#45;&gt;Node6 -->
<g id="edge6" class="edge">
<title>Node4&#45;&gt;Node6</title>
<path fill="none" stroke="midnightblue" d="M213.33,-161.82C225.34,-152.15 240.47,-139.95 250.54,-131.83"/>
<polygon fill="midnightblue" stroke="midnightblue" points="210.85,-159.32 205.26,-168.32 215.25,-164.77 210.85,-159.32"/>
</g>
<!-- Node6&#45;&gt;Node3 -->
<g id="edge7" class="edge">
<title>Node6&#45;&gt;Node3</title>
<path fill="none" stroke="midnightblue" d="M232.26,-108.37C208.85,-98.26 176.66,-84.35 156.21,-75.52"/>
<polygon fill="midnightblue" stroke="midnightblue" points="231.13,-111.69 241.69,-112.44 233.9,-105.26 231.13,-111.69"/>
</g>
<!-- Node7 -->
<g id="node7" class="node">
<title>Node7</title>
<g id="a_node7"><a xlink:href="menu__bar_8cpp.html" target="_top" xlink:title=" ">
<polygon fill="white" stroke="black" points="371,-0.5 371,-19.5 448,-19.5 448,-0.5 371,-0.5"/>
<text text-anchor="middle" x="409.5" y="-7.5" font-family="Helvetica,sans-Serif" font-size="10.00">menu_bar.cpp</text>
</a>
</g>
</g>
<!-- Node6&#45;&gt;Node7 -->
<g id="edge8" class="edge">
<title>Node6&#45;&gt;Node7</title>
<path fill="none" stroke="midnightblue" d="M281.52,-106.12C312.94,-82.77 372.81,-38.27 397.94,-19.59"/>
<polygon fill="midnightblue" stroke="midnightblue" points="279.05,-103.59 273.11,-112.37 283.23,-109.21 279.05,-103.59"/>
</g>
<!-- Node8 -->
<g id="node8" class="node">
<title>Node8</title>
<g id="a_node8"><a xlink:href="scene_8h.html" target="_top" xlink:title=" ">
<polygon fill="white" stroke="black" points="236,-56.5 236,-75.5 287,-75.5 287,-56.5 236,-56.5"/>
<text text-anchor="middle" x="261.5" y="-63.5" font-family="Helvetica,sans-Serif" font-size="10.00">scene.h</text>
</a>
</g>
</g>
<!-- Node6&#45;&gt;Node8 -->
<g id="edge9" class="edge">
<title>Node6&#45;&gt;Node8</title>
<path fill="none" stroke="midnightblue" d="M261.5,-101.8C261.5,-92.91 261.5,-82.78 261.5,-75.75"/>
<polygon fill="midnightblue" stroke="midnightblue" points="258,-102.08 261.5,-112.08 265,-102.08 258,-102.08"/>
</g>
<!-- Node8&#45;&gt;Node5 -->
<g id="edge11" class="edge">
<title>Node8&#45;&gt;Node5</title>
<path fill="none" stroke="midnightblue" d="M230.02,-52.77C203.91,-42.63 167.46,-28.47 144.42,-19.52"/>
<polygon fill="midnightblue" stroke="midnightblue" points="228.89,-56.08 239.48,-56.44 231.42,-49.56 228.89,-56.08"/>
</g>
<!-- Node8&#45;&gt;Node7 -->
<g id="edge12" class="edge">
<title>Node8&#45;&gt;Node7</title>
<path fill="none" stroke="midnightblue" d="M294.65,-52.91C322.47,-42.75 361.52,-28.51 386.16,-19.52"/>
<polygon fill="midnightblue" stroke="midnightblue" points="293.15,-49.73 284.95,-56.44 295.54,-56.3 293.15,-49.73"/>
</g>
<!-- Node9 -->
<g id="node9" class="node">
<title>Node9</title>
<g id="a_node9"><a xlink:href="component_8cpp.html" target="_top" xlink:title=" ">
<polygon fill="white" stroke="black" points="189,-0.5 189,-19.5 272,-19.5 272,-0.5 189,-0.5"/>
<text text-anchor="middle" x="230.5" y="-7.5" font-family="Helvetica,sans-Serif" font-size="10.00">component.cpp</text>
</a>
</g>
</g>
<!-- Node8&#45;&gt;Node9 -->
<g id="edge10" class="edge">
<title>Node8&#45;&gt;Node9</title>
<path fill="none" stroke="midnightblue" d="M251.32,-47.27C246.03,-38.05 239.78,-27.17 235.52,-19.75"/>
<polygon fill="midnightblue" stroke="midnightblue" points="248.37,-49.15 256.38,-56.08 254.44,-45.67 248.37,-49.15"/>
</g>
<!-- Node10 -->
<g id="node10" class="node">
<title>Node10</title>
<g id="a_node10"><a xlink:href="scene_8cpp.html" target="_top" xlink:title=" ">
<polygon fill="white" stroke="black" points="290.5,-0.5 290.5,-19.5 352.5,-19.5 352.5,-0.5 290.5,-0.5"/>
<text text-anchor="middle" x="321.5" y="-7.5" font-family="Helvetica,sans-Serif" font-size="10.00">scene.cpp</text>
</a>
</g>
</g>
<!-- Node8&#45;&gt;Node10 -->
<g id="edge13" class="edge">
<title>Node8&#45;&gt;Node10</title>
<path fill="none" stroke="midnightblue" d="M278.68,-49.54C289.38,-39.91 302.76,-27.87 311.68,-19.83"/>
<polygon fill="midnightblue" stroke="midnightblue" points="276.23,-47.03 271.14,-56.32 280.91,-52.24 276.23,-47.03"/>
</g>
</g>
</svg>
