<?xml version="1.0" encoding="UTF-8" standalone="no"?>
<!DOCTYPE svg PUBLIC "-//W3C//DTD SVG 1.1//EN"
 "http://www.w3.org/Graphics/SVG/1.1/DTD/svg11.dtd">
<!-- Generated by graphviz version 2.50.0 (20211204.2007)
 -->
<!-- Title: box_container.h Pages: 1 -->
<svg width="553pt" height="252pt"
 viewBox="0.00 0.00 553.00 252.00" xmlns="http://www.w3.org/2000/svg" xmlns:xlink="http://www.w3.org/1999/xlink">
<g id="graph0" class="graph" transform="scale(1 1) rotate(0) translate(4 248)">
<title>box_container.h</title>
<polygon fill="white" stroke="transparent" points="-4,4 -4,-248 549,-248 549,4 -4,4"/>
<!-- Node1 -->
<g id="node1" class="node">
<title>Node1</title>
<g id="a_node1"><a xlink:title=" ">
<polygon fill="#bfbfbf" stroke="black" points="227,-224.5 227,-243.5 312,-243.5 312,-224.5 227,-224.5"/>
<text text-anchor="middle" x="269.5" y="-231.5" font-family="Helvetica,sans-Serif" font-size="10.00">box_container.h</text>
</a>
</g>
</g>
<!-- Node2 -->
<g id="node2" class="node">
<title>Node2</title>
<g id="a_node2"><a xlink:href="box__container_8cpp.html" target="_top" xlink:title=" ">
<polygon fill="white" stroke="black" points="42,-168.5 42,-187.5 137,-187.5 137,-168.5 42,-168.5"/>
<text text-anchor="middle" x="89.5" y="-175.5" font-family="Helvetica,sans-Serif" font-size="10.00">box_container.cpp</text>
</a>
</g>
</g>
<!-- Node1&#45;&gt;Node2 -->
<g id="edge1" class="edge">
<title>Node1&#45;&gt;Node2</title>
<path fill="none" stroke="midnightblue" d="M231.39,-221.57C197.44,-211.38 148.51,-196.7 117.89,-187.52"/>
<polygon fill="midnightblue" stroke="midnightblue" points="230.39,-224.92 240.98,-224.44 232.41,-218.22 230.39,-224.92"/>
</g>
<!-- Node3 -->
<g id="node3" class="node">
<title>Node3</title>
<g id="a_node3"><a xlink:href="containers_8h.html" target="_top" xlink:title=" ">
<polygon fill="white" stroke="black" points="224.5,-56.5 224.5,-75.5 294.5,-75.5 294.5,-56.5 224.5,-56.5"/>
<text text-anchor="middle" x="259.5" y="-63.5" font-family="Helvetica,sans-Serif" font-size="10.00">containers.h</text>
</a>
</g>
</g>
<!-- Node1&#45;&gt;Node3 -->
<g id="edge2" class="edge">
<title>Node1&#45;&gt;Node3</title>
<path fill="none" stroke="midnightblue" d="M268.35,-213.93C266.18,-177.92 261.56,-101.23 260.02,-75.57"/>
<polygon fill="midnightblue" stroke="midnightblue" points="264.87,-214.3 268.96,-224.08 271.85,-213.88 264.87,-214.3"/>
</g>
<!-- Node4 -->
<g id="node4" class="node">
<title>Node4</title>
<g id="a_node4"><a xlink:href="context__menu_8h.html" target="_top" xlink:title=" ">
<polygon fill="white" stroke="black" points="155.5,-168.5 155.5,-187.5 241.5,-187.5 241.5,-168.5 155.5,-168.5"/>
<text text-anchor="middle" x="198.5" y="-175.5" font-family="Helvetica,sans-Serif" font-size="10.00">context_menu.h</text>
</a>
</g>
</g>
<!-- Node1&#45;&gt;Node4 -->
<g id="edge3" class="edge">
<title>Node1&#45;&gt;Node4</title>
<path fill="none" stroke="midnightblue" d="M249.91,-218.1C237.13,-208.38 220.89,-196.03 210.11,-187.83"/>
<polygon fill="midnightblue" stroke="midnightblue" points="248.01,-221.06 258.09,-224.32 252.25,-215.48 248.01,-221.06"/>
</g>
<!-- Node11 -->
<g id="node11" class="node">
<title>Node11</title>
<g id="a_node11"><a xlink:href="default__skins_8cpp.html" target="_top" xlink:title=" ">
<polygon fill="white" stroke="black" points="298,-112.5 298,-131.5 391,-131.5 391,-112.5 298,-112.5"/>
<text text-anchor="middle" x="344.5" y="-119.5" font-family="Helvetica,sans-Serif" font-size="10.00">default_skins.cpp</text>
</a>
</g>
</g>
<!-- Node1&#45;&gt;Node11 -->
<g id="edge14" class="edge">
<title>Node1&#45;&gt;Node11</title>
<path fill="none" stroke="midnightblue" d="M281.12,-215.96C297.37,-192.12 326.29,-149.71 338.64,-131.59"/>
<polygon fill="midnightblue" stroke="midnightblue" points="278.13,-214.13 275.39,-224.37 283.91,-218.08 278.13,-214.13"/>
</g>
<!-- Node12 -->
<g id="node12" class="node">
<title>Node12</title>
<g id="a_node12"><a xlink:href="slider_8h.html" target="_top" xlink:title=" ">
<polygon fill="white" stroke="black" points="394,-168.5 394,-187.5 441,-187.5 441,-168.5 394,-168.5"/>
<text text-anchor="middle" x="417.5" y="-175.5" font-family="Helvetica,sans-Serif" font-size="10.00">slider.h</text>
</a>
</g>
</g>
<!-- Node1&#45;&gt;Node12 -->
<g id="edge15" class="edge">
<title>Node1&#45;&gt;Node12</title>
<path fill="none" stroke="midnightblue" d="M302.65,-220.91C330.47,-210.75 369.52,-196.51 394.16,-187.52"/>
<polygon fill="midnightblue" stroke="midnightblue" points="301.15,-217.73 292.95,-224.44 303.54,-224.3 301.15,-217.73"/>
</g>
<!-- Node4&#45;&gt;Node3 -->
<g id="edge4" class="edge">
<title>Node4&#45;&gt;Node3</title>
<path fill="none" stroke="midnightblue" d="M208.3,-159.32C221.59,-135.37 244.78,-93.55 254.74,-75.59"/>
<polygon fill="midnightblue" stroke="midnightblue" points="205.08,-157.93 203.29,-168.37 211.2,-161.32 205.08,-157.93"/>
</g>
<!-- Node5 -->
<g id="node5" class="node">
<title>Node5</title>
<g id="a_node5"><a xlink:href="context__menu_8cpp.html" target="_top" xlink:title=" ">
<polygon fill="white" stroke="black" points="0,-0.5 0,-19.5 97,-19.5 97,-0.5 0,-0.5"/>
<text text-anchor="middle" x="48.5" y="-7.5" font-family="Helvetica,sans-Serif" font-size="10.00">context_menu.cpp</text>
</a>
</g>
</g>
<!-- Node4&#45;&gt;Node5 -->
<g id="edge5" class="edge">
<title>Node4&#45;&gt;Node5</title>
<path fill="none" stroke="midnightblue" d="M171.15,-163.66C156.78,-155.77 139.5,-144.82 126.5,-132 90.2,-96.2 62.22,-40.62 52.35,-19.52"/>
<polygon fill="midnightblue" stroke="midnightblue" points="169.62,-166.81 180.1,-168.39 172.89,-160.62 169.62,-166.81"/>
</g>
<!-- Node6 -->
<g id="node6" class="node">
<title>Node6</title>
<g id="a_node6"><a xlink:href="menu__bar_8h.html" target="_top" xlink:title=" ">
<polygon fill="white" stroke="black" points="136,-112.5 136,-131.5 203,-131.5 203,-112.5 136,-112.5"/>
<text text-anchor="middle" x="169.5" y="-119.5" font-family="Helvetica,sans-Serif" font-size="10.00">menu_bar.h</text>
</a>
</g>
</g>
<!-- Node4&#45;&gt;Node6 -->
<g id="edge6" class="edge">
<title>Node4&#45;&gt;Node6</title>
<path fill="none" stroke="midnightblue" d="M188.82,-158.98C183.9,-149.82 178.14,-139.09 174.2,-131.75"/>
<polygon fill="midnightblue" stroke="midnightblue" points="185.9,-160.93 193.71,-168.08 192.06,-157.62 185.9,-160.93"/>
</g>
<!-- Node6&#45;&gt;Node3 -->
<g id="edge7" class="edge">
<title>Node6&#45;&gt;Node3</title>
<path fill="none" stroke="midnightblue" d="M192.54,-107.18C209.1,-97.24 230.92,-84.15 245.08,-75.65"/>
<polygon fill="midnightblue" stroke="midnightblue" points="190.73,-104.18 183.96,-112.32 194.34,-110.18 190.73,-104.18"/>
</g>
<!-- Node7 -->
<g id="node7" class="node">
<title>Node7</title>
<g id="a_node7"><a xlink:href="menu__bar_8cpp.html" target="_top" xlink:title=" ">
<polygon fill="white" stroke="black" points="115,-0.5 115,-19.5 192,-19.5 192,-0.5 115,-0.5"/>
<text text-anchor="middle" x="153.5" y="-7.5" font-family="Helvetica,sans-Serif" font-size="10.00">menu_bar.cpp</text>
</a>
</g>
</g>
<!-- Node6&#45;&gt;Node7 -->
<g id="edge8" class="edge">
<title>Node6&#45;&gt;Node7</title>
<path fill="none" stroke="midnightblue" d="M157.74,-103.77C152.94,-95.71 147.94,-85.75 145.5,-76 140.54,-56.15 146.51,-32.08 150.49,-19.54"/>
<polygon fill="midnightblue" stroke="midnightblue" points="154.81,-105.68 163.13,-112.23 160.71,-101.92 154.81,-105.68"/>
</g>
<!-- Node8 -->
<g id="node8" class="node">
<title>Node8</title>
<g id="a_node8"><a xlink:href="scene_8h.html" target="_top" xlink:title=" ">
<polygon fill="white" stroke="black" points="155,-56.5 155,-75.5 206,-75.5 206,-56.5 155,-56.5"/>
<text text-anchor="middle" x="180.5" y="-63.5" font-family="Helvetica,sans-Serif" font-size="10.00">scene.h</text>
</a>
</g>
</g>
<!-- Node6&#45;&gt;Node8 -->
<g id="edge9" class="edge">
<title>Node6&#45;&gt;Node8</title>
<path fill="none" stroke="midnightblue" d="M173.35,-102.1C175.18,-93.14 177.27,-82.86 178.72,-75.75"/>
<polygon fill="midnightblue" stroke="midnightblue" points="169.88,-101.59 171.32,-112.08 176.74,-102.98 169.88,-101.59"/>
</g>
<!-- Node8&#45;&gt;Node5 -->
<g id="edge11" class="edge">
<title>Node8&#45;&gt;Node5</title>
<path fill="none" stroke="midnightblue" d="M150.28,-52.64C125.51,-42.5 91.1,-28.43 69.32,-19.52"/>
<polygon fill="midnightblue" stroke="midnightblue" points="149,-55.9 159.58,-56.44 151.65,-49.42 149,-55.9"/>
</g>
<!-- Node8&#45;&gt;Node7 -->
<g id="edge12" class="edge">
<title>Node8&#45;&gt;Node7</title>
<path fill="none" stroke="midnightblue" d="M171.49,-46.98C166.91,-37.82 161.55,-27.09 157.88,-19.75"/>
<polygon fill="midnightblue" stroke="midnightblue" points="168.44,-48.7 176.04,-56.08 174.7,-45.57 168.44,-48.7"/>
</g>
<!-- Node9 -->
<g id="node9" class="node">
<title>Node9</title>
<g id="a_node9"><a xlink:href="component_8cpp.html" target="_top" xlink:title=" ">
<polygon fill="white" stroke="black" points="210,-0.5 210,-19.5 293,-19.5 293,-0.5 210,-0.5"/>
<text text-anchor="middle" x="251.5" y="-7.5" font-family="Helvetica,sans-Serif" font-size="10.00">component.cpp</text>
</a>
</g>
</g>
<!-- Node8&#45;&gt;Node9 -->
<g id="edge10" class="edge">
<title>Node8&#45;&gt;Node9</title>
<path fill="none" stroke="midnightblue" d="M200.09,-50.1C212.87,-40.38 229.11,-28.03 239.89,-19.83"/>
<polygon fill="midnightblue" stroke="midnightblue" points="197.75,-47.48 191.91,-56.32 201.99,-53.06 197.75,-47.48"/>
</g>
<!-- Node10 -->
<g id="node10" class="node">
<title>Node10</title>
<g id="a_node10"><a xlink:href="scene_8cpp.html" target="_top" xlink:title=" ">
<polygon fill="white" stroke="black" points="311.5,-0.5 311.5,-19.5 373.5,-19.5 373.5,-0.5 311.5,-0.5"/>
<text text-anchor="middle" x="342.5" y="-7.5" font-family="Helvetica,sans-Serif" font-size="10.00">scene.cpp</text>
</a>
</g>
</g>
<!-- Node8&#45;&gt;Node10 -->
<g id="edge13" class="edge">
<title>Node8&#45;&gt;Node10</title>
<path fill="none" stroke="midnightblue" d="M215.98,-53.17C246.49,-43 289.74,-28.59 316.95,-19.52"/>
<polygon fill="midnightblue" stroke="midnightblue" points="214.55,-49.96 206.17,-56.44 216.76,-56.6 214.55,-49.96"/>
</g>
<!-- Node12&#45;&gt;Node11 -->
<g id="edge17" class="edge">
<title>Node12&#45;&gt;Node11</title>
<path fill="none" stroke="midnightblue" d="M397.36,-162.1C384.22,-152.38 367.52,-140.03 356.44,-131.83"/>
<polygon fill="midnightblue" stroke="midnightblue" points="395.65,-165.19 405.77,-168.32 399.81,-159.56 395.65,-165.19"/>
</g>
<!-- Node13 -->
<g id="node13" class="node">
<title>Node13</title>
<g id="a_node13"><a xlink:href="controls_8h.html" target="_top" xlink:title=" ">
<polygon fill="white" stroke="black" points="486,-112.5 486,-131.5 545,-131.5 545,-112.5 486,-112.5"/>
<text text-anchor="middle" x="515.5" y="-119.5" font-family="Helvetica,sans-Serif" font-size="10.00">controls.h</text>
</a>
</g>
</g>
<!-- Node12&#45;&gt;Node13 -->
<g id="edge16" class="edge">
<title>Node12&#45;&gt;Node13</title>
<path fill="none" stroke="midnightblue" d="M442.09,-163.45C460.18,-153.48 484.23,-140.23 499.79,-131.65"/>
<polygon fill="midnightblue" stroke="midnightblue" points="440.31,-160.43 433.25,-168.32 443.69,-166.56 440.31,-160.43"/>
</g>
<!-- Node14 -->
<g id="node14" class="node">
<title>Node14</title>
<g id="a_node14"><a xlink:href="slider_8cpp.html" target="_top" xlink:title=" ">
<polygon fill="white" stroke="black" points="409.5,-112.5 409.5,-131.5 467.5,-131.5 467.5,-112.5 409.5,-112.5"/>
<text text-anchor="middle" x="438.5" y="-119.5" font-family="Helvetica,sans-Serif" font-size="10.00">slider.cpp</text>
</a>
</g>
</g>
<!-- Node12&#45;&gt;Node14 -->
<g id="edge18" class="edge">
<title>Node12&#45;&gt;Node14</title>
<path fill="none" stroke="midnightblue" d="M424.62,-158.69C428.16,-149.59 432.27,-139.01 435.1,-131.75"/>
<polygon fill="midnightblue" stroke="midnightblue" points="421.33,-157.49 420.97,-168.08 427.85,-160.03 421.33,-157.49"/>
</g>
</g>
</svg>
