<?xml version="1.0" encoding="UTF-8" standalone="no"?>
<!DOCTYPE svg PUBLIC "-//W3C//DTD SVG 1.1//EN"
 "http://www.w3.org/Graphics/SVG/1.1/DTD/svg11.dtd">
<!-- Generated by graphviz version 2.50.0 (20211204.2007)
 -->
<!-- Title: button.h Pages: 1 -->
<svg width="439pt" height="252pt"
 viewBox="0.00 0.00 438.50 252.00" xmlns="http://www.w3.org/2000/svg" xmlns:xlink="http://www.w3.org/1999/xlink">
<g id="graph0" class="graph" transform="scale(1 1) rotate(0) translate(4 248)">
<title>button.h</title>
<polygon fill="white" stroke="transparent" points="-4,4 -4,-248 434.5,-248 434.5,4 -4,4"/>
<!-- Node1 -->
<g id="node1" class="node">
<title>Node1</title>
<g id="a_node1"><a xlink:title=" ">
<polygon fill="#bfbfbf" stroke="black" points="170,-224.5 170,-243.5 222,-243.5 222,-224.5 170,-224.5"/>
<text text-anchor="middle" x="196" y="-231.5" font-family="Helvetica,sans-Serif" font-size="10.00">button.h</text>
</a>
</g>
</g>
<!-- Node2 -->
<g id="node2" class="node">
<title>Node2</title>
<g id="a_node2"><a xlink:href="button_8cpp.html" target="_top" xlink:title=" ">
<polygon fill="white" stroke="black" points="0,-168.5 0,-187.5 62,-187.5 62,-168.5 0,-168.5"/>
<text text-anchor="middle" x="31" y="-175.5" font-family="Helvetica,sans-Serif" font-size="10.00">button.cpp</text>
</a>
</g>
</g>
<!-- Node1&#45;&gt;Node2 -->
<g id="edge1" class="edge">
<title>Node1&#45;&gt;Node2</title>
<path fill="none" stroke="midnightblue" d="M160.26,-221.3C129.17,-211.13 84.85,-196.62 57.02,-187.52"/>
<polygon fill="midnightblue" stroke="midnightblue" points="159.26,-224.66 169.86,-224.44 161.44,-218.01 159.26,-224.66"/>
</g>
<!-- Node3 -->
<g id="node3" class="node">
<title>Node3</title>
<g id="a_node3"><a xlink:href="context__menu_8cpp.html" target="_top" xlink:title=" ">
<polygon fill="white" stroke="black" points="41.5,-0.5 41.5,-19.5 138.5,-19.5 138.5,-0.5 41.5,-0.5"/>
<text text-anchor="middle" x="90" y="-7.5" font-family="Helvetica,sans-Serif" font-size="10.00">context_menu.cpp</text>
</a>
</g>
</g>
<!-- Node1&#45;&gt;Node3 -->
<g id="edge2" class="edge">
<title>Node1&#45;&gt;Node3</title>
<path fill="none" stroke="midnightblue" d="M160.23,-223.42C141.9,-216.61 120.97,-205.49 109,-188 71.82,-133.68 83.36,-47.22 88.28,-19.71"/>
<polygon fill="midnightblue" stroke="midnightblue" points="159.2,-226.77 169.79,-226.69 161.46,-220.15 159.2,-226.77"/>
</g>
<!-- Node4 -->
<g id="node4" class="node">
<title>Node4</title>
<g id="a_node4"><a xlink:href="context__menu_8h.html" target="_top" xlink:title=" ">
<polygon fill="white" stroke="black" points="118,-168.5 118,-187.5 204,-187.5 204,-168.5 118,-168.5"/>
<text text-anchor="middle" x="161" y="-175.5" font-family="Helvetica,sans-Serif" font-size="10.00">context_menu.h</text>
</a>
</g>
</g>
<!-- Node1&#45;&gt;Node4 -->
<g id="edge3" class="edge">
<title>Node1&#45;&gt;Node4</title>
<path fill="none" stroke="midnightblue" d="M184.7,-215.57C178.68,-206.27 171.53,-195.25 166.67,-187.75"/>
<polygon fill="midnightblue" stroke="midnightblue" points="181.84,-217.6 190.22,-224.08 187.72,-213.79 181.84,-217.6"/>
</g>
<!-- Node6 -->
<g id="node6" class="node">
<title>Node6</title>
<g id="a_node6"><a xlink:href="menu__bar_8h.html" target="_top" xlink:title=" ">
<polygon fill="white" stroke="black" points="198.5,-112.5 198.5,-131.5 265.5,-131.5 265.5,-112.5 198.5,-112.5"/>
<text text-anchor="middle" x="232" y="-119.5" font-family="Helvetica,sans-Serif" font-size="10.00">menu_bar.h</text>
</a>
</g>
</g>
<!-- Node1&#45;&gt;Node6 -->
<g id="edge16" class="edge">
<title>Node1&#45;&gt;Node6</title>
<path fill="none" stroke="midnightblue" d="M203.22,-214.86C206.37,-206.7 210.02,-196.92 213,-188 219.64,-168.15 226.23,-144.48 229.63,-131.9"/>
<polygon fill="midnightblue" stroke="midnightblue" points="199.85,-213.86 199.46,-224.44 206.37,-216.41 199.85,-213.86"/>
</g>
<!-- Node11 -->
<g id="node11" class="node">
<title>Node11</title>
<g id="a_node11"><a xlink:href="controls_8h.html" target="_top" xlink:title=" ">
<polygon fill="white" stroke="black" points="260.5,-168.5 260.5,-187.5 319.5,-187.5 319.5,-168.5 260.5,-168.5"/>
<text text-anchor="middle" x="290" y="-175.5" font-family="Helvetica,sans-Serif" font-size="10.00">controls.h</text>
</a>
</g>
</g>
<!-- Node1&#45;&gt;Node11 -->
<g id="edge14" class="edge">
<title>Node1&#45;&gt;Node11</title>
<path fill="none" stroke="midnightblue" d="M220.06,-219.18C237.36,-209.24 260.15,-196.15 274.93,-187.65"/>
<polygon fill="midnightblue" stroke="midnightblue" points="218.03,-216.31 211.1,-224.32 221.52,-222.38 218.03,-216.31"/>
</g>
<!-- Node12 -->
<g id="node12" class="node">
<title>Node12</title>
<g id="a_node12"><a xlink:href="default__skins_8cpp.html" target="_top" xlink:title=" ">
<polygon fill="white" stroke="black" points="337.5,-168.5 337.5,-187.5 430.5,-187.5 430.5,-168.5 337.5,-168.5"/>
<text text-anchor="middle" x="384" y="-175.5" font-family="Helvetica,sans-Serif" font-size="10.00">default_skins.cpp</text>
</a>
</g>
</g>
<!-- Node1&#45;&gt;Node12 -->
<g id="edge15" class="edge">
<title>Node1&#45;&gt;Node12</title>
<path fill="none" stroke="midnightblue" d="M232.1,-222.63C267.63,-212.42 321.25,-197.02 354.37,-187.51"/>
<polygon fill="midnightblue" stroke="midnightblue" points="230.79,-219.37 222.14,-225.49 232.72,-226.09 230.79,-219.37"/>
</g>
<!-- Node4&#45;&gt;Node3 -->
<g id="edge5" class="edge">
<title>Node4&#45;&gt;Node3</title>
<path fill="none" stroke="midnightblue" d="M153.24,-158.86C138.01,-123.25 104.74,-45.45 93.66,-19.57"/>
<polygon fill="midnightblue" stroke="midnightblue" points="150.03,-160.26 157.18,-168.08 156.47,-157.5 150.03,-160.26"/>
</g>
<!-- Node5 -->
<g id="node5" class="node">
<title>Node5</title>
<g id="a_node5"><a xlink:href="containers_8h.html" target="_top" xlink:title=" ">
<polygon fill="white" stroke="black" points="156,-56.5 156,-75.5 226,-75.5 226,-56.5 156,-56.5"/>
<text text-anchor="middle" x="191" y="-63.5" font-family="Helvetica,sans-Serif" font-size="10.00">containers.h</text>
</a>
</g>
</g>
<!-- Node4&#45;&gt;Node5 -->
<g id="edge4" class="edge">
<title>Node4&#45;&gt;Node5</title>
<path fill="none" stroke="midnightblue" d="M166,-158.67C172.56,-134.62 183.8,-93.39 188.66,-75.59"/>
<polygon fill="midnightblue" stroke="midnightblue" points="162.61,-157.8 163.35,-168.37 169.36,-159.64 162.61,-157.8"/>
</g>
<!-- Node4&#45;&gt;Node6 -->
<g id="edge6" class="edge">
<title>Node4&#45;&gt;Node6</title>
<path fill="none" stroke="midnightblue" d="M180.59,-162.1C193.37,-152.38 209.61,-140.03 220.39,-131.83"/>
<polygon fill="midnightblue" stroke="midnightblue" points="178.25,-159.48 172.41,-168.32 182.49,-165.06 178.25,-159.48"/>
</g>
<!-- Node6&#45;&gt;Node5 -->
<g id="edge7" class="edge">
<title>Node6&#45;&gt;Node5</title>
<path fill="none" stroke="midnightblue" d="M218.98,-103.86C211.88,-94.5 203.4,-83.33 197.64,-75.75"/>
<polygon fill="midnightblue" stroke="midnightblue" points="216.39,-106.24 225.23,-112.08 221.97,-102 216.39,-106.24"/>
</g>
<!-- Node7 -->
<g id="node7" class="node">
<title>Node7</title>
<g id="a_node7"><a xlink:href="menu__bar_8cpp.html" target="_top" xlink:title=" ">
<polygon fill="white" stroke="black" points="338.5,-0.5 338.5,-19.5 415.5,-19.5 415.5,-0.5 338.5,-0.5"/>
<text text-anchor="middle" x="377" y="-7.5" font-family="Helvetica,sans-Serif" font-size="10.00">menu_bar.cpp</text>
</a>
</g>
</g>
<!-- Node6&#45;&gt;Node7 -->
<g id="edge8" class="edge">
<title>Node6&#45;&gt;Node7</title>
<path fill="none" stroke="midnightblue" d="M256.52,-107.39C271.04,-98.97 289.56,-87.58 305,-76 329.52,-57.61 355.57,-32.52 368.58,-19.54"/>
<polygon fill="midnightblue" stroke="midnightblue" points="254.58,-104.47 247.63,-112.47 258.05,-110.55 254.58,-104.47"/>
</g>
<!-- Node8 -->
<g id="node8" class="node">
<title>Node8</title>
<g id="a_node8"><a xlink:href="scene_8h.html" target="_top" xlink:title=" ">
<polygon fill="white" stroke="black" points="244.5,-56.5 244.5,-75.5 295.5,-75.5 295.5,-56.5 244.5,-56.5"/>
<text text-anchor="middle" x="270" y="-63.5" font-family="Helvetica,sans-Serif" font-size="10.00">scene.h</text>
</a>
</g>
</g>
<!-- Node6&#45;&gt;Node8 -->
<g id="edge9" class="edge">
<title>Node6&#45;&gt;Node8</title>
<path fill="none" stroke="midnightblue" d="M244.06,-103.86C250.64,-94.5 258.51,-83.33 263.84,-75.75"/>
<polygon fill="midnightblue" stroke="midnightblue" points="241.17,-101.89 238.27,-112.08 246.89,-105.92 241.17,-101.89"/>
</g>
<!-- Node8&#45;&gt;Node3 -->
<g id="edge11" class="edge">
<title>Node8&#45;&gt;Node3</title>
<path fill="none" stroke="midnightblue" d="M234.23,-54.27C200.22,-44.07 149.75,-28.92 118.41,-19.52"/>
<polygon fill="midnightblue" stroke="midnightblue" points="233.63,-57.74 244.21,-57.26 235.64,-51.04 233.63,-57.74"/>
</g>
<!-- Node8&#45;&gt;Node7 -->
<g id="edge12" class="edge">
<title>Node8&#45;&gt;Node7</title>
<path fill="none" stroke="midnightblue" d="M296.3,-51.73C316.11,-41.73 342.71,-28.31 359.85,-19.65"/>
<polygon fill="midnightblue" stroke="midnightblue" points="294.54,-48.69 287.19,-56.32 297.7,-54.94 294.54,-48.69"/>
</g>
<!-- Node9 -->
<g id="node9" class="node">
<title>Node9</title>
<g id="a_node9"><a xlink:href="component_8cpp.html" target="_top" xlink:title=" ">
<polygon fill="white" stroke="black" points="237.5,-0.5 237.5,-19.5 320.5,-19.5 320.5,-0.5 237.5,-0.5"/>
<text text-anchor="middle" x="279" y="-7.5" font-family="Helvetica,sans-Serif" font-size="10.00">component.cpp</text>
</a>
</g>
</g>
<!-- Node8&#45;&gt;Node9 -->
<g id="edge10" class="edge">
<title>Node8&#45;&gt;Node9</title>
<path fill="none" stroke="midnightblue" d="M273.15,-46.1C274.64,-37.14 276.36,-26.86 277.54,-19.75"/>
<polygon fill="midnightblue" stroke="midnightblue" points="269.68,-45.64 271.49,-56.08 276.58,-46.79 269.68,-45.64"/>
</g>
<!-- Node10 -->
<g id="node10" class="node">
<title>Node10</title>
<g id="a_node10"><a xlink:href="scene_8cpp.html" target="_top" xlink:title=" ">
<polygon fill="white" stroke="black" points="157,-0.5 157,-19.5 219,-19.5 219,-0.5 157,-0.5"/>
<text text-anchor="middle" x="188" y="-7.5" font-family="Helvetica,sans-Serif" font-size="10.00">scene.cpp</text>
</a>
</g>
</g>
<!-- Node8&#45;&gt;Node10 -->
<g id="edge13" class="edge">
<title>Node8&#45;&gt;Node10</title>
<path fill="none" stroke="midnightblue" d="M248.17,-50.62C233.19,-40.76 213.8,-27.99 201.14,-19.65"/>
<polygon fill="midnightblue" stroke="midnightblue" points="246.55,-53.75 256.83,-56.32 250.4,-47.9 246.55,-53.75"/>
</g>
</g>
</svg>
