<?xml version="1.0" encoding="UTF-8" standalone="no"?>
<!DOCTYPE svg PUBLIC "-//W3C//DTD SVG 1.1//EN"
 "http://www.w3.org/Graphics/SVG/1.1/DTD/svg11.dtd">
<!-- Generated by graphviz version 2.50.0 (20211204.2007)
 -->
<!-- Title: button.h Pages: 1 -->
<svg width="416pt" height="196pt"
 viewBox="0.00 0.00 415.50 196.00" xmlns="http://www.w3.org/2000/svg" xmlns:xlink="http://www.w3.org/1999/xlink">
<g id="graph0" class="graph" transform="scale(1 1) rotate(0) translate(4 192)">
<title>button.h</title>
<polygon fill="white" stroke="transparent" points="-4,4 -4,-192 411.5,-192 411.5,4 -4,4"/>
<!-- Node1 -->
<g id="node1" class="node">
<title>Node1</title>
<g id="a_node1"><a xlink:title=" ">
<polygon fill="#bfbfbf" stroke="black" points="101,-168.5 101,-187.5 153,-187.5 153,-168.5 101,-168.5"/>
<text text-anchor="middle" x="127" y="-175.5" font-family="Helvetica,sans-Serif" font-size="10.00">button.h</text>
</a>
</g>
</g>
<!-- Node2 -->
<g id="node2" class="node">
<title>Node2</title>
<g id="a_node2"><a xlink:href="button_8cpp.html" target="_top" xlink:title=" ">
<polygon fill="white" stroke="black" points="0,-112.5 0,-131.5 62,-131.5 62,-112.5 0,-112.5"/>
<text text-anchor="middle" x="31" y="-119.5" font-family="Helvetica,sans-Serif" font-size="10.00">button.cpp</text>
</a>
</g>
</g>
<!-- Node1&#45;&gt;Node2 -->
<g id="edge1" class="edge">
<title>Node1&#45;&gt;Node2</title>
<path fill="none" stroke="midnightblue" d="M102.43,-163.18C84.76,-153.24 61.49,-140.15 46.39,-131.65"/>
<polygon fill="midnightblue" stroke="midnightblue" points="101.14,-166.47 111.58,-168.32 104.58,-160.37 101.14,-166.47"/>
</g>
<!-- Node3 -->
<g id="node3" class="node">
<title>Node3</title>
<g id="a_node3"><a xlink:href="context__menu_8cpp.html" target="_top" xlink:title=" ">
<polygon fill="white" stroke="black" points="33.5,-0.5 33.5,-19.5 130.5,-19.5 130.5,-0.5 33.5,-0.5"/>
<text text-anchor="middle" x="82" y="-7.5" font-family="Helvetica,sans-Serif" font-size="10.00">context_menu.cpp</text>
</a>
</g>
</g>
<!-- Node1&#45;&gt;Node3 -->
<g id="edge2" class="edge">
<title>Node1&#45;&gt;Node3</title>
<path fill="none" stroke="midnightblue" d="M119.01,-158.96C115.61,-150.83 111.8,-141.04 109,-132 96.21,-90.67 86.86,-39.65 83.43,-19.63"/>
<polygon fill="midnightblue" stroke="midnightblue" points="115.81,-160.39 122.98,-168.19 122.24,-157.62 115.81,-160.39"/>
</g>
<!-- Node4 -->
<g id="node4" class="node">
<title>Node4</title>
<g id="a_node4"><a xlink:href="default__skins_8cpp.html" target="_top" xlink:title=" ">
<polygon fill="white" stroke="black" points="118.5,-112.5 118.5,-131.5 211.5,-131.5 211.5,-112.5 118.5,-112.5"/>
<text text-anchor="middle" x="165" y="-119.5" font-family="Helvetica,sans-Serif" font-size="10.00">default_skins.cpp</text>
</a>
</g>
</g>
<!-- Node1&#45;&gt;Node4 -->
<g id="edge3" class="edge">
<title>Node1&#45;&gt;Node4</title>
<path fill="none" stroke="midnightblue" d="M139.06,-159.86C145.64,-150.5 153.51,-139.33 158.84,-131.75"/>
<polygon fill="midnightblue" stroke="midnightblue" points="136.17,-157.89 133.27,-168.08 141.89,-161.92 136.17,-157.89"/>
</g>
<!-- Node5 -->
<g id="node5" class="node">
<title>Node5</title>
<g id="a_node5"><a xlink:href="menu__bar_8h.html" target="_top" xlink:title=" ">
<polygon fill="white" stroke="black" points="233.5,-112.5 233.5,-131.5 300.5,-131.5 300.5,-112.5 233.5,-112.5"/>
<text text-anchor="middle" x="267" y="-119.5" font-family="Helvetica,sans-Serif" font-size="10.00">menu_bar.h</text>
</a>
</g>
</g>
<!-- Node1&#45;&gt;Node5 -->
<g id="edge4" class="edge">
<title>Node1&#45;&gt;Node5</title>
<path fill="none" stroke="midnightblue" d="M158.7,-164.77C185,-154.63 221.72,-140.47 244.92,-131.52"/>
<polygon fill="midnightblue" stroke="midnightblue" points="157.25,-161.58 149.18,-168.44 159.77,-168.11 157.25,-161.58"/>
</g>
<!-- Node6 -->
<g id="node6" class="node">
<title>Node6</title>
<g id="a_node6"><a xlink:href="menu__bar_8cpp.html" target="_top" xlink:title=" ">
<polygon fill="white" stroke="black" points="330.5,-0.5 330.5,-19.5 407.5,-19.5 407.5,-0.5 330.5,-0.5"/>
<text text-anchor="middle" x="369" y="-7.5" font-family="Helvetica,sans-Serif" font-size="10.00">menu_bar.cpp</text>
</a>
</g>
</g>
<!-- Node5&#45;&gt;Node6 -->
<g id="edge5" class="edge">
<title>Node5&#45;&gt;Node6</title>
<path fill="none" stroke="midnightblue" d="M281.93,-104.9C303.86,-81.25 344.01,-37.95 361.03,-19.59"/>
<polygon fill="midnightblue" stroke="midnightblue" points="279.24,-102.66 275,-112.37 284.37,-107.42 279.24,-102.66"/>
</g>
<!-- Node7 -->
<g id="node7" class="node">
<title>Node7</title>
<g id="a_node7"><a xlink:href="scene_8h.html" target="_top" xlink:title=" ">
<polygon fill="white" stroke="black" points="241.5,-56.5 241.5,-75.5 292.5,-75.5 292.5,-56.5 241.5,-56.5"/>
<text text-anchor="middle" x="267" y="-63.5" font-family="Helvetica,sans-Serif" font-size="10.00">scene.h</text>
</a>
</g>
</g>
<!-- Node5&#45;&gt;Node7 -->
<g id="edge6" class="edge">
<title>Node5&#45;&gt;Node7</title>
<path fill="none" stroke="midnightblue" d="M267,-101.8C267,-92.91 267,-82.78 267,-75.75"/>
<polygon fill="midnightblue" stroke="midnightblue" points="263.5,-102.08 267,-112.08 270.5,-102.08 263.5,-102.08"/>
</g>
<!-- Node7&#45;&gt;Node3 -->
<g id="edge8" class="edge">
<title>Node7&#45;&gt;Node3</title>
<path fill="none" stroke="midnightblue" d="M231.48,-54.63C196.51,-44.42 143.75,-29.02 111.16,-19.51"/>
<polygon fill="midnightblue" stroke="midnightblue" points="230.7,-58.05 241.28,-57.49 232.66,-51.33 230.7,-58.05"/>
</g>
<!-- Node7&#45;&gt;Node6 -->
<g id="edge9" class="edge">
<title>Node7&#45;&gt;Node6</title>
<path fill="none" stroke="midnightblue" d="M292.33,-51.59C311.19,-41.61 336.38,-28.27 352.65,-19.65"/>
<polygon fill="midnightblue" stroke="midnightblue" points="290.59,-48.55 283.39,-56.32 293.86,-54.74 290.59,-48.55"/>
</g>
<!-- Node8 -->
<g id="node8" class="node">
<title>Node8</title>
<g id="a_node8"><a xlink:href="component_8cpp.html" target="_top" xlink:title=" ">
<polygon fill="white" stroke="black" points="229.5,-0.5 229.5,-19.5 312.5,-19.5 312.5,-0.5 229.5,-0.5"/>
<text text-anchor="middle" x="271" y="-7.5" font-family="Helvetica,sans-Serif" font-size="10.00">component.cpp</text>
</a>
</g>
</g>
<!-- Node7&#45;&gt;Node8 -->
<g id="edge7" class="edge">
<title>Node7&#45;&gt;Node8</title>
<path fill="none" stroke="midnightblue" d="M268.4,-46.1C269.06,-37.14 269.83,-26.86 270.35,-19.75"/>
<polygon fill="midnightblue" stroke="midnightblue" points="264.91,-45.85 267.66,-56.08 271.89,-46.37 264.91,-45.85"/>
</g>
<!-- Node9 -->
<g id="node9" class="node">
<title>Node9</title>
<g id="a_node9"><a xlink:href="scene_8cpp.html" target="_top" xlink:title=" ">
<polygon fill="white" stroke="black" points="149,-0.5 149,-19.5 211,-19.5 211,-0.5 149,-0.5"/>
<text text-anchor="middle" x="180" y="-7.5" font-family="Helvetica,sans-Serif" font-size="10.00">scene.cpp</text>
</a>
</g>
</g>
<!-- Node7&#45;&gt;Node9 -->
<g id="edge10" class="edge">
<title>Node7&#45;&gt;Node9</title>
<path fill="none" stroke="midnightblue" d="M244.28,-50.9C228.33,-41 207.5,-28.07 193.94,-19.65"/>
<polygon fill="midnightblue" stroke="midnightblue" points="242.68,-54.02 253.02,-56.32 246.37,-48.08 242.68,-54.02"/>
</g>
</g>
</svg>
