<?xml version="1.0" encoding="UTF-8" standalone="no"?>
<!DOCTYPE svg PUBLIC "-//W3C//DTD SVG 1.1//EN"
 "http://www.w3.org/Graphics/SVG/1.1/DTD/svg11.dtd">
<!-- Generated by graphviz version 2.50.0 (20211204.2007)
 -->
<!-- Title: button.h Pages: 1 -->
<svg width="392pt" height="196pt"
 viewBox="0.00 0.00 392.00 196.00" xmlns="http://www.w3.org/2000/svg" xmlns:xlink="http://www.w3.org/1999/xlink">
<g id="graph0" class="graph" transform="scale(1 1) rotate(0) translate(4 192)">
<title>button.h</title>
<polygon fill="white" stroke="transparent" points="-4,4 -4,-192 388,-192 388,4 -4,4"/>
<!-- Node1 -->
<g id="node1" class="node">
<title>Node1</title>
<g id="a_node1"><a xlink:title=" ">
<polygon fill="#bfbfbf" stroke="black" points="136.5,-168.5 136.5,-187.5 188.5,-187.5 188.5,-168.5 136.5,-168.5"/>
<text text-anchor="middle" x="162.5" y="-175.5" font-family="Helvetica,sans-Serif" font-size="10.00">button.h</text>
</a>
</g>
</g>
<!-- Node2 -->
<g id="node2" class="node">
<title>Node2</title>
<g id="a_node2"><a xlink:href="button_8cpp.html" target="_top" xlink:title=" ">
<polygon fill="white" stroke="black" points="10.5,-112.5 10.5,-131.5 72.5,-131.5 72.5,-112.5 10.5,-112.5"/>
<text text-anchor="middle" x="41.5" y="-119.5" font-family="Helvetica,sans-Serif" font-size="10.00">button.cpp</text>
</a>
</g>
</g>
<!-- Node1&#45;&gt;Node2 -->
<g id="edge1" class="edge">
<title>Node1&#45;&gt;Node2</title>
<path fill="none" stroke="midnightblue" d="M134.19,-164.37C111.53,-154.26 80.37,-140.35 60.58,-131.52"/>
<polygon fill="midnightblue" stroke="midnightblue" points="132.77,-167.56 143.33,-168.44 135.62,-161.17 132.77,-167.56"/>
</g>
<!-- Node3 -->
<g id="node3" class="node">
<title>Node3</title>
<g id="a_node3"><a xlink:href="context__menu_8cpp.html" target="_top" xlink:title=" ">
<polygon fill="white" stroke="black" points="0,-0.5 0,-19.5 97,-19.5 97,-0.5 0,-0.5"/>
<text text-anchor="middle" x="48.5" y="-7.5" font-family="Helvetica,sans-Serif" font-size="10.00">context_menu.cpp</text>
</a>
</g>
</g>
<!-- Node1&#45;&gt;Node3 -->
<g id="edge2" class="edge">
<title>Node1&#45;&gt;Node3</title>
<path fill="none" stroke="midnightblue" d="M145.55,-161.1C137.21,-152.84 127.3,-142.33 119.5,-132 89.86,-92.73 62.79,-40.1 52.69,-19.64"/>
<polygon fill="midnightblue" stroke="midnightblue" points="143.32,-163.82 152.94,-168.26 148.19,-158.79 143.32,-163.82"/>
</g>
<!-- Node4 -->
<g id="node4" class="node">
<title>Node4</title>
<g id="a_node4"><a xlink:href="controls_8h.html" target="_top" xlink:title=" ">
<polygon fill="white" stroke="black" points="214,-112.5 214,-131.5 273,-131.5 273,-112.5 214,-112.5"/>
<text text-anchor="middle" x="243.5" y="-119.5" font-family="Helvetica,sans-Serif" font-size="10.00">controls.h</text>
</a>
</g>
</g>
<!-- Node1&#45;&gt;Node4 -->
<g id="edge3" class="edge">
<title>Node1&#45;&gt;Node4</title>
<path fill="none" stroke="midnightblue" d="M184.07,-162.62C198.86,-152.76 218.01,-139.99 230.52,-131.65"/>
<polygon fill="midnightblue" stroke="midnightblue" points="181.89,-159.86 175.51,-168.32 185.78,-165.69 181.89,-159.86"/>
</g>
<!-- Node5 -->
<g id="node5" class="node">
<title>Node5</title>
<g id="a_node5"><a xlink:href="default__skins_8cpp.html" target="_top" xlink:title=" ">
<polygon fill="white" stroke="black" points="291,-112.5 291,-131.5 384,-131.5 384,-112.5 291,-112.5"/>
<text text-anchor="middle" x="337.5" y="-119.5" font-family="Helvetica,sans-Serif" font-size="10.00">default_skins.cpp</text>
</a>
</g>
</g>
<!-- Node1&#45;&gt;Node5 -->
<g id="edge4" class="edge">
<title>Node1&#45;&gt;Node5</title>
<path fill="none" stroke="midnightblue" d="M198.41,-165.92C231.37,-155.75 279.54,-140.88 309.67,-131.59"/>
<polygon fill="midnightblue" stroke="midnightblue" points="197.22,-162.62 188.7,-168.92 199.29,-169.31 197.22,-162.62"/>
</g>
<!-- Node6 -->
<g id="node6" class="node">
<title>Node6</title>
<g id="a_node6"><a xlink:href="menu__bar_8h.html" target="_top" xlink:title=" ">
<polygon fill="white" stroke="black" points="129,-112.5 129,-131.5 196,-131.5 196,-112.5 129,-112.5"/>
<text text-anchor="middle" x="162.5" y="-119.5" font-family="Helvetica,sans-Serif" font-size="10.00">menu_bar.h</text>
</a>
</g>
</g>
<!-- Node1&#45;&gt;Node6 -->
<g id="edge5" class="edge">
<title>Node1&#45;&gt;Node6</title>
<path fill="none" stroke="midnightblue" d="M162.5,-157.8C162.5,-148.91 162.5,-138.78 162.5,-131.75"/>
<polygon fill="midnightblue" stroke="midnightblue" points="159,-158.08 162.5,-168.08 166,-158.08 159,-158.08"/>
</g>
<!-- Node7 -->
<g id="node7" class="node">
<title>Node7</title>
<g id="a_node7"><a xlink:href="containers_8h.html" target="_top" xlink:title=" ">
<polygon fill="white" stroke="black" points="202.5,-56.5 202.5,-75.5 272.5,-75.5 272.5,-56.5 202.5,-56.5"/>
<text text-anchor="middle" x="237.5" y="-63.5" font-family="Helvetica,sans-Serif" font-size="10.00">containers.h</text>
</a>
</g>
</g>
<!-- Node6&#45;&gt;Node7 -->
<g id="edge6" class="edge">
<title>Node6&#45;&gt;Node7</title>
<path fill="none" stroke="midnightblue" d="M182.81,-106.38C196.36,-96.62 213.74,-84.11 225.23,-75.83"/>
<polygon fill="midnightblue" stroke="midnightblue" points="180.62,-103.64 174.55,-112.32 184.71,-109.32 180.62,-103.64"/>
</g>
<!-- Node8 -->
<g id="node8" class="node">
<title>Node8</title>
<g id="a_node8"><a xlink:href="menu__bar_8cpp.html" target="_top" xlink:title=" ">
<polygon fill="white" stroke="black" points="297,-0.5 297,-19.5 374,-19.5 374,-0.5 297,-0.5"/>
<text text-anchor="middle" x="335.5" y="-7.5" font-family="Helvetica,sans-Serif" font-size="10.00">menu_bar.cpp</text>
</a>
</g>
</g>
<!-- Node6&#45;&gt;Node8 -->
<g id="edge7" class="edge">
<title>Node6&#45;&gt;Node8</title>
<path fill="none" stroke="midnightblue" d="M205.87,-110.47C229.66,-103.31 258.84,-92.16 281.5,-76 303.48,-60.33 321.76,-33.6 330.3,-19.81"/>
<polygon fill="midnightblue" stroke="midnightblue" points="204.68,-107.17 196.03,-113.3 206.61,-113.9 204.68,-107.17"/>
</g>
<!-- Node9 -->
<g id="node9" class="node">
<title>Node9</title>
<g id="a_node9"><a xlink:href="scene_8h.html" target="_top" xlink:title=" ">
<polygon fill="white" stroke="black" points="133,-56.5 133,-75.5 184,-75.5 184,-56.5 133,-56.5"/>
<text text-anchor="middle" x="158.5" y="-63.5" font-family="Helvetica,sans-Serif" font-size="10.00">scene.h</text>
</a>
</g>
</g>
<!-- Node6&#45;&gt;Node9 -->
<g id="edge8" class="edge">
<title>Node6&#45;&gt;Node9</title>
<path fill="none" stroke="midnightblue" d="M161.1,-102.1C160.44,-93.14 159.67,-82.86 159.15,-75.75"/>
<polygon fill="midnightblue" stroke="midnightblue" points="157.61,-102.37 161.84,-112.08 164.59,-101.85 157.61,-102.37"/>
</g>
<!-- Node9&#45;&gt;Node3 -->
<g id="edge10" class="edge">
<title>Node9&#45;&gt;Node3</title>
<path fill="none" stroke="midnightblue" d="M131.74,-51.86C111.34,-41.85 83.83,-28.35 66.13,-19.65"/>
<polygon fill="midnightblue" stroke="midnightblue" points="130.31,-55.06 140.83,-56.32 133.39,-48.78 130.31,-55.06"/>
</g>
<!-- Node9&#45;&gt;Node8 -->
<g id="edge11" class="edge">
<title>Node9&#45;&gt;Node8</title>
<path fill="none" stroke="midnightblue" d="M194.05,-54.16C227.42,-43.97 276.68,-28.95 307.39,-19.58"/>
<polygon fill="midnightblue" stroke="midnightblue" points="192.78,-50.88 184.24,-57.15 194.82,-57.58 192.78,-50.88"/>
</g>
<!-- Node10 -->
<g id="node10" class="node">
<title>Node10</title>
<g id="a_node10"><a xlink:href="component_8cpp.html" target="_top" xlink:title=" ">
<polygon fill="white" stroke="black" points="196,-0.5 196,-19.5 279,-19.5 279,-0.5 196,-0.5"/>
<text text-anchor="middle" x="237.5" y="-7.5" font-family="Helvetica,sans-Serif" font-size="10.00">component.cpp</text>
</a>
</g>
</g>
<!-- Node9&#45;&gt;Node10 -->
<g id="edge9" class="edge">
<title>Node9&#45;&gt;Node10</title>
<path fill="none" stroke="midnightblue" d="M179.53,-50.62C193.97,-40.76 212.64,-27.99 224.84,-19.65"/>
<polygon fill="midnightblue" stroke="midnightblue" points="177.47,-47.79 171.19,-56.32 181.42,-53.57 177.47,-47.79"/>
</g>
<!-- Node11 -->
<g id="node11" class="node">
<title>Node11</title>
<g id="a_node11"><a xlink:href="scene_8cpp.html" target="_top" xlink:title=" ">
<polygon fill="white" stroke="black" points="115.5,-0.5 115.5,-19.5 177.5,-19.5 177.5,-0.5 115.5,-0.5"/>
<text text-anchor="middle" x="146.5" y="-7.5" font-family="Helvetica,sans-Serif" font-size="10.00">scene.cpp</text>
</a>
</g>
</g>
<!-- Node9&#45;&gt;Node11 -->
<g id="edge12" class="edge">
<title>Node9&#45;&gt;Node11</title>
<path fill="none" stroke="midnightblue" d="M154.3,-46.1C152.31,-37.14 150.02,-26.86 148.44,-19.75"/>
<polygon fill="midnightblue" stroke="midnightblue" points="150.93,-47.08 156.52,-56.08 157.77,-45.56 150.93,-47.08"/>
</g>
</g>
</svg>
