<?xml version="1.0" encoding="UTF-8" standalone="no"?>
<!DOCTYPE svg PUBLIC "-//W3C//DTD SVG 1.1//EN"
 "http://www.w3.org/Graphics/SVG/1.1/DTD/svg11.dtd">
<!-- Generated by graphviz version 2.50.0 (20211204.2007)
 -->
<!-- Title: Sgl::MenuBar Pages: 1 -->
<!--zoomable 1116 -->
<svg id="main" version="1.1" xmlns="http://www.w3.org/2000/svg" xmlns:xlink="http://www.w3.org/1999/xlink" xml:space="preserve" onload="init(evt)">
<style type="text/css"><![CDATA[
.edge:hover path { stroke: red; }
.edge:hover polygon { stroke: red; fill: red; }
]]></style>
<script type="text/javascript"><![CDATA[
var edges = document.getElementsByTagName('g');
if (edges && edges.length) {
  for (var i=0;i<edges.length;i++) {
    if (edges[i].id.substr(0,4)=='edge') {
      edges[i].setAttribute('class','edge');
    }
  }
}
]]></script>
        <defs>
                <circle id="rim" cx="0" cy="0" r="7"/>
                <circle id="rim2" cx="0" cy="0" r="3.5"/>
                <g id="zoomPlus">
                        <use xlink:href="#rim" fill="#404040">
                                <set attributeName="fill" to="#808080" begin="zoomplus.mouseover" end="zoomplus.mouseout"/>
                        </use>
                        <path d="M-4,0h8M0,-4v8" fill="none" stroke="white" stroke-width="1.5" pointer-events="none"/>
                </g>
                <g id="zoomMin">
                        <use xlink:href="#rim" fill="#404040">
                                <set attributeName="fill" to="#808080" begin="zoomminus.mouseover" end="zoomminus.mouseout"/>
                        </use>
                        <path d="M-4,0h8" fill="none" stroke="white" stroke-width="1.5" pointer-events="none"/>
                </g>
                <g id="dirArrow">
                        <path fill="none" stroke="white" stroke-width="1.5" d="M0,-3.0v7 M-2.5,-0.5L0,-3.0L2.5,-0.5"/>
                </g>
               <g id="resetDef">
                       <use xlink:href="#rim2" fill="#404040">
                               <set attributeName="fill" to="#808080" begin="reset.mouseover" end="reset.mouseout"/>
                       </use>
               </g>
        </defs>

<script type="text/javascript">
var viewWidth = 1507;
var viewHeight = 1116;
var sectionId = 'dynsection-1';
</script>
<script xlink:href="svgpan.js"/>
<svg id="graph" class="graph">
<g id="viewport">
<title>Sgl::MenuBar</title>
<polygon fill="white" stroke="transparent" points="-4,4 -4,-1112 1503,-1112 1503,4 -4,4"/>
<!-- Node1 -->
<g id="node1" class="node">
<title>Node1</title>
<g id="a_node1"><a xlink:title=" ">
<polygon fill="#bfbfbf" stroke="black" points="1157.5,-0.5 1157.5,-112.5 1236.5,-112.5 1236.5,-0.5 1157.5,-0.5"/>
<text text-anchor="middle" x="1197" y="-100.5" font-family="Helvetica,sans-Serif" font-size="10.00">Sgl::MenuBar</text>
<polyline fill="none" stroke="black" points="1157.5,-93.5 1236.5,-93.5 "/>
<text text-anchor="middle" x="1197" y="-81.5" font-family="Helvetica,sans-Serif" font-size="10.00"> </text>
<polyline fill="none" stroke="black" points="1157.5,-74.5 1236.5,-74.5 "/>
<text text-anchor="start" x="1165.5" y="-62.5" font-family="Helvetica,sans-Serif" font-size="10.00">+ MenuBar()</text>
<text text-anchor="start" x="1165.5" y="-51.5" font-family="Helvetica,sans-Serif" font-size="10.00">+ ~MenuBar()</text>
<text text-anchor="start" x="1165.5" y="-40.5" font-family="Helvetica,sans-Serif" font-size="10.00">+ addMenu()</text>
<text text-anchor="start" x="1165.5" y="-29.5" font-family="Helvetica,sans-Serif" font-size="10.00">+ getMenu()</text>
<text text-anchor="start" x="1165.5" y="-18.5" font-family="Helvetica,sans-Serif" font-size="10.00">+ showMenu()</text>
<text text-anchor="start" x="1165.5" y="-7.5" font-family="Helvetica,sans-Serif" font-size="10.00">+ hideMenu()</text>
</a>
</g>
</g>
<!-- Node2 -->
<g id="node2" class="node">
<title>Node2</title>
<g id="a_node2"><a xlink:href="class_sgl_1_1_h_box.html" target="_top" xlink:title=" ">
<polygon fill="white" stroke="black" points="1251,-150.5 1251,-218.5 1313,-218.5 1313,-150.5 1251,-150.5"/>
<text text-anchor="middle" x="1282" y="-206.5" font-family="Helvetica,sans-Serif" font-size="10.00">Sgl::HBox</text>
<polyline fill="none" stroke="black" points="1251,-199.5 1313,-199.5 "/>
<text text-anchor="middle" x="1282" y="-187.5" font-family="Helvetica,sans-Serif" font-size="10.00"> </text>
<polyline fill="none" stroke="black" points="1251,-180.5 1313,-180.5 "/>
<text text-anchor="start" x="1259" y="-168.5" font-family="Helvetica,sans-Serif" font-size="10.00">+ HBox()</text>
<text text-anchor="start" x="1259" y="-157.5" font-family="Helvetica,sans-Serif" font-size="10.00">+ ~HBox()</text>
</a>
</g>
</g>
<!-- Node2&#45;&gt;Node1 -->
<g id="edge1" class="edge">
<title>Node2&#45;&gt;Node1</title>
<path fill="none" stroke="midnightblue" d="M1254.03,-142.04C1247.72,-132.68 1240.93,-122.61 1234.3,-112.79"/>
<polygon fill="none" stroke="midnightblue" points="1251.17,-144.06 1259.67,-150.39 1256.98,-140.15 1251.17,-144.06"/>
</g>
<!-- Node3 -->
<g id="node3" class="node">
<title>Node3</title>
<g id="a_node3"><a xlink:href="class_sgl_1_1_box_container.html" target="_top" xlink:title="Basic list&#45;like container which lays out children in a line one after another.">
<polygon fill="white" stroke="black" points="1260.5,-256.5 1260.5,-368.5 1357.5,-368.5 1357.5,-256.5 1260.5,-256.5"/>
<text text-anchor="middle" x="1309" y="-356.5" font-family="Helvetica,sans-Serif" font-size="10.00">Sgl::BoxContainer</text>
<polyline fill="none" stroke="black" points="1260.5,-349.5 1357.5,-349.5 "/>
<text text-anchor="middle" x="1309" y="-337.5" font-family="Helvetica,sans-Serif" font-size="10.00"> </text>
<polyline fill="none" stroke="black" points="1260.5,-330.5 1357.5,-330.5 "/>
<text text-anchor="start" x="1268.5" y="-318.5" font-family="Helvetica,sans-Serif" font-size="10.00">+ BoxContainer()</text>
<text text-anchor="start" x="1268.5" y="-307.5" font-family="Helvetica,sans-Serif" font-size="10.00">+ BoxContainer()</text>
<text text-anchor="start" x="1268.5" y="-296.5" font-family="Helvetica,sans-Serif" font-size="10.00">+ ~BoxContainer()</text>
<text text-anchor="start" x="1268.5" y="-285.5" font-family="Helvetica,sans-Serif" font-size="10.00">+ getDirection()</text>
<text text-anchor="start" x="1268.5" y="-274.5" font-family="Helvetica,sans-Serif" font-size="10.00">+ setDirection()</text>
<text text-anchor="start" x="1268.5" y="-263.5" font-family="Helvetica,sans-Serif" font-size="10.00">and 8 more...</text>
</a>
</g>
</g>
<!-- Node3&#45;&gt;Node2 -->
<g id="edge2" class="edge">
<title>Node3&#45;&gt;Node2</title>
<path fill="none" stroke="midnightblue" d="M1295.02,-246.26C1292.97,-236.68 1290.93,-227.17 1289.1,-218.62"/>
<polygon fill="none" stroke="midnightblue" points="1291.64,-247.19 1297.16,-256.23 1298.48,-245.72 1291.64,-247.19"/>
</g>
<!-- Node4 -->
<g id="node4" class="node">
<title>Node4</title>
<g id="a_node4"><a xlink:href="class_sgl_1_1_container.html" target="_top" xlink:title=" ">
<polygon fill="white" stroke="black" points="1258,-438.5 1258,-539.5 1366,-539.5 1366,-438.5 1258,-438.5"/>
<text text-anchor="middle" x="1312" y="-527.5" font-family="Helvetica,sans-Serif" font-size="10.00">Sgl::Container</text>
<polyline fill="none" stroke="black" points="1258,-520.5 1366,-520.5 "/>
<text text-anchor="middle" x="1312" y="-508.5" font-family="Helvetica,sans-Serif" font-size="10.00"> </text>
<polyline fill="none" stroke="black" points="1258,-501.5 1366,-501.5 "/>
<text text-anchor="start" x="1266" y="-489.5" font-family="Helvetica,sans-Serif" font-size="10.00">+ Container()</text>
<text text-anchor="start" x="1266" y="-478.5" font-family="Helvetica,sans-Serif" font-size="10.00">+ ~Container()</text>
<text text-anchor="start" x="1266" y="-467.5" font-family="Helvetica,sans-Serif" font-size="10.00">+ getHitComponent()</text>
<text text-anchor="start" x="1266" y="-456.5" font-family="Helvetica,sans-Serif" font-size="10.00">+ render()</text>
<text text-anchor="start" x="1266" y="-445.5" font-family="Helvetica,sans-Serif" font-size="10.00"># prerenderSelf()</text>
</a>
</g>
</g>
<!-- Node4&#45;&gt;Node3 -->
<g id="edge3" class="edge">
<title>Node4&#45;&gt;Node3</title>
<path fill="none" stroke="midnightblue" d="M1329.91,-428.16C1332.1,-414.66 1332.96,-400.36 1331,-387 1330.13,-381.07 1328.89,-374.95 1327.43,-368.9"/>
<polygon fill="none" stroke="midnightblue" points="1326.41,-427.83 1328.01,-438.3 1333.29,-429.12 1326.41,-427.83"/>
</g>
<!-- Node5 -->
<g id="node5" class="node">
<title>Node5</title>
<g id="a_node5"><a xlink:href="class_sgl_1_1_parent.html" target="_top" xlink:title=" ">
<polygon fill="white" stroke="black" points="624,-609.5 624,-787.5 770,-787.5 770,-609.5 624,-609.5"/>
<text text-anchor="middle" x="697" y="-775.5" font-family="Helvetica,sans-Serif" font-size="10.00">Sgl::Parent</text>
<polyline fill="none" stroke="black" points="624,-768.5 770,-768.5 "/>
<text text-anchor="middle" x="697" y="-756.5" font-family="Helvetica,sans-Serif" font-size="10.00"> </text>
<polyline fill="none" stroke="black" points="624,-749.5 770,-749.5 "/>
<text text-anchor="start" x="632" y="-737.5" font-family="Helvetica,sans-Serif" font-size="10.00">+ Parent()</text>
<text text-anchor="start" x="632" y="-726.5" font-family="Helvetica,sans-Serif" font-size="10.00">+ ~Parent()</text>
<text text-anchor="start" x="632" y="-715.5" font-family="Helvetica,sans-Serif" font-size="10.00">+ getHitComponent()</text>
<text text-anchor="start" x="632" y="-704.5" font-family="Helvetica,sans-Serif" font-size="10.00">+ render()</text>
<text text-anchor="start" x="632" y="-693.5" font-family="Helvetica,sans-Serif" font-size="10.00">+ layout()</text>
<text text-anchor="start" x="632" y="-682.5" font-family="Helvetica,sans-Serif" font-size="10.00">and 38 more...</text>
<text text-anchor="start" x="632" y="-671.5" font-family="Helvetica,sans-Serif" font-size="10.00"># setSceneInSceneTree()</text>
<text text-anchor="start" x="632" y="-660.5" font-family="Helvetica,sans-Serif" font-size="10.00"># layoutChildren()</text>
<text text-anchor="start" x="632" y="-649.5" font-family="Helvetica,sans-Serif" font-size="10.00"># prerenderSelf()</text>
<text text-anchor="start" x="632" y="-638.5" font-family="Helvetica,sans-Serif" font-size="10.00"># updateSnapshotSize()</text>
<text text-anchor="start" x="632" y="-627.5" font-family="Helvetica,sans-Serif" font-size="10.00"># computeCustomPrefWidth()</text>
<text text-anchor="start" x="632" y="-616.5" font-family="Helvetica,sans-Serif" font-size="10.00">and 5 more...</text>
</a>
</g>
</g>
<!-- Node5&#45;&gt;Node4 -->
<g id="edge4" class="edge">
<title>Node5&#45;&gt;Node4</title>
<path fill="none" stroke="midnightblue" d="M756.11,-601.94C764.3,-593.57 773.27,-586.01 783,-580 862.04,-531.13 1139.15,-503.77 1257.62,-494.08"/>
<polygon fill="none" stroke="midnightblue" points="753.35,-599.77 749.12,-609.49 758.48,-604.53 753.35,-599.77"/>
</g>
<!-- Node6 -->
<g id="node6" class="node">
<title>Node6</title>
<g id="a_node6"><a xlink:href="class_sgl_1_1_component.html" target="_top" xlink:title=" ">
<polygon fill="white" stroke="black" points="296,-416.5 296,-561.5 424,-561.5 424,-416.5 296,-416.5"/>
<text text-anchor="middle" x="360" y="-549.5" font-family="Helvetica,sans-Serif" font-size="10.00">Sgl::Component</text>
<polyline fill="none" stroke="black" points="296,-542.5 424,-542.5 "/>
<text text-anchor="middle" x="360" y="-530.5" font-family="Helvetica,sans-Serif" font-size="10.00"> </text>
<polyline fill="none" stroke="black" points="296,-523.5 424,-523.5 "/>
<text text-anchor="start" x="304" y="-511.5" font-family="Helvetica,sans-Serif" font-size="10.00">+ Component()</text>
<text text-anchor="start" x="304" y="-500.5" font-family="Helvetica,sans-Serif" font-size="10.00">+ ~Component()</text>
<text text-anchor="start" x="304" y="-489.5" font-family="Helvetica,sans-Serif" font-size="10.00">+ getHitComponent()</text>
<text text-anchor="start" x="304" y="-478.5" font-family="Helvetica,sans-Serif" font-size="10.00">+ render()</text>
<text text-anchor="start" x="304" y="-467.5" font-family="Helvetica,sans-Serif" font-size="10.00">+ layout()</text>
<text text-anchor="start" x="304" y="-456.5" font-family="Helvetica,sans-Serif" font-size="10.00">and 37 more...</text>
<text text-anchor="start" x="304" y="-445.5" font-family="Helvetica,sans-Serif" font-size="10.00"># updateShadow()</text>
<text text-anchor="start" x="304" y="-434.5" font-family="Helvetica,sans-Serif" font-size="10.00"># renderShadow()</text>
<text text-anchor="start" x="304" y="-423.5" font-family="Helvetica,sans-Serif" font-size="10.00"># setSceneInSceneTree()</text>
</a>
</g>
</g>
<!-- Node5&#45;&gt;Node6 -->
<g id="edge16" class="edge">
<title>Node5&#45;&gt;Node6</title>
<path fill="none" stroke="#404040" d="M623.84,-641.15C608.62,-630.11 592.49,-618.9 577,-609 531.2,-579.74 477.68,-550.34 435.26,-528.09"/>
<polygon fill="none" stroke="#404040" points="435.08,-527.99 427.91,-528.76 424.44,-522.44 431.61,-521.67 435.08,-527.99"/>
<text text-anchor="middle" x="568.5" y="-583" font-family="Helvetica,sans-Serif" font-size="10.00"> #m_Parent</text>
</g>
<!-- Node6&#45;&gt;Node5 -->
<g id="edge5" class="edge">
<title>Node6&#45;&gt;Node5</title>
<path fill="none" stroke="midnightblue" d="M434.54,-490.75C505.76,-495.64 611.03,-514.53 672,-580 679.82,-588.39 685.43,-598.61 689.42,-609.47"/>
<polygon fill="none" stroke="midnightblue" points="434.48,-487.24 424.28,-490.12 434.05,-494.22 434.48,-487.24"/>
</g>
<!-- Node7 -->
<g id="node7" class="node">
<title>Node7</title>
<g id="a_node7"><a xlink:title=" ">
<polygon fill="white" stroke="#bfbfbf" points="74,-879.5 74,-936.5 166,-936.5 166,-879.5 74,-879.5"/>
<text text-anchor="middle" x="120" y="-924.5" font-family="Helvetica,sans-Serif" font-size="10.00">Sml::EventTarget</text>
<polyline fill="none" stroke="#bfbfbf" points="74,-917.5 166,-917.5 "/>
<text text-anchor="middle" x="120" y="-905.5" font-family="Helvetica,sans-Serif" font-size="10.00"> </text>
<polyline fill="none" stroke="#bfbfbf" points="74,-898.5 166,-898.5 "/>
<text text-anchor="middle" x="120" y="-886.5" font-family="Helvetica,sans-Serif" font-size="10.00"> </text>
</a>
</g>
</g>
<!-- Node7&#45;&gt;Node6 -->
<g id="edge6" class="edge">
<title>Node7&#45;&gt;Node6</title>
<path fill="none" stroke="midnightblue" d="M137.83,-870.28C148.86,-846.96 162.96,-816.01 174,-788 209.75,-697.25 187.5,-659.51 244,-580 257.8,-560.57 277,-543.33 295.81,-529.27"/>
<polygon fill="none" stroke="midnightblue" points="134.6,-868.92 133.46,-879.45 140.92,-871.93 134.6,-868.92"/>
</g>
<!-- Node15 -->
<g id="node15" class="node">
<title>Node15</title>
<g id="a_node15"><a xlink:href="class_sgl_1_1_scene.html" target="_top" xlink:title=" ">
<polygon fill="white" stroke="black" points="0,-642.5 0,-754.5 80,-754.5 80,-642.5 0,-642.5"/>
<text text-anchor="middle" x="40" y="-742.5" font-family="Helvetica,sans-Serif" font-size="10.00">Sgl::Scene</text>
<polyline fill="none" stroke="black" points="0,-735.5 80,-735.5 "/>
<text text-anchor="middle" x="40" y="-723.5" font-family="Helvetica,sans-Serif" font-size="10.00"> </text>
<polyline fill="none" stroke="black" points="0,-716.5 80,-716.5 "/>
<text text-anchor="start" x="8" y="-704.5" font-family="Helvetica,sans-Serif" font-size="10.00">+ Scene()</text>
<text text-anchor="start" x="8" y="-693.5" font-family="Helvetica,sans-Serif" font-size="10.00">+ Scene()</text>
<text text-anchor="start" x="8" y="-682.5" font-family="Helvetica,sans-Serif" font-size="10.00">+ ~Scene()</text>
<text text-anchor="start" x="8" y="-671.5" font-family="Helvetica,sans-Serif" font-size="10.00">+ update()</text>
<text text-anchor="start" x="8" y="-660.5" font-family="Helvetica,sans-Serif" font-size="10.00">+ render()</text>
<text text-anchor="start" x="8" y="-649.5" font-family="Helvetica,sans-Serif" font-size="10.00">and 17 more...</text>
</a>
</g>
</g>
<!-- Node7&#45;&gt;Node15 -->
<g id="edge15" class="edge">
<title>Node7&#45;&gt;Node15</title>
<path fill="none" stroke="midnightblue" d="M105.74,-870.02C93.41,-838.03 75.4,-791.33 61.35,-754.88"/>
<polygon fill="none" stroke="midnightblue" points="102.51,-871.37 109.38,-879.45 109.04,-868.86 102.51,-871.37"/>
</g>
<!-- Node8 -->
<g id="node8" class="node">
<title>Node8</title>
<g id="a_node8"><a xlink:title=" ">
<polygon fill="white" stroke="#bfbfbf" points="541,-1050.5 541,-1107.5 587,-1107.5 587,-1050.5 541,-1050.5"/>
<text text-anchor="middle" x="564" y="-1095.5" font-family="Helvetica,sans-Serif" font-size="10.00">int32_t</text>
<polyline fill="none" stroke="#bfbfbf" points="541,-1088.5 587,-1088.5 "/>
<text text-anchor="middle" x="564" y="-1076.5" font-family="Helvetica,sans-Serif" font-size="10.00"> </text>
<polyline fill="none" stroke="#bfbfbf" points="541,-1069.5 587,-1069.5 "/>
<text text-anchor="middle" x="564" y="-1057.5" font-family="Helvetica,sans-Serif" font-size="10.00"> </text>
</a>
</g>
</g>
<!-- Node8&#45;&gt;Node5 -->
<g id="edge26" class="edge">
<title>Node8&#45;&gt;Node5</title>
<path fill="none" stroke="#404040" d="M587.18,-1062.87C613.28,-1044.39 654.59,-1010.56 674,-970 699.11,-917.54 705.36,-852.81 705.09,-799.83"/>
<polygon fill="none" stroke="#404040" points="705.09,-799.67 701,-793.73 704.92,-787.67 709,-793.61 705.09,-799.67"/>
<text text-anchor="middle" x="739" y="-933" font-family="Helvetica,sans-Serif" font-size="10.00"> #m_MaxHeight</text>
<text text-anchor="middle" x="739" y="-922" font-family="Helvetica,sans-Serif" font-size="10.00">#m_MaxWidth</text>
<text text-anchor="middle" x="739" y="-911" font-family="Helvetica,sans-Serif" font-size="10.00">#m_MinHeight</text>
<text text-anchor="middle" x="739" y="-900" font-family="Helvetica,sans-Serif" font-size="10.00">#m_MinWidth</text>
<text text-anchor="middle" x="739" y="-889" font-family="Helvetica,sans-Serif" font-size="10.00">#m_PrefHeight</text>
<text text-anchor="middle" x="739" y="-878" font-family="Helvetica,sans-Serif" font-size="10.00">#m_PrefWidth</text>
</g>
<!-- Node8&#45;&gt;Node6 -->
<g id="edge7" class="edge">
<title>Node8&#45;&gt;Node6</title>
<path fill="none" stroke="#404040" d="M540.87,-1068.83C502.88,-1052.95 426.26,-1017.43 374,-970 316.84,-918.12 297.31,-901.59 274,-828 246.76,-742.02 280.34,-641.66 313.18,-572.77"/>
<polygon fill="none" stroke="#404040" points="313.39,-572.35 312.42,-565.2 318.65,-561.56 319.61,-568.71 313.39,-572.35"/>
<text text-anchor="middle" x="333" y="-820" font-family="Helvetica,sans-Serif" font-size="10.00"> +UNLIMITED_SIZE</text>
<text text-anchor="middle" x="333" y="-809" font-family="Helvetica,sans-Serif" font-size="10.00">+USE_COMPUTED_SIZE</text>
</g>
<!-- Node21 -->
<g id="node21" class="node">
<title>Node21</title>
<g id="a_node21"><a xlink:href="struct_sgl_1_1_insets.html" target="_top" xlink:title=" ">
<polygon fill="white" stroke="black" points="524.5,-852 524.5,-964 603.5,-964 603.5,-852 524.5,-852"/>
<text text-anchor="middle" x="564" y="-952" font-family="Helvetica,sans-Serif" font-size="10.00">Sgl::Insets</text>
<polyline fill="none" stroke="black" points="524.5,-945 603.5,-945 "/>
<text text-anchor="middle" x="564" y="-933" font-family="Helvetica,sans-Serif" font-size="10.00"> </text>
<polyline fill="none" stroke="black" points="524.5,-926 603.5,-926 "/>
<text text-anchor="start" x="532.5" y="-914" font-family="Helvetica,sans-Serif" font-size="10.00">+ Insets()</text>
<text text-anchor="start" x="532.5" y="-903" font-family="Helvetica,sans-Serif" font-size="10.00">+ Insets()</text>
<text text-anchor="start" x="532.5" y="-892" font-family="Helvetica,sans-Serif" font-size="10.00">+ Insets()</text>
<text text-anchor="start" x="532.5" y="-881" font-family="Helvetica,sans-Serif" font-size="10.00">+ Insets()</text>
<text text-anchor="start" x="532.5" y="-870" font-family="Helvetica,sans-Serif" font-size="10.00">+ operator+=()</text>
<text text-anchor="start" x="532.5" y="-859" font-family="Helvetica,sans-Serif" font-size="10.00">+ operator&#45;=()</text>
</a>
</g>
</g>
<!-- Node8&#45;&gt;Node21 -->
<g id="edge25" class="edge">
<title>Node8&#45;&gt;Node21</title>
<path fill="none" stroke="#404040" d="M564,-1050.47C564,-1030.37 564,-1002.21 564,-976.3"/>
<polygon fill="none" stroke="#404040" points="564,-976.2 560,-970.2 564,-964.2 568,-970.2 564,-976.2"/>
<text text-anchor="middle" x="584" y="-1024" font-family="Helvetica,sans-Serif" font-size="10.00"> +bottom</text>
<text text-anchor="middle" x="584" y="-1013" font-family="Helvetica,sans-Serif" font-size="10.00">+left</text>
<text text-anchor="middle" x="584" y="-1002" font-family="Helvetica,sans-Serif" font-size="10.00">+right</text>
<text text-anchor="middle" x="584" y="-991" font-family="Helvetica,sans-Serif" font-size="10.00">+top</text>
</g>
<!-- Node9 -->
<g id="node9" class="node">
<title>Node9</title>
<g id="a_node9"><a xlink:title=" ">
<polygon fill="white" stroke="#bfbfbf" points="311.5,-670 311.5,-727 352.5,-727 352.5,-670 311.5,-670"/>
<text text-anchor="middle" x="332" y="-715" font-family="Helvetica,sans-Serif" font-size="10.00">friend</text>
<polyline fill="none" stroke="#bfbfbf" points="311.5,-708 352.5,-708 "/>
<text text-anchor="middle" x="332" y="-696" font-family="Helvetica,sans-Serif" font-size="10.00"> </text>
<polyline fill="none" stroke="#bfbfbf" points="311.5,-689 352.5,-689 "/>
<text text-anchor="middle" x="332" y="-677" font-family="Helvetica,sans-Serif" font-size="10.00"> </text>
</a>
</g>
</g>
<!-- Node9&#45;&gt;Node6 -->
<g id="edge8" class="edge">
<title>Node9&#45;&gt;Node6</title>
<path fill="none" stroke="#404040" d="M331.95,-669.82C332.25,-645.91 333.53,-610.52 338,-580 338.3,-577.98 338.62,-575.93 338.96,-573.87"/>
<polygon fill="none" stroke="#404040" points="338.98,-573.78 336.12,-567.16 341.14,-561.97 343.99,-568.6 338.98,-573.78"/>
<text text-anchor="middle" x="356.5" y="-583" font-family="Helvetica,sans-Serif" font-size="10.00"> +Scene</text>
</g>
<!-- Node10 -->
<g id="node10" class="node">
<title>Node10</title>
<g id="a_node10"><a xlink:title=" ">
<polygon fill="white" stroke="#bfbfbf" points="383.5,-879.5 383.5,-936.5 418.5,-936.5 418.5,-879.5 383.5,-879.5"/>
<text text-anchor="middle" x="401" y="-924.5" font-family="Helvetica,sans-Serif" font-size="10.00">bool</text>
<polyline fill="none" stroke="#bfbfbf" points="383.5,-917.5 418.5,-917.5 "/>
<text text-anchor="middle" x="401" y="-905.5" font-family="Helvetica,sans-Serif" font-size="10.00"> </text>
<polyline fill="none" stroke="#bfbfbf" points="383.5,-898.5 418.5,-898.5 "/>
<text text-anchor="middle" x="401" y="-886.5" font-family="Helvetica,sans-Serif" font-size="10.00"> </text>
</a>
</g>
</g>
<!-- Node10&#45;&gt;Node5 -->
<g id="edge20" class="edge">
<title>Node10&#45;&gt;Node5</title>
<path fill="none" stroke="#404040" d="M400.15,-879.05C401.08,-855.91 406.43,-824.01 427,-806 452.26,-783.88 545.79,-800.37 577,-788 589.47,-783.06 601.81,-776.49 613.56,-769.15"/>
<polygon fill="none" stroke="#404040" points="613.67,-769.08 616.51,-762.46 623.72,-762.54 620.88,-769.16 613.67,-769.08"/>
<text text-anchor="middle" x="475.5" y="-814.5" font-family="Helvetica,sans-Serif" font-size="10.00"> #m_NeedLayoutPass</text>
</g>
<!-- Node10&#45;&gt;Node6 -->
<g id="edge9" class="edge">
<title>Node10&#45;&gt;Node6</title>
<path fill="none" stroke="#404040" d="M399.6,-879.36C396.58,-822.94 388.58,-690.51 375,-580 374.75,-577.95 374.48,-575.87 374.21,-573.77"/>
<polygon fill="none" stroke="#404040" points="374.17,-573.53 369.38,-568.14 372.51,-561.64 377.3,-567.03 374.17,-573.53"/>
<text text-anchor="middle" x="424" y="-707" font-family="Helvetica,sans-Serif" font-size="10.00"> #m_Focused</text>
<text text-anchor="middle" x="424" y="-696" font-family="Helvetica,sans-Serif" font-size="10.00">#m_Hovered</text>
<text text-anchor="middle" x="424" y="-685" font-family="Helvetica,sans-Serif" font-size="10.00">#m_Visible</text>
</g>
<!-- Node11 -->
<g id="node11" class="node">
<title>Node11</title>
<g id="a_node11"><a xlink:href="class_sgl_1_1_shadow.html" target="_top" xlink:title=" ">
<polygon fill="white" stroke="black" points="467.5,-637 467.5,-760 568.5,-760 568.5,-637 467.5,-637"/>
<text text-anchor="middle" x="518" y="-748" font-family="Helvetica,sans-Serif" font-size="10.00">Sgl::Shadow</text>
<polyline fill="none" stroke="black" points="467.5,-741 568.5,-741 "/>
<text text-anchor="middle" x="518" y="-729" font-family="Helvetica,sans-Serif" font-size="10.00"> </text>
<polyline fill="none" stroke="black" points="467.5,-722 568.5,-722 "/>
<text text-anchor="start" x="475.5" y="-710" font-family="Helvetica,sans-Serif" font-size="10.00">+ Shadow()</text>
<text text-anchor="start" x="475.5" y="-699" font-family="Helvetica,sans-Serif" font-size="10.00">+ ~Shadow()</text>
<text text-anchor="start" x="475.5" y="-688" font-family="Helvetica,sans-Serif" font-size="10.00">+ update()</text>
<text text-anchor="start" x="475.5" y="-677" font-family="Helvetica,sans-Serif" font-size="10.00">+ render()</text>
<text text-anchor="start" x="475.5" y="-666" font-family="Helvetica,sans-Serif" font-size="10.00">+ getTexture()</text>
<text text-anchor="start" x="475.5" y="-655" font-family="Helvetica,sans-Serif" font-size="10.00">+ getSpecification()</text>
<text text-anchor="start" x="475.5" y="-644" font-family="Helvetica,sans-Serif" font-size="10.00">+ setSpecification()</text>
</a>
</g>
</g>
<!-- Node11&#45;&gt;Node6 -->
<g id="edge10" class="edge">
<title>Node11&#45;&gt;Node6</title>
<path fill="none" stroke="#404040" d="M473.83,-636.86C466.91,-627.5 459.79,-617.96 453,-609 443.73,-596.76 433.83,-583.89 424.07,-571.32"/>
<polygon fill="none" stroke="#404040" points="424.02,-571.26 417.18,-568.98 416.66,-561.79 423.5,-564.07 424.02,-571.26"/>
<text text-anchor="middle" x="468" y="-583" font-family="Helvetica,sans-Serif" font-size="10.00"> #m_Shadow</text>
</g>
<!-- Node12 -->
<g id="node12" class="node">
<title>Node12</title>
<g id="a_node12"><a xlink:href="class_gui_event_dispatcher.html" target="_top" xlink:title=" ">
<polygon fill="white" stroke="black" points="902.5,-631.5 902.5,-765.5 1037.5,-765.5 1037.5,-631.5 902.5,-631.5"/>
<text text-anchor="middle" x="970" y="-753.5" font-family="Helvetica,sans-Serif" font-size="10.00">GuiEventDispatcher</text>
<polyline fill="none" stroke="black" points="902.5,-746.5 1037.5,-746.5 "/>
<text text-anchor="middle" x="970" y="-734.5" font-family="Helvetica,sans-Serif" font-size="10.00"> </text>
<polyline fill="none" stroke="black" points="902.5,-727.5 1037.5,-727.5 "/>
<text text-anchor="start" x="910.5" y="-715.5" font-family="Helvetica,sans-Serif" font-size="10.00">+ ~GuiEventDispatcher()</text>
<text text-anchor="start" x="910.5" y="-704.5" font-family="Helvetica,sans-Serif" font-size="10.00">+ attachFilter()</text>
<text text-anchor="start" x="910.5" y="-693.5" font-family="Helvetica,sans-Serif" font-size="10.00">+ detachFilter()</text>
<text text-anchor="start" x="910.5" y="-682.5" font-family="Helvetica,sans-Serif" font-size="10.00">+ attachHandler()</text>
<text text-anchor="start" x="910.5" y="-671.5" font-family="Helvetica,sans-Serif" font-size="10.00">+ detachHandler()</text>
<text text-anchor="start" x="910.5" y="-660.5" font-family="Helvetica,sans-Serif" font-size="10.00">+ dispatchEvent()</text>
<text text-anchor="start" x="910.5" y="-649.5" font-family="Helvetica,sans-Serif" font-size="10.00"># dispatchCapturingEvent()</text>
<text text-anchor="start" x="910.5" y="-638.5" font-family="Helvetica,sans-Serif" font-size="10.00"># dispatchBubblingEvent()</text>
</a>
</g>
</g>
<!-- Node12&#45;&gt;Node6 -->
<g id="edge11" class="edge">
<title>Node12&#45;&gt;Node6</title>
<path fill="none" stroke="#404040" d="M902.34,-663.76C866.19,-646.34 820.67,-625.37 779,-609 662.33,-563.15 521.06,-526.78 435.97,-506.84"/>
<polygon fill="none" stroke="#404040" points="435.78,-506.79 429.03,-509.33 424.09,-504.08 430.84,-501.54 435.78,-506.79"/>
<text text-anchor="middle" x="759" y="-583" font-family="Helvetica,sans-Serif" font-size="10.00"> #m_Dispatcher</text>
</g>
<!-- Node13 -->
<g id="node13" class="node">
<title>Node13</title>
<g id="a_node13"><a xlink:title=" ">
<polygon fill="white" stroke="#bfbfbf" points="1018.5,-879.5 1018.5,-936.5 1131.5,-936.5 1131.5,-879.5 1018.5,-879.5"/>
<text text-anchor="middle" x="1075" y="-924.5" font-family="Helvetica,sans-Serif" font-size="10.00">Sml::EventDispatcher</text>
<polyline fill="none" stroke="#bfbfbf" points="1018.5,-917.5 1131.5,-917.5 "/>
<text text-anchor="middle" x="1075" y="-905.5" font-family="Helvetica,sans-Serif" font-size="10.00"> </text>
<polyline fill="none" stroke="#bfbfbf" points="1018.5,-898.5 1131.5,-898.5 "/>
<text text-anchor="middle" x="1075" y="-886.5" font-family="Helvetica,sans-Serif" font-size="10.00"> </text>
</a>
</g>
</g>
<!-- Node13&#45;&gt;Node12 -->
<g id="edge12" class="edge">
<title>Node13&#45;&gt;Node12</title>
<path fill="none" stroke="midnightblue" d="M1074.79,-869.17C1073.45,-849.58 1069.86,-825.71 1061,-806 1054.67,-791.91 1045.88,-778.26 1036.24,-765.7"/>
<polygon fill="none" stroke="midnightblue" points="1071.3,-869.46 1075.31,-879.27 1078.29,-869.1 1071.3,-869.46"/>
</g>
<!-- Node14 -->
<g id="node14" class="node">
<title>Node14</title>
<g id="a_node14"><a xlink:title=" ">
<polygon fill="white" stroke="#bfbfbf" points="952,-879.5 952,-936.5 1000,-936.5 1000,-879.5 952,-879.5"/>
<text text-anchor="middle" x="976" y="-924.5" font-family="Helvetica,sans-Serif" font-size="10.00">Notifier</text>
<polyline fill="none" stroke="#bfbfbf" points="952,-917.5 1000,-917.5 "/>
<text text-anchor="middle" x="976" y="-905.5" font-family="Helvetica,sans-Serif" font-size="10.00"> </text>
<polyline fill="none" stroke="#bfbfbf" points="952,-898.5 1000,-898.5 "/>
<text text-anchor="middle" x="976" y="-886.5" font-family="Helvetica,sans-Serif" font-size="10.00"> </text>
</a>
</g>
</g>
<!-- Node14&#45;&gt;Node12 -->
<g id="edge13" class="edge">
<title>Node14&#45;&gt;Node12</title>
<path fill="none" stroke="#404040" d="M973.87,-879.23C972.8,-864.1 971.6,-845.03 971,-828 970.43,-811.83 970.1,-794.51 969.92,-777.99"/>
<polygon fill="none" stroke="#404040" points="969.92,-777.55 965.86,-771.58 969.81,-765.55 973.86,-771.51 969.92,-777.55"/>
<text text-anchor="middle" x="1016" y="-820" font-family="Helvetica,sans-Serif" font-size="10.00"> #m_FiltersNotifier</text>
<text text-anchor="middle" x="1016" y="-809" font-family="Helvetica,sans-Serif" font-size="10.00">#m_HandlersNotifier</text>
</g>
<!-- Node15&#45;&gt;Node6 -->
<g id="edge14" class="edge">
<title>Node15&#45;&gt;Node6</title>
<path fill="none" stroke="#404040" d="M42.16,-642.24C45.69,-620.43 53.28,-596.66 69,-580 124.61,-521.07 217.89,-500.44 283.83,-493.38"/>
<polygon fill="none" stroke="#404040" points="283.86,-493.37 289.45,-488.81 295.81,-492.21 290.22,-496.77 283.86,-493.37"/>
<text text-anchor="middle" x="94" y="-583" font-family="Helvetica,sans-Serif" font-size="10.00"> #m_Scene</text>
</g>
<!-- Node16 -->
<g id="node16" class="node">
<title>Node16</title>
<g id="a_node16"><a xlink:title=" ">
<polygon fill="white" stroke="#bfbfbf" points="98.5,-670 98.5,-727 165.5,-727 165.5,-670 98.5,-670"/>
<text text-anchor="middle" x="132" y="-715" font-family="Helvetica,sans-Serif" font-size="10.00">Rectangle&lt;</text>
<polyline fill="none" stroke="#bfbfbf" points="98.5,-708 165.5,-708 "/>
<text text-anchor="middle" x="132" y="-696" font-family="Helvetica,sans-Serif" font-size="10.00"> </text>
<polyline fill="none" stroke="#bfbfbf" points="98.5,-689 165.5,-689 "/>
<text text-anchor="middle" x="132" y="-677" font-family="Helvetica,sans-Serif" font-size="10.00"> </text>
</a>
</g>
</g>
<!-- Node16&#45;&gt;Node6 -->
<g id="edge17" class="edge">
<title>Node16&#45;&gt;Node6</title>
<path fill="none" stroke="#404040" d="M122.41,-669.75C115.43,-644.16 110.01,-606.27 128,-580 162.77,-529.21 230.7,-507.08 284.11,-497.44"/>
<polygon fill="none" stroke="#404040" points="284.12,-497.43 289.38,-492.5 295.96,-495.46 290.7,-500.39 284.12,-497.43"/>
<text text-anchor="middle" x="170.5" y="-583" font-family="Helvetica,sans-Serif" font-size="10.00"> #m_LayoutBounds</text>
</g>
<!-- Node17 -->
<g id="node17" class="node">
<title>Node17</title>
<g id="a_node17"><a xlink:title=" ">
<polygon fill="white" stroke="#bfbfbf" points="898.5,-879.5 898.5,-936.5 933.5,-936.5 933.5,-879.5 898.5,-879.5"/>
<text text-anchor="middle" x="916" y="-924.5" font-family="Helvetica,sans-Serif" font-size="10.00">list&lt;</text>
<polyline fill="none" stroke="#bfbfbf" points="898.5,-917.5 933.5,-917.5 "/>
<text text-anchor="middle" x="916" y="-905.5" font-family="Helvetica,sans-Serif" font-size="10.00"> </text>
<polyline fill="none" stroke="#bfbfbf" points="898.5,-898.5 933.5,-898.5 "/>
<text text-anchor="middle" x="916" y="-886.5" font-family="Helvetica,sans-Serif" font-size="10.00"> </text>
</a>
</g>
</g>
<!-- Node17&#45;&gt;Node5 -->
<g id="edge18" class="edge">
<title>Node17&#45;&gt;Node5</title>
<path fill="none" stroke="#404040" d="M907.13,-879.26C902.76,-868.21 896.75,-855.82 889,-846 859.21,-808.24 817.57,-774.9 780.67,-749.61"/>
<polygon fill="none" stroke="#404040" points="780.36,-749.39 773.15,-749.36 770.41,-742.69 777.62,-742.72 780.36,-749.39"/>
<text text-anchor="middle" x="902" y="-814.5" font-family="Helvetica,sans-Serif" font-size="10.00"> #m_Children</text>
</g>
<!-- Node18 -->
<g id="node18" class="node">
<title>Node18</title>
<g id="a_node18"><a xlink:title=" ">
<polygon fill="white" stroke="#bfbfbf" points="450,-879.5 450,-936.5 506,-936.5 506,-879.5 450,-879.5"/>
<text text-anchor="middle" x="478" y="-924.5" font-family="Helvetica,sans-Serif" font-size="10.00">Texture *</text>
<polyline fill="none" stroke="#bfbfbf" points="450,-917.5 506,-917.5 "/>
<text text-anchor="middle" x="478" y="-905.5" font-family="Helvetica,sans-Serif" font-size="10.00"> </text>
<polyline fill="none" stroke="#bfbfbf" points="450,-898.5 506,-898.5 "/>
<text text-anchor="middle" x="478" y="-886.5" font-family="Helvetica,sans-Serif" font-size="10.00"> </text>
</a>
</g>
</g>
<!-- Node18&#45;&gt;Node5 -->
<g id="edge19" class="edge">
<title>Node18&#45;&gt;Node5</title>
<path fill="none" stroke="#404040" d="M493.66,-879.49C499.99,-868.84 507.55,-856.66 515,-846 528.04,-827.34 529.86,-820.98 547,-806 558.71,-795.77 564.06,-796.62 577,-788 589.15,-779.9 601.78,-771.07 614.07,-762.23"/>
<polygon fill="none" stroke="#404040" points="614.13,-762.19 616.65,-755.43 623.85,-755.15 621.34,-761.91 614.13,-762.19"/>
<text text-anchor="middle" x="579" y="-814.5" font-family="Helvetica,sans-Serif" font-size="10.00"> #m_Snapshot</text>
</g>
<!-- Node19 -->
<g id="node19" class="node">
<title>Node19</title>
<g id="a_node19"><a xlink:href="class_sgl_1_1_background.html" target="_top" xlink:title=" ">
<polygon fill="white" stroke="black" points="1152.5,-846.5 1152.5,-969.5 1241.5,-969.5 1241.5,-846.5 1152.5,-846.5"/>
<text text-anchor="middle" x="1197" y="-957.5" font-family="Helvetica,sans-Serif" font-size="10.00">Sgl::Background</text>
<polyline fill="none" stroke="black" points="1152.5,-950.5 1241.5,-950.5 "/>
<text text-anchor="middle" x="1197" y="-938.5" font-family="Helvetica,sans-Serif" font-size="10.00"> </text>
<polyline fill="none" stroke="black" points="1152.5,-931.5 1241.5,-931.5 "/>
<text text-anchor="start" x="1160.5" y="-919.5" font-family="Helvetica,sans-Serif" font-size="10.00">+ Background()</text>
<text text-anchor="start" x="1160.5" y="-908.5" font-family="Helvetica,sans-Serif" font-size="10.00">+ Background()</text>
<text text-anchor="start" x="1160.5" y="-897.5" font-family="Helvetica,sans-Serif" font-size="10.00">+ Background()</text>
<text text-anchor="start" x="1160.5" y="-886.5" font-family="Helvetica,sans-Serif" font-size="10.00">+ Background()</text>
<text text-anchor="start" x="1160.5" y="-875.5" font-family="Helvetica,sans-Serif" font-size="10.00">+ addFill()</text>
<text text-anchor="start" x="1160.5" y="-864.5" font-family="Helvetica,sans-Serif" font-size="10.00">and 5 more...</text>
<text text-anchor="start" x="1160.5" y="-853.5" font-family="Helvetica,sans-Serif" font-size="10.00">+ fillArea()</text>
</a>
</g>
</g>
<!-- Node19&#45;&gt;Node1 -->
<g id="edge31" class="edge">
<title>Node19&#45;&gt;Node1</title>
<path fill="none" stroke="#404040" d="M1197,-846.17C1197,-804.81 1197,-748.85 1197,-699.5 1197,-699.5 1197,-699.5 1197,-183.5 1197,-164.48 1197,-143.84 1197,-124.88"/>
<polygon fill="none" stroke="#404040" points="1197,-124.7 1193,-118.7 1197,-112.7 1201,-118.7 1197,-124.7"/>
<text text-anchor="middle" x="1263.5" y="-390" font-family="Helvetica,sans-Serif" font-size="10.00"> +DEFAULT_BACKGROUND</text>
</g>
<!-- Node19&#45;&gt;Node4 -->
<g id="edge30" class="edge">
<title>Node19&#45;&gt;Node4</title>
<path fill="none" stroke="#404040" d="M1207.73,-846.42C1222.64,-762.59 1248.23,-620.2 1252,-609 1258.63,-589.3 1268,-568.76 1277.37,-550.41"/>
<polygon fill="none" stroke="#404040" points="1277.47,-550.22 1276.7,-543.05 1283.02,-539.59 1283.79,-546.76 1277.47,-550.22"/>
<text text-anchor="middle" x="1318.5" y="-696" font-family="Helvetica,sans-Serif" font-size="10.00"> +DEFAULT_BACKGROUND</text>
</g>
<!-- Node19&#45;&gt;Node5 -->
<g id="edge21" class="edge">
<title>Node19&#45;&gt;Node5</title>
<path fill="none" stroke="#404040" d="M1152.24,-856.32C1148.24,-852.67 1144.14,-849.18 1140,-846 1132.51,-840.25 1074.03,-808.76 1065,-806 991.51,-783.5 967.19,-808.07 893,-788 855.12,-777.75 815.3,-761 781.52,-744.81"/>
<polygon fill="none" stroke="#404040" points="781.1,-744.6 773.95,-745.57 770.31,-739.35 777.45,-738.38 781.1,-744.6"/>
<text text-anchor="middle" x="1145" y="-814.5" font-family="Helvetica,sans-Serif" font-size="10.00"> #m_Background</text>
</g>
<!-- Node20 -->
<g id="node20" class="node">
<title>Node20</title>
<g id="a_node20"><a xlink:href="class_sgl_1_1_border.html" target="_top" xlink:title=" ">
<polygon fill="white" stroke="black" points="790,-852 790,-964 880,-964 880,-852 790,-852"/>
<text text-anchor="middle" x="835" y="-952" font-family="Helvetica,sans-Serif" font-size="10.00">Sgl::Border</text>
<polyline fill="none" stroke="black" points="790,-945 880,-945 "/>
<text text-anchor="middle" x="835" y="-933" font-family="Helvetica,sans-Serif" font-size="10.00"> </text>
<polyline fill="none" stroke="black" points="790,-926 880,-926 "/>
<text text-anchor="start" x="798" y="-914" font-family="Helvetica,sans-Serif" font-size="10.00">+ Border()</text>
<text text-anchor="start" x="798" y="-903" font-family="Helvetica,sans-Serif" font-size="10.00">+ Border()</text>
<text text-anchor="start" x="798" y="-892" font-family="Helvetica,sans-Serif" font-size="10.00">+ Border()</text>
<text text-anchor="start" x="798" y="-881" font-family="Helvetica,sans-Serif" font-size="10.00">+ getThickness()</text>
<text text-anchor="start" x="798" y="-870" font-family="Helvetica,sans-Serif" font-size="10.00">+ getColor()</text>
<text text-anchor="start" x="798" y="-859" font-family="Helvetica,sans-Serif" font-size="10.00">+ encloseArea()</text>
</a>
</g>
</g>
<!-- Node20&#45;&gt;Node1 -->
<g id="edge32" class="edge">
<title>Node20&#45;&gt;Node1</title>
<path fill="none" stroke="#404040" d="M839.51,-851.99C842.54,-810.2 846,-751.27 846,-699.5 846,-699.5 846,-699.5 846,-183.5 846,-120.63 1047.98,-80.64 1145.5,-64.99"/>
<polygon fill="none" stroke="#404040" points="1145.56,-64.98 1150.87,-60.1 1157.42,-63.12 1152.11,-68 1145.56,-64.98"/>
<text text-anchor="middle" x="898" y="-390" font-family="Helvetica,sans-Serif" font-size="10.00"> +DEFAULT_BORDER</text>
</g>
<!-- Node20&#45;&gt;Node5 -->
<g id="edge22" class="edge">
<title>Node20&#45;&gt;Node5</title>
<path fill="none" stroke="#404040" d="M797.09,-851.85C791.66,-843.87 786.17,-835.73 781,-828 774.5,-818.28 767.76,-808.11 761.06,-797.95"/>
<polygon fill="none" stroke="#404040" points="760.97,-797.81 754.33,-795 754.37,-787.79 761.01,-790.6 760.97,-797.81"/>
<text text-anchor="middle" x="806.5" y="-814.5" font-family="Helvetica,sans-Serif" font-size="10.00"> #m_Border</text>
</g>
<!-- Node21&#45;&gt;Node5 -->
<g id="edge23" class="edge">
<title>Node21&#45;&gt;Node5</title>
<path fill="none" stroke="#404040" d="M599.29,-851.94C609.94,-835.32 621.97,-816.56 633.86,-798.01"/>
<polygon fill="none" stroke="#404040" points="633.96,-797.85 633.83,-790.64 640.44,-787.75 640.57,-794.96 633.96,-797.85"/>
<text text-anchor="middle" x="656" y="-814.5" font-family="Helvetica,sans-Serif" font-size="10.00"> #m_Padding</text>
</g>
<!-- Node21&#45;&gt;Node21 -->
<g id="edge24" class="edge">
<title>Node21&#45;&gt;Node21</title>
<path fill="none" stroke="#404040" d="M603.51,-924.7C613.76,-923.67 621.5,-918.11 621.5,-908 621.5,-902.31 619.05,-898.07 615.08,-895.25"/>
<polygon fill="none" stroke="#404040" points="614.86,-895.18 607.89,-897.02 603.51,-891.3 610.48,-889.45 614.86,-895.18"/>
<text text-anchor="middle" x="643.5" y="-905.5" font-family="Helvetica,sans-Serif" font-size="10.00"> +EMPTY</text>
</g>
<!-- Node22 -->
<g id="node22" class="node">
<title>Node22</title>
<g id="a_node22"><a xlink:href="class_sgl_1_1_color_fill.html" target="_top" xlink:title=" ">
<polygon fill="white" stroke="black" points="1394.5,-642.5 1394.5,-754.5 1467.5,-754.5 1467.5,-642.5 1394.5,-642.5"/>
<text text-anchor="middle" x="1431" y="-742.5" font-family="Helvetica,sans-Serif" font-size="10.00">Sgl::ColorFill</text>
<polyline fill="none" stroke="black" points="1394.5,-735.5 1467.5,-735.5 "/>
<text text-anchor="middle" x="1431" y="-723.5" font-family="Helvetica,sans-Serif" font-size="10.00"> </text>
<polyline fill="none" stroke="black" points="1394.5,-716.5 1467.5,-716.5 "/>
<text text-anchor="start" x="1402.5" y="-704.5" font-family="Helvetica,sans-Serif" font-size="10.00">+ ColorFill()</text>
<text text-anchor="start" x="1402.5" y="-693.5" font-family="Helvetica,sans-Serif" font-size="10.00">+ fillLine()</text>
<text text-anchor="start" x="1402.5" y="-682.5" font-family="Helvetica,sans-Serif" font-size="10.00">+ fillArea()</text>
<text text-anchor="start" x="1402.5" y="-671.5" font-family="Helvetica,sans-Serif" font-size="10.00">+ fillPoint()</text>
<text text-anchor="start" x="1402.5" y="-660.5" font-family="Helvetica,sans-Serif" font-size="10.00">+ getColor()</text>
<text text-anchor="start" x="1402.5" y="-649.5" font-family="Helvetica,sans-Serif" font-size="10.00">+ setColor()</text>
</a>
</g>
</g>
<!-- Node22&#45;&gt;Node4 -->
<g id="edge27" class="edge">
<title>Node22&#45;&gt;Node4</title>
<path fill="none" stroke="#404040" d="M1399.42,-642.44C1383.11,-613.99 1363.18,-579.24 1346.47,-550.1"/>
<polygon fill="none" stroke="#404040" points="1346.44,-550.05 1339.98,-546.83 1340.47,-539.64 1346.92,-542.85 1346.44,-550.05"/>
<text text-anchor="middle" x="1408" y="-583" font-family="Helvetica,sans-Serif" font-size="10.00"> +DEFAULT_FILL</text>
</g>
<!-- Node23 -->
<g id="node23" class="node">
<title>Node23</title>
<g id="a_node23"><a xlink:href="class_sgl_1_1_fill.html" target="_top" xlink:title=" ">
<polygon fill="white" stroke="black" points="1364,-868.5 1364,-947.5 1428,-947.5 1428,-868.5 1364,-868.5"/>
<text text-anchor="middle" x="1396" y="-935.5" font-family="Helvetica,sans-Serif" font-size="10.00">Sgl::Fill</text>
<polyline fill="none" stroke="black" points="1364,-928.5 1428,-928.5 "/>
<text text-anchor="middle" x="1396" y="-916.5" font-family="Helvetica,sans-Serif" font-size="10.00"> </text>
<polyline fill="none" stroke="black" points="1364,-909.5 1428,-909.5 "/>
<text text-anchor="start" x="1372" y="-897.5" font-family="Helvetica,sans-Serif" font-size="10.00">+ fillLine()</text>
<text text-anchor="start" x="1372" y="-886.5" font-family="Helvetica,sans-Serif" font-size="10.00">+ fillArea()</text>
<text text-anchor="start" x="1372" y="-875.5" font-family="Helvetica,sans-Serif" font-size="10.00">+ fillPoint()</text>
</a>
</g>
</g>
<!-- Node23&#45;&gt;Node22 -->
<g id="edge28" class="edge">
<title>Node23&#45;&gt;Node22</title>
<path fill="none" stroke="midnightblue" d="M1404.21,-858.3C1409.45,-827.24 1416.26,-786.91 1421.7,-754.66"/>
<polygon fill="none" stroke="midnightblue" points="1400.71,-858.01 1402.5,-868.46 1407.62,-859.18 1400.71,-858.01"/>
</g>
<!-- Node24 -->
<g id="node24" class="node">
<title>Node24</title>
<g id="a_node24"><a xlink:title=" ">
<polygon fill="white" stroke="#bfbfbf" points="1446,-879.5 1446,-936.5 1486,-936.5 1486,-879.5 1446,-879.5"/>
<text text-anchor="middle" x="1466" y="-924.5" font-family="Helvetica,sans-Serif" font-size="10.00">Color</text>
<polyline fill="none" stroke="#bfbfbf" points="1446,-917.5 1486,-917.5 "/>
<text text-anchor="middle" x="1466" y="-905.5" font-family="Helvetica,sans-Serif" font-size="10.00"> </text>
<polyline fill="none" stroke="#bfbfbf" points="1446,-898.5 1486,-898.5 "/>
<text text-anchor="middle" x="1466" y="-886.5" font-family="Helvetica,sans-Serif" font-size="10.00"> </text>
</a>
</g>
</g>
<!-- Node24&#45;&gt;Node22 -->
<g id="edge29" class="edge">
<title>Node24&#45;&gt;Node22</title>
<path fill="none" stroke="#404040" d="M1461.35,-879.45C1456.54,-850.9 1448.83,-805.19 1442.38,-766.99"/>
<polygon fill="none" stroke="#404040" points="1442.34,-766.71 1437.39,-761.46 1440.34,-754.88 1445.28,-760.13 1442.34,-766.71"/>
<text text-anchor="middle" x="1476" y="-814.5" font-family="Helvetica,sans-Serif" font-size="10.00"> #m_Color</text>
</g>
</g>
</svg>
        <g id="navigator" transform="translate(0 0)" fill="#404254">
                <rect fill="#f2f5e9" fill-opacity="0.5" stroke="#606060" stroke-width=".5" x="0" y="0" width="60" height="60"/>
                <use id="zoomplus" xlink:href="#zoomPlus" x="17" y="9" onmousedown="handleZoom(evt,'in')"/>
                <use id="zoomminus" xlink:href="#zoomMin" x="42" y="9" onmousedown="handleZoom(evt,'out')"/>
                <use id="reset" xlink:href="#resetDef" x="30" y="36" onmousedown="handleReset()"/>
                <g id="arrowUp" xlink:href="#dirArrow" transform="translate(30 24)" onmousedown="handlePan(0,-1)">
                  <use xlink:href="#rim" fill="#404040">
                        <set attributeName="fill" to="#808080" begin="arrowUp.mouseover" end="arrowUp.mouseout"/>
                  </use>
                  <path fill="none" stroke="white" stroke-width="1.5" d="M0,-3.0v7 M-2.5,-0.5L0,-3.0L2.5,-0.5"/>
                </g>
                <g id="arrowRight" xlink:href="#dirArrow" transform="rotate(90) translate(36 -43)" onmousedown="handlePan(1,0)">
                  <use xlink:href="#rim" fill="#404040">
                        <set attributeName="fill" to="#808080" begin="arrowRight.mouseover" end="arrowRight.mouseout"/>
                  </use>
                  <path fill="none" stroke="white" stroke-width="1.5" d="M0,-3.0v7 M-2.5,-0.5L0,-3.0L2.5,-0.5"/>
                </g>
                <g id="arrowDown" xlink:href="#dirArrow" transform="rotate(180) translate(-30 -48)" onmousedown="handlePan(0,1)">
                  <use xlink:href="#rim" fill="#404040">
                        <set attributeName="fill" to="#808080" begin="arrowDown.mouseover" end="arrowDown.mouseout"/>
                  </use>
                  <path fill="none" stroke="white" stroke-width="1.5" d="M0,-3.0v7 M-2.5,-0.5L0,-3.0L2.5,-0.5"/>
                </g>
                <g id="arrowLeft" xlink:href="#dirArrow" transform="rotate(270) translate(-36 17)" onmousedown="handlePan(-1,0)">
                  <use xlink:href="#rim" fill="#404040">
                        <set attributeName="fill" to="#808080" begin="arrowLeft.mouseover" end="arrowLeft.mouseout"/>
                  </use>
                  <path fill="none" stroke="white" stroke-width="1.5" d="M0,-3.0v7 M-2.5,-0.5L0,-3.0L2.5,-0.5"/>
                </g>
        </g>
        <svg viewBox="0 0 15 15" width="100%" height="30px" preserveAspectRatio="xMaxYMin meet">
         <g id="arrow_out" transform="scale(0.3 0.3)">
          <a xlink:href="class_sgl_1_1_menu_bar__coll__graph_org.svg" target="_base">
           <rect id="button" ry="5" rx="5" y="6" x="6" height="38" width="38"
                fill="#f2f5e9" fill-opacity="0.5" stroke="#606060" stroke-width="1.0"/>
           <path id="arrow"
             d="M 11.500037,31.436501 C 11.940474,20.09759 22.043105,11.32322 32.158766,21.979434 L 37.068811,17.246167 C 37.068811,17.246167 37.088388,32 37.088388,32 L 22.160133,31.978069 C 22.160133,31.978069 26.997745,27.140456 26.997745,27.140456 C 18.528582,18.264221 13.291696,25.230495 11.500037,31.436501 z"
             style="fill:#404040;"/>
          </a>
         </g>
        </svg>
</svg>
