<?xml version="1.0" encoding="UTF-8" standalone="no"?>
<!DOCTYPE svg PUBLIC "-//W3C//DTD SVG 1.1//EN"
 "http://www.w3.org/Graphics/SVG/1.1/DTD/svg11.dtd">
<!-- Generated by graphviz version 2.50.0 (20211204.2007)
 -->
<!-- Title: Sgl::VBox Pages: 1 -->
<!--zoomable 956 -->
<svg id="main" version="1.1" xmlns="http://www.w3.org/2000/svg" xmlns:xlink="http://www.w3.org/1999/xlink" xml:space="preserve" onload="init(evt)">
<style type="text/css"><![CDATA[
.edge:hover path { stroke: red; }
.edge:hover polygon { stroke: red; fill: red; }
]]></style>
<script type="text/javascript"><![CDATA[
var edges = document.getElementsByTagName('g');
if (edges && edges.length) {
  for (var i=0;i<edges.length;i++) {
    if (edges[i].id.substr(0,4)=='edge') {
      edges[i].setAttribute('class','edge');
    }
  }
}
]]></script>
        <defs>
                <circle id="rim" cx="0" cy="0" r="7"/>
                <circle id="rim2" cx="0" cy="0" r="3.5"/>
                <g id="zoomPlus">
                        <use xlink:href="#rim" fill="#404040">
                                <set attributeName="fill" to="#808080" begin="zoomplus.mouseover" end="zoomplus.mouseout"/>
                        </use>
                        <path d="M-4,0h8M0,-4v8" fill="none" stroke="white" stroke-width="1.5" pointer-events="none"/>
                </g>
                <g id="zoomMin">
                        <use xlink:href="#rim" fill="#404040">
                                <set attributeName="fill" to="#808080" begin="zoomminus.mouseover" end="zoomminus.mouseout"/>
                        </use>
                        <path d="M-4,0h8" fill="none" stroke="white" stroke-width="1.5" pointer-events="none"/>
                </g>
                <g id="dirArrow">
                        <path fill="none" stroke="white" stroke-width="1.5" d="M0,-3.0v7 M-2.5,-0.5L0,-3.0L2.5,-0.5"/>
                </g>
               <g id="resetDef">
                       <use xlink:href="#rim2" fill="#404040">
                               <set attributeName="fill" to="#808080" begin="reset.mouseover" end="reset.mouseout"/>
                       </use>
               </g>
        </defs>

<script type="text/javascript">
var viewWidth = 1648;
var viewHeight = 956;
var sectionId = 'dynsection-1';
</script>
<script xlink:href="svgpan.js"/>
<svg id="graph" class="graph">
<g id="viewport">
<title>Sgl::VBox</title>
<polygon fill="white" stroke="transparent" points="-4,4 -4,-952 1644,-952 1644,4 -4,4"/>
<!-- Node1 -->
<g id="node1" class="node">
<title>Node1</title>
<g id="a_node1"><a xlink:title=" ">
<polygon fill="#bfbfbf" stroke="black" points="1337,-0.5 1337,-68.5 1399,-68.5 1399,-0.5 1337,-0.5"/>
<text text-anchor="middle" x="1368" y="-56.5" font-family="Helvetica,sans-Serif" font-size="10.00">Sgl::VBox</text>
<polyline fill="none" stroke="black" points="1337,-49.5 1399,-49.5 "/>
<text text-anchor="middle" x="1368" y="-37.5" font-family="Helvetica,sans-Serif" font-size="10.00"> </text>
<polyline fill="none" stroke="black" points="1337,-30.5 1399,-30.5 "/>
<text text-anchor="start" x="1345" y="-18.5" font-family="Helvetica,sans-Serif" font-size="10.00">+ VBox()</text>
<text text-anchor="start" x="1345" y="-7.5" font-family="Helvetica,sans-Serif" font-size="10.00">+ ~VBox()</text>
</a>
</g>
</g>
<!-- Node2 -->
<g id="node2" class="node">
<title>Node2</title>
<g id="a_node2"><a xlink:href="class_sgl_1_1_box_container.html" target="_top" xlink:title="Basic list&#45;like container which lays out children in a line one after another.">
<polygon fill="white" stroke="black" points="1319.5,-106.5 1319.5,-218.5 1416.5,-218.5 1416.5,-106.5 1319.5,-106.5"/>
<text text-anchor="middle" x="1368" y="-206.5" font-family="Helvetica,sans-Serif" font-size="10.00">Sgl::BoxContainer</text>
<polyline fill="none" stroke="black" points="1319.5,-199.5 1416.5,-199.5 "/>
<text text-anchor="middle" x="1368" y="-187.5" font-family="Helvetica,sans-Serif" font-size="10.00"> </text>
<polyline fill="none" stroke="black" points="1319.5,-180.5 1416.5,-180.5 "/>
<text text-anchor="start" x="1327.5" y="-168.5" font-family="Helvetica,sans-Serif" font-size="10.00">+ BoxContainer()</text>
<text text-anchor="start" x="1327.5" y="-157.5" font-family="Helvetica,sans-Serif" font-size="10.00">+ BoxContainer()</text>
<text text-anchor="start" x="1327.5" y="-146.5" font-family="Helvetica,sans-Serif" font-size="10.00">+ ~BoxContainer()</text>
<text text-anchor="start" x="1327.5" y="-135.5" font-family="Helvetica,sans-Serif" font-size="10.00">+ getDirection()</text>
<text text-anchor="start" x="1327.5" y="-124.5" font-family="Helvetica,sans-Serif" font-size="10.00">+ setDirection()</text>
<text text-anchor="start" x="1327.5" y="-113.5" font-family="Helvetica,sans-Serif" font-size="10.00">and 8 more...</text>
</a>
</g>
</g>
<!-- Node2&#45;&gt;Node1 -->
<g id="edge1" class="edge">
<title>Node2&#45;&gt;Node1</title>
<path fill="none" stroke="midnightblue" d="M1368,-95.96C1368,-86.48 1368,-77.08 1368,-68.62"/>
<polygon fill="none" stroke="midnightblue" points="1364.5,-96.23 1368,-106.23 1371.5,-96.23 1364.5,-96.23"/>
</g>
<!-- Node3 -->
<g id="node3" class="node">
<title>Node3</title>
<g id="a_node3"><a xlink:href="class_sgl_1_1_container.html" target="_top" xlink:title=" ">
<polygon fill="white" stroke="black" points="1314,-278.5 1314,-379.5 1422,-379.5 1422,-278.5 1314,-278.5"/>
<text text-anchor="middle" x="1368" y="-367.5" font-family="Helvetica,sans-Serif" font-size="10.00">Sgl::Container</text>
<polyline fill="none" stroke="black" points="1314,-360.5 1422,-360.5 "/>
<text text-anchor="middle" x="1368" y="-348.5" font-family="Helvetica,sans-Serif" font-size="10.00"> </text>
<polyline fill="none" stroke="black" points="1314,-341.5 1422,-341.5 "/>
<text text-anchor="start" x="1322" y="-329.5" font-family="Helvetica,sans-Serif" font-size="10.00">+ Container()</text>
<text text-anchor="start" x="1322" y="-318.5" font-family="Helvetica,sans-Serif" font-size="10.00">+ ~Container()</text>
<text text-anchor="start" x="1322" y="-307.5" font-family="Helvetica,sans-Serif" font-size="10.00">+ getHitComponent()</text>
<text text-anchor="start" x="1322" y="-296.5" font-family="Helvetica,sans-Serif" font-size="10.00">+ render()</text>
<text text-anchor="start" x="1322" y="-285.5" font-family="Helvetica,sans-Serif" font-size="10.00"># prerenderSelf()</text>
</a>
</g>
</g>
<!-- Node3&#45;&gt;Node2 -->
<g id="edge2" class="edge">
<title>Node3&#45;&gt;Node2</title>
<path fill="none" stroke="midnightblue" d="M1368,-267.82C1368,-251.72 1368,-234.4 1368,-218.59"/>
<polygon fill="none" stroke="midnightblue" points="1364.5,-268.2 1368,-278.2 1371.5,-268.2 1364.5,-268.2"/>
</g>
<!-- Node4 -->
<g id="node4" class="node">
<title>Node4</title>
<g id="a_node4"><a xlink:href="class_sgl_1_1_parent.html" target="_top" xlink:title=" ">
<polygon fill="white" stroke="black" points="886,-449.5 886,-627.5 1032,-627.5 1032,-449.5 886,-449.5"/>
<text text-anchor="middle" x="959" y="-615.5" font-family="Helvetica,sans-Serif" font-size="10.00">Sgl::Parent</text>
<polyline fill="none" stroke="black" points="886,-608.5 1032,-608.5 "/>
<text text-anchor="middle" x="959" y="-596.5" font-family="Helvetica,sans-Serif" font-size="10.00"> </text>
<polyline fill="none" stroke="black" points="886,-589.5 1032,-589.5 "/>
<text text-anchor="start" x="894" y="-577.5" font-family="Helvetica,sans-Serif" font-size="10.00">+ Parent()</text>
<text text-anchor="start" x="894" y="-566.5" font-family="Helvetica,sans-Serif" font-size="10.00">+ ~Parent()</text>
<text text-anchor="start" x="894" y="-555.5" font-family="Helvetica,sans-Serif" font-size="10.00">+ getHitComponent()</text>
<text text-anchor="start" x="894" y="-544.5" font-family="Helvetica,sans-Serif" font-size="10.00">+ render()</text>
<text text-anchor="start" x="894" y="-533.5" font-family="Helvetica,sans-Serif" font-size="10.00">+ layout()</text>
<text text-anchor="start" x="894" y="-522.5" font-family="Helvetica,sans-Serif" font-size="10.00">and 39 more...</text>
<text text-anchor="start" x="894" y="-511.5" font-family="Helvetica,sans-Serif" font-size="10.00"># setSceneInSceneTree()</text>
<text text-anchor="start" x="894" y="-500.5" font-family="Helvetica,sans-Serif" font-size="10.00"># layoutChildren()</text>
<text text-anchor="start" x="894" y="-489.5" font-family="Helvetica,sans-Serif" font-size="10.00"># prerenderSelf()</text>
<text text-anchor="start" x="894" y="-478.5" font-family="Helvetica,sans-Serif" font-size="10.00"># updateSnapshotSize()</text>
<text text-anchor="start" x="894" y="-467.5" font-family="Helvetica,sans-Serif" font-size="10.00"># computeCustomPrefWidth()</text>
<text text-anchor="start" x="894" y="-456.5" font-family="Helvetica,sans-Serif" font-size="10.00">and 5 more...</text>
</a>
</g>
</g>
<!-- Node4&#45;&gt;Node3 -->
<g id="edge3" class="edge">
<title>Node4&#45;&gt;Node3</title>
<path fill="none" stroke="midnightblue" d="M1041.32,-495.74C1122.45,-454.57 1244.11,-392.85 1313.79,-357.5"/>
<polygon fill="none" stroke="midnightblue" points="1039.46,-492.76 1032.12,-500.4 1042.62,-499 1039.46,-492.76"/>
</g>
<!-- Node5 -->
<g id="node5" class="node">
<title>Node5</title>
<g id="a_node5"><a xlink:href="class_sgl_1_1_component.html" target="_top" xlink:title=" ">
<polygon fill="white" stroke="black" points="292,-256.5 292,-401.5 420,-401.5 420,-256.5 292,-256.5"/>
<text text-anchor="middle" x="356" y="-389.5" font-family="Helvetica,sans-Serif" font-size="10.00">Sgl::Component</text>
<polyline fill="none" stroke="black" points="292,-382.5 420,-382.5 "/>
<text text-anchor="middle" x="356" y="-370.5" font-family="Helvetica,sans-Serif" font-size="10.00"> </text>
<polyline fill="none" stroke="black" points="292,-363.5 420,-363.5 "/>
<text text-anchor="start" x="300" y="-351.5" font-family="Helvetica,sans-Serif" font-size="10.00">+ Component()</text>
<text text-anchor="start" x="300" y="-340.5" font-family="Helvetica,sans-Serif" font-size="10.00">+ ~Component()</text>
<text text-anchor="start" x="300" y="-329.5" font-family="Helvetica,sans-Serif" font-size="10.00">+ getHitComponent()</text>
<text text-anchor="start" x="300" y="-318.5" font-family="Helvetica,sans-Serif" font-size="10.00">+ render()</text>
<text text-anchor="start" x="300" y="-307.5" font-family="Helvetica,sans-Serif" font-size="10.00">+ layout()</text>
<text text-anchor="start" x="300" y="-296.5" font-family="Helvetica,sans-Serif" font-size="10.00">and 42 more...</text>
<text text-anchor="start" x="300" y="-285.5" font-family="Helvetica,sans-Serif" font-size="10.00"># updateShadow()</text>
<text text-anchor="start" x="300" y="-274.5" font-family="Helvetica,sans-Serif" font-size="10.00"># renderShadow()</text>
<text text-anchor="start" x="300" y="-263.5" font-family="Helvetica,sans-Serif" font-size="10.00"># setSceneInSceneTree()</text>
</a>
</g>
</g>
<!-- Node4&#45;&gt;Node5 -->
<g id="edge16" class="edge">
<title>Node4&#45;&gt;Node5</title>
<path fill="none" stroke="#404040" d="M885.75,-501.11C833.46,-476.08 761,-443.28 695,-420 606.43,-388.76 501.53,-362.49 432.13,-346.55"/>
<polygon fill="none" stroke="#404040" points="431.72,-346.45 424.98,-349.02 420.02,-343.79 426.76,-341.22 431.72,-346.45"/>
<text text-anchor="middle" x="750.5" y="-423" font-family="Helvetica,sans-Serif" font-size="10.00"> #m_Parent</text>
</g>
<!-- Node5&#45;&gt;Node4 -->
<g id="edge4" class="edge">
<title>Node5&#45;&gt;Node4</title>
<path fill="none" stroke="midnightblue" d="M430.19,-330.63C528.89,-334.3 706.34,-351.01 839,-420 855.56,-428.61 871.33,-440.26 885.69,-452.89"/>
<polygon fill="none" stroke="midnightblue" points="430.12,-327.12 420.01,-330.28 429.89,-334.12 430.12,-327.12"/>
</g>
<!-- Node6 -->
<g id="node6" class="node">
<title>Node6</title>
<g id="a_node6"><a xlink:title=" ">
<polygon fill="white" stroke="#bfbfbf" points="39,-719.5 39,-776.5 131,-776.5 131,-719.5 39,-719.5"/>
<text text-anchor="middle" x="85" y="-764.5" font-family="Helvetica,sans-Serif" font-size="10.00">Sml::EventTarget</text>
<polyline fill="none" stroke="#bfbfbf" points="39,-757.5 131,-757.5 "/>
<text text-anchor="middle" x="85" y="-745.5" font-family="Helvetica,sans-Serif" font-size="10.00"> </text>
<polyline fill="none" stroke="#bfbfbf" points="39,-738.5 131,-738.5 "/>
<text text-anchor="middle" x="85" y="-726.5" font-family="Helvetica,sans-Serif" font-size="10.00"> </text>
</a>
</g>
</g>
<!-- Node6&#45;&gt;Node5 -->
<g id="edge5" class="edge">
<title>Node6&#45;&gt;Node5</title>
<path fill="none" stroke="midnightblue" d="M86.68,-709.17C90.38,-639.05 101.05,-492.11 127,-449 162.35,-390.27 237.24,-359.23 291.78,-343.77"/>
<polygon fill="none" stroke="midnightblue" points="83.17,-709.17 86.16,-719.33 90.16,-709.52 83.17,-709.17"/>
</g>
<!-- Node15 -->
<g id="node15" class="node">
<title>Node15</title>
<g id="a_node15"><a xlink:href="class_sgl_1_1_scene.html" target="_top" xlink:title=" ">
<polygon fill="white" stroke="black" points="0,-482.5 0,-594.5 80,-594.5 80,-482.5 0,-482.5"/>
<text text-anchor="middle" x="40" y="-582.5" font-family="Helvetica,sans-Serif" font-size="10.00">Sgl::Scene</text>
<polyline fill="none" stroke="black" points="0,-575.5 80,-575.5 "/>
<text text-anchor="middle" x="40" y="-563.5" font-family="Helvetica,sans-Serif" font-size="10.00"> </text>
<polyline fill="none" stroke="black" points="0,-556.5 80,-556.5 "/>
<text text-anchor="start" x="8" y="-544.5" font-family="Helvetica,sans-Serif" font-size="10.00">+ Scene()</text>
<text text-anchor="start" x="8" y="-533.5" font-family="Helvetica,sans-Serif" font-size="10.00">+ Scene()</text>
<text text-anchor="start" x="8" y="-522.5" font-family="Helvetica,sans-Serif" font-size="10.00">+ ~Scene()</text>
<text text-anchor="start" x="8" y="-511.5" font-family="Helvetica,sans-Serif" font-size="10.00">+ update()</text>
<text text-anchor="start" x="8" y="-500.5" font-family="Helvetica,sans-Serif" font-size="10.00">+ render()</text>
<text text-anchor="start" x="8" y="-489.5" font-family="Helvetica,sans-Serif" font-size="10.00">and 17 more...</text>
</a>
</g>
</g>
<!-- Node6&#45;&gt;Node15 -->
<g id="edge15" class="edge">
<title>Node6&#45;&gt;Node15</title>
<path fill="none" stroke="midnightblue" d="M76.89,-709.6C69.96,-677.63 59.88,-631.17 52.01,-594.88"/>
<polygon fill="none" stroke="midnightblue" points="73.48,-710.41 79.02,-719.45 80.33,-708.93 73.48,-710.41"/>
</g>
<!-- Node7 -->
<g id="node7" class="node">
<title>Node7</title>
<g id="a_node7"><a xlink:title=" ">
<polygon fill="white" stroke="#bfbfbf" points="1069,-890.5 1069,-947.5 1115,-947.5 1115,-890.5 1069,-890.5"/>
<text text-anchor="middle" x="1092" y="-935.5" font-family="Helvetica,sans-Serif" font-size="10.00">int32_t</text>
<polyline fill="none" stroke="#bfbfbf" points="1069,-928.5 1115,-928.5 "/>
<text text-anchor="middle" x="1092" y="-916.5" font-family="Helvetica,sans-Serif" font-size="10.00"> </text>
<polyline fill="none" stroke="#bfbfbf" points="1069,-909.5 1115,-909.5 "/>
<text text-anchor="middle" x="1092" y="-897.5" font-family="Helvetica,sans-Serif" font-size="10.00"> </text>
</a>
</g>
</g>
<!-- Node7&#45;&gt;Node4 -->
<g id="edge26" class="edge">
<title>Node7&#45;&gt;Node4</title>
<path fill="none" stroke="#404040" d="M1115.41,-903.51C1142.17,-885.41 1184.5,-851.71 1202,-810 1223.32,-759.18 1229.1,-733.99 1202,-686 1168.29,-626.31 1099.42,-588.22 1043.58,-565.89"/>
<polygon fill="none" stroke="#404040" points="1043.43,-565.83 1036.39,-567.4 1032.24,-561.5 1039.28,-559.94 1043.43,-565.83"/>
<text text-anchor="middle" x="1256" y="-773" font-family="Helvetica,sans-Serif" font-size="10.00"> #m_MaxHeight</text>
<text text-anchor="middle" x="1256" y="-762" font-family="Helvetica,sans-Serif" font-size="10.00">#m_MaxWidth</text>
<text text-anchor="middle" x="1256" y="-751" font-family="Helvetica,sans-Serif" font-size="10.00">#m_MinHeight</text>
<text text-anchor="middle" x="1256" y="-740" font-family="Helvetica,sans-Serif" font-size="10.00">#m_MinWidth</text>
<text text-anchor="middle" x="1256" y="-729" font-family="Helvetica,sans-Serif" font-size="10.00">#m_PrefHeight</text>
<text text-anchor="middle" x="1256" y="-718" font-family="Helvetica,sans-Serif" font-size="10.00">#m_PrefWidth</text>
</g>
<!-- Node7&#45;&gt;Node5 -->
<g id="edge6" class="edge">
<title>Node7&#45;&gt;Node5</title>
<path fill="none" stroke="#404040" d="M1068.81,-917.4C958.84,-914.15 490.63,-895.41 378,-810 246.9,-710.58 257.93,-609.07 296,-449 298.88,-436.89 303.2,-424.61 308.23,-412.77"/>
<polygon fill="none" stroke="#404040" points="308.34,-412.53 307.14,-405.42 313.24,-401.58 314.44,-408.69 308.34,-412.53"/>
<text text-anchor="middle" x="335" y="-660" font-family="Helvetica,sans-Serif" font-size="10.00"> +UNLIMITED_SIZE</text>
<text text-anchor="middle" x="335" y="-649" font-family="Helvetica,sans-Serif" font-size="10.00">+USE_COMPUTED_SIZE</text>
</g>
<!-- Node21 -->
<g id="node21" class="node">
<title>Node21</title>
<g id="a_node21"><a xlink:href="struct_sgl_1_1_insets.html" target="_top" xlink:title=" ">
<polygon fill="white" stroke="black" points="1052.5,-692 1052.5,-804 1131.5,-804 1131.5,-692 1052.5,-692"/>
<text text-anchor="middle" x="1092" y="-792" font-family="Helvetica,sans-Serif" font-size="10.00">Sgl::Insets</text>
<polyline fill="none" stroke="black" points="1052.5,-785 1131.5,-785 "/>
<text text-anchor="middle" x="1092" y="-773" font-family="Helvetica,sans-Serif" font-size="10.00"> </text>
<polyline fill="none" stroke="black" points="1052.5,-766 1131.5,-766 "/>
<text text-anchor="start" x="1060.5" y="-754" font-family="Helvetica,sans-Serif" font-size="10.00">+ Insets()</text>
<text text-anchor="start" x="1060.5" y="-743" font-family="Helvetica,sans-Serif" font-size="10.00">+ Insets()</text>
<text text-anchor="start" x="1060.5" y="-732" font-family="Helvetica,sans-Serif" font-size="10.00">+ Insets()</text>
<text text-anchor="start" x="1060.5" y="-721" font-family="Helvetica,sans-Serif" font-size="10.00">+ Insets()</text>
<text text-anchor="start" x="1060.5" y="-710" font-family="Helvetica,sans-Serif" font-size="10.00">+ operator+=()</text>
<text text-anchor="start" x="1060.5" y="-699" font-family="Helvetica,sans-Serif" font-size="10.00">+ operator&#45;=()</text>
</a>
</g>
</g>
<!-- Node7&#45;&gt;Node21 -->
<g id="edge25" class="edge">
<title>Node7&#45;&gt;Node21</title>
<path fill="none" stroke="#404040" d="M1092,-890.47C1092,-870.37 1092,-842.21 1092,-816.3"/>
<polygon fill="none" stroke="#404040" points="1092,-816.2 1088,-810.2 1092,-804.2 1096,-810.2 1092,-816.2"/>
<text text-anchor="middle" x="1112" y="-864" font-family="Helvetica,sans-Serif" font-size="10.00"> +bottom</text>
<text text-anchor="middle" x="1112" y="-853" font-family="Helvetica,sans-Serif" font-size="10.00">+left</text>
<text text-anchor="middle" x="1112" y="-842" font-family="Helvetica,sans-Serif" font-size="10.00">+right</text>
<text text-anchor="middle" x="1112" y="-831" font-family="Helvetica,sans-Serif" font-size="10.00">+top</text>
</g>
<!-- Node8 -->
<g id="node8" class="node">
<title>Node8</title>
<g id="a_node8"><a xlink:title=" ">
<polygon fill="white" stroke="#bfbfbf" points="136.5,-510 136.5,-567 177.5,-567 177.5,-510 136.5,-510"/>
<text text-anchor="middle" x="157" y="-555" font-family="Helvetica,sans-Serif" font-size="10.00">friend</text>
<polyline fill="none" stroke="#bfbfbf" points="136.5,-548 177.5,-548 "/>
<text text-anchor="middle" x="157" y="-536" font-family="Helvetica,sans-Serif" font-size="10.00"> </text>
<polyline fill="none" stroke="#bfbfbf" points="136.5,-529 177.5,-529 "/>
<text text-anchor="middle" x="157" y="-517" font-family="Helvetica,sans-Serif" font-size="10.00"> </text>
</a>
</g>
</g>
<!-- Node8&#45;&gt;Node5 -->
<g id="edge7" class="edge">
<title>Node8&#45;&gt;Node5</title>
<path fill="none" stroke="#404040" d="M154.98,-509.6C154.58,-483.91 157.81,-445.95 177,-420 202.01,-386.18 243.32,-364.23 279.97,-350.49"/>
<polygon fill="none" stroke="#404040" points="280.37,-350.34 284.67,-344.56 291.67,-346.3 287.37,-352.09 280.37,-350.34"/>
<text text-anchor="middle" x="195.5" y="-423" font-family="Helvetica,sans-Serif" font-size="10.00"> +Scene</text>
</g>
<!-- Node9 -->
<g id="node9" class="node">
<title>Node9</title>
<g id="a_node9"><a xlink:title=" ">
<polygon fill="white" stroke="#bfbfbf" points="195.5,-510 195.5,-567 248.5,-567 248.5,-510 195.5,-510"/>
<text text-anchor="middle" x="222" y="-555" font-family="Helvetica,sans-Serif" font-size="10.00">Visibility</text>
<polyline fill="none" stroke="#bfbfbf" points="195.5,-548 248.5,-548 "/>
<text text-anchor="middle" x="222" y="-536" font-family="Helvetica,sans-Serif" font-size="10.00"> </text>
<polyline fill="none" stroke="#bfbfbf" points="195.5,-529 248.5,-529 "/>
<text text-anchor="middle" x="222" y="-517" font-family="Helvetica,sans-Serif" font-size="10.00"> </text>
</a>
</g>
</g>
<!-- Node9&#45;&gt;Node5 -->
<g id="edge8" class="edge">
<title>Node9&#45;&gt;Node5</title>
<path fill="none" stroke="#404040" d="M214.59,-509.6C209.55,-484.59 206.18,-447.7 221,-420 234.26,-395.23 257.68,-376.1 281.33,-361.97"/>
<polygon fill="none" stroke="#404040" points="281.37,-361.95 284.62,-355.51 291.81,-356.03 288.56,-362.47 281.37,-361.95"/>
<text text-anchor="middle" x="250.5" y="-423" font-family="Helvetica,sans-Serif" font-size="10.00"> #m_Visibility</text>
</g>
<!-- Node10 -->
<g id="node10" class="node">
<title>Node10</title>
<g id="a_node10"><a xlink:title=" ">
<polygon fill="white" stroke="#bfbfbf" points="680.5,-719.5 680.5,-776.5 715.5,-776.5 715.5,-719.5 680.5,-719.5"/>
<text text-anchor="middle" x="698" y="-764.5" font-family="Helvetica,sans-Serif" font-size="10.00">bool</text>
<polyline fill="none" stroke="#bfbfbf" points="680.5,-757.5 715.5,-757.5 "/>
<text text-anchor="middle" x="698" y="-745.5" font-family="Helvetica,sans-Serif" font-size="10.00"> </text>
<polyline fill="none" stroke="#bfbfbf" points="680.5,-738.5 715.5,-738.5 "/>
<text text-anchor="middle" x="698" y="-726.5" font-family="Helvetica,sans-Serif" font-size="10.00"> </text>
</a>
</g>
</g>
<!-- Node10&#45;&gt;Node4 -->
<g id="edge20" class="edge">
<title>Node10&#45;&gt;Node4</title>
<path fill="none" stroke="#404040" d="M702.89,-719.15C708.03,-697 718.12,-666.43 737,-646 773.78,-606.21 828.56,-579.71 874.5,-563.1"/>
<polygon fill="none" stroke="#404040" points="874.65,-563.05 878.99,-557.29 885.98,-559.08 881.63,-564.84 874.65,-563.05"/>
<text text-anchor="middle" x="785.5" y="-654.5" font-family="Helvetica,sans-Serif" font-size="10.00"> #m_NeedLayoutPass</text>
</g>
<!-- Node10&#45;&gt;Node5 -->
<g id="edge9" class="edge">
<title>Node10&#45;&gt;Node5</title>
<path fill="none" stroke="#404040" d="M703.06,-719.2C712.94,-655.02 726.81,-496.16 639,-420 580.85,-369.57 494.28,-347.35 432.21,-337.59"/>
<polygon fill="none" stroke="#404040" points="432,-337.56 425.48,-340.63 420.13,-335.8 426.66,-332.72 432,-337.56"/>
<text text-anchor="middle" x="741" y="-541.5" font-family="Helvetica,sans-Serif" font-size="10.00"> #m_Focused</text>
<text text-anchor="middle" x="741" y="-530.5" font-family="Helvetica,sans-Serif" font-size="10.00">#m_Hovered</text>
</g>
<!-- Node11 -->
<g id="node11" class="node">
<title>Node11</title>
<g id="a_node11"><a xlink:href="class_sgl_1_1_shadow.html" target="_top" xlink:title=" ">
<polygon fill="white" stroke="black" points="305.5,-477 305.5,-600 406.5,-600 406.5,-477 305.5,-477"/>
<text text-anchor="middle" x="356" y="-588" font-family="Helvetica,sans-Serif" font-size="10.00">Sgl::Shadow</text>
<polyline fill="none" stroke="black" points="305.5,-581 406.5,-581 "/>
<text text-anchor="middle" x="356" y="-569" font-family="Helvetica,sans-Serif" font-size="10.00"> </text>
<polyline fill="none" stroke="black" points="305.5,-562 406.5,-562 "/>
<text text-anchor="start" x="313.5" y="-550" font-family="Helvetica,sans-Serif" font-size="10.00">+ Shadow()</text>
<text text-anchor="start" x="313.5" y="-539" font-family="Helvetica,sans-Serif" font-size="10.00">+ ~Shadow()</text>
<text text-anchor="start" x="313.5" y="-528" font-family="Helvetica,sans-Serif" font-size="10.00">+ update()</text>
<text text-anchor="start" x="313.5" y="-517" font-family="Helvetica,sans-Serif" font-size="10.00">+ render()</text>
<text text-anchor="start" x="313.5" y="-506" font-family="Helvetica,sans-Serif" font-size="10.00">+ getTexture()</text>
<text text-anchor="start" x="313.5" y="-495" font-family="Helvetica,sans-Serif" font-size="10.00">+ getSpecification()</text>
<text text-anchor="start" x="313.5" y="-484" font-family="Helvetica,sans-Serif" font-size="10.00">+ setSpecification()</text>
</a>
</g>
</g>
<!-- Node11&#45;&gt;Node5 -->
<g id="edge10" class="edge">
<title>Node11&#45;&gt;Node5</title>
<path fill="none" stroke="#404040" d="M356,-476.92C356,-457.23 356,-435 356,-413.91"/>
<polygon fill="none" stroke="#404040" points="356,-413.65 352,-407.65 356,-401.65 360,-407.65 356,-413.65"/>
<text text-anchor="middle" x="385" y="-423" font-family="Helvetica,sans-Serif" font-size="10.00"> #m_Shadow</text>
</g>
<!-- Node12 -->
<g id="node12" class="node">
<title>Node12</title>
<g id="a_node12"><a xlink:href="class_gui_event_dispatcher.html" target="_top" xlink:title=" ">
<polygon fill="white" stroke="black" points="424.5,-471.5 424.5,-605.5 559.5,-605.5 559.5,-471.5 424.5,-471.5"/>
<text text-anchor="middle" x="492" y="-593.5" font-family="Helvetica,sans-Serif" font-size="10.00">GuiEventDispatcher</text>
<polyline fill="none" stroke="black" points="424.5,-586.5 559.5,-586.5 "/>
<text text-anchor="middle" x="492" y="-574.5" font-family="Helvetica,sans-Serif" font-size="10.00"> </text>
<polyline fill="none" stroke="black" points="424.5,-567.5 559.5,-567.5 "/>
<text text-anchor="start" x="432.5" y="-555.5" font-family="Helvetica,sans-Serif" font-size="10.00">+ ~GuiEventDispatcher()</text>
<text text-anchor="start" x="432.5" y="-544.5" font-family="Helvetica,sans-Serif" font-size="10.00">+ attachFilter()</text>
<text text-anchor="start" x="432.5" y="-533.5" font-family="Helvetica,sans-Serif" font-size="10.00">+ detachFilter()</text>
<text text-anchor="start" x="432.5" y="-522.5" font-family="Helvetica,sans-Serif" font-size="10.00">+ attachHandler()</text>
<text text-anchor="start" x="432.5" y="-511.5" font-family="Helvetica,sans-Serif" font-size="10.00">+ detachHandler()</text>
<text text-anchor="start" x="432.5" y="-500.5" font-family="Helvetica,sans-Serif" font-size="10.00">+ dispatchEvent()</text>
<text text-anchor="start" x="432.5" y="-489.5" font-family="Helvetica,sans-Serif" font-size="10.00"># dispatchCapturingEvent()</text>
<text text-anchor="start" x="432.5" y="-478.5" font-family="Helvetica,sans-Serif" font-size="10.00"># dispatchBubblingEvent()</text>
</a>
</g>
</g>
<!-- Node12&#45;&gt;Node5 -->
<g id="edge11" class="edge">
<title>Node12&#45;&gt;Node5</title>
<path fill="none" stroke="#404040" d="M450.99,-471.32C440.38,-454.49 428.88,-436.51 418,-420 416.2,-417.27 414.37,-414.5 412.5,-411.71"/>
<polygon fill="none" stroke="#404040" points="412.37,-411.51 405.7,-408.75 405.68,-401.54 412.34,-404.29 412.37,-411.51"/>
<text text-anchor="middle" x="460" y="-423" font-family="Helvetica,sans-Serif" font-size="10.00"> #m_Dispatcher</text>
</g>
<!-- Node13 -->
<g id="node13" class="node">
<title>Node13</title>
<g id="a_node13"><a xlink:title=" ">
<polygon fill="white" stroke="#bfbfbf" points="387.5,-719.5 387.5,-776.5 500.5,-776.5 500.5,-719.5 387.5,-719.5"/>
<text text-anchor="middle" x="444" y="-764.5" font-family="Helvetica,sans-Serif" font-size="10.00">Sml::EventDispatcher</text>
<polyline fill="none" stroke="#bfbfbf" points="387.5,-757.5 500.5,-757.5 "/>
<text text-anchor="middle" x="444" y="-745.5" font-family="Helvetica,sans-Serif" font-size="10.00"> </text>
<polyline fill="none" stroke="#bfbfbf" points="387.5,-738.5 500.5,-738.5 "/>
<text text-anchor="middle" x="444" y="-726.5" font-family="Helvetica,sans-Serif" font-size="10.00"> </text>
</a>
</g>
</g>
<!-- Node13&#45;&gt;Node12 -->
<g id="edge12" class="edge">
<title>Node13&#45;&gt;Node12</title>
<path fill="none" stroke="midnightblue" d="M452.7,-709.37C459.38,-680.5 468.77,-639.91 476.7,-605.65"/>
<polygon fill="none" stroke="midnightblue" points="449.22,-708.91 450.37,-719.45 456.04,-710.49 449.22,-708.91"/>
</g>
<!-- Node14 -->
<g id="node14" class="node">
<title>Node14</title>
<g id="a_node14"><a xlink:title=" ">
<polygon fill="white" stroke="#bfbfbf" points="519,-719.5 519,-776.5 567,-776.5 567,-719.5 519,-719.5"/>
<text text-anchor="middle" x="543" y="-764.5" font-family="Helvetica,sans-Serif" font-size="10.00">Notifier</text>
<polyline fill="none" stroke="#bfbfbf" points="519,-757.5 567,-757.5 "/>
<text text-anchor="middle" x="543" y="-745.5" font-family="Helvetica,sans-Serif" font-size="10.00"> </text>
<polyline fill="none" stroke="#bfbfbf" points="519,-738.5 567,-738.5 "/>
<text text-anchor="middle" x="543" y="-726.5" font-family="Helvetica,sans-Serif" font-size="10.00"> </text>
</a>
</g>
</g>
<!-- Node14&#45;&gt;Node12 -->
<g id="edge13" class="edge">
<title>Node14&#45;&gt;Node12</title>
<path fill="none" stroke="#404040" d="M536.23,-719.45C529.85,-693.5 519.99,-653.37 511.19,-617.59"/>
<polygon fill="none" stroke="#404040" points="511.12,-617.3 505.81,-612.43 508.26,-605.65 513.58,-610.52 511.12,-617.3"/>
<text text-anchor="middle" x="569" y="-660" font-family="Helvetica,sans-Serif" font-size="10.00"> #m_FiltersNotifier</text>
<text text-anchor="middle" x="569" y="-649" font-family="Helvetica,sans-Serif" font-size="10.00">#m_HandlersNotifier</text>
</g>
<!-- Node15&#45;&gt;Node5 -->
<g id="edge14" class="edge">
<title>Node15&#45;&gt;Node5</title>
<path fill="none" stroke="#404040" d="M28.86,-482.23C27.65,-460.8 30.51,-437.31 44,-420 72.98,-382.81 197.3,-355.8 279.99,-341.54"/>
<polygon fill="none" stroke="#404040" points="280.04,-341.53 285.29,-336.58 291.87,-339.53 286.62,-344.47 280.04,-341.53"/>
<text text-anchor="middle" x="69" y="-423" font-family="Helvetica,sans-Serif" font-size="10.00"> #m_Scene</text>
</g>
<!-- Node16 -->
<g id="node16" class="node">
<title>Node16</title>
<g id="a_node16"><a xlink:title=" ">
<polygon fill="white" stroke="#bfbfbf" points="577.5,-510 577.5,-567 644.5,-567 644.5,-510 577.5,-510"/>
<text text-anchor="middle" x="611" y="-555" font-family="Helvetica,sans-Serif" font-size="10.00">Rectangle&lt;</text>
<polyline fill="none" stroke="#bfbfbf" points="577.5,-548 644.5,-548 "/>
<text text-anchor="middle" x="611" y="-536" font-family="Helvetica,sans-Serif" font-size="10.00"> </text>
<polyline fill="none" stroke="#bfbfbf" points="577.5,-529 644.5,-529 "/>
<text text-anchor="middle" x="611" y="-517" font-family="Helvetica,sans-Serif" font-size="10.00"> </text>
</a>
</g>
</g>
<!-- Node16&#45;&gt;Node5 -->
<g id="edge17" class="edge">
<title>Node16&#45;&gt;Node5</title>
<path fill="none" stroke="#404040" d="M602.47,-509.77C595.56,-490.89 584.29,-466.28 568,-449 530.1,-408.79 475.53,-378.59 431.24,-358.67"/>
<polygon fill="none" stroke="#404040" points="431.21,-358.66 424.11,-359.91 420.22,-353.83 427.33,-352.58 431.21,-358.66"/>
<text text-anchor="middle" x="592.5" y="-423" font-family="Helvetica,sans-Serif" font-size="10.00"> #m_LayoutBounds</text>
</g>
<!-- Node17 -->
<g id="node17" class="node">
<title>Node17</title>
<g id="a_node17"><a xlink:title=" ">
<polygon fill="white" stroke="#bfbfbf" points="816.5,-719.5 816.5,-776.5 851.5,-776.5 851.5,-719.5 816.5,-719.5"/>
<text text-anchor="middle" x="834" y="-764.5" font-family="Helvetica,sans-Serif" font-size="10.00">list&lt;</text>
<polyline fill="none" stroke="#bfbfbf" points="816.5,-757.5 851.5,-757.5 "/>
<text text-anchor="middle" x="834" y="-745.5" font-family="Helvetica,sans-Serif" font-size="10.00"> </text>
<polyline fill="none" stroke="#bfbfbf" points="816.5,-738.5 851.5,-738.5 "/>
<text text-anchor="middle" x="834" y="-726.5" font-family="Helvetica,sans-Serif" font-size="10.00"> </text>
</a>
</g>
</g>
<!-- Node17&#45;&gt;Node4 -->
<g id="edge18" class="edge">
<title>Node17&#45;&gt;Node4</title>
<path fill="none" stroke="#404040" d="M831.96,-719.4C831.55,-698.24 833.56,-668.87 845,-646 852.98,-630.06 864.39,-615.28 876.94,-602.11"/>
<polygon fill="none" stroke="#404040" points="877.3,-601.75 878.71,-594.67 885.78,-593.26 884.37,-600.33 877.3,-601.75"/>
<text text-anchor="middle" x="874" y="-654.5" font-family="Helvetica,sans-Serif" font-size="10.00"> #m_Children</text>
</g>
<!-- Node18 -->
<g id="node18" class="node">
<title>Node18</title>
<g id="a_node18"><a xlink:title=" ">
<polygon fill="white" stroke="#bfbfbf" points="870,-719.5 870,-776.5 926,-776.5 926,-719.5 870,-719.5"/>
<text text-anchor="middle" x="898" y="-764.5" font-family="Helvetica,sans-Serif" font-size="10.00">Texture *</text>
<polyline fill="none" stroke="#bfbfbf" points="870,-757.5 926,-757.5 "/>
<text text-anchor="middle" x="898" y="-745.5" font-family="Helvetica,sans-Serif" font-size="10.00"> </text>
<polyline fill="none" stroke="#bfbfbf" points="870,-738.5 926,-738.5 "/>
<text text-anchor="middle" x="898" y="-726.5" font-family="Helvetica,sans-Serif" font-size="10.00"> </text>
</a>
</g>
</g>
<!-- Node18&#45;&gt;Node4 -->
<g id="edge19" class="edge">
<title>Node18&#45;&gt;Node4</title>
<path fill="none" stroke="#404040" d="M899.77,-719.14C901.58,-698.61 905.13,-670.18 912,-646 912.64,-643.74 913.32,-641.47 914.04,-639.18"/>
<polygon fill="none" stroke="#404040" points="914.06,-639.11 912.17,-632.15 917.87,-627.73 919.76,-634.69 914.06,-639.11"/>
<text text-anchor="middle" x="944" y="-654.5" font-family="Helvetica,sans-Serif" font-size="10.00"> #m_Snapshot</text>
</g>
<!-- Node19 -->
<g id="node19" class="node">
<title>Node19</title>
<g id="a_node19"><a xlink:href="class_sgl_1_1_background.html" target="_top" xlink:title=" ">
<polygon fill="white" stroke="black" points="1467.5,-686.5 1467.5,-809.5 1556.5,-809.5 1556.5,-686.5 1467.5,-686.5"/>
<text text-anchor="middle" x="1512" y="-797.5" font-family="Helvetica,sans-Serif" font-size="10.00">Sgl::Background</text>
<polyline fill="none" stroke="black" points="1467.5,-790.5 1556.5,-790.5 "/>
<text text-anchor="middle" x="1512" y="-778.5" font-family="Helvetica,sans-Serif" font-size="10.00"> </text>
<polyline fill="none" stroke="black" points="1467.5,-771.5 1556.5,-771.5 "/>
<text text-anchor="start" x="1475.5" y="-759.5" font-family="Helvetica,sans-Serif" font-size="10.00">+ Background()</text>
<text text-anchor="start" x="1475.5" y="-748.5" font-family="Helvetica,sans-Serif" font-size="10.00">+ Background()</text>
<text text-anchor="start" x="1475.5" y="-737.5" font-family="Helvetica,sans-Serif" font-size="10.00">+ Background()</text>
<text text-anchor="start" x="1475.5" y="-726.5" font-family="Helvetica,sans-Serif" font-size="10.00">+ Background()</text>
<text text-anchor="start" x="1475.5" y="-715.5" font-family="Helvetica,sans-Serif" font-size="10.00">+ addFill()</text>
<text text-anchor="start" x="1475.5" y="-704.5" font-family="Helvetica,sans-Serif" font-size="10.00">and 5 more...</text>
<text text-anchor="start" x="1475.5" y="-693.5" font-family="Helvetica,sans-Serif" font-size="10.00">+ fillArea()</text>
</a>
</g>
</g>
<!-- Node19&#45;&gt;Node3 -->
<g id="edge30" class="edge">
<title>Node19&#45;&gt;Node3</title>
<path fill="none" stroke="#404040" d="M1511.68,-686.47C1508.95,-618 1497.17,-504.99 1452,-420 1446.07,-408.84 1438.4,-398.04 1430.11,-388.02"/>
<polygon fill="none" stroke="#404040" points="1429.87,-387.74 1422.92,-385.83 1422.01,-378.68 1428.96,-380.59 1429.87,-387.74"/>
<text text-anchor="middle" x="1573.5" y="-536" font-family="Helvetica,sans-Serif" font-size="10.00"> +DEFAULT_BACKGROUND</text>
</g>
<!-- Node19&#45;&gt;Node4 -->
<g id="edge21" class="edge">
<title>Node19&#45;&gt;Node4</title>
<path fill="none" stroke="#404040" d="M1467.34,-700.24C1445.61,-680.32 1417.95,-658.77 1389,-646 1381,-642.47 1167.17,-590.16 1044.13,-560.2"/>
<polygon fill="none" stroke="#404040" points="1043.81,-560.12 1037.03,-562.58 1032.15,-557.28 1038.93,-554.81 1043.81,-560.12"/>
<text text-anchor="middle" x="1463" y="-654.5" font-family="Helvetica,sans-Serif" font-size="10.00"> #m_Background</text>
</g>
<!-- Node20 -->
<g id="node20" class="node">
<title>Node20</title>
<g id="a_node20"><a xlink:href="class_sgl_1_1_border.html" target="_top" xlink:title=" ">
<polygon fill="white" stroke="black" points="944,-692 944,-804 1034,-804 1034,-692 944,-692"/>
<text text-anchor="middle" x="989" y="-792" font-family="Helvetica,sans-Serif" font-size="10.00">Sgl::Border</text>
<polyline fill="none" stroke="black" points="944,-785 1034,-785 "/>
<text text-anchor="middle" x="989" y="-773" font-family="Helvetica,sans-Serif" font-size="10.00"> </text>
<polyline fill="none" stroke="black" points="944,-766 1034,-766 "/>
<text text-anchor="start" x="952" y="-754" font-family="Helvetica,sans-Serif" font-size="10.00">+ Border()</text>
<text text-anchor="start" x="952" y="-743" font-family="Helvetica,sans-Serif" font-size="10.00">+ Border()</text>
<text text-anchor="start" x="952" y="-732" font-family="Helvetica,sans-Serif" font-size="10.00">+ Border()</text>
<text text-anchor="start" x="952" y="-721" font-family="Helvetica,sans-Serif" font-size="10.00">+ getThickness()</text>
<text text-anchor="start" x="952" y="-710" font-family="Helvetica,sans-Serif" font-size="10.00">+ getColor()</text>
<text text-anchor="start" x="952" y="-699" font-family="Helvetica,sans-Serif" font-size="10.00">+ encloseArea()</text>
</a>
</g>
</g>
<!-- Node20&#45;&gt;Node4 -->
<g id="edge22" class="edge">
<title>Node20&#45;&gt;Node4</title>
<path fill="none" stroke="#404040" d="M985.15,-691.84C983.82,-676.92 982.11,-660.81 980,-646 979.71,-643.95 979.4,-641.88 979.08,-639.79"/>
<polygon fill="none" stroke="#404040" points="979.05,-639.56 974.14,-634.27 977.14,-627.71 982.04,-633 979.05,-639.56"/>
<text text-anchor="middle" x="1008.5" y="-654.5" font-family="Helvetica,sans-Serif" font-size="10.00"> #m_Border</text>
</g>
<!-- Node21&#45;&gt;Node4 -->
<g id="edge23" class="edge">
<title>Node21&#45;&gt;Node4</title>
<path fill="none" stroke="#404040" d="M1064.43,-691.91C1056.35,-676.77 1047.2,-660.53 1038,-646 1036.27,-643.27 1034.49,-640.52 1032.68,-637.75"/>
<polygon fill="none" stroke="#404040" points="1032.63,-637.69 1025.97,-634.93 1025.96,-627.72 1032.62,-630.48 1032.63,-637.69"/>
<text text-anchor="middle" x="1080" y="-654.5" font-family="Helvetica,sans-Serif" font-size="10.00"> #m_Padding</text>
</g>
<!-- Node21&#45;&gt;Node21 -->
<g id="edge24" class="edge">
<title>Node21&#45;&gt;Node21</title>
<path fill="none" stroke="#404040" d="M1131.51,-764.7C1141.76,-763.67 1149.5,-758.11 1149.5,-748 1149.5,-742.31 1147.05,-738.07 1143.08,-735.25"/>
<polygon fill="none" stroke="#404040" points="1142.86,-735.18 1135.89,-737.02 1131.51,-731.3 1138.48,-729.45 1142.86,-735.18"/>
<text text-anchor="middle" x="1171.5" y="-745.5" font-family="Helvetica,sans-Serif" font-size="10.00"> +EMPTY</text>
</g>
<!-- Node22 -->
<g id="node22" class="node">
<title>Node22</title>
<g id="a_node22"><a xlink:href="class_sgl_1_1_color_fill.html" target="_top" xlink:title=" ">
<polygon fill="white" stroke="black" points="1331.5,-482.5 1331.5,-594.5 1404.5,-594.5 1404.5,-482.5 1331.5,-482.5"/>
<text text-anchor="middle" x="1368" y="-582.5" font-family="Helvetica,sans-Serif" font-size="10.00">Sgl::ColorFill</text>
<polyline fill="none" stroke="black" points="1331.5,-575.5 1404.5,-575.5 "/>
<text text-anchor="middle" x="1368" y="-563.5" font-family="Helvetica,sans-Serif" font-size="10.00"> </text>
<polyline fill="none" stroke="black" points="1331.5,-556.5 1404.5,-556.5 "/>
<text text-anchor="start" x="1339.5" y="-544.5" font-family="Helvetica,sans-Serif" font-size="10.00">+ ColorFill()</text>
<text text-anchor="start" x="1339.5" y="-533.5" font-family="Helvetica,sans-Serif" font-size="10.00">+ fillLine()</text>
<text text-anchor="start" x="1339.5" y="-522.5" font-family="Helvetica,sans-Serif" font-size="10.00">+ fillArea()</text>
<text text-anchor="start" x="1339.5" y="-511.5" font-family="Helvetica,sans-Serif" font-size="10.00">+ fillPoint()</text>
<text text-anchor="start" x="1339.5" y="-500.5" font-family="Helvetica,sans-Serif" font-size="10.00">+ getColor()</text>
<text text-anchor="start" x="1339.5" y="-489.5" font-family="Helvetica,sans-Serif" font-size="10.00">+ setColor()</text>
</a>
</g>
</g>
<!-- Node22&#45;&gt;Node3 -->
<g id="edge27" class="edge">
<title>Node22&#45;&gt;Node3</title>
<path fill="none" stroke="#404040" d="M1368,-482.44C1368,-454.62 1368,-420.76 1368,-392.02"/>
<polygon fill="none" stroke="#404040" points="1368,-391.64 1364,-385.64 1368,-379.64 1372,-385.64 1368,-391.64"/>
<text text-anchor="middle" x="1408" y="-423" font-family="Helvetica,sans-Serif" font-size="10.00"> +DEFAULT_FILL</text>
</g>
<!-- Node23 -->
<g id="node23" class="node">
<title>Node23</title>
<g id="a_node23"><a xlink:href="class_sgl_1_1_fill.html" target="_top" xlink:title=" ">
<polygon fill="white" stroke="black" points="1376,-708.5 1376,-787.5 1440,-787.5 1440,-708.5 1376,-708.5"/>
<text text-anchor="middle" x="1408" y="-775.5" font-family="Helvetica,sans-Serif" font-size="10.00">Sgl::Fill</text>
<polyline fill="none" stroke="black" points="1376,-768.5 1440,-768.5 "/>
<text text-anchor="middle" x="1408" y="-756.5" font-family="Helvetica,sans-Serif" font-size="10.00"> </text>
<polyline fill="none" stroke="black" points="1376,-749.5 1440,-749.5 "/>
<text text-anchor="start" x="1384" y="-737.5" font-family="Helvetica,sans-Serif" font-size="10.00">+ fillLine()</text>
<text text-anchor="start" x="1384" y="-726.5" font-family="Helvetica,sans-Serif" font-size="10.00">+ fillArea()</text>
<text text-anchor="start" x="1384" y="-715.5" font-family="Helvetica,sans-Serif" font-size="10.00">+ fillPoint()</text>
</a>
</g>
</g>
<!-- Node23&#45;&gt;Node22 -->
<g id="edge28" class="edge">
<title>Node23&#45;&gt;Node22</title>
<path fill="none" stroke="midnightblue" d="M1398.61,-698.3C1392.62,-667.24 1384.85,-626.91 1378.63,-594.66"/>
<polygon fill="none" stroke="midnightblue" points="1395.24,-699.3 1400.57,-708.46 1402.11,-697.98 1395.24,-699.3"/>
</g>
<!-- Node24 -->
<g id="node24" class="node">
<title>Node24</title>
<g id="a_node24"><a xlink:title=" ">
<polygon fill="white" stroke="#bfbfbf" points="1318,-719.5 1318,-776.5 1358,-776.5 1358,-719.5 1318,-719.5"/>
<text text-anchor="middle" x="1338" y="-764.5" font-family="Helvetica,sans-Serif" font-size="10.00">Color</text>
<polyline fill="none" stroke="#bfbfbf" points="1318,-757.5 1358,-757.5 "/>
<text text-anchor="middle" x="1338" y="-745.5" font-family="Helvetica,sans-Serif" font-size="10.00"> </text>
<polyline fill="none" stroke="#bfbfbf" points="1318,-738.5 1358,-738.5 "/>
<text text-anchor="middle" x="1338" y="-726.5" font-family="Helvetica,sans-Serif" font-size="10.00"> </text>
</a>
</g>
</g>
<!-- Node24&#45;&gt;Node22 -->
<g id="edge29" class="edge">
<title>Node24&#45;&gt;Node22</title>
<path fill="none" stroke="#404040" d="M1336.38,-719.43C1335.64,-699.04 1335.58,-670.66 1339,-646 1340.79,-633.07 1343.69,-619.47 1346.97,-606.49"/>
<polygon fill="none" stroke="#404040" points="1347,-606.37 1344.67,-599.54 1350.07,-594.77 1352.4,-601.59 1347,-606.37"/>
<text text-anchor="middle" x="1362" y="-654.5" font-family="Helvetica,sans-Serif" font-size="10.00"> #m_Color</text>
</g>
</g>
</svg>
        <g id="navigator" transform="translate(0 0)" fill="#404254">
                <rect fill="#f2f5e9" fill-opacity="0.5" stroke="#606060" stroke-width=".5" x="0" y="0" width="60" height="60"/>
                <use id="zoomplus" xlink:href="#zoomPlus" x="17" y="9" onmousedown="handleZoom(evt,'in')"/>
                <use id="zoomminus" xlink:href="#zoomMin" x="42" y="9" onmousedown="handleZoom(evt,'out')"/>
                <use id="reset" xlink:href="#resetDef" x="30" y="36" onmousedown="handleReset()"/>
                <g id="arrowUp" xlink:href="#dirArrow" transform="translate(30 24)" onmousedown="handlePan(0,-1)">
                  <use xlink:href="#rim" fill="#404040">
                        <set attributeName="fill" to="#808080" begin="arrowUp.mouseover" end="arrowUp.mouseout"/>
                  </use>
                  <path fill="none" stroke="white" stroke-width="1.5" d="M0,-3.0v7 M-2.5,-0.5L0,-3.0L2.5,-0.5"/>
                </g>
                <g id="arrowRight" xlink:href="#dirArrow" transform="rotate(90) translate(36 -43)" onmousedown="handlePan(1,0)">
                  <use xlink:href="#rim" fill="#404040">
                        <set attributeName="fill" to="#808080" begin="arrowRight.mouseover" end="arrowRight.mouseout"/>
                  </use>
                  <path fill="none" stroke="white" stroke-width="1.5" d="M0,-3.0v7 M-2.5,-0.5L0,-3.0L2.5,-0.5"/>
                </g>
                <g id="arrowDown" xlink:href="#dirArrow" transform="rotate(180) translate(-30 -48)" onmousedown="handlePan(0,1)">
                  <use xlink:href="#rim" fill="#404040">
                        <set attributeName="fill" to="#808080" begin="arrowDown.mouseover" end="arrowDown.mouseout"/>
                  </use>
                  <path fill="none" stroke="white" stroke-width="1.5" d="M0,-3.0v7 M-2.5,-0.5L0,-3.0L2.5,-0.5"/>
                </g>
                <g id="arrowLeft" xlink:href="#dirArrow" transform="rotate(270) translate(-36 17)" onmousedown="handlePan(-1,0)">
                  <use xlink:href="#rim" fill="#404040">
                        <set attributeName="fill" to="#808080" begin="arrowLeft.mouseover" end="arrowLeft.mouseout"/>
                  </use>
                  <path fill="none" stroke="white" stroke-width="1.5" d="M0,-3.0v7 M-2.5,-0.5L0,-3.0L2.5,-0.5"/>
                </g>
        </g>
        <svg viewBox="0 0 15 15" width="100%" height="30px" preserveAspectRatio="xMaxYMin meet">
         <g id="arrow_out" transform="scale(0.3 0.3)">
          <a xlink:href="class_sgl_1_1_v_box__coll__graph_org.svg" target="_base">
           <rect id="button" ry="5" rx="5" y="6" x="6" height="38" width="38"
                fill="#f2f5e9" fill-opacity="0.5" stroke="#606060" stroke-width="1.0"/>
           <path id="arrow"
             d="M 11.500037,31.436501 C 11.940474,20.09759 22.043105,11.32322 32.158766,21.979434 L 37.068811,17.246167 C 37.068811,17.246167 37.088388,32 37.088388,32 L 22.160133,31.978069 C 22.160133,31.978069 26.997745,27.140456 26.997745,27.140456 C 18.528582,18.264221 13.291696,25.230495 11.500037,31.436501 z"
             style="fill:#404040;"/>
          </a>
         </g>
        </svg>
</svg>
