<?xml version="1.0" encoding="UTF-8" standalone="no"?>
<!DOCTYPE svg PUBLIC "-//W3C//DTD SVG 1.1//EN"
 "http://www.w3.org/Graphics/SVG/1.1/DTD/svg11.dtd">
<!-- Generated by graphviz version 2.50.0 (20211204.2007)
 -->
<!-- Title: Sgl::ContextMenu Pages: 1 -->
<svg width="1545pt" height="1170pt"
 viewBox="0.00 0.00 1545.00 1170.00" xmlns="http://www.w3.org/2000/svg" xmlns:xlink="http://www.w3.org/1999/xlink">
<g id="graph0" class="graph" transform="scale(1 1) rotate(0) translate(4 1166)">
<title>Sgl::ContextMenu</title>
<polygon fill="white" stroke="transparent" points="-4,4 -4,-1166 1541,-1166 1541,4 -4,4"/>
<!-- Node1 -->
<g id="node1" class="node">
<title>Node1</title>
<g id="a_node1"><a xlink:title=" ">
<polygon fill="#bfbfbf" stroke="black" points="1178,-0.5 1178,-112.5 1274,-112.5 1274,-0.5 1178,-0.5"/>
<text text-anchor="middle" x="1226" y="-100.5" font-family="Helvetica,sans-Serif" font-size="10.00">Sgl::ContextMenu</text>
<polyline fill="none" stroke="black" points="1178,-93.5 1274,-93.5 "/>
<text text-anchor="middle" x="1226" y="-81.5" font-family="Helvetica,sans-Serif" font-size="10.00"> </text>
<polyline fill="none" stroke="black" points="1178,-74.5 1274,-74.5 "/>
<text text-anchor="start" x="1186" y="-62.5" font-family="Helvetica,sans-Serif" font-size="10.00">+ ContextMenu()</text>
<text text-anchor="start" x="1186" y="-51.5" font-family="Helvetica,sans-Serif" font-size="10.00">+ ~ContextMenu()</text>
<text text-anchor="start" x="1186" y="-40.5" font-family="Helvetica,sans-Serif" font-size="10.00">+ render()</text>
<text text-anchor="start" x="1186" y="-29.5" font-family="Helvetica,sans-Serif" font-size="10.00">+ getSource()</text>
<text text-anchor="start" x="1186" y="-18.5" font-family="Helvetica,sans-Serif" font-size="10.00">+ setSource()</text>
<text text-anchor="start" x="1186" y="-7.5" font-family="Helvetica,sans-Serif" font-size="10.00">and 4 more...</text>
</a>
</g>
</g>
<!-- Node2 -->
<g id="node2" class="node">
<title>Node2</title>
<g id="a_node2"><a xlink:href="class_sgl_1_1_v_box.html" target="_top" xlink:title=" ">
<polygon fill="white" stroke="black" points="1237,-182.5 1237,-250.5 1299,-250.5 1299,-182.5 1237,-182.5"/>
<text text-anchor="middle" x="1268" y="-238.5" font-family="Helvetica,sans-Serif" font-size="10.00">Sgl::VBox</text>
<polyline fill="none" stroke="black" points="1237,-231.5 1299,-231.5 "/>
<text text-anchor="middle" x="1268" y="-219.5" font-family="Helvetica,sans-Serif" font-size="10.00"> </text>
<polyline fill="none" stroke="black" points="1237,-212.5 1299,-212.5 "/>
<text text-anchor="start" x="1245" y="-200.5" font-family="Helvetica,sans-Serif" font-size="10.00">+ VBox()</text>
<text text-anchor="start" x="1245" y="-189.5" font-family="Helvetica,sans-Serif" font-size="10.00">+ ~VBox()</text>
</a>
</g>
</g>
<!-- Node2&#45;&gt;Node1 -->
<g id="edge1" class="edge">
<title>Node2&#45;&gt;Node1</title>
<path fill="none" stroke="midnightblue" d="M1256.57,-172.51C1251.67,-154.06 1245.88,-132.28 1240.66,-112.66"/>
<polygon fill="none" stroke="midnightblue" points="1253.24,-173.61 1259.2,-182.38 1260.01,-171.81 1253.24,-173.61"/>
</g>
<!-- Node3 -->
<g id="node3" class="node">
<title>Node3</title>
<g id="a_node3"><a xlink:href="class_sgl_1_1_box_container.html" target="_top" xlink:title="Basic list&#45;like container which lays out children in a line one after another.">
<polygon fill="white" stroke="black" points="1238.5,-310.5 1238.5,-422.5 1335.5,-422.5 1335.5,-310.5 1238.5,-310.5"/>
<text text-anchor="middle" x="1287" y="-410.5" font-family="Helvetica,sans-Serif" font-size="10.00">Sgl::BoxContainer</text>
<polyline fill="none" stroke="black" points="1238.5,-403.5 1335.5,-403.5 "/>
<text text-anchor="middle" x="1287" y="-391.5" font-family="Helvetica,sans-Serif" font-size="10.00"> </text>
<polyline fill="none" stroke="black" points="1238.5,-384.5 1335.5,-384.5 "/>
<text text-anchor="start" x="1246.5" y="-372.5" font-family="Helvetica,sans-Serif" font-size="10.00">+ BoxContainer()</text>
<text text-anchor="start" x="1246.5" y="-361.5" font-family="Helvetica,sans-Serif" font-size="10.00">+ BoxContainer()</text>
<text text-anchor="start" x="1246.5" y="-350.5" font-family="Helvetica,sans-Serif" font-size="10.00">+ ~BoxContainer()</text>
<text text-anchor="start" x="1246.5" y="-339.5" font-family="Helvetica,sans-Serif" font-size="10.00">+ getDirection()</text>
<text text-anchor="start" x="1246.5" y="-328.5" font-family="Helvetica,sans-Serif" font-size="10.00">+ setDirection()</text>
<text text-anchor="start" x="1246.5" y="-317.5" font-family="Helvetica,sans-Serif" font-size="10.00">and 8 more...</text>
</a>
</g>
</g>
<!-- Node3&#45;&gt;Node2 -->
<g id="edge2" class="edge">
<title>Node3&#45;&gt;Node2</title>
<path fill="none" stroke="midnightblue" d="M1278.64,-300.39C1276.44,-283.23 1274.15,-265.42 1272.27,-250.73"/>
<polygon fill="none" stroke="midnightblue" points="1275.18,-300.92 1279.93,-310.39 1282.12,-300.03 1275.18,-300.92"/>
</g>
<!-- Node4 -->
<g id="node4" class="node">
<title>Node4</title>
<g id="a_node4"><a xlink:href="class_sgl_1_1_container.html" target="_top" xlink:title=" ">
<polygon fill="white" stroke="black" points="1230,-492.5 1230,-593.5 1338,-593.5 1338,-492.5 1230,-492.5"/>
<text text-anchor="middle" x="1284" y="-581.5" font-family="Helvetica,sans-Serif" font-size="10.00">Sgl::Container</text>
<polyline fill="none" stroke="black" points="1230,-574.5 1338,-574.5 "/>
<text text-anchor="middle" x="1284" y="-562.5" font-family="Helvetica,sans-Serif" font-size="10.00"> </text>
<polyline fill="none" stroke="black" points="1230,-555.5 1338,-555.5 "/>
<text text-anchor="start" x="1238" y="-543.5" font-family="Helvetica,sans-Serif" font-size="10.00">+ Container()</text>
<text text-anchor="start" x="1238" y="-532.5" font-family="Helvetica,sans-Serif" font-size="10.00">+ ~Container()</text>
<text text-anchor="start" x="1238" y="-521.5" font-family="Helvetica,sans-Serif" font-size="10.00">+ getHitComponent()</text>
<text text-anchor="start" x="1238" y="-510.5" font-family="Helvetica,sans-Serif" font-size="10.00">+ render()</text>
<text text-anchor="start" x="1238" y="-499.5" font-family="Helvetica,sans-Serif" font-size="10.00"># prerenderSelf()</text>
</a>
</g>
</g>
<!-- Node4&#45;&gt;Node3 -->
<g id="edge3" class="edge">
<title>Node4&#45;&gt;Node3</title>
<path fill="none" stroke="midnightblue" d="M1323.72,-483.15C1328.78,-473.13 1333.17,-462.54 1336,-452 1338.68,-442.01 1337.3,-431.98 1333.64,-422.5"/>
<polygon fill="none" stroke="midnightblue" points="1320.52,-481.7 1318.91,-492.17 1326.7,-484.99 1320.52,-481.7"/>
</g>
<!-- Node5 -->
<g id="node5" class="node">
<title>Node5</title>
<g id="a_node5"><a xlink:href="class_sgl_1_1_parent.html" target="_top" xlink:title=" ">
<polygon fill="white" stroke="black" points="819,-663.5 819,-841.5 965,-841.5 965,-663.5 819,-663.5"/>
<text text-anchor="middle" x="892" y="-829.5" font-family="Helvetica,sans-Serif" font-size="10.00">Sgl::Parent</text>
<polyline fill="none" stroke="black" points="819,-822.5 965,-822.5 "/>
<text text-anchor="middle" x="892" y="-810.5" font-family="Helvetica,sans-Serif" font-size="10.00"> </text>
<polyline fill="none" stroke="black" points="819,-803.5 965,-803.5 "/>
<text text-anchor="start" x="827" y="-791.5" font-family="Helvetica,sans-Serif" font-size="10.00">+ Parent()</text>
<text text-anchor="start" x="827" y="-780.5" font-family="Helvetica,sans-Serif" font-size="10.00">+ ~Parent()</text>
<text text-anchor="start" x="827" y="-769.5" font-family="Helvetica,sans-Serif" font-size="10.00">+ getHitComponent()</text>
<text text-anchor="start" x="827" y="-758.5" font-family="Helvetica,sans-Serif" font-size="10.00">+ render()</text>
<text text-anchor="start" x="827" y="-747.5" font-family="Helvetica,sans-Serif" font-size="10.00">+ layout()</text>
<text text-anchor="start" x="827" y="-736.5" font-family="Helvetica,sans-Serif" font-size="10.00">and 39 more...</text>
<text text-anchor="start" x="827" y="-725.5" font-family="Helvetica,sans-Serif" font-size="10.00"># setSceneInSceneTree()</text>
<text text-anchor="start" x="827" y="-714.5" font-family="Helvetica,sans-Serif" font-size="10.00"># layoutChildren()</text>
<text text-anchor="start" x="827" y="-703.5" font-family="Helvetica,sans-Serif" font-size="10.00"># prerenderSelf()</text>
<text text-anchor="start" x="827" y="-692.5" font-family="Helvetica,sans-Serif" font-size="10.00"># updateSnapshotSize()</text>
<text text-anchor="start" x="827" y="-681.5" font-family="Helvetica,sans-Serif" font-size="10.00"># computeCustomPrefWidth()</text>
<text text-anchor="start" x="827" y="-670.5" font-family="Helvetica,sans-Serif" font-size="10.00">and 5 more...</text>
</a>
</g>
</g>
<!-- Node5&#45;&gt;Node4 -->
<g id="edge4" class="edge">
<title>Node5&#45;&gt;Node4</title>
<path fill="none" stroke="midnightblue" d="M973.43,-663.35C973.62,-663.24 973.81,-663.12 974,-663 997.63,-648.27 1007.73,-654.22 1034,-645 1102.46,-620.96 1179.67,-589.01 1229.93,-567.53"/>
<polygon fill="none" stroke="midnightblue" points="971.37,-660.53 965.06,-669.04 975.3,-666.32 971.37,-660.53"/>
</g>
<!-- Node6 -->
<g id="node6" class="node">
<title>Node6</title>
<g id="a_node6"><a xlink:href="class_sgl_1_1_component.html" target="_top" xlink:title=" ">
<polygon fill="white" stroke="black" points="577,-470.5 577,-615.5 705,-615.5 705,-470.5 577,-470.5"/>
<text text-anchor="middle" x="641" y="-603.5" font-family="Helvetica,sans-Serif" font-size="10.00">Sgl::Component</text>
<polyline fill="none" stroke="black" points="577,-596.5 705,-596.5 "/>
<text text-anchor="middle" x="641" y="-584.5" font-family="Helvetica,sans-Serif" font-size="10.00"> </text>
<polyline fill="none" stroke="black" points="577,-577.5 705,-577.5 "/>
<text text-anchor="start" x="585" y="-565.5" font-family="Helvetica,sans-Serif" font-size="10.00">+ Component()</text>
<text text-anchor="start" x="585" y="-554.5" font-family="Helvetica,sans-Serif" font-size="10.00">+ ~Component()</text>
<text text-anchor="start" x="585" y="-543.5" font-family="Helvetica,sans-Serif" font-size="10.00">+ getHitComponent()</text>
<text text-anchor="start" x="585" y="-532.5" font-family="Helvetica,sans-Serif" font-size="10.00">+ render()</text>
<text text-anchor="start" x="585" y="-521.5" font-family="Helvetica,sans-Serif" font-size="10.00">+ layout()</text>
<text text-anchor="start" x="585" y="-510.5" font-family="Helvetica,sans-Serif" font-size="10.00">and 42 more...</text>
<text text-anchor="start" x="585" y="-499.5" font-family="Helvetica,sans-Serif" font-size="10.00"># updateShadow()</text>
<text text-anchor="start" x="585" y="-488.5" font-family="Helvetica,sans-Serif" font-size="10.00"># renderShadow()</text>
<text text-anchor="start" x="585" y="-477.5" font-family="Helvetica,sans-Serif" font-size="10.00"># setSceneInSceneTree()</text>
</a>
</g>
</g>
<!-- Node5&#45;&gt;Node6 -->
<g id="edge17" class="edge">
<title>Node5&#45;&gt;Node6</title>
<path fill="none" stroke="#404040" d="M823.48,-663.35C813.76,-652.94 803.48,-642.88 793,-634 769.65,-614.23 741.42,-596.2 715.66,-581.56"/>
<polygon fill="none" stroke="#404040" points="715.64,-581.55 708.46,-582.12 705.17,-575.71 712.36,-575.14 715.64,-581.55"/>
<text text-anchor="middle" x="828.5" y="-637" font-family="Helvetica,sans-Serif" font-size="10.00"> #m_Parent</text>
</g>
<!-- Node6&#45;&gt;Node5 -->
<g id="edge5" class="edge">
<title>Node6&#45;&gt;Node5</title>
<path fill="none" stroke="midnightblue" d="M713.56,-590.68C744.08,-611.5 779.32,-637.13 809,-663 812.18,-665.77 815.36,-668.64 818.54,-671.59"/>
<polygon fill="none" stroke="midnightblue" points="715.33,-587.65 705.09,-584.94 711.4,-593.45 715.33,-587.65"/>
</g>
<!-- Node7 -->
<g id="node7" class="node">
<title>Node7</title>
<g id="a_node7"><a xlink:title=" ">
<polygon fill="white" stroke="#bfbfbf" points="573,-933.5 573,-990.5 665,-990.5 665,-933.5 573,-933.5"/>
<text text-anchor="middle" x="619" y="-978.5" font-family="Helvetica,sans-Serif" font-size="10.00">Sml::EventTarget</text>
<polyline fill="none" stroke="#bfbfbf" points="573,-971.5 665,-971.5 "/>
<text text-anchor="middle" x="619" y="-959.5" font-family="Helvetica,sans-Serif" font-size="10.00"> </text>
<polyline fill="none" stroke="#bfbfbf" points="573,-952.5 665,-952.5 "/>
<text text-anchor="middle" x="619" y="-940.5" font-family="Helvetica,sans-Serif" font-size="10.00"> </text>
</a>
</g>
</g>
<!-- Node7&#45;&gt;Node6 -->
<g id="edge6" class="edge">
<title>Node7&#45;&gt;Node6</title>
<path fill="none" stroke="midnightblue" d="M600.52,-923.82C595.03,-910.91 589.75,-896.12 587,-882 582.43,-858.56 554.55,-840.46 592,-663 595.32,-647.26 600.65,-630.96 606.6,-615.66"/>
<polygon fill="none" stroke="midnightblue" points="597.46,-925.57 604.71,-933.29 603.86,-922.73 597.46,-925.57"/>
</g>
<!-- Node16 -->
<g id="node16" class="node">
<title>Node16</title>
<g id="a_node16"><a xlink:href="class_sgl_1_1_scene.html" target="_top" xlink:title=" ">
<polygon fill="white" stroke="black" points="601,-696.5 601,-808.5 681,-808.5 681,-696.5 601,-696.5"/>
<text text-anchor="middle" x="641" y="-796.5" font-family="Helvetica,sans-Serif" font-size="10.00">Sgl::Scene</text>
<polyline fill="none" stroke="black" points="601,-789.5 681,-789.5 "/>
<text text-anchor="middle" x="641" y="-777.5" font-family="Helvetica,sans-Serif" font-size="10.00"> </text>
<polyline fill="none" stroke="black" points="601,-770.5 681,-770.5 "/>
<text text-anchor="start" x="609" y="-758.5" font-family="Helvetica,sans-Serif" font-size="10.00">+ Scene()</text>
<text text-anchor="start" x="609" y="-747.5" font-family="Helvetica,sans-Serif" font-size="10.00">+ Scene()</text>
<text text-anchor="start" x="609" y="-736.5" font-family="Helvetica,sans-Serif" font-size="10.00">+ ~Scene()</text>
<text text-anchor="start" x="609" y="-725.5" font-family="Helvetica,sans-Serif" font-size="10.00">+ update()</text>
<text text-anchor="start" x="609" y="-714.5" font-family="Helvetica,sans-Serif" font-size="10.00">+ render()</text>
<text text-anchor="start" x="609" y="-703.5" font-family="Helvetica,sans-Serif" font-size="10.00">and 17 more...</text>
</a>
</g>
</g>
<!-- Node7&#45;&gt;Node16 -->
<g id="edge16" class="edge">
<title>Node7&#45;&gt;Node16</title>
<path fill="none" stroke="midnightblue" d="M660.79,-926.86C673.06,-917.59 686.74,-907.93 700,-900 716.38,-890.2 728.71,-898.08 739,-882 744.27,-873.76 744.6,-868.02 739,-860 725.72,-840.98 707.62,-857.1 690,-842 679.33,-832.86 670.55,-820.79 663.51,-808.51"/>
<polygon fill="none" stroke="midnightblue" points="658.35,-924.33 652.55,-933.19 662.62,-929.88 658.35,-924.33"/>
</g>
<!-- Node8 -->
<g id="node8" class="node">
<title>Node8</title>
<g id="a_node8"><a xlink:title=" ">
<polygon fill="white" stroke="#bfbfbf" points="83,-1104.5 83,-1161.5 129,-1161.5 129,-1104.5 83,-1104.5"/>
<text text-anchor="middle" x="106" y="-1149.5" font-family="Helvetica,sans-Serif" font-size="10.00">int32_t</text>
<polyline fill="none" stroke="#bfbfbf" points="83,-1142.5 129,-1142.5 "/>
<text text-anchor="middle" x="106" y="-1130.5" font-family="Helvetica,sans-Serif" font-size="10.00"> </text>
<polyline fill="none" stroke="#bfbfbf" points="83,-1123.5 129,-1123.5 "/>
<text text-anchor="middle" x="106" y="-1111.5" font-family="Helvetica,sans-Serif" font-size="10.00"> </text>
</a>
</g>
</g>
<!-- Node8&#45;&gt;Node5 -->
<g id="edge27" class="edge">
<title>Node8&#45;&gt;Node5</title>
<path fill="none" stroke="#404040" d="M129.07,-1130.4C224.36,-1123.39 586.35,-1092.58 674,-1024 721.77,-986.62 692.45,-946.83 731,-900 739.7,-889.43 744.98,-890.12 756,-882 779.75,-864.49 787.05,-861.72 809,-842 809.31,-841.72 809.62,-841.44 809.93,-841.17"/>
<polygon fill="none" stroke="#404040" points="810.11,-841 811.78,-833.99 818.9,-832.84 817.22,-839.85 810.11,-841"/>
<text text-anchor="middle" x="766" y="-987" font-family="Helvetica,sans-Serif" font-size="10.00"> #m_MaxHeight</text>
<text text-anchor="middle" x="766" y="-976" font-family="Helvetica,sans-Serif" font-size="10.00">#m_MaxWidth</text>
<text text-anchor="middle" x="766" y="-965" font-family="Helvetica,sans-Serif" font-size="10.00">#m_MinHeight</text>
<text text-anchor="middle" x="766" y="-954" font-family="Helvetica,sans-Serif" font-size="10.00">#m_MinWidth</text>
<text text-anchor="middle" x="766" y="-943" font-family="Helvetica,sans-Serif" font-size="10.00">#m_PrefHeight</text>
<text text-anchor="middle" x="766" y="-932" font-family="Helvetica,sans-Serif" font-size="10.00">#m_PrefWidth</text>
</g>
<!-- Node8&#45;&gt;Node6 -->
<g id="edge7" class="edge">
<title>Node8&#45;&gt;Node6</title>
<path fill="none" stroke="#404040" d="M89.42,-1104.27C77.78,-1083.1 63.22,-1052.78 57,-1024 45.35,-970.13 37.27,-951.46 57,-900 107.69,-767.76 153.24,-743.15 270,-663 360.7,-600.73 485.91,-569.55 565.17,-555.09"/>
<polygon fill="none" stroke="#404040" points="565.18,-555.09 570.39,-550.1 577,-552.99 571.79,-557.98 565.18,-555.09"/>
<text text-anchor="middle" x="133" y="-874" font-family="Helvetica,sans-Serif" font-size="10.00"> +UNLIMITED_SIZE</text>
<text text-anchor="middle" x="133" y="-863" font-family="Helvetica,sans-Serif" font-size="10.00">+USE_COMPUTED_SIZE</text>
</g>
<!-- Node22 -->
<g id="node22" class="node">
<title>Node22</title>
<g id="a_node22"><a xlink:href="struct_sgl_1_1_insets.html" target="_top" xlink:title=" ">
<polygon fill="white" stroke="black" points="66.5,-906 66.5,-1018 145.5,-1018 145.5,-906 66.5,-906"/>
<text text-anchor="middle" x="106" y="-1006" font-family="Helvetica,sans-Serif" font-size="10.00">Sgl::Insets</text>
<polyline fill="none" stroke="black" points="66.5,-999 145.5,-999 "/>
<text text-anchor="middle" x="106" y="-987" font-family="Helvetica,sans-Serif" font-size="10.00"> </text>
<polyline fill="none" stroke="black" points="66.5,-980 145.5,-980 "/>
<text text-anchor="start" x="74.5" y="-968" font-family="Helvetica,sans-Serif" font-size="10.00">+ Insets()</text>
<text text-anchor="start" x="74.5" y="-957" font-family="Helvetica,sans-Serif" font-size="10.00">+ Insets()</text>
<text text-anchor="start" x="74.5" y="-946" font-family="Helvetica,sans-Serif" font-size="10.00">+ Insets()</text>
<text text-anchor="start" x="74.5" y="-935" font-family="Helvetica,sans-Serif" font-size="10.00">+ Insets()</text>
<text text-anchor="start" x="74.5" y="-924" font-family="Helvetica,sans-Serif" font-size="10.00">+ operator+=()</text>
<text text-anchor="start" x="74.5" y="-913" font-family="Helvetica,sans-Serif" font-size="10.00">+ operator&#45;=()</text>
</a>
</g>
</g>
<!-- Node8&#45;&gt;Node22 -->
<g id="edge26" class="edge">
<title>Node8&#45;&gt;Node22</title>
<path fill="none" stroke="#404040" d="M106,-1104.47C106,-1084.37 106,-1056.21 106,-1030.3"/>
<polygon fill="none" stroke="#404040" points="106,-1030.2 102,-1024.2 106,-1018.2 110,-1024.2 106,-1030.2"/>
<text text-anchor="middle" x="126" y="-1078" font-family="Helvetica,sans-Serif" font-size="10.00"> +bottom</text>
<text text-anchor="middle" x="126" y="-1067" font-family="Helvetica,sans-Serif" font-size="10.00">+left</text>
<text text-anchor="middle" x="126" y="-1056" font-family="Helvetica,sans-Serif" font-size="10.00">+right</text>
<text text-anchor="middle" x="126" y="-1045" font-family="Helvetica,sans-Serif" font-size="10.00">+top</text>
</g>
<!-- Node9 -->
<g id="node9" class="node">
<title>Node9</title>
<g id="a_node9"><a xlink:title=" ">
<polygon fill="white" stroke="#bfbfbf" points="279.5,-724 279.5,-781 320.5,-781 320.5,-724 279.5,-724"/>
<text text-anchor="middle" x="300" y="-769" font-family="Helvetica,sans-Serif" font-size="10.00">friend</text>
<polyline fill="none" stroke="#bfbfbf" points="279.5,-762 320.5,-762 "/>
<text text-anchor="middle" x="300" y="-750" font-family="Helvetica,sans-Serif" font-size="10.00"> </text>
<polyline fill="none" stroke="#bfbfbf" points="279.5,-743 320.5,-743 "/>
<text text-anchor="middle" x="300" y="-731" font-family="Helvetica,sans-Serif" font-size="10.00"> </text>
</a>
</g>
</g>
<!-- Node9&#45;&gt;Node6 -->
<g id="edge8" class="edge">
<title>Node9&#45;&gt;Node6</title>
<path fill="none" stroke="#404040" d="M304.29,-723.82C308.26,-705.2 315.65,-680.88 329,-663 342.58,-644.83 350.7,-644.13 371,-634 433.6,-602.75 509.56,-578.53 564.95,-563.13"/>
<polygon fill="none" stroke="#404040" points="565.22,-563.06 569.95,-557.61 576.79,-559.88 572.06,-565.33 565.22,-563.06"/>
<text text-anchor="middle" x="389.5" y="-637" font-family="Helvetica,sans-Serif" font-size="10.00"> +Scene</text>
</g>
<!-- Node10 -->
<g id="node10" class="node">
<title>Node10</title>
<g id="a_node10"><a xlink:title=" ">
<polygon fill="white" stroke="#bfbfbf" points="338.5,-724 338.5,-781 391.5,-781 391.5,-724 338.5,-724"/>
<text text-anchor="middle" x="365" y="-769" font-family="Helvetica,sans-Serif" font-size="10.00">Visibility</text>
<polyline fill="none" stroke="#bfbfbf" points="338.5,-762 391.5,-762 "/>
<text text-anchor="middle" x="365" y="-750" font-family="Helvetica,sans-Serif" font-size="10.00"> </text>
<polyline fill="none" stroke="#bfbfbf" points="338.5,-743 391.5,-743 "/>
<text text-anchor="middle" x="365" y="-731" font-family="Helvetica,sans-Serif" font-size="10.00"> </text>
</a>
</g>
</g>
<!-- Node10&#45;&gt;Node6 -->
<g id="edge9" class="edge">
<title>Node10&#45;&gt;Node6</title>
<path fill="none" stroke="#404040" d="M370.84,-723.91C378.08,-696.74 393.16,-656.19 422,-634 464.47,-601.32 520.47,-578.59 565.21,-564.14"/>
<polygon fill="none" stroke="#404040" points="565.46,-564.06 569.99,-558.45 576.91,-560.47 572.39,-566.08 565.46,-564.06"/>
<text text-anchor="middle" x="451.5" y="-637" font-family="Helvetica,sans-Serif" font-size="10.00"> #m_Visibility</text>
</g>
<!-- Node11 -->
<g id="node11" class="node">
<title>Node11</title>
<g id="a_node11"><a xlink:title=" ">
<polygon fill="white" stroke="#bfbfbf" points="1017.5,-933.5 1017.5,-990.5 1052.5,-990.5 1052.5,-933.5 1017.5,-933.5"/>
<text text-anchor="middle" x="1035" y="-978.5" font-family="Helvetica,sans-Serif" font-size="10.00">bool</text>
<polyline fill="none" stroke="#bfbfbf" points="1017.5,-971.5 1052.5,-971.5 "/>
<text text-anchor="middle" x="1035" y="-959.5" font-family="Helvetica,sans-Serif" font-size="10.00"> </text>
<polyline fill="none" stroke="#bfbfbf" points="1017.5,-952.5 1052.5,-952.5 "/>
<text text-anchor="middle" x="1035" y="-940.5" font-family="Helvetica,sans-Serif" font-size="10.00"> </text>
</a>
</g>
</g>
<!-- Node11&#45;&gt;Node5 -->
<g id="edge21" class="edge">
<title>Node11&#45;&gt;Node5</title>
<path fill="none" stroke="#404040" d="M1017.36,-935.77C1006.55,-920.28 992.44,-900.02 980,-882 973.26,-872.24 966.24,-862.05 959.25,-851.86"/>
<polygon fill="none" stroke="#404040" points="959.06,-851.59 952.36,-848.91 952.27,-841.69 958.96,-844.38 959.06,-851.59"/>
<text text-anchor="middle" x="1028.5" y="-868.5" font-family="Helvetica,sans-Serif" font-size="10.00"> #m_NeedLayoutPass</text>
</g>
<!-- Node11&#45;&gt;Node6 -->
<g id="edge10" class="edge">
<title>Node11&#45;&gt;Node6</title>
<path fill="none" stroke="#404040" d="M1052.61,-935.62C1061.85,-920.73 1072.23,-901.14 1077,-882 1104.06,-773.46 1129.82,-691.73 1034,-634 935.1,-574.41 800.48,-554.25 717.23,-547.44"/>
<polygon fill="none" stroke="#404040" points="717.05,-547.43 710.76,-550.96 705.08,-546.52 711.37,-542.98 717.05,-547.43"/>
<text text-anchor="middle" x="1132" y="-755.5" font-family="Helvetica,sans-Serif" font-size="10.00"> #m_Focused</text>
<text text-anchor="middle" x="1132" y="-744.5" font-family="Helvetica,sans-Serif" font-size="10.00">#m_Hovered</text>
</g>
<!-- Node12 -->
<g id="node12" class="node">
<title>Node12</title>
<g id="a_node12"><a xlink:href="class_sgl_1_1_shadow.html" target="_top" xlink:title=" ">
<polygon fill="white" stroke="black" points="699.5,-691 699.5,-814 800.5,-814 800.5,-691 699.5,-691"/>
<text text-anchor="middle" x="750" y="-802" font-family="Helvetica,sans-Serif" font-size="10.00">Sgl::Shadow</text>
<polyline fill="none" stroke="black" points="699.5,-795 800.5,-795 "/>
<text text-anchor="middle" x="750" y="-783" font-family="Helvetica,sans-Serif" font-size="10.00"> </text>
<polyline fill="none" stroke="black" points="699.5,-776 800.5,-776 "/>
<text text-anchor="start" x="707.5" y="-764" font-family="Helvetica,sans-Serif" font-size="10.00">+ Shadow()</text>
<text text-anchor="start" x="707.5" y="-753" font-family="Helvetica,sans-Serif" font-size="10.00">+ ~Shadow()</text>
<text text-anchor="start" x="707.5" y="-742" font-family="Helvetica,sans-Serif" font-size="10.00">+ update()</text>
<text text-anchor="start" x="707.5" y="-731" font-family="Helvetica,sans-Serif" font-size="10.00">+ render()</text>
<text text-anchor="start" x="707.5" y="-720" font-family="Helvetica,sans-Serif" font-size="10.00">+ getTexture()</text>
<text text-anchor="start" x="707.5" y="-709" font-family="Helvetica,sans-Serif" font-size="10.00">+ getSpecification()</text>
<text text-anchor="start" x="707.5" y="-698" font-family="Helvetica,sans-Serif" font-size="10.00">+ setSpecification()</text>
</a>
</g>
</g>
<!-- Node12&#45;&gt;Node6 -->
<g id="edge11" class="edge">
<title>Node12&#45;&gt;Node6</title>
<path fill="none" stroke="#404040" d="M723.05,-690.84C714.47,-672.39 704.68,-652.19 695,-634 693.66,-631.49 692.29,-628.95 690.89,-626.4"/>
<polygon fill="none" stroke="#404040" points="690.84,-626.31 684.42,-623.03 684.99,-615.84 691.41,-619.12 690.84,-626.31"/>
<text text-anchor="middle" x="729" y="-637" font-family="Helvetica,sans-Serif" font-size="10.00"> #m_Shadow</text>
</g>
<!-- Node13 -->
<g id="node13" class="node">
<title>Node13</title>
<g id="a_node13"><a xlink:href="class_gui_event_dispatcher.html" target="_top" xlink:title=" ">
<polygon fill="white" stroke="black" points="409.5,-685.5 409.5,-819.5 544.5,-819.5 544.5,-685.5 409.5,-685.5"/>
<text text-anchor="middle" x="477" y="-807.5" font-family="Helvetica,sans-Serif" font-size="10.00">GuiEventDispatcher</text>
<polyline fill="none" stroke="black" points="409.5,-800.5 544.5,-800.5 "/>
<text text-anchor="middle" x="477" y="-788.5" font-family="Helvetica,sans-Serif" font-size="10.00"> </text>
<polyline fill="none" stroke="black" points="409.5,-781.5 544.5,-781.5 "/>
<text text-anchor="start" x="417.5" y="-769.5" font-family="Helvetica,sans-Serif" font-size="10.00">+ ~GuiEventDispatcher()</text>
<text text-anchor="start" x="417.5" y="-758.5" font-family="Helvetica,sans-Serif" font-size="10.00">+ attachFilter()</text>
<text text-anchor="start" x="417.5" y="-747.5" font-family="Helvetica,sans-Serif" font-size="10.00">+ detachFilter()</text>
<text text-anchor="start" x="417.5" y="-736.5" font-family="Helvetica,sans-Serif" font-size="10.00">+ attachHandler()</text>
<text text-anchor="start" x="417.5" y="-725.5" font-family="Helvetica,sans-Serif" font-size="10.00">+ detachHandler()</text>
<text text-anchor="start" x="417.5" y="-714.5" font-family="Helvetica,sans-Serif" font-size="10.00">+ dispatchEvent()</text>
<text text-anchor="start" x="417.5" y="-703.5" font-family="Helvetica,sans-Serif" font-size="10.00"># dispatchCapturingEvent()</text>
<text text-anchor="start" x="417.5" y="-692.5" font-family="Helvetica,sans-Serif" font-size="10.00"># dispatchBubblingEvent()</text>
</a>
</g>
</g>
<!-- Node13&#45;&gt;Node6 -->
<g id="edge12" class="edge">
<title>Node13&#45;&gt;Node6</title>
<path fill="none" stroke="#404040" d="M473.19,-685.44C474.87,-667.62 479.33,-649.12 489,-634 506.95,-605.94 537.03,-585.48 565.72,-571.24"/>
<polygon fill="none" stroke="#404040" points="565.77,-571.21 569.48,-565.03 576.62,-566.08 572.91,-572.26 565.77,-571.21"/>
<text text-anchor="middle" x="524" y="-637" font-family="Helvetica,sans-Serif" font-size="10.00"> #m_Dispatcher</text>
</g>
<!-- Node14 -->
<g id="node14" class="node">
<title>Node14</title>
<g id="a_node14"><a xlink:title=" ">
<polygon fill="white" stroke="#bfbfbf" points="225.5,-933.5 225.5,-990.5 338.5,-990.5 338.5,-933.5 225.5,-933.5"/>
<text text-anchor="middle" x="282" y="-978.5" font-family="Helvetica,sans-Serif" font-size="10.00">Sml::EventDispatcher</text>
<polyline fill="none" stroke="#bfbfbf" points="225.5,-971.5 338.5,-971.5 "/>
<text text-anchor="middle" x="282" y="-959.5" font-family="Helvetica,sans-Serif" font-size="10.00"> </text>
<polyline fill="none" stroke="#bfbfbf" points="225.5,-952.5 338.5,-952.5 "/>
<text text-anchor="middle" x="282" y="-940.5" font-family="Helvetica,sans-Serif" font-size="10.00"> </text>
</a>
</g>
</g>
<!-- Node14&#45;&gt;Node13 -->
<g id="edge13" class="edge">
<title>Node14&#45;&gt;Node13</title>
<path fill="none" stroke="midnightblue" d="M318.06,-925.84C341.75,-902.46 373.2,-870.85 400,-842 406.65,-834.84 413.52,-827.25 420.28,-819.65"/>
<polygon fill="none" stroke="midnightblue" points="315.33,-923.62 310.66,-933.13 320.24,-928.61 315.33,-923.62"/>
</g>
<!-- Node15 -->
<g id="node15" class="node">
<title>Node15</title>
<g id="a_node15"><a xlink:title=" ">
<polygon fill="white" stroke="#bfbfbf" points="465,-933.5 465,-990.5 513,-990.5 513,-933.5 465,-933.5"/>
<text text-anchor="middle" x="489" y="-978.5" font-family="Helvetica,sans-Serif" font-size="10.00">Notifier</text>
<polyline fill="none" stroke="#bfbfbf" points="465,-971.5 513,-971.5 "/>
<text text-anchor="middle" x="489" y="-959.5" font-family="Helvetica,sans-Serif" font-size="10.00"> </text>
<polyline fill="none" stroke="#bfbfbf" points="465,-952.5 513,-952.5 "/>
<text text-anchor="middle" x="489" y="-940.5" font-family="Helvetica,sans-Serif" font-size="10.00"> </text>
</a>
</g>
</g>
<!-- Node15&#45;&gt;Node13 -->
<g id="edge14" class="edge">
<title>Node15&#45;&gt;Node13</title>
<path fill="none" stroke="#404040" d="M480.16,-933.17C475.85,-918.18 471.15,-899.27 469,-882 467,-865.92 466.77,-848.63 467.47,-832.12"/>
<polygon fill="none" stroke="#404040" points="467.5,-831.66 463.85,-825.44 468.18,-819.68 471.83,-825.89 467.5,-831.66"/>
<text text-anchor="middle" x="514" y="-874" font-family="Helvetica,sans-Serif" font-size="10.00"> #m_FiltersNotifier</text>
<text text-anchor="middle" x="514" y="-863" font-family="Helvetica,sans-Serif" font-size="10.00">#m_HandlersNotifier</text>
</g>
<!-- Node16&#45;&gt;Node6 -->
<g id="edge15" class="edge">
<title>Node16&#45;&gt;Node6</title>
<path fill="none" stroke="#404040" d="M641,-696.44C641,-675.47 641,-651.08 641,-628.03"/>
<polygon fill="none" stroke="#404040" points="641,-627.76 637,-621.76 641,-615.76 645,-621.76 641,-627.76"/>
<text text-anchor="middle" x="666" y="-637" font-family="Helvetica,sans-Serif" font-size="10.00"> #m_Scene</text>
</g>
<!-- Node17 -->
<g id="node17" class="node">
<title>Node17</title>
<g id="a_node17"><a xlink:title=" ">
<polygon fill="white" stroke="#bfbfbf" points="983.5,-724 983.5,-781 1050.5,-781 1050.5,-724 983.5,-724"/>
<text text-anchor="middle" x="1017" y="-769" font-family="Helvetica,sans-Serif" font-size="10.00">Rectangle&lt;</text>
<polyline fill="none" stroke="#bfbfbf" points="983.5,-762 1050.5,-762 "/>
<text text-anchor="middle" x="1017" y="-750" font-family="Helvetica,sans-Serif" font-size="10.00"> </text>
<polyline fill="none" stroke="#bfbfbf" points="983.5,-743 1050.5,-743 "/>
<text text-anchor="middle" x="1017" y="-731" font-family="Helvetica,sans-Serif" font-size="10.00"> </text>
</a>
</g>
</g>
<!-- Node17&#45;&gt;Node6 -->
<g id="edge18" class="edge">
<title>Node17&#45;&gt;Node6</title>
<path fill="none" stroke="#404040" d="M1009.62,-723.7C1003.16,-704.29 991.93,-679.08 974,-663 901.36,-597.88 790.6,-567.75 717.02,-554.27"/>
<polygon fill="none" stroke="#404040" points="716.91,-554.25 710.31,-557.15 705.1,-552.17 711.7,-549.27 716.91,-554.25"/>
<text text-anchor="middle" x="987.5" y="-637" font-family="Helvetica,sans-Serif" font-size="10.00"> #m_LayoutBounds</text>
</g>
<!-- Node18 -->
<g id="node18" class="node">
<title>Node18</title>
<g id="a_node18"><a xlink:title=" ">
<polygon fill="white" stroke="#bfbfbf" points="810.5,-933.5 810.5,-990.5 845.5,-990.5 845.5,-933.5 810.5,-933.5"/>
<text text-anchor="middle" x="828" y="-978.5" font-family="Helvetica,sans-Serif" font-size="10.00">list&lt;</text>
<polyline fill="none" stroke="#bfbfbf" points="810.5,-971.5 845.5,-971.5 "/>
<text text-anchor="middle" x="828" y="-959.5" font-family="Helvetica,sans-Serif" font-size="10.00"> </text>
<polyline fill="none" stroke="#bfbfbf" points="810.5,-952.5 845.5,-952.5 "/>
<text text-anchor="middle" x="828" y="-940.5" font-family="Helvetica,sans-Serif" font-size="10.00"> </text>
</a>
</g>
</g>
<!-- Node18&#45;&gt;Node5 -->
<g id="edge19" class="edge">
<title>Node18&#45;&gt;Node5</title>
<path fill="none" stroke="#404040" d="M824.87,-933.45C823.4,-912.83 823.23,-884.15 830,-860 830.68,-857.59 831.42,-855.17 832.23,-852.76"/>
<polygon fill="none" stroke="#404040" points="832.23,-852.75 830.57,-845.74 836.41,-841.51 838.07,-848.52 832.23,-852.75"/>
<text text-anchor="middle" x="859" y="-868.5" font-family="Helvetica,sans-Serif" font-size="10.00"> #m_Children</text>
</g>
<!-- Node19 -->
<g id="node19" class="node">
<title>Node19</title>
<g id="a_node19"><a xlink:title=" ">
<polygon fill="white" stroke="#bfbfbf" points="864,-933.5 864,-990.5 920,-990.5 920,-933.5 864,-933.5"/>
<text text-anchor="middle" x="892" y="-978.5" font-family="Helvetica,sans-Serif" font-size="10.00">Texture *</text>
<polyline fill="none" stroke="#bfbfbf" points="864,-971.5 920,-971.5 "/>
<text text-anchor="middle" x="892" y="-959.5" font-family="Helvetica,sans-Serif" font-size="10.00"> </text>
<polyline fill="none" stroke="#bfbfbf" points="864,-952.5 920,-952.5 "/>
<text text-anchor="middle" x="892" y="-940.5" font-family="Helvetica,sans-Serif" font-size="10.00"> </text>
</a>
</g>
</g>
<!-- Node19&#45;&gt;Node5 -->
<g id="edge20" class="edge">
<title>Node19&#45;&gt;Node5</title>
<path fill="none" stroke="#404040" d="M892,-933.45C892,-912.81 892,-883.2 892,-853.95"/>
<polygon fill="none" stroke="#404040" points="892,-853.9 888,-847.9 892,-841.9 896,-847.9 892,-853.9"/>
<text text-anchor="middle" x="924" y="-868.5" font-family="Helvetica,sans-Serif" font-size="10.00"> #m_Snapshot</text>
</g>
<!-- Node20 -->
<g id="node20" class="node">
<title>Node20</title>
<g id="a_node20"><a xlink:href="class_sgl_1_1_background.html" target="_top" xlink:title=" ">
<polygon fill="white" stroke="black" points="1168.5,-900.5 1168.5,-1023.5 1257.5,-1023.5 1257.5,-900.5 1168.5,-900.5"/>
<text text-anchor="middle" x="1213" y="-1011.5" font-family="Helvetica,sans-Serif" font-size="10.00">Sgl::Background</text>
<polyline fill="none" stroke="black" points="1168.5,-1004.5 1257.5,-1004.5 "/>
<text text-anchor="middle" x="1213" y="-992.5" font-family="Helvetica,sans-Serif" font-size="10.00"> </text>
<polyline fill="none" stroke="black" points="1168.5,-985.5 1257.5,-985.5 "/>
<text text-anchor="start" x="1176.5" y="-973.5" font-family="Helvetica,sans-Serif" font-size="10.00">+ Background()</text>
<text text-anchor="start" x="1176.5" y="-962.5" font-family="Helvetica,sans-Serif" font-size="10.00">+ Background()</text>
<text text-anchor="start" x="1176.5" y="-951.5" font-family="Helvetica,sans-Serif" font-size="10.00">+ Background()</text>
<text text-anchor="start" x="1176.5" y="-940.5" font-family="Helvetica,sans-Serif" font-size="10.00">+ Background()</text>
<text text-anchor="start" x="1176.5" y="-929.5" font-family="Helvetica,sans-Serif" font-size="10.00">+ addFill()</text>
<text text-anchor="start" x="1176.5" y="-918.5" font-family="Helvetica,sans-Serif" font-size="10.00">and 5 more...</text>
<text text-anchor="start" x="1176.5" y="-907.5" font-family="Helvetica,sans-Serif" font-size="10.00">+ fillArea()</text>
</a>
</g>
</g>
<!-- Node20&#45;&gt;Node1 -->
<g id="edge35" class="edge">
<title>Node20&#45;&gt;Node1</title>
<path fill="none" stroke="#404040" d="M1209.68,-900.47C1206.45,-836.05 1202,-731.11 1202,-640.5 1202,-640.5 1202,-640.5 1202,-215.5 1202,-185.53 1206.27,-152.72 1211.21,-124.81"/>
<polygon fill="none" stroke="#404040" points="1211.26,-124.56 1208.41,-117.93 1213.44,-112.76 1216.28,-119.39 1211.26,-124.56"/>
<text text-anchor="middle" x="1268.5" y="-444" font-family="Helvetica,sans-Serif" font-size="10.00"> +DEFAULT_BACKGROUND</text>
</g>
<!-- Node20&#45;&gt;Node4 -->
<g id="edge31" class="edge">
<title>Node20&#45;&gt;Node4</title>
<path fill="none" stroke="#404040" d="M1223.99,-900.22C1225.04,-894.07 1226.06,-887.91 1227,-882 1242.47,-784.92 1240.61,-759.75 1258,-663 1261.38,-644.22 1265.6,-623.89 1269.66,-605.44"/>
<polygon fill="none" stroke="#404040" points="1269.68,-605.34 1267.08,-598.62 1272.29,-593.63 1274.89,-600.35 1269.68,-605.34"/>
<text text-anchor="middle" x="1324.5" y="-750" font-family="Helvetica,sans-Serif" font-size="10.00"> +DEFAULT_BACKGROUND</text>
</g>
<!-- Node20&#45;&gt;Node5 -->
<g id="edge22" class="edge">
<title>Node20&#45;&gt;Node5</title>
<path fill="none" stroke="#404040" d="M1168.31,-917.97C1144.26,-897.24 1113.02,-873.91 1081,-860 1040.05,-842.21 1019.58,-861.57 975.99,-842.1"/>
<polygon fill="none" stroke="#404040" points="975.77,-841.99 968.62,-842.89 965.04,-836.63 972.19,-835.73 975.77,-841.99"/>
<text text-anchor="middle" x="1158" y="-868.5" font-family="Helvetica,sans-Serif" font-size="10.00"> #m_Background</text>
</g>
<!-- Node21 -->
<g id="node21" class="node">
<title>Node21</title>
<g id="a_node21"><a xlink:href="class_sgl_1_1_border.html" target="_top" xlink:title=" ">
<polygon fill="white" stroke="black" points="357,-906 357,-1018 447,-1018 447,-906 357,-906"/>
<text text-anchor="middle" x="402" y="-1006" font-family="Helvetica,sans-Serif" font-size="10.00">Sgl::Border</text>
<polyline fill="none" stroke="black" points="357,-999 447,-999 "/>
<text text-anchor="middle" x="402" y="-987" font-family="Helvetica,sans-Serif" font-size="10.00"> </text>
<polyline fill="none" stroke="black" points="357,-980 447,-980 "/>
<text text-anchor="start" x="365" y="-968" font-family="Helvetica,sans-Serif" font-size="10.00">+ Border()</text>
<text text-anchor="start" x="365" y="-957" font-family="Helvetica,sans-Serif" font-size="10.00">+ Border()</text>
<text text-anchor="start" x="365" y="-946" font-family="Helvetica,sans-Serif" font-size="10.00">+ Border()</text>
<text text-anchor="start" x="365" y="-935" font-family="Helvetica,sans-Serif" font-size="10.00">+ getThickness()</text>
<text text-anchor="start" x="365" y="-924" font-family="Helvetica,sans-Serif" font-size="10.00">+ getColor()</text>
<text text-anchor="start" x="365" y="-913" font-family="Helvetica,sans-Serif" font-size="10.00">+ encloseArea()</text>
</a>
</g>
</g>
<!-- Node21&#45;&gt;Node1 -->
<g id="edge33" class="edge">
<title>Node21&#45;&gt;Node1</title>
<path fill="none" stroke="#404040" d="M356.78,-909.38C353.54,-906.14 350.26,-902.98 347,-900 315.4,-871.07 290.9,-879.4 270,-842 226.12,-763.48 251,-730.45 251,-640.5 251,-640.5 251,-640.5 251,-215.5 251,-122.35 953.47,-73.5 1165.88,-60.85"/>
<polygon fill="none" stroke="#404040" points="1166,-60.85 1171.76,-56.5 1177.98,-60.14 1172.23,-64.49 1166,-60.85"/>
<text text-anchor="middle" x="303" y="-444" font-family="Helvetica,sans-Serif" font-size="10.00"> +DEFAULT_BORDER</text>
</g>
<!-- Node21&#45;&gt;Node5 -->
<g id="edge23" class="edge">
<title>Node21&#45;&gt;Node5</title>
<path fill="none" stroke="#404040" d="M446.49,-905.76C449.54,-903.6 452.71,-901.65 456,-900 497.64,-879.05 619.92,-893.89 665,-882 687.69,-876.02 690.63,-867.1 713,-860 751.14,-847.89 768.19,-860.54 808.12,-841.56"/>
<polygon fill="none" stroke="#404040" points="808.14,-841.55 811.63,-835.24 818.79,-836.02 815.31,-842.34 808.14,-841.55"/>
<text text-anchor="middle" x="738.5" y="-868.5" font-family="Helvetica,sans-Serif" font-size="10.00"> #m_Border</text>
</g>
<!-- Node22&#45;&gt;Node1 -->
<g id="edge32" class="edge">
<title>Node22&#45;&gt;Node1</title>
<path fill="none" stroke="#404040" d="M66.23,-914.54C36.15,-874.58 0,-813.98 0,-753.5 0,-753.5 0,-753.5 0,-215.5 0,-96.58 919.03,-65.14 1165.69,-58.85"/>
<polygon fill="none" stroke="#404040" points="1165.94,-58.84 1171.84,-54.69 1177.94,-58.54 1172.04,-62.69 1165.94,-58.84"/>
<text text-anchor="middle" x="53" y="-444" font-family="Helvetica,sans-Serif" font-size="10.00"> +DEFAULT_PADDING</text>
</g>
<!-- Node22&#45;&gt;Node5 -->
<g id="edge24" class="edge">
<title>Node22&#45;&gt;Node5</title>
<path fill="none" stroke="#404040" d="M145.58,-933.28C165.71,-920.73 191.12,-907.13 216,-900 364.45,-857.46 414.47,-924.28 563,-882 582.51,-876.44 583.59,-865.9 603,-860 687.33,-834.38 723.34,-878.28 807.65,-841.76"/>
<polygon fill="none" stroke="#404040" points="807.86,-841.67 811.62,-835.51 818.74,-836.62 814.98,-842.77 807.86,-841.67"/>
<text text-anchor="middle" x="632" y="-868.5" font-family="Helvetica,sans-Serif" font-size="10.00"> #m_Padding</text>
</g>
<!-- Node22&#45;&gt;Node22 -->
<g id="edge25" class="edge">
<title>Node22&#45;&gt;Node22</title>
<path fill="none" stroke="#404040" d="M145.51,-978.7C155.76,-977.67 163.5,-972.11 163.5,-962 163.5,-956.31 161.05,-952.07 157.08,-949.25"/>
<polygon fill="none" stroke="#404040" points="156.86,-949.18 149.89,-951.02 145.51,-945.3 152.48,-943.45 156.86,-949.18"/>
<text text-anchor="middle" x="185.5" y="-959.5" font-family="Helvetica,sans-Serif" font-size="10.00"> +EMPTY</text>
</g>
<!-- Node23 -->
<g id="node23" class="node">
<title>Node23</title>
<g id="a_node23"><a xlink:href="class_sgl_1_1_color_fill.html" target="_top" xlink:title=" ">
<polygon fill="white" stroke="black" points="1399.5,-696.5 1399.5,-808.5 1472.5,-808.5 1472.5,-696.5 1399.5,-696.5"/>
<text text-anchor="middle" x="1436" y="-796.5" font-family="Helvetica,sans-Serif" font-size="10.00">Sgl::ColorFill</text>
<polyline fill="none" stroke="black" points="1399.5,-789.5 1472.5,-789.5 "/>
<text text-anchor="middle" x="1436" y="-777.5" font-family="Helvetica,sans-Serif" font-size="10.00"> </text>
<polyline fill="none" stroke="black" points="1399.5,-770.5 1472.5,-770.5 "/>
<text text-anchor="start" x="1407.5" y="-758.5" font-family="Helvetica,sans-Serif" font-size="10.00">+ ColorFill()</text>
<text text-anchor="start" x="1407.5" y="-747.5" font-family="Helvetica,sans-Serif" font-size="10.00">+ fillLine()</text>
<text text-anchor="start" x="1407.5" y="-736.5" font-family="Helvetica,sans-Serif" font-size="10.00">+ fillArea()</text>
<text text-anchor="start" x="1407.5" y="-725.5" font-family="Helvetica,sans-Serif" font-size="10.00">+ fillPoint()</text>
<text text-anchor="start" x="1407.5" y="-714.5" font-family="Helvetica,sans-Serif" font-size="10.00">+ getColor()</text>
<text text-anchor="start" x="1407.5" y="-703.5" font-family="Helvetica,sans-Serif" font-size="10.00">+ setColor()</text>
</a>
</g>
</g>
<!-- Node23&#45;&gt;Node1 -->
<g id="edge34" class="edge">
<title>Node23&#45;&gt;Node1</title>
<path fill="none" stroke="#404040" d="M1412.16,-696.26C1396.54,-655.09 1379,-597.05 1379,-544 1379,-544 1379,-544 1379,-215.5 1379,-159.06 1327.99,-115.12 1284.88,-88.06"/>
<polygon fill="none" stroke="#404040" points="1284.67,-87.94 1277.47,-88.25 1274.41,-81.72 1281.61,-81.41 1284.67,-87.94"/>
<text text-anchor="middle" x="1458" y="-364" font-family="Helvetica,sans-Serif" font-size="10.00"> +DEFAULT_BACKGROUND_FILL</text>
</g>
<!-- Node23&#45;&gt;Node4 -->
<g id="edge28" class="edge">
<title>Node23&#45;&gt;Node4</title>
<path fill="none" stroke="#404040" d="M1414.1,-696.48C1406.63,-683.75 1397.04,-671.47 1385,-663 1348.06,-637.02 1314.14,-679.5 1285,-645 1275.86,-634.17 1272.39,-620.11 1271.92,-605.94"/>
<polygon fill="none" stroke="#404040" points="1271.93,-605.54 1268.07,-599.44 1272.21,-593.54 1276.07,-599.64 1271.93,-605.54"/>
<text text-anchor="middle" x="1325" y="-637" font-family="Helvetica,sans-Serif" font-size="10.00"> +DEFAULT_FILL</text>
</g>
<!-- Node24 -->
<g id="node24" class="node">
<title>Node24</title>
<g id="a_node24"><a xlink:href="class_sgl_1_1_fill.html" target="_top" xlink:title=" ">
<polygon fill="white" stroke="black" points="1439,-922.5 1439,-1001.5 1503,-1001.5 1503,-922.5 1439,-922.5"/>
<text text-anchor="middle" x="1471" y="-989.5" font-family="Helvetica,sans-Serif" font-size="10.00">Sgl::Fill</text>
<polyline fill="none" stroke="black" points="1439,-982.5 1503,-982.5 "/>
<text text-anchor="middle" x="1471" y="-970.5" font-family="Helvetica,sans-Serif" font-size="10.00"> </text>
<polyline fill="none" stroke="black" points="1439,-963.5 1503,-963.5 "/>
<text text-anchor="start" x="1447" y="-951.5" font-family="Helvetica,sans-Serif" font-size="10.00">+ fillLine()</text>
<text text-anchor="start" x="1447" y="-940.5" font-family="Helvetica,sans-Serif" font-size="10.00">+ fillArea()</text>
<text text-anchor="start" x="1447" y="-929.5" font-family="Helvetica,sans-Serif" font-size="10.00">+ fillPoint()</text>
</a>
</g>
</g>
<!-- Node24&#45;&gt;Node23 -->
<g id="edge29" class="edge">
<title>Node24&#45;&gt;Node23</title>
<path fill="none" stroke="midnightblue" d="M1462.79,-912.3C1457.55,-881.24 1450.74,-840.91 1445.3,-808.66"/>
<polygon fill="none" stroke="midnightblue" points="1459.38,-913.18 1464.5,-922.46 1466.29,-912.01 1459.38,-913.18"/>
</g>
<!-- Node25 -->
<g id="node25" class="node">
<title>Node25</title>
<g id="a_node25"><a xlink:title=" ">
<polygon fill="white" stroke="#bfbfbf" points="1381,-933.5 1381,-990.5 1421,-990.5 1421,-933.5 1381,-933.5"/>
<text text-anchor="middle" x="1401" y="-978.5" font-family="Helvetica,sans-Serif" font-size="10.00">Color</text>
<polyline fill="none" stroke="#bfbfbf" points="1381,-971.5 1421,-971.5 "/>
<text text-anchor="middle" x="1401" y="-959.5" font-family="Helvetica,sans-Serif" font-size="10.00"> </text>
<polyline fill="none" stroke="#bfbfbf" points="1381,-952.5 1421,-952.5 "/>
<text text-anchor="middle" x="1401" y="-940.5" font-family="Helvetica,sans-Serif" font-size="10.00"> </text>
</a>
</g>
</g>
<!-- Node25&#45;&gt;Node23 -->
<g id="edge30" class="edge">
<title>Node25&#45;&gt;Node23</title>
<path fill="none" stroke="#404040" d="M1399.88,-933.38C1399.53,-912.98 1400.01,-884.59 1404,-860 1406.11,-847.01 1409.36,-833.4 1413,-820.4"/>
<polygon fill="none" stroke="#404040" points="1413.06,-820.2 1410.9,-813.32 1416.43,-808.68 1418.58,-815.56 1413.06,-820.2"/>
<text text-anchor="middle" x="1427" y="-868.5" font-family="Helvetica,sans-Serif" font-size="10.00"> #m_Color</text>
</g>
<!-- Node26 -->
<g id="node26" class="node">
<title>Node26</title>
<g id="a_node26"><a xlink:href="class_sgl_1_1_shadow_specification.html" target="_top" xlink:title=" ">
<polygon fill="white" stroke="black" points="1407.5,-160.5 1407.5,-272.5 1536.5,-272.5 1536.5,-160.5 1407.5,-160.5"/>
<text text-anchor="middle" x="1472" y="-260.5" font-family="Helvetica,sans-Serif" font-size="10.00">Sgl::ShadowSpecification</text>
<polyline fill="none" stroke="black" points="1407.5,-253.5 1536.5,-253.5 "/>
<text text-anchor="middle" x="1472" y="-241.5" font-family="Helvetica,sans-Serif" font-size="10.00"> </text>
<polyline fill="none" stroke="black" points="1407.5,-234.5 1536.5,-234.5 "/>
<text text-anchor="start" x="1415.5" y="-222.5" font-family="Helvetica,sans-Serif" font-size="10.00">+ ShadowSpecification()</text>
<text text-anchor="start" x="1415.5" y="-211.5" font-family="Helvetica,sans-Serif" font-size="10.00">+ ~ShadowSpecification()</text>
<text text-anchor="start" x="1415.5" y="-200.5" font-family="Helvetica,sans-Serif" font-size="10.00">+ getOffset()</text>
<text text-anchor="start" x="1415.5" y="-189.5" font-family="Helvetica,sans-Serif" font-size="10.00">+ getScale()</text>
<text text-anchor="start" x="1415.5" y="-178.5" font-family="Helvetica,sans-Serif" font-size="10.00">+ getBlurRadius()</text>
<text text-anchor="start" x="1415.5" y="-167.5" font-family="Helvetica,sans-Serif" font-size="10.00">+ getColor()</text>
</a>
</g>
</g>
<!-- Node26&#45;&gt;Node1 -->
<g id="edge36" class="edge">
<title>Node26&#45;&gt;Node1</title>
<path fill="none" stroke="#404040" d="M1426.51,-160.26C1416.2,-149.71 1404.8,-139.36 1393,-131 1360.18,-107.73 1318.81,-89.45 1285.46,-76.95"/>
<polygon fill="none" stroke="#404040" points="1285.3,-76.89 1278.29,-78.58 1274.03,-72.77 1281.04,-71.07 1285.3,-76.89"/>
<text text-anchor="middle" x="1458" y="-134" font-family="Helvetica,sans-Serif" font-size="10.00"> +DEFAULT_SHADOW</text>
</g>
</g>
</svg>
