<?xml version="1.0" encoding="UTF-8" standalone="no"?>
<!DOCTYPE svg PUBLIC "-//W3C//DTD SVG 1.1//EN"
 "http://www.w3.org/Graphics/SVG/1.1/DTD/svg11.dtd">
<!-- Generated by graphviz version 2.50.0 (20211204.2007)
 -->
<!-- Title: Sgl::BoxContainer Pages: 1 -->
<svg width="1594pt" height="850pt"
 viewBox="0.00 0.00 1594.00 850.00" xmlns="http://www.w3.org/2000/svg" xmlns:xlink="http://www.w3.org/1999/xlink">
<g id="graph0" class="graph" transform="scale(1 1) rotate(0) translate(4 846)">
<title>Sgl::BoxContainer</title>
<polygon fill="white" stroke="transparent" points="-4,4 -4,-846 1590,-846 1590,4 -4,4"/>
<!-- Node1 -->
<g id="node1" class="node">
<title>Node1</title>
<g id="a_node1"><a xlink:title="Basic list&#45;like container which lays out children in a line one after another.">
<polygon fill="#bfbfbf" stroke="black" points="1247.5,-0.5 1247.5,-112.5 1344.5,-112.5 1344.5,-0.5 1247.5,-0.5"/>
<text text-anchor="middle" x="1296" y="-100.5" font-family="Helvetica,sans-Serif" font-size="10.00">Sgl::BoxContainer</text>
<polyline fill="none" stroke="black" points="1247.5,-93.5 1344.5,-93.5 "/>
<text text-anchor="middle" x="1296" y="-81.5" font-family="Helvetica,sans-Serif" font-size="10.00"> </text>
<polyline fill="none" stroke="black" points="1247.5,-74.5 1344.5,-74.5 "/>
<text text-anchor="start" x="1255.5" y="-62.5" font-family="Helvetica,sans-Serif" font-size="10.00">+ BoxContainer()</text>
<text text-anchor="start" x="1255.5" y="-51.5" font-family="Helvetica,sans-Serif" font-size="10.00">+ BoxContainer()</text>
<text text-anchor="start" x="1255.5" y="-40.5" font-family="Helvetica,sans-Serif" font-size="10.00">+ ~BoxContainer()</text>
<text text-anchor="start" x="1255.5" y="-29.5" font-family="Helvetica,sans-Serif" font-size="10.00">+ getDirection()</text>
<text text-anchor="start" x="1255.5" y="-18.5" font-family="Helvetica,sans-Serif" font-size="10.00">+ setDirection()</text>
<text text-anchor="start" x="1255.5" y="-7.5" font-family="Helvetica,sans-Serif" font-size="10.00">and 8 more...</text>
</a>
</g>
</g>
<!-- Node2 -->
<g id="node2" class="node">
<title>Node2</title>
<g id="a_node2"><a xlink:href="class_sgl_1_1_container.html" target="_top" xlink:title=" ">
<polygon fill="white" stroke="black" points="1242,-172.5 1242,-273.5 1350,-273.5 1350,-172.5 1242,-172.5"/>
<text text-anchor="middle" x="1296" y="-261.5" font-family="Helvetica,sans-Serif" font-size="10.00">Sgl::Container</text>
<polyline fill="none" stroke="black" points="1242,-254.5 1350,-254.5 "/>
<text text-anchor="middle" x="1296" y="-242.5" font-family="Helvetica,sans-Serif" font-size="10.00"> </text>
<polyline fill="none" stroke="black" points="1242,-235.5 1350,-235.5 "/>
<text text-anchor="start" x="1250" y="-223.5" font-family="Helvetica,sans-Serif" font-size="10.00">+ Container()</text>
<text text-anchor="start" x="1250" y="-212.5" font-family="Helvetica,sans-Serif" font-size="10.00">+ ~Container()</text>
<text text-anchor="start" x="1250" y="-201.5" font-family="Helvetica,sans-Serif" font-size="10.00">+ getHitComponent()</text>
<text text-anchor="start" x="1250" y="-190.5" font-family="Helvetica,sans-Serif" font-size="10.00">+ render()</text>
<text text-anchor="start" x="1250" y="-179.5" font-family="Helvetica,sans-Serif" font-size="10.00"># prerenderSelf()</text>
</a>
</g>
</g>
<!-- Node2&#45;&gt;Node1 -->
<g id="edge1" class="edge">
<title>Node2&#45;&gt;Node1</title>
<path fill="none" stroke="midnightblue" d="M1296,-161.82C1296,-145.72 1296,-128.4 1296,-112.59"/>
<polygon fill="none" stroke="midnightblue" points="1292.5,-162.2 1296,-172.2 1299.5,-162.2 1292.5,-162.2"/>
</g>
<!-- Node3 -->
<g id="node3" class="node">
<title>Node3</title>
<g id="a_node3"><a xlink:href="class_sgl_1_1_parent.html" target="_top" xlink:title=" ">
<polygon fill="white" stroke="black" points="816,-343.5 816,-521.5 962,-521.5 962,-343.5 816,-343.5"/>
<text text-anchor="middle" x="889" y="-509.5" font-family="Helvetica,sans-Serif" font-size="10.00">Sgl::Parent</text>
<polyline fill="none" stroke="black" points="816,-502.5 962,-502.5 "/>
<text text-anchor="middle" x="889" y="-490.5" font-family="Helvetica,sans-Serif" font-size="10.00"> </text>
<polyline fill="none" stroke="black" points="816,-483.5 962,-483.5 "/>
<text text-anchor="start" x="824" y="-471.5" font-family="Helvetica,sans-Serif" font-size="10.00">+ Parent()</text>
<text text-anchor="start" x="824" y="-460.5" font-family="Helvetica,sans-Serif" font-size="10.00">+ ~Parent()</text>
<text text-anchor="start" x="824" y="-449.5" font-family="Helvetica,sans-Serif" font-size="10.00">+ getHitComponent()</text>
<text text-anchor="start" x="824" y="-438.5" font-family="Helvetica,sans-Serif" font-size="10.00">+ render()</text>
<text text-anchor="start" x="824" y="-427.5" font-family="Helvetica,sans-Serif" font-size="10.00">+ layout()</text>
<text text-anchor="start" x="824" y="-416.5" font-family="Helvetica,sans-Serif" font-size="10.00">and 38 more...</text>
<text text-anchor="start" x="824" y="-405.5" font-family="Helvetica,sans-Serif" font-size="10.00"># setSceneInSceneTree()</text>
<text text-anchor="start" x="824" y="-394.5" font-family="Helvetica,sans-Serif" font-size="10.00"># layoutChildren()</text>
<text text-anchor="start" x="824" y="-383.5" font-family="Helvetica,sans-Serif" font-size="10.00"># prerenderSelf()</text>
<text text-anchor="start" x="824" y="-372.5" font-family="Helvetica,sans-Serif" font-size="10.00"># updateSnapshotSize()</text>
<text text-anchor="start" x="824" y="-361.5" font-family="Helvetica,sans-Serif" font-size="10.00"># computeCustomPrefWidth()</text>
<text text-anchor="start" x="824" y="-350.5" font-family="Helvetica,sans-Serif" font-size="10.00">and 5 more...</text>
</a>
</g>
</g>
<!-- Node3&#45;&gt;Node2 -->
<g id="edge2" class="edge">
<title>Node3&#45;&gt;Node2</title>
<path fill="none" stroke="midnightblue" d="M971.38,-389.5C1052.05,-348.37 1172.65,-286.89 1241.88,-251.59"/>
<polygon fill="none" stroke="midnightblue" points="969.55,-386.5 962.23,-394.16 972.73,-392.74 969.55,-386.5"/>
</g>
<!-- Node4 -->
<g id="node4" class="node">
<title>Node4</title>
<g id="a_node4"><a xlink:href="class_sgl_1_1_component.html" target="_top" xlink:title=" ">
<polygon fill="white" stroke="black" points="276,-150.5 276,-295.5 404,-295.5 404,-150.5 276,-150.5"/>
<text text-anchor="middle" x="340" y="-283.5" font-family="Helvetica,sans-Serif" font-size="10.00">Sgl::Component</text>
<polyline fill="none" stroke="black" points="276,-276.5 404,-276.5 "/>
<text text-anchor="middle" x="340" y="-264.5" font-family="Helvetica,sans-Serif" font-size="10.00"> </text>
<polyline fill="none" stroke="black" points="276,-257.5 404,-257.5 "/>
<text text-anchor="start" x="284" y="-245.5" font-family="Helvetica,sans-Serif" font-size="10.00">+ Component()</text>
<text text-anchor="start" x="284" y="-234.5" font-family="Helvetica,sans-Serif" font-size="10.00">+ ~Component()</text>
<text text-anchor="start" x="284" y="-223.5" font-family="Helvetica,sans-Serif" font-size="10.00">+ getHitComponent()</text>
<text text-anchor="start" x="284" y="-212.5" font-family="Helvetica,sans-Serif" font-size="10.00">+ render()</text>
<text text-anchor="start" x="284" y="-201.5" font-family="Helvetica,sans-Serif" font-size="10.00">+ layout()</text>
<text text-anchor="start" x="284" y="-190.5" font-family="Helvetica,sans-Serif" font-size="10.00">and 37 more...</text>
<text text-anchor="start" x="284" y="-179.5" font-family="Helvetica,sans-Serif" font-size="10.00"># updateShadow()</text>
<text text-anchor="start" x="284" y="-168.5" font-family="Helvetica,sans-Serif" font-size="10.00"># renderShadow()</text>
<text text-anchor="start" x="284" y="-157.5" font-family="Helvetica,sans-Serif" font-size="10.00"># setSceneInSceneTree()</text>
</a>
</g>
</g>
<!-- Node3&#45;&gt;Node4 -->
<g id="edge14" class="edge">
<title>Node3&#45;&gt;Node4</title>
<path fill="none" stroke="#404040" d="M815.96,-396.32C763.47,-371.7 690.68,-338.89 625,-314 555.1,-287.5 473.61,-262.32 415.71,-245.37"/>
<polygon fill="none" stroke="#404040" points="415.61,-245.34 408.74,-247.51 404.09,-241.99 410.97,-239.83 415.61,-245.34"/>
<text text-anchor="middle" x="672.5" y="-317" font-family="Helvetica,sans-Serif" font-size="10.00"> #m_Parent</text>
</g>
<!-- Node4&#45;&gt;Node3 -->
<g id="edge3" class="edge">
<title>Node4&#45;&gt;Node3</title>
<path fill="none" stroke="midnightblue" d="M414.16,-227.01C503.25,-233.35 654.94,-253.04 769,-314 785.59,-322.86 801.43,-334.72 815.86,-347.5"/>
<polygon fill="none" stroke="midnightblue" points="414.36,-223.51 404.15,-226.33 413.89,-230.5 414.36,-223.51"/>
</g>
<!-- Node5 -->
<g id="node5" class="node">
<title>Node5</title>
<g id="a_node5"><a xlink:title=" ">
<polygon fill="white" stroke="#bfbfbf" points="39,-613.5 39,-670.5 131,-670.5 131,-613.5 39,-613.5"/>
<text text-anchor="middle" x="85" y="-658.5" font-family="Helvetica,sans-Serif" font-size="10.00">Sml::EventTarget</text>
<polyline fill="none" stroke="#bfbfbf" points="39,-651.5 131,-651.5 "/>
<text text-anchor="middle" x="85" y="-639.5" font-family="Helvetica,sans-Serif" font-size="10.00"> </text>
<polyline fill="none" stroke="#bfbfbf" points="39,-632.5 131,-632.5 "/>
<text text-anchor="middle" x="85" y="-620.5" font-family="Helvetica,sans-Serif" font-size="10.00"> </text>
</a>
</g>
</g>
<!-- Node5&#45;&gt;Node4 -->
<g id="edge4" class="edge">
<title>Node5&#45;&gt;Node4</title>
<path fill="none" stroke="midnightblue" d="M87.94,-603.27C93.72,-533.98 107.71,-389.34 127,-343 151.83,-283.36 222.66,-252.55 275.88,-237.38"/>
<polygon fill="none" stroke="midnightblue" points="84.44,-603.07 87.11,-613.32 91.42,-603.64 84.44,-603.07"/>
</g>
<!-- Node13 -->
<g id="node13" class="node">
<title>Node13</title>
<g id="a_node13"><a xlink:href="class_sgl_1_1_scene.html" target="_top" xlink:title=" ">
<polygon fill="white" stroke="black" points="0,-376.5 0,-488.5 80,-488.5 80,-376.5 0,-376.5"/>
<text text-anchor="middle" x="40" y="-476.5" font-family="Helvetica,sans-Serif" font-size="10.00">Sgl::Scene</text>
<polyline fill="none" stroke="black" points="0,-469.5 80,-469.5 "/>
<text text-anchor="middle" x="40" y="-457.5" font-family="Helvetica,sans-Serif" font-size="10.00"> </text>
<polyline fill="none" stroke="black" points="0,-450.5 80,-450.5 "/>
<text text-anchor="start" x="8" y="-438.5" font-family="Helvetica,sans-Serif" font-size="10.00">+ Scene()</text>
<text text-anchor="start" x="8" y="-427.5" font-family="Helvetica,sans-Serif" font-size="10.00">+ Scene()</text>
<text text-anchor="start" x="8" y="-416.5" font-family="Helvetica,sans-Serif" font-size="10.00">+ ~Scene()</text>
<text text-anchor="start" x="8" y="-405.5" font-family="Helvetica,sans-Serif" font-size="10.00">+ update()</text>
<text text-anchor="start" x="8" y="-394.5" font-family="Helvetica,sans-Serif" font-size="10.00">+ render()</text>
<text text-anchor="start" x="8" y="-383.5" font-family="Helvetica,sans-Serif" font-size="10.00">and 17 more...</text>
</a>
</g>
</g>
<!-- Node5&#45;&gt;Node13 -->
<g id="edge13" class="edge">
<title>Node5&#45;&gt;Node13</title>
<path fill="none" stroke="midnightblue" d="M76.89,-603.6C69.96,-571.63 59.88,-525.17 52.01,-488.88"/>
<polygon fill="none" stroke="midnightblue" points="73.48,-604.41 79.02,-613.45 80.33,-602.93 73.48,-604.41"/>
</g>
<!-- Node6 -->
<g id="node6" class="node">
<title>Node6</title>
<g id="a_node6"><a xlink:title=" ">
<polygon fill="white" stroke="#bfbfbf" points="999,-784.5 999,-841.5 1045,-841.5 1045,-784.5 999,-784.5"/>
<text text-anchor="middle" x="1022" y="-829.5" font-family="Helvetica,sans-Serif" font-size="10.00">int32_t</text>
<polyline fill="none" stroke="#bfbfbf" points="999,-822.5 1045,-822.5 "/>
<text text-anchor="middle" x="1022" y="-810.5" font-family="Helvetica,sans-Serif" font-size="10.00"> </text>
<polyline fill="none" stroke="#bfbfbf" points="999,-803.5 1045,-803.5 "/>
<text text-anchor="middle" x="1022" y="-791.5" font-family="Helvetica,sans-Serif" font-size="10.00"> </text>
</a>
</g>
</g>
<!-- Node6&#45;&gt;Node3 -->
<g id="edge24" class="edge">
<title>Node6&#45;&gt;Node3</title>
<path fill="none" stroke="#404040" d="M1045.41,-797.51C1072.17,-779.41 1114.5,-745.71 1132,-704 1153.32,-653.18 1159.1,-627.99 1132,-580 1098.29,-520.31 1029.42,-482.22 973.58,-459.89"/>
<polygon fill="none" stroke="#404040" points="973.43,-459.83 966.39,-461.4 962.24,-455.5 969.28,-453.94 973.43,-459.83"/>
<text text-anchor="middle" x="1186" y="-667" font-family="Helvetica,sans-Serif" font-size="10.00"> #m_MaxHeight</text>
<text text-anchor="middle" x="1186" y="-656" font-family="Helvetica,sans-Serif" font-size="10.00">#m_MaxWidth</text>
<text text-anchor="middle" x="1186" y="-645" font-family="Helvetica,sans-Serif" font-size="10.00">#m_MinHeight</text>
<text text-anchor="middle" x="1186" y="-634" font-family="Helvetica,sans-Serif" font-size="10.00">#m_MinWidth</text>
<text text-anchor="middle" x="1186" y="-623" font-family="Helvetica,sans-Serif" font-size="10.00">#m_PrefHeight</text>
<text text-anchor="middle" x="1186" y="-612" font-family="Helvetica,sans-Serif" font-size="10.00">#m_PrefWidth</text>
</g>
<!-- Node6&#45;&gt;Node4 -->
<g id="edge5" class="edge">
<title>Node6&#45;&gt;Node4</title>
<path fill="none" stroke="#404040" d="M998.81,-811.4C888.84,-808.15 420.63,-789.41 308,-704 176.9,-604.58 164.67,-495.67 226,-343 234.99,-320.62 250.42,-300.07 267.08,-282.58"/>
<polygon fill="none" stroke="#404040" points="267.42,-282.24 268.81,-275.16 275.87,-273.72 274.49,-280.8 267.42,-282.24"/>
<text text-anchor="middle" x="258" y="-554" font-family="Helvetica,sans-Serif" font-size="10.00"> +UNLIMITED_SIZE</text>
<text text-anchor="middle" x="258" y="-543" font-family="Helvetica,sans-Serif" font-size="10.00">+USE_COMPUTED_SIZE</text>
</g>
<!-- Node19 -->
<g id="node19" class="node">
<title>Node19</title>
<g id="a_node19"><a xlink:href="struct_sgl_1_1_insets.html" target="_top" xlink:title=" ">
<polygon fill="white" stroke="black" points="982.5,-586 982.5,-698 1061.5,-698 1061.5,-586 982.5,-586"/>
<text text-anchor="middle" x="1022" y="-686" font-family="Helvetica,sans-Serif" font-size="10.00">Sgl::Insets</text>
<polyline fill="none" stroke="black" points="982.5,-679 1061.5,-679 "/>
<text text-anchor="middle" x="1022" y="-667" font-family="Helvetica,sans-Serif" font-size="10.00"> </text>
<polyline fill="none" stroke="black" points="982.5,-660 1061.5,-660 "/>
<text text-anchor="start" x="990.5" y="-648" font-family="Helvetica,sans-Serif" font-size="10.00">+ Insets()</text>
<text text-anchor="start" x="990.5" y="-637" font-family="Helvetica,sans-Serif" font-size="10.00">+ Insets()</text>
<text text-anchor="start" x="990.5" y="-626" font-family="Helvetica,sans-Serif" font-size="10.00">+ Insets()</text>
<text text-anchor="start" x="990.5" y="-615" font-family="Helvetica,sans-Serif" font-size="10.00">+ Insets()</text>
<text text-anchor="start" x="990.5" y="-604" font-family="Helvetica,sans-Serif" font-size="10.00">+ operator+=()</text>
<text text-anchor="start" x="990.5" y="-593" font-family="Helvetica,sans-Serif" font-size="10.00">+ operator&#45;=()</text>
</a>
</g>
</g>
<!-- Node6&#45;&gt;Node19 -->
<g id="edge23" class="edge">
<title>Node6&#45;&gt;Node19</title>
<path fill="none" stroke="#404040" d="M1022,-784.47C1022,-764.37 1022,-736.21 1022,-710.3"/>
<polygon fill="none" stroke="#404040" points="1022,-710.2 1018,-704.2 1022,-698.2 1026,-704.2 1022,-710.2"/>
<text text-anchor="middle" x="1042" y="-758" font-family="Helvetica,sans-Serif" font-size="10.00"> +bottom</text>
<text text-anchor="middle" x="1042" y="-747" font-family="Helvetica,sans-Serif" font-size="10.00">+left</text>
<text text-anchor="middle" x="1042" y="-736" font-family="Helvetica,sans-Serif" font-size="10.00">+right</text>
<text text-anchor="middle" x="1042" y="-725" font-family="Helvetica,sans-Serif" font-size="10.00">+top</text>
</g>
<!-- Node7 -->
<g id="node7" class="node">
<title>Node7</title>
<g id="a_node7"><a xlink:title=" ">
<polygon fill="white" stroke="#bfbfbf" points="136.5,-404 136.5,-461 177.5,-461 177.5,-404 136.5,-404"/>
<text text-anchor="middle" x="157" y="-449" font-family="Helvetica,sans-Serif" font-size="10.00">friend</text>
<polyline fill="none" stroke="#bfbfbf" points="136.5,-442 177.5,-442 "/>
<text text-anchor="middle" x="157" y="-430" font-family="Helvetica,sans-Serif" font-size="10.00"> </text>
<polyline fill="none" stroke="#bfbfbf" points="136.5,-423 177.5,-423 "/>
<text text-anchor="middle" x="157" y="-411" font-family="Helvetica,sans-Serif" font-size="10.00"> </text>
</a>
</g>
</g>
<!-- Node7&#45;&gt;Node4 -->
<g id="edge6" class="edge">
<title>Node7&#45;&gt;Node4</title>
<path fill="none" stroke="#404040" d="M149.2,-403.6C143.81,-378.25 140.29,-340.84 157,-314 180.45,-276.33 224.8,-253.97 263.97,-240.96"/>
<polygon fill="none" stroke="#404040" points="264.21,-240.89 268.74,-235.28 275.66,-237.3 271.13,-242.91 264.21,-240.89"/>
<text text-anchor="middle" x="175.5" y="-317" font-family="Helvetica,sans-Serif" font-size="10.00"> +Scene</text>
</g>
<!-- Node8 -->
<g id="node8" class="node">
<title>Node8</title>
<g id="a_node8"><a xlink:title=" ">
<polygon fill="white" stroke="#bfbfbf" points="610.5,-613.5 610.5,-670.5 645.5,-670.5 645.5,-613.5 610.5,-613.5"/>
<text text-anchor="middle" x="628" y="-658.5" font-family="Helvetica,sans-Serif" font-size="10.00">bool</text>
<polyline fill="none" stroke="#bfbfbf" points="610.5,-651.5 645.5,-651.5 "/>
<text text-anchor="middle" x="628" y="-639.5" font-family="Helvetica,sans-Serif" font-size="10.00"> </text>
<polyline fill="none" stroke="#bfbfbf" points="610.5,-632.5 645.5,-632.5 "/>
<text text-anchor="middle" x="628" y="-620.5" font-family="Helvetica,sans-Serif" font-size="10.00"> </text>
</a>
</g>
</g>
<!-- Node8&#45;&gt;Node3 -->
<g id="edge18" class="edge">
<title>Node8&#45;&gt;Node3</title>
<path fill="none" stroke="#404040" d="M632.89,-613.15C638.03,-591 648.12,-560.43 667,-540 703.78,-500.21 758.56,-473.71 804.5,-457.1"/>
<polygon fill="none" stroke="#404040" points="804.65,-457.05 808.99,-451.29 815.98,-453.08 811.63,-458.84 804.65,-457.05"/>
<text text-anchor="middle" x="715.5" y="-548.5" font-family="Helvetica,sans-Serif" font-size="10.00"> #m_NeedLayoutPass</text>
</g>
<!-- Node8&#45;&gt;Node4 -->
<g id="edge7" class="edge">
<title>Node8&#45;&gt;Node4</title>
<path fill="none" stroke="#404040" d="M632.77,-613.12C641.9,-549.47 654.02,-392.85 569,-314 526.47,-274.55 464.62,-251.63 415.91,-238.8"/>
<polygon fill="none" stroke="#404040" points="415.79,-238.77 408.99,-241.18 404.15,-235.83 410.95,-233.42 415.79,-238.77"/>
<text text-anchor="middle" x="670" y="-441" font-family="Helvetica,sans-Serif" font-size="10.00"> #m_Focused</text>
<text text-anchor="middle" x="670" y="-430" font-family="Helvetica,sans-Serif" font-size="10.00">#m_Hovered</text>
<text text-anchor="middle" x="670" y="-419" font-family="Helvetica,sans-Serif" font-size="10.00">#m_Visible</text>
</g>
<!-- Node9 -->
<g id="node9" class="node">
<title>Node9</title>
<g id="a_node9"><a xlink:href="class_sgl_1_1_shadow.html" target="_top" xlink:title=" ">
<polygon fill="white" stroke="black" points="235.5,-371 235.5,-494 336.5,-494 336.5,-371 235.5,-371"/>
<text text-anchor="middle" x="286" y="-482" font-family="Helvetica,sans-Serif" font-size="10.00">Sgl::Shadow</text>
<polyline fill="none" stroke="black" points="235.5,-475 336.5,-475 "/>
<text text-anchor="middle" x="286" y="-463" font-family="Helvetica,sans-Serif" font-size="10.00"> </text>
<polyline fill="none" stroke="black" points="235.5,-456 336.5,-456 "/>
<text text-anchor="start" x="243.5" y="-444" font-family="Helvetica,sans-Serif" font-size="10.00">+ Shadow()</text>
<text text-anchor="start" x="243.5" y="-433" font-family="Helvetica,sans-Serif" font-size="10.00">+ ~Shadow()</text>
<text text-anchor="start" x="243.5" y="-422" font-family="Helvetica,sans-Serif" font-size="10.00">+ update()</text>
<text text-anchor="start" x="243.5" y="-411" font-family="Helvetica,sans-Serif" font-size="10.00">+ render()</text>
<text text-anchor="start" x="243.5" y="-400" font-family="Helvetica,sans-Serif" font-size="10.00">+ getTexture()</text>
<text text-anchor="start" x="243.5" y="-389" font-family="Helvetica,sans-Serif" font-size="10.00">+ getSpecification()</text>
<text text-anchor="start" x="243.5" y="-378" font-family="Helvetica,sans-Serif" font-size="10.00">+ setSpecification()</text>
</a>
</g>
</g>
<!-- Node9&#45;&gt;Node4 -->
<g id="edge8" class="edge">
<title>Node9&#45;&gt;Node4</title>
<path fill="none" stroke="#404040" d="M299.12,-370.93C303.31,-352.58 308.13,-332.41 313,-314 313.59,-311.75 314.21,-309.48 314.83,-307.18"/>
<polygon fill="none" stroke="#404040" points="314.84,-307.16 312.59,-300.31 318.06,-295.6 320.3,-302.46 314.84,-307.16"/>
<text text-anchor="middle" x="342" y="-317" font-family="Helvetica,sans-Serif" font-size="10.00"> #m_Shadow</text>
</g>
<!-- Node10 -->
<g id="node10" class="node">
<title>Node10</title>
<g id="a_node10"><a xlink:href="class_gui_event_dispatcher.html" target="_top" xlink:title=" ">
<polygon fill="white" stroke="black" points="354.5,-365.5 354.5,-499.5 489.5,-499.5 489.5,-365.5 354.5,-365.5"/>
<text text-anchor="middle" x="422" y="-487.5" font-family="Helvetica,sans-Serif" font-size="10.00">GuiEventDispatcher</text>
<polyline fill="none" stroke="black" points="354.5,-480.5 489.5,-480.5 "/>
<text text-anchor="middle" x="422" y="-468.5" font-family="Helvetica,sans-Serif" font-size="10.00"> </text>
<polyline fill="none" stroke="black" points="354.5,-461.5 489.5,-461.5 "/>
<text text-anchor="start" x="362.5" y="-449.5" font-family="Helvetica,sans-Serif" font-size="10.00">+ ~GuiEventDispatcher()</text>
<text text-anchor="start" x="362.5" y="-438.5" font-family="Helvetica,sans-Serif" font-size="10.00">+ attachFilter()</text>
<text text-anchor="start" x="362.5" y="-427.5" font-family="Helvetica,sans-Serif" font-size="10.00">+ detachFilter()</text>
<text text-anchor="start" x="362.5" y="-416.5" font-family="Helvetica,sans-Serif" font-size="10.00">+ attachHandler()</text>
<text text-anchor="start" x="362.5" y="-405.5" font-family="Helvetica,sans-Serif" font-size="10.00">+ detachHandler()</text>
<text text-anchor="start" x="362.5" y="-394.5" font-family="Helvetica,sans-Serif" font-size="10.00">+ dispatchEvent()</text>
<text text-anchor="start" x="362.5" y="-383.5" font-family="Helvetica,sans-Serif" font-size="10.00"># dispatchCapturingEvent()</text>
<text text-anchor="start" x="362.5" y="-372.5" font-family="Helvetica,sans-Serif" font-size="10.00"># dispatchBubblingEvent()</text>
</a>
</g>
</g>
<!-- Node10&#45;&gt;Node4 -->
<g id="edge9" class="edge">
<title>Node10&#45;&gt;Node4</title>
<path fill="none" stroke="#404040" d="M395.83,-365.28C388.5,-346.73 380.45,-326.35 372.79,-306.97"/>
<polygon fill="none" stroke="#404040" points="372.74,-306.85 366.82,-302.74 368.33,-295.69 374.26,-299.8 372.74,-306.85"/>
<text text-anchor="middle" x="414" y="-317" font-family="Helvetica,sans-Serif" font-size="10.00"> #m_Dispatcher</text>
</g>
<!-- Node11 -->
<g id="node11" class="node">
<title>Node11</title>
<g id="a_node11"><a xlink:title=" ">
<polygon fill="white" stroke="#bfbfbf" points="317.5,-613.5 317.5,-670.5 430.5,-670.5 430.5,-613.5 317.5,-613.5"/>
<text text-anchor="middle" x="374" y="-658.5" font-family="Helvetica,sans-Serif" font-size="10.00">Sml::EventDispatcher</text>
<polyline fill="none" stroke="#bfbfbf" points="317.5,-651.5 430.5,-651.5 "/>
<text text-anchor="middle" x="374" y="-639.5" font-family="Helvetica,sans-Serif" font-size="10.00"> </text>
<polyline fill="none" stroke="#bfbfbf" points="317.5,-632.5 430.5,-632.5 "/>
<text text-anchor="middle" x="374" y="-620.5" font-family="Helvetica,sans-Serif" font-size="10.00"> </text>
</a>
</g>
</g>
<!-- Node11&#45;&gt;Node10 -->
<g id="edge10" class="edge">
<title>Node11&#45;&gt;Node10</title>
<path fill="none" stroke="midnightblue" d="M382.7,-603.37C389.38,-574.5 398.77,-533.91 406.7,-499.65"/>
<polygon fill="none" stroke="midnightblue" points="379.22,-602.91 380.37,-613.45 386.04,-604.49 379.22,-602.91"/>
</g>
<!-- Node12 -->
<g id="node12" class="node">
<title>Node12</title>
<g id="a_node12"><a xlink:title=" ">
<polygon fill="white" stroke="#bfbfbf" points="449,-613.5 449,-670.5 497,-670.5 497,-613.5 449,-613.5"/>
<text text-anchor="middle" x="473" y="-658.5" font-family="Helvetica,sans-Serif" font-size="10.00">Notifier</text>
<polyline fill="none" stroke="#bfbfbf" points="449,-651.5 497,-651.5 "/>
<text text-anchor="middle" x="473" y="-639.5" font-family="Helvetica,sans-Serif" font-size="10.00"> </text>
<polyline fill="none" stroke="#bfbfbf" points="449,-632.5 497,-632.5 "/>
<text text-anchor="middle" x="473" y="-620.5" font-family="Helvetica,sans-Serif" font-size="10.00"> </text>
</a>
</g>
</g>
<!-- Node12&#45;&gt;Node10 -->
<g id="edge11" class="edge">
<title>Node12&#45;&gt;Node10</title>
<path fill="none" stroke="#404040" d="M466.23,-613.45C459.85,-587.5 449.99,-547.37 441.19,-511.59"/>
<polygon fill="none" stroke="#404040" points="441.12,-511.3 435.81,-506.43 438.26,-499.65 443.58,-504.52 441.12,-511.3"/>
<text text-anchor="middle" x="499" y="-554" font-family="Helvetica,sans-Serif" font-size="10.00"> #m_FiltersNotifier</text>
<text text-anchor="middle" x="499" y="-543" font-family="Helvetica,sans-Serif" font-size="10.00">#m_HandlersNotifier</text>
</g>
<!-- Node13&#45;&gt;Node4 -->
<g id="edge12" class="edge">
<title>Node13&#45;&gt;Node4</title>
<path fill="none" stroke="#404040" d="M28.99,-376.33C27.79,-354.91 30.64,-331.4 44,-314 70.86,-279.02 185.06,-251.88 263.49,-236.92"/>
<polygon fill="none" stroke="#404040" points="263.96,-236.83 269.12,-231.8 275.75,-234.63 270.59,-239.66 263.96,-236.83"/>
<text text-anchor="middle" x="69" y="-317" font-family="Helvetica,sans-Serif" font-size="10.00"> #m_Scene</text>
</g>
<!-- Node14 -->
<g id="node14" class="node">
<title>Node14</title>
<g id="a_node14"><a xlink:title=" ">
<polygon fill="white" stroke="#bfbfbf" points="507.5,-404 507.5,-461 574.5,-461 574.5,-404 507.5,-404"/>
<text text-anchor="middle" x="541" y="-449" font-family="Helvetica,sans-Serif" font-size="10.00">Rectangle&lt;</text>
<polyline fill="none" stroke="#bfbfbf" points="507.5,-442 574.5,-442 "/>
<text text-anchor="middle" x="541" y="-430" font-family="Helvetica,sans-Serif" font-size="10.00"> </text>
<polyline fill="none" stroke="#bfbfbf" points="507.5,-423 574.5,-423 "/>
<text text-anchor="middle" x="541" y="-411" font-family="Helvetica,sans-Serif" font-size="10.00"> </text>
</a>
</g>
</g>
<!-- Node14&#45;&gt;Node4 -->
<g id="edge15" class="edge">
<title>Node14&#45;&gt;Node4</title>
<path fill="none" stroke="#404040" d="M531.41,-403.62C524.14,-385.14 512.87,-361.07 498,-343 474.57,-314.54 443.01,-289.03 414.26,-268.99"/>
<polygon fill="none" stroke="#404040" points="414.13,-268.9 406.92,-268.82 404.22,-262.13 411.43,-262.22 414.13,-268.9"/>
<text text-anchor="middle" x="522.5" y="-317" font-family="Helvetica,sans-Serif" font-size="10.00"> #m_LayoutBounds</text>
</g>
<!-- Node15 -->
<g id="node15" class="node">
<title>Node15</title>
<g id="a_node15"><a xlink:title=" ">
<polygon fill="white" stroke="#bfbfbf" points="746.5,-613.5 746.5,-670.5 781.5,-670.5 781.5,-613.5 746.5,-613.5"/>
<text text-anchor="middle" x="764" y="-658.5" font-family="Helvetica,sans-Serif" font-size="10.00">list&lt;</text>
<polyline fill="none" stroke="#bfbfbf" points="746.5,-651.5 781.5,-651.5 "/>
<text text-anchor="middle" x="764" y="-639.5" font-family="Helvetica,sans-Serif" font-size="10.00"> </text>
<polyline fill="none" stroke="#bfbfbf" points="746.5,-632.5 781.5,-632.5 "/>
<text text-anchor="middle" x="764" y="-620.5" font-family="Helvetica,sans-Serif" font-size="10.00"> </text>
</a>
</g>
</g>
<!-- Node15&#45;&gt;Node3 -->
<g id="edge16" class="edge">
<title>Node15&#45;&gt;Node3</title>
<path fill="none" stroke="#404040" d="M761.96,-613.4C761.55,-592.24 763.56,-562.87 775,-540 782.98,-524.06 794.39,-509.28 806.94,-496.11"/>
<polygon fill="none" stroke="#404040" points="807.3,-495.75 808.71,-488.67 815.78,-487.26 814.37,-494.33 807.3,-495.75"/>
<text text-anchor="middle" x="804" y="-548.5" font-family="Helvetica,sans-Serif" font-size="10.00"> #m_Children</text>
</g>
<!-- Node16 -->
<g id="node16" class="node">
<title>Node16</title>
<g id="a_node16"><a xlink:title=" ">
<polygon fill="white" stroke="#bfbfbf" points="800,-613.5 800,-670.5 856,-670.5 856,-613.5 800,-613.5"/>
<text text-anchor="middle" x="828" y="-658.5" font-family="Helvetica,sans-Serif" font-size="10.00">Texture *</text>
<polyline fill="none" stroke="#bfbfbf" points="800,-651.5 856,-651.5 "/>
<text text-anchor="middle" x="828" y="-639.5" font-family="Helvetica,sans-Serif" font-size="10.00"> </text>
<polyline fill="none" stroke="#bfbfbf" points="800,-632.5 856,-632.5 "/>
<text text-anchor="middle" x="828" y="-620.5" font-family="Helvetica,sans-Serif" font-size="10.00"> </text>
</a>
</g>
</g>
<!-- Node16&#45;&gt;Node3 -->
<g id="edge17" class="edge">
<title>Node16&#45;&gt;Node3</title>
<path fill="none" stroke="#404040" d="M829.77,-613.14C831.58,-592.61 835.13,-564.18 842,-540 842.64,-537.74 843.32,-535.47 844.04,-533.18"/>
<polygon fill="none" stroke="#404040" points="844.06,-533.11 842.17,-526.15 847.87,-521.73 849.76,-528.69 844.06,-533.11"/>
<text text-anchor="middle" x="874" y="-548.5" font-family="Helvetica,sans-Serif" font-size="10.00"> #m_Snapshot</text>
</g>
<!-- Node17 -->
<g id="node17" class="node">
<title>Node17</title>
<g id="a_node17"><a xlink:href="class_sgl_1_1_background.html" target="_top" xlink:title=" ">
<polygon fill="white" stroke="black" points="1407.5,-580.5 1407.5,-703.5 1496.5,-703.5 1496.5,-580.5 1407.5,-580.5"/>
<text text-anchor="middle" x="1452" y="-691.5" font-family="Helvetica,sans-Serif" font-size="10.00">Sgl::Background</text>
<polyline fill="none" stroke="black" points="1407.5,-684.5 1496.5,-684.5 "/>
<text text-anchor="middle" x="1452" y="-672.5" font-family="Helvetica,sans-Serif" font-size="10.00"> </text>
<polyline fill="none" stroke="black" points="1407.5,-665.5 1496.5,-665.5 "/>
<text text-anchor="start" x="1415.5" y="-653.5" font-family="Helvetica,sans-Serif" font-size="10.00">+ Background()</text>
<text text-anchor="start" x="1415.5" y="-642.5" font-family="Helvetica,sans-Serif" font-size="10.00">+ Background()</text>
<text text-anchor="start" x="1415.5" y="-631.5" font-family="Helvetica,sans-Serif" font-size="10.00">+ Background()</text>
<text text-anchor="start" x="1415.5" y="-620.5" font-family="Helvetica,sans-Serif" font-size="10.00">+ Background()</text>
<text text-anchor="start" x="1415.5" y="-609.5" font-family="Helvetica,sans-Serif" font-size="10.00">+ addFill()</text>
<text text-anchor="start" x="1415.5" y="-598.5" font-family="Helvetica,sans-Serif" font-size="10.00">and 5 more...</text>
<text text-anchor="start" x="1415.5" y="-587.5" font-family="Helvetica,sans-Serif" font-size="10.00">+ fillArea()</text>
</a>
</g>
</g>
<!-- Node17&#45;&gt;Node2 -->
<g id="edge28" class="edge">
<title>Node17&#45;&gt;Node2</title>
<path fill="none" stroke="#404040" d="M1459.19,-580.41C1459.61,-567.04 1459.15,-552.99 1457,-540 1439.66,-435.31 1434.53,-405.03 1380,-314 1373.59,-303.3 1365.74,-292.8 1357.44,-282.97"/>
<polygon fill="none" stroke="#404040" points="1357.28,-282.79 1350.32,-280.91 1349.37,-273.76 1356.33,-275.64 1357.28,-282.79"/>
<text text-anchor="middle" x="1519.5" y="-430" font-family="Helvetica,sans-Serif" font-size="10.00"> +DEFAULT_BACKGROUND</text>
</g>
<!-- Node17&#45;&gt;Node3 -->
<g id="edge19" class="edge">
<title>Node17&#45;&gt;Node3</title>
<path fill="none" stroke="#404040" d="M1407.49,-589.22C1387.2,-566.17 1366.31,-543.42 1360,-540 1316.46,-516.38 1298.54,-531.91 1250,-522 1154.92,-502.6 1046.98,-475.45 974.09,-456.36"/>
<polygon fill="none" stroke="#404040" points="973.86,-456.29 967.04,-458.64 962.25,-453.24 969.07,-450.9 973.86,-456.29"/>
<text text-anchor="middle" x="1418" y="-548.5" font-family="Helvetica,sans-Serif" font-size="10.00"> #m_Background</text>
</g>
<!-- Node18 -->
<g id="node18" class="node">
<title>Node18</title>
<g id="a_node18"><a xlink:href="class_sgl_1_1_border.html" target="_top" xlink:title=" ">
<polygon fill="white" stroke="black" points="874,-586 874,-698 964,-698 964,-586 874,-586"/>
<text text-anchor="middle" x="919" y="-686" font-family="Helvetica,sans-Serif" font-size="10.00">Sgl::Border</text>
<polyline fill="none" stroke="black" points="874,-679 964,-679 "/>
<text text-anchor="middle" x="919" y="-667" font-family="Helvetica,sans-Serif" font-size="10.00"> </text>
<polyline fill="none" stroke="black" points="874,-660 964,-660 "/>
<text text-anchor="start" x="882" y="-648" font-family="Helvetica,sans-Serif" font-size="10.00">+ Border()</text>
<text text-anchor="start" x="882" y="-637" font-family="Helvetica,sans-Serif" font-size="10.00">+ Border()</text>
<text text-anchor="start" x="882" y="-626" font-family="Helvetica,sans-Serif" font-size="10.00">+ Border()</text>
<text text-anchor="start" x="882" y="-615" font-family="Helvetica,sans-Serif" font-size="10.00">+ getThickness()</text>
<text text-anchor="start" x="882" y="-604" font-family="Helvetica,sans-Serif" font-size="10.00">+ getColor()</text>
<text text-anchor="start" x="882" y="-593" font-family="Helvetica,sans-Serif" font-size="10.00">+ encloseArea()</text>
</a>
</g>
</g>
<!-- Node18&#45;&gt;Node3 -->
<g id="edge20" class="edge">
<title>Node18&#45;&gt;Node3</title>
<path fill="none" stroke="#404040" d="M915.15,-585.84C913.82,-570.92 912.11,-554.81 910,-540 909.71,-537.95 909.4,-535.88 909.08,-533.79"/>
<polygon fill="none" stroke="#404040" points="909.05,-533.56 904.14,-528.27 907.14,-521.71 912.04,-527 909.05,-533.56"/>
<text text-anchor="middle" x="938.5" y="-548.5" font-family="Helvetica,sans-Serif" font-size="10.00"> #m_Border</text>
</g>
<!-- Node19&#45;&gt;Node3 -->
<g id="edge21" class="edge">
<title>Node19&#45;&gt;Node3</title>
<path fill="none" stroke="#404040" d="M994.43,-585.91C986.35,-570.77 977.2,-554.53 968,-540 966.27,-537.27 964.49,-534.52 962.68,-531.75"/>
<polygon fill="none" stroke="#404040" points="962.63,-531.69 955.97,-528.93 955.96,-521.72 962.62,-524.48 962.63,-531.69"/>
<text text-anchor="middle" x="1010" y="-548.5" font-family="Helvetica,sans-Serif" font-size="10.00"> #m_Padding</text>
</g>
<!-- Node19&#45;&gt;Node19 -->
<g id="edge22" class="edge">
<title>Node19&#45;&gt;Node19</title>
<path fill="none" stroke="#404040" d="M1061.51,-658.7C1071.76,-657.67 1079.5,-652.11 1079.5,-642 1079.5,-636.31 1077.05,-632.07 1073.08,-629.25"/>
<polygon fill="none" stroke="#404040" points="1072.86,-629.18 1065.89,-631.02 1061.51,-625.3 1068.48,-623.45 1072.86,-629.18"/>
<text text-anchor="middle" x="1101.5" y="-639.5" font-family="Helvetica,sans-Serif" font-size="10.00"> +EMPTY</text>
</g>
<!-- Node20 -->
<g id="node20" class="node">
<title>Node20</title>
<g id="a_node20"><a xlink:href="class_sgl_1_1_color_fill.html" target="_top" xlink:title=" ">
<polygon fill="white" stroke="black" points="1259.5,-376.5 1259.5,-488.5 1332.5,-488.5 1332.5,-376.5 1259.5,-376.5"/>
<text text-anchor="middle" x="1296" y="-476.5" font-family="Helvetica,sans-Serif" font-size="10.00">Sgl::ColorFill</text>
<polyline fill="none" stroke="black" points="1259.5,-469.5 1332.5,-469.5 "/>
<text text-anchor="middle" x="1296" y="-457.5" font-family="Helvetica,sans-Serif" font-size="10.00"> </text>
<polyline fill="none" stroke="black" points="1259.5,-450.5 1332.5,-450.5 "/>
<text text-anchor="start" x="1267.5" y="-438.5" font-family="Helvetica,sans-Serif" font-size="10.00">+ ColorFill()</text>
<text text-anchor="start" x="1267.5" y="-427.5" font-family="Helvetica,sans-Serif" font-size="10.00">+ fillLine()</text>
<text text-anchor="start" x="1267.5" y="-416.5" font-family="Helvetica,sans-Serif" font-size="10.00">+ fillArea()</text>
<text text-anchor="start" x="1267.5" y="-405.5" font-family="Helvetica,sans-Serif" font-size="10.00">+ fillPoint()</text>
<text text-anchor="start" x="1267.5" y="-394.5" font-family="Helvetica,sans-Serif" font-size="10.00">+ getColor()</text>
<text text-anchor="start" x="1267.5" y="-383.5" font-family="Helvetica,sans-Serif" font-size="10.00">+ setColor()</text>
</a>
</g>
</g>
<!-- Node20&#45;&gt;Node2 -->
<g id="edge25" class="edge">
<title>Node20&#45;&gt;Node2</title>
<path fill="none" stroke="#404040" d="M1296,-376.44C1296,-348.62 1296,-314.76 1296,-286.02"/>
<polygon fill="none" stroke="#404040" points="1296,-285.64 1292,-279.64 1296,-273.64 1300,-279.64 1296,-285.64"/>
<text text-anchor="middle" x="1336" y="-317" font-family="Helvetica,sans-Serif" font-size="10.00"> +DEFAULT_FILL</text>
</g>
<!-- Node21 -->
<g id="node21" class="node">
<title>Node21</title>
<g id="a_node21"><a xlink:href="class_sgl_1_1_fill.html" target="_top" xlink:title=" ">
<polygon fill="white" stroke="black" points="1248,-602.5 1248,-681.5 1312,-681.5 1312,-602.5 1248,-602.5"/>
<text text-anchor="middle" x="1280" y="-669.5" font-family="Helvetica,sans-Serif" font-size="10.00">Sgl::Fill</text>
<polyline fill="none" stroke="black" points="1248,-662.5 1312,-662.5 "/>
<text text-anchor="middle" x="1280" y="-650.5" font-family="Helvetica,sans-Serif" font-size="10.00"> </text>
<polyline fill="none" stroke="black" points="1248,-643.5 1312,-643.5 "/>
<text text-anchor="start" x="1256" y="-631.5" font-family="Helvetica,sans-Serif" font-size="10.00">+ fillLine()</text>
<text text-anchor="start" x="1256" y="-620.5" font-family="Helvetica,sans-Serif" font-size="10.00">+ fillArea()</text>
<text text-anchor="start" x="1256" y="-609.5" font-family="Helvetica,sans-Serif" font-size="10.00">+ fillPoint()</text>
</a>
</g>
</g>
<!-- Node21&#45;&gt;Node20 -->
<g id="edge26" class="edge">
<title>Node21&#45;&gt;Node20</title>
<path fill="none" stroke="midnightblue" d="M1283.75,-592.3C1286.15,-561.24 1289.26,-520.91 1291.75,-488.66"/>
<polygon fill="none" stroke="midnightblue" points="1280.25,-592.22 1282.97,-602.46 1287.23,-592.76 1280.25,-592.22"/>
</g>
<!-- Node22 -->
<g id="node22" class="node">
<title>Node22</title>
<g id="a_node22"><a xlink:title=" ">
<polygon fill="white" stroke="#bfbfbf" points="1330,-613.5 1330,-670.5 1370,-670.5 1370,-613.5 1330,-613.5"/>
<text text-anchor="middle" x="1350" y="-658.5" font-family="Helvetica,sans-Serif" font-size="10.00">Color</text>
<polyline fill="none" stroke="#bfbfbf" points="1330,-651.5 1370,-651.5 "/>
<text text-anchor="middle" x="1350" y="-639.5" font-family="Helvetica,sans-Serif" font-size="10.00"> </text>
<polyline fill="none" stroke="#bfbfbf" points="1330,-632.5 1370,-632.5 "/>
<text text-anchor="middle" x="1350" y="-620.5" font-family="Helvetica,sans-Serif" font-size="10.00"> </text>
</a>
</g>
</g>
<!-- Node22&#45;&gt;Node20 -->
<g id="edge27" class="edge">
<title>Node22&#45;&gt;Node20</title>
<path fill="none" stroke="#404040" d="M1336.82,-613.12C1327.19,-592.58 1315.55,-567.32 1314,-562 1308.31,-542.48 1304.4,-520.75 1301.72,-500.79"/>
<polygon fill="none" stroke="#404040" points="1301.68,-500.54 1296.97,-495.08 1300.2,-488.63 1304.91,-494.09 1301.68,-500.54"/>
<text text-anchor="middle" x="1337" y="-548.5" font-family="Helvetica,sans-Serif" font-size="10.00"> #m_Color</text>
</g>
</g>
</svg>
