<?xml version="1.0" encoding="UTF-8" standalone="no"?>
<!DOCTYPE svg PUBLIC "-//W3C//DTD SVG 1.1//EN"
 "http://www.w3.org/Graphics/SVG/1.1/DTD/svg11.dtd">
<!-- Generated by graphviz version 2.50.0 (20211204.2007)
 -->
<!-- Title: Sgl::MenuBar Pages: 1 -->
<!--zoomable 1116 -->
<svg id="main" version="1.1" xmlns="http://www.w3.org/2000/svg" xmlns:xlink="http://www.w3.org/1999/xlink" xml:space="preserve" onload="init(evt)">
<style type="text/css"><![CDATA[
.edge:hover path { stroke: red; }
.edge:hover polygon { stroke: red; fill: red; }
]]></style>
<script type="text/javascript"><![CDATA[
var edges = document.getElementsByTagName('g');
if (edges && edges.length) {
  for (var i=0;i<edges.length;i++) {
    if (edges[i].id.substr(0,4)=='edge') {
      edges[i].setAttribute('class','edge');
    }
  }
}
]]></script>
        <defs>
                <circle id="rim" cx="0" cy="0" r="7"/>
                <circle id="rim2" cx="0" cy="0" r="3.5"/>
                <g id="zoomPlus">
                        <use xlink:href="#rim" fill="#404040">
                                <set attributeName="fill" to="#808080" begin="zoomplus.mouseover" end="zoomplus.mouseout"/>
                        </use>
                        <path d="M-4,0h8M0,-4v8" fill="none" stroke="white" stroke-width="1.5" pointer-events="none"/>
                </g>
                <g id="zoomMin">
                        <use xlink:href="#rim" fill="#404040">
                                <set attributeName="fill" to="#808080" begin="zoomminus.mouseover" end="zoomminus.mouseout"/>
                        </use>
                        <path d="M-4,0h8" fill="none" stroke="white" stroke-width="1.5" pointer-events="none"/>
                </g>
                <g id="dirArrow">
                        <path fill="none" stroke="white" stroke-width="1.5" d="M0,-3.0v7 M-2.5,-0.5L0,-3.0L2.5,-0.5"/>
                </g>
               <g id="resetDef">
                       <use xlink:href="#rim2" fill="#404040">
                               <set attributeName="fill" to="#808080" begin="reset.mouseover" end="reset.mouseout"/>
                       </use>
               </g>
        </defs>

<script type="text/javascript">
var viewWidth = 1554;
var viewHeight = 1116;
var sectionId = 'dynsection-1';
</script>
<script xlink:href="svgpan.js"/>
<svg id="graph" class="graph">
<g id="viewport">
<title>Sgl::MenuBar</title>
<polygon fill="white" stroke="transparent" points="-4,4 -4,-1112 1549.5,-1112 1549.5,4 -4,4"/>
<!-- Node1 -->
<g id="node1" class="node">
<title>Node1</title>
<g id="a_node1"><a xlink:title=" ">
<polygon fill="#bfbfbf" stroke="black" points="1205,-0.5 1205,-112.5 1284,-112.5 1284,-0.5 1205,-0.5"/>
<text text-anchor="middle" x="1244.5" y="-100.5" font-family="Helvetica,sans-Serif" font-size="10.00">Sgl::MenuBar</text>
<polyline fill="none" stroke="black" points="1205,-93.5 1284,-93.5 "/>
<text text-anchor="middle" x="1244.5" y="-81.5" font-family="Helvetica,sans-Serif" font-size="10.00"> </text>
<polyline fill="none" stroke="black" points="1205,-74.5 1284,-74.5 "/>
<text text-anchor="start" x="1213" y="-62.5" font-family="Helvetica,sans-Serif" font-size="10.00">+ MenuBar()</text>
<text text-anchor="start" x="1213" y="-51.5" font-family="Helvetica,sans-Serif" font-size="10.00">+ ~MenuBar()</text>
<text text-anchor="start" x="1213" y="-40.5" font-family="Helvetica,sans-Serif" font-size="10.00">+ addMenu()</text>
<text text-anchor="start" x="1213" y="-29.5" font-family="Helvetica,sans-Serif" font-size="10.00">+ getMenu()</text>
<text text-anchor="start" x="1213" y="-18.5" font-family="Helvetica,sans-Serif" font-size="10.00">+ showMenu()</text>
<text text-anchor="start" x="1213" y="-7.5" font-family="Helvetica,sans-Serif" font-size="10.00">+ hideMenu()</text>
</a>
</g>
</g>
<!-- Node2 -->
<g id="node2" class="node">
<title>Node2</title>
<g id="a_node2"><a xlink:href="class_sgl_1_1_h_box.html" target="_top" xlink:title=" ">
<polygon fill="white" stroke="black" points="1298.5,-150.5 1298.5,-218.5 1360.5,-218.5 1360.5,-150.5 1298.5,-150.5"/>
<text text-anchor="middle" x="1329.5" y="-206.5" font-family="Helvetica,sans-Serif" font-size="10.00">Sgl::HBox</text>
<polyline fill="none" stroke="black" points="1298.5,-199.5 1360.5,-199.5 "/>
<text text-anchor="middle" x="1329.5" y="-187.5" font-family="Helvetica,sans-Serif" font-size="10.00"> </text>
<polyline fill="none" stroke="black" points="1298.5,-180.5 1360.5,-180.5 "/>
<text text-anchor="start" x="1306.5" y="-168.5" font-family="Helvetica,sans-Serif" font-size="10.00">+ HBox()</text>
<text text-anchor="start" x="1306.5" y="-157.5" font-family="Helvetica,sans-Serif" font-size="10.00">+ ~HBox()</text>
</a>
</g>
</g>
<!-- Node2&#45;&gt;Node1 -->
<g id="edge1" class="edge">
<title>Node2&#45;&gt;Node1</title>
<path fill="none" stroke="midnightblue" d="M1301.53,-142.04C1295.22,-132.68 1288.43,-122.61 1281.8,-112.79"/>
<polygon fill="none" stroke="midnightblue" points="1298.67,-144.06 1307.17,-150.39 1304.48,-140.15 1298.67,-144.06"/>
</g>
<!-- Node3 -->
<g id="node3" class="node">
<title>Node3</title>
<g id="a_node3"><a xlink:href="class_sgl_1_1_box_container.html" target="_top" xlink:title="Basic list&#45;like container which lays out children in a line one after another.">
<polygon fill="white" stroke="black" points="1308,-256.5 1308,-368.5 1405,-368.5 1405,-256.5 1308,-256.5"/>
<text text-anchor="middle" x="1356.5" y="-356.5" font-family="Helvetica,sans-Serif" font-size="10.00">Sgl::BoxContainer</text>
<polyline fill="none" stroke="black" points="1308,-349.5 1405,-349.5 "/>
<text text-anchor="middle" x="1356.5" y="-337.5" font-family="Helvetica,sans-Serif" font-size="10.00"> </text>
<polyline fill="none" stroke="black" points="1308,-330.5 1405,-330.5 "/>
<text text-anchor="start" x="1316" y="-318.5" font-family="Helvetica,sans-Serif" font-size="10.00">+ BoxContainer()</text>
<text text-anchor="start" x="1316" y="-307.5" font-family="Helvetica,sans-Serif" font-size="10.00">+ BoxContainer()</text>
<text text-anchor="start" x="1316" y="-296.5" font-family="Helvetica,sans-Serif" font-size="10.00">+ ~BoxContainer()</text>
<text text-anchor="start" x="1316" y="-285.5" font-family="Helvetica,sans-Serif" font-size="10.00">+ getDirection()</text>
<text text-anchor="start" x="1316" y="-274.5" font-family="Helvetica,sans-Serif" font-size="10.00">+ setDirection()</text>
<text text-anchor="start" x="1316" y="-263.5" font-family="Helvetica,sans-Serif" font-size="10.00">and 8 more...</text>
</a>
</g>
</g>
<!-- Node3&#45;&gt;Node2 -->
<g id="edge2" class="edge">
<title>Node3&#45;&gt;Node2</title>
<path fill="none" stroke="midnightblue" d="M1342.52,-246.26C1340.47,-236.68 1338.43,-227.17 1336.6,-218.62"/>
<polygon fill="none" stroke="midnightblue" points="1339.14,-247.19 1344.66,-256.23 1345.98,-245.72 1339.14,-247.19"/>
</g>
<!-- Node4 -->
<g id="node4" class="node">
<title>Node4</title>
<g id="a_node4"><a xlink:href="class_sgl_1_1_container.html" target="_top" xlink:title=" ">
<polygon fill="white" stroke="black" points="1305.5,-438.5 1305.5,-539.5 1413.5,-539.5 1413.5,-438.5 1305.5,-438.5"/>
<text text-anchor="middle" x="1359.5" y="-527.5" font-family="Helvetica,sans-Serif" font-size="10.00">Sgl::Container</text>
<polyline fill="none" stroke="black" points="1305.5,-520.5 1413.5,-520.5 "/>
<text text-anchor="middle" x="1359.5" y="-508.5" font-family="Helvetica,sans-Serif" font-size="10.00"> </text>
<polyline fill="none" stroke="black" points="1305.5,-501.5 1413.5,-501.5 "/>
<text text-anchor="start" x="1313.5" y="-489.5" font-family="Helvetica,sans-Serif" font-size="10.00">+ Container()</text>
<text text-anchor="start" x="1313.5" y="-478.5" font-family="Helvetica,sans-Serif" font-size="10.00">+ ~Container()</text>
<text text-anchor="start" x="1313.5" y="-467.5" font-family="Helvetica,sans-Serif" font-size="10.00">+ getHitComponent()</text>
<text text-anchor="start" x="1313.5" y="-456.5" font-family="Helvetica,sans-Serif" font-size="10.00">+ render()</text>
<text text-anchor="start" x="1313.5" y="-445.5" font-family="Helvetica,sans-Serif" font-size="10.00"># prerenderSelf()</text>
</a>
</g>
</g>
<!-- Node4&#45;&gt;Node3 -->
<g id="edge3" class="edge">
<title>Node4&#45;&gt;Node3</title>
<path fill="none" stroke="midnightblue" d="M1377.41,-428.16C1379.6,-414.66 1380.46,-400.36 1378.5,-387 1377.63,-381.07 1376.39,-374.95 1374.93,-368.9"/>
<polygon fill="none" stroke="midnightblue" points="1373.91,-427.83 1375.51,-438.3 1380.79,-429.12 1373.91,-427.83"/>
</g>
<!-- Node5 -->
<g id="node5" class="node">
<title>Node5</title>
<g id="a_node5"><a xlink:href="class_sgl_1_1_parent.html" target="_top" xlink:title=" ">
<polygon fill="white" stroke="black" points="813.5,-609.5 813.5,-787.5 959.5,-787.5 959.5,-609.5 813.5,-609.5"/>
<text text-anchor="middle" x="886.5" y="-775.5" font-family="Helvetica,sans-Serif" font-size="10.00">Sgl::Parent</text>
<polyline fill="none" stroke="black" points="813.5,-768.5 959.5,-768.5 "/>
<text text-anchor="middle" x="886.5" y="-756.5" font-family="Helvetica,sans-Serif" font-size="10.00"> </text>
<polyline fill="none" stroke="black" points="813.5,-749.5 959.5,-749.5 "/>
<text text-anchor="start" x="821.5" y="-737.5" font-family="Helvetica,sans-Serif" font-size="10.00">+ Parent()</text>
<text text-anchor="start" x="821.5" y="-726.5" font-family="Helvetica,sans-Serif" font-size="10.00">+ ~Parent()</text>
<text text-anchor="start" x="821.5" y="-715.5" font-family="Helvetica,sans-Serif" font-size="10.00">+ getHitComponent()</text>
<text text-anchor="start" x="821.5" y="-704.5" font-family="Helvetica,sans-Serif" font-size="10.00">+ render()</text>
<text text-anchor="start" x="821.5" y="-693.5" font-family="Helvetica,sans-Serif" font-size="10.00">+ layout()</text>
<text text-anchor="start" x="821.5" y="-682.5" font-family="Helvetica,sans-Serif" font-size="10.00">and 39 more...</text>
<text text-anchor="start" x="821.5" y="-671.5" font-family="Helvetica,sans-Serif" font-size="10.00"># setSceneInSceneTree()</text>
<text text-anchor="start" x="821.5" y="-660.5" font-family="Helvetica,sans-Serif" font-size="10.00"># layoutChildren()</text>
<text text-anchor="start" x="821.5" y="-649.5" font-family="Helvetica,sans-Serif" font-size="10.00"># prerenderSelf()</text>
<text text-anchor="start" x="821.5" y="-638.5" font-family="Helvetica,sans-Serif" font-size="10.00"># updateSnapshotSize()</text>
<text text-anchor="start" x="821.5" y="-627.5" font-family="Helvetica,sans-Serif" font-size="10.00"># computeCustomPrefWidth()</text>
<text text-anchor="start" x="821.5" y="-616.5" font-family="Helvetica,sans-Serif" font-size="10.00">and 5 more...</text>
</a>
</g>
</g>
<!-- Node5&#45;&gt;Node4 -->
<g id="edge4" class="edge">
<title>Node5&#45;&gt;Node4</title>
<path fill="none" stroke="midnightblue" d="M968.79,-661.4C1065.43,-619.01 1222.99,-549.89 1305.39,-513.74"/>
<polygon fill="none" stroke="midnightblue" points="967.38,-658.2 959.63,-665.42 970.19,-664.61 967.38,-658.2"/>
</g>
<!-- Node6 -->
<g id="node6" class="node">
<title>Node6</title>
<g id="a_node6"><a xlink:href="class_sgl_1_1_component.html" target="_top" xlink:title=" ">
<polygon fill="white" stroke="black" points="294.5,-416.5 294.5,-561.5 422.5,-561.5 422.5,-416.5 294.5,-416.5"/>
<text text-anchor="middle" x="358.5" y="-549.5" font-family="Helvetica,sans-Serif" font-size="10.00">Sgl::Component</text>
<polyline fill="none" stroke="black" points="294.5,-542.5 422.5,-542.5 "/>
<text text-anchor="middle" x="358.5" y="-530.5" font-family="Helvetica,sans-Serif" font-size="10.00"> </text>
<polyline fill="none" stroke="black" points="294.5,-523.5 422.5,-523.5 "/>
<text text-anchor="start" x="302.5" y="-511.5" font-family="Helvetica,sans-Serif" font-size="10.00">+ Component()</text>
<text text-anchor="start" x="302.5" y="-500.5" font-family="Helvetica,sans-Serif" font-size="10.00">+ ~Component()</text>
<text text-anchor="start" x="302.5" y="-489.5" font-family="Helvetica,sans-Serif" font-size="10.00">+ getHitComponent()</text>
<text text-anchor="start" x="302.5" y="-478.5" font-family="Helvetica,sans-Serif" font-size="10.00">+ render()</text>
<text text-anchor="start" x="302.5" y="-467.5" font-family="Helvetica,sans-Serif" font-size="10.00">+ layout()</text>
<text text-anchor="start" x="302.5" y="-456.5" font-family="Helvetica,sans-Serif" font-size="10.00">and 42 more...</text>
<text text-anchor="start" x="302.5" y="-445.5" font-family="Helvetica,sans-Serif" font-size="10.00"># updateShadow()</text>
<text text-anchor="start" x="302.5" y="-434.5" font-family="Helvetica,sans-Serif" font-size="10.00"># renderShadow()</text>
<text text-anchor="start" x="302.5" y="-423.5" font-family="Helvetica,sans-Serif" font-size="10.00"># setSceneInSceneTree()</text>
</a>
</g>
</g>
<!-- Node5&#45;&gt;Node6 -->
<g id="edge17" class="edge">
<title>Node5&#45;&gt;Node6</title>
<path fill="none" stroke="#404040" d="M813.33,-638.47C798.07,-627.76 781.69,-617.36 765.5,-609 657.22,-553.09 518.79,-519.73 434.49,-503.13"/>
<polygon fill="none" stroke="#404040" points="434.48,-503.13 427.83,-505.92 422.7,-500.85 429.35,-498.07 434.48,-503.13"/>
<text text-anchor="middle" x="750" y="-583" font-family="Helvetica,sans-Serif" font-size="10.00"> #m_Parent</text>
</g>
<!-- Node6&#45;&gt;Node5 -->
<g id="edge5" class="edge">
<title>Node6&#45;&gt;Node5</title>
<path fill="none" stroke="midnightblue" d="M433.02,-493.38C557.86,-500.6 801.51,-521.94 861.5,-580 869.89,-588.12 875.81,-598.31 879.93,-609.28"/>
<polygon fill="none" stroke="midnightblue" points="432.96,-489.87 422.78,-492.8 432.56,-496.86 432.96,-489.87"/>
</g>
<!-- Node7 -->
<g id="node7" class="node">
<title>Node7</title>
<g id="a_node7"><a xlink:title=" ">
<polygon fill="white" stroke="#bfbfbf" points="127.5,-879.5 127.5,-936.5 219.5,-936.5 219.5,-879.5 127.5,-879.5"/>
<text text-anchor="middle" x="173.5" y="-924.5" font-family="Helvetica,sans-Serif" font-size="10.00">Sml::EventTarget</text>
<polyline fill="none" stroke="#bfbfbf" points="127.5,-917.5 219.5,-917.5 "/>
<text text-anchor="middle" x="173.5" y="-905.5" font-family="Helvetica,sans-Serif" font-size="10.00"> </text>
<polyline fill="none" stroke="#bfbfbf" points="127.5,-898.5 219.5,-898.5 "/>
<text text-anchor="middle" x="173.5" y="-886.5" font-family="Helvetica,sans-Serif" font-size="10.00"> </text>
</a>
</g>
</g>
<!-- Node7&#45;&gt;Node6 -->
<g id="edge6" class="edge">
<title>Node7&#45;&gt;Node6</title>
<path fill="none" stroke="midnightblue" d="M199.1,-871.04C214.39,-848.17 233.17,-817.42 245.5,-788 282.37,-700.01 259.71,-667.16 298.5,-580 301.21,-573.91 304.32,-567.78 307.67,-561.73"/>
<polygon fill="none" stroke="midnightblue" points="196.15,-869.16 193.43,-879.4 201.94,-873.09 196.15,-869.16"/>
</g>
<!-- Node16 -->
<g id="node16" class="node">
<title>Node16</title>
<g id="a_node16"><a xlink:href="class_sgl_1_1_scene.html" target="_top" xlink:title=" ">
<polygon fill="white" stroke="black" points="71.5,-642.5 71.5,-754.5 151.5,-754.5 151.5,-642.5 71.5,-642.5"/>
<text text-anchor="middle" x="111.5" y="-742.5" font-family="Helvetica,sans-Serif" font-size="10.00">Sgl::Scene</text>
<polyline fill="none" stroke="black" points="71.5,-735.5 151.5,-735.5 "/>
<text text-anchor="middle" x="111.5" y="-723.5" font-family="Helvetica,sans-Serif" font-size="10.00"> </text>
<polyline fill="none" stroke="black" points="71.5,-716.5 151.5,-716.5 "/>
<text text-anchor="start" x="79.5" y="-704.5" font-family="Helvetica,sans-Serif" font-size="10.00">+ Scene()</text>
<text text-anchor="start" x="79.5" y="-693.5" font-family="Helvetica,sans-Serif" font-size="10.00">+ Scene()</text>
<text text-anchor="start" x="79.5" y="-682.5" font-family="Helvetica,sans-Serif" font-size="10.00">+ ~Scene()</text>
<text text-anchor="start" x="79.5" y="-671.5" font-family="Helvetica,sans-Serif" font-size="10.00">+ update()</text>
<text text-anchor="start" x="79.5" y="-660.5" font-family="Helvetica,sans-Serif" font-size="10.00">+ render()</text>
<text text-anchor="start" x="79.5" y="-649.5" font-family="Helvetica,sans-Serif" font-size="10.00">and 17 more...</text>
</a>
</g>
</g>
<!-- Node7&#45;&gt;Node16 -->
<g id="edge16" class="edge">
<title>Node7&#45;&gt;Node16</title>
<path fill="none" stroke="midnightblue" d="M162.33,-869.6C152.77,-837.63 138.89,-791.17 128.05,-754.88"/>
<polygon fill="none" stroke="midnightblue" points="159.05,-870.87 165.27,-879.45 165.76,-868.86 159.05,-870.87"/>
</g>
<!-- Node8 -->
<g id="node8" class="node">
<title>Node8</title>
<g id="a_node8"><a xlink:title=" ">
<polygon fill="white" stroke="#bfbfbf" points="687.5,-1050.5 687.5,-1107.5 733.5,-1107.5 733.5,-1050.5 687.5,-1050.5"/>
<text text-anchor="middle" x="710.5" y="-1095.5" font-family="Helvetica,sans-Serif" font-size="10.00">int32_t</text>
<polyline fill="none" stroke="#bfbfbf" points="687.5,-1088.5 733.5,-1088.5 "/>
<text text-anchor="middle" x="710.5" y="-1076.5" font-family="Helvetica,sans-Serif" font-size="10.00"> </text>
<polyline fill="none" stroke="#bfbfbf" points="687.5,-1069.5 733.5,-1069.5 "/>
<text text-anchor="middle" x="710.5" y="-1057.5" font-family="Helvetica,sans-Serif" font-size="10.00"> </text>
</a>
</g>
</g>
<!-- Node8&#45;&gt;Node5 -->
<g id="edge27" class="edge">
<title>Node8&#45;&gt;Node5</title>
<path fill="none" stroke="#404040" d="M733.59,-1061.66C758.81,-1042.57 798.54,-1008.62 820.5,-970 829.14,-954.81 849.08,-870.44 864.8,-799.91"/>
<polygon fill="none" stroke="#404040" points="864.88,-799.54 862.28,-792.81 867.48,-787.82 870.09,-794.55 864.88,-799.54"/>
<text text-anchor="middle" x="889.5" y="-933" font-family="Helvetica,sans-Serif" font-size="10.00"> #m_MaxHeight</text>
<text text-anchor="middle" x="889.5" y="-922" font-family="Helvetica,sans-Serif" font-size="10.00">#m_MaxWidth</text>
<text text-anchor="middle" x="889.5" y="-911" font-family="Helvetica,sans-Serif" font-size="10.00">#m_MinHeight</text>
<text text-anchor="middle" x="889.5" y="-900" font-family="Helvetica,sans-Serif" font-size="10.00">#m_MinWidth</text>
<text text-anchor="middle" x="889.5" y="-889" font-family="Helvetica,sans-Serif" font-size="10.00">#m_PrefHeight</text>
<text text-anchor="middle" x="889.5" y="-878" font-family="Helvetica,sans-Serif" font-size="10.00">#m_PrefWidth</text>
</g>
<!-- Node8&#45;&gt;Node6 -->
<g id="edge7" class="edge">
<title>Node8&#45;&gt;Node6</title>
<path fill="none" stroke="#404040" d="M687.31,-1074.98C633.37,-1066.92 497.52,-1040.48 411.5,-970 354.43,-923.24 345.34,-899.07 325.5,-828 301.86,-743.32 316.96,-642.6 333.68,-573.27"/>
<polygon fill="none" stroke="#404040" points="333.7,-573.2 331.27,-566.41 336.6,-561.56 339.03,-568.35 333.7,-573.2"/>
<text text-anchor="middle" x="384.5" y="-820" font-family="Helvetica,sans-Serif" font-size="10.00"> +UNLIMITED_SIZE</text>
<text text-anchor="middle" x="384.5" y="-809" font-family="Helvetica,sans-Serif" font-size="10.00">+USE_COMPUTED_SIZE</text>
</g>
<!-- Node22 -->
<g id="node22" class="node">
<title>Node22</title>
<g id="a_node22"><a xlink:href="struct_sgl_1_1_insets.html" target="_top" xlink:title=" ">
<polygon fill="white" stroke="black" points="671,-852 671,-964 750,-964 750,-852 671,-852"/>
<text text-anchor="middle" x="710.5" y="-952" font-family="Helvetica,sans-Serif" font-size="10.00">Sgl::Insets</text>
<polyline fill="none" stroke="black" points="671,-945 750,-945 "/>
<text text-anchor="middle" x="710.5" y="-933" font-family="Helvetica,sans-Serif" font-size="10.00"> </text>
<polyline fill="none" stroke="black" points="671,-926 750,-926 "/>
<text text-anchor="start" x="679" y="-914" font-family="Helvetica,sans-Serif" font-size="10.00">+ Insets()</text>
<text text-anchor="start" x="679" y="-903" font-family="Helvetica,sans-Serif" font-size="10.00">+ Insets()</text>
<text text-anchor="start" x="679" y="-892" font-family="Helvetica,sans-Serif" font-size="10.00">+ Insets()</text>
<text text-anchor="start" x="679" y="-881" font-family="Helvetica,sans-Serif" font-size="10.00">+ Insets()</text>
<text text-anchor="start" x="679" y="-870" font-family="Helvetica,sans-Serif" font-size="10.00">+ operator+=()</text>
<text text-anchor="start" x="679" y="-859" font-family="Helvetica,sans-Serif" font-size="10.00">+ operator&#45;=()</text>
</a>
</g>
</g>
<!-- Node8&#45;&gt;Node22 -->
<g id="edge26" class="edge">
<title>Node8&#45;&gt;Node22</title>
<path fill="none" stroke="#404040" d="M710.5,-1050.47C710.5,-1030.37 710.5,-1002.21 710.5,-976.3"/>
<polygon fill="none" stroke="#404040" points="710.5,-976.2 706.5,-970.2 710.5,-964.2 714.5,-970.2 710.5,-976.2"/>
<text text-anchor="middle" x="730.5" y="-1024" font-family="Helvetica,sans-Serif" font-size="10.00"> +bottom</text>
<text text-anchor="middle" x="730.5" y="-1013" font-family="Helvetica,sans-Serif" font-size="10.00">+left</text>
<text text-anchor="middle" x="730.5" y="-1002" font-family="Helvetica,sans-Serif" font-size="10.00">+right</text>
<text text-anchor="middle" x="730.5" y="-991" font-family="Helvetica,sans-Serif" font-size="10.00">+top</text>
</g>
<!-- Node9 -->
<g id="node9" class="node">
<title>Node9</title>
<g id="a_node9"><a xlink:title=" ">
<polygon fill="white" stroke="#bfbfbf" points="338,-670 338,-727 379,-727 379,-670 338,-670"/>
<text text-anchor="middle" x="358.5" y="-715" font-family="Helvetica,sans-Serif" font-size="10.00">friend</text>
<polyline fill="none" stroke="#bfbfbf" points="338,-708 379,-708 "/>
<text text-anchor="middle" x="358.5" y="-696" font-family="Helvetica,sans-Serif" font-size="10.00"> </text>
<polyline fill="none" stroke="#bfbfbf" points="338,-689 379,-689 "/>
<text text-anchor="middle" x="358.5" y="-677" font-family="Helvetica,sans-Serif" font-size="10.00"> </text>
</a>
</g>
</g>
<!-- Node9&#45;&gt;Node6 -->
<g id="edge8" class="edge">
<title>Node9&#45;&gt;Node6</title>
<path fill="none" stroke="#404040" d="M358.5,-669.95C358.5,-645.5 358.5,-608.47 358.5,-574.35"/>
<polygon fill="none" stroke="#404040" points="358.5,-573.93 354.5,-567.93 358.5,-561.93 362.5,-567.93 358.5,-573.93"/>
<text text-anchor="middle" x="377" y="-583" font-family="Helvetica,sans-Serif" font-size="10.00"> +Scene</text>
</g>
<!-- Node10 -->
<g id="node10" class="node">
<title>Node10</title>
<g id="a_node10"><a xlink:title=" ">
<polygon fill="white" stroke="#bfbfbf" points="0,-670 0,-727 53,-727 53,-670 0,-670"/>
<text text-anchor="middle" x="26.5" y="-715" font-family="Helvetica,sans-Serif" font-size="10.00">Visibility</text>
<polyline fill="none" stroke="#bfbfbf" points="0,-708 53,-708 "/>
<text text-anchor="middle" x="26.5" y="-696" font-family="Helvetica,sans-Serif" font-size="10.00"> </text>
<polyline fill="none" stroke="#bfbfbf" points="0,-689 53,-689 "/>
<text text-anchor="middle" x="26.5" y="-677" font-family="Helvetica,sans-Serif" font-size="10.00"> </text>
</a>
</g>
</g>
<!-- Node10&#45;&gt;Node6 -->
<g id="edge9" class="edge">
<title>Node10&#45;&gt;Node6</title>
<path fill="none" stroke="#404040" d="M26.71,-669.79C28.42,-643.32 35.11,-604 58.5,-580 117.1,-519.88 214.13,-499.54 281.93,-492.87"/>
<polygon fill="none" stroke="#404040" points="282.28,-492.84 287.9,-488.32 294.23,-491.77 288.61,-496.29 282.28,-492.84"/>
<text text-anchor="middle" x="88" y="-583" font-family="Helvetica,sans-Serif" font-size="10.00"> #m_Visibility</text>
</g>
<!-- Node11 -->
<g id="node11" class="node">
<title>Node11</title>
<g id="a_node11"><a xlink:title=" ">
<polygon fill="white" stroke="#bfbfbf" points="618,-879.5 618,-936.5 653,-936.5 653,-879.5 618,-879.5"/>
<text text-anchor="middle" x="635.5" y="-924.5" font-family="Helvetica,sans-Serif" font-size="10.00">bool</text>
<polyline fill="none" stroke="#bfbfbf" points="618,-917.5 653,-917.5 "/>
<text text-anchor="middle" x="635.5" y="-905.5" font-family="Helvetica,sans-Serif" font-size="10.00"> </text>
<polyline fill="none" stroke="#bfbfbf" points="618,-898.5 653,-898.5 "/>
<text text-anchor="middle" x="635.5" y="-886.5" font-family="Helvetica,sans-Serif" font-size="10.00"> </text>
</a>
</g>
</g>
<!-- Node11&#45;&gt;Node5 -->
<g id="edge21" class="edge">
<title>Node11&#45;&gt;Node5</title>
<path fill="none" stroke="#404040" d="M634.28,-879.36C634.86,-856.4 639.64,-824.61 659.5,-806 694.37,-773.33 721.48,-806.6 765.5,-788 778.33,-782.58 791.08,-775.56 803.23,-767.84"/>
<polygon fill="none" stroke="#404040" points="803.26,-767.82 806.07,-761.18 813.28,-761.21 810.47,-767.85 803.26,-767.82"/>
<text text-anchor="middle" x="708" y="-814.5" font-family="Helvetica,sans-Serif" font-size="10.00"> #m_NeedLayoutPass</text>
</g>
<!-- Node11&#45;&gt;Node6 -->
<g id="edge10" class="edge">
<title>Node11&#45;&gt;Node6</title>
<path fill="none" stroke="#404040" d="M623.65,-879.48C611.1,-850.14 592.33,-805.54 586.5,-788 560.58,-710.06 588.34,-675.77 540.5,-609 513.59,-571.43 470.8,-542.58 433.47,-522.7"/>
<polygon fill="none" stroke="#404040" points="433.25,-522.59 426.08,-523.39 422.59,-517.08 429.76,-516.28 433.25,-522.59"/>
<text text-anchor="middle" x="616.5" y="-701.5" font-family="Helvetica,sans-Serif" font-size="10.00"> #m_Focused</text>
<text text-anchor="middle" x="616.5" y="-690.5" font-family="Helvetica,sans-Serif" font-size="10.00">#m_Hovered</text>
</g>
<!-- Node12 -->
<g id="node12" class="node">
<title>Node12</title>
<g id="a_node12"><a xlink:href="class_sgl_1_1_shadow.html" target="_top" xlink:title=" ">
<polygon fill="white" stroke="black" points="656,-637 656,-760 757,-760 757,-637 656,-637"/>
<text text-anchor="middle" x="706.5" y="-748" font-family="Helvetica,sans-Serif" font-size="10.00">Sgl::Shadow</text>
<polyline fill="none" stroke="black" points="656,-741 757,-741 "/>
<text text-anchor="middle" x="706.5" y="-729" font-family="Helvetica,sans-Serif" font-size="10.00"> </text>
<polyline fill="none" stroke="black" points="656,-722 757,-722 "/>
<text text-anchor="start" x="664" y="-710" font-family="Helvetica,sans-Serif" font-size="10.00">+ Shadow()</text>
<text text-anchor="start" x="664" y="-699" font-family="Helvetica,sans-Serif" font-size="10.00">+ ~Shadow()</text>
<text text-anchor="start" x="664" y="-688" font-family="Helvetica,sans-Serif" font-size="10.00">+ update()</text>
<text text-anchor="start" x="664" y="-677" font-family="Helvetica,sans-Serif" font-size="10.00">+ render()</text>
<text text-anchor="start" x="664" y="-666" font-family="Helvetica,sans-Serif" font-size="10.00">+ getTexture()</text>
<text text-anchor="start" x="664" y="-655" font-family="Helvetica,sans-Serif" font-size="10.00">+ getSpecification()</text>
<text text-anchor="start" x="664" y="-644" font-family="Helvetica,sans-Serif" font-size="10.00">+ setSpecification()</text>
</a>
</g>
</g>
<!-- Node12&#45;&gt;Node6 -->
<g id="edge11" class="edge">
<title>Node12&#45;&gt;Node6</title>
<path fill="none" stroke="#404040" d="M666.98,-636.58C659.18,-626.76 650.58,-617.15 641.5,-609 582.34,-555.91 496.07,-524.29 434.34,-507.14"/>
<polygon fill="none" stroke="#404040" points="434.31,-507.13 427.48,-509.43 422.73,-504 429.57,-501.71 434.31,-507.13"/>
<text text-anchor="middle" x="645.5" y="-583" font-family="Helvetica,sans-Serif" font-size="10.00"> #m_Shadow</text>
</g>
<!-- Node13 -->
<g id="node13" class="node">
<title>Node13</title>
<g id="a_node13"><a xlink:href="class_gui_event_dispatcher.html" target="_top" xlink:title=" ">
<polygon fill="white" stroke="black" points="397,-631.5 397,-765.5 532,-765.5 532,-631.5 397,-631.5"/>
<text text-anchor="middle" x="464.5" y="-753.5" font-family="Helvetica,sans-Serif" font-size="10.00">GuiEventDispatcher</text>
<polyline fill="none" stroke="black" points="397,-746.5 532,-746.5 "/>
<text text-anchor="middle" x="464.5" y="-734.5" font-family="Helvetica,sans-Serif" font-size="10.00"> </text>
<polyline fill="none" stroke="black" points="397,-727.5 532,-727.5 "/>
<text text-anchor="start" x="405" y="-715.5" font-family="Helvetica,sans-Serif" font-size="10.00">+ ~GuiEventDispatcher()</text>
<text text-anchor="start" x="405" y="-704.5" font-family="Helvetica,sans-Serif" font-size="10.00">+ attachFilter()</text>
<text text-anchor="start" x="405" y="-693.5" font-family="Helvetica,sans-Serif" font-size="10.00">+ detachFilter()</text>
<text text-anchor="start" x="405" y="-682.5" font-family="Helvetica,sans-Serif" font-size="10.00">+ attachHandler()</text>
<text text-anchor="start" x="405" y="-671.5" font-family="Helvetica,sans-Serif" font-size="10.00">+ detachHandler()</text>
<text text-anchor="start" x="405" y="-660.5" font-family="Helvetica,sans-Serif" font-size="10.00">+ dispatchEvent()</text>
<text text-anchor="start" x="405" y="-649.5" font-family="Helvetica,sans-Serif" font-size="10.00"># dispatchCapturingEvent()</text>
<text text-anchor="start" x="405" y="-638.5" font-family="Helvetica,sans-Serif" font-size="10.00"># dispatchBubblingEvent()</text>
</a>
</g>
</g>
<!-- Node13&#45;&gt;Node6 -->
<g id="edge12" class="edge">
<title>Node13&#45;&gt;Node6</title>
<path fill="none" stroke="#404040" d="M430.67,-631.28C421.11,-612.56 410.59,-591.97 400.61,-572.42"/>
<polygon fill="none" stroke="#404040" points="400.58,-572.38 394.29,-568.86 395.12,-561.69 401.42,-565.22 400.58,-572.38"/>
<text text-anchor="middle" x="443.5" y="-583" font-family="Helvetica,sans-Serif" font-size="10.00"> #m_Dispatcher</text>
</g>
<!-- Node14 -->
<g id="node14" class="node">
<title>Node14</title>
<g id="a_node14"><a xlink:title=" ">
<polygon fill="white" stroke="#bfbfbf" points="487,-879.5 487,-936.5 600,-936.5 600,-879.5 487,-879.5"/>
<text text-anchor="middle" x="543.5" y="-924.5" font-family="Helvetica,sans-Serif" font-size="10.00">Sml::EventDispatcher</text>
<polyline fill="none" stroke="#bfbfbf" points="487,-917.5 600,-917.5 "/>
<text text-anchor="middle" x="543.5" y="-905.5" font-family="Helvetica,sans-Serif" font-size="10.00"> </text>
<polyline fill="none" stroke="#bfbfbf" points="487,-898.5 600,-898.5 "/>
<text text-anchor="middle" x="543.5" y="-886.5" font-family="Helvetica,sans-Serif" font-size="10.00"> </text>
</a>
</g>
</g>
<!-- Node14&#45;&gt;Node13 -->
<g id="edge13" class="edge">
<title>Node14&#45;&gt;Node13</title>
<path fill="none" stroke="midnightblue" d="M546.51,-868.97C546.83,-849.64 545.33,-826.05 538.5,-806 533.78,-792.15 526.69,-778.46 518.73,-765.76"/>
<polygon fill="none" stroke="midnightblue" points="543.01,-869.12 546.17,-879.23 550,-869.35 543.01,-869.12"/>
</g>
<!-- Node15 -->
<g id="node15" class="node">
<title>Node15</title>
<g id="a_node15"><a xlink:title=" ">
<polygon fill="white" stroke="#bfbfbf" points="420.5,-879.5 420.5,-936.5 468.5,-936.5 468.5,-879.5 420.5,-879.5"/>
<text text-anchor="middle" x="444.5" y="-924.5" font-family="Helvetica,sans-Serif" font-size="10.00">Notifier</text>
<polyline fill="none" stroke="#bfbfbf" points="420.5,-917.5 468.5,-917.5 "/>
<text text-anchor="middle" x="444.5" y="-905.5" font-family="Helvetica,sans-Serif" font-size="10.00"> </text>
<polyline fill="none" stroke="#bfbfbf" points="420.5,-898.5 468.5,-898.5 "/>
<text text-anchor="middle" x="444.5" y="-886.5" font-family="Helvetica,sans-Serif" font-size="10.00"> </text>
</a>
</g>
</g>
<!-- Node15&#45;&gt;Node13 -->
<g id="edge14" class="edge">
<title>Node15&#45;&gt;Node13</title>
<path fill="none" stroke="#404040" d="M444.79,-879.08C445.19,-858.77 446.17,-830.63 448.5,-806 449.37,-796.77 450.51,-787.13 451.77,-777.57"/>
<polygon fill="none" stroke="#404040" points="451.79,-777.43 448.65,-770.94 453.43,-765.55 456.57,-772.04 451.79,-777.43"/>
<text text-anchor="middle" x="493.5" y="-820" font-family="Helvetica,sans-Serif" font-size="10.00"> #m_FiltersNotifier</text>
<text text-anchor="middle" x="493.5" y="-809" font-family="Helvetica,sans-Serif" font-size="10.00">#m_HandlersNotifier</text>
</g>
<!-- Node16&#45;&gt;Node6 -->
<g id="edge15" class="edge">
<title>Node16&#45;&gt;Node6</title>
<path fill="none" stroke="#404040" d="M107.58,-642.31C108.79,-620.89 113.8,-597.38 127.5,-580 164.88,-532.56 230.68,-510.09 282.52,-499.46"/>
<polygon fill="none" stroke="#404040" points="282.57,-499.45 287.71,-494.39 294.36,-497.19 289.22,-502.25 282.57,-499.45"/>
<text text-anchor="middle" x="152.5" y="-583" font-family="Helvetica,sans-Serif" font-size="10.00"> #m_Scene</text>
</g>
<!-- Node17 -->
<g id="node17" class="node">
<title>Node17</title>
<g id="a_node17"><a xlink:title=" ">
<polygon fill="white" stroke="#bfbfbf" points="170,-670 170,-727 237,-727 237,-670 170,-670"/>
<text text-anchor="middle" x="203.5" y="-715" font-family="Helvetica,sans-Serif" font-size="10.00">Rectangle&lt;</text>
<polyline fill="none" stroke="#bfbfbf" points="170,-708 237,-708 "/>
<text text-anchor="middle" x="203.5" y="-696" font-family="Helvetica,sans-Serif" font-size="10.00"> </text>
<polyline fill="none" stroke="#bfbfbf" points="170,-689 237,-689 "/>
<text text-anchor="middle" x="203.5" y="-677" font-family="Helvetica,sans-Serif" font-size="10.00"> </text>
</a>
</g>
</g>
<!-- Node17&#45;&gt;Node6 -->
<g id="edge18" class="edge">
<title>Node17&#45;&gt;Node6</title>
<path fill="none" stroke="#404040" d="M189.55,-669.83C179,-644.65 168.9,-607.34 185.5,-580 206.74,-545.01 246.51,-522.99 282.57,-509.5"/>
<polygon fill="none" stroke="#404040" points="282.8,-509.42 287.13,-503.65 294.12,-505.41 289.79,-511.19 282.8,-509.42"/>
<text text-anchor="middle" x="228" y="-583" font-family="Helvetica,sans-Serif" font-size="10.00"> #m_LayoutBounds</text>
</g>
<!-- Node18 -->
<g id="node18" class="node">
<title>Node18</title>
<g id="a_node18"><a xlink:title=" ">
<polygon fill="white" stroke="#bfbfbf" points="937,-879.5 937,-936.5 972,-936.5 972,-879.5 937,-879.5"/>
<text text-anchor="middle" x="954.5" y="-924.5" font-family="Helvetica,sans-Serif" font-size="10.00">list&lt;</text>
<polyline fill="none" stroke="#bfbfbf" points="937,-917.5 972,-917.5 "/>
<text text-anchor="middle" x="954.5" y="-905.5" font-family="Helvetica,sans-Serif" font-size="10.00"> </text>
<polyline fill="none" stroke="#bfbfbf" points="937,-898.5 972,-898.5 "/>
<text text-anchor="middle" x="954.5" y="-886.5" font-family="Helvetica,sans-Serif" font-size="10.00"> </text>
</a>
</g>
</g>
<!-- Node18&#45;&gt;Node5 -->
<g id="edge19" class="edge">
<title>Node18&#45;&gt;Node5</title>
<path fill="none" stroke="#404040" d="M944.15,-879.26C938.93,-867.96 931.73,-855.38 922.5,-846 910.78,-834.09 898.2,-842.27 889.5,-828 884.2,-819.3 880.69,-809.62 878.51,-799.59"/>
<polygon fill="none" stroke="#404040" points="878.5,-799.52 873.57,-794.25 876.53,-787.68 881.46,-792.94 878.5,-799.52"/>
<text text-anchor="middle" x="918.5" y="-814.5" font-family="Helvetica,sans-Serif" font-size="10.00"> #m_Children</text>
</g>
<!-- Node19 -->
<g id="node19" class="node">
<title>Node19</title>
<g id="a_node19"><a xlink:title=" ">
<polygon fill="white" stroke="#bfbfbf" points="1098.5,-879.5 1098.5,-936.5 1154.5,-936.5 1154.5,-879.5 1098.5,-879.5"/>
<text text-anchor="middle" x="1126.5" y="-924.5" font-family="Helvetica,sans-Serif" font-size="10.00">Texture *</text>
<polyline fill="none" stroke="#bfbfbf" points="1098.5,-917.5 1154.5,-917.5 "/>
<text text-anchor="middle" x="1126.5" y="-905.5" font-family="Helvetica,sans-Serif" font-size="10.00"> </text>
<polyline fill="none" stroke="#bfbfbf" points="1098.5,-898.5 1154.5,-898.5 "/>
<text text-anchor="middle" x="1126.5" y="-886.5" font-family="Helvetica,sans-Serif" font-size="10.00"> </text>
</a>
</g>
</g>
<!-- Node19&#45;&gt;Node5 -->
<g id="edge20" class="edge">
<title>Node19&#45;&gt;Node5</title>
<path fill="none" stroke="#404040" d="M1112.8,-879.27C1106.58,-868.22 1098.57,-855.83 1089.5,-846 1079.32,-834.97 1021.05,-793.21 969.54,-757.08"/>
<polygon fill="none" stroke="#404040" points="969.5,-757.06 962.29,-756.9 959.67,-750.18 966.88,-750.34 969.5,-757.06"/>
<text text-anchor="middle" x="1097.5" y="-814.5" font-family="Helvetica,sans-Serif" font-size="10.00"> #m_Snapshot</text>
</g>
<!-- Node20 -->
<g id="node20" class="node">
<title>Node20</title>
<g id="a_node20"><a xlink:href="class_sgl_1_1_background.html" target="_top" xlink:title=" ">
<polygon fill="white" stroke="black" points="1200,-846.5 1200,-969.5 1289,-969.5 1289,-846.5 1200,-846.5"/>
<text text-anchor="middle" x="1244.5" y="-957.5" font-family="Helvetica,sans-Serif" font-size="10.00">Sgl::Background</text>
<polyline fill="none" stroke="black" points="1200,-950.5 1289,-950.5 "/>
<text text-anchor="middle" x="1244.5" y="-938.5" font-family="Helvetica,sans-Serif" font-size="10.00"> </text>
<polyline fill="none" stroke="black" points="1200,-931.5 1289,-931.5 "/>
<text text-anchor="start" x="1208" y="-919.5" font-family="Helvetica,sans-Serif" font-size="10.00">+ Background()</text>
<text text-anchor="start" x="1208" y="-908.5" font-family="Helvetica,sans-Serif" font-size="10.00">+ Background()</text>
<text text-anchor="start" x="1208" y="-897.5" font-family="Helvetica,sans-Serif" font-size="10.00">+ Background()</text>
<text text-anchor="start" x="1208" y="-886.5" font-family="Helvetica,sans-Serif" font-size="10.00">+ Background()</text>
<text text-anchor="start" x="1208" y="-875.5" font-family="Helvetica,sans-Serif" font-size="10.00">+ addFill()</text>
<text text-anchor="start" x="1208" y="-864.5" font-family="Helvetica,sans-Serif" font-size="10.00">and 5 more...</text>
<text text-anchor="start" x="1208" y="-853.5" font-family="Helvetica,sans-Serif" font-size="10.00">+ fillArea()</text>
</a>
</g>
</g>
<!-- Node20&#45;&gt;Node1 -->
<g id="edge32" class="edge">
<title>Node20&#45;&gt;Node1</title>
<path fill="none" stroke="#404040" d="M1244.5,-846.17C1244.5,-804.81 1244.5,-748.85 1244.5,-699.5 1244.5,-699.5 1244.5,-699.5 1244.5,-183.5 1244.5,-164.48 1244.5,-143.84 1244.5,-124.88"/>
<polygon fill="none" stroke="#404040" points="1244.5,-124.7 1240.5,-118.7 1244.5,-112.7 1248.5,-118.7 1244.5,-124.7"/>
<text text-anchor="middle" x="1311" y="-390" font-family="Helvetica,sans-Serif" font-size="10.00"> +DEFAULT_BACKGROUND</text>
</g>
<!-- Node20&#45;&gt;Node4 -->
<g id="edge31" class="edge">
<title>Node20&#45;&gt;Node4</title>
<path fill="none" stroke="#404040" d="M1255.23,-846.42C1270.14,-762.59 1295.73,-620.2 1299.5,-609 1306.13,-589.3 1315.5,-568.76 1324.87,-550.41"/>
<polygon fill="none" stroke="#404040" points="1324.97,-550.22 1324.2,-543.05 1330.52,-539.59 1331.29,-546.76 1324.97,-550.22"/>
<text text-anchor="middle" x="1366" y="-696" font-family="Helvetica,sans-Serif" font-size="10.00"> +DEFAULT_BACKGROUND</text>
</g>
<!-- Node20&#45;&gt;Node5 -->
<g id="edge22" class="edge">
<title>Node20&#45;&gt;Node5</title>
<path fill="none" stroke="#404040" d="M1199.94,-867.49C1185.95,-854.95 1170.5,-840.98 1156.5,-828 1146.12,-818.39 1145.29,-813.81 1133.5,-806 1083.12,-772.62 1020.55,-745.77 970.99,-727.38"/>
<polygon fill="none" stroke="#404040" points="970.93,-727.36 963.92,-729.06 959.66,-723.24 966.67,-721.54 970.93,-727.36"/>
<text text-anchor="middle" x="1193.5" y="-814.5" font-family="Helvetica,sans-Serif" font-size="10.00"> #m_Background</text>
</g>
<!-- Node21 -->
<g id="node21" class="node">
<title>Node21</title>
<g id="a_node21"><a xlink:href="class_sgl_1_1_border.html" target="_top" xlink:title=" ">
<polygon fill="white" stroke="black" points="990.5,-852 990.5,-964 1080.5,-964 1080.5,-852 990.5,-852"/>
<text text-anchor="middle" x="1035.5" y="-952" font-family="Helvetica,sans-Serif" font-size="10.00">Sgl::Border</text>
<polyline fill="none" stroke="black" points="990.5,-945 1080.5,-945 "/>
<text text-anchor="middle" x="1035.5" y="-933" font-family="Helvetica,sans-Serif" font-size="10.00"> </text>
<polyline fill="none" stroke="black" points="990.5,-926 1080.5,-926 "/>
<text text-anchor="start" x="998.5" y="-914" font-family="Helvetica,sans-Serif" font-size="10.00">+ Border()</text>
<text text-anchor="start" x="998.5" y="-903" font-family="Helvetica,sans-Serif" font-size="10.00">+ Border()</text>
<text text-anchor="start" x="998.5" y="-892" font-family="Helvetica,sans-Serif" font-size="10.00">+ Border()</text>
<text text-anchor="start" x="998.5" y="-881" font-family="Helvetica,sans-Serif" font-size="10.00">+ getThickness()</text>
<text text-anchor="start" x="998.5" y="-870" font-family="Helvetica,sans-Serif" font-size="10.00">+ getColor()</text>
<text text-anchor="start" x="998.5" y="-859" font-family="Helvetica,sans-Serif" font-size="10.00">+ encloseArea()</text>
</a>
</g>
</g>
<!-- Node21&#45;&gt;Node1 -->
<g id="edge33" class="edge">
<title>Node21&#45;&gt;Node1</title>
<path fill="none" stroke="#404040" d="M1035.5,-851.95C1035.5,-810.13 1035.5,-751.19 1035.5,-699.5 1035.5,-699.5 1035.5,-699.5 1035.5,-183.5 1035.5,-110.22 1130.91,-78.44 1192.8,-65.54"/>
<polygon fill="none" stroke="#404040" points="1192.92,-65.52 1198.04,-60.43 1204.7,-63.2 1199.58,-68.28 1192.92,-65.52"/>
<text text-anchor="middle" x="1087.5" y="-390" font-family="Helvetica,sans-Serif" font-size="10.00"> +DEFAULT_BORDER</text>
</g>
<!-- Node21&#45;&gt;Node5 -->
<g id="edge23" class="edge">
<title>Node21&#45;&gt;Node5</title>
<path fill="none" stroke="#404040" d="M990.29,-853.66C983.5,-845.19 976.71,-836.44 970.5,-828 963.46,-818.42 956.32,-808.27 949.33,-798.04"/>
<polygon fill="none" stroke="#404040" points="949.13,-797.75 942.45,-795.03 942.4,-787.81 949.07,-790.54 949.13,-797.75"/>
<text text-anchor="middle" x="996" y="-814.5" font-family="Helvetica,sans-Serif" font-size="10.00"> #m_Border</text>
</g>
<!-- Node22&#45;&gt;Node5 -->
<g id="edge24" class="edge">
<title>Node22&#45;&gt;Node5</title>
<path fill="none" stroke="#404040" d="M743.3,-851.96C753.3,-836.59 764.76,-820.21 776.5,-806 785.2,-795.46 794.85,-784.85 804.71,-774.63"/>
<polygon fill="none" stroke="#404040" points="805.01,-774.33 806.35,-767.25 813.41,-765.77 812.06,-772.85 805.01,-774.33"/>
<text text-anchor="middle" x="805.5" y="-814.5" font-family="Helvetica,sans-Serif" font-size="10.00"> #m_Padding</text>
</g>
<!-- Node22&#45;&gt;Node22 -->
<g id="edge25" class="edge">
<title>Node22&#45;&gt;Node22</title>
<path fill="none" stroke="#404040" d="M750.01,-924.7C760.26,-923.67 768,-918.11 768,-908 768,-902.31 765.55,-898.07 761.58,-895.25"/>
<polygon fill="none" stroke="#404040" points="761.36,-895.18 754.39,-897.02 750.01,-891.3 756.98,-889.45 761.36,-895.18"/>
<text text-anchor="middle" x="790" y="-905.5" font-family="Helvetica,sans-Serif" font-size="10.00"> +EMPTY</text>
</g>
<!-- Node23 -->
<g id="node23" class="node">
<title>Node23</title>
<g id="a_node23"><a xlink:href="class_sgl_1_1_color_fill.html" target="_top" xlink:title=" ">
<polygon fill="white" stroke="black" points="1442,-642.5 1442,-754.5 1515,-754.5 1515,-642.5 1442,-642.5"/>
<text text-anchor="middle" x="1478.5" y="-742.5" font-family="Helvetica,sans-Serif" font-size="10.00">Sgl::ColorFill</text>
<polyline fill="none" stroke="black" points="1442,-735.5 1515,-735.5 "/>
<text text-anchor="middle" x="1478.5" y="-723.5" font-family="Helvetica,sans-Serif" font-size="10.00"> </text>
<polyline fill="none" stroke="black" points="1442,-716.5 1515,-716.5 "/>
<text text-anchor="start" x="1450" y="-704.5" font-family="Helvetica,sans-Serif" font-size="10.00">+ ColorFill()</text>
<text text-anchor="start" x="1450" y="-693.5" font-family="Helvetica,sans-Serif" font-size="10.00">+ fillLine()</text>
<text text-anchor="start" x="1450" y="-682.5" font-family="Helvetica,sans-Serif" font-size="10.00">+ fillArea()</text>
<text text-anchor="start" x="1450" y="-671.5" font-family="Helvetica,sans-Serif" font-size="10.00">+ fillPoint()</text>
<text text-anchor="start" x="1450" y="-660.5" font-family="Helvetica,sans-Serif" font-size="10.00">+ getColor()</text>
<text text-anchor="start" x="1450" y="-649.5" font-family="Helvetica,sans-Serif" font-size="10.00">+ setColor()</text>
</a>
</g>
</g>
<!-- Node23&#45;&gt;Node4 -->
<g id="edge28" class="edge">
<title>Node23&#45;&gt;Node4</title>
<path fill="none" stroke="#404040" d="M1446.92,-642.44C1430.61,-613.99 1410.68,-579.24 1393.97,-550.1"/>
<polygon fill="none" stroke="#404040" points="1393.94,-550.05 1387.48,-546.83 1387.97,-539.64 1394.42,-542.85 1393.94,-550.05"/>
<text text-anchor="middle" x="1455.5" y="-583" font-family="Helvetica,sans-Serif" font-size="10.00"> +DEFAULT_FILL</text>
</g>
<!-- Node24 -->
<g id="node24" class="node">
<title>Node24</title>
<g id="a_node24"><a xlink:href="class_sgl_1_1_fill.html" target="_top" xlink:title=" ">
<polygon fill="white" stroke="black" points="1481.5,-868.5 1481.5,-947.5 1545.5,-947.5 1545.5,-868.5 1481.5,-868.5"/>
<text text-anchor="middle" x="1513.5" y="-935.5" font-family="Helvetica,sans-Serif" font-size="10.00">Sgl::Fill</text>
<polyline fill="none" stroke="black" points="1481.5,-928.5 1545.5,-928.5 "/>
<text text-anchor="middle" x="1513.5" y="-916.5" font-family="Helvetica,sans-Serif" font-size="10.00"> </text>
<polyline fill="none" stroke="black" points="1481.5,-909.5 1545.5,-909.5 "/>
<text text-anchor="start" x="1489.5" y="-897.5" font-family="Helvetica,sans-Serif" font-size="10.00">+ fillLine()</text>
<text text-anchor="start" x="1489.5" y="-886.5" font-family="Helvetica,sans-Serif" font-size="10.00">+ fillArea()</text>
<text text-anchor="start" x="1489.5" y="-875.5" font-family="Helvetica,sans-Serif" font-size="10.00">+ fillPoint()</text>
</a>
</g>
</g>
<!-- Node24&#45;&gt;Node23 -->
<g id="edge29" class="edge">
<title>Node24&#45;&gt;Node23</title>
<path fill="none" stroke="midnightblue" d="M1505.29,-858.3C1500.05,-827.24 1493.24,-786.91 1487.8,-754.66"/>
<polygon fill="none" stroke="midnightblue" points="1501.88,-859.18 1507,-868.46 1508.79,-858.01 1501.88,-859.18"/>
</g>
<!-- Node25 -->
<g id="node25" class="node">
<title>Node25</title>
<g id="a_node25"><a xlink:title=" ">
<polygon fill="white" stroke="#bfbfbf" points="1423.5,-879.5 1423.5,-936.5 1463.5,-936.5 1463.5,-879.5 1423.5,-879.5"/>
<text text-anchor="middle" x="1443.5" y="-924.5" font-family="Helvetica,sans-Serif" font-size="10.00">Color</text>
<polyline fill="none" stroke="#bfbfbf" points="1423.5,-917.5 1463.5,-917.5 "/>
<text text-anchor="middle" x="1443.5" y="-905.5" font-family="Helvetica,sans-Serif" font-size="10.00"> </text>
<polyline fill="none" stroke="#bfbfbf" points="1423.5,-898.5 1463.5,-898.5 "/>
<text text-anchor="middle" x="1443.5" y="-886.5" font-family="Helvetica,sans-Serif" font-size="10.00"> </text>
</a>
</g>
</g>
<!-- Node25&#45;&gt;Node23 -->
<g id="edge30" class="edge">
<title>Node25&#45;&gt;Node23</title>
<path fill="none" stroke="#404040" d="M1442.38,-879.38C1442.03,-858.98 1442.51,-830.59 1446.5,-806 1448.61,-793.01 1451.86,-779.4 1455.5,-766.4"/>
<polygon fill="none" stroke="#404040" points="1455.56,-766.2 1453.4,-759.32 1458.93,-754.68 1461.08,-761.56 1455.56,-766.2"/>
<text text-anchor="middle" x="1469.5" y="-814.5" font-family="Helvetica,sans-Serif" font-size="10.00"> #m_Color</text>
</g>
</g>
</svg>
        <g id="navigator" transform="translate(0 0)" fill="#404254">
                <rect fill="#f2f5e9" fill-opacity="0.5" stroke="#606060" stroke-width=".5" x="0" y="0" width="60" height="60"/>
                <use id="zoomplus" xlink:href="#zoomPlus" x="17" y="9" onmousedown="handleZoom(evt,'in')"/>
                <use id="zoomminus" xlink:href="#zoomMin" x="42" y="9" onmousedown="handleZoom(evt,'out')"/>
                <use id="reset" xlink:href="#resetDef" x="30" y="36" onmousedown="handleReset()"/>
                <g id="arrowUp" xlink:href="#dirArrow" transform="translate(30 24)" onmousedown="handlePan(0,-1)">
                  <use xlink:href="#rim" fill="#404040">
                        <set attributeName="fill" to="#808080" begin="arrowUp.mouseover" end="arrowUp.mouseout"/>
                  </use>
                  <path fill="none" stroke="white" stroke-width="1.5" d="M0,-3.0v7 M-2.5,-0.5L0,-3.0L2.5,-0.5"/>
                </g>
                <g id="arrowRight" xlink:href="#dirArrow" transform="rotate(90) translate(36 -43)" onmousedown="handlePan(1,0)">
                  <use xlink:href="#rim" fill="#404040">
                        <set attributeName="fill" to="#808080" begin="arrowRight.mouseover" end="arrowRight.mouseout"/>
                  </use>
                  <path fill="none" stroke="white" stroke-width="1.5" d="M0,-3.0v7 M-2.5,-0.5L0,-3.0L2.5,-0.5"/>
                </g>
                <g id="arrowDown" xlink:href="#dirArrow" transform="rotate(180) translate(-30 -48)" onmousedown="handlePan(0,1)">
                  <use xlink:href="#rim" fill="#404040">
                        <set attributeName="fill" to="#808080" begin="arrowDown.mouseover" end="arrowDown.mouseout"/>
                  </use>
                  <path fill="none" stroke="white" stroke-width="1.5" d="M0,-3.0v7 M-2.5,-0.5L0,-3.0L2.5,-0.5"/>
                </g>
                <g id="arrowLeft" xlink:href="#dirArrow" transform="rotate(270) translate(-36 17)" onmousedown="handlePan(-1,0)">
                  <use xlink:href="#rim" fill="#404040">
                        <set attributeName="fill" to="#808080" begin="arrowLeft.mouseover" end="arrowLeft.mouseout"/>
                  </use>
                  <path fill="none" stroke="white" stroke-width="1.5" d="M0,-3.0v7 M-2.5,-0.5L0,-3.0L2.5,-0.5"/>
                </g>
        </g>
        <svg viewBox="0 0 15 15" width="100%" height="30px" preserveAspectRatio="xMaxYMin meet">
         <g id="arrow_out" transform="scale(0.3 0.3)">
          <a xlink:href="class_sgl_1_1_menu_bar__coll__graph_org.svg" target="_base">
           <rect id="button" ry="5" rx="5" y="6" x="6" height="38" width="38"
                fill="#f2f5e9" fill-opacity="0.5" stroke="#606060" stroke-width="1.0"/>
           <path id="arrow"
             d="M 11.500037,31.436501 C 11.940474,20.09759 22.043105,11.32322 32.158766,21.979434 L 37.068811,17.246167 C 37.068811,17.246167 37.088388,32 37.088388,32 L 22.160133,31.978069 C 22.160133,31.978069 26.997745,27.140456 26.997745,27.140456 C 18.528582,18.264221 13.291696,25.230495 11.500037,31.436501 z"
             style="fill:#404040;"/>
          </a>
         </g>
        </svg>
</svg>
