<?xml version="1.0" encoding="UTF-8" standalone="no"?>
<!DOCTYPE svg PUBLIC "-//W3C//DTD SVG 1.1//EN"
 "http://www.w3.org/Graphics/SVG/1.1/DTD/svg11.dtd">
<!-- Generated by graphviz version 2.50.0 (20211204.2007)
 -->
<!-- Title: Sgl::DefaultSkins::ScrollBarSkin Pages: 1 -->
<svg width="359pt" height="547pt"
 viewBox="0.00 0.00 358.50 547.00" xmlns="http://www.w3.org/2000/svg" xmlns:xlink="http://www.w3.org/1999/xlink">
<g id="graph0" class="graph" transform="scale(1 1) rotate(0) translate(4 543)">
<title>Sgl::DefaultSkins::ScrollBarSkin</title>
<polygon fill="white" stroke="transparent" points="-4,4 -4,-543 354.5,-543 354.5,4 -4,4"/>
<!-- Node1 -->
<g id="node1" class="node">
<title>Node1</title>
<g id="a_node1"><a xlink:title=" ">
<polygon fill="#bfbfbf" stroke="black" points="115,-0.5 115,-123.5 236,-123.5 236,-0.5 115,-0.5"/>
<text text-anchor="start" x="123" y="-111.5" font-family="Helvetica,sans-Serif" font-size="10.00">Sgl::DefaultSkins::</text>
<text text-anchor="middle" x="175.5" y="-100.5" font-family="Helvetica,sans-Serif" font-size="10.00">ScrollBarSkin</text>
<polyline fill="none" stroke="black" points="115,-93.5 236,-93.5 "/>
<text text-anchor="middle" x="175.5" y="-81.5" font-family="Helvetica,sans-Serif" font-size="10.00"> </text>
<polyline fill="none" stroke="black" points="115,-74.5 236,-74.5 "/>
<text text-anchor="start" x="123" y="-62.5" font-family="Helvetica,sans-Serif" font-size="10.00">+ ScrollBarSkin()</text>
<text text-anchor="start" x="123" y="-51.5" font-family="Helvetica,sans-Serif" font-size="10.00">+ dispose()</text>
<text text-anchor="start" x="123" y="-40.5" font-family="Helvetica,sans-Serif" font-size="10.00">+ attach()</text>
<text text-anchor="start" x="123" y="-29.5" font-family="Helvetica,sans-Serif" font-size="10.00">+ getControl()</text>
<text text-anchor="start" x="123" y="-18.5" font-family="Helvetica,sans-Serif" font-size="10.00">+ getModifiableControl()</text>
<text text-anchor="start" x="123" y="-7.5" font-family="Helvetica,sans-Serif" font-size="10.00">+ layoutChildren()</text>
</a>
</g>
</g>
<!-- Node2 -->
<g id="node2" class="node">
<title>Node2</title>
<g id="a_node2"><a xlink:href="class_sgl_1_1_base_skin.html" target="_top" xlink:title=" ">
<polygon fill="white" stroke="black" points="0,-199 0,-256 137,-256 137,-199 0,-199"/>
<text text-anchor="middle" x="68.5" y="-244" font-family="Helvetica,sans-Serif" font-size="10.00">Sgl::BaseSkin&lt; ScrollBar &gt;</text>
<polyline fill="none" stroke="black" points="0,-237 137,-237 "/>
<text text-anchor="middle" x="68.5" y="-225" font-family="Helvetica,sans-Serif" font-size="10.00"> </text>
<polyline fill="none" stroke="black" points="0,-218 137,-218 "/>
<text text-anchor="start" x="8" y="-206" font-family="Helvetica,sans-Serif" font-size="10.00">+ attach()</text>
</a>
</g>
</g>
<!-- Node2&#45;&gt;Node1 -->
<g id="edge1" class="edge">
<title>Node2&#45;&gt;Node1</title>
<path fill="none" stroke="midnightblue" d="M92.26,-190.19C105.02,-170.69 121.09,-146.15 135.69,-123.83"/>
<polygon fill="none" stroke="midnightblue" points="89.2,-188.48 86.65,-198.76 95.06,-192.31 89.2,-188.48"/>
</g>
<!-- Node3 -->
<g id="node3" class="node">
<title>Node3</title>
<g id="a_node3"><a xlink:href="class_sgl_1_1_skin.html" target="_top" xlink:title=" ">
<polygon fill="white" stroke="black" points="10.5,-426.5 10.5,-538.5 118.5,-538.5 118.5,-426.5 10.5,-426.5"/>
<text text-anchor="middle" x="64.5" y="-526.5" font-family="Helvetica,sans-Serif" font-size="10.00">Sgl::Skin</text>
<polyline fill="none" stroke="black" points="10.5,-519.5 118.5,-519.5 "/>
<text text-anchor="middle" x="64.5" y="-507.5" font-family="Helvetica,sans-Serif" font-size="10.00"> </text>
<polyline fill="none" stroke="black" points="10.5,-500.5 118.5,-500.5 "/>
<text text-anchor="start" x="18.5" y="-488.5" font-family="Helvetica,sans-Serif" font-size="10.00">+ ~Skin()</text>
<text text-anchor="start" x="18.5" y="-477.5" font-family="Helvetica,sans-Serif" font-size="10.00">+ dispose()</text>
<text text-anchor="start" x="18.5" y="-466.5" font-family="Helvetica,sans-Serif" font-size="10.00">+ prerenderControl()</text>
<text text-anchor="start" x="18.5" y="-455.5" font-family="Helvetica,sans-Serif" font-size="10.00">+ getHitComponent()</text>
<text text-anchor="start" x="18.5" y="-444.5" font-family="Helvetica,sans-Serif" font-size="10.00">+ getControl()</text>
<text text-anchor="start" x="18.5" y="-433.5" font-family="Helvetica,sans-Serif" font-size="10.00">and 8 more...</text>
</a>
</g>
</g>
<!-- Node3&#45;&gt;Node2 -->
<g id="edge2" class="edge">
<title>Node3&#45;&gt;Node2</title>
<path fill="none" stroke="midnightblue" d="M65.53,-416.18C66.35,-364.34 67.46,-294.46 68.06,-256.27"/>
<polygon fill="none" stroke="midnightblue" points="62.03,-416.24 65.37,-426.29 69.03,-416.35 62.03,-416.24"/>
</g>
<!-- Node4 -->
<g id="node4" class="node">
<title>Node4</title>
<g id="a_node4"><a xlink:href="class_sgl_1_1_base_skin.html" target="_top" xlink:title=" ">
<polygon fill="white" stroke="black" points="80.5,-331.5 80.5,-388.5 184.5,-388.5 184.5,-331.5 80.5,-331.5"/>
<text text-anchor="middle" x="132.5" y="-376.5" font-family="Helvetica,sans-Serif" font-size="10.00">Sgl::BaseSkin&lt; C &gt;</text>
<polyline fill="none" stroke="black" points="80.5,-369.5 184.5,-369.5 "/>
<text text-anchor="middle" x="132.5" y="-357.5" font-family="Helvetica,sans-Serif" font-size="10.00"> </text>
<polyline fill="none" stroke="black" points="80.5,-350.5 184.5,-350.5 "/>
<text text-anchor="start" x="88.5" y="-338.5" font-family="Helvetica,sans-Serif" font-size="10.00">+ attach()</text>
</a>
</g>
</g>
<!-- Node3&#45;&gt;Node4 -->
<g id="edge4" class="edge">
<title>Node3&#45;&gt;Node4</title>
<path fill="none" stroke="midnightblue" d="M100.71,-417.34C106.39,-407.28 111.98,-397.36 116.86,-388.72"/>
<polygon fill="none" stroke="midnightblue" points="97.58,-415.76 95.71,-426.19 103.68,-419.2 97.58,-415.76"/>
</g>
<!-- Node4&#45;&gt;Node2 -->
<g id="edge3" class="edge">
<title>Node4&#45;&gt;Node2</title>
<path fill="none" stroke="orange" d="M114.39,-322.08C104.12,-301.12 91.47,-275.33 82.05,-256.14"/>
<polygon fill="orange" stroke="orange" points="111.38,-323.89 118.93,-331.32 117.67,-320.8 111.38,-323.89"/>
<text text-anchor="middle" x="139" y="-305" font-family="Helvetica,sans-Serif" font-size="10.00"> &lt; ScrollBar &gt;</text>
</g>
<!-- Node5 -->
<g id="node5" class="node">
<title>Node5</title>
<g id="a_node5"><a xlink:title=" ">
<polygon fill="white" stroke="#bfbfbf" points="155.5,-199 155.5,-256 195.5,-256 195.5,-199 155.5,-199"/>
<text text-anchor="middle" x="175.5" y="-244" font-family="Helvetica,sans-Serif" font-size="10.00">Color</text>
<polyline fill="none" stroke="#bfbfbf" points="155.5,-237 195.5,-237 "/>
<text text-anchor="middle" x="175.5" y="-225" font-family="Helvetica,sans-Serif" font-size="10.00"> </text>
<polyline fill="none" stroke="#bfbfbf" points="155.5,-218 195.5,-218 "/>
<text text-anchor="middle" x="175.5" y="-206" font-family="Helvetica,sans-Serif" font-size="10.00"> </text>
</a>
</g>
</g>
<!-- Node5&#45;&gt;Node1 -->
<g id="edge5" class="edge">
<title>Node5&#45;&gt;Node1</title>
<path fill="none" stroke="#404040" d="M175.5,-198.76C175.5,-181.47 175.5,-158.33 175.5,-136.07"/>
<polygon fill="none" stroke="#404040" points="175.5,-135.83 171.5,-129.83 175.5,-123.83 179.5,-129.83 175.5,-135.83"/>
<text text-anchor="middle" x="215" y="-145" font-family="Helvetica,sans-Serif" font-size="10.00"> +KNOB_COLOR</text>
</g>
<!-- Node6 -->
<g id="node6" class="node">
<title>Node6</title>
<g id="a_node6"><a xlink:href="class_sgl_1_1_shadow_specification.html" target="_top" xlink:title=" ">
<polygon fill="white" stroke="black" points="214,-171.5 214,-283.5 343,-283.5 343,-171.5 214,-171.5"/>
<text text-anchor="middle" x="278.5" y="-271.5" font-family="Helvetica,sans-Serif" font-size="10.00">Sgl::ShadowSpecification</text>
<polyline fill="none" stroke="black" points="214,-264.5 343,-264.5 "/>
<text text-anchor="middle" x="278.5" y="-252.5" font-family="Helvetica,sans-Serif" font-size="10.00"> </text>
<polyline fill="none" stroke="black" points="214,-245.5 343,-245.5 "/>
<text text-anchor="start" x="222" y="-233.5" font-family="Helvetica,sans-Serif" font-size="10.00">+ ShadowSpecification()</text>
<text text-anchor="start" x="222" y="-222.5" font-family="Helvetica,sans-Serif" font-size="10.00">+ ~ShadowSpecification()</text>
<text text-anchor="start" x="222" y="-211.5" font-family="Helvetica,sans-Serif" font-size="10.00">+ getOffset()</text>
<text text-anchor="start" x="222" y="-200.5" font-family="Helvetica,sans-Serif" font-size="10.00">+ getScale()</text>
<text text-anchor="start" x="222" y="-189.5" font-family="Helvetica,sans-Serif" font-size="10.00">+ getBlurRadius()</text>
<text text-anchor="start" x="222" y="-178.5" font-family="Helvetica,sans-Serif" font-size="10.00">+ getColor()</text>
</a>
</g>
</g>
<!-- Node6&#45;&gt;Node1 -->
<g id="edge6" class="edge">
<title>Node6&#45;&gt;Node1</title>
<path fill="none" stroke="#404040" d="M268.71,-171.14C265.66,-161.05 261.68,-150.91 256.5,-142 252.9,-135.8 248.67,-129.76 244.08,-123.96"/>
<polygon fill="none" stroke="#404040" points="243.79,-123.61 236.86,-121.61 236.05,-114.44 242.97,-116.45 243.79,-123.61"/>
<text text-anchor="middle" x="306" y="-145" font-family="Helvetica,sans-Serif" font-size="10.00"> +KNOB_SHADOW</text>
</g>
</g>
</svg>
