<?xml version="1.0" encoding="UTF-8" standalone="no"?>
<!DOCTYPE svg PUBLIC "-//W3C//DTD SVG 1.1//EN"
 "http://www.w3.org/Graphics/SVG/1.1/DTD/svg11.dtd">
<!-- Generated by graphviz version 2.50.0 (20211204.2007)
 -->
<!-- Title: Sgl::DefaultSkins::SliderSkin Pages: 1 -->
<svg width="689pt" height="580pt"
 viewBox="0.00 0.00 689.00 580.00" xmlns="http://www.w3.org/2000/svg" xmlns:xlink="http://www.w3.org/1999/xlink">
<g id="graph0" class="graph" transform="scale(1 1) rotate(0) translate(4 576)">
<title>Sgl::DefaultSkins::SliderSkin</title>
<polygon fill="white" stroke="transparent" points="-4,4 -4,-576 685,-576 685,4 -4,4"/>
<!-- Node1 -->
<g id="node1" class="node">
<title>Node1</title>
<g id="a_node1"><a xlink:title=" ">
<polygon fill="#bfbfbf" stroke="black" points="266.5,-0.5 266.5,-112.5 409.5,-112.5 409.5,-0.5 266.5,-0.5"/>
<text text-anchor="middle" x="338" y="-100.5" font-family="Helvetica,sans-Serif" font-size="10.00">Sgl::DefaultSkins::SliderSkin</text>
<polyline fill="none" stroke="black" points="266.5,-93.5 409.5,-93.5 "/>
<text text-anchor="middle" x="338" y="-81.5" font-family="Helvetica,sans-Serif" font-size="10.00"> </text>
<polyline fill="none" stroke="black" points="266.5,-74.5 409.5,-74.5 "/>
<text text-anchor="start" x="274.5" y="-62.5" font-family="Helvetica,sans-Serif" font-size="10.00">+ SliderSkin()</text>
<text text-anchor="start" x="274.5" y="-51.5" font-family="Helvetica,sans-Serif" font-size="10.00">+ SliderSkin()</text>
<text text-anchor="start" x="274.5" y="-40.5" font-family="Helvetica,sans-Serif" font-size="10.00">+ dispose()</text>
<text text-anchor="start" x="274.5" y="-29.5" font-family="Helvetica,sans-Serif" font-size="10.00">+ attach()</text>
<text text-anchor="start" x="274.5" y="-18.5" font-family="Helvetica,sans-Serif" font-size="10.00">+ getHitComponent()</text>
<text text-anchor="start" x="274.5" y="-7.5" font-family="Helvetica,sans-Serif" font-size="10.00">and 16 more...</text>
</a>
</g>
</g>
<!-- Node2 -->
<g id="node2" class="node">
<title>Node2</title>
<g id="a_node2"><a xlink:href="class_sgl_1_1_base_skin.html" target="_top" xlink:title=" ">
<polygon fill="white" stroke="black" points="21,-210 21,-267 143,-267 143,-210 21,-210"/>
<text text-anchor="middle" x="82" y="-255" font-family="Helvetica,sans-Serif" font-size="10.00">Sgl::BaseSkin&lt; Slider &gt;</text>
<polyline fill="none" stroke="black" points="21,-248 143,-248 "/>
<text text-anchor="middle" x="82" y="-236" font-family="Helvetica,sans-Serif" font-size="10.00"> </text>
<polyline fill="none" stroke="black" points="21,-229 143,-229 "/>
<text text-anchor="start" x="29" y="-217" font-family="Helvetica,sans-Serif" font-size="10.00">+ attach()</text>
</a>
</g>
</g>
<!-- Node2&#45;&gt;Node1 -->
<g id="edge1" class="edge">
<title>Node2&#45;&gt;Node1</title>
<path fill="none" stroke="midnightblue" d="M123.72,-203.61C132.94,-196.35 142.72,-188.82 152,-182 188.95,-154.85 231.35,-126.27 266.33,-103.36"/>
<polygon fill="none" stroke="midnightblue" points="121.45,-200.94 115.79,-209.89 125.8,-206.42 121.45,-200.94"/>
</g>
<!-- Node3 -->
<g id="node3" class="node">
<title>Node3</title>
<g id="a_node3"><a xlink:href="class_sgl_1_1_skin.html" target="_top" xlink:title=" ">
<polygon fill="white" stroke="black" points="0,-459.5 0,-571.5 108,-571.5 108,-459.5 0,-459.5"/>
<text text-anchor="middle" x="54" y="-559.5" font-family="Helvetica,sans-Serif" font-size="10.00">Sgl::Skin</text>
<polyline fill="none" stroke="black" points="0,-552.5 108,-552.5 "/>
<text text-anchor="middle" x="54" y="-540.5" font-family="Helvetica,sans-Serif" font-size="10.00"> </text>
<polyline fill="none" stroke="black" points="0,-533.5 108,-533.5 "/>
<text text-anchor="start" x="8" y="-521.5" font-family="Helvetica,sans-Serif" font-size="10.00">+ ~Skin()</text>
<text text-anchor="start" x="8" y="-510.5" font-family="Helvetica,sans-Serif" font-size="10.00">+ dispose()</text>
<text text-anchor="start" x="8" y="-499.5" font-family="Helvetica,sans-Serif" font-size="10.00">+ prerenderControl()</text>
<text text-anchor="start" x="8" y="-488.5" font-family="Helvetica,sans-Serif" font-size="10.00">+ getHitComponent()</text>
<text text-anchor="start" x="8" y="-477.5" font-family="Helvetica,sans-Serif" font-size="10.00">+ getControl()</text>
<text text-anchor="start" x="8" y="-466.5" font-family="Helvetica,sans-Serif" font-size="10.00">and 8 more...</text>
</a>
</g>
</g>
<!-- Node3&#45;&gt;Node2 -->
<g id="edge2" class="edge">
<title>Node3&#45;&gt;Node2</title>
<path fill="none" stroke="midnightblue" d="M54.17,-448.94C54.89,-416.64 56.71,-377.17 61,-342 64.12,-316.4 70.24,-287.66 75.07,-267.14"/>
<polygon fill="none" stroke="midnightblue" points="50.67,-449.09 53.98,-459.16 57.67,-449.23 50.67,-449.09"/>
</g>
<!-- Node4 -->
<g id="node4" class="node">
<title>Node4</title>
<g id="a_node4"><a xlink:href="class_sgl_1_1_base_skin.html" target="_top" xlink:title=" ">
<polygon fill="white" stroke="black" points="70,-353.5 70,-410.5 174,-410.5 174,-353.5 70,-353.5"/>
<text text-anchor="middle" x="122" y="-398.5" font-family="Helvetica,sans-Serif" font-size="10.00">Sgl::BaseSkin&lt; C &gt;</text>
<polyline fill="none" stroke="black" points="70,-391.5 174,-391.5 "/>
<text text-anchor="middle" x="122" y="-379.5" font-family="Helvetica,sans-Serif" font-size="10.00"> </text>
<polyline fill="none" stroke="black" points="70,-372.5 174,-372.5 "/>
<text text-anchor="start" x="78" y="-360.5" font-family="Helvetica,sans-Serif" font-size="10.00">+ attach()</text>
</a>
</g>
</g>
<!-- Node3&#45;&gt;Node4 -->
<g id="edge4" class="edge">
<title>Node3&#45;&gt;Node4</title>
<path fill="none" stroke="midnightblue" d="M87.19,-450.32C94.44,-436.3 101.74,-422.19 107.77,-410.53"/>
<polygon fill="none" stroke="midnightblue" points="83.93,-449 82.44,-459.49 90.15,-452.22 83.93,-449"/>
</g>
<!-- Node4&#45;&gt;Node2 -->
<g id="edge3" class="edge">
<title>Node4&#45;&gt;Node2</title>
<path fill="none" stroke="orange" d="M111.41,-343.54C104.62,-319.51 95.95,-288.85 89.79,-267.05"/>
<polygon fill="orange" stroke="orange" points="108.1,-344.71 114.19,-353.38 114.84,-342.81 108.1,-344.71"/>
<text text-anchor="middle" x="129" y="-316" font-family="Helvetica,sans-Serif" font-size="10.00"> &lt; Slider &gt;</text>
</g>
<!-- Node5 -->
<g id="node5" class="node">
<title>Node5</title>
<g id="a_node5"><a xlink:href="class_sgl_1_1_shadow_specification.html" target="_top" xlink:title=" ">
<polygon fill="white" stroke="black" points="161.5,-182.5 161.5,-294.5 290.5,-294.5 290.5,-182.5 161.5,-182.5"/>
<text text-anchor="middle" x="226" y="-282.5" font-family="Helvetica,sans-Serif" font-size="10.00">Sgl::ShadowSpecification</text>
<polyline fill="none" stroke="black" points="161.5,-275.5 290.5,-275.5 "/>
<text text-anchor="middle" x="226" y="-263.5" font-family="Helvetica,sans-Serif" font-size="10.00"> </text>
<polyline fill="none" stroke="black" points="161.5,-256.5 290.5,-256.5 "/>
<text text-anchor="start" x="169.5" y="-244.5" font-family="Helvetica,sans-Serif" font-size="10.00">+ ShadowSpecification()</text>
<text text-anchor="start" x="169.5" y="-233.5" font-family="Helvetica,sans-Serif" font-size="10.00">+ ~ShadowSpecification()</text>
<text text-anchor="start" x="169.5" y="-222.5" font-family="Helvetica,sans-Serif" font-size="10.00">+ getOffset()</text>
<text text-anchor="start" x="169.5" y="-211.5" font-family="Helvetica,sans-Serif" font-size="10.00">+ getScale()</text>
<text text-anchor="start" x="169.5" y="-200.5" font-family="Helvetica,sans-Serif" font-size="10.00">+ getBlurRadius()</text>
<text text-anchor="start" x="169.5" y="-189.5" font-family="Helvetica,sans-Serif" font-size="10.00">+ getColor()</text>
</a>
</g>
</g>
<!-- Node5&#45;&gt;Node1 -->
<g id="edge5" class="edge">
<title>Node5&#45;&gt;Node1</title>
<path fill="none" stroke="#404040" d="M228.22,-182.28C230.86,-164.92 235.84,-146.31 245,-131 248.66,-124.89 253.02,-119.09 257.84,-113.63"/>
<polygon fill="none" stroke="#404040" points="258.03,-113.43 259.29,-106.33 266.33,-104.76 265.07,-111.86 258.03,-113.43"/>
<text text-anchor="middle" x="289.5" y="-145" font-family="Helvetica,sans-Serif" font-size="10.00"> +KNOB_SHADOW</text>
</g>
<!-- Node6 -->
<g id="node6" class="node">
<title>Node6</title>
<g id="a_node6"><a xlink:href="class_sgl_1_1_color_fill.html" target="_top" xlink:title=" ">
<polygon fill="white" stroke="black" points="308.5,-182.5 308.5,-294.5 381.5,-294.5 381.5,-182.5 308.5,-182.5"/>
<text text-anchor="middle" x="345" y="-282.5" font-family="Helvetica,sans-Serif" font-size="10.00">Sgl::ColorFill</text>
<polyline fill="none" stroke="black" points="308.5,-275.5 381.5,-275.5 "/>
<text text-anchor="middle" x="345" y="-263.5" font-family="Helvetica,sans-Serif" font-size="10.00"> </text>
<polyline fill="none" stroke="black" points="308.5,-256.5 381.5,-256.5 "/>
<text text-anchor="start" x="316.5" y="-244.5" font-family="Helvetica,sans-Serif" font-size="10.00">+ ColorFill()</text>
<text text-anchor="start" x="316.5" y="-233.5" font-family="Helvetica,sans-Serif" font-size="10.00">+ fillLine()</text>
<text text-anchor="start" x="316.5" y="-222.5" font-family="Helvetica,sans-Serif" font-size="10.00">+ fillArea()</text>
<text text-anchor="start" x="316.5" y="-211.5" font-family="Helvetica,sans-Serif" font-size="10.00">+ fillPoint()</text>
<text text-anchor="start" x="316.5" y="-200.5" font-family="Helvetica,sans-Serif" font-size="10.00">+ getColor()</text>
<text text-anchor="start" x="316.5" y="-189.5" font-family="Helvetica,sans-Serif" font-size="10.00">+ setColor()</text>
</a>
</g>
</g>
<!-- Node6&#45;&gt;Node1 -->
<g id="edge6" class="edge">
<title>Node6&#45;&gt;Node1</title>
<path fill="none" stroke="#404040" d="M340.05,-182.14C339.63,-176.03 339.27,-169.88 339,-164 338.42,-151.33 338.09,-137.81 337.9,-124.8"/>
<polygon fill="none" stroke="#404040" points="337.89,-124.52 333.83,-118.57 337.76,-112.52 341.83,-118.48 337.89,-124.52"/>
<text text-anchor="middle" x="396" y="-150.5" font-family="Helvetica,sans-Serif" font-size="10.00"> +NOT_SELECTED_FILL</text>
<text text-anchor="middle" x="396" y="-139.5" font-family="Helvetica,sans-Serif" font-size="10.00">+SELECTED_FILL</text>
</g>
<!-- Node7 -->
<g id="node7" class="node">
<title>Node7</title>
<g id="a_node7"><a xlink:href="class_sgl_1_1_fill.html" target="_top" xlink:title=" ">
<polygon fill="white" stroke="black" points="278,-342.5 278,-421.5 342,-421.5 342,-342.5 278,-342.5"/>
<text text-anchor="middle" x="310" y="-409.5" font-family="Helvetica,sans-Serif" font-size="10.00">Sgl::Fill</text>
<polyline fill="none" stroke="black" points="278,-402.5 342,-402.5 "/>
<text text-anchor="middle" x="310" y="-390.5" font-family="Helvetica,sans-Serif" font-size="10.00"> </text>
<polyline fill="none" stroke="black" points="278,-383.5 342,-383.5 "/>
<text text-anchor="start" x="286" y="-371.5" font-family="Helvetica,sans-Serif" font-size="10.00">+ fillLine()</text>
<text text-anchor="start" x="286" y="-360.5" font-family="Helvetica,sans-Serif" font-size="10.00">+ fillArea()</text>
<text text-anchor="start" x="286" y="-349.5" font-family="Helvetica,sans-Serif" font-size="10.00">+ fillPoint()</text>
</a>
</g>
</g>
<!-- Node7&#45;&gt;Node6 -->
<g id="edge7" class="edge">
<title>Node7&#45;&gt;Node6</title>
<path fill="none" stroke="midnightblue" d="M322.03,-332.37C325.04,-320.19 328.3,-307.03 331.38,-294.56"/>
<polygon fill="none" stroke="midnightblue" points="318.57,-331.79 319.56,-342.33 325.36,-333.47 318.57,-331.79"/>
</g>
<!-- Node8 -->
<g id="node8" class="node">
<title>Node8</title>
<g id="a_node8"><a xlink:title=" ">
<polygon fill="white" stroke="#bfbfbf" points="360,-353.5 360,-410.5 400,-410.5 400,-353.5 360,-353.5"/>
<text text-anchor="middle" x="380" y="-398.5" font-family="Helvetica,sans-Serif" font-size="10.00">Color</text>
<polyline fill="none" stroke="#bfbfbf" points="360,-391.5 400,-391.5 "/>
<text text-anchor="middle" x="380" y="-379.5" font-family="Helvetica,sans-Serif" font-size="10.00"> </text>
<polyline fill="none" stroke="#bfbfbf" points="360,-372.5 400,-372.5 "/>
<text text-anchor="middle" x="380" y="-360.5" font-family="Helvetica,sans-Serif" font-size="10.00"> </text>
</a>
</g>
</g>
<!-- Node8&#45;&gt;Node6 -->
<g id="edge8" class="edge">
<title>Node8&#45;&gt;Node6</title>
<path fill="none" stroke="#404040" d="M373.17,-353.38C369.84,-339.92 365.68,-323.09 361.58,-306.53"/>
<polygon fill="none" stroke="#404040" points="361.5,-306.22 356.18,-301.36 358.62,-294.57 363.95,-299.44 361.5,-306.22"/>
<text text-anchor="middle" x="388" y="-316" font-family="Helvetica,sans-Serif" font-size="10.00"> #m_Color</text>
</g>
<!-- Node9 -->
<g id="node9" class="node">
<title>Node9</title>
<g id="a_node9"><a xlink:title=" ">
<polygon fill="white" stroke="#bfbfbf" points="455,-210 455,-267 495,-267 495,-210 455,-210"/>
<text text-anchor="middle" x="475" y="-255" font-family="Helvetica,sans-Serif" font-size="10.00">Color</text>
<polyline fill="none" stroke="#bfbfbf" points="455,-248 495,-248 "/>
<text text-anchor="middle" x="475" y="-236" font-family="Helvetica,sans-Serif" font-size="10.00"> </text>
<polyline fill="none" stroke="#bfbfbf" points="455,-229 495,-229 "/>
<text text-anchor="middle" x="475" y="-217" font-family="Helvetica,sans-Serif" font-size="10.00"> </text>
</a>
</g>
</g>
<!-- Node9&#45;&gt;Node1 -->
<g id="edge9" class="edge">
<title>Node9&#45;&gt;Node1</title>
<path fill="none" stroke="#404040" d="M475.07,-209.84C473.85,-186.88 469.06,-154.33 453,-131 444.17,-118.17 432.29,-107.08 419.51,-97.69"/>
<polygon fill="none" stroke="#404040" points="419.46,-97.66 412.25,-97.53 409.59,-90.83 416.8,-90.95 419.46,-97.66"/>
<text text-anchor="middle" x="506.5" y="-145" font-family="Helvetica,sans-Serif" font-size="10.00"> +KNOB_COLOR</text>
</g>
<!-- Node10 -->
<g id="node10" class="node">
<title>Node10</title>
<g id="a_node10"><a xlink:title=" ">
<polygon fill="white" stroke="#bfbfbf" points="554,-210 554,-267 600,-267 600,-210 554,-210"/>
<text text-anchor="middle" x="577" y="-255" font-family="Helvetica,sans-Serif" font-size="10.00">int32_t</text>
<polyline fill="none" stroke="#bfbfbf" points="554,-248 600,-248 "/>
<text text-anchor="middle" x="577" y="-236" font-family="Helvetica,sans-Serif" font-size="10.00"> </text>
<polyline fill="none" stroke="#bfbfbf" points="554,-229 600,-229 "/>
<text text-anchor="middle" x="577" y="-217" font-family="Helvetica,sans-Serif" font-size="10.00"> </text>
</a>
</g>
</g>
<!-- Node10&#45;&gt;Node1 -->
<g id="edge10" class="edge">
<title>Node10&#45;&gt;Node1</title>
<path fill="none" stroke="#404040" d="M576.96,-209.63C575.45,-185.9 569.61,-152.36 550,-131 517,-95.05 465.54,-76.69 421.58,-67.3"/>
<polygon fill="none" stroke="#404040" points="421.47,-67.28 414.8,-70.03 409.7,-64.94 416.36,-62.19 421.47,-67.28"/>
<text text-anchor="middle" x="624" y="-156" font-family="Helvetica,sans-Serif" font-size="10.00"> +KNOB_SIZE_ACROSS</text>
<text text-anchor="middle" x="624" y="-145" font-family="Helvetica,sans-Serif" font-size="10.00">+KNOB_SIZE_ALONG</text>
<text text-anchor="middle" x="624" y="-134" font-family="Helvetica,sans-Serif" font-size="10.00">+THICKNESS</text>
</g>
</g>
</svg>
