<?xml version="1.0" encoding="UTF-8" standalone="no"?>
<!DOCTYPE svg PUBLIC "-//W3C//DTD SVG 1.1//EN"
 "http://www.w3.org/Graphics/SVG/1.1/DTD/svg11.dtd">
<!-- Generated by graphviz version 2.50.0 (20211204.2007)
 -->
<!-- Title: Sgl::Control Pages: 1 -->
<svg width="386pt" height="1042pt"
 viewBox="0.00 0.00 386.00 1042.00" xmlns="http://www.w3.org/2000/svg" xmlns:xlink="http://www.w3.org/1999/xlink">
<g id="graph0" class="graph" transform="scale(1 1) rotate(0) translate(4 1038)">
<title>Sgl::Control</title>
<polygon fill="white" stroke="transparent" points="-4,4 -4,-1038 382,-1038 382,4 -4,4"/>
<!-- Node1 -->
<g id="node1" class="node">
<title>Node1</title>
<g id="a_node1"><a xlink:title=" ">
<polygon fill="#bfbfbf" stroke="black" points="100.5,-254.5 100.5,-399.5 249.5,-399.5 249.5,-254.5 100.5,-254.5"/>
<text text-anchor="middle" x="175" y="-387.5" font-family="Helvetica,sans-Serif" font-size="10.00">Sgl::Control</text>
<polyline fill="none" stroke="black" points="100.5,-380.5 249.5,-380.5 "/>
<text text-anchor="start" x="108.5" y="-368.5" font-family="Helvetica,sans-Serif" font-size="10.00"># m_DefaultSkin</text>
<polyline fill="none" stroke="black" points="100.5,-361.5 249.5,-361.5 "/>
<text text-anchor="start" x="108.5" y="-349.5" font-family="Helvetica,sans-Serif" font-size="10.00">+ Control()</text>
<text text-anchor="start" x="108.5" y="-338.5" font-family="Helvetica,sans-Serif" font-size="10.00">+ ~Control()</text>
<text text-anchor="start" x="108.5" y="-327.5" font-family="Helvetica,sans-Serif" font-size="10.00">+ getHitComponent()</text>
<text text-anchor="start" x="108.5" y="-316.5" font-family="Helvetica,sans-Serif" font-size="10.00"># layoutChildren()</text>
<text text-anchor="start" x="108.5" y="-305.5" font-family="Helvetica,sans-Serif" font-size="10.00"># prerenderSelf()</text>
<text text-anchor="start" x="108.5" y="-294.5" font-family="Helvetica,sans-Serif" font-size="10.00"># computeCustomPrefWidth()</text>
<text text-anchor="start" x="108.5" y="-283.5" font-family="Helvetica,sans-Serif" font-size="10.00"># computeCustomPrefHeight()</text>
<text text-anchor="start" x="108.5" y="-272.5" font-family="Helvetica,sans-Serif" font-size="10.00"># computeCustomMinWidth()</text>
<text text-anchor="start" x="108.5" y="-261.5" font-family="Helvetica,sans-Serif" font-size="10.00">and 3 more...</text>
</a>
</g>
</g>
<!-- Node6 -->
<g id="node6" class="node">
<title>Node6</title>
<g id="a_node6"><a xlink:href="class_sgl_1_1_button.html" target="_top" xlink:title=" ">
<polygon fill="white" stroke="black" points="6,-105.5 6,-217.5 80,-217.5 80,-105.5 6,-105.5"/>
<text text-anchor="middle" x="43" y="-205.5" font-family="Helvetica,sans-Serif" font-size="10.00">Sgl::Button</text>
<polyline fill="none" stroke="black" points="6,-198.5 80,-198.5 "/>
<text text-anchor="middle" x="43" y="-186.5" font-family="Helvetica,sans-Serif" font-size="10.00"> </text>
<polyline fill="none" stroke="black" points="6,-179.5 80,-179.5 "/>
<text text-anchor="start" x="14" y="-167.5" font-family="Helvetica,sans-Serif" font-size="10.00">+ Button()</text>
<text text-anchor="start" x="14" y="-156.5" font-family="Helvetica,sans-Serif" font-size="10.00">+ Button()</text>
<text text-anchor="start" x="14" y="-145.5" font-family="Helvetica,sans-Serif" font-size="10.00">+ Button()</text>
<text text-anchor="start" x="14" y="-134.5" font-family="Helvetica,sans-Serif" font-size="10.00">+ Button()</text>
<text text-anchor="start" x="14" y="-123.5" font-family="Helvetica,sans-Serif" font-size="10.00">+ Button()</text>
<text text-anchor="start" x="14" y="-112.5" font-family="Helvetica,sans-Serif" font-size="10.00">and 7 more...</text>
</a>
</g>
</g>
<!-- Node1&#45;&gt;Node6 -->
<g id="edge5" class="edge">
<title>Node1&#45;&gt;Node6</title>
<path fill="none" stroke="midnightblue" d="M110.65,-246.29C100.26,-233.42 89.81,-220.48 80.34,-208.75"/>
<polygon fill="none" stroke="midnightblue" points="108.1,-248.7 117.1,-254.29 113.54,-244.31 108.1,-248.7"/>
</g>
<!-- Node8 -->
<g id="node8" class="node">
<title>Node8</title>
<g id="a_node8"><a xlink:href="class_sgl_1_1_label.html" target="_top" xlink:title=" ">
<polygon fill="white" stroke="black" points="98,-133 98,-190 158,-190 158,-133 98,-133"/>
<text text-anchor="middle" x="128" y="-178" font-family="Helvetica,sans-Serif" font-size="10.00">Sgl::Label</text>
<polyline fill="none" stroke="black" points="98,-171 158,-171 "/>
<text text-anchor="middle" x="128" y="-159" font-family="Helvetica,sans-Serif" font-size="10.00"> </text>
<polyline fill="none" stroke="black" points="98,-152 158,-152 "/>
<text text-anchor="middle" x="128" y="-140" font-family="Helvetica,sans-Serif" font-size="10.00"> </text>
</a>
</g>
</g>
<!-- Node1&#45;&gt;Node8 -->
<g id="edge7" class="edge">
<title>Node1&#45;&gt;Node8</title>
<path fill="none" stroke="midnightblue" d="M151.55,-244.42C145.94,-224.91 140.33,-205.39 135.99,-190.3"/>
<polygon fill="none" stroke="midnightblue" points="148.26,-245.64 154.39,-254.29 154.99,-243.71 148.26,-245.64"/>
</g>
<!-- Node9 -->
<g id="node9" class="node">
<title>Node9</title>
<g id="a_node9"><a xlink:href="class_sgl_1_1_scroll_bar.html" target="_top" xlink:title=" ">
<polygon fill="white" stroke="black" points="176,-105.5 176,-217.5 268,-217.5 268,-105.5 176,-105.5"/>
<text text-anchor="middle" x="222" y="-205.5" font-family="Helvetica,sans-Serif" font-size="10.00">Sgl::ScrollBar</text>
<polyline fill="none" stroke="black" points="176,-198.5 268,-198.5 "/>
<text text-anchor="middle" x="222" y="-186.5" font-family="Helvetica,sans-Serif" font-size="10.00"> </text>
<polyline fill="none" stroke="black" points="176,-179.5 268,-179.5 "/>
<text text-anchor="start" x="184" y="-167.5" font-family="Helvetica,sans-Serif" font-size="10.00">+ ScrollBar()</text>
<text text-anchor="start" x="184" y="-156.5" font-family="Helvetica,sans-Serif" font-size="10.00">+ getOrientation()</text>
<text text-anchor="start" x="184" y="-145.5" font-family="Helvetica,sans-Serif" font-size="10.00">+ getRangeMin()</text>
<text text-anchor="start" x="184" y="-134.5" font-family="Helvetica,sans-Serif" font-size="10.00">+ setRangeMin()</text>
<text text-anchor="start" x="184" y="-123.5" font-family="Helvetica,sans-Serif" font-size="10.00">+ getRangeMax()</text>
<text text-anchor="start" x="184" y="-112.5" font-family="Helvetica,sans-Serif" font-size="10.00">and 9 more...</text>
</a>
</g>
</g>
<!-- Node1&#45;&gt;Node9 -->
<g id="edge8" class="edge">
<title>Node1&#45;&gt;Node9</title>
<path fill="none" stroke="midnightblue" d="M198.42,-244.53C201.01,-235.53 203.6,-226.51 206.06,-217.93"/>
<polygon fill="none" stroke="midnightblue" points="195.01,-243.71 195.61,-254.29 201.74,-245.64 195.01,-243.71"/>
</g>
<!-- Node10 -->
<g id="node10" class="node">
<title>Node10</title>
<g id="a_node10"><a xlink:href="class_sgl_1_1_slider.html" target="_top" xlink:title=" ">
<polygon fill="white" stroke="black" points="286,-105.5 286,-217.5 378,-217.5 378,-105.5 286,-105.5"/>
<text text-anchor="middle" x="332" y="-205.5" font-family="Helvetica,sans-Serif" font-size="10.00">Sgl::Slider</text>
<polyline fill="none" stroke="black" points="286,-198.5 378,-198.5 "/>
<text text-anchor="middle" x="332" y="-186.5" font-family="Helvetica,sans-Serif" font-size="10.00"> </text>
<polyline fill="none" stroke="black" points="286,-179.5 378,-179.5 "/>
<text text-anchor="start" x="294" y="-167.5" font-family="Helvetica,sans-Serif" font-size="10.00">+ Slider()</text>
<text text-anchor="start" x="294" y="-156.5" font-family="Helvetica,sans-Serif" font-size="10.00">+ Slider()</text>
<text text-anchor="start" x="294" y="-145.5" font-family="Helvetica,sans-Serif" font-size="10.00">+ getOrientation()</text>
<text text-anchor="start" x="294" y="-134.5" font-family="Helvetica,sans-Serif" font-size="10.00">+ setOrientation()</text>
<text text-anchor="start" x="294" y="-123.5" font-family="Helvetica,sans-Serif" font-size="10.00">+ getRangeMin()</text>
<text text-anchor="start" x="294" y="-112.5" font-family="Helvetica,sans-Serif" font-size="10.00">and 7 more...</text>
</a>
</g>
</g>
<!-- Node1&#45;&gt;Node10 -->
<g id="edge9" class="edge">
<title>Node1&#45;&gt;Node10</title>
<path fill="none" stroke="midnightblue" d="M250.86,-247C262.78,-234.58 274.79,-222.08 285.77,-210.65"/>
<polygon fill="none" stroke="midnightblue" points="248.26,-244.65 243.86,-254.29 253.31,-249.5 248.26,-244.65"/>
</g>
<!-- Node2 -->
<g id="node2" class="node">
<title>Node2</title>
<g id="a_node2"><a xlink:href="class_sgl_1_1_parent.html" target="_top" xlink:title=" ">
<polygon fill="white" stroke="black" points="37,-436.5 37,-669.5 183,-669.5 183,-436.5 37,-436.5"/>
<text text-anchor="middle" x="110" y="-657.5" font-family="Helvetica,sans-Serif" font-size="10.00">Sgl::Parent</text>
<polyline fill="none" stroke="black" points="37,-650.5 183,-650.5 "/>
<text text-anchor="start" x="45" y="-638.5" font-family="Helvetica,sans-Serif" font-size="10.00"># m_Children</text>
<text text-anchor="start" x="45" y="-627.5" font-family="Helvetica,sans-Serif" font-size="10.00"># m_Snapshot</text>
<text text-anchor="start" x="45" y="-616.5" font-family="Helvetica,sans-Serif" font-size="10.00"># m_NeedLayoutPass</text>
<text text-anchor="start" x="45" y="-605.5" font-family="Helvetica,sans-Serif" font-size="10.00"># m_Background</text>
<text text-anchor="start" x="45" y="-594.5" font-family="Helvetica,sans-Serif" font-size="10.00"># m_Border</text>
<text text-anchor="start" x="45" y="-583.5" font-family="Helvetica,sans-Serif" font-size="10.00">and 7 more...</text>
<polyline fill="none" stroke="black" points="37,-576.5 183,-576.5 "/>
<text text-anchor="start" x="45" y="-564.5" font-family="Helvetica,sans-Serif" font-size="10.00">+ Parent()</text>
<text text-anchor="start" x="45" y="-553.5" font-family="Helvetica,sans-Serif" font-size="10.00">+ ~Parent()</text>
<text text-anchor="start" x="45" y="-542.5" font-family="Helvetica,sans-Serif" font-size="10.00">+ getHitComponent()</text>
<text text-anchor="start" x="45" y="-531.5" font-family="Helvetica,sans-Serif" font-size="10.00">+ render()</text>
<text text-anchor="start" x="45" y="-520.5" font-family="Helvetica,sans-Serif" font-size="10.00">+ layout()</text>
<text text-anchor="start" x="45" y="-509.5" font-family="Helvetica,sans-Serif" font-size="10.00">and 38 more...</text>
<text text-anchor="start" x="45" y="-498.5" font-family="Helvetica,sans-Serif" font-size="10.00"># setSceneInSceneTree()</text>
<text text-anchor="start" x="45" y="-487.5" font-family="Helvetica,sans-Serif" font-size="10.00"># layoutChildren()</text>
<text text-anchor="start" x="45" y="-476.5" font-family="Helvetica,sans-Serif" font-size="10.00"># prerenderSelf()</text>
<text text-anchor="start" x="45" y="-465.5" font-family="Helvetica,sans-Serif" font-size="10.00"># updateSnapshotSize()</text>
<text text-anchor="start" x="45" y="-454.5" font-family="Helvetica,sans-Serif" font-size="10.00"># computeCustomPrefWidth()</text>
<text text-anchor="start" x="45" y="-443.5" font-family="Helvetica,sans-Serif" font-size="10.00">and 5 more...</text>
</a>
</g>
</g>
<!-- Node2&#45;&gt;Node1 -->
<g id="edge1" class="edge">
<title>Node2&#45;&gt;Node1</title>
<path fill="none" stroke="midnightblue" d="M146.35,-426.73C149.03,-417.5 151.67,-408.38 154.21,-399.65"/>
<polygon fill="none" stroke="midnightblue" points="142.97,-425.81 143.55,-436.39 149.7,-427.76 142.97,-425.81"/>
</g>
<!-- Node3 -->
<g id="node3" class="node">
<title>Node3</title>
<g id="a_node3"><a xlink:href="class_sgl_1_1_component.html" target="_top" xlink:title=" ">
<polygon fill="white" stroke="black" points="41.5,-706.5 41.5,-939.5 178.5,-939.5 178.5,-706.5 41.5,-706.5"/>
<text text-anchor="middle" x="110" y="-927.5" font-family="Helvetica,sans-Serif" font-size="10.00">Sgl::Component</text>
<polyline fill="none" stroke="black" points="41.5,-920.5 178.5,-920.5 "/>
<text text-anchor="start" x="49.5" y="-908.5" font-family="Helvetica,sans-Serif" font-size="10.00">+ Scene</text>
<text text-anchor="start" x="49.5" y="-897.5" font-family="Helvetica,sans-Serif" font-size="10.00">+ USE_COMPUTED_SIZE</text>
<text text-anchor="start" x="49.5" y="-886.5" font-family="Helvetica,sans-Serif" font-size="10.00">+ UNLIMITED_SIZE</text>
<text text-anchor="start" x="49.5" y="-875.5" font-family="Helvetica,sans-Serif" font-size="10.00"># m_Visible</text>
<text text-anchor="start" x="49.5" y="-864.5" font-family="Helvetica,sans-Serif" font-size="10.00"># m_Focused</text>
<text text-anchor="start" x="49.5" y="-853.5" font-family="Helvetica,sans-Serif" font-size="10.00"># m_Hovered</text>
<text text-anchor="start" x="49.5" y="-842.5" font-family="Helvetica,sans-Serif" font-size="10.00"># m_Shadow</text>
<text text-anchor="start" x="49.5" y="-831.5" font-family="Helvetica,sans-Serif" font-size="10.00"># m_Dispatcher</text>
<text text-anchor="start" x="49.5" y="-820.5" font-family="Helvetica,sans-Serif" font-size="10.00">and 3 more...</text>
<polyline fill="none" stroke="black" points="41.5,-813.5 178.5,-813.5 "/>
<text text-anchor="start" x="49.5" y="-801.5" font-family="Helvetica,sans-Serif" font-size="10.00">+ Component()</text>
<text text-anchor="start" x="49.5" y="-790.5" font-family="Helvetica,sans-Serif" font-size="10.00">+ ~Component()</text>
<text text-anchor="start" x="49.5" y="-779.5" font-family="Helvetica,sans-Serif" font-size="10.00">+ getHitComponent()</text>
<text text-anchor="start" x="49.5" y="-768.5" font-family="Helvetica,sans-Serif" font-size="10.00">+ render()</text>
<text text-anchor="start" x="49.5" y="-757.5" font-family="Helvetica,sans-Serif" font-size="10.00">+ layout()</text>
<text text-anchor="start" x="49.5" y="-746.5" font-family="Helvetica,sans-Serif" font-size="10.00">and 37 more...</text>
<text text-anchor="start" x="49.5" y="-735.5" font-family="Helvetica,sans-Serif" font-size="10.00"># updateShadow()</text>
<text text-anchor="start" x="49.5" y="-724.5" font-family="Helvetica,sans-Serif" font-size="10.00"># renderShadow()</text>
<text text-anchor="start" x="49.5" y="-713.5" font-family="Helvetica,sans-Serif" font-size="10.00"># setSceneInSceneTree()</text>
</a>
</g>
</g>
<!-- Node3&#45;&gt;Node2 -->
<g id="edge2" class="edge">
<title>Node3&#45;&gt;Node2</title>
<path fill="none" stroke="midnightblue" d="M110,-696.37C110,-687.46 110,-678.49 110,-669.64"/>
<polygon fill="none" stroke="midnightblue" points="106.5,-696.4 110,-706.4 113.5,-696.4 106.5,-696.4"/>
</g>
<!-- Node4 -->
<g id="node4" class="node">
<title>Node4</title>
<g id="a_node4"><a xlink:title=" ">
<polygon fill="white" stroke="#bfbfbf" points="64,-976.5 64,-1033.5 156,-1033.5 156,-976.5 64,-976.5"/>
<text text-anchor="middle" x="110" y="-1021.5" font-family="Helvetica,sans-Serif" font-size="10.00">Sml::EventTarget</text>
<polyline fill="none" stroke="#bfbfbf" points="64,-1014.5 156,-1014.5 "/>
<text text-anchor="middle" x="110" y="-1002.5" font-family="Helvetica,sans-Serif" font-size="10.00"> </text>
<polyline fill="none" stroke="#bfbfbf" points="64,-995.5 156,-995.5 "/>
<text text-anchor="middle" x="110" y="-983.5" font-family="Helvetica,sans-Serif" font-size="10.00"> </text>
</a>
</g>
</g>
<!-- Node4&#45;&gt;Node3 -->
<g id="edge3" class="edge">
<title>Node4&#45;&gt;Node3</title>
<path fill="none" stroke="midnightblue" d="M110,-966.14C110,-958.03 110,-949.05 110,-939.67"/>
<polygon fill="none" stroke="midnightblue" points="106.5,-966.27 110,-976.27 113.5,-966.27 106.5,-966.27"/>
</g>
<!-- Node5 -->
<g id="node5" class="node">
<title>Node5</title>
<g id="a_node5"><a xlink:href="class_sgl_1_1_skinnable.html" target="_top" xlink:title=" ">
<polygon fill="white" stroke="black" points="201,-519 201,-587 281,-587 281,-519 201,-519"/>
<text text-anchor="middle" x="241" y="-575" font-family="Helvetica,sans-Serif" font-size="10.00">Sgl::Skinnable</text>
<polyline fill="none" stroke="black" points="201,-568 281,-568 "/>
<text text-anchor="start" x="209" y="-556" font-family="Helvetica,sans-Serif" font-size="10.00"># m_Skin</text>
<polyline fill="none" stroke="black" points="201,-549 281,-549 "/>
<text text-anchor="start" x="209" y="-537" font-family="Helvetica,sans-Serif" font-size="10.00">+ getSkin()</text>
<text text-anchor="start" x="209" y="-526" font-family="Helvetica,sans-Serif" font-size="10.00">+ setSkin()</text>
</a>
</g>
</g>
<!-- Node5&#45;&gt;Node1 -->
<g id="edge4" class="edge">
<title>Node5&#45;&gt;Node1</title>
<path fill="none" stroke="midnightblue" d="M228.43,-509.33C219.31,-478.37 206.75,-435.77 196.11,-399.64"/>
<polygon fill="none" stroke="midnightblue" points="225.08,-510.34 231.26,-518.95 231.79,-508.37 225.08,-510.34"/>
</g>
<!-- Node7 -->
<g id="node7" class="node">
<title>Node7</title>
<g id="a_node7"><a xlink:href="class_sgl_1_1_menu_item.html" target="_top" xlink:title=" ">
<polygon fill="white" stroke="black" points="0,-0.5 0,-68.5 86,-68.5 86,-0.5 0,-0.5"/>
<text text-anchor="middle" x="43" y="-56.5" font-family="Helvetica,sans-Serif" font-size="10.00">Sgl::MenuItem</text>
<polyline fill="none" stroke="black" points="0,-49.5 86,-49.5 "/>
<text text-anchor="middle" x="43" y="-37.5" font-family="Helvetica,sans-Serif" font-size="10.00"> </text>
<polyline fill="none" stroke="black" points="0,-30.5 86,-30.5 "/>
<text text-anchor="start" x="8" y="-18.5" font-family="Helvetica,sans-Serif" font-size="10.00">+ MenuItem()</text>
<text text-anchor="start" x="8" y="-7.5" font-family="Helvetica,sans-Serif" font-size="10.00">+ setOnAction()</text>
</a>
</g>
</g>
<!-- Node6&#45;&gt;Node7 -->
<g id="edge6" class="edge">
<title>Node6&#45;&gt;Node7</title>
<path fill="none" stroke="midnightblue" d="M43,-95.26C43,-85.99 43,-76.8 43,-68.51"/>
<polygon fill="none" stroke="midnightblue" points="39.5,-95.31 43,-105.31 46.5,-95.31 39.5,-95.31"/>
</g>
</g>
</svg>
