<?xml version="1.0" encoding="UTF-8" standalone="no"?>
<!DOCTYPE svg PUBLIC "-//W3C//DTD SVG 1.1//EN"
 "http://www.w3.org/Graphics/SVG/1.1/DTD/svg11.dtd">
<!-- Generated by graphviz version 2.50.0 (20211204.2007)
 -->
<!-- Title: Sgl::DragEvent Pages: 1 -->
<svg width="357pt" height="342pt"
 viewBox="0.00 0.00 356.50 342.00" xmlns="http://www.w3.org/2000/svg" xmlns:xlink="http://www.w3.org/1999/xlink">
<g id="graph0" class="graph" transform="scale(1 1) rotate(0) translate(4 338)">
<title>Sgl::DragEvent</title>
<polygon fill="white" stroke="transparent" points="-4,4 -4,-338 352.5,-338 352.5,4 -4,4"/>
<!-- Node1 -->
<g id="node1" class="node">
<title>Node1</title>
<g id="a_node1"><a xlink:title=" ">
<polygon fill="#bfbfbf" stroke="black" points="131,-138.5 131,-239.5 214,-239.5 214,-138.5 131,-138.5"/>
<text text-anchor="middle" x="172.5" y="-227.5" font-family="Helvetica,sans-Serif" font-size="10.00">Sgl::DragEvent</text>
<polyline fill="none" stroke="black" points="131,-220.5 214,-220.5 "/>
<text text-anchor="middle" x="172.5" y="-208.5" font-family="Helvetica,sans-Serif" font-size="10.00"> </text>
<polyline fill="none" stroke="black" points="131,-201.5 214,-201.5 "/>
<text text-anchor="start" x="139" y="-189.5" font-family="Helvetica,sans-Serif" font-size="10.00">+ DragEvent()</text>
<text text-anchor="start" x="139" y="-178.5" font-family="Helvetica,sans-Serif" font-size="10.00">+ getX()</text>
<text text-anchor="start" x="139" y="-167.5" font-family="Helvetica,sans-Serif" font-size="10.00">+ setX()</text>
<text text-anchor="start" x="139" y="-156.5" font-family="Helvetica,sans-Serif" font-size="10.00">+ getY()</text>
<text text-anchor="start" x="139" y="-145.5" font-family="Helvetica,sans-Serif" font-size="10.00">+ setY()</text>
</a>
</g>
</g>
<!-- Node3 -->
<g id="node3" class="node">
<title>Node3</title>
<g id="a_node3"><a xlink:href="class_sgl_1_1_drag_end_event.html" target="_top" xlink:title=" ">
<polygon fill="white" stroke="black" points="0,-0.5 0,-101.5 101,-101.5 101,-0.5 0,-0.5"/>
<text text-anchor="middle" x="50.5" y="-89.5" font-family="Helvetica,sans-Serif" font-size="10.00">Sgl::DragEndEvent</text>
<polyline fill="none" stroke="black" points="0,-82.5 101,-82.5 "/>
<text text-anchor="middle" x="50.5" y="-70.5" font-family="Helvetica,sans-Serif" font-size="10.00"> </text>
<polyline fill="none" stroke="black" points="0,-63.5 101,-63.5 "/>
<text text-anchor="start" x="8" y="-51.5" font-family="Helvetica,sans-Serif" font-size="10.00">+ DragEndEvent()</text>
<text text-anchor="start" x="8" y="-40.5" font-family="Helvetica,sans-Serif" font-size="10.00">+ getX()</text>
<text text-anchor="start" x="8" y="-29.5" font-family="Helvetica,sans-Serif" font-size="10.00">+ setX()</text>
<text text-anchor="start" x="8" y="-18.5" font-family="Helvetica,sans-Serif" font-size="10.00">+ getY()</text>
<text text-anchor="start" x="8" y="-7.5" font-family="Helvetica,sans-Serif" font-size="10.00">+ setY()</text>
</a>
</g>
</g>
<!-- Node1&#45;&gt;Node3 -->
<g id="edge2" class="edge">
<title>Node1&#45;&gt;Node3</title>
<path fill="none" stroke="midnightblue" d="M124.04,-133.98C114.56,-123.41 104.65,-112.36 95.29,-101.93"/>
<polygon fill="none" stroke="midnightblue" points="121.57,-136.47 130.86,-141.58 126.78,-131.8 121.57,-136.47"/>
</g>
<!-- Node4 -->
<g id="node4" class="node">
<title>Node4</title>
<g id="a_node4"><a xlink:href="class_sgl_1_1_drag_move_event.html" target="_top" xlink:title=" ">
<polygon fill="white" stroke="black" points="119,-11.5 119,-90.5 226,-90.5 226,-11.5 119,-11.5"/>
<text text-anchor="middle" x="172.5" y="-78.5" font-family="Helvetica,sans-Serif" font-size="10.00">Sgl::DragMoveEvent</text>
<polyline fill="none" stroke="black" points="119,-71.5 226,-71.5 "/>
<text text-anchor="middle" x="172.5" y="-59.5" font-family="Helvetica,sans-Serif" font-size="10.00"> </text>
<polyline fill="none" stroke="black" points="119,-52.5 226,-52.5 "/>
<text text-anchor="start" x="127" y="-40.5" font-family="Helvetica,sans-Serif" font-size="10.00">+ DragMoveEvent()</text>
<text text-anchor="start" x="127" y="-29.5" font-family="Helvetica,sans-Serif" font-size="10.00">+ getDeltaX()</text>
<text text-anchor="start" x="127" y="-18.5" font-family="Helvetica,sans-Serif" font-size="10.00">+ getDeltaY()</text>
</a>
</g>
</g>
<!-- Node1&#45;&gt;Node4 -->
<g id="edge3" class="edge">
<title>Node1&#45;&gt;Node4</title>
<path fill="none" stroke="midnightblue" d="M172.5,-128.1C172.5,-115.45 172.5,-102.41 172.5,-90.79"/>
<polygon fill="none" stroke="midnightblue" points="169,-128.13 172.5,-138.13 176,-128.13 169,-128.13"/>
</g>
<!-- Node5 -->
<g id="node5" class="node">
<title>Node5</title>
<g id="a_node5"><a xlink:href="class_sgl_1_1_drag_start_event.html" target="_top" xlink:title=" ">
<polygon fill="white" stroke="black" points="244.5,-22.5 244.5,-79.5 348.5,-79.5 348.5,-22.5 244.5,-22.5"/>
<text text-anchor="middle" x="296.5" y="-67.5" font-family="Helvetica,sans-Serif" font-size="10.00">Sgl::DragStartEvent</text>
<polyline fill="none" stroke="black" points="244.5,-60.5 348.5,-60.5 "/>
<text text-anchor="middle" x="296.5" y="-48.5" font-family="Helvetica,sans-Serif" font-size="10.00"> </text>
<polyline fill="none" stroke="black" points="244.5,-41.5 348.5,-41.5 "/>
<text text-anchor="start" x="252.5" y="-29.5" font-family="Helvetica,sans-Serif" font-size="10.00">+ DragStartEvent()</text>
</a>
</g>
</g>
<!-- Node1&#45;&gt;Node5 -->
<g id="edge4" class="edge">
<title>Node1&#45;&gt;Node5</title>
<path fill="none" stroke="midnightblue" d="M220.92,-134.9C238.18,-115.96 256.92,-95.41 271.42,-79.5"/>
<polygon fill="none" stroke="midnightblue" points="218.29,-132.59 214.14,-142.34 223.46,-137.3 218.29,-132.59"/>
</g>
<!-- Node2 -->
<g id="node2" class="node">
<title>Node2</title>
<g id="a_node2"><a xlink:title=" ">
<polygon fill="white" stroke="#bfbfbf" points="140,-276.5 140,-333.5 205,-333.5 205,-276.5 140,-276.5"/>
<text text-anchor="middle" x="172.5" y="-321.5" font-family="Helvetica,sans-Serif" font-size="10.00">Sml::Event</text>
<polyline fill="none" stroke="#bfbfbf" points="140,-314.5 205,-314.5 "/>
<text text-anchor="middle" x="172.5" y="-302.5" font-family="Helvetica,sans-Serif" font-size="10.00"> </text>
<polyline fill="none" stroke="#bfbfbf" points="140,-295.5 205,-295.5 "/>
<text text-anchor="middle" x="172.5" y="-283.5" font-family="Helvetica,sans-Serif" font-size="10.00"> </text>
</a>
</g>
</g>
<!-- Node2&#45;&gt;Node1 -->
<g id="edge1" class="edge">
<title>Node2&#45;&gt;Node1</title>
<path fill="none" stroke="midnightblue" d="M172.5,-266.35C172.5,-257.8 172.5,-248.58 172.5,-239.61"/>
<polygon fill="none" stroke="midnightblue" points="169,-266.4 172.5,-276.4 176,-266.4 169,-266.4"/>
</g>
</g>
</svg>
