<?xml version="1.0" encoding="UTF-8" standalone="no"?>
<!DOCTYPE svg PUBLIC "-//W3C//DTD SVG 1.1//EN"
 "http://www.w3.org/Graphics/SVG/1.1/DTD/svg11.dtd">
<!-- Generated by graphviz version 2.50.0 (20211204.2007)
 -->
<!-- Title: Sgl::Control Pages: 1 -->
<!--zoomable 1042 -->
<svg id="main" version="1.1" xmlns="http://www.w3.org/2000/svg" xmlns:xlink="http://www.w3.org/1999/xlink" xml:space="preserve" onload="init(evt)">
<style type="text/css"><![CDATA[
.edge:hover path { stroke: red; }
.edge:hover polygon { stroke: red; fill: red; }
]]></style>
<script type="text/javascript"><![CDATA[
var edges = document.getElementsByTagName('g');
if (edges && edges.length) {
  for (var i=0;i<edges.length;i++) {
    if (edges[i].id.substr(0,4)=='edge') {
      edges[i].setAttribute('class','edge');
    }
  }
}
]]></script>
        <defs>
                <circle id="rim" cx="0" cy="0" r="7"/>
                <circle id="rim2" cx="0" cy="0" r="3.5"/>
                <g id="zoomPlus">
                        <use xlink:href="#rim" fill="#404040">
                                <set attributeName="fill" to="#808080" begin="zoomplus.mouseover" end="zoomplus.mouseout"/>
                        </use>
                        <path d="M-4,0h8M0,-4v8" fill="none" stroke="white" stroke-width="1.5" pointer-events="none"/>
                </g>
                <g id="zoomMin">
                        <use xlink:href="#rim" fill="#404040">
                                <set attributeName="fill" to="#808080" begin="zoomminus.mouseover" end="zoomminus.mouseout"/>
                        </use>
                        <path d="M-4,0h8" fill="none" stroke="white" stroke-width="1.5" pointer-events="none"/>
                </g>
                <g id="dirArrow">
                        <path fill="none" stroke="white" stroke-width="1.5" d="M0,-3.0v7 M-2.5,-0.5L0,-3.0L2.5,-0.5"/>
                </g>
               <g id="resetDef">
                       <use xlink:href="#rim2" fill="#404040">
                               <set attributeName="fill" to="#808080" begin="reset.mouseover" end="reset.mouseout"/>
                       </use>
               </g>
        </defs>

<script type="text/javascript">
var viewWidth = 488;
var viewHeight = 1042;
var sectionId = 'dynsection-0';
</script>
<script xlink:href="svgpan.js"/>
<svg id="graph" class="graph">
<g id="viewport">
<title>Sgl::Control</title>
<polygon fill="white" stroke="transparent" points="-4,4 -4,-1038 484,-1038 484,4 -4,4"/>
<!-- Node1 -->
<g id="node1" class="node">
<title>Node1</title>
<g id="a_node1"><a xlink:title=" ">
<polygon fill="#bfbfbf" stroke="black" points="147.5,-254.5 147.5,-399.5 296.5,-399.5 296.5,-254.5 147.5,-254.5"/>
<text text-anchor="middle" x="222" y="-387.5" font-family="Helvetica,sans-Serif" font-size="10.00">Sgl::Control</text>
<polyline fill="none" stroke="black" points="147.5,-380.5 296.5,-380.5 "/>
<text text-anchor="start" x="155.5" y="-368.5" font-family="Helvetica,sans-Serif" font-size="10.00"># m_DefaultSkin</text>
<polyline fill="none" stroke="black" points="147.5,-361.5 296.5,-361.5 "/>
<text text-anchor="start" x="155.5" y="-349.5" font-family="Helvetica,sans-Serif" font-size="10.00">+ Control()</text>
<text text-anchor="start" x="155.5" y="-338.5" font-family="Helvetica,sans-Serif" font-size="10.00">+ ~Control()</text>
<text text-anchor="start" x="155.5" y="-327.5" font-family="Helvetica,sans-Serif" font-size="10.00">+ getHitComponent()</text>
<text text-anchor="start" x="155.5" y="-316.5" font-family="Helvetica,sans-Serif" font-size="10.00"># layoutChildren()</text>
<text text-anchor="start" x="155.5" y="-305.5" font-family="Helvetica,sans-Serif" font-size="10.00"># prerenderSelf()</text>
<text text-anchor="start" x="155.5" y="-294.5" font-family="Helvetica,sans-Serif" font-size="10.00"># computeCustomPrefWidth()</text>
<text text-anchor="start" x="155.5" y="-283.5" font-family="Helvetica,sans-Serif" font-size="10.00"># computeCustomPrefHeight()</text>
<text text-anchor="start" x="155.5" y="-272.5" font-family="Helvetica,sans-Serif" font-size="10.00"># computeCustomMinWidth()</text>
<text text-anchor="start" x="155.5" y="-261.5" font-family="Helvetica,sans-Serif" font-size="10.00">and 3 more...</text>
</a>
</g>
</g>
<!-- Node6 -->
<g id="node6" class="node">
<title>Node6</title>
<g id="a_node6"><a xlink:href="class_sgl_1_1_button.html" target="_top" xlink:title=" ">
<polygon fill="white" stroke="black" points="6,-105.5 6,-217.5 80,-217.5 80,-105.5 6,-105.5"/>
<text text-anchor="middle" x="43" y="-205.5" font-family="Helvetica,sans-Serif" font-size="10.00">Sgl::Button</text>
<polyline fill="none" stroke="black" points="6,-198.5 80,-198.5 "/>
<text text-anchor="middle" x="43" y="-186.5" font-family="Helvetica,sans-Serif" font-size="10.00"> </text>
<polyline fill="none" stroke="black" points="6,-179.5 80,-179.5 "/>
<text text-anchor="start" x="14" y="-167.5" font-family="Helvetica,sans-Serif" font-size="10.00">+ Button()</text>
<text text-anchor="start" x="14" y="-156.5" font-family="Helvetica,sans-Serif" font-size="10.00">+ Button()</text>
<text text-anchor="start" x="14" y="-145.5" font-family="Helvetica,sans-Serif" font-size="10.00">+ Button()</text>
<text text-anchor="start" x="14" y="-134.5" font-family="Helvetica,sans-Serif" font-size="10.00">+ Button()</text>
<text text-anchor="start" x="14" y="-123.5" font-family="Helvetica,sans-Serif" font-size="10.00">+ Button()</text>
<text text-anchor="start" x="14" y="-112.5" font-family="Helvetica,sans-Serif" font-size="10.00">and 7 more...</text>
</a>
</g>
</g>
<!-- Node1&#45;&gt;Node6 -->
<g id="edge5" class="edge">
<title>Node1&#45;&gt;Node6</title>
<path fill="none" stroke="midnightblue" d="M139.43,-263.17C122.22,-248.92 104.58,-233.43 89,-218 86.07,-215.09 83.12,-212.02 80.22,-208.86"/>
<polygon fill="none" stroke="midnightblue" points="137.35,-265.99 147.3,-269.62 141.79,-260.58 137.35,-265.99"/>
</g>
<!-- Node8 -->
<g id="node8" class="node">
<title>Node8</title>
<g id="a_node8"><a xlink:href="class_sgl_1_1_label.html" target="_top" xlink:title=" ">
<polygon fill="white" stroke="black" points="98,-133 98,-190 158,-190 158,-133 98,-133"/>
<text text-anchor="middle" x="128" y="-178" font-family="Helvetica,sans-Serif" font-size="10.00">Sgl::Label</text>
<polyline fill="none" stroke="black" points="98,-171 158,-171 "/>
<text text-anchor="middle" x="128" y="-159" font-family="Helvetica,sans-Serif" font-size="10.00"> </text>
<polyline fill="none" stroke="black" points="98,-152 158,-152 "/>
<text text-anchor="middle" x="128" y="-140" font-family="Helvetica,sans-Serif" font-size="10.00"> </text>
</a>
</g>
</g>
<!-- Node1&#45;&gt;Node8 -->
<g id="edge7" class="edge">
<title>Node1&#45;&gt;Node8</title>
<path fill="none" stroke="midnightblue" d="M175.71,-245.49C164.29,-225.63 152.82,-205.67 143.98,-190.3"/>
<polygon fill="none" stroke="midnightblue" points="172.75,-247.36 180.77,-254.29 178.82,-243.87 172.75,-247.36"/>
</g>
<!-- Node9 -->
<g id="node9" class="node">
<title>Node9</title>
<g id="a_node9"><a xlink:href="class_sgl_1_1_scroll_bar.html" target="_top" xlink:title=" ">
<polygon fill="white" stroke="black" points="176,-105.5 176,-217.5 268,-217.5 268,-105.5 176,-105.5"/>
<text text-anchor="middle" x="222" y="-205.5" font-family="Helvetica,sans-Serif" font-size="10.00">Sgl::ScrollBar</text>
<polyline fill="none" stroke="black" points="176,-198.5 268,-198.5 "/>
<text text-anchor="middle" x="222" y="-186.5" font-family="Helvetica,sans-Serif" font-size="10.00"> </text>
<polyline fill="none" stroke="black" points="176,-179.5 268,-179.5 "/>
<text text-anchor="start" x="184" y="-167.5" font-family="Helvetica,sans-Serif" font-size="10.00">+ ScrollBar()</text>
<text text-anchor="start" x="184" y="-156.5" font-family="Helvetica,sans-Serif" font-size="10.00">+ getOrientation()</text>
<text text-anchor="start" x="184" y="-145.5" font-family="Helvetica,sans-Serif" font-size="10.00">+ getRangeMin()</text>
<text text-anchor="start" x="184" y="-134.5" font-family="Helvetica,sans-Serif" font-size="10.00">+ setRangeMin()</text>
<text text-anchor="start" x="184" y="-123.5" font-family="Helvetica,sans-Serif" font-size="10.00">+ getRangeMax()</text>
<text text-anchor="start" x="184" y="-112.5" font-family="Helvetica,sans-Serif" font-size="10.00">and 9 more...</text>
</a>
</g>
</g>
<!-- Node1&#45;&gt;Node9 -->
<g id="edge8" class="edge">
<title>Node1&#45;&gt;Node9</title>
<path fill="none" stroke="midnightblue" d="M222,-244.25C222,-235.33 222,-226.42 222,-217.93"/>
<polygon fill="none" stroke="midnightblue" points="218.5,-244.29 222,-254.29 225.5,-244.29 218.5,-244.29"/>
</g>
<!-- Node10 -->
<g id="node10" class="node">
<title>Node10</title>
<g id="a_node10"><a xlink:href="class_sgl_1_1_scroll_pane.html" target="_top" xlink:title=" ">
<polygon fill="white" stroke="black" points="286,-105.5 286,-217.5 370,-217.5 370,-105.5 286,-105.5"/>
<text text-anchor="middle" x="328" y="-205.5" font-family="Helvetica,sans-Serif" font-size="10.00">Sgl::ScrollPane</text>
<polyline fill="none" stroke="black" points="286,-198.5 370,-198.5 "/>
<text text-anchor="middle" x="328" y="-186.5" font-family="Helvetica,sans-Serif" font-size="10.00"> </text>
<polyline fill="none" stroke="black" points="286,-179.5 370,-179.5 "/>
<text text-anchor="start" x="294" y="-167.5" font-family="Helvetica,sans-Serif" font-size="10.00">+ ScrollPane()</text>
<text text-anchor="start" x="294" y="-156.5" font-family="Helvetica,sans-Serif" font-size="10.00">+ getContent()</text>
<text text-anchor="start" x="294" y="-145.5" font-family="Helvetica,sans-Serif" font-size="10.00">+ setContent()</text>
<text text-anchor="start" x="294" y="-134.5" font-family="Helvetica,sans-Serif" font-size="10.00">+ getViewport()</text>
<text text-anchor="start" x="294" y="-123.5" font-family="Helvetica,sans-Serif" font-size="10.00">+ setViewport()</text>
<text text-anchor="start" x="294" y="-112.5" font-family="Helvetica,sans-Serif" font-size="10.00">and 8 more...</text>
</a>
</g>
</g>
<!-- Node1&#45;&gt;Node10 -->
<g id="edge9" class="edge">
<title>Node1&#45;&gt;Node10</title>
<path fill="none" stroke="midnightblue" d="M274.07,-245.68C280.16,-236.29 286.26,-226.88 292.06,-217.93"/>
<polygon fill="none" stroke="midnightblue" points="271,-243.99 268.49,-254.29 276.87,-247.8 271,-243.99"/>
</g>
<!-- Node11 -->
<g id="node11" class="node">
<title>Node11</title>
<g id="a_node11"><a xlink:href="class_sgl_1_1_slider.html" target="_top" xlink:title=" ">
<polygon fill="white" stroke="black" points="388,-105.5 388,-217.5 480,-217.5 480,-105.5 388,-105.5"/>
<text text-anchor="middle" x="434" y="-205.5" font-family="Helvetica,sans-Serif" font-size="10.00">Sgl::Slider</text>
<polyline fill="none" stroke="black" points="388,-198.5 480,-198.5 "/>
<text text-anchor="middle" x="434" y="-186.5" font-family="Helvetica,sans-Serif" font-size="10.00"> </text>
<polyline fill="none" stroke="black" points="388,-179.5 480,-179.5 "/>
<text text-anchor="start" x="396" y="-167.5" font-family="Helvetica,sans-Serif" font-size="10.00">+ Slider()</text>
<text text-anchor="start" x="396" y="-156.5" font-family="Helvetica,sans-Serif" font-size="10.00">+ Slider()</text>
<text text-anchor="start" x="396" y="-145.5" font-family="Helvetica,sans-Serif" font-size="10.00">+ getOrientation()</text>
<text text-anchor="start" x="396" y="-134.5" font-family="Helvetica,sans-Serif" font-size="10.00">+ setOrientation()</text>
<text text-anchor="start" x="396" y="-123.5" font-family="Helvetica,sans-Serif" font-size="10.00">+ getRangeMin()</text>
<text text-anchor="start" x="396" y="-112.5" font-family="Helvetica,sans-Serif" font-size="10.00">and 7 more...</text>
</a>
</g>
</g>
<!-- Node1&#45;&gt;Node11 -->
<g id="edge10" class="edge">
<title>Node1&#45;&gt;Node11</title>
<path fill="none" stroke="midnightblue" d="M305.33,-272.94C329.77,-256.26 356.07,-237.17 379,-218 381.91,-215.56 384.85,-213 387.76,-210.36"/>
<polygon fill="none" stroke="midnightblue" points="303.09,-270.23 296.77,-278.74 307.02,-276.03 303.09,-270.23"/>
</g>
<!-- Node2 -->
<g id="node2" class="node">
<title>Node2</title>
<g id="a_node2"><a xlink:href="class_sgl_1_1_parent.html" target="_top" xlink:title=" ">
<polygon fill="white" stroke="black" points="84,-436.5 84,-669.5 230,-669.5 230,-436.5 84,-436.5"/>
<text text-anchor="middle" x="157" y="-657.5" font-family="Helvetica,sans-Serif" font-size="10.00">Sgl::Parent</text>
<polyline fill="none" stroke="black" points="84,-650.5 230,-650.5 "/>
<text text-anchor="start" x="92" y="-638.5" font-family="Helvetica,sans-Serif" font-size="10.00"># m_Children</text>
<text text-anchor="start" x="92" y="-627.5" font-family="Helvetica,sans-Serif" font-size="10.00"># m_Snapshot</text>
<text text-anchor="start" x="92" y="-616.5" font-family="Helvetica,sans-Serif" font-size="10.00"># m_NeedLayoutPass</text>
<text text-anchor="start" x="92" y="-605.5" font-family="Helvetica,sans-Serif" font-size="10.00"># m_Background</text>
<text text-anchor="start" x="92" y="-594.5" font-family="Helvetica,sans-Serif" font-size="10.00"># m_Border</text>
<text text-anchor="start" x="92" y="-583.5" font-family="Helvetica,sans-Serif" font-size="10.00">and 7 more...</text>
<polyline fill="none" stroke="black" points="84,-576.5 230,-576.5 "/>
<text text-anchor="start" x="92" y="-564.5" font-family="Helvetica,sans-Serif" font-size="10.00">+ Parent()</text>
<text text-anchor="start" x="92" y="-553.5" font-family="Helvetica,sans-Serif" font-size="10.00">+ ~Parent()</text>
<text text-anchor="start" x="92" y="-542.5" font-family="Helvetica,sans-Serif" font-size="10.00">+ getHitComponent()</text>
<text text-anchor="start" x="92" y="-531.5" font-family="Helvetica,sans-Serif" font-size="10.00">+ render()</text>
<text text-anchor="start" x="92" y="-520.5" font-family="Helvetica,sans-Serif" font-size="10.00">+ layout()</text>
<text text-anchor="start" x="92" y="-509.5" font-family="Helvetica,sans-Serif" font-size="10.00">and 38 more...</text>
<text text-anchor="start" x="92" y="-498.5" font-family="Helvetica,sans-Serif" font-size="10.00"># setSceneInSceneTree()</text>
<text text-anchor="start" x="92" y="-487.5" font-family="Helvetica,sans-Serif" font-size="10.00"># layoutChildren()</text>
<text text-anchor="start" x="92" y="-476.5" font-family="Helvetica,sans-Serif" font-size="10.00"># prerenderSelf()</text>
<text text-anchor="start" x="92" y="-465.5" font-family="Helvetica,sans-Serif" font-size="10.00"># updateSnapshotSize()</text>
<text text-anchor="start" x="92" y="-454.5" font-family="Helvetica,sans-Serif" font-size="10.00"># computeCustomPrefWidth()</text>
<text text-anchor="start" x="92" y="-443.5" font-family="Helvetica,sans-Serif" font-size="10.00">and 5 more...</text>
</a>
</g>
</g>
<!-- Node2&#45;&gt;Node1 -->
<g id="edge1" class="edge">
<title>Node2&#45;&gt;Node1</title>
<path fill="none" stroke="midnightblue" d="M193.35,-426.73C196.03,-417.5 198.67,-408.38 201.21,-399.65"/>
<polygon fill="none" stroke="midnightblue" points="189.97,-425.81 190.55,-436.39 196.7,-427.76 189.97,-425.81"/>
</g>
<!-- Node3 -->
<g id="node3" class="node">
<title>Node3</title>
<g id="a_node3"><a xlink:href="class_sgl_1_1_component.html" target="_top" xlink:title=" ">
<polygon fill="white" stroke="black" points="88.5,-706.5 88.5,-939.5 225.5,-939.5 225.5,-706.5 88.5,-706.5"/>
<text text-anchor="middle" x="157" y="-927.5" font-family="Helvetica,sans-Serif" font-size="10.00">Sgl::Component</text>
<polyline fill="none" stroke="black" points="88.5,-920.5 225.5,-920.5 "/>
<text text-anchor="start" x="96.5" y="-908.5" font-family="Helvetica,sans-Serif" font-size="10.00">+ Scene</text>
<text text-anchor="start" x="96.5" y="-897.5" font-family="Helvetica,sans-Serif" font-size="10.00">+ USE_COMPUTED_SIZE</text>
<text text-anchor="start" x="96.5" y="-886.5" font-family="Helvetica,sans-Serif" font-size="10.00">+ UNLIMITED_SIZE</text>
<text text-anchor="start" x="96.5" y="-875.5" font-family="Helvetica,sans-Serif" font-size="10.00"># m_Visible</text>
<text text-anchor="start" x="96.5" y="-864.5" font-family="Helvetica,sans-Serif" font-size="10.00"># m_Focused</text>
<text text-anchor="start" x="96.5" y="-853.5" font-family="Helvetica,sans-Serif" font-size="10.00"># m_Hovered</text>
<text text-anchor="start" x="96.5" y="-842.5" font-family="Helvetica,sans-Serif" font-size="10.00"># m_Shadow</text>
<text text-anchor="start" x="96.5" y="-831.5" font-family="Helvetica,sans-Serif" font-size="10.00"># m_Dispatcher</text>
<text text-anchor="start" x="96.5" y="-820.5" font-family="Helvetica,sans-Serif" font-size="10.00">and 3 more...</text>
<polyline fill="none" stroke="black" points="88.5,-813.5 225.5,-813.5 "/>
<text text-anchor="start" x="96.5" y="-801.5" font-family="Helvetica,sans-Serif" font-size="10.00">+ Component()</text>
<text text-anchor="start" x="96.5" y="-790.5" font-family="Helvetica,sans-Serif" font-size="10.00">+ ~Component()</text>
<text text-anchor="start" x="96.5" y="-779.5" font-family="Helvetica,sans-Serif" font-size="10.00">+ getHitComponent()</text>
<text text-anchor="start" x="96.5" y="-768.5" font-family="Helvetica,sans-Serif" font-size="10.00">+ render()</text>
<text text-anchor="start" x="96.5" y="-757.5" font-family="Helvetica,sans-Serif" font-size="10.00">+ layout()</text>
<text text-anchor="start" x="96.5" y="-746.5" font-family="Helvetica,sans-Serif" font-size="10.00">and 37 more...</text>
<text text-anchor="start" x="96.5" y="-735.5" font-family="Helvetica,sans-Serif" font-size="10.00"># updateShadow()</text>
<text text-anchor="start" x="96.5" y="-724.5" font-family="Helvetica,sans-Serif" font-size="10.00"># renderShadow()</text>
<text text-anchor="start" x="96.5" y="-713.5" font-family="Helvetica,sans-Serif" font-size="10.00"># setSceneInSceneTree()</text>
</a>
</g>
</g>
<!-- Node3&#45;&gt;Node2 -->
<g id="edge2" class="edge">
<title>Node3&#45;&gt;Node2</title>
<path fill="none" stroke="midnightblue" d="M157,-696.37C157,-687.46 157,-678.49 157,-669.64"/>
<polygon fill="none" stroke="midnightblue" points="153.5,-696.4 157,-706.4 160.5,-696.4 153.5,-696.4"/>
</g>
<!-- Node4 -->
<g id="node4" class="node">
<title>Node4</title>
<g id="a_node4"><a xlink:title=" ">
<polygon fill="white" stroke="#bfbfbf" points="111,-976.5 111,-1033.5 203,-1033.5 203,-976.5 111,-976.5"/>
<text text-anchor="middle" x="157" y="-1021.5" font-family="Helvetica,sans-Serif" font-size="10.00">Sml::EventTarget</text>
<polyline fill="none" stroke="#bfbfbf" points="111,-1014.5 203,-1014.5 "/>
<text text-anchor="middle" x="157" y="-1002.5" font-family="Helvetica,sans-Serif" font-size="10.00"> </text>
<polyline fill="none" stroke="#bfbfbf" points="111,-995.5 203,-995.5 "/>
<text text-anchor="middle" x="157" y="-983.5" font-family="Helvetica,sans-Serif" font-size="10.00"> </text>
</a>
</g>
</g>
<!-- Node4&#45;&gt;Node3 -->
<g id="edge3" class="edge">
<title>Node4&#45;&gt;Node3</title>
<path fill="none" stroke="midnightblue" d="M157,-966.14C157,-958.03 157,-949.05 157,-939.67"/>
<polygon fill="none" stroke="midnightblue" points="153.5,-966.27 157,-976.27 160.5,-966.27 153.5,-966.27"/>
</g>
<!-- Node5 -->
<g id="node5" class="node">
<title>Node5</title>
<g id="a_node5"><a xlink:href="class_sgl_1_1_skinnable.html" target="_top" xlink:title=" ">
<polygon fill="white" stroke="black" points="248,-519 248,-587 328,-587 328,-519 248,-519"/>
<text text-anchor="middle" x="288" y="-575" font-family="Helvetica,sans-Serif" font-size="10.00">Sgl::Skinnable</text>
<polyline fill="none" stroke="black" points="248,-568 328,-568 "/>
<text text-anchor="start" x="256" y="-556" font-family="Helvetica,sans-Serif" font-size="10.00"># m_Skin</text>
<polyline fill="none" stroke="black" points="248,-549 328,-549 "/>
<text text-anchor="start" x="256" y="-537" font-family="Helvetica,sans-Serif" font-size="10.00">+ getSkin()</text>
<text text-anchor="start" x="256" y="-526" font-family="Helvetica,sans-Serif" font-size="10.00">+ setSkin()</text>
</a>
</g>
</g>
<!-- Node5&#45;&gt;Node1 -->
<g id="edge4" class="edge">
<title>Node5&#45;&gt;Node1</title>
<path fill="none" stroke="midnightblue" d="M275.43,-509.33C266.31,-478.37 253.75,-435.77 243.11,-399.64"/>
<polygon fill="none" stroke="midnightblue" points="272.08,-510.34 278.26,-518.95 278.79,-508.37 272.08,-510.34"/>
</g>
<!-- Node7 -->
<g id="node7" class="node">
<title>Node7</title>
<g id="a_node7"><a xlink:href="class_sgl_1_1_menu_item.html" target="_top" xlink:title=" ">
<polygon fill="white" stroke="black" points="0,-0.5 0,-68.5 86,-68.5 86,-0.5 0,-0.5"/>
<text text-anchor="middle" x="43" y="-56.5" font-family="Helvetica,sans-Serif" font-size="10.00">Sgl::MenuItem</text>
<polyline fill="none" stroke="black" points="0,-49.5 86,-49.5 "/>
<text text-anchor="middle" x="43" y="-37.5" font-family="Helvetica,sans-Serif" font-size="10.00"> </text>
<polyline fill="none" stroke="black" points="0,-30.5 86,-30.5 "/>
<text text-anchor="start" x="8" y="-18.5" font-family="Helvetica,sans-Serif" font-size="10.00">+ MenuItem()</text>
<text text-anchor="start" x="8" y="-7.5" font-family="Helvetica,sans-Serif" font-size="10.00">+ setOnAction()</text>
</a>
</g>
</g>
<!-- Node6&#45;&gt;Node7 -->
<g id="edge6" class="edge">
<title>Node6&#45;&gt;Node7</title>
<path fill="none" stroke="midnightblue" d="M43,-95.26C43,-85.99 43,-76.8 43,-68.51"/>
<polygon fill="none" stroke="midnightblue" points="39.5,-95.31 43,-105.31 46.5,-95.31 39.5,-95.31"/>
</g>
</g>
</svg>
        <g id="navigator" transform="translate(0 0)" fill="#404254">
                <rect fill="#f2f5e9" fill-opacity="0.5" stroke="#606060" stroke-width=".5" x="0" y="0" width="60" height="60"/>
                <use id="zoomplus" xlink:href="#zoomPlus" x="17" y="9" onmousedown="handleZoom(evt,'in')"/>
                <use id="zoomminus" xlink:href="#zoomMin" x="42" y="9" onmousedown="handleZoom(evt,'out')"/>
                <use id="reset" xlink:href="#resetDef" x="30" y="36" onmousedown="handleReset()"/>
                <g id="arrowUp" xlink:href="#dirArrow" transform="translate(30 24)" onmousedown="handlePan(0,-1)">
                  <use xlink:href="#rim" fill="#404040">
                        <set attributeName="fill" to="#808080" begin="arrowUp.mouseover" end="arrowUp.mouseout"/>
                  </use>
                  <path fill="none" stroke="white" stroke-width="1.5" d="M0,-3.0v7 M-2.5,-0.5L0,-3.0L2.5,-0.5"/>
                </g>
                <g id="arrowRight" xlink:href="#dirArrow" transform="rotate(90) translate(36 -43)" onmousedown="handlePan(1,0)">
                  <use xlink:href="#rim" fill="#404040">
                        <set attributeName="fill" to="#808080" begin="arrowRight.mouseover" end="arrowRight.mouseout"/>
                  </use>
                  <path fill="none" stroke="white" stroke-width="1.5" d="M0,-3.0v7 M-2.5,-0.5L0,-3.0L2.5,-0.5"/>
                </g>
                <g id="arrowDown" xlink:href="#dirArrow" transform="rotate(180) translate(-30 -48)" onmousedown="handlePan(0,1)">
                  <use xlink:href="#rim" fill="#404040">
                        <set attributeName="fill" to="#808080" begin="arrowDown.mouseover" end="arrowDown.mouseout"/>
                  </use>
                  <path fill="none" stroke="white" stroke-width="1.5" d="M0,-3.0v7 M-2.5,-0.5L0,-3.0L2.5,-0.5"/>
                </g>
                <g id="arrowLeft" xlink:href="#dirArrow" transform="rotate(270) translate(-36 17)" onmousedown="handlePan(-1,0)">
                  <use xlink:href="#rim" fill="#404040">
                        <set attributeName="fill" to="#808080" begin="arrowLeft.mouseover" end="arrowLeft.mouseout"/>
                  </use>
                  <path fill="none" stroke="white" stroke-width="1.5" d="M0,-3.0v7 M-2.5,-0.5L0,-3.0L2.5,-0.5"/>
                </g>
        </g>
        <svg viewBox="0 0 15 15" width="100%" height="30px" preserveAspectRatio="xMaxYMin meet">
         <g id="arrow_out" transform="scale(0.3 0.3)">
          <a xlink:href="class_sgl_1_1_control__inherit__graph_org.svg" target="_base">
           <rect id="button" ry="5" rx="5" y="6" x="6" height="38" width="38"
                fill="#f2f5e9" fill-opacity="0.5" stroke="#606060" stroke-width="1.0"/>
           <path id="arrow"
             d="M 11.500037,31.436501 C 11.940474,20.09759 22.043105,11.32322 32.158766,21.979434 L 37.068811,17.246167 C 37.068811,17.246167 37.088388,32 37.088388,32 L 22.160133,31.978069 C 22.160133,31.978069 26.997745,27.140456 26.997745,27.140456 C 18.528582,18.264221 13.291696,25.230495 11.500037,31.436501 z"
             style="fill:#404040;"/>
          </a>
         </g>
        </svg>
</svg>
