<?xml version="1.0" encoding="UTF-8" standalone="no"?>
<!DOCTYPE svg PUBLIC "-//W3C//DTD SVG 1.1//EN"
 "http://www.w3.org/Graphics/SVG/1.1/DTD/svg11.dtd">
<!-- Generated by graphviz version 2.50.0 (20211204.2007)
 -->
<!-- Title: Sgl::Slider Pages: 1 -->
<!--zoomable 937 -->
<svg id="main" version="1.1" xmlns="http://www.w3.org/2000/svg" xmlns:xlink="http://www.w3.org/1999/xlink" xml:space="preserve" onload="init(evt)">
<style type="text/css"><![CDATA[
.edge:hover path { stroke: red; }
.edge:hover polygon { stroke: red; fill: red; }
]]></style>
<script type="text/javascript"><![CDATA[
var edges = document.getElementsByTagName('g');
if (edges && edges.length) {
  for (var i=0;i<edges.length;i++) {
    if (edges[i].id.substr(0,4)=='edge') {
      edges[i].setAttribute('class','edge');
    }
  }
}
]]></script>
        <defs>
                <circle id="rim" cx="0" cy="0" r="7"/>
                <circle id="rim2" cx="0" cy="0" r="3.5"/>
                <g id="zoomPlus">
                        <use xlink:href="#rim" fill="#404040">
                                <set attributeName="fill" to="#808080" begin="zoomplus.mouseover" end="zoomplus.mouseout"/>
                        </use>
                        <path d="M-4,0h8M0,-4v8" fill="none" stroke="white" stroke-width="1.5" pointer-events="none"/>
                </g>
                <g id="zoomMin">
                        <use xlink:href="#rim" fill="#404040">
                                <set attributeName="fill" to="#808080" begin="zoomminus.mouseover" end="zoomminus.mouseout"/>
                        </use>
                        <path d="M-4,0h8" fill="none" stroke="white" stroke-width="1.5" pointer-events="none"/>
                </g>
                <g id="dirArrow">
                        <path fill="none" stroke="white" stroke-width="1.5" d="M0,-3.0v7 M-2.5,-0.5L0,-3.0L2.5,-0.5"/>
                </g>
               <g id="resetDef">
                       <use xlink:href="#rim2" fill="#404040">
                               <set attributeName="fill" to="#808080" begin="reset.mouseover" end="reset.mouseout"/>
                       </use>
               </g>
        </defs>

<script type="text/javascript">
var viewWidth = 252;
var viewHeight = 937;
var sectionId = 'dynsection-0';
</script>
<script xlink:href="svgpan.js"/>
<svg id="graph" class="graph">
<g id="viewport">
<title>Sgl::Slider</title>
<polygon fill="white" stroke="transparent" points="-4,4 -4,-933 248,-933 248,4 -4,4"/>
<!-- Node1 -->
<g id="node1" class="node">
<title>Node1</title>
<g id="a_node1"><a xlink:title=" ">
<polygon fill="#bfbfbf" stroke="black" points="92,-0.5 92,-112.5 184,-112.5 184,-0.5 92,-0.5"/>
<text text-anchor="middle" x="138" y="-100.5" font-family="Helvetica,sans-Serif" font-size="10.00">Sgl::Slider</text>
<polyline fill="none" stroke="black" points="92,-93.5 184,-93.5 "/>
<text text-anchor="middle" x="138" y="-81.5" font-family="Helvetica,sans-Serif" font-size="10.00"> </text>
<polyline fill="none" stroke="black" points="92,-74.5 184,-74.5 "/>
<text text-anchor="start" x="100" y="-62.5" font-family="Helvetica,sans-Serif" font-size="10.00">+ Slider()</text>
<text text-anchor="start" x="100" y="-51.5" font-family="Helvetica,sans-Serif" font-size="10.00">+ Slider()</text>
<text text-anchor="start" x="100" y="-40.5" font-family="Helvetica,sans-Serif" font-size="10.00">+ getOrientation()</text>
<text text-anchor="start" x="100" y="-29.5" font-family="Helvetica,sans-Serif" font-size="10.00">+ setOrientation()</text>
<text text-anchor="start" x="100" y="-18.5" font-family="Helvetica,sans-Serif" font-size="10.00">+ getRangeMin()</text>
<text text-anchor="start" x="100" y="-7.5" font-family="Helvetica,sans-Serif" font-size="10.00">and 7 more...</text>
</a>
</g>
</g>
<!-- Node2 -->
<g id="node2" class="node">
<title>Node2</title>
<g id="a_node2"><a xlink:href="class_sgl_1_1_control.html" target="_top" xlink:title=" ">
<polygon fill="white" stroke="black" points="63.5,-149.5 63.5,-294.5 212.5,-294.5 212.5,-149.5 63.5,-149.5"/>
<text text-anchor="middle" x="138" y="-282.5" font-family="Helvetica,sans-Serif" font-size="10.00">Sgl::Control</text>
<polyline fill="none" stroke="black" points="63.5,-275.5 212.5,-275.5 "/>
<text text-anchor="start" x="71.5" y="-263.5" font-family="Helvetica,sans-Serif" font-size="10.00"># m_DefaultSkin</text>
<polyline fill="none" stroke="black" points="63.5,-256.5 212.5,-256.5 "/>
<text text-anchor="start" x="71.5" y="-244.5" font-family="Helvetica,sans-Serif" font-size="10.00">+ Control()</text>
<text text-anchor="start" x="71.5" y="-233.5" font-family="Helvetica,sans-Serif" font-size="10.00">+ ~Control()</text>
<text text-anchor="start" x="71.5" y="-222.5" font-family="Helvetica,sans-Serif" font-size="10.00">+ getHitComponent()</text>
<text text-anchor="start" x="71.5" y="-211.5" font-family="Helvetica,sans-Serif" font-size="10.00"># layoutChildren()</text>
<text text-anchor="start" x="71.5" y="-200.5" font-family="Helvetica,sans-Serif" font-size="10.00"># prerenderSelf()</text>
<text text-anchor="start" x="71.5" y="-189.5" font-family="Helvetica,sans-Serif" font-size="10.00"># computeCustomPrefWidth()</text>
<text text-anchor="start" x="71.5" y="-178.5" font-family="Helvetica,sans-Serif" font-size="10.00"># computeCustomPrefHeight()</text>
<text text-anchor="start" x="71.5" y="-167.5" font-family="Helvetica,sans-Serif" font-size="10.00"># computeCustomMinWidth()</text>
<text text-anchor="start" x="71.5" y="-156.5" font-family="Helvetica,sans-Serif" font-size="10.00">and 3 more...</text>
</a>
</g>
</g>
<!-- Node2&#45;&gt;Node1 -->
<g id="edge1" class="edge">
<title>Node2&#45;&gt;Node1</title>
<path fill="none" stroke="midnightblue" d="M138,-139.25C138,-130.33 138,-121.42 138,-112.93"/>
<polygon fill="none" stroke="midnightblue" points="134.5,-139.29 138,-149.29 141.5,-139.29 134.5,-139.29"/>
</g>
<!-- Node3 -->
<g id="node3" class="node">
<title>Node3</title>
<g id="a_node3"><a xlink:href="class_sgl_1_1_parent.html" target="_top" xlink:title=" ">
<polygon fill="white" stroke="black" points="0,-331.5 0,-564.5 146,-564.5 146,-331.5 0,-331.5"/>
<text text-anchor="middle" x="73" y="-552.5" font-family="Helvetica,sans-Serif" font-size="10.00">Sgl::Parent</text>
<polyline fill="none" stroke="black" points="0,-545.5 146,-545.5 "/>
<text text-anchor="start" x="8" y="-533.5" font-family="Helvetica,sans-Serif" font-size="10.00"># m_Children</text>
<text text-anchor="start" x="8" y="-522.5" font-family="Helvetica,sans-Serif" font-size="10.00"># m_Snapshot</text>
<text text-anchor="start" x="8" y="-511.5" font-family="Helvetica,sans-Serif" font-size="10.00"># m_NeedLayoutPass</text>
<text text-anchor="start" x="8" y="-500.5" font-family="Helvetica,sans-Serif" font-size="10.00"># m_Background</text>
<text text-anchor="start" x="8" y="-489.5" font-family="Helvetica,sans-Serif" font-size="10.00"># m_Border</text>
<text text-anchor="start" x="8" y="-478.5" font-family="Helvetica,sans-Serif" font-size="10.00">and 7 more...</text>
<polyline fill="none" stroke="black" points="0,-471.5 146,-471.5 "/>
<text text-anchor="start" x="8" y="-459.5" font-family="Helvetica,sans-Serif" font-size="10.00">+ Parent()</text>
<text text-anchor="start" x="8" y="-448.5" font-family="Helvetica,sans-Serif" font-size="10.00">+ ~Parent()</text>
<text text-anchor="start" x="8" y="-437.5" font-family="Helvetica,sans-Serif" font-size="10.00">+ getHitComponent()</text>
<text text-anchor="start" x="8" y="-426.5" font-family="Helvetica,sans-Serif" font-size="10.00">+ render()</text>
<text text-anchor="start" x="8" y="-415.5" font-family="Helvetica,sans-Serif" font-size="10.00">+ layout()</text>
<text text-anchor="start" x="8" y="-404.5" font-family="Helvetica,sans-Serif" font-size="10.00">and 38 more...</text>
<text text-anchor="start" x="8" y="-393.5" font-family="Helvetica,sans-Serif" font-size="10.00"># setSceneInSceneTree()</text>
<text text-anchor="start" x="8" y="-382.5" font-family="Helvetica,sans-Serif" font-size="10.00"># layoutChildren()</text>
<text text-anchor="start" x="8" y="-371.5" font-family="Helvetica,sans-Serif" font-size="10.00"># prerenderSelf()</text>
<text text-anchor="start" x="8" y="-360.5" font-family="Helvetica,sans-Serif" font-size="10.00"># updateSnapshotSize()</text>
<text text-anchor="start" x="8" y="-349.5" font-family="Helvetica,sans-Serif" font-size="10.00"># computeCustomPrefWidth()</text>
<text text-anchor="start" x="8" y="-338.5" font-family="Helvetica,sans-Serif" font-size="10.00">and 5 more...</text>
</a>
</g>
</g>
<!-- Node3&#45;&gt;Node2 -->
<g id="edge2" class="edge">
<title>Node3&#45;&gt;Node2</title>
<path fill="none" stroke="midnightblue" d="M109.35,-321.73C112.03,-312.5 114.67,-303.38 117.21,-294.65"/>
<polygon fill="none" stroke="midnightblue" points="105.97,-320.81 106.55,-331.39 112.7,-322.76 105.97,-320.81"/>
</g>
<!-- Node4 -->
<g id="node4" class="node">
<title>Node4</title>
<g id="a_node4"><a xlink:href="class_sgl_1_1_component.html" target="_top" xlink:title=" ">
<polygon fill="white" stroke="black" points="4.5,-601.5 4.5,-834.5 141.5,-834.5 141.5,-601.5 4.5,-601.5"/>
<text text-anchor="middle" x="73" y="-822.5" font-family="Helvetica,sans-Serif" font-size="10.00">Sgl::Component</text>
<polyline fill="none" stroke="black" points="4.5,-815.5 141.5,-815.5 "/>
<text text-anchor="start" x="12.5" y="-803.5" font-family="Helvetica,sans-Serif" font-size="10.00">+ Scene</text>
<text text-anchor="start" x="12.5" y="-792.5" font-family="Helvetica,sans-Serif" font-size="10.00">+ USE_COMPUTED_SIZE</text>
<text text-anchor="start" x="12.5" y="-781.5" font-family="Helvetica,sans-Serif" font-size="10.00">+ UNLIMITED_SIZE</text>
<text text-anchor="start" x="12.5" y="-770.5" font-family="Helvetica,sans-Serif" font-size="10.00"># m_Visible</text>
<text text-anchor="start" x="12.5" y="-759.5" font-family="Helvetica,sans-Serif" font-size="10.00"># m_Focused</text>
<text text-anchor="start" x="12.5" y="-748.5" font-family="Helvetica,sans-Serif" font-size="10.00"># m_Hovered</text>
<text text-anchor="start" x="12.5" y="-737.5" font-family="Helvetica,sans-Serif" font-size="10.00"># m_Shadow</text>
<text text-anchor="start" x="12.5" y="-726.5" font-family="Helvetica,sans-Serif" font-size="10.00"># m_Dispatcher</text>
<text text-anchor="start" x="12.5" y="-715.5" font-family="Helvetica,sans-Serif" font-size="10.00">and 3 more...</text>
<polyline fill="none" stroke="black" points="4.5,-708.5 141.5,-708.5 "/>
<text text-anchor="start" x="12.5" y="-696.5" font-family="Helvetica,sans-Serif" font-size="10.00">+ Component()</text>
<text text-anchor="start" x="12.5" y="-685.5" font-family="Helvetica,sans-Serif" font-size="10.00">+ ~Component()</text>
<text text-anchor="start" x="12.5" y="-674.5" font-family="Helvetica,sans-Serif" font-size="10.00">+ getHitComponent()</text>
<text text-anchor="start" x="12.5" y="-663.5" font-family="Helvetica,sans-Serif" font-size="10.00">+ render()</text>
<text text-anchor="start" x="12.5" y="-652.5" font-family="Helvetica,sans-Serif" font-size="10.00">+ layout()</text>
<text text-anchor="start" x="12.5" y="-641.5" font-family="Helvetica,sans-Serif" font-size="10.00">and 37 more...</text>
<text text-anchor="start" x="12.5" y="-630.5" font-family="Helvetica,sans-Serif" font-size="10.00"># updateShadow()</text>
<text text-anchor="start" x="12.5" y="-619.5" font-family="Helvetica,sans-Serif" font-size="10.00"># renderShadow()</text>
<text text-anchor="start" x="12.5" y="-608.5" font-family="Helvetica,sans-Serif" font-size="10.00"># setSceneInSceneTree()</text>
</a>
</g>
</g>
<!-- Node4&#45;&gt;Node3 -->
<g id="edge3" class="edge">
<title>Node4&#45;&gt;Node3</title>
<path fill="none" stroke="midnightblue" d="M73,-591.37C73,-582.46 73,-573.49 73,-564.64"/>
<polygon fill="none" stroke="midnightblue" points="69.5,-591.4 73,-601.4 76.5,-591.4 69.5,-591.4"/>
</g>
<!-- Node5 -->
<g id="node5" class="node">
<title>Node5</title>
<g id="a_node5"><a xlink:title=" ">
<polygon fill="white" stroke="#bfbfbf" points="27,-871.5 27,-928.5 119,-928.5 119,-871.5 27,-871.5"/>
<text text-anchor="middle" x="73" y="-916.5" font-family="Helvetica,sans-Serif" font-size="10.00">Sml::EventTarget</text>
<polyline fill="none" stroke="#bfbfbf" points="27,-909.5 119,-909.5 "/>
<text text-anchor="middle" x="73" y="-897.5" font-family="Helvetica,sans-Serif" font-size="10.00"> </text>
<polyline fill="none" stroke="#bfbfbf" points="27,-890.5 119,-890.5 "/>
<text text-anchor="middle" x="73" y="-878.5" font-family="Helvetica,sans-Serif" font-size="10.00"> </text>
</a>
</g>
</g>
<!-- Node5&#45;&gt;Node4 -->
<g id="edge4" class="edge">
<title>Node5&#45;&gt;Node4</title>
<path fill="none" stroke="midnightblue" d="M73,-861.14C73,-853.03 73,-844.05 73,-834.67"/>
<polygon fill="none" stroke="midnightblue" points="69.5,-861.27 73,-871.27 76.5,-861.27 69.5,-861.27"/>
</g>
<!-- Node6 -->
<g id="node6" class="node">
<title>Node6</title>
<g id="a_node6"><a xlink:href="class_sgl_1_1_skinnable.html" target="_top" xlink:title=" ">
<polygon fill="white" stroke="black" points="164,-414 164,-482 244,-482 244,-414 164,-414"/>
<text text-anchor="middle" x="204" y="-470" font-family="Helvetica,sans-Serif" font-size="10.00">Sgl::Skinnable</text>
<polyline fill="none" stroke="black" points="164,-463 244,-463 "/>
<text text-anchor="start" x="172" y="-451" font-family="Helvetica,sans-Serif" font-size="10.00"># m_Skin</text>
<polyline fill="none" stroke="black" points="164,-444 244,-444 "/>
<text text-anchor="start" x="172" y="-432" font-family="Helvetica,sans-Serif" font-size="10.00">+ getSkin()</text>
<text text-anchor="start" x="172" y="-421" font-family="Helvetica,sans-Serif" font-size="10.00">+ setSkin()</text>
</a>
</g>
</g>
<!-- Node6&#45;&gt;Node2 -->
<g id="edge5" class="edge">
<title>Node6&#45;&gt;Node2</title>
<path fill="none" stroke="midnightblue" d="M191.43,-404.33C182.31,-373.37 169.75,-330.77 159.11,-294.64"/>
<polygon fill="none" stroke="midnightblue" points="188.08,-405.34 194.26,-413.95 194.79,-403.37 188.08,-405.34"/>
</g>
</g>
</svg>
        <g id="navigator" transform="translate(0 0)" fill="#404254">
                <rect fill="#f2f5e9" fill-opacity="0.5" stroke="#606060" stroke-width=".5" x="0" y="0" width="60" height="60"/>
                <use id="zoomplus" xlink:href="#zoomPlus" x="17" y="9" onmousedown="handleZoom(evt,'in')"/>
                <use id="zoomminus" xlink:href="#zoomMin" x="42" y="9" onmousedown="handleZoom(evt,'out')"/>
                <use id="reset" xlink:href="#resetDef" x="30" y="36" onmousedown="handleReset()"/>
                <g id="arrowUp" xlink:href="#dirArrow" transform="translate(30 24)" onmousedown="handlePan(0,-1)">
                  <use xlink:href="#rim" fill="#404040">
                        <set attributeName="fill" to="#808080" begin="arrowUp.mouseover" end="arrowUp.mouseout"/>
                  </use>
                  <path fill="none" stroke="white" stroke-width="1.5" d="M0,-3.0v7 M-2.5,-0.5L0,-3.0L2.5,-0.5"/>
                </g>
                <g id="arrowRight" xlink:href="#dirArrow" transform="rotate(90) translate(36 -43)" onmousedown="handlePan(1,0)">
                  <use xlink:href="#rim" fill="#404040">
                        <set attributeName="fill" to="#808080" begin="arrowRight.mouseover" end="arrowRight.mouseout"/>
                  </use>
                  <path fill="none" stroke="white" stroke-width="1.5" d="M0,-3.0v7 M-2.5,-0.5L0,-3.0L2.5,-0.5"/>
                </g>
                <g id="arrowDown" xlink:href="#dirArrow" transform="rotate(180) translate(-30 -48)" onmousedown="handlePan(0,1)">
                  <use xlink:href="#rim" fill="#404040">
                        <set attributeName="fill" to="#808080" begin="arrowDown.mouseover" end="arrowDown.mouseout"/>
                  </use>
                  <path fill="none" stroke="white" stroke-width="1.5" d="M0,-3.0v7 M-2.5,-0.5L0,-3.0L2.5,-0.5"/>
                </g>
                <g id="arrowLeft" xlink:href="#dirArrow" transform="rotate(270) translate(-36 17)" onmousedown="handlePan(-1,0)">
                  <use xlink:href="#rim" fill="#404040">
                        <set attributeName="fill" to="#808080" begin="arrowLeft.mouseover" end="arrowLeft.mouseout"/>
                  </use>
                  <path fill="none" stroke="white" stroke-width="1.5" d="M0,-3.0v7 M-2.5,-0.5L0,-3.0L2.5,-0.5"/>
                </g>
        </g>
        <svg viewBox="0 0 15 15" width="100%" height="30px" preserveAspectRatio="xMaxYMin meet">
         <g id="arrow_out" transform="scale(0.3 0.3)">
          <a xlink:href="class_sgl_1_1_slider__inherit__graph_org.svg" target="_base">
           <rect id="button" ry="5" rx="5" y="6" x="6" height="38" width="38"
                fill="#f2f5e9" fill-opacity="0.5" stroke="#606060" stroke-width="1.0"/>
           <path id="arrow"
             d="M 11.500037,31.436501 C 11.940474,20.09759 22.043105,11.32322 32.158766,21.979434 L 37.068811,17.246167 C 37.068811,17.246167 37.088388,32 37.088388,32 L 22.160133,31.978069 C 22.160133,31.978069 26.997745,27.140456 26.997745,27.140456 C 18.528582,18.264221 13.291696,25.230495 11.500037,31.436501 z"
             style="fill:#404040;"/>
          </a>
         </g>
        </svg>
</svg>
