<?xml version="1.0" encoding="UTF-8" standalone="no"?>
<!DOCTYPE svg PUBLIC "-//W3C//DTD SVG 1.1//EN"
 "http://www.w3.org/Graphics/SVG/1.1/DTD/svg11.dtd">
<!-- Generated by graphviz version 2.50.0 (20211204.2007)
 -->
<!-- Title: Sgl::LinearGradientFill Pages: 1 -->
<svg width="263pt" height="238pt"
 viewBox="0.00 0.00 263.00 238.00" xmlns="http://www.w3.org/2000/svg" xmlns:xlink="http://www.w3.org/1999/xlink">
<g id="graph0" class="graph" transform="scale(1 1) rotate(0) translate(4 234)">
<title>Sgl::LinearGradientFill</title>
<polygon fill="white" stroke="transparent" points="-4,4 -4,-234 259,-234 259,4 -4,4"/>
<!-- Node1 -->
<g id="node1" class="node">
<title>Node1</title>
<g id="a_node1"><a xlink:title=" ">
<polygon fill="#bfbfbf" stroke="black" points="0,-0.5 0,-112.5 113,-112.5 113,-0.5 0,-0.5"/>
<text text-anchor="middle" x="56.5" y="-100.5" font-family="Helvetica,sans-Serif" font-size="10.00">Sgl::LinearGradientFill</text>
<polyline fill="none" stroke="black" points="0,-93.5 113,-93.5 "/>
<text text-anchor="middle" x="56.5" y="-81.5" font-family="Helvetica,sans-Serif" font-size="10.00"> </text>
<polyline fill="none" stroke="black" points="0,-74.5 113,-74.5 "/>
<text text-anchor="start" x="8" y="-62.5" font-family="Helvetica,sans-Serif" font-size="10.00">+ LinearGradientFill()</text>
<text text-anchor="start" x="8" y="-51.5" font-family="Helvetica,sans-Serif" font-size="10.00">+ LinearGradientFill()</text>
<text text-anchor="start" x="8" y="-40.5" font-family="Helvetica,sans-Serif" font-size="10.00">+ LinearGradientFill()</text>
<text text-anchor="start" x="8" y="-29.5" font-family="Helvetica,sans-Serif" font-size="10.00">+ addStop()</text>
<text text-anchor="start" x="8" y="-18.5" font-family="Helvetica,sans-Serif" font-size="10.00">+ setDirection()</text>
<text text-anchor="start" x="8" y="-7.5" font-family="Helvetica,sans-Serif" font-size="10.00">and 3 more...</text>
</a>
</g>
</g>
<!-- Node1&#45;&gt;Node1 -->
<g id="edge2" class="edge">
<title>Node1&#45;&gt;Node1</title>
<path fill="none" stroke="#404040" d="M113.03,-69.66C123.57,-68.04 131,-63.65 131,-56.5 131,-52.48 128.65,-49.33 124.72,-47.05"/>
<polygon fill="none" stroke="#404040" points="124.46,-46.97 117.53,-48.97 113.03,-43.34 119.96,-41.34 124.46,-46.97"/>
<text text-anchor="middle" x="193" y="-54" font-family="Helvetica,sans-Serif" font-size="10.00"> +RAINBOX_HORIZONTAL</text>
</g>
<!-- Node2 -->
<g id="node2" class="node">
<title>Node2</title>
<g id="a_node2"><a xlink:href="class_sgl_1_1_fill.html" target="_top" xlink:title=" ">
<polygon fill="white" stroke="black" points="24.5,-150.5 24.5,-229.5 88.5,-229.5 88.5,-150.5 24.5,-150.5"/>
<text text-anchor="middle" x="56.5" y="-217.5" font-family="Helvetica,sans-Serif" font-size="10.00">Sgl::Fill</text>
<polyline fill="none" stroke="black" points="24.5,-210.5 88.5,-210.5 "/>
<text text-anchor="middle" x="56.5" y="-198.5" font-family="Helvetica,sans-Serif" font-size="10.00"> </text>
<polyline fill="none" stroke="black" points="24.5,-191.5 88.5,-191.5 "/>
<text text-anchor="start" x="32.5" y="-179.5" font-family="Helvetica,sans-Serif" font-size="10.00">+ fillLine()</text>
<text text-anchor="start" x="32.5" y="-168.5" font-family="Helvetica,sans-Serif" font-size="10.00">+ fillArea()</text>
<text text-anchor="start" x="32.5" y="-157.5" font-family="Helvetica,sans-Serif" font-size="10.00">+ fillPoint()</text>
</a>
</g>
</g>
<!-- Node2&#45;&gt;Node1 -->
<g id="edge1" class="edge">
<title>Node2&#45;&gt;Node1</title>
<path fill="none" stroke="midnightblue" d="M56.5,-139.99C56.5,-131.04 56.5,-121.64 56.5,-112.53"/>
<polygon fill="none" stroke="midnightblue" points="53,-140.26 56.5,-150.26 60,-140.26 53,-140.26"/>
</g>
</g>
</svg>
