<?xml version="1.0" encoding="UTF-8" standalone="no"?>
<!DOCTYPE svg PUBLIC "-//W3C//DTD SVG 1.1//EN"
 "http://www.w3.org/Graphics/SVG/1.1/DTD/svg11.dtd">
<!-- Generated by graphviz version 2.50.0 (20211204.2007)
 -->
<!-- Title: GuiEventDispatcher Pages: 1 -->
<svg width="237pt" height="259pt"
 viewBox="0.00 0.00 236.50 259.00" xmlns="http://www.w3.org/2000/svg" xmlns:xlink="http://www.w3.org/1999/xlink">
<g id="graph0" class="graph" transform="scale(1 1) rotate(0) translate(4 255)">
<title>GuiEventDispatcher</title>
<polygon fill="white" stroke="transparent" points="-4,4 -4,-255 232.5,-255 232.5,4 -4,4"/>
<!-- Node1 -->
<g id="node1" class="node">
<title>Node1</title>
<g id="a_node1"><a xlink:title=" ">
<polygon fill="#bfbfbf" stroke="black" points="38,-0.5 38,-134.5 173,-134.5 173,-0.5 38,-0.5"/>
<text text-anchor="middle" x="105.5" y="-122.5" font-family="Helvetica,sans-Serif" font-size="10.00">GuiEventDispatcher</text>
<polyline fill="none" stroke="black" points="38,-115.5 173,-115.5 "/>
<text text-anchor="middle" x="105.5" y="-103.5" font-family="Helvetica,sans-Serif" font-size="10.00"> </text>
<polyline fill="none" stroke="black" points="38,-96.5 173,-96.5 "/>
<text text-anchor="start" x="46" y="-84.5" font-family="Helvetica,sans-Serif" font-size="10.00">+ ~GuiEventDispatcher()</text>
<text text-anchor="start" x="46" y="-73.5" font-family="Helvetica,sans-Serif" font-size="10.00">+ attachFilter()</text>
<text text-anchor="start" x="46" y="-62.5" font-family="Helvetica,sans-Serif" font-size="10.00">+ detachFilter()</text>
<text text-anchor="start" x="46" y="-51.5" font-family="Helvetica,sans-Serif" font-size="10.00">+ attachHandler()</text>
<text text-anchor="start" x="46" y="-40.5" font-family="Helvetica,sans-Serif" font-size="10.00">+ detachHandler()</text>
<text text-anchor="start" x="46" y="-29.5" font-family="Helvetica,sans-Serif" font-size="10.00">+ dispatchEvent()</text>
<text text-anchor="start" x="46" y="-18.5" font-family="Helvetica,sans-Serif" font-size="10.00"># dispatchCapturingEvent()</text>
<text text-anchor="start" x="46" y="-7.5" font-family="Helvetica,sans-Serif" font-size="10.00"># dispatchBubblingEvent()</text>
</a>
</g>
</g>
<!-- Node2 -->
<g id="node2" class="node">
<title>Node2</title>
<g id="a_node2"><a xlink:title=" ">
<polygon fill="white" stroke="#bfbfbf" points="0,-193.5 0,-250.5 113,-250.5 113,-193.5 0,-193.5"/>
<text text-anchor="middle" x="56.5" y="-238.5" font-family="Helvetica,sans-Serif" font-size="10.00">Sml::EventDispatcher</text>
<polyline fill="none" stroke="#bfbfbf" points="0,-231.5 113,-231.5 "/>
<text text-anchor="middle" x="56.5" y="-219.5" font-family="Helvetica,sans-Serif" font-size="10.00"> </text>
<polyline fill="none" stroke="#bfbfbf" points="0,-212.5 113,-212.5 "/>
<text text-anchor="middle" x="56.5" y="-200.5" font-family="Helvetica,sans-Serif" font-size="10.00"> </text>
</a>
</g>
</g>
<!-- Node2&#45;&gt;Node1 -->
<g id="edge1" class="edge">
<title>Node2&#45;&gt;Node1</title>
<path fill="none" stroke="midnightblue" d="M68.52,-183.61C73.27,-168.81 78.88,-151.35 84.28,-134.56"/>
<polygon fill="none" stroke="midnightblue" points="65.1,-182.79 65.37,-193.38 71.76,-184.93 65.1,-182.79"/>
</g>
<!-- Node3 -->
<g id="node3" class="node">
<title>Node3</title>
<g id="a_node3"><a xlink:title=" ">
<polygon fill="white" stroke="#bfbfbf" points="131.5,-193.5 131.5,-250.5 179.5,-250.5 179.5,-193.5 131.5,-193.5"/>
<text text-anchor="middle" x="155.5" y="-238.5" font-family="Helvetica,sans-Serif" font-size="10.00">Notifier</text>
<polyline fill="none" stroke="#bfbfbf" points="131.5,-231.5 179.5,-231.5 "/>
<text text-anchor="middle" x="155.5" y="-219.5" font-family="Helvetica,sans-Serif" font-size="10.00"> </text>
<polyline fill="none" stroke="#bfbfbf" points="131.5,-212.5 179.5,-212.5 "/>
<text text-anchor="middle" x="155.5" y="-200.5" font-family="Helvetica,sans-Serif" font-size="10.00"> </text>
</a>
</g>
</g>
<!-- Node3&#45;&gt;Node1 -->
<g id="edge2" class="edge">
<title>Node3&#45;&gt;Node1</title>
<path fill="none" stroke="#404040" d="M146.45,-193.38C142.06,-179.99 136.54,-163.17 130.99,-146.25"/>
<polygon fill="none" stroke="#404040" points="130.9,-145.96 125.23,-141.5 127.16,-134.56 132.83,-139.01 130.9,-145.96"/>
<text text-anchor="middle" x="183.5" y="-167" font-family="Helvetica,sans-Serif" font-size="10.00"> #m_FiltersNotifier</text>
<text text-anchor="middle" x="183.5" y="-156" font-family="Helvetica,sans-Serif" font-size="10.00">#m_HandlersNotifier</text>
</g>
</g>
</svg>
