<?xml version="1.0" encoding="UTF-8" standalone="no"?>
<!DOCTYPE svg PUBLIC "-//W3C//DTD SVG 1.1//EN"
 "http://www.w3.org/Graphics/SVG/1.1/DTD/svg11.dtd">
<!-- Generated by graphviz version 2.50.0 (20211204.2007)
 -->
<!-- Title: Sgl::DragStartEvent Pages: 1 -->
<svg width="112pt" height="298pt"
 viewBox="0.00 0.00 112.00 298.00" xmlns="http://www.w3.org/2000/svg" xmlns:xlink="http://www.w3.org/1999/xlink">
<g id="graph0" class="graph" transform="scale(1 1) rotate(0) translate(4 294)">
<title>Sgl::DragStartEvent</title>
<polygon fill="white" stroke="transparent" points="-4,4 -4,-294 108,-294 108,4 -4,4"/>
<!-- Node1 -->
<g id="node1" class="node">
<title>Node1</title>
<g id="a_node1"><a xlink:title=" ">
<polygon fill="#bfbfbf" stroke="black" points="0,-0.5 0,-57.5 104,-57.5 104,-0.5 0,-0.5"/>
<text text-anchor="middle" x="52" y="-45.5" font-family="Helvetica,sans-Serif" font-size="10.00">Sgl::DragStartEvent</text>
<polyline fill="none" stroke="black" points="0,-38.5 104,-38.5 "/>
<text text-anchor="middle" x="52" y="-26.5" font-family="Helvetica,sans-Serif" font-size="10.00"> </text>
<polyline fill="none" stroke="black" points="0,-19.5 104,-19.5 "/>
<text text-anchor="start" x="8" y="-7.5" font-family="Helvetica,sans-Serif" font-size="10.00">+ DragStartEvent()</text>
</a>
</g>
</g>
<!-- Node2 -->
<g id="node2" class="node">
<title>Node2</title>
<g id="a_node2"><a xlink:href="class_sgl_1_1_drag_event.html" target="_top" xlink:title=" ">
<polygon fill="white" stroke="black" points="10.5,-94.5 10.5,-195.5 93.5,-195.5 93.5,-94.5 10.5,-94.5"/>
<text text-anchor="middle" x="52" y="-183.5" font-family="Helvetica,sans-Serif" font-size="10.00">Sgl::DragEvent</text>
<polyline fill="none" stroke="black" points="10.5,-176.5 93.5,-176.5 "/>
<text text-anchor="middle" x="52" y="-164.5" font-family="Helvetica,sans-Serif" font-size="10.00"> </text>
<polyline fill="none" stroke="black" points="10.5,-157.5 93.5,-157.5 "/>
<text text-anchor="start" x="18.5" y="-145.5" font-family="Helvetica,sans-Serif" font-size="10.00">+ DragEvent()</text>
<text text-anchor="start" x="18.5" y="-134.5" font-family="Helvetica,sans-Serif" font-size="10.00">+ getX()</text>
<text text-anchor="start" x="18.5" y="-123.5" font-family="Helvetica,sans-Serif" font-size="10.00">+ setX()</text>
<text text-anchor="start" x="18.5" y="-112.5" font-family="Helvetica,sans-Serif" font-size="10.00">+ getY()</text>
<text text-anchor="start" x="18.5" y="-101.5" font-family="Helvetica,sans-Serif" font-size="10.00">+ setY()</text>
</a>
</g>
</g>
<!-- Node2&#45;&gt;Node1 -->
<g id="edge1" class="edge">
<title>Node2&#45;&gt;Node1</title>
<path fill="none" stroke="midnightblue" d="M52,-84.23C52,-74.92 52,-65.71 52,-57.59"/>
<polygon fill="none" stroke="midnightblue" points="48.5,-84.33 52,-94.33 55.5,-84.33 48.5,-84.33"/>
</g>
<!-- Node3 -->
<g id="node3" class="node">
<title>Node3</title>
<g id="a_node3"><a xlink:title=" ">
<polygon fill="white" stroke="#bfbfbf" points="19.5,-232.5 19.5,-289.5 84.5,-289.5 84.5,-232.5 19.5,-232.5"/>
<text text-anchor="middle" x="52" y="-277.5" font-family="Helvetica,sans-Serif" font-size="10.00">Sml::Event</text>
<polyline fill="none" stroke="#bfbfbf" points="19.5,-270.5 84.5,-270.5 "/>
<text text-anchor="middle" x="52" y="-258.5" font-family="Helvetica,sans-Serif" font-size="10.00"> </text>
<polyline fill="none" stroke="#bfbfbf" points="19.5,-251.5 84.5,-251.5 "/>
<text text-anchor="middle" x="52" y="-239.5" font-family="Helvetica,sans-Serif" font-size="10.00"> </text>
</a>
</g>
</g>
<!-- Node3&#45;&gt;Node2 -->
<g id="edge2" class="edge">
<title>Node3&#45;&gt;Node2</title>
<path fill="none" stroke="midnightblue" d="M52,-222.35C52,-213.8 52,-204.58 52,-195.61"/>
<polygon fill="none" stroke="midnightblue" points="48.5,-222.4 52,-232.4 55.5,-222.4 48.5,-222.4"/>
</g>
</g>
</svg>
