<?xml version="1.0" encoding="UTF-8" standalone="no"?>
<!DOCTYPE svg PUBLIC "-//W3C//DTD SVG 1.1//EN"
 "http://www.w3.org/Graphics/SVG/1.1/DTD/svg11.dtd">
<!-- Generated by graphviz version 2.50.0 (20211204.2007)
 -->
<!-- Title: Sgl::DefaultSkins::ButtonSkin Pages: 1 -->
<!--zoomable 731 -->
<svg id="main" version="1.1" xmlns="http://www.w3.org/2000/svg" xmlns:xlink="http://www.w3.org/1999/xlink" xml:space="preserve" onload="init(evt)">
<style type="text/css"><![CDATA[
.edge:hover path { stroke: red; }
.edge:hover polygon { stroke: red; fill: red; }
]]></style>
<script type="text/javascript"><![CDATA[
var edges = document.getElementsByTagName('g');
if (edges && edges.length) {
  for (var i=0;i<edges.length;i++) {
    if (edges[i].id.substr(0,4)=='edge') {
      edges[i].setAttribute('class','edge');
    }
  }
}
]]></script>
        <defs>
                <circle id="rim" cx="0" cy="0" r="7"/>
                <circle id="rim2" cx="0" cy="0" r="3.5"/>
                <g id="zoomPlus">
                        <use xlink:href="#rim" fill="#404040">
                                <set attributeName="fill" to="#808080" begin="zoomplus.mouseover" end="zoomplus.mouseout"/>
                        </use>
                        <path d="M-4,0h8M0,-4v8" fill="none" stroke="white" stroke-width="1.5" pointer-events="none"/>
                </g>
                <g id="zoomMin">
                        <use xlink:href="#rim" fill="#404040">
                                <set attributeName="fill" to="#808080" begin="zoomminus.mouseover" end="zoomminus.mouseout"/>
                        </use>
                        <path d="M-4,0h8" fill="none" stroke="white" stroke-width="1.5" pointer-events="none"/>
                </g>
                <g id="dirArrow">
                        <path fill="none" stroke="white" stroke-width="1.5" d="M0,-3.0v7 M-2.5,-0.5L0,-3.0L2.5,-0.5"/>
                </g>
               <g id="resetDef">
                       <use xlink:href="#rim2" fill="#404040">
                               <set attributeName="fill" to="#808080" begin="reset.mouseover" end="reset.mouseout"/>
                       </use>
               </g>
        </defs>

<script type="text/javascript">
var viewWidth = 206;
var viewHeight = 731;
var sectionId = 'dynsection-0';
</script>
<script xlink:href="svgpan.js"/>
<svg id="graph" class="graph">
<g id="viewport">
<title>Sgl::DefaultSkins::ButtonSkin</title>
<polygon fill="white" stroke="transparent" points="-4,4 -4,-727 202,-727 202,4 -4,4"/>
<!-- Node1 -->
<g id="node1" class="node">
<title>Node1</title>
<g id="a_node1"><a xlink:title=" ">
<polygon fill="#bfbfbf" stroke="black" points="0,-0.5 0,-134.5 164,-134.5 164,-0.5 0,-0.5"/>
<text text-anchor="start" x="8" y="-122.5" font-family="Helvetica,sans-Serif" font-size="10.00">Sgl::DefaultSkins::</text>
<text text-anchor="middle" x="82" y="-111.5" font-family="Helvetica,sans-Serif" font-size="10.00">ButtonSkin</text>
<polyline fill="none" stroke="black" points="0,-104.5 164,-104.5 "/>
<text text-anchor="start" x="8" y="-92.5" font-family="Helvetica,sans-Serif" font-size="10.00">+ PADDING_LABEL_ONLY</text>
<text text-anchor="start" x="8" y="-81.5" font-family="Helvetica,sans-Serif" font-size="10.00">+ PADDING_ICON_ONLY</text>
<text text-anchor="start" x="8" y="-70.5" font-family="Helvetica,sans-Serif" font-size="10.00">+ PADDING_LABEL_AND_ICON</text>
<text text-anchor="start" x="8" y="-59.5" font-family="Helvetica,sans-Serif" font-size="10.00">+ MARGIN</text>
<text text-anchor="start" x="8" y="-48.5" font-family="Helvetica,sans-Serif" font-size="10.00">+ BORDER</text>
<text text-anchor="start" x="8" y="-37.5" font-family="Helvetica,sans-Serif" font-size="10.00">and 9 more...</text>
<polyline fill="none" stroke="black" points="0,-30.5 164,-30.5 "/>
<text text-anchor="start" x="8" y="-18.5" font-family="Helvetica,sans-Serif" font-size="10.00">+ ButtonSkin()</text>
<text text-anchor="start" x="8" y="-7.5" font-family="Helvetica,sans-Serif" font-size="10.00">+ ButtonSkin()</text>
</a>
</g>
</g>
<!-- Node2 -->
<g id="node2" class="node">
<title>Node2</title>
<g id="a_node2"><a xlink:href="class_sgl_1_1_default_skins_1_1_button_base_skin.html" target="_top" xlink:title=" ">
<polygon fill="white" stroke="black" points="30,-172.5 30,-372.5 134,-372.5 134,-172.5 30,-172.5"/>
<text text-anchor="start" x="38" y="-360.5" font-family="Helvetica,sans-Serif" font-size="10.00">Sgl::DefaultSkins::</text>
<text text-anchor="middle" x="82" y="-349.5" font-family="Helvetica,sans-Serif" font-size="10.00">ButtonBaseSkin</text>
<polyline fill="none" stroke="black" points="30,-342.5 134,-342.5 "/>
<text text-anchor="start" x="38" y="-330.5" font-family="Helvetica,sans-Serif" font-size="10.00"># m_StaticStyle</text>
<text text-anchor="start" x="38" y="-319.5" font-family="Helvetica,sans-Serif" font-size="10.00"># m_IdleStyle</text>
<text text-anchor="start" x="38" y="-308.5" font-family="Helvetica,sans-Serif" font-size="10.00"># m_HoveredStyle</text>
<text text-anchor="start" x="38" y="-297.5" font-family="Helvetica,sans-Serif" font-size="10.00"># m_PressedStyle</text>
<text text-anchor="start" x="38" y="-286.5" font-family="Helvetica,sans-Serif" font-size="10.00"># m_Button</text>
<text text-anchor="start" x="38" y="-275.5" font-family="Helvetica,sans-Serif" font-size="10.00">and 3 more...</text>
<polyline fill="none" stroke="black" points="30,-268.5 134,-268.5 "/>
<text text-anchor="start" x="38" y="-256.5" font-family="Helvetica,sans-Serif" font-size="10.00">+ ButtonBaseSkin()</text>
<text text-anchor="start" x="38" y="-245.5" font-family="Helvetica,sans-Serif" font-size="10.00">+ ButtonBaseSkin()</text>
<text text-anchor="start" x="38" y="-234.5" font-family="Helvetica,sans-Serif" font-size="10.00">+ dispose()</text>
<text text-anchor="start" x="38" y="-223.5" font-family="Helvetica,sans-Serif" font-size="10.00">+ attach()</text>
<text text-anchor="start" x="38" y="-212.5" font-family="Helvetica,sans-Serif" font-size="10.00">+ prerenderControl()</text>
<text text-anchor="start" x="38" y="-201.5" font-family="Helvetica,sans-Serif" font-size="10.00">and 6 more...</text>
<text text-anchor="start" x="38" y="-190.5" font-family="Helvetica,sans-Serif" font-size="10.00"># getMargin()</text>
<text text-anchor="start" x="38" y="-179.5" font-family="Helvetica,sans-Serif" font-size="10.00"># applyStaticStyle()</text>
</a>
</g>
</g>
<!-- Node2&#45;&gt;Node1 -->
<g id="edge1" class="edge">
<title>Node2&#45;&gt;Node1</title>
<path fill="none" stroke="midnightblue" d="M82,-162.2C82,-152.83 82,-143.56 82,-134.69"/>
<polygon fill="none" stroke="midnightblue" points="78.5,-162.38 82,-172.38 85.5,-162.38 78.5,-162.38"/>
</g>
<!-- Node3 -->
<g id="node3" class="node">
<title>Node3</title>
<g id="a_node3"><a xlink:href="class_sgl_1_1_base_skin.html" target="_top" xlink:title=" ">
<polygon fill="white" stroke="black" points="19.5,-410.5 19.5,-467.5 144.5,-467.5 144.5,-410.5 19.5,-410.5"/>
<text text-anchor="middle" x="82" y="-455.5" font-family="Helvetica,sans-Serif" font-size="10.00">Sgl::BaseSkin&lt; Button &gt;</text>
<polyline fill="none" stroke="black" points="19.5,-448.5 144.5,-448.5 "/>
<text text-anchor="middle" x="82" y="-436.5" font-family="Helvetica,sans-Serif" font-size="10.00"> </text>
<polyline fill="none" stroke="black" points="19.5,-429.5 144.5,-429.5 "/>
<text text-anchor="start" x="27.5" y="-417.5" font-family="Helvetica,sans-Serif" font-size="10.00">+ attach()</text>
</a>
</g>
</g>
<!-- Node3&#45;&gt;Node2 -->
<g id="edge2" class="edge">
<title>Node3&#45;&gt;Node2</title>
<path fill="none" stroke="midnightblue" d="M82,-400.29C82,-391.84 82,-382.5 82,-372.82"/>
<polygon fill="none" stroke="midnightblue" points="78.5,-400.47 82,-410.47 85.5,-400.47 78.5,-400.47"/>
</g>
<!-- Node4 -->
<g id="node4" class="node">
<title>Node4</title>
<g id="a_node4"><a xlink:href="class_sgl_1_1_skin.html" target="_top" xlink:title=" ">
<polygon fill="white" stroke="black" points="24,-610.5 24,-722.5 132,-722.5 132,-610.5 24,-610.5"/>
<text text-anchor="middle" x="78" y="-710.5" font-family="Helvetica,sans-Serif" font-size="10.00">Sgl::Skin</text>
<polyline fill="none" stroke="black" points="24,-703.5 132,-703.5 "/>
<text text-anchor="middle" x="78" y="-691.5" font-family="Helvetica,sans-Serif" font-size="10.00"> </text>
<polyline fill="none" stroke="black" points="24,-684.5 132,-684.5 "/>
<text text-anchor="start" x="32" y="-672.5" font-family="Helvetica,sans-Serif" font-size="10.00">+ ~Skin()</text>
<text text-anchor="start" x="32" y="-661.5" font-family="Helvetica,sans-Serif" font-size="10.00">+ dispose()</text>
<text text-anchor="start" x="32" y="-650.5" font-family="Helvetica,sans-Serif" font-size="10.00">+ prerenderControl()</text>
<text text-anchor="start" x="32" y="-639.5" font-family="Helvetica,sans-Serif" font-size="10.00">+ getHitComponent()</text>
<text text-anchor="start" x="32" y="-628.5" font-family="Helvetica,sans-Serif" font-size="10.00">+ getControl()</text>
<text text-anchor="start" x="32" y="-617.5" font-family="Helvetica,sans-Serif" font-size="10.00">and 8 more...</text>
</a>
</g>
</g>
<!-- Node4&#45;&gt;Node3 -->
<g id="edge3" class="edge">
<title>Node4&#45;&gt;Node3</title>
<path fill="none" stroke="midnightblue" d="M79.16,-600.28C79.94,-556.25 80.93,-500.38 81.51,-467.57"/>
<polygon fill="none" stroke="midnightblue" points="75.66,-600.28 78.98,-610.34 82.66,-600.4 75.66,-600.28"/>
</g>
<!-- Node5 -->
<g id="node5" class="node">
<title>Node5</title>
<g id="a_node5"><a xlink:href="class_sgl_1_1_base_skin.html" target="_top" xlink:title=" ">
<polygon fill="white" stroke="black" points="94,-515.5 94,-572.5 198,-572.5 198,-515.5 94,-515.5"/>
<text text-anchor="middle" x="146" y="-560.5" font-family="Helvetica,sans-Serif" font-size="10.00">Sgl::BaseSkin&lt; C &gt;</text>
<polyline fill="none" stroke="black" points="94,-553.5 198,-553.5 "/>
<text text-anchor="middle" x="146" y="-541.5" font-family="Helvetica,sans-Serif" font-size="10.00"> </text>
<polyline fill="none" stroke="black" points="94,-534.5 198,-534.5 "/>
<text text-anchor="start" x="102" y="-522.5" font-family="Helvetica,sans-Serif" font-size="10.00">+ attach()</text>
</a>
</g>
</g>
<!-- Node4&#45;&gt;Node5 -->
<g id="edge5" class="edge">
<title>Node4&#45;&gt;Node5</title>
<path fill="none" stroke="midnightblue" d="M114.21,-601.34C119.89,-591.28 125.48,-581.36 130.36,-572.72"/>
<polygon fill="none" stroke="midnightblue" points="111.08,-599.76 109.21,-610.19 117.18,-603.2 111.08,-599.76"/>
</g>
<!-- Node5&#45;&gt;Node3 -->
<g id="edge4" class="edge">
<title>Node5&#45;&gt;Node3</title>
<path fill="none" stroke="orange" d="M123.49,-506.77C115.51,-493.93 106.66,-479.69 99.2,-467.68"/>
<polygon fill="orange" stroke="orange" points="120.6,-508.75 128.85,-515.4 126.54,-505.06 120.6,-508.75"/>
<text text-anchor="middle" x="140" y="-489" font-family="Helvetica,sans-Serif" font-size="10.00"> &lt; Button &gt;</text>
</g>
</g>
</svg>
        <g id="navigator" transform="translate(0 0)" fill="#404254">
                <rect fill="#f2f5e9" fill-opacity="0.5" stroke="#606060" stroke-width=".5" x="0" y="0" width="60" height="60"/>
                <use id="zoomplus" xlink:href="#zoomPlus" x="17" y="9" onmousedown="handleZoom(evt,'in')"/>
                <use id="zoomminus" xlink:href="#zoomMin" x="42" y="9" onmousedown="handleZoom(evt,'out')"/>
                <use id="reset" xlink:href="#resetDef" x="30" y="36" onmousedown="handleReset()"/>
                <g id="arrowUp" xlink:href="#dirArrow" transform="translate(30 24)" onmousedown="handlePan(0,-1)">
                  <use xlink:href="#rim" fill="#404040">
                        <set attributeName="fill" to="#808080" begin="arrowUp.mouseover" end="arrowUp.mouseout"/>
                  </use>
                  <path fill="none" stroke="white" stroke-width="1.5" d="M0,-3.0v7 M-2.5,-0.5L0,-3.0L2.5,-0.5"/>
                </g>
                <g id="arrowRight" xlink:href="#dirArrow" transform="rotate(90) translate(36 -43)" onmousedown="handlePan(1,0)">
                  <use xlink:href="#rim" fill="#404040">
                        <set attributeName="fill" to="#808080" begin="arrowRight.mouseover" end="arrowRight.mouseout"/>
                  </use>
                  <path fill="none" stroke="white" stroke-width="1.5" d="M0,-3.0v7 M-2.5,-0.5L0,-3.0L2.5,-0.5"/>
                </g>
                <g id="arrowDown" xlink:href="#dirArrow" transform="rotate(180) translate(-30 -48)" onmousedown="handlePan(0,1)">
                  <use xlink:href="#rim" fill="#404040">
                        <set attributeName="fill" to="#808080" begin="arrowDown.mouseover" end="arrowDown.mouseout"/>
                  </use>
                  <path fill="none" stroke="white" stroke-width="1.5" d="M0,-3.0v7 M-2.5,-0.5L0,-3.0L2.5,-0.5"/>
                </g>
                <g id="arrowLeft" xlink:href="#dirArrow" transform="rotate(270) translate(-36 17)" onmousedown="handlePan(-1,0)">
                  <use xlink:href="#rim" fill="#404040">
                        <set attributeName="fill" to="#808080" begin="arrowLeft.mouseover" end="arrowLeft.mouseout"/>
                  </use>
                  <path fill="none" stroke="white" stroke-width="1.5" d="M0,-3.0v7 M-2.5,-0.5L0,-3.0L2.5,-0.5"/>
                </g>
        </g>
        <svg viewBox="0 0 15 15" width="100%" height="30px" preserveAspectRatio="xMaxYMin meet">
         <g id="arrow_out" transform="scale(0.3 0.3)">
          <a xlink:href="class_sgl_1_1_default_skins_1_1_button_skin__inherit__graph_org.svg" target="_base">
           <rect id="button" ry="5" rx="5" y="6" x="6" height="38" width="38"
                fill="#f2f5e9" fill-opacity="0.5" stroke="#606060" stroke-width="1.0"/>
           <path id="arrow"
             d="M 11.500037,31.436501 C 11.940474,20.09759 22.043105,11.32322 32.158766,21.979434 L 37.068811,17.246167 C 37.068811,17.246167 37.088388,32 37.088388,32 L 22.160133,31.978069 C 22.160133,31.978069 26.997745,27.140456 26.997745,27.140456 C 18.528582,18.264221 13.291696,25.230495 11.500037,31.436501 z"
             style="fill:#404040;"/>
          </a>
         </g>
        </svg>
</svg>
