<?xml version="1.0" encoding="UTF-8" standalone="no"?>
<!DOCTYPE svg PUBLIC "-//W3C//DTD SVG 1.1//EN"
 "http://www.w3.org/Graphics/SVG/1.1/DTD/svg11.dtd">
<!-- Generated by graphviz version 2.50.0 (20211204.2007)
 -->
<!-- Title: Sgl::LayeredContainer Pages: 1 -->
<!--zoomable 1064 -->
<svg id="main" version="1.1" xmlns="http://www.w3.org/2000/svg" xmlns:xlink="http://www.w3.org/1999/xlink" xml:space="preserve" onload="init(evt)">
<style type="text/css"><![CDATA[
.edge:hover path { stroke: red; }
.edge:hover polygon { stroke: red; fill: red; }
]]></style>
<script type="text/javascript"><![CDATA[
var edges = document.getElementsByTagName('g');
if (edges && edges.length) {
  for (var i=0;i<edges.length;i++) {
    if (edges[i].id.substr(0,4)=='edge') {
      edges[i].setAttribute('class','edge');
    }
  }
}
]]></script>
        <defs>
                <circle id="rim" cx="0" cy="0" r="7"/>
                <circle id="rim2" cx="0" cy="0" r="3.5"/>
                <g id="zoomPlus">
                        <use xlink:href="#rim" fill="#404040">
                                <set attributeName="fill" to="#808080" begin="zoomplus.mouseover" end="zoomplus.mouseout"/>
                        </use>
                        <path d="M-4,0h8M0,-4v8" fill="none" stroke="white" stroke-width="1.5" pointer-events="none"/>
                </g>
                <g id="zoomMin">
                        <use xlink:href="#rim" fill="#404040">
                                <set attributeName="fill" to="#808080" begin="zoomminus.mouseover" end="zoomminus.mouseout"/>
                        </use>
                        <path d="M-4,0h8" fill="none" stroke="white" stroke-width="1.5" pointer-events="none"/>
                </g>
                <g id="dirArrow">
                        <path fill="none" stroke="white" stroke-width="1.5" d="M0,-3.0v7 M-2.5,-0.5L0,-3.0L2.5,-0.5"/>
                </g>
               <g id="resetDef">
                       <use xlink:href="#rim2" fill="#404040">
                               <set attributeName="fill" to="#808080" begin="reset.mouseover" end="reset.mouseout"/>
                       </use>
               </g>
        </defs>

<script type="text/javascript">
var viewWidth = 181;
var viewHeight = 1064;
var sectionId = 'dynsection-0';
</script>
<script xlink:href="svgpan.js"/>
<svg id="graph" class="graph">
<g id="viewport">
<title>Sgl::LayeredContainer</title>
<polygon fill="white" stroke="transparent" points="-4,4 -4,-1060 177,-1060 177,4 -4,4"/>
<!-- Node1 -->
<g id="node1" class="node">
<title>Node1</title>
<g id="a_node1"><a xlink:title=" ">
<polygon fill="#bfbfbf" stroke="black" points="30,-149.5 30,-272.5 143,-272.5 143,-149.5 30,-149.5"/>
<text text-anchor="middle" x="86.5" y="-260.5" font-family="Helvetica,sans-Serif" font-size="10.00">Sgl::LayeredContainer</text>
<polyline fill="none" stroke="black" points="30,-253.5 143,-253.5 "/>
<text text-anchor="middle" x="86.5" y="-241.5" font-family="Helvetica,sans-Serif" font-size="10.00"> </text>
<polyline fill="none" stroke="black" points="30,-234.5 143,-234.5 "/>
<text text-anchor="start" x="38" y="-222.5" font-family="Helvetica,sans-Serif" font-size="10.00">+ LayeredContainer()</text>
<text text-anchor="start" x="38" y="-211.5" font-family="Helvetica,sans-Serif" font-size="10.00">+ isAutoAdjust()</text>
<text text-anchor="start" x="38" y="-200.5" font-family="Helvetica,sans-Serif" font-size="10.00">+ setAutoAdjust()</text>
<text text-anchor="start" x="38" y="-189.5" font-family="Helvetica,sans-Serif" font-size="10.00">+ moveToFront()</text>
<text text-anchor="start" x="38" y="-178.5" font-family="Helvetica,sans-Serif" font-size="10.00">+ moveToBack()</text>
<text text-anchor="start" x="38" y="-167.5" font-family="Helvetica,sans-Serif" font-size="10.00">+ getFront()</text>
<text text-anchor="start" x="38" y="-156.5" font-family="Helvetica,sans-Serif" font-size="10.00">+ getBack()</text>
</a>
</g>
</g>
<!-- Node6 -->
<g id="node6" class="node">
<title>Node6</title>
<g id="a_node6"><a xlink:href="class_sgl_1_1_anchor_pane.html" target="_top" xlink:title="Allows the edges of components to be anchored to anchor pane&#39;s edges.">
<polygon fill="white" stroke="black" points="0,-0.5 0,-112.5 173,-112.5 173,-0.5 0,-0.5"/>
<text text-anchor="middle" x="86.5" y="-100.5" font-family="Helvetica,sans-Serif" font-size="10.00">Sgl::AnchorPane</text>
<polyline fill="none" stroke="black" points="0,-93.5 173,-93.5 "/>
<text text-anchor="start" x="8" y="-81.5" font-family="Helvetica,sans-Serif" font-size="10.00">+ ANCHOR_NOT_ENABLED</text>
<polyline fill="none" stroke="black" points="0,-74.5 173,-74.5 "/>
<text text-anchor="start" x="8" y="-62.5" font-family="Helvetica,sans-Serif" font-size="10.00">+ ~AnchorPane()</text>
<text text-anchor="start" x="8" y="-51.5" font-family="Helvetica,sans-Serif" font-size="10.00">+ getConstraints()</text>
<text text-anchor="start" x="8" y="-40.5" font-family="Helvetica,sans-Serif" font-size="10.00">+ hasConstraints()</text>
<text text-anchor="start" x="8" y="-29.5" font-family="Helvetica,sans-Serif" font-size="10.00">+ setHorizontalRelativePositioning()</text>
<text text-anchor="start" x="8" y="-18.5" font-family="Helvetica,sans-Serif" font-size="10.00">+ setVerticalRelativePositioning()</text>
<text text-anchor="start" x="8" y="-7.5" font-family="Helvetica,sans-Serif" font-size="10.00">and 10 more...</text>
</a>
</g>
</g>
<!-- Node1&#45;&gt;Node6 -->
<g id="edge5" class="edge">
<title>Node1&#45;&gt;Node6</title>
<path fill="none" stroke="midnightblue" d="M86.5,-139.25C86.5,-130.29 86.5,-121.23 86.5,-112.56"/>
<polygon fill="none" stroke="midnightblue" points="83,-139.29 86.5,-149.29 90,-139.29 83,-139.29"/>
</g>
<!-- Node2 -->
<g id="node2" class="node">
<title>Node2</title>
<g id="a_node2"><a xlink:href="class_sgl_1_1_container.html" target="_top" xlink:title=" ">
<polygon fill="white" stroke="black" points="12,-309.5 12,-421.5 161,-421.5 161,-309.5 12,-309.5"/>
<text text-anchor="middle" x="86.5" y="-409.5" font-family="Helvetica,sans-Serif" font-size="10.00">Sgl::Container</text>
<polyline fill="none" stroke="black" points="12,-402.5 161,-402.5 "/>
<text text-anchor="start" x="20" y="-390.5" font-family="Helvetica,sans-Serif" font-size="10.00">+ DEFAULT_FILL</text>
<text text-anchor="start" x="20" y="-379.5" font-family="Helvetica,sans-Serif" font-size="10.00">+ DEFAULT_BACKGROUND</text>
<polyline fill="none" stroke="black" points="12,-372.5 161,-372.5 "/>
<text text-anchor="start" x="20" y="-360.5" font-family="Helvetica,sans-Serif" font-size="10.00">+ Container()</text>
<text text-anchor="start" x="20" y="-349.5" font-family="Helvetica,sans-Serif" font-size="10.00">+ ~Container()</text>
<text text-anchor="start" x="20" y="-338.5" font-family="Helvetica,sans-Serif" font-size="10.00">+ getHitComponent()</text>
<text text-anchor="start" x="20" y="-327.5" font-family="Helvetica,sans-Serif" font-size="10.00">+ render()</text>
<text text-anchor="start" x="20" y="-316.5" font-family="Helvetica,sans-Serif" font-size="10.00"># prerenderSelf()</text>
</a>
</g>
</g>
<!-- Node2&#45;&gt;Node1 -->
<g id="edge1" class="edge">
<title>Node2&#45;&gt;Node1</title>
<path fill="none" stroke="midnightblue" d="M86.5,-299.22C86.5,-290.4 86.5,-281.39 86.5,-272.66"/>
<polygon fill="none" stroke="midnightblue" points="83,-299.44 86.5,-309.44 90,-299.44 83,-299.44"/>
</g>
<!-- Node3 -->
<g id="node3" class="node">
<title>Node3</title>
<g id="a_node3"><a xlink:href="class_sgl_1_1_parent.html" target="_top" xlink:title=" ">
<polygon fill="white" stroke="black" points="13.5,-458.5 13.5,-691.5 159.5,-691.5 159.5,-458.5 13.5,-458.5"/>
<text text-anchor="middle" x="86.5" y="-679.5" font-family="Helvetica,sans-Serif" font-size="10.00">Sgl::Parent</text>
<polyline fill="none" stroke="black" points="13.5,-672.5 159.5,-672.5 "/>
<text text-anchor="start" x="21.5" y="-660.5" font-family="Helvetica,sans-Serif" font-size="10.00"># m_Children</text>
<text text-anchor="start" x="21.5" y="-649.5" font-family="Helvetica,sans-Serif" font-size="10.00"># m_Snapshot</text>
<text text-anchor="start" x="21.5" y="-638.5" font-family="Helvetica,sans-Serif" font-size="10.00"># m_NeedLayoutPass</text>
<text text-anchor="start" x="21.5" y="-627.5" font-family="Helvetica,sans-Serif" font-size="10.00"># m_Background</text>
<text text-anchor="start" x="21.5" y="-616.5" font-family="Helvetica,sans-Serif" font-size="10.00"># m_Border</text>
<text text-anchor="start" x="21.5" y="-605.5" font-family="Helvetica,sans-Serif" font-size="10.00">and 7 more...</text>
<polyline fill="none" stroke="black" points="13.5,-598.5 159.5,-598.5 "/>
<text text-anchor="start" x="21.5" y="-586.5" font-family="Helvetica,sans-Serif" font-size="10.00">+ Parent()</text>
<text text-anchor="start" x="21.5" y="-575.5" font-family="Helvetica,sans-Serif" font-size="10.00">+ ~Parent()</text>
<text text-anchor="start" x="21.5" y="-564.5" font-family="Helvetica,sans-Serif" font-size="10.00">+ getHitComponent()</text>
<text text-anchor="start" x="21.5" y="-553.5" font-family="Helvetica,sans-Serif" font-size="10.00">+ render()</text>
<text text-anchor="start" x="21.5" y="-542.5" font-family="Helvetica,sans-Serif" font-size="10.00">+ layout()</text>
<text text-anchor="start" x="21.5" y="-531.5" font-family="Helvetica,sans-Serif" font-size="10.00">and 38 more...</text>
<text text-anchor="start" x="21.5" y="-520.5" font-family="Helvetica,sans-Serif" font-size="10.00"># setSceneInSceneTree()</text>
<text text-anchor="start" x="21.5" y="-509.5" font-family="Helvetica,sans-Serif" font-size="10.00"># layoutChildren()</text>
<text text-anchor="start" x="21.5" y="-498.5" font-family="Helvetica,sans-Serif" font-size="10.00"># prerenderSelf()</text>
<text text-anchor="start" x="21.5" y="-487.5" font-family="Helvetica,sans-Serif" font-size="10.00"># updateSnapshotSize()</text>
<text text-anchor="start" x="21.5" y="-476.5" font-family="Helvetica,sans-Serif" font-size="10.00"># computeCustomPrefWidth()</text>
<text text-anchor="start" x="21.5" y="-465.5" font-family="Helvetica,sans-Serif" font-size="10.00">and 5 more...</text>
</a>
</g>
</g>
<!-- Node3&#45;&gt;Node2 -->
<g id="edge2" class="edge">
<title>Node3&#45;&gt;Node2</title>
<path fill="none" stroke="midnightblue" d="M86.5,-448.33C86.5,-439.1 86.5,-430.11 86.5,-421.68"/>
<polygon fill="none" stroke="midnightblue" points="83,-448.42 86.5,-458.42 90,-448.42 83,-448.42"/>
</g>
<!-- Node4 -->
<g id="node4" class="node">
<title>Node4</title>
<g id="a_node4"><a xlink:href="class_sgl_1_1_component.html" target="_top" xlink:title=" ">
<polygon fill="white" stroke="black" points="18,-728.5 18,-961.5 155,-961.5 155,-728.5 18,-728.5"/>
<text text-anchor="middle" x="86.5" y="-949.5" font-family="Helvetica,sans-Serif" font-size="10.00">Sgl::Component</text>
<polyline fill="none" stroke="black" points="18,-942.5 155,-942.5 "/>
<text text-anchor="start" x="26" y="-930.5" font-family="Helvetica,sans-Serif" font-size="10.00">+ Scene</text>
<text text-anchor="start" x="26" y="-919.5" font-family="Helvetica,sans-Serif" font-size="10.00">+ USE_COMPUTED_SIZE</text>
<text text-anchor="start" x="26" y="-908.5" font-family="Helvetica,sans-Serif" font-size="10.00">+ UNLIMITED_SIZE</text>
<text text-anchor="start" x="26" y="-897.5" font-family="Helvetica,sans-Serif" font-size="10.00"># m_Visible</text>
<text text-anchor="start" x="26" y="-886.5" font-family="Helvetica,sans-Serif" font-size="10.00"># m_Focused</text>
<text text-anchor="start" x="26" y="-875.5" font-family="Helvetica,sans-Serif" font-size="10.00"># m_Hovered</text>
<text text-anchor="start" x="26" y="-864.5" font-family="Helvetica,sans-Serif" font-size="10.00"># m_Shadow</text>
<text text-anchor="start" x="26" y="-853.5" font-family="Helvetica,sans-Serif" font-size="10.00"># m_Dispatcher</text>
<text text-anchor="start" x="26" y="-842.5" font-family="Helvetica,sans-Serif" font-size="10.00">and 3 more...</text>
<polyline fill="none" stroke="black" points="18,-835.5 155,-835.5 "/>
<text text-anchor="start" x="26" y="-823.5" font-family="Helvetica,sans-Serif" font-size="10.00">+ Component()</text>
<text text-anchor="start" x="26" y="-812.5" font-family="Helvetica,sans-Serif" font-size="10.00">+ ~Component()</text>
<text text-anchor="start" x="26" y="-801.5" font-family="Helvetica,sans-Serif" font-size="10.00">+ getHitComponent()</text>
<text text-anchor="start" x="26" y="-790.5" font-family="Helvetica,sans-Serif" font-size="10.00">+ render()</text>
<text text-anchor="start" x="26" y="-779.5" font-family="Helvetica,sans-Serif" font-size="10.00">+ layout()</text>
<text text-anchor="start" x="26" y="-768.5" font-family="Helvetica,sans-Serif" font-size="10.00">and 37 more...</text>
<text text-anchor="start" x="26" y="-757.5" font-family="Helvetica,sans-Serif" font-size="10.00"># updateShadow()</text>
<text text-anchor="start" x="26" y="-746.5" font-family="Helvetica,sans-Serif" font-size="10.00"># renderShadow()</text>
<text text-anchor="start" x="26" y="-735.5" font-family="Helvetica,sans-Serif" font-size="10.00"># setSceneInSceneTree()</text>
</a>
</g>
</g>
<!-- Node4&#45;&gt;Node3 -->
<g id="edge3" class="edge">
<title>Node4&#45;&gt;Node3</title>
<path fill="none" stroke="midnightblue" d="M86.5,-718.37C86.5,-709.46 86.5,-700.49 86.5,-691.64"/>
<polygon fill="none" stroke="midnightblue" points="83,-718.4 86.5,-728.4 90,-718.4 83,-718.4"/>
</g>
<!-- Node5 -->
<g id="node5" class="node">
<title>Node5</title>
<g id="a_node5"><a xlink:title=" ">
<polygon fill="white" stroke="#bfbfbf" points="40.5,-998.5 40.5,-1055.5 132.5,-1055.5 132.5,-998.5 40.5,-998.5"/>
<text text-anchor="middle" x="86.5" y="-1043.5" font-family="Helvetica,sans-Serif" font-size="10.00">Sml::EventTarget</text>
<polyline fill="none" stroke="#bfbfbf" points="40.5,-1036.5 132.5,-1036.5 "/>
<text text-anchor="middle" x="86.5" y="-1024.5" font-family="Helvetica,sans-Serif" font-size="10.00"> </text>
<polyline fill="none" stroke="#bfbfbf" points="40.5,-1017.5 132.5,-1017.5 "/>
<text text-anchor="middle" x="86.5" y="-1005.5" font-family="Helvetica,sans-Serif" font-size="10.00"> </text>
</a>
</g>
</g>
<!-- Node5&#45;&gt;Node4 -->
<g id="edge4" class="edge">
<title>Node5&#45;&gt;Node4</title>
<path fill="none" stroke="midnightblue" d="M86.5,-988.14C86.5,-980.03 86.5,-971.05 86.5,-961.67"/>
<polygon fill="none" stroke="midnightblue" points="83,-988.27 86.5,-998.27 90,-988.27 83,-988.27"/>
</g>
</g>
</svg>
        <g id="navigator" transform="translate(0 0)" fill="#404254">
                <rect fill="#f2f5e9" fill-opacity="0.5" stroke="#606060" stroke-width=".5" x="0" y="0" width="60" height="60"/>
                <use id="zoomplus" xlink:href="#zoomPlus" x="17" y="9" onmousedown="handleZoom(evt,'in')"/>
                <use id="zoomminus" xlink:href="#zoomMin" x="42" y="9" onmousedown="handleZoom(evt,'out')"/>
                <use id="reset" xlink:href="#resetDef" x="30" y="36" onmousedown="handleReset()"/>
                <g id="arrowUp" xlink:href="#dirArrow" transform="translate(30 24)" onmousedown="handlePan(0,-1)">
                  <use xlink:href="#rim" fill="#404040">
                        <set attributeName="fill" to="#808080" begin="arrowUp.mouseover" end="arrowUp.mouseout"/>
                  </use>
                  <path fill="none" stroke="white" stroke-width="1.5" d="M0,-3.0v7 M-2.5,-0.5L0,-3.0L2.5,-0.5"/>
                </g>
                <g id="arrowRight" xlink:href="#dirArrow" transform="rotate(90) translate(36 -43)" onmousedown="handlePan(1,0)">
                  <use xlink:href="#rim" fill="#404040">
                        <set attributeName="fill" to="#808080" begin="arrowRight.mouseover" end="arrowRight.mouseout"/>
                  </use>
                  <path fill="none" stroke="white" stroke-width="1.5" d="M0,-3.0v7 M-2.5,-0.5L0,-3.0L2.5,-0.5"/>
                </g>
                <g id="arrowDown" xlink:href="#dirArrow" transform="rotate(180) translate(-30 -48)" onmousedown="handlePan(0,1)">
                  <use xlink:href="#rim" fill="#404040">
                        <set attributeName="fill" to="#808080" begin="arrowDown.mouseover" end="arrowDown.mouseout"/>
                  </use>
                  <path fill="none" stroke="white" stroke-width="1.5" d="M0,-3.0v7 M-2.5,-0.5L0,-3.0L2.5,-0.5"/>
                </g>
                <g id="arrowLeft" xlink:href="#dirArrow" transform="rotate(270) translate(-36 17)" onmousedown="handlePan(-1,0)">
                  <use xlink:href="#rim" fill="#404040">
                        <set attributeName="fill" to="#808080" begin="arrowLeft.mouseover" end="arrowLeft.mouseout"/>
                  </use>
                  <path fill="none" stroke="white" stroke-width="1.5" d="M0,-3.0v7 M-2.5,-0.5L0,-3.0L2.5,-0.5"/>
                </g>
        </g>
        <svg viewBox="0 0 15 15" width="100%" height="30px" preserveAspectRatio="xMaxYMin meet">
         <g id="arrow_out" transform="scale(0.3 0.3)">
          <a xlink:href="class_sgl_1_1_layered_container__inherit__graph_org.svg" target="_base">
           <rect id="button" ry="5" rx="5" y="6" x="6" height="38" width="38"
                fill="#f2f5e9" fill-opacity="0.5" stroke="#606060" stroke-width="1.0"/>
           <path id="arrow"
             d="M 11.500037,31.436501 C 11.940474,20.09759 22.043105,11.32322 32.158766,21.979434 L 37.068811,17.246167 C 37.068811,17.246167 37.088388,32 37.088388,32 L 22.160133,31.978069 C 22.160133,31.978069 26.997745,27.140456 26.997745,27.140456 C 18.528582,18.264221 13.291696,25.230495 11.500037,31.436501 z"
             style="fill:#404040;"/>
          </a>
         </g>
        </svg>
</svg>
