<?xml version="1.0" encoding="UTF-8" standalone="no"?>
<!DOCTYPE svg PUBLIC "-//W3C//DTD SVG 1.1//EN"
 "http://www.w3.org/Graphics/SVG/1.1/DTD/svg11.dtd">
<!-- Generated by graphviz version 2.50.0 (20211204.2007)
 -->
<!-- Title: Sgl::DragEndEvent Pages: 1 -->
<svg width="109pt" height="298pt"
 viewBox="0.00 0.00 109.00 298.00" xmlns="http://www.w3.org/2000/svg" xmlns:xlink="http://www.w3.org/1999/xlink">
<g id="graph0" class="graph" transform="scale(1 1) rotate(0) translate(4 294)">
<title>Sgl::DragEndEvent</title>
<polygon fill="white" stroke="transparent" points="-4,4 -4,-294 105,-294 105,4 -4,4"/>
<!-- Node1 -->
<g id="node1" class="node">
<title>Node1</title>
<g id="a_node1"><a xlink:title=" ">
<polygon fill="#bfbfbf" stroke="black" points="0,-0.5 0,-57.5 101,-57.5 101,-0.5 0,-0.5"/>
<text text-anchor="middle" x="50.5" y="-45.5" font-family="Helvetica,sans-Serif" font-size="10.00">Sgl::DragEndEvent</text>
<polyline fill="none" stroke="black" points="0,-38.5 101,-38.5 "/>
<text text-anchor="middle" x="50.5" y="-26.5" font-family="Helvetica,sans-Serif" font-size="10.00"> </text>
<polyline fill="none" stroke="black" points="0,-19.5 101,-19.5 "/>
<text text-anchor="start" x="8" y="-7.5" font-family="Helvetica,sans-Serif" font-size="10.00">+ DragEndEvent()</text>
</a>
</g>
</g>
<!-- Node2 -->
<g id="node2" class="node">
<title>Node2</title>
<g id="a_node2"><a xlink:href="class_sgl_1_1_drag_event.html" target="_top" xlink:title=" ">
<polygon fill="white" stroke="black" points="9,-94.5 9,-195.5 92,-195.5 92,-94.5 9,-94.5"/>
<text text-anchor="middle" x="50.5" y="-183.5" font-family="Helvetica,sans-Serif" font-size="10.00">Sgl::DragEvent</text>
<polyline fill="none" stroke="black" points="9,-176.5 92,-176.5 "/>
<text text-anchor="middle" x="50.5" y="-164.5" font-family="Helvetica,sans-Serif" font-size="10.00"> </text>
<polyline fill="none" stroke="black" points="9,-157.5 92,-157.5 "/>
<text text-anchor="start" x="17" y="-145.5" font-family="Helvetica,sans-Serif" font-size="10.00">+ DragEvent()</text>
<text text-anchor="start" x="17" y="-134.5" font-family="Helvetica,sans-Serif" font-size="10.00">+ getX()</text>
<text text-anchor="start" x="17" y="-123.5" font-family="Helvetica,sans-Serif" font-size="10.00">+ setX()</text>
<text text-anchor="start" x="17" y="-112.5" font-family="Helvetica,sans-Serif" font-size="10.00">+ getY()</text>
<text text-anchor="start" x="17" y="-101.5" font-family="Helvetica,sans-Serif" font-size="10.00">+ setY()</text>
</a>
</g>
</g>
<!-- Node2&#45;&gt;Node1 -->
<g id="edge1" class="edge">
<title>Node2&#45;&gt;Node1</title>
<path fill="none" stroke="midnightblue" d="M50.5,-84.23C50.5,-74.92 50.5,-65.71 50.5,-57.59"/>
<polygon fill="none" stroke="midnightblue" points="47,-84.33 50.5,-94.33 54,-84.33 47,-84.33"/>
</g>
<!-- Node3 -->
<g id="node3" class="node">
<title>Node3</title>
<g id="a_node3"><a xlink:title=" ">
<polygon fill="white" stroke="#bfbfbf" points="18,-232.5 18,-289.5 83,-289.5 83,-232.5 18,-232.5"/>
<text text-anchor="middle" x="50.5" y="-277.5" font-family="Helvetica,sans-Serif" font-size="10.00">Sml::Event</text>
<polyline fill="none" stroke="#bfbfbf" points="18,-270.5 83,-270.5 "/>
<text text-anchor="middle" x="50.5" y="-258.5" font-family="Helvetica,sans-Serif" font-size="10.00"> </text>
<polyline fill="none" stroke="#bfbfbf" points="18,-251.5 83,-251.5 "/>
<text text-anchor="middle" x="50.5" y="-239.5" font-family="Helvetica,sans-Serif" font-size="10.00"> </text>
</a>
</g>
</g>
<!-- Node3&#45;&gt;Node2 -->
<g id="edge2" class="edge">
<title>Node3&#45;&gt;Node2</title>
<path fill="none" stroke="midnightblue" d="M50.5,-222.35C50.5,-213.8 50.5,-204.58 50.5,-195.61"/>
<polygon fill="none" stroke="midnightblue" points="47,-222.4 50.5,-232.4 54,-222.4 47,-222.4"/>
</g>
</g>
</svg>
