<?xml version="1.0" encoding="UTF-8" standalone="no"?>
<!DOCTYPE svg PUBLIC "-//W3C//DTD SVG 1.1//EN"
 "http://www.w3.org/Graphics/SVG/1.1/DTD/svg11.dtd">
<!-- Generated by graphviz version 2.50.0 (20211204.2007)
 -->
<!-- Title: Sgl::HoverListener&lt; C &gt; Pages: 1 -->
<svg width="250pt" height="309pt"
 viewBox="0.00 0.00 250.00 309.00" xmlns="http://www.w3.org/2000/svg" xmlns:xlink="http://www.w3.org/1999/xlink">
<g id="graph0" class="graph" transform="scale(1 1) rotate(0) translate(4 305)">
<title>Sgl::HoverListener&lt; C &gt;</title>
<polygon fill="white" stroke="transparent" points="-4,4 -4,-305 246,-305 246,4 -4,4"/>
<!-- Node1 -->
<g id="node1" class="node">
<title>Node1</title>
<g id="a_node1"><a xlink:title=" ">
<polygon fill="#bfbfbf" stroke="black" points="0,-0.5 0,-90.5 242,-90.5 242,-0.5 0,-0.5"/>
<text text-anchor="middle" x="121" y="-78.5" font-family="Helvetica,sans-Serif" font-size="10.00">Sgl::HoverListener&lt; C &gt;</text>
<polyline fill="none" stroke="black" points="0,-71.5 242,-71.5 "/>
<text text-anchor="middle" x="121" y="-59.5" font-family="Helvetica,sans-Serif" font-size="10.00"> </text>
<polyline fill="none" stroke="black" points="0,-52.5 242,-52.5 "/>
<text text-anchor="start" x="8" y="-40.5" font-family="Helvetica,sans-Serif" font-size="10.00">+ DEFINE_STATIC_LISTENED_EVENT_TYPES()</text>
<text text-anchor="start" x="8" y="-29.5" font-family="Helvetica,sans-Serif" font-size="10.00">+ onEvent()</text>
<text text-anchor="start" x="8" y="-18.5" font-family="Helvetica,sans-Serif" font-size="10.00">+ onMouseEntered()</text>
<text text-anchor="start" x="8" y="-7.5" font-family="Helvetica,sans-Serif" font-size="10.00">+ onMouseExited()</text>
</a>
</g>
</g>
<!-- Node2 -->
<g id="node2" class="node">
<title>Node2</title>
<g id="a_node2"><a xlink:href="class_sgl_1_1_component_event_listener.html" target="_top" xlink:title=" ">
<polygon fill="white" stroke="black" points="34.5,-127.5 34.5,-206.5 207.5,-206.5 207.5,-127.5 34.5,-127.5"/>
<text text-anchor="middle" x="121" y="-194.5" font-family="Helvetica,sans-Serif" font-size="10.00">Sgl::ComponentEventListener&lt; C &gt;</text>
<polyline fill="none" stroke="black" points="34.5,-187.5 207.5,-187.5 "/>
<text text-anchor="middle" x="121" y="-175.5" font-family="Helvetica,sans-Serif" font-size="10.00"> </text>
<polyline fill="none" stroke="black" points="34.5,-168.5 207.5,-168.5 "/>
<text text-anchor="start" x="42.5" y="-156.5" font-family="Helvetica,sans-Serif" font-size="10.00">+ ComponentEventListener()</text>
<text text-anchor="start" x="42.5" y="-145.5" font-family="Helvetica,sans-Serif" font-size="10.00">+ getComponent()</text>
<text text-anchor="start" x="42.5" y="-134.5" font-family="Helvetica,sans-Serif" font-size="10.00">+ setComponent()</text>
</a>
</g>
</g>
<!-- Node2&#45;&gt;Node1 -->
<g id="edge1" class="edge">
<title>Node2&#45;&gt;Node1</title>
<path fill="none" stroke="midnightblue" d="M121,-117.19C121,-108.49 121,-99.48 121,-90.91"/>
<polygon fill="none" stroke="midnightblue" points="117.5,-117.2 121,-127.2 124.5,-117.2 117.5,-117.2"/>
</g>
<!-- Node3 -->
<g id="node3" class="node">
<title>Node3</title>
<g id="a_node3"><a xlink:title=" ">
<polygon fill="white" stroke="#bfbfbf" points="84,-243.5 84,-300.5 158,-300.5 158,-243.5 84,-243.5"/>
<text text-anchor="middle" x="121" y="-288.5" font-family="Helvetica,sans-Serif" font-size="10.00">Sml::Listener</text>
<polyline fill="none" stroke="#bfbfbf" points="84,-281.5 158,-281.5 "/>
<text text-anchor="middle" x="121" y="-269.5" font-family="Helvetica,sans-Serif" font-size="10.00"> </text>
<polyline fill="none" stroke="#bfbfbf" points="84,-262.5 158,-262.5 "/>
<text text-anchor="middle" x="121" y="-250.5" font-family="Helvetica,sans-Serif" font-size="10.00"> </text>
</a>
</g>
</g>
<!-- Node3&#45;&gt;Node2 -->
<g id="edge2" class="edge">
<title>Node3&#45;&gt;Node2</title>
<path fill="none" stroke="midnightblue" d="M121,-233.16C121,-224.47 121,-215.23 121,-206.52"/>
<polygon fill="none" stroke="midnightblue" points="117.5,-233.4 121,-243.4 124.5,-233.4 117.5,-233.4"/>
</g>
</g>
</svg>
