<?xml version="1.0" encoding="UTF-8" standalone="no"?>
<!DOCTYPE svg PUBLIC "-//W3C//DTD SVG 1.1//EN"
 "http://www.w3.org/Graphics/SVG/1.1/DTD/svg11.dtd">
<!-- Generated by graphviz version 2.50.0 (20211204.2007)
 -->
<!-- Title: Sgl::DefaultSkins::ScrollPaneSkin Pages: 1 -->
<svg width="207pt" height="471pt"
 viewBox="0.00 0.00 207.00 471.00" xmlns="http://www.w3.org/2000/svg" xmlns:xlink="http://www.w3.org/1999/xlink">
<g id="graph0" class="graph" transform="scale(1 1) rotate(0) translate(4 467)">
<title>Sgl::DefaultSkins::ScrollPaneSkin</title>
<polygon fill="white" stroke="transparent" points="-4,4 -4,-467 203,-467 203,4 -4,4"/>
<!-- Node1 -->
<g id="node1" class="node">
<title>Node1</title>
<g id="a_node1"><a xlink:title=" ">
<polygon fill="#bfbfbf" stroke="black" points="0,-0.5 0,-112.5 166,-112.5 166,-0.5 0,-0.5"/>
<text text-anchor="middle" x="83" y="-100.5" font-family="Helvetica,sans-Serif" font-size="10.00">Sgl::DefaultSkins::ScrollPaneSkin</text>
<polyline fill="none" stroke="black" points="0,-93.5 166,-93.5 "/>
<text text-anchor="middle" x="83" y="-81.5" font-family="Helvetica,sans-Serif" font-size="10.00"> </text>
<polyline fill="none" stroke="black" points="0,-74.5 166,-74.5 "/>
<text text-anchor="start" x="8" y="-62.5" font-family="Helvetica,sans-Serif" font-size="10.00">+ ScrollPaneSkin()</text>
<text text-anchor="start" x="8" y="-51.5" font-family="Helvetica,sans-Serif" font-size="10.00">+ dispose()</text>
<text text-anchor="start" x="8" y="-40.5" font-family="Helvetica,sans-Serif" font-size="10.00">+ attach()</text>
<text text-anchor="start" x="8" y="-29.5" font-family="Helvetica,sans-Serif" font-size="10.00">+ getHitComponent()</text>
<text text-anchor="start" x="8" y="-18.5" font-family="Helvetica,sans-Serif" font-size="10.00">+ prerenderControl()</text>
<text text-anchor="start" x="8" y="-7.5" font-family="Helvetica,sans-Serif" font-size="10.00">and 5 more...</text>
</a>
</g>
</g>
<!-- Node2 -->
<g id="node2" class="node">
<title>Node2</title>
<g id="a_node2"><a xlink:href="class_sgl_1_1_base_skin.html" target="_top" xlink:title=" ">
<polygon fill="white" stroke="black" points="11,-150.5 11,-207.5 155,-207.5 155,-150.5 11,-150.5"/>
<text text-anchor="middle" x="83" y="-195.5" font-family="Helvetica,sans-Serif" font-size="10.00">Sgl::BaseSkin&lt; ScrollPane &gt;</text>
<polyline fill="none" stroke="black" points="11,-188.5 155,-188.5 "/>
<text text-anchor="middle" x="83" y="-176.5" font-family="Helvetica,sans-Serif" font-size="10.00"> </text>
<polyline fill="none" stroke="black" points="11,-169.5 155,-169.5 "/>
<text text-anchor="start" x="19" y="-157.5" font-family="Helvetica,sans-Serif" font-size="10.00">+ attach()</text>
</a>
</g>
</g>
<!-- Node2&#45;&gt;Node1 -->
<g id="edge1" class="edge">
<title>Node2&#45;&gt;Node1</title>
<path fill="none" stroke="midnightblue" d="M83,-140.11C83,-131.36 83,-121.88 83,-112.57"/>
<polygon fill="none" stroke="midnightblue" points="79.5,-140.35 83,-150.35 86.5,-140.35 79.5,-140.35"/>
</g>
<!-- Node3 -->
<g id="node3" class="node">
<title>Node3</title>
<g id="a_node3"><a xlink:href="class_sgl_1_1_skin.html" target="_top" xlink:title=" ">
<polygon fill="white" stroke="black" points="25,-350.5 25,-462.5 133,-462.5 133,-350.5 25,-350.5"/>
<text text-anchor="middle" x="79" y="-450.5" font-family="Helvetica,sans-Serif" font-size="10.00">Sgl::Skin</text>
<polyline fill="none" stroke="black" points="25,-443.5 133,-443.5 "/>
<text text-anchor="middle" x="79" y="-431.5" font-family="Helvetica,sans-Serif" font-size="10.00"> </text>
<polyline fill="none" stroke="black" points="25,-424.5 133,-424.5 "/>
<text text-anchor="start" x="33" y="-412.5" font-family="Helvetica,sans-Serif" font-size="10.00">+ ~Skin()</text>
<text text-anchor="start" x="33" y="-401.5" font-family="Helvetica,sans-Serif" font-size="10.00">+ dispose()</text>
<text text-anchor="start" x="33" y="-390.5" font-family="Helvetica,sans-Serif" font-size="10.00">+ prerenderControl()</text>
<text text-anchor="start" x="33" y="-379.5" font-family="Helvetica,sans-Serif" font-size="10.00">+ getHitComponent()</text>
<text text-anchor="start" x="33" y="-368.5" font-family="Helvetica,sans-Serif" font-size="10.00">+ getControl()</text>
<text text-anchor="start" x="33" y="-357.5" font-family="Helvetica,sans-Serif" font-size="10.00">and 8 more...</text>
</a>
</g>
</g>
<!-- Node3&#45;&gt;Node2 -->
<g id="edge2" class="edge">
<title>Node3&#45;&gt;Node2</title>
<path fill="none" stroke="midnightblue" d="M80.16,-340.28C80.94,-296.25 81.93,-240.38 82.51,-207.57"/>
<polygon fill="none" stroke="midnightblue" points="76.66,-340.28 79.98,-350.34 83.66,-340.4 76.66,-340.28"/>
</g>
<!-- Node4 -->
<g id="node4" class="node">
<title>Node4</title>
<g id="a_node4"><a xlink:href="class_sgl_1_1_base_skin.html" target="_top" xlink:title=" ">
<polygon fill="white" stroke="black" points="95,-255.5 95,-312.5 199,-312.5 199,-255.5 95,-255.5"/>
<text text-anchor="middle" x="147" y="-300.5" font-family="Helvetica,sans-Serif" font-size="10.00">Sgl::BaseSkin&lt; C &gt;</text>
<polyline fill="none" stroke="black" points="95,-293.5 199,-293.5 "/>
<text text-anchor="middle" x="147" y="-281.5" font-family="Helvetica,sans-Serif" font-size="10.00"> </text>
<polyline fill="none" stroke="black" points="95,-274.5 199,-274.5 "/>
<text text-anchor="start" x="103" y="-262.5" font-family="Helvetica,sans-Serif" font-size="10.00">+ attach()</text>
</a>
</g>
</g>
<!-- Node3&#45;&gt;Node4 -->
<g id="edge4" class="edge">
<title>Node3&#45;&gt;Node4</title>
<path fill="none" stroke="midnightblue" d="M115.21,-341.34C120.89,-331.28 126.48,-321.36 131.36,-312.72"/>
<polygon fill="none" stroke="midnightblue" points="112.08,-339.76 110.21,-350.19 118.18,-343.2 112.08,-339.76"/>
</g>
<!-- Node4&#45;&gt;Node2 -->
<g id="edge3" class="edge">
<title>Node4&#45;&gt;Node2</title>
<path fill="none" stroke="orange" d="M124.49,-246.77C116.51,-233.93 107.66,-219.69 100.2,-207.68"/>
<polygon fill="orange" stroke="orange" points="121.6,-248.75 129.85,-255.4 127.54,-245.06 121.6,-248.75"/>
<text text-anchor="middle" x="150.5" y="-229" font-family="Helvetica,sans-Serif" font-size="10.00"> &lt; ScrollPane &gt;</text>
</g>
</g>
</svg>
