<?xml version="1.0" encoding="UTF-8" standalone="no"?>
<!DOCTYPE svg PUBLIC "-//W3C//DTD SVG 1.1//EN"
 "http://www.w3.org/Graphics/SVG/1.1/DTD/svg11.dtd">
<!-- Generated by graphviz version 2.50.0 (20211204.2007)
 -->
<!-- Title: Sgl::ComponentEventListener&lt; C &gt; Pages: 1 -->
<!--zoomable 609 -->
<svg id="main" version="1.1" xmlns="http://www.w3.org/2000/svg" xmlns:xlink="http://www.w3.org/1999/xlink" xml:space="preserve" onload="init(evt)">
<style type="text/css"><![CDATA[
.edge:hover path { stroke: red; }
.edge:hover polygon { stroke: red; fill: red; }
]]></style>
<script type="text/javascript"><![CDATA[
var edges = document.getElementsByTagName('g');
if (edges && edges.length) {
  for (var i=0;i<edges.length;i++) {
    if (edges[i].id.substr(0,4)=='edge') {
      edges[i].setAttribute('class','edge');
    }
  }
}
]]></script>
        <defs>
                <circle id="rim" cx="0" cy="0" r="7"/>
                <circle id="rim2" cx="0" cy="0" r="3.5"/>
                <g id="zoomPlus">
                        <use xlink:href="#rim" fill="#404040">
                                <set attributeName="fill" to="#808080" begin="zoomplus.mouseover" end="zoomplus.mouseout"/>
                        </use>
                        <path d="M-4,0h8M0,-4v8" fill="none" stroke="white" stroke-width="1.5" pointer-events="none"/>
                </g>
                <g id="zoomMin">
                        <use xlink:href="#rim" fill="#404040">
                                <set attributeName="fill" to="#808080" begin="zoomminus.mouseover" end="zoomminus.mouseout"/>
                        </use>
                        <path d="M-4,0h8" fill="none" stroke="white" stroke-width="1.5" pointer-events="none"/>
                </g>
                <g id="dirArrow">
                        <path fill="none" stroke="white" stroke-width="1.5" d="M0,-3.0v7 M-2.5,-0.5L0,-3.0L2.5,-0.5"/>
                </g>
               <g id="resetDef">
                       <use xlink:href="#rim2" fill="#404040">
                               <set attributeName="fill" to="#808080" begin="reset.mouseover" end="reset.mouseout"/>
                       </use>
               </g>
        </defs>

<script type="text/javascript">
var viewWidth = 1511;
var viewHeight = 609;
var sectionId = 'dynsection-0';
</script>
<script xlink:href="svgpan.js"/>
<svg id="graph" class="graph">
<g id="viewport">
<title>Sgl::ComponentEventListener&lt; C &gt;</title>
<polygon fill="white" stroke="transparent" points="-4,4 -4,-605 1507,-605 1507,4 -4,4"/>
<!-- Node1 -->
<g id="node1" class="node">
<title>Node1</title>
<g id="a_node1"><a xlink:title=" ">
<polygon fill="#bfbfbf" stroke="black" points="451.5,-426.5 451.5,-505.5 624.5,-505.5 624.5,-426.5 451.5,-426.5"/>
<text text-anchor="middle" x="538" y="-493.5" font-family="Helvetica,sans-Serif" font-size="10.00">Sgl::ComponentEventListener&lt; C &gt;</text>
<polyline fill="none" stroke="black" points="451.5,-486.5 624.5,-486.5 "/>
<text text-anchor="middle" x="538" y="-474.5" font-family="Helvetica,sans-Serif" font-size="10.00"> </text>
<polyline fill="none" stroke="black" points="451.5,-467.5 624.5,-467.5 "/>
<text text-anchor="start" x="459.5" y="-455.5" font-family="Helvetica,sans-Serif" font-size="10.00">+ ComponentEventListener()</text>
<text text-anchor="start" x="459.5" y="-444.5" font-family="Helvetica,sans-Serif" font-size="10.00">+ getComponent()</text>
<text text-anchor="start" x="459.5" y="-433.5" font-family="Helvetica,sans-Serif" font-size="10.00">+ setComponent()</text>
</a>
</g>
</g>
<!-- Node3 -->
<g id="node3" class="node">
<title>Node3</title>
<g id="a_node3"><a xlink:href="class_sgl_1_1_focus_listener.html" target="_top" xlink:title=" ">
<polygon fill="white" stroke="black" points="0,-134 0,-224 242,-224 242,-134 0,-134"/>
<text text-anchor="middle" x="121" y="-212" font-family="Helvetica,sans-Serif" font-size="10.00">Sgl::FocusListener&lt; LayeredContainer &gt;</text>
<polyline fill="none" stroke="black" points="0,-205 242,-205 "/>
<text text-anchor="middle" x="121" y="-193" font-family="Helvetica,sans-Serif" font-size="10.00"> </text>
<polyline fill="none" stroke="black" points="0,-186 242,-186 "/>
<text text-anchor="start" x="8" y="-174" font-family="Helvetica,sans-Serif" font-size="10.00">+ DEFINE_STATIC_LISTENED_EVENT_TYPES()</text>
<text text-anchor="start" x="8" y="-163" font-family="Helvetica,sans-Serif" font-size="10.00">+ onEvent()</text>
<text text-anchor="start" x="8" y="-152" font-family="Helvetica,sans-Serif" font-size="10.00">+ onFocusReceived()</text>
<text text-anchor="start" x="8" y="-141" font-family="Helvetica,sans-Serif" font-size="10.00">+ onFocusLost()</text>
</a>
</g>
</g>
<!-- Node1&#45;&gt;Node3 -->
<g id="edge2" class="edge">
<title>Node1&#45;&gt;Node3</title>
<path fill="none" stroke="midnightblue" d="M441.3,-461.23C318.8,-454.19 118.04,-434.31 72,-379 35.47,-335.11 64,-268.03 90.38,-224.09"/>
<polygon fill="none" stroke="midnightblue" points="441.27,-464.73 451.44,-461.79 441.65,-457.75 441.27,-464.73"/>
</g>
<!-- Node5 -->
<g id="node5" class="node">
<title>Node5</title>
<g id="a_node5"><a xlink:href="class_sgl_1_1_focus_listener.html" target="_top" xlink:title=" ">
<polygon fill="white" stroke="black" points="295,-134 295,-224 537,-224 537,-134 295,-134"/>
<text text-anchor="middle" x="416" y="-212" font-family="Helvetica,sans-Serif" font-size="10.00">Sgl::FocusListener&lt; ContextMenu &gt;</text>
<polyline fill="none" stroke="black" points="295,-205 537,-205 "/>
<text text-anchor="middle" x="416" y="-193" font-family="Helvetica,sans-Serif" font-size="10.00"> </text>
<polyline fill="none" stroke="black" points="295,-186 537,-186 "/>
<text text-anchor="start" x="303" y="-174" font-family="Helvetica,sans-Serif" font-size="10.00">+ DEFINE_STATIC_LISTENED_EVENT_TYPES()</text>
<text text-anchor="start" x="303" y="-163" font-family="Helvetica,sans-Serif" font-size="10.00">+ onEvent()</text>
<text text-anchor="start" x="303" y="-152" font-family="Helvetica,sans-Serif" font-size="10.00">+ onFocusReceived()</text>
<text text-anchor="start" x="303" y="-141" font-family="Helvetica,sans-Serif" font-size="10.00">+ onFocusLost()</text>
</a>
</g>
</g>
<!-- Node1&#45;&gt;Node5 -->
<g id="edge4" class="edge">
<title>Node1&#45;&gt;Node5</title>
<path fill="none" stroke="midnightblue" d="M524.92,-416.27C513.79,-377.63 496.23,-322.71 475,-277 466.7,-259.12 455.88,-240.41 445.77,-224.25"/>
<polygon fill="none" stroke="midnightblue" points="521.65,-417.56 527.75,-426.22 528.39,-415.65 521.65,-417.56"/>
</g>
<!-- Node7 -->
<g id="node7" class="node">
<title>Node7</title>
<g id="a_node7"><a xlink:href="class_sgl_1_1_action_listener.html" target="_top" xlink:title=" ">
<polygon fill="white" stroke="black" points="341.5,-288.5 341.5,-367.5 466.5,-367.5 466.5,-288.5 341.5,-288.5"/>
<text text-anchor="middle" x="404" y="-355.5" font-family="Helvetica,sans-Serif" font-size="10.00">Sgl::ActionListener&lt; C &gt;</text>
<polyline fill="none" stroke="black" points="341.5,-348.5 466.5,-348.5 "/>
<text text-anchor="middle" x="404" y="-336.5" font-family="Helvetica,sans-Serif" font-size="10.00"> </text>
<polyline fill="none" stroke="black" points="341.5,-329.5 466.5,-329.5 "/>
<text text-anchor="start" x="349.5" y="-317.5" font-family="Helvetica,sans-Serif" font-size="10.00">+ ActionListener()</text>
<text text-anchor="start" x="349.5" y="-306.5" font-family="Helvetica,sans-Serif" font-size="10.00">+ onEvent()</text>
<text text-anchor="start" x="349.5" y="-295.5" font-family="Helvetica,sans-Serif" font-size="10.00">+ onAction()</text>
</a>
</g>
</g>
<!-- Node1&#45;&gt;Node7 -->
<g id="edge6" class="edge">
<title>Node1&#45;&gt;Node7</title>
<path fill="none" stroke="midnightblue" d="M492.08,-419.18C488.33,-415.41 484.59,-411.64 481,-408 468.08,-394.92 454.03,-380.54 441.5,-367.67"/>
<polygon fill="none" stroke="midnightblue" points="489.76,-421.82 499.3,-426.43 494.72,-416.88 489.76,-421.82"/>
</g>
<!-- Node8 -->
<g id="node8" class="node">
<title>Node8</title>
<g id="a_node8"><a xlink:href="class_sgl_1_1_drag_listener.html" target="_top" xlink:title=" ">
<polygon fill="white" stroke="black" points="523,-277.5 523,-378.5 765,-378.5 765,-277.5 523,-277.5"/>
<text text-anchor="middle" x="644" y="-366.5" font-family="Helvetica,sans-Serif" font-size="10.00">Sgl::DragListener&lt; C &gt;</text>
<polyline fill="none" stroke="black" points="523,-359.5 765,-359.5 "/>
<text text-anchor="middle" x="644" y="-347.5" font-family="Helvetica,sans-Serif" font-size="10.00"> </text>
<polyline fill="none" stroke="black" points="523,-340.5 765,-340.5 "/>
<text text-anchor="start" x="531" y="-328.5" font-family="Helvetica,sans-Serif" font-size="10.00">+ DEFINE_STATIC_LISTENED_EVENT_TYPES()</text>
<text text-anchor="start" x="531" y="-317.5" font-family="Helvetica,sans-Serif" font-size="10.00">+ onEvent()</text>
<text text-anchor="start" x="531" y="-306.5" font-family="Helvetica,sans-Serif" font-size="10.00">+ onDragStart()</text>
<text text-anchor="start" x="531" y="-295.5" font-family="Helvetica,sans-Serif" font-size="10.00">+ onDragEnd()</text>
<text text-anchor="start" x="531" y="-284.5" font-family="Helvetica,sans-Serif" font-size="10.00">+ onDragMove()</text>
</a>
</g>
</g>
<!-- Node1&#45;&gt;Node8 -->
<g id="edge7" class="edge">
<title>Node1&#45;&gt;Node8</title>
<path fill="none" stroke="midnightblue" d="M574.45,-418.23C584.34,-405.54 595.08,-391.76 605.1,-378.91"/>
<polygon fill="none" stroke="midnightblue" points="571.48,-416.35 568.09,-426.39 577,-420.66 571.48,-416.35"/>
</g>
<!-- Node11 -->
<g id="node11" class="node">
<title>Node11</title>
<g id="a_node11"><a xlink:href="class_sgl_1_1_focus_listener.html" target="_top" xlink:title=" ">
<polygon fill="white" stroke="black" points="81,-283 81,-373 323,-373 323,-283 81,-283"/>
<text text-anchor="middle" x="202" y="-361" font-family="Helvetica,sans-Serif" font-size="10.00">Sgl::FocusListener&lt; C &gt;</text>
<polyline fill="none" stroke="black" points="81,-354 323,-354 "/>
<text text-anchor="middle" x="202" y="-342" font-family="Helvetica,sans-Serif" font-size="10.00"> </text>
<polyline fill="none" stroke="black" points="81,-335 323,-335 "/>
<text text-anchor="start" x="89" y="-323" font-family="Helvetica,sans-Serif" font-size="10.00">+ DEFINE_STATIC_LISTENED_EVENT_TYPES()</text>
<text text-anchor="start" x="89" y="-312" font-family="Helvetica,sans-Serif" font-size="10.00">+ onEvent()</text>
<text text-anchor="start" x="89" y="-301" font-family="Helvetica,sans-Serif" font-size="10.00">+ onFocusReceived()</text>
<text text-anchor="start" x="89" y="-290" font-family="Helvetica,sans-Serif" font-size="10.00">+ onFocusLost()</text>
</a>
</g>
</g>
<!-- Node1&#45;&gt;Node11 -->
<g id="edge10" class="edge">
<title>Node1&#45;&gt;Node11</title>
<path fill="none" stroke="midnightblue" d="M442.04,-426.16C401.09,-409.58 353.09,-390.16 310.82,-373.05"/>
<polygon fill="none" stroke="midnightblue" points="440.89,-429.47 451.47,-429.98 443.52,-422.98 440.89,-429.47"/>
</g>
<!-- Node12 -->
<g id="node12" class="node">
<title>Node12</title>
<g id="a_node12"><a xlink:href="class_sgl_1_1_hover_listener.html" target="_top" xlink:title=" ">
<polygon fill="white" stroke="black" points="783,-283 783,-373 1025,-373 1025,-283 783,-283"/>
<text text-anchor="middle" x="904" y="-361" font-family="Helvetica,sans-Serif" font-size="10.00">Sgl::HoverListener&lt; C &gt;</text>
<polyline fill="none" stroke="black" points="783,-354 1025,-354 "/>
<text text-anchor="middle" x="904" y="-342" font-family="Helvetica,sans-Serif" font-size="10.00"> </text>
<polyline fill="none" stroke="black" points="783,-335 1025,-335 "/>
<text text-anchor="start" x="791" y="-323" font-family="Helvetica,sans-Serif" font-size="10.00">+ DEFINE_STATIC_LISTENED_EVENT_TYPES()</text>
<text text-anchor="start" x="791" y="-312" font-family="Helvetica,sans-Serif" font-size="10.00">+ onEvent()</text>
<text text-anchor="start" x="791" y="-301" font-family="Helvetica,sans-Serif" font-size="10.00">+ onMouseEntered()</text>
<text text-anchor="start" x="791" y="-290" font-family="Helvetica,sans-Serif" font-size="10.00">+ onMouseExited()</text>
</a>
</g>
</g>
<!-- Node1&#45;&gt;Node12 -->
<g id="edge13" class="edge">
<title>Node1&#45;&gt;Node12</title>
<path fill="none" stroke="midnightblue" d="M634.3,-430.35C677.14,-414.82 728.16,-396.17 774,-379 779.21,-377.05 784.53,-375.05 789.9,-373.01"/>
<polygon fill="none" stroke="midnightblue" points="632.93,-427.12 624.72,-433.81 635.32,-433.7 632.93,-427.12"/>
</g>
<!-- Node13 -->
<g id="node13" class="node">
<title>Node13</title>
<g id="a_node13"><a xlink:href="class_sgl_1_1_component_event_listener.html" target="_top" xlink:title=" ">
<polygon fill="white" stroke="black" points="1274,-288.5 1274,-367.5 1468,-367.5 1468,-288.5 1274,-288.5"/>
<text text-anchor="middle" x="1371" y="-355.5" font-family="Helvetica,sans-Serif" font-size="10.00">Sgl::ComponentEventListener&lt; Button &gt;</text>
<polyline fill="none" stroke="black" points="1274,-348.5 1468,-348.5 "/>
<text text-anchor="middle" x="1371" y="-336.5" font-family="Helvetica,sans-Serif" font-size="10.00"> </text>
<polyline fill="none" stroke="black" points="1274,-329.5 1468,-329.5 "/>
<text text-anchor="start" x="1282" y="-317.5" font-family="Helvetica,sans-Serif" font-size="10.00">+ ComponentEventListener()</text>
<text text-anchor="start" x="1282" y="-306.5" font-family="Helvetica,sans-Serif" font-size="10.00">+ getComponent()</text>
<text text-anchor="start" x="1282" y="-295.5" font-family="Helvetica,sans-Serif" font-size="10.00">+ setComponent()</text>
</a>
</g>
</g>
<!-- Node1&#45;&gt;Node13 -->
<g id="edge14" class="edge">
<title>Node1&#45;&gt;Node13</title>
<path fill="none" stroke="orange" d="M634.7,-460.99C771.73,-453.56 1029.4,-433.12 1242,-379 1254.34,-375.86 1267.09,-371.88 1279.57,-367.53"/>
<polygon fill="orange" stroke="orange" points="634.44,-457.5 624.64,-461.53 634.82,-464.49 634.44,-457.5"/>
<text text-anchor="middle" x="1173" y="-400" font-family="Helvetica,sans-Serif" font-size="10.00"> &lt; Button &gt;</text>
</g>
<!-- Node15 -->
<g id="node15" class="node">
<title>Node15</title>
<g id="a_node15"><a xlink:href="class_sgl_1_1_component_event_listener.html" target="_top" xlink:title=" ">
<polygon fill="white" stroke="black" points="1043,-288.5 1043,-367.5 1233,-367.5 1233,-288.5 1043,-288.5"/>
<text text-anchor="middle" x="1138" y="-355.5" font-family="Helvetica,sans-Serif" font-size="10.00">Sgl::ComponentEventListener&lt; Slider &gt;</text>
<polyline fill="none" stroke="black" points="1043,-348.5 1233,-348.5 "/>
<text text-anchor="middle" x="1138" y="-336.5" font-family="Helvetica,sans-Serif" font-size="10.00"> </text>
<polyline fill="none" stroke="black" points="1043,-329.5 1233,-329.5 "/>
<text text-anchor="start" x="1051" y="-317.5" font-family="Helvetica,sans-Serif" font-size="10.00">+ ComponentEventListener()</text>
<text text-anchor="start" x="1051" y="-306.5" font-family="Helvetica,sans-Serif" font-size="10.00">+ getComponent()</text>
<text text-anchor="start" x="1051" y="-295.5" font-family="Helvetica,sans-Serif" font-size="10.00">+ setComponent()</text>
</a>
</g>
</g>
<!-- Node1&#45;&gt;Node15 -->
<g id="edge16" class="edge">
<title>Node1&#45;&gt;Node15</title>
<path fill="none" stroke="orange" d="M635.09,-456.18C736.48,-445.13 899.21,-422.16 1034,-379 1043.92,-375.82 1054.1,-371.87 1064.03,-367.6"/>
<polygon fill="orange" stroke="orange" points="634.43,-452.73 624.86,-457.28 635.18,-459.69 634.43,-452.73"/>
<text text-anchor="middle" x="991" y="-400" font-family="Helvetica,sans-Serif" font-size="10.00"> &lt; Slider &gt;</text>
</g>
<!-- Node2 -->
<g id="node2" class="node">
<title>Node2</title>
<g id="a_node2"><a xlink:title=" ">
<polygon fill="white" stroke="#bfbfbf" points="501,-543.5 501,-600.5 575,-600.5 575,-543.5 501,-543.5"/>
<text text-anchor="middle" x="538" y="-588.5" font-family="Helvetica,sans-Serif" font-size="10.00">Sml::Listener</text>
<polyline fill="none" stroke="#bfbfbf" points="501,-581.5 575,-581.5 "/>
<text text-anchor="middle" x="538" y="-569.5" font-family="Helvetica,sans-Serif" font-size="10.00"> </text>
<polyline fill="none" stroke="#bfbfbf" points="501,-562.5 575,-562.5 "/>
<text text-anchor="middle" x="538" y="-550.5" font-family="Helvetica,sans-Serif" font-size="10.00"> </text>
</a>
</g>
</g>
<!-- Node2&#45;&gt;Node1 -->
<g id="edge1" class="edge">
<title>Node2&#45;&gt;Node1</title>
<path fill="none" stroke="midnightblue" d="M538,-533.23C538,-524.27 538,-514.69 538,-505.69"/>
<polygon fill="none" stroke="midnightblue" points="534.5,-533.4 538,-543.4 541.5,-533.4 534.5,-533.4"/>
</g>
<!-- Node4 -->
<g id="node4" class="node">
<title>Node4</title>
<g id="a_node4"><a xlink:href="class_focus_received_filter.html" target="_top" xlink:title=" ">
<polygon fill="white" stroke="black" points="60,-11.5 60,-79.5 182,-79.5 182,-11.5 60,-11.5"/>
<text text-anchor="middle" x="121" y="-67.5" font-family="Helvetica,sans-Serif" font-size="10.00">FocusReceivedFilter</text>
<polyline fill="none" stroke="black" points="60,-60.5 182,-60.5 "/>
<text text-anchor="middle" x="121" y="-48.5" font-family="Helvetica,sans-Serif" font-size="10.00"> </text>
<polyline fill="none" stroke="black" points="60,-41.5 182,-41.5 "/>
<text text-anchor="start" x="68" y="-29.5" font-family="Helvetica,sans-Serif" font-size="10.00">+ FocusReceivedFilter()</text>
<text text-anchor="start" x="68" y="-18.5" font-family="Helvetica,sans-Serif" font-size="10.00">+ onFocusReceived()</text>
</a>
</g>
</g>
<!-- Node3&#45;&gt;Node4 -->
<g id="edge3" class="edge">
<title>Node3&#45;&gt;Node4</title>
<path fill="none" stroke="midnightblue" d="M121,-123.65C121,-108.67 121,-92.88 121,-79.51"/>
<polygon fill="none" stroke="midnightblue" points="117.5,-123.85 121,-133.85 124.5,-123.85 117.5,-123.85"/>
</g>
<!-- Node6 -->
<g id="node6" class="node">
<title>Node6</title>
<g id="a_node6"><a xlink:href="class_sgl_1_1_context_menu_focus_filter.html" target="_top" xlink:title=" ">
<polygon fill="white" stroke="black" points="344,-11.5 344,-79.5 488,-79.5 488,-11.5 344,-11.5"/>
<text text-anchor="middle" x="416" y="-67.5" font-family="Helvetica,sans-Serif" font-size="10.00">Sgl::ContextMenuFocusFilter</text>
<polyline fill="none" stroke="black" points="344,-60.5 488,-60.5 "/>
<text text-anchor="middle" x="416" y="-48.5" font-family="Helvetica,sans-Serif" font-size="10.00"> </text>
<polyline fill="none" stroke="black" points="344,-41.5 488,-41.5 "/>
<text text-anchor="start" x="352" y="-29.5" font-family="Helvetica,sans-Serif" font-size="10.00">+ ContextMenuFocusFilter()</text>
<text text-anchor="start" x="352" y="-18.5" font-family="Helvetica,sans-Serif" font-size="10.00">+ onFocusLost()</text>
</a>
</g>
</g>
<!-- Node5&#45;&gt;Node6 -->
<g id="edge5" class="edge">
<title>Node5&#45;&gt;Node6</title>
<path fill="none" stroke="midnightblue" d="M416,-123.65C416,-108.67 416,-92.88 416,-79.51"/>
<polygon fill="none" stroke="midnightblue" points="412.5,-123.85 416,-133.85 419.5,-123.85 412.5,-123.85"/>
</g>
<!-- Node9 -->
<g id="node9" class="node">
<title>Node9</title>
<g id="a_node9"><a xlink:href="class_sgl_1_1_drag_listener.html" target="_top" xlink:title=" ">
<polygon fill="white" stroke="black" points="573,-128.5 573,-229.5 815,-229.5 815,-128.5 573,-128.5"/>
<text text-anchor="middle" x="694" y="-217.5" font-family="Helvetica,sans-Serif" font-size="10.00">Sgl::DragListener&lt; Slider &gt;</text>
<polyline fill="none" stroke="black" points="573,-210.5 815,-210.5 "/>
<text text-anchor="middle" x="694" y="-198.5" font-family="Helvetica,sans-Serif" font-size="10.00"> </text>
<polyline fill="none" stroke="black" points="573,-191.5 815,-191.5 "/>
<text text-anchor="start" x="581" y="-179.5" font-family="Helvetica,sans-Serif" font-size="10.00">+ DEFINE_STATIC_LISTENED_EVENT_TYPES()</text>
<text text-anchor="start" x="581" y="-168.5" font-family="Helvetica,sans-Serif" font-size="10.00">+ onEvent()</text>
<text text-anchor="start" x="581" y="-157.5" font-family="Helvetica,sans-Serif" font-size="10.00">+ onDragStart()</text>
<text text-anchor="start" x="581" y="-146.5" font-family="Helvetica,sans-Serif" font-size="10.00">+ onDragEnd()</text>
<text text-anchor="start" x="581" y="-135.5" font-family="Helvetica,sans-Serif" font-size="10.00">+ onDragMove()</text>
</a>
</g>
</g>
<!-- Node8&#45;&gt;Node9 -->
<g id="edge8" class="edge">
<title>Node8&#45;&gt;Node9</title>
<path fill="none" stroke="orange" d="M664.16,-267.73C668.45,-255.12 672.94,-241.93 677.09,-229.72"/>
<polygon fill="orange" stroke="orange" points="660.83,-266.64 660.93,-277.23 667.46,-268.89 660.83,-266.64"/>
<text text-anchor="middle" x="694" y="-251" font-family="Helvetica,sans-Serif" font-size="10.00"> &lt; Slider &gt;</text>
</g>
<!-- Node10 -->
<g id="node10" class="node">
<title>Node10</title>
<g id="a_node10"><a xlink:href="class_sgl_1_1_default_skins_1_1_slider_skin_drag_listener.html" target="_top" xlink:title=" ">
<polygon fill="white" stroke="black" points="594.5,-0.5 594.5,-90.5 793.5,-90.5 793.5,-0.5 594.5,-0.5"/>
<text text-anchor="middle" x="694" y="-78.5" font-family="Helvetica,sans-Serif" font-size="10.00">Sgl::DefaultSkins::SliderSkinDragListener</text>
<polyline fill="none" stroke="black" points="594.5,-71.5 793.5,-71.5 "/>
<text text-anchor="middle" x="694" y="-59.5" font-family="Helvetica,sans-Serif" font-size="10.00"> </text>
<polyline fill="none" stroke="black" points="594.5,-52.5 793.5,-52.5 "/>
<text text-anchor="start" x="602.5" y="-40.5" font-family="Helvetica,sans-Serif" font-size="10.00">+ SliderSkinDragListener()</text>
<text text-anchor="start" x="602.5" y="-29.5" font-family="Helvetica,sans-Serif" font-size="10.00">+ updateValue()</text>
<text text-anchor="start" x="602.5" y="-18.5" font-family="Helvetica,sans-Serif" font-size="10.00">+ onDragStart()</text>
<text text-anchor="start" x="602.5" y="-7.5" font-family="Helvetica,sans-Serif" font-size="10.00">+ onDragMove()</text>
</a>
</g>
</g>
<!-- Node9&#45;&gt;Node10 -->
<g id="edge9" class="edge">
<title>Node9&#45;&gt;Node10</title>
<path fill="none" stroke="midnightblue" d="M694,-118C694,-108.8 694,-99.45 694,-90.67"/>
<polygon fill="none" stroke="midnightblue" points="690.5,-118.29 694,-128.29 697.5,-118.29 690.5,-118.29"/>
</g>
<!-- Node11&#45;&gt;Node3 -->
<g id="edge11" class="edge">
<title>Node11&#45;&gt;Node3</title>
<path fill="none" stroke="orange" d="M172.78,-273.98C163.76,-257.61 153.93,-239.77 145.29,-224.07"/>
<polygon fill="orange" stroke="orange" points="169.81,-275.83 177.7,-282.9 175.94,-272.45 169.81,-275.83"/>
<text text-anchor="middle" x="213" y="-251" font-family="Helvetica,sans-Serif" font-size="10.00"> &lt; LayeredContainer &gt;</text>
</g>
<!-- Node11&#45;&gt;Node5 -->
<g id="edge12" class="edge">
<title>Node11&#45;&gt;Node5</title>
<path fill="none" stroke="orange" d="M274.59,-277.14C299.64,-259.93 327.51,-240.79 351.84,-224.07"/>
<polygon fill="orange" stroke="orange" points="272.47,-274.35 266.21,-282.9 276.43,-280.12 272.47,-274.35"/>
<text text-anchor="middle" x="356" y="-251" font-family="Helvetica,sans-Serif" font-size="10.00"> &lt; ContextMenu &gt;</text>
</g>
<!-- Node14 -->
<g id="node14" class="node">
<title>Node14</title>
<g id="a_node14"><a xlink:href="class_sgl_1_1_default_skins_1_1_button_base_skin_event_listener.html" target="_top" xlink:title=" ">
<polygon fill="white" stroke="black" points="1261,-145 1261,-213 1503,-213 1503,-145 1261,-145"/>
<text text-anchor="middle" x="1382" y="-201" font-family="Helvetica,sans-Serif" font-size="10.00">Sgl::DefaultSkins::ButtonBaseSkinEventListener</text>
<polyline fill="none" stroke="black" points="1261,-194 1503,-194 "/>
<text text-anchor="middle" x="1382" y="-182" font-family="Helvetica,sans-Serif" font-size="10.00"> </text>
<polyline fill="none" stroke="black" points="1261,-175 1503,-175 "/>
<text text-anchor="start" x="1269" y="-163" font-family="Helvetica,sans-Serif" font-size="10.00">+ DEFINE_STATIC_LISTENED_EVENT_TYPES()</text>
<text text-anchor="start" x="1269" y="-152" font-family="Helvetica,sans-Serif" font-size="10.00">+ onEvent()</text>
</a>
</g>
</g>
<!-- Node13&#45;&gt;Node14 -->
<g id="edge15" class="edge">
<title>Node13&#45;&gt;Node14</title>
<path fill="none" stroke="midnightblue" d="M1374.65,-278.22C1376.24,-256.94 1378.07,-232.53 1379.5,-213.37"/>
<polygon fill="none" stroke="midnightblue" points="1371.15,-278.14 1373.89,-288.38 1378.13,-278.67 1371.15,-278.14"/>
</g>
<!-- Node15&#45;&gt;Node9 -->
<g id="edge17" class="edge">
<title>Node15&#45;&gt;Node9</title>
<path fill="none" stroke="midnightblue" d="M1051.95,-284.25C1045.92,-281.69 1039.9,-279.24 1034,-277 962.85,-249.97 880.85,-226.37 815.21,-209.21"/>
<polygon fill="none" stroke="midnightblue" points="1050.84,-287.59 1061.4,-288.38 1053.63,-281.17 1050.84,-287.59"/>
</g>
<!-- Node16 -->
<g id="node16" class="node">
<title>Node16</title>
<g id="a_node16"><a xlink:href="class_sgl_1_1_default_skins_1_1_slider_skin_mouse_press_listener.html" target="_top" xlink:title=" ">
<polygon fill="white" stroke="black" points="1009.5,-145 1009.5,-213 1242.5,-213 1242.5,-145 1009.5,-145"/>
<text text-anchor="middle" x="1126" y="-201" font-family="Helvetica,sans-Serif" font-size="10.00">Sgl::DefaultSkins::SliderSkinMousePressListener</text>
<polyline fill="none" stroke="black" points="1009.5,-194 1242.5,-194 "/>
<text text-anchor="middle" x="1126" y="-182" font-family="Helvetica,sans-Serif" font-size="10.00"> </text>
<polyline fill="none" stroke="black" points="1009.5,-175 1242.5,-175 "/>
<text text-anchor="start" x="1017.5" y="-163" font-family="Helvetica,sans-Serif" font-size="10.00">+ SliderSkinMousePressListener()</text>
<text text-anchor="start" x="1017.5" y="-152" font-family="Helvetica,sans-Serif" font-size="10.00">+ onEvent()</text>
</a>
</g>
</g>
<!-- Node15&#45;&gt;Node16 -->
<g id="edge18" class="edge">
<title>Node15&#45;&gt;Node16</title>
<path fill="none" stroke="midnightblue" d="M1134.02,-278.22C1132.28,-256.94 1130.29,-232.53 1128.72,-213.37"/>
<polygon fill="none" stroke="midnightblue" points="1130.55,-278.7 1134.85,-288.38 1137.52,-278.13 1130.55,-278.7"/>
</g>
</g>
</svg>
        <g id="navigator" transform="translate(0 0)" fill="#404254">
                <rect fill="#f2f5e9" fill-opacity="0.5" stroke="#606060" stroke-width=".5" x="0" y="0" width="60" height="60"/>
                <use id="zoomplus" xlink:href="#zoomPlus" x="17" y="9" onmousedown="handleZoom(evt,'in')"/>
                <use id="zoomminus" xlink:href="#zoomMin" x="42" y="9" onmousedown="handleZoom(evt,'out')"/>
                <use id="reset" xlink:href="#resetDef" x="30" y="36" onmousedown="handleReset()"/>
                <g id="arrowUp" xlink:href="#dirArrow" transform="translate(30 24)" onmousedown="handlePan(0,-1)">
                  <use xlink:href="#rim" fill="#404040">
                        <set attributeName="fill" to="#808080" begin="arrowUp.mouseover" end="arrowUp.mouseout"/>
                  </use>
                  <path fill="none" stroke="white" stroke-width="1.5" d="M0,-3.0v7 M-2.5,-0.5L0,-3.0L2.5,-0.5"/>
                </g>
                <g id="arrowRight" xlink:href="#dirArrow" transform="rotate(90) translate(36 -43)" onmousedown="handlePan(1,0)">
                  <use xlink:href="#rim" fill="#404040">
                        <set attributeName="fill" to="#808080" begin="arrowRight.mouseover" end="arrowRight.mouseout"/>
                  </use>
                  <path fill="none" stroke="white" stroke-width="1.5" d="M0,-3.0v7 M-2.5,-0.5L0,-3.0L2.5,-0.5"/>
                </g>
                <g id="arrowDown" xlink:href="#dirArrow" transform="rotate(180) translate(-30 -48)" onmousedown="handlePan(0,1)">
                  <use xlink:href="#rim" fill="#404040">
                        <set attributeName="fill" to="#808080" begin="arrowDown.mouseover" end="arrowDown.mouseout"/>
                  </use>
                  <path fill="none" stroke="white" stroke-width="1.5" d="M0,-3.0v7 M-2.5,-0.5L0,-3.0L2.5,-0.5"/>
                </g>
                <g id="arrowLeft" xlink:href="#dirArrow" transform="rotate(270) translate(-36 17)" onmousedown="handlePan(-1,0)">
                  <use xlink:href="#rim" fill="#404040">
                        <set attributeName="fill" to="#808080" begin="arrowLeft.mouseover" end="arrowLeft.mouseout"/>
                  </use>
                  <path fill="none" stroke="white" stroke-width="1.5" d="M0,-3.0v7 M-2.5,-0.5L0,-3.0L2.5,-0.5"/>
                </g>
        </g>
        <svg viewBox="0 0 15 15" width="100%" height="30px" preserveAspectRatio="xMaxYMin meet">
         <g id="arrow_out" transform="scale(0.3 0.3)">
          <a xlink:href="class_sgl_1_1_component_event_listener__inherit__graph_org.svg" target="_base">
           <rect id="button" ry="5" rx="5" y="6" x="6" height="38" width="38"
                fill="#f2f5e9" fill-opacity="0.5" stroke="#606060" stroke-width="1.0"/>
           <path id="arrow"
             d="M 11.500037,31.436501 C 11.940474,20.09759 22.043105,11.32322 32.158766,21.979434 L 37.068811,17.246167 C 37.068811,17.246167 37.088388,32 37.088388,32 L 22.160133,31.978069 C 22.160133,31.978069 26.997745,27.140456 26.997745,27.140456 C 18.528582,18.264221 13.291696,25.230495 11.500037,31.436501 z"
             style="fill:#404040;"/>
          </a>
         </g>
        </svg>
</svg>
