<?xml version="1.0" encoding="UTF-8" standalone="no"?>
<!DOCTYPE svg PUBLIC "-//W3C//DTD SVG 1.1//EN"
 "http://www.w3.org/Graphics/SVG/1.1/DTD/svg11.dtd">
<!-- Generated by graphviz version 2.50.0 (20211204.2007)
 -->
<!-- Title: Sgl::Label Pages: 1 -->
<!--zoomable 795 -->
<svg id="main" version="1.1" xmlns="http://www.w3.org/2000/svg" xmlns:xlink="http://www.w3.org/1999/xlink" xml:space="preserve" onload="init(evt)">
<style type="text/css"><![CDATA[
.edge:hover path { stroke: red; }
.edge:hover polygon { stroke: red; fill: red; }
]]></style>
<script type="text/javascript"><![CDATA[
var edges = document.getElementsByTagName('g');
if (edges && edges.length) {
  for (var i=0;i<edges.length;i++) {
    if (edges[i].id.substr(0,4)=='edge') {
      edges[i].setAttribute('class','edge');
    }
  }
}
]]></script>
        <defs>
                <circle id="rim" cx="0" cy="0" r="7"/>
                <circle id="rim2" cx="0" cy="0" r="3.5"/>
                <g id="zoomPlus">
                        <use xlink:href="#rim" fill="#404040">
                                <set attributeName="fill" to="#808080" begin="zoomplus.mouseover" end="zoomplus.mouseout"/>
                        </use>
                        <path d="M-4,0h8M0,-4v8" fill="none" stroke="white" stroke-width="1.5" pointer-events="none"/>
                </g>
                <g id="zoomMin">
                        <use xlink:href="#rim" fill="#404040">
                                <set attributeName="fill" to="#808080" begin="zoomminus.mouseover" end="zoomminus.mouseout"/>
                        </use>
                        <path d="M-4,0h8" fill="none" stroke="white" stroke-width="1.5" pointer-events="none"/>
                </g>
                <g id="dirArrow">
                        <path fill="none" stroke="white" stroke-width="1.5" d="M0,-3.0v7 M-2.5,-0.5L0,-3.0L2.5,-0.5"/>
                </g>
               <g id="resetDef">
                       <use xlink:href="#rim2" fill="#404040">
                               <set attributeName="fill" to="#808080" begin="reset.mouseover" end="reset.mouseout"/>
                       </use>
               </g>
        </defs>

<script type="text/javascript">
var viewWidth = 1401;
var viewHeight = 795;
var sectionId = 'dynsection-1';
</script>
<script xlink:href="svgpan.js"/>
<svg id="graph" class="graph">
<g id="viewport">
<title>Sgl::Label</title>
<polygon fill="white" stroke="transparent" points="-4,4 -4,-791 1396.5,-791 1396.5,4 -4,4"/>
<!-- Node1 -->
<g id="node1" class="node">
<title>Node1</title>
<g id="a_node1"><a xlink:title=" ">
<polygon fill="#bfbfbf" stroke="black" points="1191.5,-0.5 1191.5,-57.5 1251.5,-57.5 1251.5,-0.5 1191.5,-0.5"/>
<text text-anchor="middle" x="1221.5" y="-45.5" font-family="Helvetica,sans-Serif" font-size="10.00">Sgl::Label</text>
<polyline fill="none" stroke="black" points="1191.5,-38.5 1251.5,-38.5 "/>
<text text-anchor="middle" x="1221.5" y="-26.5" font-family="Helvetica,sans-Serif" font-size="10.00"> </text>
<polyline fill="none" stroke="black" points="1191.5,-19.5 1251.5,-19.5 "/>
<text text-anchor="middle" x="1221.5" y="-7.5" font-family="Helvetica,sans-Serif" font-size="10.00"> </text>
</a>
</g>
</g>
<!-- Node2 -->
<g id="node2" class="node">
<title>Node2</title>
<g id="a_node2"><a xlink:href="class_sgl_1_1_control.html" target="_top" xlink:title=" ">
<polygon fill="white" stroke="black" points="1147,-95.5 1147,-240.5 1296,-240.5 1296,-95.5 1147,-95.5"/>
<text text-anchor="middle" x="1221.5" y="-228.5" font-family="Helvetica,sans-Serif" font-size="10.00">Sgl::Control</text>
<polyline fill="none" stroke="black" points="1147,-221.5 1296,-221.5 "/>
<text text-anchor="middle" x="1221.5" y="-209.5" font-family="Helvetica,sans-Serif" font-size="10.00"> </text>
<polyline fill="none" stroke="black" points="1147,-202.5 1296,-202.5 "/>
<text text-anchor="start" x="1155" y="-190.5" font-family="Helvetica,sans-Serif" font-size="10.00">+ Control()</text>
<text text-anchor="start" x="1155" y="-179.5" font-family="Helvetica,sans-Serif" font-size="10.00">+ ~Control()</text>
<text text-anchor="start" x="1155" y="-168.5" font-family="Helvetica,sans-Serif" font-size="10.00">+ getHitComponent()</text>
<text text-anchor="start" x="1155" y="-157.5" font-family="Helvetica,sans-Serif" font-size="10.00"># layoutChildren()</text>
<text text-anchor="start" x="1155" y="-146.5" font-family="Helvetica,sans-Serif" font-size="10.00"># prerenderSelf()</text>
<text text-anchor="start" x="1155" y="-135.5" font-family="Helvetica,sans-Serif" font-size="10.00"># computeCustomPrefWidth()</text>
<text text-anchor="start" x="1155" y="-124.5" font-family="Helvetica,sans-Serif" font-size="10.00"># computeCustomPrefHeight()</text>
<text text-anchor="start" x="1155" y="-113.5" font-family="Helvetica,sans-Serif" font-size="10.00"># computeCustomMinWidth()</text>
<text text-anchor="start" x="1155" y="-102.5" font-family="Helvetica,sans-Serif" font-size="10.00">and 3 more...</text>
</a>
</g>
</g>
<!-- Node2&#45;&gt;Node1 -->
<g id="edge1" class="edge">
<title>Node2&#45;&gt;Node1</title>
<path fill="none" stroke="midnightblue" d="M1221.5,-85.04C1221.5,-75.31 1221.5,-65.95 1221.5,-57.8"/>
<polygon fill="none" stroke="midnightblue" points="1218,-85.29 1221.5,-95.29 1225,-85.29 1218,-85.29"/>
</g>
<!-- Node3 -->
<g id="node3" class="node">
<title>Node3</title>
<g id="a_node3"><a xlink:href="class_sgl_1_1_parent.html" target="_top" xlink:title=" ">
<polygon fill="white" stroke="black" points="815.5,-288.5 815.5,-466.5 961.5,-466.5 961.5,-288.5 815.5,-288.5"/>
<text text-anchor="middle" x="888.5" y="-454.5" font-family="Helvetica,sans-Serif" font-size="10.00">Sgl::Parent</text>
<polyline fill="none" stroke="black" points="815.5,-447.5 961.5,-447.5 "/>
<text text-anchor="middle" x="888.5" y="-435.5" font-family="Helvetica,sans-Serif" font-size="10.00"> </text>
<polyline fill="none" stroke="black" points="815.5,-428.5 961.5,-428.5 "/>
<text text-anchor="start" x="823.5" y="-416.5" font-family="Helvetica,sans-Serif" font-size="10.00">+ Parent()</text>
<text text-anchor="start" x="823.5" y="-405.5" font-family="Helvetica,sans-Serif" font-size="10.00">+ ~Parent()</text>
<text text-anchor="start" x="823.5" y="-394.5" font-family="Helvetica,sans-Serif" font-size="10.00">+ getHitComponent()</text>
<text text-anchor="start" x="823.5" y="-383.5" font-family="Helvetica,sans-Serif" font-size="10.00">+ render()</text>
<text text-anchor="start" x="823.5" y="-372.5" font-family="Helvetica,sans-Serif" font-size="10.00">+ layout()</text>
<text text-anchor="start" x="823.5" y="-361.5" font-family="Helvetica,sans-Serif" font-size="10.00">and 39 more...</text>
<text text-anchor="start" x="823.5" y="-350.5" font-family="Helvetica,sans-Serif" font-size="10.00"># setSceneInSceneTree()</text>
<text text-anchor="start" x="823.5" y="-339.5" font-family="Helvetica,sans-Serif" font-size="10.00"># layoutChildren()</text>
<text text-anchor="start" x="823.5" y="-328.5" font-family="Helvetica,sans-Serif" font-size="10.00"># prerenderSelf()</text>
<text text-anchor="start" x="823.5" y="-317.5" font-family="Helvetica,sans-Serif" font-size="10.00"># updateSnapshotSize()</text>
<text text-anchor="start" x="823.5" y="-306.5" font-family="Helvetica,sans-Serif" font-size="10.00"># computeCustomPrefWidth()</text>
<text text-anchor="start" x="823.5" y="-295.5" font-family="Helvetica,sans-Serif" font-size="10.00">and 5 more...</text>
</a>
</g>
</g>
<!-- Node3&#45;&gt;Node2 -->
<g id="edge2" class="edge">
<title>Node3&#45;&gt;Node2</title>
<path fill="none" stroke="midnightblue" d="M970.1,-325.65C1024.09,-292.01 1094.35,-248.23 1146.86,-215.51"/>
<polygon fill="none" stroke="midnightblue" points="968.21,-322.7 961.58,-330.96 971.92,-328.65 968.21,-322.7"/>
</g>
<!-- Node4 -->
<g id="node4" class="node">
<title>Node4</title>
<g id="a_node4"><a xlink:href="class_sgl_1_1_component.html" target="_top" xlink:title=" ">
<polygon fill="white" stroke="black" points="423.5,-95.5 423.5,-240.5 551.5,-240.5 551.5,-95.5 423.5,-95.5"/>
<text text-anchor="middle" x="487.5" y="-228.5" font-family="Helvetica,sans-Serif" font-size="10.00">Sgl::Component</text>
<polyline fill="none" stroke="black" points="423.5,-221.5 551.5,-221.5 "/>
<text text-anchor="middle" x="487.5" y="-209.5" font-family="Helvetica,sans-Serif" font-size="10.00"> </text>
<polyline fill="none" stroke="black" points="423.5,-202.5 551.5,-202.5 "/>
<text text-anchor="start" x="431.5" y="-190.5" font-family="Helvetica,sans-Serif" font-size="10.00">+ Component()</text>
<text text-anchor="start" x="431.5" y="-179.5" font-family="Helvetica,sans-Serif" font-size="10.00">+ ~Component()</text>
<text text-anchor="start" x="431.5" y="-168.5" font-family="Helvetica,sans-Serif" font-size="10.00">+ getHitComponent()</text>
<text text-anchor="start" x="431.5" y="-157.5" font-family="Helvetica,sans-Serif" font-size="10.00">+ render()</text>
<text text-anchor="start" x="431.5" y="-146.5" font-family="Helvetica,sans-Serif" font-size="10.00">+ layout()</text>
<text text-anchor="start" x="431.5" y="-135.5" font-family="Helvetica,sans-Serif" font-size="10.00">and 42 more...</text>
<text text-anchor="start" x="431.5" y="-124.5" font-family="Helvetica,sans-Serif" font-size="10.00"># updateShadow()</text>
<text text-anchor="start" x="431.5" y="-113.5" font-family="Helvetica,sans-Serif" font-size="10.00"># renderShadow()</text>
<text text-anchor="start" x="431.5" y="-102.5" font-family="Helvetica,sans-Serif" font-size="10.00"># setSceneInSceneTree()</text>
</a>
</g>
</g>
<!-- Node3&#45;&gt;Node4 -->
<g id="edge15" class="edge">
<title>Node3&#45;&gt;Node4</title>
<path fill="none" stroke="#404040" d="M815.47,-295.51C812.19,-292.88 808.86,-290.36 805.5,-288 731.36,-235.85 631.56,-203.42 563.67,-185.83"/>
<polygon fill="none" stroke="#404040" points="563.43,-185.77 556.63,-188.17 551.79,-182.82 558.59,-180.42 563.43,-185.77"/>
<text text-anchor="middle" x="801" y="-262" font-family="Helvetica,sans-Serif" font-size="10.00"> #m_Parent</text>
</g>
<!-- Node4&#45;&gt;Node3 -->
<g id="edge3" class="edge">
<title>Node4&#45;&gt;Node3</title>
<path fill="none" stroke="midnightblue" d="M561.76,-176.21C662.19,-187.58 833.51,-213.24 874.5,-259 881.97,-267.34 886.89,-277.45 890.02,-288.21"/>
<polygon fill="none" stroke="midnightblue" points="561.99,-172.72 551.67,-175.09 561.22,-179.67 561.99,-172.72"/>
</g>
<!-- Node5 -->
<g id="node5" class="node">
<title>Node5</title>
<g id="a_node5"><a xlink:title=" ">
<polygon fill="white" stroke="#bfbfbf" points="243.5,-558.5 243.5,-615.5 335.5,-615.5 335.5,-558.5 243.5,-558.5"/>
<text text-anchor="middle" x="289.5" y="-603.5" font-family="Helvetica,sans-Serif" font-size="10.00">Sml::EventTarget</text>
<polyline fill="none" stroke="#bfbfbf" points="243.5,-596.5 335.5,-596.5 "/>
<text text-anchor="middle" x="289.5" y="-584.5" font-family="Helvetica,sans-Serif" font-size="10.00"> </text>
<polyline fill="none" stroke="#bfbfbf" points="243.5,-577.5 335.5,-577.5 "/>
<text text-anchor="middle" x="289.5" y="-565.5" font-family="Helvetica,sans-Serif" font-size="10.00"> </text>
</a>
</g>
</g>
<!-- Node5&#45;&gt;Node4 -->
<g id="edge4" class="edge">
<title>Node5&#45;&gt;Node4</title>
<path fill="none" stroke="midnightblue" d="M291.79,-548.14C297.17,-471.51 313.1,-301.67 350.5,-259 370.76,-235.89 398.31,-216.26 423.39,-201.29"/>
<polygon fill="none" stroke="midnightblue" points="288.29,-548.1 291.1,-558.31 295.27,-548.57 288.29,-548.1"/>
</g>
<!-- Node14 -->
<g id="node14" class="node">
<title>Node14</title>
<g id="a_node14"><a xlink:href="class_sgl_1_1_scene.html" target="_top" xlink:title=" ">
<polygon fill="white" stroke="black" points="209.5,-321.5 209.5,-433.5 289.5,-433.5 289.5,-321.5 209.5,-321.5"/>
<text text-anchor="middle" x="249.5" y="-421.5" font-family="Helvetica,sans-Serif" font-size="10.00">Sgl::Scene</text>
<polyline fill="none" stroke="black" points="209.5,-414.5 289.5,-414.5 "/>
<text text-anchor="middle" x="249.5" y="-402.5" font-family="Helvetica,sans-Serif" font-size="10.00"> </text>
<polyline fill="none" stroke="black" points="209.5,-395.5 289.5,-395.5 "/>
<text text-anchor="start" x="217.5" y="-383.5" font-family="Helvetica,sans-Serif" font-size="10.00">+ Scene()</text>
<text text-anchor="start" x="217.5" y="-372.5" font-family="Helvetica,sans-Serif" font-size="10.00">+ Scene()</text>
<text text-anchor="start" x="217.5" y="-361.5" font-family="Helvetica,sans-Serif" font-size="10.00">+ ~Scene()</text>
<text text-anchor="start" x="217.5" y="-350.5" font-family="Helvetica,sans-Serif" font-size="10.00">+ update()</text>
<text text-anchor="start" x="217.5" y="-339.5" font-family="Helvetica,sans-Serif" font-size="10.00">+ render()</text>
<text text-anchor="start" x="217.5" y="-328.5" font-family="Helvetica,sans-Serif" font-size="10.00">and 17 more...</text>
</a>
</g>
</g>
<!-- Node5&#45;&gt;Node14 -->
<g id="edge14" class="edge">
<title>Node5&#45;&gt;Node14</title>
<path fill="none" stroke="midnightblue" d="M282.29,-548.6C276.13,-516.63 267.17,-470.17 260.18,-433.88"/>
<polygon fill="none" stroke="midnightblue" points="278.86,-549.29 284.19,-558.45 285.73,-547.96 278.86,-549.29"/>
</g>
<!-- Node6 -->
<g id="node6" class="node">
<title>Node6</title>
<g id="a_node6"><a xlink:title=" ">
<polygon fill="white" stroke="#bfbfbf" points="904.5,-729.5 904.5,-786.5 950.5,-786.5 950.5,-729.5 904.5,-729.5"/>
<text text-anchor="middle" x="927.5" y="-774.5" font-family="Helvetica,sans-Serif" font-size="10.00">int32_t</text>
<polyline fill="none" stroke="#bfbfbf" points="904.5,-767.5 950.5,-767.5 "/>
<text text-anchor="middle" x="927.5" y="-755.5" font-family="Helvetica,sans-Serif" font-size="10.00"> </text>
<polyline fill="none" stroke="#bfbfbf" points="904.5,-748.5 950.5,-748.5 "/>
<text text-anchor="middle" x="927.5" y="-736.5" font-family="Helvetica,sans-Serif" font-size="10.00"> </text>
</a>
</g>
</g>
<!-- Node6&#45;&gt;Node3 -->
<g id="edge25" class="edge">
<title>Node6&#45;&gt;Node3</title>
<path fill="none" stroke="#404040" d="M927.71,-729.43C927.71,-680.13 926.09,-573.72 913.5,-485 913.19,-482.84 912.86,-480.65 912.51,-478.46"/>
<polygon fill="none" stroke="#404040" points="912.51,-478.43 907.54,-473.2 910.46,-466.6 915.43,-471.83 912.51,-478.43"/>
<text text-anchor="middle" x="961.5" y="-612" font-family="Helvetica,sans-Serif" font-size="10.00"> #m_MaxHeight</text>
<text text-anchor="middle" x="961.5" y="-601" font-family="Helvetica,sans-Serif" font-size="10.00">#m_MaxWidth</text>
<text text-anchor="middle" x="961.5" y="-590" font-family="Helvetica,sans-Serif" font-size="10.00">#m_MinHeight</text>
<text text-anchor="middle" x="961.5" y="-579" font-family="Helvetica,sans-Serif" font-size="10.00">#m_MinWidth</text>
<text text-anchor="middle" x="961.5" y="-568" font-family="Helvetica,sans-Serif" font-size="10.00">#m_PrefHeight</text>
<text text-anchor="middle" x="961.5" y="-557" font-family="Helvetica,sans-Serif" font-size="10.00">#m_PrefWidth</text>
</g>
<!-- Node6&#45;&gt;Node4 -->
<g id="edge5" class="edge">
<title>Node6&#45;&gt;Node4</title>
<path fill="none" stroke="#404040" d="M904.33,-756.27C836.01,-753.12 631.55,-736.49 493.5,-649 424.67,-605.38 404.87,-583.76 377.5,-507 374.22,-497.79 372.05,-493.12 377.5,-485 389.28,-467.46 407.89,-483.16 421.5,-467 448.44,-435.03 467.25,-329.23 477.71,-252.78"/>
<polygon fill="none" stroke="#404040" points="477.72,-252.67 474.56,-246.2 479.32,-240.78 482.49,-247.26 477.72,-252.67"/>
<text text-anchor="middle" x="436.5" y="-499" font-family="Helvetica,sans-Serif" font-size="10.00"> +UNLIMITED_SIZE</text>
<text text-anchor="middle" x="436.5" y="-488" font-family="Helvetica,sans-Serif" font-size="10.00">+USE_COMPUTED_SIZE</text>
</g>
<!-- Node20 -->
<g id="node20" class="node">
<title>Node20</title>
<g id="a_node20"><a xlink:href="struct_sgl_1_1_insets.html" target="_top" xlink:title=" ">
<polygon fill="white" stroke="black" points="1016,-531 1016,-643 1095,-643 1095,-531 1016,-531"/>
<text text-anchor="middle" x="1055.5" y="-631" font-family="Helvetica,sans-Serif" font-size="10.00">Sgl::Insets</text>
<polyline fill="none" stroke="black" points="1016,-624 1095,-624 "/>
<text text-anchor="middle" x="1055.5" y="-612" font-family="Helvetica,sans-Serif" font-size="10.00"> </text>
<polyline fill="none" stroke="black" points="1016,-605 1095,-605 "/>
<text text-anchor="start" x="1024" y="-593" font-family="Helvetica,sans-Serif" font-size="10.00">+ Insets()</text>
<text text-anchor="start" x="1024" y="-582" font-family="Helvetica,sans-Serif" font-size="10.00">+ Insets()</text>
<text text-anchor="start" x="1024" y="-571" font-family="Helvetica,sans-Serif" font-size="10.00">+ Insets()</text>
<text text-anchor="start" x="1024" y="-560" font-family="Helvetica,sans-Serif" font-size="10.00">+ Insets()</text>
<text text-anchor="start" x="1024" y="-549" font-family="Helvetica,sans-Serif" font-size="10.00">+ operator+=()</text>
<text text-anchor="start" x="1024" y="-538" font-family="Helvetica,sans-Serif" font-size="10.00">+ operator&#45;=()</text>
</a>
</g>
</g>
<!-- Node6&#45;&gt;Node20 -->
<g id="edge24" class="edge">
<title>Node6&#45;&gt;Node20</title>
<path fill="none" stroke="#404040" d="M948.35,-729.47C964.57,-708.06 987.7,-677.52 1008.32,-650.29"/>
<polygon fill="none" stroke="#404040" points="1008.54,-650 1008.98,-642.8 1015.79,-640.43 1015.35,-647.63 1008.54,-650"/>
<text text-anchor="middle" x="1015.5" y="-703" font-family="Helvetica,sans-Serif" font-size="10.00"> +bottom</text>
<text text-anchor="middle" x="1015.5" y="-692" font-family="Helvetica,sans-Serif" font-size="10.00">+left</text>
<text text-anchor="middle" x="1015.5" y="-681" font-family="Helvetica,sans-Serif" font-size="10.00">+right</text>
<text text-anchor="middle" x="1015.5" y="-670" font-family="Helvetica,sans-Serif" font-size="10.00">+top</text>
</g>
<!-- Node7 -->
<g id="node7" class="node">
<title>Node7</title>
<g id="a_node7"><a xlink:title=" ">
<polygon fill="white" stroke="#bfbfbf" points="566,-349 566,-406 607,-406 607,-349 566,-349"/>
<text text-anchor="middle" x="586.5" y="-394" font-family="Helvetica,sans-Serif" font-size="10.00">friend</text>
<polyline fill="none" stroke="#bfbfbf" points="566,-387 607,-387 "/>
<text text-anchor="middle" x="586.5" y="-375" font-family="Helvetica,sans-Serif" font-size="10.00"> </text>
<polyline fill="none" stroke="#bfbfbf" points="566,-368 607,-368 "/>
<text text-anchor="middle" x="586.5" y="-356" font-family="Helvetica,sans-Serif" font-size="10.00"> </text>
</a>
</g>
</g>
<!-- Node7&#45;&gt;Node4 -->
<g id="edge6" class="edge">
<title>Node7&#45;&gt;Node4</title>
<path fill="none" stroke="#404040" d="M576.44,-348.64C569.85,-331.04 560.76,-307.93 551.5,-288 545.97,-276.11 539.81,-263.74 533.55,-251.67"/>
<polygon fill="none" stroke="#404040" points="533.37,-251.31 527.04,-247.85 527.79,-240.68 534.12,-244.14 533.37,-251.31"/>
<text text-anchor="middle" x="561" y="-262" font-family="Helvetica,sans-Serif" font-size="10.00"> +Scene</text>
</g>
<!-- Node8 -->
<g id="node8" class="node">
<title>Node8</title>
<g id="a_node8"><a xlink:title=" ">
<polygon fill="white" stroke="#bfbfbf" points="625,-349 625,-406 678,-406 678,-349 625,-349"/>
<text text-anchor="middle" x="651.5" y="-394" font-family="Helvetica,sans-Serif" font-size="10.00">Visibility</text>
<polyline fill="none" stroke="#bfbfbf" points="625,-387 678,-387 "/>
<text text-anchor="middle" x="651.5" y="-375" font-family="Helvetica,sans-Serif" font-size="10.00"> </text>
<polyline fill="none" stroke="#bfbfbf" points="625,-368 678,-368 "/>
<text text-anchor="middle" x="651.5" y="-356" font-family="Helvetica,sans-Serif" font-size="10.00"> </text>
</a>
</g>
</g>
<!-- Node8&#45;&gt;Node4 -->
<g id="edge7" class="edge">
<title>Node8&#45;&gt;Node4</title>
<path fill="none" stroke="#404040" d="M643.63,-348.63C637.67,-330.38 628.31,-306.57 615.5,-288 600.26,-265.91 580.26,-244.88 560.63,-226.81"/>
<polygon fill="none" stroke="#404040" points="560.56,-226.76 553.43,-225.71 551.65,-218.73 558.78,-219.77 560.56,-226.76"/>
<text text-anchor="middle" x="631" y="-262" font-family="Helvetica,sans-Serif" font-size="10.00"> #m_Visibility</text>
</g>
<!-- Node9 -->
<g id="node9" class="node">
<title>Node9</title>
<g id="a_node9"><a xlink:title=" ">
<polygon fill="white" stroke="#bfbfbf" points="503,-558.5 503,-615.5 538,-615.5 538,-558.5 503,-558.5"/>
<text text-anchor="middle" x="520.5" y="-603.5" font-family="Helvetica,sans-Serif" font-size="10.00">bool</text>
<polyline fill="none" stroke="#bfbfbf" points="503,-596.5 538,-596.5 "/>
<text text-anchor="middle" x="520.5" y="-584.5" font-family="Helvetica,sans-Serif" font-size="10.00"> </text>
<polyline fill="none" stroke="#bfbfbf" points="503,-577.5 538,-577.5 "/>
<text text-anchor="middle" x="520.5" y="-565.5" font-family="Helvetica,sans-Serif" font-size="10.00"> </text>
</a>
</g>
</g>
<!-- Node9&#45;&gt;Node3 -->
<g id="edge19" class="edge">
<title>Node9&#45;&gt;Node3</title>
<path fill="none" stroke="#404040" d="M528.42,-558.14C536.75,-534.39 552.36,-501.55 578.5,-485 618.58,-459.63 742.94,-485.28 803.95,-466.12"/>
<polygon fill="none" stroke="#404040" points="804.1,-466.06 808.21,-460.13 815.26,-461.66 811.15,-467.58 804.1,-466.06"/>
<text text-anchor="middle" x="627" y="-493.5" font-family="Helvetica,sans-Serif" font-size="10.00"> #m_NeedLayoutPass</text>
</g>
<!-- Node9&#45;&gt;Node4 -->
<g id="edge8" class="edge">
<title>Node9&#45;&gt;Node4</title>
<path fill="none" stroke="#404040" d="M513.54,-558.32C507.84,-534.34 500.14,-498.62 496.5,-467 488.21,-394.96 486.3,-312.52 486.26,-252.64"/>
<polygon fill="none" stroke="#404040" points="486.26,-252.6 482.27,-246.59 486.28,-240.6 490.27,-246.6 486.26,-252.6"/>
<text text-anchor="middle" x="526.5" y="-380.5" font-family="Helvetica,sans-Serif" font-size="10.00"> #m_Focused</text>
<text text-anchor="middle" x="526.5" y="-369.5" font-family="Helvetica,sans-Serif" font-size="10.00">#m_Hovered</text>
</g>
<!-- Node10 -->
<g id="node10" class="node">
<title>Node10</title>
<g id="a_node10"><a xlink:href="class_sgl_1_1_shadow.html" target="_top" xlink:title=" ">
<polygon fill="white" stroke="black" points="696,-316 696,-439 797,-439 797,-316 696,-316"/>
<text text-anchor="middle" x="746.5" y="-427" font-family="Helvetica,sans-Serif" font-size="10.00">Sgl::Shadow</text>
<polyline fill="none" stroke="black" points="696,-420 797,-420 "/>
<text text-anchor="middle" x="746.5" y="-408" font-family="Helvetica,sans-Serif" font-size="10.00"> </text>
<polyline fill="none" stroke="black" points="696,-401 797,-401 "/>
<text text-anchor="start" x="704" y="-389" font-family="Helvetica,sans-Serif" font-size="10.00">+ Shadow()</text>
<text text-anchor="start" x="704" y="-378" font-family="Helvetica,sans-Serif" font-size="10.00">+ ~Shadow()</text>
<text text-anchor="start" x="704" y="-367" font-family="Helvetica,sans-Serif" font-size="10.00">+ update()</text>
<text text-anchor="start" x="704" y="-356" font-family="Helvetica,sans-Serif" font-size="10.00">+ render()</text>
<text text-anchor="start" x="704" y="-345" font-family="Helvetica,sans-Serif" font-size="10.00">+ getTexture()</text>
<text text-anchor="start" x="704" y="-334" font-family="Helvetica,sans-Serif" font-size="10.00">+ getSpecification()</text>
<text text-anchor="start" x="704" y="-323" font-family="Helvetica,sans-Serif" font-size="10.00">+ setSpecification()</text>
</a>
</g>
</g>
<!-- Node10&#45;&gt;Node4 -->
<g id="edge9" class="edge">
<title>Node10&#45;&gt;Node4</title>
<path fill="none" stroke="#404040" d="M713.13,-315.94C699.94,-295.94 683.4,-274.79 664.5,-259 634.44,-233.88 596.18,-213.32 562.93,-198.23"/>
<polygon fill="none" stroke="#404040" points="562.84,-198.19 555.73,-199.41 551.87,-193.32 558.97,-192.1 562.84,-198.19"/>
<text text-anchor="middle" x="705.5" y="-262" font-family="Helvetica,sans-Serif" font-size="10.00"> #m_Shadow</text>
</g>
<!-- Node11 -->
<g id="node11" class="node">
<title>Node11</title>
<g id="a_node11"><a xlink:href="class_gui_event_dispatcher.html" target="_top" xlink:title=" ">
<polygon fill="white" stroke="black" points="56,-310.5 56,-444.5 191,-444.5 191,-310.5 56,-310.5"/>
<text text-anchor="middle" x="123.5" y="-432.5" font-family="Helvetica,sans-Serif" font-size="10.00">GuiEventDispatcher</text>
<polyline fill="none" stroke="black" points="56,-425.5 191,-425.5 "/>
<text text-anchor="middle" x="123.5" y="-413.5" font-family="Helvetica,sans-Serif" font-size="10.00"> </text>
<polyline fill="none" stroke="black" points="56,-406.5 191,-406.5 "/>
<text text-anchor="start" x="64" y="-394.5" font-family="Helvetica,sans-Serif" font-size="10.00">+ ~GuiEventDispatcher()</text>
<text text-anchor="start" x="64" y="-383.5" font-family="Helvetica,sans-Serif" font-size="10.00">+ attachFilter()</text>
<text text-anchor="start" x="64" y="-372.5" font-family="Helvetica,sans-Serif" font-size="10.00">+ detachFilter()</text>
<text text-anchor="start" x="64" y="-361.5" font-family="Helvetica,sans-Serif" font-size="10.00">+ attachHandler()</text>
<text text-anchor="start" x="64" y="-350.5" font-family="Helvetica,sans-Serif" font-size="10.00">+ detachHandler()</text>
<text text-anchor="start" x="64" y="-339.5" font-family="Helvetica,sans-Serif" font-size="10.00">+ dispatchEvent()</text>
<text text-anchor="start" x="64" y="-328.5" font-family="Helvetica,sans-Serif" font-size="10.00"># dispatchCapturingEvent()</text>
<text text-anchor="start" x="64" y="-317.5" font-family="Helvetica,sans-Serif" font-size="10.00"># dispatchBubblingEvent()</text>
</a>
</g>
</g>
<!-- Node11&#45;&gt;Node4 -->
<g id="edge10" class="edge">
<title>Node11&#45;&gt;Node4</title>
<path fill="none" stroke="#404040" d="M139.95,-310.25C147.46,-291.48 158.22,-272.51 173.5,-259 239.64,-200.54 341.43,-179.9 411.07,-172.7"/>
<polygon fill="none" stroke="#404040" points="411.31,-172.68 416.9,-168.13 423.26,-171.54 417.66,-176.09 411.31,-172.68"/>
<text text-anchor="middle" x="208.5" y="-262" font-family="Helvetica,sans-Serif" font-size="10.00"> #m_Dispatcher</text>
</g>
<!-- Node12 -->
<g id="node12" class="node">
<title>Node12</title>
<g id="a_node12"><a xlink:title=" ">
<polygon fill="white" stroke="#bfbfbf" points="0,-558.5 0,-615.5 113,-615.5 113,-558.5 0,-558.5"/>
<text text-anchor="middle" x="56.5" y="-603.5" font-family="Helvetica,sans-Serif" font-size="10.00">Sml::EventDispatcher</text>
<polyline fill="none" stroke="#bfbfbf" points="0,-596.5 113,-596.5 "/>
<text text-anchor="middle" x="56.5" y="-584.5" font-family="Helvetica,sans-Serif" font-size="10.00"> </text>
<polyline fill="none" stroke="#bfbfbf" points="0,-577.5 113,-577.5 "/>
<text text-anchor="middle" x="56.5" y="-565.5" font-family="Helvetica,sans-Serif" font-size="10.00"> </text>
</a>
</g>
</g>
<!-- Node12&#45;&gt;Node11 -->
<g id="edge11" class="edge">
<title>Node12&#45;&gt;Node11</title>
<path fill="none" stroke="midnightblue" d="M68.53,-548.75C77.86,-519.85 91.03,-479.06 102.14,-444.65"/>
<polygon fill="none" stroke="midnightblue" points="65.14,-547.85 65.4,-558.45 71.8,-550 65.14,-547.85"/>
</g>
<!-- Node13 -->
<g id="node13" class="node">
<title>Node13</title>
<g id="a_node13"><a xlink:title=" ">
<polygon fill="white" stroke="#bfbfbf" points="131.5,-558.5 131.5,-615.5 179.5,-615.5 179.5,-558.5 131.5,-558.5"/>
<text text-anchor="middle" x="155.5" y="-603.5" font-family="Helvetica,sans-Serif" font-size="10.00">Notifier</text>
<polyline fill="none" stroke="#bfbfbf" points="131.5,-596.5 179.5,-596.5 "/>
<text text-anchor="middle" x="155.5" y="-584.5" font-family="Helvetica,sans-Serif" font-size="10.00"> </text>
<polyline fill="none" stroke="#bfbfbf" points="131.5,-577.5 179.5,-577.5 "/>
<text text-anchor="middle" x="155.5" y="-565.5" font-family="Helvetica,sans-Serif" font-size="10.00"> </text>
</a>
</g>
</g>
<!-- Node13&#45;&gt;Node11 -->
<g id="edge12" class="edge">
<title>Node13&#45;&gt;Node11</title>
<path fill="none" stroke="#404040" d="M151.25,-558.45C147.25,-532.5 141.06,-492.37 135.54,-456.59"/>
<polygon fill="none" stroke="#404040" points="135.53,-456.51 130.66,-451.19 133.7,-444.65 138.57,-449.97 135.53,-456.51"/>
<text text-anchor="middle" x="188.5" y="-499" font-family="Helvetica,sans-Serif" font-size="10.00"> #m_FiltersNotifier</text>
<text text-anchor="middle" x="188.5" y="-488" font-family="Helvetica,sans-Serif" font-size="10.00">#m_HandlersNotifier</text>
</g>
<!-- Node14&#45;&gt;Node4 -->
<g id="edge13" class="edge">
<title>Node14&#45;&gt;Node4</title>
<path fill="none" stroke="#404040" d="M239.1,-321.2C238.08,-300.02 240.89,-276.71 253.5,-259 289.47,-208.49 357.88,-186.32 411.48,-176.6"/>
<polygon fill="none" stroke="#404040" points="411.54,-176.59 416.79,-171.65 423.37,-174.6 418.12,-179.54 411.54,-176.59"/>
<text text-anchor="middle" x="278.5" y="-262" font-family="Helvetica,sans-Serif" font-size="10.00"> #m_Scene</text>
</g>
<!-- Node15 -->
<g id="node15" class="node">
<title>Node15</title>
<g id="a_node15"><a xlink:title=" ">
<polygon fill="white" stroke="#bfbfbf" points="346,-349 346,-406 413,-406 413,-349 346,-349"/>
<text text-anchor="middle" x="379.5" y="-394" font-family="Helvetica,sans-Serif" font-size="10.00">Rectangle&lt;</text>
<polyline fill="none" stroke="#bfbfbf" points="346,-387 413,-387 "/>
<text text-anchor="middle" x="379.5" y="-375" font-family="Helvetica,sans-Serif" font-size="10.00"> </text>
<polyline fill="none" stroke="#bfbfbf" points="346,-368 413,-368 "/>
<text text-anchor="middle" x="379.5" y="-356" font-family="Helvetica,sans-Serif" font-size="10.00"> </text>
</a>
</g>
</g>
<!-- Node15&#45;&gt;Node4 -->
<g id="edge16" class="edge">
<title>Node15&#45;&gt;Node4</title>
<path fill="none" stroke="#404040" d="M364.74,-348.89C353.64,-324.08 342.67,-287.31 357.5,-259 369.71,-235.7 390.99,-217.23 412.84,-203.25"/>
<polygon fill="none" stroke="#404040" points="412.98,-203.16 416.03,-196.63 423.24,-196.94 420.18,-203.47 412.98,-203.16"/>
<text text-anchor="middle" x="400" y="-262" font-family="Helvetica,sans-Serif" font-size="10.00"> #m_LayoutBounds</text>
</g>
<!-- Node16 -->
<g id="node16" class="node">
<title>Node16</title>
<g id="a_node16"><a xlink:title=" ">
<polygon fill="white" stroke="#bfbfbf" points="1175,-558.5 1175,-615.5 1210,-615.5 1210,-558.5 1175,-558.5"/>
<text text-anchor="middle" x="1192.5" y="-603.5" font-family="Helvetica,sans-Serif" font-size="10.00">list&lt;</text>
<polyline fill="none" stroke="#bfbfbf" points="1175,-596.5 1210,-596.5 "/>
<text text-anchor="middle" x="1192.5" y="-584.5" font-family="Helvetica,sans-Serif" font-size="10.00"> </text>
<polyline fill="none" stroke="#bfbfbf" points="1175,-577.5 1210,-577.5 "/>
<text text-anchor="middle" x="1192.5" y="-565.5" font-family="Helvetica,sans-Serif" font-size="10.00"> </text>
</a>
</g>
</g>
<!-- Node16&#45;&gt;Node3 -->
<g id="edge17" class="edge">
<title>Node16&#45;&gt;Node3</title>
<path fill="none" stroke="#404040" d="M1184.65,-558.2C1180.4,-546.89 1174.19,-534.32 1165.5,-525 1112.87,-468.56 1033.51,-429.69 973.21,-406.24"/>
<polygon fill="none" stroke="#404040" points="973.01,-406.17 965.98,-407.77 961.8,-401.9 968.83,-400.29 973.01,-406.17"/>
<text text-anchor="middle" x="1170.5" y="-493.5" font-family="Helvetica,sans-Serif" font-size="10.00"> #m_Children</text>
</g>
<!-- Node17 -->
<g id="node17" class="node">
<title>Node17</title>
<g id="a_node17"><a xlink:title=" ">
<polygon fill="white" stroke="#bfbfbf" points="619.5,-558.5 619.5,-615.5 675.5,-615.5 675.5,-558.5 619.5,-558.5"/>
<text text-anchor="middle" x="647.5" y="-603.5" font-family="Helvetica,sans-Serif" font-size="10.00">Texture *</text>
<polyline fill="none" stroke="#bfbfbf" points="619.5,-596.5 675.5,-596.5 "/>
<text text-anchor="middle" x="647.5" y="-584.5" font-family="Helvetica,sans-Serif" font-size="10.00"> </text>
<polyline fill="none" stroke="#bfbfbf" points="619.5,-577.5 675.5,-577.5 "/>
<text text-anchor="middle" x="647.5" y="-565.5" font-family="Helvetica,sans-Serif" font-size="10.00"> </text>
</a>
</g>
</g>
<!-- Node17&#45;&gt;Node3 -->
<g id="edge18" class="edge">
<title>Node17&#45;&gt;Node3</title>
<path fill="none" stroke="#404040" d="M654.58,-558.3C662.04,-534.99 676.16,-502.7 700.5,-485 735.95,-459.22 760.02,-484.97 804.28,-466.45"/>
<polygon fill="none" stroke="#404040" points="804.53,-466.33 808.19,-460.11 815.33,-461.09 811.68,-467.31 804.53,-466.33"/>
<text text-anchor="middle" x="732.5" y="-493.5" font-family="Helvetica,sans-Serif" font-size="10.00"> #m_Snapshot</text>
</g>
<!-- Node18 -->
<g id="node18" class="node">
<title>Node18</title>
<g id="a_node18"><a xlink:href="class_sgl_1_1_background.html" target="_top" xlink:title=" ">
<polygon fill="white" stroke="black" points="694,-525.5 694,-648.5 783,-648.5 783,-525.5 694,-525.5"/>
<text text-anchor="middle" x="738.5" y="-636.5" font-family="Helvetica,sans-Serif" font-size="10.00">Sgl::Background</text>
<polyline fill="none" stroke="black" points="694,-629.5 783,-629.5 "/>
<text text-anchor="middle" x="738.5" y="-617.5" font-family="Helvetica,sans-Serif" font-size="10.00"> </text>
<polyline fill="none" stroke="black" points="694,-610.5 783,-610.5 "/>
<text text-anchor="start" x="702" y="-598.5" font-family="Helvetica,sans-Serif" font-size="10.00">+ Background()</text>
<text text-anchor="start" x="702" y="-587.5" font-family="Helvetica,sans-Serif" font-size="10.00">+ Background()</text>
<text text-anchor="start" x="702" y="-576.5" font-family="Helvetica,sans-Serif" font-size="10.00">+ Background()</text>
<text text-anchor="start" x="702" y="-565.5" font-family="Helvetica,sans-Serif" font-size="10.00">+ Background()</text>
<text text-anchor="start" x="702" y="-554.5" font-family="Helvetica,sans-Serif" font-size="10.00">+ addFill()</text>
<text text-anchor="start" x="702" y="-543.5" font-family="Helvetica,sans-Serif" font-size="10.00">and 5 more...</text>
<text text-anchor="start" x="702" y="-532.5" font-family="Helvetica,sans-Serif" font-size="10.00">+ fillArea()</text>
</a>
</g>
</g>
<!-- Node18&#45;&gt;Node3 -->
<g id="edge20" class="edge">
<title>Node18&#45;&gt;Node3</title>
<path fill="none" stroke="#404040" d="M758.19,-525.44C764.37,-511.36 772.09,-497 781.5,-485 789.73,-474.51 795.57,-475.9 805.5,-467 805.81,-466.72 806.12,-466.45 806.43,-466.17"/>
<polygon fill="none" stroke="#404040" points="806.61,-466 808.29,-458.99 815.41,-457.85 813.73,-464.86 806.61,-466"/>
<text text-anchor="middle" x="818.5" y="-493.5" font-family="Helvetica,sans-Serif" font-size="10.00"> #m_Background</text>
</g>
<!-- Node19 -->
<g id="node19" class="node">
<title>Node19</title>
<g id="a_node19"><a xlink:href="class_sgl_1_1_border.html" target="_top" xlink:title=" ">
<polygon fill="white" stroke="black" points="801.5,-531 801.5,-643 891.5,-643 891.5,-531 801.5,-531"/>
<text text-anchor="middle" x="846.5" y="-631" font-family="Helvetica,sans-Serif" font-size="10.00">Sgl::Border</text>
<polyline fill="none" stroke="black" points="801.5,-624 891.5,-624 "/>
<text text-anchor="middle" x="846.5" y="-612" font-family="Helvetica,sans-Serif" font-size="10.00"> </text>
<polyline fill="none" stroke="black" points="801.5,-605 891.5,-605 "/>
<text text-anchor="start" x="809.5" y="-593" font-family="Helvetica,sans-Serif" font-size="10.00">+ Border()</text>
<text text-anchor="start" x="809.5" y="-582" font-family="Helvetica,sans-Serif" font-size="10.00">+ Border()</text>
<text text-anchor="start" x="809.5" y="-571" font-family="Helvetica,sans-Serif" font-size="10.00">+ Border()</text>
<text text-anchor="start" x="809.5" y="-560" font-family="Helvetica,sans-Serif" font-size="10.00">+ getThickness()</text>
<text text-anchor="start" x="809.5" y="-549" font-family="Helvetica,sans-Serif" font-size="10.00">+ getColor()</text>
<text text-anchor="start" x="809.5" y="-538" font-family="Helvetica,sans-Serif" font-size="10.00">+ encloseArea()</text>
</a>
</g>
</g>
<!-- Node19&#45;&gt;Node3 -->
<g id="edge21" class="edge">
<title>Node19&#45;&gt;Node3</title>
<path fill="none" stroke="#404040" d="M854.4,-530.81C856.76,-515.9 859.53,-499.79 862.5,-485 862.93,-482.85 863.38,-480.69 863.83,-478.5"/>
<polygon fill="none" stroke="#404040" points="863.85,-478.44 861.2,-471.73 866.37,-466.71 869.02,-473.42 863.85,-478.44"/>
<text text-anchor="middle" x="888" y="-493.5" font-family="Helvetica,sans-Serif" font-size="10.00"> #m_Border</text>
</g>
<!-- Node20&#45;&gt;Node3 -->
<g id="edge22" class="edge">
<title>Node20&#45;&gt;Node3</title>
<path fill="none" stroke="#404040" d="M1015.92,-536.83C1001.29,-518.64 984.13,-497.32 967.24,-476.33"/>
<polygon fill="none" stroke="#404040" points="967.03,-476.07 960.15,-473.9 959.5,-466.72 966.38,-468.89 967.03,-476.07"/>
<text text-anchor="middle" x="1021.5" y="-493.5" font-family="Helvetica,sans-Serif" font-size="10.00"> #m_Padding</text>
</g>
<!-- Node20&#45;&gt;Node20 -->
<g id="edge23" class="edge">
<title>Node20&#45;&gt;Node20</title>
<path fill="none" stroke="#404040" d="M1095.01,-603.7C1105.26,-602.67 1113,-597.11 1113,-587 1113,-581.31 1110.55,-577.07 1106.58,-574.25"/>
<polygon fill="none" stroke="#404040" points="1106.36,-574.18 1099.39,-576.02 1095.01,-570.3 1101.98,-568.45 1106.36,-574.18"/>
<text text-anchor="middle" x="1135" y="-584.5" font-family="Helvetica,sans-Serif" font-size="10.00"> +EMPTY</text>
</g>
<!-- Node21 -->
<g id="node21" class="node">
<title>Node21</title>
<g id="a_node21"><a xlink:href="class_sgl_1_1_skinnable.html" target="_top" xlink:title=" ">
<polygon fill="white" stroke="black" points="1312.5,-343.5 1312.5,-411.5 1392.5,-411.5 1392.5,-343.5 1312.5,-343.5"/>
<text text-anchor="middle" x="1352.5" y="-399.5" font-family="Helvetica,sans-Serif" font-size="10.00">Sgl::Skinnable</text>
<polyline fill="none" stroke="black" points="1312.5,-392.5 1392.5,-392.5 "/>
<text text-anchor="middle" x="1352.5" y="-380.5" font-family="Helvetica,sans-Serif" font-size="10.00"> </text>
<polyline fill="none" stroke="black" points="1312.5,-373.5 1392.5,-373.5 "/>
<text text-anchor="start" x="1320.5" y="-361.5" font-family="Helvetica,sans-Serif" font-size="10.00">+ getSkin()</text>
<text text-anchor="start" x="1320.5" y="-350.5" font-family="Helvetica,sans-Serif" font-size="10.00">+ setSkin()</text>
</a>
</g>
</g>
<!-- Node21&#45;&gt;Node2 -->
<g id="edge26" class="edge">
<title>Node21&#45;&gt;Node2</title>
<path fill="none" stroke="midnightblue" d="M1327.06,-334.29C1318.11,-319.59 1307.94,-303.02 1298.5,-288 1288.81,-272.58 1278.29,-256.13 1268.23,-240.54"/>
<polygon fill="none" stroke="midnightblue" points="1324.27,-336.44 1332.45,-343.17 1330.25,-332.81 1324.27,-336.44"/>
</g>
<!-- Node22 -->
<g id="node22" class="node">
<title>Node22</title>
<g id="a_node22"><a xlink:href="class_sgl_1_1_skin.html" target="_top" xlink:title=" ">
<polygon fill="white" stroke="black" points="1257.5,-531 1257.5,-643 1365.5,-643 1365.5,-531 1257.5,-531"/>
<text text-anchor="middle" x="1311.5" y="-631" font-family="Helvetica,sans-Serif" font-size="10.00">Sgl::Skin</text>
<polyline fill="none" stroke="black" points="1257.5,-624 1365.5,-624 "/>
<text text-anchor="middle" x="1311.5" y="-612" font-family="Helvetica,sans-Serif" font-size="10.00"> </text>
<polyline fill="none" stroke="black" points="1257.5,-605 1365.5,-605 "/>
<text text-anchor="start" x="1265.5" y="-593" font-family="Helvetica,sans-Serif" font-size="10.00">+ ~Skin()</text>
<text text-anchor="start" x="1265.5" y="-582" font-family="Helvetica,sans-Serif" font-size="10.00">+ dispose()</text>
<text text-anchor="start" x="1265.5" y="-571" font-family="Helvetica,sans-Serif" font-size="10.00">+ prerenderControl()</text>
<text text-anchor="start" x="1265.5" y="-560" font-family="Helvetica,sans-Serif" font-size="10.00">+ getHitComponent()</text>
<text text-anchor="start" x="1265.5" y="-549" font-family="Helvetica,sans-Serif" font-size="10.00">+ getControl()</text>
<text text-anchor="start" x="1265.5" y="-538" font-family="Helvetica,sans-Serif" font-size="10.00">and 8 more...</text>
</a>
</g>
</g>
<!-- Node22&#45;&gt;Node2 -->
<g id="edge28" class="edge">
<title>Node22&#45;&gt;Node2</title>
<path fill="none" stroke="#404040" d="M1264.38,-530.79C1250.88,-511.79 1237.83,-489.58 1230.5,-467 1207.92,-397.45 1207.52,-313.92 1211.7,-253.01"/>
<polygon fill="none" stroke="#404040" points="1211.72,-252.72 1208.18,-246.44 1212.62,-240.75 1216.16,-247.04 1211.72,-252.72"/>
<text text-anchor="middle" x="1267" y="-375" font-family="Helvetica,sans-Serif" font-size="10.00"> #m_DefaultSkin</text>
</g>
<!-- Node22&#45;&gt;Node21 -->
<g id="edge27" class="edge">
<title>Node22&#45;&gt;Node21</title>
<path fill="none" stroke="#404040" d="M1322.38,-530.94C1329,-497.44 1337.35,-455.19 1343.57,-423.67"/>
<polygon fill="none" stroke="#404040" points="1343.61,-423.51 1340.85,-416.84 1345.93,-411.73 1348.69,-418.4 1343.61,-423.51"/>
<text text-anchor="middle" x="1352.5" y="-493.5" font-family="Helvetica,sans-Serif" font-size="10.00"> #m_Skin</text>
</g>
</g>
</svg>
        <g id="navigator" transform="translate(0 0)" fill="#404254">
                <rect fill="#f2f5e9" fill-opacity="0.5" stroke="#606060" stroke-width=".5" x="0" y="0" width="60" height="60"/>
                <use id="zoomplus" xlink:href="#zoomPlus" x="17" y="9" onmousedown="handleZoom(evt,'in')"/>
                <use id="zoomminus" xlink:href="#zoomMin" x="42" y="9" onmousedown="handleZoom(evt,'out')"/>
                <use id="reset" xlink:href="#resetDef" x="30" y="36" onmousedown="handleReset()"/>
                <g id="arrowUp" xlink:href="#dirArrow" transform="translate(30 24)" onmousedown="handlePan(0,-1)">
                  <use xlink:href="#rim" fill="#404040">
                        <set attributeName="fill" to="#808080" begin="arrowUp.mouseover" end="arrowUp.mouseout"/>
                  </use>
                  <path fill="none" stroke="white" stroke-width="1.5" d="M0,-3.0v7 M-2.5,-0.5L0,-3.0L2.5,-0.5"/>
                </g>
                <g id="arrowRight" xlink:href="#dirArrow" transform="rotate(90) translate(36 -43)" onmousedown="handlePan(1,0)">
                  <use xlink:href="#rim" fill="#404040">
                        <set attributeName="fill" to="#808080" begin="arrowRight.mouseover" end="arrowRight.mouseout"/>
                  </use>
                  <path fill="none" stroke="white" stroke-width="1.5" d="M0,-3.0v7 M-2.5,-0.5L0,-3.0L2.5,-0.5"/>
                </g>
                <g id="arrowDown" xlink:href="#dirArrow" transform="rotate(180) translate(-30 -48)" onmousedown="handlePan(0,1)">
                  <use xlink:href="#rim" fill="#404040">
                        <set attributeName="fill" to="#808080" begin="arrowDown.mouseover" end="arrowDown.mouseout"/>
                  </use>
                  <path fill="none" stroke="white" stroke-width="1.5" d="M0,-3.0v7 M-2.5,-0.5L0,-3.0L2.5,-0.5"/>
                </g>
                <g id="arrowLeft" xlink:href="#dirArrow" transform="rotate(270) translate(-36 17)" onmousedown="handlePan(-1,0)">
                  <use xlink:href="#rim" fill="#404040">
                        <set attributeName="fill" to="#808080" begin="arrowLeft.mouseover" end="arrowLeft.mouseout"/>
                  </use>
                  <path fill="none" stroke="white" stroke-width="1.5" d="M0,-3.0v7 M-2.5,-0.5L0,-3.0L2.5,-0.5"/>
                </g>
        </g>
        <svg viewBox="0 0 15 15" width="100%" height="30px" preserveAspectRatio="xMaxYMin meet">
         <g id="arrow_out" transform="scale(0.3 0.3)">
          <a xlink:href="class_sgl_1_1_label__coll__graph_org.svg" target="_base">
           <rect id="button" ry="5" rx="5" y="6" x="6" height="38" width="38"
                fill="#f2f5e9" fill-opacity="0.5" stroke="#606060" stroke-width="1.0"/>
           <path id="arrow"
             d="M 11.500037,31.436501 C 11.940474,20.09759 22.043105,11.32322 32.158766,21.979434 L 37.068811,17.246167 C 37.068811,17.246167 37.088388,32 37.088388,32 L 22.160133,31.978069 C 22.160133,31.978069 26.997745,27.140456 26.997745,27.140456 C 18.528582,18.264221 13.291696,25.230495 11.500037,31.436501 z"
             style="fill:#404040;"/>
          </a>
         </g>
        </svg>
</svg>
