<?xml version="1.0" encoding="UTF-8" standalone="no"?>
<!DOCTYPE svg PUBLIC "-//W3C//DTD SVG 1.1//EN"
 "http://www.w3.org/Graphics/SVG/1.1/DTD/svg11.dtd">
<!-- Generated by graphviz version 2.50.0 (20211204.2007)
 -->
<!-- Title: Sgl::Container Pages: 1 -->
<!--zoomable 700 -->
<svg id="main" version="1.1" xmlns="http://www.w3.org/2000/svg" xmlns:xlink="http://www.w3.org/1999/xlink" xml:space="preserve" onload="init(evt)">
<style type="text/css"><![CDATA[
.edge:hover path { stroke: red; }
.edge:hover polygon { stroke: red; fill: red; }
]]></style>
<script type="text/javascript"><![CDATA[
var edges = document.getElementsByTagName('g');
if (edges && edges.length) {
  for (var i=0;i<edges.length;i++) {
    if (edges[i].id.substr(0,4)=='edge') {
      edges[i].setAttribute('class','edge');
    }
  }
}
]]></script>
        <defs>
                <circle id="rim" cx="0" cy="0" r="7"/>
                <circle id="rim2" cx="0" cy="0" r="3.5"/>
                <g id="zoomPlus">
                        <use xlink:href="#rim" fill="#404040">
                                <set attributeName="fill" to="#808080" begin="zoomplus.mouseover" end="zoomplus.mouseout"/>
                        </use>
                        <path d="M-4,0h8M0,-4v8" fill="none" stroke="white" stroke-width="1.5" pointer-events="none"/>
                </g>
                <g id="zoomMin">
                        <use xlink:href="#rim" fill="#404040">
                                <set attributeName="fill" to="#808080" begin="zoomminus.mouseover" end="zoomminus.mouseout"/>
                        </use>
                        <path d="M-4,0h8" fill="none" stroke="white" stroke-width="1.5" pointer-events="none"/>
                </g>
                <g id="dirArrow">
                        <path fill="none" stroke="white" stroke-width="1.5" d="M0,-3.0v7 M-2.5,-0.5L0,-3.0L2.5,-0.5"/>
                </g>
               <g id="resetDef">
                       <use xlink:href="#rim2" fill="#404040">
                               <set attributeName="fill" to="#808080" begin="reset.mouseover" end="reset.mouseout"/>
                       </use>
               </g>
        </defs>

<script type="text/javascript">
var viewWidth = 1648;
var viewHeight = 700;
var sectionId = 'dynsection-1';
</script>
<script xlink:href="svgpan.js"/>
<svg id="graph" class="graph">
<g id="viewport">
<title>Sgl::Container</title>
<polygon fill="white" stroke="transparent" points="-4,4 -4,-696 1644,-696 1644,4 -4,4"/>
<!-- Node1 -->
<g id="node1" class="node">
<title>Node1</title>
<g id="a_node1"><a xlink:title=" ">
<polygon fill="#bfbfbf" stroke="black" points="1314,-22.5 1314,-123.5 1422,-123.5 1422,-22.5 1314,-22.5"/>
<text text-anchor="middle" x="1368" y="-111.5" font-family="Helvetica,sans-Serif" font-size="10.00">Sgl::Container</text>
<polyline fill="none" stroke="black" points="1314,-104.5 1422,-104.5 "/>
<text text-anchor="middle" x="1368" y="-92.5" font-family="Helvetica,sans-Serif" font-size="10.00"> </text>
<polyline fill="none" stroke="black" points="1314,-85.5 1422,-85.5 "/>
<text text-anchor="start" x="1322" y="-73.5" font-family="Helvetica,sans-Serif" font-size="10.00">+ Container()</text>
<text text-anchor="start" x="1322" y="-62.5" font-family="Helvetica,sans-Serif" font-size="10.00">+ ~Container()</text>
<text text-anchor="start" x="1322" y="-51.5" font-family="Helvetica,sans-Serif" font-size="10.00">+ getHitComponent()</text>
<text text-anchor="start" x="1322" y="-40.5" font-family="Helvetica,sans-Serif" font-size="10.00">+ render()</text>
<text text-anchor="start" x="1322" y="-29.5" font-family="Helvetica,sans-Serif" font-size="10.00"># prerenderSelf()</text>
</a>
</g>
</g>
<!-- Node2 -->
<g id="node2" class="node">
<title>Node2</title>
<g id="a_node2"><a xlink:href="class_sgl_1_1_parent.html" target="_top" xlink:title=" ">
<polygon fill="white" stroke="black" points="886,-193.5 886,-371.5 1032,-371.5 1032,-193.5 886,-193.5"/>
<text text-anchor="middle" x="959" y="-359.5" font-family="Helvetica,sans-Serif" font-size="10.00">Sgl::Parent</text>
<polyline fill="none" stroke="black" points="886,-352.5 1032,-352.5 "/>
<text text-anchor="middle" x="959" y="-340.5" font-family="Helvetica,sans-Serif" font-size="10.00"> </text>
<polyline fill="none" stroke="black" points="886,-333.5 1032,-333.5 "/>
<text text-anchor="start" x="894" y="-321.5" font-family="Helvetica,sans-Serif" font-size="10.00">+ Parent()</text>
<text text-anchor="start" x="894" y="-310.5" font-family="Helvetica,sans-Serif" font-size="10.00">+ ~Parent()</text>
<text text-anchor="start" x="894" y="-299.5" font-family="Helvetica,sans-Serif" font-size="10.00">+ getHitComponent()</text>
<text text-anchor="start" x="894" y="-288.5" font-family="Helvetica,sans-Serif" font-size="10.00">+ render()</text>
<text text-anchor="start" x="894" y="-277.5" font-family="Helvetica,sans-Serif" font-size="10.00">+ layout()</text>
<text text-anchor="start" x="894" y="-266.5" font-family="Helvetica,sans-Serif" font-size="10.00">and 39 more...</text>
<text text-anchor="start" x="894" y="-255.5" font-family="Helvetica,sans-Serif" font-size="10.00"># setSceneInSceneTree()</text>
<text text-anchor="start" x="894" y="-244.5" font-family="Helvetica,sans-Serif" font-size="10.00"># layoutChildren()</text>
<text text-anchor="start" x="894" y="-233.5" font-family="Helvetica,sans-Serif" font-size="10.00"># prerenderSelf()</text>
<text text-anchor="start" x="894" y="-222.5" font-family="Helvetica,sans-Serif" font-size="10.00"># updateSnapshotSize()</text>
<text text-anchor="start" x="894" y="-211.5" font-family="Helvetica,sans-Serif" font-size="10.00"># computeCustomPrefWidth()</text>
<text text-anchor="start" x="894" y="-200.5" font-family="Helvetica,sans-Serif" font-size="10.00">and 5 more...</text>
</a>
</g>
</g>
<!-- Node2&#45;&gt;Node1 -->
<g id="edge1" class="edge">
<title>Node2&#45;&gt;Node1</title>
<path fill="none" stroke="midnightblue" d="M1041.32,-239.74C1122.45,-198.57 1244.11,-136.85 1313.79,-101.5"/>
<polygon fill="none" stroke="midnightblue" points="1039.46,-236.76 1032.12,-244.4 1042.62,-243 1039.46,-236.76"/>
</g>
<!-- Node3 -->
<g id="node3" class="node">
<title>Node3</title>
<g id="a_node3"><a xlink:href="class_sgl_1_1_component.html" target="_top" xlink:title=" ">
<polygon fill="white" stroke="black" points="292,-0.5 292,-145.5 420,-145.5 420,-0.5 292,-0.5"/>
<text text-anchor="middle" x="356" y="-133.5" font-family="Helvetica,sans-Serif" font-size="10.00">Sgl::Component</text>
<polyline fill="none" stroke="black" points="292,-126.5 420,-126.5 "/>
<text text-anchor="middle" x="356" y="-114.5" font-family="Helvetica,sans-Serif" font-size="10.00"> </text>
<polyline fill="none" stroke="black" points="292,-107.5 420,-107.5 "/>
<text text-anchor="start" x="300" y="-95.5" font-family="Helvetica,sans-Serif" font-size="10.00">+ Component()</text>
<text text-anchor="start" x="300" y="-84.5" font-family="Helvetica,sans-Serif" font-size="10.00">+ ~Component()</text>
<text text-anchor="start" x="300" y="-73.5" font-family="Helvetica,sans-Serif" font-size="10.00">+ getHitComponent()</text>
<text text-anchor="start" x="300" y="-62.5" font-family="Helvetica,sans-Serif" font-size="10.00">+ render()</text>
<text text-anchor="start" x="300" y="-51.5" font-family="Helvetica,sans-Serif" font-size="10.00">+ layout()</text>
<text text-anchor="start" x="300" y="-40.5" font-family="Helvetica,sans-Serif" font-size="10.00">and 42 more...</text>
<text text-anchor="start" x="300" y="-29.5" font-family="Helvetica,sans-Serif" font-size="10.00"># updateShadow()</text>
<text text-anchor="start" x="300" y="-18.5" font-family="Helvetica,sans-Serif" font-size="10.00"># renderShadow()</text>
<text text-anchor="start" x="300" y="-7.5" font-family="Helvetica,sans-Serif" font-size="10.00"># setSceneInSceneTree()</text>
</a>
</g>
</g>
<!-- Node2&#45;&gt;Node3 -->
<g id="edge14" class="edge">
<title>Node2&#45;&gt;Node3</title>
<path fill="none" stroke="#404040" d="M885.75,-245.11C833.46,-220.08 761,-187.28 695,-164 606.43,-132.76 501.53,-106.49 432.13,-90.55"/>
<polygon fill="none" stroke="#404040" points="431.72,-90.45 424.98,-93.02 420.02,-87.79 426.76,-85.22 431.72,-90.45"/>
<text text-anchor="middle" x="750.5" y="-167" font-family="Helvetica,sans-Serif" font-size="10.00"> #m_Parent</text>
</g>
<!-- Node3&#45;&gt;Node2 -->
<g id="edge2" class="edge">
<title>Node3&#45;&gt;Node2</title>
<path fill="none" stroke="midnightblue" d="M430.19,-74.63C528.89,-78.3 706.34,-95.01 839,-164 855.56,-172.61 871.33,-184.26 885.69,-196.89"/>
<polygon fill="none" stroke="midnightblue" points="430.12,-71.12 420.01,-74.28 429.89,-78.12 430.12,-71.12"/>
</g>
<!-- Node4 -->
<g id="node4" class="node">
<title>Node4</title>
<g id="a_node4"><a xlink:title=" ">
<polygon fill="white" stroke="#bfbfbf" points="39,-463.5 39,-520.5 131,-520.5 131,-463.5 39,-463.5"/>
<text text-anchor="middle" x="85" y="-508.5" font-family="Helvetica,sans-Serif" font-size="10.00">Sml::EventTarget</text>
<polyline fill="none" stroke="#bfbfbf" points="39,-501.5 131,-501.5 "/>
<text text-anchor="middle" x="85" y="-489.5" font-family="Helvetica,sans-Serif" font-size="10.00"> </text>
<polyline fill="none" stroke="#bfbfbf" points="39,-482.5 131,-482.5 "/>
<text text-anchor="middle" x="85" y="-470.5" font-family="Helvetica,sans-Serif" font-size="10.00"> </text>
</a>
</g>
</g>
<!-- Node4&#45;&gt;Node3 -->
<g id="edge3" class="edge">
<title>Node4&#45;&gt;Node3</title>
<path fill="none" stroke="midnightblue" d="M86.68,-453.17C90.38,-383.05 101.05,-236.11 127,-193 162.35,-134.27 237.24,-103.23 291.78,-87.77"/>
<polygon fill="none" stroke="midnightblue" points="83.17,-453.17 86.16,-463.33 90.16,-453.52 83.17,-453.17"/>
</g>
<!-- Node13 -->
<g id="node13" class="node">
<title>Node13</title>
<g id="a_node13"><a xlink:href="class_sgl_1_1_scene.html" target="_top" xlink:title=" ">
<polygon fill="white" stroke="black" points="0,-226.5 0,-338.5 80,-338.5 80,-226.5 0,-226.5"/>
<text text-anchor="middle" x="40" y="-326.5" font-family="Helvetica,sans-Serif" font-size="10.00">Sgl::Scene</text>
<polyline fill="none" stroke="black" points="0,-319.5 80,-319.5 "/>
<text text-anchor="middle" x="40" y="-307.5" font-family="Helvetica,sans-Serif" font-size="10.00"> </text>
<polyline fill="none" stroke="black" points="0,-300.5 80,-300.5 "/>
<text text-anchor="start" x="8" y="-288.5" font-family="Helvetica,sans-Serif" font-size="10.00">+ Scene()</text>
<text text-anchor="start" x="8" y="-277.5" font-family="Helvetica,sans-Serif" font-size="10.00">+ Scene()</text>
<text text-anchor="start" x="8" y="-266.5" font-family="Helvetica,sans-Serif" font-size="10.00">+ ~Scene()</text>
<text text-anchor="start" x="8" y="-255.5" font-family="Helvetica,sans-Serif" font-size="10.00">+ update()</text>
<text text-anchor="start" x="8" y="-244.5" font-family="Helvetica,sans-Serif" font-size="10.00">+ render()</text>
<text text-anchor="start" x="8" y="-233.5" font-family="Helvetica,sans-Serif" font-size="10.00">and 17 more...</text>
</a>
</g>
</g>
<!-- Node4&#45;&gt;Node13 -->
<g id="edge13" class="edge">
<title>Node4&#45;&gt;Node13</title>
<path fill="none" stroke="midnightblue" d="M76.89,-453.6C69.96,-421.63 59.88,-375.17 52.01,-338.88"/>
<polygon fill="none" stroke="midnightblue" points="73.48,-454.41 79.02,-463.45 80.33,-452.93 73.48,-454.41"/>
</g>
<!-- Node5 -->
<g id="node5" class="node">
<title>Node5</title>
<g id="a_node5"><a xlink:title=" ">
<polygon fill="white" stroke="#bfbfbf" points="1069,-634.5 1069,-691.5 1115,-691.5 1115,-634.5 1069,-634.5"/>
<text text-anchor="middle" x="1092" y="-679.5" font-family="Helvetica,sans-Serif" font-size="10.00">int32_t</text>
<polyline fill="none" stroke="#bfbfbf" points="1069,-672.5 1115,-672.5 "/>
<text text-anchor="middle" x="1092" y="-660.5" font-family="Helvetica,sans-Serif" font-size="10.00"> </text>
<polyline fill="none" stroke="#bfbfbf" points="1069,-653.5 1115,-653.5 "/>
<text text-anchor="middle" x="1092" y="-641.5" font-family="Helvetica,sans-Serif" font-size="10.00"> </text>
</a>
</g>
</g>
<!-- Node5&#45;&gt;Node2 -->
<g id="edge24" class="edge">
<title>Node5&#45;&gt;Node2</title>
<path fill="none" stroke="#404040" d="M1115.41,-647.51C1142.17,-629.41 1184.5,-595.71 1202,-554 1223.32,-503.18 1229.1,-477.99 1202,-430 1168.29,-370.31 1099.42,-332.22 1043.58,-309.89"/>
<polygon fill="none" stroke="#404040" points="1043.43,-309.83 1036.39,-311.4 1032.24,-305.5 1039.28,-303.94 1043.43,-309.83"/>
<text text-anchor="middle" x="1256" y="-517" font-family="Helvetica,sans-Serif" font-size="10.00"> #m_MaxHeight</text>
<text text-anchor="middle" x="1256" y="-506" font-family="Helvetica,sans-Serif" font-size="10.00">#m_MaxWidth</text>
<text text-anchor="middle" x="1256" y="-495" font-family="Helvetica,sans-Serif" font-size="10.00">#m_MinHeight</text>
<text text-anchor="middle" x="1256" y="-484" font-family="Helvetica,sans-Serif" font-size="10.00">#m_MinWidth</text>
<text text-anchor="middle" x="1256" y="-473" font-family="Helvetica,sans-Serif" font-size="10.00">#m_PrefHeight</text>
<text text-anchor="middle" x="1256" y="-462" font-family="Helvetica,sans-Serif" font-size="10.00">#m_PrefWidth</text>
</g>
<!-- Node5&#45;&gt;Node3 -->
<g id="edge4" class="edge">
<title>Node5&#45;&gt;Node3</title>
<path fill="none" stroke="#404040" d="M1068.81,-661.4C958.84,-658.15 490.63,-639.41 378,-554 246.9,-454.58 257.93,-353.07 296,-193 298.88,-180.89 303.2,-168.61 308.23,-156.77"/>
<polygon fill="none" stroke="#404040" points="308.34,-156.53 307.14,-149.42 313.24,-145.58 314.44,-152.69 308.34,-156.53"/>
<text text-anchor="middle" x="335" y="-404" font-family="Helvetica,sans-Serif" font-size="10.00"> +UNLIMITED_SIZE</text>
<text text-anchor="middle" x="335" y="-393" font-family="Helvetica,sans-Serif" font-size="10.00">+USE_COMPUTED_SIZE</text>
</g>
<!-- Node19 -->
<g id="node19" class="node">
<title>Node19</title>
<g id="a_node19"><a xlink:href="struct_sgl_1_1_insets.html" target="_top" xlink:title=" ">
<polygon fill="white" stroke="black" points="1052.5,-436 1052.5,-548 1131.5,-548 1131.5,-436 1052.5,-436"/>
<text text-anchor="middle" x="1092" y="-536" font-family="Helvetica,sans-Serif" font-size="10.00">Sgl::Insets</text>
<polyline fill="none" stroke="black" points="1052.5,-529 1131.5,-529 "/>
<text text-anchor="middle" x="1092" y="-517" font-family="Helvetica,sans-Serif" font-size="10.00"> </text>
<polyline fill="none" stroke="black" points="1052.5,-510 1131.5,-510 "/>
<text text-anchor="start" x="1060.5" y="-498" font-family="Helvetica,sans-Serif" font-size="10.00">+ Insets()</text>
<text text-anchor="start" x="1060.5" y="-487" font-family="Helvetica,sans-Serif" font-size="10.00">+ Insets()</text>
<text text-anchor="start" x="1060.5" y="-476" font-family="Helvetica,sans-Serif" font-size="10.00">+ Insets()</text>
<text text-anchor="start" x="1060.5" y="-465" font-family="Helvetica,sans-Serif" font-size="10.00">+ Insets()</text>
<text text-anchor="start" x="1060.5" y="-454" font-family="Helvetica,sans-Serif" font-size="10.00">+ operator+=()</text>
<text text-anchor="start" x="1060.5" y="-443" font-family="Helvetica,sans-Serif" font-size="10.00">+ operator&#45;=()</text>
</a>
</g>
</g>
<!-- Node5&#45;&gt;Node19 -->
<g id="edge23" class="edge">
<title>Node5&#45;&gt;Node19</title>
<path fill="none" stroke="#404040" d="M1092,-634.47C1092,-614.37 1092,-586.21 1092,-560.3"/>
<polygon fill="none" stroke="#404040" points="1092,-560.2 1088,-554.2 1092,-548.2 1096,-554.2 1092,-560.2"/>
<text text-anchor="middle" x="1112" y="-608" font-family="Helvetica,sans-Serif" font-size="10.00"> +bottom</text>
<text text-anchor="middle" x="1112" y="-597" font-family="Helvetica,sans-Serif" font-size="10.00">+left</text>
<text text-anchor="middle" x="1112" y="-586" font-family="Helvetica,sans-Serif" font-size="10.00">+right</text>
<text text-anchor="middle" x="1112" y="-575" font-family="Helvetica,sans-Serif" font-size="10.00">+top</text>
</g>
<!-- Node6 -->
<g id="node6" class="node">
<title>Node6</title>
<g id="a_node6"><a xlink:title=" ">
<polygon fill="white" stroke="#bfbfbf" points="136.5,-254 136.5,-311 177.5,-311 177.5,-254 136.5,-254"/>
<text text-anchor="middle" x="157" y="-299" font-family="Helvetica,sans-Serif" font-size="10.00">friend</text>
<polyline fill="none" stroke="#bfbfbf" points="136.5,-292 177.5,-292 "/>
<text text-anchor="middle" x="157" y="-280" font-family="Helvetica,sans-Serif" font-size="10.00"> </text>
<polyline fill="none" stroke="#bfbfbf" points="136.5,-273 177.5,-273 "/>
<text text-anchor="middle" x="157" y="-261" font-family="Helvetica,sans-Serif" font-size="10.00"> </text>
</a>
</g>
</g>
<!-- Node6&#45;&gt;Node3 -->
<g id="edge5" class="edge">
<title>Node6&#45;&gt;Node3</title>
<path fill="none" stroke="#404040" d="M154.98,-253.6C154.58,-227.91 157.81,-189.95 177,-164 202.01,-130.18 243.32,-108.23 279.97,-94.49"/>
<polygon fill="none" stroke="#404040" points="280.37,-94.34 284.67,-88.56 291.67,-90.3 287.37,-96.09 280.37,-94.34"/>
<text text-anchor="middle" x="195.5" y="-167" font-family="Helvetica,sans-Serif" font-size="10.00"> +Scene</text>
</g>
<!-- Node7 -->
<g id="node7" class="node">
<title>Node7</title>
<g id="a_node7"><a xlink:title=" ">
<polygon fill="white" stroke="#bfbfbf" points="195.5,-254 195.5,-311 248.5,-311 248.5,-254 195.5,-254"/>
<text text-anchor="middle" x="222" y="-299" font-family="Helvetica,sans-Serif" font-size="10.00">Visibility</text>
<polyline fill="none" stroke="#bfbfbf" points="195.5,-292 248.5,-292 "/>
<text text-anchor="middle" x="222" y="-280" font-family="Helvetica,sans-Serif" font-size="10.00"> </text>
<polyline fill="none" stroke="#bfbfbf" points="195.5,-273 248.5,-273 "/>
<text text-anchor="middle" x="222" y="-261" font-family="Helvetica,sans-Serif" font-size="10.00"> </text>
</a>
</g>
</g>
<!-- Node7&#45;&gt;Node3 -->
<g id="edge6" class="edge">
<title>Node7&#45;&gt;Node3</title>
<path fill="none" stroke="#404040" d="M214.59,-253.6C209.55,-228.59 206.18,-191.7 221,-164 234.26,-139.23 257.68,-120.1 281.33,-105.97"/>
<polygon fill="none" stroke="#404040" points="281.37,-105.95 284.62,-99.51 291.81,-100.03 288.56,-106.47 281.37,-105.95"/>
<text text-anchor="middle" x="250.5" y="-167" font-family="Helvetica,sans-Serif" font-size="10.00"> #m_Visibility</text>
</g>
<!-- Node8 -->
<g id="node8" class="node">
<title>Node8</title>
<g id="a_node8"><a xlink:title=" ">
<polygon fill="white" stroke="#bfbfbf" points="680.5,-463.5 680.5,-520.5 715.5,-520.5 715.5,-463.5 680.5,-463.5"/>
<text text-anchor="middle" x="698" y="-508.5" font-family="Helvetica,sans-Serif" font-size="10.00">bool</text>
<polyline fill="none" stroke="#bfbfbf" points="680.5,-501.5 715.5,-501.5 "/>
<text text-anchor="middle" x="698" y="-489.5" font-family="Helvetica,sans-Serif" font-size="10.00"> </text>
<polyline fill="none" stroke="#bfbfbf" points="680.5,-482.5 715.5,-482.5 "/>
<text text-anchor="middle" x="698" y="-470.5" font-family="Helvetica,sans-Serif" font-size="10.00"> </text>
</a>
</g>
</g>
<!-- Node8&#45;&gt;Node2 -->
<g id="edge18" class="edge">
<title>Node8&#45;&gt;Node2</title>
<path fill="none" stroke="#404040" d="M702.89,-463.15C708.03,-441 718.12,-410.43 737,-390 773.78,-350.21 828.56,-323.71 874.5,-307.1"/>
<polygon fill="none" stroke="#404040" points="874.65,-307.05 878.99,-301.29 885.98,-303.08 881.63,-308.84 874.65,-307.05"/>
<text text-anchor="middle" x="785.5" y="-398.5" font-family="Helvetica,sans-Serif" font-size="10.00"> #m_NeedLayoutPass</text>
</g>
<!-- Node8&#45;&gt;Node3 -->
<g id="edge7" class="edge">
<title>Node8&#45;&gt;Node3</title>
<path fill="none" stroke="#404040" d="M703.06,-463.2C712.94,-399.02 726.81,-240.16 639,-164 580.85,-113.57 494.28,-91.35 432.21,-81.59"/>
<polygon fill="none" stroke="#404040" points="432,-81.56 425.48,-84.63 420.13,-79.8 426.66,-76.72 432,-81.56"/>
<text text-anchor="middle" x="741" y="-285.5" font-family="Helvetica,sans-Serif" font-size="10.00"> #m_Focused</text>
<text text-anchor="middle" x="741" y="-274.5" font-family="Helvetica,sans-Serif" font-size="10.00">#m_Hovered</text>
</g>
<!-- Node9 -->
<g id="node9" class="node">
<title>Node9</title>
<g id="a_node9"><a xlink:href="class_sgl_1_1_shadow.html" target="_top" xlink:title=" ">
<polygon fill="white" stroke="black" points="305.5,-221 305.5,-344 406.5,-344 406.5,-221 305.5,-221"/>
<text text-anchor="middle" x="356" y="-332" font-family="Helvetica,sans-Serif" font-size="10.00">Sgl::Shadow</text>
<polyline fill="none" stroke="black" points="305.5,-325 406.5,-325 "/>
<text text-anchor="middle" x="356" y="-313" font-family="Helvetica,sans-Serif" font-size="10.00"> </text>
<polyline fill="none" stroke="black" points="305.5,-306 406.5,-306 "/>
<text text-anchor="start" x="313.5" y="-294" font-family="Helvetica,sans-Serif" font-size="10.00">+ Shadow()</text>
<text text-anchor="start" x="313.5" y="-283" font-family="Helvetica,sans-Serif" font-size="10.00">+ ~Shadow()</text>
<text text-anchor="start" x="313.5" y="-272" font-family="Helvetica,sans-Serif" font-size="10.00">+ update()</text>
<text text-anchor="start" x="313.5" y="-261" font-family="Helvetica,sans-Serif" font-size="10.00">+ render()</text>
<text text-anchor="start" x="313.5" y="-250" font-family="Helvetica,sans-Serif" font-size="10.00">+ getTexture()</text>
<text text-anchor="start" x="313.5" y="-239" font-family="Helvetica,sans-Serif" font-size="10.00">+ getSpecification()</text>
<text text-anchor="start" x="313.5" y="-228" font-family="Helvetica,sans-Serif" font-size="10.00">+ setSpecification()</text>
</a>
</g>
</g>
<!-- Node9&#45;&gt;Node3 -->
<g id="edge8" class="edge">
<title>Node9&#45;&gt;Node3</title>
<path fill="none" stroke="#404040" d="M356,-220.92C356,-201.23 356,-179 356,-157.91"/>
<polygon fill="none" stroke="#404040" points="356,-157.65 352,-151.65 356,-145.65 360,-151.65 356,-157.65"/>
<text text-anchor="middle" x="385" y="-167" font-family="Helvetica,sans-Serif" font-size="10.00"> #m_Shadow</text>
</g>
<!-- Node10 -->
<g id="node10" class="node">
<title>Node10</title>
<g id="a_node10"><a xlink:href="class_gui_event_dispatcher.html" target="_top" xlink:title=" ">
<polygon fill="white" stroke="black" points="424.5,-215.5 424.5,-349.5 559.5,-349.5 559.5,-215.5 424.5,-215.5"/>
<text text-anchor="middle" x="492" y="-337.5" font-family="Helvetica,sans-Serif" font-size="10.00">GuiEventDispatcher</text>
<polyline fill="none" stroke="black" points="424.5,-330.5 559.5,-330.5 "/>
<text text-anchor="middle" x="492" y="-318.5" font-family="Helvetica,sans-Serif" font-size="10.00"> </text>
<polyline fill="none" stroke="black" points="424.5,-311.5 559.5,-311.5 "/>
<text text-anchor="start" x="432.5" y="-299.5" font-family="Helvetica,sans-Serif" font-size="10.00">+ ~GuiEventDispatcher()</text>
<text text-anchor="start" x="432.5" y="-288.5" font-family="Helvetica,sans-Serif" font-size="10.00">+ attachFilter()</text>
<text text-anchor="start" x="432.5" y="-277.5" font-family="Helvetica,sans-Serif" font-size="10.00">+ detachFilter()</text>
<text text-anchor="start" x="432.5" y="-266.5" font-family="Helvetica,sans-Serif" font-size="10.00">+ attachHandler()</text>
<text text-anchor="start" x="432.5" y="-255.5" font-family="Helvetica,sans-Serif" font-size="10.00">+ detachHandler()</text>
<text text-anchor="start" x="432.5" y="-244.5" font-family="Helvetica,sans-Serif" font-size="10.00">+ dispatchEvent()</text>
<text text-anchor="start" x="432.5" y="-233.5" font-family="Helvetica,sans-Serif" font-size="10.00"># dispatchCapturingEvent()</text>
<text text-anchor="start" x="432.5" y="-222.5" font-family="Helvetica,sans-Serif" font-size="10.00"># dispatchBubblingEvent()</text>
</a>
</g>
</g>
<!-- Node10&#45;&gt;Node3 -->
<g id="edge9" class="edge">
<title>Node10&#45;&gt;Node3</title>
<path fill="none" stroke="#404040" d="M450.99,-215.32C440.38,-198.49 428.88,-180.51 418,-164 416.2,-161.27 414.37,-158.5 412.5,-155.71"/>
<polygon fill="none" stroke="#404040" points="412.37,-155.51 405.7,-152.75 405.68,-145.54 412.34,-148.29 412.37,-155.51"/>
<text text-anchor="middle" x="460" y="-167" font-family="Helvetica,sans-Serif" font-size="10.00"> #m_Dispatcher</text>
</g>
<!-- Node11 -->
<g id="node11" class="node">
<title>Node11</title>
<g id="a_node11"><a xlink:title=" ">
<polygon fill="white" stroke="#bfbfbf" points="387.5,-463.5 387.5,-520.5 500.5,-520.5 500.5,-463.5 387.5,-463.5"/>
<text text-anchor="middle" x="444" y="-508.5" font-family="Helvetica,sans-Serif" font-size="10.00">Sml::EventDispatcher</text>
<polyline fill="none" stroke="#bfbfbf" points="387.5,-501.5 500.5,-501.5 "/>
<text text-anchor="middle" x="444" y="-489.5" font-family="Helvetica,sans-Serif" font-size="10.00"> </text>
<polyline fill="none" stroke="#bfbfbf" points="387.5,-482.5 500.5,-482.5 "/>
<text text-anchor="middle" x="444" y="-470.5" font-family="Helvetica,sans-Serif" font-size="10.00"> </text>
</a>
</g>
</g>
<!-- Node11&#45;&gt;Node10 -->
<g id="edge10" class="edge">
<title>Node11&#45;&gt;Node10</title>
<path fill="none" stroke="midnightblue" d="M452.7,-453.37C459.38,-424.5 468.77,-383.91 476.7,-349.65"/>
<polygon fill="none" stroke="midnightblue" points="449.22,-452.91 450.37,-463.45 456.04,-454.49 449.22,-452.91"/>
</g>
<!-- Node12 -->
<g id="node12" class="node">
<title>Node12</title>
<g id="a_node12"><a xlink:title=" ">
<polygon fill="white" stroke="#bfbfbf" points="519,-463.5 519,-520.5 567,-520.5 567,-463.5 519,-463.5"/>
<text text-anchor="middle" x="543" y="-508.5" font-family="Helvetica,sans-Serif" font-size="10.00">Notifier</text>
<polyline fill="none" stroke="#bfbfbf" points="519,-501.5 567,-501.5 "/>
<text text-anchor="middle" x="543" y="-489.5" font-family="Helvetica,sans-Serif" font-size="10.00"> </text>
<polyline fill="none" stroke="#bfbfbf" points="519,-482.5 567,-482.5 "/>
<text text-anchor="middle" x="543" y="-470.5" font-family="Helvetica,sans-Serif" font-size="10.00"> </text>
</a>
</g>
</g>
<!-- Node12&#45;&gt;Node10 -->
<g id="edge11" class="edge">
<title>Node12&#45;&gt;Node10</title>
<path fill="none" stroke="#404040" d="M536.23,-463.45C529.85,-437.5 519.99,-397.37 511.19,-361.59"/>
<polygon fill="none" stroke="#404040" points="511.12,-361.3 505.81,-356.43 508.26,-349.65 513.58,-354.52 511.12,-361.3"/>
<text text-anchor="middle" x="569" y="-404" font-family="Helvetica,sans-Serif" font-size="10.00"> #m_FiltersNotifier</text>
<text text-anchor="middle" x="569" y="-393" font-family="Helvetica,sans-Serif" font-size="10.00">#m_HandlersNotifier</text>
</g>
<!-- Node13&#45;&gt;Node3 -->
<g id="edge12" class="edge">
<title>Node13&#45;&gt;Node3</title>
<path fill="none" stroke="#404040" d="M28.86,-226.23C27.65,-204.8 30.51,-181.31 44,-164 72.98,-126.81 197.3,-99.8 279.99,-85.54"/>
<polygon fill="none" stroke="#404040" points="280.04,-85.53 285.29,-80.58 291.87,-83.53 286.62,-88.47 280.04,-85.53"/>
<text text-anchor="middle" x="69" y="-167" font-family="Helvetica,sans-Serif" font-size="10.00"> #m_Scene</text>
</g>
<!-- Node14 -->
<g id="node14" class="node">
<title>Node14</title>
<g id="a_node14"><a xlink:title=" ">
<polygon fill="white" stroke="#bfbfbf" points="577.5,-254 577.5,-311 644.5,-311 644.5,-254 577.5,-254"/>
<text text-anchor="middle" x="611" y="-299" font-family="Helvetica,sans-Serif" font-size="10.00">Rectangle&lt;</text>
<polyline fill="none" stroke="#bfbfbf" points="577.5,-292 644.5,-292 "/>
<text text-anchor="middle" x="611" y="-280" font-family="Helvetica,sans-Serif" font-size="10.00"> </text>
<polyline fill="none" stroke="#bfbfbf" points="577.5,-273 644.5,-273 "/>
<text text-anchor="middle" x="611" y="-261" font-family="Helvetica,sans-Serif" font-size="10.00"> </text>
</a>
</g>
</g>
<!-- Node14&#45;&gt;Node3 -->
<g id="edge15" class="edge">
<title>Node14&#45;&gt;Node3</title>
<path fill="none" stroke="#404040" d="M602.47,-253.77C595.56,-234.89 584.29,-210.28 568,-193 530.1,-152.79 475.53,-122.59 431.24,-102.67"/>
<polygon fill="none" stroke="#404040" points="431.21,-102.66 424.11,-103.91 420.22,-97.83 427.33,-96.58 431.21,-102.66"/>
<text text-anchor="middle" x="592.5" y="-167" font-family="Helvetica,sans-Serif" font-size="10.00"> #m_LayoutBounds</text>
</g>
<!-- Node15 -->
<g id="node15" class="node">
<title>Node15</title>
<g id="a_node15"><a xlink:title=" ">
<polygon fill="white" stroke="#bfbfbf" points="816.5,-463.5 816.5,-520.5 851.5,-520.5 851.5,-463.5 816.5,-463.5"/>
<text text-anchor="middle" x="834" y="-508.5" font-family="Helvetica,sans-Serif" font-size="10.00">list&lt;</text>
<polyline fill="none" stroke="#bfbfbf" points="816.5,-501.5 851.5,-501.5 "/>
<text text-anchor="middle" x="834" y="-489.5" font-family="Helvetica,sans-Serif" font-size="10.00"> </text>
<polyline fill="none" stroke="#bfbfbf" points="816.5,-482.5 851.5,-482.5 "/>
<text text-anchor="middle" x="834" y="-470.5" font-family="Helvetica,sans-Serif" font-size="10.00"> </text>
</a>
</g>
</g>
<!-- Node15&#45;&gt;Node2 -->
<g id="edge16" class="edge">
<title>Node15&#45;&gt;Node2</title>
<path fill="none" stroke="#404040" d="M831.96,-463.4C831.55,-442.24 833.56,-412.87 845,-390 852.98,-374.06 864.39,-359.28 876.94,-346.11"/>
<polygon fill="none" stroke="#404040" points="877.3,-345.75 878.71,-338.67 885.78,-337.26 884.37,-344.33 877.3,-345.75"/>
<text text-anchor="middle" x="874" y="-398.5" font-family="Helvetica,sans-Serif" font-size="10.00"> #m_Children</text>
</g>
<!-- Node16 -->
<g id="node16" class="node">
<title>Node16</title>
<g id="a_node16"><a xlink:title=" ">
<polygon fill="white" stroke="#bfbfbf" points="870,-463.5 870,-520.5 926,-520.5 926,-463.5 870,-463.5"/>
<text text-anchor="middle" x="898" y="-508.5" font-family="Helvetica,sans-Serif" font-size="10.00">Texture *</text>
<polyline fill="none" stroke="#bfbfbf" points="870,-501.5 926,-501.5 "/>
<text text-anchor="middle" x="898" y="-489.5" font-family="Helvetica,sans-Serif" font-size="10.00"> </text>
<polyline fill="none" stroke="#bfbfbf" points="870,-482.5 926,-482.5 "/>
<text text-anchor="middle" x="898" y="-470.5" font-family="Helvetica,sans-Serif" font-size="10.00"> </text>
</a>
</g>
</g>
<!-- Node16&#45;&gt;Node2 -->
<g id="edge17" class="edge">
<title>Node16&#45;&gt;Node2</title>
<path fill="none" stroke="#404040" d="M899.77,-463.14C901.58,-442.61 905.13,-414.18 912,-390 912.64,-387.74 913.32,-385.47 914.04,-383.18"/>
<polygon fill="none" stroke="#404040" points="914.06,-383.11 912.17,-376.15 917.87,-371.73 919.76,-378.69 914.06,-383.11"/>
<text text-anchor="middle" x="944" y="-398.5" font-family="Helvetica,sans-Serif" font-size="10.00"> #m_Snapshot</text>
</g>
<!-- Node17 -->
<g id="node17" class="node">
<title>Node17</title>
<g id="a_node17"><a xlink:href="class_sgl_1_1_background.html" target="_top" xlink:title=" ">
<polygon fill="white" stroke="black" points="1467.5,-430.5 1467.5,-553.5 1556.5,-553.5 1556.5,-430.5 1467.5,-430.5"/>
<text text-anchor="middle" x="1512" y="-541.5" font-family="Helvetica,sans-Serif" font-size="10.00">Sgl::Background</text>
<polyline fill="none" stroke="black" points="1467.5,-534.5 1556.5,-534.5 "/>
<text text-anchor="middle" x="1512" y="-522.5" font-family="Helvetica,sans-Serif" font-size="10.00"> </text>
<polyline fill="none" stroke="black" points="1467.5,-515.5 1556.5,-515.5 "/>
<text text-anchor="start" x="1475.5" y="-503.5" font-family="Helvetica,sans-Serif" font-size="10.00">+ Background()</text>
<text text-anchor="start" x="1475.5" y="-492.5" font-family="Helvetica,sans-Serif" font-size="10.00">+ Background()</text>
<text text-anchor="start" x="1475.5" y="-481.5" font-family="Helvetica,sans-Serif" font-size="10.00">+ Background()</text>
<text text-anchor="start" x="1475.5" y="-470.5" font-family="Helvetica,sans-Serif" font-size="10.00">+ Background()</text>
<text text-anchor="start" x="1475.5" y="-459.5" font-family="Helvetica,sans-Serif" font-size="10.00">+ addFill()</text>
<text text-anchor="start" x="1475.5" y="-448.5" font-family="Helvetica,sans-Serif" font-size="10.00">and 5 more...</text>
<text text-anchor="start" x="1475.5" y="-437.5" font-family="Helvetica,sans-Serif" font-size="10.00">+ fillArea()</text>
</a>
</g>
</g>
<!-- Node17&#45;&gt;Node1 -->
<g id="edge28" class="edge">
<title>Node17&#45;&gt;Node1</title>
<path fill="none" stroke="#404040" d="M1511.68,-430.47C1508.95,-362 1497.17,-248.99 1452,-164 1446.07,-152.84 1438.4,-142.04 1430.11,-132.02"/>
<polygon fill="none" stroke="#404040" points="1429.87,-131.74 1422.92,-129.83 1422.01,-122.68 1428.96,-124.59 1429.87,-131.74"/>
<text text-anchor="middle" x="1573.5" y="-280" font-family="Helvetica,sans-Serif" font-size="10.00"> +DEFAULT_BACKGROUND</text>
</g>
<!-- Node17&#45;&gt;Node2 -->
<g id="edge19" class="edge">
<title>Node17&#45;&gt;Node2</title>
<path fill="none" stroke="#404040" d="M1467.34,-444.24C1445.61,-424.32 1417.95,-402.77 1389,-390 1381,-386.47 1167.17,-334.16 1044.13,-304.2"/>
<polygon fill="none" stroke="#404040" points="1043.81,-304.12 1037.03,-306.58 1032.15,-301.28 1038.93,-298.81 1043.81,-304.12"/>
<text text-anchor="middle" x="1463" y="-398.5" font-family="Helvetica,sans-Serif" font-size="10.00"> #m_Background</text>
</g>
<!-- Node18 -->
<g id="node18" class="node">
<title>Node18</title>
<g id="a_node18"><a xlink:href="class_sgl_1_1_border.html" target="_top" xlink:title=" ">
<polygon fill="white" stroke="black" points="944,-436 944,-548 1034,-548 1034,-436 944,-436"/>
<text text-anchor="middle" x="989" y="-536" font-family="Helvetica,sans-Serif" font-size="10.00">Sgl::Border</text>
<polyline fill="none" stroke="black" points="944,-529 1034,-529 "/>
<text text-anchor="middle" x="989" y="-517" font-family="Helvetica,sans-Serif" font-size="10.00"> </text>
<polyline fill="none" stroke="black" points="944,-510 1034,-510 "/>
<text text-anchor="start" x="952" y="-498" font-family="Helvetica,sans-Serif" font-size="10.00">+ Border()</text>
<text text-anchor="start" x="952" y="-487" font-family="Helvetica,sans-Serif" font-size="10.00">+ Border()</text>
<text text-anchor="start" x="952" y="-476" font-family="Helvetica,sans-Serif" font-size="10.00">+ Border()</text>
<text text-anchor="start" x="952" y="-465" font-family="Helvetica,sans-Serif" font-size="10.00">+ getThickness()</text>
<text text-anchor="start" x="952" y="-454" font-family="Helvetica,sans-Serif" font-size="10.00">+ getColor()</text>
<text text-anchor="start" x="952" y="-443" font-family="Helvetica,sans-Serif" font-size="10.00">+ encloseArea()</text>
</a>
</g>
</g>
<!-- Node18&#45;&gt;Node2 -->
<g id="edge20" class="edge">
<title>Node18&#45;&gt;Node2</title>
<path fill="none" stroke="#404040" d="M985.15,-435.84C983.82,-420.92 982.11,-404.81 980,-390 979.71,-387.95 979.4,-385.88 979.08,-383.79"/>
<polygon fill="none" stroke="#404040" points="979.05,-383.56 974.14,-378.27 977.14,-371.71 982.04,-377 979.05,-383.56"/>
<text text-anchor="middle" x="1008.5" y="-398.5" font-family="Helvetica,sans-Serif" font-size="10.00"> #m_Border</text>
</g>
<!-- Node19&#45;&gt;Node2 -->
<g id="edge21" class="edge">
<title>Node19&#45;&gt;Node2</title>
<path fill="none" stroke="#404040" d="M1064.43,-435.91C1056.35,-420.77 1047.2,-404.53 1038,-390 1036.27,-387.27 1034.49,-384.52 1032.68,-381.75"/>
<polygon fill="none" stroke="#404040" points="1032.63,-381.69 1025.97,-378.93 1025.96,-371.72 1032.62,-374.48 1032.63,-381.69"/>
<text text-anchor="middle" x="1080" y="-398.5" font-family="Helvetica,sans-Serif" font-size="10.00"> #m_Padding</text>
</g>
<!-- Node19&#45;&gt;Node19 -->
<g id="edge22" class="edge">
<title>Node19&#45;&gt;Node19</title>
<path fill="none" stroke="#404040" d="M1131.51,-508.7C1141.76,-507.67 1149.5,-502.11 1149.5,-492 1149.5,-486.31 1147.05,-482.07 1143.08,-479.25"/>
<polygon fill="none" stroke="#404040" points="1142.86,-479.18 1135.89,-481.02 1131.51,-475.3 1138.48,-473.45 1142.86,-479.18"/>
<text text-anchor="middle" x="1171.5" y="-489.5" font-family="Helvetica,sans-Serif" font-size="10.00"> +EMPTY</text>
</g>
<!-- Node20 -->
<g id="node20" class="node">
<title>Node20</title>
<g id="a_node20"><a xlink:href="class_sgl_1_1_color_fill.html" target="_top" xlink:title=" ">
<polygon fill="white" stroke="black" points="1331.5,-226.5 1331.5,-338.5 1404.5,-338.5 1404.5,-226.5 1331.5,-226.5"/>
<text text-anchor="middle" x="1368" y="-326.5" font-family="Helvetica,sans-Serif" font-size="10.00">Sgl::ColorFill</text>
<polyline fill="none" stroke="black" points="1331.5,-319.5 1404.5,-319.5 "/>
<text text-anchor="middle" x="1368" y="-307.5" font-family="Helvetica,sans-Serif" font-size="10.00"> </text>
<polyline fill="none" stroke="black" points="1331.5,-300.5 1404.5,-300.5 "/>
<text text-anchor="start" x="1339.5" y="-288.5" font-family="Helvetica,sans-Serif" font-size="10.00">+ ColorFill()</text>
<text text-anchor="start" x="1339.5" y="-277.5" font-family="Helvetica,sans-Serif" font-size="10.00">+ fillLine()</text>
<text text-anchor="start" x="1339.5" y="-266.5" font-family="Helvetica,sans-Serif" font-size="10.00">+ fillArea()</text>
<text text-anchor="start" x="1339.5" y="-255.5" font-family="Helvetica,sans-Serif" font-size="10.00">+ fillPoint()</text>
<text text-anchor="start" x="1339.5" y="-244.5" font-family="Helvetica,sans-Serif" font-size="10.00">+ getColor()</text>
<text text-anchor="start" x="1339.5" y="-233.5" font-family="Helvetica,sans-Serif" font-size="10.00">+ setColor()</text>
</a>
</g>
</g>
<!-- Node20&#45;&gt;Node1 -->
<g id="edge25" class="edge">
<title>Node20&#45;&gt;Node1</title>
<path fill="none" stroke="#404040" d="M1368,-226.44C1368,-198.62 1368,-164.76 1368,-136.02"/>
<polygon fill="none" stroke="#404040" points="1368,-135.64 1364,-129.64 1368,-123.64 1372,-129.64 1368,-135.64"/>
<text text-anchor="middle" x="1408" y="-167" font-family="Helvetica,sans-Serif" font-size="10.00"> +DEFAULT_FILL</text>
</g>
<!-- Node21 -->
<g id="node21" class="node">
<title>Node21</title>
<g id="a_node21"><a xlink:href="class_sgl_1_1_fill.html" target="_top" xlink:title=" ">
<polygon fill="white" stroke="black" points="1376,-452.5 1376,-531.5 1440,-531.5 1440,-452.5 1376,-452.5"/>
<text text-anchor="middle" x="1408" y="-519.5" font-family="Helvetica,sans-Serif" font-size="10.00">Sgl::Fill</text>
<polyline fill="none" stroke="black" points="1376,-512.5 1440,-512.5 "/>
<text text-anchor="middle" x="1408" y="-500.5" font-family="Helvetica,sans-Serif" font-size="10.00"> </text>
<polyline fill="none" stroke="black" points="1376,-493.5 1440,-493.5 "/>
<text text-anchor="start" x="1384" y="-481.5" font-family="Helvetica,sans-Serif" font-size="10.00">+ fillLine()</text>
<text text-anchor="start" x="1384" y="-470.5" font-family="Helvetica,sans-Serif" font-size="10.00">+ fillArea()</text>
<text text-anchor="start" x="1384" y="-459.5" font-family="Helvetica,sans-Serif" font-size="10.00">+ fillPoint()</text>
</a>
</g>
</g>
<!-- Node21&#45;&gt;Node20 -->
<g id="edge26" class="edge">
<title>Node21&#45;&gt;Node20</title>
<path fill="none" stroke="midnightblue" d="M1398.61,-442.3C1392.62,-411.24 1384.85,-370.91 1378.63,-338.66"/>
<polygon fill="none" stroke="midnightblue" points="1395.24,-443.3 1400.57,-452.46 1402.11,-441.98 1395.24,-443.3"/>
</g>
<!-- Node22 -->
<g id="node22" class="node">
<title>Node22</title>
<g id="a_node22"><a xlink:title=" ">
<polygon fill="white" stroke="#bfbfbf" points="1318,-463.5 1318,-520.5 1358,-520.5 1358,-463.5 1318,-463.5"/>
<text text-anchor="middle" x="1338" y="-508.5" font-family="Helvetica,sans-Serif" font-size="10.00">Color</text>
<polyline fill="none" stroke="#bfbfbf" points="1318,-501.5 1358,-501.5 "/>
<text text-anchor="middle" x="1338" y="-489.5" font-family="Helvetica,sans-Serif" font-size="10.00"> </text>
<polyline fill="none" stroke="#bfbfbf" points="1318,-482.5 1358,-482.5 "/>
<text text-anchor="middle" x="1338" y="-470.5" font-family="Helvetica,sans-Serif" font-size="10.00"> </text>
</a>
</g>
</g>
<!-- Node22&#45;&gt;Node20 -->
<g id="edge27" class="edge">
<title>Node22&#45;&gt;Node20</title>
<path fill="none" stroke="#404040" d="M1336.38,-463.43C1335.64,-443.04 1335.58,-414.66 1339,-390 1340.79,-377.07 1343.69,-363.47 1346.97,-350.49"/>
<polygon fill="none" stroke="#404040" points="1347,-350.37 1344.67,-343.54 1350.07,-338.77 1352.4,-345.59 1347,-350.37"/>
<text text-anchor="middle" x="1362" y="-398.5" font-family="Helvetica,sans-Serif" font-size="10.00"> #m_Color</text>
</g>
</g>
</svg>
        <g id="navigator" transform="translate(0 0)" fill="#404254">
                <rect fill="#f2f5e9" fill-opacity="0.5" stroke="#606060" stroke-width=".5" x="0" y="0" width="60" height="60"/>
                <use id="zoomplus" xlink:href="#zoomPlus" x="17" y="9" onmousedown="handleZoom(evt,'in')"/>
                <use id="zoomminus" xlink:href="#zoomMin" x="42" y="9" onmousedown="handleZoom(evt,'out')"/>
                <use id="reset" xlink:href="#resetDef" x="30" y="36" onmousedown="handleReset()"/>
                <g id="arrowUp" xlink:href="#dirArrow" transform="translate(30 24)" onmousedown="handlePan(0,-1)">
                  <use xlink:href="#rim" fill="#404040">
                        <set attributeName="fill" to="#808080" begin="arrowUp.mouseover" end="arrowUp.mouseout"/>
                  </use>
                  <path fill="none" stroke="white" stroke-width="1.5" d="M0,-3.0v7 M-2.5,-0.5L0,-3.0L2.5,-0.5"/>
                </g>
                <g id="arrowRight" xlink:href="#dirArrow" transform="rotate(90) translate(36 -43)" onmousedown="handlePan(1,0)">
                  <use xlink:href="#rim" fill="#404040">
                        <set attributeName="fill" to="#808080" begin="arrowRight.mouseover" end="arrowRight.mouseout"/>
                  </use>
                  <path fill="none" stroke="white" stroke-width="1.5" d="M0,-3.0v7 M-2.5,-0.5L0,-3.0L2.5,-0.5"/>
                </g>
                <g id="arrowDown" xlink:href="#dirArrow" transform="rotate(180) translate(-30 -48)" onmousedown="handlePan(0,1)">
                  <use xlink:href="#rim" fill="#404040">
                        <set attributeName="fill" to="#808080" begin="arrowDown.mouseover" end="arrowDown.mouseout"/>
                  </use>
                  <path fill="none" stroke="white" stroke-width="1.5" d="M0,-3.0v7 M-2.5,-0.5L0,-3.0L2.5,-0.5"/>
                </g>
                <g id="arrowLeft" xlink:href="#dirArrow" transform="rotate(270) translate(-36 17)" onmousedown="handlePan(-1,0)">
                  <use xlink:href="#rim" fill="#404040">
                        <set attributeName="fill" to="#808080" begin="arrowLeft.mouseover" end="arrowLeft.mouseout"/>
                  </use>
                  <path fill="none" stroke="white" stroke-width="1.5" d="M0,-3.0v7 M-2.5,-0.5L0,-3.0L2.5,-0.5"/>
                </g>
        </g>
        <svg viewBox="0 0 15 15" width="100%" height="30px" preserveAspectRatio="xMaxYMin meet">
         <g id="arrow_out" transform="scale(0.3 0.3)">
          <a xlink:href="class_sgl_1_1_container__coll__graph_org.svg" target="_base">
           <rect id="button" ry="5" rx="5" y="6" x="6" height="38" width="38"
                fill="#f2f5e9" fill-opacity="0.5" stroke="#606060" stroke-width="1.0"/>
           <path id="arrow"
             d="M 11.500037,31.436501 C 11.940474,20.09759 22.043105,11.32322 32.158766,21.979434 L 37.068811,17.246167 C 37.068811,17.246167 37.088388,32 37.088388,32 L 22.160133,31.978069 C 22.160133,31.978069 26.997745,27.140456 26.997745,27.140456 C 18.528582,18.264221 13.291696,25.230495 11.500037,31.436501 z"
             style="fill:#404040;"/>
          </a>
         </g>
        </svg>
</svg>
