<?xml version="1.0" encoding="UTF-8" standalone="no"?>
<!DOCTYPE svg PUBLIC "-//W3C//DTD SVG 1.1//EN"
 "http://www.w3.org/Graphics/SVG/1.1/DTD/svg11.dtd">
<!-- Generated by graphviz version 2.50.0 (20211204.2007)
 -->
<!-- Title: Sgl::DefaultSkins::SliderSkinMousePressListener Pages: 1 -->
<svg width="276pt" height="438pt"
 viewBox="0.00 0.00 276.00 438.00" xmlns="http://www.w3.org/2000/svg" xmlns:xlink="http://www.w3.org/1999/xlink">
<g id="graph0" class="graph" transform="scale(1 1) rotate(0) translate(4 434)">
<title>Sgl::DefaultSkins::SliderSkinMousePressListener</title>
<polygon fill="white" stroke="transparent" points="-4,4 -4,-434 272,-434 272,4 -4,4"/>
<!-- Node1 -->
<g id="node1" class="node">
<title>Node1</title>
<g id="a_node1"><a xlink:title=" ">
<polygon fill="#bfbfbf" stroke="black" points="0,-0.5 0,-79.5 165,-79.5 165,-0.5 0,-0.5"/>
<text text-anchor="start" x="8" y="-67.5" font-family="Helvetica,sans-Serif" font-size="10.00">Sgl::DefaultSkins::</text>
<text text-anchor="middle" x="82.5" y="-56.5" font-family="Helvetica,sans-Serif" font-size="10.00">SliderSkinMousePressListener</text>
<polyline fill="none" stroke="black" points="0,-49.5 165,-49.5 "/>
<text text-anchor="middle" x="82.5" y="-37.5" font-family="Helvetica,sans-Serif" font-size="10.00"> </text>
<polyline fill="none" stroke="black" points="0,-30.5 165,-30.5 "/>
<text text-anchor="start" x="8" y="-18.5" font-family="Helvetica,sans-Serif" font-size="10.00">+ SliderSkinMousePressListener()</text>
<text text-anchor="start" x="8" y="-7.5" font-family="Helvetica,sans-Serif" font-size="10.00">+ onEvent()</text>
</a>
</g>
</g>
<!-- Node2 -->
<g id="node2" class="node">
<title>Node2</title>
<g id="a_node2"><a xlink:href="class_sgl_1_1_component_event_listener.html" target="_top" xlink:title=" ">
<polygon fill="white" stroke="black" points="9,-117.5 9,-207.5 156,-207.5 156,-117.5 9,-117.5"/>
<text text-anchor="start" x="17" y="-195.5" font-family="Helvetica,sans-Serif" font-size="10.00">Sgl::ComponentEventListener</text>
<text text-anchor="middle" x="82.5" y="-184.5" font-family="Helvetica,sans-Serif" font-size="10.00">&lt; Slider &gt;</text>
<polyline fill="none" stroke="black" points="9,-177.5 156,-177.5 "/>
<text text-anchor="middle" x="82.5" y="-165.5" font-family="Helvetica,sans-Serif" font-size="10.00"> </text>
<polyline fill="none" stroke="black" points="9,-158.5 156,-158.5 "/>
<text text-anchor="start" x="17" y="-146.5" font-family="Helvetica,sans-Serif" font-size="10.00">+ ComponentEventListener()</text>
<text text-anchor="start" x="17" y="-135.5" font-family="Helvetica,sans-Serif" font-size="10.00">+ getComponent()</text>
<text text-anchor="start" x="17" y="-124.5" font-family="Helvetica,sans-Serif" font-size="10.00">+ setComponent()</text>
</a>
</g>
</g>
<!-- Node2&#45;&gt;Node1 -->
<g id="edge1" class="edge">
<title>Node2&#45;&gt;Node1</title>
<path fill="none" stroke="midnightblue" d="M82.5,-107.3C82.5,-97.97 82.5,-88.43 82.5,-79.61"/>
<polygon fill="none" stroke="midnightblue" points="79,-107.31 82.5,-117.31 86,-107.31 79,-107.31"/>
</g>
<!-- Node3 -->
<g id="node3" class="node">
<title>Node3</title>
<g id="a_node3"><a xlink:title=" ">
<polygon fill="white" stroke="#bfbfbf" points="41.5,-372.5 41.5,-429.5 115.5,-429.5 115.5,-372.5 41.5,-372.5"/>
<text text-anchor="middle" x="78.5" y="-417.5" font-family="Helvetica,sans-Serif" font-size="10.00">Sml::Listener</text>
<polyline fill="none" stroke="#bfbfbf" points="41.5,-410.5 115.5,-410.5 "/>
<text text-anchor="middle" x="78.5" y="-398.5" font-family="Helvetica,sans-Serif" font-size="10.00"> </text>
<polyline fill="none" stroke="#bfbfbf" points="41.5,-391.5 115.5,-391.5 "/>
<text text-anchor="middle" x="78.5" y="-379.5" font-family="Helvetica,sans-Serif" font-size="10.00"> </text>
</a>
</g>
</g>
<!-- Node3&#45;&gt;Node2 -->
<g id="edge2" class="edge">
<title>Node3&#45;&gt;Node2</title>
<path fill="none" stroke="midnightblue" d="M79.14,-362.31C79.85,-320.27 81,-252.35 81.75,-207.81"/>
<polygon fill="none" stroke="midnightblue" points="75.64,-362.35 78.97,-372.41 82.64,-362.47 75.64,-362.35"/>
</g>
<!-- Node4 -->
<g id="node4" class="node">
<title>Node4</title>
<g id="a_node4"><a xlink:href="class_sgl_1_1_component_event_listener.html" target="_top" xlink:title=" ">
<polygon fill="white" stroke="black" points="95,-255.5 95,-334.5 268,-334.5 268,-255.5 95,-255.5"/>
<text text-anchor="middle" x="181.5" y="-322.5" font-family="Helvetica,sans-Serif" font-size="10.00">Sgl::ComponentEventListener&lt; C &gt;</text>
<polyline fill="none" stroke="black" points="95,-315.5 268,-315.5 "/>
<text text-anchor="middle" x="181.5" y="-303.5" font-family="Helvetica,sans-Serif" font-size="10.00"> </text>
<polyline fill="none" stroke="black" points="95,-296.5 268,-296.5 "/>
<text text-anchor="start" x="103" y="-284.5" font-family="Helvetica,sans-Serif" font-size="10.00">+ ComponentEventListener()</text>
<text text-anchor="start" x="103" y="-273.5" font-family="Helvetica,sans-Serif" font-size="10.00">+ getComponent()</text>
<text text-anchor="start" x="103" y="-262.5" font-family="Helvetica,sans-Serif" font-size="10.00">+ setComponent()</text>
</a>
</g>
</g>
<!-- Node3&#45;&gt;Node4 -->
<g id="edge4" class="edge">
<title>Node3&#45;&gt;Node4</title>
<path fill="none" stroke="midnightblue" d="M113.03,-365.13C122.71,-355.36 133.3,-344.67 143.18,-334.69"/>
<polygon fill="none" stroke="midnightblue" points="110.38,-362.83 105.83,-372.4 115.36,-367.76 110.38,-362.83"/>
</g>
<!-- Node4&#45;&gt;Node2 -->
<g id="edge3" class="edge">
<title>Node4&#45;&gt;Node2</title>
<path fill="none" stroke="orange" d="M145.84,-246.99C136.16,-234.24 125.73,-220.48 116.17,-207.88"/>
<polygon fill="orange" stroke="orange" points="143.23,-249.35 152.06,-255.2 148.81,-245.12 143.23,-249.35"/>
<text text-anchor="middle" x="160.5" y="-229" font-family="Helvetica,sans-Serif" font-size="10.00"> &lt; Slider &gt;</text>
</g>
</g>
</svg>
