<?xml version="1.0" encoding="UTF-8" standalone="no"?>
<!DOCTYPE svg PUBLIC "-//W3C//DTD SVG 1.1//EN"
 "http://www.w3.org/Graphics/SVG/1.1/DTD/svg11.dtd">
<!-- Generated by graphviz version 2.50.0 (20211204.2007)
 -->
<!-- Title: Sgl::DefaultSkins::ButtonBaseSkin Pages: 1 -->
<!--zoomable 709 -->
<svg id="main" version="1.1" xmlns="http://www.w3.org/2000/svg" xmlns:xlink="http://www.w3.org/1999/xlink" xml:space="preserve" onload="init(evt)">
<style type="text/css"><![CDATA[
.edge:hover path { stroke: red; }
.edge:hover polygon { stroke: red; fill: red; }
]]></style>
<script type="text/javascript"><![CDATA[
var edges = document.getElementsByTagName('g');
if (edges && edges.length) {
  for (var i=0;i<edges.length;i++) {
    if (edges[i].id.substr(0,4)=='edge') {
      edges[i].setAttribute('class','edge');
    }
  }
}
]]></script>
        <defs>
                <circle id="rim" cx="0" cy="0" r="7"/>
                <circle id="rim2" cx="0" cy="0" r="3.5"/>
                <g id="zoomPlus">
                        <use xlink:href="#rim" fill="#404040">
                                <set attributeName="fill" to="#808080" begin="zoomplus.mouseover" end="zoomplus.mouseout"/>
                        </use>
                        <path d="M-4,0h8M0,-4v8" fill="none" stroke="white" stroke-width="1.5" pointer-events="none"/>
                </g>
                <g id="zoomMin">
                        <use xlink:href="#rim" fill="#404040">
                                <set attributeName="fill" to="#808080" begin="zoomminus.mouseover" end="zoomminus.mouseout"/>
                        </use>
                        <path d="M-4,0h8" fill="none" stroke="white" stroke-width="1.5" pointer-events="none"/>
                </g>
                <g id="dirArrow">
                        <path fill="none" stroke="white" stroke-width="1.5" d="M0,-3.0v7 M-2.5,-0.5L0,-3.0L2.5,-0.5"/>
                </g>
               <g id="resetDef">
                       <use xlink:href="#rim2" fill="#404040">
                               <set attributeName="fill" to="#808080" begin="reset.mouseover" end="reset.mouseout"/>
                       </use>
               </g>
        </defs>

<script type="text/javascript">
var viewWidth = 542;
var viewHeight = 709;
var sectionId = 'dynsection-0';
</script>
<script xlink:href="svgpan.js"/>
<svg id="graph" class="graph">
<g id="viewport">
<title>Sgl::DefaultSkins::ButtonBaseSkin</title>
<polygon fill="white" stroke="transparent" points="-4,4 -4,-705 538,-705 538,4 -4,4"/>
<!-- Node1 -->
<g id="node1" class="node">
<title>Node1</title>
<g id="a_node1"><a xlink:title=" ">
<polygon fill="#bfbfbf" stroke="black" points="187,-161.5 187,-350.5 357,-350.5 357,-161.5 187,-161.5"/>
<text text-anchor="middle" x="272" y="-338.5" font-family="Helvetica,sans-Serif" font-size="10.00">Sgl::DefaultSkins::ButtonBaseSkin</text>
<polyline fill="none" stroke="black" points="187,-331.5 357,-331.5 "/>
<text text-anchor="start" x="195" y="-319.5" font-family="Helvetica,sans-Serif" font-size="10.00"># m_StaticStyle</text>
<text text-anchor="start" x="195" y="-308.5" font-family="Helvetica,sans-Serif" font-size="10.00"># m_IdleStyle</text>
<text text-anchor="start" x="195" y="-297.5" font-family="Helvetica,sans-Serif" font-size="10.00"># m_HoveredStyle</text>
<text text-anchor="start" x="195" y="-286.5" font-family="Helvetica,sans-Serif" font-size="10.00"># m_PressedStyle</text>
<text text-anchor="start" x="195" y="-275.5" font-family="Helvetica,sans-Serif" font-size="10.00"># m_Button</text>
<text text-anchor="start" x="195" y="-264.5" font-family="Helvetica,sans-Serif" font-size="10.00">and 3 more...</text>
<polyline fill="none" stroke="black" points="187,-257.5 357,-257.5 "/>
<text text-anchor="start" x="195" y="-245.5" font-family="Helvetica,sans-Serif" font-size="10.00">+ ButtonBaseSkin()</text>
<text text-anchor="start" x="195" y="-234.5" font-family="Helvetica,sans-Serif" font-size="10.00">+ ButtonBaseSkin()</text>
<text text-anchor="start" x="195" y="-223.5" font-family="Helvetica,sans-Serif" font-size="10.00">+ dispose()</text>
<text text-anchor="start" x="195" y="-212.5" font-family="Helvetica,sans-Serif" font-size="10.00">+ attach()</text>
<text text-anchor="start" x="195" y="-201.5" font-family="Helvetica,sans-Serif" font-size="10.00">+ prerenderControl()</text>
<text text-anchor="start" x="195" y="-190.5" font-family="Helvetica,sans-Serif" font-size="10.00">and 6 more...</text>
<text text-anchor="start" x="195" y="-179.5" font-family="Helvetica,sans-Serif" font-size="10.00"># getMargin()</text>
<text text-anchor="start" x="195" y="-168.5" font-family="Helvetica,sans-Serif" font-size="10.00"># applyStaticStyle()</text>
</a>
</g>
</g>
<!-- Node5 -->
<g id="node5" class="node">
<title>Node5</title>
<g id="a_node5"><a xlink:href="class_sgl_1_1_default_skins_1_1_button_plane_skin.html" target="_top" xlink:title=" ">
<polygon fill="white" stroke="black" points="0,-28 0,-96 172,-96 172,-28 0,-28"/>
<text text-anchor="middle" x="86" y="-84" font-family="Helvetica,sans-Serif" font-size="10.00">Sgl::DefaultSkins::ButtonPlaneSkin</text>
<polyline fill="none" stroke="black" points="0,-77 172,-77 "/>
<text text-anchor="middle" x="86" y="-65" font-family="Helvetica,sans-Serif" font-size="10.00"> </text>
<polyline fill="none" stroke="black" points="0,-58 172,-58 "/>
<text text-anchor="start" x="8" y="-46" font-family="Helvetica,sans-Serif" font-size="10.00">+ ButtonPlaneSkin()</text>
<text text-anchor="start" x="8" y="-35" font-family="Helvetica,sans-Serif" font-size="10.00">+ ButtonPlaneSkin()</text>
</a>
</g>
</g>
<!-- Node1&#45;&gt;Node5 -->
<g id="edge5" class="edge">
<title>Node1&#45;&gt;Node5</title>
<path fill="none" stroke="midnightblue" d="M179.7,-159.73C157.54,-136.84 135.32,-113.91 118.08,-96.12"/>
<polygon fill="none" stroke="midnightblue" points="177.42,-162.4 186.89,-167.15 182.45,-157.53 177.42,-162.4"/>
</g>
<!-- Node6 -->
<g id="node6" class="node">
<title>Node6</title>
<g id="a_node6"><a xlink:href="class_sgl_1_1_default_skins_1_1_button_skin.html" target="_top" xlink:title=" ">
<polygon fill="white" stroke="black" points="190,-0.5 190,-123.5 354,-123.5 354,-0.5 190,-0.5"/>
<text text-anchor="middle" x="272" y="-111.5" font-family="Helvetica,sans-Serif" font-size="10.00">Sgl::DefaultSkins::ButtonSkin</text>
<polyline fill="none" stroke="black" points="190,-104.5 354,-104.5 "/>
<text text-anchor="start" x="198" y="-92.5" font-family="Helvetica,sans-Serif" font-size="10.00">+ PADDING_LABEL_ONLY</text>
<text text-anchor="start" x="198" y="-81.5" font-family="Helvetica,sans-Serif" font-size="10.00">+ PADDING_ICON_ONLY</text>
<text text-anchor="start" x="198" y="-70.5" font-family="Helvetica,sans-Serif" font-size="10.00">+ PADDING_LABEL_AND_ICON</text>
<text text-anchor="start" x="198" y="-59.5" font-family="Helvetica,sans-Serif" font-size="10.00">+ MARGIN</text>
<text text-anchor="start" x="198" y="-48.5" font-family="Helvetica,sans-Serif" font-size="10.00">+ BORDER</text>
<text text-anchor="start" x="198" y="-37.5" font-family="Helvetica,sans-Serif" font-size="10.00">and 9 more...</text>
<polyline fill="none" stroke="black" points="190,-30.5 354,-30.5 "/>
<text text-anchor="start" x="198" y="-18.5" font-family="Helvetica,sans-Serif" font-size="10.00">+ ButtonSkin()</text>
<text text-anchor="start" x="198" y="-7.5" font-family="Helvetica,sans-Serif" font-size="10.00">+ ButtonSkin()</text>
</a>
</g>
</g>
<!-- Node1&#45;&gt;Node6 -->
<g id="edge6" class="edge">
<title>Node1&#45;&gt;Node6</title>
<path fill="none" stroke="midnightblue" d="M272,-151.09C272,-141.75 272,-132.51 272,-123.73"/>
<polygon fill="none" stroke="midnightblue" points="268.5,-151.25 272,-161.25 275.5,-151.25 268.5,-151.25"/>
</g>
<!-- Node7 -->
<g id="node7" class="node">
<title>Node7</title>
<g id="a_node7"><a xlink:href="class_sgl_1_1_default_skins_1_1_menu_item_skin.html" target="_top" xlink:title=" ">
<polygon fill="white" stroke="black" points="372,-0.5 372,-123.5 534,-123.5 534,-0.5 372,-0.5"/>
<text text-anchor="middle" x="453" y="-111.5" font-family="Helvetica,sans-Serif" font-size="10.00">Sgl::DefaultSkins::MenuItemSkin</text>
<polyline fill="none" stroke="black" points="372,-104.5 534,-104.5 "/>
<text text-anchor="start" x="380" y="-92.5" font-family="Helvetica,sans-Serif" font-size="10.00">+ PADDING</text>
<text text-anchor="start" x="380" y="-81.5" font-family="Helvetica,sans-Serif" font-size="10.00">+ MARGIN</text>
<text text-anchor="start" x="380" y="-70.5" font-family="Helvetica,sans-Serif" font-size="10.00">+ BORDER</text>
<text text-anchor="start" x="380" y="-59.5" font-family="Helvetica,sans-Serif" font-size="10.00">+ STATIC_STYLE</text>
<text text-anchor="start" x="380" y="-48.5" font-family="Helvetica,sans-Serif" font-size="10.00">+ IDLE_FOREGROUND</text>
<text text-anchor="start" x="380" y="-37.5" font-family="Helvetica,sans-Serif" font-size="10.00">and 7 more...</text>
<polyline fill="none" stroke="black" points="372,-30.5 534,-30.5 "/>
<text text-anchor="start" x="380" y="-18.5" font-family="Helvetica,sans-Serif" font-size="10.00">+ MenuItemSkin()</text>
<text text-anchor="start" x="380" y="-7.5" font-family="Helvetica,sans-Serif" font-size="10.00">+ MenuItemSkin()</text>
</a>
</g>
</g>
<!-- Node1&#45;&gt;Node7 -->
<g id="edge7" class="edge">
<title>Node1&#45;&gt;Node7</title>
<path fill="none" stroke="midnightblue" d="M364.28,-157.12C375.05,-145.69 385.78,-134.3 395.88,-123.6"/>
<polygon fill="none" stroke="midnightblue" points="361.51,-154.94 357.2,-164.62 366.61,-159.75 361.51,-154.94"/>
</g>
<!-- Node2 -->
<g id="node2" class="node">
<title>Node2</title>
<g id="a_node2"><a xlink:href="class_sgl_1_1_base_skin.html" target="_top" xlink:title=" ">
<polygon fill="white" stroke="black" points="209.5,-388.5 209.5,-445.5 334.5,-445.5 334.5,-388.5 209.5,-388.5"/>
<text text-anchor="middle" x="272" y="-433.5" font-family="Helvetica,sans-Serif" font-size="10.00">Sgl::BaseSkin&lt; Button &gt;</text>
<polyline fill="none" stroke="black" points="209.5,-426.5 334.5,-426.5 "/>
<text text-anchor="middle" x="272" y="-414.5" font-family="Helvetica,sans-Serif" font-size="10.00"> </text>
<polyline fill="none" stroke="black" points="209.5,-407.5 334.5,-407.5 "/>
<text text-anchor="start" x="217.5" y="-395.5" font-family="Helvetica,sans-Serif" font-size="10.00">+ attach()</text>
</a>
</g>
</g>
<!-- Node2&#45;&gt;Node1 -->
<g id="edge1" class="edge">
<title>Node2&#45;&gt;Node1</title>
<path fill="none" stroke="midnightblue" d="M272,-378.08C272,-369.6 272,-360.24 272,-350.6"/>
<polygon fill="none" stroke="midnightblue" points="268.5,-378.3 272,-388.3 275.5,-378.3 268.5,-378.3"/>
</g>
<!-- Node3 -->
<g id="node3" class="node">
<title>Node3</title>
<g id="a_node3"><a xlink:href="class_sgl_1_1_skin.html" target="_top" xlink:title=" ">
<polygon fill="white" stroke="black" points="214,-588.5 214,-700.5 322,-700.5 322,-588.5 214,-588.5"/>
<text text-anchor="middle" x="268" y="-688.5" font-family="Helvetica,sans-Serif" font-size="10.00">Sgl::Skin</text>
<polyline fill="none" stroke="black" points="214,-681.5 322,-681.5 "/>
<text text-anchor="middle" x="268" y="-669.5" font-family="Helvetica,sans-Serif" font-size="10.00"> </text>
<polyline fill="none" stroke="black" points="214,-662.5 322,-662.5 "/>
<text text-anchor="start" x="222" y="-650.5" font-family="Helvetica,sans-Serif" font-size="10.00">+ ~Skin()</text>
<text text-anchor="start" x="222" y="-639.5" font-family="Helvetica,sans-Serif" font-size="10.00">+ dispose()</text>
<text text-anchor="start" x="222" y="-628.5" font-family="Helvetica,sans-Serif" font-size="10.00">+ prerenderControl()</text>
<text text-anchor="start" x="222" y="-617.5" font-family="Helvetica,sans-Serif" font-size="10.00">+ getHitComponent()</text>
<text text-anchor="start" x="222" y="-606.5" font-family="Helvetica,sans-Serif" font-size="10.00">+ getControl()</text>
<text text-anchor="start" x="222" y="-595.5" font-family="Helvetica,sans-Serif" font-size="10.00">and 8 more...</text>
</a>
</g>
</g>
<!-- Node3&#45;&gt;Node2 -->
<g id="edge2" class="edge">
<title>Node3&#45;&gt;Node2</title>
<path fill="none" stroke="midnightblue" d="M269.16,-578.28C269.94,-534.25 270.93,-478.38 271.51,-445.57"/>
<polygon fill="none" stroke="midnightblue" points="265.66,-578.28 268.98,-588.34 272.66,-578.4 265.66,-578.28"/>
</g>
<!-- Node4 -->
<g id="node4" class="node">
<title>Node4</title>
<g id="a_node4"><a xlink:href="class_sgl_1_1_base_skin.html" target="_top" xlink:title=" ">
<polygon fill="white" stroke="black" points="284,-493.5 284,-550.5 388,-550.5 388,-493.5 284,-493.5"/>
<text text-anchor="middle" x="336" y="-538.5" font-family="Helvetica,sans-Serif" font-size="10.00">Sgl::BaseSkin&lt; C &gt;</text>
<polyline fill="none" stroke="black" points="284,-531.5 388,-531.5 "/>
<text text-anchor="middle" x="336" y="-519.5" font-family="Helvetica,sans-Serif" font-size="10.00"> </text>
<polyline fill="none" stroke="black" points="284,-512.5 388,-512.5 "/>
<text text-anchor="start" x="292" y="-500.5" font-family="Helvetica,sans-Serif" font-size="10.00">+ attach()</text>
</a>
</g>
</g>
<!-- Node3&#45;&gt;Node4 -->
<g id="edge4" class="edge">
<title>Node3&#45;&gt;Node4</title>
<path fill="none" stroke="midnightblue" d="M304.21,-579.34C309.89,-569.28 315.48,-559.36 320.36,-550.72"/>
<polygon fill="none" stroke="midnightblue" points="301.08,-577.76 299.21,-588.19 307.18,-581.2 301.08,-577.76"/>
</g>
<!-- Node4&#45;&gt;Node2 -->
<g id="edge3" class="edge">
<title>Node4&#45;&gt;Node2</title>
<path fill="none" stroke="orange" d="M313.49,-484.77C305.51,-471.93 296.66,-457.69 289.2,-445.68"/>
<polygon fill="orange" stroke="orange" points="310.6,-486.75 318.85,-493.4 316.54,-483.06 310.6,-486.75"/>
<text text-anchor="middle" x="330" y="-467" font-family="Helvetica,sans-Serif" font-size="10.00"> &lt; Button &gt;</text>
</g>
</g>
</svg>
        <g id="navigator" transform="translate(0 0)" fill="#404254">
                <rect fill="#f2f5e9" fill-opacity="0.5" stroke="#606060" stroke-width=".5" x="0" y="0" width="60" height="60"/>
                <use id="zoomplus" xlink:href="#zoomPlus" x="17" y="9" onmousedown="handleZoom(evt,'in')"/>
                <use id="zoomminus" xlink:href="#zoomMin" x="42" y="9" onmousedown="handleZoom(evt,'out')"/>
                <use id="reset" xlink:href="#resetDef" x="30" y="36" onmousedown="handleReset()"/>
                <g id="arrowUp" xlink:href="#dirArrow" transform="translate(30 24)" onmousedown="handlePan(0,-1)">
                  <use xlink:href="#rim" fill="#404040">
                        <set attributeName="fill" to="#808080" begin="arrowUp.mouseover" end="arrowUp.mouseout"/>
                  </use>
                  <path fill="none" stroke="white" stroke-width="1.5" d="M0,-3.0v7 M-2.5,-0.5L0,-3.0L2.5,-0.5"/>
                </g>
                <g id="arrowRight" xlink:href="#dirArrow" transform="rotate(90) translate(36 -43)" onmousedown="handlePan(1,0)">
                  <use xlink:href="#rim" fill="#404040">
                        <set attributeName="fill" to="#808080" begin="arrowRight.mouseover" end="arrowRight.mouseout"/>
                  </use>
                  <path fill="none" stroke="white" stroke-width="1.5" d="M0,-3.0v7 M-2.5,-0.5L0,-3.0L2.5,-0.5"/>
                </g>
                <g id="arrowDown" xlink:href="#dirArrow" transform="rotate(180) translate(-30 -48)" onmousedown="handlePan(0,1)">
                  <use xlink:href="#rim" fill="#404040">
                        <set attributeName="fill" to="#808080" begin="arrowDown.mouseover" end="arrowDown.mouseout"/>
                  </use>
                  <path fill="none" stroke="white" stroke-width="1.5" d="M0,-3.0v7 M-2.5,-0.5L0,-3.0L2.5,-0.5"/>
                </g>
                <g id="arrowLeft" xlink:href="#dirArrow" transform="rotate(270) translate(-36 17)" onmousedown="handlePan(-1,0)">
                  <use xlink:href="#rim" fill="#404040">
                        <set attributeName="fill" to="#808080" begin="arrowLeft.mouseover" end="arrowLeft.mouseout"/>
                  </use>
                  <path fill="none" stroke="white" stroke-width="1.5" d="M0,-3.0v7 M-2.5,-0.5L0,-3.0L2.5,-0.5"/>
                </g>
        </g>
        <svg viewBox="0 0 15 15" width="100%" height="30px" preserveAspectRatio="xMaxYMin meet">
         <g id="arrow_out" transform="scale(0.3 0.3)">
          <a xlink:href="class_sgl_1_1_default_skins_1_1_button_base_skin__inherit__graph_org.svg" target="_base">
           <rect id="button" ry="5" rx="5" y="6" x="6" height="38" width="38"
                fill="#f2f5e9" fill-opacity="0.5" stroke="#606060" stroke-width="1.0"/>
           <path id="arrow"
             d="M 11.500037,31.436501 C 11.940474,20.09759 22.043105,11.32322 32.158766,21.979434 L 37.068811,17.246167 C 37.068811,17.246167 37.088388,32 37.088388,32 L 22.160133,31.978069 C 22.160133,31.978069 26.997745,27.140456 26.997745,27.140456 C 18.528582,18.264221 13.291696,25.230495 11.500037,31.436501 z"
             style="fill:#404040;"/>
          </a>
         </g>
        </svg>
</svg>
