<?xml version="1.0" encoding="UTF-8" standalone="no"?>
<!DOCTYPE svg PUBLIC "-//W3C//DTD SVG 1.1//EN"
 "http://www.w3.org/Graphics/SVG/1.1/DTD/svg11.dtd">
<!-- Generated by graphviz version 2.50.0 (20211204.2007)
 -->
<!-- Title: FocusReceivedFilter Pages: 1 -->
<svg width="383pt" height="634pt"
 viewBox="0.00 0.00 383.00 634.00" xmlns="http://www.w3.org/2000/svg" xmlns:xlink="http://www.w3.org/1999/xlink">
<g id="graph0" class="graph" transform="scale(1 1) rotate(0) translate(4 630)">
<title>FocusReceivedFilter</title>
<polygon fill="white" stroke="transparent" points="-4,4 -4,-630 379,-630 379,4 -4,4"/>
<!-- Node1 -->
<g id="node1" class="node">
<title>Node1</title>
<g id="a_node1"><a xlink:title=" ">
<polygon fill="#bfbfbf" stroke="black" points="60,-0.5 60,-68.5 182,-68.5 182,-0.5 60,-0.5"/>
<text text-anchor="middle" x="121" y="-56.5" font-family="Helvetica,sans-Serif" font-size="10.00">FocusReceivedFilter</text>
<polyline fill="none" stroke="black" points="60,-49.5 182,-49.5 "/>
<text text-anchor="middle" x="121" y="-37.5" font-family="Helvetica,sans-Serif" font-size="10.00"> </text>
<polyline fill="none" stroke="black" points="60,-30.5 182,-30.5 "/>
<text text-anchor="start" x="68" y="-18.5" font-family="Helvetica,sans-Serif" font-size="10.00">+ FocusReceivedFilter()</text>
<text text-anchor="start" x="68" y="-7.5" font-family="Helvetica,sans-Serif" font-size="10.00">+ onFocusReceived()</text>
</a>
</g>
</g>
<!-- Node2 -->
<g id="node2" class="node">
<title>Node2</title>
<g id="a_node2"><a xlink:href="class_sgl_1_1_focus_listener.html" target="_top" xlink:title=" ">
<polygon fill="white" stroke="black" points="0,-106.5 0,-196.5 242,-196.5 242,-106.5 0,-106.5"/>
<text text-anchor="middle" x="121" y="-184.5" font-family="Helvetica,sans-Serif" font-size="10.00">Sgl::FocusListener&lt; LayeredContainer &gt;</text>
<polyline fill="none" stroke="black" points="0,-177.5 242,-177.5 "/>
<text text-anchor="middle" x="121" y="-165.5" font-family="Helvetica,sans-Serif" font-size="10.00"> </text>
<polyline fill="none" stroke="black" points="0,-158.5 242,-158.5 "/>
<text text-anchor="start" x="8" y="-146.5" font-family="Helvetica,sans-Serif" font-size="10.00">+ DEFINE_STATIC_LISTENED_EVENT_TYPES()</text>
<text text-anchor="start" x="8" y="-135.5" font-family="Helvetica,sans-Serif" font-size="10.00">+ onEvent()</text>
<text text-anchor="start" x="8" y="-124.5" font-family="Helvetica,sans-Serif" font-size="10.00">+ onFocusReceived()</text>
<text text-anchor="start" x="8" y="-113.5" font-family="Helvetica,sans-Serif" font-size="10.00">+ onFocusLost()</text>
</a>
</g>
</g>
<!-- Node2&#45;&gt;Node1 -->
<g id="edge1" class="edge">
<title>Node2&#45;&gt;Node1</title>
<path fill="none" stroke="midnightblue" d="M121,-96.23C121,-86.8 121,-77.26 121,-68.62"/>
<polygon fill="none" stroke="midnightblue" points="117.5,-96.37 121,-106.37 124.5,-96.37 117.5,-96.37"/>
</g>
<!-- Node3 -->
<g id="node3" class="node">
<title>Node3</title>
<g id="a_node3"><a xlink:href="class_sgl_1_1_component_event_listener.html" target="_top" xlink:title=" ">
<polygon fill="white" stroke="black" points="35.5,-353.5 35.5,-432.5 208.5,-432.5 208.5,-353.5 35.5,-353.5"/>
<text text-anchor="middle" x="122" y="-420.5" font-family="Helvetica,sans-Serif" font-size="10.00">Sgl::ComponentEventListener&lt; C &gt;</text>
<polyline fill="none" stroke="black" points="35.5,-413.5 208.5,-413.5 "/>
<text text-anchor="middle" x="122" y="-401.5" font-family="Helvetica,sans-Serif" font-size="10.00"> </text>
<polyline fill="none" stroke="black" points="35.5,-394.5 208.5,-394.5 "/>
<text text-anchor="start" x="43.5" y="-382.5" font-family="Helvetica,sans-Serif" font-size="10.00">+ ComponentEventListener()</text>
<text text-anchor="start" x="43.5" y="-371.5" font-family="Helvetica,sans-Serif" font-size="10.00">+ getComponent()</text>
<text text-anchor="start" x="43.5" y="-360.5" font-family="Helvetica,sans-Serif" font-size="10.00">+ setComponent()</text>
</a>
</g>
</g>
<!-- Node3&#45;&gt;Node2 -->
<g id="edge2" class="edge">
<title>Node3&#45;&gt;Node2</title>
<path fill="none" stroke="midnightblue" d="M121.8,-343.05C121.62,-300.16 121.36,-238.37 121.19,-196.89"/>
<polygon fill="none" stroke="midnightblue" points="118.3,-343.27 121.84,-353.25 125.3,-343.24 118.3,-343.27"/>
</g>
<!-- Node4 -->
<g id="node4" class="node">
<title>Node4</title>
<g id="a_node4"><a xlink:title=" ">
<polygon fill="white" stroke="#bfbfbf" points="105,-568.5 105,-625.5 179,-625.5 179,-568.5 105,-568.5"/>
<text text-anchor="middle" x="142" y="-613.5" font-family="Helvetica,sans-Serif" font-size="10.00">Sml::Listener</text>
<polyline fill="none" stroke="#bfbfbf" points="105,-606.5 179,-606.5 "/>
<text text-anchor="middle" x="142" y="-594.5" font-family="Helvetica,sans-Serif" font-size="10.00"> </text>
<polyline fill="none" stroke="#bfbfbf" points="105,-587.5 179,-587.5 "/>
<text text-anchor="middle" x="142" y="-575.5" font-family="Helvetica,sans-Serif" font-size="10.00"> </text>
</a>
</g>
</g>
<!-- Node4&#45;&gt;Node3 -->
<g id="edge3" class="edge">
<title>Node4&#45;&gt;Node3</title>
<path fill="none" stroke="midnightblue" d="M138.27,-558.28C134.72,-522.47 129.41,-468.87 125.83,-432.73"/>
<polygon fill="none" stroke="midnightblue" points="134.79,-558.73 139.26,-568.34 141.76,-558.04 134.79,-558.73"/>
</g>
<!-- Node6 -->
<g id="node6" class="node">
<title>Node6</title>
<g id="a_node6"><a xlink:href="class_sgl_1_1_component_event_listener.html" target="_top" xlink:title=" ">
<polygon fill="white" stroke="black" points="162.5,-451.5 162.5,-530.5 335.5,-530.5 335.5,-451.5 162.5,-451.5"/>
<text text-anchor="middle" x="249" y="-518.5" font-family="Helvetica,sans-Serif" font-size="10.00">Sgl::ComponentEventListener&lt; C &gt;</text>
<polyline fill="none" stroke="black" points="162.5,-511.5 335.5,-511.5 "/>
<text text-anchor="middle" x="249" y="-499.5" font-family="Helvetica,sans-Serif" font-size="10.00"> </text>
<polyline fill="none" stroke="black" points="162.5,-492.5 335.5,-492.5 "/>
<text text-anchor="start" x="170.5" y="-480.5" font-family="Helvetica,sans-Serif" font-size="10.00">+ ComponentEventListener()</text>
<text text-anchor="start" x="170.5" y="-469.5" font-family="Helvetica,sans-Serif" font-size="10.00">+ getComponent()</text>
<text text-anchor="start" x="170.5" y="-458.5" font-family="Helvetica,sans-Serif" font-size="10.00">+ setComponent()</text>
</a>
</g>
</g>
<!-- Node4&#45;&gt;Node6 -->
<g id="edge6" class="edge">
<title>Node4&#45;&gt;Node6</title>
<path fill="none" stroke="midnightblue" d="M177.58,-561.42C187.72,-551.57 198.82,-540.77 209.2,-530.69"/>
<polygon fill="none" stroke="midnightblue" points="175.12,-558.92 170.39,-568.4 180,-563.94 175.12,-558.92"/>
</g>
<!-- Node5 -->
<g id="node5" class="node">
<title>Node5</title>
<g id="a_node5"><a xlink:href="class_sgl_1_1_focus_listener.html" target="_top" xlink:title=" ">
<polygon fill="white" stroke="black" points="133,-244.5 133,-334.5 375,-334.5 375,-244.5 133,-244.5"/>
<text text-anchor="middle" x="254" y="-322.5" font-family="Helvetica,sans-Serif" font-size="10.00">Sgl::FocusListener&lt; C &gt;</text>
<polyline fill="none" stroke="black" points="133,-315.5 375,-315.5 "/>
<text text-anchor="middle" x="254" y="-303.5" font-family="Helvetica,sans-Serif" font-size="10.00"> </text>
<polyline fill="none" stroke="black" points="133,-296.5 375,-296.5 "/>
<text text-anchor="start" x="141" y="-284.5" font-family="Helvetica,sans-Serif" font-size="10.00">+ DEFINE_STATIC_LISTENED_EVENT_TYPES()</text>
<text text-anchor="start" x="141" y="-273.5" font-family="Helvetica,sans-Serif" font-size="10.00">+ onEvent()</text>
<text text-anchor="start" x="141" y="-262.5" font-family="Helvetica,sans-Serif" font-size="10.00">+ onFocusReceived()</text>
<text text-anchor="start" x="141" y="-251.5" font-family="Helvetica,sans-Serif" font-size="10.00">+ onFocusLost()</text>
</a>
</g>
</g>
<!-- Node5&#45;&gt;Node2 -->
<g id="edge4" class="edge">
<title>Node5&#45;&gt;Node2</title>
<path fill="none" stroke="orange" d="M203.73,-237.1C190.79,-223.87 176.98,-209.74 164.42,-196.9"/>
<polygon fill="orange" stroke="orange" points="201.32,-239.64 210.82,-244.34 206.33,-234.75 201.32,-239.64"/>
<text text-anchor="middle" x="240" y="-218" font-family="Helvetica,sans-Serif" font-size="10.00"> &lt; LayeredContainer &gt;</text>
</g>
<!-- Node6&#45;&gt;Node5 -->
<g id="edge5" class="edge">
<title>Node6&#45;&gt;Node5</title>
<path fill="none" stroke="midnightblue" d="M250.23,-440.86C251.05,-408.32 252.11,-366 252.9,-334.55"/>
<polygon fill="none" stroke="midnightblue" points="246.73,-440.98 249.98,-451.06 253.73,-441.15 246.73,-440.98"/>
</g>
</g>
</svg>
