<?xml version="1.0" encoding="UTF-8" standalone="no"?>
<!DOCTYPE svg PUBLIC "-//W3C//DTD SVG 1.1//EN"
 "http://www.w3.org/Graphics/SVG/1.1/DTD/svg11.dtd">
<!-- Generated by graphviz version 2.50.0 (20211204.2007)
 -->
<!-- Title: Sgl::DragMoveEvent Pages: 1 -->
<svg width="115pt" height="320pt"
 viewBox="0.00 0.00 115.00 320.00" xmlns="http://www.w3.org/2000/svg" xmlns:xlink="http://www.w3.org/1999/xlink">
<g id="graph0" class="graph" transform="scale(1 1) rotate(0) translate(4 316)">
<title>Sgl::DragMoveEvent</title>
<polygon fill="white" stroke="transparent" points="-4,4 -4,-316 111,-316 111,4 -4,4"/>
<!-- Node1 -->
<g id="node1" class="node">
<title>Node1</title>
<g id="a_node1"><a xlink:title=" ">
<polygon fill="#bfbfbf" stroke="black" points="0,-0.5 0,-79.5 107,-79.5 107,-0.5 0,-0.5"/>
<text text-anchor="middle" x="53.5" y="-67.5" font-family="Helvetica,sans-Serif" font-size="10.00">Sgl::DragMoveEvent</text>
<polyline fill="none" stroke="black" points="0,-60.5 107,-60.5 "/>
<text text-anchor="middle" x="53.5" y="-48.5" font-family="Helvetica,sans-Serif" font-size="10.00"> </text>
<polyline fill="none" stroke="black" points="0,-41.5 107,-41.5 "/>
<text text-anchor="start" x="8" y="-29.5" font-family="Helvetica,sans-Serif" font-size="10.00">+ DragMoveEvent()</text>
<text text-anchor="start" x="8" y="-18.5" font-family="Helvetica,sans-Serif" font-size="10.00">+ getDeltaX()</text>
<text text-anchor="start" x="8" y="-7.5" font-family="Helvetica,sans-Serif" font-size="10.00">+ getDeltaY()</text>
</a>
</g>
</g>
<!-- Node2 -->
<g id="node2" class="node">
<title>Node2</title>
<g id="a_node2"><a xlink:href="class_sgl_1_1_drag_event.html" target="_top" xlink:title=" ">
<polygon fill="white" stroke="black" points="12,-116.5 12,-217.5 95,-217.5 95,-116.5 12,-116.5"/>
<text text-anchor="middle" x="53.5" y="-205.5" font-family="Helvetica,sans-Serif" font-size="10.00">Sgl::DragEvent</text>
<polyline fill="none" stroke="black" points="12,-198.5 95,-198.5 "/>
<text text-anchor="middle" x="53.5" y="-186.5" font-family="Helvetica,sans-Serif" font-size="10.00"> </text>
<polyline fill="none" stroke="black" points="12,-179.5 95,-179.5 "/>
<text text-anchor="start" x="20" y="-167.5" font-family="Helvetica,sans-Serif" font-size="10.00">+ DragEvent()</text>
<text text-anchor="start" x="20" y="-156.5" font-family="Helvetica,sans-Serif" font-size="10.00">+ getX()</text>
<text text-anchor="start" x="20" y="-145.5" font-family="Helvetica,sans-Serif" font-size="10.00">+ setX()</text>
<text text-anchor="start" x="20" y="-134.5" font-family="Helvetica,sans-Serif" font-size="10.00">+ getY()</text>
<text text-anchor="start" x="20" y="-123.5" font-family="Helvetica,sans-Serif" font-size="10.00">+ setY()</text>
</a>
</g>
</g>
<!-- Node2&#45;&gt;Node1 -->
<g id="edge1" class="edge">
<title>Node2&#45;&gt;Node1</title>
<path fill="none" stroke="midnightblue" d="M53.5,-106.19C53.5,-97.22 53.5,-88.18 53.5,-79.81"/>
<polygon fill="none" stroke="midnightblue" points="50,-106.24 53.5,-116.24 57,-106.24 50,-106.24"/>
</g>
<!-- Node3 -->
<g id="node3" class="node">
<title>Node3</title>
<g id="a_node3"><a xlink:title=" ">
<polygon fill="white" stroke="#bfbfbf" points="21,-254.5 21,-311.5 86,-311.5 86,-254.5 21,-254.5"/>
<text text-anchor="middle" x="53.5" y="-299.5" font-family="Helvetica,sans-Serif" font-size="10.00">Sml::Event</text>
<polyline fill="none" stroke="#bfbfbf" points="21,-292.5 86,-292.5 "/>
<text text-anchor="middle" x="53.5" y="-280.5" font-family="Helvetica,sans-Serif" font-size="10.00"> </text>
<polyline fill="none" stroke="#bfbfbf" points="21,-273.5 86,-273.5 "/>
<text text-anchor="middle" x="53.5" y="-261.5" font-family="Helvetica,sans-Serif" font-size="10.00"> </text>
</a>
</g>
</g>
<!-- Node3&#45;&gt;Node2 -->
<g id="edge2" class="edge">
<title>Node3&#45;&gt;Node2</title>
<path fill="none" stroke="midnightblue" d="M53.5,-244.35C53.5,-235.8 53.5,-226.58 53.5,-217.61"/>
<polygon fill="none" stroke="midnightblue" points="50,-244.4 53.5,-254.4 57,-244.4 50,-244.4"/>
</g>
</g>
</svg>
