<?xml version="1.0" encoding="UTF-8" standalone="no"?>
<!DOCTYPE svg PUBLIC "-//W3C//DTD SVG 1.1//EN"
 "http://www.w3.org/Graphics/SVG/1.1/DTD/svg11.dtd">
<!-- Generated by graphviz version 2.50.0 (20211204.2007)
 -->
<!-- Title: Sgl::Control Pages: 1 -->
<svg width="1401pt" height="700pt"
 viewBox="0.00 0.00 1400.50 700.00" xmlns="http://www.w3.org/2000/svg" xmlns:xlink="http://www.w3.org/1999/xlink">
<g id="graph0" class="graph" transform="scale(1 1) rotate(0) translate(4 696)">
<title>Sgl::Control</title>
<polygon fill="white" stroke="transparent" points="-4,4 -4,-696 1396.5,-696 1396.5,4 -4,4"/>
<!-- Node1 -->
<g id="node1" class="node">
<title>Node1</title>
<g id="a_node1"><a xlink:title=" ">
<polygon fill="#bfbfbf" stroke="black" points="1147,-0.5 1147,-145.5 1296,-145.5 1296,-0.5 1147,-0.5"/>
<text text-anchor="middle" x="1221.5" y="-133.5" font-family="Helvetica,sans-Serif" font-size="10.00">Sgl::Control</text>
<polyline fill="none" stroke="black" points="1147,-126.5 1296,-126.5 "/>
<text text-anchor="middle" x="1221.5" y="-114.5" font-family="Helvetica,sans-Serif" font-size="10.00"> </text>
<polyline fill="none" stroke="black" points="1147,-107.5 1296,-107.5 "/>
<text text-anchor="start" x="1155" y="-95.5" font-family="Helvetica,sans-Serif" font-size="10.00">+ Control()</text>
<text text-anchor="start" x="1155" y="-84.5" font-family="Helvetica,sans-Serif" font-size="10.00">+ ~Control()</text>
<text text-anchor="start" x="1155" y="-73.5" font-family="Helvetica,sans-Serif" font-size="10.00">+ getHitComponent()</text>
<text text-anchor="start" x="1155" y="-62.5" font-family="Helvetica,sans-Serif" font-size="10.00"># layoutChildren()</text>
<text text-anchor="start" x="1155" y="-51.5" font-family="Helvetica,sans-Serif" font-size="10.00"># prerenderSelf()</text>
<text text-anchor="start" x="1155" y="-40.5" font-family="Helvetica,sans-Serif" font-size="10.00"># computeCustomPrefWidth()</text>
<text text-anchor="start" x="1155" y="-29.5" font-family="Helvetica,sans-Serif" font-size="10.00"># computeCustomPrefHeight()</text>
<text text-anchor="start" x="1155" y="-18.5" font-family="Helvetica,sans-Serif" font-size="10.00"># computeCustomMinWidth()</text>
<text text-anchor="start" x="1155" y="-7.5" font-family="Helvetica,sans-Serif" font-size="10.00">and 3 more...</text>
</a>
</g>
</g>
<!-- Node2 -->
<g id="node2" class="node">
<title>Node2</title>
<g id="a_node2"><a xlink:href="class_sgl_1_1_parent.html" target="_top" xlink:title=" ">
<polygon fill="white" stroke="black" points="815.5,-193.5 815.5,-371.5 961.5,-371.5 961.5,-193.5 815.5,-193.5"/>
<text text-anchor="middle" x="888.5" y="-359.5" font-family="Helvetica,sans-Serif" font-size="10.00">Sgl::Parent</text>
<polyline fill="none" stroke="black" points="815.5,-352.5 961.5,-352.5 "/>
<text text-anchor="middle" x="888.5" y="-340.5" font-family="Helvetica,sans-Serif" font-size="10.00"> </text>
<polyline fill="none" stroke="black" points="815.5,-333.5 961.5,-333.5 "/>
<text text-anchor="start" x="823.5" y="-321.5" font-family="Helvetica,sans-Serif" font-size="10.00">+ Parent()</text>
<text text-anchor="start" x="823.5" y="-310.5" font-family="Helvetica,sans-Serif" font-size="10.00">+ ~Parent()</text>
<text text-anchor="start" x="823.5" y="-299.5" font-family="Helvetica,sans-Serif" font-size="10.00">+ getHitComponent()</text>
<text text-anchor="start" x="823.5" y="-288.5" font-family="Helvetica,sans-Serif" font-size="10.00">+ render()</text>
<text text-anchor="start" x="823.5" y="-277.5" font-family="Helvetica,sans-Serif" font-size="10.00">+ layout()</text>
<text text-anchor="start" x="823.5" y="-266.5" font-family="Helvetica,sans-Serif" font-size="10.00">and 39 more...</text>
<text text-anchor="start" x="823.5" y="-255.5" font-family="Helvetica,sans-Serif" font-size="10.00"># setSceneInSceneTree()</text>
<text text-anchor="start" x="823.5" y="-244.5" font-family="Helvetica,sans-Serif" font-size="10.00"># layoutChildren()</text>
<text text-anchor="start" x="823.5" y="-233.5" font-family="Helvetica,sans-Serif" font-size="10.00"># prerenderSelf()</text>
<text text-anchor="start" x="823.5" y="-222.5" font-family="Helvetica,sans-Serif" font-size="10.00"># updateSnapshotSize()</text>
<text text-anchor="start" x="823.5" y="-211.5" font-family="Helvetica,sans-Serif" font-size="10.00"># computeCustomPrefWidth()</text>
<text text-anchor="start" x="823.5" y="-200.5" font-family="Helvetica,sans-Serif" font-size="10.00">and 5 more...</text>
</a>
</g>
</g>
<!-- Node2&#45;&gt;Node1 -->
<g id="edge1" class="edge">
<title>Node2&#45;&gt;Node1</title>
<path fill="none" stroke="midnightblue" d="M970.1,-230.65C1024.09,-197.01 1094.35,-153.23 1146.86,-120.51"/>
<polygon fill="none" stroke="midnightblue" points="968.21,-227.7 961.58,-235.96 971.92,-233.65 968.21,-227.7"/>
</g>
<!-- Node3 -->
<g id="node3" class="node">
<title>Node3</title>
<g id="a_node3"><a xlink:href="class_sgl_1_1_component.html" target="_top" xlink:title=" ">
<polygon fill="white" stroke="black" points="423.5,-0.5 423.5,-145.5 551.5,-145.5 551.5,-0.5 423.5,-0.5"/>
<text text-anchor="middle" x="487.5" y="-133.5" font-family="Helvetica,sans-Serif" font-size="10.00">Sgl::Component</text>
<polyline fill="none" stroke="black" points="423.5,-126.5 551.5,-126.5 "/>
<text text-anchor="middle" x="487.5" y="-114.5" font-family="Helvetica,sans-Serif" font-size="10.00"> </text>
<polyline fill="none" stroke="black" points="423.5,-107.5 551.5,-107.5 "/>
<text text-anchor="start" x="431.5" y="-95.5" font-family="Helvetica,sans-Serif" font-size="10.00">+ Component()</text>
<text text-anchor="start" x="431.5" y="-84.5" font-family="Helvetica,sans-Serif" font-size="10.00">+ ~Component()</text>
<text text-anchor="start" x="431.5" y="-73.5" font-family="Helvetica,sans-Serif" font-size="10.00">+ getHitComponent()</text>
<text text-anchor="start" x="431.5" y="-62.5" font-family="Helvetica,sans-Serif" font-size="10.00">+ render()</text>
<text text-anchor="start" x="431.5" y="-51.5" font-family="Helvetica,sans-Serif" font-size="10.00">+ layout()</text>
<text text-anchor="start" x="431.5" y="-40.5" font-family="Helvetica,sans-Serif" font-size="10.00">and 42 more...</text>
<text text-anchor="start" x="431.5" y="-29.5" font-family="Helvetica,sans-Serif" font-size="10.00"># updateShadow()</text>
<text text-anchor="start" x="431.5" y="-18.5" font-family="Helvetica,sans-Serif" font-size="10.00"># renderShadow()</text>
<text text-anchor="start" x="431.5" y="-7.5" font-family="Helvetica,sans-Serif" font-size="10.00"># setSceneInSceneTree()</text>
</a>
</g>
</g>
<!-- Node2&#45;&gt;Node3 -->
<g id="edge14" class="edge">
<title>Node2&#45;&gt;Node3</title>
<path fill="none" stroke="#404040" d="M815.47,-200.51C812.19,-197.88 808.86,-195.36 805.5,-193 731.36,-140.85 631.56,-108.42 563.67,-90.83"/>
<polygon fill="none" stroke="#404040" points="563.43,-90.77 556.63,-93.17 551.79,-87.82 558.59,-85.42 563.43,-90.77"/>
<text text-anchor="middle" x="801" y="-167" font-family="Helvetica,sans-Serif" font-size="10.00"> #m_Parent</text>
</g>
<!-- Node3&#45;&gt;Node2 -->
<g id="edge2" class="edge">
<title>Node3&#45;&gt;Node2</title>
<path fill="none" stroke="midnightblue" d="M561.76,-81.21C662.19,-92.58 833.51,-118.24 874.5,-164 881.97,-172.34 886.89,-182.45 890.02,-193.21"/>
<polygon fill="none" stroke="midnightblue" points="561.99,-77.72 551.67,-80.09 561.22,-84.67 561.99,-77.72"/>
</g>
<!-- Node4 -->
<g id="node4" class="node">
<title>Node4</title>
<g id="a_node4"><a xlink:title=" ">
<polygon fill="white" stroke="#bfbfbf" points="243.5,-463.5 243.5,-520.5 335.5,-520.5 335.5,-463.5 243.5,-463.5"/>
<text text-anchor="middle" x="289.5" y="-508.5" font-family="Helvetica,sans-Serif" font-size="10.00">Sml::EventTarget</text>
<polyline fill="none" stroke="#bfbfbf" points="243.5,-501.5 335.5,-501.5 "/>
<text text-anchor="middle" x="289.5" y="-489.5" font-family="Helvetica,sans-Serif" font-size="10.00"> </text>
<polyline fill="none" stroke="#bfbfbf" points="243.5,-482.5 335.5,-482.5 "/>
<text text-anchor="middle" x="289.5" y="-470.5" font-family="Helvetica,sans-Serif" font-size="10.00"> </text>
</a>
</g>
</g>
<!-- Node4&#45;&gt;Node3 -->
<g id="edge3" class="edge">
<title>Node4&#45;&gt;Node3</title>
<path fill="none" stroke="midnightblue" d="M291.79,-453.14C297.17,-376.51 313.1,-206.67 350.5,-164 370.76,-140.89 398.31,-121.26 423.39,-106.29"/>
<polygon fill="none" stroke="midnightblue" points="288.29,-453.1 291.1,-463.31 295.27,-453.57 288.29,-453.1"/>
</g>
<!-- Node13 -->
<g id="node13" class="node">
<title>Node13</title>
<g id="a_node13"><a xlink:href="class_sgl_1_1_scene.html" target="_top" xlink:title=" ">
<polygon fill="white" stroke="black" points="209.5,-226.5 209.5,-338.5 289.5,-338.5 289.5,-226.5 209.5,-226.5"/>
<text text-anchor="middle" x="249.5" y="-326.5" font-family="Helvetica,sans-Serif" font-size="10.00">Sgl::Scene</text>
<polyline fill="none" stroke="black" points="209.5,-319.5 289.5,-319.5 "/>
<text text-anchor="middle" x="249.5" y="-307.5" font-family="Helvetica,sans-Serif" font-size="10.00"> </text>
<polyline fill="none" stroke="black" points="209.5,-300.5 289.5,-300.5 "/>
<text text-anchor="start" x="217.5" y="-288.5" font-family="Helvetica,sans-Serif" font-size="10.00">+ Scene()</text>
<text text-anchor="start" x="217.5" y="-277.5" font-family="Helvetica,sans-Serif" font-size="10.00">+ Scene()</text>
<text text-anchor="start" x="217.5" y="-266.5" font-family="Helvetica,sans-Serif" font-size="10.00">+ ~Scene()</text>
<text text-anchor="start" x="217.5" y="-255.5" font-family="Helvetica,sans-Serif" font-size="10.00">+ update()</text>
<text text-anchor="start" x="217.5" y="-244.5" font-family="Helvetica,sans-Serif" font-size="10.00">+ render()</text>
<text text-anchor="start" x="217.5" y="-233.5" font-family="Helvetica,sans-Serif" font-size="10.00">and 17 more...</text>
</a>
</g>
</g>
<!-- Node4&#45;&gt;Node13 -->
<g id="edge13" class="edge">
<title>Node4&#45;&gt;Node13</title>
<path fill="none" stroke="midnightblue" d="M282.29,-453.6C276.13,-421.63 267.17,-375.17 260.18,-338.88"/>
<polygon fill="none" stroke="midnightblue" points="278.86,-454.29 284.19,-463.45 285.73,-452.96 278.86,-454.29"/>
</g>
<!-- Node5 -->
<g id="node5" class="node">
<title>Node5</title>
<g id="a_node5"><a xlink:title=" ">
<polygon fill="white" stroke="#bfbfbf" points="904.5,-634.5 904.5,-691.5 950.5,-691.5 950.5,-634.5 904.5,-634.5"/>
<text text-anchor="middle" x="927.5" y="-679.5" font-family="Helvetica,sans-Serif" font-size="10.00">int32_t</text>
<polyline fill="none" stroke="#bfbfbf" points="904.5,-672.5 950.5,-672.5 "/>
<text text-anchor="middle" x="927.5" y="-660.5" font-family="Helvetica,sans-Serif" font-size="10.00"> </text>
<polyline fill="none" stroke="#bfbfbf" points="904.5,-653.5 950.5,-653.5 "/>
<text text-anchor="middle" x="927.5" y="-641.5" font-family="Helvetica,sans-Serif" font-size="10.00"> </text>
</a>
</g>
</g>
<!-- Node5&#45;&gt;Node2 -->
<g id="edge24" class="edge">
<title>Node5&#45;&gt;Node2</title>
<path fill="none" stroke="#404040" d="M927.71,-634.43C927.71,-585.13 926.09,-478.72 913.5,-390 913.19,-387.84 912.86,-385.65 912.51,-383.46"/>
<polygon fill="none" stroke="#404040" points="912.51,-383.43 907.54,-378.2 910.46,-371.6 915.43,-376.83 912.51,-383.43"/>
<text text-anchor="middle" x="961.5" y="-517" font-family="Helvetica,sans-Serif" font-size="10.00"> #m_MaxHeight</text>
<text text-anchor="middle" x="961.5" y="-506" font-family="Helvetica,sans-Serif" font-size="10.00">#m_MaxWidth</text>
<text text-anchor="middle" x="961.5" y="-495" font-family="Helvetica,sans-Serif" font-size="10.00">#m_MinHeight</text>
<text text-anchor="middle" x="961.5" y="-484" font-family="Helvetica,sans-Serif" font-size="10.00">#m_MinWidth</text>
<text text-anchor="middle" x="961.5" y="-473" font-family="Helvetica,sans-Serif" font-size="10.00">#m_PrefHeight</text>
<text text-anchor="middle" x="961.5" y="-462" font-family="Helvetica,sans-Serif" font-size="10.00">#m_PrefWidth</text>
</g>
<!-- Node5&#45;&gt;Node3 -->
<g id="edge4" class="edge">
<title>Node5&#45;&gt;Node3</title>
<path fill="none" stroke="#404040" d="M904.33,-661.27C836.01,-658.12 631.55,-641.49 493.5,-554 424.67,-510.38 404.87,-488.76 377.5,-412 374.22,-402.79 372.05,-398.12 377.5,-390 389.28,-372.46 407.89,-388.16 421.5,-372 448.44,-340.03 467.25,-234.23 477.71,-157.78"/>
<polygon fill="none" stroke="#404040" points="477.72,-157.67 474.56,-151.2 479.32,-145.78 482.49,-152.26 477.72,-157.67"/>
<text text-anchor="middle" x="436.5" y="-404" font-family="Helvetica,sans-Serif" font-size="10.00"> +UNLIMITED_SIZE</text>
<text text-anchor="middle" x="436.5" y="-393" font-family="Helvetica,sans-Serif" font-size="10.00">+USE_COMPUTED_SIZE</text>
</g>
<!-- Node19 -->
<g id="node19" class="node">
<title>Node19</title>
<g id="a_node19"><a xlink:href="struct_sgl_1_1_insets.html" target="_top" xlink:title=" ">
<polygon fill="white" stroke="black" points="1016,-436 1016,-548 1095,-548 1095,-436 1016,-436"/>
<text text-anchor="middle" x="1055.5" y="-536" font-family="Helvetica,sans-Serif" font-size="10.00">Sgl::Insets</text>
<polyline fill="none" stroke="black" points="1016,-529 1095,-529 "/>
<text text-anchor="middle" x="1055.5" y="-517" font-family="Helvetica,sans-Serif" font-size="10.00"> </text>
<polyline fill="none" stroke="black" points="1016,-510 1095,-510 "/>
<text text-anchor="start" x="1024" y="-498" font-family="Helvetica,sans-Serif" font-size="10.00">+ Insets()</text>
<text text-anchor="start" x="1024" y="-487" font-family="Helvetica,sans-Serif" font-size="10.00">+ Insets()</text>
<text text-anchor="start" x="1024" y="-476" font-family="Helvetica,sans-Serif" font-size="10.00">+ Insets()</text>
<text text-anchor="start" x="1024" y="-465" font-family="Helvetica,sans-Serif" font-size="10.00">+ Insets()</text>
<text text-anchor="start" x="1024" y="-454" font-family="Helvetica,sans-Serif" font-size="10.00">+ operator+=()</text>
<text text-anchor="start" x="1024" y="-443" font-family="Helvetica,sans-Serif" font-size="10.00">+ operator&#45;=()</text>
</a>
</g>
</g>
<!-- Node5&#45;&gt;Node19 -->
<g id="edge23" class="edge">
<title>Node5&#45;&gt;Node19</title>
<path fill="none" stroke="#404040" d="M948.35,-634.47C964.57,-613.06 987.7,-582.52 1008.32,-555.29"/>
<polygon fill="none" stroke="#404040" points="1008.54,-555 1008.98,-547.8 1015.79,-545.43 1015.35,-552.63 1008.54,-555"/>
<text text-anchor="middle" x="1015.5" y="-608" font-family="Helvetica,sans-Serif" font-size="10.00"> +bottom</text>
<text text-anchor="middle" x="1015.5" y="-597" font-family="Helvetica,sans-Serif" font-size="10.00">+left</text>
<text text-anchor="middle" x="1015.5" y="-586" font-family="Helvetica,sans-Serif" font-size="10.00">+right</text>
<text text-anchor="middle" x="1015.5" y="-575" font-family="Helvetica,sans-Serif" font-size="10.00">+top</text>
</g>
<!-- Node6 -->
<g id="node6" class="node">
<title>Node6</title>
<g id="a_node6"><a xlink:title=" ">
<polygon fill="white" stroke="#bfbfbf" points="566,-254 566,-311 607,-311 607,-254 566,-254"/>
<text text-anchor="middle" x="586.5" y="-299" font-family="Helvetica,sans-Serif" font-size="10.00">friend</text>
<polyline fill="none" stroke="#bfbfbf" points="566,-292 607,-292 "/>
<text text-anchor="middle" x="586.5" y="-280" font-family="Helvetica,sans-Serif" font-size="10.00"> </text>
<polyline fill="none" stroke="#bfbfbf" points="566,-273 607,-273 "/>
<text text-anchor="middle" x="586.5" y="-261" font-family="Helvetica,sans-Serif" font-size="10.00"> </text>
</a>
</g>
</g>
<!-- Node6&#45;&gt;Node3 -->
<g id="edge5" class="edge">
<title>Node6&#45;&gt;Node3</title>
<path fill="none" stroke="#404040" d="M576.44,-253.64C569.85,-236.04 560.76,-212.93 551.5,-193 545.97,-181.11 539.81,-168.74 533.55,-156.67"/>
<polygon fill="none" stroke="#404040" points="533.37,-156.31 527.04,-152.85 527.79,-145.68 534.12,-149.14 533.37,-156.31"/>
<text text-anchor="middle" x="561" y="-167" font-family="Helvetica,sans-Serif" font-size="10.00"> +Scene</text>
</g>
<!-- Node7 -->
<g id="node7" class="node">
<title>Node7</title>
<g id="a_node7"><a xlink:title=" ">
<polygon fill="white" stroke="#bfbfbf" points="625,-254 625,-311 678,-311 678,-254 625,-254"/>
<text text-anchor="middle" x="651.5" y="-299" font-family="Helvetica,sans-Serif" font-size="10.00">Visibility</text>
<polyline fill="none" stroke="#bfbfbf" points="625,-292 678,-292 "/>
<text text-anchor="middle" x="651.5" y="-280" font-family="Helvetica,sans-Serif" font-size="10.00"> </text>
<polyline fill="none" stroke="#bfbfbf" points="625,-273 678,-273 "/>
<text text-anchor="middle" x="651.5" y="-261" font-family="Helvetica,sans-Serif" font-size="10.00"> </text>
</a>
</g>
</g>
<!-- Node7&#45;&gt;Node3 -->
<g id="edge6" class="edge">
<title>Node7&#45;&gt;Node3</title>
<path fill="none" stroke="#404040" d="M643.63,-253.63C637.67,-235.38 628.31,-211.57 615.5,-193 600.26,-170.91 580.26,-149.88 560.63,-131.81"/>
<polygon fill="none" stroke="#404040" points="560.56,-131.76 553.43,-130.71 551.65,-123.73 558.78,-124.77 560.56,-131.76"/>
<text text-anchor="middle" x="631" y="-167" font-family="Helvetica,sans-Serif" font-size="10.00"> #m_Visibility</text>
</g>
<!-- Node8 -->
<g id="node8" class="node">
<title>Node8</title>
<g id="a_node8"><a xlink:title=" ">
<polygon fill="white" stroke="#bfbfbf" points="503,-463.5 503,-520.5 538,-520.5 538,-463.5 503,-463.5"/>
<text text-anchor="middle" x="520.5" y="-508.5" font-family="Helvetica,sans-Serif" font-size="10.00">bool</text>
<polyline fill="none" stroke="#bfbfbf" points="503,-501.5 538,-501.5 "/>
<text text-anchor="middle" x="520.5" y="-489.5" font-family="Helvetica,sans-Serif" font-size="10.00"> </text>
<polyline fill="none" stroke="#bfbfbf" points="503,-482.5 538,-482.5 "/>
<text text-anchor="middle" x="520.5" y="-470.5" font-family="Helvetica,sans-Serif" font-size="10.00"> </text>
</a>
</g>
</g>
<!-- Node8&#45;&gt;Node2 -->
<g id="edge18" class="edge">
<title>Node8&#45;&gt;Node2</title>
<path fill="none" stroke="#404040" d="M528.42,-463.14C536.75,-439.39 552.36,-406.55 578.5,-390 618.58,-364.63 742.94,-390.28 803.95,-371.12"/>
<polygon fill="none" stroke="#404040" points="804.1,-371.06 808.21,-365.13 815.26,-366.66 811.15,-372.58 804.1,-371.06"/>
<text text-anchor="middle" x="627" y="-398.5" font-family="Helvetica,sans-Serif" font-size="10.00"> #m_NeedLayoutPass</text>
</g>
<!-- Node8&#45;&gt;Node3 -->
<g id="edge7" class="edge">
<title>Node8&#45;&gt;Node3</title>
<path fill="none" stroke="#404040" d="M513.54,-463.32C507.84,-439.34 500.14,-403.62 496.5,-372 488.21,-299.96 486.3,-217.52 486.26,-157.64"/>
<polygon fill="none" stroke="#404040" points="486.26,-157.6 482.27,-151.59 486.28,-145.6 490.27,-151.6 486.26,-157.6"/>
<text text-anchor="middle" x="526.5" y="-285.5" font-family="Helvetica,sans-Serif" font-size="10.00"> #m_Focused</text>
<text text-anchor="middle" x="526.5" y="-274.5" font-family="Helvetica,sans-Serif" font-size="10.00">#m_Hovered</text>
</g>
<!-- Node9 -->
<g id="node9" class="node">
<title>Node9</title>
<g id="a_node9"><a xlink:href="class_sgl_1_1_shadow.html" target="_top" xlink:title=" ">
<polygon fill="white" stroke="black" points="696,-221 696,-344 797,-344 797,-221 696,-221"/>
<text text-anchor="middle" x="746.5" y="-332" font-family="Helvetica,sans-Serif" font-size="10.00">Sgl::Shadow</text>
<polyline fill="none" stroke="black" points="696,-325 797,-325 "/>
<text text-anchor="middle" x="746.5" y="-313" font-family="Helvetica,sans-Serif" font-size="10.00"> </text>
<polyline fill="none" stroke="black" points="696,-306 797,-306 "/>
<text text-anchor="start" x="704" y="-294" font-family="Helvetica,sans-Serif" font-size="10.00">+ Shadow()</text>
<text text-anchor="start" x="704" y="-283" font-family="Helvetica,sans-Serif" font-size="10.00">+ ~Shadow()</text>
<text text-anchor="start" x="704" y="-272" font-family="Helvetica,sans-Serif" font-size="10.00">+ update()</text>
<text text-anchor="start" x="704" y="-261" font-family="Helvetica,sans-Serif" font-size="10.00">+ render()</text>
<text text-anchor="start" x="704" y="-250" font-family="Helvetica,sans-Serif" font-size="10.00">+ getTexture()</text>
<text text-anchor="start" x="704" y="-239" font-family="Helvetica,sans-Serif" font-size="10.00">+ getSpecification()</text>
<text text-anchor="start" x="704" y="-228" font-family="Helvetica,sans-Serif" font-size="10.00">+ setSpecification()</text>
</a>
</g>
</g>
<!-- Node9&#45;&gt;Node3 -->
<g id="edge8" class="edge">
<title>Node9&#45;&gt;Node3</title>
<path fill="none" stroke="#404040" d="M713.13,-220.94C699.94,-200.94 683.4,-179.79 664.5,-164 634.44,-138.88 596.18,-118.32 562.93,-103.23"/>
<polygon fill="none" stroke="#404040" points="562.84,-103.19 555.73,-104.41 551.87,-98.32 558.97,-97.1 562.84,-103.19"/>
<text text-anchor="middle" x="705.5" y="-167" font-family="Helvetica,sans-Serif" font-size="10.00"> #m_Shadow</text>
</g>
<!-- Node10 -->
<g id="node10" class="node">
<title>Node10</title>
<g id="a_node10"><a xlink:href="class_gui_event_dispatcher.html" target="_top" xlink:title=" ">
<polygon fill="white" stroke="black" points="56,-215.5 56,-349.5 191,-349.5 191,-215.5 56,-215.5"/>
<text text-anchor="middle" x="123.5" y="-337.5" font-family="Helvetica,sans-Serif" font-size="10.00">GuiEventDispatcher</text>
<polyline fill="none" stroke="black" points="56,-330.5 191,-330.5 "/>
<text text-anchor="middle" x="123.5" y="-318.5" font-family="Helvetica,sans-Serif" font-size="10.00"> </text>
<polyline fill="none" stroke="black" points="56,-311.5 191,-311.5 "/>
<text text-anchor="start" x="64" y="-299.5" font-family="Helvetica,sans-Serif" font-size="10.00">+ ~GuiEventDispatcher()</text>
<text text-anchor="start" x="64" y="-288.5" font-family="Helvetica,sans-Serif" font-size="10.00">+ attachFilter()</text>
<text text-anchor="start" x="64" y="-277.5" font-family="Helvetica,sans-Serif" font-size="10.00">+ detachFilter()</text>
<text text-anchor="start" x="64" y="-266.5" font-family="Helvetica,sans-Serif" font-size="10.00">+ attachHandler()</text>
<text text-anchor="start" x="64" y="-255.5" font-family="Helvetica,sans-Serif" font-size="10.00">+ detachHandler()</text>
<text text-anchor="start" x="64" y="-244.5" font-family="Helvetica,sans-Serif" font-size="10.00">+ dispatchEvent()</text>
<text text-anchor="start" x="64" y="-233.5" font-family="Helvetica,sans-Serif" font-size="10.00"># dispatchCapturingEvent()</text>
<text text-anchor="start" x="64" y="-222.5" font-family="Helvetica,sans-Serif" font-size="10.00"># dispatchBubblingEvent()</text>
</a>
</g>
</g>
<!-- Node10&#45;&gt;Node3 -->
<g id="edge9" class="edge">
<title>Node10&#45;&gt;Node3</title>
<path fill="none" stroke="#404040" d="M139.95,-215.25C147.46,-196.48 158.22,-177.51 173.5,-164 239.64,-105.54 341.43,-84.9 411.07,-77.7"/>
<polygon fill="none" stroke="#404040" points="411.31,-77.68 416.9,-73.13 423.26,-76.54 417.66,-81.09 411.31,-77.68"/>
<text text-anchor="middle" x="208.5" y="-167" font-family="Helvetica,sans-Serif" font-size="10.00"> #m_Dispatcher</text>
</g>
<!-- Node11 -->
<g id="node11" class="node">
<title>Node11</title>
<g id="a_node11"><a xlink:title=" ">
<polygon fill="white" stroke="#bfbfbf" points="0,-463.5 0,-520.5 113,-520.5 113,-463.5 0,-463.5"/>
<text text-anchor="middle" x="56.5" y="-508.5" font-family="Helvetica,sans-Serif" font-size="10.00">Sml::EventDispatcher</text>
<polyline fill="none" stroke="#bfbfbf" points="0,-501.5 113,-501.5 "/>
<text text-anchor="middle" x="56.5" y="-489.5" font-family="Helvetica,sans-Serif" font-size="10.00"> </text>
<polyline fill="none" stroke="#bfbfbf" points="0,-482.5 113,-482.5 "/>
<text text-anchor="middle" x="56.5" y="-470.5" font-family="Helvetica,sans-Serif" font-size="10.00"> </text>
</a>
</g>
</g>
<!-- Node11&#45;&gt;Node10 -->
<g id="edge10" class="edge">
<title>Node11&#45;&gt;Node10</title>
<path fill="none" stroke="midnightblue" d="M68.53,-453.75C77.86,-424.85 91.03,-384.06 102.14,-349.65"/>
<polygon fill="none" stroke="midnightblue" points="65.14,-452.85 65.4,-463.45 71.8,-455 65.14,-452.85"/>
</g>
<!-- Node12 -->
<g id="node12" class="node">
<title>Node12</title>
<g id="a_node12"><a xlink:title=" ">
<polygon fill="white" stroke="#bfbfbf" points="131.5,-463.5 131.5,-520.5 179.5,-520.5 179.5,-463.5 131.5,-463.5"/>
<text text-anchor="middle" x="155.5" y="-508.5" font-family="Helvetica,sans-Serif" font-size="10.00">Notifier</text>
<polyline fill="none" stroke="#bfbfbf" points="131.5,-501.5 179.5,-501.5 "/>
<text text-anchor="middle" x="155.5" y="-489.5" font-family="Helvetica,sans-Serif" font-size="10.00"> </text>
<polyline fill="none" stroke="#bfbfbf" points="131.5,-482.5 179.5,-482.5 "/>
<text text-anchor="middle" x="155.5" y="-470.5" font-family="Helvetica,sans-Serif" font-size="10.00"> </text>
</a>
</g>
</g>
<!-- Node12&#45;&gt;Node10 -->
<g id="edge11" class="edge">
<title>Node12&#45;&gt;Node10</title>
<path fill="none" stroke="#404040" d="M151.25,-463.45C147.25,-437.5 141.06,-397.37 135.54,-361.59"/>
<polygon fill="none" stroke="#404040" points="135.53,-361.51 130.66,-356.19 133.7,-349.65 138.57,-354.97 135.53,-361.51"/>
<text text-anchor="middle" x="188.5" y="-404" font-family="Helvetica,sans-Serif" font-size="10.00"> #m_FiltersNotifier</text>
<text text-anchor="middle" x="188.5" y="-393" font-family="Helvetica,sans-Serif" font-size="10.00">#m_HandlersNotifier</text>
</g>
<!-- Node13&#45;&gt;Node3 -->
<g id="edge12" class="edge">
<title>Node13&#45;&gt;Node3</title>
<path fill="none" stroke="#404040" d="M239.1,-226.2C238.08,-205.02 240.89,-181.71 253.5,-164 289.47,-113.49 357.88,-91.32 411.48,-81.6"/>
<polygon fill="none" stroke="#404040" points="411.54,-81.59 416.79,-76.65 423.37,-79.6 418.12,-84.54 411.54,-81.59"/>
<text text-anchor="middle" x="278.5" y="-167" font-family="Helvetica,sans-Serif" font-size="10.00"> #m_Scene</text>
</g>
<!-- Node14 -->
<g id="node14" class="node">
<title>Node14</title>
<g id="a_node14"><a xlink:title=" ">
<polygon fill="white" stroke="#bfbfbf" points="346,-254 346,-311 413,-311 413,-254 346,-254"/>
<text text-anchor="middle" x="379.5" y="-299" font-family="Helvetica,sans-Serif" font-size="10.00">Rectangle&lt;</text>
<polyline fill="none" stroke="#bfbfbf" points="346,-292 413,-292 "/>
<text text-anchor="middle" x="379.5" y="-280" font-family="Helvetica,sans-Serif" font-size="10.00"> </text>
<polyline fill="none" stroke="#bfbfbf" points="346,-273 413,-273 "/>
<text text-anchor="middle" x="379.5" y="-261" font-family="Helvetica,sans-Serif" font-size="10.00"> </text>
</a>
</g>
</g>
<!-- Node14&#45;&gt;Node3 -->
<g id="edge15" class="edge">
<title>Node14&#45;&gt;Node3</title>
<path fill="none" stroke="#404040" d="M364.74,-253.89C353.64,-229.08 342.67,-192.31 357.5,-164 369.71,-140.7 390.99,-122.23 412.84,-108.25"/>
<polygon fill="none" stroke="#404040" points="412.98,-108.16 416.03,-101.63 423.24,-101.94 420.18,-108.47 412.98,-108.16"/>
<text text-anchor="middle" x="400" y="-167" font-family="Helvetica,sans-Serif" font-size="10.00"> #m_LayoutBounds</text>
</g>
<!-- Node15 -->
<g id="node15" class="node">
<title>Node15</title>
<g id="a_node15"><a xlink:title=" ">
<polygon fill="white" stroke="#bfbfbf" points="1175,-463.5 1175,-520.5 1210,-520.5 1210,-463.5 1175,-463.5"/>
<text text-anchor="middle" x="1192.5" y="-508.5" font-family="Helvetica,sans-Serif" font-size="10.00">list&lt;</text>
<polyline fill="none" stroke="#bfbfbf" points="1175,-501.5 1210,-501.5 "/>
<text text-anchor="middle" x="1192.5" y="-489.5" font-family="Helvetica,sans-Serif" font-size="10.00"> </text>
<polyline fill="none" stroke="#bfbfbf" points="1175,-482.5 1210,-482.5 "/>
<text text-anchor="middle" x="1192.5" y="-470.5" font-family="Helvetica,sans-Serif" font-size="10.00"> </text>
</a>
</g>
</g>
<!-- Node15&#45;&gt;Node2 -->
<g id="edge16" class="edge">
<title>Node15&#45;&gt;Node2</title>
<path fill="none" stroke="#404040" d="M1184.65,-463.2C1180.4,-451.89 1174.19,-439.32 1165.5,-430 1112.87,-373.56 1033.51,-334.69 973.21,-311.24"/>
<polygon fill="none" stroke="#404040" points="973.01,-311.17 965.98,-312.77 961.8,-306.9 968.83,-305.29 973.01,-311.17"/>
<text text-anchor="middle" x="1170.5" y="-398.5" font-family="Helvetica,sans-Serif" font-size="10.00"> #m_Children</text>
</g>
<!-- Node16 -->
<g id="node16" class="node">
<title>Node16</title>
<g id="a_node16"><a xlink:title=" ">
<polygon fill="white" stroke="#bfbfbf" points="619.5,-463.5 619.5,-520.5 675.5,-520.5 675.5,-463.5 619.5,-463.5"/>
<text text-anchor="middle" x="647.5" y="-508.5" font-family="Helvetica,sans-Serif" font-size="10.00">Texture *</text>
<polyline fill="none" stroke="#bfbfbf" points="619.5,-501.5 675.5,-501.5 "/>
<text text-anchor="middle" x="647.5" y="-489.5" font-family="Helvetica,sans-Serif" font-size="10.00"> </text>
<polyline fill="none" stroke="#bfbfbf" points="619.5,-482.5 675.5,-482.5 "/>
<text text-anchor="middle" x="647.5" y="-470.5" font-family="Helvetica,sans-Serif" font-size="10.00"> </text>
</a>
</g>
</g>
<!-- Node16&#45;&gt;Node2 -->
<g id="edge17" class="edge">
<title>Node16&#45;&gt;Node2</title>
<path fill="none" stroke="#404040" d="M654.58,-463.3C662.04,-439.99 676.16,-407.7 700.5,-390 735.95,-364.22 760.02,-389.97 804.28,-371.45"/>
<polygon fill="none" stroke="#404040" points="804.53,-371.33 808.19,-365.11 815.33,-366.09 811.68,-372.31 804.53,-371.33"/>
<text text-anchor="middle" x="732.5" y="-398.5" font-family="Helvetica,sans-Serif" font-size="10.00"> #m_Snapshot</text>
</g>
<!-- Node17 -->
<g id="node17" class="node">
<title>Node17</title>
<g id="a_node17"><a xlink:href="class_sgl_1_1_background.html" target="_top" xlink:title=" ">
<polygon fill="white" stroke="black" points="694,-430.5 694,-553.5 783,-553.5 783,-430.5 694,-430.5"/>
<text text-anchor="middle" x="738.5" y="-541.5" font-family="Helvetica,sans-Serif" font-size="10.00">Sgl::Background</text>
<polyline fill="none" stroke="black" points="694,-534.5 783,-534.5 "/>
<text text-anchor="middle" x="738.5" y="-522.5" font-family="Helvetica,sans-Serif" font-size="10.00"> </text>
<polyline fill="none" stroke="black" points="694,-515.5 783,-515.5 "/>
<text text-anchor="start" x="702" y="-503.5" font-family="Helvetica,sans-Serif" font-size="10.00">+ Background()</text>
<text text-anchor="start" x="702" y="-492.5" font-family="Helvetica,sans-Serif" font-size="10.00">+ Background()</text>
<text text-anchor="start" x="702" y="-481.5" font-family="Helvetica,sans-Serif" font-size="10.00">+ Background()</text>
<text text-anchor="start" x="702" y="-470.5" font-family="Helvetica,sans-Serif" font-size="10.00">+ Background()</text>
<text text-anchor="start" x="702" y="-459.5" font-family="Helvetica,sans-Serif" font-size="10.00">+ addFill()</text>
<text text-anchor="start" x="702" y="-448.5" font-family="Helvetica,sans-Serif" font-size="10.00">and 5 more...</text>
<text text-anchor="start" x="702" y="-437.5" font-family="Helvetica,sans-Serif" font-size="10.00">+ fillArea()</text>
</a>
</g>
</g>
<!-- Node17&#45;&gt;Node2 -->
<g id="edge19" class="edge">
<title>Node17&#45;&gt;Node2</title>
<path fill="none" stroke="#404040" d="M758.19,-430.44C764.37,-416.36 772.09,-402 781.5,-390 789.73,-379.51 795.57,-380.9 805.5,-372 805.81,-371.72 806.12,-371.45 806.43,-371.17"/>
<polygon fill="none" stroke="#404040" points="806.61,-371 808.29,-363.99 815.41,-362.85 813.73,-369.86 806.61,-371"/>
<text text-anchor="middle" x="818.5" y="-398.5" font-family="Helvetica,sans-Serif" font-size="10.00"> #m_Background</text>
</g>
<!-- Node18 -->
<g id="node18" class="node">
<title>Node18</title>
<g id="a_node18"><a xlink:href="class_sgl_1_1_border.html" target="_top" xlink:title=" ">
<polygon fill="white" stroke="black" points="801.5,-436 801.5,-548 891.5,-548 891.5,-436 801.5,-436"/>
<text text-anchor="middle" x="846.5" y="-536" font-family="Helvetica,sans-Serif" font-size="10.00">Sgl::Border</text>
<polyline fill="none" stroke="black" points="801.5,-529 891.5,-529 "/>
<text text-anchor="middle" x="846.5" y="-517" font-family="Helvetica,sans-Serif" font-size="10.00"> </text>
<polyline fill="none" stroke="black" points="801.5,-510 891.5,-510 "/>
<text text-anchor="start" x="809.5" y="-498" font-family="Helvetica,sans-Serif" font-size="10.00">+ Border()</text>
<text text-anchor="start" x="809.5" y="-487" font-family="Helvetica,sans-Serif" font-size="10.00">+ Border()</text>
<text text-anchor="start" x="809.5" y="-476" font-family="Helvetica,sans-Serif" font-size="10.00">+ Border()</text>
<text text-anchor="start" x="809.5" y="-465" font-family="Helvetica,sans-Serif" font-size="10.00">+ getThickness()</text>
<text text-anchor="start" x="809.5" y="-454" font-family="Helvetica,sans-Serif" font-size="10.00">+ getColor()</text>
<text text-anchor="start" x="809.5" y="-443" font-family="Helvetica,sans-Serif" font-size="10.00">+ encloseArea()</text>
</a>
</g>
</g>
<!-- Node18&#45;&gt;Node2 -->
<g id="edge20" class="edge">
<title>Node18&#45;&gt;Node2</title>
<path fill="none" stroke="#404040" d="M854.4,-435.81C856.76,-420.9 859.53,-404.79 862.5,-390 862.93,-387.85 863.38,-385.69 863.83,-383.5"/>
<polygon fill="none" stroke="#404040" points="863.85,-383.44 861.2,-376.73 866.37,-371.71 869.02,-378.42 863.85,-383.44"/>
<text text-anchor="middle" x="888" y="-398.5" font-family="Helvetica,sans-Serif" font-size="10.00"> #m_Border</text>
</g>
<!-- Node19&#45;&gt;Node2 -->
<g id="edge21" class="edge">
<title>Node19&#45;&gt;Node2</title>
<path fill="none" stroke="#404040" d="M1015.92,-441.83C1001.29,-423.64 984.13,-402.32 967.24,-381.33"/>
<polygon fill="none" stroke="#404040" points="967.03,-381.07 960.15,-378.9 959.5,-371.72 966.38,-373.89 967.03,-381.07"/>
<text text-anchor="middle" x="1021.5" y="-398.5" font-family="Helvetica,sans-Serif" font-size="10.00"> #m_Padding</text>
</g>
<!-- Node19&#45;&gt;Node19 -->
<g id="edge22" class="edge">
<title>Node19&#45;&gt;Node19</title>
<path fill="none" stroke="#404040" d="M1095.01,-508.7C1105.26,-507.67 1113,-502.11 1113,-492 1113,-486.31 1110.55,-482.07 1106.58,-479.25"/>
<polygon fill="none" stroke="#404040" points="1106.36,-479.18 1099.39,-481.02 1095.01,-475.3 1101.98,-473.45 1106.36,-479.18"/>
<text text-anchor="middle" x="1135" y="-489.5" font-family="Helvetica,sans-Serif" font-size="10.00"> +EMPTY</text>
</g>
<!-- Node20 -->
<g id="node20" class="node">
<title>Node20</title>
<g id="a_node20"><a xlink:href="class_sgl_1_1_skinnable.html" target="_top" xlink:title=" ">
<polygon fill="white" stroke="black" points="1312.5,-248.5 1312.5,-316.5 1392.5,-316.5 1392.5,-248.5 1312.5,-248.5"/>
<text text-anchor="middle" x="1352.5" y="-304.5" font-family="Helvetica,sans-Serif" font-size="10.00">Sgl::Skinnable</text>
<polyline fill="none" stroke="black" points="1312.5,-297.5 1392.5,-297.5 "/>
<text text-anchor="middle" x="1352.5" y="-285.5" font-family="Helvetica,sans-Serif" font-size="10.00"> </text>
<polyline fill="none" stroke="black" points="1312.5,-278.5 1392.5,-278.5 "/>
<text text-anchor="start" x="1320.5" y="-266.5" font-family="Helvetica,sans-Serif" font-size="10.00">+ getSkin()</text>
<text text-anchor="start" x="1320.5" y="-255.5" font-family="Helvetica,sans-Serif" font-size="10.00">+ setSkin()</text>
</a>
</g>
</g>
<!-- Node20&#45;&gt;Node1 -->
<g id="edge25" class="edge">
<title>Node20&#45;&gt;Node1</title>
<path fill="none" stroke="midnightblue" d="M1327.06,-239.29C1318.11,-224.59 1307.94,-208.02 1298.5,-193 1288.81,-177.58 1278.29,-161.13 1268.23,-145.54"/>
<polygon fill="none" stroke="midnightblue" points="1324.27,-241.44 1332.45,-248.17 1330.25,-237.81 1324.27,-241.44"/>
</g>
<!-- Node21 -->
<g id="node21" class="node">
<title>Node21</title>
<g id="a_node21"><a xlink:href="class_sgl_1_1_skin.html" target="_top" xlink:title=" ">
<polygon fill="white" stroke="black" points="1257.5,-436 1257.5,-548 1365.5,-548 1365.5,-436 1257.5,-436"/>
<text text-anchor="middle" x="1311.5" y="-536" font-family="Helvetica,sans-Serif" font-size="10.00">Sgl::Skin</text>
<polyline fill="none" stroke="black" points="1257.5,-529 1365.5,-529 "/>
<text text-anchor="middle" x="1311.5" y="-517" font-family="Helvetica,sans-Serif" font-size="10.00"> </text>
<polyline fill="none" stroke="black" points="1257.5,-510 1365.5,-510 "/>
<text text-anchor="start" x="1265.5" y="-498" font-family="Helvetica,sans-Serif" font-size="10.00">+ ~Skin()</text>
<text text-anchor="start" x="1265.5" y="-487" font-family="Helvetica,sans-Serif" font-size="10.00">+ dispose()</text>
<text text-anchor="start" x="1265.5" y="-476" font-family="Helvetica,sans-Serif" font-size="10.00">+ prerenderControl()</text>
<text text-anchor="start" x="1265.5" y="-465" font-family="Helvetica,sans-Serif" font-size="10.00">+ getHitComponent()</text>
<text text-anchor="start" x="1265.5" y="-454" font-family="Helvetica,sans-Serif" font-size="10.00">+ getControl()</text>
<text text-anchor="start" x="1265.5" y="-443" font-family="Helvetica,sans-Serif" font-size="10.00">and 8 more...</text>
</a>
</g>
</g>
<!-- Node21&#45;&gt;Node1 -->
<g id="edge27" class="edge">
<title>Node21&#45;&gt;Node1</title>
<path fill="none" stroke="#404040" d="M1264.38,-435.79C1250.88,-416.79 1237.83,-394.58 1230.5,-372 1207.92,-302.45 1207.52,-218.92 1211.7,-158.01"/>
<polygon fill="none" stroke="#404040" points="1211.72,-157.72 1208.18,-151.44 1212.62,-145.75 1216.16,-152.04 1211.72,-157.72"/>
<text text-anchor="middle" x="1267" y="-280" font-family="Helvetica,sans-Serif" font-size="10.00"> #m_DefaultSkin</text>
</g>
<!-- Node21&#45;&gt;Node20 -->
<g id="edge26" class="edge">
<title>Node21&#45;&gt;Node20</title>
<path fill="none" stroke="#404040" d="M1322.38,-435.94C1329,-402.44 1337.35,-360.19 1343.57,-328.67"/>
<polygon fill="none" stroke="#404040" points="1343.61,-328.51 1340.85,-321.84 1345.93,-316.73 1348.69,-323.4 1343.61,-328.51"/>
<text text-anchor="middle" x="1352.5" y="-398.5" font-family="Helvetica,sans-Serif" font-size="10.00"> #m_Skin</text>
</g>
</g>
</svg>
