<?xml version="1.0" encoding="UTF-8" standalone="no"?>
<!DOCTYPE svg PUBLIC "-//W3C//DTD SVG 1.1//EN"
 "http://www.w3.org/Graphics/SVG/1.1/DTD/svg11.dtd">
<!-- Generated by graphviz version 2.50.0 (20211204.2007)
 -->
<!-- Title: Sgl::BaseSkin&lt; C &gt; Pages: 1 -->
<!--zoomable 709 -->
<svg id="main" version="1.1" xmlns="http://www.w3.org/2000/svg" xmlns:xlink="http://www.w3.org/1999/xlink" xml:space="preserve" onload="init(evt)">
<style type="text/css"><![CDATA[
.edge:hover path { stroke: red; }
.edge:hover polygon { stroke: red; fill: red; }
]]></style>
<script type="text/javascript"><![CDATA[
var edges = document.getElementsByTagName('g');
if (edges && edges.length) {
  for (var i=0;i<edges.length;i++) {
    if (edges[i].id.substr(0,4)=='edge') {
      edges[i].setAttribute('class','edge');
    }
  }
}
]]></script>
        <defs>
                <circle id="rim" cx="0" cy="0" r="7"/>
                <circle id="rim2" cx="0" cy="0" r="3.5"/>
                <g id="zoomPlus">
                        <use xlink:href="#rim" fill="#404040">
                                <set attributeName="fill" to="#808080" begin="zoomplus.mouseover" end="zoomplus.mouseout"/>
                        </use>
                        <path d="M-4,0h8M0,-4v8" fill="none" stroke="white" stroke-width="1.5" pointer-events="none"/>
                </g>
                <g id="zoomMin">
                        <use xlink:href="#rim" fill="#404040">
                                <set attributeName="fill" to="#808080" begin="zoomminus.mouseover" end="zoomminus.mouseout"/>
                        </use>
                        <path d="M-4,0h8" fill="none" stroke="white" stroke-width="1.5" pointer-events="none"/>
                </g>
                <g id="dirArrow">
                        <path fill="none" stroke="white" stroke-width="1.5" d="M0,-3.0v7 M-2.5,-0.5L0,-3.0L2.5,-0.5"/>
                </g>
               <g id="resetDef">
                       <use xlink:href="#rim2" fill="#404040">
                               <set attributeName="fill" to="#808080" begin="reset.mouseover" end="reset.mouseout"/>
                       </use>
               </g>
        </defs>

<script type="text/javascript">
var viewWidth = 887;
var viewHeight = 709;
var sectionId = 'dynsection-0';
</script>
<script xlink:href="svgpan.js"/>
<svg id="graph" class="graph">
<g id="viewport">
<title>Sgl::BaseSkin&lt; C &gt;</title>
<polygon fill="white" stroke="transparent" points="-4,4 -4,-705 882.5,-705 882.5,4 -4,4"/>
<!-- Node1 -->
<g id="node1" class="node">
<title>Node1</title>
<g id="a_node1"><a xlink:title=" ">
<polygon fill="#bfbfbf" stroke="black" points="490,-493.5 490,-550.5 594,-550.5 594,-493.5 490,-493.5"/>
<text text-anchor="middle" x="542" y="-538.5" font-family="Helvetica,sans-Serif" font-size="10.00">Sgl::BaseSkin&lt; C &gt;</text>
<polyline fill="none" stroke="black" points="490,-531.5 594,-531.5 "/>
<text text-anchor="middle" x="542" y="-519.5" font-family="Helvetica,sans-Serif" font-size="10.00"> </text>
<polyline fill="none" stroke="black" points="490,-512.5 594,-512.5 "/>
<text text-anchor="start" x="498" y="-500.5" font-family="Helvetica,sans-Serif" font-size="10.00">+ attach()</text>
</a>
</g>
</g>
<!-- Node3 -->
<g id="node3" class="node">
<title>Node3</title>
<g id="a_node3"><a xlink:href="class_sgl_1_1_base_skin.html" target="_top" xlink:title=" ">
<polygon fill="white" stroke="black" points="241.5,-388.5 241.5,-445.5 366.5,-445.5 366.5,-388.5 241.5,-388.5"/>
<text text-anchor="middle" x="304" y="-433.5" font-family="Helvetica,sans-Serif" font-size="10.00">Sgl::BaseSkin&lt; Button &gt;</text>
<polyline fill="none" stroke="black" points="241.5,-426.5 366.5,-426.5 "/>
<text text-anchor="middle" x="304" y="-414.5" font-family="Helvetica,sans-Serif" font-size="10.00"> </text>
<polyline fill="none" stroke="black" points="241.5,-407.5 366.5,-407.5 "/>
<text text-anchor="start" x="249.5" y="-395.5" font-family="Helvetica,sans-Serif" font-size="10.00">+ attach()</text>
</a>
</g>
</g>
<!-- Node1&#45;&gt;Node3 -->
<g id="edge2" class="edge">
<title>Node1&#45;&gt;Node3</title>
<path fill="none" stroke="orange" d="M480.16,-494.24C445.25,-479.13 401.72,-460.29 366.67,-445.12"/>
<polygon fill="orange" stroke="orange" points="479.2,-497.64 489.77,-498.4 481.98,-491.21 479.2,-497.64"/>
<text text-anchor="middle" x="456" y="-467" font-family="Helvetica,sans-Serif" font-size="10.00"> &lt; Button &gt;</text>
</g>
<!-- Node8 -->
<g id="node8" class="node">
<title>Node8</title>
<g id="a_node8"><a xlink:href="class_sgl_1_1_base_skin.html" target="_top" xlink:title=" ">
<polygon fill="white" stroke="black" points="392.5,-388.5 392.5,-445.5 529.5,-445.5 529.5,-388.5 392.5,-388.5"/>
<text text-anchor="middle" x="461" y="-433.5" font-family="Helvetica,sans-Serif" font-size="10.00">Sgl::BaseSkin&lt; ScrollBar &gt;</text>
<polyline fill="none" stroke="black" points="392.5,-426.5 529.5,-426.5 "/>
<text text-anchor="middle" x="461" y="-414.5" font-family="Helvetica,sans-Serif" font-size="10.00"> </text>
<polyline fill="none" stroke="black" points="392.5,-407.5 529.5,-407.5 "/>
<text text-anchor="start" x="400.5" y="-395.5" font-family="Helvetica,sans-Serif" font-size="10.00">+ attach()</text>
</a>
</g>
</g>
<!-- Node1&#45;&gt;Node8 -->
<g id="edge7" class="edge">
<title>Node1&#45;&gt;Node8</title>
<path fill="none" stroke="orange" d="M514.09,-485.51C503.84,-472.48 492.4,-457.93 482.77,-445.68"/>
<polygon fill="orange" stroke="orange" points="511.36,-487.7 520.29,-493.4 516.86,-483.37 511.36,-487.7"/>
<text text-anchor="middle" x="534.5" y="-467" font-family="Helvetica,sans-Serif" font-size="10.00"> &lt; ScrollBar &gt;</text>
</g>
<!-- Node10 -->
<g id="node10" class="node">
<title>Node10</title>
<g id="a_node10"><a xlink:href="class_sgl_1_1_base_skin.html" target="_top" xlink:title=" ">
<polygon fill="white" stroke="black" points="552,-388.5 552,-445.5 696,-445.5 696,-388.5 552,-388.5"/>
<text text-anchor="middle" x="624" y="-433.5" font-family="Helvetica,sans-Serif" font-size="10.00">Sgl::BaseSkin&lt; ScrollPane &gt;</text>
<polyline fill="none" stroke="black" points="552,-426.5 696,-426.5 "/>
<text text-anchor="middle" x="624" y="-414.5" font-family="Helvetica,sans-Serif" font-size="10.00"> </text>
<polyline fill="none" stroke="black" points="552,-407.5 696,-407.5 "/>
<text text-anchor="start" x="560" y="-395.5" font-family="Helvetica,sans-Serif" font-size="10.00">+ attach()</text>
</a>
</g>
</g>
<!-- Node1&#45;&gt;Node10 -->
<g id="edge9" class="edge">
<title>Node1&#45;&gt;Node10</title>
<path fill="none" stroke="orange" d="M570.25,-485.51C580.63,-472.48 592.21,-457.93 601.96,-445.68"/>
<polygon fill="orange" stroke="orange" points="567.46,-483.39 563.97,-493.4 572.94,-487.75 567.46,-483.39"/>
<text text-anchor="middle" x="620.5" y="-467" font-family="Helvetica,sans-Serif" font-size="10.00"> &lt; ScrollPane &gt;</text>
</g>
<!-- Node12 -->
<g id="node12" class="node">
<title>Node12</title>
<g id="a_node12"><a xlink:href="class_sgl_1_1_base_skin.html" target="_top" xlink:title=" ">
<polygon fill="white" stroke="black" points="730,-388.5 730,-445.5 852,-445.5 852,-388.5 730,-388.5"/>
<text text-anchor="middle" x="791" y="-433.5" font-family="Helvetica,sans-Serif" font-size="10.00">Sgl::BaseSkin&lt; Slider &gt;</text>
<polyline fill="none" stroke="black" points="730,-426.5 852,-426.5 "/>
<text text-anchor="middle" x="791" y="-414.5" font-family="Helvetica,sans-Serif" font-size="10.00"> </text>
<polyline fill="none" stroke="black" points="730,-407.5 852,-407.5 "/>
<text text-anchor="start" x="738" y="-395.5" font-family="Helvetica,sans-Serif" font-size="10.00">+ attach()</text>
</a>
</g>
</g>
<!-- Node1&#45;&gt;Node12 -->
<g id="edge11" class="edge">
<title>Node1&#45;&gt;Node12</title>
<path fill="none" stroke="orange" d="M603.98,-497.07C621.79,-490.08 641.21,-482.34 659,-475 682.19,-465.44 707.52,-454.6 729.73,-444.96"/>
<polygon fill="orange" stroke="orange" points="602.31,-493.97 594.28,-500.87 604.86,-500.49 602.31,-493.97"/>
<text text-anchor="middle" x="707" y="-467" font-family="Helvetica,sans-Serif" font-size="10.00"> &lt; Slider &gt;</text>
</g>
<!-- Node2 -->
<g id="node2" class="node">
<title>Node2</title>
<g id="a_node2"><a xlink:href="class_sgl_1_1_skin.html" target="_top" xlink:title=" ">
<polygon fill="white" stroke="black" points="488,-588.5 488,-700.5 596,-700.5 596,-588.5 488,-588.5"/>
<text text-anchor="middle" x="542" y="-688.5" font-family="Helvetica,sans-Serif" font-size="10.00">Sgl::Skin</text>
<polyline fill="none" stroke="black" points="488,-681.5 596,-681.5 "/>
<text text-anchor="middle" x="542" y="-669.5" font-family="Helvetica,sans-Serif" font-size="10.00"> </text>
<polyline fill="none" stroke="black" points="488,-662.5 596,-662.5 "/>
<text text-anchor="start" x="496" y="-650.5" font-family="Helvetica,sans-Serif" font-size="10.00">+ ~Skin()</text>
<text text-anchor="start" x="496" y="-639.5" font-family="Helvetica,sans-Serif" font-size="10.00">+ dispose()</text>
<text text-anchor="start" x="496" y="-628.5" font-family="Helvetica,sans-Serif" font-size="10.00">+ prerenderControl()</text>
<text text-anchor="start" x="496" y="-617.5" font-family="Helvetica,sans-Serif" font-size="10.00">+ getHitComponent()</text>
<text text-anchor="start" x="496" y="-606.5" font-family="Helvetica,sans-Serif" font-size="10.00">+ getControl()</text>
<text text-anchor="start" x="496" y="-595.5" font-family="Helvetica,sans-Serif" font-size="10.00">and 8 more...</text>
</a>
</g>
</g>
<!-- Node2&#45;&gt;Node1 -->
<g id="edge1" class="edge">
<title>Node2&#45;&gt;Node1</title>
<path fill="none" stroke="midnightblue" d="M542,-578.12C542,-568.48 542,-559.01 542,-550.72"/>
<polygon fill="none" stroke="midnightblue" points="538.5,-578.19 542,-588.19 545.5,-578.19 538.5,-578.19"/>
</g>
<!-- Node4 -->
<g id="node4" class="node">
<title>Node4</title>
<g id="a_node4"><a xlink:href="class_sgl_1_1_default_skins_1_1_button_base_skin.html" target="_top" xlink:title=" ">
<polygon fill="white" stroke="black" points="187,-161.5 187,-350.5 357,-350.5 357,-161.5 187,-161.5"/>
<text text-anchor="middle" x="272" y="-338.5" font-family="Helvetica,sans-Serif" font-size="10.00">Sgl::DefaultSkins::ButtonBaseSkin</text>
<polyline fill="none" stroke="black" points="187,-331.5 357,-331.5 "/>
<text text-anchor="start" x="195" y="-319.5" font-family="Helvetica,sans-Serif" font-size="10.00"># m_StaticStyle</text>
<text text-anchor="start" x="195" y="-308.5" font-family="Helvetica,sans-Serif" font-size="10.00"># m_IdleStyle</text>
<text text-anchor="start" x="195" y="-297.5" font-family="Helvetica,sans-Serif" font-size="10.00"># m_HoveredStyle</text>
<text text-anchor="start" x="195" y="-286.5" font-family="Helvetica,sans-Serif" font-size="10.00"># m_PressedStyle</text>
<text text-anchor="start" x="195" y="-275.5" font-family="Helvetica,sans-Serif" font-size="10.00"># m_Button</text>
<text text-anchor="start" x="195" y="-264.5" font-family="Helvetica,sans-Serif" font-size="10.00">and 3 more...</text>
<polyline fill="none" stroke="black" points="187,-257.5 357,-257.5 "/>
<text text-anchor="start" x="195" y="-245.5" font-family="Helvetica,sans-Serif" font-size="10.00">+ ButtonBaseSkin()</text>
<text text-anchor="start" x="195" y="-234.5" font-family="Helvetica,sans-Serif" font-size="10.00">+ ButtonBaseSkin()</text>
<text text-anchor="start" x="195" y="-223.5" font-family="Helvetica,sans-Serif" font-size="10.00">+ dispose()</text>
<text text-anchor="start" x="195" y="-212.5" font-family="Helvetica,sans-Serif" font-size="10.00">+ attach()</text>
<text text-anchor="start" x="195" y="-201.5" font-family="Helvetica,sans-Serif" font-size="10.00">+ prerenderControl()</text>
<text text-anchor="start" x="195" y="-190.5" font-family="Helvetica,sans-Serif" font-size="10.00">and 6 more...</text>
<text text-anchor="start" x="195" y="-179.5" font-family="Helvetica,sans-Serif" font-size="10.00"># getMargin()</text>
<text text-anchor="start" x="195" y="-168.5" font-family="Helvetica,sans-Serif" font-size="10.00"># applyStaticStyle()</text>
</a>
</g>
</g>
<!-- Node3&#45;&gt;Node4 -->
<g id="edge3" class="edge">
<title>Node3&#45;&gt;Node4</title>
<path fill="none" stroke="midnightblue" d="M296.42,-378.36C294.7,-369.81 292.8,-360.35 290.84,-350.6"/>
<polygon fill="none" stroke="midnightblue" points="293.02,-379.19 298.43,-388.3 299.88,-377.81 293.02,-379.19"/>
</g>
<!-- Node5 -->
<g id="node5" class="node">
<title>Node5</title>
<g id="a_node5"><a xlink:href="class_sgl_1_1_default_skins_1_1_button_plane_skin.html" target="_top" xlink:title=" ">
<polygon fill="white" stroke="black" points="0,-28 0,-96 172,-96 172,-28 0,-28"/>
<text text-anchor="middle" x="86" y="-84" font-family="Helvetica,sans-Serif" font-size="10.00">Sgl::DefaultSkins::ButtonPlaneSkin</text>
<polyline fill="none" stroke="black" points="0,-77 172,-77 "/>
<text text-anchor="middle" x="86" y="-65" font-family="Helvetica,sans-Serif" font-size="10.00"> </text>
<polyline fill="none" stroke="black" points="0,-58 172,-58 "/>
<text text-anchor="start" x="8" y="-46" font-family="Helvetica,sans-Serif" font-size="10.00">+ ButtonPlaneSkin()</text>
<text text-anchor="start" x="8" y="-35" font-family="Helvetica,sans-Serif" font-size="10.00">+ ButtonPlaneSkin()</text>
</a>
</g>
</g>
<!-- Node4&#45;&gt;Node5 -->
<g id="edge4" class="edge">
<title>Node4&#45;&gt;Node5</title>
<path fill="none" stroke="midnightblue" d="M179.7,-159.73C157.54,-136.84 135.32,-113.91 118.08,-96.12"/>
<polygon fill="none" stroke="midnightblue" points="177.42,-162.4 186.89,-167.15 182.45,-157.53 177.42,-162.4"/>
</g>
<!-- Node6 -->
<g id="node6" class="node">
<title>Node6</title>
<g id="a_node6"><a xlink:href="class_sgl_1_1_default_skins_1_1_button_skin.html" target="_top" xlink:title=" ">
<polygon fill="white" stroke="black" points="190,-0.5 190,-123.5 354,-123.5 354,-0.5 190,-0.5"/>
<text text-anchor="middle" x="272" y="-111.5" font-family="Helvetica,sans-Serif" font-size="10.00">Sgl::DefaultSkins::ButtonSkin</text>
<polyline fill="none" stroke="black" points="190,-104.5 354,-104.5 "/>
<text text-anchor="start" x="198" y="-92.5" font-family="Helvetica,sans-Serif" font-size="10.00">+ PADDING_LABEL_ONLY</text>
<text text-anchor="start" x="198" y="-81.5" font-family="Helvetica,sans-Serif" font-size="10.00">+ PADDING_ICON_ONLY</text>
<text text-anchor="start" x="198" y="-70.5" font-family="Helvetica,sans-Serif" font-size="10.00">+ PADDING_LABEL_AND_ICON</text>
<text text-anchor="start" x="198" y="-59.5" font-family="Helvetica,sans-Serif" font-size="10.00">+ MARGIN</text>
<text text-anchor="start" x="198" y="-48.5" font-family="Helvetica,sans-Serif" font-size="10.00">+ BORDER</text>
<text text-anchor="start" x="198" y="-37.5" font-family="Helvetica,sans-Serif" font-size="10.00">and 9 more...</text>
<polyline fill="none" stroke="black" points="190,-30.5 354,-30.5 "/>
<text text-anchor="start" x="198" y="-18.5" font-family="Helvetica,sans-Serif" font-size="10.00">+ ButtonSkin()</text>
<text text-anchor="start" x="198" y="-7.5" font-family="Helvetica,sans-Serif" font-size="10.00">+ ButtonSkin()</text>
</a>
</g>
</g>
<!-- Node4&#45;&gt;Node6 -->
<g id="edge5" class="edge">
<title>Node4&#45;&gt;Node6</title>
<path fill="none" stroke="midnightblue" d="M272,-151.09C272,-141.75 272,-132.51 272,-123.73"/>
<polygon fill="none" stroke="midnightblue" points="268.5,-151.25 272,-161.25 275.5,-151.25 268.5,-151.25"/>
</g>
<!-- Node7 -->
<g id="node7" class="node">
<title>Node7</title>
<g id="a_node7"><a xlink:href="class_sgl_1_1_default_skins_1_1_menu_item_skin.html" target="_top" xlink:title=" ">
<polygon fill="white" stroke="black" points="372,-0.5 372,-123.5 534,-123.5 534,-0.5 372,-0.5"/>
<text text-anchor="middle" x="453" y="-111.5" font-family="Helvetica,sans-Serif" font-size="10.00">Sgl::DefaultSkins::MenuItemSkin</text>
<polyline fill="none" stroke="black" points="372,-104.5 534,-104.5 "/>
<text text-anchor="start" x="380" y="-92.5" font-family="Helvetica,sans-Serif" font-size="10.00">+ PADDING</text>
<text text-anchor="start" x="380" y="-81.5" font-family="Helvetica,sans-Serif" font-size="10.00">+ MARGIN</text>
<text text-anchor="start" x="380" y="-70.5" font-family="Helvetica,sans-Serif" font-size="10.00">+ BORDER</text>
<text text-anchor="start" x="380" y="-59.5" font-family="Helvetica,sans-Serif" font-size="10.00">+ STATIC_STYLE</text>
<text text-anchor="start" x="380" y="-48.5" font-family="Helvetica,sans-Serif" font-size="10.00">+ IDLE_FOREGROUND</text>
<text text-anchor="start" x="380" y="-37.5" font-family="Helvetica,sans-Serif" font-size="10.00">and 7 more...</text>
<polyline fill="none" stroke="black" points="372,-30.5 534,-30.5 "/>
<text text-anchor="start" x="380" y="-18.5" font-family="Helvetica,sans-Serif" font-size="10.00">+ MenuItemSkin()</text>
<text text-anchor="start" x="380" y="-7.5" font-family="Helvetica,sans-Serif" font-size="10.00">+ MenuItemSkin()</text>
</a>
</g>
</g>
<!-- Node4&#45;&gt;Node7 -->
<g id="edge6" class="edge">
<title>Node4&#45;&gt;Node7</title>
<path fill="none" stroke="midnightblue" d="M364.28,-157.12C375.05,-145.69 385.78,-134.3 395.88,-123.6"/>
<polygon fill="none" stroke="midnightblue" points="361.51,-154.94 357.2,-164.62 366.61,-159.75 361.51,-154.94"/>
</g>
<!-- Node9 -->
<g id="node9" class="node">
<title>Node9</title>
<g id="a_node9"><a xlink:href="class_sgl_1_1_default_skins_1_1_scroll_bar_skin.html" target="_top" xlink:title=" ">
<polygon fill="white" stroke="black" points="375,-194.5 375,-317.5 533,-317.5 533,-194.5 375,-194.5"/>
<text text-anchor="middle" x="454" y="-305.5" font-family="Helvetica,sans-Serif" font-size="10.00">Sgl::DefaultSkins::ScrollBarSkin</text>
<polyline fill="none" stroke="black" points="375,-298.5 533,-298.5 "/>
<text text-anchor="start" x="383" y="-286.5" font-family="Helvetica,sans-Serif" font-size="10.00">+ KNOB_COLOR</text>
<text text-anchor="start" x="383" y="-275.5" font-family="Helvetica,sans-Serif" font-size="10.00">+ KNOB_SHADOW</text>
<polyline fill="none" stroke="black" points="375,-268.5 533,-268.5 "/>
<text text-anchor="start" x="383" y="-256.5" font-family="Helvetica,sans-Serif" font-size="10.00">+ ScrollBarSkin()</text>
<text text-anchor="start" x="383" y="-245.5" font-family="Helvetica,sans-Serif" font-size="10.00">+ dispose()</text>
<text text-anchor="start" x="383" y="-234.5" font-family="Helvetica,sans-Serif" font-size="10.00">+ attach()</text>
<text text-anchor="start" x="383" y="-223.5" font-family="Helvetica,sans-Serif" font-size="10.00">+ getControl()</text>
<text text-anchor="start" x="383" y="-212.5" font-family="Helvetica,sans-Serif" font-size="10.00">+ getModifiableControl()</text>
<text text-anchor="start" x="383" y="-201.5" font-family="Helvetica,sans-Serif" font-size="10.00">+ layoutChildren()</text>
</a>
</g>
</g>
<!-- Node8&#45;&gt;Node9 -->
<g id="edge8" class="edge">
<title>Node8&#45;&gt;Node9</title>
<path fill="none" stroke="midnightblue" d="M459.33,-378.16C458.54,-360.08 457.57,-337.99 456.67,-317.64"/>
<polygon fill="none" stroke="midnightblue" points="455.84,-378.47 459.78,-388.3 462.84,-378.16 455.84,-378.47"/>
</g>
<!-- Node11 -->
<g id="node11" class="node">
<title>Node11</title>
<g id="a_node11"><a xlink:href="class_sgl_1_1_default_skins_1_1_scroll_pane_skin.html" target="_top" xlink:title=" ">
<polygon fill="white" stroke="black" points="551,-200 551,-312 717,-312 717,-200 551,-200"/>
<text text-anchor="middle" x="634" y="-300" font-family="Helvetica,sans-Serif" font-size="10.00">Sgl::DefaultSkins::ScrollPaneSkin</text>
<polyline fill="none" stroke="black" points="551,-293 717,-293 "/>
<text text-anchor="middle" x="634" y="-281" font-family="Helvetica,sans-Serif" font-size="10.00"> </text>
<polyline fill="none" stroke="black" points="551,-274 717,-274 "/>
<text text-anchor="start" x="559" y="-262" font-family="Helvetica,sans-Serif" font-size="10.00">+ ScrollPaneSkin()</text>
<text text-anchor="start" x="559" y="-251" font-family="Helvetica,sans-Serif" font-size="10.00">+ dispose()</text>
<text text-anchor="start" x="559" y="-240" font-family="Helvetica,sans-Serif" font-size="10.00">+ attach()</text>
<text text-anchor="start" x="559" y="-229" font-family="Helvetica,sans-Serif" font-size="10.00">+ prerenderControl()</text>
<text text-anchor="start" x="559" y="-218" font-family="Helvetica,sans-Serif" font-size="10.00">+ getControl()</text>
<text text-anchor="start" x="559" y="-207" font-family="Helvetica,sans-Serif" font-size="10.00">and 4 more...</text>
</a>
</g>
</g>
<!-- Node10&#45;&gt;Node11 -->
<g id="edge10" class="edge">
<title>Node10&#45;&gt;Node11</title>
<path fill="none" stroke="midnightblue" d="M626.38,-378.16C627.62,-358.39 629.17,-333.85 630.54,-312.02"/>
<polygon fill="none" stroke="midnightblue" points="622.88,-378.1 625.74,-388.3 629.86,-378.54 622.88,-378.1"/>
</g>
<!-- Node13 -->
<g id="node13" class="node">
<title>Node13</title>
<g id="a_node13"><a xlink:href="class_sgl_1_1_default_skins_1_1_slider_skin.html" target="_top" xlink:title=" ">
<polygon fill="white" stroke="black" points="735.5,-167 735.5,-345 878.5,-345 878.5,-167 735.5,-167"/>
<text text-anchor="middle" x="807" y="-333" font-family="Helvetica,sans-Serif" font-size="10.00">Sgl::DefaultSkins::SliderSkin</text>
<polyline fill="none" stroke="black" points="735.5,-326 878.5,-326 "/>
<text text-anchor="start" x="743.5" y="-314" font-family="Helvetica,sans-Serif" font-size="10.00">+ KNOB_SHADOW</text>
<text text-anchor="start" x="743.5" y="-303" font-family="Helvetica,sans-Serif" font-size="10.00">+ NOT_SELECTED_FILL</text>
<text text-anchor="start" x="743.5" y="-292" font-family="Helvetica,sans-Serif" font-size="10.00">+ SELECTED_FILL</text>
<text text-anchor="start" x="743.5" y="-281" font-family="Helvetica,sans-Serif" font-size="10.00">+ KNOB_COLOR</text>
<text text-anchor="start" x="743.5" y="-270" font-family="Helvetica,sans-Serif" font-size="10.00">+ THICKNESS</text>
<text text-anchor="start" x="743.5" y="-259" font-family="Helvetica,sans-Serif" font-size="10.00">+ KNOB_SIZE_ALONG</text>
<text text-anchor="start" x="743.5" y="-248" font-family="Helvetica,sans-Serif" font-size="10.00">+ KNOB_SIZE_ACROSS</text>
<polyline fill="none" stroke="black" points="735.5,-241 878.5,-241 "/>
<text text-anchor="start" x="743.5" y="-229" font-family="Helvetica,sans-Serif" font-size="10.00">+ SliderSkin()</text>
<text text-anchor="start" x="743.5" y="-218" font-family="Helvetica,sans-Serif" font-size="10.00">+ SliderSkin()</text>
<text text-anchor="start" x="743.5" y="-207" font-family="Helvetica,sans-Serif" font-size="10.00">+ dispose()</text>
<text text-anchor="start" x="743.5" y="-196" font-family="Helvetica,sans-Serif" font-size="10.00">+ attach()</text>
<text text-anchor="start" x="743.5" y="-185" font-family="Helvetica,sans-Serif" font-size="10.00">+ getHitComponent()</text>
<text text-anchor="start" x="743.5" y="-174" font-family="Helvetica,sans-Serif" font-size="10.00">and 16 more...</text>
</a>
</g>
</g>
<!-- Node12&#45;&gt;Node13 -->
<g id="edge12" class="edge">
<title>Node12&#45;&gt;Node13</title>
<path fill="none" stroke="midnightblue" d="M794.8,-378.27C795.81,-368.16 796.96,-356.79 798.13,-345.18"/>
<polygon fill="none" stroke="midnightblue" points="791.31,-378 793.79,-388.3 798.27,-378.71 791.31,-378"/>
</g>
</g>
</svg>
        <g id="navigator" transform="translate(0 0)" fill="#404254">
                <rect fill="#f2f5e9" fill-opacity="0.5" stroke="#606060" stroke-width=".5" x="0" y="0" width="60" height="60"/>
                <use id="zoomplus" xlink:href="#zoomPlus" x="17" y="9" onmousedown="handleZoom(evt,'in')"/>
                <use id="zoomminus" xlink:href="#zoomMin" x="42" y="9" onmousedown="handleZoom(evt,'out')"/>
                <use id="reset" xlink:href="#resetDef" x="30" y="36" onmousedown="handleReset()"/>
                <g id="arrowUp" xlink:href="#dirArrow" transform="translate(30 24)" onmousedown="handlePan(0,-1)">
                  <use xlink:href="#rim" fill="#404040">
                        <set attributeName="fill" to="#808080" begin="arrowUp.mouseover" end="arrowUp.mouseout"/>
                  </use>
                  <path fill="none" stroke="white" stroke-width="1.5" d="M0,-3.0v7 M-2.5,-0.5L0,-3.0L2.5,-0.5"/>
                </g>
                <g id="arrowRight" xlink:href="#dirArrow" transform="rotate(90) translate(36 -43)" onmousedown="handlePan(1,0)">
                  <use xlink:href="#rim" fill="#404040">
                        <set attributeName="fill" to="#808080" begin="arrowRight.mouseover" end="arrowRight.mouseout"/>
                  </use>
                  <path fill="none" stroke="white" stroke-width="1.5" d="M0,-3.0v7 M-2.5,-0.5L0,-3.0L2.5,-0.5"/>
                </g>
                <g id="arrowDown" xlink:href="#dirArrow" transform="rotate(180) translate(-30 -48)" onmousedown="handlePan(0,1)">
                  <use xlink:href="#rim" fill="#404040">
                        <set attributeName="fill" to="#808080" begin="arrowDown.mouseover" end="arrowDown.mouseout"/>
                  </use>
                  <path fill="none" stroke="white" stroke-width="1.5" d="M0,-3.0v7 M-2.5,-0.5L0,-3.0L2.5,-0.5"/>
                </g>
                <g id="arrowLeft" xlink:href="#dirArrow" transform="rotate(270) translate(-36 17)" onmousedown="handlePan(-1,0)">
                  <use xlink:href="#rim" fill="#404040">
                        <set attributeName="fill" to="#808080" begin="arrowLeft.mouseover" end="arrowLeft.mouseout"/>
                  </use>
                  <path fill="none" stroke="white" stroke-width="1.5" d="M0,-3.0v7 M-2.5,-0.5L0,-3.0L2.5,-0.5"/>
                </g>
        </g>
        <svg viewBox="0 0 15 15" width="100%" height="30px" preserveAspectRatio="xMaxYMin meet">
         <g id="arrow_out" transform="scale(0.3 0.3)">
          <a xlink:href="class_sgl_1_1_base_skin__inherit__graph_org.svg" target="_base">
           <rect id="button" ry="5" rx="5" y="6" x="6" height="38" width="38"
                fill="#f2f5e9" fill-opacity="0.5" stroke="#606060" stroke-width="1.0"/>
           <path id="arrow"
             d="M 11.500037,31.436501 C 11.940474,20.09759 22.043105,11.32322 32.158766,21.979434 L 37.068811,17.246167 C 37.068811,17.246167 37.088388,32 37.088388,32 L 22.160133,31.978069 C 22.160133,31.978069 26.997745,27.140456 26.997745,27.140456 C 18.528582,18.264221 13.291696,25.230495 11.500037,31.436501 z"
             style="fill:#404040;"/>
          </a>
         </g>
        </svg>
</svg>
