<?xml version="1.0" encoding="UTF-8" standalone="no"?>
<!DOCTYPE svg PUBLIC "-//W3C//DTD SVG 1.1//EN"
 "http://www.w3.org/Graphics/SVG/1.1/DTD/svg11.dtd">
<!-- Generated by graphviz version 2.50.0 (20211204.2007)
 -->
<!-- Title: Sgl::TilePane Pages: 1 -->
<svg width="157pt" height="904pt"
 viewBox="0.00 0.00 157.00 904.00" xmlns="http://www.w3.org/2000/svg" xmlns:xlink="http://www.w3.org/1999/xlink">
<g id="graph0" class="graph" transform="scale(1 1) rotate(0) translate(4 900)">
<title>Sgl::TilePane</title>
<polygon fill="white" stroke="transparent" points="-4,4 -4,-900 153,-900 153,4 -4,4"/>
<!-- Node1 -->
<g id="node1" class="node">
<title>Node1</title>
<g id="a_node1"><a xlink:title=" ">
<polygon fill="#bfbfbf" stroke="black" points="23.5,-0.5 23.5,-112.5 125.5,-112.5 125.5,-0.5 23.5,-0.5"/>
<text text-anchor="middle" x="74.5" y="-100.5" font-family="Helvetica,sans-Serif" font-size="10.00">Sgl::TilePane</text>
<polyline fill="none" stroke="black" points="23.5,-93.5 125.5,-93.5 "/>
<text text-anchor="middle" x="74.5" y="-81.5" font-family="Helvetica,sans-Serif" font-size="10.00"> </text>
<polyline fill="none" stroke="black" points="23.5,-74.5 125.5,-74.5 "/>
<text text-anchor="start" x="31.5" y="-62.5" font-family="Helvetica,sans-Serif" font-size="10.00">+ TilePane()</text>
<text text-anchor="start" x="31.5" y="-51.5" font-family="Helvetica,sans-Serif" font-size="10.00">+ ~TilePane()</text>
<text text-anchor="start" x="31.5" y="-40.5" font-family="Helvetica,sans-Serif" font-size="10.00">+ getTiles()</text>
<text text-anchor="start" x="31.5" y="-29.5" font-family="Helvetica,sans-Serif" font-size="10.00">+ getPrefColumns()</text>
<text text-anchor="start" x="31.5" y="-18.5" font-family="Helvetica,sans-Serif" font-size="10.00">+ setPrefColumns()</text>
<text text-anchor="start" x="31.5" y="-7.5" font-family="Helvetica,sans-Serif" font-size="10.00">and 12 more...</text>
</a>
</g>
</g>
<!-- Node2 -->
<g id="node2" class="node">
<title>Node2</title>
<g id="a_node2"><a xlink:href="class_sgl_1_1_container.html" target="_top" xlink:title=" ">
<polygon fill="white" stroke="black" points="0,-149.5 0,-261.5 149,-261.5 149,-149.5 0,-149.5"/>
<text text-anchor="middle" x="74.5" y="-249.5" font-family="Helvetica,sans-Serif" font-size="10.00">Sgl::Container</text>
<polyline fill="none" stroke="black" points="0,-242.5 149,-242.5 "/>
<text text-anchor="start" x="8" y="-230.5" font-family="Helvetica,sans-Serif" font-size="10.00">+ DEFAULT_FILL</text>
<text text-anchor="start" x="8" y="-219.5" font-family="Helvetica,sans-Serif" font-size="10.00">+ DEFAULT_BACKGROUND</text>
<polyline fill="none" stroke="black" points="0,-212.5 149,-212.5 "/>
<text text-anchor="start" x="8" y="-200.5" font-family="Helvetica,sans-Serif" font-size="10.00">+ Container()</text>
<text text-anchor="start" x="8" y="-189.5" font-family="Helvetica,sans-Serif" font-size="10.00">+ ~Container()</text>
<text text-anchor="start" x="8" y="-178.5" font-family="Helvetica,sans-Serif" font-size="10.00">+ getHitComponent()</text>
<text text-anchor="start" x="8" y="-167.5" font-family="Helvetica,sans-Serif" font-size="10.00">+ render()</text>
<text text-anchor="start" x="8" y="-156.5" font-family="Helvetica,sans-Serif" font-size="10.00"># prerenderSelf()</text>
</a>
</g>
</g>
<!-- Node2&#45;&gt;Node1 -->
<g id="edge1" class="edge">
<title>Node2&#45;&gt;Node1</title>
<path fill="none" stroke="midnightblue" d="M74.5,-139.18C74.5,-130.43 74.5,-121.52 74.5,-112.96"/>
<polygon fill="none" stroke="midnightblue" points="71,-139.34 74.5,-149.34 78,-139.34 71,-139.34"/>
</g>
<!-- Node3 -->
<g id="node3" class="node">
<title>Node3</title>
<g id="a_node3"><a xlink:href="class_sgl_1_1_parent.html" target="_top" xlink:title=" ">
<polygon fill="white" stroke="black" points="1.5,-298.5 1.5,-531.5 147.5,-531.5 147.5,-298.5 1.5,-298.5"/>
<text text-anchor="middle" x="74.5" y="-519.5" font-family="Helvetica,sans-Serif" font-size="10.00">Sgl::Parent</text>
<polyline fill="none" stroke="black" points="1.5,-512.5 147.5,-512.5 "/>
<text text-anchor="start" x="9.5" y="-500.5" font-family="Helvetica,sans-Serif" font-size="10.00"># m_Children</text>
<text text-anchor="start" x="9.5" y="-489.5" font-family="Helvetica,sans-Serif" font-size="10.00"># m_Snapshot</text>
<text text-anchor="start" x="9.5" y="-478.5" font-family="Helvetica,sans-Serif" font-size="10.00"># m_NeedLayoutPass</text>
<text text-anchor="start" x="9.5" y="-467.5" font-family="Helvetica,sans-Serif" font-size="10.00"># m_Background</text>
<text text-anchor="start" x="9.5" y="-456.5" font-family="Helvetica,sans-Serif" font-size="10.00"># m_Border</text>
<text text-anchor="start" x="9.5" y="-445.5" font-family="Helvetica,sans-Serif" font-size="10.00">and 7 more...</text>
<polyline fill="none" stroke="black" points="1.5,-438.5 147.5,-438.5 "/>
<text text-anchor="start" x="9.5" y="-426.5" font-family="Helvetica,sans-Serif" font-size="10.00">+ Parent()</text>
<text text-anchor="start" x="9.5" y="-415.5" font-family="Helvetica,sans-Serif" font-size="10.00">+ ~Parent()</text>
<text text-anchor="start" x="9.5" y="-404.5" font-family="Helvetica,sans-Serif" font-size="10.00">+ getHitComponent()</text>
<text text-anchor="start" x="9.5" y="-393.5" font-family="Helvetica,sans-Serif" font-size="10.00">+ render()</text>
<text text-anchor="start" x="9.5" y="-382.5" font-family="Helvetica,sans-Serif" font-size="10.00">+ layout()</text>
<text text-anchor="start" x="9.5" y="-371.5" font-family="Helvetica,sans-Serif" font-size="10.00">and 39 more...</text>
<text text-anchor="start" x="9.5" y="-360.5" font-family="Helvetica,sans-Serif" font-size="10.00"># setSceneInSceneTree()</text>
<text text-anchor="start" x="9.5" y="-349.5" font-family="Helvetica,sans-Serif" font-size="10.00"># layoutChildren()</text>
<text text-anchor="start" x="9.5" y="-338.5" font-family="Helvetica,sans-Serif" font-size="10.00"># prerenderSelf()</text>
<text text-anchor="start" x="9.5" y="-327.5" font-family="Helvetica,sans-Serif" font-size="10.00"># updateSnapshotSize()</text>
<text text-anchor="start" x="9.5" y="-316.5" font-family="Helvetica,sans-Serif" font-size="10.00"># computeCustomPrefWidth()</text>
<text text-anchor="start" x="9.5" y="-305.5" font-family="Helvetica,sans-Serif" font-size="10.00">and 5 more...</text>
</a>
</g>
</g>
<!-- Node3&#45;&gt;Node2 -->
<g id="edge2" class="edge">
<title>Node3&#45;&gt;Node2</title>
<path fill="none" stroke="midnightblue" d="M74.5,-288.33C74.5,-279.1 74.5,-270.11 74.5,-261.68"/>
<polygon fill="none" stroke="midnightblue" points="71,-288.42 74.5,-298.42 78,-288.42 71,-288.42"/>
</g>
<!-- Node4 -->
<g id="node4" class="node">
<title>Node4</title>
<g id="a_node4"><a xlink:href="class_sgl_1_1_component.html" target="_top" xlink:title=" ">
<polygon fill="white" stroke="black" points="6,-568.5 6,-801.5 143,-801.5 143,-568.5 6,-568.5"/>
<text text-anchor="middle" x="74.5" y="-789.5" font-family="Helvetica,sans-Serif" font-size="10.00">Sgl::Component</text>
<polyline fill="none" stroke="black" points="6,-782.5 143,-782.5 "/>
<text text-anchor="start" x="14" y="-770.5" font-family="Helvetica,sans-Serif" font-size="10.00">+ Scene</text>
<text text-anchor="start" x="14" y="-759.5" font-family="Helvetica,sans-Serif" font-size="10.00">+ USE_COMPUTED_SIZE</text>
<text text-anchor="start" x="14" y="-748.5" font-family="Helvetica,sans-Serif" font-size="10.00">+ UNLIMITED_SIZE</text>
<text text-anchor="start" x="14" y="-737.5" font-family="Helvetica,sans-Serif" font-size="10.00"># m_Visibility</text>
<text text-anchor="start" x="14" y="-726.5" font-family="Helvetica,sans-Serif" font-size="10.00"># m_Focused</text>
<text text-anchor="start" x="14" y="-715.5" font-family="Helvetica,sans-Serif" font-size="10.00"># m_Hovered</text>
<text text-anchor="start" x="14" y="-704.5" font-family="Helvetica,sans-Serif" font-size="10.00"># m_Shadow</text>
<text text-anchor="start" x="14" y="-693.5" font-family="Helvetica,sans-Serif" font-size="10.00"># m_Dispatcher</text>
<text text-anchor="start" x="14" y="-682.5" font-family="Helvetica,sans-Serif" font-size="10.00">and 3 more...</text>
<polyline fill="none" stroke="black" points="6,-675.5 143,-675.5 "/>
<text text-anchor="start" x="14" y="-663.5" font-family="Helvetica,sans-Serif" font-size="10.00">+ Component()</text>
<text text-anchor="start" x="14" y="-652.5" font-family="Helvetica,sans-Serif" font-size="10.00">+ ~Component()</text>
<text text-anchor="start" x="14" y="-641.5" font-family="Helvetica,sans-Serif" font-size="10.00">+ getHitComponent()</text>
<text text-anchor="start" x="14" y="-630.5" font-family="Helvetica,sans-Serif" font-size="10.00">+ render()</text>
<text text-anchor="start" x="14" y="-619.5" font-family="Helvetica,sans-Serif" font-size="10.00">+ layout()</text>
<text text-anchor="start" x="14" y="-608.5" font-family="Helvetica,sans-Serif" font-size="10.00">and 42 more...</text>
<text text-anchor="start" x="14" y="-597.5" font-family="Helvetica,sans-Serif" font-size="10.00"># updateShadow()</text>
<text text-anchor="start" x="14" y="-586.5" font-family="Helvetica,sans-Serif" font-size="10.00"># renderShadow()</text>
<text text-anchor="start" x="14" y="-575.5" font-family="Helvetica,sans-Serif" font-size="10.00"># setSceneInSceneTree()</text>
</a>
</g>
</g>
<!-- Node4&#45;&gt;Node3 -->
<g id="edge3" class="edge">
<title>Node4&#45;&gt;Node3</title>
<path fill="none" stroke="midnightblue" d="M74.5,-558.37C74.5,-549.46 74.5,-540.49 74.5,-531.64"/>
<polygon fill="none" stroke="midnightblue" points="71,-558.4 74.5,-568.4 78,-558.4 71,-558.4"/>
</g>
<!-- Node5 -->
<g id="node5" class="node">
<title>Node5</title>
<g id="a_node5"><a xlink:title=" ">
<polygon fill="white" stroke="#bfbfbf" points="28.5,-838.5 28.5,-895.5 120.5,-895.5 120.5,-838.5 28.5,-838.5"/>
<text text-anchor="middle" x="74.5" y="-883.5" font-family="Helvetica,sans-Serif" font-size="10.00">Sml::EventTarget</text>
<polyline fill="none" stroke="#bfbfbf" points="28.5,-876.5 120.5,-876.5 "/>
<text text-anchor="middle" x="74.5" y="-864.5" font-family="Helvetica,sans-Serif" font-size="10.00"> </text>
<polyline fill="none" stroke="#bfbfbf" points="28.5,-857.5 120.5,-857.5 "/>
<text text-anchor="middle" x="74.5" y="-845.5" font-family="Helvetica,sans-Serif" font-size="10.00"> </text>
</a>
</g>
</g>
<!-- Node5&#45;&gt;Node4 -->
<g id="edge4" class="edge">
<title>Node5&#45;&gt;Node4</title>
<path fill="none" stroke="midnightblue" d="M74.5,-828.14C74.5,-820.03 74.5,-811.05 74.5,-801.67"/>
<polygon fill="none" stroke="midnightblue" points="71,-828.27 74.5,-838.27 78,-828.27 71,-828.27"/>
</g>
</g>
</svg>
