<?xml version="1.0" encoding="UTF-8" standalone="no"?>
<!DOCTYPE svg PUBLIC "-//W3C//DTD SVG 1.1//EN"
 "http://www.w3.org/Graphics/SVG/1.1/DTD/svg11.dtd">
<!-- Generated by graphviz version 2.50.0 (20211204.2007)
 -->
<!-- Title: Sgl::FocusListener&lt; C &gt; Pages: 1 -->
<svg width="342pt" height="588pt"
 viewBox="0.00 0.00 342.00 588.00" xmlns="http://www.w3.org/2000/svg" xmlns:xlink="http://www.w3.org/1999/xlink">
<g id="graph0" class="graph" transform="scale(1 1) rotate(0) translate(4 584)">
<title>Sgl::FocusListener&lt; C &gt;</title>
<polygon fill="white" stroke="transparent" points="-4,4 -4,-584 338,-584 338,4 -4,4"/>
<!-- Node1 -->
<g id="node1" class="node">
<title>Node1</title>
<g id="a_node1"><a xlink:title=" ">
<polygon fill="#bfbfbf" stroke="black" points="87,-266.5 87,-367.5 245,-367.5 245,-266.5 87,-266.5"/>
<text text-anchor="middle" x="166" y="-355.5" font-family="Helvetica,sans-Serif" font-size="10.00">Sgl::FocusListener&lt; C &gt;</text>
<polyline fill="none" stroke="black" points="87,-348.5 245,-348.5 "/>
<text text-anchor="middle" x="166" y="-336.5" font-family="Helvetica,sans-Serif" font-size="10.00"> </text>
<polyline fill="none" stroke="black" points="87,-329.5 245,-329.5 "/>
<text text-anchor="start" x="95" y="-317.5" font-family="Helvetica,sans-Serif" font-size="10.00">+ DEFINE_STATIC_LISTENED</text>
<text text-anchor="start" x="95" y="-306.5" font-family="Helvetica,sans-Serif" font-size="10.00">_EVENT_TYPES()</text>
<text text-anchor="start" x="95" y="-295.5" font-family="Helvetica,sans-Serif" font-size="10.00">+ onEvent()</text>
<text text-anchor="start" x="95" y="-284.5" font-family="Helvetica,sans-Serif" font-size="10.00">+ onFocusReceived()</text>
<text text-anchor="start" x="95" y="-273.5" font-family="Helvetica,sans-Serif" font-size="10.00">+ onFocusLost()</text>
</a>
</g>
</g>
<!-- Node4 -->
<g id="node4" class="node">
<title>Node4</title>
<g id="a_node4"><a xlink:href="class_sgl_1_1_focus_listener.html" target="_top" xlink:title=" ">
<polygon fill="white" stroke="black" points="0,-106.5 0,-218.5 158,-218.5 158,-106.5 0,-106.5"/>
<text text-anchor="start" x="8" y="-206.5" font-family="Helvetica,sans-Serif" font-size="10.00">Sgl::FocusListener</text>
<text text-anchor="middle" x="79" y="-195.5" font-family="Helvetica,sans-Serif" font-size="10.00">&lt; LayeredContainer &gt;</text>
<polyline fill="none" stroke="black" points="0,-188.5 158,-188.5 "/>
<text text-anchor="middle" x="79" y="-176.5" font-family="Helvetica,sans-Serif" font-size="10.00"> </text>
<polyline fill="none" stroke="black" points="0,-169.5 158,-169.5 "/>
<text text-anchor="start" x="8" y="-157.5" font-family="Helvetica,sans-Serif" font-size="10.00">+ DEFINE_STATIC_LISTENED</text>
<text text-anchor="start" x="8" y="-146.5" font-family="Helvetica,sans-Serif" font-size="10.00">_EVENT_TYPES()</text>
<text text-anchor="start" x="8" y="-135.5" font-family="Helvetica,sans-Serif" font-size="10.00">+ onEvent()</text>
<text text-anchor="start" x="8" y="-124.5" font-family="Helvetica,sans-Serif" font-size="10.00">+ onFocusReceived()</text>
<text text-anchor="start" x="8" y="-113.5" font-family="Helvetica,sans-Serif" font-size="10.00">+ onFocusLost()</text>
</a>
</g>
</g>
<!-- Node1&#45;&gt;Node4 -->
<g id="edge3" class="edge">
<title>Node1&#45;&gt;Node4</title>
<path fill="none" stroke="orange" d="M126.76,-257.7C124.77,-254.44 122.84,-251.19 121,-248 115.6,-238.63 110.19,-228.48 105.14,-218.57"/>
<polygon fill="orange" stroke="orange" points="123.86,-259.66 132.11,-266.31 129.8,-255.97 123.86,-259.66"/>
<text text-anchor="middle" x="170" y="-240" font-family="Helvetica,sans-Serif" font-size="10.00"> &lt; LayeredContainer &gt;</text>
</g>
<!-- Node6 -->
<g id="node6" class="node">
<title>Node6</title>
<g id="a_node6"><a xlink:href="class_sgl_1_1_focus_listener.html" target="_top" xlink:title=" ">
<polygon fill="white" stroke="black" points="176,-106.5 176,-218.5 334,-218.5 334,-106.5 176,-106.5"/>
<text text-anchor="start" x="184" y="-206.5" font-family="Helvetica,sans-Serif" font-size="10.00">Sgl::FocusListener</text>
<text text-anchor="middle" x="255" y="-195.5" font-family="Helvetica,sans-Serif" font-size="10.00">&lt; ContextMenu &gt;</text>
<polyline fill="none" stroke="black" points="176,-188.5 334,-188.5 "/>
<text text-anchor="middle" x="255" y="-176.5" font-family="Helvetica,sans-Serif" font-size="10.00"> </text>
<polyline fill="none" stroke="black" points="176,-169.5 334,-169.5 "/>
<text text-anchor="start" x="184" y="-157.5" font-family="Helvetica,sans-Serif" font-size="10.00">+ DEFINE_STATIC_LISTENED</text>
<text text-anchor="start" x="184" y="-146.5" font-family="Helvetica,sans-Serif" font-size="10.00">_EVENT_TYPES()</text>
<text text-anchor="start" x="184" y="-135.5" font-family="Helvetica,sans-Serif" font-size="10.00">+ onEvent()</text>
<text text-anchor="start" x="184" y="-124.5" font-family="Helvetica,sans-Serif" font-size="10.00">+ onFocusReceived()</text>
<text text-anchor="start" x="184" y="-113.5" font-family="Helvetica,sans-Serif" font-size="10.00">+ onFocusLost()</text>
</a>
</g>
</g>
<!-- Node1&#45;&gt;Node6 -->
<g id="edge5" class="edge">
<title>Node1&#45;&gt;Node6</title>
<path fill="none" stroke="orange" d="M212.95,-257.68C215.07,-254.46 217.1,-251.22 219,-248 224.42,-238.79 229.47,-228.62 233.97,-218.61"/>
<polygon fill="orange" stroke="orange" points="209.91,-255.92 207.16,-266.15 215.69,-259.88 209.91,-255.92"/>
<text text-anchor="middle" x="265" y="-240" font-family="Helvetica,sans-Serif" font-size="10.00"> &lt; ContextMenu &gt;</text>
</g>
<!-- Node2 -->
<g id="node2" class="node">
<title>Node2</title>
<g id="a_node2"><a xlink:href="class_sgl_1_1_component_event_listener.html" target="_top" xlink:title=" ">
<polygon fill="white" stroke="black" points="79.5,-405.5 79.5,-484.5 252.5,-484.5 252.5,-405.5 79.5,-405.5"/>
<text text-anchor="middle" x="166" y="-472.5" font-family="Helvetica,sans-Serif" font-size="10.00">Sgl::ComponentEventListener&lt; C &gt;</text>
<polyline fill="none" stroke="black" points="79.5,-465.5 252.5,-465.5 "/>
<text text-anchor="middle" x="166" y="-453.5" font-family="Helvetica,sans-Serif" font-size="10.00"> </text>
<polyline fill="none" stroke="black" points="79.5,-446.5 252.5,-446.5 "/>
<text text-anchor="start" x="87.5" y="-434.5" font-family="Helvetica,sans-Serif" font-size="10.00">+ ComponentEventListener()</text>
<text text-anchor="start" x="87.5" y="-423.5" font-family="Helvetica,sans-Serif" font-size="10.00">+ getComponent()</text>
<text text-anchor="start" x="87.5" y="-412.5" font-family="Helvetica,sans-Serif" font-size="10.00">+ setComponent()</text>
</a>
</g>
</g>
<!-- Node2&#45;&gt;Node1 -->
<g id="edge1" class="edge">
<title>Node2&#45;&gt;Node1</title>
<path fill="none" stroke="midnightblue" d="M166,-394.89C166,-385.94 166,-376.6 166,-367.63"/>
<polygon fill="none" stroke="midnightblue" points="162.5,-395.17 166,-405.17 169.5,-395.17 162.5,-395.17"/>
</g>
<!-- Node3 -->
<g id="node3" class="node">
<title>Node3</title>
<g id="a_node3"><a xlink:title=" ">
<polygon fill="white" stroke="#bfbfbf" points="129,-522.5 129,-579.5 203,-579.5 203,-522.5 129,-522.5"/>
<text text-anchor="middle" x="166" y="-567.5" font-family="Helvetica,sans-Serif" font-size="10.00">Sml::Listener</text>
<polyline fill="none" stroke="#bfbfbf" points="129,-560.5 203,-560.5 "/>
<text text-anchor="middle" x="166" y="-548.5" font-family="Helvetica,sans-Serif" font-size="10.00"> </text>
<polyline fill="none" stroke="#bfbfbf" points="129,-541.5 203,-541.5 "/>
<text text-anchor="middle" x="166" y="-529.5" font-family="Helvetica,sans-Serif" font-size="10.00"> </text>
</a>
</g>
</g>
<!-- Node3&#45;&gt;Node2 -->
<g id="edge2" class="edge">
<title>Node3&#45;&gt;Node2</title>
<path fill="none" stroke="midnightblue" d="M166,-512.23C166,-503.27 166,-493.69 166,-484.69"/>
<polygon fill="none" stroke="midnightblue" points="162.5,-512.4 166,-522.4 169.5,-512.4 162.5,-512.4"/>
</g>
<!-- Node5 -->
<g id="node5" class="node">
<title>Node5</title>
<g id="a_node5"><a xlink:href="class_focus_received_filter.html" target="_top" xlink:title=" ">
<polygon fill="white" stroke="black" points="18,-0.5 18,-68.5 140,-68.5 140,-0.5 18,-0.5"/>
<text text-anchor="middle" x="79" y="-56.5" font-family="Helvetica,sans-Serif" font-size="10.00">FocusReceivedFilter</text>
<polyline fill="none" stroke="black" points="18,-49.5 140,-49.5 "/>
<text text-anchor="middle" x="79" y="-37.5" font-family="Helvetica,sans-Serif" font-size="10.00"> </text>
<polyline fill="none" stroke="black" points="18,-30.5 140,-30.5 "/>
<text text-anchor="start" x="26" y="-18.5" font-family="Helvetica,sans-Serif" font-size="10.00">+ FocusReceivedFilter()</text>
<text text-anchor="start" x="26" y="-7.5" font-family="Helvetica,sans-Serif" font-size="10.00">+ onFocusReceived()</text>
</a>
</g>
</g>
<!-- Node4&#45;&gt;Node5 -->
<g id="edge4" class="edge">
<title>Node4&#45;&gt;Node5</title>
<path fill="none" stroke="midnightblue" d="M79,-95.96C79,-86.48 79,-77.08 79,-68.62"/>
<polygon fill="none" stroke="midnightblue" points="75.5,-96.23 79,-106.23 82.5,-96.23 75.5,-96.23"/>
</g>
<!-- Node7 -->
<g id="node7" class="node">
<title>Node7</title>
<g id="a_node7"><a xlink:href="class_sgl_1_1_context_menu_focus_filter.html" target="_top" xlink:title=" ">
<polygon fill="white" stroke="black" points="183,-0.5 183,-68.5 327,-68.5 327,-0.5 183,-0.5"/>
<text text-anchor="middle" x="255" y="-56.5" font-family="Helvetica,sans-Serif" font-size="10.00">Sgl::ContextMenuFocusFilter</text>
<polyline fill="none" stroke="black" points="183,-49.5 327,-49.5 "/>
<text text-anchor="middle" x="255" y="-37.5" font-family="Helvetica,sans-Serif" font-size="10.00"> </text>
<polyline fill="none" stroke="black" points="183,-30.5 327,-30.5 "/>
<text text-anchor="start" x="191" y="-18.5" font-family="Helvetica,sans-Serif" font-size="10.00">+ ContextMenuFocusFilter()</text>
<text text-anchor="start" x="191" y="-7.5" font-family="Helvetica,sans-Serif" font-size="10.00">+ onFocusLost()</text>
</a>
</g>
</g>
<!-- Node6&#45;&gt;Node7 -->
<g id="edge6" class="edge">
<title>Node6&#45;&gt;Node7</title>
<path fill="none" stroke="midnightblue" d="M255,-95.96C255,-86.48 255,-77.08 255,-68.62"/>
<polygon fill="none" stroke="midnightblue" points="251.5,-96.23 255,-106.23 258.5,-96.23 251.5,-96.23"/>
</g>
</g>
</svg>
