<?xml version="1.0" encoding="UTF-8" standalone="no"?>
<!DOCTYPE svg PUBLIC "-//W3C//DTD SVG 1.1//EN"
 "http://www.w3.org/Graphics/SVG/1.1/DTD/svg11.dtd">
<!-- Generated by graphviz version 2.50.0 (20211204.2007)
 -->
<!-- Title: Sgl::DefaultSkins::SliderSkin Pages: 1 -->
<svg width="196pt" height="537pt"
 viewBox="0.00 0.00 195.50 537.00" xmlns="http://www.w3.org/2000/svg" xmlns:xlink="http://www.w3.org/1999/xlink">
<g id="graph0" class="graph" transform="scale(1 1) rotate(0) translate(4 533)">
<title>Sgl::DefaultSkins::SliderSkin</title>
<polygon fill="white" stroke="transparent" points="-4,4 -4,-533 191.5,-533 191.5,4 -4,4"/>
<!-- Node1 -->
<g id="node1" class="node">
<title>Node1</title>
<g id="a_node1"><a xlink:title=" ">
<polygon fill="#bfbfbf" stroke="black" points="0,-0.5 0,-178.5 143,-178.5 143,-0.5 0,-0.5"/>
<text text-anchor="middle" x="71.5" y="-166.5" font-family="Helvetica,sans-Serif" font-size="10.00">Sgl::DefaultSkins::SliderSkin</text>
<polyline fill="none" stroke="black" points="0,-159.5 143,-159.5 "/>
<text text-anchor="start" x="8" y="-147.5" font-family="Helvetica,sans-Serif" font-size="10.00">+ KNOB_SHADOW</text>
<text text-anchor="start" x="8" y="-136.5" font-family="Helvetica,sans-Serif" font-size="10.00">+ NOT_SELECTED_FILL</text>
<text text-anchor="start" x="8" y="-125.5" font-family="Helvetica,sans-Serif" font-size="10.00">+ SELECTED_FILL</text>
<text text-anchor="start" x="8" y="-114.5" font-family="Helvetica,sans-Serif" font-size="10.00">+ KNOB_COLOR</text>
<text text-anchor="start" x="8" y="-103.5" font-family="Helvetica,sans-Serif" font-size="10.00">+ THICKNESS</text>
<text text-anchor="start" x="8" y="-92.5" font-family="Helvetica,sans-Serif" font-size="10.00">+ KNOB_SIZE_ALONG</text>
<text text-anchor="start" x="8" y="-81.5" font-family="Helvetica,sans-Serif" font-size="10.00">+ KNOB_SIZE_ACROSS</text>
<polyline fill="none" stroke="black" points="0,-74.5 143,-74.5 "/>
<text text-anchor="start" x="8" y="-62.5" font-family="Helvetica,sans-Serif" font-size="10.00">+ SliderSkin()</text>
<text text-anchor="start" x="8" y="-51.5" font-family="Helvetica,sans-Serif" font-size="10.00">+ SliderSkin()</text>
<text text-anchor="start" x="8" y="-40.5" font-family="Helvetica,sans-Serif" font-size="10.00">+ dispose()</text>
<text text-anchor="start" x="8" y="-29.5" font-family="Helvetica,sans-Serif" font-size="10.00">+ attach()</text>
<text text-anchor="start" x="8" y="-18.5" font-family="Helvetica,sans-Serif" font-size="10.00">+ getHitComponent()</text>
<text text-anchor="start" x="8" y="-7.5" font-family="Helvetica,sans-Serif" font-size="10.00">and 16 more...</text>
</a>
</g>
</g>
<!-- Node2 -->
<g id="node2" class="node">
<title>Node2</title>
<g id="a_node2"><a xlink:href="class_sgl_1_1_base_skin.html" target="_top" xlink:title=" ">
<polygon fill="white" stroke="black" points="10.5,-216.5 10.5,-273.5 132.5,-273.5 132.5,-216.5 10.5,-216.5"/>
<text text-anchor="middle" x="71.5" y="-261.5" font-family="Helvetica,sans-Serif" font-size="10.00">Sgl::BaseSkin&lt; Slider &gt;</text>
<polyline fill="none" stroke="black" points="10.5,-254.5 132.5,-254.5 "/>
<text text-anchor="middle" x="71.5" y="-242.5" font-family="Helvetica,sans-Serif" font-size="10.00"> </text>
<polyline fill="none" stroke="black" points="10.5,-235.5 132.5,-235.5 "/>
<text text-anchor="start" x="18.5" y="-223.5" font-family="Helvetica,sans-Serif" font-size="10.00">+ attach()</text>
</a>
</g>
</g>
<!-- Node2&#45;&gt;Node1 -->
<g id="edge1" class="edge">
<title>Node2&#45;&gt;Node1</title>
<path fill="none" stroke="midnightblue" d="M71.5,-205.96C71.5,-197.47 71.5,-188.13 71.5,-178.55"/>
<polygon fill="none" stroke="midnightblue" points="68,-206.2 71.5,-216.2 75,-206.2 68,-206.2"/>
</g>
<!-- Node3 -->
<g id="node3" class="node">
<title>Node3</title>
<g id="a_node3"><a xlink:href="class_sgl_1_1_skin.html" target="_top" xlink:title=" ">
<polygon fill="white" stroke="black" points="13.5,-416.5 13.5,-528.5 121.5,-528.5 121.5,-416.5 13.5,-416.5"/>
<text text-anchor="middle" x="67.5" y="-516.5" font-family="Helvetica,sans-Serif" font-size="10.00">Sgl::Skin</text>
<polyline fill="none" stroke="black" points="13.5,-509.5 121.5,-509.5 "/>
<text text-anchor="middle" x="67.5" y="-497.5" font-family="Helvetica,sans-Serif" font-size="10.00"> </text>
<polyline fill="none" stroke="black" points="13.5,-490.5 121.5,-490.5 "/>
<text text-anchor="start" x="21.5" y="-478.5" font-family="Helvetica,sans-Serif" font-size="10.00">+ ~Skin()</text>
<text text-anchor="start" x="21.5" y="-467.5" font-family="Helvetica,sans-Serif" font-size="10.00">+ dispose()</text>
<text text-anchor="start" x="21.5" y="-456.5" font-family="Helvetica,sans-Serif" font-size="10.00">+ prerenderControl()</text>
<text text-anchor="start" x="21.5" y="-445.5" font-family="Helvetica,sans-Serif" font-size="10.00">+ getHitComponent()</text>
<text text-anchor="start" x="21.5" y="-434.5" font-family="Helvetica,sans-Serif" font-size="10.00">+ getControl()</text>
<text text-anchor="start" x="21.5" y="-423.5" font-family="Helvetica,sans-Serif" font-size="10.00">and 8 more...</text>
</a>
</g>
</g>
<!-- Node3&#45;&gt;Node2 -->
<g id="edge2" class="edge">
<title>Node3&#45;&gt;Node2</title>
<path fill="none" stroke="midnightblue" d="M68.66,-406.28C69.44,-362.25 70.43,-306.38 71.01,-273.57"/>
<polygon fill="none" stroke="midnightblue" points="65.16,-406.28 68.48,-416.34 72.16,-406.4 65.16,-406.28"/>
</g>
<!-- Node4 -->
<g id="node4" class="node">
<title>Node4</title>
<g id="a_node4"><a xlink:href="class_sgl_1_1_base_skin.html" target="_top" xlink:title=" ">
<polygon fill="white" stroke="black" points="83.5,-321.5 83.5,-378.5 187.5,-378.5 187.5,-321.5 83.5,-321.5"/>
<text text-anchor="middle" x="135.5" y="-366.5" font-family="Helvetica,sans-Serif" font-size="10.00">Sgl::BaseSkin&lt; C &gt;</text>
<polyline fill="none" stroke="black" points="83.5,-359.5 187.5,-359.5 "/>
<text text-anchor="middle" x="135.5" y="-347.5" font-family="Helvetica,sans-Serif" font-size="10.00"> </text>
<polyline fill="none" stroke="black" points="83.5,-340.5 187.5,-340.5 "/>
<text text-anchor="start" x="91.5" y="-328.5" font-family="Helvetica,sans-Serif" font-size="10.00">+ attach()</text>
</a>
</g>
</g>
<!-- Node3&#45;&gt;Node4 -->
<g id="edge4" class="edge">
<title>Node3&#45;&gt;Node4</title>
<path fill="none" stroke="midnightblue" d="M103.71,-407.34C109.39,-397.28 114.98,-387.36 119.86,-378.72"/>
<polygon fill="none" stroke="midnightblue" points="100.58,-405.76 98.71,-416.19 106.68,-409.2 100.58,-405.76"/>
</g>
<!-- Node4&#45;&gt;Node2 -->
<g id="edge3" class="edge">
<title>Node4&#45;&gt;Node2</title>
<path fill="none" stroke="orange" d="M112.99,-312.77C105.01,-299.93 96.16,-285.69 88.7,-273.68"/>
<polygon fill="orange" stroke="orange" points="110.1,-314.75 118.35,-321.4 116.04,-311.06 110.1,-314.75"/>
<text text-anchor="middle" x="127.5" y="-295" font-family="Helvetica,sans-Serif" font-size="10.00"> &lt; Slider &gt;</text>
</g>
</g>
</svg>
