<?xml version="1.0" encoding="UTF-8" standalone="no"?>
<!DOCTYPE svg PUBLIC "-//W3C//DTD SVG 1.1//EN"
 "http://www.w3.org/Graphics/SVG/1.1/DTD/svg11.dtd">
<!-- Generated by graphviz version 2.50.0 (20211204.2007)
 -->
<!-- Title: Sgl::SliderWithLabel Pages: 1 -->
<!--zoomable 1136 -->
<svg id="main" version="1.1" xmlns="http://www.w3.org/2000/svg" xmlns:xlink="http://www.w3.org/1999/xlink" xml:space="preserve" onload="init(evt)">
<style type="text/css"><![CDATA[
.edge:hover path { stroke: red; }
.edge:hover polygon { stroke: red; fill: red; }
]]></style>
<script type="text/javascript"><![CDATA[
var edges = document.getElementsByTagName('g');
if (edges && edges.length) {
  for (var i=0;i<edges.length;i++) {
    if (edges[i].id.substr(0,4)=='edge') {
      edges[i].setAttribute('class','edge');
    }
  }
}
]]></script>
        <defs>
                <circle id="rim" cx="0" cy="0" r="7"/>
                <circle id="rim2" cx="0" cy="0" r="3.5"/>
                <g id="zoomPlus">
                        <use xlink:href="#rim" fill="#404040">
                                <set attributeName="fill" to="#808080" begin="zoomplus.mouseover" end="zoomplus.mouseout"/>
                        </use>
                        <path d="M-4,0h8M0,-4v8" fill="none" stroke="white" stroke-width="1.5" pointer-events="none"/>
                </g>
                <g id="zoomMin">
                        <use xlink:href="#rim" fill="#404040">
                                <set attributeName="fill" to="#808080" begin="zoomminus.mouseover" end="zoomminus.mouseout"/>
                        </use>
                        <path d="M-4,0h8" fill="none" stroke="white" stroke-width="1.5" pointer-events="none"/>
                </g>
                <g id="dirArrow">
                        <path fill="none" stroke="white" stroke-width="1.5" d="M0,-3.0v7 M-2.5,-0.5L0,-3.0L2.5,-0.5"/>
                </g>
               <g id="resetDef">
                       <use xlink:href="#rim2" fill="#404040">
                               <set attributeName="fill" to="#808080" begin="reset.mouseover" end="reset.mouseout"/>
                       </use>
               </g>
        </defs>

<script type="text/javascript">
var viewWidth = 157;
var viewHeight = 1136;
var sectionId = 'dynsection-0';
</script>
<script xlink:href="svgpan.js"/>
<svg id="graph" class="graph">
<g id="viewport">
<title>Sgl::SliderWithLabel</title>
<polygon fill="white" stroke="transparent" points="-4,4 -4,-1132 153,-1132 153,4 -4,4"/>
<!-- Node1 -->
<g id="node1" class="node">
<title>Node1</title>
<g id="a_node1"><a xlink:title=" ">
<polygon fill="#bfbfbf" stroke="black" points="14,-0.5 14,-90.5 135,-90.5 135,-0.5 14,-0.5"/>
<text text-anchor="middle" x="74.5" y="-78.5" font-family="Helvetica,sans-Serif" font-size="10.00">Sgl::SliderWithLabel</text>
<polyline fill="none" stroke="black" points="14,-71.5 135,-71.5 "/>
<text text-anchor="start" x="22" y="-59.5" font-family="Helvetica,sans-Serif" font-size="10.00">+ DEFAULT_SPACING</text>
<polyline fill="none" stroke="black" points="14,-52.5 135,-52.5 "/>
<text text-anchor="start" x="22" y="-40.5" font-family="Helvetica,sans-Serif" font-size="10.00">+ SliderWithLabel()</text>
<text text-anchor="start" x="22" y="-29.5" font-family="Helvetica,sans-Serif" font-size="10.00">+ SliderWithLabel()</text>
<text text-anchor="start" x="22" y="-18.5" font-family="Helvetica,sans-Serif" font-size="10.00">+ getSlider()</text>
<text text-anchor="start" x="22" y="-7.5" font-family="Helvetica,sans-Serif" font-size="10.00">+ getLabel()</text>
</a>
</g>
</g>
<!-- Node2 -->
<g id="node2" class="node">
<title>Node2</title>
<g id="a_node2"><a xlink:href="class_sgl_1_1_h_box.html" target="_top" xlink:title=" ">
<polygon fill="white" stroke="black" points="43.5,-127.5 43.5,-195.5 105.5,-195.5 105.5,-127.5 43.5,-127.5"/>
<text text-anchor="middle" x="74.5" y="-183.5" font-family="Helvetica,sans-Serif" font-size="10.00">Sgl::HBox</text>
<polyline fill="none" stroke="black" points="43.5,-176.5 105.5,-176.5 "/>
<text text-anchor="middle" x="74.5" y="-164.5" font-family="Helvetica,sans-Serif" font-size="10.00"> </text>
<polyline fill="none" stroke="black" points="43.5,-157.5 105.5,-157.5 "/>
<text text-anchor="start" x="51.5" y="-145.5" font-family="Helvetica,sans-Serif" font-size="10.00">+ HBox()</text>
<text text-anchor="start" x="51.5" y="-134.5" font-family="Helvetica,sans-Serif" font-size="10.00">+ ~HBox()</text>
</a>
</g>
</g>
<!-- Node2&#45;&gt;Node1 -->
<g id="edge1" class="edge">
<title>Node2&#45;&gt;Node1</title>
<path fill="none" stroke="midnightblue" d="M74.5,-116.97C74.5,-108.35 74.5,-99.28 74.5,-90.64"/>
<polygon fill="none" stroke="midnightblue" points="71,-117.22 74.5,-127.22 78,-117.22 71,-117.22"/>
</g>
<!-- Node3 -->
<g id="node3" class="node">
<title>Node3</title>
<g id="a_node3"><a xlink:href="class_sgl_1_1_box_container.html" target="_top" xlink:title="Basic list&#45;like container which lays out children in a line one after another.">
<polygon fill="white" stroke="black" points="26,-232.5 26,-344.5 123,-344.5 123,-232.5 26,-232.5"/>
<text text-anchor="middle" x="74.5" y="-332.5" font-family="Helvetica,sans-Serif" font-size="10.00">Sgl::BoxContainer</text>
<polyline fill="none" stroke="black" points="26,-325.5 123,-325.5 "/>
<text text-anchor="middle" x="74.5" y="-313.5" font-family="Helvetica,sans-Serif" font-size="10.00"> </text>
<polyline fill="none" stroke="black" points="26,-306.5 123,-306.5 "/>
<text text-anchor="start" x="34" y="-294.5" font-family="Helvetica,sans-Serif" font-size="10.00">+ BoxContainer()</text>
<text text-anchor="start" x="34" y="-283.5" font-family="Helvetica,sans-Serif" font-size="10.00">+ BoxContainer()</text>
<text text-anchor="start" x="34" y="-272.5" font-family="Helvetica,sans-Serif" font-size="10.00">+ ~BoxContainer()</text>
<text text-anchor="start" x="34" y="-261.5" font-family="Helvetica,sans-Serif" font-size="10.00">+ getDirection()</text>
<text text-anchor="start" x="34" y="-250.5" font-family="Helvetica,sans-Serif" font-size="10.00">+ setDirection()</text>
<text text-anchor="start" x="34" y="-239.5" font-family="Helvetica,sans-Serif" font-size="10.00">and 8 more...</text>
</a>
</g>
</g>
<!-- Node3&#45;&gt;Node2 -->
<g id="edge2" class="edge">
<title>Node3&#45;&gt;Node2</title>
<path fill="none" stroke="midnightblue" d="M74.5,-222.26C74.5,-212.99 74.5,-203.8 74.5,-195.51"/>
<polygon fill="none" stroke="midnightblue" points="71,-222.31 74.5,-232.31 78,-222.31 71,-222.31"/>
</g>
<!-- Node4 -->
<g id="node4" class="node">
<title>Node4</title>
<g id="a_node4"><a xlink:href="class_sgl_1_1_container.html" target="_top" xlink:title=" ">
<polygon fill="white" stroke="black" points="0,-381.5 0,-493.5 149,-493.5 149,-381.5 0,-381.5"/>
<text text-anchor="middle" x="74.5" y="-481.5" font-family="Helvetica,sans-Serif" font-size="10.00">Sgl::Container</text>
<polyline fill="none" stroke="black" points="0,-474.5 149,-474.5 "/>
<text text-anchor="start" x="8" y="-462.5" font-family="Helvetica,sans-Serif" font-size="10.00">+ DEFAULT_FILL</text>
<text text-anchor="start" x="8" y="-451.5" font-family="Helvetica,sans-Serif" font-size="10.00">+ DEFAULT_BACKGROUND</text>
<polyline fill="none" stroke="black" points="0,-444.5 149,-444.5 "/>
<text text-anchor="start" x="8" y="-432.5" font-family="Helvetica,sans-Serif" font-size="10.00">+ Container()</text>
<text text-anchor="start" x="8" y="-421.5" font-family="Helvetica,sans-Serif" font-size="10.00">+ ~Container()</text>
<text text-anchor="start" x="8" y="-410.5" font-family="Helvetica,sans-Serif" font-size="10.00">+ getHitComponent()</text>
<text text-anchor="start" x="8" y="-399.5" font-family="Helvetica,sans-Serif" font-size="10.00">+ render()</text>
<text text-anchor="start" x="8" y="-388.5" font-family="Helvetica,sans-Serif" font-size="10.00"># prerenderSelf()</text>
</a>
</g>
</g>
<!-- Node4&#45;&gt;Node3 -->
<g id="edge3" class="edge">
<title>Node4&#45;&gt;Node3</title>
<path fill="none" stroke="midnightblue" d="M74.5,-371.18C74.5,-362.43 74.5,-353.52 74.5,-344.96"/>
<polygon fill="none" stroke="midnightblue" points="71,-371.34 74.5,-381.34 78,-371.34 71,-371.34"/>
</g>
<!-- Node5 -->
<g id="node5" class="node">
<title>Node5</title>
<g id="a_node5"><a xlink:href="class_sgl_1_1_parent.html" target="_top" xlink:title=" ">
<polygon fill="white" stroke="black" points="1.5,-530.5 1.5,-763.5 147.5,-763.5 147.5,-530.5 1.5,-530.5"/>
<text text-anchor="middle" x="74.5" y="-751.5" font-family="Helvetica,sans-Serif" font-size="10.00">Sgl::Parent</text>
<polyline fill="none" stroke="black" points="1.5,-744.5 147.5,-744.5 "/>
<text text-anchor="start" x="9.5" y="-732.5" font-family="Helvetica,sans-Serif" font-size="10.00"># m_Children</text>
<text text-anchor="start" x="9.5" y="-721.5" font-family="Helvetica,sans-Serif" font-size="10.00"># m_Snapshot</text>
<text text-anchor="start" x="9.5" y="-710.5" font-family="Helvetica,sans-Serif" font-size="10.00"># m_NeedLayoutPass</text>
<text text-anchor="start" x="9.5" y="-699.5" font-family="Helvetica,sans-Serif" font-size="10.00"># m_Background</text>
<text text-anchor="start" x="9.5" y="-688.5" font-family="Helvetica,sans-Serif" font-size="10.00"># m_Border</text>
<text text-anchor="start" x="9.5" y="-677.5" font-family="Helvetica,sans-Serif" font-size="10.00">and 7 more...</text>
<polyline fill="none" stroke="black" points="1.5,-670.5 147.5,-670.5 "/>
<text text-anchor="start" x="9.5" y="-658.5" font-family="Helvetica,sans-Serif" font-size="10.00">+ Parent()</text>
<text text-anchor="start" x="9.5" y="-647.5" font-family="Helvetica,sans-Serif" font-size="10.00">+ ~Parent()</text>
<text text-anchor="start" x="9.5" y="-636.5" font-family="Helvetica,sans-Serif" font-size="10.00">+ getHitComponent()</text>
<text text-anchor="start" x="9.5" y="-625.5" font-family="Helvetica,sans-Serif" font-size="10.00">+ render()</text>
<text text-anchor="start" x="9.5" y="-614.5" font-family="Helvetica,sans-Serif" font-size="10.00">+ layout()</text>
<text text-anchor="start" x="9.5" y="-603.5" font-family="Helvetica,sans-Serif" font-size="10.00">and 39 more...</text>
<text text-anchor="start" x="9.5" y="-592.5" font-family="Helvetica,sans-Serif" font-size="10.00"># setSceneInSceneTree()</text>
<text text-anchor="start" x="9.5" y="-581.5" font-family="Helvetica,sans-Serif" font-size="10.00"># layoutChildren()</text>
<text text-anchor="start" x="9.5" y="-570.5" font-family="Helvetica,sans-Serif" font-size="10.00"># prerenderSelf()</text>
<text text-anchor="start" x="9.5" y="-559.5" font-family="Helvetica,sans-Serif" font-size="10.00"># updateSnapshotSize()</text>
<text text-anchor="start" x="9.5" y="-548.5" font-family="Helvetica,sans-Serif" font-size="10.00"># computeCustomPrefWidth()</text>
<text text-anchor="start" x="9.5" y="-537.5" font-family="Helvetica,sans-Serif" font-size="10.00">and 5 more...</text>
</a>
</g>
</g>
<!-- Node5&#45;&gt;Node4 -->
<g id="edge4" class="edge">
<title>Node5&#45;&gt;Node4</title>
<path fill="none" stroke="midnightblue" d="M74.5,-520.33C74.5,-511.1 74.5,-502.11 74.5,-493.68"/>
<polygon fill="none" stroke="midnightblue" points="71,-520.42 74.5,-530.42 78,-520.42 71,-520.42"/>
</g>
<!-- Node6 -->
<g id="node6" class="node">
<title>Node6</title>
<g id="a_node6"><a xlink:href="class_sgl_1_1_component.html" target="_top" xlink:title=" ">
<polygon fill="white" stroke="black" points="6,-800.5 6,-1033.5 143,-1033.5 143,-800.5 6,-800.5"/>
<text text-anchor="middle" x="74.5" y="-1021.5" font-family="Helvetica,sans-Serif" font-size="10.00">Sgl::Component</text>
<polyline fill="none" stroke="black" points="6,-1014.5 143,-1014.5 "/>
<text text-anchor="start" x="14" y="-1002.5" font-family="Helvetica,sans-Serif" font-size="10.00">+ Scene</text>
<text text-anchor="start" x="14" y="-991.5" font-family="Helvetica,sans-Serif" font-size="10.00">+ USE_COMPUTED_SIZE</text>
<text text-anchor="start" x="14" y="-980.5" font-family="Helvetica,sans-Serif" font-size="10.00">+ UNLIMITED_SIZE</text>
<text text-anchor="start" x="14" y="-969.5" font-family="Helvetica,sans-Serif" font-size="10.00"># m_Visibility</text>
<text text-anchor="start" x="14" y="-958.5" font-family="Helvetica,sans-Serif" font-size="10.00"># m_Focused</text>
<text text-anchor="start" x="14" y="-947.5" font-family="Helvetica,sans-Serif" font-size="10.00"># m_Hovered</text>
<text text-anchor="start" x="14" y="-936.5" font-family="Helvetica,sans-Serif" font-size="10.00"># m_Shadow</text>
<text text-anchor="start" x="14" y="-925.5" font-family="Helvetica,sans-Serif" font-size="10.00"># m_Dispatcher</text>
<text text-anchor="start" x="14" y="-914.5" font-family="Helvetica,sans-Serif" font-size="10.00">and 3 more...</text>
<polyline fill="none" stroke="black" points="6,-907.5 143,-907.5 "/>
<text text-anchor="start" x="14" y="-895.5" font-family="Helvetica,sans-Serif" font-size="10.00">+ Component()</text>
<text text-anchor="start" x="14" y="-884.5" font-family="Helvetica,sans-Serif" font-size="10.00">+ ~Component()</text>
<text text-anchor="start" x="14" y="-873.5" font-family="Helvetica,sans-Serif" font-size="10.00">+ getHitComponent()</text>
<text text-anchor="start" x="14" y="-862.5" font-family="Helvetica,sans-Serif" font-size="10.00">+ render()</text>
<text text-anchor="start" x="14" y="-851.5" font-family="Helvetica,sans-Serif" font-size="10.00">+ layout()</text>
<text text-anchor="start" x="14" y="-840.5" font-family="Helvetica,sans-Serif" font-size="10.00">and 42 more...</text>
<text text-anchor="start" x="14" y="-829.5" font-family="Helvetica,sans-Serif" font-size="10.00"># updateShadow()</text>
<text text-anchor="start" x="14" y="-818.5" font-family="Helvetica,sans-Serif" font-size="10.00"># renderShadow()</text>
<text text-anchor="start" x="14" y="-807.5" font-family="Helvetica,sans-Serif" font-size="10.00"># setSceneInSceneTree()</text>
</a>
</g>
</g>
<!-- Node6&#45;&gt;Node5 -->
<g id="edge5" class="edge">
<title>Node6&#45;&gt;Node5</title>
<path fill="none" stroke="midnightblue" d="M74.5,-790.37C74.5,-781.46 74.5,-772.49 74.5,-763.64"/>
<polygon fill="none" stroke="midnightblue" points="71,-790.4 74.5,-800.4 78,-790.4 71,-790.4"/>
</g>
<!-- Node7 -->
<g id="node7" class="node">
<title>Node7</title>
<g id="a_node7"><a xlink:title=" ">
<polygon fill="white" stroke="#bfbfbf" points="28.5,-1070.5 28.5,-1127.5 120.5,-1127.5 120.5,-1070.5 28.5,-1070.5"/>
<text text-anchor="middle" x="74.5" y="-1115.5" font-family="Helvetica,sans-Serif" font-size="10.00">Sml::EventTarget</text>
<polyline fill="none" stroke="#bfbfbf" points="28.5,-1108.5 120.5,-1108.5 "/>
<text text-anchor="middle" x="74.5" y="-1096.5" font-family="Helvetica,sans-Serif" font-size="10.00"> </text>
<polyline fill="none" stroke="#bfbfbf" points="28.5,-1089.5 120.5,-1089.5 "/>
<text text-anchor="middle" x="74.5" y="-1077.5" font-family="Helvetica,sans-Serif" font-size="10.00"> </text>
</a>
</g>
</g>
<!-- Node7&#45;&gt;Node6 -->
<g id="edge6" class="edge">
<title>Node7&#45;&gt;Node6</title>
<path fill="none" stroke="midnightblue" d="M74.5,-1060.14C74.5,-1052.03 74.5,-1043.05 74.5,-1033.67"/>
<polygon fill="none" stroke="midnightblue" points="71,-1060.27 74.5,-1070.27 78,-1060.27 71,-1060.27"/>
</g>
</g>
</svg>
        <g id="navigator" transform="translate(0 0)" fill="#404254">
                <rect fill="#f2f5e9" fill-opacity="0.5" stroke="#606060" stroke-width=".5" x="0" y="0" width="60" height="60"/>
                <use id="zoomplus" xlink:href="#zoomPlus" x="17" y="9" onmousedown="handleZoom(evt,'in')"/>
                <use id="zoomminus" xlink:href="#zoomMin" x="42" y="9" onmousedown="handleZoom(evt,'out')"/>
                <use id="reset" xlink:href="#resetDef" x="30" y="36" onmousedown="handleReset()"/>
                <g id="arrowUp" xlink:href="#dirArrow" transform="translate(30 24)" onmousedown="handlePan(0,-1)">
                  <use xlink:href="#rim" fill="#404040">
                        <set attributeName="fill" to="#808080" begin="arrowUp.mouseover" end="arrowUp.mouseout"/>
                  </use>
                  <path fill="none" stroke="white" stroke-width="1.5" d="M0,-3.0v7 M-2.5,-0.5L0,-3.0L2.5,-0.5"/>
                </g>
                <g id="arrowRight" xlink:href="#dirArrow" transform="rotate(90) translate(36 -43)" onmousedown="handlePan(1,0)">
                  <use xlink:href="#rim" fill="#404040">
                        <set attributeName="fill" to="#808080" begin="arrowRight.mouseover" end="arrowRight.mouseout"/>
                  </use>
                  <path fill="none" stroke="white" stroke-width="1.5" d="M0,-3.0v7 M-2.5,-0.5L0,-3.0L2.5,-0.5"/>
                </g>
                <g id="arrowDown" xlink:href="#dirArrow" transform="rotate(180) translate(-30 -48)" onmousedown="handlePan(0,1)">
                  <use xlink:href="#rim" fill="#404040">
                        <set attributeName="fill" to="#808080" begin="arrowDown.mouseover" end="arrowDown.mouseout"/>
                  </use>
                  <path fill="none" stroke="white" stroke-width="1.5" d="M0,-3.0v7 M-2.5,-0.5L0,-3.0L2.5,-0.5"/>
                </g>
                <g id="arrowLeft" xlink:href="#dirArrow" transform="rotate(270) translate(-36 17)" onmousedown="handlePan(-1,0)">
                  <use xlink:href="#rim" fill="#404040">
                        <set attributeName="fill" to="#808080" begin="arrowLeft.mouseover" end="arrowLeft.mouseout"/>
                  </use>
                  <path fill="none" stroke="white" stroke-width="1.5" d="M0,-3.0v7 M-2.5,-0.5L0,-3.0L2.5,-0.5"/>
                </g>
        </g>
        <svg viewBox="0 0 15 15" width="100%" height="30px" preserveAspectRatio="xMaxYMin meet">
         <g id="arrow_out" transform="scale(0.3 0.3)">
          <a xlink:href="class_sgl_1_1_slider_with_label__inherit__graph_org.svg" target="_base">
           <rect id="button" ry="5" rx="5" y="6" x="6" height="38" width="38"
                fill="#f2f5e9" fill-opacity="0.5" stroke="#606060" stroke-width="1.0"/>
           <path id="arrow"
             d="M 11.500037,31.436501 C 11.940474,20.09759 22.043105,11.32322 32.158766,21.979434 L 37.068811,17.246167 C 37.068811,17.246167 37.088388,32 37.088388,32 L 22.160133,31.978069 C 22.160133,31.978069 26.997745,27.140456 26.997745,27.140456 C 18.528582,18.264221 13.291696,25.230495 11.500037,31.436501 z"
             style="fill:#404040;"/>
          </a>
         </g>
        </svg>
</svg>
