<?xml version="1.0" encoding="UTF-8" standalone="no"?>
<!DOCTYPE svg PUBLIC "-//W3C//DTD SVG 1.1//EN"
 "http://www.w3.org/Graphics/SVG/1.1/DTD/svg11.dtd">
<!-- Generated by graphviz version 2.50.0 (20211204.2007)
 -->
<!-- Title: Sgl::FocusListener&lt; C &gt; Pages: 1 -->
<svg width="181pt" height="320pt"
 viewBox="0.00 0.00 181.00 320.00" xmlns="http://www.w3.org/2000/svg" xmlns:xlink="http://www.w3.org/1999/xlink">
<g id="graph0" class="graph" transform="scale(1 1) rotate(0) translate(4 316)">
<title>Sgl::FocusListener&lt; C &gt;</title>
<polygon fill="white" stroke="transparent" points="-4,4 -4,-316 177,-316 177,4 -4,4"/>
<!-- Node1 -->
<g id="node1" class="node">
<title>Node1</title>
<g id="a_node1"><a xlink:title=" ">
<polygon fill="#bfbfbf" stroke="black" points="7.5,-0.5 7.5,-101.5 165.5,-101.5 165.5,-0.5 7.5,-0.5"/>
<text text-anchor="middle" x="86.5" y="-89.5" font-family="Helvetica,sans-Serif" font-size="10.00">Sgl::FocusListener&lt; C &gt;</text>
<polyline fill="none" stroke="black" points="7.5,-82.5 165.5,-82.5 "/>
<text text-anchor="middle" x="86.5" y="-70.5" font-family="Helvetica,sans-Serif" font-size="10.00"> </text>
<polyline fill="none" stroke="black" points="7.5,-63.5 165.5,-63.5 "/>
<text text-anchor="start" x="15.5" y="-51.5" font-family="Helvetica,sans-Serif" font-size="10.00">+ DEFINE_STATIC_LISTENED</text>
<text text-anchor="start" x="15.5" y="-40.5" font-family="Helvetica,sans-Serif" font-size="10.00">_EVENT_TYPES()</text>
<text text-anchor="start" x="15.5" y="-29.5" font-family="Helvetica,sans-Serif" font-size="10.00">+ onEvent()</text>
<text text-anchor="start" x="15.5" y="-18.5" font-family="Helvetica,sans-Serif" font-size="10.00">+ onFocusReceived()</text>
<text text-anchor="start" x="15.5" y="-7.5" font-family="Helvetica,sans-Serif" font-size="10.00">+ onFocusLost()</text>
</a>
</g>
</g>
<!-- Node2 -->
<g id="node2" class="node">
<title>Node2</title>
<g id="a_node2"><a xlink:href="class_sgl_1_1_component_event_listener.html" target="_top" xlink:title=" ">
<polygon fill="white" stroke="black" points="0,-138.5 0,-217.5 173,-217.5 173,-138.5 0,-138.5"/>
<text text-anchor="middle" x="86.5" y="-205.5" font-family="Helvetica,sans-Serif" font-size="10.00">Sgl::ComponentEventListener&lt; C &gt;</text>
<polyline fill="none" stroke="black" points="0,-198.5 173,-198.5 "/>
<text text-anchor="middle" x="86.5" y="-186.5" font-family="Helvetica,sans-Serif" font-size="10.00"> </text>
<polyline fill="none" stroke="black" points="0,-179.5 173,-179.5 "/>
<text text-anchor="start" x="8" y="-167.5" font-family="Helvetica,sans-Serif" font-size="10.00">+ ComponentEventListener()</text>
<text text-anchor="start" x="8" y="-156.5" font-family="Helvetica,sans-Serif" font-size="10.00">+ getComponent()</text>
<text text-anchor="start" x="8" y="-145.5" font-family="Helvetica,sans-Serif" font-size="10.00">+ setComponent()</text>
</a>
</g>
</g>
<!-- Node2&#45;&gt;Node1 -->
<g id="edge1" class="edge">
<title>Node2&#45;&gt;Node1</title>
<path fill="none" stroke="midnightblue" d="M86.5,-128.41C86.5,-119.64 86.5,-110.49 86.5,-101.69"/>
<polygon fill="none" stroke="midnightblue" points="83,-128.48 86.5,-138.48 90,-128.48 83,-128.48"/>
</g>
<!-- Node3 -->
<g id="node3" class="node">
<title>Node3</title>
<g id="a_node3"><a xlink:title=" ">
<polygon fill="white" stroke="#bfbfbf" points="49.5,-254.5 49.5,-311.5 123.5,-311.5 123.5,-254.5 49.5,-254.5"/>
<text text-anchor="middle" x="86.5" y="-299.5" font-family="Helvetica,sans-Serif" font-size="10.00">Sml::Listener</text>
<polyline fill="none" stroke="#bfbfbf" points="49.5,-292.5 123.5,-292.5 "/>
<text text-anchor="middle" x="86.5" y="-280.5" font-family="Helvetica,sans-Serif" font-size="10.00"> </text>
<polyline fill="none" stroke="#bfbfbf" points="49.5,-273.5 123.5,-273.5 "/>
<text text-anchor="middle" x="86.5" y="-261.5" font-family="Helvetica,sans-Serif" font-size="10.00"> </text>
</a>
</g>
</g>
<!-- Node3&#45;&gt;Node2 -->
<g id="edge2" class="edge">
<title>Node3&#45;&gt;Node2</title>
<path fill="none" stroke="midnightblue" d="M86.5,-244.16C86.5,-235.47 86.5,-226.23 86.5,-217.52"/>
<polygon fill="none" stroke="midnightblue" points="83,-244.4 86.5,-254.4 90,-244.4 83,-244.4"/>
</g>
</g>
</svg>
