<?xml version="1.0" encoding="UTF-8" standalone="no"?>
<!DOCTYPE svg PUBLIC "-//W3C//DTD SVG 1.1//EN"
 "http://www.w3.org/Graphics/SVG/1.1/DTD/svg11.dtd">
<!-- Generated by graphviz version 2.50.0 (20211204.2007)
 -->
<!-- Title: Sgl::DefaultSkins::ScrollBarSkin Pages: 1 -->
<svg width="193pt" height="493pt"
 viewBox="0.00 0.00 192.50 493.00" xmlns="http://www.w3.org/2000/svg" xmlns:xlink="http://www.w3.org/1999/xlink">
<g id="graph0" class="graph" transform="scale(1 1) rotate(0) translate(4 489)">
<title>Sgl::DefaultSkins::ScrollBarSkin</title>
<polygon fill="white" stroke="transparent" points="-4,4 -4,-489 188.5,-489 188.5,4 -4,4"/>
<!-- Node1 -->
<g id="node1" class="node">
<title>Node1</title>
<g id="a_node1"><a xlink:title=" ">
<polygon fill="#bfbfbf" stroke="black" points="8,-0.5 8,-134.5 129,-134.5 129,-0.5 8,-0.5"/>
<text text-anchor="start" x="16" y="-122.5" font-family="Helvetica,sans-Serif" font-size="10.00">Sgl::DefaultSkins::</text>
<text text-anchor="middle" x="68.5" y="-111.5" font-family="Helvetica,sans-Serif" font-size="10.00">ScrollBarSkin</text>
<polyline fill="none" stroke="black" points="8,-104.5 129,-104.5 "/>
<text text-anchor="start" x="16" y="-92.5" font-family="Helvetica,sans-Serif" font-size="10.00">+ KNOB_COLOR</text>
<text text-anchor="start" x="16" y="-81.5" font-family="Helvetica,sans-Serif" font-size="10.00">+ KNOB_SHADOW</text>
<polyline fill="none" stroke="black" points="8,-74.5 129,-74.5 "/>
<text text-anchor="start" x="16" y="-62.5" font-family="Helvetica,sans-Serif" font-size="10.00">+ ScrollBarSkin()</text>
<text text-anchor="start" x="16" y="-51.5" font-family="Helvetica,sans-Serif" font-size="10.00">+ dispose()</text>
<text text-anchor="start" x="16" y="-40.5" font-family="Helvetica,sans-Serif" font-size="10.00">+ attach()</text>
<text text-anchor="start" x="16" y="-29.5" font-family="Helvetica,sans-Serif" font-size="10.00">+ getControl()</text>
<text text-anchor="start" x="16" y="-18.5" font-family="Helvetica,sans-Serif" font-size="10.00">+ getModifiableControl()</text>
<text text-anchor="start" x="16" y="-7.5" font-family="Helvetica,sans-Serif" font-size="10.00">+ layoutChildren()</text>
</a>
</g>
</g>
<!-- Node2 -->
<g id="node2" class="node">
<title>Node2</title>
<g id="a_node2"><a xlink:href="class_sgl_1_1_base_skin.html" target="_top" xlink:title=" ">
<polygon fill="white" stroke="black" points="0,-172.5 0,-229.5 137,-229.5 137,-172.5 0,-172.5"/>
<text text-anchor="middle" x="68.5" y="-217.5" font-family="Helvetica,sans-Serif" font-size="10.00">Sgl::BaseSkin&lt; ScrollBar &gt;</text>
<polyline fill="none" stroke="black" points="0,-210.5 137,-210.5 "/>
<text text-anchor="middle" x="68.5" y="-198.5" font-family="Helvetica,sans-Serif" font-size="10.00"> </text>
<polyline fill="none" stroke="black" points="0,-191.5 137,-191.5 "/>
<text text-anchor="start" x="8" y="-179.5" font-family="Helvetica,sans-Serif" font-size="10.00">+ attach()</text>
</a>
</g>
</g>
<!-- Node2&#45;&gt;Node1 -->
<g id="edge1" class="edge">
<title>Node2&#45;&gt;Node1</title>
<path fill="none" stroke="midnightblue" d="M68.5,-162.33C68.5,-153.68 68.5,-144.23 68.5,-134.77"/>
<polygon fill="none" stroke="midnightblue" points="65,-162.43 68.5,-172.43 72,-162.43 65,-162.43"/>
</g>
<!-- Node3 -->
<g id="node3" class="node">
<title>Node3</title>
<g id="a_node3"><a xlink:href="class_sgl_1_1_skin.html" target="_top" xlink:title=" ">
<polygon fill="white" stroke="black" points="10.5,-372.5 10.5,-484.5 118.5,-484.5 118.5,-372.5 10.5,-372.5"/>
<text text-anchor="middle" x="64.5" y="-472.5" font-family="Helvetica,sans-Serif" font-size="10.00">Sgl::Skin</text>
<polyline fill="none" stroke="black" points="10.5,-465.5 118.5,-465.5 "/>
<text text-anchor="middle" x="64.5" y="-453.5" font-family="Helvetica,sans-Serif" font-size="10.00"> </text>
<polyline fill="none" stroke="black" points="10.5,-446.5 118.5,-446.5 "/>
<text text-anchor="start" x="18.5" y="-434.5" font-family="Helvetica,sans-Serif" font-size="10.00">+ ~Skin()</text>
<text text-anchor="start" x="18.5" y="-423.5" font-family="Helvetica,sans-Serif" font-size="10.00">+ dispose()</text>
<text text-anchor="start" x="18.5" y="-412.5" font-family="Helvetica,sans-Serif" font-size="10.00">+ prerenderControl()</text>
<text text-anchor="start" x="18.5" y="-401.5" font-family="Helvetica,sans-Serif" font-size="10.00">+ getHitComponent()</text>
<text text-anchor="start" x="18.5" y="-390.5" font-family="Helvetica,sans-Serif" font-size="10.00">+ getControl()</text>
<text text-anchor="start" x="18.5" y="-379.5" font-family="Helvetica,sans-Serif" font-size="10.00">and 8 more...</text>
</a>
</g>
</g>
<!-- Node3&#45;&gt;Node2 -->
<g id="edge2" class="edge">
<title>Node3&#45;&gt;Node2</title>
<path fill="none" stroke="midnightblue" d="M65.66,-362.28C66.44,-318.25 67.43,-262.38 68.01,-229.57"/>
<polygon fill="none" stroke="midnightblue" points="62.16,-362.28 65.48,-372.34 69.16,-362.4 62.16,-362.28"/>
</g>
<!-- Node4 -->
<g id="node4" class="node">
<title>Node4</title>
<g id="a_node4"><a xlink:href="class_sgl_1_1_base_skin.html" target="_top" xlink:title=" ">
<polygon fill="white" stroke="black" points="80.5,-277.5 80.5,-334.5 184.5,-334.5 184.5,-277.5 80.5,-277.5"/>
<text text-anchor="middle" x="132.5" y="-322.5" font-family="Helvetica,sans-Serif" font-size="10.00">Sgl::BaseSkin&lt; C &gt;</text>
<polyline fill="none" stroke="black" points="80.5,-315.5 184.5,-315.5 "/>
<text text-anchor="middle" x="132.5" y="-303.5" font-family="Helvetica,sans-Serif" font-size="10.00"> </text>
<polyline fill="none" stroke="black" points="80.5,-296.5 184.5,-296.5 "/>
<text text-anchor="start" x="88.5" y="-284.5" font-family="Helvetica,sans-Serif" font-size="10.00">+ attach()</text>
</a>
</g>
</g>
<!-- Node3&#45;&gt;Node4 -->
<g id="edge4" class="edge">
<title>Node3&#45;&gt;Node4</title>
<path fill="none" stroke="midnightblue" d="M100.71,-363.34C106.39,-353.28 111.98,-343.36 116.86,-334.72"/>
<polygon fill="none" stroke="midnightblue" points="97.58,-361.76 95.71,-372.19 103.68,-365.2 97.58,-361.76"/>
</g>
<!-- Node4&#45;&gt;Node2 -->
<g id="edge3" class="edge">
<title>Node4&#45;&gt;Node2</title>
<path fill="none" stroke="orange" d="M109.99,-268.77C102.01,-255.93 93.16,-241.69 85.7,-229.68"/>
<polygon fill="orange" stroke="orange" points="107.1,-270.75 115.35,-277.4 113.04,-267.06 107.1,-270.75"/>
<text text-anchor="middle" x="132" y="-251" font-family="Helvetica,sans-Serif" font-size="10.00"> &lt; ScrollBar &gt;</text>
</g>
</g>
</svg>
