<?xml version="1.0" encoding="UTF-8" standalone="no"?>
<!DOCTYPE svg PUBLIC "-//W3C//DTD SVG 1.1//EN"
 "http://www.w3.org/Graphics/SVG/1.1/DTD/svg11.dtd">
<!-- Generated by graphviz version 2.50.0 (20211204.2007)
 -->
<!-- Title: Sgl::ComponentEventListener&lt; C &gt; Pages: 1 -->
<svg width="1077pt" height="653pt"
 viewBox="0.00 0.00 1077.00 653.00" xmlns="http://www.w3.org/2000/svg" xmlns:xlink="http://www.w3.org/1999/xlink">
<g id="graph0" class="graph" transform="scale(1 1) rotate(0) translate(4 649)">
<title>Sgl::ComponentEventListener&lt; C &gt;</title>
<polygon fill="white" stroke="transparent" points="-4,4 -4,-649 1073,-649 1073,4 -4,4"/>
<!-- Node1 -->
<g id="node1" class="node">
<title>Node1</title>
<g id="a_node1"><a xlink:title=" ">
<polygon fill="#bfbfbf" stroke="black" points="306.5,-470.5 306.5,-549.5 479.5,-549.5 479.5,-470.5 306.5,-470.5"/>
<text text-anchor="middle" x="393" y="-537.5" font-family="Helvetica,sans-Serif" font-size="10.00">Sgl::ComponentEventListener&lt; C &gt;</text>
<polyline fill="none" stroke="black" points="306.5,-530.5 479.5,-530.5 "/>
<text text-anchor="middle" x="393" y="-518.5" font-family="Helvetica,sans-Serif" font-size="10.00"> </text>
<polyline fill="none" stroke="black" points="306.5,-511.5 479.5,-511.5 "/>
<text text-anchor="start" x="314.5" y="-499.5" font-family="Helvetica,sans-Serif" font-size="10.00">+ ComponentEventListener()</text>
<text text-anchor="start" x="314.5" y="-488.5" font-family="Helvetica,sans-Serif" font-size="10.00">+ getComponent()</text>
<text text-anchor="start" x="314.5" y="-477.5" font-family="Helvetica,sans-Serif" font-size="10.00">+ setComponent()</text>
</a>
</g>
</g>
<!-- Node3 -->
<g id="node3" class="node">
<title>Node3</title>
<g id="a_node3"><a xlink:href="class_sgl_1_1_focus_listener.html" target="_top" xlink:title=" ">
<polygon fill="white" stroke="black" points="0,-145 0,-257 158,-257 158,-145 0,-145"/>
<text text-anchor="start" x="8" y="-245" font-family="Helvetica,sans-Serif" font-size="10.00">Sgl::FocusListener</text>
<text text-anchor="middle" x="79" y="-234" font-family="Helvetica,sans-Serif" font-size="10.00">&lt; LayeredContainer &gt;</text>
<polyline fill="none" stroke="black" points="0,-227 158,-227 "/>
<text text-anchor="middle" x="79" y="-215" font-family="Helvetica,sans-Serif" font-size="10.00"> </text>
<polyline fill="none" stroke="black" points="0,-208 158,-208 "/>
<text text-anchor="start" x="8" y="-196" font-family="Helvetica,sans-Serif" font-size="10.00">+ DEFINE_STATIC_LISTENED</text>
<text text-anchor="start" x="8" y="-185" font-family="Helvetica,sans-Serif" font-size="10.00">_EVENT_TYPES()</text>
<text text-anchor="start" x="8" y="-174" font-family="Helvetica,sans-Serif" font-size="10.00">+ onEvent()</text>
<text text-anchor="start" x="8" y="-163" font-family="Helvetica,sans-Serif" font-size="10.00">+ onFocusReceived()</text>
<text text-anchor="start" x="8" y="-152" font-family="Helvetica,sans-Serif" font-size="10.00">+ onFocusLost()</text>
</a>
</g>
</g>
<!-- Node1&#45;&gt;Node3 -->
<g id="edge2" class="edge">
<title>Node1&#45;&gt;Node3</title>
<path fill="none" stroke="midnightblue" d="M296.28,-500.12C197.76,-488.84 54.8,-465.51 21,-423 -16.77,-375.5 11.32,-305.84 40.04,-257.47"/>
<polygon fill="none" stroke="midnightblue" points="295.94,-503.6 306.26,-501.24 296.72,-496.65 295.94,-503.6"/>
</g>
<!-- Node5 -->
<g id="node5" class="node">
<title>Node5</title>
<g id="a_node5"><a xlink:href="class_sgl_1_1_focus_listener.html" target="_top" xlink:title=" ">
<polygon fill="white" stroke="black" points="179,-145 179,-257 337,-257 337,-145 179,-145"/>
<text text-anchor="start" x="187" y="-245" font-family="Helvetica,sans-Serif" font-size="10.00">Sgl::FocusListener</text>
<text text-anchor="middle" x="258" y="-234" font-family="Helvetica,sans-Serif" font-size="10.00">&lt; ContextMenu &gt;</text>
<polyline fill="none" stroke="black" points="179,-227 337,-227 "/>
<text text-anchor="middle" x="258" y="-215" font-family="Helvetica,sans-Serif" font-size="10.00"> </text>
<polyline fill="none" stroke="black" points="179,-208 337,-208 "/>
<text text-anchor="start" x="187" y="-196" font-family="Helvetica,sans-Serif" font-size="10.00">+ DEFINE_STATIC_LISTENED</text>
<text text-anchor="start" x="187" y="-185" font-family="Helvetica,sans-Serif" font-size="10.00">_EVENT_TYPES()</text>
<text text-anchor="start" x="187" y="-174" font-family="Helvetica,sans-Serif" font-size="10.00">+ onEvent()</text>
<text text-anchor="start" x="187" y="-163" font-family="Helvetica,sans-Serif" font-size="10.00">+ onFocusReceived()</text>
<text text-anchor="start" x="187" y="-152" font-family="Helvetica,sans-Serif" font-size="10.00">+ onFocusLost()</text>
</a>
</g>
</g>
<!-- Node1&#45;&gt;Node5 -->
<g id="edge4" class="edge">
<title>Node1&#45;&gt;Node5</title>
<path fill="none" stroke="midnightblue" d="M385.54,-460.54C377.9,-419.06 363.72,-358.51 340,-310 331,-291.6 318.65,-273.23 306.26,-257"/>
<polygon fill="none" stroke="midnightblue" points="382.1,-461.17 387.3,-470.4 388.99,-459.94 382.1,-461.17"/>
</g>
<!-- Node7 -->
<g id="node7" class="node">
<title>Node7</title>
<g id="a_node7"><a xlink:href="class_sgl_1_1_action_listener.html" target="_top" xlink:title=" ">
<polygon fill="white" stroke="black" points="206.5,-327 206.5,-406 331.5,-406 331.5,-327 206.5,-327"/>
<text text-anchor="middle" x="269" y="-394" font-family="Helvetica,sans-Serif" font-size="10.00">Sgl::ActionListener&lt; C &gt;</text>
<polyline fill="none" stroke="black" points="206.5,-387 331.5,-387 "/>
<text text-anchor="middle" x="269" y="-375" font-family="Helvetica,sans-Serif" font-size="10.00"> </text>
<polyline fill="none" stroke="black" points="206.5,-368 331.5,-368 "/>
<text text-anchor="start" x="214.5" y="-356" font-family="Helvetica,sans-Serif" font-size="10.00">+ ActionListener()</text>
<text text-anchor="start" x="214.5" y="-345" font-family="Helvetica,sans-Serif" font-size="10.00">+ onEvent()</text>
<text text-anchor="start" x="214.5" y="-334" font-family="Helvetica,sans-Serif" font-size="10.00">+ onAction()</text>
</a>
</g>
</g>
<!-- Node1&#45;&gt;Node7 -->
<g id="edge6" class="edge">
<title>Node1&#45;&gt;Node7</title>
<path fill="none" stroke="midnightblue" d="M352.39,-462.66C336.36,-444.36 318.15,-423.58 302.84,-406.12"/>
<polygon fill="none" stroke="midnightblue" points="349.89,-465.12 359.12,-470.33 355.16,-460.51 349.89,-465.12"/>
</g>
<!-- Node8 -->
<g id="node8" class="node">
<title>Node8</title>
<g id="a_node8"><a xlink:href="class_sgl_1_1_drag_listener.html" target="_top" xlink:title=" ">
<polygon fill="white" stroke="black" points="388,-310.5 388,-422.5 546,-422.5 546,-310.5 388,-310.5"/>
<text text-anchor="middle" x="467" y="-410.5" font-family="Helvetica,sans-Serif" font-size="10.00">Sgl::DragListener&lt; C &gt;</text>
<polyline fill="none" stroke="black" points="388,-403.5 546,-403.5 "/>
<text text-anchor="middle" x="467" y="-391.5" font-family="Helvetica,sans-Serif" font-size="10.00"> </text>
<polyline fill="none" stroke="black" points="388,-384.5 546,-384.5 "/>
<text text-anchor="start" x="396" y="-372.5" font-family="Helvetica,sans-Serif" font-size="10.00">+ DEFINE_STATIC_LISTENED</text>
<text text-anchor="start" x="396" y="-361.5" font-family="Helvetica,sans-Serif" font-size="10.00">_EVENT_TYPES()</text>
<text text-anchor="start" x="396" y="-350.5" font-family="Helvetica,sans-Serif" font-size="10.00">+ onEvent()</text>
<text text-anchor="start" x="396" y="-339.5" font-family="Helvetica,sans-Serif" font-size="10.00">+ onDragStart()</text>
<text text-anchor="start" x="396" y="-328.5" font-family="Helvetica,sans-Serif" font-size="10.00">+ onDragEnd()</text>
<text text-anchor="start" x="396" y="-317.5" font-family="Helvetica,sans-Serif" font-size="10.00">+ onDragMove()</text>
</a>
</g>
</g>
<!-- Node1&#45;&gt;Node8 -->
<g id="edge7" class="edge">
<title>Node1&#45;&gt;Node8</title>
<path fill="none" stroke="midnightblue" d="M417.86,-461.46C424.39,-448.98 431.49,-435.41 438.2,-422.56"/>
<polygon fill="none" stroke="midnightblue" points="414.75,-459.85 413.22,-470.33 420.96,-463.1 414.75,-459.85"/>
</g>
<!-- Node11 -->
<g id="node11" class="node">
<title>Node11</title>
<g id="a_node11"><a xlink:href="class_sgl_1_1_focus_listener.html" target="_top" xlink:title=" ">
<polygon fill="white" stroke="black" points="30,-316 30,-417 188,-417 188,-316 30,-316"/>
<text text-anchor="middle" x="109" y="-405" font-family="Helvetica,sans-Serif" font-size="10.00">Sgl::FocusListener&lt; C &gt;</text>
<polyline fill="none" stroke="black" points="30,-398 188,-398 "/>
<text text-anchor="middle" x="109" y="-386" font-family="Helvetica,sans-Serif" font-size="10.00"> </text>
<polyline fill="none" stroke="black" points="30,-379 188,-379 "/>
<text text-anchor="start" x="38" y="-367" font-family="Helvetica,sans-Serif" font-size="10.00">+ DEFINE_STATIC_LISTENED</text>
<text text-anchor="start" x="38" y="-356" font-family="Helvetica,sans-Serif" font-size="10.00">_EVENT_TYPES()</text>
<text text-anchor="start" x="38" y="-345" font-family="Helvetica,sans-Serif" font-size="10.00">+ onEvent()</text>
<text text-anchor="start" x="38" y="-334" font-family="Helvetica,sans-Serif" font-size="10.00">+ onFocusReceived()</text>
<text text-anchor="start" x="38" y="-323" font-family="Helvetica,sans-Serif" font-size="10.00">+ onFocusLost()</text>
</a>
</g>
</g>
<!-- Node1&#45;&gt;Node11 -->
<g id="edge10" class="edge">
<title>Node1&#45;&gt;Node11</title>
<path fill="none" stroke="midnightblue" d="M296.87,-470.22C264.64,-456.32 228.81,-439.89 197,-423 193.49,-421.14 189.93,-419.18 186.36,-417.17"/>
<polygon fill="none" stroke="midnightblue" points="295.73,-473.54 306.3,-474.25 298.49,-467.1 295.73,-473.54"/>
</g>
<!-- Node12 -->
<g id="node12" class="node">
<title>Node12</title>
<g id="a_node12"><a xlink:href="class_sgl_1_1_hover_listener.html" target="_top" xlink:title=" ">
<polygon fill="white" stroke="black" points="564,-316 564,-417 722,-417 722,-316 564,-316"/>
<text text-anchor="middle" x="643" y="-405" font-family="Helvetica,sans-Serif" font-size="10.00">Sgl::HoverListener&lt; C &gt;</text>
<polyline fill="none" stroke="black" points="564,-398 722,-398 "/>
<text text-anchor="middle" x="643" y="-386" font-family="Helvetica,sans-Serif" font-size="10.00"> </text>
<polyline fill="none" stroke="black" points="564,-379 722,-379 "/>
<text text-anchor="start" x="572" y="-367" font-family="Helvetica,sans-Serif" font-size="10.00">+ DEFINE_STATIC_LISTENED</text>
<text text-anchor="start" x="572" y="-356" font-family="Helvetica,sans-Serif" font-size="10.00">_EVENT_TYPES()</text>
<text text-anchor="start" x="572" y="-345" font-family="Helvetica,sans-Serif" font-size="10.00">+ onEvent()</text>
<text text-anchor="start" x="572" y="-334" font-family="Helvetica,sans-Serif" font-size="10.00">+ onMouseEntered()</text>
<text text-anchor="start" x="572" y="-323" font-family="Helvetica,sans-Serif" font-size="10.00">+ onMouseExited()</text>
</a>
</g>
</g>
<!-- Node1&#45;&gt;Node12 -->
<g id="edge13" class="edge">
<title>Node1&#45;&gt;Node12</title>
<path fill="none" stroke="midnightblue" d="M477.77,-465.52C502.85,-452.25 530.22,-437.37 555,-423 558.28,-421.1 561.62,-419.13 564.98,-417.13"/>
<polygon fill="none" stroke="midnightblue" points="475.86,-462.57 468.65,-470.33 479.13,-468.77 475.86,-462.57"/>
</g>
<!-- Node13 -->
<g id="node13" class="node">
<title>Node13</title>
<g id="a_node13"><a xlink:href="class_sgl_1_1_component_event_listener.html" target="_top" xlink:title=" ">
<polygon fill="white" stroke="black" points="912.5,-321.5 912.5,-411.5 1059.5,-411.5 1059.5,-321.5 912.5,-321.5"/>
<text text-anchor="start" x="920.5" y="-399.5" font-family="Helvetica,sans-Serif" font-size="10.00">Sgl::ComponentEventListener</text>
<text text-anchor="middle" x="986" y="-388.5" font-family="Helvetica,sans-Serif" font-size="10.00">&lt; Button &gt;</text>
<polyline fill="none" stroke="black" points="912.5,-381.5 1059.5,-381.5 "/>
<text text-anchor="middle" x="986" y="-369.5" font-family="Helvetica,sans-Serif" font-size="10.00"> </text>
<polyline fill="none" stroke="black" points="912.5,-362.5 1059.5,-362.5 "/>
<text text-anchor="start" x="920.5" y="-350.5" font-family="Helvetica,sans-Serif" font-size="10.00">+ ComponentEventListener()</text>
<text text-anchor="start" x="920.5" y="-339.5" font-family="Helvetica,sans-Serif" font-size="10.00">+ getComponent()</text>
<text text-anchor="start" x="920.5" y="-328.5" font-family="Helvetica,sans-Serif" font-size="10.00">+ setComponent()</text>
</a>
</g>
</g>
<!-- Node1&#45;&gt;Node13 -->
<g id="edge14" class="edge">
<title>Node1&#45;&gt;Node13</title>
<path fill="none" stroke="orange" d="M490.1,-503.65C593.81,-495.4 761.55,-474.64 897,-423 905.17,-419.89 913.4,-415.99 921.39,-411.71"/>
<polygon fill="orange" stroke="orange" points="489.65,-500.18 479.95,-504.44 490.19,-507.16 489.65,-500.18"/>
<text text-anchor="middle" x="869" y="-444" font-family="Helvetica,sans-Serif" font-size="10.00"> &lt; Button &gt;</text>
</g>
<!-- Node15 -->
<g id="node15" class="node">
<title>Node15</title>
<g id="a_node15"><a xlink:href="class_sgl_1_1_component_event_listener.html" target="_top" xlink:title=" ">
<polygon fill="white" stroke="black" points="740.5,-321.5 740.5,-411.5 887.5,-411.5 887.5,-321.5 740.5,-321.5"/>
<text text-anchor="start" x="748.5" y="-399.5" font-family="Helvetica,sans-Serif" font-size="10.00">Sgl::ComponentEventListener</text>
<text text-anchor="middle" x="814" y="-388.5" font-family="Helvetica,sans-Serif" font-size="10.00">&lt; Slider &gt;</text>
<polyline fill="none" stroke="black" points="740.5,-381.5 887.5,-381.5 "/>
<text text-anchor="middle" x="814" y="-369.5" font-family="Helvetica,sans-Serif" font-size="10.00"> </text>
<polyline fill="none" stroke="black" points="740.5,-362.5 887.5,-362.5 "/>
<text text-anchor="start" x="748.5" y="-350.5" font-family="Helvetica,sans-Serif" font-size="10.00">+ ComponentEventListener()</text>
<text text-anchor="start" x="748.5" y="-339.5" font-family="Helvetica,sans-Serif" font-size="10.00">+ getComponent()</text>
<text text-anchor="start" x="748.5" y="-328.5" font-family="Helvetica,sans-Serif" font-size="10.00">+ setComponent()</text>
</a>
</g>
</g>
<!-- Node1&#45;&gt;Node15 -->
<g id="edge16" class="edge">
<title>Node1&#45;&gt;Node15</title>
<path fill="none" stroke="orange" d="M489.74,-493.45C558.96,-480.18 653.25,-457.65 731,-423 738.28,-419.75 745.63,-415.88 752.78,-411.72"/>
<polygon fill="orange" stroke="orange" points="488.9,-490.05 479.72,-495.34 490.19,-496.93 488.9,-490.05"/>
<text text-anchor="middle" x="702" y="-444" font-family="Helvetica,sans-Serif" font-size="10.00"> &lt; Slider &gt;</text>
</g>
<!-- Node2 -->
<g id="node2" class="node">
<title>Node2</title>
<g id="a_node2"><a xlink:title=" ">
<polygon fill="white" stroke="#bfbfbf" points="356,-587.5 356,-644.5 430,-644.5 430,-587.5 356,-587.5"/>
<text text-anchor="middle" x="393" y="-632.5" font-family="Helvetica,sans-Serif" font-size="10.00">Sml::Listener</text>
<polyline fill="none" stroke="#bfbfbf" points="356,-625.5 430,-625.5 "/>
<text text-anchor="middle" x="393" y="-613.5" font-family="Helvetica,sans-Serif" font-size="10.00"> </text>
<polyline fill="none" stroke="#bfbfbf" points="356,-606.5 430,-606.5 "/>
<text text-anchor="middle" x="393" y="-594.5" font-family="Helvetica,sans-Serif" font-size="10.00"> </text>
</a>
</g>
</g>
<!-- Node2&#45;&gt;Node1 -->
<g id="edge1" class="edge">
<title>Node2&#45;&gt;Node1</title>
<path fill="none" stroke="midnightblue" d="M393,-577.23C393,-568.27 393,-558.69 393,-549.69"/>
<polygon fill="none" stroke="midnightblue" points="389.5,-577.4 393,-587.4 396.5,-577.4 389.5,-577.4"/>
</g>
<!-- Node4 -->
<g id="node4" class="node">
<title>Node4</title>
<g id="a_node4"><a xlink:href="class_focus_received_filter.html" target="_top" xlink:title=" ">
<polygon fill="white" stroke="black" points="18,-17 18,-85 140,-85 140,-17 18,-17"/>
<text text-anchor="middle" x="79" y="-73" font-family="Helvetica,sans-Serif" font-size="10.00">FocusReceivedFilter</text>
<polyline fill="none" stroke="black" points="18,-66 140,-66 "/>
<text text-anchor="middle" x="79" y="-54" font-family="Helvetica,sans-Serif" font-size="10.00"> </text>
<polyline fill="none" stroke="black" points="18,-47 140,-47 "/>
<text text-anchor="start" x="26" y="-35" font-family="Helvetica,sans-Serif" font-size="10.00">+ FocusReceivedFilter()</text>
<text text-anchor="start" x="26" y="-24" font-family="Helvetica,sans-Serif" font-size="10.00">+ onFocusReceived()</text>
</a>
</g>
</g>
<!-- Node3&#45;&gt;Node4 -->
<g id="edge3" class="edge">
<title>Node3&#45;&gt;Node4</title>
<path fill="none" stroke="midnightblue" d="M79,-134.89C79,-117.73 79,-99.92 79,-85.23"/>
<polygon fill="none" stroke="midnightblue" points="75.5,-134.89 79,-144.89 82.5,-134.89 75.5,-134.89"/>
</g>
<!-- Node6 -->
<g id="node6" class="node">
<title>Node6</title>
<g id="a_node6"><a xlink:href="class_sgl_1_1_context_menu_focus_filter.html" target="_top" xlink:title=" ">
<polygon fill="white" stroke="black" points="186,-17 186,-85 330,-85 330,-17 186,-17"/>
<text text-anchor="middle" x="258" y="-73" font-family="Helvetica,sans-Serif" font-size="10.00">Sgl::ContextMenuFocusFilter</text>
<polyline fill="none" stroke="black" points="186,-66 330,-66 "/>
<text text-anchor="middle" x="258" y="-54" font-family="Helvetica,sans-Serif" font-size="10.00"> </text>
<polyline fill="none" stroke="black" points="186,-47 330,-47 "/>
<text text-anchor="start" x="194" y="-35" font-family="Helvetica,sans-Serif" font-size="10.00">+ ContextMenuFocusFilter()</text>
<text text-anchor="start" x="194" y="-24" font-family="Helvetica,sans-Serif" font-size="10.00">+ onFocusLost()</text>
</a>
</g>
</g>
<!-- Node5&#45;&gt;Node6 -->
<g id="edge5" class="edge">
<title>Node5&#45;&gt;Node6</title>
<path fill="none" stroke="midnightblue" d="M258,-134.89C258,-117.73 258,-99.92 258,-85.23"/>
<polygon fill="none" stroke="midnightblue" points="254.5,-134.89 258,-144.89 261.5,-134.89 254.5,-134.89"/>
</g>
<!-- Node9 -->
<g id="node9" class="node">
<title>Node9</title>
<g id="a_node9"><a xlink:href="class_sgl_1_1_drag_listener.html" target="_top" xlink:title=" ">
<polygon fill="white" stroke="black" points="505,-139.5 505,-262.5 663,-262.5 663,-139.5 505,-139.5"/>
<text text-anchor="start" x="513" y="-250.5" font-family="Helvetica,sans-Serif" font-size="10.00">Sgl::DragListener&lt;</text>
<text text-anchor="middle" x="584" y="-239.5" font-family="Helvetica,sans-Serif" font-size="10.00"> Slider &gt;</text>
<polyline fill="none" stroke="black" points="505,-232.5 663,-232.5 "/>
<text text-anchor="middle" x="584" y="-220.5" font-family="Helvetica,sans-Serif" font-size="10.00"> </text>
<polyline fill="none" stroke="black" points="505,-213.5 663,-213.5 "/>
<text text-anchor="start" x="513" y="-201.5" font-family="Helvetica,sans-Serif" font-size="10.00">+ DEFINE_STATIC_LISTENED</text>
<text text-anchor="start" x="513" y="-190.5" font-family="Helvetica,sans-Serif" font-size="10.00">_EVENT_TYPES()</text>
<text text-anchor="start" x="513" y="-179.5" font-family="Helvetica,sans-Serif" font-size="10.00">+ onEvent()</text>
<text text-anchor="start" x="513" y="-168.5" font-family="Helvetica,sans-Serif" font-size="10.00">+ onDragStart()</text>
<text text-anchor="start" x="513" y="-157.5" font-family="Helvetica,sans-Serif" font-size="10.00">+ onDragEnd()</text>
<text text-anchor="start" x="513" y="-146.5" font-family="Helvetica,sans-Serif" font-size="10.00">+ onDragMove()</text>
</a>
</g>
</g>
<!-- Node8&#45;&gt;Node9 -->
<g id="edge8" class="edge">
<title>Node8&#45;&gt;Node9</title>
<path fill="none" stroke="orange" d="M512.59,-301.79C521.81,-288.91 531.48,-275.4 540.62,-262.63"/>
<polygon fill="orange" stroke="orange" points="509.58,-299.98 506.61,-310.15 515.28,-304.05 509.58,-299.98"/>
<text text-anchor="middle" x="549" y="-284" font-family="Helvetica,sans-Serif" font-size="10.00"> &lt; Slider &gt;</text>
</g>
<!-- Node10 -->
<g id="node10" class="node">
<title>Node10</title>
<g id="a_node10"><a xlink:href="class_sgl_1_1_default_skins_1_1_slider_skin_drag_listener.html" target="_top" xlink:title=" ">
<polygon fill="white" stroke="black" points="518.5,-0.5 518.5,-101.5 649.5,-101.5 649.5,-0.5 518.5,-0.5"/>
<text text-anchor="start" x="526.5" y="-89.5" font-family="Helvetica,sans-Serif" font-size="10.00">Sgl::DefaultSkins::</text>
<text text-anchor="middle" x="584" y="-78.5" font-family="Helvetica,sans-Serif" font-size="10.00">SliderSkinDragListener</text>
<polyline fill="none" stroke="black" points="518.5,-71.5 649.5,-71.5 "/>
<text text-anchor="middle" x="584" y="-59.5" font-family="Helvetica,sans-Serif" font-size="10.00"> </text>
<polyline fill="none" stroke="black" points="518.5,-52.5 649.5,-52.5 "/>
<text text-anchor="start" x="526.5" y="-40.5" font-family="Helvetica,sans-Serif" font-size="10.00">+ SliderSkinDragListener()</text>
<text text-anchor="start" x="526.5" y="-29.5" font-family="Helvetica,sans-Serif" font-size="10.00">+ updateValue()</text>
<text text-anchor="start" x="526.5" y="-18.5" font-family="Helvetica,sans-Serif" font-size="10.00">+ onDragStart()</text>
<text text-anchor="start" x="526.5" y="-7.5" font-family="Helvetica,sans-Serif" font-size="10.00">+ onDragMove()</text>
</a>
</g>
</g>
<!-- Node9&#45;&gt;Node10 -->
<g id="edge9" class="edge">
<title>Node9&#45;&gt;Node10</title>
<path fill="none" stroke="midnightblue" d="M584,-129.37C584,-120.1 584,-110.75 584,-101.92"/>
<polygon fill="none" stroke="midnightblue" points="580.5,-129.38 584,-139.38 587.5,-129.38 580.5,-129.38"/>
</g>
<!-- Node11&#45;&gt;Node3 -->
<g id="edge11" class="edge">
<title>Node11&#45;&gt;Node3</title>
<path fill="none" stroke="orange" d="M97.97,-305.36C95.06,-289.55 91.95,-272.58 89.1,-257.05"/>
<polygon fill="orange" stroke="orange" points="94.59,-306.35 99.84,-315.56 101.47,-305.09 94.59,-306.35"/>
<text text-anchor="middle" x="144" y="-284" font-family="Helvetica,sans-Serif" font-size="10.00"> &lt; LayeredContainer &gt;</text>
</g>
<!-- Node11&#45;&gt;Node5 -->
<g id="edge12" class="edge">
<title>Node11&#45;&gt;Node5</title>
<path fill="none" stroke="orange" d="M180.42,-308.87C186.22,-303.37 191.84,-297.71 197,-292 206.62,-281.36 215.91,-269.11 224.21,-257.13"/>
<polygon fill="orange" stroke="orange" points="177.95,-306.38 172.98,-315.74 182.7,-311.53 177.95,-306.38"/>
<text text-anchor="middle" x="245" y="-284" font-family="Helvetica,sans-Serif" font-size="10.00"> &lt; ContextMenu &gt;</text>
</g>
<!-- Node14 -->
<g id="node14" class="node">
<title>Node14</title>
<g id="a_node14"><a xlink:href="class_sgl_1_1_default_skins_1_1_button_base_skin_event_listener.html" target="_top" xlink:title=" ">
<polygon fill="white" stroke="black" points="911,-156 911,-246 1069,-246 1069,-156 911,-156"/>
<text text-anchor="start" x="919" y="-234" font-family="Helvetica,sans-Serif" font-size="10.00">Sgl::DefaultSkins::</text>
<text text-anchor="middle" x="990" y="-223" font-family="Helvetica,sans-Serif" font-size="10.00">ButtonBaseSkinEventListener</text>
<polyline fill="none" stroke="black" points="911,-216 1069,-216 "/>
<text text-anchor="middle" x="990" y="-204" font-family="Helvetica,sans-Serif" font-size="10.00"> </text>
<polyline fill="none" stroke="black" points="911,-197 1069,-197 "/>
<text text-anchor="start" x="919" y="-185" font-family="Helvetica,sans-Serif" font-size="10.00">+ DEFINE_STATIC_LISTENED</text>
<text text-anchor="start" x="919" y="-174" font-family="Helvetica,sans-Serif" font-size="10.00">_EVENT_TYPES()</text>
<text text-anchor="start" x="919" y="-163" font-family="Helvetica,sans-Serif" font-size="10.00">+ onEvent()</text>
</a>
</g>
</g>
<!-- Node13&#45;&gt;Node14 -->
<g id="edge15" class="edge">
<title>Node13&#45;&gt;Node14</title>
<path fill="none" stroke="midnightblue" d="M987.33,-311.16C987.84,-290.09 988.43,-266.28 988.92,-246.28"/>
<polygon fill="none" stroke="midnightblue" points="983.83,-311.17 987.08,-321.25 990.83,-311.34 983.83,-311.17"/>
</g>
<!-- Node15&#45;&gt;Node9 -->
<g id="edge17" class="edge">
<title>Node15&#45;&gt;Node9</title>
<path fill="none" stroke="midnightblue" d="M743.6,-315.46C718.24,-297.43 689.46,-276.97 663.39,-258.44"/>
<polygon fill="none" stroke="midnightblue" points="741.88,-318.53 752.06,-321.47 745.94,-312.82 741.88,-318.53"/>
</g>
<!-- Node16 -->
<g id="node16" class="node">
<title>Node16</title>
<g id="a_node16"><a xlink:href="class_sgl_1_1_default_skins_1_1_slider_skin_mouse_press_listener.html" target="_top" xlink:title=" ">
<polygon fill="white" stroke="black" points="727.5,-161.5 727.5,-240.5 892.5,-240.5 892.5,-161.5 727.5,-161.5"/>
<text text-anchor="start" x="735.5" y="-228.5" font-family="Helvetica,sans-Serif" font-size="10.00">Sgl::DefaultSkins::</text>
<text text-anchor="middle" x="810" y="-217.5" font-family="Helvetica,sans-Serif" font-size="10.00">SliderSkinMousePressListener</text>
<polyline fill="none" stroke="black" points="727.5,-210.5 892.5,-210.5 "/>
<text text-anchor="middle" x="810" y="-198.5" font-family="Helvetica,sans-Serif" font-size="10.00"> </text>
<polyline fill="none" stroke="black" points="727.5,-191.5 892.5,-191.5 "/>
<text text-anchor="start" x="735.5" y="-179.5" font-family="Helvetica,sans-Serif" font-size="10.00">+ SliderSkinMousePressListener()</text>
<text text-anchor="start" x="735.5" y="-168.5" font-family="Helvetica,sans-Serif" font-size="10.00">+ onEvent()</text>
</a>
</g>
</g>
<!-- Node15&#45;&gt;Node16 -->
<g id="edge18" class="edge">
<title>Node15&#45;&gt;Node16</title>
<path fill="none" stroke="midnightblue" d="M812.67,-311.25C812.11,-288.17 811.46,-261.78 810.95,-240.71"/>
<polygon fill="none" stroke="midnightblue" points="809.17,-311.34 812.92,-321.25 816.17,-311.17 809.17,-311.34"/>
</g>
</g>
</svg>
