<?xml version="1.0" encoding="UTF-8" standalone="no"?>
<!DOCTYPE svg PUBLIC "-//W3C//DTD SVG 1.1//EN"
 "http://www.w3.org/Graphics/SVG/1.1/DTD/svg11.dtd">
<!-- Generated by graphviz version 2.50.0 (20211204.2007)
 -->
<!-- Title: Sgl::Text Pages: 1 -->
<!--zoomable 861 -->
<svg id="main" version="1.1" xmlns="http://www.w3.org/2000/svg" xmlns:xlink="http://www.w3.org/1999/xlink" xml:space="preserve" onload="init(evt)">
<style type="text/css"><![CDATA[
.edge:hover path { stroke: red; }
.edge:hover polygon { stroke: red; fill: red; }
]]></style>
<script type="text/javascript"><![CDATA[
var edges = document.getElementsByTagName('g');
if (edges && edges.length) {
  for (var i=0;i<edges.length;i++) {
    if (edges[i].id.substr(0,4)=='edge') {
      edges[i].setAttribute('class','edge');
    }
  }
}
]]></script>
        <defs>
                <circle id="rim" cx="0" cy="0" r="7"/>
                <circle id="rim2" cx="0" cy="0" r="3.5"/>
                <g id="zoomPlus">
                        <use xlink:href="#rim" fill="#404040">
                                <set attributeName="fill" to="#808080" begin="zoomplus.mouseover" end="zoomplus.mouseout"/>
                        </use>
                        <path d="M-4,0h8M0,-4v8" fill="none" stroke="white" stroke-width="1.5" pointer-events="none"/>
                </g>
                <g id="zoomMin">
                        <use xlink:href="#rim" fill="#404040">
                                <set attributeName="fill" to="#808080" begin="zoomminus.mouseover" end="zoomminus.mouseout"/>
                        </use>
                        <path d="M-4,0h8" fill="none" stroke="white" stroke-width="1.5" pointer-events="none"/>
                </g>
                <g id="dirArrow">
                        <path fill="none" stroke="white" stroke-width="1.5" d="M0,-3.0v7 M-2.5,-0.5L0,-3.0L2.5,-0.5"/>
                </g>
               <g id="resetDef">
                       <use xlink:href="#rim2" fill="#404040">
                               <set attributeName="fill" to="#808080" begin="reset.mouseover" end="reset.mouseout"/>
                       </use>
               </g>
        </defs>

<script type="text/javascript">
var viewWidth = 1094;
var viewHeight = 861;
var sectionId = 'dynsection-1';
</script>
<script xlink:href="svgpan.js"/>
<svg id="graph" class="graph">
<g id="viewport">
<title>Sgl::Text</title>
<polygon fill="white" stroke="transparent" points="-4,4 -4,-857 1090.39,-857 1090.39,4 -4,4"/>
<!-- Node1 -->
<g id="node1" class="node">
<title>Node1</title>
<g id="a_node1"><a xlink:title=" ">
<polygon fill="#bfbfbf" stroke="black" points="861.39,-0.5 861.39,-112.5 941.39,-112.5 941.39,-0.5 861.39,-0.5"/>
<text text-anchor="middle" x="901.39" y="-100.5" font-family="Helvetica,sans-Serif" font-size="10.00">Sgl::Text</text>
<polyline fill="none" stroke="black" points="861.39,-93.5 941.39,-93.5 "/>
<text text-anchor="middle" x="901.39" y="-81.5" font-family="Helvetica,sans-Serif" font-size="10.00"> </text>
<polyline fill="none" stroke="black" points="861.39,-74.5 941.39,-74.5 "/>
<text text-anchor="start" x="869.39" y="-62.5" font-family="Helvetica,sans-Serif" font-size="10.00">+ Text()</text>
<text text-anchor="start" x="869.39" y="-51.5" font-family="Helvetica,sans-Serif" font-size="10.00">+ Text()</text>
<text text-anchor="start" x="869.39" y="-40.5" font-family="Helvetica,sans-Serif" font-size="10.00">+ render()</text>
<text text-anchor="start" x="869.39" y="-29.5" font-family="Helvetica,sans-Serif" font-size="10.00">+ prerender()</text>
<text text-anchor="start" x="869.39" y="-18.5" font-family="Helvetica,sans-Serif" font-size="10.00">+ getFont()</text>
<text text-anchor="start" x="869.39" y="-7.5" font-family="Helvetica,sans-Serif" font-size="10.00">and 11 more...</text>
</a>
</g>
</g>
<!-- Node2 -->
<g id="node2" class="node">
<title>Node2</title>
<g id="a_node2"><a xlink:href="class_sgl_1_1_shape.html" target="_top" xlink:title=" ">
<polygon fill="white" stroke="black" points="859.89,-183.5 859.89,-295.5 942.89,-295.5 942.89,-183.5 859.89,-183.5"/>
<text text-anchor="middle" x="901.39" y="-283.5" font-family="Helvetica,sans-Serif" font-size="10.00">Sgl::Shape</text>
<polyline fill="none" stroke="black" points="859.89,-276.5 942.89,-276.5 "/>
<text text-anchor="middle" x="901.39" y="-264.5" font-family="Helvetica,sans-Serif" font-size="10.00"> </text>
<polyline fill="none" stroke="black" points="859.89,-257.5 942.89,-257.5 "/>
<text text-anchor="start" x="867.89" y="-245.5" font-family="Helvetica,sans-Serif" font-size="10.00">+ Shape()</text>
<text text-anchor="start" x="867.89" y="-234.5" font-family="Helvetica,sans-Serif" font-size="10.00">+ Shape()</text>
<text text-anchor="start" x="867.89" y="-223.5" font-family="Helvetica,sans-Serif" font-size="10.00">+ ~Shape()</text>
<text text-anchor="start" x="867.89" y="-212.5" font-family="Helvetica,sans-Serif" font-size="10.00">+ layout()</text>
<text text-anchor="start" x="867.89" y="-201.5" font-family="Helvetica,sans-Serif" font-size="10.00">+ isResizable()</text>
<text text-anchor="start" x="867.89" y="-190.5" font-family="Helvetica,sans-Serif" font-size="10.00">and 10 more...</text>
</a>
</g>
</g>
<!-- Node2&#45;&gt;Node1 -->
<g id="edge1" class="edge">
<title>Node2&#45;&gt;Node1</title>
<path fill="none" stroke="midnightblue" d="M901.39,-173.05C901.39,-153.29 901.39,-131.79 901.39,-112.76"/>
<polygon fill="none" stroke="midnightblue" points="897.89,-173.21 901.39,-183.21 904.89,-173.21 897.89,-173.21"/>
</g>
<!-- Node3 -->
<g id="node3" class="node">
<title>Node3</title>
<g id="a_node3"><a xlink:href="class_sgl_1_1_component.html" target="_top" xlink:title=" ">
<polygon fill="white" stroke="black" points="396.39,-376.5 396.39,-521.5 524.39,-521.5 524.39,-376.5 396.39,-376.5"/>
<text text-anchor="middle" x="460.39" y="-509.5" font-family="Helvetica,sans-Serif" font-size="10.00">Sgl::Component</text>
<polyline fill="none" stroke="black" points="396.39,-502.5 524.39,-502.5 "/>
<text text-anchor="middle" x="460.39" y="-490.5" font-family="Helvetica,sans-Serif" font-size="10.00"> </text>
<polyline fill="none" stroke="black" points="396.39,-483.5 524.39,-483.5 "/>
<text text-anchor="start" x="404.39" y="-471.5" font-family="Helvetica,sans-Serif" font-size="10.00">+ Component()</text>
<text text-anchor="start" x="404.39" y="-460.5" font-family="Helvetica,sans-Serif" font-size="10.00">+ ~Component()</text>
<text text-anchor="start" x="404.39" y="-449.5" font-family="Helvetica,sans-Serif" font-size="10.00">+ getHitComponent()</text>
<text text-anchor="start" x="404.39" y="-438.5" font-family="Helvetica,sans-Serif" font-size="10.00">+ render()</text>
<text text-anchor="start" x="404.39" y="-427.5" font-family="Helvetica,sans-Serif" font-size="10.00">+ layout()</text>
<text text-anchor="start" x="404.39" y="-416.5" font-family="Helvetica,sans-Serif" font-size="10.00">and 37 more...</text>
<text text-anchor="start" x="404.39" y="-405.5" font-family="Helvetica,sans-Serif" font-size="10.00"># updateShadow()</text>
<text text-anchor="start" x="404.39" y="-394.5" font-family="Helvetica,sans-Serif" font-size="10.00"># renderShadow()</text>
<text text-anchor="start" x="404.39" y="-383.5" font-family="Helvetica,sans-Serif" font-size="10.00"># setSceneInSceneTree()</text>
</a>
</g>
</g>
<!-- Node3&#45;&gt;Node2 -->
<g id="edge2" class="edge">
<title>Node3&#45;&gt;Node2</title>
<path fill="none" stroke="midnightblue" d="M508.42,-368.84C515.7,-360.68 523.71,-353.15 532.39,-347 635.09,-274.26 786.94,-250.89 859.63,-243.63"/>
<polygon fill="none" stroke="midnightblue" points="505.74,-366.59 501.95,-376.48 511.08,-371.11 505.74,-366.59"/>
</g>
<!-- Node13 -->
<g id="node13" class="node">
<title>Node13</title>
<g id="a_node13"><a xlink:href="class_sgl_1_1_parent.html" target="_top" xlink:title=" ">
<polygon fill="white" stroke="black" points="379.39,-150.5 379.39,-328.5 525.39,-328.5 525.39,-150.5 379.39,-150.5"/>
<text text-anchor="middle" x="452.39" y="-316.5" font-family="Helvetica,sans-Serif" font-size="10.00">Sgl::Parent</text>
<polyline fill="none" stroke="black" points="379.39,-309.5 525.39,-309.5 "/>
<text text-anchor="middle" x="452.39" y="-297.5" font-family="Helvetica,sans-Serif" font-size="10.00"> </text>
<polyline fill="none" stroke="black" points="379.39,-290.5 525.39,-290.5 "/>
<text text-anchor="start" x="387.39" y="-278.5" font-family="Helvetica,sans-Serif" font-size="10.00">+ Parent()</text>
<text text-anchor="start" x="387.39" y="-267.5" font-family="Helvetica,sans-Serif" font-size="10.00">+ ~Parent()</text>
<text text-anchor="start" x="387.39" y="-256.5" font-family="Helvetica,sans-Serif" font-size="10.00">+ getHitComponent()</text>
<text text-anchor="start" x="387.39" y="-245.5" font-family="Helvetica,sans-Serif" font-size="10.00">+ render()</text>
<text text-anchor="start" x="387.39" y="-234.5" font-family="Helvetica,sans-Serif" font-size="10.00">+ layout()</text>
<text text-anchor="start" x="387.39" y="-223.5" font-family="Helvetica,sans-Serif" font-size="10.00">and 38 more...</text>
<text text-anchor="start" x="387.39" y="-212.5" font-family="Helvetica,sans-Serif" font-size="10.00"># setSceneInSceneTree()</text>
<text text-anchor="start" x="387.39" y="-201.5" font-family="Helvetica,sans-Serif" font-size="10.00"># layoutChildren()</text>
<text text-anchor="start" x="387.39" y="-190.5" font-family="Helvetica,sans-Serif" font-size="10.00"># prerenderSelf()</text>
<text text-anchor="start" x="387.39" y="-179.5" font-family="Helvetica,sans-Serif" font-size="10.00"># updateSnapshotSize()</text>
<text text-anchor="start" x="387.39" y="-168.5" font-family="Helvetica,sans-Serif" font-size="10.00"># computeCustomPrefWidth()</text>
<text text-anchor="start" x="387.39" y="-157.5" font-family="Helvetica,sans-Serif" font-size="10.00">and 5 more...</text>
</a>
</g>
</g>
<!-- Node3&#45;&gt;Node13 -->
<g id="edge14" class="edge">
<title>Node3&#45;&gt;Node13</title>
<path fill="none" stroke="midnightblue" d="M449.01,-366.24C448.78,-363.46 448.57,-360.71 448.39,-358 447.76,-348.53 447.49,-338.62 447.47,-328.75"/>
<polygon fill="none" stroke="midnightblue" points="445.54,-366.73 449.96,-376.36 452.51,-366.08 445.54,-366.73"/>
</g>
<!-- Node4 -->
<g id="node4" class="node">
<title>Node4</title>
<g id="a_node4"><a xlink:title=" ">
<polygon fill="white" stroke="#bfbfbf" points="360.39,-795.5 360.39,-852.5 452.39,-852.5 452.39,-795.5 360.39,-795.5"/>
<text text-anchor="middle" x="406.39" y="-840.5" font-family="Helvetica,sans-Serif" font-size="10.00">Sml::EventTarget</text>
<polyline fill="none" stroke="#bfbfbf" points="360.39,-833.5 452.39,-833.5 "/>
<text text-anchor="middle" x="406.39" y="-821.5" font-family="Helvetica,sans-Serif" font-size="10.00"> </text>
<polyline fill="none" stroke="#bfbfbf" points="360.39,-814.5 452.39,-814.5 "/>
<text text-anchor="middle" x="406.39" y="-802.5" font-family="Helvetica,sans-Serif" font-size="10.00"> </text>
</a>
</g>
</g>
<!-- Node4&#45;&gt;Node3 -->
<g id="edge3" class="edge">
<title>Node4&#45;&gt;Node3</title>
<path fill="none" stroke="midnightblue" d="M403.08,-785.16C400.06,-740.89 397.52,-665.55 408.39,-602 412.97,-575.2 421.6,-546.76 430.54,-521.82"/>
<polygon fill="none" stroke="midnightblue" points="399.6,-785.47 403.81,-795.18 406.58,-784.96 399.6,-785.47"/>
</g>
<!-- Node12 -->
<g id="node12" class="node">
<title>Node12</title>
<g id="a_node12"><a xlink:href="class_sgl_1_1_scene.html" target="_top" xlink:title=" ">
<polygon fill="white" stroke="black" points="417.39,-613.5 417.39,-725.5 497.39,-725.5 497.39,-613.5 417.39,-613.5"/>
<text text-anchor="middle" x="457.39" y="-713.5" font-family="Helvetica,sans-Serif" font-size="10.00">Sgl::Scene</text>
<polyline fill="none" stroke="black" points="417.39,-706.5 497.39,-706.5 "/>
<text text-anchor="middle" x="457.39" y="-694.5" font-family="Helvetica,sans-Serif" font-size="10.00"> </text>
<polyline fill="none" stroke="black" points="417.39,-687.5 497.39,-687.5 "/>
<text text-anchor="start" x="425.39" y="-675.5" font-family="Helvetica,sans-Serif" font-size="10.00">+ Scene()</text>
<text text-anchor="start" x="425.39" y="-664.5" font-family="Helvetica,sans-Serif" font-size="10.00">+ Scene()</text>
<text text-anchor="start" x="425.39" y="-653.5" font-family="Helvetica,sans-Serif" font-size="10.00">+ ~Scene()</text>
<text text-anchor="start" x="425.39" y="-642.5" font-family="Helvetica,sans-Serif" font-size="10.00">+ update()</text>
<text text-anchor="start" x="425.39" y="-631.5" font-family="Helvetica,sans-Serif" font-size="10.00">+ render()</text>
<text text-anchor="start" x="425.39" y="-620.5" font-family="Helvetica,sans-Serif" font-size="10.00">and 17 more...</text>
</a>
</g>
</g>
<!-- Node4&#45;&gt;Node12 -->
<g id="edge12" class="edge">
<title>Node4&#45;&gt;Node12</title>
<path fill="none" stroke="midnightblue" d="M418.83,-785.8C424.87,-767.74 432.24,-745.68 438.92,-725.71"/>
<polygon fill="none" stroke="midnightblue" points="415.47,-784.79 415.62,-795.38 422.11,-787.01 415.47,-784.79"/>
</g>
<!-- Node5 -->
<g id="node5" class="node">
<title>Node5</title>
<g id="a_node5"><a xlink:title=" ">
<polygon fill="white" stroke="#bfbfbf" points="62.39,-641 62.39,-698 108.39,-698 108.39,-641 62.39,-641"/>
<text text-anchor="middle" x="85.39" y="-686" font-family="Helvetica,sans-Serif" font-size="10.00">int32_t</text>
<polyline fill="none" stroke="#bfbfbf" points="62.39,-679 108.39,-679 "/>
<text text-anchor="middle" x="85.39" y="-667" font-family="Helvetica,sans-Serif" font-size="10.00"> </text>
<polyline fill="none" stroke="#bfbfbf" points="62.39,-660 108.39,-660 "/>
<text text-anchor="middle" x="85.39" y="-648" font-family="Helvetica,sans-Serif" font-size="10.00"> </text>
</a>
</g>
</g>
<!-- Node5&#45;&gt;Node3 -->
<g id="edge4" class="edge">
<title>Node5&#45;&gt;Node3</title>
<path fill="none" stroke="#404040" d="M95.76,-640.96C108.82,-610.5 134.38,-562.75 173.39,-540 253.92,-493.02 297.09,-559.65 382.39,-522 383.42,-521.54 384.45,-521.07 385.47,-520.58"/>
<polygon fill="none" stroke="#404040" points="385.71,-520.44 389.03,-514.04 396.22,-514.65 392.89,-521.05 385.71,-520.44"/>
<text text-anchor="middle" x="232.39" y="-565" font-family="Helvetica,sans-Serif" font-size="10.00"> +UNLIMITED_SIZE</text>
<text text-anchor="middle" x="232.39" y="-554" font-family="Helvetica,sans-Serif" font-size="10.00">+USE_COMPUTED_SIZE</text>
</g>
<!-- Node5&#45;&gt;Node13 -->
<g id="edge23" class="edge">
<title>Node5&#45;&gt;Node13</title>
<path fill="none" stroke="#404040" d="M66.74,-640.92C31.64,-585.26 -35.53,-457.82 24.39,-376 65.15,-320.33 254.25,-276.85 367,-255.33"/>
<polygon fill="none" stroke="#404040" points="367.22,-255.29 372.38,-250.25 379.01,-253.07 373.86,-258.11 367.22,-255.29"/>
<text text-anchor="middle" x="59.39" y="-474" font-family="Helvetica,sans-Serif" font-size="10.00"> #m_MaxHeight</text>
<text text-anchor="middle" x="59.39" y="-463" font-family="Helvetica,sans-Serif" font-size="10.00">#m_MaxWidth</text>
<text text-anchor="middle" x="59.39" y="-452" font-family="Helvetica,sans-Serif" font-size="10.00">#m_MinHeight</text>
<text text-anchor="middle" x="59.39" y="-441" font-family="Helvetica,sans-Serif" font-size="10.00">#m_MinWidth</text>
<text text-anchor="middle" x="59.39" y="-430" font-family="Helvetica,sans-Serif" font-size="10.00">#m_PrefHeight</text>
<text text-anchor="middle" x="59.39" y="-419" font-family="Helvetica,sans-Serif" font-size="10.00">#m_PrefWidth</text>
</g>
<!-- Node18 -->
<g id="node18" class="node">
<title>Node18</title>
<g id="a_node18"><a xlink:href="struct_sgl_1_1_insets.html" target="_top" xlink:title=" ">
<polygon fill="white" stroke="black" points="103.89,-393 103.89,-505 182.89,-505 182.89,-393 103.89,-393"/>
<text text-anchor="middle" x="143.39" y="-493" font-family="Helvetica,sans-Serif" font-size="10.00">Sgl::Insets</text>
<polyline fill="none" stroke="black" points="103.89,-486 182.89,-486 "/>
<text text-anchor="middle" x="143.39" y="-474" font-family="Helvetica,sans-Serif" font-size="10.00"> </text>
<polyline fill="none" stroke="black" points="103.89,-467 182.89,-467 "/>
<text text-anchor="start" x="111.89" y="-455" font-family="Helvetica,sans-Serif" font-size="10.00">+ Insets()</text>
<text text-anchor="start" x="111.89" y="-444" font-family="Helvetica,sans-Serif" font-size="10.00">+ Insets()</text>
<text text-anchor="start" x="111.89" y="-433" font-family="Helvetica,sans-Serif" font-size="10.00">+ Insets()</text>
<text text-anchor="start" x="111.89" y="-422" font-family="Helvetica,sans-Serif" font-size="10.00">+ Insets()</text>
<text text-anchor="start" x="111.89" y="-411" font-family="Helvetica,sans-Serif" font-size="10.00">+ operator+=()</text>
<text text-anchor="start" x="111.89" y="-400" font-family="Helvetica,sans-Serif" font-size="10.00">+ operator&#45;=()</text>
</a>
</g>
</g>
<!-- Node5&#45;&gt;Node18 -->
<g id="edge22" class="edge">
<title>Node5&#45;&gt;Node18</title>
<path fill="none" stroke="#404040" d="M81.28,-640.79C78.36,-614.32 76.5,-573.6 86.39,-540 89.13,-530.67 93.16,-521.37 97.82,-512.48"/>
<polygon fill="none" stroke="#404040" points="97.9,-512.34 97.35,-505.15 103.78,-501.88 104.33,-509.07 97.9,-512.34"/>
<text text-anchor="middle" x="106.39" y="-576" font-family="Helvetica,sans-Serif" font-size="10.00"> +bottom</text>
<text text-anchor="middle" x="106.39" y="-565" font-family="Helvetica,sans-Serif" font-size="10.00">+left</text>
<text text-anchor="middle" x="106.39" y="-554" font-family="Helvetica,sans-Serif" font-size="10.00">+right</text>
<text text-anchor="middle" x="106.39" y="-543" font-family="Helvetica,sans-Serif" font-size="10.00">+top</text>
</g>
<!-- Node6 -->
<g id="node6" class="node">
<title>Node6</title>
<g id="a_node6"><a xlink:title=" ">
<polygon fill="white" stroke="#bfbfbf" points="515.89,-641 515.89,-698 556.89,-698 556.89,-641 515.89,-641"/>
<text text-anchor="middle" x="536.39" y="-686" font-family="Helvetica,sans-Serif" font-size="10.00">friend</text>
<polyline fill="none" stroke="#bfbfbf" points="515.89,-679 556.89,-679 "/>
<text text-anchor="middle" x="536.39" y="-667" font-family="Helvetica,sans-Serif" font-size="10.00"> </text>
<polyline fill="none" stroke="#bfbfbf" points="515.89,-660 556.89,-660 "/>
<text text-anchor="middle" x="536.39" y="-648" font-family="Helvetica,sans-Serif" font-size="10.00"> </text>
</a>
</g>
</g>
<!-- Node6&#45;&gt;Node3 -->
<g id="edge5" class="edge">
<title>Node6&#45;&gt;Node3</title>
<path fill="none" stroke="#404040" d="M533.97,-640.96C531.01,-614.44 524.79,-573.52 512.39,-540 511.51,-537.62 510.57,-535.23 509.57,-532.84"/>
<polygon fill="none" stroke="#404040" points="509.48,-532.62 503.38,-528.77 504.6,-521.66 510.69,-525.52 509.48,-532.62"/>
<text text-anchor="middle" x="541.89" y="-559.5" font-family="Helvetica,sans-Serif" font-size="10.00"> +Scene</text>
</g>
<!-- Node7 -->
<g id="node7" class="node">
<title>Node7</title>
<g id="a_node7"><a xlink:title=" ">
<polygon fill="white" stroke="#bfbfbf" points="279.89,-641 279.89,-698 314.89,-698 314.89,-641 279.89,-641"/>
<text text-anchor="middle" x="297.39" y="-686" font-family="Helvetica,sans-Serif" font-size="10.00">bool</text>
<polyline fill="none" stroke="#bfbfbf" points="279.89,-679 314.89,-679 "/>
<text text-anchor="middle" x="297.39" y="-667" font-family="Helvetica,sans-Serif" font-size="10.00"> </text>
<polyline fill="none" stroke="#bfbfbf" points="279.89,-660 314.89,-660 "/>
<text text-anchor="middle" x="297.39" y="-648" font-family="Helvetica,sans-Serif" font-size="10.00"> </text>
</a>
</g>
</g>
<!-- Node7&#45;&gt;Node3 -->
<g id="edge6" class="edge">
<title>Node7&#45;&gt;Node3</title>
<path fill="none" stroke="#404040" d="M293.16,-640.84C290.42,-612.09 291.07,-567.51 315.39,-540 335.8,-516.9 355.39,-536.89 382.39,-522 383.56,-521.35 384.72,-520.69 385.88,-520"/>
<polygon fill="none" stroke="#404040" points="386.12,-519.85 388.99,-513.24 396.2,-513.35 393.33,-519.96 386.12,-519.85"/>
<text text-anchor="middle" x="345.39" y="-570.5" font-family="Helvetica,sans-Serif" font-size="10.00"> #m_Focused</text>
<text text-anchor="middle" x="345.39" y="-559.5" font-family="Helvetica,sans-Serif" font-size="10.00">#m_Hovered</text>
<text text-anchor="middle" x="345.39" y="-548.5" font-family="Helvetica,sans-Serif" font-size="10.00">#m_Visible</text>
</g>
<!-- Node7&#45;&gt;Node13 -->
<g id="edge17" class="edge">
<title>Node7&#45;&gt;Node13</title>
<path fill="none" stroke="#404040" d="M288.9,-640.63C274.07,-586.59 248.78,-465.05 290.39,-376 307.12,-340.18 338.5,-310.5 369.22,-288.13"/>
<polygon fill="none" stroke="#404040" points="369.34,-288.05 371.94,-281.32 379.15,-281.13 376.55,-287.86 369.34,-288.05"/>
<text text-anchor="middle" x="338.89" y="-446.5" font-family="Helvetica,sans-Serif" font-size="10.00"> #m_NeedLayoutPass</text>
</g>
<!-- Node8 -->
<g id="node8" class="node">
<title>Node8</title>
<g id="a_node8"><a xlink:href="class_sgl_1_1_shadow.html" target="_top" xlink:title=" ">
<polygon fill="white" stroke="black" points="574.89,-608 574.89,-731 675.89,-731 675.89,-608 574.89,-608"/>
<text text-anchor="middle" x="625.39" y="-719" font-family="Helvetica,sans-Serif" font-size="10.00">Sgl::Shadow</text>
<polyline fill="none" stroke="black" points="574.89,-712 675.89,-712 "/>
<text text-anchor="middle" x="625.39" y="-700" font-family="Helvetica,sans-Serif" font-size="10.00"> </text>
<polyline fill="none" stroke="black" points="574.89,-693 675.89,-693 "/>
<text text-anchor="start" x="582.89" y="-681" font-family="Helvetica,sans-Serif" font-size="10.00">+ Shadow()</text>
<text text-anchor="start" x="582.89" y="-670" font-family="Helvetica,sans-Serif" font-size="10.00">+ ~Shadow()</text>
<text text-anchor="start" x="582.89" y="-659" font-family="Helvetica,sans-Serif" font-size="10.00">+ update()</text>
<text text-anchor="start" x="582.89" y="-648" font-family="Helvetica,sans-Serif" font-size="10.00">+ render()</text>
<text text-anchor="start" x="582.89" y="-637" font-family="Helvetica,sans-Serif" font-size="10.00">+ getTexture()</text>
<text text-anchor="start" x="582.89" y="-626" font-family="Helvetica,sans-Serif" font-size="10.00">+ getSpecification()</text>
<text text-anchor="start" x="582.89" y="-615" font-family="Helvetica,sans-Serif" font-size="10.00">+ setSpecification()</text>
</a>
</g>
</g>
<!-- Node8&#45;&gt;Node3 -->
<g id="edge7" class="edge">
<title>Node8&#45;&gt;Node3</title>
<path fill="none" stroke="#404040" d="M605.22,-607.82C595.46,-584.75 581.98,-559.39 564.39,-540 553.94,-528.48 546.71,-531.49 534.39,-522 534.28,-521.92 534.18,-521.84 534.08,-521.76"/>
<polygon fill="none" stroke="#404040" points="533.93,-521.64 526.75,-520.99 524.58,-514.11 531.77,-514.76 533.93,-521.64"/>
<text text-anchor="middle" x="621.39" y="-559.5" font-family="Helvetica,sans-Serif" font-size="10.00"> #m_Shadow</text>
</g>
<!-- Node9 -->
<g id="node9" class="node">
<title>Node9</title>
<g id="a_node9"><a xlink:href="class_gui_event_dispatcher.html" target="_top" xlink:title=" ">
<polygon fill="white" stroke="black" points="693.89,-602.5 693.89,-736.5 828.89,-736.5 828.89,-602.5 693.89,-602.5"/>
<text text-anchor="middle" x="761.39" y="-724.5" font-family="Helvetica,sans-Serif" font-size="10.00">GuiEventDispatcher</text>
<polyline fill="none" stroke="black" points="693.89,-717.5 828.89,-717.5 "/>
<text text-anchor="middle" x="761.39" y="-705.5" font-family="Helvetica,sans-Serif" font-size="10.00"> </text>
<polyline fill="none" stroke="black" points="693.89,-698.5 828.89,-698.5 "/>
<text text-anchor="start" x="701.89" y="-686.5" font-family="Helvetica,sans-Serif" font-size="10.00">+ ~GuiEventDispatcher()</text>
<text text-anchor="start" x="701.89" y="-675.5" font-family="Helvetica,sans-Serif" font-size="10.00">+ attachFilter()</text>
<text text-anchor="start" x="701.89" y="-664.5" font-family="Helvetica,sans-Serif" font-size="10.00">+ detachFilter()</text>
<text text-anchor="start" x="701.89" y="-653.5" font-family="Helvetica,sans-Serif" font-size="10.00">+ attachHandler()</text>
<text text-anchor="start" x="701.89" y="-642.5" font-family="Helvetica,sans-Serif" font-size="10.00">+ detachHandler()</text>
<text text-anchor="start" x="701.89" y="-631.5" font-family="Helvetica,sans-Serif" font-size="10.00">+ dispatchEvent()</text>
<text text-anchor="start" x="701.89" y="-620.5" font-family="Helvetica,sans-Serif" font-size="10.00"># dispatchCapturingEvent()</text>
<text text-anchor="start" x="701.89" y="-609.5" font-family="Helvetica,sans-Serif" font-size="10.00"># dispatchBubblingEvent()</text>
</a>
</g>
</g>
<!-- Node9&#45;&gt;Node3 -->
<g id="edge8" class="edge">
<title>Node9&#45;&gt;Node3</title>
<path fill="none" stroke="#404040" d="M721.1,-602.39C703.51,-579.02 680.82,-554.88 654.39,-540 610.51,-515.3 586.08,-541.91 535.63,-521.5"/>
<polygon fill="none" stroke="#404040" points="535.36,-521.38 528.25,-522.53 524.45,-516.4 531.57,-515.25 535.36,-521.38"/>
<text text-anchor="middle" x="740.39" y="-559.5" font-family="Helvetica,sans-Serif" font-size="10.00"> #m_Dispatcher</text>
</g>
<!-- Node10 -->
<g id="node10" class="node">
<title>Node10</title>
<g id="a_node10"><a xlink:title=" ">
<polygon fill="white" stroke="#bfbfbf" points="654.89,-795.5 654.89,-852.5 767.89,-852.5 767.89,-795.5 654.89,-795.5"/>
<text text-anchor="middle" x="711.39" y="-840.5" font-family="Helvetica,sans-Serif" font-size="10.00">Sml::EventDispatcher</text>
<polyline fill="none" stroke="#bfbfbf" points="654.89,-833.5 767.89,-833.5 "/>
<text text-anchor="middle" x="711.39" y="-821.5" font-family="Helvetica,sans-Serif" font-size="10.00"> </text>
<polyline fill="none" stroke="#bfbfbf" points="654.89,-814.5 767.89,-814.5 "/>
<text text-anchor="middle" x="711.39" y="-802.5" font-family="Helvetica,sans-Serif" font-size="10.00"> </text>
</a>
</g>
</g>
<!-- Node10&#45;&gt;Node9 -->
<g id="edge9" class="edge">
<title>Node10&#45;&gt;Node9</title>
<path fill="none" stroke="midnightblue" d="M723.65,-785.61C728.5,-770.81 734.22,-753.35 739.73,-736.56"/>
<polygon fill="none" stroke="midnightblue" points="720.23,-784.79 720.44,-795.38 726.88,-786.97 720.23,-784.79"/>
</g>
<!-- Node11 -->
<g id="node11" class="node">
<title>Node11</title>
<g id="a_node11"><a xlink:title=" ">
<polygon fill="white" stroke="#bfbfbf" points="786.39,-795.5 786.39,-852.5 834.39,-852.5 834.39,-795.5 786.39,-795.5"/>
<text text-anchor="middle" x="810.39" y="-840.5" font-family="Helvetica,sans-Serif" font-size="10.00">Notifier</text>
<polyline fill="none" stroke="#bfbfbf" points="786.39,-833.5 834.39,-833.5 "/>
<text text-anchor="middle" x="810.39" y="-821.5" font-family="Helvetica,sans-Serif" font-size="10.00"> </text>
<polyline fill="none" stroke="#bfbfbf" points="786.39,-814.5 834.39,-814.5 "/>
<text text-anchor="middle" x="810.39" y="-802.5" font-family="Helvetica,sans-Serif" font-size="10.00"> </text>
</a>
</g>
</g>
<!-- Node11&#45;&gt;Node9 -->
<g id="edge10" class="edge">
<title>Node11&#45;&gt;Node9</title>
<path fill="none" stroke="#404040" d="M801.51,-795.38C797.21,-781.99 791.8,-765.17 786.37,-748.25"/>
<polygon fill="none" stroke="#404040" points="786.28,-747.98 780.64,-743.49 782.61,-736.56 788.26,-741.05 786.28,-747.98"/>
<text text-anchor="middle" x="839.39" y="-769" font-family="Helvetica,sans-Serif" font-size="10.00"> #m_FiltersNotifier</text>
<text text-anchor="middle" x="839.39" y="-758" font-family="Helvetica,sans-Serif" font-size="10.00">#m_HandlersNotifier</text>
</g>
<!-- Node12&#45;&gt;Node3 -->
<g id="edge11" class="edge">
<title>Node12&#45;&gt;Node3</title>
<path fill="none" stroke="#404040" d="M458.14,-613.36C458.47,-589.24 458.87,-560.42 459.24,-533.74"/>
<polygon fill="none" stroke="#404040" points="459.24,-533.66 455.32,-527.6 459.4,-521.66 463.32,-527.71 459.24,-533.66"/>
<text text-anchor="middle" x="483.39" y="-559.5" font-family="Helvetica,sans-Serif" font-size="10.00"> #m_Scene</text>
</g>
<!-- Node13&#45;&gt;Node3 -->
<g id="edge13" class="edge">
<title>Node13&#45;&gt;Node3</title>
<path fill="none" stroke="#404040" d="M452.48,-328.74C452.69,-338.61 452.98,-348.52 453.39,-358 453.47,-360.05 453.57,-362.12 453.68,-364.2"/>
<polygon fill="none" stroke="#404040" points="453.68,-364.32 458.02,-370.09 454.36,-376.3 450.03,-370.54 453.68,-364.32"/>
<text text-anchor="middle" x="478.89" y="-350" font-family="Helvetica,sans-Serif" font-size="10.00"> #m_Parent</text>
</g>
<!-- Node14 -->
<g id="node14" class="node">
<title>Node14</title>
<g id="a_node14"><a xlink:title=" ">
<polygon fill="white" stroke="#bfbfbf" points="542.89,-420.5 542.89,-477.5 577.89,-477.5 577.89,-420.5 542.89,-420.5"/>
<text text-anchor="middle" x="560.39" y="-465.5" font-family="Helvetica,sans-Serif" font-size="10.00">list&lt;</text>
<polyline fill="none" stroke="#bfbfbf" points="542.89,-458.5 577.89,-458.5 "/>
<text text-anchor="middle" x="560.39" y="-446.5" font-family="Helvetica,sans-Serif" font-size="10.00"> </text>
<polyline fill="none" stroke="#bfbfbf" points="542.89,-439.5 577.89,-439.5 "/>
<text text-anchor="middle" x="560.39" y="-427.5" font-family="Helvetica,sans-Serif" font-size="10.00"> </text>
</a>
</g>
</g>
<!-- Node14&#45;&gt;Node13 -->
<g id="edge15" class="edge">
<title>Node14&#45;&gt;Node13</title>
<path fill="none" stroke="#404040" d="M551.27,-420.16C546.49,-406.6 540.22,-390.19 533.39,-376 527.55,-363.87 520.97,-351.41 514.14,-339.19"/>
<polygon fill="none" stroke="#404040" points="514.02,-338.97 507.58,-335.72 508.1,-328.53 514.54,-331.77 514.02,-338.97"/>
<text text-anchor="middle" x="552.39" y="-350" font-family="Helvetica,sans-Serif" font-size="10.00"> #m_Children</text>
</g>
<!-- Node15 -->
<g id="node15" class="node">
<title>Node15</title>
<g id="a_node15"><a xlink:title=" ">
<polygon fill="white" stroke="#bfbfbf" points="604.39,-420.5 604.39,-477.5 660.39,-477.5 660.39,-420.5 604.39,-420.5"/>
<text text-anchor="middle" x="632.39" y="-465.5" font-family="Helvetica,sans-Serif" font-size="10.00">Texture *</text>
<polyline fill="none" stroke="#bfbfbf" points="604.39,-458.5 660.39,-458.5 "/>
<text text-anchor="middle" x="632.39" y="-446.5" font-family="Helvetica,sans-Serif" font-size="10.00"> </text>
<polyline fill="none" stroke="#bfbfbf" points="604.39,-439.5 660.39,-439.5 "/>
<text text-anchor="middle" x="632.39" y="-427.5" font-family="Helvetica,sans-Serif" font-size="10.00"> </text>
</a>
</g>
</g>
<!-- Node15&#45;&gt;Node13 -->
<g id="edge16" class="edge">
<title>Node15&#45;&gt;Node13</title>
<path fill="none" stroke="#404040" d="M623.47,-420.38C615.66,-398.94 602.82,-369.21 585.39,-347 571.08,-328.77 553.07,-311.73 534.97,-296.85"/>
<polygon fill="none" stroke="#404040" points="534.87,-296.77 527.69,-296.14 525.51,-289.27 532.69,-289.9 534.87,-296.77"/>
<text text-anchor="middle" x="624.39" y="-350" font-family="Helvetica,sans-Serif" font-size="10.00"> #m_Snapshot</text>
</g>
<!-- Node16 -->
<g id="node16" class="node">
<title>Node16</title>
<g id="a_node16"><a xlink:href="class_sgl_1_1_background.html" target="_top" xlink:title=" ">
<polygon fill="white" stroke="black" points="725.89,-387.5 725.89,-510.5 814.89,-510.5 814.89,-387.5 725.89,-387.5"/>
<text text-anchor="middle" x="770.39" y="-498.5" font-family="Helvetica,sans-Serif" font-size="10.00">Sgl::Background</text>
<polyline fill="none" stroke="black" points="725.89,-491.5 814.89,-491.5 "/>
<text text-anchor="middle" x="770.39" y="-479.5" font-family="Helvetica,sans-Serif" font-size="10.00"> </text>
<polyline fill="none" stroke="black" points="725.89,-472.5 814.89,-472.5 "/>
<text text-anchor="start" x="733.89" y="-460.5" font-family="Helvetica,sans-Serif" font-size="10.00">+ Background()</text>
<text text-anchor="start" x="733.89" y="-449.5" font-family="Helvetica,sans-Serif" font-size="10.00">+ Background()</text>
<text text-anchor="start" x="733.89" y="-438.5" font-family="Helvetica,sans-Serif" font-size="10.00">+ Background()</text>
<text text-anchor="start" x="733.89" y="-427.5" font-family="Helvetica,sans-Serif" font-size="10.00">+ Background()</text>
<text text-anchor="start" x="733.89" y="-416.5" font-family="Helvetica,sans-Serif" font-size="10.00">+ addFill()</text>
<text text-anchor="start" x="733.89" y="-405.5" font-family="Helvetica,sans-Serif" font-size="10.00">and 5 more...</text>
<text text-anchor="start" x="733.89" y="-394.5" font-family="Helvetica,sans-Serif" font-size="10.00">+ fillArea()</text>
</a>
</g>
</g>
<!-- Node16&#45;&gt;Node2 -->
<g id="edge26" class="edge">
<title>Node16&#45;&gt;Node2</title>
<path fill="none" stroke="#404040" d="M795.87,-387.25C802.31,-373.69 809.63,-359.6 817.39,-347 827.66,-330.31 840.13,-313.21 852.28,-297.74"/>
<polygon fill="none" stroke="#404040" points="852.31,-297.72 852.92,-290.53 859.79,-288.34 859.17,-295.52 852.31,-297.72"/>
<text text-anchor="middle" x="854.39" y="-350" font-family="Helvetica,sans-Serif" font-size="10.00"> #m_Background</text>
</g>
<!-- Node16&#45;&gt;Node13 -->
<g id="edge18" class="edge">
<title>Node16&#45;&gt;Node13</title>
<path fill="none" stroke="#404040" d="M725.65,-401.8C706.54,-383.47 683.37,-362.99 660.39,-347 621.81,-320.16 575.56,-295.8 536.48,-277.18"/>
<polygon fill="none" stroke="#404040" points="536.25,-277.07 529.11,-278.13 525.39,-271.95 532.52,-270.89 536.25,-277.07"/>
<text text-anchor="middle" x="710.39" y="-350" font-family="Helvetica,sans-Serif" font-size="10.00"> #m_Background</text>
</g>
<!-- Node17 -->
<g id="node17" class="node">
<title>Node17</title>
<g id="a_node17"><a xlink:href="class_sgl_1_1_border.html" target="_top" xlink:title=" ">
<polygon fill="white" stroke="black" points="906.39,-393 906.39,-505 996.39,-505 996.39,-393 906.39,-393"/>
<text text-anchor="middle" x="951.39" y="-493" font-family="Helvetica,sans-Serif" font-size="10.00">Sgl::Border</text>
<polyline fill="none" stroke="black" points="906.39,-486 996.39,-486 "/>
<text text-anchor="middle" x="951.39" y="-474" font-family="Helvetica,sans-Serif" font-size="10.00"> </text>
<polyline fill="none" stroke="black" points="906.39,-467 996.39,-467 "/>
<text text-anchor="start" x="914.39" y="-455" font-family="Helvetica,sans-Serif" font-size="10.00">+ Border()</text>
<text text-anchor="start" x="914.39" y="-444" font-family="Helvetica,sans-Serif" font-size="10.00">+ Border()</text>
<text text-anchor="start" x="914.39" y="-433" font-family="Helvetica,sans-Serif" font-size="10.00">+ Border()</text>
<text text-anchor="start" x="914.39" y="-422" font-family="Helvetica,sans-Serif" font-size="10.00">+ getThickness()</text>
<text text-anchor="start" x="914.39" y="-411" font-family="Helvetica,sans-Serif" font-size="10.00">+ getColor()</text>
<text text-anchor="start" x="914.39" y="-400" font-family="Helvetica,sans-Serif" font-size="10.00">+ encloseArea()</text>
</a>
</g>
</g>
<!-- Node17&#45;&gt;Node2 -->
<g id="edge27" class="edge">
<title>Node17&#45;&gt;Node2</title>
<path fill="none" stroke="#404040" d="M967.09,-392.94C969.21,-377.88 969.46,-361.67 965.39,-347 961.54,-333.12 955.34,-319.23 948.28,-306.28"/>
<polygon fill="none" stroke="#404040" points="948.15,-306.05 941.69,-302.84 942.18,-295.65 948.63,-298.86 948.15,-306.05"/>
<text text-anchor="middle" x="992.89" y="-350" font-family="Helvetica,sans-Serif" font-size="10.00"> #m_Border</text>
</g>
<!-- Node17&#45;&gt;Node13 -->
<g id="edge19" class="edge">
<title>Node17&#45;&gt;Node13</title>
<path fill="none" stroke="#404040" d="M928.97,-392.86C919.64,-375.93 907.22,-358.7 891.39,-347 862.99,-326.02 657.35,-281.86 537.85,-257.51"/>
<polygon fill="none" stroke="#404040" points="537.61,-257.47 530.94,-260.19 525.85,-255.08 532.53,-252.35 537.61,-257.47"/>
<text text-anchor="middle" x="927.89" y="-350" font-family="Helvetica,sans-Serif" font-size="10.00"> #m_Border</text>
</g>
<!-- Node18&#45;&gt;Node13 -->
<g id="edge20" class="edge">
<title>Node18&#45;&gt;Node13</title>
<path fill="none" stroke="#404040" d="M171.34,-392.87C181.61,-376.54 194.44,-359.65 209.39,-347 255.37,-308.07 317.81,-281.12 367.88,-264.07"/>
<polygon fill="none" stroke="#404040" points="367.95,-264.04 372.39,-258.35 379.34,-260.26 374.91,-265.95 367.95,-264.04"/>
<text text-anchor="middle" x="238.39" y="-350" font-family="Helvetica,sans-Serif" font-size="10.00"> #m_Padding</text>
</g>
<!-- Node18&#45;&gt;Node18 -->
<g id="edge21" class="edge">
<title>Node18&#45;&gt;Node18</title>
<path fill="none" stroke="#404040" d="M182.89,-466.81C193.15,-465.72 200.89,-459.78 200.89,-449 200.89,-442.94 198.44,-438.4 194.47,-435.4"/>
<polygon fill="none" stroke="#404040" points="194.17,-435.29 187.16,-437 182.89,-431.19 189.9,-429.48 194.17,-435.29"/>
<text text-anchor="middle" x="222.89" y="-446.5" font-family="Helvetica,sans-Serif" font-size="10.00"> +EMPTY</text>
</g>
<!-- Node19 -->
<g id="node19" class="node">
<title>Node19</title>
<g id="a_node19"><a xlink:title=" ">
<polygon fill="white" stroke="#bfbfbf" points="846.89,-641 846.89,-698 913.89,-698 913.89,-641 846.89,-641"/>
<text text-anchor="middle" x="880.39" y="-686" font-family="Helvetica,sans-Serif" font-size="10.00">Rectangle&lt;</text>
<polyline fill="none" stroke="#bfbfbf" points="846.89,-679 913.89,-679 "/>
<text text-anchor="middle" x="880.39" y="-667" font-family="Helvetica,sans-Serif" font-size="10.00"> </text>
<polyline fill="none" stroke="#bfbfbf" points="846.89,-660 913.89,-660 "/>
<text text-anchor="middle" x="880.39" y="-648" font-family="Helvetica,sans-Serif" font-size="10.00"> </text>
</a>
</g>
</g>
<!-- Node19&#45;&gt;Node3 -->
<g id="edge24" class="edge">
<title>Node19&#45;&gt;Node3</title>
<path fill="none" stroke="#404040" d="M868.2,-640.89C852.69,-609.64 822.61,-560.44 779.39,-540 684.16,-494.96 637.32,-561.76 536.06,-521.81"/>
<polygon fill="none" stroke="#404040" points="535.81,-521.7 528.72,-523.03 524.77,-517 531.85,-515.67 535.81,-521.7"/>
<text text-anchor="middle" x="871.89" y="-559.5" font-family="Helvetica,sans-Serif" font-size="10.00"> #m_LayoutBounds</text>
</g>
<!-- Node20 -->
<g id="node20" class="node">
<title>Node20</title>
<g id="a_node20"><a xlink:title=" ">
<polygon fill="white" stroke="#bfbfbf" points="1041.39,-420.5 1041.39,-477.5 1081.39,-477.5 1081.39,-420.5 1041.39,-420.5"/>
<text text-anchor="middle" x="1061.39" y="-465.5" font-family="Helvetica,sans-Serif" font-size="10.00">Color</text>
<polyline fill="none" stroke="#bfbfbf" points="1041.39,-458.5 1081.39,-458.5 "/>
<text text-anchor="middle" x="1061.39" y="-446.5" font-family="Helvetica,sans-Serif" font-size="10.00"> </text>
<polyline fill="none" stroke="#bfbfbf" points="1041.39,-439.5 1081.39,-439.5 "/>
<text text-anchor="middle" x="1061.39" y="-427.5" font-family="Helvetica,sans-Serif" font-size="10.00"> </text>
</a>
</g>
</g>
<!-- Node20&#45;&gt;Node2 -->
<g id="edge25" class="edge">
<title>Node20&#45;&gt;Node2</title>
<path fill="none" stroke="#404040" d="M1054.54,-420.11C1048.41,-398.79 1037.97,-369.36 1022.39,-347 1003.54,-319.96 976.42,-295.26 952.64,-276.47"/>
<polygon fill="none" stroke="#404040" points="952.52,-276.38 945.33,-275.88 943.02,-269.05 950.22,-269.55 952.52,-276.38"/>
<text text-anchor="middle" x="1057.39" y="-350" font-family="Helvetica,sans-Serif" font-size="10.00"> #m_FillColor</text>
</g>
</g>
</svg>
        <g id="navigator" transform="translate(0 0)" fill="#404254">
                <rect fill="#f2f5e9" fill-opacity="0.5" stroke="#606060" stroke-width=".5" x="0" y="0" width="60" height="60"/>
                <use id="zoomplus" xlink:href="#zoomPlus" x="17" y="9" onmousedown="handleZoom(evt,'in')"/>
                <use id="zoomminus" xlink:href="#zoomMin" x="42" y="9" onmousedown="handleZoom(evt,'out')"/>
                <use id="reset" xlink:href="#resetDef" x="30" y="36" onmousedown="handleReset()"/>
                <g id="arrowUp" xlink:href="#dirArrow" transform="translate(30 24)" onmousedown="handlePan(0,-1)">
                  <use xlink:href="#rim" fill="#404040">
                        <set attributeName="fill" to="#808080" begin="arrowUp.mouseover" end="arrowUp.mouseout"/>
                  </use>
                  <path fill="none" stroke="white" stroke-width="1.5" d="M0,-3.0v7 M-2.5,-0.5L0,-3.0L2.5,-0.5"/>
                </g>
                <g id="arrowRight" xlink:href="#dirArrow" transform="rotate(90) translate(36 -43)" onmousedown="handlePan(1,0)">
                  <use xlink:href="#rim" fill="#404040">
                        <set attributeName="fill" to="#808080" begin="arrowRight.mouseover" end="arrowRight.mouseout"/>
                  </use>
                  <path fill="none" stroke="white" stroke-width="1.5" d="M0,-3.0v7 M-2.5,-0.5L0,-3.0L2.5,-0.5"/>
                </g>
                <g id="arrowDown" xlink:href="#dirArrow" transform="rotate(180) translate(-30 -48)" onmousedown="handlePan(0,1)">
                  <use xlink:href="#rim" fill="#404040">
                        <set attributeName="fill" to="#808080" begin="arrowDown.mouseover" end="arrowDown.mouseout"/>
                  </use>
                  <path fill="none" stroke="white" stroke-width="1.5" d="M0,-3.0v7 M-2.5,-0.5L0,-3.0L2.5,-0.5"/>
                </g>
                <g id="arrowLeft" xlink:href="#dirArrow" transform="rotate(270) translate(-36 17)" onmousedown="handlePan(-1,0)">
                  <use xlink:href="#rim" fill="#404040">
                        <set attributeName="fill" to="#808080" begin="arrowLeft.mouseover" end="arrowLeft.mouseout"/>
                  </use>
                  <path fill="none" stroke="white" stroke-width="1.5" d="M0,-3.0v7 M-2.5,-0.5L0,-3.0L2.5,-0.5"/>
                </g>
        </g>
        <svg viewBox="0 0 15 15" width="100%" height="30px" preserveAspectRatio="xMaxYMin meet">
         <g id="arrow_out" transform="scale(0.3 0.3)">
          <a xlink:href="class_sgl_1_1_text__coll__graph_org.svg" target="_base">
           <rect id="button" ry="5" rx="5" y="6" x="6" height="38" width="38"
                fill="#f2f5e9" fill-opacity="0.5" stroke="#606060" stroke-width="1.0"/>
           <path id="arrow"
             d="M 11.500037,31.436501 C 11.940474,20.09759 22.043105,11.32322 32.158766,21.979434 L 37.068811,17.246167 C 37.068811,17.246167 37.088388,32 37.088388,32 L 22.160133,31.978069 C 22.160133,31.978069 26.997745,27.140456 26.997745,27.140456 C 18.528582,18.264221 13.291696,25.230495 11.500037,31.436501 z"
             style="fill:#404040;"/>
          </a>
         </g>
        </svg>
</svg>
