<?xml version="1.0" encoding="UTF-8" standalone="no"?>
<!DOCTYPE svg PUBLIC "-//W3C//DTD SVG 1.1//EN"
 "http://www.w3.org/Graphics/SVG/1.1/DTD/svg11.dtd">
<!-- Generated by graphviz version 2.50.0 (20211204.2007)
 -->
<!-- Title: Sgl::ImageView Pages: 1 -->
<svg width="1352pt" height="711pt"
 viewBox="0.00 0.00 1352.00 711.00" xmlns="http://www.w3.org/2000/svg" xmlns:xlink="http://www.w3.org/1999/xlink">
<g id="graph0" class="graph" transform="scale(1 1) rotate(0) translate(4 707)">
<title>Sgl::ImageView</title>
<polygon fill="white" stroke="transparent" points="-4,4 -4,-707 1348,-707 1348,4 -4,4"/>
<!-- Node1 -->
<g id="node1" class="node">
<title>Node1</title>
<g id="a_node1"><a xlink:title=" ">
<polygon fill="#bfbfbf" stroke="black" points="339,-33.5 339,-145.5 447,-145.5 447,-33.5 339,-33.5"/>
<text text-anchor="middle" x="393" y="-133.5" font-family="Helvetica,sans-Serif" font-size="10.00">Sgl::ImageView</text>
<polyline fill="none" stroke="black" points="339,-126.5 447,-126.5 "/>
<text text-anchor="middle" x="393" y="-114.5" font-family="Helvetica,sans-Serif" font-size="10.00"> </text>
<polyline fill="none" stroke="black" points="339,-107.5 447,-107.5 "/>
<text text-anchor="start" x="347" y="-95.5" font-family="Helvetica,sans-Serif" font-size="10.00">+ ImageView()</text>
<text text-anchor="start" x="347" y="-84.5" font-family="Helvetica,sans-Serif" font-size="10.00">+ ~ImageView()</text>
<text text-anchor="start" x="347" y="-73.5" font-family="Helvetica,sans-Serif" font-size="10.00">+ getHitComponent()</text>
<text text-anchor="start" x="347" y="-62.5" font-family="Helvetica,sans-Serif" font-size="10.00">+ render()</text>
<text text-anchor="start" x="347" y="-51.5" font-family="Helvetica,sans-Serif" font-size="10.00">+ layout()</text>
<text text-anchor="start" x="347" y="-40.5" font-family="Helvetica,sans-Serif" font-size="10.00">and 17 more...</text>
</a>
</g>
</g>
<!-- Node2 -->
<g id="node2" class="node">
<title>Node2</title>
<g id="a_node2"><a xlink:href="class_sgl_1_1_component.html" target="_top" xlink:title=" ">
<polygon fill="white" stroke="black" points="329,-226.5 329,-371.5 457,-371.5 457,-226.5 329,-226.5"/>
<text text-anchor="middle" x="393" y="-359.5" font-family="Helvetica,sans-Serif" font-size="10.00">Sgl::Component</text>
<polyline fill="none" stroke="black" points="329,-352.5 457,-352.5 "/>
<text text-anchor="middle" x="393" y="-340.5" font-family="Helvetica,sans-Serif" font-size="10.00"> </text>
<polyline fill="none" stroke="black" points="329,-333.5 457,-333.5 "/>
<text text-anchor="start" x="337" y="-321.5" font-family="Helvetica,sans-Serif" font-size="10.00">+ Component()</text>
<text text-anchor="start" x="337" y="-310.5" font-family="Helvetica,sans-Serif" font-size="10.00">+ ~Component()</text>
<text text-anchor="start" x="337" y="-299.5" font-family="Helvetica,sans-Serif" font-size="10.00">+ getHitComponent()</text>
<text text-anchor="start" x="337" y="-288.5" font-family="Helvetica,sans-Serif" font-size="10.00">+ render()</text>
<text text-anchor="start" x="337" y="-277.5" font-family="Helvetica,sans-Serif" font-size="10.00">+ layout()</text>
<text text-anchor="start" x="337" y="-266.5" font-family="Helvetica,sans-Serif" font-size="10.00">and 37 more...</text>
<text text-anchor="start" x="337" y="-255.5" font-family="Helvetica,sans-Serif" font-size="10.00"># updateShadow()</text>
<text text-anchor="start" x="337" y="-244.5" font-family="Helvetica,sans-Serif" font-size="10.00"># renderShadow()</text>
<text text-anchor="start" x="337" y="-233.5" font-family="Helvetica,sans-Serif" font-size="10.00"># setSceneInSceneTree()</text>
</a>
</g>
</g>
<!-- Node2&#45;&gt;Node1 -->
<g id="edge1" class="edge">
<title>Node2&#45;&gt;Node1</title>
<path fill="none" stroke="midnightblue" d="M393,-216.29C393,-192.66 393,-167.44 393,-145.83"/>
<polygon fill="none" stroke="midnightblue" points="389.5,-216.3 393,-226.3 396.5,-216.3 389.5,-216.3"/>
</g>
<!-- Node12 -->
<g id="node12" class="node">
<title>Node12</title>
<g id="a_node12"><a xlink:href="class_sgl_1_1_parent.html" target="_top" xlink:title=" ">
<polygon fill="white" stroke="black" points="826,-0.5 826,-178.5 972,-178.5 972,-0.5 826,-0.5"/>
<text text-anchor="middle" x="899" y="-166.5" font-family="Helvetica,sans-Serif" font-size="10.00">Sgl::Parent</text>
<polyline fill="none" stroke="black" points="826,-159.5 972,-159.5 "/>
<text text-anchor="middle" x="899" y="-147.5" font-family="Helvetica,sans-Serif" font-size="10.00"> </text>
<polyline fill="none" stroke="black" points="826,-140.5 972,-140.5 "/>
<text text-anchor="start" x="834" y="-128.5" font-family="Helvetica,sans-Serif" font-size="10.00">+ Parent()</text>
<text text-anchor="start" x="834" y="-117.5" font-family="Helvetica,sans-Serif" font-size="10.00">+ ~Parent()</text>
<text text-anchor="start" x="834" y="-106.5" font-family="Helvetica,sans-Serif" font-size="10.00">+ getHitComponent()</text>
<text text-anchor="start" x="834" y="-95.5" font-family="Helvetica,sans-Serif" font-size="10.00">+ render()</text>
<text text-anchor="start" x="834" y="-84.5" font-family="Helvetica,sans-Serif" font-size="10.00">+ layout()</text>
<text text-anchor="start" x="834" y="-73.5" font-family="Helvetica,sans-Serif" font-size="10.00">and 38 more...</text>
<text text-anchor="start" x="834" y="-62.5" font-family="Helvetica,sans-Serif" font-size="10.00"># setSceneInSceneTree()</text>
<text text-anchor="start" x="834" y="-51.5" font-family="Helvetica,sans-Serif" font-size="10.00"># layoutChildren()</text>
<text text-anchor="start" x="834" y="-40.5" font-family="Helvetica,sans-Serif" font-size="10.00"># prerenderSelf()</text>
<text text-anchor="start" x="834" y="-29.5" font-family="Helvetica,sans-Serif" font-size="10.00"># updateSnapshotSize()</text>
<text text-anchor="start" x="834" y="-18.5" font-family="Helvetica,sans-Serif" font-size="10.00"># computeCustomPrefWidth()</text>
<text text-anchor="start" x="834" y="-7.5" font-family="Helvetica,sans-Serif" font-size="10.00">and 5 more...</text>
</a>
</g>
</g>
<!-- Node2&#45;&gt;Node12 -->
<g id="edge13" class="edge">
<title>Node2&#45;&gt;Node12</title>
<path fill="none" stroke="midnightblue" d="M465.45,-239.03C486.64,-223.78 510.45,-208.45 534,-197 629.87,-150.37 750.04,-120.19 825.7,-104.26"/>
<polygon fill="none" stroke="midnightblue" points="463.16,-236.36 457.15,-245.08 467.29,-242.01 463.16,-236.36"/>
</g>
<!-- Node3 -->
<g id="node3" class="node">
<title>Node3</title>
<g id="a_node3"><a xlink:title=" ">
<polygon fill="white" stroke="#bfbfbf" points="0,-645.5 0,-702.5 92,-702.5 92,-645.5 0,-645.5"/>
<text text-anchor="middle" x="46" y="-690.5" font-family="Helvetica,sans-Serif" font-size="10.00">Sml::EventTarget</text>
<polyline fill="none" stroke="#bfbfbf" points="0,-683.5 92,-683.5 "/>
<text text-anchor="middle" x="46" y="-671.5" font-family="Helvetica,sans-Serif" font-size="10.00"> </text>
<polyline fill="none" stroke="#bfbfbf" points="0,-664.5 92,-664.5 "/>
<text text-anchor="middle" x="46" y="-652.5" font-family="Helvetica,sans-Serif" font-size="10.00"> </text>
</a>
</g>
</g>
<!-- Node3&#45;&gt;Node2 -->
<g id="edge2" class="edge">
<title>Node3&#45;&gt;Node2</title>
<path fill="none" stroke="midnightblue" d="M37.85,-635.42C29.86,-589.95 22.25,-512.03 48,-452 93.86,-345.08 242.36,-313.36 328.86,-303.95"/>
<polygon fill="none" stroke="midnightblue" points="34.45,-636.24 39.71,-645.43 41.33,-634.96 34.45,-636.24"/>
</g>
<!-- Node11 -->
<g id="node11" class="node">
<title>Node11</title>
<g id="a_node11"><a xlink:href="class_sgl_1_1_scene.html" target="_top" xlink:title=" ">
<polygon fill="white" stroke="black" points="57,-463.5 57,-575.5 137,-575.5 137,-463.5 57,-463.5"/>
<text text-anchor="middle" x="97" y="-563.5" font-family="Helvetica,sans-Serif" font-size="10.00">Sgl::Scene</text>
<polyline fill="none" stroke="black" points="57,-556.5 137,-556.5 "/>
<text text-anchor="middle" x="97" y="-544.5" font-family="Helvetica,sans-Serif" font-size="10.00"> </text>
<polyline fill="none" stroke="black" points="57,-537.5 137,-537.5 "/>
<text text-anchor="start" x="65" y="-525.5" font-family="Helvetica,sans-Serif" font-size="10.00">+ Scene()</text>
<text text-anchor="start" x="65" y="-514.5" font-family="Helvetica,sans-Serif" font-size="10.00">+ Scene()</text>
<text text-anchor="start" x="65" y="-503.5" font-family="Helvetica,sans-Serif" font-size="10.00">+ ~Scene()</text>
<text text-anchor="start" x="65" y="-492.5" font-family="Helvetica,sans-Serif" font-size="10.00">+ update()</text>
<text text-anchor="start" x="65" y="-481.5" font-family="Helvetica,sans-Serif" font-size="10.00">+ render()</text>
<text text-anchor="start" x="65" y="-470.5" font-family="Helvetica,sans-Serif" font-size="10.00">and 17 more...</text>
</a>
</g>
</g>
<!-- Node3&#45;&gt;Node11 -->
<g id="edge11" class="edge">
<title>Node3&#45;&gt;Node11</title>
<path fill="none" stroke="midnightblue" d="M58.44,-635.8C64.48,-617.74 71.86,-595.68 78.54,-575.71"/>
<polygon fill="none" stroke="midnightblue" points="55.09,-634.79 55.24,-645.38 61.73,-637.01 55.09,-634.79"/>
</g>
<!-- Node4 -->
<g id="node4" class="node">
<title>Node4</title>
<g id="a_node4"><a xlink:title=" ">
<polygon fill="white" stroke="#bfbfbf" points="765,-491 765,-548 811,-548 811,-491 765,-491"/>
<text text-anchor="middle" x="788" y="-536" font-family="Helvetica,sans-Serif" font-size="10.00">int32_t</text>
<polyline fill="none" stroke="#bfbfbf" points="765,-529 811,-529 "/>
<text text-anchor="middle" x="788" y="-517" font-family="Helvetica,sans-Serif" font-size="10.00"> </text>
<polyline fill="none" stroke="#bfbfbf" points="765,-510 811,-510 "/>
<text text-anchor="middle" x="788" y="-498" font-family="Helvetica,sans-Serif" font-size="10.00"> </text>
</a>
</g>
</g>
<!-- Node4&#45;&gt;Node2 -->
<g id="edge3" class="edge">
<title>Node4&#45;&gt;Node2</title>
<path fill="none" stroke="#404040" d="M764.56,-505.57C737.34,-490.09 691.62,-462.65 656,-434 634.45,-416.67 635.02,-405.33 612,-390 567.88,-360.61 512.63,-337.99 468.66,-322.78"/>
<polygon fill="none" stroke="#404040" points="468.52,-322.73 461.56,-324.59 457.16,-318.88 464.13,-317.01 468.52,-322.73"/>
<text text-anchor="middle" x="715" y="-415" font-family="Helvetica,sans-Serif" font-size="10.00"> +UNLIMITED_SIZE</text>
<text text-anchor="middle" x="715" y="-404" font-family="Helvetica,sans-Serif" font-size="10.00">+USE_COMPUTED_SIZE</text>
</g>
<!-- Node4&#45;&gt;Node12 -->
<g id="edge22" class="edge">
<title>Node4&#45;&gt;Node12</title>
<path fill="none" stroke="#404040" d="M784.74,-490.89C777.7,-427.62 763.06,-273.93 781,-226 789.28,-203.88 802.98,-183 818.18,-164.55"/>
<polygon fill="none" stroke="#404040" points="818.19,-164.53 819.05,-157.37 825.99,-155.41 825.13,-162.57 818.19,-164.53"/>
<text text-anchor="middle" x="816" y="-324" font-family="Helvetica,sans-Serif" font-size="10.00"> #m_MaxHeight</text>
<text text-anchor="middle" x="816" y="-313" font-family="Helvetica,sans-Serif" font-size="10.00">#m_MaxWidth</text>
<text text-anchor="middle" x="816" y="-302" font-family="Helvetica,sans-Serif" font-size="10.00">#m_MinHeight</text>
<text text-anchor="middle" x="816" y="-291" font-family="Helvetica,sans-Serif" font-size="10.00">#m_MinWidth</text>
<text text-anchor="middle" x="816" y="-280" font-family="Helvetica,sans-Serif" font-size="10.00">#m_PrefHeight</text>
<text text-anchor="middle" x="816" y="-269" font-family="Helvetica,sans-Serif" font-size="10.00">#m_PrefWidth</text>
</g>
<!-- Node17 -->
<g id="node17" class="node">
<title>Node17</title>
<g id="a_node17"><a xlink:href="struct_sgl_1_1_insets.html" target="_top" xlink:title=" ">
<polygon fill="white" stroke="black" points="859.5,-243 859.5,-355 938.5,-355 938.5,-243 859.5,-243"/>
<text text-anchor="middle" x="899" y="-343" font-family="Helvetica,sans-Serif" font-size="10.00">Sgl::Insets</text>
<polyline fill="none" stroke="black" points="859.5,-336 938.5,-336 "/>
<text text-anchor="middle" x="899" y="-324" font-family="Helvetica,sans-Serif" font-size="10.00"> </text>
<polyline fill="none" stroke="black" points="859.5,-317 938.5,-317 "/>
<text text-anchor="start" x="867.5" y="-305" font-family="Helvetica,sans-Serif" font-size="10.00">+ Insets()</text>
<text text-anchor="start" x="867.5" y="-294" font-family="Helvetica,sans-Serif" font-size="10.00">+ Insets()</text>
<text text-anchor="start" x="867.5" y="-283" font-family="Helvetica,sans-Serif" font-size="10.00">+ Insets()</text>
<text text-anchor="start" x="867.5" y="-272" font-family="Helvetica,sans-Serif" font-size="10.00">+ Insets()</text>
<text text-anchor="start" x="867.5" y="-261" font-family="Helvetica,sans-Serif" font-size="10.00">+ operator+=()</text>
<text text-anchor="start" x="867.5" y="-250" font-family="Helvetica,sans-Serif" font-size="10.00">+ operator&#45;=()</text>
</a>
</g>
</g>
<!-- Node4&#45;&gt;Node17 -->
<g id="edge21" class="edge">
<title>Node4&#45;&gt;Node17</title>
<path fill="none" stroke="#404040" d="M802.06,-490.83C817.91,-459.62 844.24,-407.79 865.46,-366.02"/>
<polygon fill="none" stroke="#404040" points="865.58,-365.78 864.73,-358.62 871.02,-355.08 871.87,-362.24 865.58,-365.78"/>
<text text-anchor="middle" x="870" y="-426" font-family="Helvetica,sans-Serif" font-size="10.00"> +bottom</text>
<text text-anchor="middle" x="870" y="-415" font-family="Helvetica,sans-Serif" font-size="10.00">+left</text>
<text text-anchor="middle" x="870" y="-404" font-family="Helvetica,sans-Serif" font-size="10.00">+right</text>
<text text-anchor="middle" x="870" y="-393" font-family="Helvetica,sans-Serif" font-size="10.00">+top</text>
</g>
<!-- Node5 -->
<g id="node5" class="node">
<title>Node5</title>
<g id="a_node5"><a xlink:title=" ">
<polygon fill="white" stroke="#bfbfbf" points="155.5,-491 155.5,-548 196.5,-548 196.5,-491 155.5,-491"/>
<text text-anchor="middle" x="176" y="-536" font-family="Helvetica,sans-Serif" font-size="10.00">friend</text>
<polyline fill="none" stroke="#bfbfbf" points="155.5,-529 196.5,-529 "/>
<text text-anchor="middle" x="176" y="-517" font-family="Helvetica,sans-Serif" font-size="10.00"> </text>
<polyline fill="none" stroke="#bfbfbf" points="155.5,-510 196.5,-510 "/>
<text text-anchor="middle" x="176" y="-498" font-family="Helvetica,sans-Serif" font-size="10.00"> </text>
</a>
</g>
</g>
<!-- Node5&#45;&gt;Node2 -->
<g id="edge4" class="edge">
<title>Node5&#45;&gt;Node2</title>
<path fill="none" stroke="#404040" d="M180.63,-490.99C186.61,-462.78 199.45,-419.04 225,-390 249.74,-361.89 285.43,-341.05 317.56,-326.54"/>
<polygon fill="none" stroke="#404040" points="317.75,-326.46 321.65,-320.39 328.75,-321.67 324.84,-327.73 317.75,-326.46"/>
<text text-anchor="middle" x="243.5" y="-409.5" font-family="Helvetica,sans-Serif" font-size="10.00"> +Scene</text>
</g>
<!-- Node6 -->
<g id="node6" class="node">
<title>Node6</title>
<g id="a_node6"><a xlink:title=" ">
<polygon fill="white" stroke="#bfbfbf" points="588.5,-491 588.5,-548 623.5,-548 623.5,-491 588.5,-491"/>
<text text-anchor="middle" x="606" y="-536" font-family="Helvetica,sans-Serif" font-size="10.00">bool</text>
<polyline fill="none" stroke="#bfbfbf" points="588.5,-529 623.5,-529 "/>
<text text-anchor="middle" x="606" y="-517" font-family="Helvetica,sans-Serif" font-size="10.00"> </text>
<polyline fill="none" stroke="#bfbfbf" points="588.5,-510 623.5,-510 "/>
<text text-anchor="middle" x="606" y="-498" font-family="Helvetica,sans-Serif" font-size="10.00"> </text>
</a>
</g>
</g>
<!-- Node6&#45;&gt;Node2 -->
<g id="edge5" class="edge">
<title>Node6&#45;&gt;Node2</title>
<path fill="none" stroke="#404040" d="M589.15,-490.82C581.5,-478.68 572.13,-464.4 563,-452 556.83,-443.61 553.78,-442.66 548,-434 535.76,-415.64 539.67,-406.49 525,-390 508.6,-371.56 487.65,-355.07 467.31,-341.4"/>
<polygon fill="none" stroke="#404040" points="467.12,-341.27 459.91,-341.34 457.07,-334.71 464.28,-334.64 467.12,-341.27"/>
<text text-anchor="middle" x="578" y="-420.5" font-family="Helvetica,sans-Serif" font-size="10.00"> #m_Focused</text>
<text text-anchor="middle" x="578" y="-409.5" font-family="Helvetica,sans-Serif" font-size="10.00">#m_Hovered</text>
<text text-anchor="middle" x="578" y="-398.5" font-family="Helvetica,sans-Serif" font-size="10.00">#m_Visible</text>
</g>
<!-- Node6&#45;&gt;Node12 -->
<g id="edge16" class="edge">
<title>Node6&#45;&gt;Node12</title>
<path fill="none" stroke="#404040" d="M609.34,-490.63C617.53,-426.07 640.19,-268.56 671,-226 706.45,-177.04 765.49,-142.66 814.62,-120.78"/>
<polygon fill="none" stroke="#404040" points="814.89,-120.67 818.8,-114.61 825.9,-115.9 821.98,-121.95 814.89,-120.67"/>
<text text-anchor="middle" x="719.5" y="-296.5" font-family="Helvetica,sans-Serif" font-size="10.00"> #m_NeedLayoutPass</text>
</g>
<!-- Node7 -->
<g id="node7" class="node">
<title>Node7</title>
<g id="a_node7"><a xlink:href="class_sgl_1_1_shadow.html" target="_top" xlink:title=" ">
<polygon fill="white" stroke="black" points="214.5,-458 214.5,-581 315.5,-581 315.5,-458 214.5,-458"/>
<text text-anchor="middle" x="265" y="-569" font-family="Helvetica,sans-Serif" font-size="10.00">Sgl::Shadow</text>
<polyline fill="none" stroke="black" points="214.5,-562 315.5,-562 "/>
<text text-anchor="middle" x="265" y="-550" font-family="Helvetica,sans-Serif" font-size="10.00"> </text>
<polyline fill="none" stroke="black" points="214.5,-543 315.5,-543 "/>
<text text-anchor="start" x="222.5" y="-531" font-family="Helvetica,sans-Serif" font-size="10.00">+ Shadow()</text>
<text text-anchor="start" x="222.5" y="-520" font-family="Helvetica,sans-Serif" font-size="10.00">+ ~Shadow()</text>
<text text-anchor="start" x="222.5" y="-509" font-family="Helvetica,sans-Serif" font-size="10.00">+ update()</text>
<text text-anchor="start" x="222.5" y="-498" font-family="Helvetica,sans-Serif" font-size="10.00">+ render()</text>
<text text-anchor="start" x="222.5" y="-487" font-family="Helvetica,sans-Serif" font-size="10.00">+ getTexture()</text>
<text text-anchor="start" x="222.5" y="-476" font-family="Helvetica,sans-Serif" font-size="10.00">+ getSpecification()</text>
<text text-anchor="start" x="222.5" y="-465" font-family="Helvetica,sans-Serif" font-size="10.00">+ setSpecification()</text>
</a>
</g>
</g>
<!-- Node7&#45;&gt;Node2 -->
<g id="edge6" class="edge">
<title>Node7&#45;&gt;Node2</title>
<path fill="none" stroke="#404040" d="M263.18,-457.99C264.83,-435.45 269.61,-410.42 281,-390 290.46,-373.04 304.52,-358.08 319.51,-345.46"/>
<polygon fill="none" stroke="#404040" points="319.57,-345.41 321.75,-338.54 328.94,-337.91 326.76,-344.78 319.57,-345.41"/>
<text text-anchor="middle" x="310" y="-409.5" font-family="Helvetica,sans-Serif" font-size="10.00"> #m_Shadow</text>
</g>
<!-- Node8 -->
<g id="node8" class="node">
<title>Node8</title>
<g id="a_node8"><a xlink:href="class_gui_event_dispatcher.html" target="_top" xlink:title=" ">
<polygon fill="white" stroke="black" points="333.5,-452.5 333.5,-586.5 468.5,-586.5 468.5,-452.5 333.5,-452.5"/>
<text text-anchor="middle" x="401" y="-574.5" font-family="Helvetica,sans-Serif" font-size="10.00">GuiEventDispatcher</text>
<polyline fill="none" stroke="black" points="333.5,-567.5 468.5,-567.5 "/>
<text text-anchor="middle" x="401" y="-555.5" font-family="Helvetica,sans-Serif" font-size="10.00"> </text>
<polyline fill="none" stroke="black" points="333.5,-548.5 468.5,-548.5 "/>
<text text-anchor="start" x="341.5" y="-536.5" font-family="Helvetica,sans-Serif" font-size="10.00">+ ~GuiEventDispatcher()</text>
<text text-anchor="start" x="341.5" y="-525.5" font-family="Helvetica,sans-Serif" font-size="10.00">+ attachFilter()</text>
<text text-anchor="start" x="341.5" y="-514.5" font-family="Helvetica,sans-Serif" font-size="10.00">+ detachFilter()</text>
<text text-anchor="start" x="341.5" y="-503.5" font-family="Helvetica,sans-Serif" font-size="10.00">+ attachHandler()</text>
<text text-anchor="start" x="341.5" y="-492.5" font-family="Helvetica,sans-Serif" font-size="10.00">+ detachHandler()</text>
<text text-anchor="start" x="341.5" y="-481.5" font-family="Helvetica,sans-Serif" font-size="10.00">+ dispatchEvent()</text>
<text text-anchor="start" x="341.5" y="-470.5" font-family="Helvetica,sans-Serif" font-size="10.00"># dispatchCapturingEvent()</text>
<text text-anchor="start" x="341.5" y="-459.5" font-family="Helvetica,sans-Serif" font-size="10.00"># dispatchBubblingEvent()</text>
</a>
</g>
</g>
<!-- Node8&#45;&gt;Node2 -->
<g id="edge7" class="edge">
<title>Node8&#45;&gt;Node2</title>
<path fill="none" stroke="#404040" d="M354.03,-452.36C351.22,-446.34 348.81,-440.18 347,-434 342.2,-417.57 343.41,-400.16 347.72,-383.53"/>
<polygon fill="none" stroke="#404040" points="347.86,-383.06 345.78,-376.16 351.36,-371.58 353.43,-378.49 347.86,-383.06"/>
<text text-anchor="middle" x="382" y="-409.5" font-family="Helvetica,sans-Serif" font-size="10.00"> #m_Dispatcher</text>
</g>
<!-- Node9 -->
<g id="node9" class="node">
<title>Node9</title>
<g id="a_node9"><a xlink:title=" ">
<polygon fill="white" stroke="#bfbfbf" points="294.5,-645.5 294.5,-702.5 407.5,-702.5 407.5,-645.5 294.5,-645.5"/>
<text text-anchor="middle" x="351" y="-690.5" font-family="Helvetica,sans-Serif" font-size="10.00">Sml::EventDispatcher</text>
<polyline fill="none" stroke="#bfbfbf" points="294.5,-683.5 407.5,-683.5 "/>
<text text-anchor="middle" x="351" y="-671.5" font-family="Helvetica,sans-Serif" font-size="10.00"> </text>
<polyline fill="none" stroke="#bfbfbf" points="294.5,-664.5 407.5,-664.5 "/>
<text text-anchor="middle" x="351" y="-652.5" font-family="Helvetica,sans-Serif" font-size="10.00"> </text>
</a>
</g>
</g>
<!-- Node9&#45;&gt;Node8 -->
<g id="edge8" class="edge">
<title>Node9&#45;&gt;Node8</title>
<path fill="none" stroke="midnightblue" d="M363.26,-635.61C368.11,-620.81 373.84,-603.35 379.34,-586.56"/>
<polygon fill="none" stroke="midnightblue" points="359.84,-634.79 360.05,-645.38 366.5,-636.97 359.84,-634.79"/>
</g>
<!-- Node10 -->
<g id="node10" class="node">
<title>Node10</title>
<g id="a_node10"><a xlink:title=" ">
<polygon fill="white" stroke="#bfbfbf" points="426,-645.5 426,-702.5 474,-702.5 474,-645.5 426,-645.5"/>
<text text-anchor="middle" x="450" y="-690.5" font-family="Helvetica,sans-Serif" font-size="10.00">Notifier</text>
<polyline fill="none" stroke="#bfbfbf" points="426,-683.5 474,-683.5 "/>
<text text-anchor="middle" x="450" y="-671.5" font-family="Helvetica,sans-Serif" font-size="10.00"> </text>
<polyline fill="none" stroke="#bfbfbf" points="426,-664.5 474,-664.5 "/>
<text text-anchor="middle" x="450" y="-652.5" font-family="Helvetica,sans-Serif" font-size="10.00"> </text>
</a>
</g>
</g>
<!-- Node10&#45;&gt;Node8 -->
<g id="edge9" class="edge">
<title>Node10&#45;&gt;Node8</title>
<path fill="none" stroke="#404040" d="M441.13,-645.38C436.82,-631.99 431.42,-615.17 425.98,-598.25"/>
<polygon fill="none" stroke="#404040" points="425.9,-597.98 420.25,-593.49 422.22,-586.56 427.87,-591.05 425.9,-597.98"/>
<text text-anchor="middle" x="479" y="-619" font-family="Helvetica,sans-Serif" font-size="10.00"> #m_FiltersNotifier</text>
<text text-anchor="middle" x="479" y="-608" font-family="Helvetica,sans-Serif" font-size="10.00">#m_HandlersNotifier</text>
</g>
<!-- Node11&#45;&gt;Node2 -->
<g id="edge10" class="edge">
<title>Node11&#45;&gt;Node2</title>
<path fill="none" stroke="#404040" d="M106.58,-463.33C113.48,-438.14 125.21,-409.61 145,-390 191.21,-344.22 262.47,-321.54 316.76,-310.41"/>
<polygon fill="none" stroke="#404040" points="316.99,-310.37 322.12,-305.3 328.77,-308.08 323.64,-313.15 316.99,-310.37"/>
<text text-anchor="middle" x="170" y="-409.5" font-family="Helvetica,sans-Serif" font-size="10.00"> #m_Scene</text>
</g>
<!-- Node12&#45;&gt;Node2 -->
<g id="edge12" class="edge">
<title>Node12&#45;&gt;Node2</title>
<path fill="none" stroke="#404040" d="M825.66,-107.65C755.06,-125.48 646.15,-156.44 557,-197 526.5,-210.87 494.75,-229.36 467.41,-246.72"/>
<polygon fill="none" stroke="#404040" points="467.25,-246.82 464.36,-253.43 457.15,-253.31 460.04,-246.7 467.25,-246.82"/>
<text text-anchor="middle" x="582.5" y="-200" font-family="Helvetica,sans-Serif" font-size="10.00"> #m_Parent</text>
</g>
<!-- Node13 -->
<g id="node13" class="node">
<title>Node13</title>
<g id="a_node13"><a xlink:title=" ">
<polygon fill="white" stroke="#bfbfbf" points="1018.5,-270.5 1018.5,-327.5 1053.5,-327.5 1053.5,-270.5 1018.5,-270.5"/>
<text text-anchor="middle" x="1036" y="-315.5" font-family="Helvetica,sans-Serif" font-size="10.00">list&lt;</text>
<polyline fill="none" stroke="#bfbfbf" points="1018.5,-308.5 1053.5,-308.5 "/>
<text text-anchor="middle" x="1036" y="-296.5" font-family="Helvetica,sans-Serif" font-size="10.00"> </text>
<polyline fill="none" stroke="#bfbfbf" points="1018.5,-289.5 1053.5,-289.5 "/>
<text text-anchor="middle" x="1036" y="-277.5" font-family="Helvetica,sans-Serif" font-size="10.00"> </text>
</a>
</g>
</g>
<!-- Node13&#45;&gt;Node12 -->
<g id="edge14" class="edge">
<title>Node13&#45;&gt;Node12</title>
<path fill="none" stroke="#404040" d="M1028.45,-270.37C1024.08,-256.56 1017.87,-239.87 1010,-226 1001.19,-210.49 990.59,-194.97 979.49,-180.27"/>
<polygon fill="none" stroke="#404040" points="979.46,-180.23 972.63,-177.93 972.13,-170.73 978.96,-173.04 979.46,-180.23"/>
<text text-anchor="middle" x="1026" y="-200" font-family="Helvetica,sans-Serif" font-size="10.00"> #m_Children</text>
</g>
<!-- Node14 -->
<g id="node14" class="node">
<title>Node14</title>
<g id="a_node14"><a xlink:title=" ">
<polygon fill="white" stroke="#bfbfbf" points="1072,-270.5 1072,-327.5 1128,-327.5 1128,-270.5 1072,-270.5"/>
<text text-anchor="middle" x="1100" y="-315.5" font-family="Helvetica,sans-Serif" font-size="10.00">Texture *</text>
<polyline fill="none" stroke="#bfbfbf" points="1072,-308.5 1128,-308.5 "/>
<text text-anchor="middle" x="1100" y="-296.5" font-family="Helvetica,sans-Serif" font-size="10.00"> </text>
<polyline fill="none" stroke="#bfbfbf" points="1072,-289.5 1128,-289.5 "/>
<text text-anchor="middle" x="1100" y="-277.5" font-family="Helvetica,sans-Serif" font-size="10.00"> </text>
</a>
</g>
</g>
<!-- Node14&#45;&gt;Node12 -->
<g id="edge15" class="edge">
<title>Node14&#45;&gt;Node12</title>
<path fill="none" stroke="#404040" d="M1093.6,-270.38C1087.5,-248.65 1076.59,-218.55 1059,-197 1038.23,-171.56 1009.78,-149.93 982.63,-132.96"/>
<polygon fill="none" stroke="#404040" points="982.56,-132.91 975.35,-133.21 972.3,-126.68 979.51,-126.38 982.56,-132.91"/>
<text text-anchor="middle" x="1097" y="-200" font-family="Helvetica,sans-Serif" font-size="10.00"> #m_Snapshot</text>
</g>
<!-- Node15 -->
<g id="node15" class="node">
<title>Node15</title>
<g id="a_node15"><a xlink:href="class_sgl_1_1_background.html" target="_top" xlink:title=" ">
<polygon fill="white" stroke="black" points="1146.5,-237.5 1146.5,-360.5 1235.5,-360.5 1235.5,-237.5 1146.5,-237.5"/>
<text text-anchor="middle" x="1191" y="-348.5" font-family="Helvetica,sans-Serif" font-size="10.00">Sgl::Background</text>
<polyline fill="none" stroke="black" points="1146.5,-341.5 1235.5,-341.5 "/>
<text text-anchor="middle" x="1191" y="-329.5" font-family="Helvetica,sans-Serif" font-size="10.00"> </text>
<polyline fill="none" stroke="black" points="1146.5,-322.5 1235.5,-322.5 "/>
<text text-anchor="start" x="1154.5" y="-310.5" font-family="Helvetica,sans-Serif" font-size="10.00">+ Background()</text>
<text text-anchor="start" x="1154.5" y="-299.5" font-family="Helvetica,sans-Serif" font-size="10.00">+ Background()</text>
<text text-anchor="start" x="1154.5" y="-288.5" font-family="Helvetica,sans-Serif" font-size="10.00">+ Background()</text>
<text text-anchor="start" x="1154.5" y="-277.5" font-family="Helvetica,sans-Serif" font-size="10.00">+ Background()</text>
<text text-anchor="start" x="1154.5" y="-266.5" font-family="Helvetica,sans-Serif" font-size="10.00">+ addFill()</text>
<text text-anchor="start" x="1154.5" y="-255.5" font-family="Helvetica,sans-Serif" font-size="10.00">and 5 more...</text>
<text text-anchor="start" x="1154.5" y="-244.5" font-family="Helvetica,sans-Serif" font-size="10.00">+ fillArea()</text>
</a>
</g>
</g>
<!-- Node15&#45;&gt;Node12 -->
<g id="edge17" class="edge">
<title>Node15&#45;&gt;Node12</title>
<path fill="none" stroke="#404040" d="M1164.34,-237.44C1155.87,-222.88 1145.41,-208.3 1133,-197 1090.61,-158.42 1031.87,-131.75 983.85,-114.75"/>
<polygon fill="none" stroke="#404040" points="983.55,-114.64 976.57,-116.47 972.2,-110.74 979.18,-108.91 983.55,-114.64"/>
<text text-anchor="middle" x="1178" y="-200" font-family="Helvetica,sans-Serif" font-size="10.00"> #m_Background</text>
</g>
<!-- Node16 -->
<g id="node16" class="node">
<title>Node16</title>
<g id="a_node16"><a xlink:href="class_sgl_1_1_border.html" target="_top" xlink:title=" ">
<polygon fill="white" stroke="black" points="1254,-243 1254,-355 1344,-355 1344,-243 1254,-243"/>
<text text-anchor="middle" x="1299" y="-343" font-family="Helvetica,sans-Serif" font-size="10.00">Sgl::Border</text>
<polyline fill="none" stroke="black" points="1254,-336 1344,-336 "/>
<text text-anchor="middle" x="1299" y="-324" font-family="Helvetica,sans-Serif" font-size="10.00"> </text>
<polyline fill="none" stroke="black" points="1254,-317 1344,-317 "/>
<text text-anchor="start" x="1262" y="-305" font-family="Helvetica,sans-Serif" font-size="10.00">+ Border()</text>
<text text-anchor="start" x="1262" y="-294" font-family="Helvetica,sans-Serif" font-size="10.00">+ Border()</text>
<text text-anchor="start" x="1262" y="-283" font-family="Helvetica,sans-Serif" font-size="10.00">+ Border()</text>
<text text-anchor="start" x="1262" y="-272" font-family="Helvetica,sans-Serif" font-size="10.00">+ getThickness()</text>
<text text-anchor="start" x="1262" y="-261" font-family="Helvetica,sans-Serif" font-size="10.00">+ getColor()</text>
<text text-anchor="start" x="1262" y="-250" font-family="Helvetica,sans-Serif" font-size="10.00">+ encloseArea()</text>
</a>
</g>
</g>
<!-- Node16&#45;&gt;Node12 -->
<g id="edge18" class="edge">
<title>Node16&#45;&gt;Node12</title>
<path fill="none" stroke="#404040" d="M1265.35,-242.76C1252.69,-225.93 1236.96,-208.78 1219,-197 1146.84,-149.66 1051.69,-121.53 983.94,-106.18"/>
<polygon fill="none" stroke="#404040" points="983.77,-106.14 977.04,-108.75 972.05,-103.55 978.77,-100.94 983.77,-106.14"/>
<text text-anchor="middle" x="1257.5" y="-200" font-family="Helvetica,sans-Serif" font-size="10.00"> #m_Border</text>
</g>
<!-- Node17&#45;&gt;Node12 -->
<g id="edge19" class="edge">
<title>Node17&#45;&gt;Node12</title>
<path fill="none" stroke="#404040" d="M899,-242.94C899,-226.86 899,-208.77 899,-190.82"/>
<polygon fill="none" stroke="#404040" points="899,-190.75 895,-184.75 899,-178.75 903,-184.75 899,-190.75"/>
<text text-anchor="middle" x="928" y="-200" font-family="Helvetica,sans-Serif" font-size="10.00"> #m_Padding</text>
</g>
<!-- Node17&#45;&gt;Node17 -->
<g id="edge20" class="edge">
<title>Node17&#45;&gt;Node17</title>
<path fill="none" stroke="#404040" d="M938.51,-316.81C948.76,-315.72 956.5,-309.78 956.5,-299 956.5,-292.94 954.05,-288.4 950.08,-285.4"/>
<polygon fill="none" stroke="#404040" points="949.78,-285.29 942.77,-287 938.51,-281.19 945.51,-279.48 949.78,-285.29"/>
<text text-anchor="middle" x="978.5" y="-296.5" font-family="Helvetica,sans-Serif" font-size="10.00"> +EMPTY</text>
</g>
<!-- Node18 -->
<g id="node18" class="node">
<title>Node18</title>
<g id="a_node18"><a xlink:title=" ">
<polygon fill="white" stroke="#bfbfbf" points="486.5,-491 486.5,-548 553.5,-548 553.5,-491 486.5,-491"/>
<text text-anchor="middle" x="520" y="-536" font-family="Helvetica,sans-Serif" font-size="10.00">Rectangle&lt;</text>
<polyline fill="none" stroke="#bfbfbf" points="486.5,-529 553.5,-529 "/>
<text text-anchor="middle" x="520" y="-517" font-family="Helvetica,sans-Serif" font-size="10.00"> </text>
<polyline fill="none" stroke="#bfbfbf" points="486.5,-510 553.5,-510 "/>
<text text-anchor="middle" x="520" y="-498" font-family="Helvetica,sans-Serif" font-size="10.00"> </text>
</a>
</g>
</g>
<!-- Node18&#45;&gt;Node2 -->
<g id="edge23" class="edge">
<title>Node18&#45;&gt;Node2</title>
<path fill="none" stroke="#404040" d="M507.06,-490.68C499.93,-477.65 490.06,-462.68 478,-452 464.01,-439.61 452.5,-447.89 440,-434 432.31,-425.46 423.99,-405.36 416.51,-383.26"/>
<polygon fill="none" stroke="#404040" points="416.42,-382.97 410.75,-378.51 412.69,-371.57 418.35,-376.03 416.42,-382.97"/>
<text text-anchor="middle" x="482.5" y="-409.5" font-family="Helvetica,sans-Serif" font-size="10.00"> #m_LayoutBounds</text>
</g>
</g>
</svg>
