<?xml version="1.0" encoding="UTF-8" standalone="no"?>
<!DOCTYPE svg PUBLIC "-//W3C//DTD SVG 1.1//EN"
 "http://www.w3.org/Graphics/SVG/1.1/DTD/svg11.dtd">
<!-- Generated by graphviz version 2.50.0 (20211204.2007)
 -->
<!-- Title: Sgl::DefaultSkins::ScrollBarSkin Pages: 1 -->
<svg width="203pt" height="482pt"
 viewBox="0.00 0.00 203.00 482.00" xmlns="http://www.w3.org/2000/svg" xmlns:xlink="http://www.w3.org/1999/xlink">
<g id="graph0" class="graph" transform="scale(1 1) rotate(0) translate(4 478)">
<title>Sgl::DefaultSkins::ScrollBarSkin</title>
<polygon fill="white" stroke="transparent" points="-4,4 -4,-478 199,-478 199,4 -4,4"/>
<!-- Node1 -->
<g id="node1" class="node">
<title>Node1</title>
<g id="a_node1"><a xlink:title=" ">
<polygon fill="#bfbfbf" stroke="black" points="0,-0.5 0,-123.5 158,-123.5 158,-0.5 0,-0.5"/>
<text text-anchor="middle" x="79" y="-111.5" font-family="Helvetica,sans-Serif" font-size="10.00">Sgl::DefaultSkins::ScrollBarSkin</text>
<polyline fill="none" stroke="black" points="0,-104.5 158,-104.5 "/>
<text text-anchor="start" x="8" y="-92.5" font-family="Helvetica,sans-Serif" font-size="10.00">+ KNOB_COLOR</text>
<text text-anchor="start" x="8" y="-81.5" font-family="Helvetica,sans-Serif" font-size="10.00">+ KNOB_SHADOW</text>
<polyline fill="none" stroke="black" points="0,-74.5 158,-74.5 "/>
<text text-anchor="start" x="8" y="-62.5" font-family="Helvetica,sans-Serif" font-size="10.00">+ ScrollBarSkin()</text>
<text text-anchor="start" x="8" y="-51.5" font-family="Helvetica,sans-Serif" font-size="10.00">+ dispose()</text>
<text text-anchor="start" x="8" y="-40.5" font-family="Helvetica,sans-Serif" font-size="10.00">+ attach()</text>
<text text-anchor="start" x="8" y="-29.5" font-family="Helvetica,sans-Serif" font-size="10.00">+ getControl()</text>
<text text-anchor="start" x="8" y="-18.5" font-family="Helvetica,sans-Serif" font-size="10.00">+ getModifiableControl()</text>
<text text-anchor="start" x="8" y="-7.5" font-family="Helvetica,sans-Serif" font-size="10.00">+ layoutChildren()</text>
</a>
</g>
</g>
<!-- Node2 -->
<g id="node2" class="node">
<title>Node2</title>
<g id="a_node2"><a xlink:href="class_sgl_1_1_base_skin.html" target="_top" xlink:title=" ">
<polygon fill="white" stroke="black" points="10.5,-161.5 10.5,-218.5 147.5,-218.5 147.5,-161.5 10.5,-161.5"/>
<text text-anchor="middle" x="79" y="-206.5" font-family="Helvetica,sans-Serif" font-size="10.00">Sgl::BaseSkin&lt; ScrollBar &gt;</text>
<polyline fill="none" stroke="black" points="10.5,-199.5 147.5,-199.5 "/>
<text text-anchor="middle" x="79" y="-187.5" font-family="Helvetica,sans-Serif" font-size="10.00"> </text>
<polyline fill="none" stroke="black" points="10.5,-180.5 147.5,-180.5 "/>
<text text-anchor="start" x="18.5" y="-168.5" font-family="Helvetica,sans-Serif" font-size="10.00">+ attach()</text>
</a>
</g>
</g>
<!-- Node2&#45;&gt;Node1 -->
<g id="edge1" class="edge">
<title>Node2&#45;&gt;Node1</title>
<path fill="none" stroke="midnightblue" d="M79,-151.18C79,-142.49 79,-133.03 79,-123.65"/>
<polygon fill="none" stroke="midnightblue" points="75.5,-151.35 79,-161.35 82.5,-151.35 75.5,-151.35"/>
</g>
<!-- Node3 -->
<g id="node3" class="node">
<title>Node3</title>
<g id="a_node3"><a xlink:href="class_sgl_1_1_skin.html" target="_top" xlink:title=" ">
<polygon fill="white" stroke="black" points="21,-361.5 21,-473.5 129,-473.5 129,-361.5 21,-361.5"/>
<text text-anchor="middle" x="75" y="-461.5" font-family="Helvetica,sans-Serif" font-size="10.00">Sgl::Skin</text>
<polyline fill="none" stroke="black" points="21,-454.5 129,-454.5 "/>
<text text-anchor="middle" x="75" y="-442.5" font-family="Helvetica,sans-Serif" font-size="10.00"> </text>
<polyline fill="none" stroke="black" points="21,-435.5 129,-435.5 "/>
<text text-anchor="start" x="29" y="-423.5" font-family="Helvetica,sans-Serif" font-size="10.00">+ ~Skin()</text>
<text text-anchor="start" x="29" y="-412.5" font-family="Helvetica,sans-Serif" font-size="10.00">+ dispose()</text>
<text text-anchor="start" x="29" y="-401.5" font-family="Helvetica,sans-Serif" font-size="10.00">+ prerenderControl()</text>
<text text-anchor="start" x="29" y="-390.5" font-family="Helvetica,sans-Serif" font-size="10.00">+ getHitComponent()</text>
<text text-anchor="start" x="29" y="-379.5" font-family="Helvetica,sans-Serif" font-size="10.00">+ getControl()</text>
<text text-anchor="start" x="29" y="-368.5" font-family="Helvetica,sans-Serif" font-size="10.00">and 8 more...</text>
</a>
</g>
</g>
<!-- Node3&#45;&gt;Node2 -->
<g id="edge2" class="edge">
<title>Node3&#45;&gt;Node2</title>
<path fill="none" stroke="midnightblue" d="M76.16,-351.28C76.94,-307.25 77.93,-251.38 78.51,-218.57"/>
<polygon fill="none" stroke="midnightblue" points="72.66,-351.28 75.98,-361.34 79.66,-351.4 72.66,-351.28"/>
</g>
<!-- Node4 -->
<g id="node4" class="node">
<title>Node4</title>
<g id="a_node4"><a xlink:href="class_sgl_1_1_base_skin.html" target="_top" xlink:title=" ">
<polygon fill="white" stroke="black" points="91,-266.5 91,-323.5 195,-323.5 195,-266.5 91,-266.5"/>
<text text-anchor="middle" x="143" y="-311.5" font-family="Helvetica,sans-Serif" font-size="10.00">Sgl::BaseSkin&lt; C &gt;</text>
<polyline fill="none" stroke="black" points="91,-304.5 195,-304.5 "/>
<text text-anchor="middle" x="143" y="-292.5" font-family="Helvetica,sans-Serif" font-size="10.00"> </text>
<polyline fill="none" stroke="black" points="91,-285.5 195,-285.5 "/>
<text text-anchor="start" x="99" y="-273.5" font-family="Helvetica,sans-Serif" font-size="10.00">+ attach()</text>
</a>
</g>
</g>
<!-- Node3&#45;&gt;Node4 -->
<g id="edge4" class="edge">
<title>Node3&#45;&gt;Node4</title>
<path fill="none" stroke="midnightblue" d="M111.21,-352.34C116.89,-342.28 122.48,-332.36 127.36,-323.72"/>
<polygon fill="none" stroke="midnightblue" points="108.08,-350.76 106.21,-361.19 114.18,-354.2 108.08,-350.76"/>
</g>
<!-- Node4&#45;&gt;Node2 -->
<g id="edge3" class="edge">
<title>Node4&#45;&gt;Node2</title>
<path fill="none" stroke="orange" d="M120.49,-257.77C112.51,-244.93 103.66,-230.69 96.2,-218.68"/>
<polygon fill="orange" stroke="orange" points="117.6,-259.75 125.85,-266.4 123.54,-256.06 117.6,-259.75"/>
<text text-anchor="middle" x="142.5" y="-240" font-family="Helvetica,sans-Serif" font-size="10.00"> &lt; ScrollBar &gt;</text>
</g>
</g>
</svg>
