<?xml version="1.0" encoding="UTF-8" standalone="no"?>
<!DOCTYPE svg PUBLIC "-//W3C//DTD SVG 1.1//EN"
 "http://www.w3.org/Graphics/SVG/1.1/DTD/svg11.dtd">
<!-- Generated by graphviz version 2.50.0 (20211204.2007)
 -->
<!-- Title: Sgl::Button Pages: 1 -->
<svg width="252pt" height="1042pt"
 viewBox="0.00 0.00 252.00 1042.00" xmlns="http://www.w3.org/2000/svg" xmlns:xlink="http://www.w3.org/1999/xlink">
<g id="graph0" class="graph" transform="scale(1 1) rotate(0) translate(4 1038)">
<title>Sgl::Button</title>
<polygon fill="white" stroke="transparent" points="-4,4 -4,-1038 248,-1038 248,4 -4,4"/>
<!-- Node1 -->
<g id="node1" class="node">
<title>Node1</title>
<g id="a_node1"><a xlink:title=" ">
<polygon fill="#bfbfbf" stroke="black" points="101,-105.5 101,-217.5 175,-217.5 175,-105.5 101,-105.5"/>
<text text-anchor="middle" x="138" y="-205.5" font-family="Helvetica,sans-Serif" font-size="10.00">Sgl::Button</text>
<polyline fill="none" stroke="black" points="101,-198.5 175,-198.5 "/>
<text text-anchor="middle" x="138" y="-186.5" font-family="Helvetica,sans-Serif" font-size="10.00"> </text>
<polyline fill="none" stroke="black" points="101,-179.5 175,-179.5 "/>
<text text-anchor="start" x="109" y="-167.5" font-family="Helvetica,sans-Serif" font-size="10.00">+ Button()</text>
<text text-anchor="start" x="109" y="-156.5" font-family="Helvetica,sans-Serif" font-size="10.00">+ Button()</text>
<text text-anchor="start" x="109" y="-145.5" font-family="Helvetica,sans-Serif" font-size="10.00">+ Button()</text>
<text text-anchor="start" x="109" y="-134.5" font-family="Helvetica,sans-Serif" font-size="10.00">+ Button()</text>
<text text-anchor="start" x="109" y="-123.5" font-family="Helvetica,sans-Serif" font-size="10.00">+ Button()</text>
<text text-anchor="start" x="109" y="-112.5" font-family="Helvetica,sans-Serif" font-size="10.00">and 7 more...</text>
</a>
</g>
</g>
<!-- Node7 -->
<g id="node7" class="node">
<title>Node7</title>
<g id="a_node7"><a xlink:href="class_sgl_1_1_menu_item.html" target="_top" xlink:title=" ">
<polygon fill="white" stroke="black" points="95,-0.5 95,-68.5 181,-68.5 181,-0.5 95,-0.5"/>
<text text-anchor="middle" x="138" y="-56.5" font-family="Helvetica,sans-Serif" font-size="10.00">Sgl::MenuItem</text>
<polyline fill="none" stroke="black" points="95,-49.5 181,-49.5 "/>
<text text-anchor="middle" x="138" y="-37.5" font-family="Helvetica,sans-Serif" font-size="10.00"> </text>
<polyline fill="none" stroke="black" points="95,-30.5 181,-30.5 "/>
<text text-anchor="start" x="103" y="-18.5" font-family="Helvetica,sans-Serif" font-size="10.00">+ MenuItem()</text>
<text text-anchor="start" x="103" y="-7.5" font-family="Helvetica,sans-Serif" font-size="10.00">+ setOnAction()</text>
</a>
</g>
</g>
<!-- Node1&#45;&gt;Node7 -->
<g id="edge6" class="edge">
<title>Node1&#45;&gt;Node7</title>
<path fill="none" stroke="midnightblue" d="M138,-95.26C138,-85.99 138,-76.8 138,-68.51"/>
<polygon fill="none" stroke="midnightblue" points="134.5,-95.31 138,-105.31 141.5,-95.31 134.5,-95.31"/>
</g>
<!-- Node2 -->
<g id="node2" class="node">
<title>Node2</title>
<g id="a_node2"><a xlink:href="class_sgl_1_1_control.html" target="_top" xlink:title=" ">
<polygon fill="white" stroke="black" points="63.5,-254.5 63.5,-399.5 212.5,-399.5 212.5,-254.5 63.5,-254.5"/>
<text text-anchor="middle" x="138" y="-387.5" font-family="Helvetica,sans-Serif" font-size="10.00">Sgl::Control</text>
<polyline fill="none" stroke="black" points="63.5,-380.5 212.5,-380.5 "/>
<text text-anchor="start" x="71.5" y="-368.5" font-family="Helvetica,sans-Serif" font-size="10.00"># m_DefaultSkin</text>
<polyline fill="none" stroke="black" points="63.5,-361.5 212.5,-361.5 "/>
<text text-anchor="start" x="71.5" y="-349.5" font-family="Helvetica,sans-Serif" font-size="10.00">+ Control()</text>
<text text-anchor="start" x="71.5" y="-338.5" font-family="Helvetica,sans-Serif" font-size="10.00">+ ~Control()</text>
<text text-anchor="start" x="71.5" y="-327.5" font-family="Helvetica,sans-Serif" font-size="10.00">+ getHitComponent()</text>
<text text-anchor="start" x="71.5" y="-316.5" font-family="Helvetica,sans-Serif" font-size="10.00"># layoutChildren()</text>
<text text-anchor="start" x="71.5" y="-305.5" font-family="Helvetica,sans-Serif" font-size="10.00"># prerenderSelf()</text>
<text text-anchor="start" x="71.5" y="-294.5" font-family="Helvetica,sans-Serif" font-size="10.00"># computeCustomPrefWidth()</text>
<text text-anchor="start" x="71.5" y="-283.5" font-family="Helvetica,sans-Serif" font-size="10.00"># computeCustomPrefHeight()</text>
<text text-anchor="start" x="71.5" y="-272.5" font-family="Helvetica,sans-Serif" font-size="10.00"># computeCustomMinWidth()</text>
<text text-anchor="start" x="71.5" y="-261.5" font-family="Helvetica,sans-Serif" font-size="10.00">and 3 more...</text>
</a>
</g>
</g>
<!-- Node2&#45;&gt;Node1 -->
<g id="edge1" class="edge">
<title>Node2&#45;&gt;Node1</title>
<path fill="none" stroke="midnightblue" d="M138,-244.25C138,-235.33 138,-226.42 138,-217.93"/>
<polygon fill="none" stroke="midnightblue" points="134.5,-244.29 138,-254.29 141.5,-244.29 134.5,-244.29"/>
</g>
<!-- Node3 -->
<g id="node3" class="node">
<title>Node3</title>
<g id="a_node3"><a xlink:href="class_sgl_1_1_parent.html" target="_top" xlink:title=" ">
<polygon fill="white" stroke="black" points="0,-436.5 0,-669.5 146,-669.5 146,-436.5 0,-436.5"/>
<text text-anchor="middle" x="73" y="-657.5" font-family="Helvetica,sans-Serif" font-size="10.00">Sgl::Parent</text>
<polyline fill="none" stroke="black" points="0,-650.5 146,-650.5 "/>
<text text-anchor="start" x="8" y="-638.5" font-family="Helvetica,sans-Serif" font-size="10.00"># m_Children</text>
<text text-anchor="start" x="8" y="-627.5" font-family="Helvetica,sans-Serif" font-size="10.00"># m_Snapshot</text>
<text text-anchor="start" x="8" y="-616.5" font-family="Helvetica,sans-Serif" font-size="10.00"># m_NeedLayoutPass</text>
<text text-anchor="start" x="8" y="-605.5" font-family="Helvetica,sans-Serif" font-size="10.00"># m_Background</text>
<text text-anchor="start" x="8" y="-594.5" font-family="Helvetica,sans-Serif" font-size="10.00"># m_Border</text>
<text text-anchor="start" x="8" y="-583.5" font-family="Helvetica,sans-Serif" font-size="10.00">and 7 more...</text>
<polyline fill="none" stroke="black" points="0,-576.5 146,-576.5 "/>
<text text-anchor="start" x="8" y="-564.5" font-family="Helvetica,sans-Serif" font-size="10.00">+ Parent()</text>
<text text-anchor="start" x="8" y="-553.5" font-family="Helvetica,sans-Serif" font-size="10.00">+ ~Parent()</text>
<text text-anchor="start" x="8" y="-542.5" font-family="Helvetica,sans-Serif" font-size="10.00">+ getHitComponent()</text>
<text text-anchor="start" x="8" y="-531.5" font-family="Helvetica,sans-Serif" font-size="10.00">+ render()</text>
<text text-anchor="start" x="8" y="-520.5" font-family="Helvetica,sans-Serif" font-size="10.00">+ layout()</text>
<text text-anchor="start" x="8" y="-509.5" font-family="Helvetica,sans-Serif" font-size="10.00">and 38 more...</text>
<text text-anchor="start" x="8" y="-498.5" font-family="Helvetica,sans-Serif" font-size="10.00"># setSceneInSceneTree()</text>
<text text-anchor="start" x="8" y="-487.5" font-family="Helvetica,sans-Serif" font-size="10.00"># layoutChildren()</text>
<text text-anchor="start" x="8" y="-476.5" font-family="Helvetica,sans-Serif" font-size="10.00"># prerenderSelf()</text>
<text text-anchor="start" x="8" y="-465.5" font-family="Helvetica,sans-Serif" font-size="10.00"># updateSnapshotSize()</text>
<text text-anchor="start" x="8" y="-454.5" font-family="Helvetica,sans-Serif" font-size="10.00"># computeCustomPrefWidth()</text>
<text text-anchor="start" x="8" y="-443.5" font-family="Helvetica,sans-Serif" font-size="10.00">and 5 more...</text>
</a>
</g>
</g>
<!-- Node3&#45;&gt;Node2 -->
<g id="edge2" class="edge">
<title>Node3&#45;&gt;Node2</title>
<path fill="none" stroke="midnightblue" d="M109.35,-426.73C112.03,-417.5 114.67,-408.38 117.21,-399.65"/>
<polygon fill="none" stroke="midnightblue" points="105.97,-425.81 106.55,-436.39 112.7,-427.76 105.97,-425.81"/>
</g>
<!-- Node4 -->
<g id="node4" class="node">
<title>Node4</title>
<g id="a_node4"><a xlink:href="class_sgl_1_1_component.html" target="_top" xlink:title=" ">
<polygon fill="white" stroke="black" points="4.5,-706.5 4.5,-939.5 141.5,-939.5 141.5,-706.5 4.5,-706.5"/>
<text text-anchor="middle" x="73" y="-927.5" font-family="Helvetica,sans-Serif" font-size="10.00">Sgl::Component</text>
<polyline fill="none" stroke="black" points="4.5,-920.5 141.5,-920.5 "/>
<text text-anchor="start" x="12.5" y="-908.5" font-family="Helvetica,sans-Serif" font-size="10.00">+ Scene</text>
<text text-anchor="start" x="12.5" y="-897.5" font-family="Helvetica,sans-Serif" font-size="10.00">+ USE_COMPUTED_SIZE</text>
<text text-anchor="start" x="12.5" y="-886.5" font-family="Helvetica,sans-Serif" font-size="10.00">+ UNLIMITED_SIZE</text>
<text text-anchor="start" x="12.5" y="-875.5" font-family="Helvetica,sans-Serif" font-size="10.00"># m_Visible</text>
<text text-anchor="start" x="12.5" y="-864.5" font-family="Helvetica,sans-Serif" font-size="10.00"># m_Focused</text>
<text text-anchor="start" x="12.5" y="-853.5" font-family="Helvetica,sans-Serif" font-size="10.00"># m_Hovered</text>
<text text-anchor="start" x="12.5" y="-842.5" font-family="Helvetica,sans-Serif" font-size="10.00"># m_Shadow</text>
<text text-anchor="start" x="12.5" y="-831.5" font-family="Helvetica,sans-Serif" font-size="10.00"># m_Dispatcher</text>
<text text-anchor="start" x="12.5" y="-820.5" font-family="Helvetica,sans-Serif" font-size="10.00">and 3 more...</text>
<polyline fill="none" stroke="black" points="4.5,-813.5 141.5,-813.5 "/>
<text text-anchor="start" x="12.5" y="-801.5" font-family="Helvetica,sans-Serif" font-size="10.00">+ Component()</text>
<text text-anchor="start" x="12.5" y="-790.5" font-family="Helvetica,sans-Serif" font-size="10.00">+ ~Component()</text>
<text text-anchor="start" x="12.5" y="-779.5" font-family="Helvetica,sans-Serif" font-size="10.00">+ getHitComponent()</text>
<text text-anchor="start" x="12.5" y="-768.5" font-family="Helvetica,sans-Serif" font-size="10.00">+ render()</text>
<text text-anchor="start" x="12.5" y="-757.5" font-family="Helvetica,sans-Serif" font-size="10.00">+ layout()</text>
<text text-anchor="start" x="12.5" y="-746.5" font-family="Helvetica,sans-Serif" font-size="10.00">and 37 more...</text>
<text text-anchor="start" x="12.5" y="-735.5" font-family="Helvetica,sans-Serif" font-size="10.00"># updateShadow()</text>
<text text-anchor="start" x="12.5" y="-724.5" font-family="Helvetica,sans-Serif" font-size="10.00"># renderShadow()</text>
<text text-anchor="start" x="12.5" y="-713.5" font-family="Helvetica,sans-Serif" font-size="10.00"># setSceneInSceneTree()</text>
</a>
</g>
</g>
<!-- Node4&#45;&gt;Node3 -->
<g id="edge3" class="edge">
<title>Node4&#45;&gt;Node3</title>
<path fill="none" stroke="midnightblue" d="M73,-696.37C73,-687.46 73,-678.49 73,-669.64"/>
<polygon fill="none" stroke="midnightblue" points="69.5,-696.4 73,-706.4 76.5,-696.4 69.5,-696.4"/>
</g>
<!-- Node5 -->
<g id="node5" class="node">
<title>Node5</title>
<g id="a_node5"><a xlink:title=" ">
<polygon fill="white" stroke="#bfbfbf" points="27,-976.5 27,-1033.5 119,-1033.5 119,-976.5 27,-976.5"/>
<text text-anchor="middle" x="73" y="-1021.5" font-family="Helvetica,sans-Serif" font-size="10.00">Sml::EventTarget</text>
<polyline fill="none" stroke="#bfbfbf" points="27,-1014.5 119,-1014.5 "/>
<text text-anchor="middle" x="73" y="-1002.5" font-family="Helvetica,sans-Serif" font-size="10.00"> </text>
<polyline fill="none" stroke="#bfbfbf" points="27,-995.5 119,-995.5 "/>
<text text-anchor="middle" x="73" y="-983.5" font-family="Helvetica,sans-Serif" font-size="10.00"> </text>
</a>
</g>
</g>
<!-- Node5&#45;&gt;Node4 -->
<g id="edge4" class="edge">
<title>Node5&#45;&gt;Node4</title>
<path fill="none" stroke="midnightblue" d="M73,-966.14C73,-958.03 73,-949.05 73,-939.67"/>
<polygon fill="none" stroke="midnightblue" points="69.5,-966.27 73,-976.27 76.5,-966.27 69.5,-966.27"/>
</g>
<!-- Node6 -->
<g id="node6" class="node">
<title>Node6</title>
<g id="a_node6"><a xlink:href="class_sgl_1_1_skinnable.html" target="_top" xlink:title=" ">
<polygon fill="white" stroke="black" points="164,-519 164,-587 244,-587 244,-519 164,-519"/>
<text text-anchor="middle" x="204" y="-575" font-family="Helvetica,sans-Serif" font-size="10.00">Sgl::Skinnable</text>
<polyline fill="none" stroke="black" points="164,-568 244,-568 "/>
<text text-anchor="start" x="172" y="-556" font-family="Helvetica,sans-Serif" font-size="10.00"># m_Skin</text>
<polyline fill="none" stroke="black" points="164,-549 244,-549 "/>
<text text-anchor="start" x="172" y="-537" font-family="Helvetica,sans-Serif" font-size="10.00">+ getSkin()</text>
<text text-anchor="start" x="172" y="-526" font-family="Helvetica,sans-Serif" font-size="10.00">+ setSkin()</text>
</a>
</g>
</g>
<!-- Node6&#45;&gt;Node2 -->
<g id="edge5" class="edge">
<title>Node6&#45;&gt;Node2</title>
<path fill="none" stroke="midnightblue" d="M191.43,-509.33C182.31,-478.37 169.75,-435.77 159.11,-399.64"/>
<polygon fill="none" stroke="midnightblue" points="188.08,-510.34 194.26,-518.95 194.79,-508.37 188.08,-510.34"/>
</g>
</g>
</svg>
