<?xml version="1.0" encoding="UTF-8" standalone="no"?>
<!DOCTYPE svg PUBLIC "-//W3C//DTD SVG 1.1//EN"
 "http://www.w3.org/Graphics/SVG/1.1/DTD/svg11.dtd">
<!-- Generated by graphviz version 2.50.0 (20211204.2007)
 -->
<!-- Title: Sgl::DefaultSkins::ButtonBaseSkin Pages: 1 -->
<!--zoomable 731 -->
<svg id="main" version="1.1" xmlns="http://www.w3.org/2000/svg" xmlns:xlink="http://www.w3.org/1999/xlink" xml:space="preserve" onload="init(evt)">
<style type="text/css"><![CDATA[
.edge:hover path { stroke: red; }
.edge:hover polygon { stroke: red; fill: red; }
]]></style>
<script type="text/javascript"><![CDATA[
var edges = document.getElementsByTagName('g');
if (edges && edges.length) {
  for (var i=0;i<edges.length;i++) {
    if (edges[i].id.substr(0,4)=='edge') {
      edges[i].setAttribute('class','edge');
    }
  }
}
]]></script>
        <defs>
                <circle id="rim" cx="0" cy="0" r="7"/>
                <circle id="rim2" cx="0" cy="0" r="3.5"/>
                <g id="zoomPlus">
                        <use xlink:href="#rim" fill="#404040">
                                <set attributeName="fill" to="#808080" begin="zoomplus.mouseover" end="zoomplus.mouseout"/>
                        </use>
                        <path d="M-4,0h8M0,-4v8" fill="none" stroke="white" stroke-width="1.5" pointer-events="none"/>
                </g>
                <g id="zoomMin">
                        <use xlink:href="#rim" fill="#404040">
                                <set attributeName="fill" to="#808080" begin="zoomminus.mouseover" end="zoomminus.mouseout"/>
                        </use>
                        <path d="M-4,0h8" fill="none" stroke="white" stroke-width="1.5" pointer-events="none"/>
                </g>
                <g id="dirArrow">
                        <path fill="none" stroke="white" stroke-width="1.5" d="M0,-3.0v7 M-2.5,-0.5L0,-3.0L2.5,-0.5"/>
                </g>
               <g id="resetDef">
                       <use xlink:href="#rim2" fill="#404040">
                               <set attributeName="fill" to="#808080" begin="reset.mouseover" end="reset.mouseout"/>
                       </use>
               </g>
        </defs>

<script type="text/javascript">
var viewWidth = 438;
var viewHeight = 731;
var sectionId = 'dynsection-0';
</script>
<script xlink:href="svgpan.js"/>
<svg id="graph" class="graph">
<g id="viewport">
<title>Sgl::DefaultSkins::ButtonBaseSkin</title>
<polygon fill="white" stroke="transparent" points="-4,4 -4,-727 434,-727 434,4 -4,4"/>
<!-- Node1 -->
<g id="node1" class="node">
<title>Node1</title>
<g id="a_node1"><a xlink:title=" ">
<polygon fill="#bfbfbf" stroke="black" points="152,-172.5 152,-372.5 256,-372.5 256,-172.5 152,-172.5"/>
<text text-anchor="start" x="160" y="-360.5" font-family="Helvetica,sans-Serif" font-size="10.00">Sgl::DefaultSkins::</text>
<text text-anchor="middle" x="204" y="-349.5" font-family="Helvetica,sans-Serif" font-size="10.00">ButtonBaseSkin</text>
<polyline fill="none" stroke="black" points="152,-342.5 256,-342.5 "/>
<text text-anchor="start" x="160" y="-330.5" font-family="Helvetica,sans-Serif" font-size="10.00"># m_StaticStyle</text>
<text text-anchor="start" x="160" y="-319.5" font-family="Helvetica,sans-Serif" font-size="10.00"># m_IdleStyle</text>
<text text-anchor="start" x="160" y="-308.5" font-family="Helvetica,sans-Serif" font-size="10.00"># m_HoveredStyle</text>
<text text-anchor="start" x="160" y="-297.5" font-family="Helvetica,sans-Serif" font-size="10.00"># m_PressedStyle</text>
<text text-anchor="start" x="160" y="-286.5" font-family="Helvetica,sans-Serif" font-size="10.00"># m_Button</text>
<text text-anchor="start" x="160" y="-275.5" font-family="Helvetica,sans-Serif" font-size="10.00">and 3 more...</text>
<polyline fill="none" stroke="black" points="152,-268.5 256,-268.5 "/>
<text text-anchor="start" x="160" y="-256.5" font-family="Helvetica,sans-Serif" font-size="10.00">+ ButtonBaseSkin()</text>
<text text-anchor="start" x="160" y="-245.5" font-family="Helvetica,sans-Serif" font-size="10.00">+ ButtonBaseSkin()</text>
<text text-anchor="start" x="160" y="-234.5" font-family="Helvetica,sans-Serif" font-size="10.00">+ dispose()</text>
<text text-anchor="start" x="160" y="-223.5" font-family="Helvetica,sans-Serif" font-size="10.00">+ attach()</text>
<text text-anchor="start" x="160" y="-212.5" font-family="Helvetica,sans-Serif" font-size="10.00">+ prerenderControl()</text>
<text text-anchor="start" x="160" y="-201.5" font-family="Helvetica,sans-Serif" font-size="10.00">and 6 more...</text>
<text text-anchor="start" x="160" y="-190.5" font-family="Helvetica,sans-Serif" font-size="10.00"># getMargin()</text>
<text text-anchor="start" x="160" y="-179.5" font-family="Helvetica,sans-Serif" font-size="10.00"># applyStaticStyle()</text>
</a>
</g>
</g>
<!-- Node5 -->
<g id="node5" class="node">
<title>Node5</title>
<g id="a_node5"><a xlink:href="class_sgl_1_1_default_skins_1_1_button_plane_skin.html" target="_top" xlink:title=" ">
<polygon fill="white" stroke="black" points="0,-28 0,-107 104,-107 104,-28 0,-28"/>
<text text-anchor="start" x="8" y="-95" font-family="Helvetica,sans-Serif" font-size="10.00">Sgl::DefaultSkins::</text>
<text text-anchor="middle" x="52" y="-84" font-family="Helvetica,sans-Serif" font-size="10.00">ButtonPlaneSkin</text>
<polyline fill="none" stroke="black" points="0,-77 104,-77 "/>
<text text-anchor="middle" x="52" y="-65" font-family="Helvetica,sans-Serif" font-size="10.00"> </text>
<polyline fill="none" stroke="black" points="0,-58 104,-58 "/>
<text text-anchor="start" x="8" y="-46" font-family="Helvetica,sans-Serif" font-size="10.00">+ ButtonPlaneSkin()</text>
<text text-anchor="start" x="8" y="-35" font-family="Helvetica,sans-Serif" font-size="10.00">+ ButtonPlaneSkin()</text>
</a>
</g>
</g>
<!-- Node1&#45;&gt;Node5 -->
<g id="edge5" class="edge">
<title>Node1&#45;&gt;Node5</title>
<path fill="none" stroke="midnightblue" d="M145.72,-193.66C123.57,-164.08 99.29,-131.65 80.99,-107.22"/>
<polygon fill="none" stroke="midnightblue" points="143.11,-196.02 151.9,-201.92 148.71,-191.82 143.11,-196.02"/>
</g>
<!-- Node6 -->
<g id="node6" class="node">
<title>Node6</title>
<g id="a_node6"><a xlink:href="class_sgl_1_1_default_skins_1_1_button_skin.html" target="_top" xlink:title=" ">
<polygon fill="white" stroke="black" points="122,-0.5 122,-134.5 286,-134.5 286,-0.5 122,-0.5"/>
<text text-anchor="start" x="130" y="-122.5" font-family="Helvetica,sans-Serif" font-size="10.00">Sgl::DefaultSkins::</text>
<text text-anchor="middle" x="204" y="-111.5" font-family="Helvetica,sans-Serif" font-size="10.00">ButtonSkin</text>
<polyline fill="none" stroke="black" points="122,-104.5 286,-104.5 "/>
<text text-anchor="start" x="130" y="-92.5" font-family="Helvetica,sans-Serif" font-size="10.00">+ PADDING_LABEL_ONLY</text>
<text text-anchor="start" x="130" y="-81.5" font-family="Helvetica,sans-Serif" font-size="10.00">+ PADDING_ICON_ONLY</text>
<text text-anchor="start" x="130" y="-70.5" font-family="Helvetica,sans-Serif" font-size="10.00">+ PADDING_LABEL_AND_ICON</text>
<text text-anchor="start" x="130" y="-59.5" font-family="Helvetica,sans-Serif" font-size="10.00">+ MARGIN</text>
<text text-anchor="start" x="130" y="-48.5" font-family="Helvetica,sans-Serif" font-size="10.00">+ BORDER</text>
<text text-anchor="start" x="130" y="-37.5" font-family="Helvetica,sans-Serif" font-size="10.00">and 9 more...</text>
<polyline fill="none" stroke="black" points="122,-30.5 286,-30.5 "/>
<text text-anchor="start" x="130" y="-18.5" font-family="Helvetica,sans-Serif" font-size="10.00">+ ButtonSkin()</text>
<text text-anchor="start" x="130" y="-7.5" font-family="Helvetica,sans-Serif" font-size="10.00">+ ButtonSkin()</text>
</a>
</g>
</g>
<!-- Node1&#45;&gt;Node6 -->
<g id="edge6" class="edge">
<title>Node1&#45;&gt;Node6</title>
<path fill="none" stroke="midnightblue" d="M204,-162.2C204,-152.83 204,-143.56 204,-134.69"/>
<polygon fill="none" stroke="midnightblue" points="200.5,-162.38 204,-172.38 207.5,-162.38 200.5,-162.38"/>
</g>
<!-- Node7 -->
<g id="node7" class="node">
<title>Node7</title>
<g id="a_node7"><a xlink:href="class_sgl_1_1_default_skins_1_1_menu_item_skin.html" target="_top" xlink:title=" ">
<polygon fill="white" stroke="black" points="304,-0.5 304,-134.5 430,-134.5 430,-0.5 304,-0.5"/>
<text text-anchor="start" x="312" y="-122.5" font-family="Helvetica,sans-Serif" font-size="10.00">Sgl::DefaultSkins::</text>
<text text-anchor="middle" x="367" y="-111.5" font-family="Helvetica,sans-Serif" font-size="10.00">MenuItemSkin</text>
<polyline fill="none" stroke="black" points="304,-104.5 430,-104.5 "/>
<text text-anchor="start" x="312" y="-92.5" font-family="Helvetica,sans-Serif" font-size="10.00">+ PADDING</text>
<text text-anchor="start" x="312" y="-81.5" font-family="Helvetica,sans-Serif" font-size="10.00">+ MARGIN</text>
<text text-anchor="start" x="312" y="-70.5" font-family="Helvetica,sans-Serif" font-size="10.00">+ BORDER</text>
<text text-anchor="start" x="312" y="-59.5" font-family="Helvetica,sans-Serif" font-size="10.00">+ STATIC_STYLE</text>
<text text-anchor="start" x="312" y="-48.5" font-family="Helvetica,sans-Serif" font-size="10.00">+ IDLE_FOREGROUND</text>
<text text-anchor="start" x="312" y="-37.5" font-family="Helvetica,sans-Serif" font-size="10.00">and 7 more...</text>
<polyline fill="none" stroke="black" points="304,-30.5 430,-30.5 "/>
<text text-anchor="start" x="312" y="-18.5" font-family="Helvetica,sans-Serif" font-size="10.00">+ MenuItemSkin()</text>
<text text-anchor="start" x="312" y="-7.5" font-family="Helvetica,sans-Serif" font-size="10.00">+ MenuItemSkin()</text>
</a>
</g>
</g>
<!-- Node1&#45;&gt;Node7 -->
<g id="edge7" class="edge">
<title>Node1&#45;&gt;Node7</title>
<path fill="none" stroke="midnightblue" d="M262.37,-198.8C279.15,-177.91 297.35,-155.25 313.79,-134.77"/>
<polygon fill="none" stroke="midnightblue" points="259.55,-196.72 256.02,-206.71 265.01,-201.11 259.55,-196.72"/>
</g>
<!-- Node2 -->
<g id="node2" class="node">
<title>Node2</title>
<g id="a_node2"><a xlink:href="class_sgl_1_1_base_skin.html" target="_top" xlink:title=" ">
<polygon fill="white" stroke="black" points="141.5,-410.5 141.5,-467.5 266.5,-467.5 266.5,-410.5 141.5,-410.5"/>
<text text-anchor="middle" x="204" y="-455.5" font-family="Helvetica,sans-Serif" font-size="10.00">Sgl::BaseSkin&lt; Button &gt;</text>
<polyline fill="none" stroke="black" points="141.5,-448.5 266.5,-448.5 "/>
<text text-anchor="middle" x="204" y="-436.5" font-family="Helvetica,sans-Serif" font-size="10.00"> </text>
<polyline fill="none" stroke="black" points="141.5,-429.5 266.5,-429.5 "/>
<text text-anchor="start" x="149.5" y="-417.5" font-family="Helvetica,sans-Serif" font-size="10.00">+ attach()</text>
</a>
</g>
</g>
<!-- Node2&#45;&gt;Node1 -->
<g id="edge1" class="edge">
<title>Node2&#45;&gt;Node1</title>
<path fill="none" stroke="midnightblue" d="M204,-400.29C204,-391.84 204,-382.5 204,-372.82"/>
<polygon fill="none" stroke="midnightblue" points="200.5,-400.47 204,-410.47 207.5,-400.47 200.5,-400.47"/>
</g>
<!-- Node3 -->
<g id="node3" class="node">
<title>Node3</title>
<g id="a_node3"><a xlink:href="class_sgl_1_1_skin.html" target="_top" xlink:title=" ">
<polygon fill="white" stroke="black" points="146,-610.5 146,-722.5 254,-722.5 254,-610.5 146,-610.5"/>
<text text-anchor="middle" x="200" y="-710.5" font-family="Helvetica,sans-Serif" font-size="10.00">Sgl::Skin</text>
<polyline fill="none" stroke="black" points="146,-703.5 254,-703.5 "/>
<text text-anchor="middle" x="200" y="-691.5" font-family="Helvetica,sans-Serif" font-size="10.00"> </text>
<polyline fill="none" stroke="black" points="146,-684.5 254,-684.5 "/>
<text text-anchor="start" x="154" y="-672.5" font-family="Helvetica,sans-Serif" font-size="10.00">+ ~Skin()</text>
<text text-anchor="start" x="154" y="-661.5" font-family="Helvetica,sans-Serif" font-size="10.00">+ dispose()</text>
<text text-anchor="start" x="154" y="-650.5" font-family="Helvetica,sans-Serif" font-size="10.00">+ prerenderControl()</text>
<text text-anchor="start" x="154" y="-639.5" font-family="Helvetica,sans-Serif" font-size="10.00">+ getHitComponent()</text>
<text text-anchor="start" x="154" y="-628.5" font-family="Helvetica,sans-Serif" font-size="10.00">+ getControl()</text>
<text text-anchor="start" x="154" y="-617.5" font-family="Helvetica,sans-Serif" font-size="10.00">and 8 more...</text>
</a>
</g>
</g>
<!-- Node3&#45;&gt;Node2 -->
<g id="edge2" class="edge">
<title>Node3&#45;&gt;Node2</title>
<path fill="none" stroke="midnightblue" d="M201.16,-600.28C201.94,-556.25 202.93,-500.38 203.51,-467.57"/>
<polygon fill="none" stroke="midnightblue" points="197.66,-600.28 200.98,-610.34 204.66,-600.4 197.66,-600.28"/>
</g>
<!-- Node4 -->
<g id="node4" class="node">
<title>Node4</title>
<g id="a_node4"><a xlink:href="class_sgl_1_1_base_skin.html" target="_top" xlink:title=" ">
<polygon fill="white" stroke="black" points="216,-515.5 216,-572.5 320,-572.5 320,-515.5 216,-515.5"/>
<text text-anchor="middle" x="268" y="-560.5" font-family="Helvetica,sans-Serif" font-size="10.00">Sgl::BaseSkin&lt; C &gt;</text>
<polyline fill="none" stroke="black" points="216,-553.5 320,-553.5 "/>
<text text-anchor="middle" x="268" y="-541.5" font-family="Helvetica,sans-Serif" font-size="10.00"> </text>
<polyline fill="none" stroke="black" points="216,-534.5 320,-534.5 "/>
<text text-anchor="start" x="224" y="-522.5" font-family="Helvetica,sans-Serif" font-size="10.00">+ attach()</text>
</a>
</g>
</g>
<!-- Node3&#45;&gt;Node4 -->
<g id="edge4" class="edge">
<title>Node3&#45;&gt;Node4</title>
<path fill="none" stroke="midnightblue" d="M236.21,-601.34C241.89,-591.28 247.48,-581.36 252.36,-572.72"/>
<polygon fill="none" stroke="midnightblue" points="233.08,-599.76 231.21,-610.19 239.18,-603.2 233.08,-599.76"/>
</g>
<!-- Node4&#45;&gt;Node2 -->
<g id="edge3" class="edge">
<title>Node4&#45;&gt;Node2</title>
<path fill="none" stroke="orange" d="M245.49,-506.77C237.51,-493.93 228.66,-479.69 221.2,-467.68"/>
<polygon fill="orange" stroke="orange" points="242.6,-508.75 250.85,-515.4 248.54,-505.06 242.6,-508.75"/>
<text text-anchor="middle" x="262" y="-489" font-family="Helvetica,sans-Serif" font-size="10.00"> &lt; Button &gt;</text>
</g>
</g>
</svg>
        <g id="navigator" transform="translate(0 0)" fill="#404254">
                <rect fill="#f2f5e9" fill-opacity="0.5" stroke="#606060" stroke-width=".5" x="0" y="0" width="60" height="60"/>
                <use id="zoomplus" xlink:href="#zoomPlus" x="17" y="9" onmousedown="handleZoom(evt,'in')"/>
                <use id="zoomminus" xlink:href="#zoomMin" x="42" y="9" onmousedown="handleZoom(evt,'out')"/>
                <use id="reset" xlink:href="#resetDef" x="30" y="36" onmousedown="handleReset()"/>
                <g id="arrowUp" xlink:href="#dirArrow" transform="translate(30 24)" onmousedown="handlePan(0,-1)">
                  <use xlink:href="#rim" fill="#404040">
                        <set attributeName="fill" to="#808080" begin="arrowUp.mouseover" end="arrowUp.mouseout"/>
                  </use>
                  <path fill="none" stroke="white" stroke-width="1.5" d="M0,-3.0v7 M-2.5,-0.5L0,-3.0L2.5,-0.5"/>
                </g>
                <g id="arrowRight" xlink:href="#dirArrow" transform="rotate(90) translate(36 -43)" onmousedown="handlePan(1,0)">
                  <use xlink:href="#rim" fill="#404040">
                        <set attributeName="fill" to="#808080" begin="arrowRight.mouseover" end="arrowRight.mouseout"/>
                  </use>
                  <path fill="none" stroke="white" stroke-width="1.5" d="M0,-3.0v7 M-2.5,-0.5L0,-3.0L2.5,-0.5"/>
                </g>
                <g id="arrowDown" xlink:href="#dirArrow" transform="rotate(180) translate(-30 -48)" onmousedown="handlePan(0,1)">
                  <use xlink:href="#rim" fill="#404040">
                        <set attributeName="fill" to="#808080" begin="arrowDown.mouseover" end="arrowDown.mouseout"/>
                  </use>
                  <path fill="none" stroke="white" stroke-width="1.5" d="M0,-3.0v7 M-2.5,-0.5L0,-3.0L2.5,-0.5"/>
                </g>
                <g id="arrowLeft" xlink:href="#dirArrow" transform="rotate(270) translate(-36 17)" onmousedown="handlePan(-1,0)">
                  <use xlink:href="#rim" fill="#404040">
                        <set attributeName="fill" to="#808080" begin="arrowLeft.mouseover" end="arrowLeft.mouseout"/>
                  </use>
                  <path fill="none" stroke="white" stroke-width="1.5" d="M0,-3.0v7 M-2.5,-0.5L0,-3.0L2.5,-0.5"/>
                </g>
        </g>
        <svg viewBox="0 0 15 15" width="100%" height="30px" preserveAspectRatio="xMaxYMin meet">
         <g id="arrow_out" transform="scale(0.3 0.3)">
          <a xlink:href="class_sgl_1_1_default_skins_1_1_button_base_skin__inherit__graph_org.svg" target="_base">
           <rect id="button" ry="5" rx="5" y="6" x="6" height="38" width="38"
                fill="#f2f5e9" fill-opacity="0.5" stroke="#606060" stroke-width="1.0"/>
           <path id="arrow"
             d="M 11.500037,31.436501 C 11.940474,20.09759 22.043105,11.32322 32.158766,21.979434 L 37.068811,17.246167 C 37.068811,17.246167 37.088388,32 37.088388,32 L 22.160133,31.978069 C 22.160133,31.978069 26.997745,27.140456 26.997745,27.140456 C 18.528582,18.264221 13.291696,25.230495 11.500037,31.436501 z"
             style="fill:#404040;"/>
          </a>
         </g>
        </svg>
</svg>
