<?xml version="1.0" encoding="UTF-8" standalone="no"?>
<!DOCTYPE svg PUBLIC "-//W3C//DTD SVG 1.1//EN"
 "http://www.w3.org/Graphics/SVG/1.1/DTD/svg11.dtd">
<!-- Generated by graphviz version 2.50.0 (20211204.2007)
 -->
<!-- Title: Sgl::Shape Pages: 1 -->
<!--zoomable 711 -->
<svg id="main" version="1.1" xmlns="http://www.w3.org/2000/svg" xmlns:xlink="http://www.w3.org/1999/xlink" xml:space="preserve" onload="init(evt)">
<style type="text/css"><![CDATA[
.edge:hover path { stroke: red; }
.edge:hover polygon { stroke: red; fill: red; }
]]></style>
<script type="text/javascript"><![CDATA[
var edges = document.getElementsByTagName('g');
if (edges && edges.length) {
  for (var i=0;i<edges.length;i++) {
    if (edges[i].id.substr(0,4)=='edge') {
      edges[i].setAttribute('class','edge');
    }
  }
}
]]></script>
        <defs>
                <circle id="rim" cx="0" cy="0" r="7"/>
                <circle id="rim2" cx="0" cy="0" r="3.5"/>
                <g id="zoomPlus">
                        <use xlink:href="#rim" fill="#404040">
                                <set attributeName="fill" to="#808080" begin="zoomplus.mouseover" end="zoomplus.mouseout"/>
                        </use>
                        <path d="M-4,0h8M0,-4v8" fill="none" stroke="white" stroke-width="1.5" pointer-events="none"/>
                </g>
                <g id="zoomMin">
                        <use xlink:href="#rim" fill="#404040">
                                <set attributeName="fill" to="#808080" begin="zoomminus.mouseover" end="zoomminus.mouseout"/>
                        </use>
                        <path d="M-4,0h8" fill="none" stroke="white" stroke-width="1.5" pointer-events="none"/>
                </g>
                <g id="dirArrow">
                        <path fill="none" stroke="white" stroke-width="1.5" d="M0,-3.0v7 M-2.5,-0.5L0,-3.0L2.5,-0.5"/>
                </g>
               <g id="resetDef">
                       <use xlink:href="#rim2" fill="#404040">
                               <set attributeName="fill" to="#808080" begin="reset.mouseover" end="reset.mouseout"/>
                       </use>
               </g>
        </defs>

<script type="text/javascript">
var viewWidth = 1157;
var viewHeight = 711;
var sectionId = 'dynsection-1';
</script>
<script xlink:href="svgpan.js"/>
<svg id="graph" class="graph">
<g id="viewport">
<title>Sgl::Shape</title>
<polygon fill="white" stroke="transparent" points="-4,4 -4,-707 1153.36,-707 1153.36,4 -4,4"/>
<!-- Node1 -->
<g id="node1" class="node">
<title>Node1</title>
<g id="a_node1"><a xlink:title=" ">
<polygon fill="#bfbfbf" stroke="black" points="154.36,-33.5 154.36,-145.5 237.36,-145.5 237.36,-33.5 154.36,-33.5"/>
<text text-anchor="middle" x="195.86" y="-133.5" font-family="Helvetica,sans-Serif" font-size="10.00">Sgl::Shape</text>
<polyline fill="none" stroke="black" points="154.36,-126.5 237.36,-126.5 "/>
<text text-anchor="middle" x="195.86" y="-114.5" font-family="Helvetica,sans-Serif" font-size="10.00"> </text>
<polyline fill="none" stroke="black" points="154.36,-107.5 237.36,-107.5 "/>
<text text-anchor="start" x="162.36" y="-95.5" font-family="Helvetica,sans-Serif" font-size="10.00">+ Shape()</text>
<text text-anchor="start" x="162.36" y="-84.5" font-family="Helvetica,sans-Serif" font-size="10.00">+ Shape()</text>
<text text-anchor="start" x="162.36" y="-73.5" font-family="Helvetica,sans-Serif" font-size="10.00">+ ~Shape()</text>
<text text-anchor="start" x="162.36" y="-62.5" font-family="Helvetica,sans-Serif" font-size="10.00">+ layout()</text>
<text text-anchor="start" x="162.36" y="-51.5" font-family="Helvetica,sans-Serif" font-size="10.00">+ isResizable()</text>
<text text-anchor="start" x="162.36" y="-40.5" font-family="Helvetica,sans-Serif" font-size="10.00">and 10 more...</text>
</a>
</g>
</g>
<!-- Node2 -->
<g id="node2" class="node">
<title>Node2</title>
<g id="a_node2"><a xlink:href="class_sgl_1_1_component.html" target="_top" xlink:title=" ">
<polygon fill="white" stroke="black" points="144.86,-226.5 144.86,-371.5 272.86,-371.5 272.86,-226.5 144.86,-226.5"/>
<text text-anchor="middle" x="208.86" y="-359.5" font-family="Helvetica,sans-Serif" font-size="10.00">Sgl::Component</text>
<polyline fill="none" stroke="black" points="144.86,-352.5 272.86,-352.5 "/>
<text text-anchor="middle" x="208.86" y="-340.5" font-family="Helvetica,sans-Serif" font-size="10.00"> </text>
<polyline fill="none" stroke="black" points="144.86,-333.5 272.86,-333.5 "/>
<text text-anchor="start" x="152.86" y="-321.5" font-family="Helvetica,sans-Serif" font-size="10.00">+ Component()</text>
<text text-anchor="start" x="152.86" y="-310.5" font-family="Helvetica,sans-Serif" font-size="10.00">+ ~Component()</text>
<text text-anchor="start" x="152.86" y="-299.5" font-family="Helvetica,sans-Serif" font-size="10.00">+ getHitComponent()</text>
<text text-anchor="start" x="152.86" y="-288.5" font-family="Helvetica,sans-Serif" font-size="10.00">+ render()</text>
<text text-anchor="start" x="152.86" y="-277.5" font-family="Helvetica,sans-Serif" font-size="10.00">+ layout()</text>
<text text-anchor="start" x="152.86" y="-266.5" font-family="Helvetica,sans-Serif" font-size="10.00">and 42 more...</text>
<text text-anchor="start" x="152.86" y="-255.5" font-family="Helvetica,sans-Serif" font-size="10.00"># updateShadow()</text>
<text text-anchor="start" x="152.86" y="-244.5" font-family="Helvetica,sans-Serif" font-size="10.00"># renderShadow()</text>
<text text-anchor="start" x="152.86" y="-233.5" font-family="Helvetica,sans-Serif" font-size="10.00"># setSceneInSceneTree()</text>
</a>
</g>
</g>
<!-- Node2&#45;&gt;Node1 -->
<g id="edge1" class="edge">
<title>Node2&#45;&gt;Node1</title>
<path fill="none" stroke="midnightblue" d="M147.32,-217.29C146.03,-214.22 144.87,-211.12 143.86,-208 136.89,-186.46 143.63,-163.52 154.29,-143.69"/>
<polygon fill="none" stroke="midnightblue" points="144.16,-218.81 151.54,-226.41 150.52,-215.86 144.16,-218.81"/>
</g>
<!-- Node13 -->
<g id="node13" class="node">
<title>Node13</title>
<g id="a_node13"><a xlink:href="class_sgl_1_1_parent.html" target="_top" xlink:title=" ">
<polygon fill="white" stroke="black" points="530.86,-0.5 530.86,-178.5 676.86,-178.5 676.86,-0.5 530.86,-0.5"/>
<text text-anchor="middle" x="603.86" y="-166.5" font-family="Helvetica,sans-Serif" font-size="10.00">Sgl::Parent</text>
<polyline fill="none" stroke="black" points="530.86,-159.5 676.86,-159.5 "/>
<text text-anchor="middle" x="603.86" y="-147.5" font-family="Helvetica,sans-Serif" font-size="10.00"> </text>
<polyline fill="none" stroke="black" points="530.86,-140.5 676.86,-140.5 "/>
<text text-anchor="start" x="538.86" y="-128.5" font-family="Helvetica,sans-Serif" font-size="10.00">+ Parent()</text>
<text text-anchor="start" x="538.86" y="-117.5" font-family="Helvetica,sans-Serif" font-size="10.00">+ ~Parent()</text>
<text text-anchor="start" x="538.86" y="-106.5" font-family="Helvetica,sans-Serif" font-size="10.00">+ getHitComponent()</text>
<text text-anchor="start" x="538.86" y="-95.5" font-family="Helvetica,sans-Serif" font-size="10.00">+ render()</text>
<text text-anchor="start" x="538.86" y="-84.5" font-family="Helvetica,sans-Serif" font-size="10.00">+ layout()</text>
<text text-anchor="start" x="538.86" y="-73.5" font-family="Helvetica,sans-Serif" font-size="10.00">and 39 more...</text>
<text text-anchor="start" x="538.86" y="-62.5" font-family="Helvetica,sans-Serif" font-size="10.00"># setSceneInSceneTree()</text>
<text text-anchor="start" x="538.86" y="-51.5" font-family="Helvetica,sans-Serif" font-size="10.00"># layoutChildren()</text>
<text text-anchor="start" x="538.86" y="-40.5" font-family="Helvetica,sans-Serif" font-size="10.00"># prerenderSelf()</text>
<text text-anchor="start" x="538.86" y="-29.5" font-family="Helvetica,sans-Serif" font-size="10.00"># updateSnapshotSize()</text>
<text text-anchor="start" x="538.86" y="-18.5" font-family="Helvetica,sans-Serif" font-size="10.00"># computeCustomPrefWidth()</text>
<text text-anchor="start" x="538.86" y="-7.5" font-family="Helvetica,sans-Serif" font-size="10.00">and 5 more...</text>
</a>
</g>
</g>
<!-- Node2&#45;&gt;Node13 -->
<g id="edge14" class="edge">
<title>Node2&#45;&gt;Node13</title>
<path fill="none" stroke="midnightblue" d="M235.96,-217.24C240.75,-209.75 246.34,-202.8 252.86,-197 330.87,-127.57 452.98,-103.39 530.67,-94.98"/>
<polygon fill="none" stroke="midnightblue" points="232.71,-215.86 230.69,-226.26 238.76,-219.39 232.71,-215.86"/>
</g>
<!-- Node3 -->
<g id="node3" class="node">
<title>Node3</title>
<g id="a_node3"><a xlink:title=" ">
<polygon fill="white" stroke="#bfbfbf" points="114.86,-645.5 114.86,-702.5 206.86,-702.5 206.86,-645.5 114.86,-645.5"/>
<text text-anchor="middle" x="160.86" y="-690.5" font-family="Helvetica,sans-Serif" font-size="10.00">Sml::EventTarget</text>
<polyline fill="none" stroke="#bfbfbf" points="114.86,-683.5 206.86,-683.5 "/>
<text text-anchor="middle" x="160.86" y="-671.5" font-family="Helvetica,sans-Serif" font-size="10.00"> </text>
<polyline fill="none" stroke="#bfbfbf" points="114.86,-664.5 206.86,-664.5 "/>
<text text-anchor="middle" x="160.86" y="-652.5" font-family="Helvetica,sans-Serif" font-size="10.00"> </text>
</a>
</g>
</g>
<!-- Node3&#45;&gt;Node2 -->
<g id="edge2" class="edge">
<title>Node3&#45;&gt;Node2</title>
<path fill="none" stroke="midnightblue" d="M105.25,-654.89C73.86,-641.48 37.32,-619.77 18.86,-587 -10.59,-534.73 -0.26,-508.87 18.86,-452 29.88,-419.22 40.37,-413.37 65.86,-390 89.32,-368.49 118.58,-349.05 144.51,-333.78"/>
<polygon fill="none" stroke="midnightblue" points="104.22,-658.24 114.8,-658.78 106.87,-651.76 104.22,-658.24"/>
</g>
<!-- Node12 -->
<g id="node12" class="node">
<title>Node12</title>
<g id="a_node12"><a xlink:href="class_sgl_1_1_scene.html" target="_top" xlink:title=" ">
<polygon fill="white" stroke="black" points="277.86,-463.5 277.86,-575.5 357.86,-575.5 357.86,-463.5 277.86,-463.5"/>
<text text-anchor="middle" x="317.86" y="-563.5" font-family="Helvetica,sans-Serif" font-size="10.00">Sgl::Scene</text>
<polyline fill="none" stroke="black" points="277.86,-556.5 357.86,-556.5 "/>
<text text-anchor="middle" x="317.86" y="-544.5" font-family="Helvetica,sans-Serif" font-size="10.00"> </text>
<polyline fill="none" stroke="black" points="277.86,-537.5 357.86,-537.5 "/>
<text text-anchor="start" x="285.86" y="-525.5" font-family="Helvetica,sans-Serif" font-size="10.00">+ Scene()</text>
<text text-anchor="start" x="285.86" y="-514.5" font-family="Helvetica,sans-Serif" font-size="10.00">+ Scene()</text>
<text text-anchor="start" x="285.86" y="-503.5" font-family="Helvetica,sans-Serif" font-size="10.00">+ ~Scene()</text>
<text text-anchor="start" x="285.86" y="-492.5" font-family="Helvetica,sans-Serif" font-size="10.00">+ update()</text>
<text text-anchor="start" x="285.86" y="-481.5" font-family="Helvetica,sans-Serif" font-size="10.00">+ render()</text>
<text text-anchor="start" x="285.86" y="-470.5" font-family="Helvetica,sans-Serif" font-size="10.00">and 17 more...</text>
</a>
</g>
</g>
<!-- Node3&#45;&gt;Node12 -->
<g id="edge12" class="edge">
<title>Node3&#45;&gt;Node12</title>
<path fill="none" stroke="midnightblue" d="M207.88,-639.29C227.38,-624.3 249.66,-605.8 267.86,-587 271.28,-583.47 274.67,-579.71 277.98,-575.83"/>
<polygon fill="none" stroke="midnightblue" points="205.56,-636.66 199.71,-645.49 209.79,-642.23 205.56,-636.66"/>
</g>
<!-- Node4 -->
<g id="node4" class="node">
<title>Node4</title>
<g id="a_node4"><a xlink:title=" ">
<polygon fill="white" stroke="#bfbfbf" points="896.86,-491 896.86,-548 942.86,-548 942.86,-491 896.86,-491"/>
<text text-anchor="middle" x="919.86" y="-536" font-family="Helvetica,sans-Serif" font-size="10.00">int32_t</text>
<polyline fill="none" stroke="#bfbfbf" points="896.86,-529 942.86,-529 "/>
<text text-anchor="middle" x="919.86" y="-517" font-family="Helvetica,sans-Serif" font-size="10.00"> </text>
<polyline fill="none" stroke="#bfbfbf" points="896.86,-510 942.86,-510 "/>
<text text-anchor="middle" x="919.86" y="-498" font-family="Helvetica,sans-Serif" font-size="10.00"> </text>
</a>
</g>
</g>
<!-- Node4&#45;&gt;Node2 -->
<g id="edge3" class="edge">
<title>Node4&#45;&gt;Node2</title>
<path fill="none" stroke="#404040" d="M896.44,-503.62C870.01,-486.81 825.76,-458.57 787.86,-434 757.97,-414.62 754.78,-400.9 720.86,-390 631.27,-361.2 389.74,-407.33 284.46,-372"/>
<polygon fill="none" stroke="#404040" points="284.41,-371.98 277.37,-373.56 273.21,-367.67 280.24,-366.09 284.41,-371.98"/>
<text text-anchor="middle" x="846.86" y="-415" font-family="Helvetica,sans-Serif" font-size="10.00"> +UNLIMITED_SIZE</text>
<text text-anchor="middle" x="846.86" y="-404" font-family="Helvetica,sans-Serif" font-size="10.00">+USE_COMPUTED_SIZE</text>
</g>
<!-- Node4&#45;&gt;Node13 -->
<g id="edge23" class="edge">
<title>Node4&#45;&gt;Node13</title>
<path fill="none" stroke="#404040" d="M921.82,-490.84C924.29,-434.46 922.05,-304.94 857.86,-226 814.35,-172.49 743.94,-137.3 688.28,-116.22"/>
<polygon fill="none" stroke="#404040" points="688.26,-116.21 681.25,-117.89 677,-112.07 684.01,-110.39 688.26,-116.21"/>
<text text-anchor="middle" x="949.86" y="-324" font-family="Helvetica,sans-Serif" font-size="10.00"> #m_MaxHeight</text>
<text text-anchor="middle" x="949.86" y="-313" font-family="Helvetica,sans-Serif" font-size="10.00">#m_MaxWidth</text>
<text text-anchor="middle" x="949.86" y="-302" font-family="Helvetica,sans-Serif" font-size="10.00">#m_MinHeight</text>
<text text-anchor="middle" x="949.86" y="-291" font-family="Helvetica,sans-Serif" font-size="10.00">#m_MinWidth</text>
<text text-anchor="middle" x="949.86" y="-280" font-family="Helvetica,sans-Serif" font-size="10.00">#m_PrefHeight</text>
<text text-anchor="middle" x="949.86" y="-269" font-family="Helvetica,sans-Serif" font-size="10.00">#m_PrefWidth</text>
</g>
<!-- Node18 -->
<g id="node18" class="node">
<title>Node18</title>
<g id="a_node18"><a xlink:href="struct_sgl_1_1_insets.html" target="_top" xlink:title=" ">
<polygon fill="white" stroke="black" points="1008.36,-243 1008.36,-355 1087.36,-355 1087.36,-243 1008.36,-243"/>
<text text-anchor="middle" x="1047.86" y="-343" font-family="Helvetica,sans-Serif" font-size="10.00">Sgl::Insets</text>
<polyline fill="none" stroke="black" points="1008.36,-336 1087.36,-336 "/>
<text text-anchor="middle" x="1047.86" y="-324" font-family="Helvetica,sans-Serif" font-size="10.00"> </text>
<polyline fill="none" stroke="black" points="1008.36,-317 1087.36,-317 "/>
<text text-anchor="start" x="1016.36" y="-305" font-family="Helvetica,sans-Serif" font-size="10.00">+ Insets()</text>
<text text-anchor="start" x="1016.36" y="-294" font-family="Helvetica,sans-Serif" font-size="10.00">+ Insets()</text>
<text text-anchor="start" x="1016.36" y="-283" font-family="Helvetica,sans-Serif" font-size="10.00">+ Insets()</text>
<text text-anchor="start" x="1016.36" y="-272" font-family="Helvetica,sans-Serif" font-size="10.00">+ Insets()</text>
<text text-anchor="start" x="1016.36" y="-261" font-family="Helvetica,sans-Serif" font-size="10.00">+ operator+=()</text>
<text text-anchor="start" x="1016.36" y="-250" font-family="Helvetica,sans-Serif" font-size="10.00">+ operator&#45;=()</text>
</a>
</g>
</g>
<!-- Node4&#45;&gt;Node18 -->
<g id="edge22" class="edge">
<title>Node4&#45;&gt;Node18</title>
<path fill="none" stroke="#404040" d="M936.07,-490.83C954.43,-459.49 984.97,-407.35 1009.5,-365.49"/>
<polygon fill="none" stroke="#404040" points="1009.53,-365.44 1009.11,-358.24 1015.59,-355.08 1016.01,-362.28 1009.53,-365.44"/>
<text text-anchor="middle" x="1010.86" y="-426" font-family="Helvetica,sans-Serif" font-size="10.00"> +bottom</text>
<text text-anchor="middle" x="1010.86" y="-415" font-family="Helvetica,sans-Serif" font-size="10.00">+left</text>
<text text-anchor="middle" x="1010.86" y="-404" font-family="Helvetica,sans-Serif" font-size="10.00">+right</text>
<text text-anchor="middle" x="1010.86" y="-393" font-family="Helvetica,sans-Serif" font-size="10.00">+top</text>
</g>
<!-- Node5 -->
<g id="node5" class="node">
<title>Node5</title>
<g id="a_node5"><a xlink:title=" ">
<polygon fill="white" stroke="#bfbfbf" points="28.36,-491 28.36,-548 69.36,-548 69.36,-491 28.36,-491"/>
<text text-anchor="middle" x="48.86" y="-536" font-family="Helvetica,sans-Serif" font-size="10.00">friend</text>
<polyline fill="none" stroke="#bfbfbf" points="28.36,-529 69.36,-529 "/>
<text text-anchor="middle" x="48.86" y="-517" font-family="Helvetica,sans-Serif" font-size="10.00"> </text>
<polyline fill="none" stroke="#bfbfbf" points="28.36,-510 69.36,-510 "/>
<text text-anchor="middle" x="48.86" y="-498" font-family="Helvetica,sans-Serif" font-size="10.00"> </text>
</a>
</g>
</g>
<!-- Node5&#45;&gt;Node2 -->
<g id="edge4" class="edge">
<title>Node5&#45;&gt;Node2</title>
<path fill="none" stroke="#404040" d="M52.98,-490.76C58.15,-463.16 69.12,-420.62 90.86,-390 102.77,-373.23 118.73,-358.17 135.05,-345.38"/>
<polygon fill="none" stroke="#404040" points="135.1,-345.34 137.48,-338.54 144.67,-338.11 142.29,-344.92 135.1,-345.34"/>
<text text-anchor="middle" x="109.36" y="-409.5" font-family="Helvetica,sans-Serif" font-size="10.00"> +Scene</text>
</g>
<!-- Node6 -->
<g id="node6" class="node">
<title>Node6</title>
<g id="a_node6"><a xlink:title=" ">
<polygon fill="white" stroke="#bfbfbf" points="87.36,-491 87.36,-548 140.36,-548 140.36,-491 87.36,-491"/>
<text text-anchor="middle" x="113.86" y="-536" font-family="Helvetica,sans-Serif" font-size="10.00">Visibility</text>
<polyline fill="none" stroke="#bfbfbf" points="87.36,-529 140.36,-529 "/>
<text text-anchor="middle" x="113.86" y="-517" font-family="Helvetica,sans-Serif" font-size="10.00"> </text>
<polyline fill="none" stroke="#bfbfbf" points="87.36,-510 140.36,-510 "/>
<text text-anchor="middle" x="113.86" y="-498" font-family="Helvetica,sans-Serif" font-size="10.00"> </text>
</a>
</g>
</g>
<!-- Node6&#45;&gt;Node2 -->
<g id="edge5" class="edge">
<title>Node6&#45;&gt;Node2</title>
<path fill="none" stroke="#404040" d="M117.72,-490.96C122.14,-464.26 130.8,-423.06 145.86,-390 147.05,-387.4 148.31,-384.8 149.63,-382.2"/>
<polygon fill="none" stroke="#404040" points="149.68,-382.12 149.03,-374.94 155.41,-371.57 156.06,-378.76 149.68,-382.12"/>
<text text-anchor="middle" x="175.36" y="-409.5" font-family="Helvetica,sans-Serif" font-size="10.00"> #m_Visibility</text>
</g>
<!-- Node7 -->
<g id="node7" class="node">
<title>Node7</title>
<g id="a_node7"><a xlink:title=" ">
<polygon fill="white" stroke="#bfbfbf" points="697.36,-491 697.36,-548 732.36,-548 732.36,-491 697.36,-491"/>
<text text-anchor="middle" x="714.86" y="-536" font-family="Helvetica,sans-Serif" font-size="10.00">bool</text>
<polyline fill="none" stroke="#bfbfbf" points="697.36,-529 732.36,-529 "/>
<text text-anchor="middle" x="714.86" y="-517" font-family="Helvetica,sans-Serif" font-size="10.00"> </text>
<polyline fill="none" stroke="#bfbfbf" points="697.36,-510 732.36,-510 "/>
<text text-anchor="middle" x="714.86" y="-498" font-family="Helvetica,sans-Serif" font-size="10.00"> </text>
</a>
</g>
</g>
<!-- Node7&#45;&gt;Node2 -->
<g id="edge6" class="edge">
<title>Node7&#45;&gt;Node2</title>
<path fill="none" stroke="#404040" d="M699.92,-490.86C681.6,-460.07 647.39,-411.78 602.86,-390 541.82,-360.14 365.57,-396.99 284.88,-371.97"/>
<polygon fill="none" stroke="#404040" points="284.47,-371.82 277.45,-373.47 273.23,-367.62 280.26,-365.97 284.47,-371.82"/>
<text text-anchor="middle" x="686.86" y="-415" font-family="Helvetica,sans-Serif" font-size="10.00"> #m_Focused</text>
<text text-anchor="middle" x="686.86" y="-404" font-family="Helvetica,sans-Serif" font-size="10.00">#m_Hovered</text>
</g>
<!-- Node7&#45;&gt;Node13 -->
<g id="edge17" class="edge">
<title>Node7&#45;&gt;Node13</title>
<path fill="none" stroke="#404040" d="M725.08,-490.56C744.52,-432.58 780.88,-296.3 733.86,-197 723.29,-174.68 705.5,-155.47 686.41,-139.77"/>
<polygon fill="none" stroke="#404040" points="686.4,-139.76 679.21,-139.19 676.97,-132.34 684.16,-132.9 686.4,-139.76"/>
<text text-anchor="middle" x="805.36" y="-296.5" font-family="Helvetica,sans-Serif" font-size="10.00"> #m_NeedLayoutPass</text>
</g>
<!-- Node8 -->
<g id="node8" class="node">
<title>Node8</title>
<g id="a_node8"><a xlink:href="class_sgl_1_1_shadow.html" target="_top" xlink:title=" ">
<polygon fill="white" stroke="black" points="158.36,-458 158.36,-581 259.36,-581 259.36,-458 158.36,-458"/>
<text text-anchor="middle" x="208.86" y="-569" font-family="Helvetica,sans-Serif" font-size="10.00">Sgl::Shadow</text>
<polyline fill="none" stroke="black" points="158.36,-562 259.36,-562 "/>
<text text-anchor="middle" x="208.86" y="-550" font-family="Helvetica,sans-Serif" font-size="10.00"> </text>
<polyline fill="none" stroke="black" points="158.36,-543 259.36,-543 "/>
<text text-anchor="start" x="166.36" y="-531" font-family="Helvetica,sans-Serif" font-size="10.00">+ Shadow()</text>
<text text-anchor="start" x="166.36" y="-520" font-family="Helvetica,sans-Serif" font-size="10.00">+ ~Shadow()</text>
<text text-anchor="start" x="166.36" y="-509" font-family="Helvetica,sans-Serif" font-size="10.00">+ update()</text>
<text text-anchor="start" x="166.36" y="-498" font-family="Helvetica,sans-Serif" font-size="10.00">+ render()</text>
<text text-anchor="start" x="166.36" y="-487" font-family="Helvetica,sans-Serif" font-size="10.00">+ getTexture()</text>
<text text-anchor="start" x="166.36" y="-476" font-family="Helvetica,sans-Serif" font-size="10.00">+ getSpecification()</text>
<text text-anchor="start" x="166.36" y="-465" font-family="Helvetica,sans-Serif" font-size="10.00">+ setSpecification()</text>
</a>
</g>
</g>
<!-- Node8&#45;&gt;Node2 -->
<g id="edge7" class="edge">
<title>Node8&#45;&gt;Node2</title>
<path fill="none" stroke="#404040" d="M208.86,-457.93C208.86,-435.02 208.86,-408.53 208.86,-383.86"/>
<polygon fill="none" stroke="#404040" points="208.86,-383.54 204.86,-377.54 208.86,-371.54 212.86,-377.54 208.86,-383.54"/>
<text text-anchor="middle" x="237.86" y="-409.5" font-family="Helvetica,sans-Serif" font-size="10.00"> #m_Shadow</text>
</g>
<!-- Node9 -->
<g id="node9" class="node">
<title>Node9</title>
<g id="a_node9"><a xlink:href="class_gui_event_dispatcher.html" target="_top" xlink:title=" ">
<polygon fill="white" stroke="black" points="376.36,-452.5 376.36,-586.5 511.36,-586.5 511.36,-452.5 376.36,-452.5"/>
<text text-anchor="middle" x="443.86" y="-574.5" font-family="Helvetica,sans-Serif" font-size="10.00">GuiEventDispatcher</text>
<polyline fill="none" stroke="black" points="376.36,-567.5 511.36,-567.5 "/>
<text text-anchor="middle" x="443.86" y="-555.5" font-family="Helvetica,sans-Serif" font-size="10.00"> </text>
<polyline fill="none" stroke="black" points="376.36,-548.5 511.36,-548.5 "/>
<text text-anchor="start" x="384.36" y="-536.5" font-family="Helvetica,sans-Serif" font-size="10.00">+ ~GuiEventDispatcher()</text>
<text text-anchor="start" x="384.36" y="-525.5" font-family="Helvetica,sans-Serif" font-size="10.00">+ attachFilter()</text>
<text text-anchor="start" x="384.36" y="-514.5" font-family="Helvetica,sans-Serif" font-size="10.00">+ detachFilter()</text>
<text text-anchor="start" x="384.36" y="-503.5" font-family="Helvetica,sans-Serif" font-size="10.00">+ attachHandler()</text>
<text text-anchor="start" x="384.36" y="-492.5" font-family="Helvetica,sans-Serif" font-size="10.00">+ detachHandler()</text>
<text text-anchor="start" x="384.36" y="-481.5" font-family="Helvetica,sans-Serif" font-size="10.00">+ dispatchEvent()</text>
<text text-anchor="start" x="384.36" y="-470.5" font-family="Helvetica,sans-Serif" font-size="10.00"># dispatchCapturingEvent()</text>
<text text-anchor="start" x="384.36" y="-459.5" font-family="Helvetica,sans-Serif" font-size="10.00"># dispatchBubblingEvent()</text>
</a>
</g>
</g>
<!-- Node9&#45;&gt;Node2 -->
<g id="edge8" class="edge">
<title>Node9&#45;&gt;Node2</title>
<path fill="none" stroke="#404040" d="M404.5,-452.18C388.24,-429.64 367.61,-406.11 343.86,-390 322.81,-375.72 309.8,-384.03 283.84,-372.11"/>
<polygon fill="none" stroke="#404040" points="283.81,-372.1 276.64,-372.82 273.21,-366.47 280.39,-365.75 283.81,-372.1"/>
<text text-anchor="middle" x="424.86" y="-409.5" font-family="Helvetica,sans-Serif" font-size="10.00"> #m_Dispatcher</text>
</g>
<!-- Node10 -->
<g id="node10" class="node">
<title>Node10</title>
<g id="a_node10"><a xlink:title=" ">
<polygon fill="white" stroke="#bfbfbf" points="337.36,-645.5 337.36,-702.5 450.36,-702.5 450.36,-645.5 337.36,-645.5"/>
<text text-anchor="middle" x="393.86" y="-690.5" font-family="Helvetica,sans-Serif" font-size="10.00">Sml::EventDispatcher</text>
<polyline fill="none" stroke="#bfbfbf" points="337.36,-683.5 450.36,-683.5 "/>
<text text-anchor="middle" x="393.86" y="-671.5" font-family="Helvetica,sans-Serif" font-size="10.00"> </text>
<polyline fill="none" stroke="#bfbfbf" points="337.36,-664.5 450.36,-664.5 "/>
<text text-anchor="middle" x="393.86" y="-652.5" font-family="Helvetica,sans-Serif" font-size="10.00"> </text>
</a>
</g>
</g>
<!-- Node10&#45;&gt;Node9 -->
<g id="edge9" class="edge">
<title>Node10&#45;&gt;Node9</title>
<path fill="none" stroke="midnightblue" d="M406.12,-635.61C410.97,-620.81 416.7,-603.35 422.2,-586.56"/>
<polygon fill="none" stroke="midnightblue" points="402.71,-634.79 402.92,-645.38 409.36,-636.97 402.71,-634.79"/>
</g>
<!-- Node11 -->
<g id="node11" class="node">
<title>Node11</title>
<g id="a_node11"><a xlink:title=" ">
<polygon fill="white" stroke="#bfbfbf" points="468.86,-645.5 468.86,-702.5 516.86,-702.5 516.86,-645.5 468.86,-645.5"/>
<text text-anchor="middle" x="492.86" y="-690.5" font-family="Helvetica,sans-Serif" font-size="10.00">Notifier</text>
<polyline fill="none" stroke="#bfbfbf" points="468.86,-683.5 516.86,-683.5 "/>
<text text-anchor="middle" x="492.86" y="-671.5" font-family="Helvetica,sans-Serif" font-size="10.00"> </text>
<polyline fill="none" stroke="#bfbfbf" points="468.86,-664.5 516.86,-664.5 "/>
<text text-anchor="middle" x="492.86" y="-652.5" font-family="Helvetica,sans-Serif" font-size="10.00"> </text>
</a>
</g>
</g>
<!-- Node11&#45;&gt;Node9 -->
<g id="edge10" class="edge">
<title>Node11&#45;&gt;Node9</title>
<path fill="none" stroke="#404040" d="M483.99,-645.38C479.69,-631.99 474.28,-615.17 468.84,-598.25"/>
<polygon fill="none" stroke="#404040" points="468.76,-597.98 463.11,-593.49 465.09,-586.56 470.73,-591.05 468.76,-597.98"/>
<text text-anchor="middle" x="522.86" y="-619" font-family="Helvetica,sans-Serif" font-size="10.00"> #m_FiltersNotifier</text>
<text text-anchor="middle" x="522.86" y="-608" font-family="Helvetica,sans-Serif" font-size="10.00">#m_HandlersNotifier</text>
</g>
<!-- Node12&#45;&gt;Node2 -->
<g id="edge11" class="edge">
<title>Node12&#45;&gt;Node2</title>
<path fill="none" stroke="#404040" d="M301.14,-463.44C293.22,-440.2 282.86,-413.21 270.86,-390 269.54,-387.44 268.15,-384.87 266.72,-382.29"/>
<polygon fill="none" stroke="#404040" points="266.61,-382.09 260.13,-378.91 260.58,-371.72 267.05,-374.9 266.61,-382.09"/>
<text text-anchor="middle" x="314.86" y="-409.5" font-family="Helvetica,sans-Serif" font-size="10.00"> #m_Scene</text>
</g>
<!-- Node13&#45;&gt;Node2 -->
<g id="edge13" class="edge">
<title>Node13&#45;&gt;Node2</title>
<path fill="none" stroke="#404040" d="M530.63,-109.2C458.37,-127.51 344.68,-155.94 245.86,-179 209.52,-187.48 187.25,-167.93 163.86,-197 159.65,-202.24 157.43,-207.94 156.74,-213.87"/>
<polygon fill="none" stroke="#404040" points="156.76,-214.31 161.03,-220.12 157.32,-226.3 153.04,-220.49 156.76,-214.31"/>
<text text-anchor="middle" x="189.36" y="-200" font-family="Helvetica,sans-Serif" font-size="10.00"> #m_Parent</text>
</g>
<!-- Node14 -->
<g id="node14" class="node">
<title>Node14</title>
<g id="a_node14"><a xlink:title=" ">
<polygon fill="white" stroke="#bfbfbf" points="586.36,-270.5 586.36,-327.5 621.36,-327.5 621.36,-270.5 586.36,-270.5"/>
<text text-anchor="middle" x="603.86" y="-315.5" font-family="Helvetica,sans-Serif" font-size="10.00">list&lt;</text>
<polyline fill="none" stroke="#bfbfbf" points="586.36,-308.5 621.36,-308.5 "/>
<text text-anchor="middle" x="603.86" y="-296.5" font-family="Helvetica,sans-Serif" font-size="10.00"> </text>
<polyline fill="none" stroke="#bfbfbf" points="586.36,-289.5 621.36,-289.5 "/>
<text text-anchor="middle" x="603.86" y="-277.5" font-family="Helvetica,sans-Serif" font-size="10.00"> </text>
</a>
</g>
</g>
<!-- Node14&#45;&gt;Node13 -->
<g id="edge15" class="edge">
<title>Node14&#45;&gt;Node13</title>
<path fill="none" stroke="#404040" d="M603.86,-270.45C603.86,-249.81 603.86,-220.2 603.86,-190.95"/>
<polygon fill="none" stroke="#404040" points="603.86,-190.9 599.86,-184.9 603.86,-178.9 607.86,-184.9 603.86,-190.9"/>
<text text-anchor="middle" x="632.86" y="-200" font-family="Helvetica,sans-Serif" font-size="10.00"> #m_Children</text>
</g>
<!-- Node15 -->
<g id="node15" class="node">
<title>Node15</title>
<g id="a_node15"><a xlink:title=" ">
<polygon fill="white" stroke="#bfbfbf" points="656.86,-270.5 656.86,-327.5 712.86,-327.5 712.86,-270.5 656.86,-270.5"/>
<text text-anchor="middle" x="684.86" y="-315.5" font-family="Helvetica,sans-Serif" font-size="10.00">Texture *</text>
<polyline fill="none" stroke="#bfbfbf" points="656.86,-308.5 712.86,-308.5 "/>
<text text-anchor="middle" x="684.86" y="-296.5" font-family="Helvetica,sans-Serif" font-size="10.00"> </text>
<polyline fill="none" stroke="#bfbfbf" points="656.86,-289.5 712.86,-289.5 "/>
<text text-anchor="middle" x="684.86" y="-277.5" font-family="Helvetica,sans-Serif" font-size="10.00"> </text>
</a>
</g>
</g>
<!-- Node15&#45;&gt;Node13 -->
<g id="edge16" class="edge">
<title>Node15&#45;&gt;Node13</title>
<path fill="none" stroke="#404040" d="M681.07,-270.37C677.71,-249.72 671.91,-221.02 662.86,-197 661.97,-194.64 661.04,-192.28 660.07,-189.9"/>
<polygon fill="none" stroke="#404040" points="660.02,-189.8 653.97,-185.88 655.26,-178.78 661.31,-182.7 660.02,-189.8"/>
<text text-anchor="middle" x="697.86" y="-200" font-family="Helvetica,sans-Serif" font-size="10.00"> #m_Snapshot</text>
</g>
<!-- Node16 -->
<g id="node16" class="node">
<title>Node16</title>
<g id="a_node16"><a xlink:href="class_sgl_1_1_background.html" target="_top" xlink:title=" ">
<polygon fill="white" stroke="black" points="430.36,-237.5 430.36,-360.5 519.36,-360.5 519.36,-237.5 430.36,-237.5"/>
<text text-anchor="middle" x="474.86" y="-348.5" font-family="Helvetica,sans-Serif" font-size="10.00">Sgl::Background</text>
<polyline fill="none" stroke="black" points="430.36,-341.5 519.36,-341.5 "/>
<text text-anchor="middle" x="474.86" y="-329.5" font-family="Helvetica,sans-Serif" font-size="10.00"> </text>
<polyline fill="none" stroke="black" points="430.36,-322.5 519.36,-322.5 "/>
<text text-anchor="start" x="438.36" y="-310.5" font-family="Helvetica,sans-Serif" font-size="10.00">+ Background()</text>
<text text-anchor="start" x="438.36" y="-299.5" font-family="Helvetica,sans-Serif" font-size="10.00">+ Background()</text>
<text text-anchor="start" x="438.36" y="-288.5" font-family="Helvetica,sans-Serif" font-size="10.00">+ Background()</text>
<text text-anchor="start" x="438.36" y="-277.5" font-family="Helvetica,sans-Serif" font-size="10.00">+ Background()</text>
<text text-anchor="start" x="438.36" y="-266.5" font-family="Helvetica,sans-Serif" font-size="10.00">+ addFill()</text>
<text text-anchor="start" x="438.36" y="-255.5" font-family="Helvetica,sans-Serif" font-size="10.00">and 5 more...</text>
<text text-anchor="start" x="438.36" y="-244.5" font-family="Helvetica,sans-Serif" font-size="10.00">+ fillArea()</text>
</a>
</g>
</g>
<!-- Node16&#45;&gt;Node1 -->
<g id="edge26" class="edge">
<title>Node16&#45;&gt;Node1</title>
<path fill="none" stroke="#404040" d="M430.23,-239.1C417.49,-224.36 402.94,-209.27 387.86,-197 344.89,-162.03 288.83,-132.44 248.39,-113.4"/>
<polygon fill="none" stroke="#404040" points="248.31,-113.36 241.18,-114.46 237.42,-108.31 244.55,-107.2 248.31,-113.36"/>
<text text-anchor="middle" x="435.86" y="-200" font-family="Helvetica,sans-Serif" font-size="10.00"> #m_Background</text>
</g>
<!-- Node16&#45;&gt;Node13 -->
<g id="edge18" class="edge">
<title>Node16&#45;&gt;Node13</title>
<path fill="none" stroke="#404040" d="M503.47,-237.3C510.4,-223.8 518.06,-209.73 525.86,-197 527.54,-194.26 529.28,-191.49 531.05,-188.72"/>
<polygon fill="none" stroke="#404040" points="531.06,-188.7 530.99,-181.49 537.62,-178.66 537.69,-185.87 531.06,-188.7"/>
<text text-anchor="middle" x="562.86" y="-200" font-family="Helvetica,sans-Serif" font-size="10.00"> #m_Background</text>
</g>
<!-- Node17 -->
<g id="node17" class="node">
<title>Node17</title>
<g id="a_node17"><a xlink:href="class_sgl_1_1_border.html" target="_top" xlink:title=" ">
<polygon fill="white" stroke="black" points="290.86,-243 290.86,-355 380.86,-355 380.86,-243 290.86,-243"/>
<text text-anchor="middle" x="335.86" y="-343" font-family="Helvetica,sans-Serif" font-size="10.00">Sgl::Border</text>
<polyline fill="none" stroke="black" points="290.86,-336 380.86,-336 "/>
<text text-anchor="middle" x="335.86" y="-324" font-family="Helvetica,sans-Serif" font-size="10.00"> </text>
<polyline fill="none" stroke="black" points="290.86,-317 380.86,-317 "/>
<text text-anchor="start" x="298.86" y="-305" font-family="Helvetica,sans-Serif" font-size="10.00">+ Border()</text>
<text text-anchor="start" x="298.86" y="-294" font-family="Helvetica,sans-Serif" font-size="10.00">+ Border()</text>
<text text-anchor="start" x="298.86" y="-283" font-family="Helvetica,sans-Serif" font-size="10.00">+ Border()</text>
<text text-anchor="start" x="298.86" y="-272" font-family="Helvetica,sans-Serif" font-size="10.00">+ getThickness()</text>
<text text-anchor="start" x="298.86" y="-261" font-family="Helvetica,sans-Serif" font-size="10.00">+ getColor()</text>
<text text-anchor="start" x="298.86" y="-250" font-family="Helvetica,sans-Serif" font-size="10.00">+ encloseArea()</text>
</a>
</g>
</g>
<!-- Node17&#45;&gt;Node1 -->
<g id="edge27" class="edge">
<title>Node17&#45;&gt;Node1</title>
<path fill="none" stroke="#404040" d="M296.12,-242.97C291.45,-237.13 286.64,-231.37 281.86,-226 274.12,-217.32 270.04,-217.15 262.86,-208 250.44,-192.17 238.82,-173.76 228.87,-156.29"/>
<polygon fill="none" stroke="#404040" points="228.73,-156.04 222.31,-152.74 222.89,-145.56 229.3,-148.85 228.73,-156.04"/>
<text text-anchor="middle" x="288.36" y="-200" font-family="Helvetica,sans-Serif" font-size="10.00"> #m_Border</text>
</g>
<!-- Node17&#45;&gt;Node13 -->
<g id="edge19" class="edge">
<title>Node17&#45;&gt;Node13</title>
<path fill="none" stroke="#404040" d="M325.34,-242.88C325.08,-226.91 327.79,-210.24 336.86,-197 377.51,-137.65 457.03,-111.37 518.76,-99.74"/>
<polygon fill="none" stroke="#404040" points="519.04,-99.69 524.25,-94.71 530.86,-97.6 525.64,-102.59 519.04,-99.69"/>
<text text-anchor="middle" x="362.36" y="-200" font-family="Helvetica,sans-Serif" font-size="10.00"> #m_Border</text>
</g>
<!-- Node18&#45;&gt;Node13 -->
<g id="edge20" class="edge">
<title>Node18&#45;&gt;Node13</title>
<path fill="none" stroke="#404040" d="M1010.95,-242.81C1005.63,-236.74 999.89,-230.97 993.86,-226 905.03,-152.87 774.25,-118.17 689.06,-102.47"/>
<polygon fill="none" stroke="#404040" points="688.91,-102.44 682.3,-105.32 677.1,-100.33 683.71,-97.45 688.91,-102.44"/>
<text text-anchor="middle" x="995.86" y="-200" font-family="Helvetica,sans-Serif" font-size="10.00"> #m_Padding</text>
</g>
<!-- Node18&#45;&gt;Node18 -->
<g id="edge21" class="edge">
<title>Node18&#45;&gt;Node18</title>
<path fill="none" stroke="#404040" d="M1087.37,-316.81C1097.63,-315.72 1105.36,-309.78 1105.36,-299 1105.36,-292.94 1102.91,-288.4 1098.95,-285.4"/>
<polygon fill="none" stroke="#404040" points="1098.64,-285.29 1091.64,-287 1087.37,-281.19 1094.37,-279.48 1098.64,-285.29"/>
<text text-anchor="middle" x="1127.36" y="-296.5" font-family="Helvetica,sans-Serif" font-size="10.00"> +EMPTY</text>
</g>
<!-- Node19 -->
<g id="node19" class="node">
<title>Node19</title>
<g id="a_node19"><a xlink:title=" ">
<polygon fill="white" stroke="#bfbfbf" points="529.36,-491 529.36,-548 596.36,-548 596.36,-491 529.36,-491"/>
<text text-anchor="middle" x="562.86" y="-536" font-family="Helvetica,sans-Serif" font-size="10.00">Rectangle&lt;</text>
<polyline fill="none" stroke="#bfbfbf" points="529.36,-529 596.36,-529 "/>
<text text-anchor="middle" x="562.86" y="-517" font-family="Helvetica,sans-Serif" font-size="10.00"> </text>
<polyline fill="none" stroke="#bfbfbf" points="529.36,-510 596.36,-510 "/>
<text text-anchor="middle" x="562.86" y="-498" font-family="Helvetica,sans-Serif" font-size="10.00"> </text>
</a>
</g>
</g>
<!-- Node19&#45;&gt;Node2 -->
<g id="edge24" class="edge">
<title>Node19&#45;&gt;Node2</title>
<path fill="none" stroke="#404040" d="M550.78,-490.94C535.54,-460 506.1,-411.32 463.86,-390 394.7,-355.09 358.89,-401.73 284.56,-372.36"/>
<polygon fill="none" stroke="#404040" points="284.31,-372.25 277.21,-373.52 273.31,-367.45 280.41,-366.18 284.31,-372.25"/>
<text text-anchor="middle" x="556.36" y="-409.5" font-family="Helvetica,sans-Serif" font-size="10.00"> #m_LayoutBounds</text>
</g>
<!-- Node20 -->
<g id="node20" class="node">
<title>Node20</title>
<g id="a_node20"><a xlink:title=" ">
<polygon fill="white" stroke="#bfbfbf" points="36.86,-270.5 36.86,-327.5 76.86,-327.5 76.86,-270.5 36.86,-270.5"/>
<text text-anchor="middle" x="56.86" y="-315.5" font-family="Helvetica,sans-Serif" font-size="10.00">Color</text>
<polyline fill="none" stroke="#bfbfbf" points="36.86,-308.5 76.86,-308.5 "/>
<text text-anchor="middle" x="56.86" y="-296.5" font-family="Helvetica,sans-Serif" font-size="10.00"> </text>
<polyline fill="none" stroke="#bfbfbf" points="36.86,-289.5 76.86,-289.5 "/>
<text text-anchor="middle" x="56.86" y="-277.5" font-family="Helvetica,sans-Serif" font-size="10.00"> </text>
</a>
</g>
</g>
<!-- Node20&#45;&gt;Node1 -->
<g id="edge25" class="edge">
<title>Node20&#45;&gt;Node1</title>
<path fill="none" stroke="#404040" d="M58.7,-270.22C61.13,-248.96 66.77,-219.55 79.86,-197 95.89,-169.38 121.45,-144.79 144.5,-126.22"/>
<polygon fill="none" stroke="#404040" points="144.73,-126.03 146.99,-119.19 154.18,-118.64 151.92,-125.49 144.73,-126.03"/>
<text text-anchor="middle" x="108.86" y="-200" font-family="Helvetica,sans-Serif" font-size="10.00"> #m_FillColor</text>
</g>
</g>
</svg>
        <g id="navigator" transform="translate(0 0)" fill="#404254">
                <rect fill="#f2f5e9" fill-opacity="0.5" stroke="#606060" stroke-width=".5" x="0" y="0" width="60" height="60"/>
                <use id="zoomplus" xlink:href="#zoomPlus" x="17" y="9" onmousedown="handleZoom(evt,'in')"/>
                <use id="zoomminus" xlink:href="#zoomMin" x="42" y="9" onmousedown="handleZoom(evt,'out')"/>
                <use id="reset" xlink:href="#resetDef" x="30" y="36" onmousedown="handleReset()"/>
                <g id="arrowUp" xlink:href="#dirArrow" transform="translate(30 24)" onmousedown="handlePan(0,-1)">
                  <use xlink:href="#rim" fill="#404040">
                        <set attributeName="fill" to="#808080" begin="arrowUp.mouseover" end="arrowUp.mouseout"/>
                  </use>
                  <path fill="none" stroke="white" stroke-width="1.5" d="M0,-3.0v7 M-2.5,-0.5L0,-3.0L2.5,-0.5"/>
                </g>
                <g id="arrowRight" xlink:href="#dirArrow" transform="rotate(90) translate(36 -43)" onmousedown="handlePan(1,0)">
                  <use xlink:href="#rim" fill="#404040">
                        <set attributeName="fill" to="#808080" begin="arrowRight.mouseover" end="arrowRight.mouseout"/>
                  </use>
                  <path fill="none" stroke="white" stroke-width="1.5" d="M0,-3.0v7 M-2.5,-0.5L0,-3.0L2.5,-0.5"/>
                </g>
                <g id="arrowDown" xlink:href="#dirArrow" transform="rotate(180) translate(-30 -48)" onmousedown="handlePan(0,1)">
                  <use xlink:href="#rim" fill="#404040">
                        <set attributeName="fill" to="#808080" begin="arrowDown.mouseover" end="arrowDown.mouseout"/>
                  </use>
                  <path fill="none" stroke="white" stroke-width="1.5" d="M0,-3.0v7 M-2.5,-0.5L0,-3.0L2.5,-0.5"/>
                </g>
                <g id="arrowLeft" xlink:href="#dirArrow" transform="rotate(270) translate(-36 17)" onmousedown="handlePan(-1,0)">
                  <use xlink:href="#rim" fill="#404040">
                        <set attributeName="fill" to="#808080" begin="arrowLeft.mouseover" end="arrowLeft.mouseout"/>
                  </use>
                  <path fill="none" stroke="white" stroke-width="1.5" d="M0,-3.0v7 M-2.5,-0.5L0,-3.0L2.5,-0.5"/>
                </g>
        </g>
        <svg viewBox="0 0 15 15" width="100%" height="30px" preserveAspectRatio="xMaxYMin meet">
         <g id="arrow_out" transform="scale(0.3 0.3)">
          <a xlink:href="class_sgl_1_1_shape__coll__graph_org.svg" target="_base">
           <rect id="button" ry="5" rx="5" y="6" x="6" height="38" width="38"
                fill="#f2f5e9" fill-opacity="0.5" stroke="#606060" stroke-width="1.0"/>
           <path id="arrow"
             d="M 11.500037,31.436501 C 11.940474,20.09759 22.043105,11.32322 32.158766,21.979434 L 37.068811,17.246167 C 37.068811,17.246167 37.088388,32 37.088388,32 L 22.160133,31.978069 C 22.160133,31.978069 26.997745,27.140456 26.997745,27.140456 C 18.528582,18.264221 13.291696,25.230495 11.500037,31.436501 z"
             style="fill:#404040;"/>
          </a>
         </g>
        </svg>
</svg>
