<?xml version="1.0" encoding="UTF-8" standalone="no"?>
<!DOCTYPE svg PUBLIC "-//W3C//DTD SVG 1.1//EN"
 "http://www.w3.org/Graphics/SVG/1.1/DTD/svg11.dtd">
<!-- Generated by graphviz version 2.50.0 (20211204.2007)
 -->
<!-- Title: Sgl::DefaultSkins::SliderSkinDragListener Pages: 1 -->
<svg width="393pt" height="653pt"
 viewBox="0.00 0.00 392.87 653.00" xmlns="http://www.w3.org/2000/svg" xmlns:xlink="http://www.w3.org/1999/xlink">
<g id="graph0" class="graph" transform="scale(1 1) rotate(0) translate(4 649)">
<title>Sgl::DefaultSkins::SliderSkinDragListener</title>
<polygon fill="white" stroke="transparent" points="-4,4 -4,-649 388.87,-649 388.87,4 -4,4"/>
<!-- Node1 -->
<g id="node1" class="node">
<title>Node1</title>
<g id="a_node1"><a xlink:title=" ">
<polygon fill="#bfbfbf" stroke="black" points="126.87,-0.5 126.87,-101.5 257.87,-101.5 257.87,-0.5 126.87,-0.5"/>
<text text-anchor="start" x="134.87" y="-89.5" font-family="Helvetica,sans-Serif" font-size="10.00">Sgl::DefaultSkins::</text>
<text text-anchor="middle" x="192.37" y="-78.5" font-family="Helvetica,sans-Serif" font-size="10.00">SliderSkinDragListener</text>
<polyline fill="none" stroke="black" points="126.87,-71.5 257.87,-71.5 "/>
<text text-anchor="middle" x="192.37" y="-59.5" font-family="Helvetica,sans-Serif" font-size="10.00"> </text>
<polyline fill="none" stroke="black" points="126.87,-52.5 257.87,-52.5 "/>
<text text-anchor="start" x="134.87" y="-40.5" font-family="Helvetica,sans-Serif" font-size="10.00">+ SliderSkinDragListener()</text>
<text text-anchor="start" x="134.87" y="-29.5" font-family="Helvetica,sans-Serif" font-size="10.00">+ updateValue()</text>
<text text-anchor="start" x="134.87" y="-18.5" font-family="Helvetica,sans-Serif" font-size="10.00">+ onDragStart()</text>
<text text-anchor="start" x="134.87" y="-7.5" font-family="Helvetica,sans-Serif" font-size="10.00">+ onDragMove()</text>
</a>
</g>
</g>
<!-- Node2 -->
<g id="node2" class="node">
<title>Node2</title>
<g id="a_node2"><a xlink:href="class_sgl_1_1_drag_listener.html" target="_top" xlink:title=" ">
<polygon fill="white" stroke="black" points="113.37,-139.5 113.37,-262.5 271.37,-262.5 271.37,-139.5 113.37,-139.5"/>
<text text-anchor="start" x="121.37" y="-250.5" font-family="Helvetica,sans-Serif" font-size="10.00">Sgl::DragListener&lt;</text>
<text text-anchor="middle" x="192.37" y="-239.5" font-family="Helvetica,sans-Serif" font-size="10.00"> Slider &gt;</text>
<polyline fill="none" stroke="black" points="113.37,-232.5 271.37,-232.5 "/>
<text text-anchor="middle" x="192.37" y="-220.5" font-family="Helvetica,sans-Serif" font-size="10.00"> </text>
<polyline fill="none" stroke="black" points="113.37,-213.5 271.37,-213.5 "/>
<text text-anchor="start" x="121.37" y="-201.5" font-family="Helvetica,sans-Serif" font-size="10.00">+ DEFINE_STATIC_LISTENED</text>
<text text-anchor="start" x="121.37" y="-190.5" font-family="Helvetica,sans-Serif" font-size="10.00">_EVENT_TYPES()</text>
<text text-anchor="start" x="121.37" y="-179.5" font-family="Helvetica,sans-Serif" font-size="10.00">+ onEvent()</text>
<text text-anchor="start" x="121.37" y="-168.5" font-family="Helvetica,sans-Serif" font-size="10.00">+ onDragStart()</text>
<text text-anchor="start" x="121.37" y="-157.5" font-family="Helvetica,sans-Serif" font-size="10.00">+ onDragEnd()</text>
<text text-anchor="start" x="121.37" y="-146.5" font-family="Helvetica,sans-Serif" font-size="10.00">+ onDragMove()</text>
</a>
</g>
</g>
<!-- Node2&#45;&gt;Node1 -->
<g id="edge1" class="edge">
<title>Node2&#45;&gt;Node1</title>
<path fill="none" stroke="midnightblue" d="M192.37,-129.37C192.37,-120.1 192.37,-110.75 192.37,-101.92"/>
<polygon fill="none" stroke="midnightblue" points="188.87,-129.38 192.37,-139.38 195.87,-129.38 188.87,-129.38"/>
</g>
<!-- Node3 -->
<g id="node3" class="node">
<title>Node3</title>
<g id="a_node3"><a xlink:href="class_sgl_1_1_component_event_listener.html" target="_top" xlink:title=" ">
<polygon fill="white" stroke="black" points="33.87,-321.5 33.87,-411.5 180.87,-411.5 180.87,-321.5 33.87,-321.5"/>
<text text-anchor="start" x="41.87" y="-399.5" font-family="Helvetica,sans-Serif" font-size="10.00">Sgl::ComponentEventListener</text>
<text text-anchor="middle" x="107.37" y="-388.5" font-family="Helvetica,sans-Serif" font-size="10.00">&lt; Slider &gt;</text>
<polyline fill="none" stroke="black" points="33.87,-381.5 180.87,-381.5 "/>
<text text-anchor="middle" x="107.37" y="-369.5" font-family="Helvetica,sans-Serif" font-size="10.00"> </text>
<polyline fill="none" stroke="black" points="33.87,-362.5 180.87,-362.5 "/>
<text text-anchor="start" x="41.87" y="-350.5" font-family="Helvetica,sans-Serif" font-size="10.00">+ ComponentEventListener()</text>
<text text-anchor="start" x="41.87" y="-339.5" font-family="Helvetica,sans-Serif" font-size="10.00">+ getComponent()</text>
<text text-anchor="start" x="41.87" y="-328.5" font-family="Helvetica,sans-Serif" font-size="10.00">+ setComponent()</text>
</a>
</g>
</g>
<!-- Node3&#45;&gt;Node2 -->
<g id="edge2" class="edge">
<title>Node3&#45;&gt;Node2</title>
<path fill="none" stroke="midnightblue" d="M135.12,-312.13C143.36,-296.29 152.44,-278.82 160.9,-262.55"/>
<polygon fill="none" stroke="midnightblue" points="131.88,-310.77 130.38,-321.25 138.09,-314 131.88,-310.77"/>
</g>
<!-- Node4 -->
<g id="node4" class="node">
<title>Node4</title>
<g id="a_node4"><a xlink:title=" ">
<polygon fill="white" stroke="#bfbfbf" points="70.37,-587.5 70.37,-644.5 144.37,-644.5 144.37,-587.5 70.37,-587.5"/>
<text text-anchor="middle" x="107.37" y="-632.5" font-family="Helvetica,sans-Serif" font-size="10.00">Sml::Listener</text>
<polyline fill="none" stroke="#bfbfbf" points="70.37,-625.5 144.37,-625.5 "/>
<text text-anchor="middle" x="107.37" y="-613.5" font-family="Helvetica,sans-Serif" font-size="10.00"> </text>
<polyline fill="none" stroke="#bfbfbf" points="70.37,-606.5 144.37,-606.5 "/>
<text text-anchor="middle" x="107.37" y="-594.5" font-family="Helvetica,sans-Serif" font-size="10.00"> </text>
</a>
</g>
</g>
<!-- Node4&#45;&gt;Node3 -->
<g id="edge3" class="edge">
<title>Node4&#45;&gt;Node3</title>
<path fill="none" stroke="midnightblue" d="M61,-595.65C42.02,-585.13 22.04,-570.11 11.37,-550 -5.29,-518.59 -1.69,-503.07 11.37,-470 20.07,-448.01 35.95,-427.96 52.34,-411.55"/>
<polygon fill="none" stroke="midnightblue" points="59.42,-598.77 69.9,-600.3 62.66,-592.57 59.42,-598.77"/>
</g>
<!-- Node5 -->
<g id="node5" class="node">
<title>Node5</title>
<g id="a_node5"><a xlink:href="class_sgl_1_1_component_event_listener.html" target="_top" xlink:title=" ">
<polygon fill="white" stroke="black" points="20.87,-470.5 20.87,-549.5 193.87,-549.5 193.87,-470.5 20.87,-470.5"/>
<text text-anchor="middle" x="107.37" y="-537.5" font-family="Helvetica,sans-Serif" font-size="10.00">Sgl::ComponentEventListener&lt; C &gt;</text>
<polyline fill="none" stroke="black" points="20.87,-530.5 193.87,-530.5 "/>
<text text-anchor="middle" x="107.37" y="-518.5" font-family="Helvetica,sans-Serif" font-size="10.00"> </text>
<polyline fill="none" stroke="black" points="20.87,-511.5 193.87,-511.5 "/>
<text text-anchor="start" x="28.87" y="-499.5" font-family="Helvetica,sans-Serif" font-size="10.00">+ ComponentEventListener()</text>
<text text-anchor="start" x="28.87" y="-488.5" font-family="Helvetica,sans-Serif" font-size="10.00">+ getComponent()</text>
<text text-anchor="start" x="28.87" y="-477.5" font-family="Helvetica,sans-Serif" font-size="10.00">+ setComponent()</text>
</a>
</g>
</g>
<!-- Node4&#45;&gt;Node5 -->
<g id="edge5" class="edge">
<title>Node4&#45;&gt;Node5</title>
<path fill="none" stroke="midnightblue" d="M107.37,-577.23C107.37,-568.27 107.37,-558.69 107.37,-549.69"/>
<polygon fill="none" stroke="midnightblue" points="103.87,-577.4 107.37,-587.4 110.87,-577.4 103.87,-577.4"/>
</g>
<!-- Node7 -->
<g id="node7" class="node">
<title>Node7</title>
<g id="a_node7"><a xlink:href="class_sgl_1_1_component_event_listener.html" target="_top" xlink:title=" ">
<polygon fill="white" stroke="black" points="211.87,-470.5 211.87,-549.5 384.87,-549.5 384.87,-470.5 211.87,-470.5"/>
<text text-anchor="middle" x="298.37" y="-537.5" font-family="Helvetica,sans-Serif" font-size="10.00">Sgl::ComponentEventListener&lt; C &gt;</text>
<polyline fill="none" stroke="black" points="211.87,-530.5 384.87,-530.5 "/>
<text text-anchor="middle" x="298.37" y="-518.5" font-family="Helvetica,sans-Serif" font-size="10.00"> </text>
<polyline fill="none" stroke="black" points="211.87,-511.5 384.87,-511.5 "/>
<text text-anchor="start" x="219.87" y="-499.5" font-family="Helvetica,sans-Serif" font-size="10.00">+ ComponentEventListener()</text>
<text text-anchor="start" x="219.87" y="-488.5" font-family="Helvetica,sans-Serif" font-size="10.00">+ getComponent()</text>
<text text-anchor="start" x="219.87" y="-477.5" font-family="Helvetica,sans-Serif" font-size="10.00">+ setComponent()</text>
</a>
</g>
</g>
<!-- Node4&#45;&gt;Node7 -->
<g id="edge8" class="edge">
<title>Node4&#45;&gt;Node7</title>
<path fill="none" stroke="midnightblue" d="M153.53,-589.87C175.72,-577.78 202.82,-563.03 227.55,-549.56"/>
<polygon fill="none" stroke="midnightblue" points="151.76,-586.84 144.65,-594.7 155.11,-592.99 151.76,-586.84"/>
</g>
<!-- Node5&#45;&gt;Node3 -->
<g id="edge4" class="edge">
<title>Node5&#45;&gt;Node3</title>
<path fill="none" stroke="orange" d="M107.37,-460.23C107.37,-444.45 107.37,-427.04 107.37,-411.62"/>
<polygon fill="orange" stroke="orange" points="103.87,-460.33 107.37,-470.33 110.87,-460.33 103.87,-460.33"/>
<text text-anchor="middle" x="130.37" y="-444" font-family="Helvetica,sans-Serif" font-size="10.00"> &lt; Slider &gt;</text>
</g>
<!-- Node6 -->
<g id="node6" class="node">
<title>Node6</title>
<g id="a_node6"><a xlink:href="class_sgl_1_1_drag_listener.html" target="_top" xlink:title=" ">
<polygon fill="white" stroke="black" points="209.37,-310.5 209.37,-422.5 367.37,-422.5 367.37,-310.5 209.37,-310.5"/>
<text text-anchor="middle" x="288.37" y="-410.5" font-family="Helvetica,sans-Serif" font-size="10.00">Sgl::DragListener&lt; C &gt;</text>
<polyline fill="none" stroke="black" points="209.37,-403.5 367.37,-403.5 "/>
<text text-anchor="middle" x="288.37" y="-391.5" font-family="Helvetica,sans-Serif" font-size="10.00"> </text>
<polyline fill="none" stroke="black" points="209.37,-384.5 367.37,-384.5 "/>
<text text-anchor="start" x="217.37" y="-372.5" font-family="Helvetica,sans-Serif" font-size="10.00">+ DEFINE_STATIC_LISTENED</text>
<text text-anchor="start" x="217.37" y="-361.5" font-family="Helvetica,sans-Serif" font-size="10.00">_EVENT_TYPES()</text>
<text text-anchor="start" x="217.37" y="-350.5" font-family="Helvetica,sans-Serif" font-size="10.00">+ onEvent()</text>
<text text-anchor="start" x="217.37" y="-339.5" font-family="Helvetica,sans-Serif" font-size="10.00">+ onDragStart()</text>
<text text-anchor="start" x="217.37" y="-328.5" font-family="Helvetica,sans-Serif" font-size="10.00">+ onDragEnd()</text>
<text text-anchor="start" x="217.37" y="-317.5" font-family="Helvetica,sans-Serif" font-size="10.00">+ onDragMove()</text>
</a>
</g>
</g>
<!-- Node6&#45;&gt;Node2 -->
<g id="edge6" class="edge">
<title>Node6&#45;&gt;Node2</title>
<path fill="none" stroke="orange" d="M250.75,-301.42C243.25,-288.65 235.4,-275.28 227.97,-262.63"/>
<polygon fill="orange" stroke="orange" points="247.79,-303.3 255.87,-310.15 253.83,-299.75 247.79,-303.3"/>
<text text-anchor="middle" x="265.37" y="-284" font-family="Helvetica,sans-Serif" font-size="10.00"> &lt; Slider &gt;</text>
</g>
<!-- Node7&#45;&gt;Node6 -->
<g id="edge7" class="edge">
<title>Node7&#45;&gt;Node6</title>
<path fill="none" stroke="midnightblue" d="M294.91,-460C294.06,-447.92 293.14,-434.91 292.27,-422.56"/>
<polygon fill="none" stroke="midnightblue" points="291.45,-460.61 295.64,-470.33 298.43,-460.11 291.45,-460.61"/>
</g>
</g>
</svg>
