<?xml version="1.0" encoding="UTF-8" standalone="no"?>
<!DOCTYPE svg PUBLIC "-//W3C//DTD SVG 1.1//EN"
 "http://www.w3.org/Graphics/SVG/1.1/DTD/svg11.dtd">
<!-- Generated by graphviz version 2.50.0 (20211204.2007)
 -->
<!-- Title: Sgl::ColorFill Pages: 1 -->
<svg width="141pt" height="248pt"
 viewBox="0.00 0.00 141.00 248.00" xmlns="http://www.w3.org/2000/svg" xmlns:xlink="http://www.w3.org/1999/xlink">
<g id="graph0" class="graph" transform="scale(1 1) rotate(0) translate(4 244)">
<title>Sgl::ColorFill</title>
<polygon fill="white" stroke="transparent" points="-4,4 -4,-244 137,-244 137,4 -4,4"/>
<!-- Node1 -->
<g id="node1" class="node">
<title>Node1</title>
<g id="a_node1"><a xlink:title=" ">
<polygon fill="#bfbfbf" stroke="black" points="30.5,-0.5 30.5,-112.5 103.5,-112.5 103.5,-0.5 30.5,-0.5"/>
<text text-anchor="middle" x="67" y="-100.5" font-family="Helvetica,sans-Serif" font-size="10.00">Sgl::ColorFill</text>
<polyline fill="none" stroke="black" points="30.5,-93.5 103.5,-93.5 "/>
<text text-anchor="middle" x="67" y="-81.5" font-family="Helvetica,sans-Serif" font-size="10.00"> </text>
<polyline fill="none" stroke="black" points="30.5,-74.5 103.5,-74.5 "/>
<text text-anchor="start" x="38.5" y="-62.5" font-family="Helvetica,sans-Serif" font-size="10.00">+ ColorFill()</text>
<text text-anchor="start" x="38.5" y="-51.5" font-family="Helvetica,sans-Serif" font-size="10.00">+ fillLine()</text>
<text text-anchor="start" x="38.5" y="-40.5" font-family="Helvetica,sans-Serif" font-size="10.00">+ fillArea()</text>
<text text-anchor="start" x="38.5" y="-29.5" font-family="Helvetica,sans-Serif" font-size="10.00">+ fillPoint()</text>
<text text-anchor="start" x="38.5" y="-18.5" font-family="Helvetica,sans-Serif" font-size="10.00">+ getColor()</text>
<text text-anchor="start" x="38.5" y="-7.5" font-family="Helvetica,sans-Serif" font-size="10.00">+ setColor()</text>
</a>
</g>
</g>
<!-- Node2 -->
<g id="node2" class="node">
<title>Node2</title>
<g id="a_node2"><a xlink:href="class_sgl_1_1_fill.html" target="_top" xlink:title=" ">
<polygon fill="white" stroke="black" points="0,-160.5 0,-239.5 64,-239.5 64,-160.5 0,-160.5"/>
<text text-anchor="middle" x="32" y="-227.5" font-family="Helvetica,sans-Serif" font-size="10.00">Sgl::Fill</text>
<polyline fill="none" stroke="black" points="0,-220.5 64,-220.5 "/>
<text text-anchor="middle" x="32" y="-208.5" font-family="Helvetica,sans-Serif" font-size="10.00"> </text>
<polyline fill="none" stroke="black" points="0,-201.5 64,-201.5 "/>
<text text-anchor="start" x="8" y="-189.5" font-family="Helvetica,sans-Serif" font-size="10.00">+ fillLine()</text>
<text text-anchor="start" x="8" y="-178.5" font-family="Helvetica,sans-Serif" font-size="10.00">+ fillArea()</text>
<text text-anchor="start" x="8" y="-167.5" font-family="Helvetica,sans-Serif" font-size="10.00">+ fillPoint()</text>
</a>
</g>
</g>
<!-- Node2&#45;&gt;Node1 -->
<g id="edge1" class="edge">
<title>Node2&#45;&gt;Node1</title>
<path fill="none" stroke="midnightblue" d="M44.03,-150.37C47.04,-138.19 50.3,-125.03 53.38,-112.56"/>
<polygon fill="none" stroke="midnightblue" points="40.57,-149.79 41.56,-160.33 47.36,-151.47 40.57,-149.79"/>
</g>
<!-- Node3 -->
<g id="node3" class="node">
<title>Node3</title>
<g id="a_node3"><a xlink:title=" ">
<polygon fill="white" stroke="#bfbfbf" points="82,-171.5 82,-228.5 122,-228.5 122,-171.5 82,-171.5"/>
<text text-anchor="middle" x="102" y="-216.5" font-family="Helvetica,sans-Serif" font-size="10.00">Color</text>
<polyline fill="none" stroke="#bfbfbf" points="82,-209.5 122,-209.5 "/>
<text text-anchor="middle" x="102" y="-197.5" font-family="Helvetica,sans-Serif" font-size="10.00"> </text>
<polyline fill="none" stroke="#bfbfbf" points="82,-190.5 122,-190.5 "/>
<text text-anchor="middle" x="102" y="-178.5" font-family="Helvetica,sans-Serif" font-size="10.00"> </text>
</a>
</g>
</g>
<!-- Node3&#45;&gt;Node1 -->
<g id="edge2" class="edge">
<title>Node3&#45;&gt;Node1</title>
<path fill="none" stroke="#404040" d="M95.17,-171.38C91.84,-157.92 87.68,-141.09 83.58,-124.53"/>
<polygon fill="none" stroke="#404040" points="83.5,-124.22 78.18,-119.36 80.62,-112.57 85.95,-117.44 83.5,-124.22"/>
<text text-anchor="middle" x="110" y="-134" font-family="Helvetica,sans-Serif" font-size="10.00"> #m_Color</text>
</g>
</g>
</svg>
