<?xml version="1.0" encoding="UTF-8" standalone="no"?>
<!DOCTYPE svg PUBLIC "-//W3C//DTD SVG 1.1//EN"
 "http://www.w3.org/Graphics/SVG/1.1/DTD/svg11.dtd">
<!-- Generated by graphviz version 2.50.0 (20211204.2007)
 -->
<!-- Title: Sgl::FocusListener&lt; C &gt; Pages: 1 -->
<svg width="510pt" height="555pt"
 viewBox="0.00 0.00 510.00 555.00" xmlns="http://www.w3.org/2000/svg" xmlns:xlink="http://www.w3.org/1999/xlink">
<g id="graph0" class="graph" transform="scale(1 1) rotate(0) translate(4 551)">
<title>Sgl::FocusListener&lt; C &gt;</title>
<polygon fill="white" stroke="transparent" points="-4,4 -4,-551 506,-551 506,4 -4,4"/>
<!-- Node1 -->
<g id="node1" class="node">
<title>Node1</title>
<g id="a_node1"><a xlink:title=" ">
<polygon fill="#bfbfbf" stroke="black" points="129,-244.5 129,-334.5 371,-334.5 371,-244.5 129,-244.5"/>
<text text-anchor="middle" x="250" y="-322.5" font-family="Helvetica,sans-Serif" font-size="10.00">Sgl::FocusListener&lt; C &gt;</text>
<polyline fill="none" stroke="black" points="129,-315.5 371,-315.5 "/>
<text text-anchor="middle" x="250" y="-303.5" font-family="Helvetica,sans-Serif" font-size="10.00"> </text>
<polyline fill="none" stroke="black" points="129,-296.5 371,-296.5 "/>
<text text-anchor="start" x="137" y="-284.5" font-family="Helvetica,sans-Serif" font-size="10.00">+ DEFINE_STATIC_LISTENED_EVENT_TYPES()</text>
<text text-anchor="start" x="137" y="-273.5" font-family="Helvetica,sans-Serif" font-size="10.00">+ onEvent()</text>
<text text-anchor="start" x="137" y="-262.5" font-family="Helvetica,sans-Serif" font-size="10.00">+ onFocusReceived()</text>
<text text-anchor="start" x="137" y="-251.5" font-family="Helvetica,sans-Serif" font-size="10.00">+ onFocusLost()</text>
</a>
</g>
</g>
<!-- Node4 -->
<g id="node4" class="node">
<title>Node4</title>
<g id="a_node4"><a xlink:href="class_sgl_1_1_focus_listener.html" target="_top" xlink:title=" ">
<polygon fill="white" stroke="black" points="0,-106.5 0,-196.5 242,-196.5 242,-106.5 0,-106.5"/>
<text text-anchor="middle" x="121" y="-184.5" font-family="Helvetica,sans-Serif" font-size="10.00">Sgl::FocusListener&lt; LayeredContainer &gt;</text>
<polyline fill="none" stroke="black" points="0,-177.5 242,-177.5 "/>
<text text-anchor="middle" x="121" y="-165.5" font-family="Helvetica,sans-Serif" font-size="10.00"> </text>
<polyline fill="none" stroke="black" points="0,-158.5 242,-158.5 "/>
<text text-anchor="start" x="8" y="-146.5" font-family="Helvetica,sans-Serif" font-size="10.00">+ DEFINE_STATIC_LISTENED_EVENT_TYPES()</text>
<text text-anchor="start" x="8" y="-135.5" font-family="Helvetica,sans-Serif" font-size="10.00">+ onEvent()</text>
<text text-anchor="start" x="8" y="-124.5" font-family="Helvetica,sans-Serif" font-size="10.00">+ onFocusReceived()</text>
<text text-anchor="start" x="8" y="-113.5" font-family="Helvetica,sans-Serif" font-size="10.00">+ onFocusLost()</text>
</a>
</g>
</g>
<!-- Node1&#45;&gt;Node4 -->
<g id="edge3" class="edge">
<title>Node1&#45;&gt;Node4</title>
<path fill="none" stroke="orange" d="M200.9,-236.73C188.45,-223.61 175.18,-209.62 163.11,-196.9"/>
<polygon fill="orange" stroke="orange" points="198.7,-239.5 208.12,-244.34 203.77,-234.68 198.7,-239.5"/>
<text text-anchor="middle" x="239" y="-218" font-family="Helvetica,sans-Serif" font-size="10.00"> &lt; LayeredContainer &gt;</text>
</g>
<!-- Node6 -->
<g id="node6" class="node">
<title>Node6</title>
<g id="a_node6"><a xlink:href="class_sgl_1_1_focus_listener.html" target="_top" xlink:title=" ">
<polygon fill="white" stroke="black" points="260,-106.5 260,-196.5 502,-196.5 502,-106.5 260,-106.5"/>
<text text-anchor="middle" x="381" y="-184.5" font-family="Helvetica,sans-Serif" font-size="10.00">Sgl::FocusListener&lt; ContextMenu &gt;</text>
<polyline fill="none" stroke="black" points="260,-177.5 502,-177.5 "/>
<text text-anchor="middle" x="381" y="-165.5" font-family="Helvetica,sans-Serif" font-size="10.00"> </text>
<polyline fill="none" stroke="black" points="260,-158.5 502,-158.5 "/>
<text text-anchor="start" x="268" y="-146.5" font-family="Helvetica,sans-Serif" font-size="10.00">+ DEFINE_STATIC_LISTENED_EVENT_TYPES()</text>
<text text-anchor="start" x="268" y="-135.5" font-family="Helvetica,sans-Serif" font-size="10.00">+ onEvent()</text>
<text text-anchor="start" x="268" y="-124.5" font-family="Helvetica,sans-Serif" font-size="10.00">+ onFocusReceived()</text>
<text text-anchor="start" x="268" y="-113.5" font-family="Helvetica,sans-Serif" font-size="10.00">+ onFocusLost()</text>
</a>
</g>
</g>
<!-- Node1&#45;&gt;Node6 -->
<g id="edge5" class="edge">
<title>Node1&#45;&gt;Node6</title>
<path fill="none" stroke="orange" d="M299.51,-237.1C312.26,-223.87 325.86,-209.74 338.23,-196.9"/>
<polygon fill="orange" stroke="orange" points="296.95,-234.71 292.53,-244.34 301.99,-239.57 296.95,-234.71"/>
<text text-anchor="middle" x="359" y="-218" font-family="Helvetica,sans-Serif" font-size="10.00"> &lt; ContextMenu &gt;</text>
</g>
<!-- Node2 -->
<g id="node2" class="node">
<title>Node2</title>
<g id="a_node2"><a xlink:href="class_sgl_1_1_component_event_listener.html" target="_top" xlink:title=" ">
<polygon fill="white" stroke="black" points="163.5,-372.5 163.5,-451.5 336.5,-451.5 336.5,-372.5 163.5,-372.5"/>
<text text-anchor="middle" x="250" y="-439.5" font-family="Helvetica,sans-Serif" font-size="10.00">Sgl::ComponentEventListener&lt; C &gt;</text>
<polyline fill="none" stroke="black" points="163.5,-432.5 336.5,-432.5 "/>
<text text-anchor="middle" x="250" y="-420.5" font-family="Helvetica,sans-Serif" font-size="10.00"> </text>
<polyline fill="none" stroke="black" points="163.5,-413.5 336.5,-413.5 "/>
<text text-anchor="start" x="171.5" y="-401.5" font-family="Helvetica,sans-Serif" font-size="10.00">+ ComponentEventListener()</text>
<text text-anchor="start" x="171.5" y="-390.5" font-family="Helvetica,sans-Serif" font-size="10.00">+ getComponent()</text>
<text text-anchor="start" x="171.5" y="-379.5" font-family="Helvetica,sans-Serif" font-size="10.00">+ setComponent()</text>
</a>
</g>
</g>
<!-- Node2&#45;&gt;Node1 -->
<g id="edge1" class="edge">
<title>Node2&#45;&gt;Node1</title>
<path fill="none" stroke="midnightblue" d="M250,-362.14C250,-353.05 250,-343.6 250,-334.66"/>
<polygon fill="none" stroke="midnightblue" points="246.5,-362.21 250,-372.21 253.5,-362.21 246.5,-362.21"/>
</g>
<!-- Node3 -->
<g id="node3" class="node">
<title>Node3</title>
<g id="a_node3"><a xlink:title=" ">
<polygon fill="white" stroke="#bfbfbf" points="213,-489.5 213,-546.5 287,-546.5 287,-489.5 213,-489.5"/>
<text text-anchor="middle" x="250" y="-534.5" font-family="Helvetica,sans-Serif" font-size="10.00">Sml::Listener</text>
<polyline fill="none" stroke="#bfbfbf" points="213,-527.5 287,-527.5 "/>
<text text-anchor="middle" x="250" y="-515.5" font-family="Helvetica,sans-Serif" font-size="10.00"> </text>
<polyline fill="none" stroke="#bfbfbf" points="213,-508.5 287,-508.5 "/>
<text text-anchor="middle" x="250" y="-496.5" font-family="Helvetica,sans-Serif" font-size="10.00"> </text>
</a>
</g>
</g>
<!-- Node3&#45;&gt;Node2 -->
<g id="edge2" class="edge">
<title>Node3&#45;&gt;Node2</title>
<path fill="none" stroke="midnightblue" d="M250,-479.23C250,-470.27 250,-460.69 250,-451.69"/>
<polygon fill="none" stroke="midnightblue" points="246.5,-479.4 250,-489.4 253.5,-479.4 246.5,-479.4"/>
</g>
<!-- Node5 -->
<g id="node5" class="node">
<title>Node5</title>
<g id="a_node5"><a xlink:href="class_focus_received_filter.html" target="_top" xlink:title=" ">
<polygon fill="white" stroke="black" points="60,-0.5 60,-68.5 182,-68.5 182,-0.5 60,-0.5"/>
<text text-anchor="middle" x="121" y="-56.5" font-family="Helvetica,sans-Serif" font-size="10.00">FocusReceivedFilter</text>
<polyline fill="none" stroke="black" points="60,-49.5 182,-49.5 "/>
<text text-anchor="middle" x="121" y="-37.5" font-family="Helvetica,sans-Serif" font-size="10.00"> </text>
<polyline fill="none" stroke="black" points="60,-30.5 182,-30.5 "/>
<text text-anchor="start" x="68" y="-18.5" font-family="Helvetica,sans-Serif" font-size="10.00">+ FocusReceivedFilter()</text>
<text text-anchor="start" x="68" y="-7.5" font-family="Helvetica,sans-Serif" font-size="10.00">+ onFocusReceived()</text>
</a>
</g>
</g>
<!-- Node4&#45;&gt;Node5 -->
<g id="edge4" class="edge">
<title>Node4&#45;&gt;Node5</title>
<path fill="none" stroke="midnightblue" d="M121,-96.23C121,-86.8 121,-77.26 121,-68.62"/>
<polygon fill="none" stroke="midnightblue" points="117.5,-96.37 121,-106.37 124.5,-96.37 117.5,-96.37"/>
</g>
<!-- Node7 -->
<g id="node7" class="node">
<title>Node7</title>
<g id="a_node7"><a xlink:href="class_sgl_1_1_context_menu_focus_filter.html" target="_top" xlink:title=" ">
<polygon fill="white" stroke="black" points="309,-0.5 309,-68.5 453,-68.5 453,-0.5 309,-0.5"/>
<text text-anchor="middle" x="381" y="-56.5" font-family="Helvetica,sans-Serif" font-size="10.00">Sgl::ContextMenuFocusFilter</text>
<polyline fill="none" stroke="black" points="309,-49.5 453,-49.5 "/>
<text text-anchor="middle" x="381" y="-37.5" font-family="Helvetica,sans-Serif" font-size="10.00"> </text>
<polyline fill="none" stroke="black" points="309,-30.5 453,-30.5 "/>
<text text-anchor="start" x="317" y="-18.5" font-family="Helvetica,sans-Serif" font-size="10.00">+ ContextMenuFocusFilter()</text>
<text text-anchor="start" x="317" y="-7.5" font-family="Helvetica,sans-Serif" font-size="10.00">+ onFocusLost()</text>
</a>
</g>
</g>
<!-- Node6&#45;&gt;Node7 -->
<g id="edge6" class="edge">
<title>Node6&#45;&gt;Node7</title>
<path fill="none" stroke="midnightblue" d="M381,-96.23C381,-86.8 381,-77.26 381,-68.62"/>
<polygon fill="none" stroke="midnightblue" points="377.5,-96.37 381,-106.37 384.5,-96.37 377.5,-96.37"/>
</g>
</g>
</svg>
