<?xml version="1.0" encoding="UTF-8" standalone="no"?>
<!DOCTYPE svg PUBLIC "-//W3C//DTD SVG 1.1//EN"
 "http://www.w3.org/Graphics/SVG/1.1/DTD/svg11.dtd">
<!-- Generated by graphviz version 2.50.0 (20211204.2007)
 -->
<!-- Title: Sgl::DefaultSkins::HorizontalScrollListener Pages: 1 -->
<svg width="211pt" height="171pt"
 viewBox="0.00 0.00 211.00 171.00" xmlns="http://www.w3.org/2000/svg" xmlns:xlink="http://www.w3.org/1999/xlink">
<g id="graph0" class="graph" transform="scale(1 1) rotate(0) translate(4 167)">
<title>Sgl::DefaultSkins::HorizontalScrollListener</title>
<polygon fill="white" stroke="transparent" points="-4,4 -4,-167 207,-167 207,4 -4,4"/>
<!-- Node1 -->
<g id="node1" class="node">
<title>Node1</title>
<g id="a_node1"><a xlink:title=" ">
<polygon fill="#bfbfbf" stroke="black" points="0,-0.5 0,-68.5 203,-68.5 203,-0.5 0,-0.5"/>
<text text-anchor="middle" x="101.5" y="-56.5" font-family="Helvetica,sans-Serif" font-size="10.00">Sgl::DefaultSkins::HorizontalScrollListener</text>
<polyline fill="none" stroke="black" points="0,-49.5 203,-49.5 "/>
<text text-anchor="middle" x="101.5" y="-37.5" font-family="Helvetica,sans-Serif" font-size="10.00"> </text>
<polyline fill="none" stroke="black" points="0,-30.5 203,-30.5 "/>
<text text-anchor="start" x="8" y="-18.5" font-family="Helvetica,sans-Serif" font-size="10.00">+ HorizontalScrollListener()</text>
<text text-anchor="start" x="8" y="-7.5" font-family="Helvetica,sans-Serif" font-size="10.00">+ onPropertyChange()</text>
</a>
</g>
</g>
<!-- Node2 -->
<g id="node2" class="node">
<title>Node2</title>
<g id="a_node2"><a xlink:title=" ">
<polygon fill="white" stroke="#bfbfbf" points="10.5,-105.5 10.5,-162.5 192.5,-162.5 192.5,-105.5 10.5,-105.5"/>
<text text-anchor="middle" x="101.5" y="-150.5" font-family="Helvetica,sans-Serif" font-size="10.00">Sml::PropertyChangeListener&lt; float &gt;</text>
<polyline fill="none" stroke="#bfbfbf" points="10.5,-143.5 192.5,-143.5 "/>
<text text-anchor="middle" x="101.5" y="-131.5" font-family="Helvetica,sans-Serif" font-size="10.00"> </text>
<polyline fill="none" stroke="#bfbfbf" points="10.5,-124.5 192.5,-124.5 "/>
<text text-anchor="middle" x="101.5" y="-112.5" font-family="Helvetica,sans-Serif" font-size="10.00"> </text>
</a>
</g>
</g>
<!-- Node2&#45;&gt;Node1 -->
<g id="edge1" class="edge">
<title>Node2&#45;&gt;Node1</title>
<path fill="none" stroke="midnightblue" d="M101.5,-95.06C101.5,-86.39 101.5,-77.24 101.5,-68.79"/>
<polygon fill="none" stroke="midnightblue" points="98,-95.32 101.5,-105.32 105,-95.32 98,-95.32"/>
</g>
</g>
</svg>
