<?xml version="1.0" encoding="UTF-8" standalone="no"?>
<!DOCTYPE svg PUBLIC "-//W3C//DTD SVG 1.1//EN"
 "http://www.w3.org/Graphics/SVG/1.1/DTD/svg11.dtd">
<!-- Generated by graphviz version 2.50.0 (20211204.2007)
 -->
<!-- Title: Sgl::BlankContainer Pages: 1 -->
<svg width="1648pt" height="806pt"
 viewBox="0.00 0.00 1648.00 806.00" xmlns="http://www.w3.org/2000/svg" xmlns:xlink="http://www.w3.org/1999/xlink">
<g id="graph0" class="graph" transform="scale(1 1) rotate(0) translate(4 802)">
<title>Sgl::BlankContainer</title>
<polygon fill="white" stroke="transparent" points="-4,4 -4,-802 1644,-802 1644,4 -4,4"/>
<!-- Node1 -->
<g id="node1" class="node">
<title>Node1</title>
<g id="a_node1"><a xlink:title=" ">
<polygon fill="#bfbfbf" stroke="black" points="1293,-0.5 1293,-68.5 1443,-68.5 1443,-0.5 1293,-0.5"/>
<text text-anchor="middle" x="1368" y="-56.5" font-family="Helvetica,sans-Serif" font-size="10.00">Sgl::BlankContainer</text>
<polyline fill="none" stroke="black" points="1293,-49.5 1443,-49.5 "/>
<text text-anchor="middle" x="1368" y="-37.5" font-family="Helvetica,sans-Serif" font-size="10.00"> </text>
<polyline fill="none" stroke="black" points="1293,-30.5 1443,-30.5 "/>
<text text-anchor="start" x="1301" y="-18.5" font-family="Helvetica,sans-Serif" font-size="10.00">+ computeCustomPrefWidth()</text>
<text text-anchor="start" x="1301" y="-7.5" font-family="Helvetica,sans-Serif" font-size="10.00">+ computeCustomPrefHeight()</text>
</a>
</g>
</g>
<!-- Node2 -->
<g id="node2" class="node">
<title>Node2</title>
<g id="a_node2"><a xlink:href="class_sgl_1_1_container.html" target="_top" xlink:title=" ">
<polygon fill="white" stroke="black" points="1314,-128.5 1314,-229.5 1422,-229.5 1422,-128.5 1314,-128.5"/>
<text text-anchor="middle" x="1368" y="-217.5" font-family="Helvetica,sans-Serif" font-size="10.00">Sgl::Container</text>
<polyline fill="none" stroke="black" points="1314,-210.5 1422,-210.5 "/>
<text text-anchor="middle" x="1368" y="-198.5" font-family="Helvetica,sans-Serif" font-size="10.00"> </text>
<polyline fill="none" stroke="black" points="1314,-191.5 1422,-191.5 "/>
<text text-anchor="start" x="1322" y="-179.5" font-family="Helvetica,sans-Serif" font-size="10.00">+ Container()</text>
<text text-anchor="start" x="1322" y="-168.5" font-family="Helvetica,sans-Serif" font-size="10.00">+ ~Container()</text>
<text text-anchor="start" x="1322" y="-157.5" font-family="Helvetica,sans-Serif" font-size="10.00">+ getHitComponent()</text>
<text text-anchor="start" x="1322" y="-146.5" font-family="Helvetica,sans-Serif" font-size="10.00">+ render()</text>
<text text-anchor="start" x="1322" y="-135.5" font-family="Helvetica,sans-Serif" font-size="10.00"># prerenderSelf()</text>
</a>
</g>
</g>
<!-- Node2&#45;&gt;Node1 -->
<g id="edge1" class="edge">
<title>Node2&#45;&gt;Node1</title>
<path fill="none" stroke="midnightblue" d="M1368,-117.8C1368,-100.93 1368,-83.21 1368,-68.56"/>
<polygon fill="none" stroke="midnightblue" points="1364.5,-118.16 1368,-128.16 1371.5,-118.16 1364.5,-118.16"/>
</g>
<!-- Node3 -->
<g id="node3" class="node">
<title>Node3</title>
<g id="a_node3"><a xlink:href="class_sgl_1_1_parent.html" target="_top" xlink:title=" ">
<polygon fill="white" stroke="black" points="886,-299.5 886,-477.5 1032,-477.5 1032,-299.5 886,-299.5"/>
<text text-anchor="middle" x="959" y="-465.5" font-family="Helvetica,sans-Serif" font-size="10.00">Sgl::Parent</text>
<polyline fill="none" stroke="black" points="886,-458.5 1032,-458.5 "/>
<text text-anchor="middle" x="959" y="-446.5" font-family="Helvetica,sans-Serif" font-size="10.00"> </text>
<polyline fill="none" stroke="black" points="886,-439.5 1032,-439.5 "/>
<text text-anchor="start" x="894" y="-427.5" font-family="Helvetica,sans-Serif" font-size="10.00">+ Parent()</text>
<text text-anchor="start" x="894" y="-416.5" font-family="Helvetica,sans-Serif" font-size="10.00">+ ~Parent()</text>
<text text-anchor="start" x="894" y="-405.5" font-family="Helvetica,sans-Serif" font-size="10.00">+ getHitComponent()</text>
<text text-anchor="start" x="894" y="-394.5" font-family="Helvetica,sans-Serif" font-size="10.00">+ render()</text>
<text text-anchor="start" x="894" y="-383.5" font-family="Helvetica,sans-Serif" font-size="10.00">+ layout()</text>
<text text-anchor="start" x="894" y="-372.5" font-family="Helvetica,sans-Serif" font-size="10.00">and 39 more...</text>
<text text-anchor="start" x="894" y="-361.5" font-family="Helvetica,sans-Serif" font-size="10.00"># setSceneInSceneTree()</text>
<text text-anchor="start" x="894" y="-350.5" font-family="Helvetica,sans-Serif" font-size="10.00"># layoutChildren()</text>
<text text-anchor="start" x="894" y="-339.5" font-family="Helvetica,sans-Serif" font-size="10.00"># prerenderSelf()</text>
<text text-anchor="start" x="894" y="-328.5" font-family="Helvetica,sans-Serif" font-size="10.00"># updateSnapshotSize()</text>
<text text-anchor="start" x="894" y="-317.5" font-family="Helvetica,sans-Serif" font-size="10.00"># computeCustomPrefWidth()</text>
<text text-anchor="start" x="894" y="-306.5" font-family="Helvetica,sans-Serif" font-size="10.00">and 5 more...</text>
</a>
</g>
</g>
<!-- Node3&#45;&gt;Node2 -->
<g id="edge2" class="edge">
<title>Node3&#45;&gt;Node2</title>
<path fill="none" stroke="midnightblue" d="M1041.32,-345.74C1122.45,-304.57 1244.11,-242.85 1313.79,-207.5"/>
<polygon fill="none" stroke="midnightblue" points="1039.46,-342.76 1032.12,-350.4 1042.62,-349 1039.46,-342.76"/>
</g>
<!-- Node4 -->
<g id="node4" class="node">
<title>Node4</title>
<g id="a_node4"><a xlink:href="class_sgl_1_1_component.html" target="_top" xlink:title=" ">
<polygon fill="white" stroke="black" points="292,-106.5 292,-251.5 420,-251.5 420,-106.5 292,-106.5"/>
<text text-anchor="middle" x="356" y="-239.5" font-family="Helvetica,sans-Serif" font-size="10.00">Sgl::Component</text>
<polyline fill="none" stroke="black" points="292,-232.5 420,-232.5 "/>
<text text-anchor="middle" x="356" y="-220.5" font-family="Helvetica,sans-Serif" font-size="10.00"> </text>
<polyline fill="none" stroke="black" points="292,-213.5 420,-213.5 "/>
<text text-anchor="start" x="300" y="-201.5" font-family="Helvetica,sans-Serif" font-size="10.00">+ Component()</text>
<text text-anchor="start" x="300" y="-190.5" font-family="Helvetica,sans-Serif" font-size="10.00">+ ~Component()</text>
<text text-anchor="start" x="300" y="-179.5" font-family="Helvetica,sans-Serif" font-size="10.00">+ getHitComponent()</text>
<text text-anchor="start" x="300" y="-168.5" font-family="Helvetica,sans-Serif" font-size="10.00">+ render()</text>
<text text-anchor="start" x="300" y="-157.5" font-family="Helvetica,sans-Serif" font-size="10.00">+ layout()</text>
<text text-anchor="start" x="300" y="-146.5" font-family="Helvetica,sans-Serif" font-size="10.00">and 42 more...</text>
<text text-anchor="start" x="300" y="-135.5" font-family="Helvetica,sans-Serif" font-size="10.00"># updateShadow()</text>
<text text-anchor="start" x="300" y="-124.5" font-family="Helvetica,sans-Serif" font-size="10.00"># renderShadow()</text>
<text text-anchor="start" x="300" y="-113.5" font-family="Helvetica,sans-Serif" font-size="10.00"># setSceneInSceneTree()</text>
</a>
</g>
</g>
<!-- Node3&#45;&gt;Node4 -->
<g id="edge15" class="edge">
<title>Node3&#45;&gt;Node4</title>
<path fill="none" stroke="#404040" d="M885.75,-351.11C833.46,-326.08 761,-293.28 695,-270 606.43,-238.76 501.53,-212.49 432.13,-196.55"/>
<polygon fill="none" stroke="#404040" points="431.72,-196.45 424.98,-199.02 420.02,-193.79 426.76,-191.22 431.72,-196.45"/>
<text text-anchor="middle" x="750.5" y="-273" font-family="Helvetica,sans-Serif" font-size="10.00"> #m_Parent</text>
</g>
<!-- Node4&#45;&gt;Node3 -->
<g id="edge3" class="edge">
<title>Node4&#45;&gt;Node3</title>
<path fill="none" stroke="midnightblue" d="M430.19,-180.63C528.89,-184.3 706.34,-201.01 839,-270 855.56,-278.61 871.33,-290.26 885.69,-302.89"/>
<polygon fill="none" stroke="midnightblue" points="430.12,-177.12 420.01,-180.28 429.89,-184.12 430.12,-177.12"/>
</g>
<!-- Node5 -->
<g id="node5" class="node">
<title>Node5</title>
<g id="a_node5"><a xlink:title=" ">
<polygon fill="white" stroke="#bfbfbf" points="39,-569.5 39,-626.5 131,-626.5 131,-569.5 39,-569.5"/>
<text text-anchor="middle" x="85" y="-614.5" font-family="Helvetica,sans-Serif" font-size="10.00">Sml::EventTarget</text>
<polyline fill="none" stroke="#bfbfbf" points="39,-607.5 131,-607.5 "/>
<text text-anchor="middle" x="85" y="-595.5" font-family="Helvetica,sans-Serif" font-size="10.00"> </text>
<polyline fill="none" stroke="#bfbfbf" points="39,-588.5 131,-588.5 "/>
<text text-anchor="middle" x="85" y="-576.5" font-family="Helvetica,sans-Serif" font-size="10.00"> </text>
</a>
</g>
</g>
<!-- Node5&#45;&gt;Node4 -->
<g id="edge4" class="edge">
<title>Node5&#45;&gt;Node4</title>
<path fill="none" stroke="midnightblue" d="M86.68,-559.17C90.38,-489.05 101.05,-342.11 127,-299 162.35,-240.27 237.24,-209.23 291.78,-193.77"/>
<polygon fill="none" stroke="midnightblue" points="83.17,-559.17 86.16,-569.33 90.16,-559.52 83.17,-559.17"/>
</g>
<!-- Node14 -->
<g id="node14" class="node">
<title>Node14</title>
<g id="a_node14"><a xlink:href="class_sgl_1_1_scene.html" target="_top" xlink:title=" ">
<polygon fill="white" stroke="black" points="0,-332.5 0,-444.5 80,-444.5 80,-332.5 0,-332.5"/>
<text text-anchor="middle" x="40" y="-432.5" font-family="Helvetica,sans-Serif" font-size="10.00">Sgl::Scene</text>
<polyline fill="none" stroke="black" points="0,-425.5 80,-425.5 "/>
<text text-anchor="middle" x="40" y="-413.5" font-family="Helvetica,sans-Serif" font-size="10.00"> </text>
<polyline fill="none" stroke="black" points="0,-406.5 80,-406.5 "/>
<text text-anchor="start" x="8" y="-394.5" font-family="Helvetica,sans-Serif" font-size="10.00">+ Scene()</text>
<text text-anchor="start" x="8" y="-383.5" font-family="Helvetica,sans-Serif" font-size="10.00">+ Scene()</text>
<text text-anchor="start" x="8" y="-372.5" font-family="Helvetica,sans-Serif" font-size="10.00">+ ~Scene()</text>
<text text-anchor="start" x="8" y="-361.5" font-family="Helvetica,sans-Serif" font-size="10.00">+ update()</text>
<text text-anchor="start" x="8" y="-350.5" font-family="Helvetica,sans-Serif" font-size="10.00">+ render()</text>
<text text-anchor="start" x="8" y="-339.5" font-family="Helvetica,sans-Serif" font-size="10.00">and 17 more...</text>
</a>
</g>
</g>
<!-- Node5&#45;&gt;Node14 -->
<g id="edge14" class="edge">
<title>Node5&#45;&gt;Node14</title>
<path fill="none" stroke="midnightblue" d="M76.89,-559.6C69.96,-527.63 59.88,-481.17 52.01,-444.88"/>
<polygon fill="none" stroke="midnightblue" points="73.48,-560.41 79.02,-569.45 80.33,-558.93 73.48,-560.41"/>
</g>
<!-- Node6 -->
<g id="node6" class="node">
<title>Node6</title>
<g id="a_node6"><a xlink:title=" ">
<polygon fill="white" stroke="#bfbfbf" points="1069,-740.5 1069,-797.5 1115,-797.5 1115,-740.5 1069,-740.5"/>
<text text-anchor="middle" x="1092" y="-785.5" font-family="Helvetica,sans-Serif" font-size="10.00">int32_t</text>
<polyline fill="none" stroke="#bfbfbf" points="1069,-778.5 1115,-778.5 "/>
<text text-anchor="middle" x="1092" y="-766.5" font-family="Helvetica,sans-Serif" font-size="10.00"> </text>
<polyline fill="none" stroke="#bfbfbf" points="1069,-759.5 1115,-759.5 "/>
<text text-anchor="middle" x="1092" y="-747.5" font-family="Helvetica,sans-Serif" font-size="10.00"> </text>
</a>
</g>
</g>
<!-- Node6&#45;&gt;Node3 -->
<g id="edge25" class="edge">
<title>Node6&#45;&gt;Node3</title>
<path fill="none" stroke="#404040" d="M1115.41,-753.51C1142.17,-735.41 1184.5,-701.71 1202,-660 1223.32,-609.18 1229.1,-583.99 1202,-536 1168.29,-476.31 1099.42,-438.22 1043.58,-415.89"/>
<polygon fill="none" stroke="#404040" points="1043.43,-415.83 1036.39,-417.4 1032.24,-411.5 1039.28,-409.94 1043.43,-415.83"/>
<text text-anchor="middle" x="1256" y="-623" font-family="Helvetica,sans-Serif" font-size="10.00"> #m_MaxHeight</text>
<text text-anchor="middle" x="1256" y="-612" font-family="Helvetica,sans-Serif" font-size="10.00">#m_MaxWidth</text>
<text text-anchor="middle" x="1256" y="-601" font-family="Helvetica,sans-Serif" font-size="10.00">#m_MinHeight</text>
<text text-anchor="middle" x="1256" y="-590" font-family="Helvetica,sans-Serif" font-size="10.00">#m_MinWidth</text>
<text text-anchor="middle" x="1256" y="-579" font-family="Helvetica,sans-Serif" font-size="10.00">#m_PrefHeight</text>
<text text-anchor="middle" x="1256" y="-568" font-family="Helvetica,sans-Serif" font-size="10.00">#m_PrefWidth</text>
</g>
<!-- Node6&#45;&gt;Node4 -->
<g id="edge5" class="edge">
<title>Node6&#45;&gt;Node4</title>
<path fill="none" stroke="#404040" d="M1068.81,-767.4C958.84,-764.15 490.63,-745.41 378,-660 246.9,-560.58 257.93,-459.07 296,-299 298.88,-286.89 303.2,-274.61 308.23,-262.77"/>
<polygon fill="none" stroke="#404040" points="308.34,-262.53 307.14,-255.42 313.24,-251.58 314.44,-258.69 308.34,-262.53"/>
<text text-anchor="middle" x="335" y="-510" font-family="Helvetica,sans-Serif" font-size="10.00"> +UNLIMITED_SIZE</text>
<text text-anchor="middle" x="335" y="-499" font-family="Helvetica,sans-Serif" font-size="10.00">+USE_COMPUTED_SIZE</text>
</g>
<!-- Node20 -->
<g id="node20" class="node">
<title>Node20</title>
<g id="a_node20"><a xlink:href="struct_sgl_1_1_insets.html" target="_top" xlink:title=" ">
<polygon fill="white" stroke="black" points="1052.5,-542 1052.5,-654 1131.5,-654 1131.5,-542 1052.5,-542"/>
<text text-anchor="middle" x="1092" y="-642" font-family="Helvetica,sans-Serif" font-size="10.00">Sgl::Insets</text>
<polyline fill="none" stroke="black" points="1052.5,-635 1131.5,-635 "/>
<text text-anchor="middle" x="1092" y="-623" font-family="Helvetica,sans-Serif" font-size="10.00"> </text>
<polyline fill="none" stroke="black" points="1052.5,-616 1131.5,-616 "/>
<text text-anchor="start" x="1060.5" y="-604" font-family="Helvetica,sans-Serif" font-size="10.00">+ Insets()</text>
<text text-anchor="start" x="1060.5" y="-593" font-family="Helvetica,sans-Serif" font-size="10.00">+ Insets()</text>
<text text-anchor="start" x="1060.5" y="-582" font-family="Helvetica,sans-Serif" font-size="10.00">+ Insets()</text>
<text text-anchor="start" x="1060.5" y="-571" font-family="Helvetica,sans-Serif" font-size="10.00">+ Insets()</text>
<text text-anchor="start" x="1060.5" y="-560" font-family="Helvetica,sans-Serif" font-size="10.00">+ operator+=()</text>
<text text-anchor="start" x="1060.5" y="-549" font-family="Helvetica,sans-Serif" font-size="10.00">+ operator&#45;=()</text>
</a>
</g>
</g>
<!-- Node6&#45;&gt;Node20 -->
<g id="edge24" class="edge">
<title>Node6&#45;&gt;Node20</title>
<path fill="none" stroke="#404040" d="M1092,-740.47C1092,-720.37 1092,-692.21 1092,-666.3"/>
<polygon fill="none" stroke="#404040" points="1092,-666.2 1088,-660.2 1092,-654.2 1096,-660.2 1092,-666.2"/>
<text text-anchor="middle" x="1112" y="-714" font-family="Helvetica,sans-Serif" font-size="10.00"> +bottom</text>
<text text-anchor="middle" x="1112" y="-703" font-family="Helvetica,sans-Serif" font-size="10.00">+left</text>
<text text-anchor="middle" x="1112" y="-692" font-family="Helvetica,sans-Serif" font-size="10.00">+right</text>
<text text-anchor="middle" x="1112" y="-681" font-family="Helvetica,sans-Serif" font-size="10.00">+top</text>
</g>
<!-- Node7 -->
<g id="node7" class="node">
<title>Node7</title>
<g id="a_node7"><a xlink:title=" ">
<polygon fill="white" stroke="#bfbfbf" points="136.5,-360 136.5,-417 177.5,-417 177.5,-360 136.5,-360"/>
<text text-anchor="middle" x="157" y="-405" font-family="Helvetica,sans-Serif" font-size="10.00">friend</text>
<polyline fill="none" stroke="#bfbfbf" points="136.5,-398 177.5,-398 "/>
<text text-anchor="middle" x="157" y="-386" font-family="Helvetica,sans-Serif" font-size="10.00"> </text>
<polyline fill="none" stroke="#bfbfbf" points="136.5,-379 177.5,-379 "/>
<text text-anchor="middle" x="157" y="-367" font-family="Helvetica,sans-Serif" font-size="10.00"> </text>
</a>
</g>
</g>
<!-- Node7&#45;&gt;Node4 -->
<g id="edge6" class="edge">
<title>Node7&#45;&gt;Node4</title>
<path fill="none" stroke="#404040" d="M154.98,-359.6C154.58,-333.91 157.81,-295.95 177,-270 202.01,-236.18 243.32,-214.23 279.97,-200.49"/>
<polygon fill="none" stroke="#404040" points="280.37,-200.34 284.67,-194.56 291.67,-196.3 287.37,-202.09 280.37,-200.34"/>
<text text-anchor="middle" x="195.5" y="-273" font-family="Helvetica,sans-Serif" font-size="10.00"> +Scene</text>
</g>
<!-- Node8 -->
<g id="node8" class="node">
<title>Node8</title>
<g id="a_node8"><a xlink:title=" ">
<polygon fill="white" stroke="#bfbfbf" points="195.5,-360 195.5,-417 248.5,-417 248.5,-360 195.5,-360"/>
<text text-anchor="middle" x="222" y="-405" font-family="Helvetica,sans-Serif" font-size="10.00">Visibility</text>
<polyline fill="none" stroke="#bfbfbf" points="195.5,-398 248.5,-398 "/>
<text text-anchor="middle" x="222" y="-386" font-family="Helvetica,sans-Serif" font-size="10.00"> </text>
<polyline fill="none" stroke="#bfbfbf" points="195.5,-379 248.5,-379 "/>
<text text-anchor="middle" x="222" y="-367" font-family="Helvetica,sans-Serif" font-size="10.00"> </text>
</a>
</g>
</g>
<!-- Node8&#45;&gt;Node4 -->
<g id="edge7" class="edge">
<title>Node8&#45;&gt;Node4</title>
<path fill="none" stroke="#404040" d="M214.59,-359.6C209.55,-334.59 206.18,-297.7 221,-270 234.26,-245.23 257.68,-226.1 281.33,-211.97"/>
<polygon fill="none" stroke="#404040" points="281.37,-211.95 284.62,-205.51 291.81,-206.03 288.56,-212.47 281.37,-211.95"/>
<text text-anchor="middle" x="250.5" y="-273" font-family="Helvetica,sans-Serif" font-size="10.00"> #m_Visibility</text>
</g>
<!-- Node9 -->
<g id="node9" class="node">
<title>Node9</title>
<g id="a_node9"><a xlink:title=" ">
<polygon fill="white" stroke="#bfbfbf" points="680.5,-569.5 680.5,-626.5 715.5,-626.5 715.5,-569.5 680.5,-569.5"/>
<text text-anchor="middle" x="698" y="-614.5" font-family="Helvetica,sans-Serif" font-size="10.00">bool</text>
<polyline fill="none" stroke="#bfbfbf" points="680.5,-607.5 715.5,-607.5 "/>
<text text-anchor="middle" x="698" y="-595.5" font-family="Helvetica,sans-Serif" font-size="10.00"> </text>
<polyline fill="none" stroke="#bfbfbf" points="680.5,-588.5 715.5,-588.5 "/>
<text text-anchor="middle" x="698" y="-576.5" font-family="Helvetica,sans-Serif" font-size="10.00"> </text>
</a>
</g>
</g>
<!-- Node9&#45;&gt;Node3 -->
<g id="edge19" class="edge">
<title>Node9&#45;&gt;Node3</title>
<path fill="none" stroke="#404040" d="M702.89,-569.15C708.03,-547 718.12,-516.43 737,-496 773.78,-456.21 828.56,-429.71 874.5,-413.1"/>
<polygon fill="none" stroke="#404040" points="874.65,-413.05 878.99,-407.29 885.98,-409.08 881.63,-414.84 874.65,-413.05"/>
<text text-anchor="middle" x="785.5" y="-504.5" font-family="Helvetica,sans-Serif" font-size="10.00"> #m_NeedLayoutPass</text>
</g>
<!-- Node9&#45;&gt;Node4 -->
<g id="edge8" class="edge">
<title>Node9&#45;&gt;Node4</title>
<path fill="none" stroke="#404040" d="M703.06,-569.2C712.94,-505.02 726.81,-346.16 639,-270 580.85,-219.57 494.28,-197.35 432.21,-187.59"/>
<polygon fill="none" stroke="#404040" points="432,-187.56 425.48,-190.63 420.13,-185.8 426.66,-182.72 432,-187.56"/>
<text text-anchor="middle" x="741" y="-391.5" font-family="Helvetica,sans-Serif" font-size="10.00"> #m_Focused</text>
<text text-anchor="middle" x="741" y="-380.5" font-family="Helvetica,sans-Serif" font-size="10.00">#m_Hovered</text>
</g>
<!-- Node10 -->
<g id="node10" class="node">
<title>Node10</title>
<g id="a_node10"><a xlink:href="class_sgl_1_1_shadow.html" target="_top" xlink:title=" ">
<polygon fill="white" stroke="black" points="305.5,-327 305.5,-450 406.5,-450 406.5,-327 305.5,-327"/>
<text text-anchor="middle" x="356" y="-438" font-family="Helvetica,sans-Serif" font-size="10.00">Sgl::Shadow</text>
<polyline fill="none" stroke="black" points="305.5,-431 406.5,-431 "/>
<text text-anchor="middle" x="356" y="-419" font-family="Helvetica,sans-Serif" font-size="10.00"> </text>
<polyline fill="none" stroke="black" points="305.5,-412 406.5,-412 "/>
<text text-anchor="start" x="313.5" y="-400" font-family="Helvetica,sans-Serif" font-size="10.00">+ Shadow()</text>
<text text-anchor="start" x="313.5" y="-389" font-family="Helvetica,sans-Serif" font-size="10.00">+ ~Shadow()</text>
<text text-anchor="start" x="313.5" y="-378" font-family="Helvetica,sans-Serif" font-size="10.00">+ update()</text>
<text text-anchor="start" x="313.5" y="-367" font-family="Helvetica,sans-Serif" font-size="10.00">+ render()</text>
<text text-anchor="start" x="313.5" y="-356" font-family="Helvetica,sans-Serif" font-size="10.00">+ getTexture()</text>
<text text-anchor="start" x="313.5" y="-345" font-family="Helvetica,sans-Serif" font-size="10.00">+ getSpecification()</text>
<text text-anchor="start" x="313.5" y="-334" font-family="Helvetica,sans-Serif" font-size="10.00">+ setSpecification()</text>
</a>
</g>
</g>
<!-- Node10&#45;&gt;Node4 -->
<g id="edge9" class="edge">
<title>Node10&#45;&gt;Node4</title>
<path fill="none" stroke="#404040" d="M356,-326.92C356,-307.23 356,-285 356,-263.91"/>
<polygon fill="none" stroke="#404040" points="356,-263.65 352,-257.65 356,-251.65 360,-257.65 356,-263.65"/>
<text text-anchor="middle" x="385" y="-273" font-family="Helvetica,sans-Serif" font-size="10.00"> #m_Shadow</text>
</g>
<!-- Node11 -->
<g id="node11" class="node">
<title>Node11</title>
<g id="a_node11"><a xlink:href="class_gui_event_dispatcher.html" target="_top" xlink:title=" ">
<polygon fill="white" stroke="black" points="424.5,-321.5 424.5,-455.5 559.5,-455.5 559.5,-321.5 424.5,-321.5"/>
<text text-anchor="middle" x="492" y="-443.5" font-family="Helvetica,sans-Serif" font-size="10.00">GuiEventDispatcher</text>
<polyline fill="none" stroke="black" points="424.5,-436.5 559.5,-436.5 "/>
<text text-anchor="middle" x="492" y="-424.5" font-family="Helvetica,sans-Serif" font-size="10.00"> </text>
<polyline fill="none" stroke="black" points="424.5,-417.5 559.5,-417.5 "/>
<text text-anchor="start" x="432.5" y="-405.5" font-family="Helvetica,sans-Serif" font-size="10.00">+ ~GuiEventDispatcher()</text>
<text text-anchor="start" x="432.5" y="-394.5" font-family="Helvetica,sans-Serif" font-size="10.00">+ attachFilter()</text>
<text text-anchor="start" x="432.5" y="-383.5" font-family="Helvetica,sans-Serif" font-size="10.00">+ detachFilter()</text>
<text text-anchor="start" x="432.5" y="-372.5" font-family="Helvetica,sans-Serif" font-size="10.00">+ attachHandler()</text>
<text text-anchor="start" x="432.5" y="-361.5" font-family="Helvetica,sans-Serif" font-size="10.00">+ detachHandler()</text>
<text text-anchor="start" x="432.5" y="-350.5" font-family="Helvetica,sans-Serif" font-size="10.00">+ dispatchEvent()</text>
<text text-anchor="start" x="432.5" y="-339.5" font-family="Helvetica,sans-Serif" font-size="10.00"># dispatchCapturingEvent()</text>
<text text-anchor="start" x="432.5" y="-328.5" font-family="Helvetica,sans-Serif" font-size="10.00"># dispatchBubblingEvent()</text>
</a>
</g>
</g>
<!-- Node11&#45;&gt;Node4 -->
<g id="edge10" class="edge">
<title>Node11&#45;&gt;Node4</title>
<path fill="none" stroke="#404040" d="M450.99,-321.32C440.38,-304.49 428.88,-286.51 418,-270 416.2,-267.27 414.37,-264.5 412.5,-261.71"/>
<polygon fill="none" stroke="#404040" points="412.37,-261.51 405.7,-258.75 405.68,-251.54 412.34,-254.29 412.37,-261.51"/>
<text text-anchor="middle" x="460" y="-273" font-family="Helvetica,sans-Serif" font-size="10.00"> #m_Dispatcher</text>
</g>
<!-- Node12 -->
<g id="node12" class="node">
<title>Node12</title>
<g id="a_node12"><a xlink:title=" ">
<polygon fill="white" stroke="#bfbfbf" points="387.5,-569.5 387.5,-626.5 500.5,-626.5 500.5,-569.5 387.5,-569.5"/>
<text text-anchor="middle" x="444" y="-614.5" font-family="Helvetica,sans-Serif" font-size="10.00">Sml::EventDispatcher</text>
<polyline fill="none" stroke="#bfbfbf" points="387.5,-607.5 500.5,-607.5 "/>
<text text-anchor="middle" x="444" y="-595.5" font-family="Helvetica,sans-Serif" font-size="10.00"> </text>
<polyline fill="none" stroke="#bfbfbf" points="387.5,-588.5 500.5,-588.5 "/>
<text text-anchor="middle" x="444" y="-576.5" font-family="Helvetica,sans-Serif" font-size="10.00"> </text>
</a>
</g>
</g>
<!-- Node12&#45;&gt;Node11 -->
<g id="edge11" class="edge">
<title>Node12&#45;&gt;Node11</title>
<path fill="none" stroke="midnightblue" d="M452.7,-559.37C459.38,-530.5 468.77,-489.91 476.7,-455.65"/>
<polygon fill="none" stroke="midnightblue" points="449.22,-558.91 450.37,-569.45 456.04,-560.49 449.22,-558.91"/>
</g>
<!-- Node13 -->
<g id="node13" class="node">
<title>Node13</title>
<g id="a_node13"><a xlink:title=" ">
<polygon fill="white" stroke="#bfbfbf" points="519,-569.5 519,-626.5 567,-626.5 567,-569.5 519,-569.5"/>
<text text-anchor="middle" x="543" y="-614.5" font-family="Helvetica,sans-Serif" font-size="10.00">Notifier</text>
<polyline fill="none" stroke="#bfbfbf" points="519,-607.5 567,-607.5 "/>
<text text-anchor="middle" x="543" y="-595.5" font-family="Helvetica,sans-Serif" font-size="10.00"> </text>
<polyline fill="none" stroke="#bfbfbf" points="519,-588.5 567,-588.5 "/>
<text text-anchor="middle" x="543" y="-576.5" font-family="Helvetica,sans-Serif" font-size="10.00"> </text>
</a>
</g>
</g>
<!-- Node13&#45;&gt;Node11 -->
<g id="edge12" class="edge">
<title>Node13&#45;&gt;Node11</title>
<path fill="none" stroke="#404040" d="M536.23,-569.45C529.85,-543.5 519.99,-503.37 511.19,-467.59"/>
<polygon fill="none" stroke="#404040" points="511.12,-467.3 505.81,-462.43 508.26,-455.65 513.58,-460.52 511.12,-467.3"/>
<text text-anchor="middle" x="569" y="-510" font-family="Helvetica,sans-Serif" font-size="10.00"> #m_FiltersNotifier</text>
<text text-anchor="middle" x="569" y="-499" font-family="Helvetica,sans-Serif" font-size="10.00">#m_HandlersNotifier</text>
</g>
<!-- Node14&#45;&gt;Node4 -->
<g id="edge13" class="edge">
<title>Node14&#45;&gt;Node4</title>
<path fill="none" stroke="#404040" d="M28.86,-332.23C27.65,-310.8 30.51,-287.31 44,-270 72.98,-232.81 197.3,-205.8 279.99,-191.54"/>
<polygon fill="none" stroke="#404040" points="280.04,-191.53 285.29,-186.58 291.87,-189.53 286.62,-194.47 280.04,-191.53"/>
<text text-anchor="middle" x="69" y="-273" font-family="Helvetica,sans-Serif" font-size="10.00"> #m_Scene</text>
</g>
<!-- Node15 -->
<g id="node15" class="node">
<title>Node15</title>
<g id="a_node15"><a xlink:title=" ">
<polygon fill="white" stroke="#bfbfbf" points="577.5,-360 577.5,-417 644.5,-417 644.5,-360 577.5,-360"/>
<text text-anchor="middle" x="611" y="-405" font-family="Helvetica,sans-Serif" font-size="10.00">Rectangle&lt;</text>
<polyline fill="none" stroke="#bfbfbf" points="577.5,-398 644.5,-398 "/>
<text text-anchor="middle" x="611" y="-386" font-family="Helvetica,sans-Serif" font-size="10.00"> </text>
<polyline fill="none" stroke="#bfbfbf" points="577.5,-379 644.5,-379 "/>
<text text-anchor="middle" x="611" y="-367" font-family="Helvetica,sans-Serif" font-size="10.00"> </text>
</a>
</g>
</g>
<!-- Node15&#45;&gt;Node4 -->
<g id="edge16" class="edge">
<title>Node15&#45;&gt;Node4</title>
<path fill="none" stroke="#404040" d="M602.47,-359.77C595.56,-340.89 584.29,-316.28 568,-299 530.1,-258.79 475.53,-228.59 431.24,-208.67"/>
<polygon fill="none" stroke="#404040" points="431.21,-208.66 424.11,-209.91 420.22,-203.83 427.33,-202.58 431.21,-208.66"/>
<text text-anchor="middle" x="592.5" y="-273" font-family="Helvetica,sans-Serif" font-size="10.00"> #m_LayoutBounds</text>
</g>
<!-- Node16 -->
<g id="node16" class="node">
<title>Node16</title>
<g id="a_node16"><a xlink:title=" ">
<polygon fill="white" stroke="#bfbfbf" points="816.5,-569.5 816.5,-626.5 851.5,-626.5 851.5,-569.5 816.5,-569.5"/>
<text text-anchor="middle" x="834" y="-614.5" font-family="Helvetica,sans-Serif" font-size="10.00">list&lt;</text>
<polyline fill="none" stroke="#bfbfbf" points="816.5,-607.5 851.5,-607.5 "/>
<text text-anchor="middle" x="834" y="-595.5" font-family="Helvetica,sans-Serif" font-size="10.00"> </text>
<polyline fill="none" stroke="#bfbfbf" points="816.5,-588.5 851.5,-588.5 "/>
<text text-anchor="middle" x="834" y="-576.5" font-family="Helvetica,sans-Serif" font-size="10.00"> </text>
</a>
</g>
</g>
<!-- Node16&#45;&gt;Node3 -->
<g id="edge17" class="edge">
<title>Node16&#45;&gt;Node3</title>
<path fill="none" stroke="#404040" d="M831.96,-569.4C831.55,-548.24 833.56,-518.87 845,-496 852.98,-480.06 864.39,-465.28 876.94,-452.11"/>
<polygon fill="none" stroke="#404040" points="877.3,-451.75 878.71,-444.67 885.78,-443.26 884.37,-450.33 877.3,-451.75"/>
<text text-anchor="middle" x="874" y="-504.5" font-family="Helvetica,sans-Serif" font-size="10.00"> #m_Children</text>
</g>
<!-- Node17 -->
<g id="node17" class="node">
<title>Node17</title>
<g id="a_node17"><a xlink:title=" ">
<polygon fill="white" stroke="#bfbfbf" points="870,-569.5 870,-626.5 926,-626.5 926,-569.5 870,-569.5"/>
<text text-anchor="middle" x="898" y="-614.5" font-family="Helvetica,sans-Serif" font-size="10.00">Texture *</text>
<polyline fill="none" stroke="#bfbfbf" points="870,-607.5 926,-607.5 "/>
<text text-anchor="middle" x="898" y="-595.5" font-family="Helvetica,sans-Serif" font-size="10.00"> </text>
<polyline fill="none" stroke="#bfbfbf" points="870,-588.5 926,-588.5 "/>
<text text-anchor="middle" x="898" y="-576.5" font-family="Helvetica,sans-Serif" font-size="10.00"> </text>
</a>
</g>
</g>
<!-- Node17&#45;&gt;Node3 -->
<g id="edge18" class="edge">
<title>Node17&#45;&gt;Node3</title>
<path fill="none" stroke="#404040" d="M899.77,-569.14C901.58,-548.61 905.13,-520.18 912,-496 912.64,-493.74 913.32,-491.47 914.04,-489.18"/>
<polygon fill="none" stroke="#404040" points="914.06,-489.11 912.17,-482.15 917.87,-477.73 919.76,-484.69 914.06,-489.11"/>
<text text-anchor="middle" x="944" y="-504.5" font-family="Helvetica,sans-Serif" font-size="10.00"> #m_Snapshot</text>
</g>
<!-- Node18 -->
<g id="node18" class="node">
<title>Node18</title>
<g id="a_node18"><a xlink:href="class_sgl_1_1_background.html" target="_top" xlink:title=" ">
<polygon fill="white" stroke="black" points="1467.5,-536.5 1467.5,-659.5 1556.5,-659.5 1556.5,-536.5 1467.5,-536.5"/>
<text text-anchor="middle" x="1512" y="-647.5" font-family="Helvetica,sans-Serif" font-size="10.00">Sgl::Background</text>
<polyline fill="none" stroke="black" points="1467.5,-640.5 1556.5,-640.5 "/>
<text text-anchor="middle" x="1512" y="-628.5" font-family="Helvetica,sans-Serif" font-size="10.00"> </text>
<polyline fill="none" stroke="black" points="1467.5,-621.5 1556.5,-621.5 "/>
<text text-anchor="start" x="1475.5" y="-609.5" font-family="Helvetica,sans-Serif" font-size="10.00">+ Background()</text>
<text text-anchor="start" x="1475.5" y="-598.5" font-family="Helvetica,sans-Serif" font-size="10.00">+ Background()</text>
<text text-anchor="start" x="1475.5" y="-587.5" font-family="Helvetica,sans-Serif" font-size="10.00">+ Background()</text>
<text text-anchor="start" x="1475.5" y="-576.5" font-family="Helvetica,sans-Serif" font-size="10.00">+ Background()</text>
<text text-anchor="start" x="1475.5" y="-565.5" font-family="Helvetica,sans-Serif" font-size="10.00">+ addFill()</text>
<text text-anchor="start" x="1475.5" y="-554.5" font-family="Helvetica,sans-Serif" font-size="10.00">and 5 more...</text>
<text text-anchor="start" x="1475.5" y="-543.5" font-family="Helvetica,sans-Serif" font-size="10.00">+ fillArea()</text>
</a>
</g>
</g>
<!-- Node18&#45;&gt;Node2 -->
<g id="edge29" class="edge">
<title>Node18&#45;&gt;Node2</title>
<path fill="none" stroke="#404040" d="M1511.68,-536.47C1508.95,-468 1497.17,-354.99 1452,-270 1446.07,-258.84 1438.4,-248.04 1430.11,-238.02"/>
<polygon fill="none" stroke="#404040" points="1429.87,-237.74 1422.92,-235.83 1422.01,-228.68 1428.96,-230.59 1429.87,-237.74"/>
<text text-anchor="middle" x="1573.5" y="-386" font-family="Helvetica,sans-Serif" font-size="10.00"> +DEFAULT_BACKGROUND</text>
</g>
<!-- Node18&#45;&gt;Node3 -->
<g id="edge20" class="edge">
<title>Node18&#45;&gt;Node3</title>
<path fill="none" stroke="#404040" d="M1467.34,-550.24C1445.61,-530.32 1417.95,-508.77 1389,-496 1381,-492.47 1167.17,-440.16 1044.13,-410.2"/>
<polygon fill="none" stroke="#404040" points="1043.81,-410.12 1037.03,-412.58 1032.15,-407.28 1038.93,-404.81 1043.81,-410.12"/>
<text text-anchor="middle" x="1463" y="-504.5" font-family="Helvetica,sans-Serif" font-size="10.00"> #m_Background</text>
</g>
<!-- Node19 -->
<g id="node19" class="node">
<title>Node19</title>
<g id="a_node19"><a xlink:href="class_sgl_1_1_border.html" target="_top" xlink:title=" ">
<polygon fill="white" stroke="black" points="944,-542 944,-654 1034,-654 1034,-542 944,-542"/>
<text text-anchor="middle" x="989" y="-642" font-family="Helvetica,sans-Serif" font-size="10.00">Sgl::Border</text>
<polyline fill="none" stroke="black" points="944,-635 1034,-635 "/>
<text text-anchor="middle" x="989" y="-623" font-family="Helvetica,sans-Serif" font-size="10.00"> </text>
<polyline fill="none" stroke="black" points="944,-616 1034,-616 "/>
<text text-anchor="start" x="952" y="-604" font-family="Helvetica,sans-Serif" font-size="10.00">+ Border()</text>
<text text-anchor="start" x="952" y="-593" font-family="Helvetica,sans-Serif" font-size="10.00">+ Border()</text>
<text text-anchor="start" x="952" y="-582" font-family="Helvetica,sans-Serif" font-size="10.00">+ Border()</text>
<text text-anchor="start" x="952" y="-571" font-family="Helvetica,sans-Serif" font-size="10.00">+ getThickness()</text>
<text text-anchor="start" x="952" y="-560" font-family="Helvetica,sans-Serif" font-size="10.00">+ getColor()</text>
<text text-anchor="start" x="952" y="-549" font-family="Helvetica,sans-Serif" font-size="10.00">+ encloseArea()</text>
</a>
</g>
</g>
<!-- Node19&#45;&gt;Node3 -->
<g id="edge21" class="edge">
<title>Node19&#45;&gt;Node3</title>
<path fill="none" stroke="#404040" d="M985.15,-541.84C983.82,-526.92 982.11,-510.81 980,-496 979.71,-493.95 979.4,-491.88 979.08,-489.79"/>
<polygon fill="none" stroke="#404040" points="979.05,-489.56 974.14,-484.27 977.14,-477.71 982.04,-483 979.05,-489.56"/>
<text text-anchor="middle" x="1008.5" y="-504.5" font-family="Helvetica,sans-Serif" font-size="10.00"> #m_Border</text>
</g>
<!-- Node20&#45;&gt;Node3 -->
<g id="edge22" class="edge">
<title>Node20&#45;&gt;Node3</title>
<path fill="none" stroke="#404040" d="M1064.43,-541.91C1056.35,-526.77 1047.2,-510.53 1038,-496 1036.27,-493.27 1034.49,-490.52 1032.68,-487.75"/>
<polygon fill="none" stroke="#404040" points="1032.63,-487.69 1025.97,-484.93 1025.96,-477.72 1032.62,-480.48 1032.63,-487.69"/>
<text text-anchor="middle" x="1080" y="-504.5" font-family="Helvetica,sans-Serif" font-size="10.00"> #m_Padding</text>
</g>
<!-- Node20&#45;&gt;Node20 -->
<g id="edge23" class="edge">
<title>Node20&#45;&gt;Node20</title>
<path fill="none" stroke="#404040" d="M1131.51,-614.7C1141.76,-613.67 1149.5,-608.11 1149.5,-598 1149.5,-592.31 1147.05,-588.07 1143.08,-585.25"/>
<polygon fill="none" stroke="#404040" points="1142.86,-585.18 1135.89,-587.02 1131.51,-581.3 1138.48,-579.45 1142.86,-585.18"/>
<text text-anchor="middle" x="1171.5" y="-595.5" font-family="Helvetica,sans-Serif" font-size="10.00"> +EMPTY</text>
</g>
<!-- Node21 -->
<g id="node21" class="node">
<title>Node21</title>
<g id="a_node21"><a xlink:href="class_sgl_1_1_color_fill.html" target="_top" xlink:title=" ">
<polygon fill="white" stroke="black" points="1331.5,-332.5 1331.5,-444.5 1404.5,-444.5 1404.5,-332.5 1331.5,-332.5"/>
<text text-anchor="middle" x="1368" y="-432.5" font-family="Helvetica,sans-Serif" font-size="10.00">Sgl::ColorFill</text>
<polyline fill="none" stroke="black" points="1331.5,-425.5 1404.5,-425.5 "/>
<text text-anchor="middle" x="1368" y="-413.5" font-family="Helvetica,sans-Serif" font-size="10.00"> </text>
<polyline fill="none" stroke="black" points="1331.5,-406.5 1404.5,-406.5 "/>
<text text-anchor="start" x="1339.5" y="-394.5" font-family="Helvetica,sans-Serif" font-size="10.00">+ ColorFill()</text>
<text text-anchor="start" x="1339.5" y="-383.5" font-family="Helvetica,sans-Serif" font-size="10.00">+ fillLine()</text>
<text text-anchor="start" x="1339.5" y="-372.5" font-family="Helvetica,sans-Serif" font-size="10.00">+ fillArea()</text>
<text text-anchor="start" x="1339.5" y="-361.5" font-family="Helvetica,sans-Serif" font-size="10.00">+ fillPoint()</text>
<text text-anchor="start" x="1339.5" y="-350.5" font-family="Helvetica,sans-Serif" font-size="10.00">+ getColor()</text>
<text text-anchor="start" x="1339.5" y="-339.5" font-family="Helvetica,sans-Serif" font-size="10.00">+ setColor()</text>
</a>
</g>
</g>
<!-- Node21&#45;&gt;Node2 -->
<g id="edge26" class="edge">
<title>Node21&#45;&gt;Node2</title>
<path fill="none" stroke="#404040" d="M1368,-332.44C1368,-304.62 1368,-270.76 1368,-242.02"/>
<polygon fill="none" stroke="#404040" points="1368,-241.64 1364,-235.64 1368,-229.64 1372,-235.64 1368,-241.64"/>
<text text-anchor="middle" x="1408" y="-273" font-family="Helvetica,sans-Serif" font-size="10.00"> +DEFAULT_FILL</text>
</g>
<!-- Node22 -->
<g id="node22" class="node">
<title>Node22</title>
<g id="a_node22"><a xlink:href="class_sgl_1_1_fill.html" target="_top" xlink:title=" ">
<polygon fill="white" stroke="black" points="1376,-558.5 1376,-637.5 1440,-637.5 1440,-558.5 1376,-558.5"/>
<text text-anchor="middle" x="1408" y="-625.5" font-family="Helvetica,sans-Serif" font-size="10.00">Sgl::Fill</text>
<polyline fill="none" stroke="black" points="1376,-618.5 1440,-618.5 "/>
<text text-anchor="middle" x="1408" y="-606.5" font-family="Helvetica,sans-Serif" font-size="10.00"> </text>
<polyline fill="none" stroke="black" points="1376,-599.5 1440,-599.5 "/>
<text text-anchor="start" x="1384" y="-587.5" font-family="Helvetica,sans-Serif" font-size="10.00">+ fillLine()</text>
<text text-anchor="start" x="1384" y="-576.5" font-family="Helvetica,sans-Serif" font-size="10.00">+ fillArea()</text>
<text text-anchor="start" x="1384" y="-565.5" font-family="Helvetica,sans-Serif" font-size="10.00">+ fillPoint()</text>
</a>
</g>
</g>
<!-- Node22&#45;&gt;Node21 -->
<g id="edge27" class="edge">
<title>Node22&#45;&gt;Node21</title>
<path fill="none" stroke="midnightblue" d="M1398.61,-548.3C1392.62,-517.24 1384.85,-476.91 1378.63,-444.66"/>
<polygon fill="none" stroke="midnightblue" points="1395.24,-549.3 1400.57,-558.46 1402.11,-547.98 1395.24,-549.3"/>
</g>
<!-- Node23 -->
<g id="node23" class="node">
<title>Node23</title>
<g id="a_node23"><a xlink:title=" ">
<polygon fill="white" stroke="#bfbfbf" points="1318,-569.5 1318,-626.5 1358,-626.5 1358,-569.5 1318,-569.5"/>
<text text-anchor="middle" x="1338" y="-614.5" font-family="Helvetica,sans-Serif" font-size="10.00">Color</text>
<polyline fill="none" stroke="#bfbfbf" points="1318,-607.5 1358,-607.5 "/>
<text text-anchor="middle" x="1338" y="-595.5" font-family="Helvetica,sans-Serif" font-size="10.00"> </text>
<polyline fill="none" stroke="#bfbfbf" points="1318,-588.5 1358,-588.5 "/>
<text text-anchor="middle" x="1338" y="-576.5" font-family="Helvetica,sans-Serif" font-size="10.00"> </text>
</a>
</g>
</g>
<!-- Node23&#45;&gt;Node21 -->
<g id="edge28" class="edge">
<title>Node23&#45;&gt;Node21</title>
<path fill="none" stroke="#404040" d="M1336.38,-569.43C1335.64,-549.04 1335.58,-520.66 1339,-496 1340.79,-483.07 1343.69,-469.47 1346.97,-456.49"/>
<polygon fill="none" stroke="#404040" points="1347,-456.37 1344.67,-449.54 1350.07,-444.77 1352.4,-451.59 1347,-456.37"/>
<text text-anchor="middle" x="1362" y="-504.5" font-family="Helvetica,sans-Serif" font-size="10.00"> #m_Color</text>
</g>
</g>
</svg>
