<?xml version="1.0" encoding="UTF-8" standalone="no"?>
<!DOCTYPE svg PUBLIC "-//W3C//DTD SVG 1.1//EN"
 "http://www.w3.org/Graphics/SVG/1.1/DTD/svg11.dtd">
<!-- Generated by graphviz version 2.50.0 (20211204.2007)
 -->
<!-- Title: Sgl::Container Pages: 1 -->
<svg width="538pt" height="1257pt"
 viewBox="0.00 0.00 537.50 1257.00" xmlns="http://www.w3.org/2000/svg" xmlns:xlink="http://www.w3.org/1999/xlink">
<g id="graph0" class="graph" transform="scale(1 1) rotate(0) translate(4 1253)">
<title>Sgl::Container</title>
<polygon fill="white" stroke="transparent" points="-4,4 -4,-1253 533.5,-1253 533.5,4 -4,4"/>
<!-- Node1 -->
<g id="node1" class="node">
<title>Node1</title>
<g id="a_node1"><a xlink:title=" ">
<polygon fill="#bfbfbf" stroke="black" points="216,-502.5 216,-614.5 365,-614.5 365,-502.5 216,-502.5"/>
<text text-anchor="middle" x="290.5" y="-602.5" font-family="Helvetica,sans-Serif" font-size="10.00">Sgl::Container</text>
<polyline fill="none" stroke="black" points="216,-595.5 365,-595.5 "/>
<text text-anchor="start" x="224" y="-583.5" font-family="Helvetica,sans-Serif" font-size="10.00">+ DEFAULT_FILL</text>
<text text-anchor="start" x="224" y="-572.5" font-family="Helvetica,sans-Serif" font-size="10.00">+ DEFAULT_BACKGROUND</text>
<polyline fill="none" stroke="black" points="216,-565.5 365,-565.5 "/>
<text text-anchor="start" x="224" y="-553.5" font-family="Helvetica,sans-Serif" font-size="10.00">+ Container()</text>
<text text-anchor="start" x="224" y="-542.5" font-family="Helvetica,sans-Serif" font-size="10.00">+ ~Container()</text>
<text text-anchor="start" x="224" y="-531.5" font-family="Helvetica,sans-Serif" font-size="10.00">+ getHitComponent()</text>
<text text-anchor="start" x="224" y="-520.5" font-family="Helvetica,sans-Serif" font-size="10.00">+ render()</text>
<text text-anchor="start" x="224" y="-509.5" font-family="Helvetica,sans-Serif" font-size="10.00"># prerenderSelf()</text>
</a>
</g>
</g>
<!-- Node5 -->
<g id="node5" class="node">
<title>Node5</title>
<g id="a_node5"><a xlink:href="class_sgl_1_1_blank_container.html" target="_top" xlink:title=" ">
<polygon fill="white" stroke="black" points="12.5,-370 12.5,-438 162.5,-438 162.5,-370 12.5,-370"/>
<text text-anchor="middle" x="87.5" y="-426" font-family="Helvetica,sans-Serif" font-size="10.00">Sgl::BlankContainer</text>
<polyline fill="none" stroke="black" points="12.5,-419 162.5,-419 "/>
<text text-anchor="middle" x="87.5" y="-407" font-family="Helvetica,sans-Serif" font-size="10.00"> </text>
<polyline fill="none" stroke="black" points="12.5,-400 162.5,-400 "/>
<text text-anchor="start" x="20.5" y="-388" font-family="Helvetica,sans-Serif" font-size="10.00">+ computeCustomPrefWidth()</text>
<text text-anchor="start" x="20.5" y="-377" font-family="Helvetica,sans-Serif" font-size="10.00">+ computeCustomPrefHeight()</text>
</a>
</g>
</g>
<!-- Node1&#45;&gt;Node5 -->
<g id="edge4" class="edge">
<title>Node1&#45;&gt;Node5</title>
<path fill="none" stroke="midnightblue" d="M209.05,-496.31C182.54,-476.4 154.12,-455.05 131.44,-438.01"/>
<polygon fill="none" stroke="midnightblue" points="207.11,-499.24 217.21,-502.44 211.32,-493.64 207.11,-499.24"/>
</g>
<!-- Node6 -->
<g id="node6" class="node">
<title>Node6</title>
<g id="a_node6"><a xlink:href="class_sgl_1_1_box_container.html" target="_top" xlink:title="Basic list&#45;like container which lays out children in a line one after another.">
<polygon fill="white" stroke="black" points="181,-348 181,-460 278,-460 278,-348 181,-348"/>
<text text-anchor="middle" x="229.5" y="-448" font-family="Helvetica,sans-Serif" font-size="10.00">Sgl::BoxContainer</text>
<polyline fill="none" stroke="black" points="181,-441 278,-441 "/>
<text text-anchor="middle" x="229.5" y="-429" font-family="Helvetica,sans-Serif" font-size="10.00"> </text>
<polyline fill="none" stroke="black" points="181,-422 278,-422 "/>
<text text-anchor="start" x="189" y="-410" font-family="Helvetica,sans-Serif" font-size="10.00">+ BoxContainer()</text>
<text text-anchor="start" x="189" y="-399" font-family="Helvetica,sans-Serif" font-size="10.00">+ BoxContainer()</text>
<text text-anchor="start" x="189" y="-388" font-family="Helvetica,sans-Serif" font-size="10.00">+ ~BoxContainer()</text>
<text text-anchor="start" x="189" y="-377" font-family="Helvetica,sans-Serif" font-size="10.00">+ getDirection()</text>
<text text-anchor="start" x="189" y="-366" font-family="Helvetica,sans-Serif" font-size="10.00">+ setDirection()</text>
<text text-anchor="start" x="189" y="-355" font-family="Helvetica,sans-Serif" font-size="10.00">and 8 more...</text>
</a>
</g>
</g>
<!-- Node1&#45;&gt;Node6 -->
<g id="edge5" class="edge">
<title>Node1&#45;&gt;Node6</title>
<path fill="none" stroke="midnightblue" d="M264.69,-492.98C260.33,-482.08 255.84,-470.86 251.59,-460.23"/>
<polygon fill="none" stroke="midnightblue" points="261.51,-494.46 268.48,-502.44 268.01,-491.86 261.51,-494.46"/>
</g>
<!-- Node11 -->
<g id="node11" class="node">
<title>Node11</title>
<g id="a_node11"><a xlink:href="class_sgl_1_1_layered_container.html" target="_top" xlink:title=" ">
<polygon fill="white" stroke="black" points="296,-342.5 296,-465.5 409,-465.5 409,-342.5 296,-342.5"/>
<text text-anchor="middle" x="352.5" y="-453.5" font-family="Helvetica,sans-Serif" font-size="10.00">Sgl::LayeredContainer</text>
<polyline fill="none" stroke="black" points="296,-446.5 409,-446.5 "/>
<text text-anchor="middle" x="352.5" y="-434.5" font-family="Helvetica,sans-Serif" font-size="10.00"> </text>
<polyline fill="none" stroke="black" points="296,-427.5 409,-427.5 "/>
<text text-anchor="start" x="304" y="-415.5" font-family="Helvetica,sans-Serif" font-size="10.00">+ LayeredContainer()</text>
<text text-anchor="start" x="304" y="-404.5" font-family="Helvetica,sans-Serif" font-size="10.00">+ isAutoAdjust()</text>
<text text-anchor="start" x="304" y="-393.5" font-family="Helvetica,sans-Serif" font-size="10.00">+ setAutoAdjust()</text>
<text text-anchor="start" x="304" y="-382.5" font-family="Helvetica,sans-Serif" font-size="10.00">+ moveToFront()</text>
<text text-anchor="start" x="304" y="-371.5" font-family="Helvetica,sans-Serif" font-size="10.00">+ moveToBack()</text>
<text text-anchor="start" x="304" y="-360.5" font-family="Helvetica,sans-Serif" font-size="10.00">+ getFront()</text>
<text text-anchor="start" x="304" y="-349.5" font-family="Helvetica,sans-Serif" font-size="10.00">+ getBack()</text>
</a>
</g>
</g>
<!-- Node1&#45;&gt;Node11 -->
<g id="edge10" class="edge">
<title>Node1&#45;&gt;Node11</title>
<path fill="none" stroke="midnightblue" d="M316.69,-493.08C320.39,-483.99 324.18,-474.67 327.84,-465.66"/>
<polygon fill="none" stroke="midnightblue" points="313.41,-491.86 312.88,-502.44 319.89,-494.5 313.41,-491.86"/>
</g>
<!-- Node13 -->
<g id="node13" class="node">
<title>Node13</title>
<g id="a_node13"><a xlink:href="class_sgl_1_1_tile_pane.html" target="_top" xlink:title=" ">
<polygon fill="white" stroke="black" points="427.5,-348 427.5,-460 529.5,-460 529.5,-348 427.5,-348"/>
<text text-anchor="middle" x="478.5" y="-448" font-family="Helvetica,sans-Serif" font-size="10.00">Sgl::TilePane</text>
<polyline fill="none" stroke="black" points="427.5,-441 529.5,-441 "/>
<text text-anchor="middle" x="478.5" y="-429" font-family="Helvetica,sans-Serif" font-size="10.00"> </text>
<polyline fill="none" stroke="black" points="427.5,-422 529.5,-422 "/>
<text text-anchor="start" x="435.5" y="-410" font-family="Helvetica,sans-Serif" font-size="10.00">+ TilePane()</text>
<text text-anchor="start" x="435.5" y="-399" font-family="Helvetica,sans-Serif" font-size="10.00">+ ~TilePane()</text>
<text text-anchor="start" x="435.5" y="-388" font-family="Helvetica,sans-Serif" font-size="10.00">+ getTiles()</text>
<text text-anchor="start" x="435.5" y="-377" font-family="Helvetica,sans-Serif" font-size="10.00">+ getPrefColumns()</text>
<text text-anchor="start" x="435.5" y="-366" font-family="Helvetica,sans-Serif" font-size="10.00">+ setPrefColumns()</text>
<text text-anchor="start" x="435.5" y="-355" font-family="Helvetica,sans-Serif" font-size="10.00">and 12 more...</text>
</a>
</g>
</g>
<!-- Node1&#45;&gt;Node13 -->
<g id="edge12" class="edge">
<title>Node1&#45;&gt;Node13</title>
<path fill="none" stroke="midnightblue" d="M373.51,-500.64C388.48,-489.56 403.7,-477.74 417.5,-466 420.81,-463.19 424.15,-460.23 427.47,-457.19"/>
<polygon fill="none" stroke="midnightblue" points="371.23,-497.98 365.23,-506.71 375.36,-503.62 371.23,-497.98"/>
</g>
<!-- Node2 -->
<g id="node2" class="node">
<title>Node2</title>
<g id="a_node2"><a xlink:href="class_sgl_1_1_parent.html" target="_top" xlink:title=" ">
<polygon fill="white" stroke="black" points="217.5,-651.5 217.5,-884.5 363.5,-884.5 363.5,-651.5 217.5,-651.5"/>
<text text-anchor="middle" x="290.5" y="-872.5" font-family="Helvetica,sans-Serif" font-size="10.00">Sgl::Parent</text>
<polyline fill="none" stroke="black" points="217.5,-865.5 363.5,-865.5 "/>
<text text-anchor="start" x="225.5" y="-853.5" font-family="Helvetica,sans-Serif" font-size="10.00"># m_Children</text>
<text text-anchor="start" x="225.5" y="-842.5" font-family="Helvetica,sans-Serif" font-size="10.00"># m_Snapshot</text>
<text text-anchor="start" x="225.5" y="-831.5" font-family="Helvetica,sans-Serif" font-size="10.00"># m_NeedLayoutPass</text>
<text text-anchor="start" x="225.5" y="-820.5" font-family="Helvetica,sans-Serif" font-size="10.00"># m_Background</text>
<text text-anchor="start" x="225.5" y="-809.5" font-family="Helvetica,sans-Serif" font-size="10.00"># m_Border</text>
<text text-anchor="start" x="225.5" y="-798.5" font-family="Helvetica,sans-Serif" font-size="10.00">and 7 more...</text>
<polyline fill="none" stroke="black" points="217.5,-791.5 363.5,-791.5 "/>
<text text-anchor="start" x="225.5" y="-779.5" font-family="Helvetica,sans-Serif" font-size="10.00">+ Parent()</text>
<text text-anchor="start" x="225.5" y="-768.5" font-family="Helvetica,sans-Serif" font-size="10.00">+ ~Parent()</text>
<text text-anchor="start" x="225.5" y="-757.5" font-family="Helvetica,sans-Serif" font-size="10.00">+ getHitComponent()</text>
<text text-anchor="start" x="225.5" y="-746.5" font-family="Helvetica,sans-Serif" font-size="10.00">+ render()</text>
<text text-anchor="start" x="225.5" y="-735.5" font-family="Helvetica,sans-Serif" font-size="10.00">+ layout()</text>
<text text-anchor="start" x="225.5" y="-724.5" font-family="Helvetica,sans-Serif" font-size="10.00">and 39 more...</text>
<text text-anchor="start" x="225.5" y="-713.5" font-family="Helvetica,sans-Serif" font-size="10.00"># setSceneInSceneTree()</text>
<text text-anchor="start" x="225.5" y="-702.5" font-family="Helvetica,sans-Serif" font-size="10.00"># layoutChildren()</text>
<text text-anchor="start" x="225.5" y="-691.5" font-family="Helvetica,sans-Serif" font-size="10.00"># prerenderSelf()</text>
<text text-anchor="start" x="225.5" y="-680.5" font-family="Helvetica,sans-Serif" font-size="10.00"># updateSnapshotSize()</text>
<text text-anchor="start" x="225.5" y="-669.5" font-family="Helvetica,sans-Serif" font-size="10.00"># computeCustomPrefWidth()</text>
<text text-anchor="start" x="225.5" y="-658.5" font-family="Helvetica,sans-Serif" font-size="10.00">and 5 more...</text>
</a>
</g>
</g>
<!-- Node2&#45;&gt;Node1 -->
<g id="edge1" class="edge">
<title>Node2&#45;&gt;Node1</title>
<path fill="none" stroke="midnightblue" d="M290.5,-641.33C290.5,-632.1 290.5,-623.11 290.5,-614.68"/>
<polygon fill="none" stroke="midnightblue" points="287,-641.42 290.5,-651.42 294,-641.42 287,-641.42"/>
</g>
<!-- Node3 -->
<g id="node3" class="node">
<title>Node3</title>
<g id="a_node3"><a xlink:href="class_sgl_1_1_component.html" target="_top" xlink:title=" ">
<polygon fill="white" stroke="black" points="222,-921.5 222,-1154.5 359,-1154.5 359,-921.5 222,-921.5"/>
<text text-anchor="middle" x="290.5" y="-1142.5" font-family="Helvetica,sans-Serif" font-size="10.00">Sgl::Component</text>
<polyline fill="none" stroke="black" points="222,-1135.5 359,-1135.5 "/>
<text text-anchor="start" x="230" y="-1123.5" font-family="Helvetica,sans-Serif" font-size="10.00">+ Scene</text>
<text text-anchor="start" x="230" y="-1112.5" font-family="Helvetica,sans-Serif" font-size="10.00">+ USE_COMPUTED_SIZE</text>
<text text-anchor="start" x="230" y="-1101.5" font-family="Helvetica,sans-Serif" font-size="10.00">+ UNLIMITED_SIZE</text>
<text text-anchor="start" x="230" y="-1090.5" font-family="Helvetica,sans-Serif" font-size="10.00"># m_Visibility</text>
<text text-anchor="start" x="230" y="-1079.5" font-family="Helvetica,sans-Serif" font-size="10.00"># m_Focused</text>
<text text-anchor="start" x="230" y="-1068.5" font-family="Helvetica,sans-Serif" font-size="10.00"># m_Hovered</text>
<text text-anchor="start" x="230" y="-1057.5" font-family="Helvetica,sans-Serif" font-size="10.00"># m_Shadow</text>
<text text-anchor="start" x="230" y="-1046.5" font-family="Helvetica,sans-Serif" font-size="10.00"># m_Dispatcher</text>
<text text-anchor="start" x="230" y="-1035.5" font-family="Helvetica,sans-Serif" font-size="10.00">and 3 more...</text>
<polyline fill="none" stroke="black" points="222,-1028.5 359,-1028.5 "/>
<text text-anchor="start" x="230" y="-1016.5" font-family="Helvetica,sans-Serif" font-size="10.00">+ Component()</text>
<text text-anchor="start" x="230" y="-1005.5" font-family="Helvetica,sans-Serif" font-size="10.00">+ ~Component()</text>
<text text-anchor="start" x="230" y="-994.5" font-family="Helvetica,sans-Serif" font-size="10.00">+ getHitComponent()</text>
<text text-anchor="start" x="230" y="-983.5" font-family="Helvetica,sans-Serif" font-size="10.00">+ render()</text>
<text text-anchor="start" x="230" y="-972.5" font-family="Helvetica,sans-Serif" font-size="10.00">+ layout()</text>
<text text-anchor="start" x="230" y="-961.5" font-family="Helvetica,sans-Serif" font-size="10.00">and 42 more...</text>
<text text-anchor="start" x="230" y="-950.5" font-family="Helvetica,sans-Serif" font-size="10.00"># updateShadow()</text>
<text text-anchor="start" x="230" y="-939.5" font-family="Helvetica,sans-Serif" font-size="10.00"># renderShadow()</text>
<text text-anchor="start" x="230" y="-928.5" font-family="Helvetica,sans-Serif" font-size="10.00"># setSceneInSceneTree()</text>
</a>
</g>
</g>
<!-- Node3&#45;&gt;Node2 -->
<g id="edge2" class="edge">
<title>Node3&#45;&gt;Node2</title>
<path fill="none" stroke="midnightblue" d="M290.5,-911.37C290.5,-902.46 290.5,-893.49 290.5,-884.64"/>
<polygon fill="none" stroke="midnightblue" points="287,-911.4 290.5,-921.4 294,-911.4 287,-911.4"/>
</g>
<!-- Node4 -->
<g id="node4" class="node">
<title>Node4</title>
<g id="a_node4"><a xlink:title=" ">
<polygon fill="white" stroke="#bfbfbf" points="244.5,-1191.5 244.5,-1248.5 336.5,-1248.5 336.5,-1191.5 244.5,-1191.5"/>
<text text-anchor="middle" x="290.5" y="-1236.5" font-family="Helvetica,sans-Serif" font-size="10.00">Sml::EventTarget</text>
<polyline fill="none" stroke="#bfbfbf" points="244.5,-1229.5 336.5,-1229.5 "/>
<text text-anchor="middle" x="290.5" y="-1217.5" font-family="Helvetica,sans-Serif" font-size="10.00"> </text>
<polyline fill="none" stroke="#bfbfbf" points="244.5,-1210.5 336.5,-1210.5 "/>
<text text-anchor="middle" x="290.5" y="-1198.5" font-family="Helvetica,sans-Serif" font-size="10.00"> </text>
</a>
</g>
</g>
<!-- Node4&#45;&gt;Node3 -->
<g id="edge3" class="edge">
<title>Node4&#45;&gt;Node3</title>
<path fill="none" stroke="midnightblue" d="M290.5,-1181.14C290.5,-1173.03 290.5,-1164.05 290.5,-1154.67"/>
<polygon fill="none" stroke="midnightblue" points="287,-1181.27 290.5,-1191.27 294,-1181.27 287,-1181.27"/>
</g>
<!-- Node7 -->
<g id="node7" class="node">
<title>Node7</title>
<g id="a_node7"><a xlink:href="class_sgl_1_1_h_box.html" target="_top" xlink:title=" ">
<polygon fill="white" stroke="black" points="93.5,-215.5 93.5,-283.5 155.5,-283.5 155.5,-215.5 93.5,-215.5"/>
<text text-anchor="middle" x="124.5" y="-271.5" font-family="Helvetica,sans-Serif" font-size="10.00">Sgl::HBox</text>
<polyline fill="none" stroke="black" points="93.5,-264.5 155.5,-264.5 "/>
<text text-anchor="middle" x="124.5" y="-252.5" font-family="Helvetica,sans-Serif" font-size="10.00"> </text>
<polyline fill="none" stroke="black" points="93.5,-245.5 155.5,-245.5 "/>
<text text-anchor="start" x="101.5" y="-233.5" font-family="Helvetica,sans-Serif" font-size="10.00">+ HBox()</text>
<text text-anchor="start" x="101.5" y="-222.5" font-family="Helvetica,sans-Serif" font-size="10.00">+ ~HBox()</text>
</a>
</g>
</g>
<!-- Node6&#45;&gt;Node7 -->
<g id="edge6" class="edge">
<title>Node6&#45;&gt;Node7</title>
<path fill="none" stroke="midnightblue" d="M185.8,-339.52C172.6,-320.36 158.64,-300.08 147.38,-283.73"/>
<polygon fill="none" stroke="midnightblue" points="183.04,-341.69 191.59,-347.94 188.8,-337.72 183.04,-341.69"/>
</g>
<!-- Node9 -->
<g id="node9" class="node">
<title>Node9</title>
<g id="a_node9"><a xlink:href="class_sgl_1_1_v_box.html" target="_top" xlink:title=" ">
<polygon fill="white" stroke="black" points="198.5,-215.5 198.5,-283.5 260.5,-283.5 260.5,-215.5 198.5,-215.5"/>
<text text-anchor="middle" x="229.5" y="-271.5" font-family="Helvetica,sans-Serif" font-size="10.00">Sgl::VBox</text>
<polyline fill="none" stroke="black" points="198.5,-264.5 260.5,-264.5 "/>
<text text-anchor="middle" x="229.5" y="-252.5" font-family="Helvetica,sans-Serif" font-size="10.00"> </text>
<polyline fill="none" stroke="black" points="198.5,-245.5 260.5,-245.5 "/>
<text text-anchor="start" x="206.5" y="-233.5" font-family="Helvetica,sans-Serif" font-size="10.00">+ VBox()</text>
<text text-anchor="start" x="206.5" y="-222.5" font-family="Helvetica,sans-Serif" font-size="10.00">+ ~VBox()</text>
</a>
</g>
</g>
<!-- Node6&#45;&gt;Node9 -->
<g id="edge8" class="edge">
<title>Node6&#45;&gt;Node9</title>
<path fill="none" stroke="midnightblue" d="M229.5,-337.72C229.5,-319.09 229.5,-299.57 229.5,-283.73"/>
<polygon fill="none" stroke="midnightblue" points="226,-337.94 229.5,-347.94 233,-337.94 226,-337.94"/>
</g>
<!-- Node8 -->
<g id="node8" class="node">
<title>Node8</title>
<g id="a_node8"><a xlink:href="class_sgl_1_1_menu_bar.html" target="_top" xlink:title=" ">
<polygon fill="white" stroke="black" points="0,-17 0,-140 149,-140 149,-17 0,-17"/>
<text text-anchor="middle" x="74.5" y="-128" font-family="Helvetica,sans-Serif" font-size="10.00">Sgl::MenuBar</text>
<polyline fill="none" stroke="black" points="0,-121 149,-121 "/>
<text text-anchor="start" x="8" y="-109" font-family="Helvetica,sans-Serif" font-size="10.00">+ DEFAULT_BACKGROUND</text>
<text text-anchor="start" x="8" y="-98" font-family="Helvetica,sans-Serif" font-size="10.00">+ DEFAULT_BORDER</text>
<polyline fill="none" stroke="black" points="0,-91 149,-91 "/>
<text text-anchor="start" x="8" y="-79" font-family="Helvetica,sans-Serif" font-size="10.00">+ MenuBar()</text>
<text text-anchor="start" x="8" y="-68" font-family="Helvetica,sans-Serif" font-size="10.00">+ ~MenuBar()</text>
<text text-anchor="start" x="8" y="-57" font-family="Helvetica,sans-Serif" font-size="10.00">+ addMenu()</text>
<text text-anchor="start" x="8" y="-46" font-family="Helvetica,sans-Serif" font-size="10.00">+ getMenu()</text>
<text text-anchor="start" x="8" y="-35" font-family="Helvetica,sans-Serif" font-size="10.00">+ showMenu()</text>
<text text-anchor="start" x="8" y="-24" font-family="Helvetica,sans-Serif" font-size="10.00">+ hideMenu()</text>
</a>
</g>
</g>
<!-- Node7&#45;&gt;Node8 -->
<g id="edge7" class="edge">
<title>Node7&#45;&gt;Node8</title>
<path fill="none" stroke="midnightblue" d="M111.76,-205.44C105.9,-185.63 98.84,-161.78 92.45,-140.18"/>
<polygon fill="none" stroke="midnightblue" points="108.43,-206.51 114.62,-215.11 115.14,-204.53 108.43,-206.51"/>
</g>
<!-- Node10 -->
<g id="node10" class="node">
<title>Node10</title>
<g id="a_node10"><a xlink:href="class_sgl_1_1_context_menu.html" target="_top" xlink:title=" ">
<polygon fill="white" stroke="black" points="167.5,-0.5 167.5,-156.5 341.5,-156.5 341.5,-0.5 167.5,-0.5"/>
<text text-anchor="middle" x="254.5" y="-144.5" font-family="Helvetica,sans-Serif" font-size="10.00">Sgl::ContextMenu</text>
<polyline fill="none" stroke="black" points="167.5,-137.5 341.5,-137.5 "/>
<text text-anchor="start" x="175.5" y="-125.5" font-family="Helvetica,sans-Serif" font-size="10.00">+ DEFAULT_PADDING</text>
<text text-anchor="start" x="175.5" y="-114.5" font-family="Helvetica,sans-Serif" font-size="10.00">+ DEFAULT_BORDER</text>
<text text-anchor="start" x="175.5" y="-103.5" font-family="Helvetica,sans-Serif" font-size="10.00">+ DEFAULT_BACKGROUND_FILL</text>
<text text-anchor="start" x="175.5" y="-92.5" font-family="Helvetica,sans-Serif" font-size="10.00">+ DEFAULT_BACKGROUND</text>
<text text-anchor="start" x="175.5" y="-81.5" font-family="Helvetica,sans-Serif" font-size="10.00">+ DEFAULT_SHADOW</text>
<polyline fill="none" stroke="black" points="167.5,-74.5 341.5,-74.5 "/>
<text text-anchor="start" x="175.5" y="-62.5" font-family="Helvetica,sans-Serif" font-size="10.00">+ ContextMenu()</text>
<text text-anchor="start" x="175.5" y="-51.5" font-family="Helvetica,sans-Serif" font-size="10.00">+ ~ContextMenu()</text>
<text text-anchor="start" x="175.5" y="-40.5" font-family="Helvetica,sans-Serif" font-size="10.00">+ render()</text>
<text text-anchor="start" x="175.5" y="-29.5" font-family="Helvetica,sans-Serif" font-size="10.00">+ getSource()</text>
<text text-anchor="start" x="175.5" y="-18.5" font-family="Helvetica,sans-Serif" font-size="10.00">+ setSource()</text>
<text text-anchor="start" x="175.5" y="-7.5" font-family="Helvetica,sans-Serif" font-size="10.00">and 4 more...</text>
</a>
</g>
</g>
<!-- Node9&#45;&gt;Node10 -->
<g id="edge9" class="edge">
<title>Node9&#45;&gt;Node10</title>
<path fill="none" stroke="midnightblue" d="M235.9,-205.22C238.1,-190.36 240.63,-173.25 243.1,-156.53"/>
<polygon fill="none" stroke="midnightblue" points="232.44,-204.71 234.44,-215.11 239.36,-205.73 232.44,-204.71"/>
</g>
<!-- Node12 -->
<g id="node12" class="node">
<title>Node12</title>
<g id="a_node12"><a xlink:href="class_sgl_1_1_anchor_pane.html" target="_top" xlink:title="Allows the edges of components to be anchored to anchor pane&#39;s edges.">
<polygon fill="white" stroke="black" points="279,-193.5 279,-305.5 452,-305.5 452,-193.5 279,-193.5"/>
<text text-anchor="middle" x="365.5" y="-293.5" font-family="Helvetica,sans-Serif" font-size="10.00">Sgl::AnchorPane</text>
<polyline fill="none" stroke="black" points="279,-286.5 452,-286.5 "/>
<text text-anchor="start" x="287" y="-274.5" font-family="Helvetica,sans-Serif" font-size="10.00">+ ANCHOR_NOT_ENABLED</text>
<polyline fill="none" stroke="black" points="279,-267.5 452,-267.5 "/>
<text text-anchor="start" x="287" y="-255.5" font-family="Helvetica,sans-Serif" font-size="10.00">+ ~AnchorPane()</text>
<text text-anchor="start" x="287" y="-244.5" font-family="Helvetica,sans-Serif" font-size="10.00">+ getConstraints()</text>
<text text-anchor="start" x="287" y="-233.5" font-family="Helvetica,sans-Serif" font-size="10.00">+ hasConstraints()</text>
<text text-anchor="start" x="287" y="-222.5" font-family="Helvetica,sans-Serif" font-size="10.00">+ setHorizontalRelativePositioning()</text>
<text text-anchor="start" x="287" y="-211.5" font-family="Helvetica,sans-Serif" font-size="10.00">+ setVerticalRelativePositioning()</text>
<text text-anchor="start" x="287" y="-200.5" font-family="Helvetica,sans-Serif" font-size="10.00">and 10 more...</text>
</a>
</g>
</g>
<!-- Node11&#45;&gt;Node12 -->
<g id="edge11" class="edge">
<title>Node11&#45;&gt;Node12</title>
<path fill="none" stroke="midnightblue" d="M358.53,-332.25C359.3,-323.29 360.07,-314.23 360.81,-305.56"/>
<polygon fill="none" stroke="midnightblue" points="355.04,-332.03 357.68,-342.29 362.01,-332.62 355.04,-332.03"/>
</g>
</g>
</svg>
