<?xml version="1.0" encoding="UTF-8" standalone="no"?>
<!DOCTYPE svg PUBLIC "-//W3C//DTD SVG 1.1//EN"
 "http://www.w3.org/Graphics/SVG/1.1/DTD/svg11.dtd">
<!-- Generated by graphviz version 2.50.0 (20211204.2007)
 -->
<!-- Title: Sgl::DefaultSkins::SliderSkin Pages: 1 -->
<svg width="689pt" height="591pt"
 viewBox="0.00 0.00 689.00 591.00" xmlns="http://www.w3.org/2000/svg" xmlns:xlink="http://www.w3.org/1999/xlink">
<g id="graph0" class="graph" transform="scale(1 1) rotate(0) translate(4 587)">
<title>Sgl::DefaultSkins::SliderSkin</title>
<polygon fill="white" stroke="transparent" points="-4,4 -4,-587 685,-587 685,4 -4,4"/>
<!-- Node1 -->
<g id="node1" class="node">
<title>Node1</title>
<g id="a_node1"><a xlink:title=" ">
<polygon fill="#bfbfbf" stroke="black" points="284,-0.5 284,-123.5 392,-123.5 392,-0.5 284,-0.5"/>
<text text-anchor="start" x="292" y="-111.5" font-family="Helvetica,sans-Serif" font-size="10.00">Sgl::DefaultSkins::</text>
<text text-anchor="middle" x="338" y="-100.5" font-family="Helvetica,sans-Serif" font-size="10.00">SliderSkin</text>
<polyline fill="none" stroke="black" points="284,-93.5 392,-93.5 "/>
<text text-anchor="middle" x="338" y="-81.5" font-family="Helvetica,sans-Serif" font-size="10.00"> </text>
<polyline fill="none" stroke="black" points="284,-74.5 392,-74.5 "/>
<text text-anchor="start" x="292" y="-62.5" font-family="Helvetica,sans-Serif" font-size="10.00">+ SliderSkin()</text>
<text text-anchor="start" x="292" y="-51.5" font-family="Helvetica,sans-Serif" font-size="10.00">+ SliderSkin()</text>
<text text-anchor="start" x="292" y="-40.5" font-family="Helvetica,sans-Serif" font-size="10.00">+ dispose()</text>
<text text-anchor="start" x="292" y="-29.5" font-family="Helvetica,sans-Serif" font-size="10.00">+ attach()</text>
<text text-anchor="start" x="292" y="-18.5" font-family="Helvetica,sans-Serif" font-size="10.00">+ getHitComponent()</text>
<text text-anchor="start" x="292" y="-7.5" font-family="Helvetica,sans-Serif" font-size="10.00">and 16 more...</text>
</a>
</g>
</g>
<!-- Node2 -->
<g id="node2" class="node">
<title>Node2</title>
<g id="a_node2"><a xlink:href="class_sgl_1_1_base_skin.html" target="_top" xlink:title=" ">
<polygon fill="white" stroke="black" points="21,-221 21,-278 143,-278 143,-221 21,-221"/>
<text text-anchor="middle" x="82" y="-266" font-family="Helvetica,sans-Serif" font-size="10.00">Sgl::BaseSkin&lt; Slider &gt;</text>
<polyline fill="none" stroke="black" points="21,-259 143,-259 "/>
<text text-anchor="middle" x="82" y="-247" font-family="Helvetica,sans-Serif" font-size="10.00"> </text>
<polyline fill="none" stroke="black" points="21,-240 143,-240 "/>
<text text-anchor="start" x="29" y="-228" font-family="Helvetica,sans-Serif" font-size="10.00">+ attach()</text>
</a>
</g>
</g>
<!-- Node2&#45;&gt;Node1 -->
<g id="edge1" class="edge">
<title>Node2&#45;&gt;Node1</title>
<path fill="none" stroke="midnightblue" d="M123.79,-214.7C133,-207.44 142.76,-199.88 152,-193 195.6,-160.52 246.25,-125.28 283.67,-99.7"/>
<polygon fill="none" stroke="midnightblue" points="121.52,-212.03 115.86,-220.98 125.87,-217.51 121.52,-212.03"/>
</g>
<!-- Node3 -->
<g id="node3" class="node">
<title>Node3</title>
<g id="a_node3"><a xlink:href="class_sgl_1_1_skin.html" target="_top" xlink:title=" ">
<polygon fill="white" stroke="black" points="0,-470.5 0,-582.5 108,-582.5 108,-470.5 0,-470.5"/>
<text text-anchor="middle" x="54" y="-570.5" font-family="Helvetica,sans-Serif" font-size="10.00">Sgl::Skin</text>
<polyline fill="none" stroke="black" points="0,-563.5 108,-563.5 "/>
<text text-anchor="middle" x="54" y="-551.5" font-family="Helvetica,sans-Serif" font-size="10.00"> </text>
<polyline fill="none" stroke="black" points="0,-544.5 108,-544.5 "/>
<text text-anchor="start" x="8" y="-532.5" font-family="Helvetica,sans-Serif" font-size="10.00">+ ~Skin()</text>
<text text-anchor="start" x="8" y="-521.5" font-family="Helvetica,sans-Serif" font-size="10.00">+ dispose()</text>
<text text-anchor="start" x="8" y="-510.5" font-family="Helvetica,sans-Serif" font-size="10.00">+ prerenderControl()</text>
<text text-anchor="start" x="8" y="-499.5" font-family="Helvetica,sans-Serif" font-size="10.00">+ getHitComponent()</text>
<text text-anchor="start" x="8" y="-488.5" font-family="Helvetica,sans-Serif" font-size="10.00">+ getControl()</text>
<text text-anchor="start" x="8" y="-477.5" font-family="Helvetica,sans-Serif" font-size="10.00">and 8 more...</text>
</a>
</g>
</g>
<!-- Node3&#45;&gt;Node2 -->
<g id="edge2" class="edge">
<title>Node3&#45;&gt;Node2</title>
<path fill="none" stroke="midnightblue" d="M54.17,-459.94C54.89,-427.64 56.71,-388.17 61,-353 64.12,-327.4 70.24,-298.66 75.07,-278.14"/>
<polygon fill="none" stroke="midnightblue" points="50.67,-460.09 53.98,-470.16 57.67,-460.23 50.67,-460.09"/>
</g>
<!-- Node4 -->
<g id="node4" class="node">
<title>Node4</title>
<g id="a_node4"><a xlink:href="class_sgl_1_1_base_skin.html" target="_top" xlink:title=" ">
<polygon fill="white" stroke="black" points="70,-364.5 70,-421.5 174,-421.5 174,-364.5 70,-364.5"/>
<text text-anchor="middle" x="122" y="-409.5" font-family="Helvetica,sans-Serif" font-size="10.00">Sgl::BaseSkin&lt; C &gt;</text>
<polyline fill="none" stroke="black" points="70,-402.5 174,-402.5 "/>
<text text-anchor="middle" x="122" y="-390.5" font-family="Helvetica,sans-Serif" font-size="10.00"> </text>
<polyline fill="none" stroke="black" points="70,-383.5 174,-383.5 "/>
<text text-anchor="start" x="78" y="-371.5" font-family="Helvetica,sans-Serif" font-size="10.00">+ attach()</text>
</a>
</g>
</g>
<!-- Node3&#45;&gt;Node4 -->
<g id="edge4" class="edge">
<title>Node3&#45;&gt;Node4</title>
<path fill="none" stroke="midnightblue" d="M87.19,-461.32C94.44,-447.3 101.74,-433.19 107.77,-421.53"/>
<polygon fill="none" stroke="midnightblue" points="83.93,-460 82.44,-470.49 90.15,-463.22 83.93,-460"/>
</g>
<!-- Node4&#45;&gt;Node2 -->
<g id="edge3" class="edge">
<title>Node4&#45;&gt;Node2</title>
<path fill="none" stroke="orange" d="M111.41,-354.54C104.62,-330.51 95.95,-299.85 89.79,-278.05"/>
<polygon fill="orange" stroke="orange" points="108.1,-355.71 114.19,-364.38 114.84,-353.81 108.1,-355.71"/>
<text text-anchor="middle" x="129" y="-327" font-family="Helvetica,sans-Serif" font-size="10.00"> &lt; Slider &gt;</text>
</g>
<!-- Node5 -->
<g id="node5" class="node">
<title>Node5</title>
<g id="a_node5"><a xlink:href="class_sgl_1_1_shadow_specification.html" target="_top" xlink:title=" ">
<polygon fill="white" stroke="black" points="161.5,-193.5 161.5,-305.5 290.5,-305.5 290.5,-193.5 161.5,-193.5"/>
<text text-anchor="middle" x="226" y="-293.5" font-family="Helvetica,sans-Serif" font-size="10.00">Sgl::ShadowSpecification</text>
<polyline fill="none" stroke="black" points="161.5,-286.5 290.5,-286.5 "/>
<text text-anchor="middle" x="226" y="-274.5" font-family="Helvetica,sans-Serif" font-size="10.00"> </text>
<polyline fill="none" stroke="black" points="161.5,-267.5 290.5,-267.5 "/>
<text text-anchor="start" x="169.5" y="-255.5" font-family="Helvetica,sans-Serif" font-size="10.00">+ ShadowSpecification()</text>
<text text-anchor="start" x="169.5" y="-244.5" font-family="Helvetica,sans-Serif" font-size="10.00">+ ~ShadowSpecification()</text>
<text text-anchor="start" x="169.5" y="-233.5" font-family="Helvetica,sans-Serif" font-size="10.00">+ getOffset()</text>
<text text-anchor="start" x="169.5" y="-222.5" font-family="Helvetica,sans-Serif" font-size="10.00">+ getScale()</text>
<text text-anchor="start" x="169.5" y="-211.5" font-family="Helvetica,sans-Serif" font-size="10.00">+ getBlurRadius()</text>
<text text-anchor="start" x="169.5" y="-200.5" font-family="Helvetica,sans-Serif" font-size="10.00">+ getColor()</text>
</a>
</g>
</g>
<!-- Node5&#45;&gt;Node1 -->
<g id="edge5" class="edge">
<title>Node5&#45;&gt;Node1</title>
<path fill="none" stroke="#404040" d="M228.54,-193.47C231.2,-176.12 236.11,-157.47 245,-142 252.58,-128.81 263.22,-116.81 274.62,-106.36"/>
<polygon fill="none" stroke="#404040" points="274.81,-106.19 276.72,-99.23 283.87,-98.32 281.96,-105.27 274.81,-106.19"/>
<text text-anchor="middle" x="289.5" y="-156" font-family="Helvetica,sans-Serif" font-size="10.00"> +KNOB_SHADOW</text>
</g>
<!-- Node6 -->
<g id="node6" class="node">
<title>Node6</title>
<g id="a_node6"><a xlink:href="class_sgl_1_1_color_fill.html" target="_top" xlink:title=" ">
<polygon fill="white" stroke="black" points="308.5,-193.5 308.5,-305.5 381.5,-305.5 381.5,-193.5 308.5,-193.5"/>
<text text-anchor="middle" x="345" y="-293.5" font-family="Helvetica,sans-Serif" font-size="10.00">Sgl::ColorFill</text>
<polyline fill="none" stroke="black" points="308.5,-286.5 381.5,-286.5 "/>
<text text-anchor="middle" x="345" y="-274.5" font-family="Helvetica,sans-Serif" font-size="10.00"> </text>
<polyline fill="none" stroke="black" points="308.5,-267.5 381.5,-267.5 "/>
<text text-anchor="start" x="316.5" y="-255.5" font-family="Helvetica,sans-Serif" font-size="10.00">+ ColorFill()</text>
<text text-anchor="start" x="316.5" y="-244.5" font-family="Helvetica,sans-Serif" font-size="10.00">+ fillLine()</text>
<text text-anchor="start" x="316.5" y="-233.5" font-family="Helvetica,sans-Serif" font-size="10.00">+ fillArea()</text>
<text text-anchor="start" x="316.5" y="-222.5" font-family="Helvetica,sans-Serif" font-size="10.00">+ fillPoint()</text>
<text text-anchor="start" x="316.5" y="-211.5" font-family="Helvetica,sans-Serif" font-size="10.00">+ getColor()</text>
<text text-anchor="start" x="316.5" y="-200.5" font-family="Helvetica,sans-Serif" font-size="10.00">+ setColor()</text>
</a>
</g>
</g>
<!-- Node6&#45;&gt;Node1 -->
<g id="edge6" class="edge">
<title>Node6&#45;&gt;Node1</title>
<path fill="none" stroke="#404040" d="M340.05,-193.14C339.63,-187.03 339.27,-180.88 339,-175 338.43,-162.41 338.09,-149.02 337.89,-136.04"/>
<polygon fill="none" stroke="#404040" points="337.88,-135.76 333.81,-129.81 337.74,-123.76 341.81,-129.72 337.88,-135.76"/>
<text text-anchor="middle" x="396" y="-161.5" font-family="Helvetica,sans-Serif" font-size="10.00"> +NOT_SELECTED_FILL</text>
<text text-anchor="middle" x="396" y="-150.5" font-family="Helvetica,sans-Serif" font-size="10.00">+SELECTED_FILL</text>
</g>
<!-- Node7 -->
<g id="node7" class="node">
<title>Node7</title>
<g id="a_node7"><a xlink:href="class_sgl_1_1_fill.html" target="_top" xlink:title=" ">
<polygon fill="white" stroke="black" points="278,-353.5 278,-432.5 342,-432.5 342,-353.5 278,-353.5"/>
<text text-anchor="middle" x="310" y="-420.5" font-family="Helvetica,sans-Serif" font-size="10.00">Sgl::Fill</text>
<polyline fill="none" stroke="black" points="278,-413.5 342,-413.5 "/>
<text text-anchor="middle" x="310" y="-401.5" font-family="Helvetica,sans-Serif" font-size="10.00"> </text>
<polyline fill="none" stroke="black" points="278,-394.5 342,-394.5 "/>
<text text-anchor="start" x="286" y="-382.5" font-family="Helvetica,sans-Serif" font-size="10.00">+ fillLine()</text>
<text text-anchor="start" x="286" y="-371.5" font-family="Helvetica,sans-Serif" font-size="10.00">+ fillArea()</text>
<text text-anchor="start" x="286" y="-360.5" font-family="Helvetica,sans-Serif" font-size="10.00">+ fillPoint()</text>
</a>
</g>
</g>
<!-- Node7&#45;&gt;Node6 -->
<g id="edge7" class="edge">
<title>Node7&#45;&gt;Node6</title>
<path fill="none" stroke="midnightblue" d="M322.03,-343.37C325.04,-331.19 328.3,-318.03 331.38,-305.56"/>
<polygon fill="none" stroke="midnightblue" points="318.57,-342.79 319.56,-353.33 325.36,-344.47 318.57,-342.79"/>
</g>
<!-- Node8 -->
<g id="node8" class="node">
<title>Node8</title>
<g id="a_node8"><a xlink:title=" ">
<polygon fill="white" stroke="#bfbfbf" points="360,-364.5 360,-421.5 400,-421.5 400,-364.5 360,-364.5"/>
<text text-anchor="middle" x="380" y="-409.5" font-family="Helvetica,sans-Serif" font-size="10.00">Color</text>
<polyline fill="none" stroke="#bfbfbf" points="360,-402.5 400,-402.5 "/>
<text text-anchor="middle" x="380" y="-390.5" font-family="Helvetica,sans-Serif" font-size="10.00"> </text>
<polyline fill="none" stroke="#bfbfbf" points="360,-383.5 400,-383.5 "/>
<text text-anchor="middle" x="380" y="-371.5" font-family="Helvetica,sans-Serif" font-size="10.00"> </text>
</a>
</g>
</g>
<!-- Node8&#45;&gt;Node6 -->
<g id="edge8" class="edge">
<title>Node8&#45;&gt;Node6</title>
<path fill="none" stroke="#404040" d="M373.17,-364.38C369.84,-350.92 365.68,-334.09 361.58,-317.53"/>
<polygon fill="none" stroke="#404040" points="361.5,-317.22 356.18,-312.36 358.62,-305.57 363.95,-310.44 361.5,-317.22"/>
<text text-anchor="middle" x="388" y="-327" font-family="Helvetica,sans-Serif" font-size="10.00"> #m_Color</text>
</g>
<!-- Node9 -->
<g id="node9" class="node">
<title>Node9</title>
<g id="a_node9"><a xlink:title=" ">
<polygon fill="white" stroke="#bfbfbf" points="455,-221 455,-278 495,-278 495,-221 455,-221"/>
<text text-anchor="middle" x="475" y="-266" font-family="Helvetica,sans-Serif" font-size="10.00">Color</text>
<polyline fill="none" stroke="#bfbfbf" points="455,-259 495,-259 "/>
<text text-anchor="middle" x="475" y="-247" font-family="Helvetica,sans-Serif" font-size="10.00"> </text>
<polyline fill="none" stroke="#bfbfbf" points="455,-240 495,-240 "/>
<text text-anchor="middle" x="475" y="-228" font-family="Helvetica,sans-Serif" font-size="10.00"> </text>
</a>
</g>
</g>
<!-- Node9&#45;&gt;Node1 -->
<g id="edge9" class="edge">
<title>Node9&#45;&gt;Node1</title>
<path fill="none" stroke="#404040" d="M474.87,-220.98C473.53,-198.1 468.67,-165.59 453,-142 440.39,-123.02 421.52,-107.32 402.69,-95.05"/>
<polygon fill="none" stroke="#404040" points="402.47,-94.92 395.26,-95.15 392.27,-88.59 399.48,-88.35 402.47,-94.92"/>
<text text-anchor="middle" x="506.5" y="-156" font-family="Helvetica,sans-Serif" font-size="10.00"> +KNOB_COLOR</text>
</g>
<!-- Node10 -->
<g id="node10" class="node">
<title>Node10</title>
<g id="a_node10"><a xlink:title=" ">
<polygon fill="white" stroke="#bfbfbf" points="554,-221 554,-278 600,-278 600,-221 554,-221"/>
<text text-anchor="middle" x="577" y="-266" font-family="Helvetica,sans-Serif" font-size="10.00">int32_t</text>
<polyline fill="none" stroke="#bfbfbf" points="554,-259 600,-259 "/>
<text text-anchor="middle" x="577" y="-247" font-family="Helvetica,sans-Serif" font-size="10.00"> </text>
<polyline fill="none" stroke="#bfbfbf" points="554,-240 600,-240 "/>
<text text-anchor="middle" x="577" y="-228" font-family="Helvetica,sans-Serif" font-size="10.00"> </text>
</a>
</g>
</g>
<!-- Node10&#45;&gt;Node1 -->
<g id="edge10" class="edge">
<title>Node10&#45;&gt;Node1</title>
<path fill="none" stroke="#404040" d="M576.84,-220.74C575.25,-197.08 569.36,-163.58 550,-142 512.72,-100.45 451.49,-80.68 404.39,-71.32"/>
<polygon fill="none" stroke="#404040" points="404.24,-71.29 397.61,-74.13 392.44,-69.11 399.07,-66.27 404.24,-71.29"/>
<text text-anchor="middle" x="624" y="-167" font-family="Helvetica,sans-Serif" font-size="10.00"> +KNOB_SIZE_ACROSS</text>
<text text-anchor="middle" x="624" y="-156" font-family="Helvetica,sans-Serif" font-size="10.00">+KNOB_SIZE_ALONG</text>
<text text-anchor="middle" x="624" y="-145" font-family="Helvetica,sans-Serif" font-size="10.00">+THICKNESS</text>
</g>
</g>
</svg>
