<?xml version="1.0" encoding="UTF-8" standalone="no"?>
<!DOCTYPE svg PUBLIC "-//W3C//DTD SVG 1.1//EN"
 "http://www.w3.org/Graphics/SVG/1.1/DTD/svg11.dtd">
<!-- Generated by graphviz version 2.50.0 (20211204.2007)
 -->
<!-- Title: Sgl::MenuSelectListener Pages: 1 -->
<svg width="250pt" height="171pt"
 viewBox="0.00 0.00 250.00 171.00" xmlns="http://www.w3.org/2000/svg" xmlns:xlink="http://www.w3.org/1999/xlink">
<g id="graph0" class="graph" transform="scale(1 1) rotate(0) translate(4 167)">
<title>Sgl::MenuSelectListener</title>
<polygon fill="white" stroke="transparent" points="-4,4 -4,-167 246,-167 246,4 -4,4"/>
<!-- Node1 -->
<g id="node1" class="node">
<title>Node1</title>
<g id="a_node1"><a xlink:title=" ">
<polygon fill="#bfbfbf" stroke="black" points="0,-0.5 0,-68.5 242,-68.5 242,-0.5 0,-0.5"/>
<text text-anchor="middle" x="121" y="-56.5" font-family="Helvetica,sans-Serif" font-size="10.00">Sgl::MenuSelectListener</text>
<polyline fill="none" stroke="black" points="0,-49.5 242,-49.5 "/>
<text text-anchor="middle" x="121" y="-37.5" font-family="Helvetica,sans-Serif" font-size="10.00"> </text>
<polyline fill="none" stroke="black" points="0,-30.5 242,-30.5 "/>
<text text-anchor="start" x="8" y="-18.5" font-family="Helvetica,sans-Serif" font-size="10.00">+ DEFINE_STATIC_LISTENED_EVENT_TYPES()</text>
<text text-anchor="start" x="8" y="-7.5" font-family="Helvetica,sans-Serif" font-size="10.00">+ onEvent()</text>
</a>
</g>
</g>
<!-- Node2 -->
<g id="node2" class="node">
<title>Node2</title>
<g id="a_node2"><a xlink:title=" ">
<polygon fill="white" stroke="#bfbfbf" points="84,-105.5 84,-162.5 158,-162.5 158,-105.5 84,-105.5"/>
<text text-anchor="middle" x="121" y="-150.5" font-family="Helvetica,sans-Serif" font-size="10.00">Sml::Listener</text>
<polyline fill="none" stroke="#bfbfbf" points="84,-143.5 158,-143.5 "/>
<text text-anchor="middle" x="121" y="-131.5" font-family="Helvetica,sans-Serif" font-size="10.00"> </text>
<polyline fill="none" stroke="#bfbfbf" points="84,-124.5 158,-124.5 "/>
<text text-anchor="middle" x="121" y="-112.5" font-family="Helvetica,sans-Serif" font-size="10.00"> </text>
</a>
</g>
</g>
<!-- Node2&#45;&gt;Node1 -->
<g id="edge1" class="edge">
<title>Node2&#45;&gt;Node1</title>
<path fill="none" stroke="midnightblue" d="M121,-95.06C121,-86.39 121,-77.24 121,-68.79"/>
<polygon fill="none" stroke="midnightblue" points="117.5,-95.32 121,-105.32 124.5,-95.32 117.5,-95.32"/>
</g>
</g>
</svg>
