<?xml version="1.0" encoding="UTF-8" standalone="no"?>
<!DOCTYPE svg PUBLIC "-//W3C//DTD SVG 1.1//EN"
 "http://www.w3.org/Graphics/SVG/1.1/DTD/svg11.dtd">
<!-- Generated by graphviz version 2.50.0 (20211204.2007)
 -->
<!-- Title: Sgl::DefaultSkins::ButtonBaseSkinEventListener Pages: 1 -->
<svg width="273pt" height="449pt"
 viewBox="0.00 0.00 272.50 449.00" xmlns="http://www.w3.org/2000/svg" xmlns:xlink="http://www.w3.org/1999/xlink">
<g id="graph0" class="graph" transform="scale(1 1) rotate(0) translate(4 445)">
<title>Sgl::DefaultSkins::ButtonBaseSkinEventListener</title>
<polygon fill="white" stroke="transparent" points="-4,4 -4,-445 268.5,-445 268.5,4 -4,4"/>
<!-- Node1 -->
<g id="node1" class="node">
<title>Node1</title>
<g id="a_node1"><a xlink:title=" ">
<polygon fill="#bfbfbf" stroke="black" points="0,-0.5 0,-90.5 158,-90.5 158,-0.5 0,-0.5"/>
<text text-anchor="start" x="8" y="-78.5" font-family="Helvetica,sans-Serif" font-size="10.00">Sgl::DefaultSkins::</text>
<text text-anchor="middle" x="79" y="-67.5" font-family="Helvetica,sans-Serif" font-size="10.00">ButtonBaseSkinEventListener</text>
<polyline fill="none" stroke="black" points="0,-60.5 158,-60.5 "/>
<text text-anchor="middle" x="79" y="-48.5" font-family="Helvetica,sans-Serif" font-size="10.00"> </text>
<polyline fill="none" stroke="black" points="0,-41.5 158,-41.5 "/>
<text text-anchor="start" x="8" y="-29.5" font-family="Helvetica,sans-Serif" font-size="10.00">+ DEFINE_STATIC_LISTENED</text>
<text text-anchor="start" x="8" y="-18.5" font-family="Helvetica,sans-Serif" font-size="10.00">_EVENT_TYPES()</text>
<text text-anchor="start" x="8" y="-7.5" font-family="Helvetica,sans-Serif" font-size="10.00">+ onEvent()</text>
</a>
</g>
</g>
<!-- Node2 -->
<g id="node2" class="node">
<title>Node2</title>
<g id="a_node2"><a xlink:href="class_sgl_1_1_component_event_listener.html" target="_top" xlink:title=" ">
<polygon fill="white" stroke="black" points="5.5,-128.5 5.5,-218.5 152.5,-218.5 152.5,-128.5 5.5,-128.5"/>
<text text-anchor="start" x="13.5" y="-206.5" font-family="Helvetica,sans-Serif" font-size="10.00">Sgl::ComponentEventListener</text>
<text text-anchor="middle" x="79" y="-195.5" font-family="Helvetica,sans-Serif" font-size="10.00">&lt; Button &gt;</text>
<polyline fill="none" stroke="black" points="5.5,-188.5 152.5,-188.5 "/>
<text text-anchor="middle" x="79" y="-176.5" font-family="Helvetica,sans-Serif" font-size="10.00"> </text>
<polyline fill="none" stroke="black" points="5.5,-169.5 152.5,-169.5 "/>
<text text-anchor="start" x="13.5" y="-157.5" font-family="Helvetica,sans-Serif" font-size="10.00">+ ComponentEventListener()</text>
<text text-anchor="start" x="13.5" y="-146.5" font-family="Helvetica,sans-Serif" font-size="10.00">+ getComponent()</text>
<text text-anchor="start" x="13.5" y="-135.5" font-family="Helvetica,sans-Serif" font-size="10.00">+ setComponent()</text>
</a>
</g>
</g>
<!-- Node2&#45;&gt;Node1 -->
<g id="edge1" class="edge">
<title>Node2&#45;&gt;Node1</title>
<path fill="none" stroke="midnightblue" d="M79,-118.23C79,-109.06 79,-99.63 79,-90.76"/>
<polygon fill="none" stroke="midnightblue" points="75.5,-118.43 79,-128.43 82.5,-118.43 75.5,-118.43"/>
</g>
<!-- Node3 -->
<g id="node3" class="node">
<title>Node3</title>
<g id="a_node3"><a xlink:title=" ">
<polygon fill="white" stroke="#bfbfbf" points="38,-383.5 38,-440.5 112,-440.5 112,-383.5 38,-383.5"/>
<text text-anchor="middle" x="75" y="-428.5" font-family="Helvetica,sans-Serif" font-size="10.00">Sml::Listener</text>
<polyline fill="none" stroke="#bfbfbf" points="38,-421.5 112,-421.5 "/>
<text text-anchor="middle" x="75" y="-409.5" font-family="Helvetica,sans-Serif" font-size="10.00"> </text>
<polyline fill="none" stroke="#bfbfbf" points="38,-402.5 112,-402.5 "/>
<text text-anchor="middle" x="75" y="-390.5" font-family="Helvetica,sans-Serif" font-size="10.00"> </text>
</a>
</g>
</g>
<!-- Node3&#45;&gt;Node2 -->
<g id="edge2" class="edge">
<title>Node3&#45;&gt;Node2</title>
<path fill="none" stroke="midnightblue" d="M75.64,-373.31C76.35,-331.27 77.5,-263.35 78.25,-218.81"/>
<polygon fill="none" stroke="midnightblue" points="72.14,-373.35 75.47,-383.41 79.14,-373.47 72.14,-373.35"/>
</g>
<!-- Node4 -->
<g id="node4" class="node">
<title>Node4</title>
<g id="a_node4"><a xlink:href="class_sgl_1_1_component_event_listener.html" target="_top" xlink:title=" ">
<polygon fill="white" stroke="black" points="91.5,-266.5 91.5,-345.5 264.5,-345.5 264.5,-266.5 91.5,-266.5"/>
<text text-anchor="middle" x="178" y="-333.5" font-family="Helvetica,sans-Serif" font-size="10.00">Sgl::ComponentEventListener&lt; C &gt;</text>
<polyline fill="none" stroke="black" points="91.5,-326.5 264.5,-326.5 "/>
<text text-anchor="middle" x="178" y="-314.5" font-family="Helvetica,sans-Serif" font-size="10.00"> </text>
<polyline fill="none" stroke="black" points="91.5,-307.5 264.5,-307.5 "/>
<text text-anchor="start" x="99.5" y="-295.5" font-family="Helvetica,sans-Serif" font-size="10.00">+ ComponentEventListener()</text>
<text text-anchor="start" x="99.5" y="-284.5" font-family="Helvetica,sans-Serif" font-size="10.00">+ getComponent()</text>
<text text-anchor="start" x="99.5" y="-273.5" font-family="Helvetica,sans-Serif" font-size="10.00">+ setComponent()</text>
</a>
</g>
</g>
<!-- Node3&#45;&gt;Node4 -->
<g id="edge4" class="edge">
<title>Node3&#45;&gt;Node4</title>
<path fill="none" stroke="midnightblue" d="M109.53,-376.13C119.21,-366.36 129.8,-355.67 139.68,-345.69"/>
<polygon fill="none" stroke="midnightblue" points="106.88,-373.83 102.33,-383.4 111.86,-378.76 106.88,-373.83"/>
</g>
<!-- Node4&#45;&gt;Node2 -->
<g id="edge3" class="edge">
<title>Node4&#45;&gt;Node2</title>
<path fill="none" stroke="orange" d="M142.34,-257.99C132.66,-245.24 122.23,-231.48 112.67,-218.88"/>
<polygon fill="orange" stroke="orange" points="139.73,-260.35 148.56,-266.2 145.31,-256.12 139.73,-260.35"/>
<text text-anchor="middle" x="159" y="-240" font-family="Helvetica,sans-Serif" font-size="10.00"> &lt; Button &gt;</text>
</g>
</g>
</svg>
