<?xml version="1.0" encoding="UTF-8" standalone="no"?>
<!DOCTYPE svg PUBLIC "-//W3C//DTD SVG 1.1//EN"
 "http://www.w3.org/Graphics/SVG/1.1/DTD/svg11.dtd">
<!-- Generated by graphviz version 2.50.0 (20211204.2007)
 -->
<!-- Title: Sgl::DefaultSkins::SliderSkinDragListener Pages: 1 -->
<svg width="458pt" height="609pt"
 viewBox="0.00 0.00 458.00 609.00" xmlns="http://www.w3.org/2000/svg" xmlns:xlink="http://www.w3.org/1999/xlink">
<g id="graph0" class="graph" transform="scale(1 1) rotate(0) translate(4 605)">
<title>Sgl::DefaultSkins::SliderSkinDragListener</title>
<polygon fill="white" stroke="transparent" points="-4,4 -4,-605 454,-605 454,4 -4,4"/>
<!-- Node1 -->
<g id="node1" class="node">
<title>Node1</title>
<g id="a_node1"><a xlink:title=" ">
<polygon fill="#bfbfbf" stroke="black" points="111.5,-0.5 111.5,-90.5 310.5,-90.5 310.5,-0.5 111.5,-0.5"/>
<text text-anchor="middle" x="211" y="-78.5" font-family="Helvetica,sans-Serif" font-size="10.00">Sgl::DefaultSkins::SliderSkinDragListener</text>
<polyline fill="none" stroke="black" points="111.5,-71.5 310.5,-71.5 "/>
<text text-anchor="middle" x="211" y="-59.5" font-family="Helvetica,sans-Serif" font-size="10.00"> </text>
<polyline fill="none" stroke="black" points="111.5,-52.5 310.5,-52.5 "/>
<text text-anchor="start" x="119.5" y="-40.5" font-family="Helvetica,sans-Serif" font-size="10.00">+ SliderSkinDragListener()</text>
<text text-anchor="start" x="119.5" y="-29.5" font-family="Helvetica,sans-Serif" font-size="10.00">+ updateValue()</text>
<text text-anchor="start" x="119.5" y="-18.5" font-family="Helvetica,sans-Serif" font-size="10.00">+ onDragStart()</text>
<text text-anchor="start" x="119.5" y="-7.5" font-family="Helvetica,sans-Serif" font-size="10.00">+ onDragMove()</text>
</a>
</g>
</g>
<!-- Node2 -->
<g id="node2" class="node">
<title>Node2</title>
<g id="a_node2"><a xlink:href="class_sgl_1_1_drag_listener.html" target="_top" xlink:title=" ">
<polygon fill="white" stroke="black" points="90,-128.5 90,-229.5 332,-229.5 332,-128.5 90,-128.5"/>
<text text-anchor="middle" x="211" y="-217.5" font-family="Helvetica,sans-Serif" font-size="10.00">Sgl::DragListener&lt; Slider &gt;</text>
<polyline fill="none" stroke="black" points="90,-210.5 332,-210.5 "/>
<text text-anchor="middle" x="211" y="-198.5" font-family="Helvetica,sans-Serif" font-size="10.00"> </text>
<polyline fill="none" stroke="black" points="90,-191.5 332,-191.5 "/>
<text text-anchor="start" x="98" y="-179.5" font-family="Helvetica,sans-Serif" font-size="10.00">+ DEFINE_STATIC_LISTENED_EVENT_TYPES()</text>
<text text-anchor="start" x="98" y="-168.5" font-family="Helvetica,sans-Serif" font-size="10.00">+ onEvent()</text>
<text text-anchor="start" x="98" y="-157.5" font-family="Helvetica,sans-Serif" font-size="10.00">+ onDragStart()</text>
<text text-anchor="start" x="98" y="-146.5" font-family="Helvetica,sans-Serif" font-size="10.00">+ onDragEnd()</text>
<text text-anchor="start" x="98" y="-135.5" font-family="Helvetica,sans-Serif" font-size="10.00">+ onDragMove()</text>
</a>
</g>
</g>
<!-- Node2&#45;&gt;Node1 -->
<g id="edge1" class="edge">
<title>Node2&#45;&gt;Node1</title>
<path fill="none" stroke="midnightblue" d="M211,-118C211,-108.8 211,-99.45 211,-90.67"/>
<polygon fill="none" stroke="midnightblue" points="207.5,-118.29 211,-128.29 214.5,-118.29 207.5,-118.29"/>
</g>
<!-- Node3 -->
<g id="node3" class="node">
<title>Node3</title>
<g id="a_node3"><a xlink:href="class_sgl_1_1_component_event_listener.html" target="_top" xlink:title=" ">
<polygon fill="white" stroke="black" points="0,-288.5 0,-367.5 190,-367.5 190,-288.5 0,-288.5"/>
<text text-anchor="middle" x="95" y="-355.5" font-family="Helvetica,sans-Serif" font-size="10.00">Sgl::ComponentEventListener&lt; Slider &gt;</text>
<polyline fill="none" stroke="black" points="0,-348.5 190,-348.5 "/>
<text text-anchor="middle" x="95" y="-336.5" font-family="Helvetica,sans-Serif" font-size="10.00"> </text>
<polyline fill="none" stroke="black" points="0,-329.5 190,-329.5 "/>
<text text-anchor="start" x="8" y="-317.5" font-family="Helvetica,sans-Serif" font-size="10.00">+ ComponentEventListener()</text>
<text text-anchor="start" x="8" y="-306.5" font-family="Helvetica,sans-Serif" font-size="10.00">+ getComponent()</text>
<text text-anchor="start" x="8" y="-295.5" font-family="Helvetica,sans-Serif" font-size="10.00">+ setComponent()</text>
</a>
</g>
</g>
<!-- Node3&#45;&gt;Node2 -->
<g id="edge2" class="edge">
<title>Node3&#45;&gt;Node2</title>
<path fill="none" stroke="midnightblue" d="M131.96,-280.17C144.65,-264.08 158.9,-246.03 171.77,-229.72"/>
<polygon fill="none" stroke="midnightblue" points="128.92,-278.36 125.48,-288.38 134.42,-282.7 128.92,-278.36"/>
</g>
<!-- Node4 -->
<g id="node4" class="node">
<title>Node4</title>
<g id="a_node4"><a xlink:title=" ">
<polygon fill="white" stroke="#bfbfbf" points="101,-543.5 101,-600.5 175,-600.5 175,-543.5 101,-543.5"/>
<text text-anchor="middle" x="138" y="-588.5" font-family="Helvetica,sans-Serif" font-size="10.00">Sml::Listener</text>
<polyline fill="none" stroke="#bfbfbf" points="101,-581.5 175,-581.5 "/>
<text text-anchor="middle" x="138" y="-569.5" font-family="Helvetica,sans-Serif" font-size="10.00"> </text>
<polyline fill="none" stroke="#bfbfbf" points="101,-562.5 175,-562.5 "/>
<text text-anchor="middle" x="138" y="-550.5" font-family="Helvetica,sans-Serif" font-size="10.00"> </text>
</a>
</g>
</g>
<!-- Node4&#45;&gt;Node3 -->
<g id="edge3" class="edge">
<title>Node4&#45;&gt;Node3</title>
<path fill="none" stroke="midnightblue" d="M91.63,-551.65C72.65,-541.13 52.67,-526.11 42,-506 18.32,-461.37 43.84,-404.66 66.98,-367.63"/>
<polygon fill="none" stroke="midnightblue" points="90.04,-554.77 100.53,-556.3 93.29,-548.57 90.04,-554.77"/>
</g>
<!-- Node5 -->
<g id="node5" class="node">
<title>Node5</title>
<g id="a_node5"><a xlink:href="class_sgl_1_1_component_event_listener.html" target="_top" xlink:title=" ">
<polygon fill="white" stroke="black" points="51.5,-426.5 51.5,-505.5 224.5,-505.5 224.5,-426.5 51.5,-426.5"/>
<text text-anchor="middle" x="138" y="-493.5" font-family="Helvetica,sans-Serif" font-size="10.00">Sgl::ComponentEventListener&lt; C &gt;</text>
<polyline fill="none" stroke="black" points="51.5,-486.5 224.5,-486.5 "/>
<text text-anchor="middle" x="138" y="-474.5" font-family="Helvetica,sans-Serif" font-size="10.00"> </text>
<polyline fill="none" stroke="black" points="51.5,-467.5 224.5,-467.5 "/>
<text text-anchor="start" x="59.5" y="-455.5" font-family="Helvetica,sans-Serif" font-size="10.00">+ ComponentEventListener()</text>
<text text-anchor="start" x="59.5" y="-444.5" font-family="Helvetica,sans-Serif" font-size="10.00">+ getComponent()</text>
<text text-anchor="start" x="59.5" y="-433.5" font-family="Helvetica,sans-Serif" font-size="10.00">+ setComponent()</text>
</a>
</g>
</g>
<!-- Node4&#45;&gt;Node5 -->
<g id="edge5" class="edge">
<title>Node4&#45;&gt;Node5</title>
<path fill="none" stroke="midnightblue" d="M138,-533.23C138,-524.27 138,-514.69 138,-505.69"/>
<polygon fill="none" stroke="midnightblue" points="134.5,-533.4 138,-543.4 141.5,-533.4 134.5,-533.4"/>
</g>
<!-- Node7 -->
<g id="node7" class="node">
<title>Node7</title>
<g id="a_node7"><a xlink:href="class_sgl_1_1_component_event_listener.html" target="_top" xlink:title=" ">
<polygon fill="white" stroke="black" points="242.5,-426.5 242.5,-505.5 415.5,-505.5 415.5,-426.5 242.5,-426.5"/>
<text text-anchor="middle" x="329" y="-493.5" font-family="Helvetica,sans-Serif" font-size="10.00">Sgl::ComponentEventListener&lt; C &gt;</text>
<polyline fill="none" stroke="black" points="242.5,-486.5 415.5,-486.5 "/>
<text text-anchor="middle" x="329" y="-474.5" font-family="Helvetica,sans-Serif" font-size="10.00"> </text>
<polyline fill="none" stroke="black" points="242.5,-467.5 415.5,-467.5 "/>
<text text-anchor="start" x="250.5" y="-455.5" font-family="Helvetica,sans-Serif" font-size="10.00">+ ComponentEventListener()</text>
<text text-anchor="start" x="250.5" y="-444.5" font-family="Helvetica,sans-Serif" font-size="10.00">+ getComponent()</text>
<text text-anchor="start" x="250.5" y="-433.5" font-family="Helvetica,sans-Serif" font-size="10.00">+ setComponent()</text>
</a>
</g>
</g>
<!-- Node4&#45;&gt;Node7 -->
<g id="edge8" class="edge">
<title>Node4&#45;&gt;Node7</title>
<path fill="none" stroke="midnightblue" d="M184.16,-545.87C206.35,-533.78 233.45,-519.03 258.17,-505.56"/>
<polygon fill="none" stroke="midnightblue" points="182.39,-542.84 175.28,-550.7 185.74,-548.99 182.39,-542.84"/>
</g>
<!-- Node5&#45;&gt;Node3 -->
<g id="edge4" class="edge">
<title>Node5&#45;&gt;Node3</title>
<path fill="none" stroke="orange" d="M122.71,-416.64C117.63,-400.58 112.05,-382.93 107.24,-367.7"/>
<polygon fill="orange" stroke="orange" points="119.44,-417.91 125.79,-426.39 126.12,-415.8 119.44,-417.91"/>
<text text-anchor="middle" x="143" y="-400" font-family="Helvetica,sans-Serif" font-size="10.00"> &lt; Slider &gt;</text>
</g>
<!-- Node6 -->
<g id="node6" class="node">
<title>Node6</title>
<g id="a_node6"><a xlink:href="class_sgl_1_1_drag_listener.html" target="_top" xlink:title=" ">
<polygon fill="white" stroke="black" points="208,-277.5 208,-378.5 450,-378.5 450,-277.5 208,-277.5"/>
<text text-anchor="middle" x="329" y="-366.5" font-family="Helvetica,sans-Serif" font-size="10.00">Sgl::DragListener&lt; C &gt;</text>
<polyline fill="none" stroke="black" points="208,-359.5 450,-359.5 "/>
<text text-anchor="middle" x="329" y="-347.5" font-family="Helvetica,sans-Serif" font-size="10.00"> </text>
<polyline fill="none" stroke="black" points="208,-340.5 450,-340.5 "/>
<text text-anchor="start" x="216" y="-328.5" font-family="Helvetica,sans-Serif" font-size="10.00">+ DEFINE_STATIC_LISTENED_EVENT_TYPES()</text>
<text text-anchor="start" x="216" y="-317.5" font-family="Helvetica,sans-Serif" font-size="10.00">+ onEvent()</text>
<text text-anchor="start" x="216" y="-306.5" font-family="Helvetica,sans-Serif" font-size="10.00">+ onDragStart()</text>
<text text-anchor="start" x="216" y="-295.5" font-family="Helvetica,sans-Serif" font-size="10.00">+ onDragEnd()</text>
<text text-anchor="start" x="216" y="-284.5" font-family="Helvetica,sans-Serif" font-size="10.00">+ onDragMove()</text>
</a>
</g>
</g>
<!-- Node6&#45;&gt;Node2 -->
<g id="edge6" class="edge">
<title>Node6&#45;&gt;Node2</title>
<path fill="none" stroke="orange" d="M282.61,-269.21C272.13,-256.15 261.09,-242.41 250.91,-229.72"/>
<polygon fill="orange" stroke="orange" points="280.06,-271.63 289.05,-277.23 285.52,-267.24 280.06,-271.63"/>
<text text-anchor="middle" x="296" y="-251" font-family="Helvetica,sans-Serif" font-size="10.00"> &lt; Slider &gt;</text>
</g>
<!-- Node7&#45;&gt;Node6 -->
<g id="edge7" class="edge">
<title>Node7&#45;&gt;Node6</title>
<path fill="none" stroke="midnightblue" d="M329,-416.05C329,-403.97 329,-391.03 329,-378.91"/>
<polygon fill="none" stroke="midnightblue" points="325.5,-416.39 329,-426.39 332.5,-416.39 325.5,-416.39"/>
</g>
</g>
</svg>
