<?xml version="1.0" encoding="UTF-8" standalone="no"?>
<!DOCTYPE svg PUBLIC "-//W3C//DTD SVG 1.1//EN"
 "http://www.w3.org/Graphics/SVG/1.1/DTD/svg11.dtd">
<!-- Generated by graphviz version 2.50.0 (20211204.2007)
 -->
<!-- Title: Sgl::Circle Pages: 1 -->
<!--zoomable 872 -->
<svg id="main" version="1.1" xmlns="http://www.w3.org/2000/svg" xmlns:xlink="http://www.w3.org/1999/xlink" xml:space="preserve" onload="init(evt)">
<style type="text/css"><![CDATA[
.edge:hover path { stroke: red; }
.edge:hover polygon { stroke: red; fill: red; }
]]></style>
<script type="text/javascript"><![CDATA[
var edges = document.getElementsByTagName('g');
if (edges && edges.length) {
  for (var i=0;i<edges.length;i++) {
    if (edges[i].id.substr(0,4)=='edge') {
      edges[i].setAttribute('class','edge');
    }
  }
}
]]></script>
        <defs>
                <circle id="rim" cx="0" cy="0" r="7"/>
                <circle id="rim2" cx="0" cy="0" r="3.5"/>
                <g id="zoomPlus">
                        <use xlink:href="#rim" fill="#404040">
                                <set attributeName="fill" to="#808080" begin="zoomplus.mouseover" end="zoomplus.mouseout"/>
                        </use>
                        <path d="M-4,0h8M0,-4v8" fill="none" stroke="white" stroke-width="1.5" pointer-events="none"/>
                </g>
                <g id="zoomMin">
                        <use xlink:href="#rim" fill="#404040">
                                <set attributeName="fill" to="#808080" begin="zoomminus.mouseover" end="zoomminus.mouseout"/>
                        </use>
                        <path d="M-4,0h8" fill="none" stroke="white" stroke-width="1.5" pointer-events="none"/>
                </g>
                <g id="dirArrow">
                        <path fill="none" stroke="white" stroke-width="1.5" d="M0,-3.0v7 M-2.5,-0.5L0,-3.0L2.5,-0.5"/>
                </g>
               <g id="resetDef">
                       <use xlink:href="#rim2" fill="#404040">
                               <set attributeName="fill" to="#808080" begin="reset.mouseover" end="reset.mouseout"/>
                       </use>
               </g>
        </defs>

<script type="text/javascript">
var viewWidth = 1157;
var viewHeight = 872;
var sectionId = 'dynsection-1';
</script>
<script xlink:href="svgpan.js"/>
<svg id="graph" class="graph">
<g id="viewport">
<title>Sgl::Circle</title>
<polygon fill="white" stroke="transparent" points="-4,4 -4,-868 1153.36,-868 1153.36,4 -4,4"/>
<!-- Node1 -->
<g id="node1" class="node">
<title>Node1</title>
<g id="a_node1"><a xlink:title=" ">
<polygon fill="#bfbfbf" stroke="black" points="137.86,-0.5 137.86,-123.5 253.86,-123.5 253.86,-0.5 137.86,-0.5"/>
<text text-anchor="middle" x="195.86" y="-111.5" font-family="Helvetica,sans-Serif" font-size="10.00">Sgl::Circle</text>
<polyline fill="none" stroke="black" points="137.86,-104.5 253.86,-104.5 "/>
<text text-anchor="middle" x="195.86" y="-92.5" font-family="Helvetica,sans-Serif" font-size="10.00"> </text>
<polyline fill="none" stroke="black" points="137.86,-85.5 253.86,-85.5 "/>
<text text-anchor="start" x="145.86" y="-73.5" font-family="Helvetica,sans-Serif" font-size="10.00">+ Circle()</text>
<text text-anchor="start" x="145.86" y="-62.5" font-family="Helvetica,sans-Serif" font-size="10.00">+ Circle()</text>
<text text-anchor="start" x="145.86" y="-51.5" font-family="Helvetica,sans-Serif" font-size="10.00">+ getRadius()</text>
<text text-anchor="start" x="145.86" y="-40.5" font-family="Helvetica,sans-Serif" font-size="10.00">+ setRadius()</text>
<text text-anchor="start" x="145.86" y="-29.5" font-family="Helvetica,sans-Serif" font-size="10.00">+ render()</text>
<text text-anchor="start" x="145.86" y="-18.5" font-family="Helvetica,sans-Serif" font-size="10.00">+ computePrefWidth()</text>
<text text-anchor="start" x="145.86" y="-7.5" font-family="Helvetica,sans-Serif" font-size="10.00">+ computePrefHeight()</text>
</a>
</g>
</g>
<!-- Node2 -->
<g id="node2" class="node">
<title>Node2</title>
<g id="a_node2"><a xlink:href="class_sgl_1_1_shape.html" target="_top" xlink:title=" ">
<polygon fill="white" stroke="black" points="154.36,-194.5 154.36,-306.5 237.36,-306.5 237.36,-194.5 154.36,-194.5"/>
<text text-anchor="middle" x="195.86" y="-294.5" font-family="Helvetica,sans-Serif" font-size="10.00">Sgl::Shape</text>
<polyline fill="none" stroke="black" points="154.36,-287.5 237.36,-287.5 "/>
<text text-anchor="middle" x="195.86" y="-275.5" font-family="Helvetica,sans-Serif" font-size="10.00"> </text>
<polyline fill="none" stroke="black" points="154.36,-268.5 237.36,-268.5 "/>
<text text-anchor="start" x="162.36" y="-256.5" font-family="Helvetica,sans-Serif" font-size="10.00">+ Shape()</text>
<text text-anchor="start" x="162.36" y="-245.5" font-family="Helvetica,sans-Serif" font-size="10.00">+ Shape()</text>
<text text-anchor="start" x="162.36" y="-234.5" font-family="Helvetica,sans-Serif" font-size="10.00">+ ~Shape()</text>
<text text-anchor="start" x="162.36" y="-223.5" font-family="Helvetica,sans-Serif" font-size="10.00">+ layout()</text>
<text text-anchor="start" x="162.36" y="-212.5" font-family="Helvetica,sans-Serif" font-size="10.00">+ isResizable()</text>
<text text-anchor="start" x="162.36" y="-201.5" font-family="Helvetica,sans-Serif" font-size="10.00">and 10 more...</text>
</a>
</g>
</g>
<!-- Node2&#45;&gt;Node1 -->
<g id="edge1" class="edge">
<title>Node2&#45;&gt;Node1</title>
<path fill="none" stroke="midnightblue" d="M195.86,-184.19C195.86,-164.5 195.86,-142.97 195.86,-123.6"/>
<polygon fill="none" stroke="midnightblue" points="192.36,-184.3 195.86,-194.3 199.36,-184.3 192.36,-184.3"/>
</g>
<!-- Node3 -->
<g id="node3" class="node">
<title>Node3</title>
<g id="a_node3"><a xlink:href="class_sgl_1_1_component.html" target="_top" xlink:title=" ">
<polygon fill="white" stroke="black" points="144.86,-387.5 144.86,-532.5 272.86,-532.5 272.86,-387.5 144.86,-387.5"/>
<text text-anchor="middle" x="208.86" y="-520.5" font-family="Helvetica,sans-Serif" font-size="10.00">Sgl::Component</text>
<polyline fill="none" stroke="black" points="144.86,-513.5 272.86,-513.5 "/>
<text text-anchor="middle" x="208.86" y="-501.5" font-family="Helvetica,sans-Serif" font-size="10.00"> </text>
<polyline fill="none" stroke="black" points="144.86,-494.5 272.86,-494.5 "/>
<text text-anchor="start" x="152.86" y="-482.5" font-family="Helvetica,sans-Serif" font-size="10.00">+ Component()</text>
<text text-anchor="start" x="152.86" y="-471.5" font-family="Helvetica,sans-Serif" font-size="10.00">+ ~Component()</text>
<text text-anchor="start" x="152.86" y="-460.5" font-family="Helvetica,sans-Serif" font-size="10.00">+ getHitComponent()</text>
<text text-anchor="start" x="152.86" y="-449.5" font-family="Helvetica,sans-Serif" font-size="10.00">+ render()</text>
<text text-anchor="start" x="152.86" y="-438.5" font-family="Helvetica,sans-Serif" font-size="10.00">+ layout()</text>
<text text-anchor="start" x="152.86" y="-427.5" font-family="Helvetica,sans-Serif" font-size="10.00">and 42 more...</text>
<text text-anchor="start" x="152.86" y="-416.5" font-family="Helvetica,sans-Serif" font-size="10.00"># updateShadow()</text>
<text text-anchor="start" x="152.86" y="-405.5" font-family="Helvetica,sans-Serif" font-size="10.00"># renderShadow()</text>
<text text-anchor="start" x="152.86" y="-394.5" font-family="Helvetica,sans-Serif" font-size="10.00"># setSceneInSceneTree()</text>
</a>
</g>
</g>
<!-- Node3&#45;&gt;Node2 -->
<g id="edge2" class="edge">
<title>Node3&#45;&gt;Node2</title>
<path fill="none" stroke="midnightblue" d="M147.32,-378.29C146.03,-375.22 144.87,-372.12 143.86,-369 136.89,-347.46 143.63,-324.52 154.29,-304.69"/>
<polygon fill="none" stroke="midnightblue" points="144.16,-379.81 151.54,-387.41 150.52,-376.86 144.16,-379.81"/>
</g>
<!-- Node14 -->
<g id="node14" class="node">
<title>Node14</title>
<g id="a_node14"><a xlink:href="class_sgl_1_1_parent.html" target="_top" xlink:title=" ">
<polygon fill="white" stroke="black" points="530.86,-161.5 530.86,-339.5 676.86,-339.5 676.86,-161.5 530.86,-161.5"/>
<text text-anchor="middle" x="603.86" y="-327.5" font-family="Helvetica,sans-Serif" font-size="10.00">Sgl::Parent</text>
<polyline fill="none" stroke="black" points="530.86,-320.5 676.86,-320.5 "/>
<text text-anchor="middle" x="603.86" y="-308.5" font-family="Helvetica,sans-Serif" font-size="10.00"> </text>
<polyline fill="none" stroke="black" points="530.86,-301.5 676.86,-301.5 "/>
<text text-anchor="start" x="538.86" y="-289.5" font-family="Helvetica,sans-Serif" font-size="10.00">+ Parent()</text>
<text text-anchor="start" x="538.86" y="-278.5" font-family="Helvetica,sans-Serif" font-size="10.00">+ ~Parent()</text>
<text text-anchor="start" x="538.86" y="-267.5" font-family="Helvetica,sans-Serif" font-size="10.00">+ getHitComponent()</text>
<text text-anchor="start" x="538.86" y="-256.5" font-family="Helvetica,sans-Serif" font-size="10.00">+ render()</text>
<text text-anchor="start" x="538.86" y="-245.5" font-family="Helvetica,sans-Serif" font-size="10.00">+ layout()</text>
<text text-anchor="start" x="538.86" y="-234.5" font-family="Helvetica,sans-Serif" font-size="10.00">and 39 more...</text>
<text text-anchor="start" x="538.86" y="-223.5" font-family="Helvetica,sans-Serif" font-size="10.00"># setSceneInSceneTree()</text>
<text text-anchor="start" x="538.86" y="-212.5" font-family="Helvetica,sans-Serif" font-size="10.00"># layoutChildren()</text>
<text text-anchor="start" x="538.86" y="-201.5" font-family="Helvetica,sans-Serif" font-size="10.00"># prerenderSelf()</text>
<text text-anchor="start" x="538.86" y="-190.5" font-family="Helvetica,sans-Serif" font-size="10.00"># updateSnapshotSize()</text>
<text text-anchor="start" x="538.86" y="-179.5" font-family="Helvetica,sans-Serif" font-size="10.00"># computeCustomPrefWidth()</text>
<text text-anchor="start" x="538.86" y="-168.5" font-family="Helvetica,sans-Serif" font-size="10.00">and 5 more...</text>
</a>
</g>
</g>
<!-- Node3&#45;&gt;Node14 -->
<g id="edge15" class="edge">
<title>Node3&#45;&gt;Node14</title>
<path fill="none" stroke="midnightblue" d="M235.96,-378.24C240.75,-370.75 246.34,-363.8 252.86,-358 330.87,-288.57 452.98,-264.39 530.67,-255.98"/>
<polygon fill="none" stroke="midnightblue" points="232.71,-376.86 230.69,-387.26 238.76,-380.39 232.71,-376.86"/>
</g>
<!-- Node4 -->
<g id="node4" class="node">
<title>Node4</title>
<g id="a_node4"><a xlink:title=" ">
<polygon fill="white" stroke="#bfbfbf" points="114.86,-806.5 114.86,-863.5 206.86,-863.5 206.86,-806.5 114.86,-806.5"/>
<text text-anchor="middle" x="160.86" y="-851.5" font-family="Helvetica,sans-Serif" font-size="10.00">Sml::EventTarget</text>
<polyline fill="none" stroke="#bfbfbf" points="114.86,-844.5 206.86,-844.5 "/>
<text text-anchor="middle" x="160.86" y="-832.5" font-family="Helvetica,sans-Serif" font-size="10.00"> </text>
<polyline fill="none" stroke="#bfbfbf" points="114.86,-825.5 206.86,-825.5 "/>
<text text-anchor="middle" x="160.86" y="-813.5" font-family="Helvetica,sans-Serif" font-size="10.00"> </text>
</a>
</g>
</g>
<!-- Node4&#45;&gt;Node3 -->
<g id="edge3" class="edge">
<title>Node4&#45;&gt;Node3</title>
<path fill="none" stroke="midnightblue" d="M105.25,-815.89C73.86,-802.48 37.32,-780.77 18.86,-748 -10.59,-695.73 -0.26,-669.87 18.86,-613 29.88,-580.22 40.37,-574.37 65.86,-551 89.32,-529.49 118.58,-510.05 144.51,-494.78"/>
<polygon fill="none" stroke="midnightblue" points="104.22,-819.24 114.8,-819.78 106.87,-812.76 104.22,-819.24"/>
</g>
<!-- Node13 -->
<g id="node13" class="node">
<title>Node13</title>
<g id="a_node13"><a xlink:href="class_sgl_1_1_scene.html" target="_top" xlink:title=" ">
<polygon fill="white" stroke="black" points="277.86,-624.5 277.86,-736.5 357.86,-736.5 357.86,-624.5 277.86,-624.5"/>
<text text-anchor="middle" x="317.86" y="-724.5" font-family="Helvetica,sans-Serif" font-size="10.00">Sgl::Scene</text>
<polyline fill="none" stroke="black" points="277.86,-717.5 357.86,-717.5 "/>
<text text-anchor="middle" x="317.86" y="-705.5" font-family="Helvetica,sans-Serif" font-size="10.00"> </text>
<polyline fill="none" stroke="black" points="277.86,-698.5 357.86,-698.5 "/>
<text text-anchor="start" x="285.86" y="-686.5" font-family="Helvetica,sans-Serif" font-size="10.00">+ Scene()</text>
<text text-anchor="start" x="285.86" y="-675.5" font-family="Helvetica,sans-Serif" font-size="10.00">+ Scene()</text>
<text text-anchor="start" x="285.86" y="-664.5" font-family="Helvetica,sans-Serif" font-size="10.00">+ ~Scene()</text>
<text text-anchor="start" x="285.86" y="-653.5" font-family="Helvetica,sans-Serif" font-size="10.00">+ update()</text>
<text text-anchor="start" x="285.86" y="-642.5" font-family="Helvetica,sans-Serif" font-size="10.00">+ render()</text>
<text text-anchor="start" x="285.86" y="-631.5" font-family="Helvetica,sans-Serif" font-size="10.00">and 17 more...</text>
</a>
</g>
</g>
<!-- Node4&#45;&gt;Node13 -->
<g id="edge13" class="edge">
<title>Node4&#45;&gt;Node13</title>
<path fill="none" stroke="midnightblue" d="M207.88,-800.29C227.38,-785.3 249.66,-766.8 267.86,-748 271.28,-744.47 274.67,-740.71 277.98,-736.83"/>
<polygon fill="none" stroke="midnightblue" points="205.56,-797.66 199.71,-806.49 209.79,-803.23 205.56,-797.66"/>
</g>
<!-- Node5 -->
<g id="node5" class="node">
<title>Node5</title>
<g id="a_node5"><a xlink:title=" ">
<polygon fill="white" stroke="#bfbfbf" points="896.86,-652 896.86,-709 942.86,-709 942.86,-652 896.86,-652"/>
<text text-anchor="middle" x="919.86" y="-697" font-family="Helvetica,sans-Serif" font-size="10.00">int32_t</text>
<polyline fill="none" stroke="#bfbfbf" points="896.86,-690 942.86,-690 "/>
<text text-anchor="middle" x="919.86" y="-678" font-family="Helvetica,sans-Serif" font-size="10.00"> </text>
<polyline fill="none" stroke="#bfbfbf" points="896.86,-671 942.86,-671 "/>
<text text-anchor="middle" x="919.86" y="-659" font-family="Helvetica,sans-Serif" font-size="10.00"> </text>
</a>
</g>
</g>
<!-- Node5&#45;&gt;Node3 -->
<g id="edge4" class="edge">
<title>Node5&#45;&gt;Node3</title>
<path fill="none" stroke="#404040" d="M896.44,-664.62C870.01,-647.81 825.76,-619.57 787.86,-595 757.97,-575.62 754.78,-561.9 720.86,-551 631.27,-522.2 389.74,-568.33 284.46,-533"/>
<polygon fill="none" stroke="#404040" points="284.41,-532.98 277.37,-534.56 273.21,-528.67 280.24,-527.09 284.41,-532.98"/>
<text text-anchor="middle" x="846.86" y="-576" font-family="Helvetica,sans-Serif" font-size="10.00"> +UNLIMITED_SIZE</text>
<text text-anchor="middle" x="846.86" y="-565" font-family="Helvetica,sans-Serif" font-size="10.00">+USE_COMPUTED_SIZE</text>
</g>
<!-- Node5&#45;&gt;Node14 -->
<g id="edge24" class="edge">
<title>Node5&#45;&gt;Node14</title>
<path fill="none" stroke="#404040" d="M921.82,-651.84C924.29,-595.46 922.05,-465.94 857.86,-387 814.35,-333.49 743.94,-298.3 688.28,-277.22"/>
<polygon fill="none" stroke="#404040" points="688.26,-277.21 681.25,-278.89 677,-273.07 684.01,-271.39 688.26,-277.21"/>
<text text-anchor="middle" x="949.86" y="-485" font-family="Helvetica,sans-Serif" font-size="10.00"> #m_MaxHeight</text>
<text text-anchor="middle" x="949.86" y="-474" font-family="Helvetica,sans-Serif" font-size="10.00">#m_MaxWidth</text>
<text text-anchor="middle" x="949.86" y="-463" font-family="Helvetica,sans-Serif" font-size="10.00">#m_MinHeight</text>
<text text-anchor="middle" x="949.86" y="-452" font-family="Helvetica,sans-Serif" font-size="10.00">#m_MinWidth</text>
<text text-anchor="middle" x="949.86" y="-441" font-family="Helvetica,sans-Serif" font-size="10.00">#m_PrefHeight</text>
<text text-anchor="middle" x="949.86" y="-430" font-family="Helvetica,sans-Serif" font-size="10.00">#m_PrefWidth</text>
</g>
<!-- Node19 -->
<g id="node19" class="node">
<title>Node19</title>
<g id="a_node19"><a xlink:href="struct_sgl_1_1_insets.html" target="_top" xlink:title=" ">
<polygon fill="white" stroke="black" points="1008.36,-404 1008.36,-516 1087.36,-516 1087.36,-404 1008.36,-404"/>
<text text-anchor="middle" x="1047.86" y="-504" font-family="Helvetica,sans-Serif" font-size="10.00">Sgl::Insets</text>
<polyline fill="none" stroke="black" points="1008.36,-497 1087.36,-497 "/>
<text text-anchor="middle" x="1047.86" y="-485" font-family="Helvetica,sans-Serif" font-size="10.00"> </text>
<polyline fill="none" stroke="black" points="1008.36,-478 1087.36,-478 "/>
<text text-anchor="start" x="1016.36" y="-466" font-family="Helvetica,sans-Serif" font-size="10.00">+ Insets()</text>
<text text-anchor="start" x="1016.36" y="-455" font-family="Helvetica,sans-Serif" font-size="10.00">+ Insets()</text>
<text text-anchor="start" x="1016.36" y="-444" font-family="Helvetica,sans-Serif" font-size="10.00">+ Insets()</text>
<text text-anchor="start" x="1016.36" y="-433" font-family="Helvetica,sans-Serif" font-size="10.00">+ Insets()</text>
<text text-anchor="start" x="1016.36" y="-422" font-family="Helvetica,sans-Serif" font-size="10.00">+ operator+=()</text>
<text text-anchor="start" x="1016.36" y="-411" font-family="Helvetica,sans-Serif" font-size="10.00">+ operator&#45;=()</text>
</a>
</g>
</g>
<!-- Node5&#45;&gt;Node19 -->
<g id="edge23" class="edge">
<title>Node5&#45;&gt;Node19</title>
<path fill="none" stroke="#404040" d="M936.07,-651.83C954.43,-620.49 984.97,-568.35 1009.5,-526.49"/>
<polygon fill="none" stroke="#404040" points="1009.53,-526.44 1009.11,-519.24 1015.59,-516.08 1016.01,-523.28 1009.53,-526.44"/>
<text text-anchor="middle" x="1010.86" y="-587" font-family="Helvetica,sans-Serif" font-size="10.00"> +bottom</text>
<text text-anchor="middle" x="1010.86" y="-576" font-family="Helvetica,sans-Serif" font-size="10.00">+left</text>
<text text-anchor="middle" x="1010.86" y="-565" font-family="Helvetica,sans-Serif" font-size="10.00">+right</text>
<text text-anchor="middle" x="1010.86" y="-554" font-family="Helvetica,sans-Serif" font-size="10.00">+top</text>
</g>
<!-- Node6 -->
<g id="node6" class="node">
<title>Node6</title>
<g id="a_node6"><a xlink:title=" ">
<polygon fill="white" stroke="#bfbfbf" points="28.36,-652 28.36,-709 69.36,-709 69.36,-652 28.36,-652"/>
<text text-anchor="middle" x="48.86" y="-697" font-family="Helvetica,sans-Serif" font-size="10.00">friend</text>
<polyline fill="none" stroke="#bfbfbf" points="28.36,-690 69.36,-690 "/>
<text text-anchor="middle" x="48.86" y="-678" font-family="Helvetica,sans-Serif" font-size="10.00"> </text>
<polyline fill="none" stroke="#bfbfbf" points="28.36,-671 69.36,-671 "/>
<text text-anchor="middle" x="48.86" y="-659" font-family="Helvetica,sans-Serif" font-size="10.00"> </text>
</a>
</g>
</g>
<!-- Node6&#45;&gt;Node3 -->
<g id="edge5" class="edge">
<title>Node6&#45;&gt;Node3</title>
<path fill="none" stroke="#404040" d="M52.98,-651.76C58.15,-624.16 69.12,-581.62 90.86,-551 102.77,-534.23 118.73,-519.17 135.05,-506.38"/>
<polygon fill="none" stroke="#404040" points="135.1,-506.34 137.48,-499.54 144.67,-499.11 142.29,-505.92 135.1,-506.34"/>
<text text-anchor="middle" x="109.36" y="-570.5" font-family="Helvetica,sans-Serif" font-size="10.00"> +Scene</text>
</g>
<!-- Node7 -->
<g id="node7" class="node">
<title>Node7</title>
<g id="a_node7"><a xlink:title=" ">
<polygon fill="white" stroke="#bfbfbf" points="87.36,-652 87.36,-709 140.36,-709 140.36,-652 87.36,-652"/>
<text text-anchor="middle" x="113.86" y="-697" font-family="Helvetica,sans-Serif" font-size="10.00">Visibility</text>
<polyline fill="none" stroke="#bfbfbf" points="87.36,-690 140.36,-690 "/>
<text text-anchor="middle" x="113.86" y="-678" font-family="Helvetica,sans-Serif" font-size="10.00"> </text>
<polyline fill="none" stroke="#bfbfbf" points="87.36,-671 140.36,-671 "/>
<text text-anchor="middle" x="113.86" y="-659" font-family="Helvetica,sans-Serif" font-size="10.00"> </text>
</a>
</g>
</g>
<!-- Node7&#45;&gt;Node3 -->
<g id="edge6" class="edge">
<title>Node7&#45;&gt;Node3</title>
<path fill="none" stroke="#404040" d="M117.72,-651.96C122.14,-625.26 130.8,-584.06 145.86,-551 147.05,-548.4 148.31,-545.8 149.63,-543.2"/>
<polygon fill="none" stroke="#404040" points="149.68,-543.12 149.03,-535.94 155.41,-532.57 156.06,-539.76 149.68,-543.12"/>
<text text-anchor="middle" x="175.36" y="-570.5" font-family="Helvetica,sans-Serif" font-size="10.00"> #m_Visibility</text>
</g>
<!-- Node8 -->
<g id="node8" class="node">
<title>Node8</title>
<g id="a_node8"><a xlink:title=" ">
<polygon fill="white" stroke="#bfbfbf" points="697.36,-652 697.36,-709 732.36,-709 732.36,-652 697.36,-652"/>
<text text-anchor="middle" x="714.86" y="-697" font-family="Helvetica,sans-Serif" font-size="10.00">bool</text>
<polyline fill="none" stroke="#bfbfbf" points="697.36,-690 732.36,-690 "/>
<text text-anchor="middle" x="714.86" y="-678" font-family="Helvetica,sans-Serif" font-size="10.00"> </text>
<polyline fill="none" stroke="#bfbfbf" points="697.36,-671 732.36,-671 "/>
<text text-anchor="middle" x="714.86" y="-659" font-family="Helvetica,sans-Serif" font-size="10.00"> </text>
</a>
</g>
</g>
<!-- Node8&#45;&gt;Node3 -->
<g id="edge7" class="edge">
<title>Node8&#45;&gt;Node3</title>
<path fill="none" stroke="#404040" d="M699.92,-651.86C681.6,-621.07 647.39,-572.78 602.86,-551 541.82,-521.14 365.57,-557.99 284.88,-532.97"/>
<polygon fill="none" stroke="#404040" points="284.47,-532.82 277.45,-534.47 273.23,-528.62 280.26,-526.97 284.47,-532.82"/>
<text text-anchor="middle" x="686.86" y="-576" font-family="Helvetica,sans-Serif" font-size="10.00"> #m_Focused</text>
<text text-anchor="middle" x="686.86" y="-565" font-family="Helvetica,sans-Serif" font-size="10.00">#m_Hovered</text>
</g>
<!-- Node8&#45;&gt;Node14 -->
<g id="edge18" class="edge">
<title>Node8&#45;&gt;Node14</title>
<path fill="none" stroke="#404040" d="M725.08,-651.56C744.52,-593.58 780.88,-457.3 733.86,-358 723.29,-335.68 705.5,-316.47 686.41,-300.77"/>
<polygon fill="none" stroke="#404040" points="686.4,-300.76 679.21,-300.19 676.97,-293.34 684.16,-293.9 686.4,-300.76"/>
<text text-anchor="middle" x="805.36" y="-457.5" font-family="Helvetica,sans-Serif" font-size="10.00"> #m_NeedLayoutPass</text>
</g>
<!-- Node9 -->
<g id="node9" class="node">
<title>Node9</title>
<g id="a_node9"><a xlink:href="class_sgl_1_1_shadow.html" target="_top" xlink:title=" ">
<polygon fill="white" stroke="black" points="158.36,-619 158.36,-742 259.36,-742 259.36,-619 158.36,-619"/>
<text text-anchor="middle" x="208.86" y="-730" font-family="Helvetica,sans-Serif" font-size="10.00">Sgl::Shadow</text>
<polyline fill="none" stroke="black" points="158.36,-723 259.36,-723 "/>
<text text-anchor="middle" x="208.86" y="-711" font-family="Helvetica,sans-Serif" font-size="10.00"> </text>
<polyline fill="none" stroke="black" points="158.36,-704 259.36,-704 "/>
<text text-anchor="start" x="166.36" y="-692" font-family="Helvetica,sans-Serif" font-size="10.00">+ Shadow()</text>
<text text-anchor="start" x="166.36" y="-681" font-family="Helvetica,sans-Serif" font-size="10.00">+ ~Shadow()</text>
<text text-anchor="start" x="166.36" y="-670" font-family="Helvetica,sans-Serif" font-size="10.00">+ update()</text>
<text text-anchor="start" x="166.36" y="-659" font-family="Helvetica,sans-Serif" font-size="10.00">+ render()</text>
<text text-anchor="start" x="166.36" y="-648" font-family="Helvetica,sans-Serif" font-size="10.00">+ getTexture()</text>
<text text-anchor="start" x="166.36" y="-637" font-family="Helvetica,sans-Serif" font-size="10.00">+ getSpecification()</text>
<text text-anchor="start" x="166.36" y="-626" font-family="Helvetica,sans-Serif" font-size="10.00">+ setSpecification()</text>
</a>
</g>
</g>
<!-- Node9&#45;&gt;Node3 -->
<g id="edge8" class="edge">
<title>Node9&#45;&gt;Node3</title>
<path fill="none" stroke="#404040" d="M208.86,-618.93C208.86,-596.02 208.86,-569.53 208.86,-544.86"/>
<polygon fill="none" stroke="#404040" points="208.86,-544.54 204.86,-538.54 208.86,-532.54 212.86,-538.54 208.86,-544.54"/>
<text text-anchor="middle" x="237.86" y="-570.5" font-family="Helvetica,sans-Serif" font-size="10.00"> #m_Shadow</text>
</g>
<!-- Node10 -->
<g id="node10" class="node">
<title>Node10</title>
<g id="a_node10"><a xlink:href="class_gui_event_dispatcher.html" target="_top" xlink:title=" ">
<polygon fill="white" stroke="black" points="376.36,-613.5 376.36,-747.5 511.36,-747.5 511.36,-613.5 376.36,-613.5"/>
<text text-anchor="middle" x="443.86" y="-735.5" font-family="Helvetica,sans-Serif" font-size="10.00">GuiEventDispatcher</text>
<polyline fill="none" stroke="black" points="376.36,-728.5 511.36,-728.5 "/>
<text text-anchor="middle" x="443.86" y="-716.5" font-family="Helvetica,sans-Serif" font-size="10.00"> </text>
<polyline fill="none" stroke="black" points="376.36,-709.5 511.36,-709.5 "/>
<text text-anchor="start" x="384.36" y="-697.5" font-family="Helvetica,sans-Serif" font-size="10.00">+ ~GuiEventDispatcher()</text>
<text text-anchor="start" x="384.36" y="-686.5" font-family="Helvetica,sans-Serif" font-size="10.00">+ attachFilter()</text>
<text text-anchor="start" x="384.36" y="-675.5" font-family="Helvetica,sans-Serif" font-size="10.00">+ detachFilter()</text>
<text text-anchor="start" x="384.36" y="-664.5" font-family="Helvetica,sans-Serif" font-size="10.00">+ attachHandler()</text>
<text text-anchor="start" x="384.36" y="-653.5" font-family="Helvetica,sans-Serif" font-size="10.00">+ detachHandler()</text>
<text text-anchor="start" x="384.36" y="-642.5" font-family="Helvetica,sans-Serif" font-size="10.00">+ dispatchEvent()</text>
<text text-anchor="start" x="384.36" y="-631.5" font-family="Helvetica,sans-Serif" font-size="10.00"># dispatchCapturingEvent()</text>
<text text-anchor="start" x="384.36" y="-620.5" font-family="Helvetica,sans-Serif" font-size="10.00"># dispatchBubblingEvent()</text>
</a>
</g>
</g>
<!-- Node10&#45;&gt;Node3 -->
<g id="edge9" class="edge">
<title>Node10&#45;&gt;Node3</title>
<path fill="none" stroke="#404040" d="M404.5,-613.18C388.24,-590.64 367.61,-567.11 343.86,-551 322.81,-536.72 309.8,-545.03 283.84,-533.11"/>
<polygon fill="none" stroke="#404040" points="283.81,-533.1 276.64,-533.82 273.21,-527.47 280.39,-526.75 283.81,-533.1"/>
<text text-anchor="middle" x="424.86" y="-570.5" font-family="Helvetica,sans-Serif" font-size="10.00"> #m_Dispatcher</text>
</g>
<!-- Node11 -->
<g id="node11" class="node">
<title>Node11</title>
<g id="a_node11"><a xlink:title=" ">
<polygon fill="white" stroke="#bfbfbf" points="337.36,-806.5 337.36,-863.5 450.36,-863.5 450.36,-806.5 337.36,-806.5"/>
<text text-anchor="middle" x="393.86" y="-851.5" font-family="Helvetica,sans-Serif" font-size="10.00">Sml::EventDispatcher</text>
<polyline fill="none" stroke="#bfbfbf" points="337.36,-844.5 450.36,-844.5 "/>
<text text-anchor="middle" x="393.86" y="-832.5" font-family="Helvetica,sans-Serif" font-size="10.00"> </text>
<polyline fill="none" stroke="#bfbfbf" points="337.36,-825.5 450.36,-825.5 "/>
<text text-anchor="middle" x="393.86" y="-813.5" font-family="Helvetica,sans-Serif" font-size="10.00"> </text>
</a>
</g>
</g>
<!-- Node11&#45;&gt;Node10 -->
<g id="edge10" class="edge">
<title>Node11&#45;&gt;Node10</title>
<path fill="none" stroke="midnightblue" d="M406.12,-796.61C410.97,-781.81 416.7,-764.35 422.2,-747.56"/>
<polygon fill="none" stroke="midnightblue" points="402.71,-795.79 402.92,-806.38 409.36,-797.97 402.71,-795.79"/>
</g>
<!-- Node12 -->
<g id="node12" class="node">
<title>Node12</title>
<g id="a_node12"><a xlink:title=" ">
<polygon fill="white" stroke="#bfbfbf" points="468.86,-806.5 468.86,-863.5 516.86,-863.5 516.86,-806.5 468.86,-806.5"/>
<text text-anchor="middle" x="492.86" y="-851.5" font-family="Helvetica,sans-Serif" font-size="10.00">Notifier</text>
<polyline fill="none" stroke="#bfbfbf" points="468.86,-844.5 516.86,-844.5 "/>
<text text-anchor="middle" x="492.86" y="-832.5" font-family="Helvetica,sans-Serif" font-size="10.00"> </text>
<polyline fill="none" stroke="#bfbfbf" points="468.86,-825.5 516.86,-825.5 "/>
<text text-anchor="middle" x="492.86" y="-813.5" font-family="Helvetica,sans-Serif" font-size="10.00"> </text>
</a>
</g>
</g>
<!-- Node12&#45;&gt;Node10 -->
<g id="edge11" class="edge">
<title>Node12&#45;&gt;Node10</title>
<path fill="none" stroke="#404040" d="M483.99,-806.38C479.69,-792.99 474.28,-776.17 468.84,-759.25"/>
<polygon fill="none" stroke="#404040" points="468.76,-758.98 463.11,-754.49 465.09,-747.56 470.73,-752.05 468.76,-758.98"/>
<text text-anchor="middle" x="522.86" y="-780" font-family="Helvetica,sans-Serif" font-size="10.00"> #m_FiltersNotifier</text>
<text text-anchor="middle" x="522.86" y="-769" font-family="Helvetica,sans-Serif" font-size="10.00">#m_HandlersNotifier</text>
</g>
<!-- Node13&#45;&gt;Node3 -->
<g id="edge12" class="edge">
<title>Node13&#45;&gt;Node3</title>
<path fill="none" stroke="#404040" d="M301.14,-624.44C293.22,-601.2 282.86,-574.21 270.86,-551 269.54,-548.44 268.15,-545.87 266.72,-543.29"/>
<polygon fill="none" stroke="#404040" points="266.61,-543.09 260.13,-539.91 260.58,-532.72 267.05,-535.9 266.61,-543.09"/>
<text text-anchor="middle" x="314.86" y="-570.5" font-family="Helvetica,sans-Serif" font-size="10.00"> #m_Scene</text>
</g>
<!-- Node14&#45;&gt;Node3 -->
<g id="edge14" class="edge">
<title>Node14&#45;&gt;Node3</title>
<path fill="none" stroke="#404040" d="M530.63,-270.2C458.37,-288.51 344.68,-316.94 245.86,-340 209.52,-348.48 187.25,-328.93 163.86,-358 159.65,-363.24 157.43,-368.94 156.74,-374.87"/>
<polygon fill="none" stroke="#404040" points="156.76,-375.31 161.03,-381.12 157.32,-387.3 153.04,-381.49 156.76,-375.31"/>
<text text-anchor="middle" x="189.36" y="-361" font-family="Helvetica,sans-Serif" font-size="10.00"> #m_Parent</text>
</g>
<!-- Node15 -->
<g id="node15" class="node">
<title>Node15</title>
<g id="a_node15"><a xlink:title=" ">
<polygon fill="white" stroke="#bfbfbf" points="586.36,-431.5 586.36,-488.5 621.36,-488.5 621.36,-431.5 586.36,-431.5"/>
<text text-anchor="middle" x="603.86" y="-476.5" font-family="Helvetica,sans-Serif" font-size="10.00">list&lt;</text>
<polyline fill="none" stroke="#bfbfbf" points="586.36,-469.5 621.36,-469.5 "/>
<text text-anchor="middle" x="603.86" y="-457.5" font-family="Helvetica,sans-Serif" font-size="10.00"> </text>
<polyline fill="none" stroke="#bfbfbf" points="586.36,-450.5 621.36,-450.5 "/>
<text text-anchor="middle" x="603.86" y="-438.5" font-family="Helvetica,sans-Serif" font-size="10.00"> </text>
</a>
</g>
</g>
<!-- Node15&#45;&gt;Node14 -->
<g id="edge16" class="edge">
<title>Node15&#45;&gt;Node14</title>
<path fill="none" stroke="#404040" d="M603.86,-431.45C603.86,-410.81 603.86,-381.2 603.86,-351.95"/>
<polygon fill="none" stroke="#404040" points="603.86,-351.9 599.86,-345.9 603.86,-339.9 607.86,-345.9 603.86,-351.9"/>
<text text-anchor="middle" x="632.86" y="-361" font-family="Helvetica,sans-Serif" font-size="10.00"> #m_Children</text>
</g>
<!-- Node16 -->
<g id="node16" class="node">
<title>Node16</title>
<g id="a_node16"><a xlink:title=" ">
<polygon fill="white" stroke="#bfbfbf" points="656.86,-431.5 656.86,-488.5 712.86,-488.5 712.86,-431.5 656.86,-431.5"/>
<text text-anchor="middle" x="684.86" y="-476.5" font-family="Helvetica,sans-Serif" font-size="10.00">Texture *</text>
<polyline fill="none" stroke="#bfbfbf" points="656.86,-469.5 712.86,-469.5 "/>
<text text-anchor="middle" x="684.86" y="-457.5" font-family="Helvetica,sans-Serif" font-size="10.00"> </text>
<polyline fill="none" stroke="#bfbfbf" points="656.86,-450.5 712.86,-450.5 "/>
<text text-anchor="middle" x="684.86" y="-438.5" font-family="Helvetica,sans-Serif" font-size="10.00"> </text>
</a>
</g>
</g>
<!-- Node16&#45;&gt;Node14 -->
<g id="edge17" class="edge">
<title>Node16&#45;&gt;Node14</title>
<path fill="none" stroke="#404040" d="M681.07,-431.37C677.71,-410.72 671.91,-382.02 662.86,-358 661.97,-355.64 661.04,-353.28 660.07,-350.9"/>
<polygon fill="none" stroke="#404040" points="660.02,-350.8 653.97,-346.88 655.26,-339.78 661.31,-343.7 660.02,-350.8"/>
<text text-anchor="middle" x="697.86" y="-361" font-family="Helvetica,sans-Serif" font-size="10.00"> #m_Snapshot</text>
</g>
<!-- Node17 -->
<g id="node17" class="node">
<title>Node17</title>
<g id="a_node17"><a xlink:href="class_sgl_1_1_background.html" target="_top" xlink:title=" ">
<polygon fill="white" stroke="black" points="430.36,-398.5 430.36,-521.5 519.36,-521.5 519.36,-398.5 430.36,-398.5"/>
<text text-anchor="middle" x="474.86" y="-509.5" font-family="Helvetica,sans-Serif" font-size="10.00">Sgl::Background</text>
<polyline fill="none" stroke="black" points="430.36,-502.5 519.36,-502.5 "/>
<text text-anchor="middle" x="474.86" y="-490.5" font-family="Helvetica,sans-Serif" font-size="10.00"> </text>
<polyline fill="none" stroke="black" points="430.36,-483.5 519.36,-483.5 "/>
<text text-anchor="start" x="438.36" y="-471.5" font-family="Helvetica,sans-Serif" font-size="10.00">+ Background()</text>
<text text-anchor="start" x="438.36" y="-460.5" font-family="Helvetica,sans-Serif" font-size="10.00">+ Background()</text>
<text text-anchor="start" x="438.36" y="-449.5" font-family="Helvetica,sans-Serif" font-size="10.00">+ Background()</text>
<text text-anchor="start" x="438.36" y="-438.5" font-family="Helvetica,sans-Serif" font-size="10.00">+ Background()</text>
<text text-anchor="start" x="438.36" y="-427.5" font-family="Helvetica,sans-Serif" font-size="10.00">+ addFill()</text>
<text text-anchor="start" x="438.36" y="-416.5" font-family="Helvetica,sans-Serif" font-size="10.00">and 5 more...</text>
<text text-anchor="start" x="438.36" y="-405.5" font-family="Helvetica,sans-Serif" font-size="10.00">+ fillArea()</text>
</a>
</g>
</g>
<!-- Node17&#45;&gt;Node2 -->
<g id="edge27" class="edge">
<title>Node17&#45;&gt;Node2</title>
<path fill="none" stroke="#404040" d="M430.23,-400.1C417.49,-385.36 402.94,-370.27 387.86,-358 344.89,-323.03 288.83,-293.44 248.39,-274.4"/>
<polygon fill="none" stroke="#404040" points="248.31,-274.36 241.18,-275.46 237.42,-269.31 244.55,-268.2 248.31,-274.36"/>
<text text-anchor="middle" x="435.86" y="-361" font-family="Helvetica,sans-Serif" font-size="10.00"> #m_Background</text>
</g>
<!-- Node17&#45;&gt;Node14 -->
<g id="edge19" class="edge">
<title>Node17&#45;&gt;Node14</title>
<path fill="none" stroke="#404040" d="M503.47,-398.3C510.4,-384.8 518.06,-370.73 525.86,-358 527.54,-355.26 529.28,-352.49 531.05,-349.72"/>
<polygon fill="none" stroke="#404040" points="531.06,-349.7 530.99,-342.49 537.62,-339.66 537.69,-346.87 531.06,-349.7"/>
<text text-anchor="middle" x="562.86" y="-361" font-family="Helvetica,sans-Serif" font-size="10.00"> #m_Background</text>
</g>
<!-- Node18 -->
<g id="node18" class="node">
<title>Node18</title>
<g id="a_node18"><a xlink:href="class_sgl_1_1_border.html" target="_top" xlink:title=" ">
<polygon fill="white" stroke="black" points="290.86,-404 290.86,-516 380.86,-516 380.86,-404 290.86,-404"/>
<text text-anchor="middle" x="335.86" y="-504" font-family="Helvetica,sans-Serif" font-size="10.00">Sgl::Border</text>
<polyline fill="none" stroke="black" points="290.86,-497 380.86,-497 "/>
<text text-anchor="middle" x="335.86" y="-485" font-family="Helvetica,sans-Serif" font-size="10.00"> </text>
<polyline fill="none" stroke="black" points="290.86,-478 380.86,-478 "/>
<text text-anchor="start" x="298.86" y="-466" font-family="Helvetica,sans-Serif" font-size="10.00">+ Border()</text>
<text text-anchor="start" x="298.86" y="-455" font-family="Helvetica,sans-Serif" font-size="10.00">+ Border()</text>
<text text-anchor="start" x="298.86" y="-444" font-family="Helvetica,sans-Serif" font-size="10.00">+ Border()</text>
<text text-anchor="start" x="298.86" y="-433" font-family="Helvetica,sans-Serif" font-size="10.00">+ getThickness()</text>
<text text-anchor="start" x="298.86" y="-422" font-family="Helvetica,sans-Serif" font-size="10.00">+ getColor()</text>
<text text-anchor="start" x="298.86" y="-411" font-family="Helvetica,sans-Serif" font-size="10.00">+ encloseArea()</text>
</a>
</g>
</g>
<!-- Node18&#45;&gt;Node2 -->
<g id="edge28" class="edge">
<title>Node18&#45;&gt;Node2</title>
<path fill="none" stroke="#404040" d="M296.12,-403.97C291.45,-398.13 286.64,-392.37 281.86,-387 274.12,-378.32 270.04,-378.15 262.86,-369 250.44,-353.17 238.82,-334.76 228.87,-317.29"/>
<polygon fill="none" stroke="#404040" points="228.73,-317.04 222.31,-313.74 222.89,-306.56 229.3,-309.85 228.73,-317.04"/>
<text text-anchor="middle" x="288.36" y="-361" font-family="Helvetica,sans-Serif" font-size="10.00"> #m_Border</text>
</g>
<!-- Node18&#45;&gt;Node14 -->
<g id="edge20" class="edge">
<title>Node18&#45;&gt;Node14</title>
<path fill="none" stroke="#404040" d="M325.34,-403.88C325.08,-387.91 327.79,-371.24 336.86,-358 377.51,-298.65 457.03,-272.37 518.76,-260.74"/>
<polygon fill="none" stroke="#404040" points="519.04,-260.69 524.25,-255.71 530.86,-258.6 525.64,-263.59 519.04,-260.69"/>
<text text-anchor="middle" x="362.36" y="-361" font-family="Helvetica,sans-Serif" font-size="10.00"> #m_Border</text>
</g>
<!-- Node19&#45;&gt;Node14 -->
<g id="edge21" class="edge">
<title>Node19&#45;&gt;Node14</title>
<path fill="none" stroke="#404040" d="M1010.95,-403.81C1005.63,-397.74 999.89,-391.97 993.86,-387 905.03,-313.87 774.25,-279.17 689.06,-263.47"/>
<polygon fill="none" stroke="#404040" points="688.91,-263.44 682.3,-266.32 677.1,-261.33 683.71,-258.45 688.91,-263.44"/>
<text text-anchor="middle" x="995.86" y="-361" font-family="Helvetica,sans-Serif" font-size="10.00"> #m_Padding</text>
</g>
<!-- Node19&#45;&gt;Node19 -->
<g id="edge22" class="edge">
<title>Node19&#45;&gt;Node19</title>
<path fill="none" stroke="#404040" d="M1087.37,-477.81C1097.63,-476.72 1105.36,-470.78 1105.36,-460 1105.36,-453.94 1102.91,-449.4 1098.95,-446.4"/>
<polygon fill="none" stroke="#404040" points="1098.64,-446.29 1091.64,-448 1087.37,-442.19 1094.37,-440.48 1098.64,-446.29"/>
<text text-anchor="middle" x="1127.36" y="-457.5" font-family="Helvetica,sans-Serif" font-size="10.00"> +EMPTY</text>
</g>
<!-- Node20 -->
<g id="node20" class="node">
<title>Node20</title>
<g id="a_node20"><a xlink:title=" ">
<polygon fill="white" stroke="#bfbfbf" points="529.36,-652 529.36,-709 596.36,-709 596.36,-652 529.36,-652"/>
<text text-anchor="middle" x="562.86" y="-697" font-family="Helvetica,sans-Serif" font-size="10.00">Rectangle&lt;</text>
<polyline fill="none" stroke="#bfbfbf" points="529.36,-690 596.36,-690 "/>
<text text-anchor="middle" x="562.86" y="-678" font-family="Helvetica,sans-Serif" font-size="10.00"> </text>
<polyline fill="none" stroke="#bfbfbf" points="529.36,-671 596.36,-671 "/>
<text text-anchor="middle" x="562.86" y="-659" font-family="Helvetica,sans-Serif" font-size="10.00"> </text>
</a>
</g>
</g>
<!-- Node20&#45;&gt;Node3 -->
<g id="edge25" class="edge">
<title>Node20&#45;&gt;Node3</title>
<path fill="none" stroke="#404040" d="M550.78,-651.94C535.54,-621 506.1,-572.32 463.86,-551 394.7,-516.09 358.89,-562.73 284.56,-533.36"/>
<polygon fill="none" stroke="#404040" points="284.31,-533.25 277.21,-534.52 273.31,-528.45 280.41,-527.18 284.31,-533.25"/>
<text text-anchor="middle" x="556.36" y="-570.5" font-family="Helvetica,sans-Serif" font-size="10.00"> #m_LayoutBounds</text>
</g>
<!-- Node21 -->
<g id="node21" class="node">
<title>Node21</title>
<g id="a_node21"><a xlink:title=" ">
<polygon fill="white" stroke="#bfbfbf" points="36.86,-431.5 36.86,-488.5 76.86,-488.5 76.86,-431.5 36.86,-431.5"/>
<text text-anchor="middle" x="56.86" y="-476.5" font-family="Helvetica,sans-Serif" font-size="10.00">Color</text>
<polyline fill="none" stroke="#bfbfbf" points="36.86,-469.5 76.86,-469.5 "/>
<text text-anchor="middle" x="56.86" y="-457.5" font-family="Helvetica,sans-Serif" font-size="10.00"> </text>
<polyline fill="none" stroke="#bfbfbf" points="36.86,-450.5 76.86,-450.5 "/>
<text text-anchor="middle" x="56.86" y="-438.5" font-family="Helvetica,sans-Serif" font-size="10.00"> </text>
</a>
</g>
</g>
<!-- Node21&#45;&gt;Node2 -->
<g id="edge26" class="edge">
<title>Node21&#45;&gt;Node2</title>
<path fill="none" stroke="#404040" d="M58.7,-431.22C61.13,-409.96 66.77,-380.55 79.86,-358 95.89,-330.38 121.45,-305.79 144.5,-287.22"/>
<polygon fill="none" stroke="#404040" points="144.73,-287.03 146.99,-280.19 154.18,-279.64 151.92,-286.49 144.73,-287.03"/>
<text text-anchor="middle" x="108.86" y="-361" font-family="Helvetica,sans-Serif" font-size="10.00"> #m_FillColor</text>
</g>
</g>
</svg>
        <g id="navigator" transform="translate(0 0)" fill="#404254">
                <rect fill="#f2f5e9" fill-opacity="0.5" stroke="#606060" stroke-width=".5" x="0" y="0" width="60" height="60"/>
                <use id="zoomplus" xlink:href="#zoomPlus" x="17" y="9" onmousedown="handleZoom(evt,'in')"/>
                <use id="zoomminus" xlink:href="#zoomMin" x="42" y="9" onmousedown="handleZoom(evt,'out')"/>
                <use id="reset" xlink:href="#resetDef" x="30" y="36" onmousedown="handleReset()"/>
                <g id="arrowUp" xlink:href="#dirArrow" transform="translate(30 24)" onmousedown="handlePan(0,-1)">
                  <use xlink:href="#rim" fill="#404040">
                        <set attributeName="fill" to="#808080" begin="arrowUp.mouseover" end="arrowUp.mouseout"/>
                  </use>
                  <path fill="none" stroke="white" stroke-width="1.5" d="M0,-3.0v7 M-2.5,-0.5L0,-3.0L2.5,-0.5"/>
                </g>
                <g id="arrowRight" xlink:href="#dirArrow" transform="rotate(90) translate(36 -43)" onmousedown="handlePan(1,0)">
                  <use xlink:href="#rim" fill="#404040">
                        <set attributeName="fill" to="#808080" begin="arrowRight.mouseover" end="arrowRight.mouseout"/>
                  </use>
                  <path fill="none" stroke="white" stroke-width="1.5" d="M0,-3.0v7 M-2.5,-0.5L0,-3.0L2.5,-0.5"/>
                </g>
                <g id="arrowDown" xlink:href="#dirArrow" transform="rotate(180) translate(-30 -48)" onmousedown="handlePan(0,1)">
                  <use xlink:href="#rim" fill="#404040">
                        <set attributeName="fill" to="#808080" begin="arrowDown.mouseover" end="arrowDown.mouseout"/>
                  </use>
                  <path fill="none" stroke="white" stroke-width="1.5" d="M0,-3.0v7 M-2.5,-0.5L0,-3.0L2.5,-0.5"/>
                </g>
                <g id="arrowLeft" xlink:href="#dirArrow" transform="rotate(270) translate(-36 17)" onmousedown="handlePan(-1,0)">
                  <use xlink:href="#rim" fill="#404040">
                        <set attributeName="fill" to="#808080" begin="arrowLeft.mouseover" end="arrowLeft.mouseout"/>
                  </use>
                  <path fill="none" stroke="white" stroke-width="1.5" d="M0,-3.0v7 M-2.5,-0.5L0,-3.0L2.5,-0.5"/>
                </g>
        </g>
        <svg viewBox="0 0 15 15" width="100%" height="30px" preserveAspectRatio="xMaxYMin meet">
         <g id="arrow_out" transform="scale(0.3 0.3)">
          <a xlink:href="class_sgl_1_1_circle__coll__graph_org.svg" target="_base">
           <rect id="button" ry="5" rx="5" y="6" x="6" height="38" width="38"
                fill="#f2f5e9" fill-opacity="0.5" stroke="#606060" stroke-width="1.0"/>
           <path id="arrow"
             d="M 11.500037,31.436501 C 11.940474,20.09759 22.043105,11.32322 32.158766,21.979434 L 37.068811,17.246167 C 37.068811,17.246167 37.088388,32 37.088388,32 L 22.160133,31.978069 C 22.160133,31.978069 26.997745,27.140456 26.997745,27.140456 C 18.528582,18.264221 13.291696,25.230495 11.500037,31.436501 z"
             style="fill:#404040;"/>
          </a>
         </g>
        </svg>
</svg>
