<?xml version="1.0" encoding="UTF-8" standalone="no"?>
<!DOCTYPE svg PUBLIC "-//W3C//DTD SVG 1.1//EN"
 "http://www.w3.org/Graphics/SVG/1.1/DTD/svg11.dtd">
<!-- Generated by graphviz version 2.50.0 (20211204.2007)
 -->
<!-- Title: Sgl::DefaultSkins::ButtonPlaneSkin Pages: 1 -->
<svg width="187pt" height="676pt"
 viewBox="0.00 0.00 186.50 676.00" xmlns="http://www.w3.org/2000/svg" xmlns:xlink="http://www.w3.org/1999/xlink">
<g id="graph0" class="graph" transform="scale(1 1) rotate(0) translate(4 672)">
<title>Sgl::DefaultSkins::ButtonPlaneSkin</title>
<polygon fill="white" stroke="transparent" points="-4,4 -4,-672 182.5,-672 182.5,4 -4,4"/>
<!-- Node1 -->
<g id="node1" class="node">
<title>Node1</title>
<g id="a_node1"><a xlink:title=" ">
<polygon fill="#bfbfbf" stroke="black" points="10.5,-0.5 10.5,-79.5 114.5,-79.5 114.5,-0.5 10.5,-0.5"/>
<text text-anchor="start" x="18.5" y="-67.5" font-family="Helvetica,sans-Serif" font-size="10.00">Sgl::DefaultSkins::</text>
<text text-anchor="middle" x="62.5" y="-56.5" font-family="Helvetica,sans-Serif" font-size="10.00">ButtonPlaneSkin</text>
<polyline fill="none" stroke="black" points="10.5,-49.5 114.5,-49.5 "/>
<text text-anchor="middle" x="62.5" y="-37.5" font-family="Helvetica,sans-Serif" font-size="10.00"> </text>
<polyline fill="none" stroke="black" points="10.5,-30.5 114.5,-30.5 "/>
<text text-anchor="start" x="18.5" y="-18.5" font-family="Helvetica,sans-Serif" font-size="10.00">+ ButtonPlaneSkin()</text>
<text text-anchor="start" x="18.5" y="-7.5" font-family="Helvetica,sans-Serif" font-size="10.00">+ ButtonPlaneSkin()</text>
</a>
</g>
</g>
<!-- Node2 -->
<g id="node2" class="node">
<title>Node2</title>
<g id="a_node2"><a xlink:href="class_sgl_1_1_default_skins_1_1_button_base_skin.html" target="_top" xlink:title=" ">
<polygon fill="white" stroke="black" points="10.5,-117.5 10.5,-317.5 114.5,-317.5 114.5,-117.5 10.5,-117.5"/>
<text text-anchor="start" x="18.5" y="-305.5" font-family="Helvetica,sans-Serif" font-size="10.00">Sgl::DefaultSkins::</text>
<text text-anchor="middle" x="62.5" y="-294.5" font-family="Helvetica,sans-Serif" font-size="10.00">ButtonBaseSkin</text>
<polyline fill="none" stroke="black" points="10.5,-287.5 114.5,-287.5 "/>
<text text-anchor="start" x="18.5" y="-275.5" font-family="Helvetica,sans-Serif" font-size="10.00"># m_StaticStyle</text>
<text text-anchor="start" x="18.5" y="-264.5" font-family="Helvetica,sans-Serif" font-size="10.00"># m_IdleStyle</text>
<text text-anchor="start" x="18.5" y="-253.5" font-family="Helvetica,sans-Serif" font-size="10.00"># m_HoveredStyle</text>
<text text-anchor="start" x="18.5" y="-242.5" font-family="Helvetica,sans-Serif" font-size="10.00"># m_PressedStyle</text>
<text text-anchor="start" x="18.5" y="-231.5" font-family="Helvetica,sans-Serif" font-size="10.00"># m_Button</text>
<text text-anchor="start" x="18.5" y="-220.5" font-family="Helvetica,sans-Serif" font-size="10.00">and 3 more...</text>
<polyline fill="none" stroke="black" points="10.5,-213.5 114.5,-213.5 "/>
<text text-anchor="start" x="18.5" y="-201.5" font-family="Helvetica,sans-Serif" font-size="10.00">+ ButtonBaseSkin()</text>
<text text-anchor="start" x="18.5" y="-190.5" font-family="Helvetica,sans-Serif" font-size="10.00">+ ButtonBaseSkin()</text>
<text text-anchor="start" x="18.5" y="-179.5" font-family="Helvetica,sans-Serif" font-size="10.00">+ dispose()</text>
<text text-anchor="start" x="18.5" y="-168.5" font-family="Helvetica,sans-Serif" font-size="10.00">+ attach()</text>
<text text-anchor="start" x="18.5" y="-157.5" font-family="Helvetica,sans-Serif" font-size="10.00">+ prerenderControl()</text>
<text text-anchor="start" x="18.5" y="-146.5" font-family="Helvetica,sans-Serif" font-size="10.00">and 6 more...</text>
<text text-anchor="start" x="18.5" y="-135.5" font-family="Helvetica,sans-Serif" font-size="10.00"># getMargin()</text>
<text text-anchor="start" x="18.5" y="-124.5" font-family="Helvetica,sans-Serif" font-size="10.00"># applyStaticStyle()</text>
</a>
</g>
</g>
<!-- Node2&#45;&gt;Node1 -->
<g id="edge1" class="edge">
<title>Node2&#45;&gt;Node1</title>
<path fill="none" stroke="midnightblue" d="M62.5,-107.22C62.5,-97.49 62.5,-88.14 62.5,-79.68"/>
<polygon fill="none" stroke="midnightblue" points="59,-107.47 62.5,-117.47 66,-107.47 59,-107.47"/>
</g>
<!-- Node3 -->
<g id="node3" class="node">
<title>Node3</title>
<g id="a_node3"><a xlink:href="class_sgl_1_1_base_skin.html" target="_top" xlink:title=" ">
<polygon fill="white" stroke="black" points="0,-355.5 0,-412.5 125,-412.5 125,-355.5 0,-355.5"/>
<text text-anchor="middle" x="62.5" y="-400.5" font-family="Helvetica,sans-Serif" font-size="10.00">Sgl::BaseSkin&lt; Button &gt;</text>
<polyline fill="none" stroke="black" points="0,-393.5 125,-393.5 "/>
<text text-anchor="middle" x="62.5" y="-381.5" font-family="Helvetica,sans-Serif" font-size="10.00"> </text>
<polyline fill="none" stroke="black" points="0,-374.5 125,-374.5 "/>
<text text-anchor="start" x="8" y="-362.5" font-family="Helvetica,sans-Serif" font-size="10.00">+ attach()</text>
</a>
</g>
</g>
<!-- Node3&#45;&gt;Node2 -->
<g id="edge2" class="edge">
<title>Node3&#45;&gt;Node2</title>
<path fill="none" stroke="midnightblue" d="M62.5,-345.29C62.5,-336.84 62.5,-327.5 62.5,-317.82"/>
<polygon fill="none" stroke="midnightblue" points="59,-345.47 62.5,-355.47 66,-345.47 59,-345.47"/>
</g>
<!-- Node4 -->
<g id="node4" class="node">
<title>Node4</title>
<g id="a_node4"><a xlink:href="class_sgl_1_1_skin.html" target="_top" xlink:title=" ">
<polygon fill="white" stroke="black" points="4.5,-555.5 4.5,-667.5 112.5,-667.5 112.5,-555.5 4.5,-555.5"/>
<text text-anchor="middle" x="58.5" y="-655.5" font-family="Helvetica,sans-Serif" font-size="10.00">Sgl::Skin</text>
<polyline fill="none" stroke="black" points="4.5,-648.5 112.5,-648.5 "/>
<text text-anchor="middle" x="58.5" y="-636.5" font-family="Helvetica,sans-Serif" font-size="10.00"> </text>
<polyline fill="none" stroke="black" points="4.5,-629.5 112.5,-629.5 "/>
<text text-anchor="start" x="12.5" y="-617.5" font-family="Helvetica,sans-Serif" font-size="10.00">+ ~Skin()</text>
<text text-anchor="start" x="12.5" y="-606.5" font-family="Helvetica,sans-Serif" font-size="10.00">+ dispose()</text>
<text text-anchor="start" x="12.5" y="-595.5" font-family="Helvetica,sans-Serif" font-size="10.00">+ prerenderControl()</text>
<text text-anchor="start" x="12.5" y="-584.5" font-family="Helvetica,sans-Serif" font-size="10.00">+ getHitComponent()</text>
<text text-anchor="start" x="12.5" y="-573.5" font-family="Helvetica,sans-Serif" font-size="10.00">+ getControl()</text>
<text text-anchor="start" x="12.5" y="-562.5" font-family="Helvetica,sans-Serif" font-size="10.00">and 8 more...</text>
</a>
</g>
</g>
<!-- Node4&#45;&gt;Node3 -->
<g id="edge3" class="edge">
<title>Node4&#45;&gt;Node3</title>
<path fill="none" stroke="midnightblue" d="M59.66,-545.28C60.44,-501.25 61.43,-445.38 62.01,-412.57"/>
<polygon fill="none" stroke="midnightblue" points="56.16,-545.28 59.48,-555.34 63.16,-545.4 56.16,-545.28"/>
</g>
<!-- Node5 -->
<g id="node5" class="node">
<title>Node5</title>
<g id="a_node5"><a xlink:href="class_sgl_1_1_base_skin.html" target="_top" xlink:title=" ">
<polygon fill="white" stroke="black" points="74.5,-460.5 74.5,-517.5 178.5,-517.5 178.5,-460.5 74.5,-460.5"/>
<text text-anchor="middle" x="126.5" y="-505.5" font-family="Helvetica,sans-Serif" font-size="10.00">Sgl::BaseSkin&lt; C &gt;</text>
<polyline fill="none" stroke="black" points="74.5,-498.5 178.5,-498.5 "/>
<text text-anchor="middle" x="126.5" y="-486.5" font-family="Helvetica,sans-Serif" font-size="10.00"> </text>
<polyline fill="none" stroke="black" points="74.5,-479.5 178.5,-479.5 "/>
<text text-anchor="start" x="82.5" y="-467.5" font-family="Helvetica,sans-Serif" font-size="10.00">+ attach()</text>
</a>
</g>
</g>
<!-- Node4&#45;&gt;Node5 -->
<g id="edge5" class="edge">
<title>Node4&#45;&gt;Node5</title>
<path fill="none" stroke="midnightblue" d="M94.71,-546.34C100.39,-536.28 105.98,-526.36 110.86,-517.72"/>
<polygon fill="none" stroke="midnightblue" points="91.58,-544.76 89.71,-555.19 97.68,-548.2 91.58,-544.76"/>
</g>
<!-- Node5&#45;&gt;Node3 -->
<g id="edge4" class="edge">
<title>Node5&#45;&gt;Node3</title>
<path fill="none" stroke="orange" d="M103.99,-451.77C96.01,-438.93 87.16,-424.69 79.7,-412.68"/>
<polygon fill="orange" stroke="orange" points="101.1,-453.75 109.35,-460.4 107.04,-450.06 101.1,-453.75"/>
<text text-anchor="middle" x="120.5" y="-434" font-family="Helvetica,sans-Serif" font-size="10.00"> &lt; Button &gt;</text>
</g>
</g>
</svg>
