<?xml version="1.0" encoding="UTF-8" standalone="no"?>
<!DOCTYPE svg PUBLIC "-//W3C//DTD SVG 1.1//EN"
 "http://www.w3.org/Graphics/SVG/1.1/DTD/svg11.dtd">
<!-- Generated by graphviz version 2.50.0 (20211204.2007)
 -->
<!-- Title: Sgl::MenuItem Pages: 1 -->
<!--zoomable 956 -->
<svg id="main" version="1.1" xmlns="http://www.w3.org/2000/svg" xmlns:xlink="http://www.w3.org/1999/xlink" xml:space="preserve" onload="init(evt)">
<style type="text/css"><![CDATA[
.edge:hover path { stroke: red; }
.edge:hover polygon { stroke: red; fill: red; }
]]></style>
<script type="text/javascript"><![CDATA[
var edges = document.getElementsByTagName('g');
if (edges && edges.length) {
  for (var i=0;i<edges.length;i++) {
    if (edges[i].id.substr(0,4)=='edge') {
      edges[i].setAttribute('class','edge');
    }
  }
}
]]></script>
        <defs>
                <circle id="rim" cx="0" cy="0" r="7"/>
                <circle id="rim2" cx="0" cy="0" r="3.5"/>
                <g id="zoomPlus">
                        <use xlink:href="#rim" fill="#404040">
                                <set attributeName="fill" to="#808080" begin="zoomplus.mouseover" end="zoomplus.mouseout"/>
                        </use>
                        <path d="M-4,0h8M0,-4v8" fill="none" stroke="white" stroke-width="1.5" pointer-events="none"/>
                </g>
                <g id="zoomMin">
                        <use xlink:href="#rim" fill="#404040">
                                <set attributeName="fill" to="#808080" begin="zoomminus.mouseover" end="zoomminus.mouseout"/>
                        </use>
                        <path d="M-4,0h8" fill="none" stroke="white" stroke-width="1.5" pointer-events="none"/>
                </g>
                <g id="dirArrow">
                        <path fill="none" stroke="white" stroke-width="1.5" d="M0,-3.0v7 M-2.5,-0.5L0,-3.0L2.5,-0.5"/>
                </g>
               <g id="resetDef">
                       <use xlink:href="#rim2" fill="#404040">
                               <set attributeName="fill" to="#808080" begin="reset.mouseover" end="reset.mouseout"/>
                       </use>
               </g>
        </defs>

<script type="text/javascript">
var viewWidth = 1523;
var viewHeight = 956;
var sectionId = 'dynsection-1';
</script>
<script xlink:href="svgpan.js"/>
<svg id="graph" class="graph">
<g id="viewport">
<title>Sgl::MenuItem</title>
<polygon fill="white" stroke="transparent" points="-4,4 -4,-952 1518.5,-952 1518.5,4 -4,4"/>
<!-- Node1 -->
<g id="node1" class="node">
<title>Node1</title>
<g id="a_node1"><a xlink:title=" ">
<polygon fill="#bfbfbf" stroke="black" points="1330.5,-0.5 1330.5,-68.5 1416.5,-68.5 1416.5,-0.5 1330.5,-0.5"/>
<text text-anchor="middle" x="1373.5" y="-56.5" font-family="Helvetica,sans-Serif" font-size="10.00">Sgl::MenuItem</text>
<polyline fill="none" stroke="black" points="1330.5,-49.5 1416.5,-49.5 "/>
<text text-anchor="middle" x="1373.5" y="-37.5" font-family="Helvetica,sans-Serif" font-size="10.00"> </text>
<polyline fill="none" stroke="black" points="1330.5,-30.5 1416.5,-30.5 "/>
<text text-anchor="start" x="1338.5" y="-18.5" font-family="Helvetica,sans-Serif" font-size="10.00">+ MenuItem()</text>
<text text-anchor="start" x="1338.5" y="-7.5" font-family="Helvetica,sans-Serif" font-size="10.00">+ setOnAction()</text>
</a>
</g>
</g>
<!-- Node2 -->
<g id="node2" class="node">
<title>Node2</title>
<g id="a_node2"><a xlink:href="class_sgl_1_1_button.html" target="_top" xlink:title=" ">
<polygon fill="white" stroke="black" points="1336.5,-106.5 1336.5,-218.5 1410.5,-218.5 1410.5,-106.5 1336.5,-106.5"/>
<text text-anchor="middle" x="1373.5" y="-206.5" font-family="Helvetica,sans-Serif" font-size="10.00">Sgl::Button</text>
<polyline fill="none" stroke="black" points="1336.5,-199.5 1410.5,-199.5 "/>
<text text-anchor="middle" x="1373.5" y="-187.5" font-family="Helvetica,sans-Serif" font-size="10.00"> </text>
<polyline fill="none" stroke="black" points="1336.5,-180.5 1410.5,-180.5 "/>
<text text-anchor="start" x="1344.5" y="-168.5" font-family="Helvetica,sans-Serif" font-size="10.00">+ Button()</text>
<text text-anchor="start" x="1344.5" y="-157.5" font-family="Helvetica,sans-Serif" font-size="10.00">+ Button()</text>
<text text-anchor="start" x="1344.5" y="-146.5" font-family="Helvetica,sans-Serif" font-size="10.00">+ Button()</text>
<text text-anchor="start" x="1344.5" y="-135.5" font-family="Helvetica,sans-Serif" font-size="10.00">+ Button()</text>
<text text-anchor="start" x="1344.5" y="-124.5" font-family="Helvetica,sans-Serif" font-size="10.00">+ Button()</text>
<text text-anchor="start" x="1344.5" y="-113.5" font-family="Helvetica,sans-Serif" font-size="10.00">and 7 more...</text>
</a>
</g>
</g>
<!-- Node2&#45;&gt;Node1 -->
<g id="edge1" class="edge">
<title>Node2&#45;&gt;Node1</title>
<path fill="none" stroke="midnightblue" d="M1373.5,-95.96C1373.5,-86.48 1373.5,-77.08 1373.5,-68.62"/>
<polygon fill="none" stroke="midnightblue" points="1370,-96.23 1373.5,-106.23 1377,-96.23 1370,-96.23"/>
</g>
<!-- Node3 -->
<g id="node3" class="node">
<title>Node3</title>
<g id="a_node3"><a xlink:href="class_sgl_1_1_control.html" target="_top" xlink:title=" ">
<polygon fill="white" stroke="black" points="1299,-256.5 1299,-401.5 1448,-401.5 1448,-256.5 1299,-256.5"/>
<text text-anchor="middle" x="1373.5" y="-389.5" font-family="Helvetica,sans-Serif" font-size="10.00">Sgl::Control</text>
<polyline fill="none" stroke="black" points="1299,-382.5 1448,-382.5 "/>
<text text-anchor="middle" x="1373.5" y="-370.5" font-family="Helvetica,sans-Serif" font-size="10.00"> </text>
<polyline fill="none" stroke="black" points="1299,-363.5 1448,-363.5 "/>
<text text-anchor="start" x="1307" y="-351.5" font-family="Helvetica,sans-Serif" font-size="10.00">+ Control()</text>
<text text-anchor="start" x="1307" y="-340.5" font-family="Helvetica,sans-Serif" font-size="10.00">+ ~Control()</text>
<text text-anchor="start" x="1307" y="-329.5" font-family="Helvetica,sans-Serif" font-size="10.00">+ getHitComponent()</text>
<text text-anchor="start" x="1307" y="-318.5" font-family="Helvetica,sans-Serif" font-size="10.00"># layoutChildren()</text>
<text text-anchor="start" x="1307" y="-307.5" font-family="Helvetica,sans-Serif" font-size="10.00"># prerenderSelf()</text>
<text text-anchor="start" x="1307" y="-296.5" font-family="Helvetica,sans-Serif" font-size="10.00"># computeCustomPrefWidth()</text>
<text text-anchor="start" x="1307" y="-285.5" font-family="Helvetica,sans-Serif" font-size="10.00"># computeCustomPrefHeight()</text>
<text text-anchor="start" x="1307" y="-274.5" font-family="Helvetica,sans-Serif" font-size="10.00"># computeCustomMinWidth()</text>
<text text-anchor="start" x="1307" y="-263.5" font-family="Helvetica,sans-Serif" font-size="10.00">and 3 more...</text>
</a>
</g>
</g>
<!-- Node3&#45;&gt;Node2 -->
<g id="edge2" class="edge">
<title>Node3&#45;&gt;Node2</title>
<path fill="none" stroke="midnightblue" d="M1373.5,-246.2C1373.5,-236.85 1373.5,-227.49 1373.5,-218.61"/>
<polygon fill="none" stroke="midnightblue" points="1370,-246.33 1373.5,-256.33 1377,-246.33 1370,-246.33"/>
</g>
<!-- Node4 -->
<g id="node4" class="node">
<title>Node4</title>
<g id="a_node4"><a xlink:href="class_sgl_1_1_parent.html" target="_top" xlink:title=" ">
<polygon fill="white" stroke="black" points="877.5,-449.5 877.5,-627.5 1023.5,-627.5 1023.5,-449.5 877.5,-449.5"/>
<text text-anchor="middle" x="950.5" y="-615.5" font-family="Helvetica,sans-Serif" font-size="10.00">Sgl::Parent</text>
<polyline fill="none" stroke="black" points="877.5,-608.5 1023.5,-608.5 "/>
<text text-anchor="middle" x="950.5" y="-596.5" font-family="Helvetica,sans-Serif" font-size="10.00"> </text>
<polyline fill="none" stroke="black" points="877.5,-589.5 1023.5,-589.5 "/>
<text text-anchor="start" x="885.5" y="-577.5" font-family="Helvetica,sans-Serif" font-size="10.00">+ Parent()</text>
<text text-anchor="start" x="885.5" y="-566.5" font-family="Helvetica,sans-Serif" font-size="10.00">+ ~Parent()</text>
<text text-anchor="start" x="885.5" y="-555.5" font-family="Helvetica,sans-Serif" font-size="10.00">+ getHitComponent()</text>
<text text-anchor="start" x="885.5" y="-544.5" font-family="Helvetica,sans-Serif" font-size="10.00">+ render()</text>
<text text-anchor="start" x="885.5" y="-533.5" font-family="Helvetica,sans-Serif" font-size="10.00">+ layout()</text>
<text text-anchor="start" x="885.5" y="-522.5" font-family="Helvetica,sans-Serif" font-size="10.00">and 38 more...</text>
<text text-anchor="start" x="885.5" y="-511.5" font-family="Helvetica,sans-Serif" font-size="10.00"># setSceneInSceneTree()</text>
<text text-anchor="start" x="885.5" y="-500.5" font-family="Helvetica,sans-Serif" font-size="10.00"># layoutChildren()</text>
<text text-anchor="start" x="885.5" y="-489.5" font-family="Helvetica,sans-Serif" font-size="10.00"># prerenderSelf()</text>
<text text-anchor="start" x="885.5" y="-478.5" font-family="Helvetica,sans-Serif" font-size="10.00"># updateSnapshotSize()</text>
<text text-anchor="start" x="885.5" y="-467.5" font-family="Helvetica,sans-Serif" font-size="10.00"># computeCustomPrefWidth()</text>
<text text-anchor="start" x="885.5" y="-456.5" font-family="Helvetica,sans-Serif" font-size="10.00">and 5 more...</text>
</a>
</g>
</g>
<!-- Node4&#45;&gt;Node3 -->
<g id="edge3" class="edge">
<title>Node4&#45;&gt;Node3</title>
<path fill="none" stroke="midnightblue" d="M1032.91,-497.07C1110.01,-459.25 1224.18,-403.25 1298.71,-366.69"/>
<polygon fill="none" stroke="midnightblue" points="1031.13,-494.05 1023.7,-501.59 1034.22,-500.33 1031.13,-494.05"/>
</g>
<!-- Node5 -->
<g id="node5" class="node">
<title>Node5</title>
<g id="a_node5"><a xlink:href="class_sgl_1_1_component.html" target="_top" xlink:title=" ">
<polygon fill="white" stroke="black" points="431.5,-256.5 431.5,-401.5 559.5,-401.5 559.5,-256.5 431.5,-256.5"/>
<text text-anchor="middle" x="495.5" y="-389.5" font-family="Helvetica,sans-Serif" font-size="10.00">Sgl::Component</text>
<polyline fill="none" stroke="black" points="431.5,-382.5 559.5,-382.5 "/>
<text text-anchor="middle" x="495.5" y="-370.5" font-family="Helvetica,sans-Serif" font-size="10.00"> </text>
<polyline fill="none" stroke="black" points="431.5,-363.5 559.5,-363.5 "/>
<text text-anchor="start" x="439.5" y="-351.5" font-family="Helvetica,sans-Serif" font-size="10.00">+ Component()</text>
<text text-anchor="start" x="439.5" y="-340.5" font-family="Helvetica,sans-Serif" font-size="10.00">+ ~Component()</text>
<text text-anchor="start" x="439.5" y="-329.5" font-family="Helvetica,sans-Serif" font-size="10.00">+ getHitComponent()</text>
<text text-anchor="start" x="439.5" y="-318.5" font-family="Helvetica,sans-Serif" font-size="10.00">+ render()</text>
<text text-anchor="start" x="439.5" y="-307.5" font-family="Helvetica,sans-Serif" font-size="10.00">+ layout()</text>
<text text-anchor="start" x="439.5" y="-296.5" font-family="Helvetica,sans-Serif" font-size="10.00">and 37 more...</text>
<text text-anchor="start" x="439.5" y="-285.5" font-family="Helvetica,sans-Serif" font-size="10.00"># updateShadow()</text>
<text text-anchor="start" x="439.5" y="-274.5" font-family="Helvetica,sans-Serif" font-size="10.00"># renderShadow()</text>
<text text-anchor="start" x="439.5" y="-263.5" font-family="Helvetica,sans-Serif" font-size="10.00"># setSceneInSceneTree()</text>
</a>
</g>
</g>
<!-- Node4&#45;&gt;Node5 -->
<g id="edge15" class="edge">
<title>Node4&#45;&gt;Node5</title>
<path fill="none" stroke="#404040" d="M877.4,-504.16C793.25,-465.79 655.75,-403.08 570.72,-364.31"/>
<polygon fill="none" stroke="#404040" points="570.52,-364.21 563.4,-365.36 559.6,-359.23 566.72,-358.08 570.52,-364.21"/>
<text text-anchor="middle" x="735" y="-423" font-family="Helvetica,sans-Serif" font-size="10.00"> #m_Parent</text>
</g>
<!-- Node5&#45;&gt;Node4 -->
<g id="edge4" class="edge">
<title>Node5&#45;&gt;Node4</title>
<path fill="none" stroke="midnightblue" d="M569.65,-344.64C631.89,-358.7 722.01,-383.27 794.5,-420 823.38,-434.63 852.43,-454.7 877.49,-474.11"/>
<polygon fill="none" stroke="midnightblue" points="570.04,-341.14 559.52,-342.39 568.52,-347.97 570.04,-341.14"/>
</g>
<!-- Node6 -->
<g id="node6" class="node">
<title>Node6</title>
<g id="a_node6"><a xlink:title=" ">
<polygon fill="white" stroke="#bfbfbf" points="366.5,-719.5 366.5,-776.5 458.5,-776.5 458.5,-719.5 366.5,-719.5"/>
<text text-anchor="middle" x="412.5" y="-764.5" font-family="Helvetica,sans-Serif" font-size="10.00">Sml::EventTarget</text>
<polyline fill="none" stroke="#bfbfbf" points="366.5,-757.5 458.5,-757.5 "/>
<text text-anchor="middle" x="412.5" y="-745.5" font-family="Helvetica,sans-Serif" font-size="10.00"> </text>
<polyline fill="none" stroke="#bfbfbf" points="366.5,-738.5 458.5,-738.5 "/>
<text text-anchor="middle" x="412.5" y="-726.5" font-family="Helvetica,sans-Serif" font-size="10.00"> </text>
</a>
</g>
</g>
<!-- Node6&#45;&gt;Node5 -->
<g id="edge5" class="edge">
<title>Node6&#45;&gt;Node5</title>
<path fill="none" stroke="midnightblue" d="M424.41,-709.52C431.51,-686.23 440.31,-655.58 446.5,-628 463.68,-551.39 477.53,-462.44 486.06,-401.8"/>
<polygon fill="none" stroke="midnightblue" points="420.98,-708.75 421.38,-719.34 427.67,-710.82 420.98,-708.75"/>
</g>
<!-- Node14 -->
<g id="node14" class="node">
<title>Node14</title>
<g id="a_node14"><a xlink:href="class_sgl_1_1_scene.html" target="_top" xlink:title=" ">
<polygon fill="white" stroke="black" points="272.5,-482.5 272.5,-594.5 352.5,-594.5 352.5,-482.5 272.5,-482.5"/>
<text text-anchor="middle" x="312.5" y="-582.5" font-family="Helvetica,sans-Serif" font-size="10.00">Sgl::Scene</text>
<polyline fill="none" stroke="black" points="272.5,-575.5 352.5,-575.5 "/>
<text text-anchor="middle" x="312.5" y="-563.5" font-family="Helvetica,sans-Serif" font-size="10.00"> </text>
<polyline fill="none" stroke="black" points="272.5,-556.5 352.5,-556.5 "/>
<text text-anchor="start" x="280.5" y="-544.5" font-family="Helvetica,sans-Serif" font-size="10.00">+ Scene()</text>
<text text-anchor="start" x="280.5" y="-533.5" font-family="Helvetica,sans-Serif" font-size="10.00">+ Scene()</text>
<text text-anchor="start" x="280.5" y="-522.5" font-family="Helvetica,sans-Serif" font-size="10.00">+ ~Scene()</text>
<text text-anchor="start" x="280.5" y="-511.5" font-family="Helvetica,sans-Serif" font-size="10.00">+ update()</text>
<text text-anchor="start" x="280.5" y="-500.5" font-family="Helvetica,sans-Serif" font-size="10.00">+ render()</text>
<text text-anchor="start" x="280.5" y="-489.5" font-family="Helvetica,sans-Serif" font-size="10.00">and 17 more...</text>
</a>
</g>
</g>
<!-- Node6&#45;&gt;Node14 -->
<g id="edge14" class="edge">
<title>Node6&#45;&gt;Node14</title>
<path fill="none" stroke="midnightblue" d="M394.88,-710.43C379.46,-678.44 356.83,-631.48 339.19,-594.88"/>
<polygon fill="none" stroke="midnightblue" points="391.73,-711.96 399.22,-719.45 398.03,-708.92 391.73,-711.96"/>
</g>
<!-- Node7 -->
<g id="node7" class="node">
<title>Node7</title>
<g id="a_node7"><a xlink:title=" ">
<polygon fill="white" stroke="#bfbfbf" points="1035.5,-890.5 1035.5,-947.5 1081.5,-947.5 1081.5,-890.5 1035.5,-890.5"/>
<text text-anchor="middle" x="1058.5" y="-935.5" font-family="Helvetica,sans-Serif" font-size="10.00">int32_t</text>
<polyline fill="none" stroke="#bfbfbf" points="1035.5,-928.5 1081.5,-928.5 "/>
<text text-anchor="middle" x="1058.5" y="-916.5" font-family="Helvetica,sans-Serif" font-size="10.00"> </text>
<polyline fill="none" stroke="#bfbfbf" points="1035.5,-909.5 1081.5,-909.5 "/>
<text text-anchor="middle" x="1058.5" y="-897.5" font-family="Helvetica,sans-Serif" font-size="10.00"> </text>
</a>
</g>
</g>
<!-- Node7&#45;&gt;Node4 -->
<g id="edge25" class="edge">
<title>Node7&#45;&gt;Node4</title>
<path fill="none" stroke="#404040" d="M1059.7,-890.45C1060.87,-839.82 1058.59,-729.52 1022.5,-646 1021.42,-643.5 1020.28,-641 1019.09,-638.5"/>
<polygon fill="none" stroke="#404040" points="1018.98,-638.29 1012.7,-634.74 1013.56,-627.58 1019.84,-631.13 1018.98,-638.29"/>
<text text-anchor="middle" x="1093.5" y="-773" font-family="Helvetica,sans-Serif" font-size="10.00"> #m_MaxHeight</text>
<text text-anchor="middle" x="1093.5" y="-762" font-family="Helvetica,sans-Serif" font-size="10.00">#m_MaxWidth</text>
<text text-anchor="middle" x="1093.5" y="-751" font-family="Helvetica,sans-Serif" font-size="10.00">#m_MinHeight</text>
<text text-anchor="middle" x="1093.5" y="-740" font-family="Helvetica,sans-Serif" font-size="10.00">#m_MinWidth</text>
<text text-anchor="middle" x="1093.5" y="-729" font-family="Helvetica,sans-Serif" font-size="10.00">#m_PrefHeight</text>
<text text-anchor="middle" x="1093.5" y="-718" font-family="Helvetica,sans-Serif" font-size="10.00">#m_PrefWidth</text>
</g>
<!-- Node7&#45;&gt;Node5 -->
<g id="edge6" class="edge">
<title>Node7&#45;&gt;Node5</title>
<path fill="none" stroke="#404040" d="M1035.47,-917.39C967.58,-914.58 764.61,-898.78 629.5,-810 563.01,-766.31 548.84,-742.34 520.5,-668 503.44,-623.26 497.97,-498.8 496.24,-414.07"/>
<polygon fill="none" stroke="#404040" points="496.24,-413.86 492.13,-407.94 496.02,-401.87 500.13,-407.79 496.24,-413.86"/>
<text text-anchor="middle" x="579.5" y="-660" font-family="Helvetica,sans-Serif" font-size="10.00"> +UNLIMITED_SIZE</text>
<text text-anchor="middle" x="579.5" y="-649" font-family="Helvetica,sans-Serif" font-size="10.00">+USE_COMPUTED_SIZE</text>
</g>
<!-- Node20 -->
<g id="node20" class="node">
<title>Node20</title>
<g id="a_node20"><a xlink:href="struct_sgl_1_1_insets.html" target="_top" xlink:title=" ">
<polygon fill="white" stroke="black" points="1147,-692 1147,-804 1226,-804 1226,-692 1147,-692"/>
<text text-anchor="middle" x="1186.5" y="-792" font-family="Helvetica,sans-Serif" font-size="10.00">Sgl::Insets</text>
<polyline fill="none" stroke="black" points="1147,-785 1226,-785 "/>
<text text-anchor="middle" x="1186.5" y="-773" font-family="Helvetica,sans-Serif" font-size="10.00"> </text>
<polyline fill="none" stroke="black" points="1147,-766 1226,-766 "/>
<text text-anchor="start" x="1155" y="-754" font-family="Helvetica,sans-Serif" font-size="10.00">+ Insets()</text>
<text text-anchor="start" x="1155" y="-743" font-family="Helvetica,sans-Serif" font-size="10.00">+ Insets()</text>
<text text-anchor="start" x="1155" y="-732" font-family="Helvetica,sans-Serif" font-size="10.00">+ Insets()</text>
<text text-anchor="start" x="1155" y="-721" font-family="Helvetica,sans-Serif" font-size="10.00">+ Insets()</text>
<text text-anchor="start" x="1155" y="-710" font-family="Helvetica,sans-Serif" font-size="10.00">+ operator+=()</text>
<text text-anchor="start" x="1155" y="-699" font-family="Helvetica,sans-Serif" font-size="10.00">+ operator&#45;=()</text>
</a>
</g>
</g>
<!-- Node7&#45;&gt;Node20 -->
<g id="edge24" class="edge">
<title>Node7&#45;&gt;Node20</title>
<path fill="none" stroke="#404040" d="M1079.35,-890.47C1095.57,-869.06 1118.7,-838.52 1139.32,-811.29"/>
<polygon fill="none" stroke="#404040" points="1139.54,-811 1139.98,-803.8 1146.79,-801.43 1146.35,-808.63 1139.54,-811"/>
<text text-anchor="middle" x="1146.5" y="-864" font-family="Helvetica,sans-Serif" font-size="10.00"> +bottom</text>
<text text-anchor="middle" x="1146.5" y="-853" font-family="Helvetica,sans-Serif" font-size="10.00">+left</text>
<text text-anchor="middle" x="1146.5" y="-842" font-family="Helvetica,sans-Serif" font-size="10.00">+right</text>
<text text-anchor="middle" x="1146.5" y="-831" font-family="Helvetica,sans-Serif" font-size="10.00">+top</text>
</g>
<!-- Node8 -->
<g id="node8" class="node">
<title>Node8</title>
<g id="a_node8"><a xlink:title=" ">
<polygon fill="white" stroke="#bfbfbf" points="536,-510 536,-567 577,-567 577,-510 536,-510"/>
<text text-anchor="middle" x="556.5" y="-555" font-family="Helvetica,sans-Serif" font-size="10.00">friend</text>
<polyline fill="none" stroke="#bfbfbf" points="536,-548 577,-548 "/>
<text text-anchor="middle" x="556.5" y="-536" font-family="Helvetica,sans-Serif" font-size="10.00"> </text>
<polyline fill="none" stroke="#bfbfbf" points="536,-529 577,-529 "/>
<text text-anchor="middle" x="556.5" y="-517" font-family="Helvetica,sans-Serif" font-size="10.00"> </text>
</a>
</g>
</g>
<!-- Node8&#45;&gt;Node5 -->
<g id="edge7" class="edge">
<title>Node8&#45;&gt;Node5</title>
<path fill="none" stroke="#404040" d="M548.4,-509.95C541.15,-485.28 530.14,-447.82 520.03,-413.45"/>
<polygon fill="none" stroke="#404040" points="520.03,-413.45 514.5,-408.82 516.65,-401.93 522.18,-406.56 520.03,-413.45"/>
<text text-anchor="middle" x="543" y="-423" font-family="Helvetica,sans-Serif" font-size="10.00"> +Scene</text>
</g>
<!-- Node9 -->
<g id="node9" class="node">
<title>Node9</title>
<g id="a_node9"><a xlink:title=" ">
<polygon fill="white" stroke="#bfbfbf" points="639,-719.5 639,-776.5 674,-776.5 674,-719.5 639,-719.5"/>
<text text-anchor="middle" x="656.5" y="-764.5" font-family="Helvetica,sans-Serif" font-size="10.00">bool</text>
<polyline fill="none" stroke="#bfbfbf" points="639,-757.5 674,-757.5 "/>
<text text-anchor="middle" x="656.5" y="-745.5" font-family="Helvetica,sans-Serif" font-size="10.00"> </text>
<polyline fill="none" stroke="#bfbfbf" points="639,-738.5 674,-738.5 "/>
<text text-anchor="middle" x="656.5" y="-726.5" font-family="Helvetica,sans-Serif" font-size="10.00"> </text>
</a>
</g>
</g>
<!-- Node9&#45;&gt;Node4 -->
<g id="edge19" class="edge">
<title>Node9&#45;&gt;Node4</title>
<path fill="none" stroke="#404040" d="M662.83,-719.34C669.22,-696.99 681.12,-666.07 701.5,-646 746.5,-601.67 812.84,-574.54 865.73,-558.76"/>
<polygon fill="none" stroke="#404040" points="865.95,-558.7 870.61,-553.19 877.48,-555.38 872.83,-560.88 865.95,-558.7"/>
<text text-anchor="middle" x="750" y="-654.5" font-family="Helvetica,sans-Serif" font-size="10.00"> #m_NeedLayoutPass</text>
</g>
<!-- Node9&#45;&gt;Node5 -->
<g id="edge8" class="edge">
<title>Node9&#45;&gt;Node5</title>
<path fill="none" stroke="#404040" d="M653.35,-719.2C646.5,-665.16 627.35,-543.02 585.5,-449 579.82,-436.24 572.54,-423.58 564.59,-411.54"/>
<polygon fill="none" stroke="#404040" points="564.55,-411.49 557.86,-408.8 557.77,-401.59 564.46,-404.28 564.55,-411.49"/>
<text text-anchor="middle" x="668.5" y="-547" font-family="Helvetica,sans-Serif" font-size="10.00"> #m_Focused</text>
<text text-anchor="middle" x="668.5" y="-536" font-family="Helvetica,sans-Serif" font-size="10.00">#m_Hovered</text>
<text text-anchor="middle" x="668.5" y="-525" font-family="Helvetica,sans-Serif" font-size="10.00">#m_Visible</text>
</g>
<!-- Node10 -->
<g id="node10" class="node">
<title>Node10</title>
<g id="a_node10"><a xlink:href="class_sgl_1_1_shadow.html" target="_top" xlink:title=" ">
<polygon fill="white" stroke="black" points="0,-477 0,-600 101,-600 101,-477 0,-477"/>
<text text-anchor="middle" x="50.5" y="-588" font-family="Helvetica,sans-Serif" font-size="10.00">Sgl::Shadow</text>
<polyline fill="none" stroke="black" points="0,-581 101,-581 "/>
<text text-anchor="middle" x="50.5" y="-569" font-family="Helvetica,sans-Serif" font-size="10.00"> </text>
<polyline fill="none" stroke="black" points="0,-562 101,-562 "/>
<text text-anchor="start" x="8" y="-550" font-family="Helvetica,sans-Serif" font-size="10.00">+ Shadow()</text>
<text text-anchor="start" x="8" y="-539" font-family="Helvetica,sans-Serif" font-size="10.00">+ ~Shadow()</text>
<text text-anchor="start" x="8" y="-528" font-family="Helvetica,sans-Serif" font-size="10.00">+ update()</text>
<text text-anchor="start" x="8" y="-517" font-family="Helvetica,sans-Serif" font-size="10.00">+ render()</text>
<text text-anchor="start" x="8" y="-506" font-family="Helvetica,sans-Serif" font-size="10.00">+ getTexture()</text>
<text text-anchor="start" x="8" y="-495" font-family="Helvetica,sans-Serif" font-size="10.00">+ getSpecification()</text>
<text text-anchor="start" x="8" y="-484" font-family="Helvetica,sans-Serif" font-size="10.00">+ setSpecification()</text>
</a>
</g>
</g>
<!-- Node10&#45;&gt;Node5 -->
<g id="edge9" class="edge">
<title>Node10&#45;&gt;Node5</title>
<path fill="none" stroke="#404040" d="M84.37,-476.61C91.76,-466.55 100.19,-456.86 109.5,-449 198.61,-373.75 334.86,-346.05 419.39,-335.88"/>
<polygon fill="none" stroke="#404040" points="419.55,-335.86 425.06,-331.2 431.47,-334.5 425.96,-339.15 419.55,-335.86"/>
<text text-anchor="middle" x="173.5" y="-423" font-family="Helvetica,sans-Serif" font-size="10.00"> #m_Shadow</text>
</g>
<!-- Node11 -->
<g id="node11" class="node">
<title>Node11</title>
<g id="a_node11"><a xlink:href="class_gui_event_dispatcher.html" target="_top" xlink:title=" ">
<polygon fill="white" stroke="black" points="119,-471.5 119,-605.5 254,-605.5 254,-471.5 119,-471.5"/>
<text text-anchor="middle" x="186.5" y="-593.5" font-family="Helvetica,sans-Serif" font-size="10.00">GuiEventDispatcher</text>
<polyline fill="none" stroke="black" points="119,-586.5 254,-586.5 "/>
<text text-anchor="middle" x="186.5" y="-574.5" font-family="Helvetica,sans-Serif" font-size="10.00"> </text>
<polyline fill="none" stroke="black" points="119,-567.5 254,-567.5 "/>
<text text-anchor="start" x="127" y="-555.5" font-family="Helvetica,sans-Serif" font-size="10.00">+ ~GuiEventDispatcher()</text>
<text text-anchor="start" x="127" y="-544.5" font-family="Helvetica,sans-Serif" font-size="10.00">+ attachFilter()</text>
<text text-anchor="start" x="127" y="-533.5" font-family="Helvetica,sans-Serif" font-size="10.00">+ detachFilter()</text>
<text text-anchor="start" x="127" y="-522.5" font-family="Helvetica,sans-Serif" font-size="10.00">+ attachHandler()</text>
<text text-anchor="start" x="127" y="-511.5" font-family="Helvetica,sans-Serif" font-size="10.00">+ detachHandler()</text>
<text text-anchor="start" x="127" y="-500.5" font-family="Helvetica,sans-Serif" font-size="10.00">+ dispatchEvent()</text>
<text text-anchor="start" x="127" y="-489.5" font-family="Helvetica,sans-Serif" font-size="10.00"># dispatchCapturingEvent()</text>
<text text-anchor="start" x="127" y="-478.5" font-family="Helvetica,sans-Serif" font-size="10.00"># dispatchBubblingEvent()</text>
</a>
</g>
</g>
<!-- Node11&#45;&gt;Node5 -->
<g id="edge10" class="edge">
<title>Node11&#45;&gt;Node5</title>
<path fill="none" stroke="#404040" d="M209.51,-471.47C218.63,-452.83 230.78,-433.86 246.5,-420 295.14,-377.11 365.79,-354.16 419.42,-342.19"/>
<polygon fill="none" stroke="#404040" points="419.54,-342.17 424.58,-337 431.28,-339.67 426.25,-344.83 419.54,-342.17"/>
<text text-anchor="middle" x="281.5" y="-423" font-family="Helvetica,sans-Serif" font-size="10.00"> #m_Dispatcher</text>
</g>
<!-- Node12 -->
<g id="node12" class="node">
<title>Node12</title>
<g id="a_node12"><a xlink:title=" ">
<polygon fill="white" stroke="#bfbfbf" points="81,-719.5 81,-776.5 194,-776.5 194,-719.5 81,-719.5"/>
<text text-anchor="middle" x="137.5" y="-764.5" font-family="Helvetica,sans-Serif" font-size="10.00">Sml::EventDispatcher</text>
<polyline fill="none" stroke="#bfbfbf" points="81,-757.5 194,-757.5 "/>
<text text-anchor="middle" x="137.5" y="-745.5" font-family="Helvetica,sans-Serif" font-size="10.00"> </text>
<polyline fill="none" stroke="#bfbfbf" points="81,-738.5 194,-738.5 "/>
<text text-anchor="middle" x="137.5" y="-726.5" font-family="Helvetica,sans-Serif" font-size="10.00"> </text>
</a>
</g>
</g>
<!-- Node12&#45;&gt;Node11 -->
<g id="edge11" class="edge">
<title>Node12&#45;&gt;Node11</title>
<path fill="none" stroke="midnightblue" d="M146.39,-709.37C153.2,-680.5 162.79,-639.91 170.88,-605.65"/>
<polygon fill="none" stroke="midnightblue" points="142.9,-708.91 144.01,-719.45 149.71,-710.52 142.9,-708.91"/>
</g>
<!-- Node13 -->
<g id="node13" class="node">
<title>Node13</title>
<g id="a_node13"><a xlink:title=" ">
<polygon fill="white" stroke="#bfbfbf" points="212.5,-719.5 212.5,-776.5 260.5,-776.5 260.5,-719.5 212.5,-719.5"/>
<text text-anchor="middle" x="236.5" y="-764.5" font-family="Helvetica,sans-Serif" font-size="10.00">Notifier</text>
<polyline fill="none" stroke="#bfbfbf" points="212.5,-757.5 260.5,-757.5 "/>
<text text-anchor="middle" x="236.5" y="-745.5" font-family="Helvetica,sans-Serif" font-size="10.00"> </text>
<polyline fill="none" stroke="#bfbfbf" points="212.5,-738.5 260.5,-738.5 "/>
<text text-anchor="middle" x="236.5" y="-726.5" font-family="Helvetica,sans-Serif" font-size="10.00"> </text>
</a>
</g>
</g>
<!-- Node13&#45;&gt;Node11 -->
<g id="edge12" class="edge">
<title>Node13&#45;&gt;Node11</title>
<path fill="none" stroke="#404040" d="M229.86,-719.45C223.61,-693.5 213.94,-653.37 205.32,-617.59"/>
<polygon fill="none" stroke="#404040" points="205.25,-617.32 199.96,-612.42 202.44,-605.65 207.73,-610.55 205.25,-617.32"/>
<text text-anchor="middle" x="262.5" y="-660" font-family="Helvetica,sans-Serif" font-size="10.00"> #m_FiltersNotifier</text>
<text text-anchor="middle" x="262.5" y="-649" font-family="Helvetica,sans-Serif" font-size="10.00">#m_HandlersNotifier</text>
</g>
<!-- Node14&#45;&gt;Node5 -->
<g id="edge13" class="edge">
<title>Node14&#45;&gt;Node5</title>
<path fill="none" stroke="#404040" d="M308.62,-482.26C309.69,-461.21 314.2,-437.97 326.5,-420 348.51,-387.83 385.81,-366.25 419.77,-352.31"/>
<polygon fill="none" stroke="#404040" points="419.96,-352.24 424.09,-346.33 431.14,-347.87 427,-353.78 419.96,-352.24"/>
<text text-anchor="middle" x="351.5" y="-423" font-family="Helvetica,sans-Serif" font-size="10.00"> #m_Scene</text>
</g>
<!-- Node15 -->
<g id="node15" class="node">
<title>Node15</title>
<g id="a_node15"><a xlink:title=" ">
<polygon fill="white" stroke="#bfbfbf" points="371,-510 371,-567 438,-567 438,-510 371,-510"/>
<text text-anchor="middle" x="404.5" y="-555" font-family="Helvetica,sans-Serif" font-size="10.00">Rectangle&lt;</text>
<polyline fill="none" stroke="#bfbfbf" points="371,-548 438,-548 "/>
<text text-anchor="middle" x="404.5" y="-536" font-family="Helvetica,sans-Serif" font-size="10.00"> </text>
<polyline fill="none" stroke="#bfbfbf" points="371,-529 438,-529 "/>
<text text-anchor="middle" x="404.5" y="-517" font-family="Helvetica,sans-Serif" font-size="10.00"> </text>
</a>
</g>
</g>
<!-- Node15&#45;&gt;Node5 -->
<g id="edge16" class="edge">
<title>Node15&#45;&gt;Node5</title>
<path fill="none" stroke="#404040" d="M390.38,-509.63C379.97,-484.98 369.8,-448.59 383.5,-420 392.12,-402.02 406.27,-386.5 421.66,-373.65"/>
<polygon fill="none" stroke="#404040" points="421.94,-373.43 424.17,-366.57 431.36,-366 429.13,-372.85 421.94,-373.43"/>
<text text-anchor="middle" x="426" y="-423" font-family="Helvetica,sans-Serif" font-size="10.00"> #m_LayoutBounds</text>
</g>
<!-- Node16 -->
<g id="node16" class="node">
<title>Node16</title>
<g id="a_node16"><a xlink:title=" ">
<polygon fill="white" stroke="#bfbfbf" points="1306,-719.5 1306,-776.5 1341,-776.5 1341,-719.5 1306,-719.5"/>
<text text-anchor="middle" x="1323.5" y="-764.5" font-family="Helvetica,sans-Serif" font-size="10.00">list&lt;</text>
<polyline fill="none" stroke="#bfbfbf" points="1306,-757.5 1341,-757.5 "/>
<text text-anchor="middle" x="1323.5" y="-745.5" font-family="Helvetica,sans-Serif" font-size="10.00"> </text>
<polyline fill="none" stroke="#bfbfbf" points="1306,-738.5 1341,-738.5 "/>
<text text-anchor="middle" x="1323.5" y="-726.5" font-family="Helvetica,sans-Serif" font-size="10.00"> </text>
</a>
</g>
</g>
<!-- Node16&#45;&gt;Node4 -->
<g id="edge17" class="edge">
<title>Node16&#45;&gt;Node4</title>
<path fill="none" stroke="#404040" d="M1316.26,-719.45C1312.07,-707.91 1305.75,-695.1 1296.5,-686 1224.34,-615 1112.51,-576.24 1035.63,-556.73"/>
<polygon fill="none" stroke="#404040" points="1035.25,-556.63 1028.46,-559.08 1023.6,-553.76 1030.38,-551.31 1035.25,-556.63"/>
<text text-anchor="middle" x="1303.5" y="-654.5" font-family="Helvetica,sans-Serif" font-size="10.00"> #m_Children</text>
</g>
<!-- Node17 -->
<g id="node17" class="node">
<title>Node17</title>
<g id="a_node17"><a xlink:title=" ">
<polygon fill="white" stroke="#bfbfbf" points="750.5,-719.5 750.5,-776.5 806.5,-776.5 806.5,-719.5 750.5,-719.5"/>
<text text-anchor="middle" x="778.5" y="-764.5" font-family="Helvetica,sans-Serif" font-size="10.00">Texture *</text>
<polyline fill="none" stroke="#bfbfbf" points="750.5,-757.5 806.5,-757.5 "/>
<text text-anchor="middle" x="778.5" y="-745.5" font-family="Helvetica,sans-Serif" font-size="10.00"> </text>
<polyline fill="none" stroke="#bfbfbf" points="750.5,-738.5 806.5,-738.5 "/>
<text text-anchor="middle" x="778.5" y="-726.5" font-family="Helvetica,sans-Serif" font-size="10.00"> </text>
</a>
</g>
</g>
<!-- Node17&#45;&gt;Node4 -->
<g id="edge18" class="edge">
<title>Node17&#45;&gt;Node4</title>
<path fill="none" stroke="#404040" d="M783.59,-719.28C788.55,-697.78 797.72,-668.02 813.5,-646 828.13,-625.59 847.76,-607.18 867.58,-591.63"/>
<polygon fill="none" stroke="#404040" points="867.75,-591.49 870.1,-584.68 877.3,-584.23 874.95,-591.04 867.75,-591.49"/>
<text text-anchor="middle" x="845.5" y="-654.5" font-family="Helvetica,sans-Serif" font-size="10.00"> #m_Snapshot</text>
</g>
<!-- Node18 -->
<g id="node18" class="node">
<title>Node18</title>
<g id="a_node18"><a xlink:href="class_sgl_1_1_background.html" target="_top" xlink:title=" ">
<polygon fill="white" stroke="black" points="825,-686.5 825,-809.5 914,-809.5 914,-686.5 825,-686.5"/>
<text text-anchor="middle" x="869.5" y="-797.5" font-family="Helvetica,sans-Serif" font-size="10.00">Sgl::Background</text>
<polyline fill="none" stroke="black" points="825,-790.5 914,-790.5 "/>
<text text-anchor="middle" x="869.5" y="-778.5" font-family="Helvetica,sans-Serif" font-size="10.00"> </text>
<polyline fill="none" stroke="black" points="825,-771.5 914,-771.5 "/>
<text text-anchor="start" x="833" y="-759.5" font-family="Helvetica,sans-Serif" font-size="10.00">+ Background()</text>
<text text-anchor="start" x="833" y="-748.5" font-family="Helvetica,sans-Serif" font-size="10.00">+ Background()</text>
<text text-anchor="start" x="833" y="-737.5" font-family="Helvetica,sans-Serif" font-size="10.00">+ Background()</text>
<text text-anchor="start" x="833" y="-726.5" font-family="Helvetica,sans-Serif" font-size="10.00">+ Background()</text>
<text text-anchor="start" x="833" y="-715.5" font-family="Helvetica,sans-Serif" font-size="10.00">+ addFill()</text>
<text text-anchor="start" x="833" y="-704.5" font-family="Helvetica,sans-Serif" font-size="10.00">and 5 more...</text>
<text text-anchor="start" x="833" y="-693.5" font-family="Helvetica,sans-Serif" font-size="10.00">+ fillArea()</text>
</a>
</g>
</g>
<!-- Node18&#45;&gt;Node4 -->
<g id="edge20" class="edge">
<title>Node18&#45;&gt;Node4</title>
<path fill="none" stroke="#404040" d="M876.7,-686.24C879.29,-672.75 882.79,-658.69 887.5,-646 888.39,-643.6 889.33,-641.19 890.32,-638.79"/>
<polygon fill="none" stroke="#404040" points="890.45,-638.51 889.2,-631.41 895.27,-627.53 896.52,-634.63 890.45,-638.51"/>
<text text-anchor="middle" x="924.5" y="-654.5" font-family="Helvetica,sans-Serif" font-size="10.00"> #m_Background</text>
</g>
<!-- Node19 -->
<g id="node19" class="node">
<title>Node19</title>
<g id="a_node19"><a xlink:href="class_sgl_1_1_border.html" target="_top" xlink:title=" ">
<polygon fill="white" stroke="black" points="932.5,-692 932.5,-804 1022.5,-804 1022.5,-692 932.5,-692"/>
<text text-anchor="middle" x="977.5" y="-792" font-family="Helvetica,sans-Serif" font-size="10.00">Sgl::Border</text>
<polyline fill="none" stroke="black" points="932.5,-785 1022.5,-785 "/>
<text text-anchor="middle" x="977.5" y="-773" font-family="Helvetica,sans-Serif" font-size="10.00"> </text>
<polyline fill="none" stroke="black" points="932.5,-766 1022.5,-766 "/>
<text text-anchor="start" x="940.5" y="-754" font-family="Helvetica,sans-Serif" font-size="10.00">+ Border()</text>
<text text-anchor="start" x="940.5" y="-743" font-family="Helvetica,sans-Serif" font-size="10.00">+ Border()</text>
<text text-anchor="start" x="940.5" y="-732" font-family="Helvetica,sans-Serif" font-size="10.00">+ Border()</text>
<text text-anchor="start" x="940.5" y="-721" font-family="Helvetica,sans-Serif" font-size="10.00">+ getThickness()</text>
<text text-anchor="start" x="940.5" y="-710" font-family="Helvetica,sans-Serif" font-size="10.00">+ getColor()</text>
<text text-anchor="start" x="940.5" y="-699" font-family="Helvetica,sans-Serif" font-size="10.00">+ encloseArea()</text>
</a>
</g>
</g>
<!-- Node19&#45;&gt;Node4 -->
<g id="edge21" class="edge">
<title>Node19&#45;&gt;Node4</title>
<path fill="none" stroke="#404040" d="M970.34,-691.94C968.24,-675.86 965.89,-657.77 963.55,-639.82"/>
<polygon fill="none" stroke="#404040" points="963.53,-639.65 958.79,-634.21 961.98,-627.75 966.72,-633.18 963.53,-639.65"/>
<text text-anchor="middle" x="993" y="-654.5" font-family="Helvetica,sans-Serif" font-size="10.00"> #m_Border</text>
</g>
<!-- Node20&#45;&gt;Node4 -->
<g id="edge22" class="edge">
<title>Node20&#45;&gt;Node4</title>
<path fill="none" stroke="#404040" d="M1146.91,-700.59C1142.17,-695.55 1137.31,-690.59 1132.5,-686 1101.65,-656.56 1065.45,-626.6 1033.49,-601.5"/>
<polygon fill="none" stroke="#404040" points="1033.18,-601.26 1025.99,-600.72 1023.72,-593.88 1030.91,-594.42 1033.18,-601.26"/>
<text text-anchor="middle" x="1138.5" y="-654.5" font-family="Helvetica,sans-Serif" font-size="10.00"> #m_Padding</text>
</g>
<!-- Node20&#45;&gt;Node20 -->
<g id="edge23" class="edge">
<title>Node20&#45;&gt;Node20</title>
<path fill="none" stroke="#404040" d="M1226.01,-764.7C1236.26,-763.67 1244,-758.11 1244,-748 1244,-742.31 1241.55,-738.07 1237.58,-735.25"/>
<polygon fill="none" stroke="#404040" points="1237.36,-735.18 1230.39,-737.02 1226.01,-731.3 1232.98,-729.45 1237.36,-735.18"/>
<text text-anchor="middle" x="1266" y="-745.5" font-family="Helvetica,sans-Serif" font-size="10.00"> +EMPTY</text>
</g>
<!-- Node21 -->
<g id="node21" class="node">
<title>Node21</title>
<g id="a_node21"><a xlink:href="class_sgl_1_1_skinnable.html" target="_top" xlink:title=" ">
<polygon fill="white" stroke="black" points="1333.5,-504.5 1333.5,-572.5 1413.5,-572.5 1413.5,-504.5 1333.5,-504.5"/>
<text text-anchor="middle" x="1373.5" y="-560.5" font-family="Helvetica,sans-Serif" font-size="10.00">Sgl::Skinnable</text>
<polyline fill="none" stroke="black" points="1333.5,-553.5 1413.5,-553.5 "/>
<text text-anchor="middle" x="1373.5" y="-541.5" font-family="Helvetica,sans-Serif" font-size="10.00"> </text>
<polyline fill="none" stroke="black" points="1333.5,-534.5 1413.5,-534.5 "/>
<text text-anchor="start" x="1341.5" y="-522.5" font-family="Helvetica,sans-Serif" font-size="10.00">+ getSkin()</text>
<text text-anchor="start" x="1341.5" y="-511.5" font-family="Helvetica,sans-Serif" font-size="10.00">+ setSkin()</text>
</a>
</g>
</g>
<!-- Node21&#45;&gt;Node3 -->
<g id="edge26" class="edge">
<title>Node21&#45;&gt;Node3</title>
<path fill="none" stroke="midnightblue" d="M1373.5,-493.97C1373.5,-467.2 1373.5,-432.27 1373.5,-401.52"/>
<polygon fill="none" stroke="midnightblue" points="1370,-494.16 1373.5,-504.16 1377,-494.16 1370,-494.16"/>
</g>
<!-- Node22 -->
<g id="node22" class="node">
<title>Node22</title>
<g id="a_node22"><a xlink:href="class_sgl_1_1_skin.html" target="_top" xlink:title=" ">
<polygon fill="white" stroke="black" points="1383.5,-692 1383.5,-804 1491.5,-804 1491.5,-692 1383.5,-692"/>
<text text-anchor="middle" x="1437.5" y="-792" font-family="Helvetica,sans-Serif" font-size="10.00">Sgl::Skin</text>
<polyline fill="none" stroke="black" points="1383.5,-785 1491.5,-785 "/>
<text text-anchor="middle" x="1437.5" y="-773" font-family="Helvetica,sans-Serif" font-size="10.00"> </text>
<polyline fill="none" stroke="black" points="1383.5,-766 1491.5,-766 "/>
<text text-anchor="start" x="1391.5" y="-754" font-family="Helvetica,sans-Serif" font-size="10.00">+ ~Skin()</text>
<text text-anchor="start" x="1391.5" y="-743" font-family="Helvetica,sans-Serif" font-size="10.00">+ dispose()</text>
<text text-anchor="start" x="1391.5" y="-732" font-family="Helvetica,sans-Serif" font-size="10.00">+ prerenderControl()</text>
<text text-anchor="start" x="1391.5" y="-721" font-family="Helvetica,sans-Serif" font-size="10.00">+ getHitComponent()</text>
<text text-anchor="start" x="1391.5" y="-710" font-family="Helvetica,sans-Serif" font-size="10.00">+ getControl()</text>
<text text-anchor="start" x="1391.5" y="-699" font-family="Helvetica,sans-Serif" font-size="10.00">and 8 more...</text>
</a>
</g>
</g>
<!-- Node22&#45;&gt;Node3 -->
<g id="edge28" class="edge">
<title>Node22&#45;&gt;Node3</title>
<path fill="none" stroke="#404040" d="M1440.51,-691.82C1442.48,-631.38 1441.78,-532 1422.5,-449 1419.74,-437.13 1415.93,-424.91 1411.65,-413.03"/>
<polygon fill="none" stroke="#404040" points="1411.64,-413 1405.78,-408.8 1407.41,-401.77 1413.27,-405.98 1411.64,-413"/>
<text text-anchor="middle" x="1478" y="-536" font-family="Helvetica,sans-Serif" font-size="10.00"> #m_DefaultSkin</text>
</g>
<!-- Node22&#45;&gt;Node21 -->
<g id="edge27" class="edge">
<title>Node22&#45;&gt;Node21</title>
<path fill="none" stroke="#404040" d="M1403.48,-691.6C1399.68,-683.86 1396.21,-675.87 1393.5,-668 1384.3,-641.24 1379.31,-609.89 1376.62,-584.85"/>
<polygon fill="none" stroke="#404040" points="1376.6,-584.69 1372.04,-579.11 1375.44,-572.75 1380,-578.33 1376.6,-584.69"/>
<text text-anchor="middle" x="1414.5" y="-654.5" font-family="Helvetica,sans-Serif" font-size="10.00"> #m_Skin</text>
</g>
</g>
</svg>
        <g id="navigator" transform="translate(0 0)" fill="#404254">
                <rect fill="#f2f5e9" fill-opacity="0.5" stroke="#606060" stroke-width=".5" x="0" y="0" width="60" height="60"/>
                <use id="zoomplus" xlink:href="#zoomPlus" x="17" y="9" onmousedown="handleZoom(evt,'in')"/>
                <use id="zoomminus" xlink:href="#zoomMin" x="42" y="9" onmousedown="handleZoom(evt,'out')"/>
                <use id="reset" xlink:href="#resetDef" x="30" y="36" onmousedown="handleReset()"/>
                <g id="arrowUp" xlink:href="#dirArrow" transform="translate(30 24)" onmousedown="handlePan(0,-1)">
                  <use xlink:href="#rim" fill="#404040">
                        <set attributeName="fill" to="#808080" begin="arrowUp.mouseover" end="arrowUp.mouseout"/>
                  </use>
                  <path fill="none" stroke="white" stroke-width="1.5" d="M0,-3.0v7 M-2.5,-0.5L0,-3.0L2.5,-0.5"/>
                </g>
                <g id="arrowRight" xlink:href="#dirArrow" transform="rotate(90) translate(36 -43)" onmousedown="handlePan(1,0)">
                  <use xlink:href="#rim" fill="#404040">
                        <set attributeName="fill" to="#808080" begin="arrowRight.mouseover" end="arrowRight.mouseout"/>
                  </use>
                  <path fill="none" stroke="white" stroke-width="1.5" d="M0,-3.0v7 M-2.5,-0.5L0,-3.0L2.5,-0.5"/>
                </g>
                <g id="arrowDown" xlink:href="#dirArrow" transform="rotate(180) translate(-30 -48)" onmousedown="handlePan(0,1)">
                  <use xlink:href="#rim" fill="#404040">
                        <set attributeName="fill" to="#808080" begin="arrowDown.mouseover" end="arrowDown.mouseout"/>
                  </use>
                  <path fill="none" stroke="white" stroke-width="1.5" d="M0,-3.0v7 M-2.5,-0.5L0,-3.0L2.5,-0.5"/>
                </g>
                <g id="arrowLeft" xlink:href="#dirArrow" transform="rotate(270) translate(-36 17)" onmousedown="handlePan(-1,0)">
                  <use xlink:href="#rim" fill="#404040">
                        <set attributeName="fill" to="#808080" begin="arrowLeft.mouseover" end="arrowLeft.mouseout"/>
                  </use>
                  <path fill="none" stroke="white" stroke-width="1.5" d="M0,-3.0v7 M-2.5,-0.5L0,-3.0L2.5,-0.5"/>
                </g>
        </g>
        <svg viewBox="0 0 15 15" width="100%" height="30px" preserveAspectRatio="xMaxYMin meet">
         <g id="arrow_out" transform="scale(0.3 0.3)">
          <a xlink:href="class_sgl_1_1_menu_item__coll__graph_org.svg" target="_base">
           <rect id="button" ry="5" rx="5" y="6" x="6" height="38" width="38"
                fill="#f2f5e9" fill-opacity="0.5" stroke="#606060" stroke-width="1.0"/>
           <path id="arrow"
             d="M 11.500037,31.436501 C 11.940474,20.09759 22.043105,11.32322 32.158766,21.979434 L 37.068811,17.246167 C 37.068811,17.246167 37.088388,32 37.088388,32 L 22.160133,31.978069 C 22.160133,31.978069 26.997745,27.140456 26.997745,27.140456 C 18.528582,18.264221 13.291696,25.230495 11.500037,31.436501 z"
             style="fill:#404040;"/>
          </a>
         </g>
        </svg>
</svg>
