<?xml version="1.0" encoding="UTF-8" standalone="no"?>
<!DOCTYPE svg PUBLIC "-//W3C//DTD SVG 1.1//EN"
 "http://www.w3.org/Graphics/SVG/1.1/DTD/svg11.dtd">
<!-- Generated by graphviz version 2.50.0 (20211204.2007)
 -->
<!-- Title: Sgl::Component Pages: 1 -->
<!--zoomable 711 -->
<svg id="main" version="1.1" xmlns="http://www.w3.org/2000/svg" xmlns:xlink="http://www.w3.org/1999/xlink" xml:space="preserve" onload="init(evt)">
<style type="text/css"><![CDATA[
.edge:hover path { stroke: red; }
.edge:hover polygon { stroke: red; fill: red; }
]]></style>
<script type="text/javascript"><![CDATA[
var edges = document.getElementsByTagName('g');
if (edges && edges.length) {
  for (var i=0;i<edges.length;i++) {
    if (edges[i].id.substr(0,4)=='edge') {
      edges[i].setAttribute('class','edge');
    }
  }
}
]]></script>
        <defs>
                <circle id="rim" cx="0" cy="0" r="7"/>
                <circle id="rim2" cx="0" cy="0" r="3.5"/>
                <g id="zoomPlus">
                        <use xlink:href="#rim" fill="#404040">
                                <set attributeName="fill" to="#808080" begin="zoomplus.mouseover" end="zoomplus.mouseout"/>
                        </use>
                        <path d="M-4,0h8M0,-4v8" fill="none" stroke="white" stroke-width="1.5" pointer-events="none"/>
                </g>
                <g id="zoomMin">
                        <use xlink:href="#rim" fill="#404040">
                                <set attributeName="fill" to="#808080" begin="zoomminus.mouseover" end="zoomminus.mouseout"/>
                        </use>
                        <path d="M-4,0h8" fill="none" stroke="white" stroke-width="1.5" pointer-events="none"/>
                </g>
                <g id="dirArrow">
                        <path fill="none" stroke="white" stroke-width="1.5" d="M0,-3.0v7 M-2.5,-0.5L0,-3.0L2.5,-0.5"/>
                </g>
               <g id="resetDef">
                       <use xlink:href="#rim2" fill="#404040">
                               <set attributeName="fill" to="#808080" begin="reset.mouseover" end="reset.mouseout"/>
                       </use>
               </g>
        </defs>

<script type="text/javascript">
var viewWidth = 877;
var viewHeight = 711;
var sectionId = 'dynsection-1';
</script>
<script xlink:href="svgpan.js"/>
<svg id="graph" class="graph">
<g id="viewport">
<title>Sgl::Component</title>
<polygon fill="white" stroke="transparent" points="-4,4 -4,-707 873.14,-707 873.14,4 -4,4"/>
<!-- Node1 -->
<g id="node1" class="node">
<title>Node1</title>
<g id="a_node1"><a xlink:title=" ">
<polygon fill="#bfbfbf" stroke="black" points="397.14,-226.5 397.14,-371.5 525.14,-371.5 525.14,-226.5 397.14,-226.5"/>
<text text-anchor="middle" x="461.14" y="-359.5" font-family="Helvetica,sans-Serif" font-size="10.00">Sgl::Component</text>
<polyline fill="none" stroke="black" points="397.14,-352.5 525.14,-352.5 "/>
<text text-anchor="middle" x="461.14" y="-340.5" font-family="Helvetica,sans-Serif" font-size="10.00"> </text>
<polyline fill="none" stroke="black" points="397.14,-333.5 525.14,-333.5 "/>
<text text-anchor="start" x="405.14" y="-321.5" font-family="Helvetica,sans-Serif" font-size="10.00">+ Component()</text>
<text text-anchor="start" x="405.14" y="-310.5" font-family="Helvetica,sans-Serif" font-size="10.00">+ ~Component()</text>
<text text-anchor="start" x="405.14" y="-299.5" font-family="Helvetica,sans-Serif" font-size="10.00">+ getHitComponent()</text>
<text text-anchor="start" x="405.14" y="-288.5" font-family="Helvetica,sans-Serif" font-size="10.00">+ render()</text>
<text text-anchor="start" x="405.14" y="-277.5" font-family="Helvetica,sans-Serif" font-size="10.00">+ layout()</text>
<text text-anchor="start" x="405.14" y="-266.5" font-family="Helvetica,sans-Serif" font-size="10.00">and 37 more...</text>
<text text-anchor="start" x="405.14" y="-255.5" font-family="Helvetica,sans-Serif" font-size="10.00"># updateShadow()</text>
<text text-anchor="start" x="405.14" y="-244.5" font-family="Helvetica,sans-Serif" font-size="10.00"># renderShadow()</text>
<text text-anchor="start" x="405.14" y="-233.5" font-family="Helvetica,sans-Serif" font-size="10.00"># setSceneInSceneTree()</text>
</a>
</g>
</g>
<!-- Node11 -->
<g id="node11" class="node">
<title>Node11</title>
<g id="a_node11"><a xlink:href="class_sgl_1_1_parent.html" target="_top" xlink:title=" ">
<polygon fill="white" stroke="black" points="438.14,-0.5 438.14,-178.5 584.14,-178.5 584.14,-0.5 438.14,-0.5"/>
<text text-anchor="middle" x="511.14" y="-166.5" font-family="Helvetica,sans-Serif" font-size="10.00">Sgl::Parent</text>
<polyline fill="none" stroke="black" points="438.14,-159.5 584.14,-159.5 "/>
<text text-anchor="middle" x="511.14" y="-147.5" font-family="Helvetica,sans-Serif" font-size="10.00"> </text>
<polyline fill="none" stroke="black" points="438.14,-140.5 584.14,-140.5 "/>
<text text-anchor="start" x="446.14" y="-128.5" font-family="Helvetica,sans-Serif" font-size="10.00">+ Parent()</text>
<text text-anchor="start" x="446.14" y="-117.5" font-family="Helvetica,sans-Serif" font-size="10.00">+ ~Parent()</text>
<text text-anchor="start" x="446.14" y="-106.5" font-family="Helvetica,sans-Serif" font-size="10.00">+ getHitComponent()</text>
<text text-anchor="start" x="446.14" y="-95.5" font-family="Helvetica,sans-Serif" font-size="10.00">+ render()</text>
<text text-anchor="start" x="446.14" y="-84.5" font-family="Helvetica,sans-Serif" font-size="10.00">+ layout()</text>
<text text-anchor="start" x="446.14" y="-73.5" font-family="Helvetica,sans-Serif" font-size="10.00">and 38 more...</text>
<text text-anchor="start" x="446.14" y="-62.5" font-family="Helvetica,sans-Serif" font-size="10.00"># setSceneInSceneTree()</text>
<text text-anchor="start" x="446.14" y="-51.5" font-family="Helvetica,sans-Serif" font-size="10.00"># layoutChildren()</text>
<text text-anchor="start" x="446.14" y="-40.5" font-family="Helvetica,sans-Serif" font-size="10.00"># prerenderSelf()</text>
<text text-anchor="start" x="446.14" y="-29.5" font-family="Helvetica,sans-Serif" font-size="10.00"># updateSnapshotSize()</text>
<text text-anchor="start" x="446.14" y="-18.5" font-family="Helvetica,sans-Serif" font-size="10.00"># computeCustomPrefWidth()</text>
<text text-anchor="start" x="446.14" y="-7.5" font-family="Helvetica,sans-Serif" font-size="10.00">and 5 more...</text>
</a>
</g>
</g>
<!-- Node1&#45;&gt;Node11 -->
<g id="edge12" class="edge">
<title>Node1&#45;&gt;Node11</title>
<path fill="none" stroke="midnightblue" d="M494.79,-216.56C495.63,-213.69 496.42,-210.83 497.14,-208 499.55,-198.54 501.55,-188.55 503.2,-178.55"/>
<polygon fill="none" stroke="midnightblue" points="491.37,-215.75 491.73,-226.34 498.05,-217.85 491.37,-215.75"/>
</g>
<!-- Node2 -->
<g id="node2" class="node">
<title>Node2</title>
<g id="a_node2"><a xlink:title=" ">
<polygon fill="white" stroke="#bfbfbf" points="686.14,-645.5 686.14,-702.5 778.14,-702.5 778.14,-645.5 686.14,-645.5"/>
<text text-anchor="middle" x="732.14" y="-690.5" font-family="Helvetica,sans-Serif" font-size="10.00">Sml::EventTarget</text>
<polyline fill="none" stroke="#bfbfbf" points="686.14,-683.5 778.14,-683.5 "/>
<text text-anchor="middle" x="732.14" y="-671.5" font-family="Helvetica,sans-Serif" font-size="10.00"> </text>
<polyline fill="none" stroke="#bfbfbf" points="686.14,-664.5 778.14,-664.5 "/>
<text text-anchor="middle" x="732.14" y="-652.5" font-family="Helvetica,sans-Serif" font-size="10.00"> </text>
</a>
</g>
</g>
<!-- Node2&#45;&gt;Node1 -->
<g id="edge1" class="edge">
<title>Node2&#45;&gt;Node1</title>
<path fill="none" stroke="midnightblue" d="M747.26,-635.66C768.95,-575.29 799.81,-456.3 737.14,-390 706.03,-357.09 575.24,-391.02 534.14,-372 531.23,-370.65 528.37,-369.14 525.57,-367.49"/>
<polygon fill="none" stroke="midnightblue" points="743.92,-634.59 743.74,-645.18 750.49,-637.02 743.92,-634.59"/>
</g>
<!-- Node10 -->
<g id="node10" class="node">
<title>Node10</title>
<g id="a_node10"><a xlink:href="class_sgl_1_1_scene.html" target="_top" xlink:title=" ">
<polygon fill="white" stroke="black" points="650.14,-463.5 650.14,-575.5 730.14,-575.5 730.14,-463.5 650.14,-463.5"/>
<text text-anchor="middle" x="690.14" y="-563.5" font-family="Helvetica,sans-Serif" font-size="10.00">Sgl::Scene</text>
<polyline fill="none" stroke="black" points="650.14,-556.5 730.14,-556.5 "/>
<text text-anchor="middle" x="690.14" y="-544.5" font-family="Helvetica,sans-Serif" font-size="10.00"> </text>
<polyline fill="none" stroke="black" points="650.14,-537.5 730.14,-537.5 "/>
<text text-anchor="start" x="658.14" y="-525.5" font-family="Helvetica,sans-Serif" font-size="10.00">+ Scene()</text>
<text text-anchor="start" x="658.14" y="-514.5" font-family="Helvetica,sans-Serif" font-size="10.00">+ Scene()</text>
<text text-anchor="start" x="658.14" y="-503.5" font-family="Helvetica,sans-Serif" font-size="10.00">+ ~Scene()</text>
<text text-anchor="start" x="658.14" y="-492.5" font-family="Helvetica,sans-Serif" font-size="10.00">+ update()</text>
<text text-anchor="start" x="658.14" y="-481.5" font-family="Helvetica,sans-Serif" font-size="10.00">+ render()</text>
<text text-anchor="start" x="658.14" y="-470.5" font-family="Helvetica,sans-Serif" font-size="10.00">and 17 more...</text>
</a>
</g>
</g>
<!-- Node2&#45;&gt;Node10 -->
<g id="edge10" class="edge">
<title>Node2&#45;&gt;Node10</title>
<path fill="none" stroke="midnightblue" d="M721.83,-635.55C716.87,-617.54 710.82,-595.59 705.35,-575.71"/>
<polygon fill="none" stroke="midnightblue" points="718.5,-636.67 724.53,-645.38 725.25,-634.81 718.5,-636.67"/>
</g>
<!-- Node3 -->
<g id="node3" class="node">
<title>Node3</title>
<g id="a_node3"><a xlink:title=" ">
<polygon fill="white" stroke="#bfbfbf" points="63.14,-491 63.14,-548 109.14,-548 109.14,-491 63.14,-491"/>
<text text-anchor="middle" x="86.14" y="-536" font-family="Helvetica,sans-Serif" font-size="10.00">int32_t</text>
<polyline fill="none" stroke="#bfbfbf" points="63.14,-529 109.14,-529 "/>
<text text-anchor="middle" x="86.14" y="-517" font-family="Helvetica,sans-Serif" font-size="10.00"> </text>
<polyline fill="none" stroke="#bfbfbf" points="63.14,-510 109.14,-510 "/>
<text text-anchor="middle" x="86.14" y="-498" font-family="Helvetica,sans-Serif" font-size="10.00"> </text>
</a>
</g>
</g>
<!-- Node3&#45;&gt;Node1 -->
<g id="edge2" class="edge">
<title>Node3&#45;&gt;Node1</title>
<path fill="none" stroke="#404040" d="M96.3,-490.96C109.13,-460.51 134.33,-412.77 173.14,-390 253.94,-342.6 297.43,-409.81 383.14,-372 384.17,-371.54 385.2,-371.07 386.22,-370.58"/>
<polygon fill="none" stroke="#404040" points="386.46,-370.44 389.78,-364.04 396.97,-364.65 393.65,-371.05 386.46,-370.44"/>
<text text-anchor="middle" x="232.14" y="-415" font-family="Helvetica,sans-Serif" font-size="10.00"> +UNLIMITED_SIZE</text>
<text text-anchor="middle" x="232.14" y="-404" font-family="Helvetica,sans-Serif" font-size="10.00">+USE_COMPUTED_SIZE</text>
</g>
<!-- Node3&#45;&gt;Node11 -->
<g id="edge21" class="edge">
<title>Node3&#45;&gt;Node11</title>
<path fill="none" stroke="#404040" d="M67.25,-490.75C31.73,-434.76 -36.19,-306.77 25.14,-226 73.46,-162.37 299.7,-120.62 425.76,-101.88"/>
<polygon fill="none" stroke="#404040" points="426.13,-101.82 431.49,-96.99 438.01,-100.08 432.65,-104.91 426.13,-101.82"/>
<text text-anchor="middle" x="60.14" y="-324" font-family="Helvetica,sans-Serif" font-size="10.00"> #m_MaxHeight</text>
<text text-anchor="middle" x="60.14" y="-313" font-family="Helvetica,sans-Serif" font-size="10.00">#m_MaxWidth</text>
<text text-anchor="middle" x="60.14" y="-302" font-family="Helvetica,sans-Serif" font-size="10.00">#m_MinHeight</text>
<text text-anchor="middle" x="60.14" y="-291" font-family="Helvetica,sans-Serif" font-size="10.00">#m_MinWidth</text>
<text text-anchor="middle" x="60.14" y="-280" font-family="Helvetica,sans-Serif" font-size="10.00">#m_PrefHeight</text>
<text text-anchor="middle" x="60.14" y="-269" font-family="Helvetica,sans-Serif" font-size="10.00">#m_PrefWidth</text>
</g>
<!-- Node16 -->
<g id="node16" class="node">
<title>Node16</title>
<g id="a_node16"><a xlink:href="struct_sgl_1_1_insets.html" target="_top" xlink:title=" ">
<polygon fill="white" stroke="black" points="104.64,-243 104.64,-355 183.64,-355 183.64,-243 104.64,-243"/>
<text text-anchor="middle" x="144.14" y="-343" font-family="Helvetica,sans-Serif" font-size="10.00">Sgl::Insets</text>
<polyline fill="none" stroke="black" points="104.64,-336 183.64,-336 "/>
<text text-anchor="middle" x="144.14" y="-324" font-family="Helvetica,sans-Serif" font-size="10.00"> </text>
<polyline fill="none" stroke="black" points="104.64,-317 183.64,-317 "/>
<text text-anchor="start" x="112.64" y="-305" font-family="Helvetica,sans-Serif" font-size="10.00">+ Insets()</text>
<text text-anchor="start" x="112.64" y="-294" font-family="Helvetica,sans-Serif" font-size="10.00">+ Insets()</text>
<text text-anchor="start" x="112.64" y="-283" font-family="Helvetica,sans-Serif" font-size="10.00">+ Insets()</text>
<text text-anchor="start" x="112.64" y="-272" font-family="Helvetica,sans-Serif" font-size="10.00">+ Insets()</text>
<text text-anchor="start" x="112.64" y="-261" font-family="Helvetica,sans-Serif" font-size="10.00">+ operator+=()</text>
<text text-anchor="start" x="112.64" y="-250" font-family="Helvetica,sans-Serif" font-size="10.00">+ operator&#45;=()</text>
</a>
</g>
</g>
<!-- Node3&#45;&gt;Node16 -->
<g id="edge20" class="edge">
<title>Node3&#45;&gt;Node16</title>
<path fill="none" stroke="#404040" d="M82.04,-490.79C79.12,-464.32 77.25,-423.6 87.14,-390 89.89,-380.67 93.91,-371.37 98.57,-362.48"/>
<polygon fill="none" stroke="#404040" points="98.65,-362.34 98.11,-355.15 104.53,-351.88 105.08,-359.07 98.65,-362.34"/>
<text text-anchor="middle" x="107.14" y="-426" font-family="Helvetica,sans-Serif" font-size="10.00"> +bottom</text>
<text text-anchor="middle" x="107.14" y="-415" font-family="Helvetica,sans-Serif" font-size="10.00">+left</text>
<text text-anchor="middle" x="107.14" y="-404" font-family="Helvetica,sans-Serif" font-size="10.00">+right</text>
<text text-anchor="middle" x="107.14" y="-393" font-family="Helvetica,sans-Serif" font-size="10.00">+top</text>
</g>
<!-- Node4 -->
<g id="node4" class="node">
<title>Node4</title>
<g id="a_node4"><a xlink:title=" ">
<polygon fill="white" stroke="#bfbfbf" points="786.64,-491 786.64,-548 827.64,-548 827.64,-491 786.64,-491"/>
<text text-anchor="middle" x="807.14" y="-536" font-family="Helvetica,sans-Serif" font-size="10.00">friend</text>
<polyline fill="none" stroke="#bfbfbf" points="786.64,-529 827.64,-529 "/>
<text text-anchor="middle" x="807.14" y="-517" font-family="Helvetica,sans-Serif" font-size="10.00"> </text>
<polyline fill="none" stroke="#bfbfbf" points="786.64,-510 827.64,-510 "/>
<text text-anchor="middle" x="807.14" y="-498" font-family="Helvetica,sans-Serif" font-size="10.00"> </text>
</a>
</g>
</g>
<!-- Node4&#45;&gt;Node1 -->
<g id="edge3" class="edge">
<title>Node4&#45;&gt;Node1</title>
<path fill="none" stroke="#404040" d="M808.17,-490.81C807.63,-460.93 801.65,-414.36 772.14,-390 733.72,-358.28 600.04,-389.66 536.84,-371.67"/>
<polygon fill="none" stroke="#404040" points="536.82,-371.66 529.81,-373.36 525.55,-367.54 532.55,-365.84 536.82,-371.66"/>
<text text-anchor="middle" x="816.64" y="-409.5" font-family="Helvetica,sans-Serif" font-size="10.00"> +Scene</text>
</g>
<!-- Node5 -->
<g id="node5" class="node">
<title>Node5</title>
<g id="a_node5"><a xlink:title=" ">
<polygon fill="white" stroke="#bfbfbf" points="239.64,-491 239.64,-548 274.64,-548 274.64,-491 239.64,-491"/>
<text text-anchor="middle" x="257.14" y="-536" font-family="Helvetica,sans-Serif" font-size="10.00">bool</text>
<polyline fill="none" stroke="#bfbfbf" points="239.64,-529 274.64,-529 "/>
<text text-anchor="middle" x="257.14" y="-517" font-family="Helvetica,sans-Serif" font-size="10.00"> </text>
<polyline fill="none" stroke="#bfbfbf" points="239.64,-510 274.64,-510 "/>
<text text-anchor="middle" x="257.14" y="-498" font-family="Helvetica,sans-Serif" font-size="10.00"> </text>
</a>
</g>
</g>
<!-- Node5&#45;&gt;Node1 -->
<g id="edge4" class="edge">
<title>Node5&#45;&gt;Node1</title>
<path fill="none" stroke="#404040" d="M266.7,-490.85C271.21,-478.72 276.96,-464.43 283.14,-452 284.94,-448.38 317.93,-392.45 321.14,-390 343.95,-372.6 358.15,-386.11 383.14,-372 384.3,-371.34 385.46,-370.67 386.62,-369.97"/>
<polygon fill="none" stroke="#404040" points="386.86,-369.81 389.68,-363.18 396.89,-363.24 394.07,-369.87 386.86,-369.81"/>
<text text-anchor="middle" x="351.14" y="-420.5" font-family="Helvetica,sans-Serif" font-size="10.00"> #m_Focused</text>
<text text-anchor="middle" x="351.14" y="-409.5" font-family="Helvetica,sans-Serif" font-size="10.00">#m_Hovered</text>
<text text-anchor="middle" x="351.14" y="-398.5" font-family="Helvetica,sans-Serif" font-size="10.00">#m_Visible</text>
</g>
<!-- Node5&#45;&gt;Node11 -->
<g id="edge15" class="edge">
<title>Node5&#45;&gt;Node11</title>
<path fill="none" stroke="#404040" d="M260.89,-490.73C263.08,-474.26 265.86,-452.95 268.14,-434 279.25,-341.66 241.39,-304.58 291.14,-226 322.47,-176.51 379.08,-142.25 427.03,-120.57"/>
<polygon fill="none" stroke="#404040" points="427.07,-120.55 430.96,-114.47 438.06,-115.73 434.17,-121.8 427.07,-120.55"/>
<text text-anchor="middle" x="339.64" y="-296.5" font-family="Helvetica,sans-Serif" font-size="10.00"> #m_NeedLayoutPass</text>
</g>
<!-- Node6 -->
<g id="node6" class="node">
<title>Node6</title>
<g id="a_node6"><a xlink:href="class_sgl_1_1_shadow.html" target="_top" xlink:title=" ">
<polygon fill="white" stroke="black" points="292.64,-458 292.64,-581 393.64,-581 393.64,-458 292.64,-458"/>
<text text-anchor="middle" x="343.14" y="-569" font-family="Helvetica,sans-Serif" font-size="10.00">Sgl::Shadow</text>
<polyline fill="none" stroke="black" points="292.64,-562 393.64,-562 "/>
<text text-anchor="middle" x="343.14" y="-550" font-family="Helvetica,sans-Serif" font-size="10.00"> </text>
<polyline fill="none" stroke="black" points="292.64,-543 393.64,-543 "/>
<text text-anchor="start" x="300.64" y="-531" font-family="Helvetica,sans-Serif" font-size="10.00">+ Shadow()</text>
<text text-anchor="start" x="300.64" y="-520" font-family="Helvetica,sans-Serif" font-size="10.00">+ ~Shadow()</text>
<text text-anchor="start" x="300.64" y="-509" font-family="Helvetica,sans-Serif" font-size="10.00">+ update()</text>
<text text-anchor="start" x="300.64" y="-498" font-family="Helvetica,sans-Serif" font-size="10.00">+ render()</text>
<text text-anchor="start" x="300.64" y="-487" font-family="Helvetica,sans-Serif" font-size="10.00">+ getTexture()</text>
<text text-anchor="start" x="300.64" y="-476" font-family="Helvetica,sans-Serif" font-size="10.00">+ getSpecification()</text>
<text text-anchor="start" x="300.64" y="-465" font-family="Helvetica,sans-Serif" font-size="10.00">+ setSpecification()</text>
</a>
</g>
</g>
<!-- Node6&#45;&gt;Node1 -->
<g id="edge5" class="edge">
<title>Node6&#45;&gt;Node1</title>
<path fill="none" stroke="#404040" d="M372.13,-457.85C382.78,-436.25 395.16,-411.86 407.14,-390 408.51,-387.51 409.91,-384.98 411.33,-382.44"/>
<polygon fill="none" stroke="#404040" points="411.38,-382.35 410.87,-375.16 417.31,-371.92 417.82,-379.12 411.38,-382.35"/>
<text text-anchor="middle" x="436.14" y="-409.5" font-family="Helvetica,sans-Serif" font-size="10.00"> #m_Shadow</text>
</g>
<!-- Node7 -->
<g id="node7" class="node">
<title>Node7</title>
<g id="a_node7"><a xlink:href="class_gui_event_dispatcher.html" target="_top" xlink:title=" ">
<polygon fill="white" stroke="black" points="411.64,-452.5 411.64,-586.5 546.64,-586.5 546.64,-452.5 411.64,-452.5"/>
<text text-anchor="middle" x="479.14" y="-574.5" font-family="Helvetica,sans-Serif" font-size="10.00">GuiEventDispatcher</text>
<polyline fill="none" stroke="black" points="411.64,-567.5 546.64,-567.5 "/>
<text text-anchor="middle" x="479.14" y="-555.5" font-family="Helvetica,sans-Serif" font-size="10.00"> </text>
<polyline fill="none" stroke="black" points="411.64,-548.5 546.64,-548.5 "/>
<text text-anchor="start" x="419.64" y="-536.5" font-family="Helvetica,sans-Serif" font-size="10.00">+ ~GuiEventDispatcher()</text>
<text text-anchor="start" x="419.64" y="-525.5" font-family="Helvetica,sans-Serif" font-size="10.00">+ attachFilter()</text>
<text text-anchor="start" x="419.64" y="-514.5" font-family="Helvetica,sans-Serif" font-size="10.00">+ detachFilter()</text>
<text text-anchor="start" x="419.64" y="-503.5" font-family="Helvetica,sans-Serif" font-size="10.00">+ attachHandler()</text>
<text text-anchor="start" x="419.64" y="-492.5" font-family="Helvetica,sans-Serif" font-size="10.00">+ detachHandler()</text>
<text text-anchor="start" x="419.64" y="-481.5" font-family="Helvetica,sans-Serif" font-size="10.00">+ dispatchEvent()</text>
<text text-anchor="start" x="419.64" y="-470.5" font-family="Helvetica,sans-Serif" font-size="10.00"># dispatchCapturingEvent()</text>
<text text-anchor="start" x="419.64" y="-459.5" font-family="Helvetica,sans-Serif" font-size="10.00"># dispatchBubblingEvent()</text>
</a>
</g>
</g>
<!-- Node7&#45;&gt;Node1 -->
<g id="edge6" class="edge">
<title>Node7&#45;&gt;Node1</title>
<path fill="none" stroke="#404040" d="M473.69,-452.35C471.91,-430.74 469.91,-406.44 468.04,-383.71"/>
<polygon fill="none" stroke="#404040" points="468.03,-383.59 463.55,-377.94 467.04,-371.63 471.52,-377.28 468.03,-383.59"/>
<text text-anchor="middle" x="507.14" y="-409.5" font-family="Helvetica,sans-Serif" font-size="10.00"> #m_Dispatcher</text>
</g>
<!-- Node8 -->
<g id="node8" class="node">
<title>Node8</title>
<g id="a_node8"><a xlink:title=" ">
<polygon fill="white" stroke="#bfbfbf" points="475.64,-645.5 475.64,-702.5 588.64,-702.5 588.64,-645.5 475.64,-645.5"/>
<text text-anchor="middle" x="532.14" y="-690.5" font-family="Helvetica,sans-Serif" font-size="10.00">Sml::EventDispatcher</text>
<polyline fill="none" stroke="#bfbfbf" points="475.64,-683.5 588.64,-683.5 "/>
<text text-anchor="middle" x="532.14" y="-671.5" font-family="Helvetica,sans-Serif" font-size="10.00"> </text>
<polyline fill="none" stroke="#bfbfbf" points="475.64,-664.5 588.64,-664.5 "/>
<text text-anchor="middle" x="532.14" y="-652.5" font-family="Helvetica,sans-Serif" font-size="10.00"> </text>
</a>
</g>
</g>
<!-- Node8&#45;&gt;Node7 -->
<g id="edge7" class="edge">
<title>Node8&#45;&gt;Node7</title>
<path fill="none" stroke="midnightblue" d="M526,-635.4C523.94,-625.4 521.33,-614.69 518.14,-605 516.17,-599.01 513.9,-592.89 511.46,-586.81"/>
<polygon fill="none" stroke="midnightblue" points="522.62,-636.34 527.96,-645.49 529.49,-635.01 522.62,-636.34"/>
</g>
<!-- Node9 -->
<g id="node9" class="node">
<title>Node9</title>
<g id="a_node9"><a xlink:title=" ">
<polygon fill="white" stroke="#bfbfbf" points="403.14,-645.5 403.14,-702.5 451.14,-702.5 451.14,-645.5 403.14,-645.5"/>
<text text-anchor="middle" x="427.14" y="-690.5" font-family="Helvetica,sans-Serif" font-size="10.00">Notifier</text>
<polyline fill="none" stroke="#bfbfbf" points="403.14,-683.5 451.14,-683.5 "/>
<text text-anchor="middle" x="427.14" y="-671.5" font-family="Helvetica,sans-Serif" font-size="10.00"> </text>
<polyline fill="none" stroke="#bfbfbf" points="403.14,-664.5 451.14,-664.5 "/>
<text text-anchor="middle" x="427.14" y="-652.5" font-family="Helvetica,sans-Serif" font-size="10.00"> </text>
</a>
</g>
</g>
<!-- Node9&#45;&gt;Node7 -->
<g id="edge8" class="edge">
<title>Node9&#45;&gt;Node7</title>
<path fill="none" stroke="#404040" d="M424.3,-645.39C423.83,-632.84 424.44,-617.94 428.14,-605 428.79,-602.71 429.53,-600.43 430.33,-598.15"/>
<polygon fill="none" stroke="#404040" points="430.4,-597.97 428.92,-590.92 434.86,-586.83 436.34,-593.89 430.4,-597.97"/>
<text text-anchor="middle" x="473.14" y="-619" font-family="Helvetica,sans-Serif" font-size="10.00"> #m_FiltersNotifier</text>
<text text-anchor="middle" x="473.14" y="-608" font-family="Helvetica,sans-Serif" font-size="10.00">#m_HandlersNotifier</text>
</g>
<!-- Node10&#45;&gt;Node1 -->
<g id="edge9" class="edge">
<title>Node10&#45;&gt;Node1</title>
<path fill="none" stroke="#404040" d="M689.89,-463.26C686.77,-437.41 678.43,-408.36 658.14,-390 619.51,-355.05 588.28,-391.44 536.26,-371.88"/>
<polygon fill="none" stroke="#404040" points="536.18,-371.84 529.08,-373.08 525.21,-367 532.31,-365.76 536.18,-371.84"/>
<text text-anchor="middle" x="708.14" y="-409.5" font-family="Helvetica,sans-Serif" font-size="10.00"> #m_Scene</text>
</g>
<!-- Node11&#45;&gt;Node1 -->
<g id="edge11" class="edge">
<title>Node11&#45;&gt;Node1</title>
<path fill="none" stroke="#404040" d="M452.59,-178.64C450.06,-184.7 447.87,-190.85 446.14,-197 444.57,-202.57 443.65,-208.37 443.23,-214.24"/>
<polygon fill="none" stroke="#404040" points="443.23,-214.34 447.14,-220.41 443.04,-226.34 439.14,-220.28 443.23,-214.34"/>
<text text-anchor="middle" x="471.64" y="-200" font-family="Helvetica,sans-Serif" font-size="10.00"> #m_Parent</text>
</g>
<!-- Node12 -->
<g id="node12" class="node">
<title>Node12</title>
<g id="a_node12"><a xlink:title=" ">
<polygon fill="white" stroke="#bfbfbf" points="543.64,-270.5 543.64,-327.5 578.64,-327.5 578.64,-270.5 543.64,-270.5"/>
<text text-anchor="middle" x="561.14" y="-315.5" font-family="Helvetica,sans-Serif" font-size="10.00">list&lt;</text>
<polyline fill="none" stroke="#bfbfbf" points="543.64,-308.5 578.64,-308.5 "/>
<text text-anchor="middle" x="561.14" y="-296.5" font-family="Helvetica,sans-Serif" font-size="10.00"> </text>
<polyline fill="none" stroke="#bfbfbf" points="543.64,-289.5 578.64,-289.5 "/>
<text text-anchor="middle" x="561.14" y="-277.5" font-family="Helvetica,sans-Serif" font-size="10.00"> </text>
</a>
</g>
</g>
<!-- Node12&#45;&gt;Node11 -->
<g id="edge13" class="edge">
<title>Node12&#45;&gt;Node11</title>
<path fill="none" stroke="#404040" d="M554.5,-270.45C549.53,-249.81 542.39,-220.2 535.35,-190.95"/>
<polygon fill="none" stroke="#404040" points="535.25,-190.57 529.96,-185.67 532.44,-178.9 537.74,-183.8 535.25,-190.57"/>
<text text-anchor="middle" x="568.14" y="-200" font-family="Helvetica,sans-Serif" font-size="10.00"> #m_Children</text>
</g>
<!-- Node13 -->
<g id="node13" class="node">
<title>Node13</title>
<g id="a_node13"><a xlink:title=" ">
<polygon fill="white" stroke="#bfbfbf" points="597.14,-270.5 597.14,-327.5 653.14,-327.5 653.14,-270.5 597.14,-270.5"/>
<text text-anchor="middle" x="625.14" y="-315.5" font-family="Helvetica,sans-Serif" font-size="10.00">Texture *</text>
<polyline fill="none" stroke="#bfbfbf" points="597.14,-308.5 653.14,-308.5 "/>
<text text-anchor="middle" x="625.14" y="-296.5" font-family="Helvetica,sans-Serif" font-size="10.00"> </text>
<polyline fill="none" stroke="#bfbfbf" points="597.14,-289.5 653.14,-289.5 "/>
<text text-anchor="middle" x="625.14" y="-277.5" font-family="Helvetica,sans-Serif" font-size="10.00"> </text>
</a>
</g>
</g>
<!-- Node13&#45;&gt;Node11 -->
<g id="edge14" class="edge">
<title>Node13&#45;&gt;Node11</title>
<path fill="none" stroke="#404040" d="M622.09,-270.22C618.97,-249.23 612.84,-220.17 601.14,-197 598.14,-191.06 594.75,-185.16 591.08,-179.37"/>
<polygon fill="none" stroke="#404040" points="590.87,-179.06 584.21,-176.29 584.2,-169.08 590.86,-171.85 590.87,-179.06"/>
<text text-anchor="middle" x="638.14" y="-200" font-family="Helvetica,sans-Serif" font-size="10.00"> #m_Snapshot</text>
</g>
<!-- Node14 -->
<g id="node14" class="node">
<title>Node14</title>
<g id="a_node14"><a xlink:href="class_sgl_1_1_background.html" target="_top" xlink:title=" ">
<polygon fill="white" stroke="black" points="671.64,-237.5 671.64,-360.5 760.64,-360.5 760.64,-237.5 671.64,-237.5"/>
<text text-anchor="middle" x="716.14" y="-348.5" font-family="Helvetica,sans-Serif" font-size="10.00">Sgl::Background</text>
<polyline fill="none" stroke="black" points="671.64,-341.5 760.64,-341.5 "/>
<text text-anchor="middle" x="716.14" y="-329.5" font-family="Helvetica,sans-Serif" font-size="10.00"> </text>
<polyline fill="none" stroke="black" points="671.64,-322.5 760.64,-322.5 "/>
<text text-anchor="start" x="679.64" y="-310.5" font-family="Helvetica,sans-Serif" font-size="10.00">+ Background()</text>
<text text-anchor="start" x="679.64" y="-299.5" font-family="Helvetica,sans-Serif" font-size="10.00">+ Background()</text>
<text text-anchor="start" x="679.64" y="-288.5" font-family="Helvetica,sans-Serif" font-size="10.00">+ Background()</text>
<text text-anchor="start" x="679.64" y="-277.5" font-family="Helvetica,sans-Serif" font-size="10.00">+ Background()</text>
<text text-anchor="start" x="679.64" y="-266.5" font-family="Helvetica,sans-Serif" font-size="10.00">+ addFill()</text>
<text text-anchor="start" x="679.64" y="-255.5" font-family="Helvetica,sans-Serif" font-size="10.00">and 5 more...</text>
<text text-anchor="start" x="679.64" y="-244.5" font-family="Helvetica,sans-Serif" font-size="10.00">+ fillArea()</text>
</a>
</g>
</g>
<!-- Node14&#45;&gt;Node11 -->
<g id="edge16" class="edge">
<title>Node14&#45;&gt;Node11</title>
<path fill="none" stroke="#404040" d="M697.76,-237.26C691.68,-223.11 683.91,-208.76 674.14,-197 652.6,-171.06 623.09,-149.16 595.1,-132.1"/>
<polygon fill="none" stroke="#404040" points="594.79,-131.92 587.59,-132.3 584.47,-125.8 591.67,-125.42 594.79,-131.92"/>
<text text-anchor="middle" x="718.14" y="-200" font-family="Helvetica,sans-Serif" font-size="10.00"> #m_Background</text>
</g>
<!-- Node15 -->
<g id="node15" class="node">
<title>Node15</title>
<g id="a_node15"><a xlink:href="class_sgl_1_1_border.html" target="_top" xlink:title=" ">
<polygon fill="white" stroke="black" points="779.14,-243 779.14,-355 869.14,-355 869.14,-243 779.14,-243"/>
<text text-anchor="middle" x="824.14" y="-343" font-family="Helvetica,sans-Serif" font-size="10.00">Sgl::Border</text>
<polyline fill="none" stroke="black" points="779.14,-336 869.14,-336 "/>
<text text-anchor="middle" x="824.14" y="-324" font-family="Helvetica,sans-Serif" font-size="10.00"> </text>
<polyline fill="none" stroke="black" points="779.14,-317 869.14,-317 "/>
<text text-anchor="start" x="787.14" y="-305" font-family="Helvetica,sans-Serif" font-size="10.00">+ Border()</text>
<text text-anchor="start" x="787.14" y="-294" font-family="Helvetica,sans-Serif" font-size="10.00">+ Border()</text>
<text text-anchor="start" x="787.14" y="-283" font-family="Helvetica,sans-Serif" font-size="10.00">+ Border()</text>
<text text-anchor="start" x="787.14" y="-272" font-family="Helvetica,sans-Serif" font-size="10.00">+ getThickness()</text>
<text text-anchor="start" x="787.14" y="-261" font-family="Helvetica,sans-Serif" font-size="10.00">+ getColor()</text>
<text text-anchor="start" x="787.14" y="-250" font-family="Helvetica,sans-Serif" font-size="10.00">+ encloseArea()</text>
</a>
</g>
</g>
<!-- Node15&#45;&gt;Node11 -->
<g id="edge17" class="edge">
<title>Node15&#45;&gt;Node11</title>
<path fill="none" stroke="#404040" d="M796.81,-242.8C786.71,-226.46 774.02,-209.59 759.14,-197 711.93,-157.05 647.49,-129.99 596.13,-113.14"/>
<polygon fill="none" stroke="#404040" points="595.81,-113.04 588.88,-115.03 584.38,-109.39 591.31,-107.41 595.81,-113.04"/>
<text text-anchor="middle" x="793.64" y="-200" font-family="Helvetica,sans-Serif" font-size="10.00"> #m_Border</text>
</g>
<!-- Node16&#45;&gt;Node11 -->
<g id="edge18" class="edge">
<title>Node16&#45;&gt;Node11</title>
<path fill="none" stroke="#404040" d="M171.05,-242.99C181.37,-226.37 194.49,-209.3 210.14,-197 273.33,-147.35 361.48,-119.78 426.06,-105.2"/>
<polygon fill="none" stroke="#404040" points="426.11,-105.19 431.12,-100 437.83,-102.63 432.82,-107.82 426.11,-105.19"/>
<text text-anchor="middle" x="239.14" y="-200" font-family="Helvetica,sans-Serif" font-size="10.00"> #m_Padding</text>
</g>
<!-- Node16&#45;&gt;Node16 -->
<g id="edge19" class="edge">
<title>Node16&#45;&gt;Node16</title>
<path fill="none" stroke="#404040" d="M183.65,-316.81C193.9,-315.72 201.64,-309.78 201.64,-299 201.64,-292.94 199.19,-288.4 195.22,-285.4"/>
<polygon fill="none" stroke="#404040" points="194.92,-285.29 187.91,-287 183.65,-281.19 190.65,-279.48 194.92,-285.29"/>
<text text-anchor="middle" x="223.64" y="-296.5" font-family="Helvetica,sans-Serif" font-size="10.00"> +EMPTY</text>
</g>
<!-- Node17 -->
<g id="node17" class="node">
<title>Node17</title>
<g id="a_node17"><a xlink:title=" ">
<polygon fill="white" stroke="#bfbfbf" points="564.64,-491 564.64,-548 631.64,-548 631.64,-491 564.64,-491"/>
<text text-anchor="middle" x="598.14" y="-536" font-family="Helvetica,sans-Serif" font-size="10.00">Rectangle&lt;</text>
<polyline fill="none" stroke="#bfbfbf" points="564.64,-529 631.64,-529 "/>
<text text-anchor="middle" x="598.14" y="-517" font-family="Helvetica,sans-Serif" font-size="10.00"> </text>
<polyline fill="none" stroke="#bfbfbf" points="564.64,-510 631.64,-510 "/>
<text text-anchor="middle" x="598.14" y="-498" font-family="Helvetica,sans-Serif" font-size="10.00"> </text>
</a>
</g>
</g>
<!-- Node17&#45;&gt;Node1 -->
<g id="edge22" class="edge">
<title>Node17&#45;&gt;Node1</title>
<path fill="none" stroke="#404040" d="M590.22,-490.75C581.77,-463.71 566.75,-422.1 546.14,-390 542.14,-383.77 537.68,-377.58 532.95,-371.55"/>
<polygon fill="none" stroke="#404040" points="532.91,-371.5 526.02,-369.37 525.33,-362.2 532.22,-364.32 532.91,-371.5"/>
<text text-anchor="middle" x="611.64" y="-409.5" font-family="Helvetica,sans-Serif" font-size="10.00"> #m_LayoutBounds</text>
</g>
</g>
</svg>
        <g id="navigator" transform="translate(0 0)" fill="#404254">
                <rect fill="#f2f5e9" fill-opacity="0.5" stroke="#606060" stroke-width=".5" x="0" y="0" width="60" height="60"/>
                <use id="zoomplus" xlink:href="#zoomPlus" x="17" y="9" onmousedown="handleZoom(evt,'in')"/>
                <use id="zoomminus" xlink:href="#zoomMin" x="42" y="9" onmousedown="handleZoom(evt,'out')"/>
                <use id="reset" xlink:href="#resetDef" x="30" y="36" onmousedown="handleReset()"/>
                <g id="arrowUp" xlink:href="#dirArrow" transform="translate(30 24)" onmousedown="handlePan(0,-1)">
                  <use xlink:href="#rim" fill="#404040">
                        <set attributeName="fill" to="#808080" begin="arrowUp.mouseover" end="arrowUp.mouseout"/>
                  </use>
                  <path fill="none" stroke="white" stroke-width="1.5" d="M0,-3.0v7 M-2.5,-0.5L0,-3.0L2.5,-0.5"/>
                </g>
                <g id="arrowRight" xlink:href="#dirArrow" transform="rotate(90) translate(36 -43)" onmousedown="handlePan(1,0)">
                  <use xlink:href="#rim" fill="#404040">
                        <set attributeName="fill" to="#808080" begin="arrowRight.mouseover" end="arrowRight.mouseout"/>
                  </use>
                  <path fill="none" stroke="white" stroke-width="1.5" d="M0,-3.0v7 M-2.5,-0.5L0,-3.0L2.5,-0.5"/>
                </g>
                <g id="arrowDown" xlink:href="#dirArrow" transform="rotate(180) translate(-30 -48)" onmousedown="handlePan(0,1)">
                  <use xlink:href="#rim" fill="#404040">
                        <set attributeName="fill" to="#808080" begin="arrowDown.mouseover" end="arrowDown.mouseout"/>
                  </use>
                  <path fill="none" stroke="white" stroke-width="1.5" d="M0,-3.0v7 M-2.5,-0.5L0,-3.0L2.5,-0.5"/>
                </g>
                <g id="arrowLeft" xlink:href="#dirArrow" transform="rotate(270) translate(-36 17)" onmousedown="handlePan(-1,0)">
                  <use xlink:href="#rim" fill="#404040">
                        <set attributeName="fill" to="#808080" begin="arrowLeft.mouseover" end="arrowLeft.mouseout"/>
                  </use>
                  <path fill="none" stroke="white" stroke-width="1.5" d="M0,-3.0v7 M-2.5,-0.5L0,-3.0L2.5,-0.5"/>
                </g>
        </g>
        <svg viewBox="0 0 15 15" width="100%" height="30px" preserveAspectRatio="xMaxYMin meet">
         <g id="arrow_out" transform="scale(0.3 0.3)">
          <a xlink:href="class_sgl_1_1_component__coll__graph_org.svg" target="_base">
           <rect id="button" ry="5" rx="5" y="6" x="6" height="38" width="38"
                fill="#f2f5e9" fill-opacity="0.5" stroke="#606060" stroke-width="1.0"/>
           <path id="arrow"
             d="M 11.500037,31.436501 C 11.940474,20.09759 22.043105,11.32322 32.158766,21.979434 L 37.068811,17.246167 C 37.068811,17.246167 37.088388,32 37.088388,32 L 22.160133,31.978069 C 22.160133,31.978069 26.997745,27.140456 26.997745,27.140456 C 18.528582,18.264221 13.291696,25.230495 11.500037,31.436501 z"
             style="fill:#404040;"/>
          </a>
         </g>
        </svg>
</svg>
