<?xml version="1.0" encoding="UTF-8" standalone="no"?>
<!DOCTYPE svg PUBLIC "-//W3C//DTD SVG 1.1//EN"
 "http://www.w3.org/Graphics/SVG/1.1/DTD/svg11.dtd">
<!-- Generated by graphviz version 2.50.0 (20211204.2007)
 -->
<!-- Title: Sgl::SliderWithLabel Pages: 1 -->
<svg width="1436pt" height="1084pt"
 viewBox="0.00 0.00 1436.00 1084.00" xmlns="http://www.w3.org/2000/svg" xmlns:xlink="http://www.w3.org/1999/xlink">
<g id="graph0" class="graph" transform="scale(1 1) rotate(0) translate(4 1080)">
<title>Sgl::SliderWithLabel</title>
<polygon fill="white" stroke="transparent" points="-4,4 -4,-1080 1432,-1080 1432,4 -4,4"/>
<!-- Node1 -->
<g id="node1" class="node">
<title>Node1</title>
<g id="a_node1"><a xlink:title=" ">
<polygon fill="#bfbfbf" stroke="black" points="18.5,-0.5 18.5,-90.5 123.5,-90.5 123.5,-0.5 18.5,-0.5"/>
<text text-anchor="middle" x="71" y="-78.5" font-family="Helvetica,sans-Serif" font-size="10.00">Sgl::SliderWithLabel</text>
<polyline fill="none" stroke="black" points="18.5,-71.5 123.5,-71.5 "/>
<text text-anchor="middle" x="71" y="-59.5" font-family="Helvetica,sans-Serif" font-size="10.00"> </text>
<polyline fill="none" stroke="black" points="18.5,-52.5 123.5,-52.5 "/>
<text text-anchor="start" x="26.5" y="-40.5" font-family="Helvetica,sans-Serif" font-size="10.00">+ SliderWithLabel()</text>
<text text-anchor="start" x="26.5" y="-29.5" font-family="Helvetica,sans-Serif" font-size="10.00">+ SliderWithLabel()</text>
<text text-anchor="start" x="26.5" y="-18.5" font-family="Helvetica,sans-Serif" font-size="10.00">+ getSlider()</text>
<text text-anchor="start" x="26.5" y="-7.5" font-family="Helvetica,sans-Serif" font-size="10.00">+ getLabel()</text>
</a>
</g>
</g>
<!-- Node2 -->
<g id="node2" class="node">
<title>Node2</title>
<g id="a_node2"><a xlink:href="class_sgl_1_1_h_box.html" target="_top" xlink:title=" ">
<polygon fill="white" stroke="black" points="228,-128.5 228,-196.5 290,-196.5 290,-128.5 228,-128.5"/>
<text text-anchor="middle" x="259" y="-184.5" font-family="Helvetica,sans-Serif" font-size="10.00">Sgl::HBox</text>
<polyline fill="none" stroke="black" points="228,-177.5 290,-177.5 "/>
<text text-anchor="middle" x="259" y="-165.5" font-family="Helvetica,sans-Serif" font-size="10.00"> </text>
<polyline fill="none" stroke="black" points="228,-158.5 290,-158.5 "/>
<text text-anchor="start" x="236" y="-146.5" font-family="Helvetica,sans-Serif" font-size="10.00">+ HBox()</text>
<text text-anchor="start" x="236" y="-135.5" font-family="Helvetica,sans-Serif" font-size="10.00">+ ~HBox()</text>
</a>
</g>
</g>
<!-- Node2&#45;&gt;Node1 -->
<g id="edge1" class="edge">
<title>Node2&#45;&gt;Node1</title>
<path fill="none" stroke="midnightblue" d="M219.29,-137.21C191.51,-120.22 154.1,-97.33 123.8,-78.8"/>
<polygon fill="none" stroke="midnightblue" points="217.6,-140.28 227.96,-142.51 221.25,-134.31 217.6,-140.28"/>
</g>
<!-- Node3 -->
<g id="node3" class="node">
<title>Node3</title>
<g id="a_node3"><a xlink:href="class_sgl_1_1_box_container.html" target="_top" xlink:title="Basic list&#45;like container which lays out children in a line one after another.">
<polygon fill="white" stroke="black" points="410.5,-234.5 410.5,-346.5 507.5,-346.5 507.5,-234.5 410.5,-234.5"/>
<text text-anchor="middle" x="459" y="-334.5" font-family="Helvetica,sans-Serif" font-size="10.00">Sgl::BoxContainer</text>
<polyline fill="none" stroke="black" points="410.5,-327.5 507.5,-327.5 "/>
<text text-anchor="middle" x="459" y="-315.5" font-family="Helvetica,sans-Serif" font-size="10.00"> </text>
<polyline fill="none" stroke="black" points="410.5,-308.5 507.5,-308.5 "/>
<text text-anchor="start" x="418.5" y="-296.5" font-family="Helvetica,sans-Serif" font-size="10.00">+ BoxContainer()</text>
<text text-anchor="start" x="418.5" y="-285.5" font-family="Helvetica,sans-Serif" font-size="10.00">+ BoxContainer()</text>
<text text-anchor="start" x="418.5" y="-274.5" font-family="Helvetica,sans-Serif" font-size="10.00">+ ~BoxContainer()</text>
<text text-anchor="start" x="418.5" y="-263.5" font-family="Helvetica,sans-Serif" font-size="10.00">+ getDirection()</text>
<text text-anchor="start" x="418.5" y="-252.5" font-family="Helvetica,sans-Serif" font-size="10.00">+ setDirection()</text>
<text text-anchor="start" x="418.5" y="-241.5" font-family="Helvetica,sans-Serif" font-size="10.00">and 8 more...</text>
</a>
</g>
</g>
<!-- Node3&#45;&gt;Node2 -->
<g id="edge2" class="edge">
<title>Node3&#45;&gt;Node2</title>
<path fill="none" stroke="midnightblue" d="M401.78,-253.45C365.45,-230.56 319.83,-201.82 290.07,-183.08"/>
<polygon fill="none" stroke="midnightblue" points="400,-256.47 410.33,-258.84 403.73,-250.55 400,-256.47"/>
</g>
<!-- Node4 -->
<g id="node4" class="node">
<title>Node4</title>
<g id="a_node4"><a xlink:href="class_sgl_1_1_container.html" target="_top" xlink:title=" ">
<polygon fill="white" stroke="black" points="931,-406.5 931,-507.5 1039,-507.5 1039,-406.5 931,-406.5"/>
<text text-anchor="middle" x="985" y="-495.5" font-family="Helvetica,sans-Serif" font-size="10.00">Sgl::Container</text>
<polyline fill="none" stroke="black" points="931,-488.5 1039,-488.5 "/>
<text text-anchor="middle" x="985" y="-476.5" font-family="Helvetica,sans-Serif" font-size="10.00"> </text>
<polyline fill="none" stroke="black" points="931,-469.5 1039,-469.5 "/>
<text text-anchor="start" x="939" y="-457.5" font-family="Helvetica,sans-Serif" font-size="10.00">+ Container()</text>
<text text-anchor="start" x="939" y="-446.5" font-family="Helvetica,sans-Serif" font-size="10.00">+ ~Container()</text>
<text text-anchor="start" x="939" y="-435.5" font-family="Helvetica,sans-Serif" font-size="10.00">+ getHitComponent()</text>
<text text-anchor="start" x="939" y="-424.5" font-family="Helvetica,sans-Serif" font-size="10.00">+ render()</text>
<text text-anchor="start" x="939" y="-413.5" font-family="Helvetica,sans-Serif" font-size="10.00"># prerenderSelf()</text>
</a>
</g>
</g>
<!-- Node4&#45;&gt;Node3 -->
<g id="edge3" class="edge">
<title>Node4&#45;&gt;Node3</title>
<path fill="none" stroke="midnightblue" d="M921.02,-435.99C814.48,-402.67 602.99,-336.53 507.63,-306.71"/>
<polygon fill="none" stroke="midnightblue" points="920.1,-439.37 930.69,-439.02 922.19,-432.69 920.1,-439.37"/>
</g>
<!-- Node5 -->
<g id="node5" class="node">
<title>Node5</title>
<g id="a_node5"><a xlink:href="class_sgl_1_1_parent.html" target="_top" xlink:title=" ">
<polygon fill="white" stroke="black" points="769,-577.5 769,-755.5 915,-755.5 915,-577.5 769,-577.5"/>
<text text-anchor="middle" x="842" y="-743.5" font-family="Helvetica,sans-Serif" font-size="10.00">Sgl::Parent</text>
<polyline fill="none" stroke="black" points="769,-736.5 915,-736.5 "/>
<text text-anchor="middle" x="842" y="-724.5" font-family="Helvetica,sans-Serif" font-size="10.00"> </text>
<polyline fill="none" stroke="black" points="769,-717.5 915,-717.5 "/>
<text text-anchor="start" x="777" y="-705.5" font-family="Helvetica,sans-Serif" font-size="10.00">+ Parent()</text>
<text text-anchor="start" x="777" y="-694.5" font-family="Helvetica,sans-Serif" font-size="10.00">+ ~Parent()</text>
<text text-anchor="start" x="777" y="-683.5" font-family="Helvetica,sans-Serif" font-size="10.00">+ getHitComponent()</text>
<text text-anchor="start" x="777" y="-672.5" font-family="Helvetica,sans-Serif" font-size="10.00">+ render()</text>
<text text-anchor="start" x="777" y="-661.5" font-family="Helvetica,sans-Serif" font-size="10.00">+ layout()</text>
<text text-anchor="start" x="777" y="-650.5" font-family="Helvetica,sans-Serif" font-size="10.00">and 39 more...</text>
<text text-anchor="start" x="777" y="-639.5" font-family="Helvetica,sans-Serif" font-size="10.00"># setSceneInSceneTree()</text>
<text text-anchor="start" x="777" y="-628.5" font-family="Helvetica,sans-Serif" font-size="10.00"># layoutChildren()</text>
<text text-anchor="start" x="777" y="-617.5" font-family="Helvetica,sans-Serif" font-size="10.00"># prerenderSelf()</text>
<text text-anchor="start" x="777" y="-606.5" font-family="Helvetica,sans-Serif" font-size="10.00"># updateSnapshotSize()</text>
<text text-anchor="start" x="777" y="-595.5" font-family="Helvetica,sans-Serif" font-size="10.00"># computeCustomPrefWidth()</text>
<text text-anchor="start" x="777" y="-584.5" font-family="Helvetica,sans-Serif" font-size="10.00">and 5 more...</text>
</a>
</g>
</g>
<!-- Node5&#45;&gt;Node4 -->
<g id="edge4" class="edge">
<title>Node5&#45;&gt;Node4</title>
<path fill="none" stroke="midnightblue" d="M908.65,-568.79C923.26,-547.59 938.14,-525.99 950.84,-507.57"/>
<polygon fill="none" stroke="midnightblue" points="905.64,-566.98 902.85,-577.2 911.41,-570.95 905.64,-566.98"/>
</g>
<!-- Node6 -->
<g id="node6" class="node">
<title>Node6</title>
<g id="a_node6"><a xlink:href="class_sgl_1_1_component.html" target="_top" xlink:title=" ">
<polygon fill="white" stroke="black" points="346,-384.5 346,-529.5 474,-529.5 474,-384.5 346,-384.5"/>
<text text-anchor="middle" x="410" y="-517.5" font-family="Helvetica,sans-Serif" font-size="10.00">Sgl::Component</text>
<polyline fill="none" stroke="black" points="346,-510.5 474,-510.5 "/>
<text text-anchor="middle" x="410" y="-498.5" font-family="Helvetica,sans-Serif" font-size="10.00"> </text>
<polyline fill="none" stroke="black" points="346,-491.5 474,-491.5 "/>
<text text-anchor="start" x="354" y="-479.5" font-family="Helvetica,sans-Serif" font-size="10.00">+ Component()</text>
<text text-anchor="start" x="354" y="-468.5" font-family="Helvetica,sans-Serif" font-size="10.00">+ ~Component()</text>
<text text-anchor="start" x="354" y="-457.5" font-family="Helvetica,sans-Serif" font-size="10.00">+ getHitComponent()</text>
<text text-anchor="start" x="354" y="-446.5" font-family="Helvetica,sans-Serif" font-size="10.00">+ render()</text>
<text text-anchor="start" x="354" y="-435.5" font-family="Helvetica,sans-Serif" font-size="10.00">+ layout()</text>
<text text-anchor="start" x="354" y="-424.5" font-family="Helvetica,sans-Serif" font-size="10.00">and 42 more...</text>
<text text-anchor="start" x="354" y="-413.5" font-family="Helvetica,sans-Serif" font-size="10.00"># updateShadow()</text>
<text text-anchor="start" x="354" y="-402.5" font-family="Helvetica,sans-Serif" font-size="10.00"># renderShadow()</text>
<text text-anchor="start" x="354" y="-391.5" font-family="Helvetica,sans-Serif" font-size="10.00"># setSceneInSceneTree()</text>
</a>
</g>
</g>
<!-- Node5&#45;&gt;Node6 -->
<g id="edge17" class="edge">
<title>Node5&#45;&gt;Node6</title>
<path fill="none" stroke="#404040" d="M768.87,-608.26C752.92,-597.1 735.78,-586.07 719,-577 643.07,-535.95 549.91,-502.11 485.85,-481.15"/>
<polygon fill="none" stroke="#404040" points="485.65,-481.09 478.71,-483.04 474.24,-477.39 481.18,-475.43 485.65,-481.09"/>
<text text-anchor="middle" x="704.5" y="-551" font-family="Helvetica,sans-Serif" font-size="10.00"> #m_Parent</text>
</g>
<!-- Node6&#45;&gt;Node5 -->
<g id="edge5" class="edge">
<title>Node6&#45;&gt;Node5</title>
<path fill="none" stroke="midnightblue" d="M484.67,-459.71C563.79,-465.06 688.82,-484.01 774,-548 784.65,-556 793.91,-566.19 801.87,-577.22"/>
<polygon fill="none" stroke="midnightblue" points="484.5,-456.19 474.3,-459.06 484.07,-463.18 484.5,-456.19"/>
</g>
<!-- Node7 -->
<g id="node7" class="node">
<title>Node7</title>
<g id="a_node7"><a xlink:title=" ">
<polygon fill="white" stroke="#bfbfbf" points="120,-847.5 120,-904.5 212,-904.5 212,-847.5 120,-847.5"/>
<text text-anchor="middle" x="166" y="-892.5" font-family="Helvetica,sans-Serif" font-size="10.00">Sml::EventTarget</text>
<polyline fill="none" stroke="#bfbfbf" points="120,-885.5 212,-885.5 "/>
<text text-anchor="middle" x="166" y="-873.5" font-family="Helvetica,sans-Serif" font-size="10.00"> </text>
<polyline fill="none" stroke="#bfbfbf" points="120,-866.5 212,-866.5 "/>
<text text-anchor="middle" x="166" y="-854.5" font-family="Helvetica,sans-Serif" font-size="10.00"> </text>
</a>
</g>
</g>
<!-- Node7&#45;&gt;Node6 -->
<g id="edge6" class="edge">
<title>Node7&#45;&gt;Node6</title>
<path fill="none" stroke="midnightblue" d="M121.32,-840.63C97.3,-819.24 70.01,-789.46 57,-756 28.17,-681.85 22.18,-648.53 57,-577 82.83,-523.94 251.23,-486.05 345.8,-468.67"/>
<polygon fill="none" stroke="midnightblue" points="119.13,-843.37 128.98,-847.28 123.72,-838.08 119.13,-843.37"/>
</g>
<!-- Node16 -->
<g id="node16" class="node">
<title>Node16</title>
<g id="a_node16"><a xlink:href="class_sgl_1_1_scene.html" target="_top" xlink:title=" ">
<polygon fill="white" stroke="black" points="223,-610.5 223,-722.5 303,-722.5 303,-610.5 223,-610.5"/>
<text text-anchor="middle" x="263" y="-710.5" font-family="Helvetica,sans-Serif" font-size="10.00">Sgl::Scene</text>
<polyline fill="none" stroke="black" points="223,-703.5 303,-703.5 "/>
<text text-anchor="middle" x="263" y="-691.5" font-family="Helvetica,sans-Serif" font-size="10.00"> </text>
<polyline fill="none" stroke="black" points="223,-684.5 303,-684.5 "/>
<text text-anchor="start" x="231" y="-672.5" font-family="Helvetica,sans-Serif" font-size="10.00">+ Scene()</text>
<text text-anchor="start" x="231" y="-661.5" font-family="Helvetica,sans-Serif" font-size="10.00">+ Scene()</text>
<text text-anchor="start" x="231" y="-650.5" font-family="Helvetica,sans-Serif" font-size="10.00">+ ~Scene()</text>
<text text-anchor="start" x="231" y="-639.5" font-family="Helvetica,sans-Serif" font-size="10.00">+ update()</text>
<text text-anchor="start" x="231" y="-628.5" font-family="Helvetica,sans-Serif" font-size="10.00">+ render()</text>
<text text-anchor="start" x="231" y="-617.5" font-family="Helvetica,sans-Serif" font-size="10.00">and 17 more...</text>
</a>
</g>
</g>
<!-- Node7&#45;&gt;Node16 -->
<g id="edge16" class="edge">
<title>Node7&#45;&gt;Node16</title>
<path fill="none" stroke="midnightblue" d="M183.29,-838.02C198.24,-806.03 220.07,-759.33 237.11,-722.88"/>
<polygon fill="none" stroke="midnightblue" points="179.95,-836.9 178.88,-847.45 186.29,-839.87 179.95,-836.9"/>
</g>
<!-- Node8 -->
<g id="node8" class="node">
<title>Node8</title>
<g id="a_node8"><a xlink:title=" ">
<polygon fill="white" stroke="#bfbfbf" points="541,-1018.5 541,-1075.5 587,-1075.5 587,-1018.5 541,-1018.5"/>
<text text-anchor="middle" x="564" y="-1063.5" font-family="Helvetica,sans-Serif" font-size="10.00">int32_t</text>
<polyline fill="none" stroke="#bfbfbf" points="541,-1056.5 587,-1056.5 "/>
<text text-anchor="middle" x="564" y="-1044.5" font-family="Helvetica,sans-Serif" font-size="10.00"> </text>
<polyline fill="none" stroke="#bfbfbf" points="541,-1037.5 587,-1037.5 "/>
<text text-anchor="middle" x="564" y="-1025.5" font-family="Helvetica,sans-Serif" font-size="10.00"> </text>
</a>
</g>
</g>
<!-- Node8&#45;&gt;Node1 -->
<g id="edge32" class="edge">
<title>Node8&#45;&gt;Node1</title>
<path fill="none" stroke="#404040" d="M540.84,-1044.19C434.71,-1035.3 0,-991.87 0,-877 0,-877 0,-877 0,-161.5 0,-139.72 9.33,-118.62 21.23,-100.57"/>
<polygon fill="none" stroke="#404040" points="21.35,-100.4 21.54,-93.19 28.27,-90.59 28.08,-97.8 21.35,-100.4"/>
<text text-anchor="middle" x="52.5" y="-454.5" font-family="Helvetica,sans-Serif" font-size="10.00"> +DEFAULT_SPACING</text>
</g>
<!-- Node8&#45;&gt;Node5 -->
<g id="edge27" class="edge">
<title>Node8&#45;&gt;Node5</title>
<path fill="none" stroke="#404040" d="M587.31,-1045.28C684.29,-1041.73 1054.03,-1022.75 1124,-938 1159.09,-895.5 1147.38,-863.91 1124,-814 1086.32,-733.54 1012.69,-792.79 926.1,-756.11"/>
<polygon fill="none" stroke="#404040" points="926.07,-756.09 918.94,-757.17 915.2,-751 922.33,-749.92 926.07,-756.09"/>
<text text-anchor="middle" x="1182" y="-901" font-family="Helvetica,sans-Serif" font-size="10.00"> #m_MaxHeight</text>
<text text-anchor="middle" x="1182" y="-890" font-family="Helvetica,sans-Serif" font-size="10.00">#m_MaxWidth</text>
<text text-anchor="middle" x="1182" y="-879" font-family="Helvetica,sans-Serif" font-size="10.00">#m_MinHeight</text>
<text text-anchor="middle" x="1182" y="-868" font-family="Helvetica,sans-Serif" font-size="10.00">#m_MinWidth</text>
<text text-anchor="middle" x="1182" y="-857" font-family="Helvetica,sans-Serif" font-size="10.00">#m_PrefHeight</text>
<text text-anchor="middle" x="1182" y="-846" font-family="Helvetica,sans-Serif" font-size="10.00">#m_PrefWidth</text>
</g>
<!-- Node8&#45;&gt;Node6 -->
<g id="edge7" class="edge">
<title>Node8&#45;&gt;Node6</title>
<path fill="none" stroke="#404040" d="M540.89,-1032.65C510.87,-1014.39 458.27,-979.17 424,-938 378.6,-883.46 368.55,-864.76 351,-796 339.98,-752.83 315.56,-721.8 350,-577 352.88,-564.89 357.2,-552.61 362.23,-540.77"/>
<polygon fill="none" stroke="#404040" points="362.34,-540.53 361.14,-533.42 367.24,-529.58 368.44,-536.69 362.34,-540.53"/>
<text text-anchor="middle" x="410" y="-788" font-family="Helvetica,sans-Serif" font-size="10.00"> +UNLIMITED_SIZE</text>
<text text-anchor="middle" x="410" y="-777" font-family="Helvetica,sans-Serif" font-size="10.00">+USE_COMPUTED_SIZE</text>
</g>
<!-- Node22 -->
<g id="node22" class="node">
<title>Node22</title>
<g id="a_node22"><a xlink:href="struct_sgl_1_1_insets.html" target="_top" xlink:title=" ">
<polygon fill="white" stroke="black" points="758.5,-820 758.5,-932 837.5,-932 837.5,-820 758.5,-820"/>
<text text-anchor="middle" x="798" y="-920" font-family="Helvetica,sans-Serif" font-size="10.00">Sgl::Insets</text>
<polyline fill="none" stroke="black" points="758.5,-913 837.5,-913 "/>
<text text-anchor="middle" x="798" y="-901" font-family="Helvetica,sans-Serif" font-size="10.00"> </text>
<polyline fill="none" stroke="black" points="758.5,-894 837.5,-894 "/>
<text text-anchor="start" x="766.5" y="-882" font-family="Helvetica,sans-Serif" font-size="10.00">+ Insets()</text>
<text text-anchor="start" x="766.5" y="-871" font-family="Helvetica,sans-Serif" font-size="10.00">+ Insets()</text>
<text text-anchor="start" x="766.5" y="-860" font-family="Helvetica,sans-Serif" font-size="10.00">+ Insets()</text>
<text text-anchor="start" x="766.5" y="-849" font-family="Helvetica,sans-Serif" font-size="10.00">+ Insets()</text>
<text text-anchor="start" x="766.5" y="-838" font-family="Helvetica,sans-Serif" font-size="10.00">+ operator+=()</text>
<text text-anchor="start" x="766.5" y="-827" font-family="Helvetica,sans-Serif" font-size="10.00">+ operator&#45;=()</text>
</a>
</g>
</g>
<!-- Node8&#45;&gt;Node22 -->
<g id="edge26" class="edge">
<title>Node8&#45;&gt;Node22</title>
<path fill="none" stroke="#404040" d="M587.07,-1035.91C623.87,-1019.12 697.02,-982.79 749,-938 749.2,-937.83 749.4,-937.66 749.6,-937.48"/>
<polygon fill="none" stroke="#404040" points="749.66,-937.42 751.27,-930.39 758.37,-929.16 756.77,-936.19 749.66,-937.42"/>
<text text-anchor="middle" x="747" y="-992" font-family="Helvetica,sans-Serif" font-size="10.00"> +bottom</text>
<text text-anchor="middle" x="747" y="-981" font-family="Helvetica,sans-Serif" font-size="10.00">+left</text>
<text text-anchor="middle" x="747" y="-970" font-family="Helvetica,sans-Serif" font-size="10.00">+right</text>
<text text-anchor="middle" x="747" y="-959" font-family="Helvetica,sans-Serif" font-size="10.00">+top</text>
</g>
<!-- Node9 -->
<g id="node9" class="node">
<title>Node9</title>
<g id="a_node9"><a xlink:title=" ">
<polygon fill="white" stroke="#bfbfbf" points="933.5,-638 933.5,-695 974.5,-695 974.5,-638 933.5,-638"/>
<text text-anchor="middle" x="954" y="-683" font-family="Helvetica,sans-Serif" font-size="10.00">friend</text>
<polyline fill="none" stroke="#bfbfbf" points="933.5,-676 974.5,-676 "/>
<text text-anchor="middle" x="954" y="-664" font-family="Helvetica,sans-Serif" font-size="10.00"> </text>
<polyline fill="none" stroke="#bfbfbf" points="933.5,-657 974.5,-657 "/>
<text text-anchor="middle" x="954" y="-645" font-family="Helvetica,sans-Serif" font-size="10.00"> </text>
</a>
</g>
</g>
<!-- Node9&#45;&gt;Node6 -->
<g id="edge8" class="edge">
<title>Node9&#45;&gt;Node6</title>
<path fill="none" stroke="#404040" d="M951.61,-637.68C948.44,-618 941.08,-592.46 924,-577 860.26,-519.29 613.55,-482.22 486.53,-466.56"/>
<polygon fill="none" stroke="#404040" points="486.16,-466.52 479.73,-469.76 474.25,-465.07 480.69,-461.82 486.16,-466.52"/>
<text text-anchor="middle" x="916.5" y="-551" font-family="Helvetica,sans-Serif" font-size="10.00"> +Scene</text>
</g>
<!-- Node10 -->
<g id="node10" class="node">
<title>Node10</title>
<g id="a_node10"><a xlink:title=" ">
<polygon fill="white" stroke="#bfbfbf" points="151.5,-638 151.5,-695 204.5,-695 204.5,-638 151.5,-638"/>
<text text-anchor="middle" x="178" y="-683" font-family="Helvetica,sans-Serif" font-size="10.00">Visibility</text>
<polyline fill="none" stroke="#bfbfbf" points="151.5,-676 204.5,-676 "/>
<text text-anchor="middle" x="178" y="-664" font-family="Helvetica,sans-Serif" font-size="10.00"> </text>
<polyline fill="none" stroke="#bfbfbf" points="151.5,-657 204.5,-657 "/>
<text text-anchor="middle" x="178" y="-645" font-family="Helvetica,sans-Serif" font-size="10.00"> </text>
</a>
</g>
</g>
<!-- Node10&#45;&gt;Node6 -->
<g id="edge9" class="edge">
<title>Node10&#45;&gt;Node6</title>
<path fill="none" stroke="#404040" d="M176.18,-637.78C175.97,-611.86 179.63,-573.43 200,-548 232.97,-506.85 288.32,-484.17 333.92,-471.87"/>
<polygon fill="none" stroke="#404040" points="333.96,-471.86 338.78,-466.5 345.59,-468.89 340.76,-474.25 333.96,-471.86"/>
<text text-anchor="middle" x="229.5" y="-551" font-family="Helvetica,sans-Serif" font-size="10.00"> #m_Visibility</text>
</g>
<!-- Node11 -->
<g id="node11" class="node">
<title>Node11</title>
<g id="a_node11"><a xlink:title=" ">
<polygon fill="white" stroke="#bfbfbf" points="433.5,-847.5 433.5,-904.5 468.5,-904.5 468.5,-847.5 433.5,-847.5"/>
<text text-anchor="middle" x="451" y="-892.5" font-family="Helvetica,sans-Serif" font-size="10.00">bool</text>
<polyline fill="none" stroke="#bfbfbf" points="433.5,-885.5 468.5,-885.5 "/>
<text text-anchor="middle" x="451" y="-873.5" font-family="Helvetica,sans-Serif" font-size="10.00"> </text>
<polyline fill="none" stroke="#bfbfbf" points="433.5,-866.5 468.5,-866.5 "/>
<text text-anchor="middle" x="451" y="-854.5" font-family="Helvetica,sans-Serif" font-size="10.00"> </text>
</a>
</g>
</g>
<!-- Node11&#45;&gt;Node5 -->
<g id="edge21" class="edge">
<title>Node11&#45;&gt;Node5</title>
<path fill="none" stroke="#404040" d="M458.66,-847.47C462.77,-836.21 468.74,-823.59 477,-814 499.14,-788.3 509.87,-784.88 542,-774 616.9,-748.64 645.07,-784.04 719,-756 732.45,-750.9 745.77,-743.94 758.4,-736.14"/>
<polygon fill="none" stroke="#404040" points="758.74,-735.92 761.62,-729.31 768.83,-729.43 765.95,-736.04 758.74,-735.92"/>
<text text-anchor="middle" x="590.5" y="-782.5" font-family="Helvetica,sans-Serif" font-size="10.00"> #m_NeedLayoutPass</text>
</g>
<!-- Node11&#45;&gt;Node6 -->
<g id="edge10" class="edge">
<title>Node11&#45;&gt;Node6</title>
<path fill="none" stroke="#404040" d="M459.38,-847.08C475.22,-789.59 505.12,-654.47 472,-548 471.25,-545.59 470.41,-543.2 469.5,-540.81"/>
<polygon fill="none" stroke="#404040" points="469.48,-540.76 463.41,-536.86 464.69,-529.76 470.75,-533.67 469.48,-540.76"/>
<text text-anchor="middle" x="517" y="-669.5" font-family="Helvetica,sans-Serif" font-size="10.00"> #m_Focused</text>
<text text-anchor="middle" x="517" y="-658.5" font-family="Helvetica,sans-Serif" font-size="10.00">#m_Hovered</text>
</g>
<!-- Node12 -->
<g id="node12" class="node">
<title>Node12</title>
<g id="a_node12"><a xlink:href="class_sgl_1_1_shadow.html" target="_top" xlink:title=" ">
<polygon fill="white" stroke="black" points="359.5,-605 359.5,-728 460.5,-728 460.5,-605 359.5,-605"/>
<text text-anchor="middle" x="410" y="-716" font-family="Helvetica,sans-Serif" font-size="10.00">Sgl::Shadow</text>
<polyline fill="none" stroke="black" points="359.5,-709 460.5,-709 "/>
<text text-anchor="middle" x="410" y="-697" font-family="Helvetica,sans-Serif" font-size="10.00"> </text>
<polyline fill="none" stroke="black" points="359.5,-690 460.5,-690 "/>
<text text-anchor="start" x="367.5" y="-678" font-family="Helvetica,sans-Serif" font-size="10.00">+ Shadow()</text>
<text text-anchor="start" x="367.5" y="-667" font-family="Helvetica,sans-Serif" font-size="10.00">+ ~Shadow()</text>
<text text-anchor="start" x="367.5" y="-656" font-family="Helvetica,sans-Serif" font-size="10.00">+ update()</text>
<text text-anchor="start" x="367.5" y="-645" font-family="Helvetica,sans-Serif" font-size="10.00">+ render()</text>
<text text-anchor="start" x="367.5" y="-634" font-family="Helvetica,sans-Serif" font-size="10.00">+ getTexture()</text>
<text text-anchor="start" x="367.5" y="-623" font-family="Helvetica,sans-Serif" font-size="10.00">+ getSpecification()</text>
<text text-anchor="start" x="367.5" y="-612" font-family="Helvetica,sans-Serif" font-size="10.00">+ setSpecification()</text>
</a>
</g>
</g>
<!-- Node12&#45;&gt;Node6 -->
<g id="edge11" class="edge">
<title>Node12&#45;&gt;Node6</title>
<path fill="none" stroke="#404040" d="M410,-604.92C410,-585.23 410,-563 410,-541.91"/>
<polygon fill="none" stroke="#404040" points="410,-541.65 406,-535.65 410,-529.65 414,-535.65 410,-541.65"/>
<text text-anchor="middle" x="439" y="-551" font-family="Helvetica,sans-Serif" font-size="10.00"> #m_Shadow</text>
</g>
<!-- Node13 -->
<g id="node13" class="node">
<title>Node13</title>
<g id="a_node13"><a xlink:href="class_gui_event_dispatcher.html" target="_top" xlink:title=" ">
<polygon fill="white" stroke="black" points="575.5,-599.5 575.5,-733.5 710.5,-733.5 710.5,-599.5 575.5,-599.5"/>
<text text-anchor="middle" x="643" y="-721.5" font-family="Helvetica,sans-Serif" font-size="10.00">GuiEventDispatcher</text>
<polyline fill="none" stroke="black" points="575.5,-714.5 710.5,-714.5 "/>
<text text-anchor="middle" x="643" y="-702.5" font-family="Helvetica,sans-Serif" font-size="10.00"> </text>
<polyline fill="none" stroke="black" points="575.5,-695.5 710.5,-695.5 "/>
<text text-anchor="start" x="583.5" y="-683.5" font-family="Helvetica,sans-Serif" font-size="10.00">+ ~GuiEventDispatcher()</text>
<text text-anchor="start" x="583.5" y="-672.5" font-family="Helvetica,sans-Serif" font-size="10.00">+ attachFilter()</text>
<text text-anchor="start" x="583.5" y="-661.5" font-family="Helvetica,sans-Serif" font-size="10.00">+ detachFilter()</text>
<text text-anchor="start" x="583.5" y="-650.5" font-family="Helvetica,sans-Serif" font-size="10.00">+ attachHandler()</text>
<text text-anchor="start" x="583.5" y="-639.5" font-family="Helvetica,sans-Serif" font-size="10.00">+ detachHandler()</text>
<text text-anchor="start" x="583.5" y="-628.5" font-family="Helvetica,sans-Serif" font-size="10.00">+ dispatchEvent()</text>
<text text-anchor="start" x="583.5" y="-617.5" font-family="Helvetica,sans-Serif" font-size="10.00"># dispatchCapturingEvent()</text>
<text text-anchor="start" x="583.5" y="-606.5" font-family="Helvetica,sans-Serif" font-size="10.00"># dispatchBubblingEvent()</text>
</a>
</g>
</g>
<!-- Node13&#45;&gt;Node6 -->
<g id="edge12" class="edge">
<title>Node13&#45;&gt;Node6</title>
<path fill="none" stroke="#404040" d="M583.65,-599.14C576.2,-591.5 568.54,-583.96 561,-577 536.86,-554.72 508.96,-531.98 483.76,-512.43"/>
<polygon fill="none" stroke="#404040" points="483.76,-512.42 476.56,-511.93 474.25,-505.1 481.45,-505.59 483.76,-512.42"/>
<text text-anchor="middle" x="573" y="-551" font-family="Helvetica,sans-Serif" font-size="10.00"> #m_Dispatcher</text>
</g>
<!-- Node14 -->
<g id="node14" class="node">
<title>Node14</title>
<g id="a_node14"><a xlink:title=" ">
<polygon fill="white" stroke="#bfbfbf" points="486.5,-847.5 486.5,-904.5 599.5,-904.5 599.5,-847.5 486.5,-847.5"/>
<text text-anchor="middle" x="543" y="-892.5" font-family="Helvetica,sans-Serif" font-size="10.00">Sml::EventDispatcher</text>
<polyline fill="none" stroke="#bfbfbf" points="486.5,-885.5 599.5,-885.5 "/>
<text text-anchor="middle" x="543" y="-873.5" font-family="Helvetica,sans-Serif" font-size="10.00"> </text>
<polyline fill="none" stroke="#bfbfbf" points="486.5,-866.5 599.5,-866.5 "/>
<text text-anchor="middle" x="543" y="-854.5" font-family="Helvetica,sans-Serif" font-size="10.00"> </text>
</a>
</g>
</g>
<!-- Node14&#45;&gt;Node13 -->
<g id="edge13" class="edge">
<title>Node14&#45;&gt;Node13</title>
<path fill="none" stroke="midnightblue" d="M569.09,-839.09C577.99,-825.92 587.56,-810.65 595,-796 604.97,-776.36 614.01,-754.13 621.48,-733.76"/>
<polygon fill="none" stroke="midnightblue" points="566.15,-837.18 563.37,-847.41 571.92,-841.15 566.15,-837.18"/>
</g>
<!-- Node15 -->
<g id="node15" class="node">
<title>Node15</title>
<g id="a_node15"><a xlink:title=" ">
<polygon fill="white" stroke="#bfbfbf" points="618,-847.5 618,-904.5 666,-904.5 666,-847.5 618,-847.5"/>
<text text-anchor="middle" x="642" y="-892.5" font-family="Helvetica,sans-Serif" font-size="10.00">Notifier</text>
<polyline fill="none" stroke="#bfbfbf" points="618,-885.5 666,-885.5 "/>
<text text-anchor="middle" x="642" y="-873.5" font-family="Helvetica,sans-Serif" font-size="10.00"> </text>
<polyline fill="none" stroke="#bfbfbf" points="618,-866.5 666,-866.5 "/>
<text text-anchor="middle" x="642" y="-854.5" font-family="Helvetica,sans-Serif" font-size="10.00"> </text>
</a>
</g>
</g>
<!-- Node15&#45;&gt;Node13 -->
<g id="edge14" class="edge">
<title>Node15&#45;&gt;Node13</title>
<path fill="none" stroke="#404040" d="M642.13,-847.45C642.26,-821.61 642.45,-781.72 642.62,-746.06"/>
<polygon fill="none" stroke="#404040" points="642.62,-745.65 638.65,-739.63 642.68,-733.65 646.65,-739.67 642.62,-745.65"/>
<text text-anchor="middle" x="688" y="-788" font-family="Helvetica,sans-Serif" font-size="10.00"> #m_FiltersNotifier</text>
<text text-anchor="middle" x="688" y="-777" font-family="Helvetica,sans-Serif" font-size="10.00">#m_HandlersNotifier</text>
</g>
<!-- Node16&#45;&gt;Node6 -->
<g id="edge15" class="edge">
<title>Node16&#45;&gt;Node6</title>
<path fill="none" stroke="#404040" d="M254.39,-610.48C253.73,-589.69 256.32,-566.58 267,-548 282.29,-521.4 308.95,-501.51 335.14,-487.29"/>
<polygon fill="none" stroke="#404040" points="335.25,-487.24 338.75,-480.93 345.91,-481.73 342.42,-488.04 335.25,-487.24"/>
<text text-anchor="middle" x="292" y="-551" font-family="Helvetica,sans-Serif" font-size="10.00"> #m_Scene</text>
</g>
<!-- Node17 -->
<g id="node17" class="node">
<title>Node17</title>
<g id="a_node17"><a xlink:title=" ">
<polygon fill="white" stroke="#bfbfbf" points="66.5,-638 66.5,-695 133.5,-695 133.5,-638 66.5,-638"/>
<text text-anchor="middle" x="100" y="-683" font-family="Helvetica,sans-Serif" font-size="10.00">Rectangle&lt;</text>
<polyline fill="none" stroke="#bfbfbf" points="66.5,-676 133.5,-676 "/>
<text text-anchor="middle" x="100" y="-664" font-family="Helvetica,sans-Serif" font-size="10.00"> </text>
<polyline fill="none" stroke="#bfbfbf" points="66.5,-657 133.5,-657 "/>
<text text-anchor="middle" x="100" y="-645" font-family="Helvetica,sans-Serif" font-size="10.00"> </text>
</a>
</g>
</g>
<!-- Node17&#45;&gt;Node6 -->
<g id="edge18" class="edge">
<title>Node17&#45;&gt;Node6</title>
<path fill="none" stroke="#404040" d="M92.52,-637.74C87.31,-611.78 84.37,-573.33 104,-548 132.18,-511.64 252.68,-484.57 333.79,-470.04"/>
<polygon fill="none" stroke="#404040" points="333.89,-470.02 339.1,-465.05 345.71,-467.95 340.49,-472.92 333.89,-470.02"/>
<text text-anchor="middle" x="146.5" y="-551" font-family="Helvetica,sans-Serif" font-size="10.00"> #m_LayoutBounds</text>
</g>
<!-- Node18 -->
<g id="node18" class="node">
<title>Node18</title>
<g id="a_node18"><a xlink:title=" ">
<polygon fill="white" stroke="#bfbfbf" points="1240.5,-847.5 1240.5,-904.5 1275.5,-904.5 1275.5,-847.5 1240.5,-847.5"/>
<text text-anchor="middle" x="1258" y="-892.5" font-family="Helvetica,sans-Serif" font-size="10.00">list&lt;</text>
<polyline fill="none" stroke="#bfbfbf" points="1240.5,-885.5 1275.5,-885.5 "/>
<text text-anchor="middle" x="1258" y="-873.5" font-family="Helvetica,sans-Serif" font-size="10.00"> </text>
<polyline fill="none" stroke="#bfbfbf" points="1240.5,-866.5 1275.5,-866.5 "/>
<text text-anchor="middle" x="1258" y="-854.5" font-family="Helvetica,sans-Serif" font-size="10.00"> </text>
</a>
</g>
</g>
<!-- Node18&#45;&gt;Node5 -->
<g id="edge19" class="edge">
<title>Node18&#45;&gt;Node5</title>
<path fill="none" stroke="#404040" d="M1247.09,-847.34C1241.82,-836.18 1234.72,-823.69 1226,-814 1204.56,-790.18 1196.31,-784.42 1166,-774 1067.59,-740.17 1024.25,-798.43 926.07,-756.2"/>
<polygon fill="none" stroke="#404040" points="926.02,-756.18 918.9,-757.31 915.12,-751.17 922.24,-750.04 926.02,-756.18"/>
<text text-anchor="middle" x="1238" y="-782.5" font-family="Helvetica,sans-Serif" font-size="10.00"> #m_Children</text>
</g>
<!-- Node19 -->
<g id="node19" class="node">
<title>Node19</title>
<g id="a_node19"><a xlink:title=" ">
<polygon fill="white" stroke="#bfbfbf" points="684,-847.5 684,-904.5 740,-904.5 740,-847.5 684,-847.5"/>
<text text-anchor="middle" x="712" y="-892.5" font-family="Helvetica,sans-Serif" font-size="10.00">Texture *</text>
<polyline fill="none" stroke="#bfbfbf" points="684,-885.5 740,-885.5 "/>
<text text-anchor="middle" x="712" y="-873.5" font-family="Helvetica,sans-Serif" font-size="10.00"> </text>
<polyline fill="none" stroke="#bfbfbf" points="684,-866.5 740,-866.5 "/>
<text text-anchor="middle" x="712" y="-854.5" font-family="Helvetica,sans-Serif" font-size="10.00"> </text>
</a>
</g>
</g>
<!-- Node19&#45;&gt;Node5 -->
<g id="edge20" class="edge">
<title>Node19&#45;&gt;Node5</title>
<path fill="none" stroke="#404040" d="M720.26,-847.3C727.14,-826.35 738.05,-797.3 752,-774 755.11,-768.81 758.46,-763.62 761.99,-758.48"/>
<polygon fill="none" stroke="#404040" points="762.02,-758.44 762.24,-751.23 768.97,-748.66 768.76,-755.87 762.02,-758.44"/>
<text text-anchor="middle" x="784" y="-782.5" font-family="Helvetica,sans-Serif" font-size="10.00"> #m_Snapshot</text>
</g>
<!-- Node20 -->
<g id="node20" class="node">
<title>Node20</title>
<g id="a_node20"><a xlink:href="class_sgl_1_1_background.html" target="_top" xlink:title=" ">
<polygon fill="white" stroke="black" points="1026.5,-814.5 1026.5,-937.5 1115.5,-937.5 1115.5,-814.5 1026.5,-814.5"/>
<text text-anchor="middle" x="1071" y="-925.5" font-family="Helvetica,sans-Serif" font-size="10.00">Sgl::Background</text>
<polyline fill="none" stroke="black" points="1026.5,-918.5 1115.5,-918.5 "/>
<text text-anchor="middle" x="1071" y="-906.5" font-family="Helvetica,sans-Serif" font-size="10.00"> </text>
<polyline fill="none" stroke="black" points="1026.5,-899.5 1115.5,-899.5 "/>
<text text-anchor="start" x="1034.5" y="-887.5" font-family="Helvetica,sans-Serif" font-size="10.00">+ Background()</text>
<text text-anchor="start" x="1034.5" y="-876.5" font-family="Helvetica,sans-Serif" font-size="10.00">+ Background()</text>
<text text-anchor="start" x="1034.5" y="-865.5" font-family="Helvetica,sans-Serif" font-size="10.00">+ Background()</text>
<text text-anchor="start" x="1034.5" y="-854.5" font-family="Helvetica,sans-Serif" font-size="10.00">+ Background()</text>
<text text-anchor="start" x="1034.5" y="-843.5" font-family="Helvetica,sans-Serif" font-size="10.00">+ addFill()</text>
<text text-anchor="start" x="1034.5" y="-832.5" font-family="Helvetica,sans-Serif" font-size="10.00">and 5 more...</text>
<text text-anchor="start" x="1034.5" y="-821.5" font-family="Helvetica,sans-Serif" font-size="10.00">+ fillArea()</text>
</a>
</g>
</g>
<!-- Node20&#45;&gt;Node4 -->
<g id="edge31" class="edge">
<title>Node20&#45;&gt;Node4</title>
<path fill="none" stroke="#404040" d="M1074.43,-814.47C1074.4,-801.1 1073.76,-787.03 1072,-774 1059.78,-683.54 1028.71,-582.38 1007.22,-519.44"/>
<polygon fill="none" stroke="#404040" points="1007.1,-519.1 1001.36,-514.73 1003.19,-507.76 1008.93,-512.12 1007.1,-519.1"/>
<text text-anchor="middle" x="1136.5" y="-664" font-family="Helvetica,sans-Serif" font-size="10.00"> +DEFAULT_BACKGROUND</text>
</g>
<!-- Node20&#45;&gt;Node5 -->
<g id="edge22" class="edge">
<title>Node20&#45;&gt;Node5</title>
<path fill="none" stroke="#404040" d="M1026.36,-823.66C1023.24,-820.35 1020.1,-817.1 1017,-814 1012.27,-809.26 977.73,-777.45 972,-774 955.16,-763.84 945.72,-767.27 925.64,-756.17"/>
<polygon fill="none" stroke="#404040" points="925.42,-756.03 918.21,-756.26 915.23,-749.69 922.44,-749.47 925.42,-756.03"/>
<text text-anchor="middle" x="1035" y="-782.5" font-family="Helvetica,sans-Serif" font-size="10.00"> #m_Background</text>
</g>
<!-- Node21 -->
<g id="node21" class="node">
<title>Node21</title>
<g id="a_node21"><a xlink:href="class_sgl_1_1_border.html" target="_top" xlink:title=" ">
<polygon fill="white" stroke="black" points="918,-820 918,-932 1008,-932 1008,-820 918,-820"/>
<text text-anchor="middle" x="963" y="-920" font-family="Helvetica,sans-Serif" font-size="10.00">Sgl::Border</text>
<polyline fill="none" stroke="black" points="918,-913 1008,-913 "/>
<text text-anchor="middle" x="963" y="-901" font-family="Helvetica,sans-Serif" font-size="10.00"> </text>
<polyline fill="none" stroke="black" points="918,-894 1008,-894 "/>
<text text-anchor="start" x="926" y="-882" font-family="Helvetica,sans-Serif" font-size="10.00">+ Border()</text>
<text text-anchor="start" x="926" y="-871" font-family="Helvetica,sans-Serif" font-size="10.00">+ Border()</text>
<text text-anchor="start" x="926" y="-860" font-family="Helvetica,sans-Serif" font-size="10.00">+ Border()</text>
<text text-anchor="start" x="926" y="-849" font-family="Helvetica,sans-Serif" font-size="10.00">+ getThickness()</text>
<text text-anchor="start" x="926" y="-838" font-family="Helvetica,sans-Serif" font-size="10.00">+ getColor()</text>
<text text-anchor="start" x="926" y="-827" font-family="Helvetica,sans-Serif" font-size="10.00">+ encloseArea()</text>
</a>
</g>
</g>
<!-- Node21&#45;&gt;Node5 -->
<g id="edge23" class="edge">
<title>Node21&#45;&gt;Node5</title>
<path fill="none" stroke="#404040" d="M930.89,-819.94C921.25,-803.4 910.36,-784.73 899.6,-766.27"/>
<polygon fill="none" stroke="#404040" points="899.51,-766.11 893.03,-762.95 893.46,-755.75 899.94,-758.92 899.51,-766.11"/>
<text text-anchor="middle" x="942.5" y="-782.5" font-family="Helvetica,sans-Serif" font-size="10.00"> #m_Border</text>
</g>
<!-- Node22&#45;&gt;Node5 -->
<g id="edge24" class="edge">
<title>Node22&#45;&gt;Node5</title>
<path fill="none" stroke="#404040" d="M814.11,-819.93C816.22,-811.94 818.26,-803.78 820,-796 822.08,-786.74 824.06,-777.06 825.94,-767.35"/>
<polygon fill="none" stroke="#404040" points="825.94,-767.31 823.12,-760.68 828.16,-755.52 830.98,-762.16 825.94,-767.31"/>
<text text-anchor="middle" x="854" y="-782.5" font-family="Helvetica,sans-Serif" font-size="10.00"> #m_Padding</text>
</g>
<!-- Node22&#45;&gt;Node22 -->
<g id="edge25" class="edge">
<title>Node22&#45;&gt;Node22</title>
<path fill="none" stroke="#404040" d="M837.51,-892.7C847.76,-891.67 855.5,-886.11 855.5,-876 855.5,-870.31 853.05,-866.07 849.08,-863.25"/>
<polygon fill="none" stroke="#404040" points="848.86,-863.18 841.89,-865.02 837.51,-859.3 844.48,-857.45 848.86,-863.18"/>
<text text-anchor="middle" x="877.5" y="-873.5" font-family="Helvetica,sans-Serif" font-size="10.00"> +EMPTY</text>
</g>
<!-- Node23 -->
<g id="node23" class="node">
<title>Node23</title>
<g id="a_node23"><a xlink:href="class_sgl_1_1_color_fill.html" target="_top" xlink:title=" ">
<polygon fill="white" stroke="black" points="1289.5,-610.5 1289.5,-722.5 1362.5,-722.5 1362.5,-610.5 1289.5,-610.5"/>
<text text-anchor="middle" x="1326" y="-710.5" font-family="Helvetica,sans-Serif" font-size="10.00">Sgl::ColorFill</text>
<polyline fill="none" stroke="black" points="1289.5,-703.5 1362.5,-703.5 "/>
<text text-anchor="middle" x="1326" y="-691.5" font-family="Helvetica,sans-Serif" font-size="10.00"> </text>
<polyline fill="none" stroke="black" points="1289.5,-684.5 1362.5,-684.5 "/>
<text text-anchor="start" x="1297.5" y="-672.5" font-family="Helvetica,sans-Serif" font-size="10.00">+ ColorFill()</text>
<text text-anchor="start" x="1297.5" y="-661.5" font-family="Helvetica,sans-Serif" font-size="10.00">+ fillLine()</text>
<text text-anchor="start" x="1297.5" y="-650.5" font-family="Helvetica,sans-Serif" font-size="10.00">+ fillArea()</text>
<text text-anchor="start" x="1297.5" y="-639.5" font-family="Helvetica,sans-Serif" font-size="10.00">+ fillPoint()</text>
<text text-anchor="start" x="1297.5" y="-628.5" font-family="Helvetica,sans-Serif" font-size="10.00">+ getColor()</text>
<text text-anchor="start" x="1297.5" y="-617.5" font-family="Helvetica,sans-Serif" font-size="10.00">+ setColor()</text>
</a>
</g>
</g>
<!-- Node23&#45;&gt;Node4 -->
<g id="edge28" class="edge">
<title>Node23&#45;&gt;Node4</title>
<path fill="none" stroke="#404040" d="M1289.15,-629.94C1270.26,-612.75 1246.36,-592.53 1223,-577 1167.68,-540.22 1099.41,-507.21 1050.2,-485.34"/>
<polygon fill="none" stroke="#404040" points="1050.04,-485.28 1042.94,-486.52 1039.06,-480.44 1046.16,-479.2 1050.04,-485.28"/>
<text text-anchor="middle" x="1233" y="-551" font-family="Helvetica,sans-Serif" font-size="10.00"> +DEFAULT_FILL</text>
</g>
<!-- Node24 -->
<g id="node24" class="node">
<title>Node24</title>
<g id="a_node24"><a xlink:href="class_sgl_1_1_fill.html" target="_top" xlink:title=" ">
<polygon fill="white" stroke="black" points="1364,-836.5 1364,-915.5 1428,-915.5 1428,-836.5 1364,-836.5"/>
<text text-anchor="middle" x="1396" y="-903.5" font-family="Helvetica,sans-Serif" font-size="10.00">Sgl::Fill</text>
<polyline fill="none" stroke="black" points="1364,-896.5 1428,-896.5 "/>
<text text-anchor="middle" x="1396" y="-884.5" font-family="Helvetica,sans-Serif" font-size="10.00"> </text>
<polyline fill="none" stroke="black" points="1364,-877.5 1428,-877.5 "/>
<text text-anchor="start" x="1372" y="-865.5" font-family="Helvetica,sans-Serif" font-size="10.00">+ fillLine()</text>
<text text-anchor="start" x="1372" y="-854.5" font-family="Helvetica,sans-Serif" font-size="10.00">+ fillArea()</text>
<text text-anchor="start" x="1372" y="-843.5" font-family="Helvetica,sans-Serif" font-size="10.00">+ fillPoint()</text>
</a>
</g>
</g>
<!-- Node24&#45;&gt;Node23 -->
<g id="edge29" class="edge">
<title>Node24&#45;&gt;Node23</title>
<path fill="none" stroke="midnightblue" d="M1388.77,-825.95C1385.65,-809.24 1381.45,-790.6 1376,-774 1370.36,-756.82 1362.65,-738.8 1354.96,-722.56"/>
<polygon fill="none" stroke="midnightblue" points="1385.37,-826.83 1390.57,-836.06 1392.26,-825.61 1385.37,-826.83"/>
</g>
<!-- Node25 -->
<g id="node25" class="node">
<title>Node25</title>
<g id="a_node25"><a xlink:title=" ">
<polygon fill="white" stroke="#bfbfbf" points="1306,-847.5 1306,-904.5 1346,-904.5 1346,-847.5 1306,-847.5"/>
<text text-anchor="middle" x="1326" y="-892.5" font-family="Helvetica,sans-Serif" font-size="10.00">Color</text>
<polyline fill="none" stroke="#bfbfbf" points="1306,-885.5 1346,-885.5 "/>
<text text-anchor="middle" x="1326" y="-873.5" font-family="Helvetica,sans-Serif" font-size="10.00"> </text>
<polyline fill="none" stroke="#bfbfbf" points="1306,-866.5 1346,-866.5 "/>
<text text-anchor="middle" x="1326" y="-854.5" font-family="Helvetica,sans-Serif" font-size="10.00"> </text>
</a>
</g>
</g>
<!-- Node25&#45;&gt;Node23 -->
<g id="edge30" class="edge">
<title>Node25&#45;&gt;Node23</title>
<path fill="none" stroke="#404040" d="M1326,-847.45C1326,-818.9 1326,-773.19 1326,-734.99"/>
<polygon fill="none" stroke="#404040" points="1326,-734.88 1322,-728.88 1326,-722.88 1330,-728.88 1326,-734.88"/>
<text text-anchor="middle" x="1349" y="-782.5" font-family="Helvetica,sans-Serif" font-size="10.00"> #m_Color</text>
</g>
</g>
</svg>
