<?xml version="1.0" encoding="UTF-8" standalone="no"?>
<!DOCTYPE svg PUBLIC "-//W3C//DTD SVG 1.1//EN"
 "http://www.w3.org/Graphics/SVG/1.1/DTD/svg11.dtd">
<!-- Generated by graphviz version 2.50.0 (20211204.2007)
 -->
<!-- Title: Sgl::AnchorPane Pages: 1 -->
<!--zoomable 1021 -->
<svg id="main" version="1.1" xmlns="http://www.w3.org/2000/svg" xmlns:xlink="http://www.w3.org/1999/xlink" xml:space="preserve" onload="init(evt)">
<style type="text/css"><![CDATA[
.edge:hover path { stroke: red; }
.edge:hover polygon { stroke: red; fill: red; }
]]></style>
<script type="text/javascript"><![CDATA[
var edges = document.getElementsByTagName('g');
if (edges && edges.length) {
  for (var i=0;i<edges.length;i++) {
    if (edges[i].id.substr(0,4)=='edge') {
      edges[i].setAttribute('class','edge');
    }
  }
}
]]></script>
        <defs>
                <circle id="rim" cx="0" cy="0" r="7"/>
                <circle id="rim2" cx="0" cy="0" r="3.5"/>
                <g id="zoomPlus">
                        <use xlink:href="#rim" fill="#404040">
                                <set attributeName="fill" to="#808080" begin="zoomplus.mouseover" end="zoomplus.mouseout"/>
                        </use>
                        <path d="M-4,0h8M0,-4v8" fill="none" stroke="white" stroke-width="1.5" pointer-events="none"/>
                </g>
                <g id="zoomMin">
                        <use xlink:href="#rim" fill="#404040">
                                <set attributeName="fill" to="#808080" begin="zoomminus.mouseover" end="zoomminus.mouseout"/>
                        </use>
                        <path d="M-4,0h8" fill="none" stroke="white" stroke-width="1.5" pointer-events="none"/>
                </g>
                <g id="dirArrow">
                        <path fill="none" stroke="white" stroke-width="1.5" d="M0,-3.0v7 M-2.5,-0.5L0,-3.0L2.5,-0.5"/>
                </g>
               <g id="resetDef">
                       <use xlink:href="#rim2" fill="#404040">
                               <set attributeName="fill" to="#808080" begin="reset.mouseover" end="reset.mouseout"/>
                       </use>
               </g>
        </defs>

<script type="text/javascript">
var viewWidth = 1594;
var viewHeight = 1021;
var sectionId = 'dynsection-1';
</script>
<script xlink:href="svgpan.js"/>
<svg id="graph" class="graph">
<g id="viewport">
<title>Sgl::AnchorPane</title>
<polygon fill="white" stroke="transparent" points="-4,4 -4,-1017 1590,-1017 1590,4 -4,4"/>
<!-- Node1 -->
<g id="node1" class="node">
<title>Node1</title>
<g id="a_node1"><a xlink:title="Allows the edges of components to be anchored to anchor pane&#39;s edges.">
<polygon fill="#bfbfbf" stroke="black" points="1276.5,-0.5 1276.5,-112.5 1449.5,-112.5 1449.5,-0.5 1276.5,-0.5"/>
<text text-anchor="middle" x="1363" y="-100.5" font-family="Helvetica,sans-Serif" font-size="10.00">Sgl::AnchorPane</text>
<polyline fill="none" stroke="black" points="1276.5,-93.5 1449.5,-93.5 "/>
<text text-anchor="middle" x="1363" y="-81.5" font-family="Helvetica,sans-Serif" font-size="10.00"> </text>
<polyline fill="none" stroke="black" points="1276.5,-74.5 1449.5,-74.5 "/>
<text text-anchor="start" x="1284.5" y="-62.5" font-family="Helvetica,sans-Serif" font-size="10.00">+ ~AnchorPane()</text>
<text text-anchor="start" x="1284.5" y="-51.5" font-family="Helvetica,sans-Serif" font-size="10.00">+ getConstraints()</text>
<text text-anchor="start" x="1284.5" y="-40.5" font-family="Helvetica,sans-Serif" font-size="10.00">+ hasConstraints()</text>
<text text-anchor="start" x="1284.5" y="-29.5" font-family="Helvetica,sans-Serif" font-size="10.00">+ setHorizontalRelativePositioning()</text>
<text text-anchor="start" x="1284.5" y="-18.5" font-family="Helvetica,sans-Serif" font-size="10.00">+ setVerticalRelativePositioning()</text>
<text text-anchor="start" x="1284.5" y="-7.5" font-family="Helvetica,sans-Serif" font-size="10.00">and 10 more...</text>
</a>
</g>
</g>
<!-- Node2 -->
<g id="node2" class="node">
<title>Node2</title>
<g id="a_node2"><a xlink:href="class_sgl_1_1_layered_container.html" target="_top" xlink:title=" ">
<polygon fill="white" stroke="black" points="1239.5,-160.5 1239.5,-283.5 1352.5,-283.5 1352.5,-160.5 1239.5,-160.5"/>
<text text-anchor="middle" x="1296" y="-271.5" font-family="Helvetica,sans-Serif" font-size="10.00">Sgl::LayeredContainer</text>
<polyline fill="none" stroke="black" points="1239.5,-264.5 1352.5,-264.5 "/>
<text text-anchor="middle" x="1296" y="-252.5" font-family="Helvetica,sans-Serif" font-size="10.00"> </text>
<polyline fill="none" stroke="black" points="1239.5,-245.5 1352.5,-245.5 "/>
<text text-anchor="start" x="1247.5" y="-233.5" font-family="Helvetica,sans-Serif" font-size="10.00">+ LayeredContainer()</text>
<text text-anchor="start" x="1247.5" y="-222.5" font-family="Helvetica,sans-Serif" font-size="10.00">+ isAutoAdjust()</text>
<text text-anchor="start" x="1247.5" y="-211.5" font-family="Helvetica,sans-Serif" font-size="10.00">+ setAutoAdjust()</text>
<text text-anchor="start" x="1247.5" y="-200.5" font-family="Helvetica,sans-Serif" font-size="10.00">+ moveToFront()</text>
<text text-anchor="start" x="1247.5" y="-189.5" font-family="Helvetica,sans-Serif" font-size="10.00">+ moveToBack()</text>
<text text-anchor="start" x="1247.5" y="-178.5" font-family="Helvetica,sans-Serif" font-size="10.00">+ getFront()</text>
<text text-anchor="start" x="1247.5" y="-167.5" font-family="Helvetica,sans-Serif" font-size="10.00">+ getBack()</text>
</a>
</g>
</g>
<!-- Node2&#45;&gt;Node1 -->
<g id="edge1" class="edge">
<title>Node2&#45;&gt;Node1</title>
<path fill="none" stroke="midnightblue" d="M1324.87,-150.55C1330.05,-137.91 1335.38,-124.9 1340.35,-112.76"/>
<polygon fill="none" stroke="midnightblue" points="1321.5,-149.54 1320.95,-160.12 1327.98,-152.19 1321.5,-149.54"/>
</g>
<!-- Node3 -->
<g id="node3" class="node">
<title>Node3</title>
<g id="a_node3"><a xlink:href="class_sgl_1_1_container.html" target="_top" xlink:title=" ">
<polygon fill="white" stroke="black" points="1242,-343.5 1242,-444.5 1350,-444.5 1350,-343.5 1242,-343.5"/>
<text text-anchor="middle" x="1296" y="-432.5" font-family="Helvetica,sans-Serif" font-size="10.00">Sgl::Container</text>
<polyline fill="none" stroke="black" points="1242,-425.5 1350,-425.5 "/>
<text text-anchor="middle" x="1296" y="-413.5" font-family="Helvetica,sans-Serif" font-size="10.00"> </text>
<polyline fill="none" stroke="black" points="1242,-406.5 1350,-406.5 "/>
<text text-anchor="start" x="1250" y="-394.5" font-family="Helvetica,sans-Serif" font-size="10.00">+ Container()</text>
<text text-anchor="start" x="1250" y="-383.5" font-family="Helvetica,sans-Serif" font-size="10.00">+ ~Container()</text>
<text text-anchor="start" x="1250" y="-372.5" font-family="Helvetica,sans-Serif" font-size="10.00">+ getHitComponent()</text>
<text text-anchor="start" x="1250" y="-361.5" font-family="Helvetica,sans-Serif" font-size="10.00">+ render()</text>
<text text-anchor="start" x="1250" y="-350.5" font-family="Helvetica,sans-Serif" font-size="10.00"># prerenderSelf()</text>
</a>
</g>
</g>
<!-- Node3&#45;&gt;Node2 -->
<g id="edge2" class="edge">
<title>Node3&#45;&gt;Node2</title>
<path fill="none" stroke="midnightblue" d="M1296,-333.04C1296,-316.99 1296,-299.63 1296,-283.54"/>
<polygon fill="none" stroke="midnightblue" points="1292.5,-333.37 1296,-343.37 1299.5,-333.37 1292.5,-333.37"/>
</g>
<!-- Node4 -->
<g id="node4" class="node">
<title>Node4</title>
<g id="a_node4"><a xlink:href="class_sgl_1_1_parent.html" target="_top" xlink:title=" ">
<polygon fill="white" stroke="black" points="816,-514.5 816,-692.5 962,-692.5 962,-514.5 816,-514.5"/>
<text text-anchor="middle" x="889" y="-680.5" font-family="Helvetica,sans-Serif" font-size="10.00">Sgl::Parent</text>
<polyline fill="none" stroke="black" points="816,-673.5 962,-673.5 "/>
<text text-anchor="middle" x="889" y="-661.5" font-family="Helvetica,sans-Serif" font-size="10.00"> </text>
<polyline fill="none" stroke="black" points="816,-654.5 962,-654.5 "/>
<text text-anchor="start" x="824" y="-642.5" font-family="Helvetica,sans-Serif" font-size="10.00">+ Parent()</text>
<text text-anchor="start" x="824" y="-631.5" font-family="Helvetica,sans-Serif" font-size="10.00">+ ~Parent()</text>
<text text-anchor="start" x="824" y="-620.5" font-family="Helvetica,sans-Serif" font-size="10.00">+ getHitComponent()</text>
<text text-anchor="start" x="824" y="-609.5" font-family="Helvetica,sans-Serif" font-size="10.00">+ render()</text>
<text text-anchor="start" x="824" y="-598.5" font-family="Helvetica,sans-Serif" font-size="10.00">+ layout()</text>
<text text-anchor="start" x="824" y="-587.5" font-family="Helvetica,sans-Serif" font-size="10.00">and 38 more...</text>
<text text-anchor="start" x="824" y="-576.5" font-family="Helvetica,sans-Serif" font-size="10.00"># setSceneInSceneTree()</text>
<text text-anchor="start" x="824" y="-565.5" font-family="Helvetica,sans-Serif" font-size="10.00"># layoutChildren()</text>
<text text-anchor="start" x="824" y="-554.5" font-family="Helvetica,sans-Serif" font-size="10.00"># prerenderSelf()</text>
<text text-anchor="start" x="824" y="-543.5" font-family="Helvetica,sans-Serif" font-size="10.00"># updateSnapshotSize()</text>
<text text-anchor="start" x="824" y="-532.5" font-family="Helvetica,sans-Serif" font-size="10.00"># computeCustomPrefWidth()</text>
<text text-anchor="start" x="824" y="-521.5" font-family="Helvetica,sans-Serif" font-size="10.00">and 5 more...</text>
</a>
</g>
</g>
<!-- Node4&#45;&gt;Node3 -->
<g id="edge3" class="edge">
<title>Node4&#45;&gt;Node3</title>
<path fill="none" stroke="midnightblue" d="M971.38,-560.5C1052.05,-519.37 1172.65,-457.89 1241.88,-422.59"/>
<polygon fill="none" stroke="midnightblue" points="969.55,-557.5 962.23,-565.16 972.73,-563.74 969.55,-557.5"/>
</g>
<!-- Node5 -->
<g id="node5" class="node">
<title>Node5</title>
<g id="a_node5"><a xlink:href="class_sgl_1_1_component.html" target="_top" xlink:title=" ">
<polygon fill="white" stroke="black" points="276,-321.5 276,-466.5 404,-466.5 404,-321.5 276,-321.5"/>
<text text-anchor="middle" x="340" y="-454.5" font-family="Helvetica,sans-Serif" font-size="10.00">Sgl::Component</text>
<polyline fill="none" stroke="black" points="276,-447.5 404,-447.5 "/>
<text text-anchor="middle" x="340" y="-435.5" font-family="Helvetica,sans-Serif" font-size="10.00"> </text>
<polyline fill="none" stroke="black" points="276,-428.5 404,-428.5 "/>
<text text-anchor="start" x="284" y="-416.5" font-family="Helvetica,sans-Serif" font-size="10.00">+ Component()</text>
<text text-anchor="start" x="284" y="-405.5" font-family="Helvetica,sans-Serif" font-size="10.00">+ ~Component()</text>
<text text-anchor="start" x="284" y="-394.5" font-family="Helvetica,sans-Serif" font-size="10.00">+ getHitComponent()</text>
<text text-anchor="start" x="284" y="-383.5" font-family="Helvetica,sans-Serif" font-size="10.00">+ render()</text>
<text text-anchor="start" x="284" y="-372.5" font-family="Helvetica,sans-Serif" font-size="10.00">+ layout()</text>
<text text-anchor="start" x="284" y="-361.5" font-family="Helvetica,sans-Serif" font-size="10.00">and 37 more...</text>
<text text-anchor="start" x="284" y="-350.5" font-family="Helvetica,sans-Serif" font-size="10.00"># updateShadow()</text>
<text text-anchor="start" x="284" y="-339.5" font-family="Helvetica,sans-Serif" font-size="10.00"># renderShadow()</text>
<text text-anchor="start" x="284" y="-328.5" font-family="Helvetica,sans-Serif" font-size="10.00"># setSceneInSceneTree()</text>
</a>
</g>
</g>
<!-- Node4&#45;&gt;Node5 -->
<g id="edge15" class="edge">
<title>Node4&#45;&gt;Node5</title>
<path fill="none" stroke="#404040" d="M815.96,-567.32C763.47,-542.7 690.68,-509.89 625,-485 555.1,-458.5 473.61,-433.32 415.71,-416.37"/>
<polygon fill="none" stroke="#404040" points="415.61,-416.34 408.74,-418.51 404.09,-412.99 410.97,-410.83 415.61,-416.34"/>
<text text-anchor="middle" x="672.5" y="-488" font-family="Helvetica,sans-Serif" font-size="10.00"> #m_Parent</text>
</g>
<!-- Node5&#45;&gt;Node4 -->
<g id="edge4" class="edge">
<title>Node5&#45;&gt;Node4</title>
<path fill="none" stroke="midnightblue" d="M414.16,-398.01C503.25,-404.35 654.94,-424.04 769,-485 785.59,-493.86 801.43,-505.72 815.86,-518.5"/>
<polygon fill="none" stroke="midnightblue" points="414.36,-394.51 404.15,-397.33 413.89,-401.5 414.36,-394.51"/>
</g>
<!-- Node6 -->
<g id="node6" class="node">
<title>Node6</title>
<g id="a_node6"><a xlink:title=" ">
<polygon fill="white" stroke="#bfbfbf" points="39,-784.5 39,-841.5 131,-841.5 131,-784.5 39,-784.5"/>
<text text-anchor="middle" x="85" y="-829.5" font-family="Helvetica,sans-Serif" font-size="10.00">Sml::EventTarget</text>
<polyline fill="none" stroke="#bfbfbf" points="39,-822.5 131,-822.5 "/>
<text text-anchor="middle" x="85" y="-810.5" font-family="Helvetica,sans-Serif" font-size="10.00"> </text>
<polyline fill="none" stroke="#bfbfbf" points="39,-803.5 131,-803.5 "/>
<text text-anchor="middle" x="85" y="-791.5" font-family="Helvetica,sans-Serif" font-size="10.00"> </text>
</a>
</g>
</g>
<!-- Node6&#45;&gt;Node5 -->
<g id="edge5" class="edge">
<title>Node6&#45;&gt;Node5</title>
<path fill="none" stroke="midnightblue" d="M87.94,-774.27C93.72,-704.98 107.71,-560.34 127,-514 151.83,-454.36 222.66,-423.55 275.88,-408.38"/>
<polygon fill="none" stroke="midnightblue" points="84.44,-774.07 87.11,-784.32 91.42,-774.64 84.44,-774.07"/>
</g>
<!-- Node14 -->
<g id="node14" class="node">
<title>Node14</title>
<g id="a_node14"><a xlink:href="class_sgl_1_1_scene.html" target="_top" xlink:title=" ">
<polygon fill="white" stroke="black" points="0,-547.5 0,-659.5 80,-659.5 80,-547.5 0,-547.5"/>
<text text-anchor="middle" x="40" y="-647.5" font-family="Helvetica,sans-Serif" font-size="10.00">Sgl::Scene</text>
<polyline fill="none" stroke="black" points="0,-640.5 80,-640.5 "/>
<text text-anchor="middle" x="40" y="-628.5" font-family="Helvetica,sans-Serif" font-size="10.00"> </text>
<polyline fill="none" stroke="black" points="0,-621.5 80,-621.5 "/>
<text text-anchor="start" x="8" y="-609.5" font-family="Helvetica,sans-Serif" font-size="10.00">+ Scene()</text>
<text text-anchor="start" x="8" y="-598.5" font-family="Helvetica,sans-Serif" font-size="10.00">+ Scene()</text>
<text text-anchor="start" x="8" y="-587.5" font-family="Helvetica,sans-Serif" font-size="10.00">+ ~Scene()</text>
<text text-anchor="start" x="8" y="-576.5" font-family="Helvetica,sans-Serif" font-size="10.00">+ update()</text>
<text text-anchor="start" x="8" y="-565.5" font-family="Helvetica,sans-Serif" font-size="10.00">+ render()</text>
<text text-anchor="start" x="8" y="-554.5" font-family="Helvetica,sans-Serif" font-size="10.00">and 17 more...</text>
</a>
</g>
</g>
<!-- Node6&#45;&gt;Node14 -->
<g id="edge14" class="edge">
<title>Node6&#45;&gt;Node14</title>
<path fill="none" stroke="midnightblue" d="M76.89,-774.6C69.96,-742.63 59.88,-696.17 52.01,-659.88"/>
<polygon fill="none" stroke="midnightblue" points="73.48,-775.41 79.02,-784.45 80.33,-773.93 73.48,-775.41"/>
</g>
<!-- Node7 -->
<g id="node7" class="node">
<title>Node7</title>
<g id="a_node7"><a xlink:title=" ">
<polygon fill="white" stroke="#bfbfbf" points="999,-955.5 999,-1012.5 1045,-1012.5 1045,-955.5 999,-955.5"/>
<text text-anchor="middle" x="1022" y="-1000.5" font-family="Helvetica,sans-Serif" font-size="10.00">int32_t</text>
<polyline fill="none" stroke="#bfbfbf" points="999,-993.5 1045,-993.5 "/>
<text text-anchor="middle" x="1022" y="-981.5" font-family="Helvetica,sans-Serif" font-size="10.00"> </text>
<polyline fill="none" stroke="#bfbfbf" points="999,-974.5 1045,-974.5 "/>
<text text-anchor="middle" x="1022" y="-962.5" font-family="Helvetica,sans-Serif" font-size="10.00"> </text>
</a>
</g>
</g>
<!-- Node7&#45;&gt;Node4 -->
<g id="edge25" class="edge">
<title>Node7&#45;&gt;Node4</title>
<path fill="none" stroke="#404040" d="M1045.41,-968.51C1072.17,-950.41 1114.5,-916.71 1132,-875 1153.32,-824.18 1159.1,-798.99 1132,-751 1098.29,-691.31 1029.42,-653.22 973.58,-630.89"/>
<polygon fill="none" stroke="#404040" points="973.43,-630.83 966.39,-632.4 962.24,-626.5 969.28,-624.94 973.43,-630.83"/>
<text text-anchor="middle" x="1186" y="-838" font-family="Helvetica,sans-Serif" font-size="10.00"> #m_MaxHeight</text>
<text text-anchor="middle" x="1186" y="-827" font-family="Helvetica,sans-Serif" font-size="10.00">#m_MaxWidth</text>
<text text-anchor="middle" x="1186" y="-816" font-family="Helvetica,sans-Serif" font-size="10.00">#m_MinHeight</text>
<text text-anchor="middle" x="1186" y="-805" font-family="Helvetica,sans-Serif" font-size="10.00">#m_MinWidth</text>
<text text-anchor="middle" x="1186" y="-794" font-family="Helvetica,sans-Serif" font-size="10.00">#m_PrefHeight</text>
<text text-anchor="middle" x="1186" y="-783" font-family="Helvetica,sans-Serif" font-size="10.00">#m_PrefWidth</text>
</g>
<!-- Node7&#45;&gt;Node5 -->
<g id="edge6" class="edge">
<title>Node7&#45;&gt;Node5</title>
<path fill="none" stroke="#404040" d="M998.81,-982.4C888.84,-979.15 420.63,-960.41 308,-875 176.9,-775.58 164.67,-666.67 226,-514 234.99,-491.62 250.42,-471.07 267.08,-453.58"/>
<polygon fill="none" stroke="#404040" points="267.42,-453.24 268.81,-446.16 275.87,-444.72 274.49,-451.8 267.42,-453.24"/>
<text text-anchor="middle" x="258" y="-725" font-family="Helvetica,sans-Serif" font-size="10.00"> +UNLIMITED_SIZE</text>
<text text-anchor="middle" x="258" y="-714" font-family="Helvetica,sans-Serif" font-size="10.00">+USE_COMPUTED_SIZE</text>
</g>
<!-- Node20 -->
<g id="node20" class="node">
<title>Node20</title>
<g id="a_node20"><a xlink:href="struct_sgl_1_1_insets.html" target="_top" xlink:title=" ">
<polygon fill="white" stroke="black" points="982.5,-757 982.5,-869 1061.5,-869 1061.5,-757 982.5,-757"/>
<text text-anchor="middle" x="1022" y="-857" font-family="Helvetica,sans-Serif" font-size="10.00">Sgl::Insets</text>
<polyline fill="none" stroke="black" points="982.5,-850 1061.5,-850 "/>
<text text-anchor="middle" x="1022" y="-838" font-family="Helvetica,sans-Serif" font-size="10.00"> </text>
<polyline fill="none" stroke="black" points="982.5,-831 1061.5,-831 "/>
<text text-anchor="start" x="990.5" y="-819" font-family="Helvetica,sans-Serif" font-size="10.00">+ Insets()</text>
<text text-anchor="start" x="990.5" y="-808" font-family="Helvetica,sans-Serif" font-size="10.00">+ Insets()</text>
<text text-anchor="start" x="990.5" y="-797" font-family="Helvetica,sans-Serif" font-size="10.00">+ Insets()</text>
<text text-anchor="start" x="990.5" y="-786" font-family="Helvetica,sans-Serif" font-size="10.00">+ Insets()</text>
<text text-anchor="start" x="990.5" y="-775" font-family="Helvetica,sans-Serif" font-size="10.00">+ operator+=()</text>
<text text-anchor="start" x="990.5" y="-764" font-family="Helvetica,sans-Serif" font-size="10.00">+ operator&#45;=()</text>
</a>
</g>
</g>
<!-- Node7&#45;&gt;Node20 -->
<g id="edge24" class="edge">
<title>Node7&#45;&gt;Node20</title>
<path fill="none" stroke="#404040" d="M1022,-955.47C1022,-935.37 1022,-907.21 1022,-881.3"/>
<polygon fill="none" stroke="#404040" points="1022,-881.2 1018,-875.2 1022,-869.2 1026,-875.2 1022,-881.2"/>
<text text-anchor="middle" x="1042" y="-929" font-family="Helvetica,sans-Serif" font-size="10.00"> +bottom</text>
<text text-anchor="middle" x="1042" y="-918" font-family="Helvetica,sans-Serif" font-size="10.00">+left</text>
<text text-anchor="middle" x="1042" y="-907" font-family="Helvetica,sans-Serif" font-size="10.00">+right</text>
<text text-anchor="middle" x="1042" y="-896" font-family="Helvetica,sans-Serif" font-size="10.00">+top</text>
</g>
<!-- Node8 -->
<g id="node8" class="node">
<title>Node8</title>
<g id="a_node8"><a xlink:title=" ">
<polygon fill="white" stroke="#bfbfbf" points="136.5,-575 136.5,-632 177.5,-632 177.5,-575 136.5,-575"/>
<text text-anchor="middle" x="157" y="-620" font-family="Helvetica,sans-Serif" font-size="10.00">friend</text>
<polyline fill="none" stroke="#bfbfbf" points="136.5,-613 177.5,-613 "/>
<text text-anchor="middle" x="157" y="-601" font-family="Helvetica,sans-Serif" font-size="10.00"> </text>
<polyline fill="none" stroke="#bfbfbf" points="136.5,-594 177.5,-594 "/>
<text text-anchor="middle" x="157" y="-582" font-family="Helvetica,sans-Serif" font-size="10.00"> </text>
</a>
</g>
</g>
<!-- Node8&#45;&gt;Node5 -->
<g id="edge7" class="edge">
<title>Node8&#45;&gt;Node5</title>
<path fill="none" stroke="#404040" d="M149.2,-574.6C143.81,-549.25 140.29,-511.84 157,-485 180.45,-447.33 224.8,-424.97 263.97,-411.96"/>
<polygon fill="none" stroke="#404040" points="264.21,-411.89 268.74,-406.28 275.66,-408.3 271.13,-413.91 264.21,-411.89"/>
<text text-anchor="middle" x="175.5" y="-488" font-family="Helvetica,sans-Serif" font-size="10.00"> +Scene</text>
</g>
<!-- Node9 -->
<g id="node9" class="node">
<title>Node9</title>
<g id="a_node9"><a xlink:title=" ">
<polygon fill="white" stroke="#bfbfbf" points="610.5,-784.5 610.5,-841.5 645.5,-841.5 645.5,-784.5 610.5,-784.5"/>
<text text-anchor="middle" x="628" y="-829.5" font-family="Helvetica,sans-Serif" font-size="10.00">bool</text>
<polyline fill="none" stroke="#bfbfbf" points="610.5,-822.5 645.5,-822.5 "/>
<text text-anchor="middle" x="628" y="-810.5" font-family="Helvetica,sans-Serif" font-size="10.00"> </text>
<polyline fill="none" stroke="#bfbfbf" points="610.5,-803.5 645.5,-803.5 "/>
<text text-anchor="middle" x="628" y="-791.5" font-family="Helvetica,sans-Serif" font-size="10.00"> </text>
</a>
</g>
</g>
<!-- Node9&#45;&gt;Node4 -->
<g id="edge19" class="edge">
<title>Node9&#45;&gt;Node4</title>
<path fill="none" stroke="#404040" d="M632.89,-784.15C638.03,-762 648.12,-731.43 667,-711 703.78,-671.21 758.56,-644.71 804.5,-628.1"/>
<polygon fill="none" stroke="#404040" points="804.65,-628.05 808.99,-622.29 815.98,-624.08 811.63,-629.84 804.65,-628.05"/>
<text text-anchor="middle" x="715.5" y="-719.5" font-family="Helvetica,sans-Serif" font-size="10.00"> #m_NeedLayoutPass</text>
</g>
<!-- Node9&#45;&gt;Node5 -->
<g id="edge8" class="edge">
<title>Node9&#45;&gt;Node5</title>
<path fill="none" stroke="#404040" d="M632.77,-784.12C641.9,-720.47 654.02,-563.85 569,-485 526.47,-445.55 464.62,-422.63 415.91,-409.8"/>
<polygon fill="none" stroke="#404040" points="415.79,-409.77 408.99,-412.18 404.15,-406.83 410.95,-404.42 415.79,-409.77"/>
<text text-anchor="middle" x="670" y="-612" font-family="Helvetica,sans-Serif" font-size="10.00"> #m_Focused</text>
<text text-anchor="middle" x="670" y="-601" font-family="Helvetica,sans-Serif" font-size="10.00">#m_Hovered</text>
<text text-anchor="middle" x="670" y="-590" font-family="Helvetica,sans-Serif" font-size="10.00">#m_Visible</text>
</g>
<!-- Node10 -->
<g id="node10" class="node">
<title>Node10</title>
<g id="a_node10"><a xlink:href="class_sgl_1_1_shadow.html" target="_top" xlink:title=" ">
<polygon fill="white" stroke="black" points="235.5,-542 235.5,-665 336.5,-665 336.5,-542 235.5,-542"/>
<text text-anchor="middle" x="286" y="-653" font-family="Helvetica,sans-Serif" font-size="10.00">Sgl::Shadow</text>
<polyline fill="none" stroke="black" points="235.5,-646 336.5,-646 "/>
<text text-anchor="middle" x="286" y="-634" font-family="Helvetica,sans-Serif" font-size="10.00"> </text>
<polyline fill="none" stroke="black" points="235.5,-627 336.5,-627 "/>
<text text-anchor="start" x="243.5" y="-615" font-family="Helvetica,sans-Serif" font-size="10.00">+ Shadow()</text>
<text text-anchor="start" x="243.5" y="-604" font-family="Helvetica,sans-Serif" font-size="10.00">+ ~Shadow()</text>
<text text-anchor="start" x="243.5" y="-593" font-family="Helvetica,sans-Serif" font-size="10.00">+ update()</text>
<text text-anchor="start" x="243.5" y="-582" font-family="Helvetica,sans-Serif" font-size="10.00">+ render()</text>
<text text-anchor="start" x="243.5" y="-571" font-family="Helvetica,sans-Serif" font-size="10.00">+ getTexture()</text>
<text text-anchor="start" x="243.5" y="-560" font-family="Helvetica,sans-Serif" font-size="10.00">+ getSpecification()</text>
<text text-anchor="start" x="243.5" y="-549" font-family="Helvetica,sans-Serif" font-size="10.00">+ setSpecification()</text>
</a>
</g>
</g>
<!-- Node10&#45;&gt;Node5 -->
<g id="edge9" class="edge">
<title>Node10&#45;&gt;Node5</title>
<path fill="none" stroke="#404040" d="M299.12,-541.93C303.31,-523.58 308.13,-503.41 313,-485 313.59,-482.75 314.21,-480.48 314.83,-478.18"/>
<polygon fill="none" stroke="#404040" points="314.84,-478.16 312.59,-471.31 318.06,-466.6 320.3,-473.46 314.84,-478.16"/>
<text text-anchor="middle" x="342" y="-488" font-family="Helvetica,sans-Serif" font-size="10.00"> #m_Shadow</text>
</g>
<!-- Node11 -->
<g id="node11" class="node">
<title>Node11</title>
<g id="a_node11"><a xlink:href="class_gui_event_dispatcher.html" target="_top" xlink:title=" ">
<polygon fill="white" stroke="black" points="354.5,-536.5 354.5,-670.5 489.5,-670.5 489.5,-536.5 354.5,-536.5"/>
<text text-anchor="middle" x="422" y="-658.5" font-family="Helvetica,sans-Serif" font-size="10.00">GuiEventDispatcher</text>
<polyline fill="none" stroke="black" points="354.5,-651.5 489.5,-651.5 "/>
<text text-anchor="middle" x="422" y="-639.5" font-family="Helvetica,sans-Serif" font-size="10.00"> </text>
<polyline fill="none" stroke="black" points="354.5,-632.5 489.5,-632.5 "/>
<text text-anchor="start" x="362.5" y="-620.5" font-family="Helvetica,sans-Serif" font-size="10.00">+ ~GuiEventDispatcher()</text>
<text text-anchor="start" x="362.5" y="-609.5" font-family="Helvetica,sans-Serif" font-size="10.00">+ attachFilter()</text>
<text text-anchor="start" x="362.5" y="-598.5" font-family="Helvetica,sans-Serif" font-size="10.00">+ detachFilter()</text>
<text text-anchor="start" x="362.5" y="-587.5" font-family="Helvetica,sans-Serif" font-size="10.00">+ attachHandler()</text>
<text text-anchor="start" x="362.5" y="-576.5" font-family="Helvetica,sans-Serif" font-size="10.00">+ detachHandler()</text>
<text text-anchor="start" x="362.5" y="-565.5" font-family="Helvetica,sans-Serif" font-size="10.00">+ dispatchEvent()</text>
<text text-anchor="start" x="362.5" y="-554.5" font-family="Helvetica,sans-Serif" font-size="10.00"># dispatchCapturingEvent()</text>
<text text-anchor="start" x="362.5" y="-543.5" font-family="Helvetica,sans-Serif" font-size="10.00"># dispatchBubblingEvent()</text>
</a>
</g>
</g>
<!-- Node11&#45;&gt;Node5 -->
<g id="edge10" class="edge">
<title>Node11&#45;&gt;Node5</title>
<path fill="none" stroke="#404040" d="M395.83,-536.28C388.5,-517.73 380.45,-497.35 372.79,-477.97"/>
<polygon fill="none" stroke="#404040" points="372.74,-477.85 366.82,-473.74 368.33,-466.69 374.26,-470.8 372.74,-477.85"/>
<text text-anchor="middle" x="414" y="-488" font-family="Helvetica,sans-Serif" font-size="10.00"> #m_Dispatcher</text>
</g>
<!-- Node12 -->
<g id="node12" class="node">
<title>Node12</title>
<g id="a_node12"><a xlink:title=" ">
<polygon fill="white" stroke="#bfbfbf" points="317.5,-784.5 317.5,-841.5 430.5,-841.5 430.5,-784.5 317.5,-784.5"/>
<text text-anchor="middle" x="374" y="-829.5" font-family="Helvetica,sans-Serif" font-size="10.00">Sml::EventDispatcher</text>
<polyline fill="none" stroke="#bfbfbf" points="317.5,-822.5 430.5,-822.5 "/>
<text text-anchor="middle" x="374" y="-810.5" font-family="Helvetica,sans-Serif" font-size="10.00"> </text>
<polyline fill="none" stroke="#bfbfbf" points="317.5,-803.5 430.5,-803.5 "/>
<text text-anchor="middle" x="374" y="-791.5" font-family="Helvetica,sans-Serif" font-size="10.00"> </text>
</a>
</g>
</g>
<!-- Node12&#45;&gt;Node11 -->
<g id="edge11" class="edge">
<title>Node12&#45;&gt;Node11</title>
<path fill="none" stroke="midnightblue" d="M382.7,-774.37C389.38,-745.5 398.77,-704.91 406.7,-670.65"/>
<polygon fill="none" stroke="midnightblue" points="379.22,-773.91 380.37,-784.45 386.04,-775.49 379.22,-773.91"/>
</g>
<!-- Node13 -->
<g id="node13" class="node">
<title>Node13</title>
<g id="a_node13"><a xlink:title=" ">
<polygon fill="white" stroke="#bfbfbf" points="449,-784.5 449,-841.5 497,-841.5 497,-784.5 449,-784.5"/>
<text text-anchor="middle" x="473" y="-829.5" font-family="Helvetica,sans-Serif" font-size="10.00">Notifier</text>
<polyline fill="none" stroke="#bfbfbf" points="449,-822.5 497,-822.5 "/>
<text text-anchor="middle" x="473" y="-810.5" font-family="Helvetica,sans-Serif" font-size="10.00"> </text>
<polyline fill="none" stroke="#bfbfbf" points="449,-803.5 497,-803.5 "/>
<text text-anchor="middle" x="473" y="-791.5" font-family="Helvetica,sans-Serif" font-size="10.00"> </text>
</a>
</g>
</g>
<!-- Node13&#45;&gt;Node11 -->
<g id="edge12" class="edge">
<title>Node13&#45;&gt;Node11</title>
<path fill="none" stroke="#404040" d="M466.23,-784.45C459.85,-758.5 449.99,-718.37 441.19,-682.59"/>
<polygon fill="none" stroke="#404040" points="441.12,-682.3 435.81,-677.43 438.26,-670.65 443.58,-675.52 441.12,-682.3"/>
<text text-anchor="middle" x="499" y="-725" font-family="Helvetica,sans-Serif" font-size="10.00"> #m_FiltersNotifier</text>
<text text-anchor="middle" x="499" y="-714" font-family="Helvetica,sans-Serif" font-size="10.00">#m_HandlersNotifier</text>
</g>
<!-- Node14&#45;&gt;Node5 -->
<g id="edge13" class="edge">
<title>Node14&#45;&gt;Node5</title>
<path fill="none" stroke="#404040" d="M28.99,-547.33C27.79,-525.91 30.64,-502.4 44,-485 70.86,-450.02 185.06,-422.88 263.49,-407.92"/>
<polygon fill="none" stroke="#404040" points="263.96,-407.83 269.12,-402.8 275.75,-405.63 270.59,-410.66 263.96,-407.83"/>
<text text-anchor="middle" x="69" y="-488" font-family="Helvetica,sans-Serif" font-size="10.00"> #m_Scene</text>
</g>
<!-- Node15 -->
<g id="node15" class="node">
<title>Node15</title>
<g id="a_node15"><a xlink:title=" ">
<polygon fill="white" stroke="#bfbfbf" points="507.5,-575 507.5,-632 574.5,-632 574.5,-575 507.5,-575"/>
<text text-anchor="middle" x="541" y="-620" font-family="Helvetica,sans-Serif" font-size="10.00">Rectangle&lt;</text>
<polyline fill="none" stroke="#bfbfbf" points="507.5,-613 574.5,-613 "/>
<text text-anchor="middle" x="541" y="-601" font-family="Helvetica,sans-Serif" font-size="10.00"> </text>
<polyline fill="none" stroke="#bfbfbf" points="507.5,-594 574.5,-594 "/>
<text text-anchor="middle" x="541" y="-582" font-family="Helvetica,sans-Serif" font-size="10.00"> </text>
</a>
</g>
</g>
<!-- Node15&#45;&gt;Node5 -->
<g id="edge16" class="edge">
<title>Node15&#45;&gt;Node5</title>
<path fill="none" stroke="#404040" d="M531.41,-574.62C524.14,-556.14 512.87,-532.07 498,-514 474.57,-485.54 443.01,-460.03 414.26,-439.99"/>
<polygon fill="none" stroke="#404040" points="414.13,-439.9 406.92,-439.82 404.22,-433.13 411.43,-433.22 414.13,-439.9"/>
<text text-anchor="middle" x="522.5" y="-488" font-family="Helvetica,sans-Serif" font-size="10.00"> #m_LayoutBounds</text>
</g>
<!-- Node16 -->
<g id="node16" class="node">
<title>Node16</title>
<g id="a_node16"><a xlink:title=" ">
<polygon fill="white" stroke="#bfbfbf" points="746.5,-784.5 746.5,-841.5 781.5,-841.5 781.5,-784.5 746.5,-784.5"/>
<text text-anchor="middle" x="764" y="-829.5" font-family="Helvetica,sans-Serif" font-size="10.00">list&lt;</text>
<polyline fill="none" stroke="#bfbfbf" points="746.5,-822.5 781.5,-822.5 "/>
<text text-anchor="middle" x="764" y="-810.5" font-family="Helvetica,sans-Serif" font-size="10.00"> </text>
<polyline fill="none" stroke="#bfbfbf" points="746.5,-803.5 781.5,-803.5 "/>
<text text-anchor="middle" x="764" y="-791.5" font-family="Helvetica,sans-Serif" font-size="10.00"> </text>
</a>
</g>
</g>
<!-- Node16&#45;&gt;Node4 -->
<g id="edge17" class="edge">
<title>Node16&#45;&gt;Node4</title>
<path fill="none" stroke="#404040" d="M761.96,-784.4C761.55,-763.24 763.56,-733.87 775,-711 782.98,-695.06 794.39,-680.28 806.94,-667.11"/>
<polygon fill="none" stroke="#404040" points="807.3,-666.75 808.71,-659.67 815.78,-658.26 814.37,-665.33 807.3,-666.75"/>
<text text-anchor="middle" x="804" y="-719.5" font-family="Helvetica,sans-Serif" font-size="10.00"> #m_Children</text>
</g>
<!-- Node17 -->
<g id="node17" class="node">
<title>Node17</title>
<g id="a_node17"><a xlink:title=" ">
<polygon fill="white" stroke="#bfbfbf" points="800,-784.5 800,-841.5 856,-841.5 856,-784.5 800,-784.5"/>
<text text-anchor="middle" x="828" y="-829.5" font-family="Helvetica,sans-Serif" font-size="10.00">Texture *</text>
<polyline fill="none" stroke="#bfbfbf" points="800,-822.5 856,-822.5 "/>
<text text-anchor="middle" x="828" y="-810.5" font-family="Helvetica,sans-Serif" font-size="10.00"> </text>
<polyline fill="none" stroke="#bfbfbf" points="800,-803.5 856,-803.5 "/>
<text text-anchor="middle" x="828" y="-791.5" font-family="Helvetica,sans-Serif" font-size="10.00"> </text>
</a>
</g>
</g>
<!-- Node17&#45;&gt;Node4 -->
<g id="edge18" class="edge">
<title>Node17&#45;&gt;Node4</title>
<path fill="none" stroke="#404040" d="M829.77,-784.14C831.58,-763.61 835.13,-735.18 842,-711 842.64,-708.74 843.32,-706.47 844.04,-704.18"/>
<polygon fill="none" stroke="#404040" points="844.06,-704.11 842.17,-697.15 847.87,-692.73 849.76,-699.69 844.06,-704.11"/>
<text text-anchor="middle" x="874" y="-719.5" font-family="Helvetica,sans-Serif" font-size="10.00"> #m_Snapshot</text>
</g>
<!-- Node18 -->
<g id="node18" class="node">
<title>Node18</title>
<g id="a_node18"><a xlink:href="class_sgl_1_1_background.html" target="_top" xlink:title=" ">
<polygon fill="white" stroke="black" points="1407.5,-751.5 1407.5,-874.5 1496.5,-874.5 1496.5,-751.5 1407.5,-751.5"/>
<text text-anchor="middle" x="1452" y="-862.5" font-family="Helvetica,sans-Serif" font-size="10.00">Sgl::Background</text>
<polyline fill="none" stroke="black" points="1407.5,-855.5 1496.5,-855.5 "/>
<text text-anchor="middle" x="1452" y="-843.5" font-family="Helvetica,sans-Serif" font-size="10.00"> </text>
<polyline fill="none" stroke="black" points="1407.5,-836.5 1496.5,-836.5 "/>
<text text-anchor="start" x="1415.5" y="-824.5" font-family="Helvetica,sans-Serif" font-size="10.00">+ Background()</text>
<text text-anchor="start" x="1415.5" y="-813.5" font-family="Helvetica,sans-Serif" font-size="10.00">+ Background()</text>
<text text-anchor="start" x="1415.5" y="-802.5" font-family="Helvetica,sans-Serif" font-size="10.00">+ Background()</text>
<text text-anchor="start" x="1415.5" y="-791.5" font-family="Helvetica,sans-Serif" font-size="10.00">+ Background()</text>
<text text-anchor="start" x="1415.5" y="-780.5" font-family="Helvetica,sans-Serif" font-size="10.00">+ addFill()</text>
<text text-anchor="start" x="1415.5" y="-769.5" font-family="Helvetica,sans-Serif" font-size="10.00">and 5 more...</text>
<text text-anchor="start" x="1415.5" y="-758.5" font-family="Helvetica,sans-Serif" font-size="10.00">+ fillArea()</text>
</a>
</g>
</g>
<!-- Node18&#45;&gt;Node3 -->
<g id="edge29" class="edge">
<title>Node18&#45;&gt;Node3</title>
<path fill="none" stroke="#404040" d="M1459.19,-751.41C1459.61,-738.04 1459.15,-723.99 1457,-711 1439.66,-606.31 1434.53,-576.03 1380,-485 1373.59,-474.3 1365.74,-463.8 1357.44,-453.97"/>
<polygon fill="none" stroke="#404040" points="1357.28,-453.79 1350.32,-451.91 1349.37,-444.76 1356.33,-446.64 1357.28,-453.79"/>
<text text-anchor="middle" x="1519.5" y="-601" font-family="Helvetica,sans-Serif" font-size="10.00"> +DEFAULT_BACKGROUND</text>
</g>
<!-- Node18&#45;&gt;Node4 -->
<g id="edge20" class="edge">
<title>Node18&#45;&gt;Node4</title>
<path fill="none" stroke="#404040" d="M1407.49,-760.22C1387.2,-737.17 1366.31,-714.42 1360,-711 1316.46,-687.38 1298.54,-702.91 1250,-693 1154.92,-673.6 1046.98,-646.45 974.09,-627.36"/>
<polygon fill="none" stroke="#404040" points="973.86,-627.29 967.04,-629.64 962.25,-624.24 969.07,-621.9 973.86,-627.29"/>
<text text-anchor="middle" x="1419" y="-719.5" font-family="Helvetica,sans-Serif" font-size="10.00"> #m_Background</text>
</g>
<!-- Node19 -->
<g id="node19" class="node">
<title>Node19</title>
<g id="a_node19"><a xlink:href="class_sgl_1_1_border.html" target="_top" xlink:title=" ">
<polygon fill="white" stroke="black" points="874,-757 874,-869 964,-869 964,-757 874,-757"/>
<text text-anchor="middle" x="919" y="-857" font-family="Helvetica,sans-Serif" font-size="10.00">Sgl::Border</text>
<polyline fill="none" stroke="black" points="874,-850 964,-850 "/>
<text text-anchor="middle" x="919" y="-838" font-family="Helvetica,sans-Serif" font-size="10.00"> </text>
<polyline fill="none" stroke="black" points="874,-831 964,-831 "/>
<text text-anchor="start" x="882" y="-819" font-family="Helvetica,sans-Serif" font-size="10.00">+ Border()</text>
<text text-anchor="start" x="882" y="-808" font-family="Helvetica,sans-Serif" font-size="10.00">+ Border()</text>
<text text-anchor="start" x="882" y="-797" font-family="Helvetica,sans-Serif" font-size="10.00">+ Border()</text>
<text text-anchor="start" x="882" y="-786" font-family="Helvetica,sans-Serif" font-size="10.00">+ getThickness()</text>
<text text-anchor="start" x="882" y="-775" font-family="Helvetica,sans-Serif" font-size="10.00">+ getColor()</text>
<text text-anchor="start" x="882" y="-764" font-family="Helvetica,sans-Serif" font-size="10.00">+ encloseArea()</text>
</a>
</g>
</g>
<!-- Node19&#45;&gt;Node4 -->
<g id="edge21" class="edge">
<title>Node19&#45;&gt;Node4</title>
<path fill="none" stroke="#404040" d="M915.15,-756.84C913.82,-741.92 912.11,-725.81 910,-711 909.71,-708.95 909.4,-706.88 909.08,-704.79"/>
<polygon fill="none" stroke="#404040" points="909.05,-704.56 904.14,-699.27 907.14,-692.71 912.04,-698 909.05,-704.56"/>
<text text-anchor="middle" x="938.5" y="-719.5" font-family="Helvetica,sans-Serif" font-size="10.00"> #m_Border</text>
</g>
<!-- Node20&#45;&gt;Node4 -->
<g id="edge22" class="edge">
<title>Node20&#45;&gt;Node4</title>
<path fill="none" stroke="#404040" d="M994.43,-756.91C986.35,-741.77 977.2,-725.53 968,-711 966.27,-708.27 964.49,-705.52 962.68,-702.75"/>
<polygon fill="none" stroke="#404040" points="962.63,-702.69 955.97,-699.93 955.96,-692.72 962.62,-695.48 962.63,-702.69"/>
<text text-anchor="middle" x="1010" y="-719.5" font-family="Helvetica,sans-Serif" font-size="10.00"> #m_Padding</text>
</g>
<!-- Node20&#45;&gt;Node20 -->
<g id="edge23" class="edge">
<title>Node20&#45;&gt;Node20</title>
<path fill="none" stroke="#404040" d="M1061.51,-829.7C1071.76,-828.67 1079.5,-823.11 1079.5,-813 1079.5,-807.31 1077.05,-803.07 1073.08,-800.25"/>
<polygon fill="none" stroke="#404040" points="1072.86,-800.18 1065.89,-802.02 1061.51,-796.3 1068.48,-794.45 1072.86,-800.18"/>
<text text-anchor="middle" x="1101.5" y="-810.5" font-family="Helvetica,sans-Serif" font-size="10.00"> +EMPTY</text>
</g>
<!-- Node21 -->
<g id="node21" class="node">
<title>Node21</title>
<g id="a_node21"><a xlink:href="class_sgl_1_1_color_fill.html" target="_top" xlink:title=" ">
<polygon fill="white" stroke="black" points="1259.5,-547.5 1259.5,-659.5 1332.5,-659.5 1332.5,-547.5 1259.5,-547.5"/>
<text text-anchor="middle" x="1296" y="-647.5" font-family="Helvetica,sans-Serif" font-size="10.00">Sgl::ColorFill</text>
<polyline fill="none" stroke="black" points="1259.5,-640.5 1332.5,-640.5 "/>
<text text-anchor="middle" x="1296" y="-628.5" font-family="Helvetica,sans-Serif" font-size="10.00"> </text>
<polyline fill="none" stroke="black" points="1259.5,-621.5 1332.5,-621.5 "/>
<text text-anchor="start" x="1267.5" y="-609.5" font-family="Helvetica,sans-Serif" font-size="10.00">+ ColorFill()</text>
<text text-anchor="start" x="1267.5" y="-598.5" font-family="Helvetica,sans-Serif" font-size="10.00">+ fillLine()</text>
<text text-anchor="start" x="1267.5" y="-587.5" font-family="Helvetica,sans-Serif" font-size="10.00">+ fillArea()</text>
<text text-anchor="start" x="1267.5" y="-576.5" font-family="Helvetica,sans-Serif" font-size="10.00">+ fillPoint()</text>
<text text-anchor="start" x="1267.5" y="-565.5" font-family="Helvetica,sans-Serif" font-size="10.00">+ getColor()</text>
<text text-anchor="start" x="1267.5" y="-554.5" font-family="Helvetica,sans-Serif" font-size="10.00">+ setColor()</text>
</a>
</g>
</g>
<!-- Node21&#45;&gt;Node3 -->
<g id="edge26" class="edge">
<title>Node21&#45;&gt;Node3</title>
<path fill="none" stroke="#404040" d="M1296,-547.44C1296,-519.62 1296,-485.76 1296,-457.02"/>
<polygon fill="none" stroke="#404040" points="1296,-456.64 1292,-450.64 1296,-444.64 1300,-450.64 1296,-456.64"/>
<text text-anchor="middle" x="1336" y="-488" font-family="Helvetica,sans-Serif" font-size="10.00"> +DEFAULT_FILL</text>
</g>
<!-- Node22 -->
<g id="node22" class="node">
<title>Node22</title>
<g id="a_node22"><a xlink:href="class_sgl_1_1_fill.html" target="_top" xlink:title=" ">
<polygon fill="white" stroke="black" points="1248,-773.5 1248,-852.5 1312,-852.5 1312,-773.5 1248,-773.5"/>
<text text-anchor="middle" x="1280" y="-840.5" font-family="Helvetica,sans-Serif" font-size="10.00">Sgl::Fill</text>
<polyline fill="none" stroke="black" points="1248,-833.5 1312,-833.5 "/>
<text text-anchor="middle" x="1280" y="-821.5" font-family="Helvetica,sans-Serif" font-size="10.00"> </text>
<polyline fill="none" stroke="black" points="1248,-814.5 1312,-814.5 "/>
<text text-anchor="start" x="1256" y="-802.5" font-family="Helvetica,sans-Serif" font-size="10.00">+ fillLine()</text>
<text text-anchor="start" x="1256" y="-791.5" font-family="Helvetica,sans-Serif" font-size="10.00">+ fillArea()</text>
<text text-anchor="start" x="1256" y="-780.5" font-family="Helvetica,sans-Serif" font-size="10.00">+ fillPoint()</text>
</a>
</g>
</g>
<!-- Node22&#45;&gt;Node21 -->
<g id="edge27" class="edge">
<title>Node22&#45;&gt;Node21</title>
<path fill="none" stroke="midnightblue" d="M1283.75,-763.3C1286.15,-732.24 1289.26,-691.91 1291.75,-659.66"/>
<polygon fill="none" stroke="midnightblue" points="1280.25,-763.22 1282.97,-773.46 1287.23,-763.76 1280.25,-763.22"/>
</g>
<!-- Node23 -->
<g id="node23" class="node">
<title>Node23</title>
<g id="a_node23"><a xlink:title=" ">
<polygon fill="white" stroke="#bfbfbf" points="1330,-784.5 1330,-841.5 1370,-841.5 1370,-784.5 1330,-784.5"/>
<text text-anchor="middle" x="1350" y="-829.5" font-family="Helvetica,sans-Serif" font-size="10.00">Color</text>
<polyline fill="none" stroke="#bfbfbf" points="1330,-822.5 1370,-822.5 "/>
<text text-anchor="middle" x="1350" y="-810.5" font-family="Helvetica,sans-Serif" font-size="10.00"> </text>
<polyline fill="none" stroke="#bfbfbf" points="1330,-803.5 1370,-803.5 "/>
<text text-anchor="middle" x="1350" y="-791.5" font-family="Helvetica,sans-Serif" font-size="10.00"> </text>
</a>
</g>
</g>
<!-- Node23&#45;&gt;Node21 -->
<g id="edge28" class="edge">
<title>Node23&#45;&gt;Node21</title>
<path fill="none" stroke="#404040" d="M1336.82,-784.12C1327.19,-763.58 1315.55,-738.32 1314,-733 1308.31,-713.48 1304.4,-691.75 1301.72,-671.79"/>
<polygon fill="none" stroke="#404040" points="1301.68,-671.54 1296.97,-666.08 1300.2,-659.63 1304.91,-665.09 1301.68,-671.54"/>
<text text-anchor="middle" x="1337" y="-719.5" font-family="Helvetica,sans-Serif" font-size="10.00"> #m_Color</text>
</g>
<!-- Node24 -->
<g id="node24" class="node">
<title>Node24</title>
<g id="a_node24"><a xlink:title=" ">
<polygon fill="white" stroke="#bfbfbf" points="1370.5,-193.5 1370.5,-250.5 1489.5,-250.5 1489.5,-193.5 1370.5,-193.5"/>
<text text-anchor="middle" x="1430" y="-238.5" font-family="Helvetica,sans-Serif" font-size="10.00">static constexpr int32_t</text>
<polyline fill="none" stroke="#bfbfbf" points="1370.5,-231.5 1489.5,-231.5 "/>
<text text-anchor="middle" x="1430" y="-219.5" font-family="Helvetica,sans-Serif" font-size="10.00"> </text>
<polyline fill="none" stroke="#bfbfbf" points="1370.5,-212.5 1489.5,-212.5 "/>
<text text-anchor="middle" x="1430" y="-200.5" font-family="Helvetica,sans-Serif" font-size="10.00"> </text>
</a>
</g>
</g>
<!-- Node24&#45;&gt;Node1 -->
<g id="edge30" class="edge">
<title>Node24&#45;&gt;Node1</title>
<path fill="none" stroke="#404040" d="M1418.63,-193.26C1410.83,-174.23 1400.14,-148.13 1390.21,-123.89"/>
<polygon fill="none" stroke="#404040" points="1390.11,-123.65 1384.13,-119.62 1385.56,-112.55 1391.54,-116.59 1390.11,-123.65"/>
<text text-anchor="middle" x="1462.5" y="-134" font-family="Helvetica,sans-Serif" font-size="10.00"> +ANCHOR_NOT_ENABLED</text>
</g>
</g>
</svg>
        <g id="navigator" transform="translate(0 0)" fill="#404254">
                <rect fill="#f2f5e9" fill-opacity="0.5" stroke="#606060" stroke-width=".5" x="0" y="0" width="60" height="60"/>
                <use id="zoomplus" xlink:href="#zoomPlus" x="17" y="9" onmousedown="handleZoom(evt,'in')"/>
                <use id="zoomminus" xlink:href="#zoomMin" x="42" y="9" onmousedown="handleZoom(evt,'out')"/>
                <use id="reset" xlink:href="#resetDef" x="30" y="36" onmousedown="handleReset()"/>
                <g id="arrowUp" xlink:href="#dirArrow" transform="translate(30 24)" onmousedown="handlePan(0,-1)">
                  <use xlink:href="#rim" fill="#404040">
                        <set attributeName="fill" to="#808080" begin="arrowUp.mouseover" end="arrowUp.mouseout"/>
                  </use>
                  <path fill="none" stroke="white" stroke-width="1.5" d="M0,-3.0v7 M-2.5,-0.5L0,-3.0L2.5,-0.5"/>
                </g>
                <g id="arrowRight" xlink:href="#dirArrow" transform="rotate(90) translate(36 -43)" onmousedown="handlePan(1,0)">
                  <use xlink:href="#rim" fill="#404040">
                        <set attributeName="fill" to="#808080" begin="arrowRight.mouseover" end="arrowRight.mouseout"/>
                  </use>
                  <path fill="none" stroke="white" stroke-width="1.5" d="M0,-3.0v7 M-2.5,-0.5L0,-3.0L2.5,-0.5"/>
                </g>
                <g id="arrowDown" xlink:href="#dirArrow" transform="rotate(180) translate(-30 -48)" onmousedown="handlePan(0,1)">
                  <use xlink:href="#rim" fill="#404040">
                        <set attributeName="fill" to="#808080" begin="arrowDown.mouseover" end="arrowDown.mouseout"/>
                  </use>
                  <path fill="none" stroke="white" stroke-width="1.5" d="M0,-3.0v7 M-2.5,-0.5L0,-3.0L2.5,-0.5"/>
                </g>
                <g id="arrowLeft" xlink:href="#dirArrow" transform="rotate(270) translate(-36 17)" onmousedown="handlePan(-1,0)">
                  <use xlink:href="#rim" fill="#404040">
                        <set attributeName="fill" to="#808080" begin="arrowLeft.mouseover" end="arrowLeft.mouseout"/>
                  </use>
                  <path fill="none" stroke="white" stroke-width="1.5" d="M0,-3.0v7 M-2.5,-0.5L0,-3.0L2.5,-0.5"/>
                </g>
        </g>
        <svg viewBox="0 0 15 15" width="100%" height="30px" preserveAspectRatio="xMaxYMin meet">
         <g id="arrow_out" transform="scale(0.3 0.3)">
          <a xlink:href="class_sgl_1_1_anchor_pane__coll__graph_org.svg" target="_base">
           <rect id="button" ry="5" rx="5" y="6" x="6" height="38" width="38"
                fill="#f2f5e9" fill-opacity="0.5" stroke="#606060" stroke-width="1.0"/>
           <path id="arrow"
             d="M 11.500037,31.436501 C 11.940474,20.09759 22.043105,11.32322 32.158766,21.979434 L 37.068811,17.246167 C 37.068811,17.246167 37.088388,32 37.088388,32 L 22.160133,31.978069 C 22.160133,31.978069 26.997745,27.140456 26.997745,27.140456 C 18.528582,18.264221 13.291696,25.230495 11.500037,31.436501 z"
             style="fill:#404040;"/>
          </a>
         </g>
        </svg>
</svg>
