<?xml version="1.0" encoding="UTF-8" standalone="no"?>
<!DOCTYPE svg PUBLIC "-//W3C//DTD SVG 1.1//EN"
 "http://www.w3.org/Graphics/SVG/1.1/DTD/svg11.dtd">
<!-- Generated by graphviz version 2.50.0 (20211204.2007)
 -->
<!-- Title: Sgl::Container Pages: 1 -->
<svg width="1594pt" height="700pt"
 viewBox="0.00 0.00 1594.00 700.00" xmlns="http://www.w3.org/2000/svg" xmlns:xlink="http://www.w3.org/1999/xlink">
<g id="graph0" class="graph" transform="scale(1 1) rotate(0) translate(4 696)">
<title>Sgl::Container</title>
<polygon fill="white" stroke="transparent" points="-4,4 -4,-696 1590,-696 1590,4 -4,4"/>
<!-- Node1 -->
<g id="node1" class="node">
<title>Node1</title>
<g id="a_node1"><a xlink:title=" ">
<polygon fill="#bfbfbf" stroke="black" points="1242,-22.5 1242,-123.5 1350,-123.5 1350,-22.5 1242,-22.5"/>
<text text-anchor="middle" x="1296" y="-111.5" font-family="Helvetica,sans-Serif" font-size="10.00">Sgl::Container</text>
<polyline fill="none" stroke="black" points="1242,-104.5 1350,-104.5 "/>
<text text-anchor="middle" x="1296" y="-92.5" font-family="Helvetica,sans-Serif" font-size="10.00"> </text>
<polyline fill="none" stroke="black" points="1242,-85.5 1350,-85.5 "/>
<text text-anchor="start" x="1250" y="-73.5" font-family="Helvetica,sans-Serif" font-size="10.00">+ Container()</text>
<text text-anchor="start" x="1250" y="-62.5" font-family="Helvetica,sans-Serif" font-size="10.00">+ ~Container()</text>
<text text-anchor="start" x="1250" y="-51.5" font-family="Helvetica,sans-Serif" font-size="10.00">+ getHitComponent()</text>
<text text-anchor="start" x="1250" y="-40.5" font-family="Helvetica,sans-Serif" font-size="10.00">+ render()</text>
<text text-anchor="start" x="1250" y="-29.5" font-family="Helvetica,sans-Serif" font-size="10.00"># prerenderSelf()</text>
</a>
</g>
</g>
<!-- Node2 -->
<g id="node2" class="node">
<title>Node2</title>
<g id="a_node2"><a xlink:href="class_sgl_1_1_parent.html" target="_top" xlink:title=" ">
<polygon fill="white" stroke="black" points="816,-193.5 816,-371.5 962,-371.5 962,-193.5 816,-193.5"/>
<text text-anchor="middle" x="889" y="-359.5" font-family="Helvetica,sans-Serif" font-size="10.00">Sgl::Parent</text>
<polyline fill="none" stroke="black" points="816,-352.5 962,-352.5 "/>
<text text-anchor="middle" x="889" y="-340.5" font-family="Helvetica,sans-Serif" font-size="10.00"> </text>
<polyline fill="none" stroke="black" points="816,-333.5 962,-333.5 "/>
<text text-anchor="start" x="824" y="-321.5" font-family="Helvetica,sans-Serif" font-size="10.00">+ Parent()</text>
<text text-anchor="start" x="824" y="-310.5" font-family="Helvetica,sans-Serif" font-size="10.00">+ ~Parent()</text>
<text text-anchor="start" x="824" y="-299.5" font-family="Helvetica,sans-Serif" font-size="10.00">+ getHitComponent()</text>
<text text-anchor="start" x="824" y="-288.5" font-family="Helvetica,sans-Serif" font-size="10.00">+ render()</text>
<text text-anchor="start" x="824" y="-277.5" font-family="Helvetica,sans-Serif" font-size="10.00">+ layout()</text>
<text text-anchor="start" x="824" y="-266.5" font-family="Helvetica,sans-Serif" font-size="10.00">and 38 more...</text>
<text text-anchor="start" x="824" y="-255.5" font-family="Helvetica,sans-Serif" font-size="10.00"># setSceneInSceneTree()</text>
<text text-anchor="start" x="824" y="-244.5" font-family="Helvetica,sans-Serif" font-size="10.00"># layoutChildren()</text>
<text text-anchor="start" x="824" y="-233.5" font-family="Helvetica,sans-Serif" font-size="10.00"># prerenderSelf()</text>
<text text-anchor="start" x="824" y="-222.5" font-family="Helvetica,sans-Serif" font-size="10.00"># updateSnapshotSize()</text>
<text text-anchor="start" x="824" y="-211.5" font-family="Helvetica,sans-Serif" font-size="10.00"># computeCustomPrefWidth()</text>
<text text-anchor="start" x="824" y="-200.5" font-family="Helvetica,sans-Serif" font-size="10.00">and 5 more...</text>
</a>
</g>
</g>
<!-- Node2&#45;&gt;Node1 -->
<g id="edge1" class="edge">
<title>Node2&#45;&gt;Node1</title>
<path fill="none" stroke="midnightblue" d="M971.38,-239.5C1052.05,-198.37 1172.65,-136.89 1241.88,-101.59"/>
<polygon fill="none" stroke="midnightblue" points="969.55,-236.5 962.23,-244.16 972.73,-242.74 969.55,-236.5"/>
</g>
<!-- Node3 -->
<g id="node3" class="node">
<title>Node3</title>
<g id="a_node3"><a xlink:href="class_sgl_1_1_component.html" target="_top" xlink:title=" ">
<polygon fill="white" stroke="black" points="276,-0.5 276,-145.5 404,-145.5 404,-0.5 276,-0.5"/>
<text text-anchor="middle" x="340" y="-133.5" font-family="Helvetica,sans-Serif" font-size="10.00">Sgl::Component</text>
<polyline fill="none" stroke="black" points="276,-126.5 404,-126.5 "/>
<text text-anchor="middle" x="340" y="-114.5" font-family="Helvetica,sans-Serif" font-size="10.00"> </text>
<polyline fill="none" stroke="black" points="276,-107.5 404,-107.5 "/>
<text text-anchor="start" x="284" y="-95.5" font-family="Helvetica,sans-Serif" font-size="10.00">+ Component()</text>
<text text-anchor="start" x="284" y="-84.5" font-family="Helvetica,sans-Serif" font-size="10.00">+ ~Component()</text>
<text text-anchor="start" x="284" y="-73.5" font-family="Helvetica,sans-Serif" font-size="10.00">+ getHitComponent()</text>
<text text-anchor="start" x="284" y="-62.5" font-family="Helvetica,sans-Serif" font-size="10.00">+ render()</text>
<text text-anchor="start" x="284" y="-51.5" font-family="Helvetica,sans-Serif" font-size="10.00">+ layout()</text>
<text text-anchor="start" x="284" y="-40.5" font-family="Helvetica,sans-Serif" font-size="10.00">and 37 more...</text>
<text text-anchor="start" x="284" y="-29.5" font-family="Helvetica,sans-Serif" font-size="10.00"># updateShadow()</text>
<text text-anchor="start" x="284" y="-18.5" font-family="Helvetica,sans-Serif" font-size="10.00"># renderShadow()</text>
<text text-anchor="start" x="284" y="-7.5" font-family="Helvetica,sans-Serif" font-size="10.00"># setSceneInSceneTree()</text>
</a>
</g>
</g>
<!-- Node2&#45;&gt;Node3 -->
<g id="edge13" class="edge">
<title>Node2&#45;&gt;Node3</title>
<path fill="none" stroke="#404040" d="M815.96,-246.32C763.47,-221.7 690.68,-188.89 625,-164 555.1,-137.5 473.61,-112.32 415.71,-95.37"/>
<polygon fill="none" stroke="#404040" points="415.61,-95.34 408.74,-97.51 404.09,-91.99 410.97,-89.83 415.61,-95.34"/>
<text text-anchor="middle" x="672.5" y="-167" font-family="Helvetica,sans-Serif" font-size="10.00"> #m_Parent</text>
</g>
<!-- Node3&#45;&gt;Node2 -->
<g id="edge2" class="edge">
<title>Node3&#45;&gt;Node2</title>
<path fill="none" stroke="midnightblue" d="M414.16,-77.01C503.25,-83.35 654.94,-103.04 769,-164 785.59,-172.86 801.43,-184.72 815.86,-197.5"/>
<polygon fill="none" stroke="midnightblue" points="414.36,-73.51 404.15,-76.33 413.89,-80.5 414.36,-73.51"/>
</g>
<!-- Node4 -->
<g id="node4" class="node">
<title>Node4</title>
<g id="a_node4"><a xlink:title=" ">
<polygon fill="white" stroke="#bfbfbf" points="39,-463.5 39,-520.5 131,-520.5 131,-463.5 39,-463.5"/>
<text text-anchor="middle" x="85" y="-508.5" font-family="Helvetica,sans-Serif" font-size="10.00">Sml::EventTarget</text>
<polyline fill="none" stroke="#bfbfbf" points="39,-501.5 131,-501.5 "/>
<text text-anchor="middle" x="85" y="-489.5" font-family="Helvetica,sans-Serif" font-size="10.00"> </text>
<polyline fill="none" stroke="#bfbfbf" points="39,-482.5 131,-482.5 "/>
<text text-anchor="middle" x="85" y="-470.5" font-family="Helvetica,sans-Serif" font-size="10.00"> </text>
</a>
</g>
</g>
<!-- Node4&#45;&gt;Node3 -->
<g id="edge3" class="edge">
<title>Node4&#45;&gt;Node3</title>
<path fill="none" stroke="midnightblue" d="M87.94,-453.27C93.72,-383.98 107.71,-239.34 127,-193 151.83,-133.36 222.66,-102.55 275.88,-87.38"/>
<polygon fill="none" stroke="midnightblue" points="84.44,-453.07 87.11,-463.32 91.42,-453.64 84.44,-453.07"/>
</g>
<!-- Node12 -->
<g id="node12" class="node">
<title>Node12</title>
<g id="a_node12"><a xlink:href="class_sgl_1_1_scene.html" target="_top" xlink:title=" ">
<polygon fill="white" stroke="black" points="0,-226.5 0,-338.5 80,-338.5 80,-226.5 0,-226.5"/>
<text text-anchor="middle" x="40" y="-326.5" font-family="Helvetica,sans-Serif" font-size="10.00">Sgl::Scene</text>
<polyline fill="none" stroke="black" points="0,-319.5 80,-319.5 "/>
<text text-anchor="middle" x="40" y="-307.5" font-family="Helvetica,sans-Serif" font-size="10.00"> </text>
<polyline fill="none" stroke="black" points="0,-300.5 80,-300.5 "/>
<text text-anchor="start" x="8" y="-288.5" font-family="Helvetica,sans-Serif" font-size="10.00">+ Scene()</text>
<text text-anchor="start" x="8" y="-277.5" font-family="Helvetica,sans-Serif" font-size="10.00">+ Scene()</text>
<text text-anchor="start" x="8" y="-266.5" font-family="Helvetica,sans-Serif" font-size="10.00">+ ~Scene()</text>
<text text-anchor="start" x="8" y="-255.5" font-family="Helvetica,sans-Serif" font-size="10.00">+ update()</text>
<text text-anchor="start" x="8" y="-244.5" font-family="Helvetica,sans-Serif" font-size="10.00">+ render()</text>
<text text-anchor="start" x="8" y="-233.5" font-family="Helvetica,sans-Serif" font-size="10.00">and 17 more...</text>
</a>
</g>
</g>
<!-- Node4&#45;&gt;Node12 -->
<g id="edge12" class="edge">
<title>Node4&#45;&gt;Node12</title>
<path fill="none" stroke="midnightblue" d="M76.89,-453.6C69.96,-421.63 59.88,-375.17 52.01,-338.88"/>
<polygon fill="none" stroke="midnightblue" points="73.48,-454.41 79.02,-463.45 80.33,-452.93 73.48,-454.41"/>
</g>
<!-- Node5 -->
<g id="node5" class="node">
<title>Node5</title>
<g id="a_node5"><a xlink:title=" ">
<polygon fill="white" stroke="#bfbfbf" points="999,-634.5 999,-691.5 1045,-691.5 1045,-634.5 999,-634.5"/>
<text text-anchor="middle" x="1022" y="-679.5" font-family="Helvetica,sans-Serif" font-size="10.00">int32_t</text>
<polyline fill="none" stroke="#bfbfbf" points="999,-672.5 1045,-672.5 "/>
<text text-anchor="middle" x="1022" y="-660.5" font-family="Helvetica,sans-Serif" font-size="10.00"> </text>
<polyline fill="none" stroke="#bfbfbf" points="999,-653.5 1045,-653.5 "/>
<text text-anchor="middle" x="1022" y="-641.5" font-family="Helvetica,sans-Serif" font-size="10.00"> </text>
</a>
</g>
</g>
<!-- Node5&#45;&gt;Node2 -->
<g id="edge23" class="edge">
<title>Node5&#45;&gt;Node2</title>
<path fill="none" stroke="#404040" d="M1045.41,-647.51C1072.17,-629.41 1114.5,-595.71 1132,-554 1153.32,-503.18 1159.1,-477.99 1132,-430 1098.29,-370.31 1029.42,-332.22 973.58,-309.89"/>
<polygon fill="none" stroke="#404040" points="973.43,-309.83 966.39,-311.4 962.24,-305.5 969.28,-303.94 973.43,-309.83"/>
<text text-anchor="middle" x="1186" y="-517" font-family="Helvetica,sans-Serif" font-size="10.00"> #m_MaxHeight</text>
<text text-anchor="middle" x="1186" y="-506" font-family="Helvetica,sans-Serif" font-size="10.00">#m_MaxWidth</text>
<text text-anchor="middle" x="1186" y="-495" font-family="Helvetica,sans-Serif" font-size="10.00">#m_MinHeight</text>
<text text-anchor="middle" x="1186" y="-484" font-family="Helvetica,sans-Serif" font-size="10.00">#m_MinWidth</text>
<text text-anchor="middle" x="1186" y="-473" font-family="Helvetica,sans-Serif" font-size="10.00">#m_PrefHeight</text>
<text text-anchor="middle" x="1186" y="-462" font-family="Helvetica,sans-Serif" font-size="10.00">#m_PrefWidth</text>
</g>
<!-- Node5&#45;&gt;Node3 -->
<g id="edge4" class="edge">
<title>Node5&#45;&gt;Node3</title>
<path fill="none" stroke="#404040" d="M998.81,-661.4C888.84,-658.15 420.63,-639.41 308,-554 176.9,-454.58 164.67,-345.67 226,-193 234.99,-170.62 250.42,-150.07 267.08,-132.58"/>
<polygon fill="none" stroke="#404040" points="267.42,-132.24 268.81,-125.16 275.87,-123.72 274.49,-130.8 267.42,-132.24"/>
<text text-anchor="middle" x="258" y="-404" font-family="Helvetica,sans-Serif" font-size="10.00"> +UNLIMITED_SIZE</text>
<text text-anchor="middle" x="258" y="-393" font-family="Helvetica,sans-Serif" font-size="10.00">+USE_COMPUTED_SIZE</text>
</g>
<!-- Node18 -->
<g id="node18" class="node">
<title>Node18</title>
<g id="a_node18"><a xlink:href="struct_sgl_1_1_insets.html" target="_top" xlink:title=" ">
<polygon fill="white" stroke="black" points="982.5,-436 982.5,-548 1061.5,-548 1061.5,-436 982.5,-436"/>
<text text-anchor="middle" x="1022" y="-536" font-family="Helvetica,sans-Serif" font-size="10.00">Sgl::Insets</text>
<polyline fill="none" stroke="black" points="982.5,-529 1061.5,-529 "/>
<text text-anchor="middle" x="1022" y="-517" font-family="Helvetica,sans-Serif" font-size="10.00"> </text>
<polyline fill="none" stroke="black" points="982.5,-510 1061.5,-510 "/>
<text text-anchor="start" x="990.5" y="-498" font-family="Helvetica,sans-Serif" font-size="10.00">+ Insets()</text>
<text text-anchor="start" x="990.5" y="-487" font-family="Helvetica,sans-Serif" font-size="10.00">+ Insets()</text>
<text text-anchor="start" x="990.5" y="-476" font-family="Helvetica,sans-Serif" font-size="10.00">+ Insets()</text>
<text text-anchor="start" x="990.5" y="-465" font-family="Helvetica,sans-Serif" font-size="10.00">+ Insets()</text>
<text text-anchor="start" x="990.5" y="-454" font-family="Helvetica,sans-Serif" font-size="10.00">+ operator+=()</text>
<text text-anchor="start" x="990.5" y="-443" font-family="Helvetica,sans-Serif" font-size="10.00">+ operator&#45;=()</text>
</a>
</g>
</g>
<!-- Node5&#45;&gt;Node18 -->
<g id="edge22" class="edge">
<title>Node5&#45;&gt;Node18</title>
<path fill="none" stroke="#404040" d="M1022,-634.47C1022,-614.37 1022,-586.21 1022,-560.3"/>
<polygon fill="none" stroke="#404040" points="1022,-560.2 1018,-554.2 1022,-548.2 1026,-554.2 1022,-560.2"/>
<text text-anchor="middle" x="1042" y="-608" font-family="Helvetica,sans-Serif" font-size="10.00"> +bottom</text>
<text text-anchor="middle" x="1042" y="-597" font-family="Helvetica,sans-Serif" font-size="10.00">+left</text>
<text text-anchor="middle" x="1042" y="-586" font-family="Helvetica,sans-Serif" font-size="10.00">+right</text>
<text text-anchor="middle" x="1042" y="-575" font-family="Helvetica,sans-Serif" font-size="10.00">+top</text>
</g>
<!-- Node6 -->
<g id="node6" class="node">
<title>Node6</title>
<g id="a_node6"><a xlink:title=" ">
<polygon fill="white" stroke="#bfbfbf" points="136.5,-254 136.5,-311 177.5,-311 177.5,-254 136.5,-254"/>
<text text-anchor="middle" x="157" y="-299" font-family="Helvetica,sans-Serif" font-size="10.00">friend</text>
<polyline fill="none" stroke="#bfbfbf" points="136.5,-292 177.5,-292 "/>
<text text-anchor="middle" x="157" y="-280" font-family="Helvetica,sans-Serif" font-size="10.00"> </text>
<polyline fill="none" stroke="#bfbfbf" points="136.5,-273 177.5,-273 "/>
<text text-anchor="middle" x="157" y="-261" font-family="Helvetica,sans-Serif" font-size="10.00"> </text>
</a>
</g>
</g>
<!-- Node6&#45;&gt;Node3 -->
<g id="edge5" class="edge">
<title>Node6&#45;&gt;Node3</title>
<path fill="none" stroke="#404040" d="M149.2,-253.6C143.81,-228.25 140.29,-190.84 157,-164 180.45,-126.33 224.8,-103.97 263.97,-90.96"/>
<polygon fill="none" stroke="#404040" points="264.21,-90.89 268.74,-85.28 275.66,-87.3 271.13,-92.91 264.21,-90.89"/>
<text text-anchor="middle" x="175.5" y="-167" font-family="Helvetica,sans-Serif" font-size="10.00"> +Scene</text>
</g>
<!-- Node7 -->
<g id="node7" class="node">
<title>Node7</title>
<g id="a_node7"><a xlink:title=" ">
<polygon fill="white" stroke="#bfbfbf" points="610.5,-463.5 610.5,-520.5 645.5,-520.5 645.5,-463.5 610.5,-463.5"/>
<text text-anchor="middle" x="628" y="-508.5" font-family="Helvetica,sans-Serif" font-size="10.00">bool</text>
<polyline fill="none" stroke="#bfbfbf" points="610.5,-501.5 645.5,-501.5 "/>
<text text-anchor="middle" x="628" y="-489.5" font-family="Helvetica,sans-Serif" font-size="10.00"> </text>
<polyline fill="none" stroke="#bfbfbf" points="610.5,-482.5 645.5,-482.5 "/>
<text text-anchor="middle" x="628" y="-470.5" font-family="Helvetica,sans-Serif" font-size="10.00"> </text>
</a>
</g>
</g>
<!-- Node7&#45;&gt;Node2 -->
<g id="edge17" class="edge">
<title>Node7&#45;&gt;Node2</title>
<path fill="none" stroke="#404040" d="M632.89,-463.15C638.03,-441 648.12,-410.43 667,-390 703.78,-350.21 758.56,-323.71 804.5,-307.1"/>
<polygon fill="none" stroke="#404040" points="804.65,-307.05 808.99,-301.29 815.98,-303.08 811.63,-308.84 804.65,-307.05"/>
<text text-anchor="middle" x="715.5" y="-398.5" font-family="Helvetica,sans-Serif" font-size="10.00"> #m_NeedLayoutPass</text>
</g>
<!-- Node7&#45;&gt;Node3 -->
<g id="edge6" class="edge">
<title>Node7&#45;&gt;Node3</title>
<path fill="none" stroke="#404040" d="M632.77,-463.12C641.9,-399.47 654.02,-242.85 569,-164 526.47,-124.55 464.62,-101.63 415.91,-88.8"/>
<polygon fill="none" stroke="#404040" points="415.79,-88.77 408.99,-91.18 404.15,-85.83 410.95,-83.42 415.79,-88.77"/>
<text text-anchor="middle" x="670" y="-291" font-family="Helvetica,sans-Serif" font-size="10.00"> #m_Focused</text>
<text text-anchor="middle" x="670" y="-280" font-family="Helvetica,sans-Serif" font-size="10.00">#m_Hovered</text>
<text text-anchor="middle" x="670" y="-269" font-family="Helvetica,sans-Serif" font-size="10.00">#m_Visible</text>
</g>
<!-- Node8 -->
<g id="node8" class="node">
<title>Node8</title>
<g id="a_node8"><a xlink:href="class_sgl_1_1_shadow.html" target="_top" xlink:title=" ">
<polygon fill="white" stroke="black" points="235.5,-221 235.5,-344 336.5,-344 336.5,-221 235.5,-221"/>
<text text-anchor="middle" x="286" y="-332" font-family="Helvetica,sans-Serif" font-size="10.00">Sgl::Shadow</text>
<polyline fill="none" stroke="black" points="235.5,-325 336.5,-325 "/>
<text text-anchor="middle" x="286" y="-313" font-family="Helvetica,sans-Serif" font-size="10.00"> </text>
<polyline fill="none" stroke="black" points="235.5,-306 336.5,-306 "/>
<text text-anchor="start" x="243.5" y="-294" font-family="Helvetica,sans-Serif" font-size="10.00">+ Shadow()</text>
<text text-anchor="start" x="243.5" y="-283" font-family="Helvetica,sans-Serif" font-size="10.00">+ ~Shadow()</text>
<text text-anchor="start" x="243.5" y="-272" font-family="Helvetica,sans-Serif" font-size="10.00">+ update()</text>
<text text-anchor="start" x="243.5" y="-261" font-family="Helvetica,sans-Serif" font-size="10.00">+ render()</text>
<text text-anchor="start" x="243.5" y="-250" font-family="Helvetica,sans-Serif" font-size="10.00">+ getTexture()</text>
<text text-anchor="start" x="243.5" y="-239" font-family="Helvetica,sans-Serif" font-size="10.00">+ getSpecification()</text>
<text text-anchor="start" x="243.5" y="-228" font-family="Helvetica,sans-Serif" font-size="10.00">+ setSpecification()</text>
</a>
</g>
</g>
<!-- Node8&#45;&gt;Node3 -->
<g id="edge7" class="edge">
<title>Node8&#45;&gt;Node3</title>
<path fill="none" stroke="#404040" d="M299.12,-220.93C303.31,-202.58 308.13,-182.41 313,-164 313.59,-161.75 314.21,-159.48 314.83,-157.18"/>
<polygon fill="none" stroke="#404040" points="314.84,-157.16 312.59,-150.31 318.06,-145.6 320.3,-152.46 314.84,-157.16"/>
<text text-anchor="middle" x="342" y="-167" font-family="Helvetica,sans-Serif" font-size="10.00"> #m_Shadow</text>
</g>
<!-- Node9 -->
<g id="node9" class="node">
<title>Node9</title>
<g id="a_node9"><a xlink:href="class_gui_event_dispatcher.html" target="_top" xlink:title=" ">
<polygon fill="white" stroke="black" points="354.5,-215.5 354.5,-349.5 489.5,-349.5 489.5,-215.5 354.5,-215.5"/>
<text text-anchor="middle" x="422" y="-337.5" font-family="Helvetica,sans-Serif" font-size="10.00">GuiEventDispatcher</text>
<polyline fill="none" stroke="black" points="354.5,-330.5 489.5,-330.5 "/>
<text text-anchor="middle" x="422" y="-318.5" font-family="Helvetica,sans-Serif" font-size="10.00"> </text>
<polyline fill="none" stroke="black" points="354.5,-311.5 489.5,-311.5 "/>
<text text-anchor="start" x="362.5" y="-299.5" font-family="Helvetica,sans-Serif" font-size="10.00">+ ~GuiEventDispatcher()</text>
<text text-anchor="start" x="362.5" y="-288.5" font-family="Helvetica,sans-Serif" font-size="10.00">+ attachFilter()</text>
<text text-anchor="start" x="362.5" y="-277.5" font-family="Helvetica,sans-Serif" font-size="10.00">+ detachFilter()</text>
<text text-anchor="start" x="362.5" y="-266.5" font-family="Helvetica,sans-Serif" font-size="10.00">+ attachHandler()</text>
<text text-anchor="start" x="362.5" y="-255.5" font-family="Helvetica,sans-Serif" font-size="10.00">+ detachHandler()</text>
<text text-anchor="start" x="362.5" y="-244.5" font-family="Helvetica,sans-Serif" font-size="10.00">+ dispatchEvent()</text>
<text text-anchor="start" x="362.5" y="-233.5" font-family="Helvetica,sans-Serif" font-size="10.00"># dispatchCapturingEvent()</text>
<text text-anchor="start" x="362.5" y="-222.5" font-family="Helvetica,sans-Serif" font-size="10.00"># dispatchBubblingEvent()</text>
</a>
</g>
</g>
<!-- Node9&#45;&gt;Node3 -->
<g id="edge8" class="edge">
<title>Node9&#45;&gt;Node3</title>
<path fill="none" stroke="#404040" d="M395.83,-215.28C388.5,-196.73 380.45,-176.35 372.79,-156.97"/>
<polygon fill="none" stroke="#404040" points="372.74,-156.85 366.82,-152.74 368.33,-145.69 374.26,-149.8 372.74,-156.85"/>
<text text-anchor="middle" x="414" y="-167" font-family="Helvetica,sans-Serif" font-size="10.00"> #m_Dispatcher</text>
</g>
<!-- Node10 -->
<g id="node10" class="node">
<title>Node10</title>
<g id="a_node10"><a xlink:title=" ">
<polygon fill="white" stroke="#bfbfbf" points="317.5,-463.5 317.5,-520.5 430.5,-520.5 430.5,-463.5 317.5,-463.5"/>
<text text-anchor="middle" x="374" y="-508.5" font-family="Helvetica,sans-Serif" font-size="10.00">Sml::EventDispatcher</text>
<polyline fill="none" stroke="#bfbfbf" points="317.5,-501.5 430.5,-501.5 "/>
<text text-anchor="middle" x="374" y="-489.5" font-family="Helvetica,sans-Serif" font-size="10.00"> </text>
<polyline fill="none" stroke="#bfbfbf" points="317.5,-482.5 430.5,-482.5 "/>
<text text-anchor="middle" x="374" y="-470.5" font-family="Helvetica,sans-Serif" font-size="10.00"> </text>
</a>
</g>
</g>
<!-- Node10&#45;&gt;Node9 -->
<g id="edge9" class="edge">
<title>Node10&#45;&gt;Node9</title>
<path fill="none" stroke="midnightblue" d="M382.7,-453.37C389.38,-424.5 398.77,-383.91 406.7,-349.65"/>
<polygon fill="none" stroke="midnightblue" points="379.22,-452.91 380.37,-463.45 386.04,-454.49 379.22,-452.91"/>
</g>
<!-- Node11 -->
<g id="node11" class="node">
<title>Node11</title>
<g id="a_node11"><a xlink:title=" ">
<polygon fill="white" stroke="#bfbfbf" points="449,-463.5 449,-520.5 497,-520.5 497,-463.5 449,-463.5"/>
<text text-anchor="middle" x="473" y="-508.5" font-family="Helvetica,sans-Serif" font-size="10.00">Notifier</text>
<polyline fill="none" stroke="#bfbfbf" points="449,-501.5 497,-501.5 "/>
<text text-anchor="middle" x="473" y="-489.5" font-family="Helvetica,sans-Serif" font-size="10.00"> </text>
<polyline fill="none" stroke="#bfbfbf" points="449,-482.5 497,-482.5 "/>
<text text-anchor="middle" x="473" y="-470.5" font-family="Helvetica,sans-Serif" font-size="10.00"> </text>
</a>
</g>
</g>
<!-- Node11&#45;&gt;Node9 -->
<g id="edge10" class="edge">
<title>Node11&#45;&gt;Node9</title>
<path fill="none" stroke="#404040" d="M466.23,-463.45C459.85,-437.5 449.99,-397.37 441.19,-361.59"/>
<polygon fill="none" stroke="#404040" points="441.12,-361.3 435.81,-356.43 438.26,-349.65 443.58,-354.52 441.12,-361.3"/>
<text text-anchor="middle" x="499" y="-404" font-family="Helvetica,sans-Serif" font-size="10.00"> #m_FiltersNotifier</text>
<text text-anchor="middle" x="499" y="-393" font-family="Helvetica,sans-Serif" font-size="10.00">#m_HandlersNotifier</text>
</g>
<!-- Node12&#45;&gt;Node3 -->
<g id="edge11" class="edge">
<title>Node12&#45;&gt;Node3</title>
<path fill="none" stroke="#404040" d="M28.99,-226.33C27.79,-204.91 30.64,-181.4 44,-164 70.86,-129.02 185.06,-101.88 263.49,-86.92"/>
<polygon fill="none" stroke="#404040" points="263.96,-86.83 269.12,-81.8 275.75,-84.63 270.59,-89.66 263.96,-86.83"/>
<text text-anchor="middle" x="69" y="-167" font-family="Helvetica,sans-Serif" font-size="10.00"> #m_Scene</text>
</g>
<!-- Node13 -->
<g id="node13" class="node">
<title>Node13</title>
<g id="a_node13"><a xlink:title=" ">
<polygon fill="white" stroke="#bfbfbf" points="507.5,-254 507.5,-311 574.5,-311 574.5,-254 507.5,-254"/>
<text text-anchor="middle" x="541" y="-299" font-family="Helvetica,sans-Serif" font-size="10.00">Rectangle&lt;</text>
<polyline fill="none" stroke="#bfbfbf" points="507.5,-292 574.5,-292 "/>
<text text-anchor="middle" x="541" y="-280" font-family="Helvetica,sans-Serif" font-size="10.00"> </text>
<polyline fill="none" stroke="#bfbfbf" points="507.5,-273 574.5,-273 "/>
<text text-anchor="middle" x="541" y="-261" font-family="Helvetica,sans-Serif" font-size="10.00"> </text>
</a>
</g>
</g>
<!-- Node13&#45;&gt;Node3 -->
<g id="edge14" class="edge">
<title>Node13&#45;&gt;Node3</title>
<path fill="none" stroke="#404040" d="M531.41,-253.62C524.14,-235.14 512.87,-211.07 498,-193 474.57,-164.54 443.01,-139.03 414.26,-118.99"/>
<polygon fill="none" stroke="#404040" points="414.13,-118.9 406.92,-118.82 404.22,-112.13 411.43,-112.22 414.13,-118.9"/>
<text text-anchor="middle" x="522.5" y="-167" font-family="Helvetica,sans-Serif" font-size="10.00"> #m_LayoutBounds</text>
</g>
<!-- Node14 -->
<g id="node14" class="node">
<title>Node14</title>
<g id="a_node14"><a xlink:title=" ">
<polygon fill="white" stroke="#bfbfbf" points="746.5,-463.5 746.5,-520.5 781.5,-520.5 781.5,-463.5 746.5,-463.5"/>
<text text-anchor="middle" x="764" y="-508.5" font-family="Helvetica,sans-Serif" font-size="10.00">list&lt;</text>
<polyline fill="none" stroke="#bfbfbf" points="746.5,-501.5 781.5,-501.5 "/>
<text text-anchor="middle" x="764" y="-489.5" font-family="Helvetica,sans-Serif" font-size="10.00"> </text>
<polyline fill="none" stroke="#bfbfbf" points="746.5,-482.5 781.5,-482.5 "/>
<text text-anchor="middle" x="764" y="-470.5" font-family="Helvetica,sans-Serif" font-size="10.00"> </text>
</a>
</g>
</g>
<!-- Node14&#45;&gt;Node2 -->
<g id="edge15" class="edge">
<title>Node14&#45;&gt;Node2</title>
<path fill="none" stroke="#404040" d="M761.96,-463.4C761.55,-442.24 763.56,-412.87 775,-390 782.98,-374.06 794.39,-359.28 806.94,-346.11"/>
<polygon fill="none" stroke="#404040" points="807.3,-345.75 808.71,-338.67 815.78,-337.26 814.37,-344.33 807.3,-345.75"/>
<text text-anchor="middle" x="804" y="-398.5" font-family="Helvetica,sans-Serif" font-size="10.00"> #m_Children</text>
</g>
<!-- Node15 -->
<g id="node15" class="node">
<title>Node15</title>
<g id="a_node15"><a xlink:title=" ">
<polygon fill="white" stroke="#bfbfbf" points="800,-463.5 800,-520.5 856,-520.5 856,-463.5 800,-463.5"/>
<text text-anchor="middle" x="828" y="-508.5" font-family="Helvetica,sans-Serif" font-size="10.00">Texture *</text>
<polyline fill="none" stroke="#bfbfbf" points="800,-501.5 856,-501.5 "/>
<text text-anchor="middle" x="828" y="-489.5" font-family="Helvetica,sans-Serif" font-size="10.00"> </text>
<polyline fill="none" stroke="#bfbfbf" points="800,-482.5 856,-482.5 "/>
<text text-anchor="middle" x="828" y="-470.5" font-family="Helvetica,sans-Serif" font-size="10.00"> </text>
</a>
</g>
</g>
<!-- Node15&#45;&gt;Node2 -->
<g id="edge16" class="edge">
<title>Node15&#45;&gt;Node2</title>
<path fill="none" stroke="#404040" d="M829.77,-463.14C831.58,-442.61 835.13,-414.18 842,-390 842.64,-387.74 843.32,-385.47 844.04,-383.18"/>
<polygon fill="none" stroke="#404040" points="844.06,-383.11 842.17,-376.15 847.87,-371.73 849.76,-378.69 844.06,-383.11"/>
<text text-anchor="middle" x="874" y="-398.5" font-family="Helvetica,sans-Serif" font-size="10.00"> #m_Snapshot</text>
</g>
<!-- Node16 -->
<g id="node16" class="node">
<title>Node16</title>
<g id="a_node16"><a xlink:href="class_sgl_1_1_background.html" target="_top" xlink:title=" ">
<polygon fill="white" stroke="black" points="1407.5,-430.5 1407.5,-553.5 1496.5,-553.5 1496.5,-430.5 1407.5,-430.5"/>
<text text-anchor="middle" x="1452" y="-541.5" font-family="Helvetica,sans-Serif" font-size="10.00">Sgl::Background</text>
<polyline fill="none" stroke="black" points="1407.5,-534.5 1496.5,-534.5 "/>
<text text-anchor="middle" x="1452" y="-522.5" font-family="Helvetica,sans-Serif" font-size="10.00"> </text>
<polyline fill="none" stroke="black" points="1407.5,-515.5 1496.5,-515.5 "/>
<text text-anchor="start" x="1415.5" y="-503.5" font-family="Helvetica,sans-Serif" font-size="10.00">+ Background()</text>
<text text-anchor="start" x="1415.5" y="-492.5" font-family="Helvetica,sans-Serif" font-size="10.00">+ Background()</text>
<text text-anchor="start" x="1415.5" y="-481.5" font-family="Helvetica,sans-Serif" font-size="10.00">+ Background()</text>
<text text-anchor="start" x="1415.5" y="-470.5" font-family="Helvetica,sans-Serif" font-size="10.00">+ Background()</text>
<text text-anchor="start" x="1415.5" y="-459.5" font-family="Helvetica,sans-Serif" font-size="10.00">+ addFill()</text>
<text text-anchor="start" x="1415.5" y="-448.5" font-family="Helvetica,sans-Serif" font-size="10.00">and 5 more...</text>
<text text-anchor="start" x="1415.5" y="-437.5" font-family="Helvetica,sans-Serif" font-size="10.00">+ fillArea()</text>
</a>
</g>
</g>
<!-- Node16&#45;&gt;Node1 -->
<g id="edge27" class="edge">
<title>Node16&#45;&gt;Node1</title>
<path fill="none" stroke="#404040" d="M1459.19,-430.41C1459.61,-417.04 1459.15,-402.99 1457,-390 1439.66,-285.31 1434.53,-255.03 1380,-164 1373.59,-153.3 1365.74,-142.8 1357.44,-132.97"/>
<polygon fill="none" stroke="#404040" points="1357.28,-132.79 1350.32,-130.91 1349.37,-123.76 1356.33,-125.64 1357.28,-132.79"/>
<text text-anchor="middle" x="1519.5" y="-280" font-family="Helvetica,sans-Serif" font-size="10.00"> +DEFAULT_BACKGROUND</text>
</g>
<!-- Node16&#45;&gt;Node2 -->
<g id="edge18" class="edge">
<title>Node16&#45;&gt;Node2</title>
<path fill="none" stroke="#404040" d="M1407.49,-439.22C1387.2,-416.17 1366.31,-393.42 1360,-390 1316.46,-366.38 1298.54,-381.91 1250,-372 1154.92,-352.6 1046.98,-325.45 974.09,-306.36"/>
<polygon fill="none" stroke="#404040" points="973.86,-306.29 967.04,-308.64 962.25,-303.24 969.07,-300.9 973.86,-306.29"/>
<text text-anchor="middle" x="1418" y="-398.5" font-family="Helvetica,sans-Serif" font-size="10.00"> #m_Background</text>
</g>
<!-- Node17 -->
<g id="node17" class="node">
<title>Node17</title>
<g id="a_node17"><a xlink:href="class_sgl_1_1_border.html" target="_top" xlink:title=" ">
<polygon fill="white" stroke="black" points="874,-436 874,-548 964,-548 964,-436 874,-436"/>
<text text-anchor="middle" x="919" y="-536" font-family="Helvetica,sans-Serif" font-size="10.00">Sgl::Border</text>
<polyline fill="none" stroke="black" points="874,-529 964,-529 "/>
<text text-anchor="middle" x="919" y="-517" font-family="Helvetica,sans-Serif" font-size="10.00"> </text>
<polyline fill="none" stroke="black" points="874,-510 964,-510 "/>
<text text-anchor="start" x="882" y="-498" font-family="Helvetica,sans-Serif" font-size="10.00">+ Border()</text>
<text text-anchor="start" x="882" y="-487" font-family="Helvetica,sans-Serif" font-size="10.00">+ Border()</text>
<text text-anchor="start" x="882" y="-476" font-family="Helvetica,sans-Serif" font-size="10.00">+ Border()</text>
<text text-anchor="start" x="882" y="-465" font-family="Helvetica,sans-Serif" font-size="10.00">+ getThickness()</text>
<text text-anchor="start" x="882" y="-454" font-family="Helvetica,sans-Serif" font-size="10.00">+ getColor()</text>
<text text-anchor="start" x="882" y="-443" font-family="Helvetica,sans-Serif" font-size="10.00">+ encloseArea()</text>
</a>
</g>
</g>
<!-- Node17&#45;&gt;Node2 -->
<g id="edge19" class="edge">
<title>Node17&#45;&gt;Node2</title>
<path fill="none" stroke="#404040" d="M915.15,-435.84C913.82,-420.92 912.11,-404.81 910,-390 909.71,-387.95 909.4,-385.88 909.08,-383.79"/>
<polygon fill="none" stroke="#404040" points="909.05,-383.56 904.14,-378.27 907.14,-371.71 912.04,-377 909.05,-383.56"/>
<text text-anchor="middle" x="938.5" y="-398.5" font-family="Helvetica,sans-Serif" font-size="10.00"> #m_Border</text>
</g>
<!-- Node18&#45;&gt;Node2 -->
<g id="edge20" class="edge">
<title>Node18&#45;&gt;Node2</title>
<path fill="none" stroke="#404040" d="M994.43,-435.91C986.35,-420.77 977.2,-404.53 968,-390 966.27,-387.27 964.49,-384.52 962.68,-381.75"/>
<polygon fill="none" stroke="#404040" points="962.63,-381.69 955.97,-378.93 955.96,-371.72 962.62,-374.48 962.63,-381.69"/>
<text text-anchor="middle" x="1010" y="-398.5" font-family="Helvetica,sans-Serif" font-size="10.00"> #m_Padding</text>
</g>
<!-- Node18&#45;&gt;Node18 -->
<g id="edge21" class="edge">
<title>Node18&#45;&gt;Node18</title>
<path fill="none" stroke="#404040" d="M1061.51,-508.7C1071.76,-507.67 1079.5,-502.11 1079.5,-492 1079.5,-486.31 1077.05,-482.07 1073.08,-479.25"/>
<polygon fill="none" stroke="#404040" points="1072.86,-479.18 1065.89,-481.02 1061.51,-475.3 1068.48,-473.45 1072.86,-479.18"/>
<text text-anchor="middle" x="1101.5" y="-489.5" font-family="Helvetica,sans-Serif" font-size="10.00"> +EMPTY</text>
</g>
<!-- Node19 -->
<g id="node19" class="node">
<title>Node19</title>
<g id="a_node19"><a xlink:href="class_sgl_1_1_color_fill.html" target="_top" xlink:title=" ">
<polygon fill="white" stroke="black" points="1259.5,-226.5 1259.5,-338.5 1332.5,-338.5 1332.5,-226.5 1259.5,-226.5"/>
<text text-anchor="middle" x="1296" y="-326.5" font-family="Helvetica,sans-Serif" font-size="10.00">Sgl::ColorFill</text>
<polyline fill="none" stroke="black" points="1259.5,-319.5 1332.5,-319.5 "/>
<text text-anchor="middle" x="1296" y="-307.5" font-family="Helvetica,sans-Serif" font-size="10.00"> </text>
<polyline fill="none" stroke="black" points="1259.5,-300.5 1332.5,-300.5 "/>
<text text-anchor="start" x="1267.5" y="-288.5" font-family="Helvetica,sans-Serif" font-size="10.00">+ ColorFill()</text>
<text text-anchor="start" x="1267.5" y="-277.5" font-family="Helvetica,sans-Serif" font-size="10.00">+ fillLine()</text>
<text text-anchor="start" x="1267.5" y="-266.5" font-family="Helvetica,sans-Serif" font-size="10.00">+ fillArea()</text>
<text text-anchor="start" x="1267.5" y="-255.5" font-family="Helvetica,sans-Serif" font-size="10.00">+ fillPoint()</text>
<text text-anchor="start" x="1267.5" y="-244.5" font-family="Helvetica,sans-Serif" font-size="10.00">+ getColor()</text>
<text text-anchor="start" x="1267.5" y="-233.5" font-family="Helvetica,sans-Serif" font-size="10.00">+ setColor()</text>
</a>
</g>
</g>
<!-- Node19&#45;&gt;Node1 -->
<g id="edge24" class="edge">
<title>Node19&#45;&gt;Node1</title>
<path fill="none" stroke="#404040" d="M1296,-226.44C1296,-198.62 1296,-164.76 1296,-136.02"/>
<polygon fill="none" stroke="#404040" points="1296,-135.64 1292,-129.64 1296,-123.64 1300,-129.64 1296,-135.64"/>
<text text-anchor="middle" x="1336" y="-167" font-family="Helvetica,sans-Serif" font-size="10.00"> +DEFAULT_FILL</text>
</g>
<!-- Node20 -->
<g id="node20" class="node">
<title>Node20</title>
<g id="a_node20"><a xlink:href="class_sgl_1_1_fill.html" target="_top" xlink:title=" ">
<polygon fill="white" stroke="black" points="1248,-452.5 1248,-531.5 1312,-531.5 1312,-452.5 1248,-452.5"/>
<text text-anchor="middle" x="1280" y="-519.5" font-family="Helvetica,sans-Serif" font-size="10.00">Sgl::Fill</text>
<polyline fill="none" stroke="black" points="1248,-512.5 1312,-512.5 "/>
<text text-anchor="middle" x="1280" y="-500.5" font-family="Helvetica,sans-Serif" font-size="10.00"> </text>
<polyline fill="none" stroke="black" points="1248,-493.5 1312,-493.5 "/>
<text text-anchor="start" x="1256" y="-481.5" font-family="Helvetica,sans-Serif" font-size="10.00">+ fillLine()</text>
<text text-anchor="start" x="1256" y="-470.5" font-family="Helvetica,sans-Serif" font-size="10.00">+ fillArea()</text>
<text text-anchor="start" x="1256" y="-459.5" font-family="Helvetica,sans-Serif" font-size="10.00">+ fillPoint()</text>
</a>
</g>
</g>
<!-- Node20&#45;&gt;Node19 -->
<g id="edge25" class="edge">
<title>Node20&#45;&gt;Node19</title>
<path fill="none" stroke="midnightblue" d="M1283.75,-442.3C1286.15,-411.24 1289.26,-370.91 1291.75,-338.66"/>
<polygon fill="none" stroke="midnightblue" points="1280.25,-442.22 1282.97,-452.46 1287.23,-442.76 1280.25,-442.22"/>
</g>
<!-- Node21 -->
<g id="node21" class="node">
<title>Node21</title>
<g id="a_node21"><a xlink:title=" ">
<polygon fill="white" stroke="#bfbfbf" points="1330,-463.5 1330,-520.5 1370,-520.5 1370,-463.5 1330,-463.5"/>
<text text-anchor="middle" x="1350" y="-508.5" font-family="Helvetica,sans-Serif" font-size="10.00">Color</text>
<polyline fill="none" stroke="#bfbfbf" points="1330,-501.5 1370,-501.5 "/>
<text text-anchor="middle" x="1350" y="-489.5" font-family="Helvetica,sans-Serif" font-size="10.00"> </text>
<polyline fill="none" stroke="#bfbfbf" points="1330,-482.5 1370,-482.5 "/>
<text text-anchor="middle" x="1350" y="-470.5" font-family="Helvetica,sans-Serif" font-size="10.00"> </text>
</a>
</g>
</g>
<!-- Node21&#45;&gt;Node19 -->
<g id="edge26" class="edge">
<title>Node21&#45;&gt;Node19</title>
<path fill="none" stroke="#404040" d="M1336.82,-463.12C1327.19,-442.58 1315.55,-417.32 1314,-412 1308.31,-392.48 1304.4,-370.75 1301.72,-350.79"/>
<polygon fill="none" stroke="#404040" points="1301.68,-350.54 1296.97,-345.08 1300.2,-338.63 1304.91,-344.09 1301.68,-350.54"/>
<text text-anchor="middle" x="1337" y="-398.5" font-family="Helvetica,sans-Serif" font-size="10.00"> #m_Color</text>
</g>
</g>
</svg>
