<?xml version="1.0" encoding="UTF-8" standalone="no"?>
<!DOCTYPE svg PUBLIC "-//W3C//DTD SVG 1.1//EN"
 "http://www.w3.org/Graphics/SVG/1.1/DTD/svg11.dtd">
<!-- Generated by graphviz version 2.50.0 (20211204.2007)
 -->
<!-- Title: Sgl::Circle Pages: 1 -->
<svg width="1094pt" height="872pt"
 viewBox="0.00 0.00 1094.39 872.00" xmlns="http://www.w3.org/2000/svg" xmlns:xlink="http://www.w3.org/1999/xlink">
<g id="graph0" class="graph" transform="scale(1 1) rotate(0) translate(4 868)">
<title>Sgl::Circle</title>
<polygon fill="white" stroke="transparent" points="-4,4 -4,-868 1090.39,-868 1090.39,4 -4,4"/>
<!-- Node1 -->
<g id="node1" class="node">
<title>Node1</title>
<g id="a_node1"><a xlink:title=" ">
<polygon fill="#bfbfbf" stroke="black" points="843.39,-0.5 843.39,-123.5 959.39,-123.5 959.39,-0.5 843.39,-0.5"/>
<text text-anchor="middle" x="901.39" y="-111.5" font-family="Helvetica,sans-Serif" font-size="10.00">Sgl::Circle</text>
<polyline fill="none" stroke="black" points="843.39,-104.5 959.39,-104.5 "/>
<text text-anchor="middle" x="901.39" y="-92.5" font-family="Helvetica,sans-Serif" font-size="10.00"> </text>
<polyline fill="none" stroke="black" points="843.39,-85.5 959.39,-85.5 "/>
<text text-anchor="start" x="851.39" y="-73.5" font-family="Helvetica,sans-Serif" font-size="10.00">+ Circle()</text>
<text text-anchor="start" x="851.39" y="-62.5" font-family="Helvetica,sans-Serif" font-size="10.00">+ Circle()</text>
<text text-anchor="start" x="851.39" y="-51.5" font-family="Helvetica,sans-Serif" font-size="10.00">+ getRadius()</text>
<text text-anchor="start" x="851.39" y="-40.5" font-family="Helvetica,sans-Serif" font-size="10.00">+ setRadius()</text>
<text text-anchor="start" x="851.39" y="-29.5" font-family="Helvetica,sans-Serif" font-size="10.00">+ render()</text>
<text text-anchor="start" x="851.39" y="-18.5" font-family="Helvetica,sans-Serif" font-size="10.00">+ computePrefWidth()</text>
<text text-anchor="start" x="851.39" y="-7.5" font-family="Helvetica,sans-Serif" font-size="10.00">+ computePrefHeight()</text>
</a>
</g>
</g>
<!-- Node2 -->
<g id="node2" class="node">
<title>Node2</title>
<g id="a_node2"><a xlink:href="class_sgl_1_1_shape.html" target="_top" xlink:title=" ">
<polygon fill="white" stroke="black" points="859.89,-194.5 859.89,-306.5 942.89,-306.5 942.89,-194.5 859.89,-194.5"/>
<text text-anchor="middle" x="901.39" y="-294.5" font-family="Helvetica,sans-Serif" font-size="10.00">Sgl::Shape</text>
<polyline fill="none" stroke="black" points="859.89,-287.5 942.89,-287.5 "/>
<text text-anchor="middle" x="901.39" y="-275.5" font-family="Helvetica,sans-Serif" font-size="10.00"> </text>
<polyline fill="none" stroke="black" points="859.89,-268.5 942.89,-268.5 "/>
<text text-anchor="start" x="867.89" y="-256.5" font-family="Helvetica,sans-Serif" font-size="10.00">+ Shape()</text>
<text text-anchor="start" x="867.89" y="-245.5" font-family="Helvetica,sans-Serif" font-size="10.00">+ Shape()</text>
<text text-anchor="start" x="867.89" y="-234.5" font-family="Helvetica,sans-Serif" font-size="10.00">+ ~Shape()</text>
<text text-anchor="start" x="867.89" y="-223.5" font-family="Helvetica,sans-Serif" font-size="10.00">+ layout()</text>
<text text-anchor="start" x="867.89" y="-212.5" font-family="Helvetica,sans-Serif" font-size="10.00">+ isResizable()</text>
<text text-anchor="start" x="867.89" y="-201.5" font-family="Helvetica,sans-Serif" font-size="10.00">and 10 more...</text>
</a>
</g>
</g>
<!-- Node2&#45;&gt;Node1 -->
<g id="edge1" class="edge">
<title>Node2&#45;&gt;Node1</title>
<path fill="none" stroke="midnightblue" d="M901.39,-184.19C901.39,-164.5 901.39,-142.97 901.39,-123.6"/>
<polygon fill="none" stroke="midnightblue" points="897.89,-184.3 901.39,-194.3 904.89,-184.3 897.89,-184.3"/>
</g>
<!-- Node3 -->
<g id="node3" class="node">
<title>Node3</title>
<g id="a_node3"><a xlink:href="class_sgl_1_1_component.html" target="_top" xlink:title=" ">
<polygon fill="white" stroke="black" points="396.39,-387.5 396.39,-532.5 524.39,-532.5 524.39,-387.5 396.39,-387.5"/>
<text text-anchor="middle" x="460.39" y="-520.5" font-family="Helvetica,sans-Serif" font-size="10.00">Sgl::Component</text>
<polyline fill="none" stroke="black" points="396.39,-513.5 524.39,-513.5 "/>
<text text-anchor="middle" x="460.39" y="-501.5" font-family="Helvetica,sans-Serif" font-size="10.00"> </text>
<polyline fill="none" stroke="black" points="396.39,-494.5 524.39,-494.5 "/>
<text text-anchor="start" x="404.39" y="-482.5" font-family="Helvetica,sans-Serif" font-size="10.00">+ Component()</text>
<text text-anchor="start" x="404.39" y="-471.5" font-family="Helvetica,sans-Serif" font-size="10.00">+ ~Component()</text>
<text text-anchor="start" x="404.39" y="-460.5" font-family="Helvetica,sans-Serif" font-size="10.00">+ getHitComponent()</text>
<text text-anchor="start" x="404.39" y="-449.5" font-family="Helvetica,sans-Serif" font-size="10.00">+ render()</text>
<text text-anchor="start" x="404.39" y="-438.5" font-family="Helvetica,sans-Serif" font-size="10.00">+ layout()</text>
<text text-anchor="start" x="404.39" y="-427.5" font-family="Helvetica,sans-Serif" font-size="10.00">and 37 more...</text>
<text text-anchor="start" x="404.39" y="-416.5" font-family="Helvetica,sans-Serif" font-size="10.00"># updateShadow()</text>
<text text-anchor="start" x="404.39" y="-405.5" font-family="Helvetica,sans-Serif" font-size="10.00"># renderShadow()</text>
<text text-anchor="start" x="404.39" y="-394.5" font-family="Helvetica,sans-Serif" font-size="10.00"># setSceneInSceneTree()</text>
</a>
</g>
</g>
<!-- Node3&#45;&gt;Node2 -->
<g id="edge2" class="edge">
<title>Node3&#45;&gt;Node2</title>
<path fill="none" stroke="midnightblue" d="M508.42,-379.84C515.7,-371.68 523.71,-364.15 532.39,-358 635.09,-285.26 786.94,-261.89 859.63,-254.63"/>
<polygon fill="none" stroke="midnightblue" points="505.74,-377.59 501.95,-387.48 511.08,-382.11 505.74,-377.59"/>
</g>
<!-- Node13 -->
<g id="node13" class="node">
<title>Node13</title>
<g id="a_node13"><a xlink:href="class_sgl_1_1_parent.html" target="_top" xlink:title=" ">
<polygon fill="white" stroke="black" points="379.39,-161.5 379.39,-339.5 525.39,-339.5 525.39,-161.5 379.39,-161.5"/>
<text text-anchor="middle" x="452.39" y="-327.5" font-family="Helvetica,sans-Serif" font-size="10.00">Sgl::Parent</text>
<polyline fill="none" stroke="black" points="379.39,-320.5 525.39,-320.5 "/>
<text text-anchor="middle" x="452.39" y="-308.5" font-family="Helvetica,sans-Serif" font-size="10.00"> </text>
<polyline fill="none" stroke="black" points="379.39,-301.5 525.39,-301.5 "/>
<text text-anchor="start" x="387.39" y="-289.5" font-family="Helvetica,sans-Serif" font-size="10.00">+ Parent()</text>
<text text-anchor="start" x="387.39" y="-278.5" font-family="Helvetica,sans-Serif" font-size="10.00">+ ~Parent()</text>
<text text-anchor="start" x="387.39" y="-267.5" font-family="Helvetica,sans-Serif" font-size="10.00">+ getHitComponent()</text>
<text text-anchor="start" x="387.39" y="-256.5" font-family="Helvetica,sans-Serif" font-size="10.00">+ render()</text>
<text text-anchor="start" x="387.39" y="-245.5" font-family="Helvetica,sans-Serif" font-size="10.00">+ layout()</text>
<text text-anchor="start" x="387.39" y="-234.5" font-family="Helvetica,sans-Serif" font-size="10.00">and 38 more...</text>
<text text-anchor="start" x="387.39" y="-223.5" font-family="Helvetica,sans-Serif" font-size="10.00"># setSceneInSceneTree()</text>
<text text-anchor="start" x="387.39" y="-212.5" font-family="Helvetica,sans-Serif" font-size="10.00"># layoutChildren()</text>
<text text-anchor="start" x="387.39" y="-201.5" font-family="Helvetica,sans-Serif" font-size="10.00"># prerenderSelf()</text>
<text text-anchor="start" x="387.39" y="-190.5" font-family="Helvetica,sans-Serif" font-size="10.00"># updateSnapshotSize()</text>
<text text-anchor="start" x="387.39" y="-179.5" font-family="Helvetica,sans-Serif" font-size="10.00"># computeCustomPrefWidth()</text>
<text text-anchor="start" x="387.39" y="-168.5" font-family="Helvetica,sans-Serif" font-size="10.00">and 5 more...</text>
</a>
</g>
</g>
<!-- Node3&#45;&gt;Node13 -->
<g id="edge14" class="edge">
<title>Node3&#45;&gt;Node13</title>
<path fill="none" stroke="midnightblue" d="M449.01,-377.24C448.78,-374.46 448.57,-371.71 448.39,-369 447.76,-359.53 447.49,-349.62 447.47,-339.75"/>
<polygon fill="none" stroke="midnightblue" points="445.54,-377.73 449.96,-387.36 452.51,-377.08 445.54,-377.73"/>
</g>
<!-- Node4 -->
<g id="node4" class="node">
<title>Node4</title>
<g id="a_node4"><a xlink:title=" ">
<polygon fill="white" stroke="#bfbfbf" points="360.39,-806.5 360.39,-863.5 452.39,-863.5 452.39,-806.5 360.39,-806.5"/>
<text text-anchor="middle" x="406.39" y="-851.5" font-family="Helvetica,sans-Serif" font-size="10.00">Sml::EventTarget</text>
<polyline fill="none" stroke="#bfbfbf" points="360.39,-844.5 452.39,-844.5 "/>
<text text-anchor="middle" x="406.39" y="-832.5" font-family="Helvetica,sans-Serif" font-size="10.00"> </text>
<polyline fill="none" stroke="#bfbfbf" points="360.39,-825.5 452.39,-825.5 "/>
<text text-anchor="middle" x="406.39" y="-813.5" font-family="Helvetica,sans-Serif" font-size="10.00"> </text>
</a>
</g>
</g>
<!-- Node4&#45;&gt;Node3 -->
<g id="edge3" class="edge">
<title>Node4&#45;&gt;Node3</title>
<path fill="none" stroke="midnightblue" d="M403.08,-796.16C400.06,-751.89 397.52,-676.55 408.39,-613 412.97,-586.2 421.6,-557.76 430.54,-532.82"/>
<polygon fill="none" stroke="midnightblue" points="399.6,-796.47 403.81,-806.18 406.58,-795.96 399.6,-796.47"/>
</g>
<!-- Node12 -->
<g id="node12" class="node">
<title>Node12</title>
<g id="a_node12"><a xlink:href="class_sgl_1_1_scene.html" target="_top" xlink:title=" ">
<polygon fill="white" stroke="black" points="417.39,-624.5 417.39,-736.5 497.39,-736.5 497.39,-624.5 417.39,-624.5"/>
<text text-anchor="middle" x="457.39" y="-724.5" font-family="Helvetica,sans-Serif" font-size="10.00">Sgl::Scene</text>
<polyline fill="none" stroke="black" points="417.39,-717.5 497.39,-717.5 "/>
<text text-anchor="middle" x="457.39" y="-705.5" font-family="Helvetica,sans-Serif" font-size="10.00"> </text>
<polyline fill="none" stroke="black" points="417.39,-698.5 497.39,-698.5 "/>
<text text-anchor="start" x="425.39" y="-686.5" font-family="Helvetica,sans-Serif" font-size="10.00">+ Scene()</text>
<text text-anchor="start" x="425.39" y="-675.5" font-family="Helvetica,sans-Serif" font-size="10.00">+ Scene()</text>
<text text-anchor="start" x="425.39" y="-664.5" font-family="Helvetica,sans-Serif" font-size="10.00">+ ~Scene()</text>
<text text-anchor="start" x="425.39" y="-653.5" font-family="Helvetica,sans-Serif" font-size="10.00">+ update()</text>
<text text-anchor="start" x="425.39" y="-642.5" font-family="Helvetica,sans-Serif" font-size="10.00">+ render()</text>
<text text-anchor="start" x="425.39" y="-631.5" font-family="Helvetica,sans-Serif" font-size="10.00">and 17 more...</text>
</a>
</g>
</g>
<!-- Node4&#45;&gt;Node12 -->
<g id="edge12" class="edge">
<title>Node4&#45;&gt;Node12</title>
<path fill="none" stroke="midnightblue" d="M418.83,-796.8C424.87,-778.74 432.24,-756.68 438.92,-736.71"/>
<polygon fill="none" stroke="midnightblue" points="415.47,-795.79 415.62,-806.38 422.11,-798.01 415.47,-795.79"/>
</g>
<!-- Node5 -->
<g id="node5" class="node">
<title>Node5</title>
<g id="a_node5"><a xlink:title=" ">
<polygon fill="white" stroke="#bfbfbf" points="62.39,-652 62.39,-709 108.39,-709 108.39,-652 62.39,-652"/>
<text text-anchor="middle" x="85.39" y="-697" font-family="Helvetica,sans-Serif" font-size="10.00">int32_t</text>
<polyline fill="none" stroke="#bfbfbf" points="62.39,-690 108.39,-690 "/>
<text text-anchor="middle" x="85.39" y="-678" font-family="Helvetica,sans-Serif" font-size="10.00"> </text>
<polyline fill="none" stroke="#bfbfbf" points="62.39,-671 108.39,-671 "/>
<text text-anchor="middle" x="85.39" y="-659" font-family="Helvetica,sans-Serif" font-size="10.00"> </text>
</a>
</g>
</g>
<!-- Node5&#45;&gt;Node3 -->
<g id="edge4" class="edge">
<title>Node5&#45;&gt;Node3</title>
<path fill="none" stroke="#404040" d="M95.76,-651.96C108.82,-621.5 134.38,-573.75 173.39,-551 253.92,-504.02 297.09,-570.65 382.39,-533 383.42,-532.54 384.45,-532.07 385.47,-531.58"/>
<polygon fill="none" stroke="#404040" points="385.71,-531.44 389.03,-525.04 396.22,-525.65 392.89,-532.05 385.71,-531.44"/>
<text text-anchor="middle" x="232.39" y="-576" font-family="Helvetica,sans-Serif" font-size="10.00"> +UNLIMITED_SIZE</text>
<text text-anchor="middle" x="232.39" y="-565" font-family="Helvetica,sans-Serif" font-size="10.00">+USE_COMPUTED_SIZE</text>
</g>
<!-- Node5&#45;&gt;Node13 -->
<g id="edge23" class="edge">
<title>Node5&#45;&gt;Node13</title>
<path fill="none" stroke="#404040" d="M66.74,-651.92C31.64,-596.26 -35.53,-468.82 24.39,-387 65.15,-331.33 254.25,-287.85 367,-266.33"/>
<polygon fill="none" stroke="#404040" points="367.22,-266.29 372.38,-261.25 379.01,-264.07 373.86,-269.11 367.22,-266.29"/>
<text text-anchor="middle" x="59.39" y="-485" font-family="Helvetica,sans-Serif" font-size="10.00"> #m_MaxHeight</text>
<text text-anchor="middle" x="59.39" y="-474" font-family="Helvetica,sans-Serif" font-size="10.00">#m_MaxWidth</text>
<text text-anchor="middle" x="59.39" y="-463" font-family="Helvetica,sans-Serif" font-size="10.00">#m_MinHeight</text>
<text text-anchor="middle" x="59.39" y="-452" font-family="Helvetica,sans-Serif" font-size="10.00">#m_MinWidth</text>
<text text-anchor="middle" x="59.39" y="-441" font-family="Helvetica,sans-Serif" font-size="10.00">#m_PrefHeight</text>
<text text-anchor="middle" x="59.39" y="-430" font-family="Helvetica,sans-Serif" font-size="10.00">#m_PrefWidth</text>
</g>
<!-- Node18 -->
<g id="node18" class="node">
<title>Node18</title>
<g id="a_node18"><a xlink:href="struct_sgl_1_1_insets.html" target="_top" xlink:title=" ">
<polygon fill="white" stroke="black" points="103.89,-404 103.89,-516 182.89,-516 182.89,-404 103.89,-404"/>
<text text-anchor="middle" x="143.39" y="-504" font-family="Helvetica,sans-Serif" font-size="10.00">Sgl::Insets</text>
<polyline fill="none" stroke="black" points="103.89,-497 182.89,-497 "/>
<text text-anchor="middle" x="143.39" y="-485" font-family="Helvetica,sans-Serif" font-size="10.00"> </text>
<polyline fill="none" stroke="black" points="103.89,-478 182.89,-478 "/>
<text text-anchor="start" x="111.89" y="-466" font-family="Helvetica,sans-Serif" font-size="10.00">+ Insets()</text>
<text text-anchor="start" x="111.89" y="-455" font-family="Helvetica,sans-Serif" font-size="10.00">+ Insets()</text>
<text text-anchor="start" x="111.89" y="-444" font-family="Helvetica,sans-Serif" font-size="10.00">+ Insets()</text>
<text text-anchor="start" x="111.89" y="-433" font-family="Helvetica,sans-Serif" font-size="10.00">+ Insets()</text>
<text text-anchor="start" x="111.89" y="-422" font-family="Helvetica,sans-Serif" font-size="10.00">+ operator+=()</text>
<text text-anchor="start" x="111.89" y="-411" font-family="Helvetica,sans-Serif" font-size="10.00">+ operator&#45;=()</text>
</a>
</g>
</g>
<!-- Node5&#45;&gt;Node18 -->
<g id="edge22" class="edge">
<title>Node5&#45;&gt;Node18</title>
<path fill="none" stroke="#404040" d="M81.28,-651.79C78.36,-625.32 76.5,-584.6 86.39,-551 89.13,-541.67 93.16,-532.37 97.82,-523.48"/>
<polygon fill="none" stroke="#404040" points="97.9,-523.34 97.35,-516.15 103.78,-512.88 104.33,-520.07 97.9,-523.34"/>
<text text-anchor="middle" x="106.39" y="-587" font-family="Helvetica,sans-Serif" font-size="10.00"> +bottom</text>
<text text-anchor="middle" x="106.39" y="-576" font-family="Helvetica,sans-Serif" font-size="10.00">+left</text>
<text text-anchor="middle" x="106.39" y="-565" font-family="Helvetica,sans-Serif" font-size="10.00">+right</text>
<text text-anchor="middle" x="106.39" y="-554" font-family="Helvetica,sans-Serif" font-size="10.00">+top</text>
</g>
<!-- Node6 -->
<g id="node6" class="node">
<title>Node6</title>
<g id="a_node6"><a xlink:title=" ">
<polygon fill="white" stroke="#bfbfbf" points="515.89,-652 515.89,-709 556.89,-709 556.89,-652 515.89,-652"/>
<text text-anchor="middle" x="536.39" y="-697" font-family="Helvetica,sans-Serif" font-size="10.00">friend</text>
<polyline fill="none" stroke="#bfbfbf" points="515.89,-690 556.89,-690 "/>
<text text-anchor="middle" x="536.39" y="-678" font-family="Helvetica,sans-Serif" font-size="10.00"> </text>
<polyline fill="none" stroke="#bfbfbf" points="515.89,-671 556.89,-671 "/>
<text text-anchor="middle" x="536.39" y="-659" font-family="Helvetica,sans-Serif" font-size="10.00"> </text>
</a>
</g>
</g>
<!-- Node6&#45;&gt;Node3 -->
<g id="edge5" class="edge">
<title>Node6&#45;&gt;Node3</title>
<path fill="none" stroke="#404040" d="M533.97,-651.96C531.01,-625.44 524.79,-584.52 512.39,-551 511.51,-548.62 510.57,-546.23 509.57,-543.84"/>
<polygon fill="none" stroke="#404040" points="509.48,-543.62 503.38,-539.77 504.6,-532.66 510.69,-536.52 509.48,-543.62"/>
<text text-anchor="middle" x="541.89" y="-570.5" font-family="Helvetica,sans-Serif" font-size="10.00"> +Scene</text>
</g>
<!-- Node7 -->
<g id="node7" class="node">
<title>Node7</title>
<g id="a_node7"><a xlink:title=" ">
<polygon fill="white" stroke="#bfbfbf" points="279.89,-652 279.89,-709 314.89,-709 314.89,-652 279.89,-652"/>
<text text-anchor="middle" x="297.39" y="-697" font-family="Helvetica,sans-Serif" font-size="10.00">bool</text>
<polyline fill="none" stroke="#bfbfbf" points="279.89,-690 314.89,-690 "/>
<text text-anchor="middle" x="297.39" y="-678" font-family="Helvetica,sans-Serif" font-size="10.00"> </text>
<polyline fill="none" stroke="#bfbfbf" points="279.89,-671 314.89,-671 "/>
<text text-anchor="middle" x="297.39" y="-659" font-family="Helvetica,sans-Serif" font-size="10.00"> </text>
</a>
</g>
</g>
<!-- Node7&#45;&gt;Node3 -->
<g id="edge6" class="edge">
<title>Node7&#45;&gt;Node3</title>
<path fill="none" stroke="#404040" d="M293.16,-651.84C290.42,-623.09 291.07,-578.51 315.39,-551 335.8,-527.9 355.39,-547.89 382.39,-533 383.56,-532.35 384.72,-531.69 385.88,-531"/>
<polygon fill="none" stroke="#404040" points="386.12,-530.85 388.99,-524.24 396.2,-524.35 393.33,-530.96 386.12,-530.85"/>
<text text-anchor="middle" x="345.39" y="-581.5" font-family="Helvetica,sans-Serif" font-size="10.00"> #m_Focused</text>
<text text-anchor="middle" x="345.39" y="-570.5" font-family="Helvetica,sans-Serif" font-size="10.00">#m_Hovered</text>
<text text-anchor="middle" x="345.39" y="-559.5" font-family="Helvetica,sans-Serif" font-size="10.00">#m_Visible</text>
</g>
<!-- Node7&#45;&gt;Node13 -->
<g id="edge17" class="edge">
<title>Node7&#45;&gt;Node13</title>
<path fill="none" stroke="#404040" d="M288.9,-651.63C274.07,-597.59 248.78,-476.05 290.39,-387 307.12,-351.18 338.5,-321.5 369.22,-299.13"/>
<polygon fill="none" stroke="#404040" points="369.34,-299.05 371.94,-292.32 379.15,-292.13 376.55,-298.86 369.34,-299.05"/>
<text text-anchor="middle" x="338.89" y="-457.5" font-family="Helvetica,sans-Serif" font-size="10.00"> #m_NeedLayoutPass</text>
</g>
<!-- Node8 -->
<g id="node8" class="node">
<title>Node8</title>
<g id="a_node8"><a xlink:href="class_sgl_1_1_shadow.html" target="_top" xlink:title=" ">
<polygon fill="white" stroke="black" points="574.89,-619 574.89,-742 675.89,-742 675.89,-619 574.89,-619"/>
<text text-anchor="middle" x="625.39" y="-730" font-family="Helvetica,sans-Serif" font-size="10.00">Sgl::Shadow</text>
<polyline fill="none" stroke="black" points="574.89,-723 675.89,-723 "/>
<text text-anchor="middle" x="625.39" y="-711" font-family="Helvetica,sans-Serif" font-size="10.00"> </text>
<polyline fill="none" stroke="black" points="574.89,-704 675.89,-704 "/>
<text text-anchor="start" x="582.89" y="-692" font-family="Helvetica,sans-Serif" font-size="10.00">+ Shadow()</text>
<text text-anchor="start" x="582.89" y="-681" font-family="Helvetica,sans-Serif" font-size="10.00">+ ~Shadow()</text>
<text text-anchor="start" x="582.89" y="-670" font-family="Helvetica,sans-Serif" font-size="10.00">+ update()</text>
<text text-anchor="start" x="582.89" y="-659" font-family="Helvetica,sans-Serif" font-size="10.00">+ render()</text>
<text text-anchor="start" x="582.89" y="-648" font-family="Helvetica,sans-Serif" font-size="10.00">+ getTexture()</text>
<text text-anchor="start" x="582.89" y="-637" font-family="Helvetica,sans-Serif" font-size="10.00">+ getSpecification()</text>
<text text-anchor="start" x="582.89" y="-626" font-family="Helvetica,sans-Serif" font-size="10.00">+ setSpecification()</text>
</a>
</g>
</g>
<!-- Node8&#45;&gt;Node3 -->
<g id="edge7" class="edge">
<title>Node8&#45;&gt;Node3</title>
<path fill="none" stroke="#404040" d="M605.22,-618.82C595.46,-595.75 581.98,-570.39 564.39,-551 553.94,-539.48 546.71,-542.49 534.39,-533 534.28,-532.92 534.18,-532.84 534.08,-532.76"/>
<polygon fill="none" stroke="#404040" points="533.93,-532.64 526.75,-531.99 524.58,-525.11 531.77,-525.76 533.93,-532.64"/>
<text text-anchor="middle" x="621.39" y="-570.5" font-family="Helvetica,sans-Serif" font-size="10.00"> #m_Shadow</text>
</g>
<!-- Node9 -->
<g id="node9" class="node">
<title>Node9</title>
<g id="a_node9"><a xlink:href="class_gui_event_dispatcher.html" target="_top" xlink:title=" ">
<polygon fill="white" stroke="black" points="693.89,-613.5 693.89,-747.5 828.89,-747.5 828.89,-613.5 693.89,-613.5"/>
<text text-anchor="middle" x="761.39" y="-735.5" font-family="Helvetica,sans-Serif" font-size="10.00">GuiEventDispatcher</text>
<polyline fill="none" stroke="black" points="693.89,-728.5 828.89,-728.5 "/>
<text text-anchor="middle" x="761.39" y="-716.5" font-family="Helvetica,sans-Serif" font-size="10.00"> </text>
<polyline fill="none" stroke="black" points="693.89,-709.5 828.89,-709.5 "/>
<text text-anchor="start" x="701.89" y="-697.5" font-family="Helvetica,sans-Serif" font-size="10.00">+ ~GuiEventDispatcher()</text>
<text text-anchor="start" x="701.89" y="-686.5" font-family="Helvetica,sans-Serif" font-size="10.00">+ attachFilter()</text>
<text text-anchor="start" x="701.89" y="-675.5" font-family="Helvetica,sans-Serif" font-size="10.00">+ detachFilter()</text>
<text text-anchor="start" x="701.89" y="-664.5" font-family="Helvetica,sans-Serif" font-size="10.00">+ attachHandler()</text>
<text text-anchor="start" x="701.89" y="-653.5" font-family="Helvetica,sans-Serif" font-size="10.00">+ detachHandler()</text>
<text text-anchor="start" x="701.89" y="-642.5" font-family="Helvetica,sans-Serif" font-size="10.00">+ dispatchEvent()</text>
<text text-anchor="start" x="701.89" y="-631.5" font-family="Helvetica,sans-Serif" font-size="10.00"># dispatchCapturingEvent()</text>
<text text-anchor="start" x="701.89" y="-620.5" font-family="Helvetica,sans-Serif" font-size="10.00"># dispatchBubblingEvent()</text>
</a>
</g>
</g>
<!-- Node9&#45;&gt;Node3 -->
<g id="edge8" class="edge">
<title>Node9&#45;&gt;Node3</title>
<path fill="none" stroke="#404040" d="M721.1,-613.39C703.51,-590.02 680.82,-565.88 654.39,-551 610.51,-526.3 586.08,-552.91 535.63,-532.5"/>
<polygon fill="none" stroke="#404040" points="535.36,-532.38 528.25,-533.53 524.45,-527.4 531.57,-526.25 535.36,-532.38"/>
<text text-anchor="middle" x="740.39" y="-570.5" font-family="Helvetica,sans-Serif" font-size="10.00"> #m_Dispatcher</text>
</g>
<!-- Node10 -->
<g id="node10" class="node">
<title>Node10</title>
<g id="a_node10"><a xlink:title=" ">
<polygon fill="white" stroke="#bfbfbf" points="654.89,-806.5 654.89,-863.5 767.89,-863.5 767.89,-806.5 654.89,-806.5"/>
<text text-anchor="middle" x="711.39" y="-851.5" font-family="Helvetica,sans-Serif" font-size="10.00">Sml::EventDispatcher</text>
<polyline fill="none" stroke="#bfbfbf" points="654.89,-844.5 767.89,-844.5 "/>
<text text-anchor="middle" x="711.39" y="-832.5" font-family="Helvetica,sans-Serif" font-size="10.00"> </text>
<polyline fill="none" stroke="#bfbfbf" points="654.89,-825.5 767.89,-825.5 "/>
<text text-anchor="middle" x="711.39" y="-813.5" font-family="Helvetica,sans-Serif" font-size="10.00"> </text>
</a>
</g>
</g>
<!-- Node10&#45;&gt;Node9 -->
<g id="edge9" class="edge">
<title>Node10&#45;&gt;Node9</title>
<path fill="none" stroke="midnightblue" d="M723.65,-796.61C728.5,-781.81 734.22,-764.35 739.73,-747.56"/>
<polygon fill="none" stroke="midnightblue" points="720.23,-795.79 720.44,-806.38 726.88,-797.97 720.23,-795.79"/>
</g>
<!-- Node11 -->
<g id="node11" class="node">
<title>Node11</title>
<g id="a_node11"><a xlink:title=" ">
<polygon fill="white" stroke="#bfbfbf" points="786.39,-806.5 786.39,-863.5 834.39,-863.5 834.39,-806.5 786.39,-806.5"/>
<text text-anchor="middle" x="810.39" y="-851.5" font-family="Helvetica,sans-Serif" font-size="10.00">Notifier</text>
<polyline fill="none" stroke="#bfbfbf" points="786.39,-844.5 834.39,-844.5 "/>
<text text-anchor="middle" x="810.39" y="-832.5" font-family="Helvetica,sans-Serif" font-size="10.00"> </text>
<polyline fill="none" stroke="#bfbfbf" points="786.39,-825.5 834.39,-825.5 "/>
<text text-anchor="middle" x="810.39" y="-813.5" font-family="Helvetica,sans-Serif" font-size="10.00"> </text>
</a>
</g>
</g>
<!-- Node11&#45;&gt;Node9 -->
<g id="edge10" class="edge">
<title>Node11&#45;&gt;Node9</title>
<path fill="none" stroke="#404040" d="M801.51,-806.38C797.21,-792.99 791.8,-776.17 786.37,-759.25"/>
<polygon fill="none" stroke="#404040" points="786.28,-758.98 780.64,-754.49 782.61,-747.56 788.26,-752.05 786.28,-758.98"/>
<text text-anchor="middle" x="839.39" y="-780" font-family="Helvetica,sans-Serif" font-size="10.00"> #m_FiltersNotifier</text>
<text text-anchor="middle" x="839.39" y="-769" font-family="Helvetica,sans-Serif" font-size="10.00">#m_HandlersNotifier</text>
</g>
<!-- Node12&#45;&gt;Node3 -->
<g id="edge11" class="edge">
<title>Node12&#45;&gt;Node3</title>
<path fill="none" stroke="#404040" d="M458.14,-624.36C458.47,-600.24 458.87,-571.42 459.24,-544.74"/>
<polygon fill="none" stroke="#404040" points="459.24,-544.66 455.32,-538.6 459.4,-532.66 463.32,-538.71 459.24,-544.66"/>
<text text-anchor="middle" x="483.39" y="-570.5" font-family="Helvetica,sans-Serif" font-size="10.00"> #m_Scene</text>
</g>
<!-- Node13&#45;&gt;Node3 -->
<g id="edge13" class="edge">
<title>Node13&#45;&gt;Node3</title>
<path fill="none" stroke="#404040" d="M452.48,-339.74C452.69,-349.61 452.98,-359.52 453.39,-369 453.47,-371.05 453.57,-373.12 453.68,-375.2"/>
<polygon fill="none" stroke="#404040" points="453.68,-375.32 458.02,-381.09 454.36,-387.3 450.03,-381.54 453.68,-375.32"/>
<text text-anchor="middle" x="478.89" y="-361" font-family="Helvetica,sans-Serif" font-size="10.00"> #m_Parent</text>
</g>
<!-- Node14 -->
<g id="node14" class="node">
<title>Node14</title>
<g id="a_node14"><a xlink:title=" ">
<polygon fill="white" stroke="#bfbfbf" points="542.89,-431.5 542.89,-488.5 577.89,-488.5 577.89,-431.5 542.89,-431.5"/>
<text text-anchor="middle" x="560.39" y="-476.5" font-family="Helvetica,sans-Serif" font-size="10.00">list&lt;</text>
<polyline fill="none" stroke="#bfbfbf" points="542.89,-469.5 577.89,-469.5 "/>
<text text-anchor="middle" x="560.39" y="-457.5" font-family="Helvetica,sans-Serif" font-size="10.00"> </text>
<polyline fill="none" stroke="#bfbfbf" points="542.89,-450.5 577.89,-450.5 "/>
<text text-anchor="middle" x="560.39" y="-438.5" font-family="Helvetica,sans-Serif" font-size="10.00"> </text>
</a>
</g>
</g>
<!-- Node14&#45;&gt;Node13 -->
<g id="edge15" class="edge">
<title>Node14&#45;&gt;Node13</title>
<path fill="none" stroke="#404040" d="M551.27,-431.16C546.49,-417.6 540.22,-401.19 533.39,-387 527.55,-374.87 520.97,-362.41 514.14,-350.19"/>
<polygon fill="none" stroke="#404040" points="514.02,-349.97 507.58,-346.72 508.1,-339.53 514.54,-342.77 514.02,-349.97"/>
<text text-anchor="middle" x="552.39" y="-361" font-family="Helvetica,sans-Serif" font-size="10.00"> #m_Children</text>
</g>
<!-- Node15 -->
<g id="node15" class="node">
<title>Node15</title>
<g id="a_node15"><a xlink:title=" ">
<polygon fill="white" stroke="#bfbfbf" points="604.39,-431.5 604.39,-488.5 660.39,-488.5 660.39,-431.5 604.39,-431.5"/>
<text text-anchor="middle" x="632.39" y="-476.5" font-family="Helvetica,sans-Serif" font-size="10.00">Texture *</text>
<polyline fill="none" stroke="#bfbfbf" points="604.39,-469.5 660.39,-469.5 "/>
<text text-anchor="middle" x="632.39" y="-457.5" font-family="Helvetica,sans-Serif" font-size="10.00"> </text>
<polyline fill="none" stroke="#bfbfbf" points="604.39,-450.5 660.39,-450.5 "/>
<text text-anchor="middle" x="632.39" y="-438.5" font-family="Helvetica,sans-Serif" font-size="10.00"> </text>
</a>
</g>
</g>
<!-- Node15&#45;&gt;Node13 -->
<g id="edge16" class="edge">
<title>Node15&#45;&gt;Node13</title>
<path fill="none" stroke="#404040" d="M623.47,-431.38C615.66,-409.94 602.82,-380.21 585.39,-358 571.08,-339.77 553.07,-322.73 534.97,-307.85"/>
<polygon fill="none" stroke="#404040" points="534.87,-307.77 527.69,-307.14 525.51,-300.27 532.69,-300.9 534.87,-307.77"/>
<text text-anchor="middle" x="624.39" y="-361" font-family="Helvetica,sans-Serif" font-size="10.00"> #m_Snapshot</text>
</g>
<!-- Node16 -->
<g id="node16" class="node">
<title>Node16</title>
<g id="a_node16"><a xlink:href="class_sgl_1_1_background.html" target="_top" xlink:title=" ">
<polygon fill="white" stroke="black" points="725.89,-398.5 725.89,-521.5 814.89,-521.5 814.89,-398.5 725.89,-398.5"/>
<text text-anchor="middle" x="770.39" y="-509.5" font-family="Helvetica,sans-Serif" font-size="10.00">Sgl::Background</text>
<polyline fill="none" stroke="black" points="725.89,-502.5 814.89,-502.5 "/>
<text text-anchor="middle" x="770.39" y="-490.5" font-family="Helvetica,sans-Serif" font-size="10.00"> </text>
<polyline fill="none" stroke="black" points="725.89,-483.5 814.89,-483.5 "/>
<text text-anchor="start" x="733.89" y="-471.5" font-family="Helvetica,sans-Serif" font-size="10.00">+ Background()</text>
<text text-anchor="start" x="733.89" y="-460.5" font-family="Helvetica,sans-Serif" font-size="10.00">+ Background()</text>
<text text-anchor="start" x="733.89" y="-449.5" font-family="Helvetica,sans-Serif" font-size="10.00">+ Background()</text>
<text text-anchor="start" x="733.89" y="-438.5" font-family="Helvetica,sans-Serif" font-size="10.00">+ Background()</text>
<text text-anchor="start" x="733.89" y="-427.5" font-family="Helvetica,sans-Serif" font-size="10.00">+ addFill()</text>
<text text-anchor="start" x="733.89" y="-416.5" font-family="Helvetica,sans-Serif" font-size="10.00">and 5 more...</text>
<text text-anchor="start" x="733.89" y="-405.5" font-family="Helvetica,sans-Serif" font-size="10.00">+ fillArea()</text>
</a>
</g>
</g>
<!-- Node16&#45;&gt;Node2 -->
<g id="edge26" class="edge">
<title>Node16&#45;&gt;Node2</title>
<path fill="none" stroke="#404040" d="M795.87,-398.25C802.31,-384.69 809.63,-370.6 817.39,-358 827.66,-341.31 840.13,-324.21 852.28,-308.74"/>
<polygon fill="none" stroke="#404040" points="852.31,-308.72 852.92,-301.53 859.79,-299.34 859.17,-306.52 852.31,-308.72"/>
<text text-anchor="middle" x="854.39" y="-361" font-family="Helvetica,sans-Serif" font-size="10.00"> #m_Background</text>
</g>
<!-- Node16&#45;&gt;Node13 -->
<g id="edge18" class="edge">
<title>Node16&#45;&gt;Node13</title>
<path fill="none" stroke="#404040" d="M725.65,-412.8C706.54,-394.47 683.37,-373.99 660.39,-358 621.81,-331.16 575.56,-306.8 536.48,-288.18"/>
<polygon fill="none" stroke="#404040" points="536.25,-288.07 529.11,-289.13 525.39,-282.95 532.52,-281.89 536.25,-288.07"/>
<text text-anchor="middle" x="710.39" y="-361" font-family="Helvetica,sans-Serif" font-size="10.00"> #m_Background</text>
</g>
<!-- Node17 -->
<g id="node17" class="node">
<title>Node17</title>
<g id="a_node17"><a xlink:href="class_sgl_1_1_border.html" target="_top" xlink:title=" ">
<polygon fill="white" stroke="black" points="906.39,-404 906.39,-516 996.39,-516 996.39,-404 906.39,-404"/>
<text text-anchor="middle" x="951.39" y="-504" font-family="Helvetica,sans-Serif" font-size="10.00">Sgl::Border</text>
<polyline fill="none" stroke="black" points="906.39,-497 996.39,-497 "/>
<text text-anchor="middle" x="951.39" y="-485" font-family="Helvetica,sans-Serif" font-size="10.00"> </text>
<polyline fill="none" stroke="black" points="906.39,-478 996.39,-478 "/>
<text text-anchor="start" x="914.39" y="-466" font-family="Helvetica,sans-Serif" font-size="10.00">+ Border()</text>
<text text-anchor="start" x="914.39" y="-455" font-family="Helvetica,sans-Serif" font-size="10.00">+ Border()</text>
<text text-anchor="start" x="914.39" y="-444" font-family="Helvetica,sans-Serif" font-size="10.00">+ Border()</text>
<text text-anchor="start" x="914.39" y="-433" font-family="Helvetica,sans-Serif" font-size="10.00">+ getThickness()</text>
<text text-anchor="start" x="914.39" y="-422" font-family="Helvetica,sans-Serif" font-size="10.00">+ getColor()</text>
<text text-anchor="start" x="914.39" y="-411" font-family="Helvetica,sans-Serif" font-size="10.00">+ encloseArea()</text>
</a>
</g>
</g>
<!-- Node17&#45;&gt;Node2 -->
<g id="edge27" class="edge">
<title>Node17&#45;&gt;Node2</title>
<path fill="none" stroke="#404040" d="M967.09,-403.94C969.21,-388.88 969.46,-372.67 965.39,-358 961.54,-344.12 955.34,-330.23 948.28,-317.28"/>
<polygon fill="none" stroke="#404040" points="948.15,-317.05 941.69,-313.84 942.18,-306.65 948.63,-309.86 948.15,-317.05"/>
<text text-anchor="middle" x="992.89" y="-361" font-family="Helvetica,sans-Serif" font-size="10.00"> #m_Border</text>
</g>
<!-- Node17&#45;&gt;Node13 -->
<g id="edge19" class="edge">
<title>Node17&#45;&gt;Node13</title>
<path fill="none" stroke="#404040" d="M928.97,-403.86C919.64,-386.93 907.22,-369.7 891.39,-358 862.99,-337.02 657.35,-292.86 537.85,-268.51"/>
<polygon fill="none" stroke="#404040" points="537.61,-268.47 530.94,-271.19 525.85,-266.08 532.53,-263.35 537.61,-268.47"/>
<text text-anchor="middle" x="927.89" y="-361" font-family="Helvetica,sans-Serif" font-size="10.00"> #m_Border</text>
</g>
<!-- Node18&#45;&gt;Node13 -->
<g id="edge20" class="edge">
<title>Node18&#45;&gt;Node13</title>
<path fill="none" stroke="#404040" d="M171.34,-403.87C181.61,-387.54 194.44,-370.65 209.39,-358 255.37,-319.07 317.81,-292.12 367.88,-275.07"/>
<polygon fill="none" stroke="#404040" points="367.95,-275.04 372.39,-269.35 379.34,-271.26 374.91,-276.95 367.95,-275.04"/>
<text text-anchor="middle" x="238.39" y="-361" font-family="Helvetica,sans-Serif" font-size="10.00"> #m_Padding</text>
</g>
<!-- Node18&#45;&gt;Node18 -->
<g id="edge21" class="edge">
<title>Node18&#45;&gt;Node18</title>
<path fill="none" stroke="#404040" d="M182.89,-477.81C193.15,-476.72 200.89,-470.78 200.89,-460 200.89,-453.94 198.44,-449.4 194.47,-446.4"/>
<polygon fill="none" stroke="#404040" points="194.17,-446.29 187.16,-448 182.89,-442.19 189.9,-440.48 194.17,-446.29"/>
<text text-anchor="middle" x="222.89" y="-457.5" font-family="Helvetica,sans-Serif" font-size="10.00"> +EMPTY</text>
</g>
<!-- Node19 -->
<g id="node19" class="node">
<title>Node19</title>
<g id="a_node19"><a xlink:title=" ">
<polygon fill="white" stroke="#bfbfbf" points="846.89,-652 846.89,-709 913.89,-709 913.89,-652 846.89,-652"/>
<text text-anchor="middle" x="880.39" y="-697" font-family="Helvetica,sans-Serif" font-size="10.00">Rectangle&lt;</text>
<polyline fill="none" stroke="#bfbfbf" points="846.89,-690 913.89,-690 "/>
<text text-anchor="middle" x="880.39" y="-678" font-family="Helvetica,sans-Serif" font-size="10.00"> </text>
<polyline fill="none" stroke="#bfbfbf" points="846.89,-671 913.89,-671 "/>
<text text-anchor="middle" x="880.39" y="-659" font-family="Helvetica,sans-Serif" font-size="10.00"> </text>
</a>
</g>
</g>
<!-- Node19&#45;&gt;Node3 -->
<g id="edge24" class="edge">
<title>Node19&#45;&gt;Node3</title>
<path fill="none" stroke="#404040" d="M868.2,-651.89C852.69,-620.64 822.61,-571.44 779.39,-551 684.16,-505.96 637.32,-572.76 536.06,-532.81"/>
<polygon fill="none" stroke="#404040" points="535.81,-532.7 528.72,-534.03 524.77,-528 531.85,-526.67 535.81,-532.7"/>
<text text-anchor="middle" x="871.89" y="-570.5" font-family="Helvetica,sans-Serif" font-size="10.00"> #m_LayoutBounds</text>
</g>
<!-- Node20 -->
<g id="node20" class="node">
<title>Node20</title>
<g id="a_node20"><a xlink:title=" ">
<polygon fill="white" stroke="#bfbfbf" points="1041.39,-431.5 1041.39,-488.5 1081.39,-488.5 1081.39,-431.5 1041.39,-431.5"/>
<text text-anchor="middle" x="1061.39" y="-476.5" font-family="Helvetica,sans-Serif" font-size="10.00">Color</text>
<polyline fill="none" stroke="#bfbfbf" points="1041.39,-469.5 1081.39,-469.5 "/>
<text text-anchor="middle" x="1061.39" y="-457.5" font-family="Helvetica,sans-Serif" font-size="10.00"> </text>
<polyline fill="none" stroke="#bfbfbf" points="1041.39,-450.5 1081.39,-450.5 "/>
<text text-anchor="middle" x="1061.39" y="-438.5" font-family="Helvetica,sans-Serif" font-size="10.00"> </text>
</a>
</g>
</g>
<!-- Node20&#45;&gt;Node2 -->
<g id="edge25" class="edge">
<title>Node20&#45;&gt;Node2</title>
<path fill="none" stroke="#404040" d="M1054.54,-431.11C1048.41,-409.79 1037.97,-380.36 1022.39,-358 1003.54,-330.96 976.42,-306.26 952.64,-287.47"/>
<polygon fill="none" stroke="#404040" points="952.52,-287.38 945.33,-286.88 943.02,-280.05 950.22,-280.55 952.52,-287.38"/>
<text text-anchor="middle" x="1057.39" y="-361" font-family="Helvetica,sans-Serif" font-size="10.00"> #m_FillColor</text>
</g>
</g>
</svg>
