<?xml version="1.0" encoding="UTF-8" standalone="no"?>
<!DOCTYPE svg PUBLIC "-//W3C//DTD SVG 1.1//EN"
 "http://www.w3.org/Graphics/SVG/1.1/DTD/svg11.dtd">
<!-- Generated by graphviz version 2.50.0 (20211204.2007)
 -->
<!-- Title: Sgl::VBox Pages: 1 -->
<svg width="1594pt" height="956pt"
 viewBox="0.00 0.00 1594.00 956.00" xmlns="http://www.w3.org/2000/svg" xmlns:xlink="http://www.w3.org/1999/xlink">
<g id="graph0" class="graph" transform="scale(1 1) rotate(0) translate(4 952)">
<title>Sgl::VBox</title>
<polygon fill="white" stroke="transparent" points="-4,4 -4,-952 1590,-952 1590,4 -4,4"/>
<!-- Node1 -->
<g id="node1" class="node">
<title>Node1</title>
<g id="a_node1"><a xlink:title=" ">
<polygon fill="#bfbfbf" stroke="black" points="1265,-0.5 1265,-68.5 1327,-68.5 1327,-0.5 1265,-0.5"/>
<text text-anchor="middle" x="1296" y="-56.5" font-family="Helvetica,sans-Serif" font-size="10.00">Sgl::VBox</text>
<polyline fill="none" stroke="black" points="1265,-49.5 1327,-49.5 "/>
<text text-anchor="middle" x="1296" y="-37.5" font-family="Helvetica,sans-Serif" font-size="10.00"> </text>
<polyline fill="none" stroke="black" points="1265,-30.5 1327,-30.5 "/>
<text text-anchor="start" x="1273" y="-18.5" font-family="Helvetica,sans-Serif" font-size="10.00">+ VBox()</text>
<text text-anchor="start" x="1273" y="-7.5" font-family="Helvetica,sans-Serif" font-size="10.00">+ ~VBox()</text>
</a>
</g>
</g>
<!-- Node2 -->
<g id="node2" class="node">
<title>Node2</title>
<g id="a_node2"><a xlink:href="class_sgl_1_1_box_container.html" target="_top" xlink:title="Basic list&#45;like container which lays out children in a line one after another.">
<polygon fill="white" stroke="black" points="1247.5,-106.5 1247.5,-218.5 1344.5,-218.5 1344.5,-106.5 1247.5,-106.5"/>
<text text-anchor="middle" x="1296" y="-206.5" font-family="Helvetica,sans-Serif" font-size="10.00">Sgl::BoxContainer</text>
<polyline fill="none" stroke="black" points="1247.5,-199.5 1344.5,-199.5 "/>
<text text-anchor="middle" x="1296" y="-187.5" font-family="Helvetica,sans-Serif" font-size="10.00"> </text>
<polyline fill="none" stroke="black" points="1247.5,-180.5 1344.5,-180.5 "/>
<text text-anchor="start" x="1255.5" y="-168.5" font-family="Helvetica,sans-Serif" font-size="10.00">+ BoxContainer()</text>
<text text-anchor="start" x="1255.5" y="-157.5" font-family="Helvetica,sans-Serif" font-size="10.00">+ BoxContainer()</text>
<text text-anchor="start" x="1255.5" y="-146.5" font-family="Helvetica,sans-Serif" font-size="10.00">+ ~BoxContainer()</text>
<text text-anchor="start" x="1255.5" y="-135.5" font-family="Helvetica,sans-Serif" font-size="10.00">+ getDirection()</text>
<text text-anchor="start" x="1255.5" y="-124.5" font-family="Helvetica,sans-Serif" font-size="10.00">+ setDirection()</text>
<text text-anchor="start" x="1255.5" y="-113.5" font-family="Helvetica,sans-Serif" font-size="10.00">and 8 more...</text>
</a>
</g>
</g>
<!-- Node2&#45;&gt;Node1 -->
<g id="edge1" class="edge">
<title>Node2&#45;&gt;Node1</title>
<path fill="none" stroke="midnightblue" d="M1296,-95.96C1296,-86.48 1296,-77.08 1296,-68.62"/>
<polygon fill="none" stroke="midnightblue" points="1292.5,-96.23 1296,-106.23 1299.5,-96.23 1292.5,-96.23"/>
</g>
<!-- Node3 -->
<g id="node3" class="node">
<title>Node3</title>
<g id="a_node3"><a xlink:href="class_sgl_1_1_container.html" target="_top" xlink:title=" ">
<polygon fill="white" stroke="black" points="1242,-278.5 1242,-379.5 1350,-379.5 1350,-278.5 1242,-278.5"/>
<text text-anchor="middle" x="1296" y="-367.5" font-family="Helvetica,sans-Serif" font-size="10.00">Sgl::Container</text>
<polyline fill="none" stroke="black" points="1242,-360.5 1350,-360.5 "/>
<text text-anchor="middle" x="1296" y="-348.5" font-family="Helvetica,sans-Serif" font-size="10.00"> </text>
<polyline fill="none" stroke="black" points="1242,-341.5 1350,-341.5 "/>
<text text-anchor="start" x="1250" y="-329.5" font-family="Helvetica,sans-Serif" font-size="10.00">+ Container()</text>
<text text-anchor="start" x="1250" y="-318.5" font-family="Helvetica,sans-Serif" font-size="10.00">+ ~Container()</text>
<text text-anchor="start" x="1250" y="-307.5" font-family="Helvetica,sans-Serif" font-size="10.00">+ getHitComponent()</text>
<text text-anchor="start" x="1250" y="-296.5" font-family="Helvetica,sans-Serif" font-size="10.00">+ render()</text>
<text text-anchor="start" x="1250" y="-285.5" font-family="Helvetica,sans-Serif" font-size="10.00"># prerenderSelf()</text>
</a>
</g>
</g>
<!-- Node3&#45;&gt;Node2 -->
<g id="edge2" class="edge">
<title>Node3&#45;&gt;Node2</title>
<path fill="none" stroke="midnightblue" d="M1296,-267.82C1296,-251.72 1296,-234.4 1296,-218.59"/>
<polygon fill="none" stroke="midnightblue" points="1292.5,-268.2 1296,-278.2 1299.5,-268.2 1292.5,-268.2"/>
</g>
<!-- Node4 -->
<g id="node4" class="node">
<title>Node4</title>
<g id="a_node4"><a xlink:href="class_sgl_1_1_parent.html" target="_top" xlink:title=" ">
<polygon fill="white" stroke="black" points="816,-449.5 816,-627.5 962,-627.5 962,-449.5 816,-449.5"/>
<text text-anchor="middle" x="889" y="-615.5" font-family="Helvetica,sans-Serif" font-size="10.00">Sgl::Parent</text>
<polyline fill="none" stroke="black" points="816,-608.5 962,-608.5 "/>
<text text-anchor="middle" x="889" y="-596.5" font-family="Helvetica,sans-Serif" font-size="10.00"> </text>
<polyline fill="none" stroke="black" points="816,-589.5 962,-589.5 "/>
<text text-anchor="start" x="824" y="-577.5" font-family="Helvetica,sans-Serif" font-size="10.00">+ Parent()</text>
<text text-anchor="start" x="824" y="-566.5" font-family="Helvetica,sans-Serif" font-size="10.00">+ ~Parent()</text>
<text text-anchor="start" x="824" y="-555.5" font-family="Helvetica,sans-Serif" font-size="10.00">+ getHitComponent()</text>
<text text-anchor="start" x="824" y="-544.5" font-family="Helvetica,sans-Serif" font-size="10.00">+ render()</text>
<text text-anchor="start" x="824" y="-533.5" font-family="Helvetica,sans-Serif" font-size="10.00">+ layout()</text>
<text text-anchor="start" x="824" y="-522.5" font-family="Helvetica,sans-Serif" font-size="10.00">and 38 more...</text>
<text text-anchor="start" x="824" y="-511.5" font-family="Helvetica,sans-Serif" font-size="10.00"># setSceneInSceneTree()</text>
<text text-anchor="start" x="824" y="-500.5" font-family="Helvetica,sans-Serif" font-size="10.00"># layoutChildren()</text>
<text text-anchor="start" x="824" y="-489.5" font-family="Helvetica,sans-Serif" font-size="10.00"># prerenderSelf()</text>
<text text-anchor="start" x="824" y="-478.5" font-family="Helvetica,sans-Serif" font-size="10.00"># updateSnapshotSize()</text>
<text text-anchor="start" x="824" y="-467.5" font-family="Helvetica,sans-Serif" font-size="10.00"># computeCustomPrefWidth()</text>
<text text-anchor="start" x="824" y="-456.5" font-family="Helvetica,sans-Serif" font-size="10.00">and 5 more...</text>
</a>
</g>
</g>
<!-- Node4&#45;&gt;Node3 -->
<g id="edge3" class="edge">
<title>Node4&#45;&gt;Node3</title>
<path fill="none" stroke="midnightblue" d="M971.38,-495.5C1052.05,-454.37 1172.65,-392.89 1241.88,-357.59"/>
<polygon fill="none" stroke="midnightblue" points="969.55,-492.5 962.23,-500.16 972.73,-498.74 969.55,-492.5"/>
</g>
<!-- Node5 -->
<g id="node5" class="node">
<title>Node5</title>
<g id="a_node5"><a xlink:href="class_sgl_1_1_component.html" target="_top" xlink:title=" ">
<polygon fill="white" stroke="black" points="276,-256.5 276,-401.5 404,-401.5 404,-256.5 276,-256.5"/>
<text text-anchor="middle" x="340" y="-389.5" font-family="Helvetica,sans-Serif" font-size="10.00">Sgl::Component</text>
<polyline fill="none" stroke="black" points="276,-382.5 404,-382.5 "/>
<text text-anchor="middle" x="340" y="-370.5" font-family="Helvetica,sans-Serif" font-size="10.00"> </text>
<polyline fill="none" stroke="black" points="276,-363.5 404,-363.5 "/>
<text text-anchor="start" x="284" y="-351.5" font-family="Helvetica,sans-Serif" font-size="10.00">+ Component()</text>
<text text-anchor="start" x="284" y="-340.5" font-family="Helvetica,sans-Serif" font-size="10.00">+ ~Component()</text>
<text text-anchor="start" x="284" y="-329.5" font-family="Helvetica,sans-Serif" font-size="10.00">+ getHitComponent()</text>
<text text-anchor="start" x="284" y="-318.5" font-family="Helvetica,sans-Serif" font-size="10.00">+ render()</text>
<text text-anchor="start" x="284" y="-307.5" font-family="Helvetica,sans-Serif" font-size="10.00">+ layout()</text>
<text text-anchor="start" x="284" y="-296.5" font-family="Helvetica,sans-Serif" font-size="10.00">and 37 more...</text>
<text text-anchor="start" x="284" y="-285.5" font-family="Helvetica,sans-Serif" font-size="10.00"># updateShadow()</text>
<text text-anchor="start" x="284" y="-274.5" font-family="Helvetica,sans-Serif" font-size="10.00"># renderShadow()</text>
<text text-anchor="start" x="284" y="-263.5" font-family="Helvetica,sans-Serif" font-size="10.00"># setSceneInSceneTree()</text>
</a>
</g>
</g>
<!-- Node4&#45;&gt;Node5 -->
<g id="edge15" class="edge">
<title>Node4&#45;&gt;Node5</title>
<path fill="none" stroke="#404040" d="M815.96,-502.32C763.47,-477.7 690.68,-444.89 625,-420 555.1,-393.5 473.61,-368.32 415.71,-351.37"/>
<polygon fill="none" stroke="#404040" points="415.61,-351.34 408.74,-353.51 404.09,-347.99 410.97,-345.83 415.61,-351.34"/>
<text text-anchor="middle" x="672.5" y="-423" font-family="Helvetica,sans-Serif" font-size="10.00"> #m_Parent</text>
</g>
<!-- Node5&#45;&gt;Node4 -->
<g id="edge4" class="edge">
<title>Node5&#45;&gt;Node4</title>
<path fill="none" stroke="midnightblue" d="M414.16,-333.01C503.25,-339.35 654.94,-359.04 769,-420 785.59,-428.86 801.43,-440.72 815.86,-453.5"/>
<polygon fill="none" stroke="midnightblue" points="414.36,-329.51 404.15,-332.33 413.89,-336.5 414.36,-329.51"/>
</g>
<!-- Node6 -->
<g id="node6" class="node">
<title>Node6</title>
<g id="a_node6"><a xlink:title=" ">
<polygon fill="white" stroke="#bfbfbf" points="39,-719.5 39,-776.5 131,-776.5 131,-719.5 39,-719.5"/>
<text text-anchor="middle" x="85" y="-764.5" font-family="Helvetica,sans-Serif" font-size="10.00">Sml::EventTarget</text>
<polyline fill="none" stroke="#bfbfbf" points="39,-757.5 131,-757.5 "/>
<text text-anchor="middle" x="85" y="-745.5" font-family="Helvetica,sans-Serif" font-size="10.00"> </text>
<polyline fill="none" stroke="#bfbfbf" points="39,-738.5 131,-738.5 "/>
<text text-anchor="middle" x="85" y="-726.5" font-family="Helvetica,sans-Serif" font-size="10.00"> </text>
</a>
</g>
</g>
<!-- Node6&#45;&gt;Node5 -->
<g id="edge5" class="edge">
<title>Node6&#45;&gt;Node5</title>
<path fill="none" stroke="midnightblue" d="M87.94,-709.27C93.72,-639.98 107.71,-495.34 127,-449 151.83,-389.36 222.66,-358.55 275.88,-343.38"/>
<polygon fill="none" stroke="midnightblue" points="84.44,-709.07 87.11,-719.32 91.42,-709.64 84.44,-709.07"/>
</g>
<!-- Node14 -->
<g id="node14" class="node">
<title>Node14</title>
<g id="a_node14"><a xlink:href="class_sgl_1_1_scene.html" target="_top" xlink:title=" ">
<polygon fill="white" stroke="black" points="0,-482.5 0,-594.5 80,-594.5 80,-482.5 0,-482.5"/>
<text text-anchor="middle" x="40" y="-582.5" font-family="Helvetica,sans-Serif" font-size="10.00">Sgl::Scene</text>
<polyline fill="none" stroke="black" points="0,-575.5 80,-575.5 "/>
<text text-anchor="middle" x="40" y="-563.5" font-family="Helvetica,sans-Serif" font-size="10.00"> </text>
<polyline fill="none" stroke="black" points="0,-556.5 80,-556.5 "/>
<text text-anchor="start" x="8" y="-544.5" font-family="Helvetica,sans-Serif" font-size="10.00">+ Scene()</text>
<text text-anchor="start" x="8" y="-533.5" font-family="Helvetica,sans-Serif" font-size="10.00">+ Scene()</text>
<text text-anchor="start" x="8" y="-522.5" font-family="Helvetica,sans-Serif" font-size="10.00">+ ~Scene()</text>
<text text-anchor="start" x="8" y="-511.5" font-family="Helvetica,sans-Serif" font-size="10.00">+ update()</text>
<text text-anchor="start" x="8" y="-500.5" font-family="Helvetica,sans-Serif" font-size="10.00">+ render()</text>
<text text-anchor="start" x="8" y="-489.5" font-family="Helvetica,sans-Serif" font-size="10.00">and 17 more...</text>
</a>
</g>
</g>
<!-- Node6&#45;&gt;Node14 -->
<g id="edge14" class="edge">
<title>Node6&#45;&gt;Node14</title>
<path fill="none" stroke="midnightblue" d="M76.89,-709.6C69.96,-677.63 59.88,-631.17 52.01,-594.88"/>
<polygon fill="none" stroke="midnightblue" points="73.48,-710.41 79.02,-719.45 80.33,-708.93 73.48,-710.41"/>
</g>
<!-- Node7 -->
<g id="node7" class="node">
<title>Node7</title>
<g id="a_node7"><a xlink:title=" ">
<polygon fill="white" stroke="#bfbfbf" points="999,-890.5 999,-947.5 1045,-947.5 1045,-890.5 999,-890.5"/>
<text text-anchor="middle" x="1022" y="-935.5" font-family="Helvetica,sans-Serif" font-size="10.00">int32_t</text>
<polyline fill="none" stroke="#bfbfbf" points="999,-928.5 1045,-928.5 "/>
<text text-anchor="middle" x="1022" y="-916.5" font-family="Helvetica,sans-Serif" font-size="10.00"> </text>
<polyline fill="none" stroke="#bfbfbf" points="999,-909.5 1045,-909.5 "/>
<text text-anchor="middle" x="1022" y="-897.5" font-family="Helvetica,sans-Serif" font-size="10.00"> </text>
</a>
</g>
</g>
<!-- Node7&#45;&gt;Node4 -->
<g id="edge25" class="edge">
<title>Node7&#45;&gt;Node4</title>
<path fill="none" stroke="#404040" d="M1045.41,-903.51C1072.17,-885.41 1114.5,-851.71 1132,-810 1153.32,-759.18 1159.1,-733.99 1132,-686 1098.29,-626.31 1029.42,-588.22 973.58,-565.89"/>
<polygon fill="none" stroke="#404040" points="973.43,-565.83 966.39,-567.4 962.24,-561.5 969.28,-559.94 973.43,-565.83"/>
<text text-anchor="middle" x="1186" y="-773" font-family="Helvetica,sans-Serif" font-size="10.00"> #m_MaxHeight</text>
<text text-anchor="middle" x="1186" y="-762" font-family="Helvetica,sans-Serif" font-size="10.00">#m_MaxWidth</text>
<text text-anchor="middle" x="1186" y="-751" font-family="Helvetica,sans-Serif" font-size="10.00">#m_MinHeight</text>
<text text-anchor="middle" x="1186" y="-740" font-family="Helvetica,sans-Serif" font-size="10.00">#m_MinWidth</text>
<text text-anchor="middle" x="1186" y="-729" font-family="Helvetica,sans-Serif" font-size="10.00">#m_PrefHeight</text>
<text text-anchor="middle" x="1186" y="-718" font-family="Helvetica,sans-Serif" font-size="10.00">#m_PrefWidth</text>
</g>
<!-- Node7&#45;&gt;Node5 -->
<g id="edge6" class="edge">
<title>Node7&#45;&gt;Node5</title>
<path fill="none" stroke="#404040" d="M998.81,-917.4C888.84,-914.15 420.63,-895.41 308,-810 176.9,-710.58 164.67,-601.67 226,-449 234.99,-426.62 250.42,-406.07 267.08,-388.58"/>
<polygon fill="none" stroke="#404040" points="267.42,-388.24 268.81,-381.16 275.87,-379.72 274.49,-386.8 267.42,-388.24"/>
<text text-anchor="middle" x="258" y="-660" font-family="Helvetica,sans-Serif" font-size="10.00"> +UNLIMITED_SIZE</text>
<text text-anchor="middle" x="258" y="-649" font-family="Helvetica,sans-Serif" font-size="10.00">+USE_COMPUTED_SIZE</text>
</g>
<!-- Node20 -->
<g id="node20" class="node">
<title>Node20</title>
<g id="a_node20"><a xlink:href="struct_sgl_1_1_insets.html" target="_top" xlink:title=" ">
<polygon fill="white" stroke="black" points="982.5,-692 982.5,-804 1061.5,-804 1061.5,-692 982.5,-692"/>
<text text-anchor="middle" x="1022" y="-792" font-family="Helvetica,sans-Serif" font-size="10.00">Sgl::Insets</text>
<polyline fill="none" stroke="black" points="982.5,-785 1061.5,-785 "/>
<text text-anchor="middle" x="1022" y="-773" font-family="Helvetica,sans-Serif" font-size="10.00"> </text>
<polyline fill="none" stroke="black" points="982.5,-766 1061.5,-766 "/>
<text text-anchor="start" x="990.5" y="-754" font-family="Helvetica,sans-Serif" font-size="10.00">+ Insets()</text>
<text text-anchor="start" x="990.5" y="-743" font-family="Helvetica,sans-Serif" font-size="10.00">+ Insets()</text>
<text text-anchor="start" x="990.5" y="-732" font-family="Helvetica,sans-Serif" font-size="10.00">+ Insets()</text>
<text text-anchor="start" x="990.5" y="-721" font-family="Helvetica,sans-Serif" font-size="10.00">+ Insets()</text>
<text text-anchor="start" x="990.5" y="-710" font-family="Helvetica,sans-Serif" font-size="10.00">+ operator+=()</text>
<text text-anchor="start" x="990.5" y="-699" font-family="Helvetica,sans-Serif" font-size="10.00">+ operator&#45;=()</text>
</a>
</g>
</g>
<!-- Node7&#45;&gt;Node20 -->
<g id="edge24" class="edge">
<title>Node7&#45;&gt;Node20</title>
<path fill="none" stroke="#404040" d="M1022,-890.47C1022,-870.37 1022,-842.21 1022,-816.3"/>
<polygon fill="none" stroke="#404040" points="1022,-816.2 1018,-810.2 1022,-804.2 1026,-810.2 1022,-816.2"/>
<text text-anchor="middle" x="1042" y="-864" font-family="Helvetica,sans-Serif" font-size="10.00"> +bottom</text>
<text text-anchor="middle" x="1042" y="-853" font-family="Helvetica,sans-Serif" font-size="10.00">+left</text>
<text text-anchor="middle" x="1042" y="-842" font-family="Helvetica,sans-Serif" font-size="10.00">+right</text>
<text text-anchor="middle" x="1042" y="-831" font-family="Helvetica,sans-Serif" font-size="10.00">+top</text>
</g>
<!-- Node8 -->
<g id="node8" class="node">
<title>Node8</title>
<g id="a_node8"><a xlink:title=" ">
<polygon fill="white" stroke="#bfbfbf" points="136.5,-510 136.5,-567 177.5,-567 177.5,-510 136.5,-510"/>
<text text-anchor="middle" x="157" y="-555" font-family="Helvetica,sans-Serif" font-size="10.00">friend</text>
<polyline fill="none" stroke="#bfbfbf" points="136.5,-548 177.5,-548 "/>
<text text-anchor="middle" x="157" y="-536" font-family="Helvetica,sans-Serif" font-size="10.00"> </text>
<polyline fill="none" stroke="#bfbfbf" points="136.5,-529 177.5,-529 "/>
<text text-anchor="middle" x="157" y="-517" font-family="Helvetica,sans-Serif" font-size="10.00"> </text>
</a>
</g>
</g>
<!-- Node8&#45;&gt;Node5 -->
<g id="edge7" class="edge">
<title>Node8&#45;&gt;Node5</title>
<path fill="none" stroke="#404040" d="M149.2,-509.6C143.81,-484.25 140.29,-446.84 157,-420 180.45,-382.33 224.8,-359.97 263.97,-346.96"/>
<polygon fill="none" stroke="#404040" points="264.21,-346.89 268.74,-341.28 275.66,-343.3 271.13,-348.91 264.21,-346.89"/>
<text text-anchor="middle" x="175.5" y="-423" font-family="Helvetica,sans-Serif" font-size="10.00"> +Scene</text>
</g>
<!-- Node9 -->
<g id="node9" class="node">
<title>Node9</title>
<g id="a_node9"><a xlink:title=" ">
<polygon fill="white" stroke="#bfbfbf" points="610.5,-719.5 610.5,-776.5 645.5,-776.5 645.5,-719.5 610.5,-719.5"/>
<text text-anchor="middle" x="628" y="-764.5" font-family="Helvetica,sans-Serif" font-size="10.00">bool</text>
<polyline fill="none" stroke="#bfbfbf" points="610.5,-757.5 645.5,-757.5 "/>
<text text-anchor="middle" x="628" y="-745.5" font-family="Helvetica,sans-Serif" font-size="10.00"> </text>
<polyline fill="none" stroke="#bfbfbf" points="610.5,-738.5 645.5,-738.5 "/>
<text text-anchor="middle" x="628" y="-726.5" font-family="Helvetica,sans-Serif" font-size="10.00"> </text>
</a>
</g>
</g>
<!-- Node9&#45;&gt;Node4 -->
<g id="edge19" class="edge">
<title>Node9&#45;&gt;Node4</title>
<path fill="none" stroke="#404040" d="M632.89,-719.15C638.03,-697 648.12,-666.43 667,-646 703.78,-606.21 758.56,-579.71 804.5,-563.1"/>
<polygon fill="none" stroke="#404040" points="804.65,-563.05 808.99,-557.29 815.98,-559.08 811.63,-564.84 804.65,-563.05"/>
<text text-anchor="middle" x="715.5" y="-654.5" font-family="Helvetica,sans-Serif" font-size="10.00"> #m_NeedLayoutPass</text>
</g>
<!-- Node9&#45;&gt;Node5 -->
<g id="edge8" class="edge">
<title>Node9&#45;&gt;Node5</title>
<path fill="none" stroke="#404040" d="M632.77,-719.12C641.9,-655.47 654.02,-498.85 569,-420 526.47,-380.55 464.62,-357.63 415.91,-344.8"/>
<polygon fill="none" stroke="#404040" points="415.79,-344.77 408.99,-347.18 404.15,-341.83 410.95,-339.42 415.79,-344.77"/>
<text text-anchor="middle" x="670" y="-547" font-family="Helvetica,sans-Serif" font-size="10.00"> #m_Focused</text>
<text text-anchor="middle" x="670" y="-536" font-family="Helvetica,sans-Serif" font-size="10.00">#m_Hovered</text>
<text text-anchor="middle" x="670" y="-525" font-family="Helvetica,sans-Serif" font-size="10.00">#m_Visible</text>
</g>
<!-- Node10 -->
<g id="node10" class="node">
<title>Node10</title>
<g id="a_node10"><a xlink:href="class_sgl_1_1_shadow.html" target="_top" xlink:title=" ">
<polygon fill="white" stroke="black" points="235.5,-477 235.5,-600 336.5,-600 336.5,-477 235.5,-477"/>
<text text-anchor="middle" x="286" y="-588" font-family="Helvetica,sans-Serif" font-size="10.00">Sgl::Shadow</text>
<polyline fill="none" stroke="black" points="235.5,-581 336.5,-581 "/>
<text text-anchor="middle" x="286" y="-569" font-family="Helvetica,sans-Serif" font-size="10.00"> </text>
<polyline fill="none" stroke="black" points="235.5,-562 336.5,-562 "/>
<text text-anchor="start" x="243.5" y="-550" font-family="Helvetica,sans-Serif" font-size="10.00">+ Shadow()</text>
<text text-anchor="start" x="243.5" y="-539" font-family="Helvetica,sans-Serif" font-size="10.00">+ ~Shadow()</text>
<text text-anchor="start" x="243.5" y="-528" font-family="Helvetica,sans-Serif" font-size="10.00">+ update()</text>
<text text-anchor="start" x="243.5" y="-517" font-family="Helvetica,sans-Serif" font-size="10.00">+ render()</text>
<text text-anchor="start" x="243.5" y="-506" font-family="Helvetica,sans-Serif" font-size="10.00">+ getTexture()</text>
<text text-anchor="start" x="243.5" y="-495" font-family="Helvetica,sans-Serif" font-size="10.00">+ getSpecification()</text>
<text text-anchor="start" x="243.5" y="-484" font-family="Helvetica,sans-Serif" font-size="10.00">+ setSpecification()</text>
</a>
</g>
</g>
<!-- Node10&#45;&gt;Node5 -->
<g id="edge9" class="edge">
<title>Node10&#45;&gt;Node5</title>
<path fill="none" stroke="#404040" d="M299.12,-476.93C303.31,-458.58 308.13,-438.41 313,-420 313.59,-417.75 314.21,-415.48 314.83,-413.18"/>
<polygon fill="none" stroke="#404040" points="314.84,-413.16 312.59,-406.31 318.06,-401.6 320.3,-408.46 314.84,-413.16"/>
<text text-anchor="middle" x="342" y="-423" font-family="Helvetica,sans-Serif" font-size="10.00"> #m_Shadow</text>
</g>
<!-- Node11 -->
<g id="node11" class="node">
<title>Node11</title>
<g id="a_node11"><a xlink:href="class_gui_event_dispatcher.html" target="_top" xlink:title=" ">
<polygon fill="white" stroke="black" points="354.5,-471.5 354.5,-605.5 489.5,-605.5 489.5,-471.5 354.5,-471.5"/>
<text text-anchor="middle" x="422" y="-593.5" font-family="Helvetica,sans-Serif" font-size="10.00">GuiEventDispatcher</text>
<polyline fill="none" stroke="black" points="354.5,-586.5 489.5,-586.5 "/>
<text text-anchor="middle" x="422" y="-574.5" font-family="Helvetica,sans-Serif" font-size="10.00"> </text>
<polyline fill="none" stroke="black" points="354.5,-567.5 489.5,-567.5 "/>
<text text-anchor="start" x="362.5" y="-555.5" font-family="Helvetica,sans-Serif" font-size="10.00">+ ~GuiEventDispatcher()</text>
<text text-anchor="start" x="362.5" y="-544.5" font-family="Helvetica,sans-Serif" font-size="10.00">+ attachFilter()</text>
<text text-anchor="start" x="362.5" y="-533.5" font-family="Helvetica,sans-Serif" font-size="10.00">+ detachFilter()</text>
<text text-anchor="start" x="362.5" y="-522.5" font-family="Helvetica,sans-Serif" font-size="10.00">+ attachHandler()</text>
<text text-anchor="start" x="362.5" y="-511.5" font-family="Helvetica,sans-Serif" font-size="10.00">+ detachHandler()</text>
<text text-anchor="start" x="362.5" y="-500.5" font-family="Helvetica,sans-Serif" font-size="10.00">+ dispatchEvent()</text>
<text text-anchor="start" x="362.5" y="-489.5" font-family="Helvetica,sans-Serif" font-size="10.00"># dispatchCapturingEvent()</text>
<text text-anchor="start" x="362.5" y="-478.5" font-family="Helvetica,sans-Serif" font-size="10.00"># dispatchBubblingEvent()</text>
</a>
</g>
</g>
<!-- Node11&#45;&gt;Node5 -->
<g id="edge10" class="edge">
<title>Node11&#45;&gt;Node5</title>
<path fill="none" stroke="#404040" d="M395.83,-471.28C388.5,-452.73 380.45,-432.35 372.79,-412.97"/>
<polygon fill="none" stroke="#404040" points="372.74,-412.85 366.82,-408.74 368.33,-401.69 374.26,-405.8 372.74,-412.85"/>
<text text-anchor="middle" x="414" y="-423" font-family="Helvetica,sans-Serif" font-size="10.00"> #m_Dispatcher</text>
</g>
<!-- Node12 -->
<g id="node12" class="node">
<title>Node12</title>
<g id="a_node12"><a xlink:title=" ">
<polygon fill="white" stroke="#bfbfbf" points="317.5,-719.5 317.5,-776.5 430.5,-776.5 430.5,-719.5 317.5,-719.5"/>
<text text-anchor="middle" x="374" y="-764.5" font-family="Helvetica,sans-Serif" font-size="10.00">Sml::EventDispatcher</text>
<polyline fill="none" stroke="#bfbfbf" points="317.5,-757.5 430.5,-757.5 "/>
<text text-anchor="middle" x="374" y="-745.5" font-family="Helvetica,sans-Serif" font-size="10.00"> </text>
<polyline fill="none" stroke="#bfbfbf" points="317.5,-738.5 430.5,-738.5 "/>
<text text-anchor="middle" x="374" y="-726.5" font-family="Helvetica,sans-Serif" font-size="10.00"> </text>
</a>
</g>
</g>
<!-- Node12&#45;&gt;Node11 -->
<g id="edge11" class="edge">
<title>Node12&#45;&gt;Node11</title>
<path fill="none" stroke="midnightblue" d="M382.7,-709.37C389.38,-680.5 398.77,-639.91 406.7,-605.65"/>
<polygon fill="none" stroke="midnightblue" points="379.22,-708.91 380.37,-719.45 386.04,-710.49 379.22,-708.91"/>
</g>
<!-- Node13 -->
<g id="node13" class="node">
<title>Node13</title>
<g id="a_node13"><a xlink:title=" ">
<polygon fill="white" stroke="#bfbfbf" points="449,-719.5 449,-776.5 497,-776.5 497,-719.5 449,-719.5"/>
<text text-anchor="middle" x="473" y="-764.5" font-family="Helvetica,sans-Serif" font-size="10.00">Notifier</text>
<polyline fill="none" stroke="#bfbfbf" points="449,-757.5 497,-757.5 "/>
<text text-anchor="middle" x="473" y="-745.5" font-family="Helvetica,sans-Serif" font-size="10.00"> </text>
<polyline fill="none" stroke="#bfbfbf" points="449,-738.5 497,-738.5 "/>
<text text-anchor="middle" x="473" y="-726.5" font-family="Helvetica,sans-Serif" font-size="10.00"> </text>
</a>
</g>
</g>
<!-- Node13&#45;&gt;Node11 -->
<g id="edge12" class="edge">
<title>Node13&#45;&gt;Node11</title>
<path fill="none" stroke="#404040" d="M466.23,-719.45C459.85,-693.5 449.99,-653.37 441.19,-617.59"/>
<polygon fill="none" stroke="#404040" points="441.12,-617.3 435.81,-612.43 438.26,-605.65 443.58,-610.52 441.12,-617.3"/>
<text text-anchor="middle" x="499" y="-660" font-family="Helvetica,sans-Serif" font-size="10.00"> #m_FiltersNotifier</text>
<text text-anchor="middle" x="499" y="-649" font-family="Helvetica,sans-Serif" font-size="10.00">#m_HandlersNotifier</text>
</g>
<!-- Node14&#45;&gt;Node5 -->
<g id="edge13" class="edge">
<title>Node14&#45;&gt;Node5</title>
<path fill="none" stroke="#404040" d="M28.99,-482.33C27.79,-460.91 30.64,-437.4 44,-420 70.86,-385.02 185.06,-357.88 263.49,-342.92"/>
<polygon fill="none" stroke="#404040" points="263.96,-342.83 269.12,-337.8 275.75,-340.63 270.59,-345.66 263.96,-342.83"/>
<text text-anchor="middle" x="69" y="-423" font-family="Helvetica,sans-Serif" font-size="10.00"> #m_Scene</text>
</g>
<!-- Node15 -->
<g id="node15" class="node">
<title>Node15</title>
<g id="a_node15"><a xlink:title=" ">
<polygon fill="white" stroke="#bfbfbf" points="507.5,-510 507.5,-567 574.5,-567 574.5,-510 507.5,-510"/>
<text text-anchor="middle" x="541" y="-555" font-family="Helvetica,sans-Serif" font-size="10.00">Rectangle&lt;</text>
<polyline fill="none" stroke="#bfbfbf" points="507.5,-548 574.5,-548 "/>
<text text-anchor="middle" x="541" y="-536" font-family="Helvetica,sans-Serif" font-size="10.00"> </text>
<polyline fill="none" stroke="#bfbfbf" points="507.5,-529 574.5,-529 "/>
<text text-anchor="middle" x="541" y="-517" font-family="Helvetica,sans-Serif" font-size="10.00"> </text>
</a>
</g>
</g>
<!-- Node15&#45;&gt;Node5 -->
<g id="edge16" class="edge">
<title>Node15&#45;&gt;Node5</title>
<path fill="none" stroke="#404040" d="M531.41,-509.62C524.14,-491.14 512.87,-467.07 498,-449 474.57,-420.54 443.01,-395.03 414.26,-374.99"/>
<polygon fill="none" stroke="#404040" points="414.13,-374.9 406.92,-374.82 404.22,-368.13 411.43,-368.22 414.13,-374.9"/>
<text text-anchor="middle" x="522.5" y="-423" font-family="Helvetica,sans-Serif" font-size="10.00"> #m_LayoutBounds</text>
</g>
<!-- Node16 -->
<g id="node16" class="node">
<title>Node16</title>
<g id="a_node16"><a xlink:title=" ">
<polygon fill="white" stroke="#bfbfbf" points="746.5,-719.5 746.5,-776.5 781.5,-776.5 781.5,-719.5 746.5,-719.5"/>
<text text-anchor="middle" x="764" y="-764.5" font-family="Helvetica,sans-Serif" font-size="10.00">list&lt;</text>
<polyline fill="none" stroke="#bfbfbf" points="746.5,-757.5 781.5,-757.5 "/>
<text text-anchor="middle" x="764" y="-745.5" font-family="Helvetica,sans-Serif" font-size="10.00"> </text>
<polyline fill="none" stroke="#bfbfbf" points="746.5,-738.5 781.5,-738.5 "/>
<text text-anchor="middle" x="764" y="-726.5" font-family="Helvetica,sans-Serif" font-size="10.00"> </text>
</a>
</g>
</g>
<!-- Node16&#45;&gt;Node4 -->
<g id="edge17" class="edge">
<title>Node16&#45;&gt;Node4</title>
<path fill="none" stroke="#404040" d="M761.96,-719.4C761.55,-698.24 763.56,-668.87 775,-646 782.98,-630.06 794.39,-615.28 806.94,-602.11"/>
<polygon fill="none" stroke="#404040" points="807.3,-601.75 808.71,-594.67 815.78,-593.26 814.37,-600.33 807.3,-601.75"/>
<text text-anchor="middle" x="804" y="-654.5" font-family="Helvetica,sans-Serif" font-size="10.00"> #m_Children</text>
</g>
<!-- Node17 -->
<g id="node17" class="node">
<title>Node17</title>
<g id="a_node17"><a xlink:title=" ">
<polygon fill="white" stroke="#bfbfbf" points="800,-719.5 800,-776.5 856,-776.5 856,-719.5 800,-719.5"/>
<text text-anchor="middle" x="828" y="-764.5" font-family="Helvetica,sans-Serif" font-size="10.00">Texture *</text>
<polyline fill="none" stroke="#bfbfbf" points="800,-757.5 856,-757.5 "/>
<text text-anchor="middle" x="828" y="-745.5" font-family="Helvetica,sans-Serif" font-size="10.00"> </text>
<polyline fill="none" stroke="#bfbfbf" points="800,-738.5 856,-738.5 "/>
<text text-anchor="middle" x="828" y="-726.5" font-family="Helvetica,sans-Serif" font-size="10.00"> </text>
</a>
</g>
</g>
<!-- Node17&#45;&gt;Node4 -->
<g id="edge18" class="edge">
<title>Node17&#45;&gt;Node4</title>
<path fill="none" stroke="#404040" d="M829.77,-719.14C831.58,-698.61 835.13,-670.18 842,-646 842.64,-643.74 843.32,-641.47 844.04,-639.18"/>
<polygon fill="none" stroke="#404040" points="844.06,-639.11 842.17,-632.15 847.87,-627.73 849.76,-634.69 844.06,-639.11"/>
<text text-anchor="middle" x="874" y="-654.5" font-family="Helvetica,sans-Serif" font-size="10.00"> #m_Snapshot</text>
</g>
<!-- Node18 -->
<g id="node18" class="node">
<title>Node18</title>
<g id="a_node18"><a xlink:href="class_sgl_1_1_background.html" target="_top" xlink:title=" ">
<polygon fill="white" stroke="black" points="1407.5,-686.5 1407.5,-809.5 1496.5,-809.5 1496.5,-686.5 1407.5,-686.5"/>
<text text-anchor="middle" x="1452" y="-797.5" font-family="Helvetica,sans-Serif" font-size="10.00">Sgl::Background</text>
<polyline fill="none" stroke="black" points="1407.5,-790.5 1496.5,-790.5 "/>
<text text-anchor="middle" x="1452" y="-778.5" font-family="Helvetica,sans-Serif" font-size="10.00"> </text>
<polyline fill="none" stroke="black" points="1407.5,-771.5 1496.5,-771.5 "/>
<text text-anchor="start" x="1415.5" y="-759.5" font-family="Helvetica,sans-Serif" font-size="10.00">+ Background()</text>
<text text-anchor="start" x="1415.5" y="-748.5" font-family="Helvetica,sans-Serif" font-size="10.00">+ Background()</text>
<text text-anchor="start" x="1415.5" y="-737.5" font-family="Helvetica,sans-Serif" font-size="10.00">+ Background()</text>
<text text-anchor="start" x="1415.5" y="-726.5" font-family="Helvetica,sans-Serif" font-size="10.00">+ Background()</text>
<text text-anchor="start" x="1415.5" y="-715.5" font-family="Helvetica,sans-Serif" font-size="10.00">+ addFill()</text>
<text text-anchor="start" x="1415.5" y="-704.5" font-family="Helvetica,sans-Serif" font-size="10.00">and 5 more...</text>
<text text-anchor="start" x="1415.5" y="-693.5" font-family="Helvetica,sans-Serif" font-size="10.00">+ fillArea()</text>
</a>
</g>
</g>
<!-- Node18&#45;&gt;Node3 -->
<g id="edge29" class="edge">
<title>Node18&#45;&gt;Node3</title>
<path fill="none" stroke="#404040" d="M1459.19,-686.41C1459.61,-673.04 1459.15,-658.99 1457,-646 1439.66,-541.31 1434.53,-511.03 1380,-420 1373.59,-409.3 1365.74,-398.8 1357.44,-388.97"/>
<polygon fill="none" stroke="#404040" points="1357.28,-388.79 1350.32,-386.91 1349.37,-379.76 1356.33,-381.64 1357.28,-388.79"/>
<text text-anchor="middle" x="1519.5" y="-536" font-family="Helvetica,sans-Serif" font-size="10.00"> +DEFAULT_BACKGROUND</text>
</g>
<!-- Node18&#45;&gt;Node4 -->
<g id="edge20" class="edge">
<title>Node18&#45;&gt;Node4</title>
<path fill="none" stroke="#404040" d="M1407.49,-695.22C1387.2,-672.17 1366.31,-649.42 1360,-646 1316.46,-622.38 1298.54,-637.91 1250,-628 1154.92,-608.6 1046.98,-581.45 974.09,-562.36"/>
<polygon fill="none" stroke="#404040" points="973.86,-562.29 967.04,-564.64 962.25,-559.24 969.07,-556.9 973.86,-562.29"/>
<text text-anchor="middle" x="1418" y="-654.5" font-family="Helvetica,sans-Serif" font-size="10.00"> #m_Background</text>
</g>
<!-- Node19 -->
<g id="node19" class="node">
<title>Node19</title>
<g id="a_node19"><a xlink:href="class_sgl_1_1_border.html" target="_top" xlink:title=" ">
<polygon fill="white" stroke="black" points="874,-692 874,-804 964,-804 964,-692 874,-692"/>
<text text-anchor="middle" x="919" y="-792" font-family="Helvetica,sans-Serif" font-size="10.00">Sgl::Border</text>
<polyline fill="none" stroke="black" points="874,-785 964,-785 "/>
<text text-anchor="middle" x="919" y="-773" font-family="Helvetica,sans-Serif" font-size="10.00"> </text>
<polyline fill="none" stroke="black" points="874,-766 964,-766 "/>
<text text-anchor="start" x="882" y="-754" font-family="Helvetica,sans-Serif" font-size="10.00">+ Border()</text>
<text text-anchor="start" x="882" y="-743" font-family="Helvetica,sans-Serif" font-size="10.00">+ Border()</text>
<text text-anchor="start" x="882" y="-732" font-family="Helvetica,sans-Serif" font-size="10.00">+ Border()</text>
<text text-anchor="start" x="882" y="-721" font-family="Helvetica,sans-Serif" font-size="10.00">+ getThickness()</text>
<text text-anchor="start" x="882" y="-710" font-family="Helvetica,sans-Serif" font-size="10.00">+ getColor()</text>
<text text-anchor="start" x="882" y="-699" font-family="Helvetica,sans-Serif" font-size="10.00">+ encloseArea()</text>
</a>
</g>
</g>
<!-- Node19&#45;&gt;Node4 -->
<g id="edge21" class="edge">
<title>Node19&#45;&gt;Node4</title>
<path fill="none" stroke="#404040" d="M915.15,-691.84C913.82,-676.92 912.11,-660.81 910,-646 909.71,-643.95 909.4,-641.88 909.08,-639.79"/>
<polygon fill="none" stroke="#404040" points="909.05,-639.56 904.14,-634.27 907.14,-627.71 912.04,-633 909.05,-639.56"/>
<text text-anchor="middle" x="938.5" y="-654.5" font-family="Helvetica,sans-Serif" font-size="10.00"> #m_Border</text>
</g>
<!-- Node20&#45;&gt;Node4 -->
<g id="edge22" class="edge">
<title>Node20&#45;&gt;Node4</title>
<path fill="none" stroke="#404040" d="M994.43,-691.91C986.35,-676.77 977.2,-660.53 968,-646 966.27,-643.27 964.49,-640.52 962.68,-637.75"/>
<polygon fill="none" stroke="#404040" points="962.63,-637.69 955.97,-634.93 955.96,-627.72 962.62,-630.48 962.63,-637.69"/>
<text text-anchor="middle" x="1010" y="-654.5" font-family="Helvetica,sans-Serif" font-size="10.00"> #m_Padding</text>
</g>
<!-- Node20&#45;&gt;Node20 -->
<g id="edge23" class="edge">
<title>Node20&#45;&gt;Node20</title>
<path fill="none" stroke="#404040" d="M1061.51,-764.7C1071.76,-763.67 1079.5,-758.11 1079.5,-748 1079.5,-742.31 1077.05,-738.07 1073.08,-735.25"/>
<polygon fill="none" stroke="#404040" points="1072.86,-735.18 1065.89,-737.02 1061.51,-731.3 1068.48,-729.45 1072.86,-735.18"/>
<text text-anchor="middle" x="1101.5" y="-745.5" font-family="Helvetica,sans-Serif" font-size="10.00"> +EMPTY</text>
</g>
<!-- Node21 -->
<g id="node21" class="node">
<title>Node21</title>
<g id="a_node21"><a xlink:href="class_sgl_1_1_color_fill.html" target="_top" xlink:title=" ">
<polygon fill="white" stroke="black" points="1259.5,-482.5 1259.5,-594.5 1332.5,-594.5 1332.5,-482.5 1259.5,-482.5"/>
<text text-anchor="middle" x="1296" y="-582.5" font-family="Helvetica,sans-Serif" font-size="10.00">Sgl::ColorFill</text>
<polyline fill="none" stroke="black" points="1259.5,-575.5 1332.5,-575.5 "/>
<text text-anchor="middle" x="1296" y="-563.5" font-family="Helvetica,sans-Serif" font-size="10.00"> </text>
<polyline fill="none" stroke="black" points="1259.5,-556.5 1332.5,-556.5 "/>
<text text-anchor="start" x="1267.5" y="-544.5" font-family="Helvetica,sans-Serif" font-size="10.00">+ ColorFill()</text>
<text text-anchor="start" x="1267.5" y="-533.5" font-family="Helvetica,sans-Serif" font-size="10.00">+ fillLine()</text>
<text text-anchor="start" x="1267.5" y="-522.5" font-family="Helvetica,sans-Serif" font-size="10.00">+ fillArea()</text>
<text text-anchor="start" x="1267.5" y="-511.5" font-family="Helvetica,sans-Serif" font-size="10.00">+ fillPoint()</text>
<text text-anchor="start" x="1267.5" y="-500.5" font-family="Helvetica,sans-Serif" font-size="10.00">+ getColor()</text>
<text text-anchor="start" x="1267.5" y="-489.5" font-family="Helvetica,sans-Serif" font-size="10.00">+ setColor()</text>
</a>
</g>
</g>
<!-- Node21&#45;&gt;Node3 -->
<g id="edge26" class="edge">
<title>Node21&#45;&gt;Node3</title>
<path fill="none" stroke="#404040" d="M1296,-482.44C1296,-454.62 1296,-420.76 1296,-392.02"/>
<polygon fill="none" stroke="#404040" points="1296,-391.64 1292,-385.64 1296,-379.64 1300,-385.64 1296,-391.64"/>
<text text-anchor="middle" x="1336" y="-423" font-family="Helvetica,sans-Serif" font-size="10.00"> +DEFAULT_FILL</text>
</g>
<!-- Node22 -->
<g id="node22" class="node">
<title>Node22</title>
<g id="a_node22"><a xlink:href="class_sgl_1_1_fill.html" target="_top" xlink:title=" ">
<polygon fill="white" stroke="black" points="1248,-708.5 1248,-787.5 1312,-787.5 1312,-708.5 1248,-708.5"/>
<text text-anchor="middle" x="1280" y="-775.5" font-family="Helvetica,sans-Serif" font-size="10.00">Sgl::Fill</text>
<polyline fill="none" stroke="black" points="1248,-768.5 1312,-768.5 "/>
<text text-anchor="middle" x="1280" y="-756.5" font-family="Helvetica,sans-Serif" font-size="10.00"> </text>
<polyline fill="none" stroke="black" points="1248,-749.5 1312,-749.5 "/>
<text text-anchor="start" x="1256" y="-737.5" font-family="Helvetica,sans-Serif" font-size="10.00">+ fillLine()</text>
<text text-anchor="start" x="1256" y="-726.5" font-family="Helvetica,sans-Serif" font-size="10.00">+ fillArea()</text>
<text text-anchor="start" x="1256" y="-715.5" font-family="Helvetica,sans-Serif" font-size="10.00">+ fillPoint()</text>
</a>
</g>
</g>
<!-- Node22&#45;&gt;Node21 -->
<g id="edge27" class="edge">
<title>Node22&#45;&gt;Node21</title>
<path fill="none" stroke="midnightblue" d="M1283.75,-698.3C1286.15,-667.24 1289.26,-626.91 1291.75,-594.66"/>
<polygon fill="none" stroke="midnightblue" points="1280.25,-698.22 1282.97,-708.46 1287.23,-698.76 1280.25,-698.22"/>
</g>
<!-- Node23 -->
<g id="node23" class="node">
<title>Node23</title>
<g id="a_node23"><a xlink:title=" ">
<polygon fill="white" stroke="#bfbfbf" points="1330,-719.5 1330,-776.5 1370,-776.5 1370,-719.5 1330,-719.5"/>
<text text-anchor="middle" x="1350" y="-764.5" font-family="Helvetica,sans-Serif" font-size="10.00">Color</text>
<polyline fill="none" stroke="#bfbfbf" points="1330,-757.5 1370,-757.5 "/>
<text text-anchor="middle" x="1350" y="-745.5" font-family="Helvetica,sans-Serif" font-size="10.00"> </text>
<polyline fill="none" stroke="#bfbfbf" points="1330,-738.5 1370,-738.5 "/>
<text text-anchor="middle" x="1350" y="-726.5" font-family="Helvetica,sans-Serif" font-size="10.00"> </text>
</a>
</g>
</g>
<!-- Node23&#45;&gt;Node21 -->
<g id="edge28" class="edge">
<title>Node23&#45;&gt;Node21</title>
<path fill="none" stroke="#404040" d="M1336.82,-719.12C1327.19,-698.58 1315.55,-673.32 1314,-668 1308.31,-648.48 1304.4,-626.75 1301.72,-606.79"/>
<polygon fill="none" stroke="#404040" points="1301.68,-606.54 1296.97,-601.08 1300.2,-594.63 1304.91,-600.09 1301.68,-606.54"/>
<text text-anchor="middle" x="1337" y="-654.5" font-family="Helvetica,sans-Serif" font-size="10.00"> #m_Color</text>
</g>
</g>
</svg>
