<?xml version="1.0" encoding="UTF-8" standalone="no"?>
<!DOCTYPE svg PUBLIC "-//W3C//DTD SVG 1.1//EN"
 "http://www.w3.org/Graphics/SVG/1.1/DTD/svg11.dtd">
<!-- Generated by graphviz version 2.50.0 (20211204.2007)
 -->
<!-- Title: Sgl::DragListener&lt; C &gt; Pages: 1 -->
<!--zoomable 643 -->
<svg id="main" version="1.1" xmlns="http://www.w3.org/2000/svg" xmlns:xlink="http://www.w3.org/1999/xlink" xml:space="preserve" onload="init(evt)">
<style type="text/css"><![CDATA[
.edge:hover path { stroke: red; }
.edge:hover polygon { stroke: red; fill: red; }
]]></style>
<script type="text/javascript"><![CDATA[
var edges = document.getElementsByTagName('g');
if (edges && edges.length) {
  for (var i=0;i<edges.length;i++) {
    if (edges[i].id.substr(0,4)=='edge') {
      edges[i].setAttribute('class','edge');
    }
  }
}
]]></script>
        <defs>
                <circle id="rim" cx="0" cy="0" r="7"/>
                <circle id="rim2" cx="0" cy="0" r="3.5"/>
                <g id="zoomPlus">
                        <use xlink:href="#rim" fill="#404040">
                                <set attributeName="fill" to="#808080" begin="zoomplus.mouseover" end="zoomplus.mouseout"/>
                        </use>
                        <path d="M-4,0h8M0,-4v8" fill="none" stroke="white" stroke-width="1.5" pointer-events="none"/>
                </g>
                <g id="zoomMin">
                        <use xlink:href="#rim" fill="#404040">
                                <set attributeName="fill" to="#808080" begin="zoomminus.mouseover" end="zoomminus.mouseout"/>
                        </use>
                        <path d="M-4,0h8" fill="none" stroke="white" stroke-width="1.5" pointer-events="none"/>
                </g>
                <g id="dirArrow">
                        <path fill="none" stroke="white" stroke-width="1.5" d="M0,-3.0v7 M-2.5,-0.5L0,-3.0L2.5,-0.5"/>
                </g>
               <g id="resetDef">
                       <use xlink:href="#rim2" fill="#404040">
                               <set attributeName="fill" to="#808080" begin="reset.mouseover" end="reset.mouseout"/>
                       </use>
               </g>
        </defs>

<script type="text/javascript">
var viewWidth = 181;
var viewHeight = 643;
var sectionId = 'dynsection-0';
</script>
<script xlink:href="svgpan.js"/>
<svg id="graph" class="graph">
<g id="viewport">
<title>Sgl::DragListener&lt; C &gt;</title>
<polygon fill="white" stroke="transparent" points="-4,4 -4,-639 177,-639 177,4 -4,4"/>
<!-- Node1 -->
<g id="node1" class="node">
<title>Node1</title>
<g id="a_node1"><a xlink:title=" ">
<polygon fill="#bfbfbf" stroke="black" points="7.5,-310.5 7.5,-422.5 165.5,-422.5 165.5,-310.5 7.5,-310.5"/>
<text text-anchor="middle" x="86.5" y="-410.5" font-family="Helvetica,sans-Serif" font-size="10.00">Sgl::DragListener&lt; C &gt;</text>
<polyline fill="none" stroke="black" points="7.5,-403.5 165.5,-403.5 "/>
<text text-anchor="middle" x="86.5" y="-391.5" font-family="Helvetica,sans-Serif" font-size="10.00"> </text>
<polyline fill="none" stroke="black" points="7.5,-384.5 165.5,-384.5 "/>
<text text-anchor="start" x="15.5" y="-372.5" font-family="Helvetica,sans-Serif" font-size="10.00">+ DEFINE_STATIC_LISTENED</text>
<text text-anchor="start" x="15.5" y="-361.5" font-family="Helvetica,sans-Serif" font-size="10.00">_EVENT_TYPES()</text>
<text text-anchor="start" x="15.5" y="-350.5" font-family="Helvetica,sans-Serif" font-size="10.00">+ onEvent()</text>
<text text-anchor="start" x="15.5" y="-339.5" font-family="Helvetica,sans-Serif" font-size="10.00">+ onDragStart()</text>
<text text-anchor="start" x="15.5" y="-328.5" font-family="Helvetica,sans-Serif" font-size="10.00">+ onDragEnd()</text>
<text text-anchor="start" x="15.5" y="-317.5" font-family="Helvetica,sans-Serif" font-size="10.00">+ onDragMove()</text>
</a>
</g>
</g>
<!-- Node4 -->
<g id="node4" class="node">
<title>Node4</title>
<g id="a_node4"><a xlink:href="class_sgl_1_1_drag_listener.html" target="_top" xlink:title=" ">
<polygon fill="white" stroke="black" points="7.5,-139.5 7.5,-262.5 165.5,-262.5 165.5,-139.5 7.5,-139.5"/>
<text text-anchor="start" x="15.5" y="-250.5" font-family="Helvetica,sans-Serif" font-size="10.00">Sgl::DragListener&lt;</text>
<text text-anchor="middle" x="86.5" y="-239.5" font-family="Helvetica,sans-Serif" font-size="10.00"> Slider &gt;</text>
<polyline fill="none" stroke="black" points="7.5,-232.5 165.5,-232.5 "/>
<text text-anchor="middle" x="86.5" y="-220.5" font-family="Helvetica,sans-Serif" font-size="10.00"> </text>
<polyline fill="none" stroke="black" points="7.5,-213.5 165.5,-213.5 "/>
<text text-anchor="start" x="15.5" y="-201.5" font-family="Helvetica,sans-Serif" font-size="10.00">+ DEFINE_STATIC_LISTENED</text>
<text text-anchor="start" x="15.5" y="-190.5" font-family="Helvetica,sans-Serif" font-size="10.00">_EVENT_TYPES()</text>
<text text-anchor="start" x="15.5" y="-179.5" font-family="Helvetica,sans-Serif" font-size="10.00">+ onEvent()</text>
<text text-anchor="start" x="15.5" y="-168.5" font-family="Helvetica,sans-Serif" font-size="10.00">+ onDragStart()</text>
<text text-anchor="start" x="15.5" y="-157.5" font-family="Helvetica,sans-Serif" font-size="10.00">+ onDragEnd()</text>
<text text-anchor="start" x="15.5" y="-146.5" font-family="Helvetica,sans-Serif" font-size="10.00">+ onDragMove()</text>
</a>
</g>
</g>
<!-- Node1&#45;&gt;Node4 -->
<g id="edge3" class="edge">
<title>Node1&#45;&gt;Node4</title>
<path fill="none" stroke="orange" d="M86.5,-299.94C86.5,-287.62 86.5,-274.79 86.5,-262.63"/>
<polygon fill="orange" stroke="orange" points="83,-300.15 86.5,-310.15 90,-300.15 83,-300.15"/>
<text text-anchor="middle" x="109.5" y="-284" font-family="Helvetica,sans-Serif" font-size="10.00"> &lt; Slider &gt;</text>
</g>
<!-- Node2 -->
<g id="node2" class="node">
<title>Node2</title>
<g id="a_node2"><a xlink:href="class_sgl_1_1_component_event_listener.html" target="_top" xlink:title=" ">
<polygon fill="white" stroke="black" points="0,-460.5 0,-539.5 173,-539.5 173,-460.5 0,-460.5"/>
<text text-anchor="middle" x="86.5" y="-527.5" font-family="Helvetica,sans-Serif" font-size="10.00">Sgl::ComponentEventListener&lt; C &gt;</text>
<polyline fill="none" stroke="black" points="0,-520.5 173,-520.5 "/>
<text text-anchor="middle" x="86.5" y="-508.5" font-family="Helvetica,sans-Serif" font-size="10.00"> </text>
<polyline fill="none" stroke="black" points="0,-501.5 173,-501.5 "/>
<text text-anchor="start" x="8" y="-489.5" font-family="Helvetica,sans-Serif" font-size="10.00">+ ComponentEventListener()</text>
<text text-anchor="start" x="8" y="-478.5" font-family="Helvetica,sans-Serif" font-size="10.00">+ getComponent()</text>
<text text-anchor="start" x="8" y="-467.5" font-family="Helvetica,sans-Serif" font-size="10.00">+ setComponent()</text>
</a>
</g>
</g>
<!-- Node2&#45;&gt;Node1 -->
<g id="edge1" class="edge">
<title>Node2&#45;&gt;Node1</title>
<path fill="none" stroke="midnightblue" d="M86.5,-449.99C86.5,-441.04 86.5,-431.64 86.5,-422.53"/>
<polygon fill="none" stroke="midnightblue" points="83,-450.26 86.5,-460.26 90,-450.26 83,-450.26"/>
</g>
<!-- Node3 -->
<g id="node3" class="node">
<title>Node3</title>
<g id="a_node3"><a xlink:title=" ">
<polygon fill="white" stroke="#bfbfbf" points="49.5,-577.5 49.5,-634.5 123.5,-634.5 123.5,-577.5 49.5,-577.5"/>
<text text-anchor="middle" x="86.5" y="-622.5" font-family="Helvetica,sans-Serif" font-size="10.00">Sml::Listener</text>
<polyline fill="none" stroke="#bfbfbf" points="49.5,-615.5 123.5,-615.5 "/>
<text text-anchor="middle" x="86.5" y="-603.5" font-family="Helvetica,sans-Serif" font-size="10.00"> </text>
<polyline fill="none" stroke="#bfbfbf" points="49.5,-596.5 123.5,-596.5 "/>
<text text-anchor="middle" x="86.5" y="-584.5" font-family="Helvetica,sans-Serif" font-size="10.00"> </text>
</a>
</g>
</g>
<!-- Node3&#45;&gt;Node2 -->
<g id="edge2" class="edge">
<title>Node3&#45;&gt;Node2</title>
<path fill="none" stroke="midnightblue" d="M86.5,-567.23C86.5,-558.27 86.5,-548.69 86.5,-539.69"/>
<polygon fill="none" stroke="midnightblue" points="83,-567.4 86.5,-577.4 90,-567.4 83,-567.4"/>
</g>
<!-- Node5 -->
<g id="node5" class="node">
<title>Node5</title>
<g id="a_node5"><a xlink:href="class_sgl_1_1_default_skins_1_1_slider_skin_drag_listener.html" target="_top" xlink:title=" ">
<polygon fill="white" stroke="black" points="21,-0.5 21,-101.5 152,-101.5 152,-0.5 21,-0.5"/>
<text text-anchor="start" x="29" y="-89.5" font-family="Helvetica,sans-Serif" font-size="10.00">Sgl::DefaultSkins::</text>
<text text-anchor="middle" x="86.5" y="-78.5" font-family="Helvetica,sans-Serif" font-size="10.00">SliderSkinDragListener</text>
<polyline fill="none" stroke="black" points="21,-71.5 152,-71.5 "/>
<text text-anchor="middle" x="86.5" y="-59.5" font-family="Helvetica,sans-Serif" font-size="10.00"> </text>
<polyline fill="none" stroke="black" points="21,-52.5 152,-52.5 "/>
<text text-anchor="start" x="29" y="-40.5" font-family="Helvetica,sans-Serif" font-size="10.00">+ SliderSkinDragListener()</text>
<text text-anchor="start" x="29" y="-29.5" font-family="Helvetica,sans-Serif" font-size="10.00">+ updateValue()</text>
<text text-anchor="start" x="29" y="-18.5" font-family="Helvetica,sans-Serif" font-size="10.00">+ onDragStart()</text>
<text text-anchor="start" x="29" y="-7.5" font-family="Helvetica,sans-Serif" font-size="10.00">+ onDragMove()</text>
</a>
</g>
</g>
<!-- Node4&#45;&gt;Node5 -->
<g id="edge4" class="edge">
<title>Node4&#45;&gt;Node5</title>
<path fill="none" stroke="midnightblue" d="M86.5,-129.37C86.5,-120.1 86.5,-110.75 86.5,-101.92"/>
<polygon fill="none" stroke="midnightblue" points="83,-129.38 86.5,-139.38 90,-129.38 83,-129.38"/>
</g>
</g>
</svg>
        <g id="navigator" transform="translate(0 0)" fill="#404254">
                <rect fill="#f2f5e9" fill-opacity="0.5" stroke="#606060" stroke-width=".5" x="0" y="0" width="60" height="60"/>
                <use id="zoomplus" xlink:href="#zoomPlus" x="17" y="9" onmousedown="handleZoom(evt,'in')"/>
                <use id="zoomminus" xlink:href="#zoomMin" x="42" y="9" onmousedown="handleZoom(evt,'out')"/>
                <use id="reset" xlink:href="#resetDef" x="30" y="36" onmousedown="handleReset()"/>
                <g id="arrowUp" xlink:href="#dirArrow" transform="translate(30 24)" onmousedown="handlePan(0,-1)">
                  <use xlink:href="#rim" fill="#404040">
                        <set attributeName="fill" to="#808080" begin="arrowUp.mouseover" end="arrowUp.mouseout"/>
                  </use>
                  <path fill="none" stroke="white" stroke-width="1.5" d="M0,-3.0v7 M-2.5,-0.5L0,-3.0L2.5,-0.5"/>
                </g>
                <g id="arrowRight" xlink:href="#dirArrow" transform="rotate(90) translate(36 -43)" onmousedown="handlePan(1,0)">
                  <use xlink:href="#rim" fill="#404040">
                        <set attributeName="fill" to="#808080" begin="arrowRight.mouseover" end="arrowRight.mouseout"/>
                  </use>
                  <path fill="none" stroke="white" stroke-width="1.5" d="M0,-3.0v7 M-2.5,-0.5L0,-3.0L2.5,-0.5"/>
                </g>
                <g id="arrowDown" xlink:href="#dirArrow" transform="rotate(180) translate(-30 -48)" onmousedown="handlePan(0,1)">
                  <use xlink:href="#rim" fill="#404040">
                        <set attributeName="fill" to="#808080" begin="arrowDown.mouseover" end="arrowDown.mouseout"/>
                  </use>
                  <path fill="none" stroke="white" stroke-width="1.5" d="M0,-3.0v7 M-2.5,-0.5L0,-3.0L2.5,-0.5"/>
                </g>
                <g id="arrowLeft" xlink:href="#dirArrow" transform="rotate(270) translate(-36 17)" onmousedown="handlePan(-1,0)">
                  <use xlink:href="#rim" fill="#404040">
                        <set attributeName="fill" to="#808080" begin="arrowLeft.mouseover" end="arrowLeft.mouseout"/>
                  </use>
                  <path fill="none" stroke="white" stroke-width="1.5" d="M0,-3.0v7 M-2.5,-0.5L0,-3.0L2.5,-0.5"/>
                </g>
        </g>
        <svg viewBox="0 0 15 15" width="100%" height="30px" preserveAspectRatio="xMaxYMin meet">
         <g id="arrow_out" transform="scale(0.3 0.3)">
          <a xlink:href="class_sgl_1_1_drag_listener__inherit__graph_org.svg" target="_base">
           <rect id="button" ry="5" rx="5" y="6" x="6" height="38" width="38"
                fill="#f2f5e9" fill-opacity="0.5" stroke="#606060" stroke-width="1.0"/>
           <path id="arrow"
             d="M 11.500037,31.436501 C 11.940474,20.09759 22.043105,11.32322 32.158766,21.979434 L 37.068811,17.246167 C 37.068811,17.246167 37.088388,32 37.088388,32 L 22.160133,31.978069 C 22.160133,31.978069 26.997745,27.140456 26.997745,27.140456 C 18.528582,18.264221 13.291696,25.230495 11.500037,31.436501 z"
             style="fill:#404040;"/>
          </a>
         </g>
        </svg>
</svg>
