<?xml version="1.0" encoding="UTF-8" standalone="no"?>
<!DOCTYPE svg PUBLIC "-//W3C//DTD SVG 1.1//EN"
 "http://www.w3.org/Graphics/SVG/1.1/DTD/svg11.dtd">
<!-- Generated by graphviz version 2.50.0 (20211204.2007)
 -->
<!-- Title: component.h Pages: 1 -->
<!--zoomable 420 -->
<svg id="main" version="1.1" xmlns="http://www.w3.org/2000/svg" xmlns:xlink="http://www.w3.org/1999/xlink" xml:space="preserve" onload="init(evt)">
<style type="text/css"><![CDATA[
.edge:hover path { stroke: red; }
.edge:hover polygon { stroke: red; fill: red; }
]]></style>
<script type="text/javascript"><![CDATA[
var edges = document.getElementsByTagName('g');
if (edges && edges.length) {
  for (var i=0;i<edges.length;i++) {
    if (edges[i].id.substr(0,4)=='edge') {
      edges[i].setAttribute('class','edge');
    }
  }
}
]]></script>
        <defs>
                <circle id="rim" cx="0" cy="0" r="7"/>
                <circle id="rim2" cx="0" cy="0" r="3.5"/>
                <g id="zoomPlus">
                        <use xlink:href="#rim" fill="#404040">
                                <set attributeName="fill" to="#808080" begin="zoomplus.mouseover" end="zoomplus.mouseout"/>
                        </use>
                        <path d="M-4,0h8M0,-4v8" fill="none" stroke="white" stroke-width="1.5" pointer-events="none"/>
                </g>
                <g id="zoomMin">
                        <use xlink:href="#rim" fill="#404040">
                                <set attributeName="fill" to="#808080" begin="zoomminus.mouseover" end="zoomminus.mouseout"/>
                        </use>
                        <path d="M-4,0h8" fill="none" stroke="white" stroke-width="1.5" pointer-events="none"/>
                </g>
                <g id="dirArrow">
                        <path fill="none" stroke="white" stroke-width="1.5" d="M0,-3.0v7 M-2.5,-0.5L0,-3.0L2.5,-0.5"/>
                </g>
               <g id="resetDef">
                       <use xlink:href="#rim2" fill="#404040">
                               <set attributeName="fill" to="#808080" begin="reset.mouseover" end="reset.mouseout"/>
                       </use>
               </g>
        </defs>

<script type="text/javascript">
var viewWidth = 1209;
var viewHeight = 420;
var sectionId = 'dynsection-1';
</script>
<script xlink:href="svgpan.js"/>
<svg id="graph" class="graph">
<g id="viewport">
<title>component.h</title>
<polygon fill="white" stroke="transparent" points="-4,4 -4,-416 1205,-416 1205,4 -4,4"/>
<!-- Node1 -->
<g id="node1" class="node">
<title>Node1</title>
<g id="a_node1"><a xlink:title=" ">
<polygon fill="#bfbfbf" stroke="black" points="571.5,-392.5 571.5,-411.5 644.5,-411.5 644.5,-392.5 571.5,-392.5"/>
<text text-anchor="middle" x="608" y="-399.5" font-family="Helvetica,sans-Serif" font-size="10.00">component.h</text>
</a>
</g>
</g>
<!-- Node2 -->
<g id="node2" class="node">
<title>Node2</title>
<g id="a_node2"><a xlink:href="gui__event__dispatching_8cpp.html" target="_top" xlink:title=" ">
<polygon fill="white" stroke="black" points="296,-336.5 296,-355.5 428,-355.5 428,-336.5 296,-336.5"/>
<text text-anchor="middle" x="362" y="-343.5" font-family="Helvetica,sans-Serif" font-size="10.00">gui_event_dispatching.cpp</text>
</a>
</g>
</g>
<!-- Node1&#45;&gt;Node2 -->
<g id="edge1" class="edge">
<title>Node1&#45;&gt;Node2</title>
<path fill="none" stroke="midnightblue" d="M561.62,-390.82C515.13,-380.61 444.39,-365.09 400.8,-355.52"/>
<polygon fill="midnightblue" stroke="midnightblue" points="560.92,-394.25 571.44,-392.97 562.42,-387.41 560.92,-394.25"/>
</g>
<!-- Node3 -->
<g id="node3" class="node">
<title>Node3</title>
<g id="a_node3"><a xlink:href="image__view_8h.html" target="_top" xlink:title=" ">
<polygon fill="white" stroke="black" points="712.5,-336.5 712.5,-355.5 787.5,-355.5 787.5,-336.5 712.5,-336.5"/>
<text text-anchor="middle" x="750" y="-343.5" font-family="Helvetica,sans-Serif" font-size="10.00">image_view.h</text>
</a>
</g>
</g>
<!-- Node1&#45;&gt;Node3 -->
<g id="edge2" class="edge">
<title>Node1&#45;&gt;Node3</title>
<path fill="none" stroke="midnightblue" d="M640.16,-388.77C666.83,-378.63 704.07,-364.47 727.6,-355.52"/>
<polygon fill="midnightblue" stroke="midnightblue" points="638.6,-385.62 630.5,-392.44 641.09,-392.16 638.6,-385.62"/>
</g>
<!-- Node18 -->
<g id="node18" class="node">
<title>Node18</title>
<g id="a_node18"><a xlink:href="parent_8h.html" target="_top" xlink:title=" ">
<polygon fill="white" stroke="black" points="446,-336.5 446,-355.5 498,-355.5 498,-336.5 446,-336.5"/>
<text text-anchor="middle" x="472" y="-343.5" font-family="Helvetica,sans-Serif" font-size="10.00">parent.h</text>
</a>
</g>
</g>
<!-- Node1&#45;&gt;Node18 -->
<g id="edge20" class="edge">
<title>Node1&#45;&gt;Node18</title>
<path fill="none" stroke="midnightblue" d="M576.87,-388.64C551.34,-378.5 515.89,-364.43 493.45,-355.52"/>
<polygon fill="midnightblue" stroke="midnightblue" points="575.86,-392.01 586.45,-392.44 578.45,-385.5 575.86,-392.01"/>
</g>
<!-- Node37 -->
<g id="node37" class="node">
<title>Node37</title>
<g id="a_node37"><a xlink:href="shape_8h.html" target="_top" xlink:title=" ">
<polygon fill="white" stroke="black" points="991.5,-336.5 991.5,-355.5 1042.5,-355.5 1042.5,-336.5 991.5,-336.5"/>
<text text-anchor="middle" x="1017" y="-343.5" font-family="Helvetica,sans-Serif" font-size="10.00">shape.h</text>
</a>
</g>
</g>
<!-- Node1&#45;&gt;Node37 -->
<g id="edge49" class="edge">
<title>Node1&#45;&gt;Node37</title>
<path fill="none" stroke="midnightblue" d="M654.72,-394.83C741.25,-383.41 923.79,-359.31 991.24,-350.4"/>
<polygon fill="midnightblue" stroke="midnightblue" points="654.11,-391.38 644.66,-396.16 655.03,-398.32 654.11,-391.38"/>
</g>
<!-- Node4 -->
<g id="node4" class="node">
<title>Node4</title>
<g id="a_node4"><a xlink:href="default__skins_8h.html" target="_top" xlink:title=" ">
<polygon fill="white" stroke="black" points="982.5,-224.5 982.5,-243.5 1065.5,-243.5 1065.5,-224.5 982.5,-224.5"/>
<text text-anchor="middle" x="1024" y="-231.5" font-family="Helvetica,sans-Serif" font-size="10.00">default_skins.h</text>
</a>
</g>
</g>
<!-- Node3&#45;&gt;Node4 -->
<g id="edge3" class="edge">
<title>Node3&#45;&gt;Node4</title>
<path fill="none" stroke="midnightblue" d="M779.97,-332.46C811.69,-319.23 863.26,-297.88 908,-280 940.29,-267.09 977.85,-252.62 1001.27,-243.66"/>
<polygon fill="midnightblue" stroke="midnightblue" points="778.28,-329.37 770.4,-336.45 780.98,-335.83 778.28,-329.37"/>
</g>
<!-- Node17 -->
<g id="node17" class="node">
<title>Node17</title>
<g id="a_node17"><a xlink:href="image__view_8cpp.html" target="_top" xlink:title=" ">
<polygon fill="white" stroke="black" points="707,-280.5 707,-299.5 793,-299.5 793,-280.5 707,-280.5"/>
<text text-anchor="middle" x="750" y="-287.5" font-family="Helvetica,sans-Serif" font-size="10.00">image_view.cpp</text>
</a>
</g>
</g>
<!-- Node3&#45;&gt;Node17 -->
<g id="edge19" class="edge">
<title>Node3&#45;&gt;Node17</title>
<path fill="none" stroke="midnightblue" d="M750,-325.8C750,-316.91 750,-306.78 750,-299.75"/>
<polygon fill="midnightblue" stroke="midnightblue" points="746.5,-326.08 750,-336.08 753.5,-326.08 746.5,-326.08"/>
</g>
<!-- Node5 -->
<g id="node5" class="node">
<title>Node5</title>
<g id="a_node5"><a xlink:href="button_8h.html" target="_top" xlink:title=" ">
<polygon fill="white" stroke="black" points="617,-168.5 617,-187.5 669,-187.5 669,-168.5 617,-168.5"/>
<text text-anchor="middle" x="643" y="-175.5" font-family="Helvetica,sans-Serif" font-size="10.00">button.h</text>
</a>
</g>
</g>
<!-- Node4&#45;&gt;Node5 -->
<g id="edge4" class="edge">
<title>Node4&#45;&gt;Node5</title>
<path fill="none" stroke="midnightblue" d="M972.23,-223.93C852.84,-205.43 723.49,-188.96 669.15,-182.21"/>
<polygon fill="midnightblue" stroke="midnightblue" points="971.85,-227.42 982.27,-225.5 972.93,-220.5 971.85,-227.42"/>
</g>
<!-- Node8 -->
<g id="node8" class="node">
<title>Node8</title>
<g id="a_node8"><a xlink:href="default__skins_8cpp.html" target="_top" xlink:title=" ">
<polygon fill="white" stroke="black" points="764.5,-112.5 764.5,-131.5 857.5,-131.5 857.5,-112.5 764.5,-112.5"/>
<text text-anchor="middle" x="811" y="-119.5" font-family="Helvetica,sans-Serif" font-size="10.00">default_skins.cpp</text>
</a>
</g>
</g>
<!-- Node4&#45;&gt;Node8 -->
<g id="edge15" class="edge">
<title>Node4&#45;&gt;Node8</title>
<path fill="none" stroke="midnightblue" d="M1015.52,-215.24C1007.56,-200.46 994.31,-179.97 977,-168 941.5,-143.47 893.19,-132.29 857.84,-127.21"/>
<polygon fill="midnightblue" stroke="midnightblue" points="1012.51,-217.05 1020.16,-224.38 1018.75,-213.88 1012.51,-217.05"/>
</g>
<!-- Node14 -->
<g id="node14" class="node">
<title>Node14</title>
<g id="a_node14"><a xlink:href="scroll__bar_8cpp.html" target="_top" xlink:title=" ">
<polygon fill="white" stroke="black" points="891.5,-168.5 891.5,-187.5 968.5,-187.5 968.5,-168.5 891.5,-168.5"/>
<text text-anchor="middle" x="930" y="-175.5" font-family="Helvetica,sans-Serif" font-size="10.00">scroll_bar.cpp</text>
</a>
</g>
</g>
<!-- Node4&#45;&gt;Node14 -->
<g id="edge16" class="edge">
<title>Node4&#45;&gt;Node14</title>
<path fill="none" stroke="midnightblue" d="M999.94,-219.18C982.64,-209.24 959.85,-196.15 945.07,-187.65"/>
<polygon fill="midnightblue" stroke="midnightblue" points="998.48,-222.38 1008.9,-224.32 1001.97,-216.31 998.48,-222.38"/>
</g>
<!-- Node15 -->
<g id="node15" class="node">
<title>Node15</title>
<g id="a_node15"><a xlink:href="slider_8cpp.html" target="_top" xlink:title=" ">
<polygon fill="white" stroke="black" points="763,-168.5 763,-187.5 821,-187.5 821,-168.5 763,-168.5"/>
<text text-anchor="middle" x="792" y="-175.5" font-family="Helvetica,sans-Serif" font-size="10.00">slider.cpp</text>
</a>
</g>
</g>
<!-- Node4&#45;&gt;Node15 -->
<g id="edge17" class="edge">
<title>Node4&#45;&gt;Node15</title>
<path fill="none" stroke="midnightblue" d="M977.38,-222.15C930.77,-211.3 860.52,-194.95 821.24,-185.81"/>
<polygon fill="midnightblue" stroke="midnightblue" points="976.71,-225.59 987.24,-224.44 978.29,-218.77 976.71,-225.59"/>
</g>
<!-- Node16 -->
<g id="node16" class="node">
<title>Node16</title>
<g id="a_node16"><a xlink:href="text_8cpp.html" target="_top" xlink:title=" ">
<polygon fill="white" stroke="black" points="1043,-168.5 1043,-187.5 1095,-187.5 1095,-168.5 1043,-168.5"/>
<text text-anchor="middle" x="1069" y="-175.5" font-family="Helvetica,sans-Serif" font-size="10.00">text.cpp</text>
</a>
</g>
</g>
<!-- Node4&#45;&gt;Node16 -->
<g id="edge18" class="edge">
<title>Node4&#45;&gt;Node16</title>
<path fill="none" stroke="midnightblue" d="M1038.05,-216.14C1045.89,-206.74 1055.33,-195.4 1061.71,-187.75"/>
<polygon fill="midnightblue" stroke="midnightblue" points="1035.14,-214.16 1031.43,-224.08 1040.52,-218.64 1035.14,-214.16"/>
</g>
<!-- Node6 -->
<g id="node6" class="node">
<title>Node6</title>
<g id="a_node6"><a xlink:href="button_8cpp.html" target="_top" xlink:title=" ">
<polygon fill="white" stroke="black" points="684,-112.5 684,-131.5 746,-131.5 746,-112.5 684,-112.5"/>
<text text-anchor="middle" x="715" y="-119.5" font-family="Helvetica,sans-Serif" font-size="10.00">button.cpp</text>
</a>
</g>
</g>
<!-- Node5&#45;&gt;Node6 -->
<g id="edge5" class="edge">
<title>Node5&#45;&gt;Node6</title>
<path fill="none" stroke="midnightblue" d="M662.87,-162.1C675.82,-152.38 692.3,-140.03 703.22,-131.83"/>
<polygon fill="midnightblue" stroke="midnightblue" points="660.47,-159.52 654.57,-168.32 664.67,-165.12 660.47,-159.52"/>
</g>
<!-- Node7 -->
<g id="node7" class="node">
<title>Node7</title>
<g id="a_node7"><a xlink:href="context__menu_8cpp.html" target="_top" xlink:title=" ">
<polygon fill="white" stroke="black" points="515.5,-0.5 515.5,-19.5 612.5,-19.5 612.5,-0.5 515.5,-0.5"/>
<text text-anchor="middle" x="564" y="-7.5" font-family="Helvetica,sans-Serif" font-size="10.00">context_menu.cpp</text>
</a>
</g>
</g>
<!-- Node5&#45;&gt;Node7 -->
<g id="edge6" class="edge">
<title>Node5&#45;&gt;Node7</title>
<path fill="none" stroke="midnightblue" d="M638.86,-158.68C635.66,-145.51 630.8,-127.41 625,-112 615.27,-86.14 612.4,-79.58 598,-56 589.84,-42.63 578.6,-28.39 571.31,-19.6"/>
<polygon fill="midnightblue" stroke="midnightblue" points="635.45,-159.49 641.14,-168.43 642.27,-157.9 635.45,-159.49"/>
</g>
<!-- Node5&#45;&gt;Node8 -->
<g id="edge7" class="edge">
<title>Node5&#45;&gt;Node8</title>
<path fill="none" stroke="midnightblue" d="M679,-165.43C710.63,-155.26 755.92,-140.7 784.38,-131.56"/>
<polygon fill="midnightblue" stroke="midnightblue" points="677.7,-162.17 669.25,-168.56 679.84,-168.83 677.7,-162.17"/>
</g>
<!-- Node9 -->
<g id="node9" class="node">
<title>Node9</title>
<g id="a_node9"><a xlink:href="menu__bar_8h.html" target="_top" xlink:title=" ">
<polygon fill="white" stroke="black" points="549.5,-112.5 549.5,-131.5 616.5,-131.5 616.5,-112.5 549.5,-112.5"/>
<text text-anchor="middle" x="583" y="-119.5" font-family="Helvetica,sans-Serif" font-size="10.00">menu_bar.h</text>
</a>
</g>
</g>
<!-- Node5&#45;&gt;Node9 -->
<g id="edge8" class="edge">
<title>Node5&#45;&gt;Node9</title>
<path fill="none" stroke="midnightblue" d="M625.82,-161.54C615.12,-151.91 601.74,-139.87 592.82,-131.83"/>
<polygon fill="midnightblue" stroke="midnightblue" points="623.59,-164.24 633.36,-168.32 628.27,-159.03 623.59,-164.24"/>
</g>
<!-- Node10 -->
<g id="node10" class="node">
<title>Node10</title>
<g id="a_node10"><a xlink:href="menu__bar_8cpp.html" target="_top" xlink:title=" ">
<polygon fill="white" stroke="black" points="630.5,-0.5 630.5,-19.5 707.5,-19.5 707.5,-0.5 630.5,-0.5"/>
<text text-anchor="middle" x="669" y="-7.5" font-family="Helvetica,sans-Serif" font-size="10.00">menu_bar.cpp</text>
</a>
</g>
</g>
<!-- Node9&#45;&gt;Node10 -->
<g id="edge9" class="edge">
<title>Node9&#45;&gt;Node10</title>
<path fill="none" stroke="midnightblue" d="M596.08,-104.27C614.67,-80.49 648.06,-37.79 662.28,-19.59"/>
<polygon fill="midnightblue" stroke="midnightblue" points="593.15,-102.33 589.75,-112.37 598.66,-106.65 593.15,-102.33"/>
</g>
<!-- Node11 -->
<g id="node11" class="node">
<title>Node11</title>
<g id="a_node11"><a xlink:href="scene_8h.html" target="_top" xlink:title=" ">
<polygon fill="white" stroke="black" points="538.5,-56.5 538.5,-75.5 589.5,-75.5 589.5,-56.5 538.5,-56.5"/>
<text text-anchor="middle" x="564" y="-63.5" font-family="Helvetica,sans-Serif" font-size="10.00">scene.h</text>
</a>
</g>
</g>
<!-- Node9&#45;&gt;Node11 -->
<g id="edge10" class="edge">
<title>Node9&#45;&gt;Node11</title>
<path fill="none" stroke="midnightblue" d="M576.45,-102.4C573.28,-93.36 569.61,-82.94 567.08,-75.75"/>
<polygon fill="midnightblue" stroke="midnightblue" points="573.24,-103.81 579.86,-112.08 579.85,-101.49 573.24,-103.81"/>
</g>
<!-- Node11&#45;&gt;Node7 -->
<g id="edge12" class="edge">
<title>Node11&#45;&gt;Node7</title>
<path fill="none" stroke="midnightblue" d="M564,-45.8C564,-36.91 564,-26.78 564,-19.75"/>
<polygon fill="midnightblue" stroke="midnightblue" points="560.5,-46.08 564,-56.08 567.5,-46.08 560.5,-46.08"/>
</g>
<!-- Node11&#45;&gt;Node10 -->
<g id="edge13" class="edge">
<title>Node11&#45;&gt;Node10</title>
<path fill="none" stroke="midnightblue" d="M589.81,-51.73C609.25,-41.73 635.35,-28.31 652.17,-19.65"/>
<polygon fill="midnightblue" stroke="midnightblue" points="588.16,-48.64 580.87,-56.32 591.36,-54.86 588.16,-48.64"/>
</g>
<!-- Node12 -->
<g id="node12" class="node">
<title>Node12</title>
<g id="a_node12"><a xlink:href="component_8cpp.html" target="_top" xlink:title=" ">
<polygon fill="white" stroke="black" points="146.5,-0.5 146.5,-19.5 229.5,-19.5 229.5,-0.5 146.5,-0.5"/>
<text text-anchor="middle" x="188" y="-7.5" font-family="Helvetica,sans-Serif" font-size="10.00">component.cpp</text>
</a>
</g>
</g>
<!-- Node11&#45;&gt;Node12 -->
<g id="edge11" class="edge">
<title>Node11&#45;&gt;Node12</title>
<path fill="none" stroke="midnightblue" d="M528.39,-59.89C458.57,-49.86 304.04,-27.67 229.63,-16.98"/>
<polygon fill="midnightblue" stroke="midnightblue" points="528.06,-63.37 538.45,-61.33 529.05,-56.44 528.06,-63.37"/>
</g>
<!-- Node13 -->
<g id="node13" class="node">
<title>Node13</title>
<g id="a_node13"><a xlink:href="scene_8cpp.html" target="_top" xlink:title=" ">
<polygon fill="white" stroke="black" points="435,-0.5 435,-19.5 497,-19.5 497,-0.5 435,-0.5"/>
<text text-anchor="middle" x="466" y="-7.5" font-family="Helvetica,sans-Serif" font-size="10.00">scene.cpp</text>
</a>
</g>
</g>
<!-- Node11&#45;&gt;Node13 -->
<g id="edge14" class="edge">
<title>Node11&#45;&gt;Node13</title>
<path fill="none" stroke="midnightblue" d="M539.41,-51.45C521.32,-41.48 497.27,-28.23 481.71,-19.65"/>
<polygon fill="midnightblue" stroke="midnightblue" points="537.81,-54.56 548.25,-56.32 541.19,-48.43 537.81,-54.56"/>
</g>
<!-- Node18&#45;&gt;Node12 -->
<g id="edge21" class="edge">
<title>Node18&#45;&gt;Node12</title>
<path fill="none" stroke="midnightblue" d="M435.77,-336.04C320.22,-314.88 0,-331.75 0,-235 0,-235 0,-235 0,-121 0,-53.69 90.89,-26.8 146.28,-16.67"/>
<polygon fill="midnightblue" stroke="midnightblue" points="435.16,-339.49 445.66,-338.07 436.57,-332.63 435.16,-339.49"/>
</g>
<!-- Node18&#45;&gt;Node13 -->
<g id="edge48" class="edge">
<title>Node18&#45;&gt;Node13</title>
<path fill="none" stroke="midnightblue" d="M472,-326.25C472,-304.36 472,-267.05 472,-235 472,-235 472,-235 472,-121 472,-83.13 468.41,-38.04 466.78,-19.55"/>
<polygon fill="midnightblue" stroke="midnightblue" points="468.5,-326.44 472,-336.44 475.5,-326.44 468.5,-326.44"/>
</g>
<!-- Node19 -->
<g id="node19" class="node">
<title>Node19</title>
<g id="a_node19"><a xlink:href="container_8h.html" target="_top" xlink:title=" ">
<polygon fill="white" stroke="black" points="267,-280.5 267,-299.5 331,-299.5 331,-280.5 267,-280.5"/>
<text text-anchor="middle" x="299" y="-287.5" font-family="Helvetica,sans-Serif" font-size="10.00">container.h</text>
</a>
</g>
</g>
<!-- Node18&#45;&gt;Node19 -->
<g id="edge22" class="edge">
<title>Node18&#45;&gt;Node19</title>
<path fill="none" stroke="midnightblue" d="M436.11,-333.8C403.49,-323.61 356.04,-308.81 326.38,-299.55"/>
<polygon fill="midnightblue" stroke="midnightblue" points="435.14,-337.16 445.73,-336.8 437.22,-330.48 435.14,-337.16"/>
</g>
<!-- Node30 -->
<g id="node30" class="node">
<title>Node30</title>
<g id="a_node30"><a xlink:href="control_8h.html" target="_top" xlink:title=" ">
<polygon fill="white" stroke="black" points="606,-280.5 606,-299.5 660,-299.5 660,-280.5 606,-280.5"/>
<text text-anchor="middle" x="633" y="-287.5" font-family="Helvetica,sans-Serif" font-size="10.00">control.h</text>
</a>
</g>
</g>
<!-- Node18&#45;&gt;Node30 -->
<g id="edge36" class="edge">
<title>Node18&#45;&gt;Node30</title>
<path fill="none" stroke="midnightblue" d="M507.26,-333.17C537.58,-323 580.57,-308.59 607.61,-299.52"/>
<polygon fill="midnightblue" stroke="midnightblue" points="505.88,-329.95 497.51,-336.44 508.1,-336.58 505.88,-329.95"/>
</g>
<!-- Node36 -->
<g id="node36" class="node">
<title>Node36</title>
<g id="a_node36"><a xlink:href="parent_8cpp.html" target="_top" xlink:title=" ">
<polygon fill="white" stroke="black" points="382,-280.5 382,-299.5 444,-299.5 444,-280.5 382,-280.5"/>
<text text-anchor="middle" x="413" y="-287.5" font-family="Helvetica,sans-Serif" font-size="10.00">parent.cpp</text>
</a>
</g>
</g>
<!-- Node18&#45;&gt;Node36 -->
<g id="edge47" class="edge">
<title>Node18&#45;&gt;Node36</title>
<path fill="none" stroke="midnightblue" d="M455.11,-329.54C444.59,-319.91 431.43,-307.87 422.65,-299.83"/>
<polygon fill="midnightblue" stroke="midnightblue" points="452.78,-332.15 462.52,-336.32 457.51,-326.99 452.78,-332.15"/>
</g>
<!-- Node20 -->
<g id="node20" class="node">
<title>Node20</title>
<g id="a_node20"><a xlink:href="box__container_8h.html" target="_top" xlink:title=" ">
<polygon fill="white" stroke="black" points="355.5,-224.5 355.5,-243.5 440.5,-243.5 440.5,-224.5 355.5,-224.5"/>
<text text-anchor="middle" x="398" y="-231.5" font-family="Helvetica,sans-Serif" font-size="10.00">box_container.h</text>
</a>
</g>
</g>
<!-- Node19&#45;&gt;Node20 -->
<g id="edge23" class="edge">
<title>Node19&#45;&gt;Node20</title>
<path fill="none" stroke="midnightblue" d="M323.84,-275.45C342.11,-265.48 366.42,-252.23 382.13,-243.65"/>
<polygon fill="midnightblue" stroke="midnightblue" points="322.01,-272.46 314.91,-280.32 325.36,-278.61 322.01,-272.46"/>
</g>
<!-- Node23 -->
<g id="node23" class="node">
<title>Node23</title>
<g id="a_node23"><a xlink:href="container_8cpp.html" target="_top" xlink:title=" ">
<polygon fill="white" stroke="black" points="55,-224.5 55,-243.5 129,-243.5 129,-224.5 55,-224.5"/>
<text text-anchor="middle" x="92" y="-231.5" font-family="Helvetica,sans-Serif" font-size="10.00">container.cpp</text>
</a>
</g>
</g>
<!-- Node19&#45;&gt;Node23 -->
<g id="edge29" class="edge">
<title>Node19&#45;&gt;Node23</title>
<path fill="none" stroke="midnightblue" d="M256.65,-277.95C217.61,-267.77 160.47,-252.86 124.8,-243.56"/>
<polygon fill="midnightblue" stroke="midnightblue" points="256.1,-281.42 266.66,-280.56 257.86,-274.65 256.1,-281.42"/>
</g>
<!-- Node24 -->
<g id="node24" class="node">
<title>Node24</title>
<g id="a_node24"><a xlink:href="layered__container_8h.html" target="_top" xlink:title=" ">
<polygon fill="white" stroke="black" points="147.5,-224.5 147.5,-243.5 248.5,-243.5 248.5,-224.5 147.5,-224.5"/>
<text text-anchor="middle" x="198" y="-231.5" font-family="Helvetica,sans-Serif" font-size="10.00">layered_container.h</text>
</a>
</g>
</g>
<!-- Node19&#45;&gt;Node24 -->
<g id="edge30" class="edge">
<title>Node19&#45;&gt;Node24</title>
<path fill="none" stroke="midnightblue" d="M273.92,-275.59C255.24,-265.61 230.3,-252.27 214.19,-243.65"/>
<polygon fill="midnightblue" stroke="midnightblue" points="272.3,-278.7 282.77,-280.32 275.6,-272.52 272.3,-278.7"/>
</g>
<!-- Node28 -->
<g id="node28" class="node">
<title>Node28</title>
<g id="a_node28"><a xlink:href="tile__pane_8h.html" target="_top" xlink:title=" ">
<polygon fill="white" stroke="black" points="267,-224.5 267,-243.5 331,-243.5 331,-224.5 267,-224.5"/>
<text text-anchor="middle" x="299" y="-231.5" font-family="Helvetica,sans-Serif" font-size="10.00">tile_pane.h</text>
</a>
</g>
</g>
<!-- Node19&#45;&gt;Node28 -->
<g id="edge34" class="edge">
<title>Node19&#45;&gt;Node28</title>
<path fill="none" stroke="midnightblue" d="M299,-269.8C299,-260.91 299,-250.78 299,-243.75"/>
<polygon fill="midnightblue" stroke="midnightblue" points="295.5,-270.08 299,-280.08 302.5,-270.08 295.5,-270.08"/>
</g>
<!-- Node20&#45;&gt;Node8 -->
<g id="edge28" class="edge">
<title>Node20&#45;&gt;Node8</title>
<path fill="none" stroke="midnightblue" d="M450.84,-230.55C508.3,-226.52 602.08,-215.89 678,-188 694.1,-182.09 695.82,-175.98 711,-168 737.63,-154.01 769.48,-140.15 789.96,-131.58"/>
<polygon fill="midnightblue" stroke="midnightblue" points="450.29,-227.08 440.55,-231.23 450.76,-234.06 450.29,-227.08"/>
</g>
<!-- Node21 -->
<g id="node21" class="node">
<title>Node21</title>
<g id="a_node21"><a xlink:href="box__container_8cpp.html" target="_top" xlink:title=" ">
<polygon fill="white" stroke="black" points="348.5,-168.5 348.5,-187.5 443.5,-187.5 443.5,-168.5 348.5,-168.5"/>
<text text-anchor="middle" x="396" y="-175.5" font-family="Helvetica,sans-Serif" font-size="10.00">box_container.cpp</text>
</a>
</g>
</g>
<!-- Node20&#45;&gt;Node21 -->
<g id="edge24" class="edge">
<title>Node20&#45;&gt;Node21</title>
<path fill="none" stroke="midnightblue" d="M397.29,-213.8C396.96,-204.91 396.58,-194.78 396.32,-187.75"/>
<polygon fill="midnightblue" stroke="midnightblue" points="393.8,-214.22 397.67,-224.08 400.8,-213.96 393.8,-214.22"/>
</g>
<!-- Node22 -->
<g id="node22" class="node">
<title>Node22</title>
<g id="a_node22"><a xlink:href="context__menu_8h.html" target="_top" xlink:title=" ">
<polygon fill="white" stroke="black" points="500,-168.5 500,-187.5 586,-187.5 586,-168.5 500,-168.5"/>
<text text-anchor="middle" x="543" y="-175.5" font-family="Helvetica,sans-Serif" font-size="10.00">context_menu.h</text>
</a>
</g>
</g>
<!-- Node20&#45;&gt;Node22 -->
<g id="edge25" class="edge">
<title>Node20&#45;&gt;Node22</title>
<path fill="none" stroke="midnightblue" d="M430.48,-220.91C457.74,-210.75 495.99,-196.51 520.13,-187.52"/>
<polygon fill="midnightblue" stroke="midnightblue" points="429.13,-217.67 420.98,-224.44 431.57,-224.23 429.13,-217.67"/>
</g>
<!-- Node22&#45;&gt;Node7 -->
<g id="edge26" class="edge">
<title>Node22&#45;&gt;Node7</title>
<path fill="none" stroke="midnightblue" d="M535.98,-158.55C527.86,-134.35 517.04,-90.87 529,-56 534.01,-41.4 545.91,-27.88 554.44,-19.55"/>
<polygon fill="midnightblue" stroke="midnightblue" points="532.77,-159.97 539.43,-168.21 539.36,-157.62 532.77,-159.97"/>
</g>
<!-- Node22&#45;&gt;Node9 -->
<g id="edge27" class="edge">
<title>Node22&#45;&gt;Node9</title>
<path fill="none" stroke="midnightblue" d="M555.7,-159.86C562.63,-150.5 570.91,-139.33 576.52,-131.75"/>
<polygon fill="midnightblue" stroke="midnightblue" points="552.75,-157.96 549.61,-168.08 558.37,-162.13 552.75,-157.96"/>
</g>
<!-- Node25 -->
<g id="node25" class="node">
<title>Node25</title>
<g id="a_node25"><a xlink:href="anchor__pane_8h.html" target="_top" xlink:title=" ">
<polygon fill="white" stroke="black" points="158,-168.5 158,-187.5 238,-187.5 238,-168.5 158,-168.5"/>
<text text-anchor="middle" x="198" y="-175.5" font-family="Helvetica,sans-Serif" font-size="10.00">anchor_pane.h</text>
</a>
</g>
</g>
<!-- Node24&#45;&gt;Node25 -->
<g id="edge31" class="edge">
<title>Node24&#45;&gt;Node25</title>
<path fill="none" stroke="midnightblue" d="M198,-213.8C198,-204.91 198,-194.78 198,-187.75"/>
<polygon fill="midnightblue" stroke="midnightblue" points="194.5,-214.08 198,-224.08 201.5,-214.08 194.5,-214.08"/>
</g>
<!-- Node27 -->
<g id="node27" class="node">
<title>Node27</title>
<g id="a_node27"><a xlink:href="layered__container_8cpp.html" target="_top" xlink:title=" ">
<polygon fill="white" stroke="black" points="28.5,-168.5 28.5,-187.5 139.5,-187.5 139.5,-168.5 28.5,-168.5"/>
<text text-anchor="middle" x="84" y="-175.5" font-family="Helvetica,sans-Serif" font-size="10.00">layered_container.cpp</text>
</a>
</g>
</g>
<!-- Node24&#45;&gt;Node27 -->
<g id="edge33" class="edge">
<title>Node24&#45;&gt;Node27</title>
<path fill="none" stroke="midnightblue" d="M170.76,-220.1C149.46,-210.01 120.46,-196.27 101.98,-187.52"/>
<polygon fill="midnightblue" stroke="midnightblue" points="169.4,-223.33 179.94,-224.44 172.4,-217 169.4,-223.33"/>
</g>
<!-- Node26 -->
<g id="node26" class="node">
<title>Node26</title>
<g id="a_node26"><a xlink:href="anchor__pane_8cpp.html" target="_top" xlink:title=" ">
<polygon fill="white" stroke="black" points="152.5,-112.5 152.5,-131.5 243.5,-131.5 243.5,-112.5 152.5,-112.5"/>
<text text-anchor="middle" x="198" y="-119.5" font-family="Helvetica,sans-Serif" font-size="10.00">anchor_pane.cpp</text>
</a>
</g>
</g>
<!-- Node25&#45;&gt;Node26 -->
<g id="edge32" class="edge">
<title>Node25&#45;&gt;Node26</title>
<path fill="none" stroke="midnightblue" d="M198,-157.8C198,-148.91 198,-138.78 198,-131.75"/>
<polygon fill="midnightblue" stroke="midnightblue" points="194.5,-158.08 198,-168.08 201.5,-158.08 194.5,-158.08"/>
</g>
<!-- Node29 -->
<g id="node29" class="node">
<title>Node29</title>
<g id="a_node29"><a xlink:href="tile__pane_8cpp.html" target="_top" xlink:title=" ">
<polygon fill="white" stroke="black" points="256,-168.5 256,-187.5 330,-187.5 330,-168.5 256,-168.5"/>
<text text-anchor="middle" x="293" y="-175.5" font-family="Helvetica,sans-Serif" font-size="10.00">tile_pane.cpp</text>
</a>
</g>
</g>
<!-- Node28&#45;&gt;Node29 -->
<g id="edge35" class="edge">
<title>Node28&#45;&gt;Node29</title>
<path fill="none" stroke="midnightblue" d="M296.9,-214.1C295.9,-205.14 294.76,-194.86 293.97,-187.75"/>
<polygon fill="midnightblue" stroke="midnightblue" points="293.43,-214.53 298.01,-224.08 300.38,-213.76 293.43,-214.53"/>
</g>
<!-- Node30&#45;&gt;Node5 -->
<g id="edge37" class="edge">
<title>Node30&#45;&gt;Node5</title>
<path fill="none" stroke="midnightblue" d="M595.73,-281.29C558.42,-271.75 509.18,-253.13 529,-224 539.2,-209 586.38,-194.02 616.76,-185.69"/>
<polygon fill="midnightblue" stroke="midnightblue" points="595.33,-284.79 605.87,-283.74 596.97,-277.99 595.33,-284.79"/>
</g>
<!-- Node31 -->
<g id="node31" class="node">
<title>Node31</title>
<g id="a_node31"><a xlink:href="control_8cpp.html" target="_top" xlink:title=" ">
<polygon fill="white" stroke="black" points="674.5,-224.5 674.5,-243.5 739.5,-243.5 739.5,-224.5 674.5,-224.5"/>
<text text-anchor="middle" x="707" y="-231.5" font-family="Helvetica,sans-Serif" font-size="10.00">control.cpp</text>
</a>
</g>
</g>
<!-- Node30&#45;&gt;Node31 -->
<g id="edge38" class="edge">
<title>Node30&#45;&gt;Node31</title>
<path fill="none" stroke="midnightblue" d="M653.03,-274.38C666.41,-264.62 683.56,-252.11 694.89,-243.83"/>
<polygon fill="midnightblue" stroke="midnightblue" points="650.9,-271.6 644.89,-280.32 655.03,-277.26 650.9,-271.6"/>
</g>
<!-- Node32 -->
<g id="node32" class="node">
<title>Node32</title>
<g id="a_node32"><a xlink:href="label_8h.html" target="_top" xlink:title=" ">
<polygon fill="white" stroke="black" points="842.5,-224.5 842.5,-243.5 887.5,-243.5 887.5,-224.5 842.5,-224.5"/>
<text text-anchor="middle" x="865" y="-231.5" font-family="Helvetica,sans-Serif" font-size="10.00">label.h</text>
</a>
</g>
</g>
<!-- Node30&#45;&gt;Node32 -->
<g id="edge39" class="edge">
<title>Node30&#45;&gt;Node32</title>
<path fill="none" stroke="midnightblue" d="M670.19,-281.25C710.45,-272.71 776.5,-258.29 833,-244 836.02,-243.24 839.19,-242.39 842.31,-241.54"/>
<polygon fill="midnightblue" stroke="midnightblue" points="669.34,-277.85 660.28,-283.34 670.79,-284.7 669.34,-277.85"/>
</g>
<!-- Node33 -->
<g id="node33" class="node">
<title>Node33</title>
<g id="a_node33"><a xlink:href="scroll__bar_8h.html" target="_top" xlink:title=" ">
<polygon fill="white" stroke="black" points="758,-224.5 758,-243.5 824,-243.5 824,-224.5 758,-224.5"/>
<text text-anchor="middle" x="791" y="-231.5" font-family="Helvetica,sans-Serif" font-size="10.00">scroll_bar.h</text>
</a>
</g>
</g>
<!-- Node30&#45;&gt;Node33 -->
<g id="edge40" class="edge">
<title>Node30&#45;&gt;Node33</title>
<path fill="none" stroke="midnightblue" d="M667.61,-277.17C697.36,-267 739.55,-252.59 766.08,-243.52"/>
<polygon fill="midnightblue" stroke="midnightblue" points="666.37,-273.9 658.04,-280.44 668.63,-280.52 666.37,-273.9"/>
</g>
<!-- Node34 -->
<g id="node34" class="node">
<title>Node34</title>
<g id="a_node34"><a xlink:href="skin_8cpp.html" target="_top" xlink:title=" ">
<polygon fill="white" stroke="black" points="538.5,-224.5 538.5,-243.5 591.5,-243.5 591.5,-224.5 538.5,-224.5"/>
<text text-anchor="middle" x="565" y="-231.5" font-family="Helvetica,sans-Serif" font-size="10.00">skin.cpp</text>
</a>
</g>
</g>
<!-- Node30&#45;&gt;Node34 -->
<g id="edge43" class="edge">
<title>Node30&#45;&gt;Node34</title>
<path fill="none" stroke="midnightblue" d="M614.24,-274.1C602,-264.38 586.44,-252.03 576.12,-243.83"/>
<polygon fill="midnightblue" stroke="midnightblue" points="612.07,-276.85 622.07,-280.32 616.42,-271.36 612.07,-276.85"/>
</g>
<!-- Node35 -->
<g id="node35" class="node">
<title>Node35</title>
<g id="a_node35"><a xlink:href="slider_8h.html" target="_top" xlink:title=" ">
<polygon fill="white" stroke="black" points="609.5,-224.5 609.5,-243.5 656.5,-243.5 656.5,-224.5 609.5,-224.5"/>
<text text-anchor="middle" x="633" y="-231.5" font-family="Helvetica,sans-Serif" font-size="10.00">slider.h</text>
</a>
</g>
</g>
<!-- Node30&#45;&gt;Node35 -->
<g id="edge44" class="edge">
<title>Node30&#45;&gt;Node35</title>
<path fill="none" stroke="midnightblue" d="M633,-269.8C633,-260.91 633,-250.78 633,-243.75"/>
<polygon fill="midnightblue" stroke="midnightblue" points="629.5,-270.08 633,-280.08 636.5,-270.08 629.5,-270.08"/>
</g>
<!-- Node33&#45;&gt;Node8 -->
<g id="edge41" class="edge">
<title>Node33&#45;&gt;Node8</title>
<path fill="none" stroke="midnightblue" d="M809.58,-217.32C817.48,-209.44 825.83,-199.19 830,-188 837.4,-168.17 825,-144.09 816.99,-131.54"/>
<polygon fill="midnightblue" stroke="midnightblue" points="806.94,-215 801.99,-224.37 811.7,-220.13 806.94,-215"/>
</g>
<!-- Node33&#45;&gt;Node14 -->
<g id="edge42" class="edge">
<title>Node33&#45;&gt;Node14</title>
<path fill="none" stroke="midnightblue" d="M822.48,-220.77C848.59,-210.63 885.04,-196.47 908.08,-187.52"/>
<polygon fill="midnightblue" stroke="midnightblue" points="821.08,-217.56 813.02,-224.44 823.61,-224.08 821.08,-217.56"/>
</g>
<!-- Node35&#45;&gt;Node8 -->
<g id="edge45" class="edge">
<title>Node35&#45;&gt;Node8</title>
<path fill="none" stroke="midnightblue" d="M657.32,-219.41C672.81,-210.64 693.23,-198.89 711,-188 742.78,-168.52 779.31,-144.3 798.19,-131.64"/>
<polygon fill="midnightblue" stroke="midnightblue" points="655.38,-216.48 648.39,-224.44 658.82,-222.58 655.38,-216.48"/>
</g>
<!-- Node35&#45;&gt;Node15 -->
<g id="edge46" class="edge">
<title>Node35&#45;&gt;Node15</title>
<path fill="none" stroke="midnightblue" d="M666.4,-221.66C696.33,-211.49 739.57,-196.8 766.72,-187.59"/>
<polygon fill="midnightblue" stroke="midnightblue" points="665.15,-218.39 656.8,-224.92 667.4,-225.01 665.15,-218.39"/>
</g>
<!-- Node38 -->
<g id="node38" class="node">
<title>Node38</title>
<g id="a_node38"><a xlink:href="circle_8h.html" target="_top" xlink:title=" ">
<polygon fill="white" stroke="black" points="917,-280.5 917,-299.5 965,-299.5 965,-280.5 917,-280.5"/>
<text text-anchor="middle" x="941" y="-287.5" font-family="Helvetica,sans-Serif" font-size="10.00">circle.h</text>
</a>
</g>
</g>
<!-- Node37&#45;&gt;Node38 -->
<g id="edge50" class="edge">
<title>Node37&#45;&gt;Node38</title>
<path fill="none" stroke="midnightblue" d="M996.42,-330.38C982.69,-320.62 965.07,-308.11 953.43,-299.83"/>
<polygon fill="midnightblue" stroke="midnightblue" points="994.61,-333.38 1004.79,-336.32 998.66,-327.68 994.61,-333.38"/>
</g>
<!-- Node40 -->
<g id="node40" class="node">
<title>Node40</title>
<g id="a_node40"><a xlink:href="rectangle_8h.html" target="_top" xlink:title=" ">
<polygon fill="white" stroke="black" points="1055.5,-280.5 1055.5,-299.5 1120.5,-299.5 1120.5,-280.5 1055.5,-280.5"/>
<text text-anchor="middle" x="1088" y="-287.5" font-family="Helvetica,sans-Serif" font-size="10.00">rectangle.h</text>
</a>
</g>
</g>
<!-- Node37&#45;&gt;Node40 -->
<g id="edge52" class="edge">
<title>Node37&#45;&gt;Node40</title>
<path fill="none" stroke="midnightblue" d="M1036.59,-330.1C1049.37,-320.38 1065.61,-308.03 1076.39,-299.83"/>
<polygon fill="midnightblue" stroke="midnightblue" points="1034.25,-327.48 1028.41,-336.32 1038.49,-333.06 1034.25,-327.48"/>
</g>
<!-- Node42 -->
<g id="node42" class="node">
<title>Node42</title>
<g id="a_node42"><a xlink:href="shape_8cpp.html" target="_top" xlink:title=" ">
<polygon fill="white" stroke="black" points="1139,-280.5 1139,-299.5 1201,-299.5 1201,-280.5 1139,-280.5"/>
<text text-anchor="middle" x="1170" y="-287.5" font-family="Helvetica,sans-Serif" font-size="10.00">shape.cpp</text>
</a>
</g>
</g>
<!-- Node37&#45;&gt;Node42 -->
<g id="edge55" class="edge">
<title>Node37&#45;&gt;Node42</title>
<path fill="none" stroke="midnightblue" d="M1050.89,-333.04C1079.68,-322.88 1120.29,-308.55 1145.87,-299.52"/>
<polygon fill="midnightblue" stroke="midnightblue" points="1049.51,-329.81 1041.24,-336.44 1051.84,-336.42 1049.51,-329.81"/>
</g>
<!-- Node43 -->
<g id="node43" class="node">
<title>Node43</title>
<g id="a_node43"><a xlink:href="text_8h.html" target="_top" xlink:title=" ">
<polygon fill="white" stroke="black" points="996.5,-280.5 996.5,-299.5 1037.5,-299.5 1037.5,-280.5 996.5,-280.5"/>
<text text-anchor="middle" x="1017" y="-287.5" font-family="Helvetica,sans-Serif" font-size="10.00">text.h</text>
</a>
</g>
</g>
<!-- Node37&#45;&gt;Node43 -->
<g id="edge56" class="edge">
<title>Node37&#45;&gt;Node43</title>
<path fill="none" stroke="midnightblue" d="M1017,-325.8C1017,-316.91 1017,-306.78 1017,-299.75"/>
<polygon fill="midnightblue" stroke="midnightblue" points="1013.5,-326.08 1017,-336.08 1020.5,-326.08 1013.5,-326.08"/>
</g>
<!-- Node39 -->
<g id="node39" class="node">
<title>Node39</title>
<g id="a_node39"><a xlink:href="circle_8cpp.html" target="_top" xlink:title=" ">
<polygon fill="white" stroke="black" points="905.5,-224.5 905.5,-243.5 964.5,-243.5 964.5,-224.5 905.5,-224.5"/>
<text text-anchor="middle" x="935" y="-231.5" font-family="Helvetica,sans-Serif" font-size="10.00">circle.cpp</text>
</a>
</g>
</g>
<!-- Node38&#45;&gt;Node39 -->
<g id="edge51" class="edge">
<title>Node38&#45;&gt;Node39</title>
<path fill="none" stroke="midnightblue" d="M938.9,-270.1C937.9,-261.14 936.76,-250.86 935.97,-243.75"/>
<polygon fill="midnightblue" stroke="midnightblue" points="935.43,-270.53 940.01,-280.08 942.38,-269.76 935.43,-270.53"/>
</g>
<!-- Node40&#45;&gt;Node4 -->
<g id="edge53" class="edge">
<title>Node40&#45;&gt;Node4</title>
<path fill="none" stroke="midnightblue" d="M1070.01,-273.82C1058.54,-264.15 1044.09,-251.95 1034.47,-243.83"/>
<polygon fill="midnightblue" stroke="midnightblue" points="1067.82,-276.55 1077.72,-280.32 1072.33,-271.2 1067.82,-276.55"/>
</g>
<!-- Node41 -->
<g id="node41" class="node">
<title>Node41</title>
<g id="a_node41"><a xlink:href="rectangle_8cpp.html" target="_top" xlink:title=" ">
<polygon fill="white" stroke="black" points="1122.5,-224.5 1122.5,-243.5 1197.5,-243.5 1197.5,-224.5 1122.5,-224.5"/>
<text text-anchor="middle" x="1160" y="-231.5" font-family="Helvetica,sans-Serif" font-size="10.00">rectangle.cpp</text>
</a>
</g>
</g>
<!-- Node40&#45;&gt;Node41 -->
<g id="edge54" class="edge">
<title>Node40&#45;&gt;Node41</title>
<path fill="none" stroke="midnightblue" d="M1107.87,-274.1C1120.82,-264.38 1137.3,-252.03 1148.22,-243.83"/>
<polygon fill="midnightblue" stroke="midnightblue" points="1105.47,-271.52 1099.57,-280.32 1109.67,-277.12 1105.47,-271.52"/>
</g>
<!-- Node43&#45;&gt;Node4 -->
<g id="edge57" class="edge">
<title>Node43&#45;&gt;Node4</title>
<path fill="none" stroke="midnightblue" d="M1019.45,-270.1C1020.61,-261.14 1021.94,-250.86 1022.87,-243.75"/>
<polygon fill="midnightblue" stroke="midnightblue" points="1015.97,-269.72 1018.16,-280.08 1022.91,-270.62 1015.97,-269.72"/>
</g>
<!-- Node43&#45;&gt;Node16 -->
<g id="edge58" class="edge">
<title>Node43&#45;&gt;Node16</title>
<path fill="none" stroke="midnightblue" d="M1043.67,-275.22C1055.25,-267.7 1067.6,-257.2 1074,-244 1082.98,-225.46 1076.67,-200.43 1072.26,-187.51"/>
<polygon fill="midnightblue" stroke="midnightblue" points="1041.84,-272.23 1035.08,-280.39 1045.45,-278.23 1041.84,-272.23"/>
</g>
</g>
</svg>
        <g id="navigator" transform="translate(0 0)" fill="#404254">
                <rect fill="#f2f5e9" fill-opacity="0.5" stroke="#606060" stroke-width=".5" x="0" y="0" width="60" height="60"/>
                <use id="zoomplus" xlink:href="#zoomPlus" x="17" y="9" onmousedown="handleZoom(evt,'in')"/>
                <use id="zoomminus" xlink:href="#zoomMin" x="42" y="9" onmousedown="handleZoom(evt,'out')"/>
                <use id="reset" xlink:href="#resetDef" x="30" y="36" onmousedown="handleReset()"/>
                <g id="arrowUp" xlink:href="#dirArrow" transform="translate(30 24)" onmousedown="handlePan(0,-1)">
                  <use xlink:href="#rim" fill="#404040">
                        <set attributeName="fill" to="#808080" begin="arrowUp.mouseover" end="arrowUp.mouseout"/>
                  </use>
                  <path fill="none" stroke="white" stroke-width="1.5" d="M0,-3.0v7 M-2.5,-0.5L0,-3.0L2.5,-0.5"/>
                </g>
                <g id="arrowRight" xlink:href="#dirArrow" transform="rotate(90) translate(36 -43)" onmousedown="handlePan(1,0)">
                  <use xlink:href="#rim" fill="#404040">
                        <set attributeName="fill" to="#808080" begin="arrowRight.mouseover" end="arrowRight.mouseout"/>
                  </use>
                  <path fill="none" stroke="white" stroke-width="1.5" d="M0,-3.0v7 M-2.5,-0.5L0,-3.0L2.5,-0.5"/>
                </g>
                <g id="arrowDown" xlink:href="#dirArrow" transform="rotate(180) translate(-30 -48)" onmousedown="handlePan(0,1)">
                  <use xlink:href="#rim" fill="#404040">
                        <set attributeName="fill" to="#808080" begin="arrowDown.mouseover" end="arrowDown.mouseout"/>
                  </use>
                  <path fill="none" stroke="white" stroke-width="1.5" d="M0,-3.0v7 M-2.5,-0.5L0,-3.0L2.5,-0.5"/>
                </g>
                <g id="arrowLeft" xlink:href="#dirArrow" transform="rotate(270) translate(-36 17)" onmousedown="handlePan(-1,0)">
                  <use xlink:href="#rim" fill="#404040">
                        <set attributeName="fill" to="#808080" begin="arrowLeft.mouseover" end="arrowLeft.mouseout"/>
                  </use>
                  <path fill="none" stroke="white" stroke-width="1.5" d="M0,-3.0v7 M-2.5,-0.5L0,-3.0L2.5,-0.5"/>
                </g>
        </g>
        <svg viewBox="0 0 15 15" width="100%" height="30px" preserveAspectRatio="xMaxYMin meet">
         <g id="arrow_out" transform="scale(0.3 0.3)">
          <a xlink:href="component_8h__dep__incl_org.svg" target="_base">
           <rect id="button" ry="5" rx="5" y="6" x="6" height="38" width="38"
                fill="#f2f5e9" fill-opacity="0.5" stroke="#606060" stroke-width="1.0"/>
           <path id="arrow"
             d="M 11.500037,31.436501 C 11.940474,20.09759 22.043105,11.32322 32.158766,21.979434 L 37.068811,17.246167 C 37.068811,17.246167 37.088388,32 37.088388,32 L 22.160133,31.978069 C 22.160133,31.978069 26.997745,27.140456 26.997745,27.140456 C 18.528582,18.264221 13.291696,25.230495 11.500037,31.436501 z"
             style="fill:#404040;"/>
          </a>
         </g>
        </svg>
</svg>
