<?xml version="1.0" encoding="UTF-8" standalone="no"?>
<!DOCTYPE svg PUBLIC "-//W3C//DTD SVG 1.1//EN"
 "http://www.w3.org/Graphics/SVG/1.1/DTD/svg11.dtd">
<!-- Generated by graphviz version 2.50.0 (20211204.2007)
 -->
<!-- Title: component.h Pages: 1 -->
<svg width="698pt" height="218pt"
 viewBox="0.00 0.00 698.00 218.00" xmlns="http://www.w3.org/2000/svg" xmlns:xlink="http://www.w3.org/1999/xlink">
<g id="graph0" class="graph" transform="scale(1 1) rotate(0) translate(4 214)">
<title>component.h</title>
<polygon fill="white" stroke="transparent" points="-4,4 -4,-214 694,-214 694,4 -4,4"/>
<!-- Node1 -->
<g id="node1" class="node">
<title>Node1</title>
<g id="a_node1"><a xlink:title=" ">
<polygon fill="#bfbfbf" stroke="black" points="287.5,-190.5 287.5,-209.5 360.5,-209.5 360.5,-190.5 287.5,-190.5"/>
<text text-anchor="middle" x="324" y="-197.5" font-family="Helvetica,sans-Serif" font-size="10.00">component.h</text>
</a>
</g>
</g>
<!-- Node2 -->
<g id="node2" class="node">
<title>Node2</title>
<g id="a_node2"><a xlink:title=" ">
<polygon fill="white" stroke="#bfbfbf" points="116,-129 116,-148 256,-148 256,-129 116,-129"/>
<text text-anchor="middle" x="186" y="-136" font-family="Helvetica,sans-Serif" font-size="10.00">sml/sml_graphics_wrapper.h</text>
</a>
</g>
</g>
<!-- Node1&#45;&gt;Node2 -->
<g id="edge1" class="edge">
<title>Node1&#45;&gt;Node2</title>
<path fill="none" stroke="midnightblue" d="M304.23,-190.48C280.86,-180.4 241.79,-163.55 215,-152"/>
<polygon fill="midnightblue" stroke="midnightblue" points="216.3,-148.75 205.74,-148.01 213.53,-155.18 216.3,-148.75"/>
</g>
<!-- Node3 -->
<g id="node3" class="node">
<title>Node3</title>
<g id="a_node3"><a xlink:href="gui__event__dispatching_8h.html" target="_top" xlink:title=" ">
<polygon fill="white" stroke="black" points="274,-123.5 274,-153.5 374,-153.5 374,-123.5 274,-123.5"/>
<text text-anchor="start" x="282" y="-141.5" font-family="Helvetica,sans-Serif" font-size="10.00">../events/gui_event</text>
<text text-anchor="middle" x="324" y="-130.5" font-family="Helvetica,sans-Serif" font-size="10.00">_dispatching.h</text>
</a>
</g>
</g>
<!-- Node1&#45;&gt;Node3 -->
<g id="edge2" class="edge">
<title>Node1&#45;&gt;Node3</title>
<path fill="none" stroke="midnightblue" d="M324,-190.48C324,-183.47 324,-173.19 324,-163.7"/>
<polygon fill="midnightblue" stroke="midnightblue" points="327.5,-163.52 324,-153.52 320.5,-163.52 327.5,-163.52"/>
</g>
<!-- Node11 -->
<g id="node11" class="node">
<title>Node11</title>
<g id="a_node11"><a xlink:href="shadow_8h.html" target="_top" xlink:title=" ">
<polygon fill="white" stroke="black" points="473,-129 473,-148 563,-148 563,-129 473,-129"/>
<text text-anchor="middle" x="518" y="-136" font-family="Helvetica,sans-Serif" font-size="10.00">../paint/shadow.h</text>
</a>
</g>
</g>
<!-- Node1&#45;&gt;Node11 -->
<g id="edge11" class="edge">
<title>Node1&#45;&gt;Node11</title>
<path fill="none" stroke="midnightblue" d="M351.8,-190.48C385.65,-180.09 442.97,-162.51 480.65,-150.95"/>
<polygon fill="midnightblue" stroke="midnightblue" points="481.72,-154.29 490.26,-148.01 479.67,-147.6 481.72,-154.29"/>
</g>
<!-- Node4 -->
<g id="node4" class="node">
<title>Node4</title>
<g id="a_node4"><a xlink:title=" ">
<polygon fill="white" stroke="#bfbfbf" points="0,-62 0,-81 44,-81 44,-62 0,-62"/>
<text text-anchor="middle" x="22" y="-69" font-family="Helvetica,sans-Serif" font-size="10.00">vector</text>
</a>
</g>
</g>
<!-- Node3&#45;&gt;Node4 -->
<g id="edge3" class="edge">
<title>Node3&#45;&gt;Node4</title>
<path fill="none" stroke="midnightblue" d="M273.84,-124.91C270.86,-124.24 267.89,-123.6 265,-123 171.42,-103.58 144.22,-115.5 53,-87 51.13,-86.42 49.22,-85.74 47.33,-85.01"/>
<polygon fill="midnightblue" stroke="midnightblue" points="48.65,-81.77 38.08,-81.02 45.88,-88.2 48.65,-81.77"/>
</g>
<!-- Node5 -->
<g id="node5" class="node">
<title>Node5</title>
<g id="a_node5"><a xlink:title=" ">
<polygon fill="white" stroke="#bfbfbf" points="62.5,-62 62.5,-81 217.5,-81 217.5,-62 62.5,-62"/>
<text text-anchor="middle" x="140" y="-69" font-family="Helvetica,sans-Serif" font-size="10.00">sml/events/event_dispatching.h</text>
</a>
</g>
</g>
<!-- Node3&#45;&gt;Node5 -->
<g id="edge4" class="edge">
<title>Node3&#45;&gt;Node5</title>
<path fill="none" stroke="midnightblue" d="M284.07,-123.4C251.08,-111.74 204.75,-95.37 173.62,-84.38"/>
<polygon fill="midnightblue" stroke="midnightblue" points="174.68,-81.04 164.08,-81.01 172.34,-87.64 174.68,-81.04"/>
</g>
<!-- Node6 -->
<g id="node6" class="node">
<title>Node6</title>
<g id="a_node6"><a xlink:title=" ">
<polygon fill="white" stroke="#bfbfbf" points="235.5,-56.5 235.5,-86.5 334.5,-86.5 334.5,-56.5 235.5,-56.5"/>
<text text-anchor="start" x="243.5" y="-74.5" font-family="Helvetica,sans-Serif" font-size="10.00">sml/events/listener</text>
<text text-anchor="middle" x="285" y="-63.5" font-family="Helvetica,sans-Serif" font-size="10.00">_notifier.h</text>
</a>
</g>
</g>
<!-- Node3&#45;&gt;Node6 -->
<g id="edge5" class="edge">
<title>Node3&#45;&gt;Node6</title>
<path fill="none" stroke="midnightblue" d="M315.54,-123.4C310.63,-115.22 304.34,-104.73 298.74,-95.39"/>
<polygon fill="midnightblue" stroke="midnightblue" points="301.59,-93.35 293.45,-86.58 295.59,-96.95 301.59,-93.35"/>
</g>
<!-- Node7 -->
<g id="node7" class="node">
<title>Node7</title>
<g id="a_node7"><a xlink:title=" ">
<polygon fill="white" stroke="#bfbfbf" points="252.5,-0.5 252.5,-19.5 395.5,-19.5 395.5,-0.5 252.5,-0.5"/>
<text text-anchor="middle" x="324" y="-7.5" font-family="Helvetica,sans-Serif" font-size="10.00">sml/events/system_events.h</text>
</a>
</g>
</g>
<!-- Node3&#45;&gt;Node7 -->
<g id="edge6" class="edge">
<title>Node3&#45;&gt;Node7</title>
<path fill="none" stroke="midnightblue" d="M330.91,-123.31C335.35,-113.4 340.69,-99.72 343,-87 345.47,-73.44 345.73,-69.5 343,-56 341.11,-46.65 337.21,-36.83 333.43,-28.75"/>
<polygon fill="midnightblue" stroke="midnightblue" points="336.47,-27.01 328.88,-19.63 330.21,-30.14 336.47,-27.01"/>
</g>
<!-- Node8 -->
<g id="node8" class="node">
<title>Node8</title>
<g id="a_node8"><a xlink:href="gui__event_8h.html" target="_top" xlink:title=" ">
<polygon fill="white" stroke="black" points="391.5,-62 391.5,-81 458.5,-81 458.5,-62 391.5,-62"/>
<text text-anchor="middle" x="425" y="-69" font-family="Helvetica,sans-Serif" font-size="10.00">gui_event.h</text>
</a>
</g>
</g>
<!-- Node3&#45;&gt;Node8 -->
<g id="edge7" class="edge">
<title>Node3&#45;&gt;Node8</title>
<path fill="none" stroke="midnightblue" d="M345.92,-123.4C362.85,-112.5 386.19,-97.48 403.12,-86.58"/>
<polygon fill="midnightblue" stroke="midnightblue" points="405.27,-89.36 411.78,-81.01 401.48,-83.48 405.27,-89.36"/>
</g>
<!-- Node8&#45;&gt;Node7 -->
<g id="edge9" class="edge">
<title>Node8&#45;&gt;Node7</title>
<path fill="none" stroke="midnightblue" d="M410.53,-61.98C394.03,-52.25 366.82,-36.23 347.32,-24.74"/>
<polygon fill="midnightblue" stroke="midnightblue" points="348.84,-21.57 338.44,-19.51 345.28,-27.6 348.84,-21.57"/>
</g>
<!-- Node9 -->
<g id="node9" class="node">
<title>Node9</title>
<g id="a_node9"><a xlink:title=" ">
<polygon fill="white" stroke="#bfbfbf" points="414,-0.5 414,-19.5 514,-19.5 514,-0.5 414,-0.5"/>
<text text-anchor="middle" x="464" y="-7.5" font-family="Helvetica,sans-Serif" font-size="10.00">sml/events/event.h</text>
</a>
</g>
</g>
<!-- Node8&#45;&gt;Node9 -->
<g id="edge8" class="edge">
<title>Node8&#45;&gt;Node9</title>
<path fill="none" stroke="midnightblue" d="M430.59,-61.98C436.38,-53.14 445.59,-39.09 452.87,-27.98"/>
<polygon fill="midnightblue" stroke="midnightblue" points="455.87,-29.79 458.42,-19.51 450.01,-25.95 455.87,-29.79"/>
</g>
<!-- Node10 -->
<g id="node10" class="node">
<title>Node10</title>
<g id="a_node10"><a xlink:title=" ">
<polygon fill="white" stroke="#bfbfbf" points="532.5,-0.5 532.5,-19.5 609.5,-19.5 609.5,-0.5 532.5,-0.5"/>
<text text-anchor="middle" x="571" y="-7.5" font-family="Helvetica,sans-Serif" font-size="10.00">sml/sml_log.h</text>
</a>
</g>
</g>
<!-- Node8&#45;&gt;Node10 -->
<g id="edge10" class="edge">
<title>Node8&#45;&gt;Node10</title>
<path fill="none" stroke="midnightblue" d="M445.92,-61.98C470.75,-51.86 512.34,-34.9 540.69,-23.35"/>
<polygon fill="midnightblue" stroke="midnightblue" points="542.18,-26.52 550.12,-19.51 539.54,-20.04 542.18,-26.52"/>
</g>
<!-- Node12 -->
<g id="node12" class="node">
<title>Node12</title>
<g id="a_node12"><a xlink:title=" ">
<polygon fill="white" stroke="#bfbfbf" points="476.5,-62 476.5,-81 559.5,-81 559.5,-62 476.5,-62"/>
<text text-anchor="middle" x="518" y="-69" font-family="Helvetica,sans-Serif" font-size="10.00">sml/math/blur.h</text>
</a>
</g>
</g>
<!-- Node11&#45;&gt;Node12 -->
<g id="edge12" class="edge">
<title>Node11&#45;&gt;Node12</title>
<path fill="none" stroke="midnightblue" d="M518,-128.73C518,-119.18 518,-103.62 518,-91.28"/>
<polygon fill="midnightblue" stroke="midnightblue" points="521.5,-91.13 518,-81.13 514.5,-91.13 521.5,-91.13"/>
</g>
<!-- Node13 -->
<g id="node13" class="node">
<title>Node13</title>
<g id="a_node13"><a xlink:title=" ">
<polygon fill="white" stroke="#bfbfbf" points="578,-56.5 578,-86.5 690,-86.5 690,-56.5 578,-56.5"/>
<text text-anchor="start" x="586" y="-74.5" font-family="Helvetica,sans-Serif" font-size="10.00">sml/graphics_wrapper</text>
<text text-anchor="middle" x="634" y="-63.5" font-family="Helvetica,sans-Serif" font-size="10.00">/texture.h</text>
</a>
</g>
</g>
<!-- Node11&#45;&gt;Node13 -->
<g id="edge13" class="edge">
<title>Node11&#45;&gt;Node13</title>
<path fill="none" stroke="midnightblue" d="M533.64,-128.73C550.53,-119.27 577.94,-103.91 599.85,-91.64"/>
<polygon fill="midnightblue" stroke="midnightblue" points="601.84,-94.53 608.86,-86.59 598.42,-88.42 601.84,-94.53"/>
</g>
</g>
</svg>
