<?xml version="1.0" encoding="UTF-8" standalone="no"?>
<!DOCTYPE svg PUBLIC "-//W3C//DTD SVG 1.1//EN"
 "http://www.w3.org/Graphics/SVG/1.1/DTD/svg11.dtd">
<!-- Generated by graphviz version 2.50.0 (20211204.2007)
 -->
<!-- Title: component.h Pages: 1 -->
<!--zoomable 420 -->
<svg id="main" version="1.1" xmlns="http://www.w3.org/2000/svg" xmlns:xlink="http://www.w3.org/1999/xlink" xml:space="preserve" onload="init(evt)">
<style type="text/css"><![CDATA[
.edge:hover path { stroke: red; }
.edge:hover polygon { stroke: red; fill: red; }
]]></style>
<script type="text/javascript"><![CDATA[
var edges = document.getElementsByTagName('g');
if (edges && edges.length) {
  for (var i=0;i<edges.length;i++) {
    if (edges[i].id.substr(0,4)=='edge') {
      edges[i].setAttribute('class','edge');
    }
  }
}
]]></script>
        <defs>
                <circle id="rim" cx="0" cy="0" r="7"/>
                <circle id="rim2" cx="0" cy="0" r="3.5"/>
                <g id="zoomPlus">
                        <use xlink:href="#rim" fill="#404040">
                                <set attributeName="fill" to="#808080" begin="zoomplus.mouseover" end="zoomplus.mouseout"/>
                        </use>
                        <path d="M-4,0h8M0,-4v8" fill="none" stroke="white" stroke-width="1.5" pointer-events="none"/>
                </g>
                <g id="zoomMin">
                        <use xlink:href="#rim" fill="#404040">
                                <set attributeName="fill" to="#808080" begin="zoomminus.mouseover" end="zoomminus.mouseout"/>
                        </use>
                        <path d="M-4,0h8" fill="none" stroke="white" stroke-width="1.5" pointer-events="none"/>
                </g>
                <g id="dirArrow">
                        <path fill="none" stroke="white" stroke-width="1.5" d="M0,-3.0v7 M-2.5,-0.5L0,-3.0L2.5,-0.5"/>
                </g>
               <g id="resetDef">
                       <use xlink:href="#rim2" fill="#404040">
                               <set attributeName="fill" to="#808080" begin="reset.mouseover" end="reset.mouseout"/>
                       </use>
               </g>
        </defs>

<script type="text/javascript">
var viewWidth = 1321;
var viewHeight = 420;
var sectionId = 'dynsection-1';
</script>
<script xlink:href="svgpan.js"/>
<svg id="graph" class="graph">
<g id="viewport">
<title>component.h</title>
<polygon fill="white" stroke="transparent" points="-4,4 -4,-416 1316.5,-416 1316.5,4 -4,4"/>
<!-- Node1 -->
<g id="node1" class="node">
<title>Node1</title>
<g id="a_node1"><a xlink:title=" ">
<polygon fill="#bfbfbf" stroke="black" points="613.5,-392.5 613.5,-411.5 686.5,-411.5 686.5,-392.5 613.5,-392.5"/>
<text text-anchor="middle" x="650" y="-399.5" font-family="Helvetica,sans-Serif" font-size="10.00">component.h</text>
</a>
</g>
</g>
<!-- Node2 -->
<g id="node2" class="node">
<title>Node2</title>
<g id="a_node2"><a xlink:href="gui__event__dispatching_8cpp.html" target="_top" xlink:title=" ">
<polygon fill="white" stroke="black" points="337,-336.5 337,-355.5 469,-355.5 469,-336.5 337,-336.5"/>
<text text-anchor="middle" x="403" y="-343.5" font-family="Helvetica,sans-Serif" font-size="10.00">gui_event_dispatching.cpp</text>
</a>
</g>
</g>
<!-- Node1&#45;&gt;Node2 -->
<g id="edge1" class="edge">
<title>Node1&#45;&gt;Node2</title>
<path fill="none" stroke="midnightblue" d="M603.43,-390.82C556.76,-380.61 485.73,-365.09 441.95,-355.52"/>
<polygon fill="midnightblue" stroke="midnightblue" points="602.77,-394.26 613.29,-392.97 604.27,-387.42 602.77,-394.26"/>
</g>
<!-- Node3 -->
<g id="node3" class="node">
<title>Node3</title>
<g id="a_node3"><a xlink:href="image__view_8h.html" target="_top" xlink:title=" ">
<polygon fill="white" stroke="black" points="773.5,-336.5 773.5,-355.5 848.5,-355.5 848.5,-336.5 773.5,-336.5"/>
<text text-anchor="middle" x="811" y="-343.5" font-family="Helvetica,sans-Serif" font-size="10.00">image_view.h</text>
</a>
</g>
</g>
<!-- Node1&#45;&gt;Node3 -->
<g id="edge2" class="edge">
<title>Node1&#45;&gt;Node3</title>
<path fill="none" stroke="midnightblue" d="M685.26,-389.17C715.58,-379 758.57,-364.59 785.61,-355.52"/>
<polygon fill="midnightblue" stroke="midnightblue" points="683.88,-385.95 675.51,-392.44 686.1,-392.58 683.88,-385.95"/>
</g>
<!-- Node19 -->
<g id="node19" class="node">
<title>Node19</title>
<g id="a_node19"><a xlink:href="parent_8h.html" target="_top" xlink:title=" ">
<polygon fill="white" stroke="black" points="487,-336.5 487,-355.5 539,-355.5 539,-336.5 487,-336.5"/>
<text text-anchor="middle" x="513" y="-343.5" font-family="Helvetica,sans-Serif" font-size="10.00">parent.h</text>
</a>
</g>
</g>
<!-- Node1&#45;&gt;Node19 -->
<g id="edge21" class="edge">
<title>Node1&#45;&gt;Node19</title>
<path fill="none" stroke="midnightblue" d="M618.98,-388.77C593.24,-378.63 557.31,-364.47 534.61,-355.52"/>
<polygon fill="midnightblue" stroke="midnightblue" points="617.71,-392.03 628.29,-392.44 620.27,-385.52 617.71,-392.03"/>
</g>
<!-- Node39 -->
<g id="node39" class="node">
<title>Node39</title>
<g id="a_node39"><a xlink:href="shape_8h.html" target="_top" xlink:title=" ">
<polygon fill="white" stroke="black" points="1061.5,-336.5 1061.5,-355.5 1112.5,-355.5 1112.5,-336.5 1061.5,-336.5"/>
<text text-anchor="middle" x="1087" y="-343.5" font-family="Helvetica,sans-Serif" font-size="10.00">shape.h</text>
</a>
</g>
</g>
<!-- Node1&#45;&gt;Node39 -->
<g id="edge53" class="edge">
<title>Node1&#45;&gt;Node39</title>
<path fill="none" stroke="midnightblue" d="M696.63,-395.24C788.51,-383.88 990.22,-358.96 1061.46,-350.16"/>
<polygon fill="midnightblue" stroke="midnightblue" points="696,-391.79 686.51,-396.49 696.86,-398.74 696,-391.79"/>
</g>
<!-- Node4 -->
<g id="node4" class="node">
<title>Node4</title>
<g id="a_node4"><a xlink:href="default__skins_8h.html" target="_top" xlink:title=" ">
<polygon fill="white" stroke="black" points="936.5,-224.5 936.5,-243.5 1019.5,-243.5 1019.5,-224.5 936.5,-224.5"/>
<text text-anchor="middle" x="978" y="-231.5" font-family="Helvetica,sans-Serif" font-size="10.00">default_skins.h</text>
</a>
</g>
</g>
<!-- Node3&#45;&gt;Node4 -->
<g id="edge3" class="edge">
<title>Node3&#45;&gt;Node4</title>
<path fill="none" stroke="midnightblue" d="M832.69,-330.71C867.88,-307.53 936.36,-262.43 964.96,-243.59"/>
<polygon fill="midnightblue" stroke="midnightblue" points="830.53,-327.94 824.1,-336.37 834.38,-333.79 830.53,-327.94"/>
</g>
<!-- Node18 -->
<g id="node18" class="node">
<title>Node18</title>
<g id="a_node18"><a xlink:href="image__view_8cpp.html" target="_top" xlink:title=" ">
<polygon fill="white" stroke="black" points="768,-280.5 768,-299.5 854,-299.5 854,-280.5 768,-280.5"/>
<text text-anchor="middle" x="811" y="-287.5" font-family="Helvetica,sans-Serif" font-size="10.00">image_view.cpp</text>
</a>
</g>
</g>
<!-- Node3&#45;&gt;Node18 -->
<g id="edge20" class="edge">
<title>Node3&#45;&gt;Node18</title>
<path fill="none" stroke="midnightblue" d="M811,-325.8C811,-316.91 811,-306.78 811,-299.75"/>
<polygon fill="midnightblue" stroke="midnightblue" points="807.5,-326.08 811,-336.08 814.5,-326.08 807.5,-326.08"/>
</g>
<!-- Node5 -->
<g id="node5" class="node">
<title>Node5</title>
<g id="a_node5"><a xlink:href="button_8h.html" target="_top" xlink:title=" ">
<polygon fill="white" stroke="black" points="604,-168.5 604,-187.5 656,-187.5 656,-168.5 604,-168.5"/>
<text text-anchor="middle" x="630" y="-175.5" font-family="Helvetica,sans-Serif" font-size="10.00">button.h</text>
</a>
</g>
</g>
<!-- Node4&#45;&gt;Node5 -->
<g id="edge4" class="edge">
<title>Node4&#45;&gt;Node5</title>
<path fill="none" stroke="midnightblue" d="M926.33,-223.92C820.01,-206.58 706.51,-190 656.26,-182.76"/>
<polygon fill="midnightblue" stroke="midnightblue" points="925.83,-227.39 936.27,-225.55 926.96,-220.48 925.83,-227.39"/>
</g>
<!-- Node8 -->
<g id="node8" class="node">
<title>Node8</title>
<g id="a_node8"><a xlink:href="default__skins_8cpp.html" target="_top" xlink:title=" ">
<polygon fill="white" stroke="black" points="748.5,-112.5 748.5,-131.5 841.5,-131.5 841.5,-112.5 748.5,-112.5"/>
<text text-anchor="middle" x="795" y="-119.5" font-family="Helvetica,sans-Serif" font-size="10.00">default_skins.cpp</text>
</a>
</g>
</g>
<!-- Node4&#45;&gt;Node8 -->
<g id="edge15" class="edge">
<title>Node4&#45;&gt;Node8</title>
<path fill="none" stroke="midnightblue" d="M976.91,-213.72C975.08,-199.25 970.3,-179.94 958,-168 927.04,-137.93 877.89,-127.56 841.65,-124.17"/>
<polygon fill="midnightblue" stroke="midnightblue" points="973.46,-214.41 977.84,-224.06 980.43,-213.79 973.46,-214.41"/>
</g>
<!-- Node14 -->
<g id="node14" class="node">
<title>Node14</title>
<g id="a_node14"><a xlink:href="scroll__bar_8cpp.html" target="_top" xlink:title=" ">
<polygon fill="white" stroke="black" points="1006.5,-168.5 1006.5,-187.5 1083.5,-187.5 1083.5,-168.5 1006.5,-168.5"/>
<text text-anchor="middle" x="1045" y="-175.5" font-family="Helvetica,sans-Serif" font-size="10.00">scroll_bar.cpp</text>
</a>
</g>
</g>
<!-- Node4&#45;&gt;Node14 -->
<g id="edge16" class="edge">
<title>Node4&#45;&gt;Node14</title>
<path fill="none" stroke="midnightblue" d="M996.83,-217.82C1008.84,-208.15 1023.97,-195.95 1034.04,-187.83"/>
<polygon fill="midnightblue" stroke="midnightblue" points="994.35,-215.32 988.76,-224.32 998.75,-220.77 994.35,-215.32"/>
</g>
<!-- Node15 -->
<g id="node15" class="node">
<title>Node15</title>
<g id="a_node15"><a xlink:href="scroll__pane_8cpp.html" target="_top" xlink:title=" ">
<polygon fill="white" stroke="black" points="864.5,-168.5 864.5,-187.5 949.5,-187.5 949.5,-168.5 864.5,-168.5"/>
<text text-anchor="middle" x="907" y="-175.5" font-family="Helvetica,sans-Serif" font-size="10.00">scroll_pane.cpp</text>
</a>
</g>
</g>
<!-- Node4&#45;&gt;Node15 -->
<g id="edge17" class="edge">
<title>Node4&#45;&gt;Node15</title>
<path fill="none" stroke="midnightblue" d="M958.41,-218.1C945.63,-208.38 929.39,-196.03 918.61,-187.83"/>
<polygon fill="midnightblue" stroke="midnightblue" points="956.51,-221.06 966.59,-224.32 960.75,-215.48 956.51,-221.06"/>
</g>
<!-- Node16 -->
<g id="node16" class="node">
<title>Node16</title>
<g id="a_node16"><a xlink:href="slider_8cpp.html" target="_top" xlink:title=" ">
<polygon fill="white" stroke="black" points="750,-168.5 750,-187.5 808,-187.5 808,-168.5 750,-168.5"/>
<text text-anchor="middle" x="779" y="-175.5" font-family="Helvetica,sans-Serif" font-size="10.00">slider.cpp</text>
</a>
</g>
</g>
<!-- Node4&#45;&gt;Node16 -->
<g id="edge18" class="edge">
<title>Node4&#45;&gt;Node16</title>
<path fill="none" stroke="midnightblue" d="M936.63,-221.77C898.21,-211.35 842.01,-196.1 808.12,-186.9"/>
<polygon fill="midnightblue" stroke="midnightblue" points="935.9,-225.2 946.47,-224.44 937.73,-218.45 935.9,-225.2"/>
</g>
<!-- Node17 -->
<g id="node17" class="node">
<title>Node17</title>
<g id="a_node17"><a xlink:href="text_8cpp.html" target="_top" xlink:title=" ">
<polygon fill="white" stroke="black" points="1140,-168.5 1140,-187.5 1192,-187.5 1192,-168.5 1140,-168.5"/>
<text text-anchor="middle" x="1166" y="-175.5" font-family="Helvetica,sans-Serif" font-size="10.00">text.cpp</text>
</a>
</g>
</g>
<!-- Node4&#45;&gt;Node17 -->
<g id="edge19" class="edge">
<title>Node4&#45;&gt;Node17</title>
<path fill="none" stroke="midnightblue" d="M1017.7,-221.6C1054.54,-211.01 1108.32,-195.57 1139.98,-186.47"/>
<polygon fill="midnightblue" stroke="midnightblue" points="1016.43,-218.32 1007.79,-224.44 1018.37,-225.05 1016.43,-218.32"/>
</g>
<!-- Node6 -->
<g id="node6" class="node">
<title>Node6</title>
<g id="a_node6"><a xlink:href="button_8cpp.html" target="_top" xlink:title=" ">
<polygon fill="white" stroke="black" points="618,-112.5 618,-131.5 680,-131.5 680,-112.5 618,-112.5"/>
<text text-anchor="middle" x="649" y="-119.5" font-family="Helvetica,sans-Serif" font-size="10.00">button.cpp</text>
</a>
</g>
</g>
<!-- Node5&#45;&gt;Node6 -->
<g id="edge5" class="edge">
<title>Node5&#45;&gt;Node6</title>
<path fill="none" stroke="midnightblue" d="M636.55,-158.4C639.72,-149.36 643.39,-138.94 645.92,-131.75"/>
<polygon fill="midnightblue" stroke="midnightblue" points="633.15,-157.49 633.14,-168.08 639.76,-159.81 633.15,-157.49"/>
</g>
<!-- Node7 -->
<g id="node7" class="node">
<title>Node7</title>
<g id="a_node7"><a xlink:href="context__menu_8cpp.html" target="_top" xlink:title=" ">
<polygon fill="white" stroke="black" points="512.5,-0.5 512.5,-19.5 609.5,-19.5 609.5,-0.5 512.5,-0.5"/>
<text text-anchor="middle" x="561" y="-7.5" font-family="Helvetica,sans-Serif" font-size="10.00">context_menu.cpp</text>
</a>
</g>
</g>
<!-- Node5&#45;&gt;Node7 -->
<g id="edge6" class="edge">
<title>Node5&#45;&gt;Node7</title>
<path fill="none" stroke="midnightblue" d="M621.5,-159.41C617.58,-151.14 612.93,-141.12 609,-132 591.01,-90.29 571.68,-39.48 564.2,-19.58"/>
<polygon fill="midnightblue" stroke="midnightblue" points="618.35,-160.93 625.82,-168.44 624.66,-157.91 618.35,-160.93"/>
</g>
<!-- Node5&#45;&gt;Node8 -->
<g id="edge7" class="edge">
<title>Node5&#45;&gt;Node8</title>
<path fill="none" stroke="midnightblue" d="M665.74,-165.3C696.83,-155.13 741.15,-140.62 768.98,-131.52"/>
<polygon fill="midnightblue" stroke="midnightblue" points="664.56,-162.01 656.14,-168.44 666.74,-168.66 664.56,-162.01"/>
</g>
<!-- Node9 -->
<g id="node9" class="node">
<title>Node9</title>
<g id="a_node9"><a xlink:href="menu__bar_8h.html" target="_top" xlink:title=" ">
<polygon fill="white" stroke="black" points="456.5,-112.5 456.5,-131.5 523.5,-131.5 523.5,-112.5 456.5,-112.5"/>
<text text-anchor="middle" x="490" y="-119.5" font-family="Helvetica,sans-Serif" font-size="10.00">menu_bar.h</text>
</a>
</g>
</g>
<!-- Node5&#45;&gt;Node9 -->
<g id="edge8" class="edge">
<title>Node5&#45;&gt;Node9</title>
<path fill="none" stroke="midnightblue" d="M598.3,-164.77C572,-154.63 535.28,-140.47 512.08,-131.52"/>
<polygon fill="midnightblue" stroke="midnightblue" points="597.23,-168.11 607.82,-168.44 599.75,-161.58 597.23,-168.11"/>
</g>
<!-- Node10 -->
<g id="node10" class="node">
<title>Node10</title>
<g id="a_node10"><a xlink:href="menu__bar_8cpp.html" target="_top" xlink:title=" ">
<polygon fill="white" stroke="black" points="417.5,-0.5 417.5,-19.5 494.5,-19.5 494.5,-0.5 417.5,-0.5"/>
<text text-anchor="middle" x="456" y="-7.5" font-family="Helvetica,sans-Serif" font-size="10.00">menu_bar.cpp</text>
</a>
</g>
</g>
<!-- Node9&#45;&gt;Node10 -->
<g id="edge9" class="edge">
<title>Node9&#45;&gt;Node10</title>
<path fill="none" stroke="midnightblue" d="M484.33,-102.52C480.34,-89.51 474.85,-71.69 470,-56 466.08,-43.34 461.52,-28.68 458.69,-19.62"/>
<polygon fill="midnightblue" stroke="midnightblue" points="481.01,-103.63 487.29,-112.17 487.7,-101.58 481.01,-103.63"/>
</g>
<!-- Node11 -->
<g id="node11" class="node">
<title>Node11</title>
<g id="a_node11"><a xlink:href="scene_8h.html" target="_top" xlink:title=" ">
<polygon fill="white" stroke="black" points="410.5,-56.5 410.5,-75.5 461.5,-75.5 461.5,-56.5 410.5,-56.5"/>
<text text-anchor="middle" x="436" y="-63.5" font-family="Helvetica,sans-Serif" font-size="10.00">scene.h</text>
</a>
</g>
</g>
<!-- Node9&#45;&gt;Node11 -->
<g id="edge10" class="edge">
<title>Node9&#45;&gt;Node11</title>
<path fill="none" stroke="midnightblue" d="M474,-105C464.43,-95.43 452.64,-83.64 444.75,-75.75"/>
<polygon fill="midnightblue" stroke="midnightblue" points="471.54,-107.49 481.08,-112.08 476.49,-102.54 471.54,-107.49"/>
</g>
<!-- Node11&#45;&gt;Node7 -->
<g id="edge12" class="edge">
<title>Node11&#45;&gt;Node7</title>
<path fill="none" stroke="midnightblue" d="M465.24,-52.37C488.65,-42.26 520.84,-28.35 541.29,-19.52"/>
<polygon fill="midnightblue" stroke="midnightblue" points="463.6,-49.26 455.81,-56.44 466.37,-55.69 463.6,-49.26"/>
</g>
<!-- Node11&#45;&gt;Node10 -->
<g id="edge13" class="edge">
<title>Node11&#45;&gt;Node10</title>
<path fill="none" stroke="midnightblue" d="M442.78,-46.69C446.15,-37.59 450.07,-27.01 452.76,-19.75"/>
<polygon fill="midnightblue" stroke="midnightblue" points="439.49,-45.49 439.3,-56.08 446.06,-47.92 439.49,-45.49"/>
</g>
<!-- Node12 -->
<g id="node12" class="node">
<title>Node12</title>
<g id="a_node12"><a xlink:href="component_8cpp.html" target="_top" xlink:title=" ">
<polygon fill="white" stroke="black" points="316.5,-0.5 316.5,-19.5 399.5,-19.5 399.5,-0.5 316.5,-0.5"/>
<text text-anchor="middle" x="358" y="-7.5" font-family="Helvetica,sans-Serif" font-size="10.00">component.cpp</text>
</a>
</g>
</g>
<!-- Node11&#45;&gt;Node12 -->
<g id="edge11" class="edge">
<title>Node11&#45;&gt;Node12</title>
<path fill="none" stroke="midnightblue" d="M415.23,-50.62C400.98,-40.76 382.54,-27.99 370.5,-19.65"/>
<polygon fill="midnightblue" stroke="midnightblue" points="413.25,-53.51 423.47,-56.32 417.24,-47.75 413.25,-53.51"/>
</g>
<!-- Node13 -->
<g id="node13" class="node">
<title>Node13</title>
<g id="a_node13"><a xlink:href="scene_8cpp.html" target="_top" xlink:title=" ">
<polygon fill="white" stroke="black" points="103,-0.5 103,-19.5 165,-19.5 165,-0.5 103,-0.5"/>
<text text-anchor="middle" x="134" y="-7.5" font-family="Helvetica,sans-Serif" font-size="10.00">scene.cpp</text>
</a>
</g>
</g>
<!-- Node11&#45;&gt;Node13 -->
<g id="edge14" class="edge">
<title>Node11&#45;&gt;Node13</title>
<path fill="none" stroke="midnightblue" d="M400.15,-58.59C340.39,-47.9 221.41,-26.63 165.02,-16.55"/>
<polygon fill="midnightblue" stroke="midnightblue" points="399.79,-62.08 410.25,-60.4 401.02,-55.19 399.79,-62.08"/>
</g>
<!-- Node19&#45;&gt;Node12 -->
<g id="edge22" class="edge">
<title>Node19&#45;&gt;Node12</title>
<path fill="none" stroke="midnightblue" d="M485.14,-331.99C440.52,-310.23 358,-265.82 358,-235 358,-235 358,-235 358,-121 358,-83.19 358,-38.06 358,-19.56"/>
<polygon fill="midnightblue" stroke="midnightblue" points="483.77,-335.21 494.3,-336.4 486.81,-328.91 483.77,-335.21"/>
</g>
<!-- Node19&#45;&gt;Node13 -->
<g id="edge52" class="edge">
<title>Node19&#45;&gt;Node13</title>
<path fill="none" stroke="midnightblue" d="M476.69,-336.12C351.53,-316.04 0,-340.6 0,-235 0,-235 0,-235 0,-121 0,-66.22 67.73,-33.73 106.88,-19.53"/>
<polygon fill="midnightblue" stroke="midnightblue" points="476.23,-339.59 486.7,-337.92 477.47,-332.7 476.23,-339.59"/>
</g>
<!-- Node20 -->
<g id="node20" class="node">
<title>Node20</title>
<g id="a_node20"><a xlink:href="container_8h.html" target="_top" xlink:title=" ">
<polygon fill="white" stroke="black" points="242,-280.5 242,-299.5 306,-299.5 306,-280.5 242,-280.5"/>
<text text-anchor="middle" x="274" y="-287.5" font-family="Helvetica,sans-Serif" font-size="10.00">container.h</text>
</a>
</g>
</g>
<!-- Node19&#45;&gt;Node20 -->
<g id="edge23" class="edge">
<title>Node19&#45;&gt;Node20</title>
<path fill="none" stroke="midnightblue" d="M476.92,-335.8C410.91,-320.14 344.62,-305.87 306.23,-297.75"/>
<polygon fill="midnightblue" stroke="midnightblue" points="476.11,-339.21 486.65,-338.12 477.74,-332.4 476.11,-339.21"/>
</g>
<!-- Node31 -->
<g id="node31" class="node">
<title>Node31</title>
<g id="a_node31"><a xlink:href="control_8h.html" target="_top" xlink:title=" ">
<polygon fill="white" stroke="black" points="643,-280.5 643,-299.5 697,-299.5 697,-280.5 643,-280.5"/>
<text text-anchor="middle" x="670" y="-287.5" font-family="Helvetica,sans-Serif" font-size="10.00">control.h</text>
</a>
</g>
</g>
<!-- Node19&#45;&gt;Node31 -->
<g id="edge37" class="edge">
<title>Node19&#45;&gt;Node31</title>
<path fill="none" stroke="midnightblue" d="M547.39,-333.17C576.95,-323 618.87,-308.59 645.24,-299.52"/>
<polygon fill="midnightblue" stroke="midnightblue" points="546.2,-329.88 537.88,-336.44 548.47,-336.5 546.2,-329.88"/>
</g>
<!-- Node38 -->
<g id="node38" class="node">
<title>Node38</title>
<g id="a_node38"><a xlink:href="parent_8cpp.html" target="_top" xlink:title=" ">
<polygon fill="white" stroke="black" points="482,-280.5 482,-299.5 544,-299.5 544,-280.5 482,-280.5"/>
<text text-anchor="middle" x="513" y="-287.5" font-family="Helvetica,sans-Serif" font-size="10.00">parent.cpp</text>
</a>
</g>
</g>
<!-- Node19&#45;&gt;Node38 -->
<g id="edge51" class="edge">
<title>Node19&#45;&gt;Node38</title>
<path fill="none" stroke="midnightblue" d="M513,-325.8C513,-316.91 513,-306.78 513,-299.75"/>
<polygon fill="midnightblue" stroke="midnightblue" points="509.5,-326.08 513,-336.08 516.5,-326.08 509.5,-326.08"/>
</g>
<!-- Node21 -->
<g id="node21" class="node">
<title>Node21</title>
<g id="a_node21"><a xlink:href="box__container_8h.html" target="_top" xlink:title=" ">
<polygon fill="white" stroke="black" points="405.5,-224.5 405.5,-243.5 490.5,-243.5 490.5,-224.5 405.5,-224.5"/>
<text text-anchor="middle" x="448" y="-231.5" font-family="Helvetica,sans-Serif" font-size="10.00">box_container.h</text>
</a>
</g>
</g>
<!-- Node20&#45;&gt;Node21 -->
<g id="edge24" class="edge">
<title>Node20&#45;&gt;Node21</title>
<path fill="none" stroke="midnightblue" d="M311.26,-277.44C344.07,-267.26 391.08,-252.66 420.56,-243.52"/>
<polygon fill="midnightblue" stroke="midnightblue" points="310.08,-274.14 301.57,-280.44 312.16,-280.82 310.08,-274.14"/>
</g>
<!-- Node24 -->
<g id="node24" class="node">
<title>Node24</title>
<g id="a_node24"><a xlink:href="container_8cpp.html" target="_top" xlink:title=" ">
<polygon fill="white" stroke="black" points="49,-224.5 49,-243.5 123,-243.5 123,-224.5 49,-224.5"/>
<text text-anchor="middle" x="86" y="-231.5" font-family="Helvetica,sans-Serif" font-size="10.00">container.cpp</text>
</a>
</g>
</g>
<!-- Node20&#45;&gt;Node24 -->
<g id="edge30" class="edge">
<title>Node20&#45;&gt;Node24</title>
<path fill="none" stroke="midnightblue" d="M234.2,-277.57C198.73,-267.38 147.63,-252.7 115.65,-243.52"/>
<polygon fill="midnightblue" stroke="midnightblue" points="233.63,-281.05 244.21,-280.44 235.57,-274.32 233.63,-281.05"/>
</g>
<!-- Node25 -->
<g id="node25" class="node">
<title>Node25</title>
<g id="a_node25"><a xlink:href="layered__container_8h.html" target="_top" xlink:title=" ">
<polygon fill="white" stroke="black" points="223.5,-224.5 223.5,-243.5 324.5,-243.5 324.5,-224.5 223.5,-224.5"/>
<text text-anchor="middle" x="274" y="-231.5" font-family="Helvetica,sans-Serif" font-size="10.00">layered_container.h</text>
</a>
</g>
</g>
<!-- Node20&#45;&gt;Node25 -->
<g id="edge31" class="edge">
<title>Node20&#45;&gt;Node25</title>
<path fill="none" stroke="midnightblue" d="M274,-269.8C274,-260.91 274,-250.78 274,-243.75"/>
<polygon fill="midnightblue" stroke="midnightblue" points="270.5,-270.08 274,-280.08 277.5,-270.08 270.5,-270.08"/>
</g>
<!-- Node29 -->
<g id="node29" class="node">
<title>Node29</title>
<g id="a_node29"><a xlink:href="tile__pane_8h.html" target="_top" xlink:title=" ">
<polygon fill="white" stroke="black" points="141,-224.5 141,-243.5 205,-243.5 205,-224.5 141,-224.5"/>
<text text-anchor="middle" x="173" y="-231.5" font-family="Helvetica,sans-Serif" font-size="10.00">tile_pane.h</text>
</a>
</g>
</g>
<!-- Node20&#45;&gt;Node29 -->
<g id="edge35" class="edge">
<title>Node20&#45;&gt;Node29</title>
<path fill="none" stroke="midnightblue" d="M248.92,-275.59C230.24,-265.61 205.3,-252.27 189.19,-243.65"/>
<polygon fill="midnightblue" stroke="midnightblue" points="247.3,-278.7 257.77,-280.32 250.6,-272.52 247.3,-278.7"/>
</g>
<!-- Node21&#45;&gt;Node8 -->
<g id="edge29" class="edge">
<title>Node21&#45;&gt;Node8</title>
<path fill="none" stroke="midnightblue" d="M500.91,-225.95C545.5,-219.09 610.54,-206.9 665,-188 687.88,-180.06 749.57,-147.47 778.98,-131.67"/>
<polygon fill="midnightblue" stroke="midnightblue" points="500.25,-222.51 490.88,-227.46 501.29,-229.44 500.25,-222.51"/>
</g>
<!-- Node22 -->
<g id="node22" class="node">
<title>Node22</title>
<g id="a_node22"><a xlink:href="box__container_8cpp.html" target="_top" xlink:title=" ">
<polygon fill="white" stroke="black" points="386.5,-168.5 386.5,-187.5 481.5,-187.5 481.5,-168.5 386.5,-168.5"/>
<text text-anchor="middle" x="434" y="-175.5" font-family="Helvetica,sans-Serif" font-size="10.00">box_container.cpp</text>
</a>
</g>
</g>
<!-- Node21&#45;&gt;Node22 -->
<g id="edge25" class="edge">
<title>Node21&#45;&gt;Node22</title>
<path fill="none" stroke="midnightblue" d="M443.18,-214.4C440.83,-205.36 438.13,-194.94 436.27,-187.75"/>
<polygon fill="midnightblue" stroke="midnightblue" points="439.79,-215.28 445.69,-224.08 446.57,-213.52 439.79,-215.28"/>
</g>
<!-- Node23 -->
<g id="node23" class="node">
<title>Node23</title>
<g id="a_node23"><a xlink:href="context__menu_8h.html" target="_top" xlink:title=" ">
<polygon fill="white" stroke="black" points="500,-168.5 500,-187.5 586,-187.5 586,-168.5 500,-168.5"/>
<text text-anchor="middle" x="543" y="-175.5" font-family="Helvetica,sans-Serif" font-size="10.00">context_menu.h</text>
</a>
</g>
</g>
<!-- Node21&#45;&gt;Node23 -->
<g id="edge26" class="edge">
<title>Node21&#45;&gt;Node23</title>
<path fill="none" stroke="midnightblue" d="M472.32,-219.18C489.8,-209.24 512.83,-196.15 527.77,-187.65"/>
<polygon fill="midnightblue" stroke="midnightblue" points="470.23,-216.34 463.26,-224.32 473.69,-222.43 470.23,-216.34"/>
</g>
<!-- Node23&#45;&gt;Node7 -->
<g id="edge27" class="edge">
<title>Node23&#45;&gt;Node7</title>
<path fill="none" stroke="midnightblue" d="M545.07,-157.93C548.97,-121.92 557.29,-45.23 560.07,-19.57"/>
<polygon fill="midnightblue" stroke="midnightblue" points="541.57,-157.76 543.97,-168.08 548.53,-158.51 541.57,-157.76"/>
</g>
<!-- Node23&#45;&gt;Node9 -->
<g id="edge28" class="edge">
<title>Node23&#45;&gt;Node9</title>
<path fill="none" stroke="midnightblue" d="M527.02,-160.72C517.68,-151.2 506.25,-139.56 498.59,-131.75"/>
<polygon fill="midnightblue" stroke="midnightblue" points="524.75,-163.4 534.25,-168.08 529.74,-158.49 524.75,-163.4"/>
</g>
<!-- Node26 -->
<g id="node26" class="node">
<title>Node26</title>
<g id="a_node26"><a xlink:href="anchor__pane_8h.html" target="_top" xlink:title=" ">
<polygon fill="white" stroke="black" points="120,-168.5 120,-187.5 200,-187.5 200,-168.5 120,-168.5"/>
<text text-anchor="middle" x="160" y="-175.5" font-family="Helvetica,sans-Serif" font-size="10.00">anchor_pane.h</text>
</a>
</g>
</g>
<!-- Node25&#45;&gt;Node26 -->
<g id="edge32" class="edge">
<title>Node25&#45;&gt;Node26</title>
<path fill="none" stroke="midnightblue" d="M246.76,-220.1C225.46,-210.01 196.46,-196.27 177.98,-187.52"/>
<polygon fill="midnightblue" stroke="midnightblue" points="245.4,-223.33 255.94,-224.44 248.4,-217 245.4,-223.33"/>
</g>
<!-- Node28 -->
<g id="node28" class="node">
<title>Node28</title>
<g id="a_node28"><a xlink:href="layered__container_8cpp.html" target="_top" xlink:title=" ">
<polygon fill="white" stroke="black" points="218.5,-168.5 218.5,-187.5 329.5,-187.5 329.5,-168.5 218.5,-168.5"/>
<text text-anchor="middle" x="274" y="-175.5" font-family="Helvetica,sans-Serif" font-size="10.00">layered_container.cpp</text>
</a>
</g>
</g>
<!-- Node25&#45;&gt;Node28 -->
<g id="edge34" class="edge">
<title>Node25&#45;&gt;Node28</title>
<path fill="none" stroke="midnightblue" d="M274,-213.8C274,-204.91 274,-194.78 274,-187.75"/>
<polygon fill="midnightblue" stroke="midnightblue" points="270.5,-214.08 274,-224.08 277.5,-214.08 270.5,-214.08"/>
</g>
<!-- Node27 -->
<g id="node27" class="node">
<title>Node27</title>
<g id="a_node27"><a xlink:href="anchor__pane_8cpp.html" target="_top" xlink:title=" ">
<polygon fill="white" stroke="black" points="114.5,-112.5 114.5,-131.5 205.5,-131.5 205.5,-112.5 114.5,-112.5"/>
<text text-anchor="middle" x="160" y="-119.5" font-family="Helvetica,sans-Serif" font-size="10.00">anchor_pane.cpp</text>
</a>
</g>
</g>
<!-- Node26&#45;&gt;Node27 -->
<g id="edge33" class="edge">
<title>Node26&#45;&gt;Node27</title>
<path fill="none" stroke="midnightblue" d="M160,-157.8C160,-148.91 160,-138.78 160,-131.75"/>
<polygon fill="midnightblue" stroke="midnightblue" points="156.5,-158.08 160,-168.08 163.5,-158.08 156.5,-158.08"/>
</g>
<!-- Node30 -->
<g id="node30" class="node">
<title>Node30</title>
<g id="a_node30"><a xlink:href="tile__pane_8cpp.html" target="_top" xlink:title=" ">
<polygon fill="white" stroke="black" points="28,-168.5 28,-187.5 102,-187.5 102,-168.5 28,-168.5"/>
<text text-anchor="middle" x="65" y="-175.5" font-family="Helvetica,sans-Serif" font-size="10.00">tile_pane.cpp</text>
</a>
</g>
</g>
<!-- Node29&#45;&gt;Node30 -->
<g id="edge36" class="edge">
<title>Node29&#45;&gt;Node30</title>
<path fill="none" stroke="midnightblue" d="M146.45,-219.73C126.45,-209.73 99.61,-196.31 82.31,-187.65"/>
<polygon fill="midnightblue" stroke="midnightblue" points="145.14,-222.98 155.65,-224.32 148.27,-216.72 145.14,-222.98"/>
</g>
<!-- Node31&#45;&gt;Node5 -->
<g id="edge38" class="edge">
<title>Node31&#45;&gt;Node5</title>
<path fill="none" stroke="midnightblue" d="M632.84,-285.72C605.49,-281.14 570.03,-270.18 552,-244 534.9,-219.18 575.45,-198.51 604.26,-187.53"/>
<polygon fill="midnightblue" stroke="midnightblue" points="632.48,-289.2 642.88,-287.18 633.49,-282.28 632.48,-289.2"/>
</g>
<!-- Node32 -->
<g id="node32" class="node">
<title>Node32</title>
<g id="a_node32"><a xlink:href="control_8cpp.html" target="_top" xlink:title=" ">
<polygon fill="white" stroke="black" points="697.5,-224.5 697.5,-243.5 762.5,-243.5 762.5,-224.5 697.5,-224.5"/>
<text text-anchor="middle" x="730" y="-231.5" font-family="Helvetica,sans-Serif" font-size="10.00">control.cpp</text>
</a>
</g>
</g>
<!-- Node31&#45;&gt;Node32 -->
<g id="edge39" class="edge">
<title>Node31&#45;&gt;Node32</title>
<path fill="none" stroke="midnightblue" d="M687.18,-273.54C697.88,-263.91 711.26,-251.87 720.18,-243.83"/>
<polygon fill="midnightblue" stroke="midnightblue" points="684.73,-271.03 679.64,-280.32 689.41,-276.24 684.73,-271.03"/>
</g>
<!-- Node33 -->
<g id="node33" class="node">
<title>Node33</title>
<g id="a_node33"><a xlink:href="label_8h.html" target="_top" xlink:title=" ">
<polygon fill="white" stroke="black" points="780.5,-224.5 780.5,-243.5 825.5,-243.5 825.5,-224.5 780.5,-224.5"/>
<text text-anchor="middle" x="803" y="-231.5" font-family="Helvetica,sans-Serif" font-size="10.00">label.h</text>
</a>
</g>
</g>
<!-- Node31&#45;&gt;Node33 -->
<g id="edge40" class="edge">
<title>Node31&#45;&gt;Node33</title>
<path fill="none" stroke="midnightblue" d="M700.45,-276.64C725.41,-266.5 760.08,-252.43 782.02,-243.52"/>
<polygon fill="midnightblue" stroke="midnightblue" points="699.02,-273.44 691.07,-280.44 701.66,-279.92 699.02,-273.44"/>
</g>
<!-- Node34 -->
<g id="node34" class="node">
<title>Node34</title>
<g id="a_node34"><a xlink:href="scroll__bar_8h.html" target="_top" xlink:title=" ">
<polygon fill="white" stroke="black" points="1038,-224.5 1038,-243.5 1104,-243.5 1104,-224.5 1038,-224.5"/>
<text text-anchor="middle" x="1071" y="-231.5" font-family="Helvetica,sans-Serif" font-size="10.00">scroll_bar.h</text>
</a>
</g>
</g>
<!-- Node31&#45;&gt;Node34 -->
<g id="edge41" class="edge">
<title>Node31&#45;&gt;Node34</title>
<path fill="none" stroke="midnightblue" d="M707.25,-285.33C772.48,-278.67 911.53,-263.48 1028,-244 1031.16,-243.47 1034.44,-242.87 1037.72,-242.25"/>
<polygon fill="midnightblue" stroke="midnightblue" points="706.65,-281.87 697.05,-286.36 707.36,-288.83 706.65,-281.87"/>
</g>
<!-- Node35 -->
<g id="node35" class="node">
<title>Node35</title>
<g id="a_node35"><a xlink:href="scroll__pane_8h.html" target="_top" xlink:title=" ">
<polygon fill="white" stroke="black" points="844,-224.5 844,-243.5 918,-243.5 918,-224.5 844,-224.5"/>
<text text-anchor="middle" x="881" y="-231.5" font-family="Helvetica,sans-Serif" font-size="10.00">scroll_pane.h</text>
</a>
</g>
</g>
<!-- Node31&#45;&gt;Node35 -->
<g id="edge44" class="edge">
<title>Node31&#45;&gt;Node35</title>
<path fill="none" stroke="midnightblue" d="M706.99,-279.53C746.76,-269.36 809.42,-253.32 847.7,-243.52"/>
<polygon fill="midnightblue" stroke="midnightblue" points="705.97,-276.18 697.15,-282.05 707.71,-282.96 705.97,-276.18"/>
</g>
<!-- Node36 -->
<g id="node36" class="node">
<title>Node36</title>
<g id="a_node36"><a xlink:href="skin_8cpp.html" target="_top" xlink:title=" ">
<polygon fill="white" stroke="black" points="561.5,-224.5 561.5,-243.5 614.5,-243.5 614.5,-224.5 561.5,-224.5"/>
<text text-anchor="middle" x="588" y="-231.5" font-family="Helvetica,sans-Serif" font-size="10.00">skin.cpp</text>
</a>
</g>
</g>
<!-- Node31&#45;&gt;Node36 -->
<g id="edge47" class="edge">
<title>Node31&#45;&gt;Node36</title>
<path fill="none" stroke="midnightblue" d="M648.17,-274.62C633.19,-264.76 613.8,-251.99 601.14,-243.65"/>
<polygon fill="midnightblue" stroke="midnightblue" points="646.55,-277.75 656.83,-280.32 650.4,-271.9 646.55,-277.75"/>
</g>
<!-- Node37 -->
<g id="node37" class="node">
<title>Node37</title>
<g id="a_node37"><a xlink:href="slider_8h.html" target="_top" xlink:title=" ">
<polygon fill="white" stroke="black" points="632.5,-224.5 632.5,-243.5 679.5,-243.5 679.5,-224.5 632.5,-224.5"/>
<text text-anchor="middle" x="656" y="-231.5" font-family="Helvetica,sans-Serif" font-size="10.00">slider.h</text>
</a>
</g>
</g>
<!-- Node31&#45;&gt;Node37 -->
<g id="edge48" class="edge">
<title>Node31&#45;&gt;Node37</title>
<path fill="none" stroke="midnightblue" d="M665.18,-270.4C662.83,-261.36 660.13,-250.94 658.27,-243.75"/>
<polygon fill="midnightblue" stroke="midnightblue" points="661.79,-271.28 667.69,-280.08 668.57,-269.52 661.79,-271.28"/>
</g>
<!-- Node34&#45;&gt;Node8 -->
<g id="edge42" class="edge">
<title>Node34&#45;&gt;Node8</title>
<path fill="none" stroke="midnightblue" d="M1084.72,-216.44C1094.79,-202.17 1104.84,-181.76 1093,-168 1061.14,-130.96 917.18,-124.02 841.63,-122.97"/>
<polygon fill="midnightblue" stroke="midnightblue" points="1081.91,-214.34 1078.63,-224.41 1087.48,-218.58 1081.91,-214.34"/>
</g>
<!-- Node34&#45;&gt;Node14 -->
<g id="edge43" class="edge">
<title>Node34&#45;&gt;Node14</title>
<path fill="none" stroke="midnightblue" d="M1062.33,-214.98C1057.91,-205.82 1052.75,-195.09 1049.21,-187.75"/>
<polygon fill="midnightblue" stroke="midnightblue" points="1059.21,-216.59 1066.71,-224.08 1065.52,-213.55 1059.21,-216.59"/>
</g>
<!-- Node35&#45;&gt;Node8 -->
<g id="edge45" class="edge">
<title>Node35&#45;&gt;Node8</title>
<path fill="none" stroke="midnightblue" d="M867.92,-216.27C849.33,-192.49 815.94,-149.79 801.72,-131.59"/>
<polygon fill="midnightblue" stroke="midnightblue" points="865.34,-218.65 874.25,-224.37 870.85,-214.33 865.34,-218.65"/>
</g>
<!-- Node35&#45;&gt;Node15 -->
<g id="edge46" class="edge">
<title>Node35&#45;&gt;Node15</title>
<path fill="none" stroke="midnightblue" d="M889.67,-214.98C894.09,-205.82 899.25,-195.09 902.79,-187.75"/>
<polygon fill="midnightblue" stroke="midnightblue" points="886.48,-213.55 885.29,-224.08 892.79,-216.59 886.48,-213.55"/>
</g>
<!-- Node37&#45;&gt;Node8 -->
<g id="edge49" class="edge">
<title>Node37&#45;&gt;Node8</title>
<path fill="none" stroke="midnightblue" d="M674.81,-218.12C704.31,-194.77 760.54,-150.27 784.14,-131.59"/>
<polygon fill="midnightblue" stroke="midnightblue" points="672.58,-215.42 666.91,-224.37 676.92,-220.91 672.58,-215.42"/>
</g>
<!-- Node37&#45;&gt;Node16 -->
<g id="edge50" class="edge">
<title>Node37&#45;&gt;Node16</title>
<path fill="none" stroke="midnightblue" d="M684.77,-220.37C707.81,-210.26 739.48,-196.35 759.6,-187.52"/>
<polygon fill="midnightblue" stroke="midnightblue" points="683.24,-217.22 675.49,-224.44 686.05,-223.63 683.24,-217.22"/>
</g>
<!-- Node40 -->
<g id="node40" class="node">
<title>Node40</title>
<g id="a_node40"><a xlink:href="circle_8h.html" target="_top" xlink:title=" ">
<polygon fill="white" stroke="black" points="1138,-280.5 1138,-299.5 1186,-299.5 1186,-280.5 1138,-280.5"/>
<text text-anchor="middle" x="1162" y="-287.5" font-family="Helvetica,sans-Serif" font-size="10.00">circle.h</text>
</a>
</g>
</g>
<!-- Node39&#45;&gt;Node40 -->
<g id="edge54" class="edge">
<title>Node39&#45;&gt;Node40</title>
<path fill="none" stroke="midnightblue" d="M1107.31,-330.38C1120.86,-320.62 1138.24,-308.11 1149.73,-299.83"/>
<polygon fill="midnightblue" stroke="midnightblue" points="1105.12,-327.64 1099.05,-336.32 1109.21,-333.32 1105.12,-327.64"/>
</g>
<!-- Node42 -->
<g id="node42" class="node">
<title>Node42</title>
<g id="a_node42"><a xlink:href="rectangle_8h.html" target="_top" xlink:title=" ">
<polygon fill="white" stroke="black" points="1054.5,-280.5 1054.5,-299.5 1119.5,-299.5 1119.5,-280.5 1054.5,-280.5"/>
<text text-anchor="middle" x="1087" y="-287.5" font-family="Helvetica,sans-Serif" font-size="10.00">rectangle.h</text>
</a>
</g>
</g>
<!-- Node39&#45;&gt;Node42 -->
<g id="edge56" class="edge">
<title>Node39&#45;&gt;Node42</title>
<path fill="none" stroke="midnightblue" d="M1087,-325.8C1087,-316.91 1087,-306.78 1087,-299.75"/>
<polygon fill="midnightblue" stroke="midnightblue" points="1083.5,-326.08 1087,-336.08 1090.5,-326.08 1083.5,-326.08"/>
</g>
<!-- Node44 -->
<g id="node44" class="node">
<title>Node44</title>
<g id="a_node44"><a xlink:href="shape_8cpp.html" target="_top" xlink:title=" ">
<polygon fill="white" stroke="black" points="1204,-280.5 1204,-299.5 1266,-299.5 1266,-280.5 1204,-280.5"/>
<text text-anchor="middle" x="1235" y="-287.5" font-family="Helvetica,sans-Serif" font-size="10.00">shape.cpp</text>
</a>
</g>
</g>
<!-- Node39&#45;&gt;Node44 -->
<g id="edge59" class="edge">
<title>Node39&#45;&gt;Node44</title>
<path fill="none" stroke="midnightblue" d="M1120.15,-332.91C1147.97,-322.75 1187.02,-308.51 1211.66,-299.52"/>
<polygon fill="midnightblue" stroke="midnightblue" points="1118.65,-329.73 1110.45,-336.44 1121.04,-336.3 1118.65,-329.73"/>
</g>
<!-- Node45 -->
<g id="node45" class="node">
<title>Node45</title>
<g id="a_node45"><a xlink:href="text_8h.html" target="_top" xlink:title=" ">
<polygon fill="white" stroke="black" points="995.5,-280.5 995.5,-299.5 1036.5,-299.5 1036.5,-280.5 995.5,-280.5"/>
<text text-anchor="middle" x="1016" y="-287.5" font-family="Helvetica,sans-Serif" font-size="10.00">text.h</text>
</a>
</g>
</g>
<!-- Node39&#45;&gt;Node45 -->
<g id="edge60" class="edge">
<title>Node39&#45;&gt;Node45</title>
<path fill="none" stroke="midnightblue" d="M1067.41,-330.1C1054.63,-320.38 1038.39,-308.03 1027.61,-299.83"/>
<polygon fill="midnightblue" stroke="midnightblue" points="1065.51,-333.06 1075.59,-336.32 1069.75,-327.48 1065.51,-333.06"/>
</g>
<!-- Node41 -->
<g id="node41" class="node">
<title>Node41</title>
<g id="a_node41"><a xlink:href="circle_8cpp.html" target="_top" xlink:title=" ">
<polygon fill="white" stroke="black" points="1253.5,-224.5 1253.5,-243.5 1312.5,-243.5 1312.5,-224.5 1253.5,-224.5"/>
<text text-anchor="middle" x="1283" y="-231.5" font-family="Helvetica,sans-Serif" font-size="10.00">circle.cpp</text>
</a>
</g>
</g>
<!-- Node40&#45;&gt;Node41 -->
<g id="edge55" class="edge">
<title>Node40&#45;&gt;Node41</title>
<path fill="none" stroke="midnightblue" d="M1190.31,-276.37C1212.97,-266.26 1244.13,-252.35 1263.92,-243.52"/>
<polygon fill="midnightblue" stroke="midnightblue" points="1188.88,-273.17 1181.17,-280.44 1191.73,-279.56 1188.88,-273.17"/>
</g>
<!-- Node42&#45;&gt;Node4 -->
<g id="edge57" class="edge">
<title>Node42&#45;&gt;Node4</title>
<path fill="none" stroke="midnightblue" d="M1060.48,-275.86C1040.27,-265.85 1013.01,-252.35 995.47,-243.65"/>
<polygon fill="midnightblue" stroke="midnightblue" points="1058.97,-279.02 1069.49,-280.32 1062.08,-272.75 1058.97,-279.02"/>
</g>
<!-- Node43 -->
<g id="node43" class="node">
<title>Node43</title>
<g id="a_node43"><a xlink:href="rectangle_8cpp.html" target="_top" xlink:title=" ">
<polygon fill="white" stroke="black" points="1160.5,-224.5 1160.5,-243.5 1235.5,-243.5 1235.5,-224.5 1160.5,-224.5"/>
<text text-anchor="middle" x="1198" y="-231.5" font-family="Helvetica,sans-Serif" font-size="10.00">rectangle.cpp</text>
</a>
</g>
</g>
<!-- Node42&#45;&gt;Node43 -->
<g id="edge58" class="edge">
<title>Node42&#45;&gt;Node43</title>
<path fill="none" stroke="midnightblue" d="M1114.01,-275.86C1134.59,-265.85 1162.34,-252.35 1180.21,-243.65"/>
<polygon fill="midnightblue" stroke="midnightblue" points="1112.3,-272.8 1104.83,-280.32 1115.36,-279.1 1112.3,-272.8"/>
</g>
<!-- Node45&#45;&gt;Node4 -->
<g id="edge61" class="edge">
<title>Node45&#45;&gt;Node4</title>
<path fill="none" stroke="midnightblue" d="M1003.94,-271.86C997.36,-262.5 989.49,-251.33 984.16,-243.75"/>
<polygon fill="midnightblue" stroke="midnightblue" points="1001.11,-273.92 1009.73,-280.08 1006.83,-269.89 1001.11,-273.92"/>
</g>
<!-- Node45&#45;&gt;Node17 -->
<g id="edge62" class="edge">
<title>Node45&#45;&gt;Node17</title>
<path fill="none" stroke="midnightblue" d="M1046.43,-278.96C1066.6,-271.37 1092.94,-259.59 1113,-244 1134.16,-227.56 1152.28,-201.17 1160.8,-187.63"/>
<polygon fill="midnightblue" stroke="midnightblue" points="1045.01,-275.76 1036.8,-282.45 1047.39,-282.34 1045.01,-275.76"/>
</g>
</g>
</svg>
        <g id="navigator" transform="translate(0 0)" fill="#404254">
                <rect fill="#f2f5e9" fill-opacity="0.5" stroke="#606060" stroke-width=".5" x="0" y="0" width="60" height="60"/>
                <use id="zoomplus" xlink:href="#zoomPlus" x="17" y="9" onmousedown="handleZoom(evt,'in')"/>
                <use id="zoomminus" xlink:href="#zoomMin" x="42" y="9" onmousedown="handleZoom(evt,'out')"/>
                <use id="reset" xlink:href="#resetDef" x="30" y="36" onmousedown="handleReset()"/>
                <g id="arrowUp" xlink:href="#dirArrow" transform="translate(30 24)" onmousedown="handlePan(0,-1)">
                  <use xlink:href="#rim" fill="#404040">
                        <set attributeName="fill" to="#808080" begin="arrowUp.mouseover" end="arrowUp.mouseout"/>
                  </use>
                  <path fill="none" stroke="white" stroke-width="1.5" d="M0,-3.0v7 M-2.5,-0.5L0,-3.0L2.5,-0.5"/>
                </g>
                <g id="arrowRight" xlink:href="#dirArrow" transform="rotate(90) translate(36 -43)" onmousedown="handlePan(1,0)">
                  <use xlink:href="#rim" fill="#404040">
                        <set attributeName="fill" to="#808080" begin="arrowRight.mouseover" end="arrowRight.mouseout"/>
                  </use>
                  <path fill="none" stroke="white" stroke-width="1.5" d="M0,-3.0v7 M-2.5,-0.5L0,-3.0L2.5,-0.5"/>
                </g>
                <g id="arrowDown" xlink:href="#dirArrow" transform="rotate(180) translate(-30 -48)" onmousedown="handlePan(0,1)">
                  <use xlink:href="#rim" fill="#404040">
                        <set attributeName="fill" to="#808080" begin="arrowDown.mouseover" end="arrowDown.mouseout"/>
                  </use>
                  <path fill="none" stroke="white" stroke-width="1.5" d="M0,-3.0v7 M-2.5,-0.5L0,-3.0L2.5,-0.5"/>
                </g>
                <g id="arrowLeft" xlink:href="#dirArrow" transform="rotate(270) translate(-36 17)" onmousedown="handlePan(-1,0)">
                  <use xlink:href="#rim" fill="#404040">
                        <set attributeName="fill" to="#808080" begin="arrowLeft.mouseover" end="arrowLeft.mouseout"/>
                  </use>
                  <path fill="none" stroke="white" stroke-width="1.5" d="M0,-3.0v7 M-2.5,-0.5L0,-3.0L2.5,-0.5"/>
                </g>
        </g>
        <svg viewBox="0 0 15 15" width="100%" height="30px" preserveAspectRatio="xMaxYMin meet">
         <g id="arrow_out" transform="scale(0.3 0.3)">
          <a xlink:href="component_8h__dep__incl_org.svg" target="_base">
           <rect id="button" ry="5" rx="5" y="6" x="6" height="38" width="38"
                fill="#f2f5e9" fill-opacity="0.5" stroke="#606060" stroke-width="1.0"/>
           <path id="arrow"
             d="M 11.500037,31.436501 C 11.940474,20.09759 22.043105,11.32322 32.158766,21.979434 L 37.068811,17.246167 C 37.068811,17.246167 37.088388,32 37.088388,32 L 22.160133,31.978069 C 22.160133,31.978069 26.997745,27.140456 26.997745,27.140456 C 18.528582,18.264221 13.291696,25.230495 11.500037,31.436501 z"
             style="fill:#404040;"/>
          </a>
         </g>
        </svg>
</svg>
