<?xml version="1.0" encoding="UTF-8" standalone="no"?>
<!DOCTYPE svg PUBLIC "-//W3C//DTD SVG 1.1//EN"
 "http://www.w3.org/Graphics/SVG/1.1/DTD/svg11.dtd">
<!-- Generated by graphviz version 2.50.0 (20211204.2007)
 -->
<!-- Title: context_menu.h Pages: 1 -->
<svg width="382pt" height="196pt"
 viewBox="0.00 0.00 382.00 196.00" xmlns="http://www.w3.org/2000/svg" xmlns:xlink="http://www.w3.org/1999/xlink">
<g id="graph0" class="graph" transform="scale(1 1) rotate(0) translate(4 192)">
<title>context_menu.h</title>
<polygon fill="white" stroke="transparent" points="-4,4 -4,-192 378,-192 378,4 -4,4"/>
<!-- Node1 -->
<g id="node1" class="node">
<title>Node1</title>
<g id="a_node1"><a xlink:title=" ">
<polygon fill="#bfbfbf" stroke="black" points="88.5,-168.5 88.5,-187.5 174.5,-187.5 174.5,-168.5 88.5,-168.5"/>
<text text-anchor="middle" x="131.5" y="-175.5" font-family="Helvetica,sans-Serif" font-size="10.00">context_menu.h</text>
</a>
</g>
</g>
<!-- Node2 -->
<g id="node2" class="node">
<title>Node2</title>
<g id="a_node2"><a xlink:href="context__menu_8cpp.html" target="_top" xlink:title=" ">
<polygon fill="white" stroke="black" points="0,-0.5 0,-19.5 97,-19.5 97,-0.5 0,-0.5"/>
<text text-anchor="middle" x="48.5" y="-7.5" font-family="Helvetica,sans-Serif" font-size="10.00">context_menu.cpp</text>
</a>
</g>
</g>
<!-- Node1&#45;&gt;Node2 -->
<g id="edge1" class="edge">
<title>Node1&#45;&gt;Node2</title>
<path fill="none" stroke="midnightblue" d="M122.43,-158.86C104.63,-123.25 65.73,-45.45 52.78,-19.57"/>
<polygon fill="midnightblue" stroke="midnightblue" points="119.43,-160.7 127.04,-168.08 125.7,-157.57 119.43,-160.7"/>
</g>
<!-- Node3 -->
<g id="node3" class="node">
<title>Node3</title>
<g id="a_node3"><a xlink:href="menu__bar_8h.html" target="_top" xlink:title=" ">
<polygon fill="white" stroke="black" points="147,-112.5 147,-131.5 214,-131.5 214,-112.5 147,-112.5"/>
<text text-anchor="middle" x="180.5" y="-119.5" font-family="Helvetica,sans-Serif" font-size="10.00">menu_bar.h</text>
</a>
</g>
</g>
<!-- Node1&#45;&gt;Node3 -->
<g id="edge2" class="edge">
<title>Node1&#45;&gt;Node3</title>
<path fill="none" stroke="midnightblue" d="M146.53,-160.43C155.12,-150.97 165.54,-139.48 172.56,-131.75"/>
<polygon fill="midnightblue" stroke="midnightblue" points="143.72,-158.33 139.59,-168.08 148.9,-163.03 143.72,-158.33"/>
</g>
<!-- Node4 -->
<g id="node4" class="node">
<title>Node4</title>
<g id="a_node4"><a xlink:href="menu__bar_8cpp.html" target="_top" xlink:title=" ">
<polygon fill="white" stroke="black" points="297,-0.5 297,-19.5 374,-19.5 374,-0.5 297,-0.5"/>
<text text-anchor="middle" x="335.5" y="-7.5" font-family="Helvetica,sans-Serif" font-size="10.00">menu_bar.cpp</text>
</a>
</g>
</g>
<!-- Node3&#45;&gt;Node4 -->
<g id="edge3" class="edge">
<title>Node3&#45;&gt;Node4</title>
<path fill="none" stroke="midnightblue" d="M201.05,-106.42C233.83,-83.15 296.96,-38.35 323.39,-19.59"/>
<polygon fill="midnightblue" stroke="midnightblue" points="198.79,-103.73 192.66,-112.37 202.84,-109.44 198.79,-103.73"/>
</g>
<!-- Node5 -->
<g id="node5" class="node">
<title>Node5</title>
<g id="a_node5"><a xlink:href="scene_8h.html" target="_top" xlink:title=" ">
<polygon fill="white" stroke="black" points="155,-56.5 155,-75.5 206,-75.5 206,-56.5 155,-56.5"/>
<text text-anchor="middle" x="180.5" y="-63.5" font-family="Helvetica,sans-Serif" font-size="10.00">scene.h</text>
</a>
</g>
</g>
<!-- Node3&#45;&gt;Node5 -->
<g id="edge4" class="edge">
<title>Node3&#45;&gt;Node5</title>
<path fill="none" stroke="midnightblue" d="M180.5,-101.8C180.5,-92.91 180.5,-82.78 180.5,-75.75"/>
<polygon fill="midnightblue" stroke="midnightblue" points="177,-102.08 180.5,-112.08 184,-102.08 177,-102.08"/>
</g>
<!-- Node5&#45;&gt;Node2 -->
<g id="edge6" class="edge">
<title>Node5&#45;&gt;Node2</title>
<path fill="none" stroke="midnightblue" d="M150.28,-52.64C125.51,-42.5 91.1,-28.43 69.32,-19.52"/>
<polygon fill="midnightblue" stroke="midnightblue" points="149,-55.9 159.58,-56.44 151.65,-49.42 149,-55.9"/>
</g>
<!-- Node5&#45;&gt;Node4 -->
<g id="edge7" class="edge">
<title>Node5&#45;&gt;Node4</title>
<path fill="none" stroke="midnightblue" d="M214.83,-53.04C244,-42.88 285.14,-28.55 311.05,-19.52"/>
<polygon fill="midnightblue" stroke="midnightblue" points="213.35,-49.85 205.06,-56.44 215.66,-56.46 213.35,-49.85"/>
</g>
<!-- Node6 -->
<g id="node6" class="node">
<title>Node6</title>
<g id="a_node6"><a xlink:href="component_8cpp.html" target="_top" xlink:title=" ">
<polygon fill="white" stroke="black" points="196,-0.5 196,-19.5 279,-19.5 279,-0.5 196,-0.5"/>
<text text-anchor="middle" x="237.5" y="-7.5" font-family="Helvetica,sans-Serif" font-size="10.00">component.cpp</text>
</a>
</g>
</g>
<!-- Node5&#45;&gt;Node6 -->
<g id="edge5" class="edge">
<title>Node5&#45;&gt;Node6</title>
<path fill="none" stroke="midnightblue" d="M197.12,-49.25C207.23,-39.67 219.78,-27.79 228.18,-19.83"/>
<polygon fill="midnightblue" stroke="midnightblue" points="194.51,-46.91 189.66,-56.32 199.32,-51.99 194.51,-46.91"/>
</g>
<!-- Node7 -->
<g id="node7" class="node">
<title>Node7</title>
<g id="a_node7"><a xlink:href="scene_8cpp.html" target="_top" xlink:title=" ">
<polygon fill="white" stroke="black" points="115.5,-0.5 115.5,-19.5 177.5,-19.5 177.5,-0.5 115.5,-0.5"/>
<text text-anchor="middle" x="146.5" y="-7.5" font-family="Helvetica,sans-Serif" font-size="10.00">scene.cpp</text>
</a>
</g>
</g>
<!-- Node5&#45;&gt;Node7 -->
<g id="edge8" class="edge">
<title>Node5&#45;&gt;Node7</title>
<path fill="none" stroke="midnightblue" d="M169.52,-47.57C163.67,-38.27 156.73,-27.25 152.01,-19.75"/>
<polygon fill="midnightblue" stroke="midnightblue" points="166.6,-49.49 174.89,-56.08 172.52,-45.76 166.6,-49.49"/>
</g>
</g>
</svg>
