<?xml version="1.0" encoding="UTF-8" standalone="no"?>
<!DOCTYPE svg PUBLIC "-//W3C//DTD SVG 1.1//EN"
 "http://www.w3.org/Graphics/SVG/1.1/DTD/svg11.dtd">
<!-- Generated by graphviz version 2.50.0 (20211204.2007)
 -->
<!-- Title: controls.h Pages: 1 -->
<!--zoomable 476 -->
<svg id="main" version="1.1" xmlns="http://www.w3.org/2000/svg" xmlns:xlink="http://www.w3.org/1999/xlink" xml:space="preserve" onload="init(evt)">
<style type="text/css"><![CDATA[
.edge:hover path { stroke: red; }
.edge:hover polygon { stroke: red; fill: red; }
]]></style>
<script type="text/javascript"><![CDATA[
var edges = document.getElementsByTagName('g');
if (edges && edges.length) {
  for (var i=0;i<edges.length;i++) {
    if (edges[i].id.substr(0,4)=='edge') {
      edges[i].setAttribute('class','edge');
    }
  }
}
]]></script>
        <defs>
                <circle id="rim" cx="0" cy="0" r="7"/>
                <circle id="rim2" cx="0" cy="0" r="3.5"/>
                <g id="zoomPlus">
                        <use xlink:href="#rim" fill="#404040">
                                <set attributeName="fill" to="#808080" begin="zoomplus.mouseover" end="zoomplus.mouseout"/>
                        </use>
                        <path d="M-4,0h8M0,-4v8" fill="none" stroke="white" stroke-width="1.5" pointer-events="none"/>
                </g>
                <g id="zoomMin">
                        <use xlink:href="#rim" fill="#404040">
                                <set attributeName="fill" to="#808080" begin="zoomminus.mouseover" end="zoomminus.mouseout"/>
                        </use>
                        <path d="M-4,0h8" fill="none" stroke="white" stroke-width="1.5" pointer-events="none"/>
                </g>
                <g id="dirArrow">
                        <path fill="none" stroke="white" stroke-width="1.5" d="M0,-3.0v7 M-2.5,-0.5L0,-3.0L2.5,-0.5"/>
                </g>
               <g id="resetDef">
                       <use xlink:href="#rim2" fill="#404040">
                               <set attributeName="fill" to="#808080" begin="reset.mouseover" end="reset.mouseout"/>
                       </use>
               </g>
        </defs>

<script type="text/javascript">
var viewWidth = 1416;
var viewHeight = 476;
var sectionId = 'dynsection-0';
</script>
<script xlink:href="svgpan.js"/>
<svg id="graph" class="graph">
<g id="viewport">
<title>controls.h</title>
<polygon fill="white" stroke="transparent" points="-4,4 -4,-472 1412,-472 1412,4 -4,4"/>
<!-- Node1 -->
<g id="node1" class="node">
<title>Node1</title>
<g id="a_node1"><a xlink:title=" ">
<polygon fill="#bfbfbf" stroke="black" points="338,-448.5 338,-467.5 397,-467.5 397,-448.5 338,-448.5"/>
<text text-anchor="middle" x="367.5" y="-455.5" font-family="Helvetica,sans-Serif" font-size="10.00">controls.h</text>
</a>
</g>
</g>
<!-- Node2 -->
<g id="node2" class="node">
<title>Node2</title>
<g id="a_node2"><a xlink:href="button_8h.html" target="_top" xlink:title=" ">
<polygon fill="white" stroke="black" points="573,-392.5 573,-411.5 692,-411.5 692,-392.5 573,-392.5"/>
<text text-anchor="middle" x="632.5" y="-399.5" font-family="Helvetica,sans-Serif" font-size="10.00">scene/controls/button.h</text>
</a>
</g>
</g>
<!-- Node1&#45;&gt;Node2 -->
<g id="edge1" class="edge">
<title>Node1&#45;&gt;Node2</title>
<path fill="none" stroke="midnightblue" d="M397.13,-450.96C441.5,-441.92 525.85,-424.73 580.59,-413.58"/>
<polygon fill="midnightblue" stroke="midnightblue" points="581.35,-416.99 590.45,-411.57 579.96,-410.14 581.35,-416.99"/>
</g>
<!-- Node35 -->
<g id="node35" class="node">
<title>Node35</title>
<g id="a_node35"><a xlink:href="label_8h.html" target="_top" xlink:title=" ">
<polygon fill="white" stroke="black" points="442.5,-392.5 442.5,-411.5 554.5,-411.5 554.5,-392.5 442.5,-392.5"/>
<text text-anchor="middle" x="498.5" y="-399.5" font-family="Helvetica,sans-Serif" font-size="10.00">scene/controls/label.h</text>
</a>
</g>
</g>
<!-- Node1&#45;&gt;Node35 -->
<g id="edge56" class="edge">
<title>Node1&#45;&gt;Node35</title>
<path fill="none" stroke="midnightblue" d="M388.26,-448.44C409.82,-439.56 443.76,-425.56 468.29,-415.45"/>
<polygon fill="midnightblue" stroke="midnightblue" points="469.93,-418.56 477.84,-411.52 467.26,-412.09 469.93,-418.56"/>
</g>
<!-- Node36 -->
<g id="node36" class="node">
<title>Node36</title>
<g id="a_node36"><a xlink:href="scroll__bar_8h.html" target="_top" xlink:title=" ">
<polygon fill="white" stroke="black" points="0,-392.5 0,-411.5 133,-411.5 133,-392.5 0,-392.5"/>
<text text-anchor="middle" x="66.5" y="-399.5" font-family="Helvetica,sans-Serif" font-size="10.00">scene/controls/scroll_bar.h</text>
</a>
</g>
</g>
<!-- Node1&#45;&gt;Node36 -->
<g id="edge58" class="edge">
<title>Node1&#45;&gt;Node36</title>
<path fill="none" stroke="midnightblue" d="M337.82,-451.67C288.26,-442.78 187.84,-424.77 124.04,-413.32"/>
<polygon fill="midnightblue" stroke="midnightblue" points="124.59,-409.87 114.13,-411.55 123.36,-416.76 124.59,-409.87"/>
</g>
<!-- Node37 -->
<g id="node37" class="node">
<title>Node37</title>
<g id="a_node37"><a xlink:href="scroll__pane_8h.html" target="_top" xlink:title=" ">
<polygon fill="white" stroke="black" points="151,-392.5 151,-411.5 292,-411.5 292,-392.5 151,-392.5"/>
<text text-anchor="middle" x="221.5" y="-399.5" font-family="Helvetica,sans-Serif" font-size="10.00">scene/controls/scroll_pane.h</text>
</a>
</g>
</g>
<!-- Node1&#45;&gt;Node37 -->
<g id="edge60" class="edge">
<title>Node1&#45;&gt;Node37</title>
<path fill="none" stroke="midnightblue" d="M344.37,-448.44C320.02,-439.44 281.49,-425.19 254.08,-415.05"/>
<polygon fill="midnightblue" stroke="midnightblue" points="255.12,-411.7 244.53,-411.52 252.69,-418.27 255.12,-411.7"/>
</g>
<!-- Node38 -->
<g id="node38" class="node">
<title>Node38</title>
<g id="a_node38"><a xlink:href="slider_8h.html" target="_top" xlink:title=" ">
<polygon fill="white" stroke="black" points="310.5,-392.5 310.5,-411.5 424.5,-411.5 424.5,-392.5 310.5,-392.5"/>
<text text-anchor="middle" x="367.5" y="-399.5" font-family="Helvetica,sans-Serif" font-size="10.00">scene/controls/slider.h</text>
</a>
</g>
</g>
<!-- Node1&#45;&gt;Node38 -->
<g id="edge62" class="edge">
<title>Node1&#45;&gt;Node38</title>
<path fill="none" stroke="midnightblue" d="M367.5,-448.08C367.5,-441.01 367.5,-430.86 367.5,-421.99"/>
<polygon fill="midnightblue" stroke="midnightblue" points="371,-421.75 367.5,-411.75 364,-421.75 371,-421.75"/>
</g>
<!-- Node3 -->
<g id="node3" class="node">
<title>Node3</title>
<g id="a_node3"><a xlink:href="control_8h.html" target="_top" xlink:title=" ">
<polygon fill="white" stroke="black" points="292.5,-336.5 292.5,-355.5 346.5,-355.5 346.5,-336.5 292.5,-336.5"/>
<text text-anchor="middle" x="319.5" y="-343.5" font-family="Helvetica,sans-Serif" font-size="10.00">control.h</text>
</a>
</g>
</g>
<!-- Node2&#45;&gt;Node3 -->
<g id="edge2" class="edge">
<title>Node2&#45;&gt;Node3</title>
<path fill="none" stroke="midnightblue" d="M582.9,-392.44C519.94,-381.58 412.75,-363.09 356.49,-353.38"/>
<polygon fill="midnightblue" stroke="midnightblue" points="357.05,-349.93 346.6,-351.67 355.86,-356.82 357.05,-349.93"/>
</g>
<!-- Node29 -->
<g id="node29" class="node">
<title>Node29</title>
<g id="a_node29"><a xlink:href="default__skins_8h.html" target="_top" xlink:title=" ">
<polygon fill="white" stroke="black" points="596.5,-336.5 596.5,-355.5 712.5,-355.5 712.5,-336.5 596.5,-336.5"/>
<text text-anchor="middle" x="654.5" y="-343.5" font-family="Helvetica,sans-Serif" font-size="10.00">../style/default_skins.h</text>
</a>
</g>
</g>
<!-- Node2&#45;&gt;Node29 -->
<g id="edge37" class="edge">
<title>Node2&#45;&gt;Node29</title>
<path fill="none" stroke="midnightblue" d="M636.13,-392.08C639.11,-384.77 643.43,-374.18 647.12,-365.1"/>
<polygon fill="midnightblue" stroke="midnightblue" points="650.4,-366.33 650.93,-355.75 643.92,-363.69 650.4,-366.33"/>
</g>
<!-- Node4 -->
<g id="node4" class="node">
<title>Node4</title>
<g id="a_node4"><a xlink:href="parent_8h.html" target="_top" xlink:title=" ">
<polygon fill="white" stroke="black" points="386,-224.5 386,-243.5 447,-243.5 447,-224.5 386,-224.5"/>
<text text-anchor="middle" x="416.5" y="-231.5" font-family="Helvetica,sans-Serif" font-size="10.00">../parent.h</text>
</a>
</g>
</g>
<!-- Node3&#45;&gt;Node4 -->
<g id="edge3" class="edge">
<title>Node3&#45;&gt;Node4</title>
<path fill="none" stroke="midnightblue" d="M327.11,-336.37C343.26,-318.05 381.18,-275.05 402.07,-251.36"/>
<polygon fill="midnightblue" stroke="midnightblue" points="404.94,-253.41 408.92,-243.59 399.68,-248.78 404.94,-253.41"/>
</g>
<!-- Node27 -->
<g id="node27" class="node">
<title>Node27</title>
<g id="a_node27"><a xlink:href="skin_8h.html" target="_top" xlink:title=" ">
<polygon fill="white" stroke="black" points="214.5,-280.5 214.5,-299.5 290.5,-299.5 290.5,-280.5 214.5,-280.5"/>
<text text-anchor="middle" x="252.5" y="-287.5" font-family="Helvetica,sans-Serif" font-size="10.00">../style/skin.h</text>
</a>
</g>
</g>
<!-- Node3&#45;&gt;Node27 -->
<g id="edge34" class="edge">
<title>Node3&#45;&gt;Node27</title>
<path fill="none" stroke="midnightblue" d="M308.74,-336.32C298.73,-328.26 283.61,-316.08 271.57,-306.37"/>
<polygon fill="midnightblue" stroke="midnightblue" points="273.44,-303.38 263.46,-299.83 269.05,-308.83 273.44,-303.38"/>
</g>
<!-- Node5 -->
<g id="node5" class="node">
<title>Node5</title>
<g id="a_node5"><a xlink:href="component_8h.html" target="_top" xlink:title=" ">
<polygon fill="white" stroke="black" points="726,-168.5 726,-187.5 799,-187.5 799,-168.5 726,-168.5"/>
<text text-anchor="middle" x="762.5" y="-175.5" font-family="Helvetica,sans-Serif" font-size="10.00">component.h</text>
</a>
</g>
</g>
<!-- Node4&#45;&gt;Node5 -->
<g id="edge4" class="edge">
<title>Node4&#45;&gt;Node5</title>
<path fill="none" stroke="midnightblue" d="M447.21,-228.21C507.97,-218.72 643.9,-197.51 715.82,-186.29"/>
<polygon fill="midnightblue" stroke="midnightblue" points="716.61,-189.71 725.95,-184.7 715.53,-182.79 716.61,-189.71"/>
</g>
<!-- Node18 -->
<g id="node18" class="node">
<title>Node18</title>
<g id="a_node18"><a xlink:href="insets_8h.html" target="_top" xlink:title=" ">
<polygon fill="white" stroke="black" points="201.5,-112.5 201.5,-131.5 285.5,-131.5 285.5,-112.5 201.5,-112.5"/>
<text text-anchor="middle" x="243.5" y="-119.5" font-family="Helvetica,sans-Serif" font-size="10.00">../paint/insets.h</text>
</a>
</g>
</g>
<!-- Node4&#45;&gt;Node18 -->
<g id="edge18" class="edge">
<title>Node4&#45;&gt;Node18</title>
<path fill="none" stroke="midnightblue" d="M409.48,-224.38C398.09,-210.85 374.35,-184.49 349.5,-168 328.22,-153.88 301.77,-142.64 280.62,-134.93"/>
<polygon fill="midnightblue" stroke="midnightblue" points="281.61,-131.57 271.02,-131.53 279.28,-138.17 281.61,-131.57"/>
</g>
<!-- Node20 -->
<g id="node20" class="node">
<title>Node20</title>
<g id="a_node20"><a xlink:href="border_8h.html" target="_top" xlink:title=" ">
<polygon fill="white" stroke="black" points="401.5,-168.5 401.5,-187.5 485.5,-187.5 485.5,-168.5 401.5,-168.5"/>
<text text-anchor="middle" x="443.5" y="-175.5" font-family="Helvetica,sans-Serif" font-size="10.00">../paint/border.h</text>
</a>
</g>
</g>
<!-- Node4&#45;&gt;Node20 -->
<g id="edge20" class="edge">
<title>Node4&#45;&gt;Node20</title>
<path fill="none" stroke="midnightblue" d="M420.96,-224.08C424.65,-216.69 430.02,-205.95 434.59,-196.81"/>
<polygon fill="midnightblue" stroke="midnightblue" points="437.78,-198.26 439.12,-187.75 431.52,-195.13 437.78,-198.26"/>
</g>
<!-- Node23 -->
<g id="node23" class="node">
<title>Node23</title>
<g id="a_node23"><a xlink:href="background_8h.html" target="_top" xlink:title=" ">
<polygon fill="white" stroke="black" points="543.5,-168.5 543.5,-187.5 651.5,-187.5 651.5,-168.5 543.5,-168.5"/>
<text text-anchor="middle" x="597.5" y="-175.5" font-family="Helvetica,sans-Serif" font-size="10.00">../paint/background.h</text>
</a>
</g>
</g>
<!-- Node4&#45;&gt;Node23 -->
<g id="edge24" class="edge">
<title>Node4&#45;&gt;Node23</title>
<path fill="none" stroke="midnightblue" d="M445.18,-224.44C476.03,-215.24 525.23,-200.56 559.33,-190.39"/>
<polygon fill="midnightblue" stroke="midnightblue" points="560.37,-193.73 568.95,-187.52 558.37,-187.02 560.37,-193.73"/>
</g>
<!-- Node6 -->
<g id="node6" class="node">
<title>Node6</title>
<g id="a_node6"><a xlink:title=" ">
<polygon fill="white" stroke="#bfbfbf" points="671.5,-112.5 671.5,-131.5 811.5,-131.5 811.5,-112.5 671.5,-112.5"/>
<text text-anchor="middle" x="741.5" y="-119.5" font-family="Helvetica,sans-Serif" font-size="10.00">sml/sml_graphics_wrapper.h</text>
</a>
</g>
</g>
<!-- Node5&#45;&gt;Node6 -->
<g id="edge5" class="edge">
<title>Node5&#45;&gt;Node6</title>
<path fill="none" stroke="midnightblue" d="M759.03,-168.08C756.19,-160.77 752.07,-150.18 748.54,-141.1"/>
<polygon fill="midnightblue" stroke="midnightblue" points="751.79,-139.8 744.9,-131.75 745.27,-142.34 751.79,-139.8"/>
</g>
<!-- Node7 -->
<g id="node7" class="node">
<title>Node7</title>
<g id="a_node7"><a xlink:href="gui__event__dispatching_8h.html" target="_top" xlink:title=" ">
<polygon fill="white" stroke="black" points="830,-112.5 830,-131.5 993,-131.5 993,-112.5 830,-112.5"/>
<text text-anchor="middle" x="911.5" y="-119.5" font-family="Helvetica,sans-Serif" font-size="10.00">../events/gui_event_dispatching.h</text>
</a>
</g>
</g>
<!-- Node5&#45;&gt;Node7 -->
<g id="edge6" class="edge">
<title>Node5&#45;&gt;Node7</title>
<path fill="none" stroke="midnightblue" d="M786.11,-168.44C810.96,-159.44 850.27,-145.19 878.25,-135.05"/>
<polygon fill="midnightblue" stroke="midnightblue" points="879.79,-138.21 888,-131.52 877.41,-131.63 879.79,-138.21"/>
</g>
<!-- Node15 -->
<g id="node15" class="node">
<title>Node15</title>
<g id="a_node15"><a xlink:href="shadow_8h.html" target="_top" xlink:title=" ">
<polygon fill="white" stroke="black" points="1118.5,-112.5 1118.5,-131.5 1208.5,-131.5 1208.5,-112.5 1118.5,-112.5"/>
<text text-anchor="middle" x="1163.5" y="-119.5" font-family="Helvetica,sans-Serif" font-size="10.00">../paint/shadow.h</text>
</a>
</g>
</g>
<!-- Node5&#45;&gt;Node15 -->
<g id="edge15" class="edge">
<title>Node5&#45;&gt;Node15</title>
<path fill="none" stroke="midnightblue" d="M799.03,-172.7C860.61,-165.37 989.24,-149.63 1108.41,-132.12"/>
<polygon fill="midnightblue" stroke="midnightblue" points="1109.06,-135.56 1118.44,-130.64 1108.03,-128.63 1109.06,-135.56"/>
</g>
<!-- Node8 -->
<g id="node8" class="node">
<title>Node8</title>
<g id="a_node8"><a xlink:title=" ">
<polygon fill="white" stroke="#bfbfbf" points="635.5,-56.5 635.5,-75.5 679.5,-75.5 679.5,-56.5 635.5,-56.5"/>
<text text-anchor="middle" x="657.5" y="-63.5" font-family="Helvetica,sans-Serif" font-size="10.00">vector</text>
</a>
</g>
</g>
<!-- Node7&#45;&gt;Node8 -->
<g id="edge7" class="edge">
<title>Node7&#45;&gt;Node8</title>
<path fill="none" stroke="midnightblue" d="M864.07,-112.44C821.08,-104.45 755.8,-91.72 689.6,-75.87"/>
<polygon fill="midnightblue" stroke="midnightblue" points="690.37,-72.45 679.82,-73.51 688.72,-79.26 690.37,-72.45"/>
</g>
<!-- Node9 -->
<g id="node9" class="node">
<title>Node9</title>
<g id="a_node9"><a xlink:title=" ">
<polygon fill="white" stroke="#bfbfbf" points="783,-56.5 783,-75.5 938,-75.5 938,-56.5 783,-56.5"/>
<text text-anchor="middle" x="860.5" y="-63.5" font-family="Helvetica,sans-Serif" font-size="10.00">sml/events/event_dispatching.h</text>
</a>
</g>
</g>
<!-- Node7&#45;&gt;Node9 -->
<g id="edge8" class="edge">
<title>Node7&#45;&gt;Node9</title>
<path fill="none" stroke="midnightblue" d="M903.08,-112.08C895.65,-104.22 884.65,-92.57 875.69,-83.08"/>
<polygon fill="midnightblue" stroke="midnightblue" points="878.18,-80.62 868.76,-75.75 873.09,-85.42 878.18,-80.62"/>
</g>
<!-- Node10 -->
<g id="node10" class="node">
<title>Node10</title>
<g id="a_node10"><a xlink:title=" ">
<polygon fill="white" stroke="#bfbfbf" points="1166,-56.5 1166,-75.5 1307,-75.5 1307,-56.5 1166,-56.5"/>
<text text-anchor="middle" x="1236.5" y="-63.5" font-family="Helvetica,sans-Serif" font-size="10.00">sml/events/listener_notifier.h</text>
</a>
</g>
</g>
<!-- Node7&#45;&gt;Node10 -->
<g id="edge9" class="edge">
<title>Node7&#45;&gt;Node10</title>
<path fill="none" stroke="midnightblue" d="M963,-112.44C1020.64,-102.87 1113.99,-87.36 1175.31,-77.17"/>
<polygon fill="midnightblue" stroke="midnightblue" points="1175.95,-80.61 1185.24,-75.52 1174.81,-73.7 1175.95,-80.61"/>
</g>
<!-- Node11 -->
<g id="node11" class="node">
<title>Node11</title>
<g id="a_node11"><a xlink:title=" ">
<polygon fill="white" stroke="#bfbfbf" points="871,-0.5 871,-19.5 1014,-19.5 1014,-0.5 871,-0.5"/>
<text text-anchor="middle" x="942.5" y="-7.5" font-family="Helvetica,sans-Serif" font-size="10.00">sml/events/system_events.h</text>
</a>
</g>
</g>
<!-- Node7&#45;&gt;Node11 -->
<g id="edge10" class="edge">
<title>Node7&#45;&gt;Node11</title>
<path fill="none" stroke="midnightblue" d="M921.66,-112.19C930.41,-103.87 942.4,-90.54 947.5,-76 952.77,-60.98 950.74,-42.85 947.84,-29.56"/>
<polygon fill="midnightblue" stroke="midnightblue" points="951.19,-28.54 945.34,-19.7 944.41,-30.26 951.19,-28.54"/>
</g>
<!-- Node12 -->
<g id="node12" class="node">
<title>Node12</title>
<g id="a_node12"><a xlink:href="gui__event_8h.html" target="_top" xlink:title=" ">
<polygon fill="white" stroke="black" points="698,-56.5 698,-75.5 765,-75.5 765,-56.5 698,-56.5"/>
<text text-anchor="middle" x="731.5" y="-63.5" font-family="Helvetica,sans-Serif" font-size="10.00">gui_event.h</text>
</a>
</g>
</g>
<!-- Node7&#45;&gt;Node12 -->
<g id="edge11" class="edge">
<title>Node7&#45;&gt;Node12</title>
<path fill="none" stroke="midnightblue" d="M882.98,-112.44C852.43,-103.28 803.79,-88.69 769.9,-78.52"/>
<polygon fill="midnightblue" stroke="midnightblue" points="770.47,-75.04 759.89,-75.52 768.46,-81.74 770.47,-75.04"/>
</g>
<!-- Node12&#45;&gt;Node11 -->
<g id="edge13" class="edge">
<title>Node12&#45;&gt;Node11</title>
<path fill="none" stroke="midnightblue" d="M764.93,-56.44C801.36,-47.12 859.73,-32.18 899.53,-22"/>
<polygon fill="midnightblue" stroke="midnightblue" points="900.4,-25.39 909.22,-19.52 898.67,-18.61 900.4,-25.39"/>
</g>
<!-- Node13 -->
<g id="node13" class="node">
<title>Node13</title>
<g id="a_node13"><a xlink:title=" ">
<polygon fill="white" stroke="#bfbfbf" points="705.5,-0.5 705.5,-19.5 805.5,-19.5 805.5,-0.5 705.5,-0.5"/>
<text text-anchor="middle" x="755.5" y="-7.5" font-family="Helvetica,sans-Serif" font-size="10.00">sml/events/event.h</text>
</a>
</g>
</g>
<!-- Node12&#45;&gt;Node13 -->
<g id="edge12" class="edge">
<title>Node12&#45;&gt;Node13</title>
<path fill="none" stroke="midnightblue" d="M735.46,-56.08C738.71,-48.77 743.42,-38.18 747.45,-29.1"/>
<polygon fill="midnightblue" stroke="midnightblue" points="750.75,-30.31 751.61,-19.75 744.35,-27.47 750.75,-30.31"/>
</g>
<!-- Node14 -->
<g id="node14" class="node">
<title>Node14</title>
<g id="a_node14"><a xlink:title=" ">
<polygon fill="white" stroke="#bfbfbf" points="610,-0.5 610,-19.5 687,-19.5 687,-0.5 610,-0.5"/>
<text text-anchor="middle" x="648.5" y="-7.5" font-family="Helvetica,sans-Serif" font-size="10.00">sml/sml_log.h</text>
</a>
</g>
</g>
<!-- Node12&#45;&gt;Node14 -->
<g id="edge14" class="edge">
<title>Node12&#45;&gt;Node14</title>
<path fill="none" stroke="midnightblue" d="M718.16,-56.32C705.34,-47.98 685.72,-35.21 670.56,-25.35"/>
<polygon fill="midnightblue" stroke="midnightblue" points="672.09,-22.17 661.8,-19.65 668.28,-28.04 672.09,-22.17"/>
</g>
<!-- Node16 -->
<g id="node16" class="node">
<title>Node16</title>
<g id="a_node16"><a xlink:title=" ">
<polygon fill="white" stroke="#bfbfbf" points="1325,-56.5 1325,-75.5 1408,-75.5 1408,-56.5 1325,-56.5"/>
<text text-anchor="middle" x="1366.5" y="-63.5" font-family="Helvetica,sans-Serif" font-size="10.00">sml/math/blur.h</text>
</a>
</g>
</g>
<!-- Node15&#45;&gt;Node16 -->
<g id="edge16" class="edge">
<title>Node15&#45;&gt;Node16</title>
<path fill="none" stroke="midnightblue" d="M1195.67,-112.44C1230.56,-103.16 1286.39,-88.31 1324.67,-78.13"/>
<polygon fill="midnightblue" stroke="midnightblue" points="1325.72,-81.47 1334.48,-75.52 1323.92,-74.7 1325.72,-81.47"/>
</g>
<!-- Node17 -->
<g id="node17" class="node">
<title>Node17</title>
<g id="a_node17"><a xlink:title=" ">
<polygon fill="white" stroke="#bfbfbf" points="995,-56.5 995,-75.5 1148,-75.5 1148,-56.5 995,-56.5"/>
<text text-anchor="middle" x="1071.5" y="-63.5" font-family="Helvetica,sans-Serif" font-size="10.00">sml/graphics_wrapper/texture.h</text>
</a>
</g>
</g>
<!-- Node15&#45;&gt;Node17 -->
<g id="edge17" class="edge">
<title>Node15&#45;&gt;Node17</title>
<path fill="none" stroke="midnightblue" d="M1148.72,-112.32C1134.23,-103.82 1111.93,-90.73 1095.01,-80.8"/>
<polygon fill="midnightblue" stroke="midnightblue" points="1096.64,-77.7 1086.24,-75.65 1093.1,-83.74 1096.64,-77.7"/>
</g>
<!-- Node19 -->
<g id="node19" class="node">
<title>Node19</title>
<g id="a_node19"><a xlink:title=" ">
<polygon fill="white" stroke="#bfbfbf" points="219,-56.5 219,-75.5 268,-75.5 268,-56.5 219,-56.5"/>
<text text-anchor="middle" x="243.5" y="-63.5" font-family="Helvetica,sans-Serif" font-size="10.00">stdint.h</text>
</a>
</g>
</g>
<!-- Node18&#45;&gt;Node19 -->
<g id="edge19" class="edge">
<title>Node18&#45;&gt;Node19</title>
<path fill="none" stroke="midnightblue" d="M243.5,-112.08C243.5,-105.01 243.5,-94.86 243.5,-85.99"/>
<polygon fill="midnightblue" stroke="midnightblue" points="247,-85.75 243.5,-75.75 240,-85.75 247,-85.75"/>
</g>
<!-- Node20&#45;&gt;Node18 -->
<g id="edge23" class="edge">
<title>Node20&#45;&gt;Node18</title>
<path fill="none" stroke="midnightblue" d="M411.81,-168.44C377.43,-159.16 322.42,-144.31 284.71,-134.13"/>
<polygon fill="midnightblue" stroke="midnightblue" points="285.61,-130.74 275.04,-131.52 283.78,-137.5 285.61,-130.74"/>
</g>
<!-- Node21 -->
<g id="node21" class="node">
<title>Node21</title>
<g id="a_node21"><a xlink:title=" ">
<polygon fill="white" stroke="#bfbfbf" points="342,-112.5 342,-131.5 485,-131.5 485,-112.5 342,-112.5"/>
<text text-anchor="middle" x="413.5" y="-119.5" font-family="Helvetica,sans-Serif" font-size="10.00">sml/graphics_wrapper/color.h</text>
</a>
</g>
</g>
<!-- Node20&#45;&gt;Node21 -->
<g id="edge21" class="edge">
<title>Node20&#45;&gt;Node21</title>
<path fill="none" stroke="midnightblue" d="M438.55,-168.08C434.4,-160.61 428.35,-149.72 423.23,-140.52"/>
<polygon fill="midnightblue" stroke="midnightblue" points="426.28,-138.79 418.36,-131.75 420.16,-142.19 426.28,-138.79"/>
</g>
<!-- Node22 -->
<g id="node22" class="node">
<title>Node22</title>
<g id="a_node22"><a xlink:title=" ">
<polygon fill="white" stroke="#bfbfbf" points="401.5,-56.5 401.5,-75.5 509.5,-75.5 509.5,-56.5 401.5,-56.5"/>
<text text-anchor="middle" x="455.5" y="-63.5" font-family="Helvetica,sans-Serif" font-size="10.00">sml/math/rectangle.h</text>
</a>
</g>
</g>
<!-- Node20&#45;&gt;Node22 -->
<g id="edge22" class="edge">
<title>Node20&#45;&gt;Node22</title>
<path fill="none" stroke="midnightblue" d="M401.21,-169.14C361.73,-159.81 311.77,-141.65 332.5,-112 346.12,-92.52 369.12,-81.44 391.58,-75.16"/>
<polygon fill="midnightblue" stroke="midnightblue" points="392.63,-78.5 401.48,-72.67 390.93,-71.71 392.63,-78.5"/>
</g>
<!-- Node23&#45;&gt;Node8 -->
<g id="edge25" class="edge">
<title>Node23&#45;&gt;Node8</title>
<path fill="none" stroke="midnightblue" d="M602.86,-168.48C608.44,-159.51 617.36,-144.92 624.5,-132 633.2,-116.27 642.4,-97.99 648.87,-84.82"/>
<polygon fill="midnightblue" stroke="midnightblue" points="652.18,-86.04 653.42,-75.51 645.89,-82.97 652.18,-86.04"/>
</g>
<!-- Node23&#45;&gt;Node22 -->
<g id="edge26" class="edge">
<title>Node23&#45;&gt;Node22</title>
<path fill="none" stroke="midnightblue" d="M589.34,-168.45C576.73,-155.46 551.46,-130.35 527.5,-112 512.33,-100.38 494.07,-89 479.73,-80.58"/>
<polygon fill="midnightblue" stroke="midnightblue" points="481.36,-77.48 470.95,-75.51 477.86,-83.54 481.36,-77.48"/>
</g>
<!-- Node24 -->
<g id="node24" class="node">
<title>Node24</title>
<g id="a_node24"><a xlink:href="fill_8h.html" target="_top" xlink:title=" ">
<polygon fill="white" stroke="black" points="580,-112.5 580,-131.5 615,-131.5 615,-112.5 580,-112.5"/>
<text text-anchor="middle" x="597.5" y="-119.5" font-family="Helvetica,sans-Serif" font-size="10.00">fill.h</text>
</a>
</g>
</g>
<!-- Node23&#45;&gt;Node24 -->
<g id="edge27" class="edge">
<title>Node23&#45;&gt;Node24</title>
<path fill="none" stroke="midnightblue" d="M597.5,-168.08C597.5,-161.01 597.5,-150.86 597.5,-141.99"/>
<polygon fill="midnightblue" stroke="midnightblue" points="601,-141.75 597.5,-131.75 594,-141.75 601,-141.75"/>
</g>
<!-- Node26 -->
<g id="node26" class="node">
<title>Node26</title>
<g id="a_node26"><a xlink:href="image_8h.html" target="_top" xlink:title=" ">
<polygon fill="white" stroke="black" points="1011,-112.5 1011,-131.5 1100,-131.5 1100,-112.5 1011,-112.5"/>
<text text-anchor="middle" x="1055.5" y="-119.5" font-family="Helvetica,sans-Serif" font-size="10.00">../media/image.h</text>
</a>
</g>
</g>
<!-- Node23&#45;&gt;Node26 -->
<g id="edge32" class="edge">
<title>Node23&#45;&gt;Node26</title>
<path fill="none" stroke="midnightblue" d="M651.67,-171.98C727.49,-164.74 869.81,-150.33 1000.78,-132.17"/>
<polygon fill="midnightblue" stroke="midnightblue" points="1001.58,-135.6 1011,-130.75 1000.61,-128.67 1001.58,-135.6"/>
</g>
<!-- Node24&#45;&gt;Node8 -->
<g id="edge28" class="edge">
<title>Node24&#45;&gt;Node8</title>
<path fill="none" stroke="midnightblue" d="M607.14,-112.32C616.01,-104.34 629.37,-92.31 640.11,-82.65"/>
<polygon fill="midnightblue" stroke="midnightblue" points="642.59,-85.13 647.68,-75.83 637.91,-79.92 642.59,-85.13"/>
</g>
<!-- Node24&#45;&gt;Node17 -->
<g id="edge31" class="edge">
<title>Node24&#45;&gt;Node17</title>
<path fill="none" stroke="midnightblue" d="M615.14,-118.42C628.2,-116.55 646.45,-113.99 662.5,-112 773.6,-98.2 901.94,-84.43 984.79,-75.83"/>
<polygon fill="midnightblue" stroke="midnightblue" points="985.33,-79.29 994.91,-74.78 984.61,-72.33 985.33,-79.29"/>
</g>
<!-- Node24&#45;&gt;Node22 -->
<g id="edge30" class="edge">
<title>Node24&#45;&gt;Node22</title>
<path fill="none" stroke="midnightblue" d="M579.8,-114.27C556.79,-105.52 516.18,-90.07 487.65,-79.23"/>
<polygon fill="midnightblue" stroke="midnightblue" points="488.71,-75.88 478.11,-75.6 486.22,-82.43 488.71,-75.88"/>
</g>
<!-- Node25 -->
<g id="node25" class="node">
<title>Node25</title>
<g id="a_node25"><a xlink:title=" ">
<polygon fill="white" stroke="#bfbfbf" points="528,-56.5 528,-75.5 617,-75.5 617,-56.5 528,-56.5"/>
<text text-anchor="middle" x="572.5" y="-63.5" font-family="Helvetica,sans-Serif" font-size="10.00">sml/math/vec2.h</text>
</a>
</g>
</g>
<!-- Node24&#45;&gt;Node25 -->
<g id="edge29" class="edge">
<title>Node24&#45;&gt;Node25</title>
<path fill="none" stroke="midnightblue" d="M593.37,-112.08C589.99,-104.77 585.08,-94.18 580.88,-85.1"/>
<polygon fill="midnightblue" stroke="midnightblue" points="583.93,-83.36 576.55,-75.75 577.58,-86.3 583.93,-83.36"/>
</g>
<!-- Node26&#45;&gt;Node17 -->
<g id="edge33" class="edge">
<title>Node26&#45;&gt;Node17</title>
<path fill="none" stroke="midnightblue" d="M1058.14,-112.08C1060.29,-104.85 1063.38,-94.41 1066.05,-85.4"/>
<polygon fill="midnightblue" stroke="midnightblue" points="1069.42,-86.33 1068.91,-75.75 1062.71,-84.34 1069.42,-86.33"/>
</g>
<!-- Node27&#45;&gt;Node18 -->
<g id="edge36" class="edge">
<title>Node27&#45;&gt;Node18</title>
<path fill="none" stroke="midnightblue" d="M215.4,-280.46C196.06,-273.92 174.07,-262.72 162.5,-244 138.2,-204.69 189.91,-159.82 221.47,-137.38"/>
<polygon fill="midnightblue" stroke="midnightblue" points="223.51,-140.22 229.75,-131.66 219.53,-134.46 223.51,-140.22"/>
</g>
<!-- Node28 -->
<g id="node28" class="node">
<title>Node28</title>
<g id="a_node28"><a xlink:title=" ">
<polygon fill="white" stroke="#bfbfbf" points="171.5,-224.5 171.5,-243.5 329.5,-243.5 329.5,-224.5 171.5,-224.5"/>
<text text-anchor="middle" x="250.5" y="-231.5" font-family="Helvetica,sans-Serif" font-size="10.00">sml/graphics_wrapper/renderer.h</text>
</a>
</g>
</g>
<!-- Node27&#45;&gt;Node28 -->
<g id="edge35" class="edge">
<title>Node27&#45;&gt;Node28</title>
<path fill="none" stroke="midnightblue" d="M252.17,-280.08C251.91,-273.01 251.53,-262.86 251.2,-253.99"/>
<polygon fill="midnightblue" stroke="midnightblue" points="254.69,-253.61 250.82,-243.75 247.7,-253.87 254.69,-253.61"/>
</g>
<!-- Node29&#45;&gt;Node10 -->
<g id="edge38" class="edge">
<title>Node29&#45;&gt;Node10</title>
<path fill="none" stroke="midnightblue" d="M712.7,-340.09C860.1,-326.87 1236.5,-287.93 1236.5,-235 1236.5,-235 1236.5,-235 1236.5,-177 1236.5,-144.95 1236.5,-107.64 1236.5,-85.75"/>
<polygon fill="midnightblue" stroke="midnightblue" points="1240,-85.56 1236.5,-75.56 1233,-85.56 1240,-85.56"/>
</g>
<!-- Node29&#45;&gt;Node15 -->
<g id="edge54" class="edge">
<title>Node29&#45;&gt;Node15</title>
<path fill="none" stroke="midnightblue" d="M694.68,-336.42C728.34,-328.66 777.36,-316 818.5,-300 945.16,-250.74 1086.6,-169.1 1140.74,-136.78"/>
<polygon fill="midnightblue" stroke="midnightblue" points="1142.75,-139.66 1149.53,-131.51 1139.15,-133.66 1142.75,-139.66"/>
</g>
<!-- Node29&#45;&gt;Node18 -->
<g id="edge53" class="edge">
<title>Node29&#45;&gt;Node18</title>
<path fill="none" stroke="midnightblue" d="M609.59,-336.5C573.89,-329.01 523.06,-316.68 480.5,-300 431.62,-280.84 419.35,-274.33 376.5,-244 330.03,-211.1 282.27,-163.66 258.64,-139.1"/>
<polygon fill="midnightblue" stroke="midnightblue" points="261.02,-136.53 251.59,-131.7 255.96,-141.36 261.02,-136.53"/>
</g>
<!-- Node29&#45;&gt;Node20 -->
<g id="edge52" class="edge">
<title>Node29&#45;&gt;Node20</title>
<path fill="none" stroke="midnightblue" d="M596.27,-339.84C564.54,-334.36 526.38,-323.1 499.5,-300 483.08,-285.89 460.76,-227.81 449.93,-197.54"/>
<polygon fill="midnightblue" stroke="midnightblue" points="453.11,-196.05 446.49,-187.78 446.51,-198.38 453.11,-196.05"/>
</g>
<!-- Node29&#45;&gt;Node23 -->
<g id="edge51" class="edge">
<title>Node29&#45;&gt;Node23</title>
<path fill="none" stroke="midnightblue" d="M672.64,-336.4C711.02,-317.05 794.25,-268.33 760.5,-224 748.25,-207.9 701.94,-196.1 661.8,-188.62"/>
<polygon fill="midnightblue" stroke="midnightblue" points="662.22,-185.14 651.76,-186.82 660.98,-192.03 662.22,-185.14"/>
</g>
<!-- Node29&#45;&gt;Node27 -->
<g id="edge55" class="edge">
<title>Node29&#45;&gt;Node27</title>
<path fill="none" stroke="midnightblue" d="M596.48,-337.21C516.73,-326.49 374.74,-307.42 300.59,-297.46"/>
<polygon fill="midnightblue" stroke="midnightblue" points="300.97,-293.98 290.59,-296.12 300.04,-300.92 300.97,-293.98"/>
</g>
<!-- Node30 -->
<g id="node30" class="node">
<title>Node30</title>
<g id="a_node30"><a xlink:href="image__view_8h.html" target="_top" xlink:title=" ">
<polygon fill="white" stroke="black" points="807.5,-224.5 807.5,-243.5 891.5,-243.5 891.5,-224.5 807.5,-224.5"/>
<text text-anchor="middle" x="849.5" y="-231.5" font-family="Helvetica,sans-Serif" font-size="10.00">../image_view.h</text>
</a>
</g>
</g>
<!-- Node29&#45;&gt;Node30 -->
<g id="edge39" class="edge">
<title>Node29&#45;&gt;Node30</title>
<path fill="none" stroke="midnightblue" d="M701.76,-336.44C730.07,-329.74 765.82,-318.39 793.5,-300 812.23,-287.56 828.34,-267.19 838.41,-252.57"/>
<polygon fill="midnightblue" stroke="midnightblue" points="841.52,-254.21 844.12,-243.93 835.68,-250.34 841.52,-254.21"/>
</g>
<!-- Node31 -->
<g id="node31" class="node">
<title>Node31</title>
<g id="a_node31"><a xlink:href="text_8h.html" target="_top" xlink:title=" ">
<polygon fill="white" stroke="black" points="635,-280.5 635,-299.5 720,-299.5 720,-280.5 635,-280.5"/>
<text text-anchor="middle" x="677.5" y="-287.5" font-family="Helvetica,sans-Serif" font-size="10.00">../shapes/text.h</text>
</a>
</g>
</g>
<!-- Node29&#45;&gt;Node31 -->
<g id="edge42" class="edge">
<title>Node29&#45;&gt;Node31</title>
<path fill="none" stroke="midnightblue" d="M658.3,-336.08C661.41,-328.77 665.92,-318.18 669.79,-309.1"/>
<polygon fill="midnightblue" stroke="midnightblue" points="673.07,-310.32 673.77,-299.75 666.63,-307.58 673.07,-310.32"/>
</g>
<!-- Node34 -->
<g id="node34" class="node">
<title>Node34</title>
<g id="a_node34"><a xlink:href="rectangle_8h.html" target="_top" xlink:title=" ">
<polygon fill="white" stroke="black" points="508.5,-280.5 508.5,-299.5 616.5,-299.5 616.5,-280.5 508.5,-280.5"/>
<text text-anchor="middle" x="562.5" y="-287.5" font-family="Helvetica,sans-Serif" font-size="10.00">../shapes/rectangle.h</text>
</a>
</g>
</g>
<!-- Node29&#45;&gt;Node34 -->
<g id="edge48" class="edge">
<title>Node29&#45;&gt;Node34</title>
<path fill="none" stroke="midnightblue" d="M639.72,-336.32C625.23,-327.82 602.93,-314.73 586.01,-304.8"/>
<polygon fill="midnightblue" stroke="midnightblue" points="587.64,-301.7 577.24,-299.65 584.1,-307.74 587.64,-301.7"/>
</g>
<!-- Node30&#45;&gt;Node5 -->
<g id="edge40" class="edge">
<title>Node30&#45;&gt;Node5</title>
<path fill="none" stroke="midnightblue" d="M835.52,-224.32C821.95,-215.9 801.12,-202.97 785.18,-193.07"/>
<polygon fill="midnightblue" stroke="midnightblue" points="786.79,-189.95 776.44,-187.65 783.09,-195.9 786.79,-189.95"/>
</g>
<!-- Node30&#45;&gt;Node26 -->
<g id="edge41" class="edge">
<title>Node30&#45;&gt;Node26</title>
<path fill="none" stroke="midnightblue" d="M865.66,-224.37C901.47,-205.25 987.65,-159.23 1030.48,-136.36"/>
<polygon fill="midnightblue" stroke="midnightblue" points="1032.24,-139.39 1039.41,-131.59 1028.94,-133.21 1032.24,-139.39"/>
</g>
<!-- Node32 -->
<g id="node32" class="node">
<title>Node32</title>
<g id="a_node32"><a xlink:title=" ">
<polygon fill="white" stroke="#bfbfbf" points="611.5,-224.5 611.5,-243.5 751.5,-243.5 751.5,-224.5 611.5,-224.5"/>
<text text-anchor="middle" x="681.5" y="-231.5" font-family="Helvetica,sans-Serif" font-size="10.00">sml/graphics_wrapper/text.h</text>
</a>
</g>
</g>
<!-- Node31&#45;&gt;Node32 -->
<g id="edge43" class="edge">
<title>Node31&#45;&gt;Node32</title>
<path fill="none" stroke="midnightblue" d="M678.16,-280.08C678.68,-273.01 679.44,-262.86 680.09,-253.99"/>
<polygon fill="midnightblue" stroke="midnightblue" points="683.6,-253.98 680.85,-243.75 676.62,-253.47 683.6,-253.98"/>
</g>
<!-- Node33 -->
<g id="node33" class="node">
<title>Node33</title>
<g id="a_node33"><a xlink:href="shape_8h.html" target="_top" xlink:title=" ">
<polygon fill="white" stroke="black" points="542,-224.5 542,-243.5 593,-243.5 593,-224.5 542,-224.5"/>
<text text-anchor="middle" x="567.5" y="-231.5" font-family="Helvetica,sans-Serif" font-size="10.00">shape.h</text>
</a>
</g>
</g>
<!-- Node31&#45;&gt;Node33 -->
<g id="edge44" class="edge">
<title>Node31&#45;&gt;Node33</title>
<path fill="none" stroke="midnightblue" d="M659.83,-280.32C642.11,-271.62 614.6,-258.12 594.21,-248.11"/>
<polygon fill="midnightblue" stroke="midnightblue" points="595.65,-244.92 585.13,-243.65 592.56,-251.2 595.65,-244.92"/>
</g>
<!-- Node33&#45;&gt;Node5 -->
<g id="edge45" class="edge">
<title>Node33&#45;&gt;Node5</title>
<path fill="none" stroke="midnightblue" d="M593.39,-225.83C626.2,-216.74 683.13,-200.98 721.78,-190.28"/>
<polygon fill="midnightblue" stroke="midnightblue" points="722.97,-193.58 731.67,-187.54 721.1,-186.83 722.97,-193.58"/>
</g>
<!-- Node33&#45;&gt;Node20 -->
<g id="edge47" class="edge">
<title>Node33&#45;&gt;Node20</title>
<path fill="none" stroke="midnightblue" d="M547.85,-224.44C527.54,-215.6 495.6,-201.69 472.4,-191.59"/>
<polygon fill="midnightblue" stroke="midnightblue" points="473.62,-188.3 463.06,-187.52 470.83,-194.72 473.62,-188.3"/>
</g>
<!-- Node33&#45;&gt;Node23 -->
<g id="edge46" class="edge">
<title>Node33&#45;&gt;Node23</title>
<path fill="none" stroke="midnightblue" d="M572.45,-224.08C576.6,-216.61 582.65,-205.72 587.77,-196.52"/>
<polygon fill="midnightblue" stroke="midnightblue" points="590.84,-198.19 592.64,-187.75 584.72,-194.79 590.84,-198.19"/>
</g>
<!-- Node34&#45;&gt;Node22 -->
<g id="edge49" class="edge">
<title>Node34&#45;&gt;Node22</title>
<path fill="none" stroke="midnightblue" d="M555.94,-280.46C549.48,-271.72 539.7,-257.52 533.5,-244 508.01,-188.39 523.87,-165.66 494.5,-112 488.69,-101.39 480.05,-91.08 472.37,-83.01"/>
<polygon fill="midnightblue" stroke="midnightblue" points="474.69,-80.38 465.16,-75.76 469.73,-85.32 474.69,-80.38"/>
</g>
<!-- Node34&#45;&gt;Node33 -->
<g id="edge50" class="edge">
<title>Node34&#45;&gt;Node33</title>
<path fill="none" stroke="midnightblue" d="M563.33,-280.08C563.98,-273.01 564.92,-262.86 565.74,-253.99"/>
<polygon fill="midnightblue" stroke="midnightblue" points="569.25,-254.03 566.69,-243.75 562.28,-253.39 569.25,-254.03"/>
</g>
<!-- Node35&#45;&gt;Node3 -->
<g id="edge57" class="edge">
<title>Node35&#45;&gt;Node3</title>
<path fill="none" stroke="midnightblue" d="M470.14,-392.44C439.4,-383.17 390.25,-368.34 356.5,-358.16"/>
<polygon fill="midnightblue" stroke="midnightblue" points="357.14,-354.7 346.56,-355.16 355.12,-361.4 357.14,-354.7"/>
</g>
<!-- Node36&#45;&gt;Node3 -->
<g id="edge59" class="edge">
<title>Node36&#45;&gt;Node3</title>
<path fill="none" stroke="midnightblue" d="M106.59,-392.44C154.91,-382.13 235.44,-364.94 282.39,-354.92"/>
<polygon fill="midnightblue" stroke="midnightblue" points="283.39,-358.29 292.43,-352.78 281.92,-351.44 283.39,-358.29"/>
</g>
<!-- Node37&#45;&gt;Node3 -->
<g id="edge61" class="edge">
<title>Node37&#45;&gt;Node3</title>
<path fill="none" stroke="midnightblue" d="M237.25,-392.32C252.82,-383.74 276.88,-370.49 294.96,-360.52"/>
<polygon fill="midnightblue" stroke="midnightblue" points="296.72,-363.55 303.79,-355.65 293.35,-357.42 296.72,-363.55"/>
</g>
<!-- Node38&#45;&gt;Node3 -->
<g id="edge63" class="edge">
<title>Node38&#45;&gt;Node3</title>
<path fill="none" stroke="midnightblue" d="M359.57,-392.08C352.65,-384.3 342.43,-372.8 334.05,-363.37"/>
<polygon fill="midnightblue" stroke="midnightblue" points="336.54,-360.9 327.28,-355.75 331.31,-365.55 336.54,-360.9"/>
</g>
</g>
</svg>
        <g id="navigator" transform="translate(0 0)" fill="#404254">
                <rect fill="#f2f5e9" fill-opacity="0.5" stroke="#606060" stroke-width=".5" x="0" y="0" width="60" height="60"/>
                <use id="zoomplus" xlink:href="#zoomPlus" x="17" y="9" onmousedown="handleZoom(evt,'in')"/>
                <use id="zoomminus" xlink:href="#zoomMin" x="42" y="9" onmousedown="handleZoom(evt,'out')"/>
                <use id="reset" xlink:href="#resetDef" x="30" y="36" onmousedown="handleReset()"/>
                <g id="arrowUp" xlink:href="#dirArrow" transform="translate(30 24)" onmousedown="handlePan(0,-1)">
                  <use xlink:href="#rim" fill="#404040">
                        <set attributeName="fill" to="#808080" begin="arrowUp.mouseover" end="arrowUp.mouseout"/>
                  </use>
                  <path fill="none" stroke="white" stroke-width="1.5" d="M0,-3.0v7 M-2.5,-0.5L0,-3.0L2.5,-0.5"/>
                </g>
                <g id="arrowRight" xlink:href="#dirArrow" transform="rotate(90) translate(36 -43)" onmousedown="handlePan(1,0)">
                  <use xlink:href="#rim" fill="#404040">
                        <set attributeName="fill" to="#808080" begin="arrowRight.mouseover" end="arrowRight.mouseout"/>
                  </use>
                  <path fill="none" stroke="white" stroke-width="1.5" d="M0,-3.0v7 M-2.5,-0.5L0,-3.0L2.5,-0.5"/>
                </g>
                <g id="arrowDown" xlink:href="#dirArrow" transform="rotate(180) translate(-30 -48)" onmousedown="handlePan(0,1)">
                  <use xlink:href="#rim" fill="#404040">
                        <set attributeName="fill" to="#808080" begin="arrowDown.mouseover" end="arrowDown.mouseout"/>
                  </use>
                  <path fill="none" stroke="white" stroke-width="1.5" d="M0,-3.0v7 M-2.5,-0.5L0,-3.0L2.5,-0.5"/>
                </g>
                <g id="arrowLeft" xlink:href="#dirArrow" transform="rotate(270) translate(-36 17)" onmousedown="handlePan(-1,0)">
                  <use xlink:href="#rim" fill="#404040">
                        <set attributeName="fill" to="#808080" begin="arrowLeft.mouseover" end="arrowLeft.mouseout"/>
                  </use>
                  <path fill="none" stroke="white" stroke-width="1.5" d="M0,-3.0v7 M-2.5,-0.5L0,-3.0L2.5,-0.5"/>
                </g>
        </g>
        <svg viewBox="0 0 15 15" width="100%" height="30px" preserveAspectRatio="xMaxYMin meet">
         <g id="arrow_out" transform="scale(0.3 0.3)">
          <a xlink:href="controls_8h__incl_org.svg" target="_base">
           <rect id="button" ry="5" rx="5" y="6" x="6" height="38" width="38"
                fill="#f2f5e9" fill-opacity="0.5" stroke="#606060" stroke-width="1.0"/>
           <path id="arrow"
             d="M 11.500037,31.436501 C 11.940474,20.09759 22.043105,11.32322 32.158766,21.979434 L 37.068811,17.246167 C 37.068811,17.246167 37.088388,32 37.088388,32 L 22.160133,31.978069 C 22.160133,31.978069 26.997745,27.140456 26.997745,27.140456 C 18.528582,18.264221 13.291696,25.230495 11.500037,31.436501 z"
             style="fill:#404040;"/>
          </a>
         </g>
        </svg>
</svg>
