<?xml version="1.0" encoding="UTF-8" standalone="no"?>
<!DOCTYPE svg PUBLIC "-//W3C//DTD SVG 1.1//EN"
 "http://www.w3.org/Graphics/SVG/1.1/DTD/svg11.dtd">
<!-- Generated by graphviz version 2.50.0 (20211204.2007)
 -->
<!-- Title: context_menu.cpp Pages: 1 -->
<!--zoomable 644 -->
<svg id="main" version="1.1" xmlns="http://www.w3.org/2000/svg" xmlns:xlink="http://www.w3.org/1999/xlink" xml:space="preserve" onload="init(evt)">
<style type="text/css"><![CDATA[
.edge:hover path { stroke: red; }
.edge:hover polygon { stroke: red; fill: red; }
]]></style>
<script type="text/javascript"><![CDATA[
var edges = document.getElementsByTagName('g');
if (edges && edges.length) {
  for (var i=0;i<edges.length;i++) {
    if (edges[i].id.substr(0,4)=='edge') {
      edges[i].setAttribute('class','edge');
    }
  }
}
]]></script>
        <defs>
                <circle id="rim" cx="0" cy="0" r="7"/>
                <circle id="rim2" cx="0" cy="0" r="3.5"/>
                <g id="zoomPlus">
                        <use xlink:href="#rim" fill="#404040">
                                <set attributeName="fill" to="#808080" begin="zoomplus.mouseover" end="zoomplus.mouseout"/>
                        </use>
                        <path d="M-4,0h8M0,-4v8" fill="none" stroke="white" stroke-width="1.5" pointer-events="none"/>
                </g>
                <g id="zoomMin">
                        <use xlink:href="#rim" fill="#404040">
                                <set attributeName="fill" to="#808080" begin="zoomminus.mouseover" end="zoomminus.mouseout"/>
                        </use>
                        <path d="M-4,0h8" fill="none" stroke="white" stroke-width="1.5" pointer-events="none"/>
                </g>
                <g id="dirArrow">
                        <path fill="none" stroke="white" stroke-width="1.5" d="M0,-3.0v7 M-2.5,-0.5L0,-3.0L2.5,-0.5"/>
                </g>
               <g id="resetDef">
                       <use xlink:href="#rim2" fill="#404040">
                               <set attributeName="fill" to="#808080" begin="reset.mouseover" end="reset.mouseout"/>
                       </use>
               </g>
        </defs>

<script type="text/javascript">
var viewWidth = 1288;
var viewHeight = 644;
var sectionId = 'dynsection-0';
</script>
<script xlink:href="svgpan.js"/>
<svg id="graph" class="graph">
<g id="viewport">
<title>context_menu.cpp</title>
<polygon fill="white" stroke="transparent" points="-4,4 -4,-640 1284,-640 1284,4 -4,4"/>
<!-- Node1 -->
<g id="node1" class="node">
<title>Node1</title>
<g id="a_node1"><a xlink:title=" ">
<polygon fill="#bfbfbf" stroke="black" points="447,-616.5 447,-635.5 544,-635.5 544,-616.5 447,-616.5"/>
<text text-anchor="middle" x="495.5" y="-623.5" font-family="Helvetica,sans-Serif" font-size="10.00">context_menu.cpp</text>
</a>
</g>
</g>
<!-- Node2 -->
<g id="node2" class="node">
<title>Node2</title>
<g id="a_node2"><a xlink:href="scene_8h.html" target="_top" xlink:title=" ">
<polygon fill="white" stroke="black" points="369.5,-560.5 369.5,-579.5 449.5,-579.5 449.5,-560.5 369.5,-560.5"/>
<text text-anchor="middle" x="409.5" y="-567.5" font-family="Helvetica,sans-Serif" font-size="10.00">scene/scene.h</text>
</a>
</g>
</g>
<!-- Node1&#45;&gt;Node2 -->
<g id="edge1" class="edge">
<title>Node1&#45;&gt;Node2</title>
<path fill="none" stroke="midnightblue" d="M481.68,-616.32C468.27,-607.9 447.68,-594.97 431.91,-585.07"/>
<polygon fill="midnightblue" stroke="midnightblue" points="433.61,-582.01 423.28,-579.65 429.89,-587.94 433.61,-582.01"/>
</g>
<!-- Node12 -->
<g id="node12" class="node">
<title>Node12</title>
<g id="a_node12"><a xlink:href="button_8h.html" target="_top" xlink:title=" ">
<polygon fill="white" stroke="black" points="446.5,-392.5 446.5,-411.5 544.5,-411.5 544.5,-392.5 446.5,-392.5"/>
<text text-anchor="middle" x="495.5" y="-399.5" font-family="Helvetica,sans-Serif" font-size="10.00">../controls/button.h</text>
</a>
</g>
</g>
<!-- Node1&#45;&gt;Node12 -->
<g id="edge67" class="edge">
<title>Node1&#45;&gt;Node12</title>
<path fill="none" stroke="midnightblue" d="M495.5,-616.3C495.5,-583.63 495.5,-467.87 495.5,-421.96"/>
<polygon fill="midnightblue" stroke="midnightblue" points="499,-421.88 495.5,-411.88 492,-421.88 499,-421.88"/>
</g>
<!-- Node37 -->
<g id="node37" class="node">
<title>Node37</title>
<g id="a_node37"><a xlink:href="context__menu_8h.html" target="_top" xlink:title=" ">
<polygon fill="white" stroke="black" points="523.5,-448.5 523.5,-467.5 609.5,-467.5 609.5,-448.5 523.5,-448.5"/>
<text text-anchor="middle" x="566.5" y="-455.5" font-family="Helvetica,sans-Serif" font-size="10.00">context_menu.h</text>
</a>
</g>
</g>
<!-- Node1&#45;&gt;Node37 -->
<g id="edge66" class="edge">
<title>Node1&#45;&gt;Node37</title>
<path fill="none" stroke="midnightblue" d="M499.32,-616.08C510.54,-589.83 543.6,-512.55 558.75,-477.12"/>
<polygon fill="midnightblue" stroke="midnightblue" points="562.12,-478.14 562.84,-467.57 555.68,-475.39 562.12,-478.14"/>
</g>
<!-- Node3 -->
<g id="node3" class="node">
<title>Node3</title>
<g id="a_node3"><a xlink:href="gui__event__dispatching_8h.html" target="_top" xlink:title=" ">
<polygon fill="white" stroke="black" points="238,-112.5 238,-131.5 401,-131.5 401,-112.5 238,-112.5"/>
<text text-anchor="middle" x="319.5" y="-119.5" font-family="Helvetica,sans-Serif" font-size="10.00">../events/gui_event_dispatching.h</text>
</a>
</g>
</g>
<!-- Node2&#45;&gt;Node3 -->
<g id="edge2" class="edge">
<title>Node2&#45;&gt;Node3</title>
<path fill="none" stroke="midnightblue" d="M369.87,-560.47C321.91,-547.54 247.5,-517.98 247.5,-459 247.5,-459 247.5,-459 247.5,-233 247.5,-193.94 279.68,-157.94 301.01,-138.37"/>
<polygon fill="midnightblue" stroke="midnightblue" points="303.38,-140.94 308.56,-131.7 298.75,-135.7 303.38,-140.94"/>
</g>
<!-- Node11 -->
<g id="node11" class="node">
<title>Node11</title>
<g id="a_node11"><a xlink:href="menu__bar_8h.html" target="_top" xlink:title=" ">
<polygon fill="white" stroke="black" points="352,-504.5 352,-523.5 467,-523.5 467,-504.5 352,-504.5"/>
<text text-anchor="middle" x="409.5" y="-511.5" font-family="Helvetica,sans-Serif" font-size="10.00">containers/menu_bar.h</text>
</a>
</g>
</g>
<!-- Node2&#45;&gt;Node11 -->
<g id="edge11" class="edge">
<title>Node2&#45;&gt;Node11</title>
<path fill="none" stroke="midnightblue" d="M409.5,-560.08C409.5,-553.01 409.5,-542.86 409.5,-533.99"/>
<polygon fill="midnightblue" stroke="midnightblue" points="413,-533.75 409.5,-523.75 406,-533.75 413,-533.75"/>
</g>
<!-- Node4 -->
<g id="node4" class="node">
<title>Node4</title>
<g id="a_node4"><a xlink:title=" ">
<polygon fill="white" stroke="#bfbfbf" points="988.5,-56.5 988.5,-75.5 1032.5,-75.5 1032.5,-56.5 988.5,-56.5"/>
<text text-anchor="middle" x="1010.5" y="-63.5" font-family="Helvetica,sans-Serif" font-size="10.00">vector</text>
</a>
</g>
</g>
<!-- Node3&#45;&gt;Node4 -->
<g id="edge3" class="edge">
<title>Node3&#45;&gt;Node4</title>
<path fill="none" stroke="midnightblue" d="M401.34,-112.8C404.43,-112.52 407.49,-112.26 410.5,-112 636.03,-92.86 692.96,-95.02 918.5,-76 938.23,-74.34 960.32,-72.19 977.9,-70.4"/>
<polygon fill="midnightblue" stroke="midnightblue" points="978.61,-73.85 988.21,-69.35 977.9,-66.89 978.61,-73.85"/>
</g>
<!-- Node5 -->
<g id="node5" class="node">
<title>Node5</title>
<g id="a_node5"><a xlink:title=" ">
<polygon fill="white" stroke="#bfbfbf" points="244,-56.5 244,-75.5 399,-75.5 399,-56.5 244,-56.5"/>
<text text-anchor="middle" x="321.5" y="-63.5" font-family="Helvetica,sans-Serif" font-size="10.00">sml/events/event_dispatching.h</text>
</a>
</g>
</g>
<!-- Node3&#45;&gt;Node5 -->
<g id="edge4" class="edge">
<title>Node3&#45;&gt;Node5</title>
<path fill="none" stroke="midnightblue" d="M319.83,-112.08C320.09,-105.01 320.47,-94.86 320.8,-85.99"/>
<polygon fill="midnightblue" stroke="midnightblue" points="324.3,-85.87 321.18,-75.75 317.31,-85.61 324.3,-85.87"/>
</g>
<!-- Node6 -->
<g id="node6" class="node">
<title>Node6</title>
<g id="a_node6"><a xlink:title=" ">
<polygon fill="white" stroke="#bfbfbf" points="0,-56.5 0,-75.5 141,-75.5 141,-56.5 0,-56.5"/>
<text text-anchor="middle" x="70.5" y="-63.5" font-family="Helvetica,sans-Serif" font-size="10.00">sml/events/listener_notifier.h</text>
</a>
</g>
</g>
<!-- Node3&#45;&gt;Node6 -->
<g id="edge5" class="edge">
<title>Node3&#45;&gt;Node6</title>
<path fill="none" stroke="midnightblue" d="M280.05,-112.44C236.61,-103.02 166.71,-87.87 119.72,-77.68"/>
<polygon fill="midnightblue" stroke="midnightblue" points="120.28,-74.22 109.77,-75.52 118.8,-81.06 120.28,-74.22"/>
</g>
<!-- Node7 -->
<g id="node7" class="node">
<title>Node7</title>
<g id="a_node7"><a xlink:title=" ">
<polygon fill="white" stroke="#bfbfbf" points="332,-0.5 332,-19.5 475,-19.5 475,-0.5 332,-0.5"/>
<text text-anchor="middle" x="403.5" y="-7.5" font-family="Helvetica,sans-Serif" font-size="10.00">sml/events/system_events.h</text>
</a>
</g>
</g>
<!-- Node3&#45;&gt;Node7 -->
<g id="edge6" class="edge">
<title>Node3&#45;&gt;Node7</title>
<path fill="none" stroke="midnightblue" d="M356.2,-112.35C375.33,-105.77 397.07,-94.58 408.5,-76 417.01,-62.15 414.4,-43.39 410.47,-29.58"/>
<polygon fill="midnightblue" stroke="midnightblue" points="413.68,-28.15 407.22,-19.76 407.04,-30.35 413.68,-28.15"/>
</g>
<!-- Node8 -->
<g id="node8" class="node">
<title>Node8</title>
<g id="a_node8"><a xlink:href="gui__event_8h.html" target="_top" xlink:title=" ">
<polygon fill="white" stroke="black" points="159,-56.5 159,-75.5 226,-75.5 226,-56.5 159,-56.5"/>
<text text-anchor="middle" x="192.5" y="-63.5" font-family="Helvetica,sans-Serif" font-size="10.00">gui_event.h</text>
</a>
</g>
</g>
<!-- Node3&#45;&gt;Node8 -->
<g id="edge7" class="edge">
<title>Node3&#45;&gt;Node8</title>
<path fill="none" stroke="midnightblue" d="M299.38,-112.44C278.48,-103.56 245.57,-89.56 221.78,-79.45"/>
<polygon fill="midnightblue" stroke="midnightblue" points="223.1,-76.21 212.53,-75.52 220.36,-82.65 223.1,-76.21"/>
</g>
<!-- Node8&#45;&gt;Node7 -->
<g id="edge9" class="edge">
<title>Node8&#45;&gt;Node7</title>
<path fill="none" stroke="midnightblue" d="M225.93,-56.44C262.36,-47.12 320.73,-32.18 360.53,-22"/>
<polygon fill="midnightblue" stroke="midnightblue" points="361.4,-25.39 370.22,-19.52 359.67,-18.61 361.4,-25.39"/>
</g>
<!-- Node9 -->
<g id="node9" class="node">
<title>Node9</title>
<g id="a_node9"><a xlink:title=" ">
<polygon fill="white" stroke="#bfbfbf" points="166.5,-0.5 166.5,-19.5 266.5,-19.5 266.5,-0.5 166.5,-0.5"/>
<text text-anchor="middle" x="216.5" y="-7.5" font-family="Helvetica,sans-Serif" font-size="10.00">sml/events/event.h</text>
</a>
</g>
</g>
<!-- Node8&#45;&gt;Node9 -->
<g id="edge8" class="edge">
<title>Node8&#45;&gt;Node9</title>
<path fill="none" stroke="midnightblue" d="M196.46,-56.08C199.71,-48.77 204.42,-38.18 208.45,-29.1"/>
<polygon fill="midnightblue" stroke="midnightblue" points="211.75,-30.31 212.61,-19.75 205.35,-27.47 211.75,-30.31"/>
</g>
<!-- Node10 -->
<g id="node10" class="node">
<title>Node10</title>
<g id="a_node10"><a xlink:title=" ">
<polygon fill="white" stroke="#bfbfbf" points="71,-0.5 71,-19.5 148,-19.5 148,-0.5 71,-0.5"/>
<text text-anchor="middle" x="109.5" y="-7.5" font-family="Helvetica,sans-Serif" font-size="10.00">sml/sml_log.h</text>
</a>
</g>
</g>
<!-- Node8&#45;&gt;Node10 -->
<g id="edge10" class="edge">
<title>Node8&#45;&gt;Node10</title>
<path fill="none" stroke="midnightblue" d="M179.16,-56.32C166.34,-47.98 146.72,-35.21 131.56,-25.35"/>
<polygon fill="midnightblue" stroke="midnightblue" points="133.09,-22.17 122.8,-19.65 129.28,-28.04 133.09,-22.17"/>
</g>
<!-- Node11&#45;&gt;Node12 -->
<g id="edge12" class="edge">
<title>Node11&#45;&gt;Node12</title>
<path fill="none" stroke="midnightblue" d="M416.25,-504.37C430.5,-486.14 463.89,-443.43 482.46,-419.68"/>
<polygon fill="midnightblue" stroke="midnightblue" points="485.38,-421.63 488.78,-411.59 479.87,-417.31 485.38,-421.63"/>
</g>
<!-- Node11&#45;&gt;Node37 -->
<g id="edge59" class="edge">
<title>Node11&#45;&gt;Node37</title>
<path fill="none" stroke="midnightblue" d="M434.38,-504.44C460.79,-495.36 502.72,-480.94 532.24,-470.78"/>
<polygon fill="midnightblue" stroke="midnightblue" points="533.42,-474.08 541.74,-467.52 531.14,-467.46 533.42,-474.08"/>
</g>
<!-- Node13 -->
<g id="node13" class="node">
<title>Node13</title>
<g id="a_node13"><a xlink:href="control_8h.html" target="_top" xlink:title=" ">
<polygon fill="white" stroke="black" points="379.5,-280.5 379.5,-299.5 433.5,-299.5 433.5,-280.5 379.5,-280.5"/>
<text text-anchor="middle" x="406.5" y="-287.5" font-family="Helvetica,sans-Serif" font-size="10.00">control.h</text>
</a>
</g>
</g>
<!-- Node12&#45;&gt;Node13 -->
<g id="edge13" class="edge">
<title>Node12&#45;&gt;Node13</title>
<path fill="none" stroke="midnightblue" d="M488.52,-392.37C473.76,-374.14 439.21,-331.43 419.99,-307.68"/>
<polygon fill="midnightblue" stroke="midnightblue" points="422.46,-305.16 413.45,-299.59 417.02,-309.57 422.46,-305.16"/>
</g>
<!-- Node31 -->
<g id="node31" class="node">
<title>Node31</title>
<g id="a_node31"><a xlink:href="default__skins_8h.html" target="_top" xlink:title=" ">
<polygon fill="white" stroke="black" points="525.5,-336.5 525.5,-355.5 641.5,-355.5 641.5,-336.5 525.5,-336.5"/>
<text text-anchor="middle" x="583.5" y="-343.5" font-family="Helvetica,sans-Serif" font-size="10.00">../style/default_skins.h</text>
</a>
</g>
</g>
<!-- Node12&#45;&gt;Node31 -->
<g id="edge40" class="edge">
<title>Node12&#45;&gt;Node31</title>
<path fill="none" stroke="midnightblue" d="M509.64,-392.32C523.37,-383.9 544.44,-370.97 560.56,-361.07"/>
<polygon fill="midnightblue" stroke="midnightblue" points="562.7,-363.87 569.4,-355.65 559.04,-357.9 562.7,-363.87"/>
</g>
<!-- Node14 -->
<g id="node14" class="node">
<title>Node14</title>
<g id="a_node14"><a xlink:href="parent_8h.html" target="_top" xlink:title=" ">
<polygon fill="white" stroke="black" points="693,-224.5 693,-243.5 754,-243.5 754,-224.5 693,-224.5"/>
<text text-anchor="middle" x="723.5" y="-231.5" font-family="Helvetica,sans-Serif" font-size="10.00">../parent.h</text>
</a>
</g>
</g>
<!-- Node13&#45;&gt;Node14 -->
<g id="edge14" class="edge">
<title>Node13&#45;&gt;Node14</title>
<path fill="none" stroke="midnightblue" d="M433.73,-285.13C481.83,-278.18 585.21,-262.71 682.92,-244.01"/>
<polygon fill="midnightblue" stroke="midnightblue" points="683.81,-247.4 692.96,-242.07 682.48,-240.53 683.81,-247.4"/>
</g>
<!-- Node29 -->
<g id="node29" class="node">
<title>Node29</title>
<g id="a_node29"><a xlink:href="skin_8h.html" target="_top" xlink:title=" ">
<polygon fill="white" stroke="black" points="361.5,-224.5 361.5,-243.5 437.5,-243.5 437.5,-224.5 361.5,-224.5"/>
<text text-anchor="middle" x="399.5" y="-231.5" font-family="Helvetica,sans-Serif" font-size="10.00">../style/skin.h</text>
</a>
</g>
</g>
<!-- Node13&#45;&gt;Node29 -->
<g id="edge37" class="edge">
<title>Node13&#45;&gt;Node29</title>
<path fill="none" stroke="midnightblue" d="M405.34,-280.08C404.42,-272.93 403.08,-262.64 401.92,-253.69"/>
<polygon fill="midnightblue" stroke="midnightblue" points="405.39,-253.22 400.63,-243.75 398.45,-254.12 405.39,-253.22"/>
</g>
<!-- Node15 -->
<g id="node15" class="node">
<title>Node15</title>
<g id="a_node15"><a xlink:href="component_8h.html" target="_top" xlink:title=" ">
<polygon fill="white" stroke="black" points="606,-168.5 606,-187.5 679,-187.5 679,-168.5 606,-168.5"/>
<text text-anchor="middle" x="642.5" y="-175.5" font-family="Helvetica,sans-Serif" font-size="10.00">component.h</text>
</a>
</g>
</g>
<!-- Node14&#45;&gt;Node15 -->
<g id="edge15" class="edge">
<title>Node14&#45;&gt;Node15</title>
<path fill="none" stroke="midnightblue" d="M710.49,-224.32C697.97,-215.98 678.82,-203.21 664.03,-193.35"/>
<polygon fill="midnightblue" stroke="midnightblue" points="665.74,-190.29 655.48,-187.65 661.86,-196.11 665.74,-190.29"/>
</g>
<!-- Node20 -->
<g id="node20" class="node">
<title>Node20</title>
<g id="a_node20"><a xlink:href="insets_8h.html" target="_top" xlink:title=" ">
<polygon fill="white" stroke="black" points="419.5,-112.5 419.5,-131.5 503.5,-131.5 503.5,-112.5 419.5,-112.5"/>
<text text-anchor="middle" x="461.5" y="-119.5" font-family="Helvetica,sans-Serif" font-size="10.00">../paint/insets.h</text>
</a>
</g>
</g>
<!-- Node14&#45;&gt;Node20 -->
<g id="edge21" class="edge">
<title>Node14&#45;&gt;Node20</title>
<path fill="none" stroke="midnightblue" d="M697.14,-224.47C671.44,-215.94 631.38,-202.1 597.5,-188 558.34,-171.7 514.24,-149.98 487.17,-136.24"/>
<polygon fill="midnightblue" stroke="midnightblue" points="488.5,-132.99 478,-131.57 485.32,-139.23 488.5,-132.99"/>
</g>
<!-- Node22 -->
<g id="node22" class="node">
<title>Node22</title>
<g id="a_node22"><a xlink:href="border_8h.html" target="_top" xlink:title=" ">
<polygon fill="white" stroke="black" points="909.5,-168.5 909.5,-187.5 993.5,-187.5 993.5,-168.5 909.5,-168.5"/>
<text text-anchor="middle" x="951.5" y="-175.5" font-family="Helvetica,sans-Serif" font-size="10.00">../paint/border.h</text>
</a>
</g>
</g>
<!-- Node14&#45;&gt;Node22 -->
<g id="edge23" class="edge">
<title>Node14&#45;&gt;Node22</title>
<path fill="none" stroke="midnightblue" d="M754.25,-225.72C793.12,-216.51 860.39,-200.58 905.42,-189.91"/>
<polygon fill="midnightblue" stroke="midnightblue" points="906.31,-193.3 915.23,-187.59 904.69,-186.49 906.31,-193.3"/>
</g>
<!-- Node25 -->
<g id="node25" class="node">
<title>Node25</title>
<g id="a_node25"><a xlink:href="background_8h.html" target="_top" xlink:title=" ">
<polygon fill="white" stroke="black" points="1012.5,-168.5 1012.5,-187.5 1120.5,-187.5 1120.5,-168.5 1012.5,-168.5"/>
<text text-anchor="middle" x="1066.5" y="-175.5" font-family="Helvetica,sans-Serif" font-size="10.00">../paint/background.h</text>
</a>
</g>
</g>
<!-- Node14&#45;&gt;Node25 -->
<g id="edge27" class="edge">
<title>Node14&#45;&gt;Node25</title>
<path fill="none" stroke="midnightblue" d="M754.03,-225.89C757.22,-225.22 760.42,-224.57 763.5,-224 786.46,-219.72 920.59,-200.12 1002.51,-188.25"/>
<polygon fill="midnightblue" stroke="midnightblue" points="1003.08,-191.7 1012.47,-186.8 1002.07,-184.77 1003.08,-191.7"/>
</g>
<!-- Node15&#45;&gt;Node3 -->
<g id="edge17" class="edge">
<title>Node15&#45;&gt;Node3</title>
<path fill="none" stroke="midnightblue" d="M605.76,-170.86C550.87,-161.68 446.82,-144.29 380.44,-133.19"/>
<polygon fill="midnightblue" stroke="midnightblue" points="380.96,-129.73 370.52,-131.53 379.81,-136.63 380.96,-129.73"/>
</g>
<!-- Node16 -->
<g id="node16" class="node">
<title>Node16</title>
<g id="a_node16"><a xlink:title=" ">
<polygon fill="white" stroke="#bfbfbf" points="629.5,-112.5 629.5,-131.5 769.5,-131.5 769.5,-112.5 629.5,-112.5"/>
<text text-anchor="middle" x="699.5" y="-119.5" font-family="Helvetica,sans-Serif" font-size="10.00">sml/sml_graphics_wrapper.h</text>
</a>
</g>
</g>
<!-- Node15&#45;&gt;Node16 -->
<g id="edge16" class="edge">
<title>Node15&#45;&gt;Node16</title>
<path fill="none" stroke="midnightblue" d="M651.66,-168.32C660,-160.42 672.53,-148.55 682.68,-138.94"/>
<polygon fill="midnightblue" stroke="midnightblue" points="685.32,-141.25 690.18,-131.83 680.51,-136.17 685.32,-141.25"/>
</g>
<!-- Node17 -->
<g id="node17" class="node">
<title>Node17</title>
<g id="a_node17"><a xlink:href="shadow_8h.html" target="_top" xlink:title=" ">
<polygon fill="white" stroke="black" points="521.5,-112.5 521.5,-131.5 611.5,-131.5 611.5,-112.5 521.5,-112.5"/>
<text text-anchor="middle" x="566.5" y="-119.5" font-family="Helvetica,sans-Serif" font-size="10.00">../paint/shadow.h</text>
</a>
</g>
</g>
<!-- Node15&#45;&gt;Node17 -->
<g id="edge18" class="edge">
<title>Node15&#45;&gt;Node17</title>
<path fill="none" stroke="midnightblue" d="M630.29,-168.32C618.72,-160.11 601.12,-147.6 587.34,-137.81"/>
<polygon fill="midnightblue" stroke="midnightblue" points="589.11,-134.77 578.93,-131.83 585.06,-140.48 589.11,-134.77"/>
</g>
<!-- Node18 -->
<g id="node18" class="node">
<title>Node18</title>
<g id="a_node18"><a xlink:title=" ">
<polygon fill="white" stroke="#bfbfbf" points="525,-56.5 525,-75.5 608,-75.5 608,-56.5 525,-56.5"/>
<text text-anchor="middle" x="566.5" y="-63.5" font-family="Helvetica,sans-Serif" font-size="10.00">sml/math/blur.h</text>
</a>
</g>
</g>
<!-- Node17&#45;&gt;Node18 -->
<g id="edge19" class="edge">
<title>Node17&#45;&gt;Node18</title>
<path fill="none" stroke="midnightblue" d="M566.5,-112.08C566.5,-105.01 566.5,-94.86 566.5,-85.99"/>
<polygon fill="midnightblue" stroke="midnightblue" points="570,-85.75 566.5,-75.75 563,-85.75 570,-85.75"/>
</g>
<!-- Node19 -->
<g id="node19" class="node">
<title>Node19</title>
<g id="a_node19"><a xlink:title=" ">
<polygon fill="white" stroke="#bfbfbf" points="756,-56.5 756,-75.5 909,-75.5 909,-56.5 756,-56.5"/>
<text text-anchor="middle" x="832.5" y="-63.5" font-family="Helvetica,sans-Serif" font-size="10.00">sml/graphics_wrapper/texture.h</text>
</a>
</g>
</g>
<!-- Node17&#45;&gt;Node19 -->
<g id="edge20" class="edge">
<title>Node17&#45;&gt;Node19</title>
<path fill="none" stroke="midnightblue" d="M608.65,-112.44C655.25,-102.98 730.34,-87.74 780.55,-77.55"/>
<polygon fill="midnightblue" stroke="midnightblue" points="781.44,-80.94 790.55,-75.52 780.05,-74.08 781.44,-80.94"/>
</g>
<!-- Node21 -->
<g id="node21" class="node">
<title>Node21</title>
<g id="a_node21"><a xlink:title=" ">
<polygon fill="white" stroke="#bfbfbf" points="456,-56.5 456,-75.5 505,-75.5 505,-56.5 456,-56.5"/>
<text text-anchor="middle" x="480.5" y="-63.5" font-family="Helvetica,sans-Serif" font-size="10.00">stdint.h</text>
</a>
</g>
</g>
<!-- Node20&#45;&gt;Node21 -->
<g id="edge22" class="edge">
<title>Node20&#45;&gt;Node21</title>
<path fill="none" stroke="midnightblue" d="M464.64,-112.08C467.18,-104.85 470.86,-94.41 474.03,-85.4"/>
<polygon fill="midnightblue" stroke="midnightblue" points="477.4,-86.35 477.42,-75.75 470.8,-84.02 477.4,-86.35"/>
</g>
<!-- Node22&#45;&gt;Node20 -->
<g id="edge26" class="edge">
<title>Node22&#45;&gt;Node20</title>
<path fill="none" stroke="midnightblue" d="M909.31,-173.7C832.61,-167.48 665.03,-152.86 513.71,-132.08"/>
<polygon fill="midnightblue" stroke="midnightblue" points="514.15,-128.61 503.76,-130.7 513.19,-135.54 514.15,-128.61"/>
</g>
<!-- Node23 -->
<g id="node23" class="node">
<title>Node23</title>
<g id="a_node23"><a xlink:title=" ">
<polygon fill="white" stroke="#bfbfbf" points="895,-112.5 895,-131.5 1038,-131.5 1038,-112.5 895,-112.5"/>
<text text-anchor="middle" x="966.5" y="-119.5" font-family="Helvetica,sans-Serif" font-size="10.00">sml/graphics_wrapper/color.h</text>
</a>
</g>
</g>
<!-- Node22&#45;&gt;Node23 -->
<g id="edge24" class="edge">
<title>Node22&#45;&gt;Node23</title>
<path fill="none" stroke="midnightblue" d="M953.98,-168.08C955.99,-160.85 958.89,-150.41 961.39,-141.4"/>
<polygon fill="midnightblue" stroke="midnightblue" points="964.76,-142.32 964.07,-131.75 958.02,-140.45 964.76,-142.32"/>
</g>
<!-- Node24 -->
<g id="node24" class="node">
<title>Node24</title>
<g id="a_node24"><a xlink:title=" ">
<polygon fill="white" stroke="#bfbfbf" points="1158.5,-56.5 1158.5,-75.5 1266.5,-75.5 1266.5,-56.5 1158.5,-56.5"/>
<text text-anchor="middle" x="1212.5" y="-63.5" font-family="Helvetica,sans-Serif" font-size="10.00">sml/math/rectangle.h</text>
</a>
</g>
</g>
<!-- Node22&#45;&gt;Node24 -->
<g id="edge25" class="edge">
<title>Node22&#45;&gt;Node24</title>
<path fill="none" stroke="midnightblue" d="M993.59,-169.41C1040.92,-160.44 1114.44,-145.09 1139.5,-132 1162.89,-119.79 1184.8,-98.43 1198.39,-83.54"/>
<polygon fill="midnightblue" stroke="midnightblue" points="1201.38,-85.45 1205.39,-75.65 1196.14,-80.81 1201.38,-85.45"/>
</g>
<!-- Node25&#45;&gt;Node4 -->
<g id="edge28" class="edge">
<title>Node25&#45;&gt;Node4</title>
<path fill="none" stroke="midnightblue" d="M1065.09,-168.16C1062.77,-155.24 1057.39,-130.71 1047.5,-112 1041.9,-101.4 1033.56,-90.98 1026.21,-82.83"/>
<polygon fill="midnightblue" stroke="midnightblue" points="1028.73,-80.41 1019.33,-75.52 1023.64,-85.2 1028.73,-80.41"/>
</g>
<!-- Node25&#45;&gt;Node24 -->
<g id="edge29" class="edge">
<title>Node25&#45;&gt;Node24</title>
<path fill="none" stroke="midnightblue" d="M1100.46,-168.45C1122.84,-161.49 1151.73,-149.86 1172.5,-132 1187.37,-119.21 1198.42,-99.47 1205.1,-85.1"/>
<polygon fill="midnightblue" stroke="midnightblue" points="1208.38,-86.33 1209.17,-75.76 1201.96,-83.52 1208.38,-86.33"/>
</g>
<!-- Node26 -->
<g id="node26" class="node">
<title>Node26</title>
<g id="a_node26"><a xlink:href="fill_8h.html" target="_top" xlink:title=" ">
<polygon fill="white" stroke="black" points="1095,-112.5 1095,-131.5 1130,-131.5 1130,-112.5 1095,-112.5"/>
<text text-anchor="middle" x="1112.5" y="-119.5" font-family="Helvetica,sans-Serif" font-size="10.00">fill.h</text>
</a>
</g>
</g>
<!-- Node25&#45;&gt;Node26 -->
<g id="edge30" class="edge">
<title>Node25&#45;&gt;Node26</title>
<path fill="none" stroke="midnightblue" d="M1074.1,-168.08C1080.73,-160.3 1090.52,-148.8 1098.56,-139.37"/>
<polygon fill="midnightblue" stroke="midnightblue" points="1101.23,-141.63 1105.05,-131.75 1095.9,-137.09 1101.23,-141.63"/>
</g>
<!-- Node28 -->
<g id="node28" class="node">
<title>Node28</title>
<g id="a_node28"><a xlink:href="image_8h.html" target="_top" xlink:title=" ">
<polygon fill="white" stroke="black" points="788,-112.5 788,-131.5 877,-131.5 877,-112.5 788,-112.5"/>
<text text-anchor="middle" x="832.5" y="-119.5" font-family="Helvetica,sans-Serif" font-size="10.00">../media/image.h</text>
</a>
</g>
</g>
<!-- Node25&#45;&gt;Node28 -->
<g id="edge35" class="edge">
<title>Node25&#45;&gt;Node28</title>
<path fill="none" stroke="midnightblue" d="M1029.42,-168.44C988.77,-159.06 923.47,-143.99 879.32,-133.8"/>
<polygon fill="midnightblue" stroke="midnightblue" points="879.94,-130.35 869.4,-131.52 878.36,-137.18 879.94,-130.35"/>
</g>
<!-- Node26&#45;&gt;Node4 -->
<g id="edge31" class="edge">
<title>Node26&#45;&gt;Node4</title>
<path fill="none" stroke="midnightblue" d="M1096.11,-112.32C1079.83,-103.7 1054.63,-90.36 1035.78,-80.39"/>
<polygon fill="midnightblue" stroke="midnightblue" points="1037.32,-77.24 1026.85,-75.65 1034.05,-83.43 1037.32,-77.24"/>
</g>
<!-- Node26&#45;&gt;Node19 -->
<g id="edge34" class="edge">
<title>Node26&#45;&gt;Node19</title>
<path fill="none" stroke="midnightblue" d="M1094.98,-117.62C1054.07,-109.73 950.85,-89.82 886.71,-77.46"/>
<polygon fill="midnightblue" stroke="midnightblue" points="887.25,-73.99 876.77,-75.54 885.93,-80.87 887.25,-73.99"/>
</g>
<!-- Node26&#45;&gt;Node24 -->
<g id="edge33" class="edge">
<title>Node26&#45;&gt;Node24</title>
<path fill="none" stroke="midnightblue" d="M1128.57,-112.32C1144.46,-103.74 1169.01,-90.49 1187.46,-80.52"/>
<polygon fill="midnightblue" stroke="midnightblue" points="1189.34,-83.49 1196.47,-75.65 1186.01,-77.33 1189.34,-83.49"/>
</g>
<!-- Node27 -->
<g id="node27" class="node">
<title>Node27</title>
<g id="a_node27"><a xlink:title=" ">
<polygon fill="white" stroke="#bfbfbf" points="1051,-56.5 1051,-75.5 1140,-75.5 1140,-56.5 1051,-56.5"/>
<text text-anchor="middle" x="1095.5" y="-63.5" font-family="Helvetica,sans-Serif" font-size="10.00">sml/math/vec2.h</text>
</a>
</g>
</g>
<!-- Node26&#45;&gt;Node27 -->
<g id="edge32" class="edge">
<title>Node26&#45;&gt;Node27</title>
<path fill="none" stroke="midnightblue" d="M1109.69,-112.08C1107.42,-104.85 1104.13,-94.41 1101.29,-85.4"/>
<polygon fill="midnightblue" stroke="midnightblue" points="1104.6,-84.24 1098.25,-75.75 1097.92,-86.34 1104.6,-84.24"/>
</g>
<!-- Node28&#45;&gt;Node19 -->
<g id="edge36" class="edge">
<title>Node28&#45;&gt;Node19</title>
<path fill="none" stroke="midnightblue" d="M832.5,-112.08C832.5,-105.01 832.5,-94.86 832.5,-85.99"/>
<polygon fill="midnightblue" stroke="midnightblue" points="836,-85.75 832.5,-75.75 829,-85.75 836,-85.75"/>
</g>
<!-- Node29&#45;&gt;Node20 -->
<g id="edge39" class="edge">
<title>Node29&#45;&gt;Node20</title>
<path fill="none" stroke="midnightblue" d="M365.44,-224.46C330.68,-214.08 284.47,-194.57 304.5,-168 311.23,-159.07 369.26,-144.06 412.82,-133.86"/>
<polygon fill="midnightblue" stroke="midnightblue" points="413.75,-137.23 422.71,-131.57 412.17,-130.41 413.75,-137.23"/>
</g>
<!-- Node30 -->
<g id="node30" class="node">
<title>Node30</title>
<g id="a_node30"><a xlink:title=" ">
<polygon fill="white" stroke="#bfbfbf" points="313.5,-168.5 313.5,-187.5 471.5,-187.5 471.5,-168.5 313.5,-168.5"/>
<text text-anchor="middle" x="392.5" y="-175.5" font-family="Helvetica,sans-Serif" font-size="10.00">sml/graphics_wrapper/renderer.h</text>
</a>
</g>
</g>
<!-- Node29&#45;&gt;Node30 -->
<g id="edge38" class="edge">
<title>Node29&#45;&gt;Node30</title>
<path fill="none" stroke="midnightblue" d="M398.34,-224.08C397.42,-216.93 396.08,-206.64 394.92,-197.69"/>
<polygon fill="midnightblue" stroke="midnightblue" points="398.39,-197.22 393.63,-187.75 391.45,-198.12 398.39,-197.22"/>
</g>
<!-- Node31&#45;&gt;Node6 -->
<g id="edge41" class="edge">
<title>Node31&#45;&gt;Node6</title>
<path fill="none" stroke="midnightblue" d="M525.22,-339.85C481.1,-334.28 419.87,-322.9 370.5,-300 246.85,-242.65 127.32,-126.03 85.85,-83.23"/>
<polygon fill="midnightblue" stroke="midnightblue" points="88.27,-80.7 78.82,-75.91 83.22,-85.54 88.27,-80.7"/>
</g>
<!-- Node31&#45;&gt;Node17 -->
<g id="edge57" class="edge">
<title>Node31&#45;&gt;Node17</title>
<path fill="none" stroke="midnightblue" d="M582.83,-336.3C580.33,-303.63 571.47,-187.87 567.95,-141.96"/>
<polygon fill="midnightblue" stroke="midnightblue" points="571.43,-141.59 567.18,-131.88 564.45,-142.12 571.43,-141.59"/>
</g>
<!-- Node31&#45;&gt;Node20 -->
<g id="edge56" class="edge">
<title>Node31&#45;&gt;Node20</title>
<path fill="none" stroke="midnightblue" d="M578.72,-336.3C560.61,-303.36 496.07,-185.9 471.28,-140.81"/>
<polygon fill="midnightblue" stroke="midnightblue" points="474.27,-138.96 466.38,-131.88 468.13,-142.33 474.27,-138.96"/>
</g>
<!-- Node31&#45;&gt;Node22 -->
<g id="edge55" class="edge">
<title>Node31&#45;&gt;Node22</title>
<path fill="none" stroke="midnightblue" d="M641.7,-342.89C720.1,-339 854.32,-328.31 893.5,-300 927.69,-275.3 942.53,-225.01 948.29,-197.69"/>
<polygon fill="midnightblue" stroke="midnightblue" points="951.73,-198.31 950.18,-187.83 944.86,-196.99 951.73,-198.31"/>
</g>
<!-- Node31&#45;&gt;Node25 -->
<g id="edge54" class="edge">
<title>Node31&#45;&gt;Node25</title>
<path fill="none" stroke="midnightblue" d="M641.51,-343.6C761.65,-340.14 1028.9,-329.19 1057.5,-300 1083.94,-273.01 1077.75,-224.44 1071.67,-197.78"/>
<polygon fill="midnightblue" stroke="midnightblue" points="1075,-196.67 1069.17,-187.82 1068.21,-198.37 1075,-196.67"/>
</g>
<!-- Node31&#45;&gt;Node29 -->
<g id="edge58" class="edge">
<title>Node31&#45;&gt;Node29</title>
<path fill="none" stroke="midnightblue" d="M561.4,-336.47C541.08,-328.25 510.41,-314.89 485.5,-300 460.47,-285.03 434.04,-264.2 417.2,-250.19"/>
<polygon fill="midnightblue" stroke="midnightblue" points="419.22,-247.32 409.32,-243.55 414.71,-252.67 419.22,-247.32"/>
</g>
<!-- Node32 -->
<g id="node32" class="node">
<title>Node32</title>
<g id="a_node32"><a xlink:href="image__view_8h.html" target="_top" xlink:title=" ">
<polygon fill="white" stroke="black" points="590.5,-224.5 590.5,-243.5 674.5,-243.5 674.5,-224.5 590.5,-224.5"/>
<text text-anchor="middle" x="632.5" y="-231.5" font-family="Helvetica,sans-Serif" font-size="10.00">../image_view.h</text>
</a>
</g>
</g>
<!-- Node31&#45;&gt;Node32 -->
<g id="edge42" class="edge">
<title>Node31&#45;&gt;Node32</title>
<path fill="none" stroke="midnightblue" d="M587.34,-336.37C595.32,-318.46 613.83,-276.92 624.5,-252.95"/>
<polygon fill="midnightblue" stroke="midnightblue" points="627.8,-254.15 628.67,-243.59 621.41,-251.3 627.8,-254.15"/>
</g>
<!-- Node33 -->
<g id="node33" class="node">
<title>Node33</title>
<g id="a_node33"><a xlink:href="text_8h.html" target="_top" xlink:title=" ">
<polygon fill="white" stroke="black" points="799,-280.5 799,-299.5 884,-299.5 884,-280.5 799,-280.5"/>
<text text-anchor="middle" x="841.5" y="-287.5" font-family="Helvetica,sans-Serif" font-size="10.00">../shapes/text.h</text>
</a>
</g>
</g>
<!-- Node31&#45;&gt;Node33 -->
<g id="edge45" class="edge">
<title>Node31&#45;&gt;Node33</title>
<path fill="none" stroke="midnightblue" d="M624.38,-336.44C669.48,-327 742.11,-311.8 790.8,-301.61"/>
<polygon fill="midnightblue" stroke="midnightblue" points="791.74,-304.99 800.81,-299.52 790.31,-298.14 791.74,-304.99"/>
</g>
<!-- Node36 -->
<g id="node36" class="node">
<title>Node36</title>
<g id="a_node36"><a xlink:href="rectangle_8h.html" target="_top" xlink:title=" ">
<polygon fill="white" stroke="black" points="940.5,-280.5 940.5,-299.5 1048.5,-299.5 1048.5,-280.5 940.5,-280.5"/>
<text text-anchor="middle" x="994.5" y="-287.5" font-family="Helvetica,sans-Serif" font-size="10.00">../shapes/rectangle.h</text>
</a>
</g>
</g>
<!-- Node31&#45;&gt;Node36 -->
<g id="edge51" class="edge">
<title>Node31&#45;&gt;Node36</title>
<path fill="none" stroke="midnightblue" d="M641.76,-337.38C710.01,-328.44 826.47,-313.18 926.5,-300 927.76,-299.83 929.04,-299.67 930.32,-299.5"/>
<polygon fill="midnightblue" stroke="midnightblue" points="930.85,-302.96 940.31,-298.18 929.94,-296.02 930.85,-302.96"/>
</g>
<!-- Node32&#45;&gt;Node15 -->
<g id="edge43" class="edge">
<title>Node32&#45;&gt;Node15</title>
<path fill="none" stroke="midnightblue" d="M634.15,-224.08C635.48,-216.93 637.38,-206.64 639.04,-197.69"/>
<polygon fill="midnightblue" stroke="midnightblue" points="642.5,-198.22 640.88,-187.75 635.62,-196.95 642.5,-198.22"/>
</g>
<!-- Node32&#45;&gt;Node28 -->
<g id="edge44" class="edge">
<title>Node32&#45;&gt;Node28</title>
<path fill="none" stroke="midnightblue" d="M648.19,-224.37C682.88,-205.29 766.28,-159.42 807.94,-136.51"/>
<polygon fill="midnightblue" stroke="midnightblue" points="809.8,-139.48 816.88,-131.59 806.43,-133.34 809.8,-139.48"/>
</g>
<!-- Node34 -->
<g id="node34" class="node">
<title>Node34</title>
<g id="a_node34"><a xlink:title=" ">
<polygon fill="white" stroke="#bfbfbf" points="772.5,-224.5 772.5,-243.5 912.5,-243.5 912.5,-224.5 772.5,-224.5"/>
<text text-anchor="middle" x="842.5" y="-231.5" font-family="Helvetica,sans-Serif" font-size="10.00">sml/graphics_wrapper/text.h</text>
</a>
</g>
</g>
<!-- Node33&#45;&gt;Node34 -->
<g id="edge46" class="edge">
<title>Node33&#45;&gt;Node34</title>
<path fill="none" stroke="midnightblue" d="M841.67,-280.08C841.8,-273.01 841.98,-262.86 842.15,-253.99"/>
<polygon fill="midnightblue" stroke="midnightblue" points="845.65,-253.81 842.34,-243.75 838.65,-253.68 845.65,-253.81"/>
</g>
<!-- Node35 -->
<g id="node35" class="node">
<title>Node35</title>
<g id="a_node35"><a xlink:href="shape_8h.html" target="_top" xlink:title=" ">
<polygon fill="white" stroke="black" points="969,-224.5 969,-243.5 1020,-243.5 1020,-224.5 969,-224.5"/>
<text text-anchor="middle" x="994.5" y="-231.5" font-family="Helvetica,sans-Serif" font-size="10.00">shape.h</text>
</a>
</g>
</g>
<!-- Node33&#45;&gt;Node35 -->
<g id="edge47" class="edge">
<title>Node33&#45;&gt;Node35</title>
<path fill="none" stroke="midnightblue" d="M865.74,-280.44C891.37,-271.4 931.99,-257.06 960.74,-246.92"/>
<polygon fill="midnightblue" stroke="midnightblue" points="962.11,-250.15 970.37,-243.52 959.78,-243.54 962.11,-250.15"/>
</g>
<!-- Node35&#45;&gt;Node15 -->
<g id="edge48" class="edge">
<title>Node35&#45;&gt;Node15</title>
<path fill="none" stroke="midnightblue" d="M968.9,-229.07C910.05,-220.04 764.41,-197.7 689.16,-186.16"/>
<polygon fill="midnightblue" stroke="midnightblue" points="689.45,-182.66 679.03,-184.6 688.38,-189.58 689.45,-182.66"/>
</g>
<!-- Node35&#45;&gt;Node22 -->
<g id="edge50" class="edge">
<title>Node35&#45;&gt;Node22</title>
<path fill="none" stroke="midnightblue" d="M987.4,-224.08C981.26,-216.38 972.23,-205.03 964.76,-195.65"/>
<polygon fill="midnightblue" stroke="midnightblue" points="967.44,-193.39 958.47,-187.75 961.96,-197.75 967.44,-193.39"/>
</g>
<!-- Node35&#45;&gt;Node25 -->
<g id="edge49" class="edge">
<title>Node35&#45;&gt;Node25</title>
<path fill="none" stroke="midnightblue" d="M1006.07,-224.32C1016.92,-216.18 1033.38,-203.84 1046.38,-194.09"/>
<polygon fill="midnightblue" stroke="midnightblue" points="1048.82,-196.63 1054.72,-187.83 1044.62,-191.03 1048.82,-196.63"/>
</g>
<!-- Node36&#45;&gt;Node24 -->
<g id="edge52" class="edge">
<title>Node36&#45;&gt;Node24</title>
<path fill="none" stroke="midnightblue" d="M1012.24,-280.45C1051.75,-260.45 1147.24,-206.57 1194.5,-132 1203.41,-117.94 1207.98,-99.44 1210.28,-85.78"/>
<polygon fill="midnightblue" stroke="midnightblue" points="1213.77,-86.03 1211.72,-75.64 1206.84,-85.05 1213.77,-86.03"/>
</g>
<!-- Node36&#45;&gt;Node35 -->
<g id="edge53" class="edge">
<title>Node36&#45;&gt;Node35</title>
<path fill="none" stroke="midnightblue" d="M994.5,-280.08C994.5,-273.01 994.5,-262.86 994.5,-253.99"/>
<polygon fill="midnightblue" stroke="midnightblue" points="998,-253.75 994.5,-243.75 991,-253.75 998,-253.75"/>
</g>
<!-- Node37&#45;&gt;Node12 -->
<g id="edge65" class="edge">
<title>Node37&#45;&gt;Node12</title>
<path fill="none" stroke="midnightblue" d="M555.09,-448.32C544.39,-440.18 528.16,-427.84 515.34,-418.09"/>
<polygon fill="midnightblue" stroke="midnightblue" points="517.19,-415.1 507.11,-411.83 512.96,-420.67 517.19,-415.1"/>
</g>
<!-- Node38 -->
<g id="node38" class="node">
<title>Node38</title>
<g id="a_node38"><a xlink:href="box__container_8h.html" target="_top" xlink:title=" ">
<polygon fill="white" stroke="black" points="902,-336.5 902,-355.5 987,-355.5 987,-336.5 902,-336.5"/>
<text text-anchor="middle" x="944.5" y="-343.5" font-family="Helvetica,sans-Serif" font-size="10.00">box_container.h</text>
</a>
</g>
</g>
<!-- Node37&#45;&gt;Node38 -->
<g id="edge60" class="edge">
<title>Node37&#45;&gt;Node38</title>
<path fill="none" stroke="midnightblue" d="M595.85,-448.46C663.33,-428.82 829.55,-380.45 905.51,-358.35"/>
<polygon fill="midnightblue" stroke="midnightblue" points="906.55,-361.69 915.17,-355.53 904.59,-354.97 906.55,-361.69"/>
</g>
<!-- Node39 -->
<g id="node39" class="node">
<title>Node39</title>
<g id="a_node39"><a xlink:title=" ">
<polygon fill="white" stroke="#bfbfbf" points="1197,-280.5 1197,-299.5 1280,-299.5 1280,-280.5 1197,-280.5"/>
<text text-anchor="middle" x="1238.5" y="-287.5" font-family="Helvetica,sans-Serif" font-size="10.00">unordered_map</text>
</a>
</g>
</g>
<!-- Node38&#45;&gt;Node39 -->
<g id="edge61" class="edge">
<title>Node38&#45;&gt;Node39</title>
<path fill="none" stroke="midnightblue" d="M987.25,-337.15C1040.13,-327.43 1130.1,-310.91 1186.81,-300.49"/>
<polygon fill="midnightblue" stroke="midnightblue" points="1187.45,-303.94 1196.65,-298.69 1186.18,-297.05 1187.45,-303.94"/>
</g>
<!-- Node40 -->
<g id="node40" class="node">
<title>Node40</title>
<g id="a_node40"><a xlink:href="container_8h.html" target="_top" xlink:title=" ">
<polygon fill="white" stroke="black" points="703.5,-280.5 703.5,-299.5 767.5,-299.5 767.5,-280.5 703.5,-280.5"/>
<text text-anchor="middle" x="735.5" y="-287.5" font-family="Helvetica,sans-Serif" font-size="10.00">container.h</text>
</a>
</g>
</g>
<!-- Node38&#45;&gt;Node40 -->
<g id="edge62" class="edge">
<title>Node38&#45;&gt;Node40</title>
<path fill="none" stroke="midnightblue" d="M911.38,-336.44C875.17,-327.09 817.05,-312.07 777.62,-301.88"/>
<polygon fill="midnightblue" stroke="midnightblue" points="778.33,-298.45 767.77,-299.34 776.58,-305.23 778.33,-298.45"/>
</g>
<!-- Node41 -->
<g id="node41" class="node">
<title>Node41</title>
<g id="a_node41"><a xlink:title=" ">
<polygon fill="white" stroke="#bfbfbf" points="1104.5,-280.5 1104.5,-299.5 1178.5,-299.5 1178.5,-280.5 1104.5,-280.5"/>
<text text-anchor="middle" x="1141.5" y="-287.5" font-family="Helvetica,sans-Serif" font-size="10.00">sys/syscall.h</text>
</a>
</g>
</g>
<!-- Node38&#45;&gt;Node41 -->
<g id="edge64" class="edge">
<title>Node38&#45;&gt;Node41</title>
<path fill="none" stroke="midnightblue" d="M975.72,-336.44C1009.43,-327.2 1063.3,-312.44 1100.43,-302.26"/>
<polygon fill="midnightblue" stroke="midnightblue" points="1101.71,-305.54 1110.43,-299.52 1099.86,-298.78 1101.71,-305.54"/>
</g>
<!-- Node40&#45;&gt;Node14 -->
<g id="edge63" class="edge">
<title>Node40&#45;&gt;Node14</title>
<path fill="none" stroke="midnightblue" d="M733.52,-280.08C731.93,-272.93 729.64,-262.64 727.65,-253.69"/>
<polygon fill="midnightblue" stroke="midnightblue" points="731.03,-252.75 725.44,-243.75 724.2,-254.27 731.03,-252.75"/>
</g>
</g>
</svg>
        <g id="navigator" transform="translate(0 0)" fill="#404254">
                <rect fill="#f2f5e9" fill-opacity="0.5" stroke="#606060" stroke-width=".5" x="0" y="0" width="60" height="60"/>
                <use id="zoomplus" xlink:href="#zoomPlus" x="17" y="9" onmousedown="handleZoom(evt,'in')"/>
                <use id="zoomminus" xlink:href="#zoomMin" x="42" y="9" onmousedown="handleZoom(evt,'out')"/>
                <use id="reset" xlink:href="#resetDef" x="30" y="36" onmousedown="handleReset()"/>
                <g id="arrowUp" xlink:href="#dirArrow" transform="translate(30 24)" onmousedown="handlePan(0,-1)">
                  <use xlink:href="#rim" fill="#404040">
                        <set attributeName="fill" to="#808080" begin="arrowUp.mouseover" end="arrowUp.mouseout"/>
                  </use>
                  <path fill="none" stroke="white" stroke-width="1.5" d="M0,-3.0v7 M-2.5,-0.5L0,-3.0L2.5,-0.5"/>
                </g>
                <g id="arrowRight" xlink:href="#dirArrow" transform="rotate(90) translate(36 -43)" onmousedown="handlePan(1,0)">
                  <use xlink:href="#rim" fill="#404040">
                        <set attributeName="fill" to="#808080" begin="arrowRight.mouseover" end="arrowRight.mouseout"/>
                  </use>
                  <path fill="none" stroke="white" stroke-width="1.5" d="M0,-3.0v7 M-2.5,-0.5L0,-3.0L2.5,-0.5"/>
                </g>
                <g id="arrowDown" xlink:href="#dirArrow" transform="rotate(180) translate(-30 -48)" onmousedown="handlePan(0,1)">
                  <use xlink:href="#rim" fill="#404040">
                        <set attributeName="fill" to="#808080" begin="arrowDown.mouseover" end="arrowDown.mouseout"/>
                  </use>
                  <path fill="none" stroke="white" stroke-width="1.5" d="M0,-3.0v7 M-2.5,-0.5L0,-3.0L2.5,-0.5"/>
                </g>
                <g id="arrowLeft" xlink:href="#dirArrow" transform="rotate(270) translate(-36 17)" onmousedown="handlePan(-1,0)">
                  <use xlink:href="#rim" fill="#404040">
                        <set attributeName="fill" to="#808080" begin="arrowLeft.mouseover" end="arrowLeft.mouseout"/>
                  </use>
                  <path fill="none" stroke="white" stroke-width="1.5" d="M0,-3.0v7 M-2.5,-0.5L0,-3.0L2.5,-0.5"/>
                </g>
        </g>
        <svg viewBox="0 0 15 15" width="100%" height="30px" preserveAspectRatio="xMaxYMin meet">
         <g id="arrow_out" transform="scale(0.3 0.3)">
          <a xlink:href="context__menu_8cpp__incl_org.svg" target="_base">
           <rect id="button" ry="5" rx="5" y="6" x="6" height="38" width="38"
                fill="#f2f5e9" fill-opacity="0.5" stroke="#606060" stroke-width="1.0"/>
           <path id="arrow"
             d="M 11.500037,31.436501 C 11.940474,20.09759 22.043105,11.32322 32.158766,21.979434 L 37.068811,17.246167 C 37.068811,17.246167 37.088388,32 37.088388,32 L 22.160133,31.978069 C 22.160133,31.978069 26.997745,27.140456 26.997745,27.140456 C 18.528582,18.264221 13.291696,25.230495 11.500037,31.436501 z"
             style="fill:#404040;"/>
          </a>
         </g>
        </svg>
</svg>
