<?xml version="1.0" encoding="UTF-8" standalone="no"?>
<!DOCTYPE svg PUBLIC "-//W3C//DTD SVG 1.1//EN"
 "http://www.w3.org/Graphics/SVG/1.1/DTD/svg11.dtd">
<!-- Generated by graphviz version 2.50.0 (20211204.2007)
 -->
<!-- Title: container.h Pages: 1 -->
<svg width="956pt" height="308pt"
 viewBox="0.00 0.00 955.50 308.00" xmlns="http://www.w3.org/2000/svg" xmlns:xlink="http://www.w3.org/1999/xlink">
<g id="graph0" class="graph" transform="scale(1 1) rotate(0) translate(4 304)">
<title>container.h</title>
<polygon fill="white" stroke="transparent" points="-4,4 -4,-304 951.5,-304 951.5,4 -4,4"/>
<!-- Node1 -->
<g id="node1" class="node">
<title>Node1</title>
<g id="a_node1"><a xlink:title=" ">
<polygon fill="#bfbfbf" stroke="black" points="322,-280.5 322,-299.5 386,-299.5 386,-280.5 322,-280.5"/>
<text text-anchor="middle" x="354" y="-287.5" font-family="Helvetica,sans-Serif" font-size="10.00">container.h</text>
</a>
</g>
</g>
<!-- Node2 -->
<g id="node2" class="node">
<title>Node2</title>
<g id="a_node2"><a xlink:href="box__container_8h.html" target="_top" xlink:title=" ">
<polygon fill="white" stroke="black" points="363.5,-224.5 363.5,-243.5 448.5,-243.5 448.5,-224.5 363.5,-224.5"/>
<text text-anchor="middle" x="406" y="-231.5" font-family="Helvetica,sans-Serif" font-size="10.00">box_container.h</text>
</a>
</g>
</g>
<!-- Node1&#45;&gt;Node2 -->
<g id="edge1" class="edge">
<title>Node1&#45;&gt;Node2</title>
<path fill="none" stroke="midnightblue" d="M369.68,-272.72C378.84,-263.2 390.05,-251.56 397.57,-243.75"/>
<polygon fill="midnightblue" stroke="midnightblue" points="367,-270.45 362.59,-280.08 372.04,-275.31 367,-270.45"/>
</g>
<!-- Node16 -->
<g id="node16" class="node">
<title>Node16</title>
<g id="a_node16"><a xlink:href="container_8cpp.html" target="_top" xlink:title=" ">
<polygon fill="white" stroke="black" points="467,-224.5 467,-243.5 541,-243.5 541,-224.5 467,-224.5"/>
<text text-anchor="middle" x="504" y="-231.5" font-family="Helvetica,sans-Serif" font-size="10.00">container.cpp</text>
</a>
</g>
</g>
<!-- Node1&#45;&gt;Node16 -->
<g id="edge20" class="edge">
<title>Node1&#45;&gt;Node16</title>
<path fill="none" stroke="midnightblue" d="M387.22,-277.04C415.45,-266.88 455.26,-252.55 480.34,-243.52"/>
<polygon fill="midnightblue" stroke="midnightblue" points="385.99,-273.76 377.77,-280.44 388.36,-280.35 385.99,-273.76"/>
</g>
<!-- Node17 -->
<g id="node17" class="node">
<title>Node17</title>
<g id="a_node17"><a xlink:href="layered__container_8h.html" target="_top" xlink:title=" ">
<polygon fill="white" stroke="black" points="103.5,-224.5 103.5,-243.5 204.5,-243.5 204.5,-224.5 103.5,-224.5"/>
<text text-anchor="middle" x="154" y="-231.5" font-family="Helvetica,sans-Serif" font-size="10.00">layered_container.h</text>
</a>
</g>
</g>
<!-- Node1&#45;&gt;Node17 -->
<g id="edge21" class="edge">
<title>Node1&#45;&gt;Node17</title>
<path fill="none" stroke="midnightblue" d="M312.63,-277.83C274.86,-267.63 219.86,-252.78 185.54,-243.52"/>
<polygon fill="midnightblue" stroke="midnightblue" points="311.74,-281.22 322.31,-280.44 313.57,-274.46 311.74,-281.22"/>
</g>
<!-- Node21 -->
<g id="node21" class="node">
<title>Node21</title>
<g id="a_node21"><a xlink:href="tile__pane_8h.html" target="_top" xlink:title=" ">
<polygon fill="white" stroke="black" points="271,-224.5 271,-243.5 335,-243.5 335,-224.5 271,-224.5"/>
<text text-anchor="middle" x="303" y="-231.5" font-family="Helvetica,sans-Serif" font-size="10.00">tile_pane.h</text>
</a>
</g>
</g>
<!-- Node1&#45;&gt;Node21 -->
<g id="edge26" class="edge">
<title>Node1&#45;&gt;Node21</title>
<path fill="none" stroke="midnightblue" d="M338.62,-272.72C329.63,-263.2 318.64,-251.56 311.26,-243.75"/>
<polygon fill="midnightblue" stroke="midnightblue" points="336.17,-275.22 345.58,-280.08 341.26,-270.41 336.17,-275.22"/>
</g>
<!-- Node3 -->
<g id="node3" class="node">
<title>Node3</title>
<g id="a_node3"><a xlink:href="box__container_8cpp.html" target="_top" xlink:title=" ">
<polygon fill="white" stroke="black" points="434.5,-168.5 434.5,-187.5 529.5,-187.5 529.5,-168.5 434.5,-168.5"/>
<text text-anchor="middle" x="482" y="-175.5" font-family="Helvetica,sans-Serif" font-size="10.00">box_container.cpp</text>
</a>
</g>
</g>
<!-- Node2&#45;&gt;Node3 -->
<g id="edge2" class="edge">
<title>Node2&#45;&gt;Node3</title>
<path fill="none" stroke="midnightblue" d="M426.58,-218.38C440.31,-208.62 457.93,-196.11 469.57,-187.83"/>
<polygon fill="midnightblue" stroke="midnightblue" points="424.34,-215.68 418.21,-224.32 428.39,-221.38 424.34,-215.68"/>
</g>
<!-- Node4 -->
<g id="node4" class="node">
<title>Node4</title>
<g id="a_node4"><a xlink:href="containers_8h.html" target="_top" xlink:title=" ">
<polygon fill="white" stroke="black" points="333,-56.5 333,-75.5 403,-75.5 403,-56.5 333,-56.5"/>
<text text-anchor="middle" x="368" y="-63.5" font-family="Helvetica,sans-Serif" font-size="10.00">containers.h</text>
</a>
</g>
</g>
<!-- Node2&#45;&gt;Node4 -->
<g id="edge3" class="edge">
<title>Node2&#45;&gt;Node4</title>
<path fill="none" stroke="midnightblue" d="M401.63,-213.93C393.39,-177.92 375.84,-101.23 369.96,-75.57"/>
<polygon fill="midnightblue" stroke="midnightblue" points="398.31,-215.11 403.96,-224.08 405.14,-213.55 398.31,-215.11"/>
</g>
<!-- Node5 -->
<g id="node5" class="node">
<title>Node5</title>
<g id="a_node5"><a xlink:href="context__menu_8h.html" target="_top" xlink:title=" ">
<polygon fill="white" stroke="black" points="660,-168.5 660,-187.5 746,-187.5 746,-168.5 660,-168.5"/>
<text text-anchor="middle" x="703" y="-175.5" font-family="Helvetica,sans-Serif" font-size="10.00">context_menu.h</text>
</a>
</g>
</g>
<!-- Node2&#45;&gt;Node5 -->
<g id="edge4" class="edge">
<title>Node2&#45;&gt;Node5</title>
<path fill="none" stroke="midnightblue" d="M458.48,-223.46C515.69,-213.06 606.19,-196.6 659.56,-186.9"/>
<polygon fill="midnightblue" stroke="midnightblue" points="457.77,-220.03 448.55,-225.26 459.02,-226.92 457.77,-220.03"/>
</g>
<!-- Node12 -->
<g id="node12" class="node">
<title>Node12</title>
<g id="a_node12"><a xlink:href="default__skins_8cpp.html" target="_top" xlink:title=" ">
<polygon fill="white" stroke="black" points="396.5,-112.5 396.5,-131.5 489.5,-131.5 489.5,-112.5 396.5,-112.5"/>
<text text-anchor="middle" x="443" y="-119.5" font-family="Helvetica,sans-Serif" font-size="10.00">default_skins.cpp</text>
</a>
</g>
</g>
<!-- Node2&#45;&gt;Node12 -->
<g id="edge15" class="edge">
<title>Node2&#45;&gt;Node12</title>
<path fill="none" stroke="midnightblue" d="M410.93,-214.38C414.52,-201.3 419.66,-183.45 425,-168 429.45,-155.12 435.48,-140.52 439.3,-131.53"/>
<polygon fill="midnightblue" stroke="midnightblue" points="407.54,-213.52 408.31,-224.08 414.3,-215.34 407.54,-213.52"/>
</g>
<!-- Node13 -->
<g id="node13" class="node">
<title>Node13</title>
<g id="a_node13"><a xlink:href="slider_8h.html" target="_top" xlink:title=" ">
<polygon fill="white" stroke="black" points="547.5,-168.5 547.5,-187.5 594.5,-187.5 594.5,-168.5 547.5,-168.5"/>
<text text-anchor="middle" x="571" y="-175.5" font-family="Helvetica,sans-Serif" font-size="10.00">slider.h</text>
</a>
</g>
</g>
<!-- Node2&#45;&gt;Node13 -->
<g id="edge16" class="edge">
<title>Node2&#45;&gt;Node13</title>
<path fill="none" stroke="midnightblue" d="M442,-221.22C473.99,-210.75 519.84,-195.74 547.38,-186.73"/>
<polygon fill="midnightblue" stroke="midnightblue" points="440.56,-218.01 432.14,-224.44 442.74,-224.66 440.56,-218.01"/>
</g>
<!-- Node5&#45;&gt;Node4 -->
<g id="edge5" class="edge">
<title>Node5&#45;&gt;Node4</title>
<path fill="none" stroke="midnightblue" d="M694.26,-159.18C685.85,-144.05 671.68,-123.09 653,-112 611.33,-87.26 469.83,-74.21 403.22,-69.31"/>
<polygon fill="midnightblue" stroke="midnightblue" points="691.2,-160.88 698.94,-168.11 697.4,-157.63 691.2,-160.88"/>
</g>
<!-- Node6 -->
<g id="node6" class="node">
<title>Node6</title>
<g id="a_node6"><a xlink:href="context__menu_8cpp.html" target="_top" xlink:title=" ">
<polygon fill="white" stroke="black" points="850.5,-0.5 850.5,-19.5 947.5,-19.5 947.5,-0.5 850.5,-0.5"/>
<text text-anchor="middle" x="899" y="-7.5" font-family="Helvetica,sans-Serif" font-size="10.00">context_menu.cpp</text>
</a>
</g>
</g>
<!-- Node5&#45;&gt;Node6 -->
<g id="edge6" class="edge">
<title>Node5&#45;&gt;Node6</title>
<path fill="none" stroke="midnightblue" d="M728.64,-163.39C743.35,-155.1 761.84,-143.86 777,-132 824.7,-94.69 873.46,-40.47 891.61,-19.61"/>
<polygon fill="midnightblue" stroke="midnightblue" points="726.66,-160.48 719.6,-168.38 730.04,-166.61 726.66,-160.48"/>
</g>
<!-- Node7 -->
<g id="node7" class="node">
<title>Node7</title>
<g id="a_node7"><a xlink:href="menu__bar_8h.html" target="_top" xlink:title=" ">
<polygon fill="white" stroke="black" points="700.5,-112.5 700.5,-131.5 767.5,-131.5 767.5,-112.5 700.5,-112.5"/>
<text text-anchor="middle" x="734" y="-119.5" font-family="Helvetica,sans-Serif" font-size="10.00">menu_bar.h</text>
</a>
</g>
</g>
<!-- Node5&#45;&gt;Node7 -->
<g id="edge7" class="edge">
<title>Node5&#45;&gt;Node7</title>
<path fill="none" stroke="midnightblue" d="M713.18,-159.27C718.47,-150.05 724.72,-139.17 728.98,-131.75"/>
<polygon fill="midnightblue" stroke="midnightblue" points="710.06,-157.67 708.12,-168.08 716.13,-161.15 710.06,-157.67"/>
</g>
<!-- Node7&#45;&gt;Node4 -->
<g id="edge8" class="edge">
<title>Node7&#45;&gt;Node4</title>
<path fill="none" stroke="midnightblue" d="M690.45,-112.75C688.95,-112.49 687.46,-112.24 686,-112 583.66,-95.17 462.16,-79.04 403.37,-71.48"/>
<polygon fill="midnightblue" stroke="midnightblue" points="690.01,-116.22 700.46,-114.51 691.23,-109.33 690.01,-116.22"/>
</g>
<!-- Node8 -->
<g id="node8" class="node">
<title>Node8</title>
<g id="a_node8"><a xlink:href="menu__bar_8cpp.html" target="_top" xlink:title=" ">
<polygon fill="white" stroke="black" points="573.5,-0.5 573.5,-19.5 650.5,-19.5 650.5,-0.5 573.5,-0.5"/>
<text text-anchor="middle" x="612" y="-7.5" font-family="Helvetica,sans-Serif" font-size="10.00">menu_bar.cpp</text>
</a>
</g>
</g>
<!-- Node7&#45;&gt;Node8 -->
<g id="edge9" class="edge">
<title>Node7&#45;&gt;Node8</title>
<path fill="none" stroke="midnightblue" d="M716.82,-105.51C690.75,-82.01 642.07,-38.11 621.53,-19.59"/>
<polygon fill="midnightblue" stroke="midnightblue" points="714.66,-108.27 724.43,-112.37 719.34,-103.07 714.66,-108.27"/>
</g>
<!-- Node9 -->
<g id="node9" class="node">
<title>Node9</title>
<g id="a_node9"><a xlink:href="scene_8h.html" target="_top" xlink:title=" ">
<polygon fill="white" stroke="black" points="708.5,-56.5 708.5,-75.5 759.5,-75.5 759.5,-56.5 708.5,-56.5"/>
<text text-anchor="middle" x="734" y="-63.5" font-family="Helvetica,sans-Serif" font-size="10.00">scene.h</text>
</a>
</g>
</g>
<!-- Node7&#45;&gt;Node9 -->
<g id="edge10" class="edge">
<title>Node7&#45;&gt;Node9</title>
<path fill="none" stroke="midnightblue" d="M734,-101.8C734,-92.91 734,-82.78 734,-75.75"/>
<polygon fill="midnightblue" stroke="midnightblue" points="730.5,-102.08 734,-112.08 737.5,-102.08 730.5,-102.08"/>
</g>
<!-- Node9&#45;&gt;Node6 -->
<g id="edge12" class="edge">
<title>Node9&#45;&gt;Node6</title>
<path fill="none" stroke="midnightblue" d="M769.36,-53.43C800.42,-43.26 844.9,-28.7 872.86,-19.56"/>
<polygon fill="midnightblue" stroke="midnightblue" points="768.2,-50.13 759.78,-56.56 770.37,-56.78 768.2,-50.13"/>
</g>
<!-- Node9&#45;&gt;Node8 -->
<g id="edge13" class="edge">
<title>Node9&#45;&gt;Node8</title>
<path fill="none" stroke="midnightblue" d="M705.46,-52.37C682.61,-42.26 651.19,-28.35 631.24,-19.52"/>
<polygon fill="midnightblue" stroke="midnightblue" points="704.11,-55.6 714.67,-56.44 706.94,-49.2 704.11,-55.6"/>
</g>
<!-- Node10 -->
<g id="node10" class="node">
<title>Node10</title>
<g id="a_node10"><a xlink:href="component_8cpp.html" target="_top" xlink:title=" ">
<polygon fill="white" stroke="black" points="749.5,-0.5 749.5,-19.5 832.5,-19.5 832.5,-0.5 749.5,-0.5"/>
<text text-anchor="middle" x="791" y="-7.5" font-family="Helvetica,sans-Serif" font-size="10.00">component.cpp</text>
</a>
</g>
</g>
<!-- Node9&#45;&gt;Node10 -->
<g id="edge11" class="edge">
<title>Node9&#45;&gt;Node10</title>
<path fill="none" stroke="midnightblue" d="M750.62,-49.25C760.73,-39.67 773.28,-27.79 781.68,-19.83"/>
<polygon fill="midnightblue" stroke="midnightblue" points="748.01,-46.91 743.16,-56.32 752.82,-51.99 748.01,-46.91"/>
</g>
<!-- Node11 -->
<g id="node11" class="node">
<title>Node11</title>
<g id="a_node11"><a xlink:href="scene_8cpp.html" target="_top" xlink:title=" ">
<polygon fill="white" stroke="black" points="669,-0.5 669,-19.5 731,-19.5 731,-0.5 669,-0.5"/>
<text text-anchor="middle" x="700" y="-7.5" font-family="Helvetica,sans-Serif" font-size="10.00">scene.cpp</text>
</a>
</g>
</g>
<!-- Node9&#45;&gt;Node11 -->
<g id="edge14" class="edge">
<title>Node9&#45;&gt;Node11</title>
<path fill="none" stroke="midnightblue" d="M723.02,-47.57C717.17,-38.27 710.23,-27.25 705.51,-19.75"/>
<polygon fill="midnightblue" stroke="midnightblue" points="720.1,-49.49 728.39,-56.08 726.02,-45.76 720.1,-49.49"/>
</g>
<!-- Node13&#45;&gt;Node12 -->
<g id="edge18" class="edge">
<title>Node13&#45;&gt;Node12</title>
<path fill="none" stroke="midnightblue" d="M541.38,-164.5C517.38,-154.38 484.22,-140.39 463.19,-131.52"/>
<polygon fill="midnightblue" stroke="midnightblue" points="540.14,-167.78 550.72,-168.44 542.86,-161.33 540.14,-167.78"/>
</g>
<!-- Node14 -->
<g id="node14" class="node">
<title>Node14</title>
<g id="a_node14"><a xlink:href="controls_8h.html" target="_top" xlink:title=" ">
<polygon fill="white" stroke="black" points="584.5,-112.5 584.5,-131.5 643.5,-131.5 643.5,-112.5 584.5,-112.5"/>
<text text-anchor="middle" x="614" y="-119.5" font-family="Helvetica,sans-Serif" font-size="10.00">controls.h</text>
</a>
</g>
</g>
<!-- Node13&#45;&gt;Node14 -->
<g id="edge17" class="edge">
<title>Node13&#45;&gt;Node14</title>
<path fill="none" stroke="midnightblue" d="M584.42,-160.14C591.91,-150.74 600.94,-139.4 607.03,-131.75"/>
<polygon fill="midnightblue" stroke="midnightblue" points="581.59,-158.08 578.1,-168.08 587.07,-162.44 581.59,-158.08"/>
</g>
<!-- Node15 -->
<g id="node15" class="node">
<title>Node15</title>
<g id="a_node15"><a xlink:href="slider_8cpp.html" target="_top" xlink:title=" ">
<polygon fill="white" stroke="black" points="508,-112.5 508,-131.5 566,-131.5 566,-112.5 508,-112.5"/>
<text text-anchor="middle" x="537" y="-119.5" font-family="Helvetica,sans-Serif" font-size="10.00">slider.cpp</text>
</a>
</g>
</g>
<!-- Node13&#45;&gt;Node15 -->
<g id="edge19" class="edge">
<title>Node13&#45;&gt;Node15</title>
<path fill="none" stroke="midnightblue" d="M560.02,-159.57C554.17,-150.27 547.23,-139.25 542.51,-131.75"/>
<polygon fill="midnightblue" stroke="midnightblue" points="557.1,-161.49 565.39,-168.08 563.02,-157.76 557.1,-161.49"/>
</g>
<!-- Node18 -->
<g id="node18" class="node">
<title>Node18</title>
<g id="a_node18"><a xlink:href="anchor__pane_8h.html" target="_top" xlink:title=" ">
<polygon fill="white" stroke="black" points="0,-168.5 0,-187.5 80,-187.5 80,-168.5 0,-168.5"/>
<text text-anchor="middle" x="40" y="-175.5" font-family="Helvetica,sans-Serif" font-size="10.00">anchor_pane.h</text>
</a>
</g>
</g>
<!-- Node17&#45;&gt;Node18 -->
<g id="edge22" class="edge">
<title>Node17&#45;&gt;Node18</title>
<path fill="none" stroke="midnightblue" d="M126.76,-220.1C105.46,-210.01 76.46,-196.27 57.98,-187.52"/>
<polygon fill="midnightblue" stroke="midnightblue" points="125.4,-223.33 135.94,-224.44 128.4,-217 125.4,-223.33"/>
</g>
<!-- Node20 -->
<g id="node20" class="node">
<title>Node20</title>
<g id="a_node20"><a xlink:href="layered__container_8cpp.html" target="_top" xlink:title=" ">
<polygon fill="white" stroke="black" points="98.5,-168.5 98.5,-187.5 209.5,-187.5 209.5,-168.5 98.5,-168.5"/>
<text text-anchor="middle" x="154" y="-175.5" font-family="Helvetica,sans-Serif" font-size="10.00">layered_container.cpp</text>
</a>
</g>
</g>
<!-- Node17&#45;&gt;Node20 -->
<g id="edge25" class="edge">
<title>Node17&#45;&gt;Node20</title>
<path fill="none" stroke="midnightblue" d="M154,-213.8C154,-204.91 154,-194.78 154,-187.75"/>
<polygon fill="midnightblue" stroke="midnightblue" points="150.5,-214.08 154,-224.08 157.5,-214.08 150.5,-214.08"/>
</g>
<!-- Node18&#45;&gt;Node4 -->
<g id="edge24" class="edge">
<title>Node18&#45;&gt;Node4</title>
<path fill="none" stroke="midnightblue" d="M40.27,-158.22C41.56,-143.41 45.85,-123.43 59,-112 99.3,-76.97 260.56,-69.21 332.75,-67.49"/>
<polygon fill="midnightblue" stroke="midnightblue" points="36.77,-158.14 39.78,-168.3 43.77,-158.48 36.77,-158.14"/>
</g>
<!-- Node19 -->
<g id="node19" class="node">
<title>Node19</title>
<g id="a_node19"><a xlink:href="anchor__pane_8cpp.html" target="_top" xlink:title=" ">
<polygon fill="white" stroke="black" points="68.5,-112.5 68.5,-131.5 159.5,-131.5 159.5,-112.5 68.5,-112.5"/>
<text text-anchor="middle" x="114" y="-119.5" font-family="Helvetica,sans-Serif" font-size="10.00">anchor_pane.cpp</text>
</a>
</g>
</g>
<!-- Node18&#45;&gt;Node19 -->
<g id="edge23" class="edge">
<title>Node18&#45;&gt;Node19</title>
<path fill="none" stroke="midnightblue" d="M60.03,-162.38C73.41,-152.62 90.56,-140.11 101.89,-131.83"/>
<polygon fill="midnightblue" stroke="midnightblue" points="57.9,-159.6 51.89,-168.32 62.03,-165.26 57.9,-159.6"/>
</g>
<!-- Node21&#45;&gt;Node4 -->
<g id="edge27" class="edge">
<title>Node21&#45;&gt;Node4</title>
<path fill="none" stroke="midnightblue" d="M281.09,-218.17C265.51,-205.64 248.7,-186.78 257,-168 276.6,-123.68 326.31,-90.44 352.04,-75.58"/>
<polygon fill="midnightblue" stroke="midnightblue" points="279.35,-221.24 289.45,-224.44 283.55,-215.64 279.35,-221.24"/>
</g>
<!-- Node22 -->
<g id="node22" class="node">
<title>Node22</title>
<g id="a_node22"><a xlink:href="tile__pane_8cpp.html" target="_top" xlink:title=" ">
<polygon fill="white" stroke="black" points="266,-168.5 266,-187.5 340,-187.5 340,-168.5 266,-168.5"/>
<text text-anchor="middle" x="303" y="-175.5" font-family="Helvetica,sans-Serif" font-size="10.00">tile_pane.cpp</text>
</a>
</g>
</g>
<!-- Node21&#45;&gt;Node22 -->
<g id="edge28" class="edge">
<title>Node21&#45;&gt;Node22</title>
<path fill="none" stroke="midnightblue" d="M303,-213.8C303,-204.91 303,-194.78 303,-187.75"/>
<polygon fill="midnightblue" stroke="midnightblue" points="299.5,-214.08 303,-224.08 306.5,-214.08 299.5,-214.08"/>
</g>
</g>
</svg>
