<?xml version="1.0" encoding="UTF-8" standalone="no"?>
<!DOCTYPE svg PUBLIC "-//W3C//DTD SVG 1.1//EN"
 "http://www.w3.org/Graphics/SVG/1.1/DTD/svg11.dtd">
<!-- Generated by graphviz version 2.50.0 (20211204.2007)
 -->
<!-- Title: control.h Pages: 1 -->
<svg width="609pt" height="252pt"
 viewBox="0.00 0.00 609.00 252.00" xmlns="http://www.w3.org/2000/svg" xmlns:xlink="http://www.w3.org/1999/xlink">
<g id="graph0" class="graph" transform="scale(1 1) rotate(0) translate(4 248)">
<title>control.h</title>
<polygon fill="white" stroke="transparent" points="-4,4 -4,-248 605,-248 605,4 -4,4"/>
<!-- Node1 -->
<g id="node1" class="node">
<title>Node1</title>
<g id="a_node1"><a xlink:title=" ">
<polygon fill="#bfbfbf" stroke="black" points="370.5,-224.5 370.5,-243.5 424.5,-243.5 424.5,-224.5 370.5,-224.5"/>
<text text-anchor="middle" x="397.5" y="-231.5" font-family="Helvetica,sans-Serif" font-size="10.00">control.h</text>
</a>
</g>
</g>
<!-- Node2 -->
<g id="node2" class="node">
<title>Node2</title>
<g id="a_node2"><a xlink:href="button_8h.html" target="_top" xlink:title=" ">
<polygon fill="white" stroke="black" points="161.5,-168.5 161.5,-187.5 213.5,-187.5 213.5,-168.5 161.5,-168.5"/>
<text text-anchor="middle" x="187.5" y="-175.5" font-family="Helvetica,sans-Serif" font-size="10.00">button.h</text>
</a>
</g>
</g>
<!-- Node1&#45;&gt;Node2 -->
<g id="edge1" class="edge">
<title>Node1&#45;&gt;Node2</title>
<path fill="none" stroke="midnightblue" d="M360.62,-223.52C318.55,-212.7 250.8,-195.28 213.76,-185.75"/>
<polygon fill="midnightblue" stroke="midnightblue" points="359.92,-226.95 370.48,-226.05 361.66,-220.17 359.92,-226.95"/>
</g>
<!-- Node11 -->
<g id="node11" class="node">
<title>Node11</title>
<g id="a_node11"><a xlink:href="control_8cpp.html" target="_top" xlink:title=" ">
<polygon fill="white" stroke="black" points="402,-168.5 402,-187.5 467,-187.5 467,-168.5 402,-168.5"/>
<text text-anchor="middle" x="434.5" y="-175.5" font-family="Helvetica,sans-Serif" font-size="10.00">control.cpp</text>
</a>
</g>
</g>
<!-- Node1&#45;&gt;Node11 -->
<g id="edge12" class="edge">
<title>Node1&#45;&gt;Node11</title>
<path fill="none" stroke="midnightblue" d="M409.45,-215.57C415.81,-206.27 423.37,-195.25 428.5,-187.75"/>
<polygon fill="midnightblue" stroke="midnightblue" points="406.37,-213.86 403.61,-224.08 412.15,-217.81 406.37,-213.86"/>
</g>
<!-- Node12 -->
<g id="node12" class="node">
<title>Node12</title>
<g id="a_node12"><a xlink:href="label_8h.html" target="_top" xlink:title=" ">
<polygon fill="white" stroke="black" points="485,-168.5 485,-187.5 530,-187.5 530,-168.5 485,-168.5"/>
<text text-anchor="middle" x="507.5" y="-175.5" font-family="Helvetica,sans-Serif" font-size="10.00">label.h</text>
</a>
</g>
</g>
<!-- Node1&#45;&gt;Node12 -->
<g id="edge13" class="edge">
<title>Node1&#45;&gt;Node12</title>
<path fill="none" stroke="midnightblue" d="M424.26,-219.86C444.66,-209.85 472.17,-196.35 489.87,-187.65"/>
<polygon fill="midnightblue" stroke="midnightblue" points="422.61,-216.78 415.17,-224.32 425.69,-223.06 422.61,-216.78"/>
</g>
<!-- Node13 -->
<g id="node13" class="node">
<title>Node13</title>
<g id="a_node13"><a xlink:href="scroll__bar_8h.html" target="_top" xlink:title=" ">
<polygon fill="white" stroke="black" points="252.5,-168.5 252.5,-187.5 318.5,-187.5 318.5,-168.5 252.5,-168.5"/>
<text text-anchor="middle" x="285.5" y="-175.5" font-family="Helvetica,sans-Serif" font-size="10.00">scroll_bar.h</text>
</a>
</g>
</g>
<!-- Node1&#45;&gt;Node13 -->
<g id="edge14" class="edge">
<title>Node1&#45;&gt;Node13</title>
<path fill="none" stroke="midnightblue" d="M370.25,-219.86C349.48,-209.85 321.48,-196.35 303.45,-187.65"/>
<polygon fill="midnightblue" stroke="midnightblue" points="368.98,-223.13 379.51,-224.32 372.02,-216.83 368.98,-223.13"/>
</g>
<!-- Node15 -->
<g id="node15" class="node">
<title>Node15</title>
<g id="a_node15"><a xlink:href="skin_8cpp.html" target="_top" xlink:title=" ">
<polygon fill="white" stroke="black" points="548,-168.5 548,-187.5 601,-187.5 601,-168.5 548,-168.5"/>
<text text-anchor="middle" x="574.5" y="-175.5" font-family="Helvetica,sans-Serif" font-size="10.00">skin.cpp</text>
</a>
</g>
</g>
<!-- Node1&#45;&gt;Node15 -->
<g id="edge17" class="edge">
<title>Node1&#45;&gt;Node15</title>
<path fill="none" stroke="midnightblue" d="M434.74,-221.64C468.59,-211.31 517.69,-196.33 547.78,-187.15"/>
<polygon fill="midnightblue" stroke="midnightblue" points="433.31,-218.42 424.77,-224.68 435.35,-225.11 433.31,-218.42"/>
</g>
<!-- Node16 -->
<g id="node16" class="node">
<title>Node16</title>
<g id="a_node16"><a xlink:href="slider_8h.html" target="_top" xlink:title=" ">
<polygon fill="white" stroke="black" points="337,-168.5 337,-187.5 384,-187.5 384,-168.5 337,-168.5"/>
<text text-anchor="middle" x="360.5" y="-175.5" font-family="Helvetica,sans-Serif" font-size="10.00">slider.h</text>
</a>
</g>
</g>
<!-- Node1&#45;&gt;Node16 -->
<g id="edge18" class="edge">
<title>Node1&#45;&gt;Node16</title>
<path fill="none" stroke="midnightblue" d="M385.55,-215.57C379.19,-206.27 371.63,-195.25 366.5,-187.75"/>
<polygon fill="midnightblue" stroke="midnightblue" points="382.85,-217.81 391.39,-224.08 388.63,-213.86 382.85,-217.81"/>
</g>
<!-- Node3 -->
<g id="node3" class="node">
<title>Node3</title>
<g id="a_node3"><a xlink:href="button_8cpp.html" target="_top" xlink:title=" ">
<polygon fill="white" stroke="black" points="35.5,-112.5 35.5,-131.5 97.5,-131.5 97.5,-112.5 35.5,-112.5"/>
<text text-anchor="middle" x="66.5" y="-119.5" font-family="Helvetica,sans-Serif" font-size="10.00">button.cpp</text>
</a>
</g>
</g>
<!-- Node2&#45;&gt;Node3 -->
<g id="edge2" class="edge">
<title>Node2&#45;&gt;Node3</title>
<path fill="none" stroke="midnightblue" d="M159.19,-164.37C136.53,-154.26 105.37,-140.35 85.58,-131.52"/>
<polygon fill="midnightblue" stroke="midnightblue" points="157.77,-167.56 168.33,-168.44 160.62,-161.17 157.77,-167.56"/>
</g>
<!-- Node4 -->
<g id="node4" class="node">
<title>Node4</title>
<g id="a_node4"><a xlink:href="context__menu_8cpp.html" target="_top" xlink:title=" ">
<polygon fill="white" stroke="black" points="0,-0.5 0,-19.5 97,-19.5 97,-0.5 0,-0.5"/>
<text text-anchor="middle" x="48.5" y="-7.5" font-family="Helvetica,sans-Serif" font-size="10.00">context_menu.cpp</text>
</a>
</g>
</g>
<!-- Node2&#45;&gt;Node4 -->
<g id="edge3" class="edge">
<title>Node2&#45;&gt;Node4</title>
<path fill="none" stroke="midnightblue" d="M171.45,-160.93C163.21,-152.49 153.11,-141.88 144.5,-132 109.09,-91.36 70.11,-39.94 54.99,-19.73"/>
<polygon fill="midnightblue" stroke="midnightblue" points="169.17,-163.6 178.69,-168.26 174.15,-158.68 169.17,-163.6"/>
</g>
<!-- Node5 -->
<g id="node5" class="node">
<title>Node5</title>
<g id="a_node5"><a xlink:href="default__skins_8cpp.html" target="_top" xlink:title=" ">
<polygon fill="white" stroke="black" points="239,-112.5 239,-131.5 332,-131.5 332,-112.5 239,-112.5"/>
<text text-anchor="middle" x="285.5" y="-119.5" font-family="Helvetica,sans-Serif" font-size="10.00">default_skins.cpp</text>
</a>
</g>
</g>
<!-- Node2&#45;&gt;Node5 -->
<g id="edge4" class="edge">
<title>Node2&#45;&gt;Node5</title>
<path fill="none" stroke="midnightblue" d="M212.09,-163.45C230.18,-153.48 254.23,-140.23 269.79,-131.65"/>
<polygon fill="midnightblue" stroke="midnightblue" points="210.31,-160.43 203.25,-168.32 213.69,-166.56 210.31,-160.43"/>
</g>
<!-- Node6 -->
<g id="node6" class="node">
<title>Node6</title>
<g id="a_node6"><a xlink:href="menu__bar_8h.html" target="_top" xlink:title=" ">
<polygon fill="white" stroke="black" points="154,-112.5 154,-131.5 221,-131.5 221,-112.5 154,-112.5"/>
<text text-anchor="middle" x="187.5" y="-119.5" font-family="Helvetica,sans-Serif" font-size="10.00">menu_bar.h</text>
</a>
</g>
</g>
<!-- Node2&#45;&gt;Node6 -->
<g id="edge5" class="edge">
<title>Node2&#45;&gt;Node6</title>
<path fill="none" stroke="midnightblue" d="M187.5,-157.8C187.5,-148.91 187.5,-138.78 187.5,-131.75"/>
<polygon fill="midnightblue" stroke="midnightblue" points="184,-158.08 187.5,-168.08 191,-158.08 184,-158.08"/>
</g>
<!-- Node7 -->
<g id="node7" class="node">
<title>Node7</title>
<g id="a_node7"><a xlink:href="menu__bar_8cpp.html" target="_top" xlink:title=" ">
<polygon fill="white" stroke="black" points="297,-0.5 297,-19.5 374,-19.5 374,-0.5 297,-0.5"/>
<text text-anchor="middle" x="335.5" y="-7.5" font-family="Helvetica,sans-Serif" font-size="10.00">menu_bar.cpp</text>
</a>
</g>
</g>
<!-- Node6&#45;&gt;Node7 -->
<g id="edge6" class="edge">
<title>Node6&#45;&gt;Node7</title>
<path fill="none" stroke="midnightblue" d="M207.52,-106.12C238.94,-82.77 298.81,-38.27 323.94,-19.59"/>
<polygon fill="midnightblue" stroke="midnightblue" points="205.05,-103.59 199.11,-112.37 209.23,-109.21 205.05,-103.59"/>
</g>
<!-- Node8 -->
<g id="node8" class="node">
<title>Node8</title>
<g id="a_node8"><a xlink:href="scene_8h.html" target="_top" xlink:title=" ">
<polygon fill="white" stroke="black" points="162,-56.5 162,-75.5 213,-75.5 213,-56.5 162,-56.5"/>
<text text-anchor="middle" x="187.5" y="-63.5" font-family="Helvetica,sans-Serif" font-size="10.00">scene.h</text>
</a>
</g>
</g>
<!-- Node6&#45;&gt;Node8 -->
<g id="edge7" class="edge">
<title>Node6&#45;&gt;Node8</title>
<path fill="none" stroke="midnightblue" d="M187.5,-101.8C187.5,-92.91 187.5,-82.78 187.5,-75.75"/>
<polygon fill="midnightblue" stroke="midnightblue" points="184,-102.08 187.5,-112.08 191,-102.08 184,-102.08"/>
</g>
<!-- Node8&#45;&gt;Node4 -->
<g id="edge9" class="edge">
<title>Node8&#45;&gt;Node4</title>
<path fill="none" stroke="midnightblue" d="M156.02,-52.77C129.91,-42.63 93.46,-28.47 70.42,-19.52"/>
<polygon fill="midnightblue" stroke="midnightblue" points="154.89,-56.08 165.48,-56.44 157.42,-49.56 154.89,-56.08"/>
</g>
<!-- Node8&#45;&gt;Node7 -->
<g id="edge10" class="edge">
<title>Node8&#45;&gt;Node7</title>
<path fill="none" stroke="midnightblue" d="M220.65,-52.91C248.47,-42.75 287.52,-28.51 312.16,-19.52"/>
<polygon fill="midnightblue" stroke="midnightblue" points="219.15,-49.73 210.95,-56.44 221.54,-56.3 219.15,-49.73"/>
</g>
<!-- Node9 -->
<g id="node9" class="node">
<title>Node9</title>
<g id="a_node9"><a xlink:href="component_8cpp.html" target="_top" xlink:title=" ">
<polygon fill="white" stroke="black" points="115,-0.5 115,-19.5 198,-19.5 198,-0.5 115,-0.5"/>
<text text-anchor="middle" x="156.5" y="-7.5" font-family="Helvetica,sans-Serif" font-size="10.00">component.cpp</text>
</a>
</g>
</g>
<!-- Node8&#45;&gt;Node9 -->
<g id="edge8" class="edge">
<title>Node8&#45;&gt;Node9</title>
<path fill="none" stroke="midnightblue" d="M177.32,-47.27C172.03,-38.05 165.78,-27.17 161.52,-19.75"/>
<polygon fill="midnightblue" stroke="midnightblue" points="174.37,-49.15 182.38,-56.08 180.44,-45.67 174.37,-49.15"/>
</g>
<!-- Node10 -->
<g id="node10" class="node">
<title>Node10</title>
<g id="a_node10"><a xlink:href="scene_8cpp.html" target="_top" xlink:title=" ">
<polygon fill="white" stroke="black" points="216.5,-0.5 216.5,-19.5 278.5,-19.5 278.5,-0.5 216.5,-0.5"/>
<text text-anchor="middle" x="247.5" y="-7.5" font-family="Helvetica,sans-Serif" font-size="10.00">scene.cpp</text>
</a>
</g>
</g>
<!-- Node8&#45;&gt;Node10 -->
<g id="edge11" class="edge">
<title>Node8&#45;&gt;Node10</title>
<path fill="none" stroke="midnightblue" d="M204.68,-49.54C215.38,-39.91 228.76,-27.87 237.68,-19.83"/>
<polygon fill="midnightblue" stroke="midnightblue" points="202.23,-47.03 197.14,-56.32 206.91,-52.24 202.23,-47.03"/>
</g>
<!-- Node13&#45;&gt;Node5 -->
<g id="edge15" class="edge">
<title>Node13&#45;&gt;Node5</title>
<path fill="none" stroke="midnightblue" d="M285.5,-157.8C285.5,-148.91 285.5,-138.78 285.5,-131.75"/>
<polygon fill="midnightblue" stroke="midnightblue" points="282,-158.08 285.5,-168.08 289,-158.08 282,-158.08"/>
</g>
<!-- Node14 -->
<g id="node14" class="node">
<title>Node14</title>
<g id="a_node14"><a xlink:href="scroll__bar_8cpp.html" target="_top" xlink:title=" ">
<polygon fill="white" stroke="black" points="350,-112.5 350,-131.5 427,-131.5 427,-112.5 350,-112.5"/>
<text text-anchor="middle" x="388.5" y="-119.5" font-family="Helvetica,sans-Serif" font-size="10.00">scroll_bar.cpp</text>
</a>
</g>
</g>
<!-- Node13&#45;&gt;Node14 -->
<g id="edge16" class="edge">
<title>Node13&#45;&gt;Node14</title>
<path fill="none" stroke="midnightblue" d="M311.08,-163.59C330.12,-153.61 355.56,-140.27 371.99,-131.65"/>
<polygon fill="midnightblue" stroke="midnightblue" points="309.28,-160.58 302.05,-168.32 312.53,-166.78 309.28,-160.58"/>
</g>
<!-- Node16&#45;&gt;Node5 -->
<g id="edge19" class="edge">
<title>Node16&#45;&gt;Node5</title>
<path fill="none" stroke="midnightblue" d="M340.19,-162.38C326.64,-152.62 309.26,-140.11 297.77,-131.83"/>
<polygon fill="midnightblue" stroke="midnightblue" points="338.29,-165.32 348.45,-168.32 342.38,-159.64 338.29,-165.32"/>
</g>
<!-- Node17 -->
<g id="node17" class="node">
<title>Node17</title>
<g id="a_node17"><a xlink:href="slider_8cpp.html" target="_top" xlink:title=" ">
<polygon fill="white" stroke="black" points="445.5,-112.5 445.5,-131.5 503.5,-131.5 503.5,-112.5 445.5,-112.5"/>
<text text-anchor="middle" x="474.5" y="-119.5" font-family="Helvetica,sans-Serif" font-size="10.00">slider.cpp</text>
</a>
</g>
</g>
<!-- Node16&#45;&gt;Node17 -->
<g id="edge20" class="edge">
<title>Node16&#45;&gt;Node17</title>
<path fill="none" stroke="midnightblue" d="M387.74,-164.1C409.04,-154.01 438.04,-140.27 456.52,-131.52"/>
<polygon fill="midnightblue" stroke="midnightblue" points="386.1,-161 378.56,-168.44 389.1,-167.33 386.1,-161"/>
</g>
</g>
</svg>
