<?xml version="1.0" encoding="UTF-8" standalone="no"?>
<!DOCTYPE svg PUBLIC "-//W3C//DTD SVG 1.1//EN"
 "http://www.w3.org/Graphics/SVG/1.1/DTD/svg11.dtd">
<!-- Generated by graphviz version 2.50.0 (20211204.2007)
 -->
<!-- Title: control.h Pages: 1 -->
<!--zoomable 308 -->
<svg id="main" version="1.1" xmlns="http://www.w3.org/2000/svg" xmlns:xlink="http://www.w3.org/1999/xlink" xml:space="preserve" onload="init(evt)">
<style type="text/css"><![CDATA[
.edge:hover path { stroke: red; }
.edge:hover polygon { stroke: red; fill: red; }
]]></style>
<script type="text/javascript"><![CDATA[
var edges = document.getElementsByTagName('g');
if (edges && edges.length) {
  for (var i=0;i<edges.length;i++) {
    if (edges[i].id.substr(0,4)=='edge') {
      edges[i].setAttribute('class','edge');
    }
  }
}
]]></script>
        <defs>
                <circle id="rim" cx="0" cy="0" r="7"/>
                <circle id="rim2" cx="0" cy="0" r="3.5"/>
                <g id="zoomPlus">
                        <use xlink:href="#rim" fill="#404040">
                                <set attributeName="fill" to="#808080" begin="zoomplus.mouseover" end="zoomplus.mouseout"/>
                        </use>
                        <path d="M-4,0h8M0,-4v8" fill="none" stroke="white" stroke-width="1.5" pointer-events="none"/>
                </g>
                <g id="zoomMin">
                        <use xlink:href="#rim" fill="#404040">
                                <set attributeName="fill" to="#808080" begin="zoomminus.mouseover" end="zoomminus.mouseout"/>
                        </use>
                        <path d="M-4,0h8" fill="none" stroke="white" stroke-width="1.5" pointer-events="none"/>
                </g>
                <g id="dirArrow">
                        <path fill="none" stroke="white" stroke-width="1.5" d="M0,-3.0v7 M-2.5,-0.5L0,-3.0L2.5,-0.5"/>
                </g>
               <g id="resetDef">
                       <use xlink:href="#rim2" fill="#404040">
                               <set attributeName="fill" to="#808080" begin="reset.mouseover" end="reset.mouseout"/>
                       </use>
               </g>
        </defs>

<script type="text/javascript">
var viewWidth = 916;
var viewHeight = 308;
var sectionId = 'dynsection-1';
</script>
<script xlink:href="svgpan.js"/>
<svg id="graph" class="graph">
<g id="viewport">
<title>control.h</title>
<polygon fill="white" stroke="transparent" points="-4,4 -4,-304 912,-304 912,4 -4,4"/>
<!-- Node1 -->
<g id="node1" class="node">
<title>Node1</title>
<g id="a_node1"><a xlink:title=" ">
<polygon fill="#bfbfbf" stroke="black" points="630.5,-280.5 630.5,-299.5 684.5,-299.5 684.5,-280.5 630.5,-280.5"/>
<text text-anchor="middle" x="657.5" y="-287.5" font-family="Helvetica,sans-Serif" font-size="10.00">control.h</text>
</a>
</g>
</g>
<!-- Node2 -->
<g id="node2" class="node">
<title>Node2</title>
<g id="a_node2"><a xlink:href="button_8h.html" target="_top" xlink:title=" ">
<polygon fill="white" stroke="black" points="299.5,-224.5 299.5,-243.5 351.5,-243.5 351.5,-224.5 299.5,-224.5"/>
<text text-anchor="middle" x="325.5" y="-231.5" font-family="Helvetica,sans-Serif" font-size="10.00">button.h</text>
</a>
</g>
</g>
<!-- Node1&#45;&gt;Node2 -->
<g id="edge1" class="edge">
<title>Node1&#45;&gt;Node2</title>
<path fill="none" stroke="midnightblue" d="M620.09,-282.92C552.19,-271.87 410.25,-248.78 351.66,-239.25"/>
<polygon fill="midnightblue" stroke="midnightblue" points="619.9,-286.43 630.33,-284.58 621.02,-279.52 619.9,-286.43"/>
</g>
<!-- Node14 -->
<g id="node14" class="node">
<title>Node14</title>
<g id="a_node14"><a xlink:href="control_8cpp.html" target="_top" xlink:title=" ">
<polygon fill="white" stroke="black" points="772,-224.5 772,-243.5 837,-243.5 837,-224.5 772,-224.5"/>
<text text-anchor="middle" x="804.5" y="-231.5" font-family="Helvetica,sans-Serif" font-size="10.00">control.cpp</text>
</a>
</g>
</g>
<!-- Node1&#45;&gt;Node14 -->
<g id="edge18" class="edge">
<title>Node1&#45;&gt;Node14</title>
<path fill="none" stroke="midnightblue" d="M690.42,-276.91C718.06,-266.75 756.84,-252.51 781.32,-243.52"/>
<polygon fill="midnightblue" stroke="midnightblue" points="688.97,-273.71 680.79,-280.44 691.39,-280.28 688.97,-273.71"/>
</g>
<!-- Node15 -->
<g id="node15" class="node">
<title>Node15</title>
<g id="a_node15"><a xlink:href="label_8h.html" target="_top" xlink:title=" ">
<polygon fill="white" stroke="black" points="709,-224.5 709,-243.5 754,-243.5 754,-224.5 709,-224.5"/>
<text text-anchor="middle" x="731.5" y="-231.5" font-family="Helvetica,sans-Serif" font-size="10.00">label.h</text>
</a>
</g>
</g>
<!-- Node1&#45;&gt;Node15 -->
<g id="edge19" class="edge">
<title>Node1&#45;&gt;Node15</title>
<path fill="none" stroke="midnightblue" d="M677.53,-274.38C690.91,-264.62 708.06,-252.11 719.39,-243.83"/>
<polygon fill="midnightblue" stroke="midnightblue" points="675.4,-271.6 669.39,-280.32 679.53,-277.26 675.4,-271.6"/>
</g>
<!-- Node16 -->
<g id="node16" class="node">
<title>Node16</title>
<g id="a_node16"><a xlink:href="scroll__bar_8h.html" target="_top" xlink:title=" ">
<polygon fill="white" stroke="black" points="624.5,-224.5 624.5,-243.5 690.5,-243.5 690.5,-224.5 624.5,-224.5"/>
<text text-anchor="middle" x="657.5" y="-231.5" font-family="Helvetica,sans-Serif" font-size="10.00">scroll_bar.h</text>
</a>
</g>
</g>
<!-- Node1&#45;&gt;Node16 -->
<g id="edge21" class="edge">
<title>Node1&#45;&gt;Node16</title>
<path fill="none" stroke="midnightblue" d="M657.5,-269.8C657.5,-260.91 657.5,-250.78 657.5,-243.75"/>
<polygon fill="midnightblue" stroke="midnightblue" points="654,-270.08 657.5,-280.08 661,-270.08 654,-270.08"/>
</g>
<!-- Node18 -->
<g id="node18" class="node">
<title>Node18</title>
<g id="a_node18"><a xlink:href="scroll__pane_8h.html" target="_top" xlink:title=" ">
<polygon fill="white" stroke="black" points="466.5,-224.5 466.5,-243.5 540.5,-243.5 540.5,-224.5 466.5,-224.5"/>
<text text-anchor="middle" x="503.5" y="-231.5" font-family="Helvetica,sans-Serif" font-size="10.00">scroll_pane.h</text>
</a>
</g>
</g>
<!-- Node1&#45;&gt;Node18 -->
<g id="edge25" class="edge">
<title>Node1&#45;&gt;Node18</title>
<path fill="none" stroke="midnightblue" d="M623.39,-277.04C594.41,-266.88 553.54,-252.55 527.79,-243.52"/>
<polygon fill="midnightblue" stroke="midnightblue" points="622.5,-280.44 633.1,-280.44 624.82,-273.83 622.5,-280.44"/>
</g>
<!-- Node20 -->
<g id="node20" class="node">
<title>Node20</title>
<g id="a_node20"><a xlink:href="skin_8cpp.html" target="_top" xlink:title=" ">
<polygon fill="white" stroke="black" points="855,-224.5 855,-243.5 908,-243.5 908,-224.5 855,-224.5"/>
<text text-anchor="middle" x="881.5" y="-231.5" font-family="Helvetica,sans-Serif" font-size="10.00">skin.cpp</text>
</a>
</g>
</g>
<!-- Node1&#45;&gt;Node20 -->
<g id="edge29" class="edge">
<title>Node1&#45;&gt;Node20</title>
<path fill="none" stroke="midnightblue" d="M694.9,-280.3C733.07,-271.38 793.98,-257 846.5,-244 849.18,-243.34 851.97,-242.64 854.76,-241.93"/>
<polygon fill="midnightblue" stroke="midnightblue" points="693.71,-276.99 684.77,-282.67 695.3,-283.8 693.71,-276.99"/>
</g>
<!-- Node21 -->
<g id="node21" class="node">
<title>Node21</title>
<g id="a_node21"><a xlink:href="slider_8h.html" target="_top" xlink:title=" ">
<polygon fill="white" stroke="black" points="559,-224.5 559,-243.5 606,-243.5 606,-224.5 559,-224.5"/>
<text text-anchor="middle" x="582.5" y="-231.5" font-family="Helvetica,sans-Serif" font-size="10.00">slider.h</text>
</a>
</g>
</g>
<!-- Node1&#45;&gt;Node21 -->
<g id="edge30" class="edge">
<title>Node1&#45;&gt;Node21</title>
<path fill="none" stroke="midnightblue" d="M637.19,-274.38C623.64,-264.62 606.26,-252.11 594.77,-243.83"/>
<polygon fill="midnightblue" stroke="midnightblue" points="635.29,-277.32 645.45,-280.32 639.38,-271.64 635.29,-277.32"/>
</g>
<!-- Node3 -->
<g id="node3" class="node">
<title>Node3</title>
<g id="a_node3"><a xlink:href="button_8cpp.html" target="_top" xlink:title=" ">
<polygon fill="white" stroke="black" points="131.5,-168.5 131.5,-187.5 193.5,-187.5 193.5,-168.5 131.5,-168.5"/>
<text text-anchor="middle" x="162.5" y="-175.5" font-family="Helvetica,sans-Serif" font-size="10.00">button.cpp</text>
</a>
</g>
</g>
<!-- Node2&#45;&gt;Node3 -->
<g id="edge2" class="edge">
<title>Node2&#45;&gt;Node3</title>
<path fill="none" stroke="midnightblue" d="M289.8,-221.17C259.1,-211 215.58,-196.59 188.21,-187.52"/>
<polygon fill="midnightblue" stroke="midnightblue" points="289.08,-224.62 299.67,-224.44 291.28,-217.98 289.08,-224.62"/>
</g>
<!-- Node4 -->
<g id="node4" class="node">
<title>Node4</title>
<g id="a_node4"><a xlink:href="context__menu_8cpp.html" target="_top" xlink:title=" ">
<polygon fill="white" stroke="black" points="277,-0.5 277,-19.5 374,-19.5 374,-0.5 277,-0.5"/>
<text text-anchor="middle" x="325.5" y="-7.5" font-family="Helvetica,sans-Serif" font-size="10.00">context_menu.cpp</text>
</a>
</g>
</g>
<!-- Node2&#45;&gt;Node4 -->
<g id="edge3" class="edge">
<title>Node2&#45;&gt;Node4</title>
<path fill="none" stroke="midnightblue" d="M325.5,-214.3C325.5,-168.64 325.5,-52.85 325.5,-19.88"/>
<polygon fill="midnightblue" stroke="midnightblue" points="322,-214.3 325.5,-224.3 329,-214.3 322,-214.3"/>
</g>
<!-- Node5 -->
<g id="node5" class="node">
<title>Node5</title>
<g id="a_node5"><a xlink:href="context__menu_8h.html" target="_top" xlink:title=" ">
<polygon fill="white" stroke="black" points="211.5,-168.5 211.5,-187.5 297.5,-187.5 297.5,-168.5 211.5,-168.5"/>
<text text-anchor="middle" x="254.5" y="-175.5" font-family="Helvetica,sans-Serif" font-size="10.00">context_menu.h</text>
</a>
</g>
</g>
<!-- Node2&#45;&gt;Node5 -->
<g id="edge4" class="edge">
<title>Node2&#45;&gt;Node5</title>
<path fill="none" stroke="midnightblue" d="M305.91,-218.1C293.13,-208.38 276.89,-196.03 266.11,-187.83"/>
<polygon fill="midnightblue" stroke="midnightblue" points="304.01,-221.06 314.09,-224.32 308.25,-215.48 304.01,-221.06"/>
</g>
<!-- Node7 -->
<g id="node7" class="node">
<title>Node7</title>
<g id="a_node7"><a xlink:href="menu__bar_8h.html" target="_top" xlink:title=" ">
<polygon fill="white" stroke="black" points="104,-112.5 104,-131.5 171,-131.5 171,-112.5 104,-112.5"/>
<text text-anchor="middle" x="137.5" y="-119.5" font-family="Helvetica,sans-Serif" font-size="10.00">menu_bar.h</text>
</a>
</g>
</g>
<!-- Node2&#45;&gt;Node7 -->
<g id="edge17" class="edge">
<title>Node2&#45;&gt;Node7</title>
<path fill="none" stroke="midnightblue" d="M289.14,-230.28C236.47,-225.49 143,-213.55 122.5,-188 109.16,-171.38 122.75,-145.07 131.44,-131.59"/>
<polygon fill="midnightblue" stroke="midnightblue" points="289.14,-233.79 299.4,-231.17 289.74,-226.82 289.14,-233.79"/>
</g>
<!-- Node12 -->
<g id="node12" class="node">
<title>Node12</title>
<g id="a_node12"><a xlink:href="controls_8h.html" target="_top" xlink:title=" ">
<polygon fill="white" stroke="black" points="645,-168.5 645,-187.5 704,-187.5 704,-168.5 645,-168.5"/>
<text text-anchor="middle" x="674.5" y="-175.5" font-family="Helvetica,sans-Serif" font-size="10.00">controls.h</text>
</a>
</g>
</g>
<!-- Node2&#45;&gt;Node12 -->
<g id="edge15" class="edge">
<title>Node2&#45;&gt;Node12</title>
<path fill="none" stroke="midnightblue" d="M361.89,-228.71C419.97,-221.63 537.13,-206.46 635.5,-188 638.51,-187.44 641.63,-186.8 644.74,-186.13"/>
<polygon fill="midnightblue" stroke="midnightblue" points="361.26,-225.26 351.75,-229.93 362.1,-232.21 361.26,-225.26"/>
</g>
<!-- Node13 -->
<g id="node13" class="node">
<title>Node13</title>
<g id="a_node13"><a xlink:href="default__skins_8cpp.html" target="_top" xlink:title=" ">
<polygon fill="white" stroke="black" points="457,-168.5 457,-187.5 550,-187.5 550,-168.5 457,-168.5"/>
<text text-anchor="middle" x="503.5" y="-175.5" font-family="Helvetica,sans-Serif" font-size="10.00">default_skins.cpp</text>
</a>
</g>
</g>
<!-- Node2&#45;&gt;Node13 -->
<g id="edge16" class="edge">
<title>Node2&#45;&gt;Node13</title>
<path fill="none" stroke="midnightblue" d="M361.65,-222.03C395.25,-211.84 444.61,-196.87 475.36,-187.54"/>
<polygon fill="midnightblue" stroke="midnightblue" points="360.32,-218.78 351.76,-225.03 362.35,-225.48 360.32,-218.78"/>
</g>
<!-- Node5&#45;&gt;Node4 -->
<g id="edge6" class="edge">
<title>Node5&#45;&gt;Node4</title>
<path fill="none" stroke="midnightblue" d="M262.26,-158.86C277.49,-123.25 310.76,-45.45 321.84,-19.57"/>
<polygon fill="midnightblue" stroke="midnightblue" points="259.03,-157.5 258.32,-168.08 265.47,-160.26 259.03,-157.5"/>
</g>
<!-- Node6 -->
<g id="node6" class="node">
<title>Node6</title>
<g id="a_node6"><a xlink:href="containers_8h.html" target="_top" xlink:title=" ">
<polygon fill="white" stroke="black" points="183.5,-56.5 183.5,-75.5 253.5,-75.5 253.5,-56.5 183.5,-56.5"/>
<text text-anchor="middle" x="218.5" y="-63.5" font-family="Helvetica,sans-Serif" font-size="10.00">containers.h</text>
</a>
</g>
</g>
<!-- Node5&#45;&gt;Node6 -->
<g id="edge5" class="edge">
<title>Node5&#45;&gt;Node6</title>
<path fill="none" stroke="midnightblue" d="M248.5,-158.67C240.63,-134.62 227.14,-93.39 221.31,-75.59"/>
<polygon fill="midnightblue" stroke="midnightblue" points="245.24,-159.95 251.68,-168.37 251.89,-157.78 245.24,-159.95"/>
</g>
<!-- Node5&#45;&gt;Node7 -->
<g id="edge7" class="edge">
<title>Node5&#45;&gt;Node7</title>
<path fill="none" stroke="midnightblue" d="M226.84,-164.23C204.95,-154.13 175,-140.31 155.95,-131.52"/>
<polygon fill="midnightblue" stroke="midnightblue" points="225.41,-167.43 235.96,-168.44 228.35,-161.08 225.41,-167.43"/>
</g>
<!-- Node7&#45;&gt;Node6 -->
<g id="edge8" class="edge">
<title>Node7&#45;&gt;Node6</title>
<path fill="none" stroke="midnightblue" d="M159.07,-106.62C173.86,-96.76 193.01,-83.99 205.52,-75.65"/>
<polygon fill="midnightblue" stroke="midnightblue" points="156.89,-103.86 150.51,-112.32 160.78,-109.69 156.89,-103.86"/>
</g>
<!-- Node8 -->
<g id="node8" class="node">
<title>Node8</title>
<g id="a_node8"><a xlink:href="menu__bar_8cpp.html" target="_top" xlink:title=" ">
<polygon fill="white" stroke="black" points="0,-0.5 0,-19.5 77,-19.5 77,-0.5 0,-0.5"/>
<text text-anchor="middle" x="38.5" y="-7.5" font-family="Helvetica,sans-Serif" font-size="10.00">menu_bar.cpp</text>
</a>
</g>
</g>
<!-- Node7&#45;&gt;Node8 -->
<g id="edge9" class="edge">
<title>Node7&#45;&gt;Node8</title>
<path fill="none" stroke="midnightblue" d="M123.01,-104.9C101.72,-81.25 62.75,-37.95 46.23,-19.59"/>
<polygon fill="midnightblue" stroke="midnightblue" points="120.44,-107.28 129.73,-112.37 125.64,-102.59 120.44,-107.28"/>
</g>
<!-- Node9 -->
<g id="node9" class="node">
<title>Node9</title>
<g id="a_node9"><a xlink:href="scene_8h.html" target="_top" xlink:title=" ">
<polygon fill="white" stroke="black" points="112,-56.5 112,-75.5 163,-75.5 163,-56.5 112,-56.5"/>
<text text-anchor="middle" x="137.5" y="-63.5" font-family="Helvetica,sans-Serif" font-size="10.00">scene.h</text>
</a>
</g>
</g>
<!-- Node7&#45;&gt;Node9 -->
<g id="edge10" class="edge">
<title>Node7&#45;&gt;Node9</title>
<path fill="none" stroke="midnightblue" d="M137.5,-101.8C137.5,-92.91 137.5,-82.78 137.5,-75.75"/>
<polygon fill="midnightblue" stroke="midnightblue" points="134,-102.08 137.5,-112.08 141,-102.08 134,-102.08"/>
</g>
<!-- Node9&#45;&gt;Node4 -->
<g id="edge12" class="edge">
<title>Node9&#45;&gt;Node4</title>
<path fill="none" stroke="midnightblue" d="M173.18,-54.75C208.66,-44.56 262.48,-29.1 295.73,-19.55"/>
<polygon fill="midnightblue" stroke="midnightblue" points="171.89,-51.48 163.25,-57.6 173.82,-58.21 171.89,-51.48"/>
</g>
<!-- Node9&#45;&gt;Node8 -->
<g id="edge13" class="edge">
<title>Node9&#45;&gt;Node8</title>
<path fill="none" stroke="midnightblue" d="M112.66,-51.45C94.39,-41.48 70.08,-28.23 54.37,-19.65"/>
<polygon fill="midnightblue" stroke="midnightblue" points="111.14,-54.61 121.59,-56.32 114.49,-48.46 111.14,-54.61"/>
</g>
<!-- Node10 -->
<g id="node10" class="node">
<title>Node10</title>
<g id="a_node10"><a xlink:href="component_8cpp.html" target="_top" xlink:title=" ">
<polygon fill="white" stroke="black" points="95,-0.5 95,-19.5 178,-19.5 178,-0.5 95,-0.5"/>
<text text-anchor="middle" x="136.5" y="-7.5" font-family="Helvetica,sans-Serif" font-size="10.00">component.cpp</text>
</a>
</g>
</g>
<!-- Node9&#45;&gt;Node10 -->
<g id="edge11" class="edge">
<title>Node9&#45;&gt;Node10</title>
<path fill="none" stroke="midnightblue" d="M137.14,-45.8C136.98,-36.91 136.79,-26.78 136.66,-19.75"/>
<polygon fill="midnightblue" stroke="midnightblue" points="133.65,-46.15 137.33,-56.08 140.65,-46.02 133.65,-46.15"/>
</g>
<!-- Node11 -->
<g id="node11" class="node">
<title>Node11</title>
<g id="a_node11"><a xlink:href="scene_8cpp.html" target="_top" xlink:title=" ">
<polygon fill="white" stroke="black" points="196.5,-0.5 196.5,-19.5 258.5,-19.5 258.5,-0.5 196.5,-0.5"/>
<text text-anchor="middle" x="227.5" y="-7.5" font-family="Helvetica,sans-Serif" font-size="10.00">scene.cpp</text>
</a>
</g>
</g>
<!-- Node9&#45;&gt;Node11 -->
<g id="edge14" class="edge">
<title>Node9&#45;&gt;Node11</title>
<path fill="none" stroke="midnightblue" d="M160.54,-51.18C177.1,-41.24 198.92,-28.15 213.08,-19.65"/>
<polygon fill="midnightblue" stroke="midnightblue" points="158.73,-48.18 151.96,-56.32 162.34,-54.18 158.73,-48.18"/>
</g>
<!-- Node15&#45;&gt;Node12 -->
<g id="edge20" class="edge">
<title>Node15&#45;&gt;Node12</title>
<path fill="none" stroke="midnightblue" d="M714.88,-217.25C704.77,-207.67 692.22,-195.79 683.82,-187.83"/>
<polygon fill="midnightblue" stroke="midnightblue" points="712.68,-219.99 722.34,-224.32 717.49,-214.91 712.68,-219.99"/>
</g>
<!-- Node16&#45;&gt;Node12 -->
<g id="edge22" class="edge">
<title>Node16&#45;&gt;Node12</title>
<path fill="none" stroke="midnightblue" d="M663.36,-214.4C666.2,-205.36 669.48,-194.94 671.75,-187.75"/>
<polygon fill="midnightblue" stroke="midnightblue" points="659.97,-213.49 660.31,-224.08 666.65,-215.6 659.97,-213.49"/>
</g>
<!-- Node16&#45;&gt;Node13 -->
<g id="edge23" class="edge">
<title>Node16&#45;&gt;Node13</title>
<path fill="none" stroke="midnightblue" d="M623.39,-221.04C594.41,-210.88 553.54,-196.55 527.79,-187.52"/>
<polygon fill="midnightblue" stroke="midnightblue" points="622.5,-224.44 633.1,-224.44 624.82,-217.83 622.5,-224.44"/>
</g>
<!-- Node17 -->
<g id="node17" class="node">
<title>Node17</title>
<g id="a_node17"><a xlink:href="scroll__bar_8cpp.html" target="_top" xlink:title=" ">
<polygon fill="white" stroke="black" points="722,-168.5 722,-187.5 799,-187.5 799,-168.5 722,-168.5"/>
<text text-anchor="middle" x="760.5" y="-175.5" font-family="Helvetica,sans-Serif" font-size="10.00">scroll_bar.cpp</text>
</a>
</g>
</g>
<!-- Node16&#45;&gt;Node17 -->
<g id="edge24" class="edge">
<title>Node16&#45;&gt;Node17</title>
<path fill="none" stroke="midnightblue" d="M683.08,-219.59C702.12,-209.61 727.56,-196.27 743.99,-187.65"/>
<polygon fill="midnightblue" stroke="midnightblue" points="681.28,-216.58 674.05,-224.32 684.53,-222.78 681.28,-216.58"/>
</g>
<!-- Node18&#45;&gt;Node12 -->
<g id="edge26" class="edge">
<title>Node18&#45;&gt;Node12</title>
<path fill="none" stroke="midnightblue" d="M540.54,-221.3C572.76,-211.13 618.69,-196.62 647.53,-187.52"/>
<polygon fill="midnightblue" stroke="midnightblue" points="539.08,-218.09 530.6,-224.44 541.19,-224.77 539.08,-218.09"/>
</g>
<!-- Node18&#45;&gt;Node13 -->
<g id="edge27" class="edge">
<title>Node18&#45;&gt;Node13</title>
<path fill="none" stroke="midnightblue" d="M503.5,-213.8C503.5,-204.91 503.5,-194.78 503.5,-187.75"/>
<polygon fill="midnightblue" stroke="midnightblue" points="500,-214.08 503.5,-224.08 507,-214.08 500,-214.08"/>
</g>
<!-- Node19 -->
<g id="node19" class="node">
<title>Node19</title>
<g id="a_node19"><a xlink:href="scroll__pane_8cpp.html" target="_top" xlink:title=" ">
<polygon fill="white" stroke="black" points="354,-168.5 354,-187.5 439,-187.5 439,-168.5 354,-168.5"/>
<text text-anchor="middle" x="396.5" y="-175.5" font-family="Helvetica,sans-Serif" font-size="10.00">scroll_pane.cpp</text>
</a>
</g>
</g>
<!-- Node18&#45;&gt;Node19 -->
<g id="edge28" class="edge">
<title>Node18&#45;&gt;Node19</title>
<path fill="none" stroke="midnightblue" d="M477.2,-219.73C457.39,-209.73 430.79,-196.31 413.65,-187.65"/>
<polygon fill="midnightblue" stroke="midnightblue" points="475.8,-222.94 486.31,-224.32 478.96,-216.69 475.8,-222.94"/>
</g>
<!-- Node21&#45;&gt;Node12 -->
<g id="edge31" class="edge">
<title>Node21&#45;&gt;Node12</title>
<path fill="none" stroke="midnightblue" d="M606.05,-219.18C622.98,-209.24 645.28,-196.15 659.76,-187.65"/>
<polygon fill="midnightblue" stroke="midnightblue" points="604.13,-216.24 597.28,-224.32 607.68,-222.28 604.13,-216.24"/>
</g>
<!-- Node21&#45;&gt;Node13 -->
<g id="edge32" class="edge">
<title>Node21&#45;&gt;Node13</title>
<path fill="none" stroke="midnightblue" d="M561.47,-218.62C547.03,-208.76 528.36,-195.99 516.16,-187.65"/>
<polygon fill="midnightblue" stroke="midnightblue" points="559.58,-221.57 569.81,-224.32 563.53,-215.79 559.58,-221.57"/>
</g>
<!-- Node22 -->
<g id="node22" class="node">
<title>Node22</title>
<g id="a_node22"><a xlink:href="slider_8cpp.html" target="_top" xlink:title=" ">
<polygon fill="white" stroke="black" points="568.5,-168.5 568.5,-187.5 626.5,-187.5 626.5,-168.5 568.5,-168.5"/>
<text text-anchor="middle" x="597.5" y="-175.5" font-family="Helvetica,sans-Serif" font-size="10.00">slider.cpp</text>
</a>
</g>
</g>
<!-- Node21&#45;&gt;Node22 -->
<g id="edge33" class="edge">
<title>Node21&#45;&gt;Node22</title>
<path fill="none" stroke="midnightblue" d="M587.67,-214.4C590.18,-205.36 593.07,-194.94 595.07,-187.75"/>
<polygon fill="midnightblue" stroke="midnightblue" points="584.28,-213.51 584.98,-224.08 591.03,-215.38 584.28,-213.51"/>
</g>
</g>
</svg>
        <g id="navigator" transform="translate(0 0)" fill="#404254">
                <rect fill="#f2f5e9" fill-opacity="0.5" stroke="#606060" stroke-width=".5" x="0" y="0" width="60" height="60"/>
                <use id="zoomplus" xlink:href="#zoomPlus" x="17" y="9" onmousedown="handleZoom(evt,'in')"/>
                <use id="zoomminus" xlink:href="#zoomMin" x="42" y="9" onmousedown="handleZoom(evt,'out')"/>
                <use id="reset" xlink:href="#resetDef" x="30" y="36" onmousedown="handleReset()"/>
                <g id="arrowUp" xlink:href="#dirArrow" transform="translate(30 24)" onmousedown="handlePan(0,-1)">
                  <use xlink:href="#rim" fill="#404040">
                        <set attributeName="fill" to="#808080" begin="arrowUp.mouseover" end="arrowUp.mouseout"/>
                  </use>
                  <path fill="none" stroke="white" stroke-width="1.5" d="M0,-3.0v7 M-2.5,-0.5L0,-3.0L2.5,-0.5"/>
                </g>
                <g id="arrowRight" xlink:href="#dirArrow" transform="rotate(90) translate(36 -43)" onmousedown="handlePan(1,0)">
                  <use xlink:href="#rim" fill="#404040">
                        <set attributeName="fill" to="#808080" begin="arrowRight.mouseover" end="arrowRight.mouseout"/>
                  </use>
                  <path fill="none" stroke="white" stroke-width="1.5" d="M0,-3.0v7 M-2.5,-0.5L0,-3.0L2.5,-0.5"/>
                </g>
                <g id="arrowDown" xlink:href="#dirArrow" transform="rotate(180) translate(-30 -48)" onmousedown="handlePan(0,1)">
                  <use xlink:href="#rim" fill="#404040">
                        <set attributeName="fill" to="#808080" begin="arrowDown.mouseover" end="arrowDown.mouseout"/>
                  </use>
                  <path fill="none" stroke="white" stroke-width="1.5" d="M0,-3.0v7 M-2.5,-0.5L0,-3.0L2.5,-0.5"/>
                </g>
                <g id="arrowLeft" xlink:href="#dirArrow" transform="rotate(270) translate(-36 17)" onmousedown="handlePan(-1,0)">
                  <use xlink:href="#rim" fill="#404040">
                        <set attributeName="fill" to="#808080" begin="arrowLeft.mouseover" end="arrowLeft.mouseout"/>
                  </use>
                  <path fill="none" stroke="white" stroke-width="1.5" d="M0,-3.0v7 M-2.5,-0.5L0,-3.0L2.5,-0.5"/>
                </g>
        </g>
        <svg viewBox="0 0 15 15" width="100%" height="30px" preserveAspectRatio="xMaxYMin meet">
         <g id="arrow_out" transform="scale(0.3 0.3)">
          <a xlink:href="control_8h__dep__incl_org.svg" target="_base">
           <rect id="button" ry="5" rx="5" y="6" x="6" height="38" width="38"
                fill="#f2f5e9" fill-opacity="0.5" stroke="#606060" stroke-width="1.0"/>
           <path id="arrow"
             d="M 11.500037,31.436501 C 11.940474,20.09759 22.043105,11.32322 32.158766,21.979434 L 37.068811,17.246167 C 37.068811,17.246167 37.088388,32 37.088388,32 L 22.160133,31.978069 C 22.160133,31.978069 26.997745,27.140456 26.997745,27.140456 C 18.528582,18.264221 13.291696,25.230495 11.500037,31.436501 z"
             style="fill:#404040;"/>
          </a>
         </g>
        </svg>
</svg>
