<?xml version="1.0" encoding="UTF-8" standalone="no"?>
<!DOCTYPE svg PUBLIC "-//W3C//DTD SVG 1.1//EN"
 "http://www.w3.org/Graphics/SVG/1.1/DTD/svg11.dtd">
<!-- Generated by graphviz version 2.50.0 (20211204.2007)
 -->
<!-- Title: context_menu.h Pages: 1 -->
<svg width="1321pt" height="476pt"
 viewBox="0.00 0.00 1320.50 476.00" xmlns="http://www.w3.org/2000/svg" xmlns:xlink="http://www.w3.org/1999/xlink">
<g id="graph0" class="graph" transform="scale(1 1) rotate(0) translate(4 472)">
<title>context_menu.h</title>
<polygon fill="white" stroke="transparent" points="-4,4 -4,-472 1316.5,-472 1316.5,4 -4,4"/>
<!-- Node1 -->
<g id="node1" class="node">
<title>Node1</title>
<g id="a_node1"><a xlink:title=" ">
<polygon fill="#bfbfbf" stroke="black" points="632.5,-448.5 632.5,-467.5 718.5,-467.5 718.5,-448.5 632.5,-448.5"/>
<text text-anchor="middle" x="675.5" y="-455.5" font-family="Helvetica,sans-Serif" font-size="10.00">context_menu.h</text>
</a>
</g>
</g>
<!-- Node2 -->
<g id="node2" class="node">
<title>Node2</title>
<g id="a_node2"><a xlink:href="box__container_8h.html" target="_top" xlink:title=" ">
<polygon fill="white" stroke="black" points="449,-336.5 449,-355.5 534,-355.5 534,-336.5 449,-336.5"/>
<text text-anchor="middle" x="491.5" y="-343.5" font-family="Helvetica,sans-Serif" font-size="10.00">box_container.h</text>
</a>
</g>
</g>
<!-- Node1&#45;&gt;Node2 -->
<g id="edge1" class="edge">
<title>Node1&#45;&gt;Node2</title>
<path fill="none" stroke="midnightblue" d="M661.06,-448.37C629.35,-429.41 553.39,-384 514.82,-360.94"/>
<polygon fill="midnightblue" stroke="midnightblue" points="516.25,-357.72 505.87,-355.59 512.66,-363.73 516.25,-357.72"/>
</g>
<!-- Node29 -->
<g id="node29" class="node">
<title>Node29</title>
<g id="a_node29"><a xlink:href="button_8h.html" target="_top" xlink:title=" ">
<polygon fill="white" stroke="black" points="686.5,-392.5 686.5,-411.5 784.5,-411.5 784.5,-392.5 686.5,-392.5"/>
<text text-anchor="middle" x="735.5" y="-399.5" font-family="Helvetica,sans-Serif" font-size="10.00">../controls/button.h</text>
</a>
</g>
</g>
<!-- Node1&#45;&gt;Node29 -->
<g id="edge36" class="edge">
<title>Node1&#45;&gt;Node29</title>
<path fill="none" stroke="midnightblue" d="M685.14,-448.32C694.01,-440.34 707.37,-428.31 718.11,-418.65"/>
<polygon fill="midnightblue" stroke="midnightblue" points="720.59,-421.13 725.68,-411.83 715.91,-415.92 720.59,-421.13"/>
</g>
<!-- Node3 -->
<g id="node3" class="node">
<title>Node3</title>
<g id="a_node3"><a xlink:title=" ">
<polygon fill="white" stroke="#bfbfbf" points="225,-280.5 225,-299.5 308,-299.5 308,-280.5 225,-280.5"/>
<text text-anchor="middle" x="266.5" y="-287.5" font-family="Helvetica,sans-Serif" font-size="10.00">unordered_map</text>
</a>
</g>
</g>
<!-- Node2&#45;&gt;Node3 -->
<g id="edge2" class="edge">
<title>Node2&#45;&gt;Node3</title>
<path fill="none" stroke="midnightblue" d="M455.85,-336.44C416.84,-327.08 354.23,-312.06 311.78,-301.87"/>
<polygon fill="midnightblue" stroke="midnightblue" points="312.53,-298.45 301.99,-299.52 310.89,-305.25 312.53,-298.45"/>
</g>
<!-- Node4 -->
<g id="node4" class="node">
<title>Node4</title>
<g id="a_node4"><a xlink:href="container_8h.html" target="_top" xlink:title=" ">
<polygon fill="white" stroke="black" points="763.5,-280.5 763.5,-299.5 827.5,-299.5 827.5,-280.5 763.5,-280.5"/>
<text text-anchor="middle" x="795.5" y="-287.5" font-family="Helvetica,sans-Serif" font-size="10.00">container.h</text>
</a>
</g>
</g>
<!-- Node2&#45;&gt;Node4 -->
<g id="edge3" class="edge">
<title>Node2&#45;&gt;Node4</title>
<path fill="none" stroke="midnightblue" d="M534.09,-337.43C592.21,-327.11 695.71,-308.73 753.51,-298.46"/>
<polygon fill="midnightblue" stroke="midnightblue" points="754.18,-301.9 763.41,-296.7 752.95,-295 754.18,-301.9"/>
</g>
<!-- Node28 -->
<g id="node28" class="node">
<title>Node28</title>
<g id="a_node28"><a xlink:title=" ">
<polygon fill="white" stroke="#bfbfbf" points="326.5,-280.5 326.5,-299.5 400.5,-299.5 400.5,-280.5 326.5,-280.5"/>
<text text-anchor="middle" x="363.5" y="-287.5" font-family="Helvetica,sans-Serif" font-size="10.00">sys/syscall.h</text>
</a>
</g>
</g>
<!-- Node2&#45;&gt;Node28 -->
<g id="edge35" class="edge">
<title>Node2&#45;&gt;Node28</title>
<path fill="none" stroke="midnightblue" d="M471.22,-336.44C450.15,-327.56 416.98,-313.56 393.01,-303.45"/>
<polygon fill="midnightblue" stroke="midnightblue" points="394.26,-300.18 383.69,-299.52 391.54,-306.63 394.26,-300.18"/>
</g>
<!-- Node5 -->
<g id="node5" class="node">
<title>Node5</title>
<g id="a_node5"><a xlink:href="parent_8h.html" target="_top" xlink:title=" ">
<polygon fill="white" stroke="black" points="877,-224.5 877,-243.5 938,-243.5 938,-224.5 877,-224.5"/>
<text text-anchor="middle" x="907.5" y="-231.5" font-family="Helvetica,sans-Serif" font-size="10.00">../parent.h</text>
</a>
</g>
</g>
<!-- Node4&#45;&gt;Node5 -->
<g id="edge4" class="edge">
<title>Node4&#45;&gt;Node5</title>
<path fill="none" stroke="midnightblue" d="M813.49,-280.32C831.54,-271.62 859.55,-258.12 880.3,-248.11"/>
<polygon fill="midnightblue" stroke="midnightblue" points="882.06,-251.15 889.55,-243.65 879.02,-244.84 882.06,-251.15"/>
</g>
<!-- Node6 -->
<g id="node6" class="node">
<title>Node6</title>
<g id="a_node6"><a xlink:href="component_8h.html" target="_top" xlink:title=" ">
<polygon fill="white" stroke="black" points="495,-168.5 495,-187.5 568,-187.5 568,-168.5 495,-168.5"/>
<text text-anchor="middle" x="531.5" y="-175.5" font-family="Helvetica,sans-Serif" font-size="10.00">component.h</text>
</a>
</g>
</g>
<!-- Node5&#45;&gt;Node6 -->
<g id="edge5" class="edge">
<title>Node5&#45;&gt;Node6</title>
<path fill="none" stroke="midnightblue" d="M876.79,-227.39C870.11,-226.22 863.07,-225.03 856.5,-224 757.63,-208.44 641.36,-193.04 578.17,-184.91"/>
<polygon fill="midnightblue" stroke="midnightblue" points="578.48,-181.42 568.12,-183.62 577.59,-188.36 578.48,-181.42"/>
</g>
<!-- Node19 -->
<g id="node19" class="node">
<title>Node19</title>
<g id="a_node19"><a xlink:href="insets_8h.html" target="_top" xlink:title=" ">
<polygon fill="white" stroke="black" points="1043.5,-112.5 1043.5,-131.5 1127.5,-131.5 1127.5,-112.5 1043.5,-112.5"/>
<text text-anchor="middle" x="1085.5" y="-119.5" font-family="Helvetica,sans-Serif" font-size="10.00">../paint/insets.h</text>
</a>
</g>
</g>
<!-- Node5&#45;&gt;Node19 -->
<g id="edge19" class="edge">
<title>Node5&#45;&gt;Node19</title>
<path fill="none" stroke="midnightblue" d="M921.47,-224.37C952.14,-205.41 1025.63,-160 1062.94,-136.94"/>
<polygon fill="midnightblue" stroke="midnightblue" points="1064.93,-139.83 1071.6,-131.59 1061.25,-133.87 1064.93,-139.83"/>
</g>
<!-- Node21 -->
<g id="node21" class="node">
<title>Node21</title>
<g id="a_node21"><a xlink:href="border_8h.html" target="_top" xlink:title=" ">
<polygon fill="white" stroke="black" points="882.5,-168.5 882.5,-187.5 966.5,-187.5 966.5,-168.5 882.5,-168.5"/>
<text text-anchor="middle" x="924.5" y="-175.5" font-family="Helvetica,sans-Serif" font-size="10.00">../paint/border.h</text>
</a>
</g>
</g>
<!-- Node5&#45;&gt;Node21 -->
<g id="edge21" class="edge">
<title>Node5&#45;&gt;Node21</title>
<path fill="none" stroke="midnightblue" d="M910.31,-224.08C912.58,-216.85 915.87,-206.41 918.71,-197.4"/>
<polygon fill="midnightblue" stroke="midnightblue" points="922.08,-198.34 921.75,-187.75 915.4,-196.24 922.08,-198.34"/>
</g>
<!-- Node24 -->
<g id="node24" class="node">
<title>Node24</title>
<g id="a_node24"><a xlink:href="background_8h.html" target="_top" xlink:title=" ">
<polygon fill="white" stroke="black" points="713.5,-168.5 713.5,-187.5 821.5,-187.5 821.5,-168.5 713.5,-168.5"/>
<text text-anchor="middle" x="767.5" y="-175.5" font-family="Helvetica,sans-Serif" font-size="10.00">../paint/background.h</text>
</a>
</g>
</g>
<!-- Node5&#45;&gt;Node24 -->
<g id="edge25" class="edge">
<title>Node5&#45;&gt;Node24</title>
<path fill="none" stroke="midnightblue" d="M885.32,-224.44C862.07,-215.48 825.35,-201.31 799.08,-191.18"/>
<polygon fill="midnightblue" stroke="midnightblue" points="800.17,-187.85 789.58,-187.52 797.65,-194.38 800.17,-187.85"/>
</g>
<!-- Node7 -->
<g id="node7" class="node">
<title>Node7</title>
<g id="a_node7"><a xlink:title=" ">
<polygon fill="white" stroke="#bfbfbf" points="289.5,-112.5 289.5,-131.5 429.5,-131.5 429.5,-112.5 289.5,-112.5"/>
<text text-anchor="middle" x="359.5" y="-119.5" font-family="Helvetica,sans-Serif" font-size="10.00">sml/sml_graphics_wrapper.h</text>
</a>
</g>
</g>
<!-- Node6&#45;&gt;Node7 -->
<g id="edge6" class="edge">
<title>Node6&#45;&gt;Node7</title>
<path fill="none" stroke="midnightblue" d="M504.25,-168.44C475.06,-159.28 428.58,-144.69 396.19,-134.52"/>
<polygon fill="midnightblue" stroke="midnightblue" points="397.22,-131.17 386.63,-131.52 395.12,-137.85 397.22,-131.17"/>
</g>
<!-- Node8 -->
<g id="node8" class="node">
<title>Node8</title>
<g id="a_node8"><a xlink:href="gui__event__dispatching_8h.html" target="_top" xlink:title=" ">
<polygon fill="white" stroke="black" points="448,-112.5 448,-131.5 611,-131.5 611,-112.5 448,-112.5"/>
<text text-anchor="middle" x="529.5" y="-119.5" font-family="Helvetica,sans-Serif" font-size="10.00">../events/gui_event_dispatching.h</text>
</a>
</g>
</g>
<!-- Node6&#45;&gt;Node8 -->
<g id="edge7" class="edge">
<title>Node6&#45;&gt;Node8</title>
<path fill="none" stroke="midnightblue" d="M531.17,-168.08C530.91,-161.01 530.53,-150.86 530.2,-141.99"/>
<polygon fill="midnightblue" stroke="midnightblue" points="533.69,-141.61 529.82,-131.75 526.7,-141.87 533.69,-141.61"/>
</g>
<!-- Node16 -->
<g id="node16" class="node">
<title>Node16</title>
<g id="a_node16"><a xlink:href="shadow_8h.html" target="_top" xlink:title=" ">
<polygon fill="white" stroke="black" points="73.5,-112.5 73.5,-131.5 163.5,-131.5 163.5,-112.5 73.5,-112.5"/>
<text text-anchor="middle" x="118.5" y="-119.5" font-family="Helvetica,sans-Serif" font-size="10.00">../paint/shadow.h</text>
</a>
</g>
</g>
<!-- Node6&#45;&gt;Node16 -->
<g id="edge16" class="edge">
<title>Node6&#45;&gt;Node16</title>
<path fill="none" stroke="midnightblue" d="M495,-172.92C431.75,-165.74 297.46,-150.03 173.6,-132.11"/>
<polygon fill="midnightblue" stroke="midnightblue" points="173.96,-128.63 163.56,-130.65 172.95,-135.55 173.96,-128.63"/>
</g>
<!-- Node9 -->
<g id="node9" class="node">
<title>Node9</title>
<g id="a_node9"><a xlink:title=" ">
<polygon fill="white" stroke="#bfbfbf" points="728.5,-56.5 728.5,-75.5 772.5,-75.5 772.5,-56.5 728.5,-56.5"/>
<text text-anchor="middle" x="750.5" y="-63.5" font-family="Helvetica,sans-Serif" font-size="10.00">vector</text>
</a>
</g>
</g>
<!-- Node8&#45;&gt;Node9 -->
<g id="edge8" class="edge">
<title>Node8&#45;&gt;Node9</title>
<path fill="none" stroke="midnightblue" d="M568.21,-112.43C604.6,-104.24 660.81,-91.25 718.21,-76.25"/>
<polygon fill="midnightblue" stroke="midnightblue" points="719.41,-79.55 728.19,-73.62 717.62,-72.78 719.41,-79.55"/>
</g>
<!-- Node10 -->
<g id="node10" class="node">
<title>Node10</title>
<g id="a_node10"><a xlink:title=" ">
<polygon fill="white" stroke="#bfbfbf" points="396,-56.5 396,-75.5 551,-75.5 551,-56.5 396,-56.5"/>
<text text-anchor="middle" x="473.5" y="-63.5" font-family="Helvetica,sans-Serif" font-size="10.00">sml/events/event_dispatching.h</text>
</a>
</g>
</g>
<!-- Node8&#45;&gt;Node10 -->
<g id="edge9" class="edge">
<title>Node8&#45;&gt;Node10</title>
<path fill="none" stroke="midnightblue" d="M520.5,-112.32C512.31,-104.42 499.99,-92.55 490.03,-82.94"/>
<polygon fill="midnightblue" stroke="midnightblue" points="492.29,-80.26 482.66,-75.83 487.43,-85.29 492.29,-80.26"/>
</g>
<!-- Node11 -->
<g id="node11" class="node">
<title>Node11</title>
<g id="a_node11"><a xlink:title=" ">
<polygon fill="white" stroke="#bfbfbf" points="569,-56.5 569,-75.5 710,-75.5 710,-56.5 569,-56.5"/>
<text text-anchor="middle" x="639.5" y="-63.5" font-family="Helvetica,sans-Serif" font-size="10.00">sml/events/listener_notifier.h</text>
</a>
</g>
</g>
<!-- Node8&#45;&gt;Node11 -->
<g id="edge10" class="edge">
<title>Node8&#45;&gt;Node11</title>
<path fill="none" stroke="midnightblue" d="M547.17,-112.32C564.89,-103.62 592.4,-90.12 612.79,-80.11"/>
<polygon fill="midnightblue" stroke="midnightblue" points="614.44,-83.2 621.87,-75.65 611.35,-76.92 614.44,-83.2"/>
</g>
<!-- Node12 -->
<g id="node12" class="node">
<title>Node12</title>
<g id="a_node12"><a xlink:title=" ">
<polygon fill="white" stroke="#bfbfbf" points="172,-0.5 172,-19.5 315,-19.5 315,-0.5 172,-0.5"/>
<text text-anchor="middle" x="243.5" y="-7.5" font-family="Helvetica,sans-Serif" font-size="10.00">sml/events/system_events.h</text>
</a>
</g>
</g>
<!-- Node8&#45;&gt;Node12 -->
<g id="edge11" class="edge">
<title>Node8&#45;&gt;Node12</title>
<path fill="none" stroke="midnightblue" d="M462.65,-112.47C405.86,-104.38 329.38,-91.2 302.5,-76 282.07,-64.44 264.86,-43.26 254.4,-28.22"/>
<polygon fill="midnightblue" stroke="midnightblue" points="257.24,-26.18 248.79,-19.79 251.42,-30.06 257.24,-26.18"/>
</g>
<!-- Node13 -->
<g id="node13" class="node">
<title>Node13</title>
<g id="a_node13"><a xlink:href="gui__event_8h.html" target="_top" xlink:title=" ">
<polygon fill="white" stroke="black" points="311,-56.5 311,-75.5 378,-75.5 378,-56.5 311,-56.5"/>
<text text-anchor="middle" x="344.5" y="-63.5" font-family="Helvetica,sans-Serif" font-size="10.00">gui_event.h</text>
</a>
</g>
</g>
<!-- Node8&#45;&gt;Node13 -->
<g id="edge12" class="edge">
<title>Node8&#45;&gt;Node13</title>
<path fill="none" stroke="midnightblue" d="M500.19,-112.44C468.66,-103.24 418.37,-88.56 383.51,-78.39"/>
<polygon fill="midnightblue" stroke="midnightblue" points="384.26,-74.96 373.68,-75.52 382.3,-81.68 384.26,-74.96"/>
</g>
<!-- Node13&#45;&gt;Node12 -->
<g id="edge14" class="edge">
<title>Node13&#45;&gt;Node12</title>
<path fill="none" stroke="midnightblue" d="M328.27,-56.32C312.15,-47.7 287.2,-34.36 268.54,-24.39"/>
<polygon fill="midnightblue" stroke="midnightblue" points="270.16,-21.28 259.69,-19.65 266.86,-27.46 270.16,-21.28"/>
</g>
<!-- Node14 -->
<g id="node14" class="node">
<title>Node14</title>
<g id="a_node14"><a xlink:title=" ">
<polygon fill="white" stroke="#bfbfbf" points="333.5,-0.5 333.5,-19.5 433.5,-19.5 433.5,-0.5 333.5,-0.5"/>
<text text-anchor="middle" x="383.5" y="-7.5" font-family="Helvetica,sans-Serif" font-size="10.00">sml/events/event.h</text>
</a>
</g>
</g>
<!-- Node13&#45;&gt;Node14 -->
<g id="edge13" class="edge">
<title>Node13&#45;&gt;Node14</title>
<path fill="none" stroke="midnightblue" d="M350.94,-56.08C356.45,-48.46 364.53,-37.26 371.26,-27.94"/>
<polygon fill="midnightblue" stroke="midnightblue" points="374.16,-29.91 377.18,-19.75 368.49,-25.81 374.16,-29.91"/>
</g>
<!-- Node15 -->
<g id="node15" class="node">
<title>Node15</title>
<g id="a_node15"><a xlink:title=" ">
<polygon fill="white" stroke="#bfbfbf" points="452,-0.5 452,-19.5 529,-19.5 529,-0.5 452,-0.5"/>
<text text-anchor="middle" x="490.5" y="-7.5" font-family="Helvetica,sans-Serif" font-size="10.00">sml/sml_log.h</text>
</a>
</g>
</g>
<!-- Node13&#45;&gt;Node15 -->
<g id="edge15" class="edge">
<title>Node13&#45;&gt;Node15</title>
<path fill="none" stroke="midnightblue" d="M367.63,-56.44C391.98,-47.44 430.51,-33.19 457.92,-23.05"/>
<polygon fill="midnightblue" stroke="midnightblue" points="459.31,-26.27 467.47,-19.52 456.88,-19.7 459.31,-26.27"/>
</g>
<!-- Node17 -->
<g id="node17" class="node">
<title>Node17</title>
<g id="a_node17"><a xlink:title=" ">
<polygon fill="white" stroke="#bfbfbf" points="0,-56.5 0,-75.5 83,-75.5 83,-56.5 0,-56.5"/>
<text text-anchor="middle" x="41.5" y="-63.5" font-family="Helvetica,sans-Serif" font-size="10.00">sml/math/blur.h</text>
</a>
</g>
</g>
<!-- Node16&#45;&gt;Node17 -->
<g id="edge17" class="edge">
<title>Node16&#45;&gt;Node17</title>
<path fill="none" stroke="midnightblue" d="M106.13,-112.32C94.34,-104.06 76.37,-91.45 62.36,-81.63"/>
<polygon fill="midnightblue" stroke="midnightblue" points="64.04,-78.53 53.84,-75.65 60.02,-84.26 64.04,-78.53"/>
</g>
<!-- Node18 -->
<g id="node18" class="node">
<title>Node18</title>
<g id="a_node18"><a xlink:title=" ">
<polygon fill="white" stroke="#bfbfbf" points="101,-56.5 101,-75.5 254,-75.5 254,-56.5 101,-56.5"/>
<text text-anchor="middle" x="177.5" y="-63.5" font-family="Helvetica,sans-Serif" font-size="10.00">sml/graphics_wrapper/texture.h</text>
</a>
</g>
</g>
<!-- Node16&#45;&gt;Node18 -->
<g id="edge18" class="edge">
<title>Node16&#45;&gt;Node18</title>
<path fill="none" stroke="midnightblue" d="M127.98,-112.32C136.7,-104.34 149.84,-92.31 160.4,-82.65"/>
<polygon fill="midnightblue" stroke="midnightblue" points="162.83,-85.17 167.85,-75.83 158.11,-80 162.83,-85.17"/>
</g>
<!-- Node20 -->
<g id="node20" class="node">
<title>Node20</title>
<g id="a_node20"><a xlink:title=" ">
<polygon fill="white" stroke="#bfbfbf" points="1061,-56.5 1061,-75.5 1110,-75.5 1110,-56.5 1061,-56.5"/>
<text text-anchor="middle" x="1085.5" y="-63.5" font-family="Helvetica,sans-Serif" font-size="10.00">stdint.h</text>
</a>
</g>
</g>
<!-- Node19&#45;&gt;Node20 -->
<g id="edge20" class="edge">
<title>Node19&#45;&gt;Node20</title>
<path fill="none" stroke="midnightblue" d="M1085.5,-112.08C1085.5,-105.01 1085.5,-94.86 1085.5,-85.99"/>
<polygon fill="midnightblue" stroke="midnightblue" points="1089,-85.75 1085.5,-75.75 1082,-85.75 1089,-85.75"/>
</g>
<!-- Node21&#45;&gt;Node19 -->
<g id="edge24" class="edge">
<title>Node21&#45;&gt;Node19</title>
<path fill="none" stroke="midnightblue" d="M950.01,-168.44C977.1,-159.36 1020.09,-144.94 1050.37,-134.78"/>
<polygon fill="midnightblue" stroke="midnightblue" points="1051.74,-138.01 1060.11,-131.52 1049.51,-131.38 1051.74,-138.01"/>
</g>
<!-- Node22 -->
<g id="node22" class="node">
<title>Node22</title>
<g id="a_node22"><a xlink:title=" ">
<polygon fill="white" stroke="#bfbfbf" points="803,-112.5 803,-131.5 946,-131.5 946,-112.5 803,-112.5"/>
<text text-anchor="middle" x="874.5" y="-119.5" font-family="Helvetica,sans-Serif" font-size="10.00">sml/graphics_wrapper/color.h</text>
</a>
</g>
</g>
<!-- Node21&#45;&gt;Node22 -->
<g id="edge22" class="edge">
<title>Node21&#45;&gt;Node22</title>
<path fill="none" stroke="midnightblue" d="M916.24,-168.08C909.04,-160.3 898.39,-148.8 889.65,-139.37"/>
<polygon fill="midnightblue" stroke="midnightblue" points="891.97,-136.71 882.6,-131.75 886.83,-141.47 891.97,-136.71"/>
</g>
<!-- Node23 -->
<g id="node23" class="node">
<title>Node23</title>
<g id="a_node23"><a xlink:title=" ">
<polygon fill="white" stroke="#bfbfbf" points="912.5,-56.5 912.5,-75.5 1020.5,-75.5 1020.5,-56.5 912.5,-56.5"/>
<text text-anchor="middle" x="966.5" y="-63.5" font-family="Helvetica,sans-Serif" font-size="10.00">sml/math/rectangle.h</text>
</a>
</g>
</g>
<!-- Node21&#45;&gt;Node23 -->
<g id="edge23" class="edge">
<title>Node21&#45;&gt;Node23</title>
<path fill="none" stroke="midnightblue" d="M932.17,-168.37C939.38,-159.78 949.86,-145.89 955.5,-132 961.49,-117.24 964.22,-99.31 965.46,-86.02"/>
<polygon fill="midnightblue" stroke="midnightblue" points="968.97,-85.97 966.22,-75.74 961.99,-85.45 968.97,-85.97"/>
</g>
<!-- Node24&#45;&gt;Node9 -->
<g id="edge26" class="edge">
<title>Node24&#45;&gt;Node9</title>
<path fill="none" stroke="midnightblue" d="M745.69,-168.45C730.56,-161.22 711.55,-149.26 702.5,-132 692.74,-113.38 710.86,-94.28 727.56,-81.65"/>
<polygon fill="midnightblue" stroke="midnightblue" points="729.87,-84.3 736.01,-75.67 725.83,-78.59 729.87,-84.3"/>
</g>
<!-- Node24&#45;&gt;Node23 -->
<g id="edge27" class="edge">
<title>Node24&#45;&gt;Node23</title>
<path fill="none" stroke="midnightblue" d="M768.61,-168.43C770.87,-154.48 777.36,-126.93 794.5,-112 810.93,-97.69 861.55,-85.48 903.65,-77.4"/>
<polygon fill="midnightblue" stroke="midnightblue" points="904.41,-80.82 913.59,-75.54 903.12,-73.94 904.41,-80.82"/>
</g>
<!-- Node25 -->
<g id="node25" class="node">
<title>Node25</title>
<g id="a_node25"><a xlink:href="fill_8h.html" target="_top" xlink:title=" ">
<polygon fill="white" stroke="black" points="711,-112.5 711,-131.5 746,-131.5 746,-112.5 711,-112.5"/>
<text text-anchor="middle" x="728.5" y="-119.5" font-family="Helvetica,sans-Serif" font-size="10.00">fill.h</text>
</a>
</g>
</g>
<!-- Node24&#45;&gt;Node25 -->
<g id="edge28" class="edge">
<title>Node24&#45;&gt;Node25</title>
<path fill="none" stroke="midnightblue" d="M761.06,-168.08C755.55,-160.46 747.47,-149.26 740.74,-139.94"/>
<polygon fill="midnightblue" stroke="midnightblue" points="743.51,-137.81 734.82,-131.75 737.84,-141.91 743.51,-137.81"/>
</g>
<!-- Node27 -->
<g id="node27" class="node">
<title>Node27</title>
<g id="a_node27"><a xlink:href="image_8h.html" target="_top" xlink:title=" ">
<polygon fill="white" stroke="black" points="182,-112.5 182,-131.5 271,-131.5 271,-112.5 182,-112.5"/>
<text text-anchor="middle" x="226.5" y="-119.5" font-family="Helvetica,sans-Serif" font-size="10.00">../media/image.h</text>
</a>
</g>
</g>
<!-- Node24&#45;&gt;Node27 -->
<g id="edge33" class="edge">
<title>Node24&#45;&gt;Node27</title>
<path fill="none" stroke="midnightblue" d="M713.31,-173.29C625.09,-166.97 444.72,-152.86 281.48,-132.03"/>
<polygon fill="midnightblue" stroke="midnightblue" points="281.62,-128.52 271.25,-130.72 280.72,-135.47 281.62,-128.52"/>
</g>
<!-- Node25&#45;&gt;Node9 -->
<g id="edge29" class="edge">
<title>Node25&#45;&gt;Node9</title>
<path fill="none" stroke="midnightblue" d="M732.13,-112.08C735.11,-104.77 739.43,-94.18 743.12,-85.1"/>
<polygon fill="midnightblue" stroke="midnightblue" points="746.4,-86.33 746.93,-75.75 739.92,-83.69 746.4,-86.33"/>
</g>
<!-- Node25&#45;&gt;Node18 -->
<g id="edge32" class="edge">
<title>Node25&#45;&gt;Node18</title>
<path fill="none" stroke="midnightblue" d="M710.79,-119.26C643.02,-112.62 397.28,-88.54 264.33,-75.51"/>
<polygon fill="midnightblue" stroke="midnightblue" points="264.47,-72.01 254.17,-74.51 263.79,-78.97 264.47,-72.01"/>
</g>
<!-- Node25&#45;&gt;Node23 -->
<g id="edge31" class="edge">
<title>Node25&#45;&gt;Node23</title>
<path fill="none" stroke="midnightblue" d="M746.06,-115.86C750.73,-114.55 755.8,-113.17 760.5,-112 812.34,-99.06 872.04,-86.25 913.78,-77.62"/>
<polygon fill="midnightblue" stroke="midnightblue" points="914.63,-81.02 923.72,-75.58 913.22,-74.16 914.63,-81.02"/>
</g>
<!-- Node26 -->
<g id="node26" class="node">
<title>Node26</title>
<g id="a_node26"><a xlink:title=" ">
<polygon fill="white" stroke="#bfbfbf" points="791,-56.5 791,-75.5 880,-75.5 880,-56.5 791,-56.5"/>
<text text-anchor="middle" x="835.5" y="-63.5" font-family="Helvetica,sans-Serif" font-size="10.00">sml/math/vec2.h</text>
</a>
</g>
</g>
<!-- Node25&#45;&gt;Node26 -->
<g id="edge30" class="edge">
<title>Node25&#45;&gt;Node26</title>
<path fill="none" stroke="midnightblue" d="M745.69,-112.32C762.85,-103.66 789.45,-90.24 809.25,-80.25"/>
<polygon fill="midnightblue" stroke="midnightblue" points="811,-83.28 818.35,-75.65 807.85,-77.04 811,-83.28"/>
</g>
<!-- Node27&#45;&gt;Node18 -->
<g id="edge34" class="edge">
<title>Node27&#45;&gt;Node18</title>
<path fill="none" stroke="midnightblue" d="M218.41,-112.08C211.34,-104.3 200.91,-92.8 192.35,-83.37"/>
<polygon fill="midnightblue" stroke="midnightblue" points="194.75,-80.8 185.44,-75.75 189.57,-85.51 194.75,-80.8"/>
</g>
<!-- Node30 -->
<g id="node30" class="node">
<title>Node30</title>
<g id="a_node30"><a xlink:href="control_8h.html" target="_top" xlink:title=" ">
<polygon fill="white" stroke="black" points="992.5,-336.5 992.5,-355.5 1046.5,-355.5 1046.5,-336.5 992.5,-336.5"/>
<text text-anchor="middle" x="1019.5" y="-343.5" font-family="Helvetica,sans-Serif" font-size="10.00">control.h</text>
</a>
</g>
</g>
<!-- Node29&#45;&gt;Node30 -->
<g id="edge37" class="edge">
<title>Node29&#45;&gt;Node30</title>
<path fill="none" stroke="midnightblue" d="M780.5,-392.44C836.25,-381.84 930.21,-363.98 982.16,-354.1"/>
<polygon fill="midnightblue" stroke="midnightblue" points="983.1,-357.48 992.27,-352.18 981.79,-350.61 983.1,-357.48"/>
</g>
<!-- Node33 -->
<g id="node33" class="node">
<title>Node33</title>
<g id="a_node33"><a xlink:href="default__skins_8h.html" target="_top" xlink:title=" ">
<polygon fill="white" stroke="black" points="677.5,-336.5 677.5,-355.5 793.5,-355.5 793.5,-336.5 677.5,-336.5"/>
<text text-anchor="middle" x="735.5" y="-343.5" font-family="Helvetica,sans-Serif" font-size="10.00">../style/default_skins.h</text>
</a>
</g>
</g>
<!-- Node29&#45;&gt;Node33 -->
<g id="edge42" class="edge">
<title>Node29&#45;&gt;Node33</title>
<path fill="none" stroke="midnightblue" d="M735.5,-392.08C735.5,-385.01 735.5,-374.86 735.5,-365.99"/>
<polygon fill="midnightblue" stroke="midnightblue" points="739,-365.75 735.5,-355.75 732,-365.75 739,-365.75"/>
</g>
<!-- Node30&#45;&gt;Node5 -->
<g id="edge38" class="edge">
<title>Node30&#45;&gt;Node5</title>
<path fill="none" stroke="midnightblue" d="M1012.55,-336.18C1002.21,-323.28 981.93,-298.77 962.5,-280 951.44,-269.31 938.11,-258.36 927.34,-249.94"/>
<polygon fill="midnightblue" stroke="midnightblue" points="929.4,-247.11 919.35,-243.78 925.13,-252.66 929.4,-247.11"/>
</g>
<!-- Node31 -->
<g id="node31" class="node">
<title>Node31</title>
<g id="a_node31"><a xlink:href="skin_8h.html" target="_top" xlink:title=" ">
<polygon fill="white" stroke="black" points="1116.5,-280.5 1116.5,-299.5 1192.5,-299.5 1192.5,-280.5 1116.5,-280.5"/>
<text text-anchor="middle" x="1154.5" y="-287.5" font-family="Helvetica,sans-Serif" font-size="10.00">../style/skin.h</text>
</a>
</g>
</g>
<!-- Node30&#45;&gt;Node31 -->
<g id="edge39" class="edge">
<title>Node30&#45;&gt;Node31</title>
<path fill="none" stroke="midnightblue" d="M1040.89,-336.44C1063.21,-327.52 1098.4,-313.44 1123.71,-303.32"/>
<polygon fill="midnightblue" stroke="midnightblue" points="1125.22,-306.48 1133.21,-299.52 1122.62,-299.98 1125.22,-306.48"/>
</g>
<!-- Node31&#45;&gt;Node19 -->
<g id="edge41" class="edge">
<title>Node31&#45;&gt;Node19</title>
<path fill="none" stroke="midnightblue" d="M1150.79,-280.08C1139.88,-253.83 1107.76,-176.55 1093.03,-141.12"/>
<polygon fill="midnightblue" stroke="midnightblue" points="1096.13,-139.46 1089.06,-131.57 1089.67,-142.15 1096.13,-139.46"/>
</g>
<!-- Node32 -->
<g id="node32" class="node">
<title>Node32</title>
<g id="a_node32"><a xlink:title=" ">
<polygon fill="white" stroke="#bfbfbf" points="1154.5,-224.5 1154.5,-243.5 1312.5,-243.5 1312.5,-224.5 1154.5,-224.5"/>
<text text-anchor="middle" x="1233.5" y="-231.5" font-family="Helvetica,sans-Serif" font-size="10.00">sml/graphics_wrapper/renderer.h</text>
</a>
</g>
</g>
<!-- Node31&#45;&gt;Node32 -->
<g id="edge40" class="edge">
<title>Node31&#45;&gt;Node32</title>
<path fill="none" stroke="midnightblue" d="M1167.19,-280.32C1179.4,-271.98 1198.08,-259.21 1212.5,-249.35"/>
<polygon fill="midnightblue" stroke="midnightblue" points="1214.56,-252.19 1220.84,-243.65 1210.61,-246.41 1214.56,-252.19"/>
</g>
<!-- Node33&#45;&gt;Node11 -->
<g id="edge43" class="edge">
<title>Node33&#45;&gt;Node11</title>
<path fill="none" stroke="midnightblue" d="M685.91,-336.48C661.49,-330.05 633.16,-318.96 613.5,-300 594.13,-281.32 595.71,-270.4 590.5,-244 580.52,-193.44 605.28,-181.23 620.5,-132 625.33,-116.38 630.52,-98.55 634.25,-85.52"/>
<polygon fill="midnightblue" stroke="midnightblue" points="637.63,-86.43 637,-75.86 630.9,-84.52 637.63,-86.43"/>
</g>
<!-- Node33&#45;&gt;Node16 -->
<g id="edge59" class="edge">
<title>Node33&#45;&gt;Node16</title>
<path fill="none" stroke="midnightblue" d="M683.13,-336.43C641.05,-328.85 580.73,-316.46 529.5,-300 378.94,-251.63 207.97,-168.28 144.23,-136.15"/>
<polygon fill="midnightblue" stroke="midnightblue" points="145.78,-133.02 135.28,-131.62 142.62,-139.26 145.78,-133.02"/>
</g>
<!-- Node33&#45;&gt;Node19 -->
<g id="edge58" class="edge">
<title>Node33&#45;&gt;Node19</title>
<path fill="none" stroke="midnightblue" d="M793.57,-339.89C856.21,-333.43 950.96,-320.58 980.5,-300 1037.62,-260.2 1068.62,-178.45 1080.17,-141.66"/>
<polygon fill="midnightblue" stroke="midnightblue" points="1083.61,-142.37 1083.13,-131.79 1076.9,-140.36 1083.61,-142.37"/>
</g>
<!-- Node33&#45;&gt;Node21 -->
<g id="edge57" class="edge">
<title>Node33&#45;&gt;Node21</title>
<path fill="none" stroke="midnightblue" d="M793.73,-341.65C853.78,-336.84 941.53,-325.54 962.5,-300 988,-268.95 957.84,-220.68 938.41,-195.52"/>
<polygon fill="midnightblue" stroke="midnightblue" points="941.08,-193.26 932.1,-187.65 935.62,-197.64 941.08,-193.26"/>
</g>
<!-- Node33&#45;&gt;Node24 -->
<g id="edge56" class="edge">
<title>Node33&#45;&gt;Node24</title>
<path fill="none" stroke="midnightblue" d="M737.22,-336.08C742.26,-309.95 757.05,-233.21 763.92,-197.58"/>
<polygon fill="midnightblue" stroke="midnightblue" points="767.39,-198.05 765.85,-187.57 760.52,-196.72 767.39,-198.05"/>
</g>
<!-- Node33&#45;&gt;Node31 -->
<g id="edge60" class="edge">
<title>Node33&#45;&gt;Node31</title>
<path fill="none" stroke="midnightblue" d="M793.78,-338.75C866.27,-330.78 993.75,-316.07 1102.5,-300 1103.77,-299.81 1105.07,-299.62 1106.37,-299.42"/>
<polygon fill="midnightblue" stroke="midnightblue" points="1107.16,-302.84 1116.48,-297.8 1106.05,-295.92 1107.16,-302.84"/>
</g>
<!-- Node34 -->
<g id="node34" class="node">
<title>Node34</title>
<g id="a_node34"><a xlink:href="image__view_8h.html" target="_top" xlink:title=" ">
<polygon fill="white" stroke="black" points="459.5,-224.5 459.5,-243.5 543.5,-243.5 543.5,-224.5 459.5,-224.5"/>
<text text-anchor="middle" x="501.5" y="-231.5" font-family="Helvetica,sans-Serif" font-size="10.00">../image_view.h</text>
</a>
</g>
</g>
<!-- Node33&#45;&gt;Node34 -->
<g id="edge44" class="edge">
<title>Node33&#45;&gt;Node34</title>
<path fill="none" stroke="midnightblue" d="M677.1,-339.32C640.55,-333.65 593.7,-322.37 557.5,-300 538.17,-288.05 521.99,-267.26 512.07,-252.4"/>
<polygon fill="midnightblue" stroke="midnightblue" points="514.82,-250.2 506.49,-243.65 508.91,-253.97 514.82,-250.2"/>
</g>
<!-- Node35 -->
<g id="node35" class="node">
<title>Node35</title>
<g id="a_node35"><a xlink:href="text_8h.html" target="_top" xlink:title=" ">
<polygon fill="white" stroke="black" points="622,-280.5 622,-299.5 707,-299.5 707,-280.5 622,-280.5"/>
<text text-anchor="middle" x="664.5" y="-287.5" font-family="Helvetica,sans-Serif" font-size="10.00">../shapes/text.h</text>
</a>
</g>
</g>
<!-- Node33&#45;&gt;Node35 -->
<g id="edge47" class="edge">
<title>Node33&#45;&gt;Node35</title>
<path fill="none" stroke="midnightblue" d="M724.09,-336.32C713.39,-328.18 697.16,-315.84 684.34,-306.09"/>
<polygon fill="midnightblue" stroke="midnightblue" points="686.19,-303.1 676.11,-299.83 681.96,-308.67 686.19,-303.1"/>
</g>
<!-- Node38 -->
<g id="node38" class="node">
<title>Node38</title>
<g id="a_node38"><a xlink:href="rectangle_8h.html" target="_top" xlink:title=" ">
<polygon fill="white" stroke="black" points="845.5,-280.5 845.5,-299.5 953.5,-299.5 953.5,-280.5 845.5,-280.5"/>
<text text-anchor="middle" x="899.5" y="-287.5" font-family="Helvetica,sans-Serif" font-size="10.00">../shapes/rectangle.h</text>
</a>
</g>
</g>
<!-- Node33&#45;&gt;Node38 -->
<g id="edge53" class="edge">
<title>Node33&#45;&gt;Node38</title>
<path fill="none" stroke="midnightblue" d="M761.49,-336.44C789.2,-327.32 833.25,-312.81 864.12,-302.65"/>
<polygon fill="midnightblue" stroke="midnightblue" points="865.23,-305.97 873.64,-299.52 863.04,-299.32 865.23,-305.97"/>
</g>
<!-- Node34&#45;&gt;Node6 -->
<g id="edge45" class="edge">
<title>Node34&#45;&gt;Node6</title>
<path fill="none" stroke="midnightblue" d="M506.45,-224.08C510.6,-216.61 516.65,-205.72 521.77,-196.52"/>
<polygon fill="midnightblue" stroke="midnightblue" points="524.84,-198.19 526.64,-187.75 518.72,-194.79 524.84,-198.19"/>
</g>
<!-- Node34&#45;&gt;Node27 -->
<g id="edge46" class="edge">
<title>Node34&#45;&gt;Node27</title>
<path fill="none" stroke="midnightblue" d="M496.2,-224.23C487.1,-210.01 467.11,-182.07 442.5,-168 428.59,-160.04 340.59,-143.26 281.29,-132.59"/>
<polygon fill="midnightblue" stroke="midnightblue" points="281.77,-129.12 271.31,-130.81 280.54,-136.01 281.77,-129.12"/>
</g>
<!-- Node36 -->
<g id="node36" class="node">
<title>Node36</title>
<g id="a_node36"><a xlink:title=" ">
<polygon fill="white" stroke="#bfbfbf" points="599.5,-224.5 599.5,-243.5 739.5,-243.5 739.5,-224.5 599.5,-224.5"/>
<text text-anchor="middle" x="669.5" y="-231.5" font-family="Helvetica,sans-Serif" font-size="10.00">sml/graphics_wrapper/text.h</text>
</a>
</g>
</g>
<!-- Node35&#45;&gt;Node36 -->
<g id="edge48" class="edge">
<title>Node35&#45;&gt;Node36</title>
<path fill="none" stroke="midnightblue" d="M665.33,-280.08C665.98,-273.01 666.92,-262.86 667.74,-253.99"/>
<polygon fill="midnightblue" stroke="midnightblue" points="671.25,-254.03 668.69,-243.75 664.28,-253.39 671.25,-254.03"/>
</g>
<!-- Node37 -->
<g id="node37" class="node">
<title>Node37</title>
<g id="a_node37"><a xlink:href="shape_8h.html" target="_top" xlink:title=" ">
<polygon fill="white" stroke="black" points="796,-224.5 796,-243.5 847,-243.5 847,-224.5 796,-224.5"/>
<text text-anchor="middle" x="821.5" y="-231.5" font-family="Helvetica,sans-Serif" font-size="10.00">shape.h</text>
</a>
</g>
</g>
<!-- Node35&#45;&gt;Node37 -->
<g id="edge49" class="edge">
<title>Node35&#45;&gt;Node37</title>
<path fill="none" stroke="midnightblue" d="M689.38,-280.44C715.79,-271.36 757.72,-256.94 787.24,-246.78"/>
<polygon fill="midnightblue" stroke="midnightblue" points="788.42,-250.08 796.74,-243.52 786.14,-243.46 788.42,-250.08"/>
</g>
<!-- Node37&#45;&gt;Node6 -->
<g id="edge50" class="edge">
<title>Node37&#45;&gt;Node6</title>
<path fill="none" stroke="midnightblue" d="M795.76,-228.21C746.92,-219.11 640.13,-199.23 578.29,-187.71"/>
<polygon fill="midnightblue" stroke="midnightblue" points="578.88,-184.26 568.4,-185.87 577.59,-191.14 578.88,-184.26"/>
</g>
<!-- Node37&#45;&gt;Node21 -->
<g id="edge52" class="edge">
<title>Node37&#45;&gt;Node21</title>
<path fill="none" stroke="midnightblue" d="M838.05,-224.32C854.49,-215.7 879.93,-202.36 898.97,-192.39"/>
<polygon fill="midnightblue" stroke="midnightblue" points="900.76,-195.4 907.99,-187.65 897.51,-189.2 900.76,-195.4"/>
</g>
<!-- Node37&#45;&gt;Node24 -->
<g id="edge51" class="edge">
<title>Node37&#45;&gt;Node24</title>
<path fill="none" stroke="midnightblue" d="M812.58,-224.08C804.72,-216.22 793.07,-204.57 783.58,-195.08"/>
<polygon fill="midnightblue" stroke="midnightblue" points="785.8,-192.35 776.25,-187.75 780.85,-197.3 785.8,-192.35"/>
</g>
<!-- Node38&#45;&gt;Node23 -->
<g id="edge54" class="edge">
<title>Node38&#45;&gt;Node23</title>
<path fill="none" stroke="midnightblue" d="M910.87,-280.3C921.35,-271.87 936.85,-258.29 947.5,-244 964.13,-221.69 969.11,-215.08 975.5,-188 983.9,-152.43 976.78,-109.49 971.32,-85.51"/>
<polygon fill="midnightblue" stroke="midnightblue" points="974.68,-84.54 968.91,-75.65 967.88,-86.19 974.68,-84.54"/>
</g>
<!-- Node38&#45;&gt;Node37 -->
<g id="edge55" class="edge">
<title>Node38&#45;&gt;Node37</title>
<path fill="none" stroke="midnightblue" d="M886.97,-280.32C874.91,-271.98 856.47,-259.21 842.23,-249.35"/>
<polygon fill="midnightblue" stroke="midnightblue" points="844.22,-246.47 834,-243.65 840.23,-252.22 844.22,-246.47"/>
</g>
</g>
</svg>
