<?xml version="1.0" encoding="UTF-8" standalone="no"?>
<!DOCTYPE svg PUBLIC "-//W3C//DTD SVG 1.1//EN"
 "http://www.w3.org/Graphics/SVG/1.1/DTD/svg11.dtd">
<!-- Generated by graphviz version 2.50.0 (20211204.2007)
 -->
<!-- Title: default_skins.h Pages: 1 -->
<!--zoomable 397 -->
<svg id="main" version="1.1" xmlns="http://www.w3.org/2000/svg" xmlns:xlink="http://www.w3.org/1999/xlink" xml:space="preserve" onload="init(evt)">
<style type="text/css"><![CDATA[
.edge:hover path { stroke: red; }
.edge:hover polygon { stroke: red; fill: red; }
]]></style>
<script type="text/javascript"><![CDATA[
var edges = document.getElementsByTagName('g');
if (edges && edges.length) {
  for (var i=0;i<edges.length;i++) {
    if (edges[i].id.substr(0,4)=='edge') {
      edges[i].setAttribute('class','edge');
    }
  }
}
]]></script>
        <defs>
                <circle id="rim" cx="0" cy="0" r="7"/>
                <circle id="rim2" cx="0" cy="0" r="3.5"/>
                <g id="zoomPlus">
                        <use xlink:href="#rim" fill="#404040">
                                <set attributeName="fill" to="#808080" begin="zoomplus.mouseover" end="zoomplus.mouseout"/>
                        </use>
                        <path d="M-4,0h8M0,-4v8" fill="none" stroke="white" stroke-width="1.5" pointer-events="none"/>
                </g>
                <g id="zoomMin">
                        <use xlink:href="#rim" fill="#404040">
                                <set attributeName="fill" to="#808080" begin="zoomminus.mouseover" end="zoomminus.mouseout"/>
                        </use>
                        <path d="M-4,0h8" fill="none" stroke="white" stroke-width="1.5" pointer-events="none"/>
                </g>
                <g id="dirArrow">
                        <path fill="none" stroke="white" stroke-width="1.5" d="M0,-3.0v7 M-2.5,-0.5L0,-3.0L2.5,-0.5"/>
                </g>
               <g id="resetDef">
                       <use xlink:href="#rim2" fill="#404040">
                               <set attributeName="fill" to="#808080" begin="reset.mouseover" end="reset.mouseout"/>
                       </use>
               </g>
        </defs>

<script type="text/javascript">
var viewWidth = 1134;
var viewHeight = 397;
var sectionId = 'dynsection-0';
</script>
<script xlink:href="svgpan.js"/>
<svg id="graph" class="graph">
<g id="viewport">
<title>default_skins.h</title>
<polygon fill="white" stroke="transparent" points="-4,4 -4,-393 1129.51,-393 1129.51,4 -4,4"/>
<!-- Node1 -->
<g id="node1" class="node">
<title>Node1</title>
<g id="a_node1"><a xlink:title=" ">
<polygon fill="#bfbfbf" stroke="black" points="666,-369.5 666,-388.5 749,-388.5 749,-369.5 666,-369.5"/>
<text text-anchor="middle" x="707.5" y="-376.5" font-family="Helvetica,sans-Serif" font-size="10.00">default_skins.h</text>
</a>
</g>
</g>
<!-- Node2 -->
<g id="node2" class="node">
<title>Node2</title>
<g id="a_node2"><a xlink:title=" ">
<polygon fill="white" stroke="#bfbfbf" points="0,-56.5 0,-86.5 99,-86.5 99,-56.5 0,-56.5"/>
<text text-anchor="start" x="8" y="-74.5" font-family="Helvetica,sans-Serif" font-size="10.00">sml/events/listener</text>
<text text-anchor="middle" x="49.5" y="-63.5" font-family="Helvetica,sans-Serif" font-size="10.00">_notifier.h</text>
</a>
</g>
</g>
<!-- Node1&#45;&gt;Node2 -->
<g id="edge1" class="edge">
<title>Node1&#45;&gt;Node2</title>
<path fill="none" stroke="midnightblue" d="M665.92,-374.66C527.14,-362.98 88.5,-321.4 88.5,-262.5 88.5,-262.5 88.5,-262.5 88.5,-199 88.5,-161.83 72.94,-121.14 61.47,-96.21"/>
<polygon fill="midnightblue" stroke="midnightblue" points="64.48,-94.38 57.02,-86.86 58.16,-97.39 64.48,-94.38"/>
</g>
<!-- Node3 -->
<g id="node3" class="node">
<title>Node3</title>
<g id="a_node3"><a xlink:href="image__view_8h.html" target="_top" xlink:title=" ">
<polygon fill="white" stroke="black" points="409.5,-252 409.5,-271 493.5,-271 493.5,-252 409.5,-252"/>
<text text-anchor="middle" x="451.5" y="-259" font-family="Helvetica,sans-Serif" font-size="10.00">../image_view.h</text>
</a>
</g>
</g>
<!-- Node1&#45;&gt;Node3 -->
<g id="edge2" class="edge">
<title>Node1&#45;&gt;Node3</title>
<path fill="none" stroke="midnightblue" d="M665.76,-376.62C623.04,-373.47 556.19,-363.55 507.5,-333 486.89,-320.06 470.63,-296.79 461.06,-280.53"/>
<polygon fill="midnightblue" stroke="midnightblue" points="463.93,-278.49 455.99,-271.47 457.82,-281.91 463.93,-278.49"/>
</g>
<!-- Node13 -->
<g id="node13" class="node">
<title>Node13</title>
<g id="a_node13"><a xlink:href="shadow_8h.html" target="_top" xlink:title=" ">
<polygon fill="white" stroke="black" points="475.5,-129 475.5,-148 565.5,-148 565.5,-129 475.5,-129"/>
<text text-anchor="middle" x="520.5" y="-136" font-family="Helvetica,sans-Serif" font-size="10.00">../paint/shadow.h</text>
</a>
</g>
</g>
<!-- Node1&#45;&gt;Node13 -->
<g id="edge43" class="edge">
<title>Node1&#45;&gt;Node13</title>
<path fill="none" stroke="midnightblue" d="M665.95,-372.15C622.23,-365.09 557.55,-351.79 541.5,-333 498.53,-282.71 509,-196.19 516.3,-158.25"/>
<polygon fill="midnightblue" stroke="midnightblue" points="519.8,-158.63 518.41,-148.13 512.94,-157.21 519.8,-158.63"/>
</g>
<!-- Node17 -->
<g id="node17" class="node">
<title>Node17</title>
<g id="a_node17"><a xlink:href="text_8h.html" target="_top" xlink:title=" ">
<polygon fill="white" stroke="black" points="550,-313.5 550,-332.5 635,-332.5 635,-313.5 550,-313.5"/>
<text text-anchor="middle" x="592.5" y="-320.5" font-family="Helvetica,sans-Serif" font-size="10.00">../shapes/text.h</text>
</a>
</g>
</g>
<!-- Node1&#45;&gt;Node17 -->
<g id="edge19" class="edge">
<title>Node1&#45;&gt;Node17</title>
<path fill="none" stroke="midnightblue" d="M689.28,-369.44C670.6,-360.68 641.34,-346.94 619.88,-336.86"/>
<polygon fill="midnightblue" stroke="midnightblue" points="621.18,-333.6 610.64,-332.52 618.2,-339.93 621.18,-333.6"/>
</g>
<!-- Node20 -->
<g id="node20" class="node">
<title>Node20</title>
<g id="a_node20"><a xlink:href="background_8h.html" target="_top" xlink:title=" ">
<polygon fill="white" stroke="black" points="652,-190.5 652,-209.5 769,-209.5 769,-190.5 652,-190.5"/>
<text text-anchor="middle" x="710.5" y="-197.5" font-family="Helvetica,sans-Serif" font-size="10.00">../../paint/background.h</text>
</a>
</g>
</g>
<!-- Node1&#45;&gt;Node20 -->
<g id="edge40" class="edge">
<title>Node1&#45;&gt;Node20</title>
<path fill="none" stroke="midnightblue" d="M728.35,-369.43C743.08,-362.13 761.7,-350.09 770.5,-333 791.6,-292 751.79,-242.09 727.43,-217.01"/>
<polygon fill="midnightblue" stroke="midnightblue" points="729.72,-214.36 720.16,-209.79 724.78,-219.32 729.72,-214.36"/>
</g>
<!-- Node24 -->
<g id="node24" class="node">
<title>Node24</title>
<g id="a_node24"><a xlink:href="border_8h.html" target="_top" xlink:title=" ">
<polygon fill="white" stroke="black" points="847,-190.5 847,-209.5 940,-209.5 940,-190.5 847,-190.5"/>
<text text-anchor="middle" x="893.5" y="-197.5" font-family="Helvetica,sans-Serif" font-size="10.00">../../paint/border.h</text>
</a>
</g>
</g>
<!-- Node1&#45;&gt;Node24 -->
<g id="edge41" class="edge">
<title>Node1&#45;&gt;Node24</title>
<path fill="none" stroke="midnightblue" d="M726.94,-369.41C743.75,-361.43 768.16,-348.46 786.5,-333 827.88,-298.11 864.91,-245.43 882.56,-218.38"/>
<polygon fill="midnightblue" stroke="midnightblue" points="885.71,-219.96 888.17,-209.66 879.82,-216.18 885.71,-219.96"/>
</g>
<!-- Node26 -->
<g id="node26" class="node">
<title>Node26</title>
<g id="a_node26"><a xlink:href="insets_8h.html" target="_top" xlink:title=" ">
<polygon fill="white" stroke="black" points="1025,-129 1025,-148 1076,-148 1076,-129 1025,-129"/>
<text text-anchor="middle" x="1050.5" y="-136" font-family="Helvetica,sans-Serif" font-size="10.00">insets.h</text>
</a>
</g>
</g>
<!-- Node1&#45;&gt;Node26 -->
<g id="edge42" class="edge">
<title>Node1&#45;&gt;Node26</title>
<path fill="none" stroke="midnightblue" d="M749.25,-374.77C845.53,-366.29 1077.93,-339.58 1117.5,-277 1143.98,-235.12 1096.27,-181.25 1068.45,-155.11"/>
<polygon fill="midnightblue" stroke="midnightblue" points="1070.63,-152.36 1060.88,-148.22 1065.92,-157.54 1070.63,-152.36"/>
</g>
<!-- Node28 -->
<g id="node28" class="node">
<title>Node28</title>
<g id="a_node28"><a xlink:href="rectangle_8h.html" target="_top" xlink:title=" ">
<polygon fill="white" stroke="black" points="653.5,-313.5 653.5,-332.5 761.5,-332.5 761.5,-313.5 653.5,-313.5"/>
<text text-anchor="middle" x="707.5" y="-320.5" font-family="Helvetica,sans-Serif" font-size="10.00">../shapes/rectangle.h</text>
</a>
</g>
</g>
<!-- Node1&#45;&gt;Node28 -->
<g id="edge37" class="edge">
<title>Node1&#45;&gt;Node28</title>
<path fill="none" stroke="midnightblue" d="M707.5,-369.08C707.5,-362.01 707.5,-351.86 707.5,-342.99"/>
<polygon fill="midnightblue" stroke="midnightblue" points="711,-342.75 707.5,-332.75 704,-342.75 711,-342.75"/>
</g>
<!-- Node29 -->
<g id="node29" class="node">
<title>Node29</title>
<g id="a_node29"><a xlink:href="skin_8h.html" target="_top" xlink:title=" ">
<polygon fill="white" stroke="black" points="947,-313.5 947,-332.5 990,-332.5 990,-313.5 947,-313.5"/>
<text text-anchor="middle" x="968.5" y="-320.5" font-family="Helvetica,sans-Serif" font-size="10.00">skin.h</text>
</a>
</g>
</g>
<!-- Node1&#45;&gt;Node29 -->
<g id="edge44" class="edge">
<title>Node1&#45;&gt;Node29</title>
<path fill="none" stroke="midnightblue" d="M748.86,-369.44C801.11,-358.63 889.88,-340.27 936.98,-330.52"/>
<polygon fill="midnightblue" stroke="midnightblue" points="937.83,-333.92 946.91,-328.47 936.41,-327.06 937.83,-333.92"/>
</g>
<!-- Node4 -->
<g id="node4" class="node">
<title>Node4</title>
<g id="a_node4"><a xlink:href="component_8h.html" target="_top" xlink:title=" ">
<polygon fill="white" stroke="black" points="415,-190.5 415,-209.5 488,-209.5 488,-190.5 415,-190.5"/>
<text text-anchor="middle" x="451.5" y="-197.5" font-family="Helvetica,sans-Serif" font-size="10.00">component.h</text>
</a>
</g>
</g>
<!-- Node3&#45;&gt;Node4 -->
<g id="edge3" class="edge">
<title>Node3&#45;&gt;Node4</title>
<path fill="none" stroke="midnightblue" d="M451.5,-251.98C451.5,-243.58 451.5,-230.48 451.5,-219.66"/>
<polygon fill="midnightblue" stroke="midnightblue" points="455,-219.51 451.5,-209.51 448,-219.51 455,-219.51"/>
</g>
<!-- Node16 -->
<g id="node16" class="node">
<title>Node16</title>
<g id="a_node16"><a xlink:href="image_8h.html" target="_top" xlink:title=" ">
<polygon fill="white" stroke="black" points="588,-129 588,-148 677,-148 677,-129 588,-129"/>
<text text-anchor="middle" x="632.5" y="-136" font-family="Helvetica,sans-Serif" font-size="10.00">../media/image.h</text>
</a>
</g>
</g>
<!-- Node3&#45;&gt;Node16 -->
<g id="edge17" class="edge">
<title>Node3&#45;&gt;Node16</title>
<path fill="none" stroke="midnightblue" d="M464.23,-251.99C494.79,-231.56 572.61,-179.54 610.75,-154.04"/>
<polygon fill="midnightblue" stroke="midnightblue" points="613.18,-156.63 619.54,-148.16 609.29,-150.81 613.18,-156.63"/>
</g>
<!-- Node5 -->
<g id="node5" class="node">
<title>Node5</title>
<g id="a_node5"><a xlink:title=" ">
<polygon fill="white" stroke="#bfbfbf" points="154.5,-129 154.5,-148 294.5,-148 294.5,-129 154.5,-129"/>
<text text-anchor="middle" x="224.5" y="-136" font-family="Helvetica,sans-Serif" font-size="10.00">sml/sml_graphics_wrapper.h</text>
</a>
</g>
</g>
<!-- Node4&#45;&gt;Node5 -->
<g id="edge4" class="edge">
<title>Node4&#45;&gt;Node5</title>
<path fill="none" stroke="midnightblue" d="M418.98,-190.48C378.94,-179.98 310.86,-162.14 266.8,-150.59"/>
<polygon fill="midnightblue" stroke="midnightblue" points="267.52,-147.16 256.96,-148.01 265.75,-153.93 267.52,-147.16"/>
</g>
<!-- Node6 -->
<g id="node6" class="node">
<title>Node6</title>
<g id="a_node6"><a xlink:href="gui__event__dispatching_8h.html" target="_top" xlink:title=" ">
<polygon fill="white" stroke="black" points="312.5,-123.5 312.5,-153.5 412.5,-153.5 412.5,-123.5 312.5,-123.5"/>
<text text-anchor="start" x="320.5" y="-141.5" font-family="Helvetica,sans-Serif" font-size="10.00">../events/gui_event</text>
<text text-anchor="middle" x="362.5" y="-130.5" font-family="Helvetica,sans-Serif" font-size="10.00">_dispatching.h</text>
</a>
</g>
</g>
<!-- Node4&#45;&gt;Node6 -->
<g id="edge5" class="edge">
<title>Node4&#45;&gt;Node6</title>
<path fill="none" stroke="midnightblue" d="M438.75,-190.48C426.58,-182.34 407.81,-169.79 391.94,-159.18"/>
<polygon fill="midnightblue" stroke="midnightblue" points="393.73,-156.17 383.48,-153.52 389.84,-161.99 393.73,-156.17"/>
</g>
<!-- Node4&#45;&gt;Node13 -->
<g id="edge14" class="edge">
<title>Node4&#45;&gt;Node13</title>
<path fill="none" stroke="midnightblue" d="M461.39,-190.48C472.15,-181.2 489.57,-166.17 502.72,-154.83"/>
<polygon fill="midnightblue" stroke="midnightblue" points="505.34,-157.19 510.63,-148.01 500.77,-151.89 505.34,-157.19"/>
</g>
<!-- Node6&#45;&gt;Node2 -->
<g id="edge8" class="edge">
<title>Node6&#45;&gt;Node2</title>
<path fill="none" stroke="midnightblue" d="M312.33,-124.96C309.35,-124.28 306.39,-123.62 303.5,-123 220.03,-105.09 195.79,-105.68 109.14,-87.28"/>
<polygon fill="midnightblue" stroke="midnightblue" points="109.64,-83.8 99.13,-85.13 108.17,-90.65 109.64,-83.8"/>
</g>
<!-- Node7 -->
<g id="node7" class="node">
<title>Node7</title>
<g id="a_node7"><a xlink:title=" ">
<polygon fill="white" stroke="#bfbfbf" points="414.5,-62 414.5,-81 458.5,-81 458.5,-62 414.5,-62"/>
<text text-anchor="middle" x="436.5" y="-69" font-family="Helvetica,sans-Serif" font-size="10.00">vector</text>
</a>
</g>
</g>
<!-- Node6&#45;&gt;Node7 -->
<g id="edge6" class="edge">
<title>Node6&#45;&gt;Node7</title>
<path fill="none" stroke="midnightblue" d="M378.56,-123.4C390.44,-112.96 406.61,-98.75 418.86,-88"/>
<polygon fill="midnightblue" stroke="midnightblue" points="421.4,-90.42 426.6,-81.19 416.78,-85.16 421.4,-90.42"/>
</g>
<!-- Node8 -->
<g id="node8" class="node">
<title>Node8</title>
<g id="a_node8"><a xlink:title=" ">
<polygon fill="white" stroke="#bfbfbf" points="117,-62 117,-81 272,-81 272,-62 117,-62"/>
<text text-anchor="middle" x="194.5" y="-69" font-family="Helvetica,sans-Serif" font-size="10.00">sml/events/event_dispatching.h</text>
</a>
</g>
</g>
<!-- Node6&#45;&gt;Node8 -->
<g id="edge7" class="edge">
<title>Node6&#45;&gt;Node8</title>
<path fill="none" stroke="midnightblue" d="M326.05,-123.4C296.18,-111.84 254.35,-95.66 225.94,-84.66"/>
<polygon fill="midnightblue" stroke="midnightblue" points="227.08,-81.35 216.49,-81.01 224.55,-87.88 227.08,-81.35"/>
</g>
<!-- Node9 -->
<g id="node9" class="node">
<title>Node9</title>
<g id="a_node9"><a xlink:title=" ">
<polygon fill="white" stroke="#bfbfbf" points="196,-0.5 196,-19.5 339,-19.5 339,-0.5 196,-0.5"/>
<text text-anchor="middle" x="267.5" y="-7.5" font-family="Helvetica,sans-Serif" font-size="10.00">sml/events/system_events.h</text>
</a>
</g>
</g>
<!-- Node6&#45;&gt;Node9 -->
<g id="edge9" class="edge">
<title>Node6&#45;&gt;Node9</title>
<path fill="none" stroke="midnightblue" d="M349.67,-123.25C340.89,-113.31 329.15,-99.62 319.5,-87 304.54,-67.44 288.76,-43.9 278.56,-28.26"/>
<polygon fill="midnightblue" stroke="midnightblue" points="281.36,-26.14 272.99,-19.64 275.48,-29.94 281.36,-26.14"/>
</g>
<!-- Node10 -->
<g id="node10" class="node">
<title>Node10</title>
<g id="a_node10"><a xlink:href="gui__event_8h.html" target="_top" xlink:title=" ">
<polygon fill="white" stroke="black" points="329,-62 329,-81 396,-81 396,-62 329,-62"/>
<text text-anchor="middle" x="362.5" y="-69" font-family="Helvetica,sans-Serif" font-size="10.00">gui_event.h</text>
</a>
</g>
</g>
<!-- Node6&#45;&gt;Node10 -->
<g id="edge10" class="edge">
<title>Node6&#45;&gt;Node10</title>
<path fill="none" stroke="midnightblue" d="M362.5,-123.4C362.5,-114.06 362.5,-101.71 362.5,-91.52"/>
<polygon fill="midnightblue" stroke="midnightblue" points="366,-91.19 362.5,-81.19 359,-91.19 366,-91.19"/>
</g>
<!-- Node10&#45;&gt;Node9 -->
<g id="edge12" class="edge">
<title>Node10&#45;&gt;Node9</title>
<path fill="none" stroke="midnightblue" d="M348.89,-61.98C333.44,-52.3 308.01,-36.37 289.68,-24.89"/>
<polygon fill="midnightblue" stroke="midnightblue" points="291.42,-21.85 281.09,-19.51 287.7,-27.78 291.42,-21.85"/>
</g>
<!-- Node11 -->
<g id="node11" class="node">
<title>Node11</title>
<g id="a_node11"><a xlink:title=" ">
<polygon fill="white" stroke="#bfbfbf" points="452.5,-0.5 452.5,-19.5 552.5,-19.5 552.5,-0.5 452.5,-0.5"/>
<text text-anchor="middle" x="502.5" y="-7.5" font-family="Helvetica,sans-Serif" font-size="10.00">sml/events/event.h</text>
</a>
</g>
</g>
<!-- Node10&#45;&gt;Node11 -->
<g id="edge11" class="edge">
<title>Node10&#45;&gt;Node11</title>
<path fill="none" stroke="midnightblue" d="M382.56,-61.98C406.26,-51.9 445.91,-35.05 473.08,-23.5"/>
<polygon fill="midnightblue" stroke="midnightblue" points="474.64,-26.64 482.48,-19.51 471.91,-20.2 474.64,-26.64"/>
</g>
<!-- Node12 -->
<g id="node12" class="node">
<title>Node12</title>
<g id="a_node12"><a xlink:title=" ">
<polygon fill="white" stroke="#bfbfbf" points="357,-0.5 357,-19.5 434,-19.5 434,-0.5 357,-0.5"/>
<text text-anchor="middle" x="395.5" y="-7.5" font-family="Helvetica,sans-Serif" font-size="10.00">sml/sml_log.h</text>
</a>
</g>
</g>
<!-- Node10&#45;&gt;Node12 -->
<g id="edge13" class="edge">
<title>Node10&#45;&gt;Node12</title>
<path fill="none" stroke="midnightblue" d="M367.23,-61.98C372.08,-53.23 379.77,-39.37 385.9,-28.31"/>
<polygon fill="midnightblue" stroke="midnightblue" points="388.99,-29.95 390.78,-19.51 382.87,-26.56 388.99,-29.95"/>
</g>
<!-- Node14 -->
<g id="node14" class="node">
<title>Node14</title>
<g id="a_node14"><a xlink:title=" ">
<polygon fill="white" stroke="#bfbfbf" points="477,-62 477,-81 560,-81 560,-62 477,-62"/>
<text text-anchor="middle" x="518.5" y="-69" font-family="Helvetica,sans-Serif" font-size="10.00">sml/math/blur.h</text>
</a>
</g>
</g>
<!-- Node13&#45;&gt;Node14 -->
<g id="edge15" class="edge">
<title>Node13&#45;&gt;Node14</title>
<path fill="none" stroke="midnightblue" d="M520.23,-128.73C519.94,-119.18 519.46,-103.62 519.08,-91.28"/>
<polygon fill="midnightblue" stroke="midnightblue" points="522.57,-91.01 518.77,-81.13 515.57,-91.23 522.57,-91.01"/>
</g>
<!-- Node15 -->
<g id="node15" class="node">
<title>Node15</title>
<g id="a_node15"><a xlink:title=" ">
<polygon fill="white" stroke="#bfbfbf" points="578.5,-56.5 578.5,-86.5 690.5,-86.5 690.5,-56.5 578.5,-56.5"/>
<text text-anchor="start" x="586.5" y="-74.5" font-family="Helvetica,sans-Serif" font-size="10.00">sml/graphics_wrapper</text>
<text text-anchor="middle" x="634.5" y="-63.5" font-family="Helvetica,sans-Serif" font-size="10.00">/texture.h</text>
</a>
</g>
</g>
<!-- Node13&#45;&gt;Node15 -->
<g id="edge16" class="edge">
<title>Node13&#45;&gt;Node15</title>
<path fill="none" stroke="midnightblue" d="M535.87,-128.73C552.47,-119.27 579.4,-103.91 600.94,-91.64"/>
<polygon fill="midnightblue" stroke="midnightblue" points="602.84,-94.58 609.79,-86.59 599.37,-88.5 602.84,-94.58"/>
</g>
<!-- Node16&#45;&gt;Node15 -->
<g id="edge18" class="edge">
<title>Node16&#45;&gt;Node15</title>
<path fill="none" stroke="midnightblue" d="M632.77,-128.73C633.02,-120.54 633.41,-107.92 633.75,-96.71"/>
<polygon fill="midnightblue" stroke="midnightblue" points="637.26,-96.69 634.07,-86.59 630.26,-96.48 637.26,-96.69"/>
</g>
<!-- Node18 -->
<g id="node18" class="node">
<title>Node18</title>
<g id="a_node18"><a xlink:title=" ">
<polygon fill="white" stroke="#bfbfbf" points="549.5,-246.5 549.5,-276.5 661.5,-276.5 661.5,-246.5 549.5,-246.5"/>
<text text-anchor="start" x="557.5" y="-264.5" font-family="Helvetica,sans-Serif" font-size="10.00">sml/graphics_wrapper</text>
<text text-anchor="middle" x="605.5" y="-253.5" font-family="Helvetica,sans-Serif" font-size="10.00">/text.h</text>
</a>
</g>
</g>
<!-- Node17&#45;&gt;Node18 -->
<g id="edge20" class="edge">
<title>Node17&#45;&gt;Node18</title>
<path fill="none" stroke="midnightblue" d="M594.36,-313.48C595.91,-306.4 598.19,-295.97 600.28,-286.39"/>
<polygon fill="midnightblue" stroke="midnightblue" points="603.72,-287.04 602.44,-276.52 596.88,-285.55 603.72,-287.04"/>
</g>
<!-- Node19 -->
<g id="node19" class="node">
<title>Node19</title>
<g id="a_node19"><a xlink:href="shape_8h.html" target="_top" xlink:title=" ">
<polygon fill="white" stroke="black" points="682,-252 682,-271 733,-271 733,-252 682,-252"/>
<text text-anchor="middle" x="707.5" y="-259" font-family="Helvetica,sans-Serif" font-size="10.00">shape.h</text>
</a>
</g>
</g>
<!-- Node17&#45;&gt;Node19 -->
<g id="edge21" class="edge">
<title>Node17&#45;&gt;Node19</title>
<path fill="none" stroke="midnightblue" d="M608.98,-313.48C628.11,-303.58 659.87,-287.14 682.15,-275.62"/>
<polygon fill="midnightblue" stroke="midnightblue" points="683.78,-278.71 691.05,-271.01 680.56,-272.5 683.78,-278.71"/>
</g>
<!-- Node19&#45;&gt;Node4 -->
<g id="edge22" class="edge">
<title>Node19&#45;&gt;Node4</title>
<path fill="none" stroke="midnightblue" d="M687.36,-251.89C681.95,-249.77 676.06,-247.65 670.5,-246 611.98,-228.66 542.72,-215.64 498,-208.18"/>
<polygon fill="midnightblue" stroke="midnightblue" points="498.44,-204.71 488.01,-206.54 497.31,-211.61 498.44,-204.71"/>
</g>
<!-- Node19&#45;&gt;Node20 -->
<g id="edge23" class="edge">
<title>Node19&#45;&gt;Node20</title>
<path fill="none" stroke="midnightblue" d="M707.93,-251.98C708.35,-243.58 709.01,-230.48 709.56,-219.66"/>
<polygon fill="midnightblue" stroke="midnightblue" points="713.06,-219.67 710.07,-209.51 706.07,-219.32 713.06,-219.67"/>
</g>
<!-- Node19&#45;&gt;Node24 -->
<g id="edge32" class="edge">
<title>Node19&#45;&gt;Node24</title>
<path fill="none" stroke="midnightblue" d="M733.36,-252.23C765.48,-241.95 820.47,-224.36 856.9,-212.71"/>
<polygon fill="midnightblue" stroke="midnightblue" points="858.19,-215.97 866.65,-209.59 856.06,-209.3 858.19,-215.97"/>
</g>
<!-- Node20&#45;&gt;Node7 -->
<g id="edge24" class="edge">
<title>Node20&#45;&gt;Node7</title>
<path fill="none" stroke="midnightblue" d="M651.94,-194.82C588.89,-189.19 493.92,-177.11 466.5,-154 447.89,-138.32 440.82,-110.01 438.14,-91.23"/>
<polygon fill="midnightblue" stroke="midnightblue" points="441.61,-90.75 436.99,-81.21 434.65,-91.54 441.61,-90.75"/>
</g>
<!-- Node20&#45;&gt;Node16 -->
<g id="edge31" class="edge">
<title>Node20&#45;&gt;Node16</title>
<path fill="none" stroke="midnightblue" d="M699.32,-190.48C686.93,-181.02 666.71,-165.6 651.75,-154.19"/>
<polygon fill="midnightblue" stroke="midnightblue" points="653.73,-151.29 643.65,-148.01 649.48,-156.86 653.73,-151.29"/>
</g>
<!-- Node21 -->
<g id="node21" class="node">
<title>Node21</title>
<g id="a_node21"><a xlink:title=" ">
<polygon fill="white" stroke="#bfbfbf" points="816.5,-62 816.5,-81 924.5,-81 924.5,-62 816.5,-62"/>
<text text-anchor="middle" x="870.5" y="-69" font-family="Helvetica,sans-Serif" font-size="10.00">sml/math/rectangle.h</text>
</a>
</g>
</g>
<!-- Node20&#45;&gt;Node21 -->
<g id="edge25" class="edge">
<title>Node20&#45;&gt;Node21</title>
<path fill="none" stroke="midnightblue" d="M720.86,-190.47C738.1,-176.32 773.82,-147.13 804.5,-123 819.79,-110.97 837.29,-97.6 850.43,-87.64"/>
<polygon fill="midnightblue" stroke="midnightblue" points="852.88,-90.17 858.74,-81.35 848.66,-84.59 852.88,-90.17"/>
</g>
<!-- Node22 -->
<g id="node22" class="node">
<title>Node22</title>
<g id="a_node22"><a xlink:href="fill_8h.html" target="_top" xlink:title=" ">
<polygon fill="white" stroke="black" points="695,-129 695,-148 730,-148 730,-129 695,-129"/>
<text text-anchor="middle" x="712.5" y="-136" font-family="Helvetica,sans-Serif" font-size="10.00">fill.h</text>
</a>
</g>
</g>
<!-- Node20&#45;&gt;Node22 -->
<g id="edge26" class="edge">
<title>Node20&#45;&gt;Node22</title>
<path fill="none" stroke="midnightblue" d="M710.79,-190.48C711.07,-182.08 711.51,-168.98 711.87,-158.16"/>
<polygon fill="midnightblue" stroke="midnightblue" points="715.38,-158.12 712.21,-148.01 708.38,-157.89 715.38,-158.12"/>
</g>
<!-- Node22&#45;&gt;Node7 -->
<g id="edge27" class="edge">
<title>Node22&#45;&gt;Node7</title>
<path fill="none" stroke="midnightblue" d="M699.15,-128.9C695.21,-126.68 690.79,-124.5 686.5,-123 593.8,-90.6 562.47,-115.51 468.5,-87 466.57,-86.42 464.61,-85.74 462.66,-85.01"/>
<polygon fill="midnightblue" stroke="midnightblue" points="463.7,-81.65 453.12,-81.02 461,-88.11 463.7,-81.65"/>
</g>
<!-- Node22&#45;&gt;Node15 -->
<g id="edge30" class="edge">
<title>Node22&#45;&gt;Node15</title>
<path fill="none" stroke="midnightblue" d="M701.98,-128.73C691.14,-119.7 673.83,-105.27 659.46,-93.3"/>
<polygon fill="midnightblue" stroke="midnightblue" points="661.33,-90.3 651.41,-86.59 656.85,-95.68 661.33,-90.3"/>
</g>
<!-- Node22&#45;&gt;Node21 -->
<g id="edge29" class="edge">
<title>Node22&#45;&gt;Node21</title>
<path fill="none" stroke="midnightblue" d="M730.01,-130.3C756.59,-119.36 807.46,-98.43 840.15,-84.99"/>
<polygon fill="midnightblue" stroke="midnightblue" points="841.74,-88.11 849.66,-81.07 839.08,-81.64 841.74,-88.11"/>
</g>
<!-- Node23 -->
<g id="node23" class="node">
<title>Node23</title>
<g id="a_node23"><a xlink:title=" ">
<polygon fill="white" stroke="#bfbfbf" points="709,-62 709,-81 798,-81 798,-62 709,-62"/>
<text text-anchor="middle" x="753.5" y="-69" font-family="Helvetica,sans-Serif" font-size="10.00">sml/math/vec2.h</text>
</a>
</g>
</g>
<!-- Node22&#45;&gt;Node23 -->
<g id="edge28" class="edge">
<title>Node22&#45;&gt;Node23</title>
<path fill="none" stroke="midnightblue" d="M718.03,-128.73C724.3,-118.79 734.68,-102.34 742.59,-89.79"/>
<polygon fill="midnightblue" stroke="midnightblue" points="745.68,-91.45 748.06,-81.13 739.76,-87.72 745.68,-91.45"/>
</g>
<!-- Node24&#45;&gt;Node21 -->
<g id="edge34" class="edge">
<title>Node24&#45;&gt;Node21</title>
<path fill="none" stroke="midnightblue" d="M891.92,-190.31C888.23,-169.99 878.96,-119.05 873.91,-91.28"/>
<polygon fill="midnightblue" stroke="midnightblue" points="877.32,-90.47 872.09,-81.26 870.44,-91.72 877.32,-90.47"/>
</g>
<!-- Node25 -->
<g id="node25" class="node">
<title>Node25</title>
<g id="a_node25"><a xlink:title=" ">
<polygon fill="white" stroke="#bfbfbf" points="894.5,-123.5 894.5,-153.5 1006.5,-153.5 1006.5,-123.5 894.5,-123.5"/>
<text text-anchor="start" x="902.5" y="-141.5" font-family="Helvetica,sans-Serif" font-size="10.00">sml/graphics_wrapper</text>
<text text-anchor="middle" x="950.5" y="-130.5" font-family="Helvetica,sans-Serif" font-size="10.00">/color.h</text>
</a>
</g>
</g>
<!-- Node24&#45;&gt;Node25 -->
<g id="edge33" class="edge">
<title>Node24&#45;&gt;Node25</title>
<path fill="none" stroke="midnightblue" d="M901.67,-190.48C909.03,-182.79 920.16,-171.17 929.94,-160.96"/>
<polygon fill="midnightblue" stroke="midnightblue" points="932.68,-163.17 937.07,-153.52 927.62,-158.32 932.68,-163.17"/>
</g>
<!-- Node24&#45;&gt;Node26 -->
<g id="edge35" class="edge">
<title>Node24&#45;&gt;Node26</title>
<path fill="none" stroke="midnightblue" d="M917.45,-190.48C942.13,-181.63 981.65,-167.25 1015.5,-154 1017.14,-153.36 1018.82,-152.69 1020.52,-152.01"/>
<polygon fill="midnightblue" stroke="midnightblue" points="1022.26,-155.08 1030.2,-148.07 1019.62,-148.6 1022.26,-155.08"/>
</g>
<!-- Node27 -->
<g id="node27" class="node">
<title>Node27</title>
<g id="a_node27"><a xlink:title=" ">
<polygon fill="white" stroke="#bfbfbf" points="1026,-62 1026,-81 1075,-81 1075,-62 1026,-62"/>
<text text-anchor="middle" x="1050.5" y="-69" font-family="Helvetica,sans-Serif" font-size="10.00">stdint.h</text>
</a>
</g>
</g>
<!-- Node26&#45;&gt;Node27 -->
<g id="edge36" class="edge">
<title>Node26&#45;&gt;Node27</title>
<path fill="none" stroke="midnightblue" d="M1050.5,-128.73C1050.5,-119.18 1050.5,-103.62 1050.5,-91.28"/>
<polygon fill="midnightblue" stroke="midnightblue" points="1054,-91.13 1050.5,-81.13 1047,-91.13 1054,-91.13"/>
</g>
<!-- Node28&#45;&gt;Node19 -->
<g id="edge39" class="edge">
<title>Node28&#45;&gt;Node19</title>
<path fill="none" stroke="midnightblue" d="M707.5,-313.48C707.5,-305.08 707.5,-291.98 707.5,-281.16"/>
<polygon fill="midnightblue" stroke="midnightblue" points="711,-281.01 707.5,-271.01 704,-281.01 711,-281.01"/>
</g>
<!-- Node28&#45;&gt;Node21 -->
<g id="edge38" class="edge">
<title>Node28&#45;&gt;Node21</title>
<path fill="none" stroke="midnightblue" d="M714.75,-313.24C722.02,-304.31 733.43,-289.98 742.5,-277 789.45,-209.85 839.38,-125.92 860.33,-90.06"/>
<polygon fill="midnightblue" stroke="midnightblue" points="863.44,-91.68 865.44,-81.28 857.39,-88.16 863.44,-91.68"/>
</g>
<!-- Node29&#45;&gt;Node26 -->
<g id="edge46" class="edge">
<title>Node29&#45;&gt;Node26</title>
<path fill="none" stroke="midnightblue" d="M969.83,-313.31C972.22,-298.92 977.89,-269.4 987.5,-246 1001.3,-212.39 1024.36,-176.72 1038.42,-156.37"/>
<polygon fill="midnightblue" stroke="midnightblue" points="1041.3,-158.35 1044.18,-148.16 1035.57,-154.33 1041.3,-158.35"/>
</g>
<!-- Node30 -->
<g id="node30" class="node">
<title>Node30</title>
<g id="a_node30"><a xlink:title=" ">
<polygon fill="white" stroke="#bfbfbf" points="996.5,-246.5 996.5,-276.5 1108.5,-276.5 1108.5,-246.5 996.5,-246.5"/>
<text text-anchor="start" x="1004.5" y="-264.5" font-family="Helvetica,sans-Serif" font-size="10.00">sml/graphics_wrapper</text>
<text text-anchor="middle" x="1052.5" y="-253.5" font-family="Helvetica,sans-Serif" font-size="10.00">/renderer.h</text>
</a>
</g>
</g>
<!-- Node29&#45;&gt;Node30 -->
<g id="edge45" class="edge">
<title>Node29&#45;&gt;Node30</title>
<path fill="none" stroke="midnightblue" d="M980.54,-313.48C991.91,-305.42 1009.41,-293.02 1024.3,-282.47"/>
<polygon fill="midnightblue" stroke="midnightblue" points="1026.57,-285.16 1032.7,-276.52 1022.52,-279.45 1026.57,-285.16"/>
</g>
</g>
</svg>
        <g id="navigator" transform="translate(0 0)" fill="#404254">
                <rect fill="#f2f5e9" fill-opacity="0.5" stroke="#606060" stroke-width=".5" x="0" y="0" width="60" height="60"/>
                <use id="zoomplus" xlink:href="#zoomPlus" x="17" y="9" onmousedown="handleZoom(evt,'in')"/>
                <use id="zoomminus" xlink:href="#zoomMin" x="42" y="9" onmousedown="handleZoom(evt,'out')"/>
                <use id="reset" xlink:href="#resetDef" x="30" y="36" onmousedown="handleReset()"/>
                <g id="arrowUp" xlink:href="#dirArrow" transform="translate(30 24)" onmousedown="handlePan(0,-1)">
                  <use xlink:href="#rim" fill="#404040">
                        <set attributeName="fill" to="#808080" begin="arrowUp.mouseover" end="arrowUp.mouseout"/>
                  </use>
                  <path fill="none" stroke="white" stroke-width="1.5" d="M0,-3.0v7 M-2.5,-0.5L0,-3.0L2.5,-0.5"/>
                </g>
                <g id="arrowRight" xlink:href="#dirArrow" transform="rotate(90) translate(36 -43)" onmousedown="handlePan(1,0)">
                  <use xlink:href="#rim" fill="#404040">
                        <set attributeName="fill" to="#808080" begin="arrowRight.mouseover" end="arrowRight.mouseout"/>
                  </use>
                  <path fill="none" stroke="white" stroke-width="1.5" d="M0,-3.0v7 M-2.5,-0.5L0,-3.0L2.5,-0.5"/>
                </g>
                <g id="arrowDown" xlink:href="#dirArrow" transform="rotate(180) translate(-30 -48)" onmousedown="handlePan(0,1)">
                  <use xlink:href="#rim" fill="#404040">
                        <set attributeName="fill" to="#808080" begin="arrowDown.mouseover" end="arrowDown.mouseout"/>
                  </use>
                  <path fill="none" stroke="white" stroke-width="1.5" d="M0,-3.0v7 M-2.5,-0.5L0,-3.0L2.5,-0.5"/>
                </g>
                <g id="arrowLeft" xlink:href="#dirArrow" transform="rotate(270) translate(-36 17)" onmousedown="handlePan(-1,0)">
                  <use xlink:href="#rim" fill="#404040">
                        <set attributeName="fill" to="#808080" begin="arrowLeft.mouseover" end="arrowLeft.mouseout"/>
                  </use>
                  <path fill="none" stroke="white" stroke-width="1.5" d="M0,-3.0v7 M-2.5,-0.5L0,-3.0L2.5,-0.5"/>
                </g>
        </g>
        <svg viewBox="0 0 15 15" width="100%" height="30px" preserveAspectRatio="xMaxYMin meet">
         <g id="arrow_out" transform="scale(0.3 0.3)">
          <a xlink:href="default__skins_8h__incl_org.svg" target="_base">
           <rect id="button" ry="5" rx="5" y="6" x="6" height="38" width="38"
                fill="#f2f5e9" fill-opacity="0.5" stroke="#606060" stroke-width="1.0"/>
           <path id="arrow"
             d="M 11.500037,31.436501 C 11.940474,20.09759 22.043105,11.32322 32.158766,21.979434 L 37.068811,17.246167 C 37.068811,17.246167 37.088388,32 37.088388,32 L 22.160133,31.978069 C 22.160133,31.978069 26.997745,27.140456 26.997745,27.140456 C 18.528582,18.264221 13.291696,25.230495 11.500037,31.436501 z"
             style="fill:#404040;"/>
          </a>
         </g>
        </svg>
</svg>
