<?xml version="1.0" encoding="UTF-8" standalone="no"?>
<!DOCTYPE svg PUBLIC "-//W3C//DTD SVG 1.1//EN"
 "http://www.w3.org/Graphics/SVG/1.1/DTD/svg11.dtd">
<!-- Generated by graphviz version 2.50.0 (20211204.2007)
 -->
<!-- Title: default_skins.cpp Pages: 1 -->
<!--zoomable 531 -->
<svg id="main" version="1.1" xmlns="http://www.w3.org/2000/svg" xmlns:xlink="http://www.w3.org/1999/xlink" xml:space="preserve" onload="init(evt)">
<style type="text/css"><![CDATA[
.edge:hover path { stroke: red; }
.edge:hover polygon { stroke: red; fill: red; }
]]></style>
<script type="text/javascript"><![CDATA[
var edges = document.getElementsByTagName('g');
if (edges && edges.length) {
  for (var i=0;i<edges.length;i++) {
    if (edges[i].id.substr(0,4)=='edge') {
      edges[i].setAttribute('class','edge');
    }
  }
}
]]></script>
        <defs>
                <circle id="rim" cx="0" cy="0" r="7"/>
                <circle id="rim2" cx="0" cy="0" r="3.5"/>
                <g id="zoomPlus">
                        <use xlink:href="#rim" fill="#404040">
                                <set attributeName="fill" to="#808080" begin="zoomplus.mouseover" end="zoomplus.mouseout"/>
                        </use>
                        <path d="M-4,0h8M0,-4v8" fill="none" stroke="white" stroke-width="1.5" pointer-events="none"/>
                </g>
                <g id="zoomMin">
                        <use xlink:href="#rim" fill="#404040">
                                <set attributeName="fill" to="#808080" begin="zoomminus.mouseover" end="zoomminus.mouseout"/>
                        </use>
                        <path d="M-4,0h8" fill="none" stroke="white" stroke-width="1.5" pointer-events="none"/>
                </g>
                <g id="dirArrow">
                        <path fill="none" stroke="white" stroke-width="1.5" d="M0,-3.0v7 M-2.5,-0.5L0,-3.0L2.5,-0.5"/>
                </g>
               <g id="resetDef">
                       <use xlink:href="#rim2" fill="#404040">
                               <set attributeName="fill" to="#808080" begin="reset.mouseover" end="reset.mouseout"/>
                       </use>
               </g>
        </defs>

<script type="text/javascript">
var viewWidth = 1303;
var viewHeight = 531;
var sectionId = 'dynsection-0';
</script>
<script xlink:href="svgpan.js"/>
<svg id="graph" class="graph">
<g id="viewport">
<title>default_skins.cpp</title>
<polygon fill="white" stroke="transparent" points="-4,4 -4,-527 1298.5,-527 1298.5,4 -4,4"/>
<!-- Node1 -->
<g id="node1" class="node">
<title>Node1</title>
<g id="a_node1"><a xlink:title=" ">
<polygon fill="#bfbfbf" stroke="black" points="298.5,-503.5 298.5,-522.5 391.5,-522.5 391.5,-503.5 298.5,-503.5"/>
<text text-anchor="middle" x="345" y="-510.5" font-family="Helvetica,sans-Serif" font-size="10.00">default_skins.cpp</text>
</a>
</g>
</g>
<!-- Node2 -->
<g id="node2" class="node">
<title>Node2</title>
<g id="a_node2"><a xlink:href="default__skins_8h.html" target="_top" xlink:title=" ">
<polygon fill="white" stroke="black" points="505.5,-369.5 505.5,-399.5 604.5,-399.5 604.5,-369.5 505.5,-369.5"/>
<text text-anchor="start" x="513.5" y="-387.5" font-family="Helvetica,sans-Serif" font-size="10.00">scene/style/default</text>
<text text-anchor="middle" x="555" y="-376.5" font-family="Helvetica,sans-Serif" font-size="10.00">_skins.h</text>
</a>
</g>
</g>
<!-- Node1&#45;&gt;Node2 -->
<g id="edge1" class="edge">
<title>Node1&#45;&gt;Node2</title>
<path fill="none" stroke="midnightblue" d="M391.96,-507.94C445.39,-502.28 527.85,-490.02 548,-467 561.54,-451.53 562.01,-427.49 559.85,-409.53"/>
<polygon fill="midnightblue" stroke="midnightblue" points="563.29,-408.86 558.32,-399.51 556.37,-409.92 563.29,-408.86"/>
</g>
<!-- Node32 -->
<g id="node32" class="node">
<title>Node32</title>
<g id="a_node32"><a xlink:href="box__container_8h.html" target="_top" xlink:title=" ">
<polygon fill="white" stroke="black" points="79,-369.5 79,-399.5 189,-399.5 189,-369.5 79,-369.5"/>
<text text-anchor="start" x="87" y="-387.5" font-family="Helvetica,sans-Serif" font-size="10.00">scene/containers/box</text>
<text text-anchor="middle" x="134" y="-376.5" font-family="Helvetica,sans-Serif" font-size="10.00">_container.h</text>
</a>
</g>
</g>
<!-- Node1&#45;&gt;Node32 -->
<g id="edge48" class="edge">
<title>Node1&#45;&gt;Node32</title>
<path fill="none" stroke="midnightblue" d="M298.39,-506.74C248.3,-500.14 173.14,-487.17 153,-467 138.14,-452.12 134.01,-428 133.23,-409.86"/>
<polygon fill="midnightblue" stroke="midnightblue" points="136.72,-409.68 133.1,-399.72 129.72,-409.77 136.72,-409.68"/>
</g>
<!-- Node37 -->
<g id="node37" class="node">
<title>Node37</title>
<g id="a_node37"><a xlink:href="button_8h.html" target="_top" xlink:title=" ">
<polygon fill="white" stroke="black" points="420.5,-442 420.5,-461 539.5,-461 539.5,-442 420.5,-442"/>
<text text-anchor="middle" x="480" y="-449" font-family="Helvetica,sans-Serif" font-size="10.00">scene/controls/button.h</text>
</a>
</g>
</g>
<!-- Node1&#45;&gt;Node37 -->
<g id="edge57" class="edge">
<title>Node1&#45;&gt;Node37</title>
<path fill="none" stroke="midnightblue" d="M364.34,-503.48C387.1,-493.45 425.09,-476.7 451.29,-465.15"/>
<polygon fill="midnightblue" stroke="midnightblue" points="452.95,-468.24 460.69,-461.01 450.13,-461.84 452.95,-468.24"/>
</g>
<!-- Node39 -->
<g id="node39" class="node">
<title>Node39</title>
<g id="a_node39"><a xlink:href="slider_8h.html" target="_top" xlink:title=" ">
<polygon fill="white" stroke="black" points="288,-442 288,-461 402,-461 402,-442 288,-442"/>
<text text-anchor="middle" x="345" y="-449" font-family="Helvetica,sans-Serif" font-size="10.00">scene/controls/slider.h</text>
</a>
</g>
</g>
<!-- Node1&#45;&gt;Node39 -->
<g id="edge62" class="edge">
<title>Node1&#45;&gt;Node39</title>
<path fill="none" stroke="midnightblue" d="M345,-503.48C345,-495.08 345,-481.98 345,-471.16"/>
<polygon fill="midnightblue" stroke="midnightblue" points="348.5,-471.01 345,-461.01 341.5,-471.01 348.5,-471.01"/>
</g>
<!-- Node40 -->
<g id="node40" class="node">
<title>Node40</title>
<g id="a_node40"><a xlink:href="scroll__bar_8h.html" target="_top" xlink:title=" ">
<polygon fill="white" stroke="black" points="162.5,-436.5 162.5,-466.5 269.5,-466.5 269.5,-436.5 162.5,-436.5"/>
<text text-anchor="start" x="170.5" y="-454.5" font-family="Helvetica,sans-Serif" font-size="10.00">scene/controls/scroll</text>
<text text-anchor="middle" x="216" y="-443.5" font-family="Helvetica,sans-Serif" font-size="10.00">_bar.h</text>
</a>
</g>
</g>
<!-- Node1&#45;&gt;Node40 -->
<g id="edge64" class="edge">
<title>Node1&#45;&gt;Node40</title>
<path fill="none" stroke="midnightblue" d="M326.52,-503.48C308.07,-494.96 279.13,-481.62 255.5,-470.72"/>
<polygon fill="midnightblue" stroke="midnightblue" points="256.95,-467.53 246.4,-466.52 254.02,-473.89 256.95,-467.53"/>
</g>
<!-- Node3 -->
<g id="node3" class="node">
<title>Node3</title>
<g id="a_node3"><a xlink:title=" ">
<polygon fill="white" stroke="#bfbfbf" points="352.5,-56.5 352.5,-86.5 451.5,-86.5 451.5,-56.5 352.5,-56.5"/>
<text text-anchor="start" x="360.5" y="-74.5" font-family="Helvetica,sans-Serif" font-size="10.00">sml/events/listener</text>
<text text-anchor="middle" x="402" y="-63.5" font-family="Helvetica,sans-Serif" font-size="10.00">_notifier.h</text>
</a>
</g>
</g>
<!-- Node2&#45;&gt;Node3 -->
<g id="edge2" class="edge">
<title>Node2&#45;&gt;Node3</title>
<path fill="none" stroke="midnightblue" d="M528.77,-369.42C513.42,-360.35 494.3,-347.56 480,-333 463.39,-316.09 370.72,-176.73 364,-154 360.09,-140.79 359.63,-136.07 364,-123 367.44,-112.7 373.91,-102.81 380.54,-94.56"/>
<polygon fill="midnightblue" stroke="midnightblue" points="383.26,-96.76 387.12,-86.9 377.95,-92.2 383.26,-96.76"/>
</g>
<!-- Node4 -->
<g id="node4" class="node">
<title>Node4</title>
<g id="a_node4"><a xlink:href="image__view_8h.html" target="_top" xlink:title=" ">
<polygon fill="white" stroke="black" points="779,-252 779,-271 863,-271 863,-252 779,-252"/>
<text text-anchor="middle" x="821" y="-259" font-family="Helvetica,sans-Serif" font-size="10.00">../image_view.h</text>
</a>
</g>
</g>
<!-- Node2&#45;&gt;Node4 -->
<g id="edge3" class="edge">
<title>Node2&#45;&gt;Node4</title>
<path fill="none" stroke="midnightblue" d="M604.82,-372.94C638.88,-364.65 684.48,-351.42 722,-333 752.88,-317.84 784.58,-293.4 803.53,-277.64"/>
<polygon fill="midnightblue" stroke="midnightblue" points="805.92,-280.21 811.29,-271.08 801.4,-274.87 805.92,-280.21"/>
</g>
<!-- Node14 -->
<g id="node14" class="node">
<title>Node14</title>
<g id="a_node14"><a xlink:href="shadow_8h.html" target="_top" xlink:title=" ">
<polygon fill="white" stroke="black" points="1092,-129 1092,-148 1182,-148 1182,-129 1092,-129"/>
<text text-anchor="middle" x="1137" y="-136" font-family="Helvetica,sans-Serif" font-size="10.00">../paint/shadow.h</text>
</a>
</g>
</g>
<!-- Node2&#45;&gt;Node14 -->
<g id="edge44" class="edge">
<title>Node2&#45;&gt;Node14</title>
<path fill="none" stroke="midnightblue" d="M604.73,-380.07C661.03,-374.9 754.71,-362.38 830,-333 949.65,-286.32 1073.42,-191.28 1118.87,-154.5"/>
<polygon fill="midnightblue" stroke="midnightblue" points="1121.13,-157.18 1126.66,-148.14 1116.7,-151.75 1121.13,-157.18"/>
</g>
<!-- Node18 -->
<g id="node18" class="node">
<title>Node18</title>
<g id="a_node18"><a xlink:href="text_8h.html" target="_top" xlink:title=" ">
<polygon fill="white" stroke="black" points="627.5,-313.5 627.5,-332.5 712.5,-332.5 712.5,-313.5 627.5,-313.5"/>
<text text-anchor="middle" x="670" y="-320.5" font-family="Helvetica,sans-Serif" font-size="10.00">../shapes/text.h</text>
</a>
</g>
</g>
<!-- Node2&#45;&gt;Node18 -->
<g id="edge20" class="edge">
<title>Node2&#45;&gt;Node18</title>
<path fill="none" stroke="midnightblue" d="M582.25,-369.4C601.03,-359.68 625.83,-346.86 644.27,-337.31"/>
<polygon fill="midnightblue" stroke="midnightblue" points="645.99,-340.36 653.27,-332.66 642.78,-334.14 645.99,-340.36"/>
</g>
<!-- Node21 -->
<g id="node21" class="node">
<title>Node21</title>
<g id="a_node21"><a xlink:href="background_8h.html" target="_top" xlink:title=" ">
<polygon fill="white" stroke="black" points="832.5,-190.5 832.5,-209.5 949.5,-209.5 949.5,-190.5 832.5,-190.5"/>
<text text-anchor="middle" x="891" y="-197.5" font-family="Helvetica,sans-Serif" font-size="10.00">../../paint/background.h</text>
</a>
</g>
</g>
<!-- Node2&#45;&gt;Node21 -->
<g id="edge41" class="edge">
<title>Node2&#45;&gt;Node21</title>
<path fill="none" stroke="midnightblue" d="M604.61,-382.2C675.73,-377.46 805.39,-357.52 872,-277 885.38,-260.82 889.53,-236.52 890.72,-219.77"/>
<polygon fill="midnightblue" stroke="midnightblue" points="894.23,-219.72 891.15,-209.58 887.23,-219.43 894.23,-219.72"/>
</g>
<!-- Node25 -->
<g id="node25" class="node">
<title>Node25</title>
<g id="a_node25"><a xlink:href="border_8h.html" target="_top" xlink:title=" ">
<polygon fill="white" stroke="black" points="425.5,-190.5 425.5,-209.5 518.5,-209.5 518.5,-190.5 425.5,-190.5"/>
<text text-anchor="middle" x="472" y="-197.5" font-family="Helvetica,sans-Serif" font-size="10.00">../../paint/border.h</text>
</a>
</g>
</g>
<!-- Node2&#45;&gt;Node25 -->
<g id="edge42" class="edge">
<title>Node2&#45;&gt;Node25</title>
<path fill="none" stroke="midnightblue" d="M529.58,-369.5C516.22,-360.78 500.82,-348.3 492,-333 471.24,-296.98 469.76,-246.63 470.72,-219.72"/>
<polygon fill="midnightblue" stroke="midnightblue" points="474.22,-219.89 471.24,-209.73 467.23,-219.53 474.22,-219.89"/>
</g>
<!-- Node27 -->
<g id="node27" class="node">
<title>Node27</title>
<g id="a_node27"><a xlink:href="insets_8h.html" target="_top" xlink:title=" ">
<polygon fill="white" stroke="black" points="265.5,-129 265.5,-148 316.5,-148 316.5,-129 265.5,-129"/>
<text text-anchor="middle" x="291" y="-136" font-family="Helvetica,sans-Serif" font-size="10.00">insets.h</text>
</a>
</g>
</g>
<!-- Node2&#45;&gt;Node27 -->
<g id="edge43" class="edge">
<title>Node2&#45;&gt;Node27</title>
<path fill="none" stroke="midnightblue" d="M505.39,-373.11C454.7,-359.79 377.7,-331.6 336,-277 308.26,-240.68 297.22,-186.54 293.16,-158.25"/>
<polygon fill="midnightblue" stroke="midnightblue" points="296.6,-157.61 291.85,-148.14 289.66,-158.51 296.6,-157.61"/>
</g>
<!-- Node29 -->
<g id="node29" class="node">
<title>Node29</title>
<g id="a_node29"><a xlink:href="rectangle_8h.html" target="_top" xlink:title=" ">
<polygon fill="white" stroke="black" points="501,-313.5 501,-332.5 609,-332.5 609,-313.5 501,-313.5"/>
<text text-anchor="middle" x="555" y="-320.5" font-family="Helvetica,sans-Serif" font-size="10.00">../shapes/rectangle.h</text>
</a>
</g>
</g>
<!-- Node2&#45;&gt;Node29 -->
<g id="edge38" class="edge">
<title>Node2&#45;&gt;Node29</title>
<path fill="none" stroke="midnightblue" d="M555,-369.4C555,-361.47 555,-351.46 555,-342.86"/>
<polygon fill="midnightblue" stroke="midnightblue" points="558.5,-342.66 555,-332.66 551.5,-342.66 558.5,-342.66"/>
</g>
<!-- Node30 -->
<g id="node30" class="node">
<title>Node30</title>
<g id="a_node30"><a xlink:href="skin_8h.html" target="_top" xlink:title=" ">
<polygon fill="white" stroke="black" points="193.5,-313.5 193.5,-332.5 236.5,-332.5 236.5,-313.5 193.5,-313.5"/>
<text text-anchor="middle" x="215" y="-320.5" font-family="Helvetica,sans-Serif" font-size="10.00">skin.h</text>
</a>
</g>
</g>
<!-- Node2&#45;&gt;Node30 -->
<g id="edge45" class="edge">
<title>Node2&#45;&gt;Node30</title>
<path fill="none" stroke="midnightblue" d="M505.41,-377.27C446.11,-369.41 343.75,-354.52 246.58,-332.88"/>
<polygon fill="midnightblue" stroke="midnightblue" points="247.12,-329.42 236.59,-330.63 245.58,-336.24 247.12,-329.42"/>
</g>
<!-- Node5 -->
<g id="node5" class="node">
<title>Node5</title>
<g id="a_node5"><a xlink:href="component_8h.html" target="_top" xlink:title=" ">
<polygon fill="white" stroke="black" points="676.5,-190.5 676.5,-209.5 749.5,-209.5 749.5,-190.5 676.5,-190.5"/>
<text text-anchor="middle" x="713" y="-197.5" font-family="Helvetica,sans-Serif" font-size="10.00">component.h</text>
</a>
</g>
</g>
<!-- Node4&#45;&gt;Node5 -->
<g id="edge4" class="edge">
<title>Node4&#45;&gt;Node5</title>
<path fill="none" stroke="midnightblue" d="M805.53,-251.98C787.72,-242.17 758.26,-225.93 737.37,-214.42"/>
<polygon fill="midnightblue" stroke="midnightblue" points="738.89,-211.27 728.45,-209.51 735.51,-217.4 738.89,-211.27"/>
</g>
<!-- Node17 -->
<g id="node17" class="node">
<title>Node17</title>
<g id="a_node17"><a xlink:href="image_8h.html" target="_top" xlink:title=" ">
<polygon fill="white" stroke="black" points="984.5,-129 984.5,-148 1073.5,-148 1073.5,-129 984.5,-129"/>
<text text-anchor="middle" x="1029" y="-136" font-family="Helvetica,sans-Serif" font-size="10.00">../media/image.h</text>
</a>
</g>
</g>
<!-- Node4&#45;&gt;Node17 -->
<g id="edge18" class="edge">
<title>Node4&#45;&gt;Node17</title>
<path fill="none" stroke="midnightblue" d="M856.99,-252C886.05,-244.07 927.21,-230.37 959,-210 982.04,-195.24 1003.4,-171.7 1016.32,-155.93"/>
<polygon fill="midnightblue" stroke="midnightblue" points="1019.09,-158.08 1022.59,-148.08 1013.61,-153.71 1019.09,-158.08"/>
</g>
<!-- Node6 -->
<g id="node6" class="node">
<title>Node6</title>
<g id="a_node6"><a xlink:title=" ">
<polygon fill="white" stroke="#bfbfbf" points="579,-129 579,-148 719,-148 719,-129 579,-129"/>
<text text-anchor="middle" x="649" y="-136" font-family="Helvetica,sans-Serif" font-size="10.00">sml/sml_graphics_wrapper.h</text>
</a>
</g>
</g>
<!-- Node5&#45;&gt;Node6 -->
<g id="edge5" class="edge">
<title>Node5&#45;&gt;Node6</title>
<path fill="none" stroke="midnightblue" d="M703.83,-190.48C693.85,-181.2 677.69,-166.17 665.49,-154.83"/>
<polygon fill="midnightblue" stroke="midnightblue" points="667.86,-152.25 658.15,-148.01 663.09,-157.38 667.86,-152.25"/>
</g>
<!-- Node7 -->
<g id="node7" class="node">
<title>Node7</title>
<g id="a_node7"><a xlink:href="gui__event__dispatching_8h.html" target="_top" xlink:title=" ">
<polygon fill="white" stroke="black" points="775,-123.5 775,-153.5 875,-153.5 875,-123.5 775,-123.5"/>
<text text-anchor="start" x="783" y="-141.5" font-family="Helvetica,sans-Serif" font-size="10.00">../events/gui_event</text>
<text text-anchor="middle" x="825" y="-130.5" font-family="Helvetica,sans-Serif" font-size="10.00">_dispatching.h</text>
</a>
</g>
</g>
<!-- Node5&#45;&gt;Node7 -->
<g id="edge6" class="edge">
<title>Node5&#45;&gt;Node7</title>
<path fill="none" stroke="midnightblue" d="M729.05,-190.48C744.78,-182.12 769.3,-169.09 789.61,-158.3"/>
<polygon fill="midnightblue" stroke="midnightblue" points="791.41,-161.31 798.6,-153.52 788.13,-155.12 791.41,-161.31"/>
</g>
<!-- Node5&#45;&gt;Node14 -->
<g id="edge15" class="edge">
<title>Node5&#45;&gt;Node14</title>
<path fill="none" stroke="midnightblue" d="M749.5,-196.28C816.19,-190.94 961.99,-177.48 1083,-154 1088.05,-153.02 1093.33,-151.82 1098.52,-150.54"/>
<polygon fill="midnightblue" stroke="midnightblue" points="1099.5,-153.9 1108.31,-148.01 1097.75,-147.13 1099.5,-153.9"/>
</g>
<!-- Node7&#45;&gt;Node3 -->
<g id="edge9" class="edge">
<title>Node7&#45;&gt;Node3</title>
<path fill="none" stroke="midnightblue" d="M774.66,-129.93C759.65,-127.68 743.16,-125.23 728,-123 617.37,-106.73 589.3,-105.35 479,-87 473.33,-86.06 467.43,-85.03 461.53,-83.97"/>
<polygon fill="midnightblue" stroke="midnightblue" points="462.12,-80.52 451.65,-82.17 460.86,-87.41 462.12,-80.52"/>
</g>
<!-- Node8 -->
<g id="node8" class="node">
<title>Node8</title>
<g id="a_node8"><a xlink:title=" ">
<polygon fill="white" stroke="#bfbfbf" points="911,-62 911,-81 955,-81 955,-62 911,-62"/>
<text text-anchor="middle" x="933" y="-69" font-family="Helvetica,sans-Serif" font-size="10.00">vector</text>
</a>
</g>
</g>
<!-- Node7&#45;&gt;Node8 -->
<g id="edge7" class="edge">
<title>Node7&#45;&gt;Node8</title>
<path fill="none" stroke="midnightblue" d="M848.43,-123.4C866.71,-112.39 891.96,-97.2 910.1,-86.28"/>
<polygon fill="midnightblue" stroke="midnightblue" points="912.1,-89.16 918.87,-81.01 908.49,-83.16 912.1,-89.16"/>
</g>
<!-- Node9 -->
<g id="node9" class="node">
<title>Node9</title>
<g id="a_node9"><a xlink:title=" ">
<polygon fill="white" stroke="#bfbfbf" points="737.5,-62 737.5,-81 892.5,-81 892.5,-62 737.5,-62"/>
<text text-anchor="middle" x="815" y="-69" font-family="Helvetica,sans-Serif" font-size="10.00">sml/events/event_dispatching.h</text>
</a>
</g>
</g>
<!-- Node7&#45;&gt;Node9 -->
<g id="edge8" class="edge">
<title>Node7&#45;&gt;Node9</title>
<path fill="none" stroke="midnightblue" d="M822.83,-123.4C821.38,-113.96 819.45,-101.45 817.88,-91.19"/>
<polygon fill="midnightblue" stroke="midnightblue" points="821.32,-90.55 816.34,-81.19 814.4,-91.61 821.32,-90.55"/>
</g>
<!-- Node10 -->
<g id="node10" class="node">
<title>Node10</title>
<g id="a_node10"><a xlink:title=" ">
<polygon fill="white" stroke="#bfbfbf" points="519.5,-0.5 519.5,-19.5 662.5,-19.5 662.5,-0.5 519.5,-0.5"/>
<text text-anchor="middle" x="591" y="-7.5" font-family="Helvetica,sans-Serif" font-size="10.00">sml/events/system_events.h</text>
</a>
</g>
</g>
<!-- Node7&#45;&gt;Node10 -->
<g id="edge10" class="edge">
<title>Node7&#45;&gt;Node10</title>
<path fill="none" stroke="midnightblue" d="M774.7,-125.43C724.68,-113.12 653.87,-94.77 643,-87 622.32,-72.22 607.27,-46.48 598.83,-29.1"/>
<polygon fill="midnightblue" stroke="midnightblue" points="601.79,-27.16 594.44,-19.53 595.43,-30.08 601.79,-27.16"/>
</g>
<!-- Node11 -->
<g id="node11" class="node">
<title>Node11</title>
<g id="a_node11"><a xlink:href="gui__event_8h.html" target="_top" xlink:title=" ">
<polygon fill="white" stroke="black" points="652.5,-62 652.5,-81 719.5,-81 719.5,-62 652.5,-62"/>
<text text-anchor="middle" x="686" y="-69" font-family="Helvetica,sans-Serif" font-size="10.00">gui_event.h</text>
</a>
</g>
</g>
<!-- Node7&#45;&gt;Node11 -->
<g id="edge11" class="edge">
<title>Node7&#45;&gt;Node11</title>
<path fill="none" stroke="midnightblue" d="M794.84,-123.4C770.56,-112.04 736.72,-96.22 713.25,-85.24"/>
<polygon fill="midnightblue" stroke="midnightblue" points="714.73,-82.07 704.19,-81.01 711.77,-88.41 714.73,-82.07"/>
</g>
<!-- Node11&#45;&gt;Node10 -->
<g id="edge13" class="edge">
<title>Node11&#45;&gt;Node10</title>
<path fill="none" stroke="midnightblue" d="M672.39,-61.98C656.94,-52.3 631.51,-36.37 613.18,-24.89"/>
<polygon fill="midnightblue" stroke="midnightblue" points="614.92,-21.85 604.59,-19.51 611.2,-27.78 614.92,-21.85"/>
</g>
<!-- Node12 -->
<g id="node12" class="node">
<title>Node12</title>
<g id="a_node12"><a xlink:title=" ">
<polygon fill="white" stroke="#bfbfbf" points="776,-0.5 776,-19.5 876,-19.5 876,-0.5 776,-0.5"/>
<text text-anchor="middle" x="826" y="-7.5" font-family="Helvetica,sans-Serif" font-size="10.00">sml/events/event.h</text>
</a>
</g>
</g>
<!-- Node11&#45;&gt;Node12 -->
<g id="edge12" class="edge">
<title>Node11&#45;&gt;Node12</title>
<path fill="none" stroke="midnightblue" d="M706.06,-61.98C729.76,-51.9 769.41,-35.05 796.58,-23.5"/>
<polygon fill="midnightblue" stroke="midnightblue" points="798.14,-26.64 805.98,-19.51 795.41,-20.2 798.14,-26.64"/>
</g>
<!-- Node13 -->
<g id="node13" class="node">
<title>Node13</title>
<g id="a_node13"><a xlink:title=" ">
<polygon fill="white" stroke="#bfbfbf" points="680.5,-0.5 680.5,-19.5 757.5,-19.5 757.5,-0.5 680.5,-0.5"/>
<text text-anchor="middle" x="719" y="-7.5" font-family="Helvetica,sans-Serif" font-size="10.00">sml/sml_log.h</text>
</a>
</g>
</g>
<!-- Node11&#45;&gt;Node13 -->
<g id="edge14" class="edge">
<title>Node11&#45;&gt;Node13</title>
<path fill="none" stroke="midnightblue" d="M690.73,-61.98C695.58,-53.23 703.27,-39.37 709.4,-28.31"/>
<polygon fill="midnightblue" stroke="midnightblue" points="712.49,-29.95 714.28,-19.51 706.37,-26.56 712.49,-29.95"/>
</g>
<!-- Node15 -->
<g id="node15" class="node">
<title>Node15</title>
<g id="a_node15"><a xlink:title=" ">
<polygon fill="white" stroke="#bfbfbf" points="1211.5,-62 1211.5,-81 1294.5,-81 1294.5,-62 1211.5,-62"/>
<text text-anchor="middle" x="1253" y="-69" font-family="Helvetica,sans-Serif" font-size="10.00">sml/math/blur.h</text>
</a>
</g>
</g>
<!-- Node14&#45;&gt;Node15 -->
<g id="edge16" class="edge">
<title>Node14&#45;&gt;Node15</title>
<path fill="none" stroke="midnightblue" d="M1152.64,-128.73C1172.21,-117.77 1205.92,-98.88 1228.82,-86.05"/>
<polygon fill="midnightblue" stroke="midnightblue" points="1230.59,-89.07 1237.6,-81.13 1227.17,-82.96 1230.59,-89.07"/>
</g>
<!-- Node16 -->
<g id="node16" class="node">
<title>Node16</title>
<g id="a_node16"><a xlink:title=" ">
<polygon fill="white" stroke="#bfbfbf" points="1081,-56.5 1081,-86.5 1193,-86.5 1193,-56.5 1081,-56.5"/>
<text text-anchor="start" x="1089" y="-74.5" font-family="Helvetica,sans-Serif" font-size="10.00">sml/graphics_wrapper</text>
<text text-anchor="middle" x="1137" y="-63.5" font-family="Helvetica,sans-Serif" font-size="10.00">/texture.h</text>
</a>
</g>
</g>
<!-- Node14&#45;&gt;Node16 -->
<g id="edge17" class="edge">
<title>Node14&#45;&gt;Node16</title>
<path fill="none" stroke="midnightblue" d="M1137,-128.73C1137,-120.54 1137,-107.92 1137,-96.71"/>
<polygon fill="midnightblue" stroke="midnightblue" points="1140.5,-96.59 1137,-86.59 1133.5,-96.59 1140.5,-96.59"/>
</g>
<!-- Node17&#45;&gt;Node16 -->
<g id="edge19" class="edge">
<title>Node17&#45;&gt;Node16</title>
<path fill="none" stroke="midnightblue" d="M1043.57,-128.73C1059.21,-119.32 1084.58,-104.05 1104.93,-91.8"/>
<polygon fill="midnightblue" stroke="midnightblue" points="1106.83,-94.74 1113.59,-86.59 1103.22,-88.75 1106.83,-94.74"/>
</g>
<!-- Node19 -->
<g id="node19" class="node">
<title>Node19</title>
<g id="a_node19"><a xlink:title=" ">
<polygon fill="white" stroke="#bfbfbf" points="649,-246.5 649,-276.5 761,-276.5 761,-246.5 649,-246.5"/>
<text text-anchor="start" x="657" y="-264.5" font-family="Helvetica,sans-Serif" font-size="10.00">sml/graphics_wrapper</text>
<text text-anchor="middle" x="705" y="-253.5" font-family="Helvetica,sans-Serif" font-size="10.00">/text.h</text>
</a>
</g>
</g>
<!-- Node18&#45;&gt;Node19 -->
<g id="edge21" class="edge">
<title>Node18&#45;&gt;Node19</title>
<path fill="none" stroke="midnightblue" d="M675.01,-313.48C679.36,-306.09 685.84,-295.08 691.66,-285.17"/>
<polygon fill="midnightblue" stroke="midnightblue" points="694.7,-286.92 696.75,-276.52 688.66,-283.37 694.7,-286.92"/>
</g>
<!-- Node20 -->
<g id="node20" class="node">
<title>Node20</title>
<g id="a_node20"><a xlink:href="shape_8h.html" target="_top" xlink:title=" ">
<polygon fill="white" stroke="black" points="579.5,-252 579.5,-271 630.5,-271 630.5,-252 579.5,-252"/>
<text text-anchor="middle" x="605" y="-259" font-family="Helvetica,sans-Serif" font-size="10.00">shape.h</text>
</a>
</g>
</g>
<!-- Node18&#45;&gt;Node20 -->
<g id="edge22" class="edge">
<title>Node18&#45;&gt;Node20</title>
<path fill="none" stroke="midnightblue" d="M660.69,-313.48C650.55,-304.2 634.14,-289.17 621.75,-277.83"/>
<polygon fill="midnightblue" stroke="midnightblue" points="624.04,-275.18 614.3,-271.01 619.31,-280.34 624.04,-275.18"/>
</g>
<!-- Node20&#45;&gt;Node5 -->
<g id="edge23" class="edge">
<title>Node20&#45;&gt;Node5</title>
<path fill="none" stroke="midnightblue" d="M620.47,-251.98C638.28,-242.17 667.74,-225.93 688.63,-214.42"/>
<polygon fill="midnightblue" stroke="midnightblue" points="690.49,-217.4 697.55,-209.51 687.11,-211.27 690.49,-217.4"/>
</g>
<!-- Node20&#45;&gt;Node21 -->
<g id="edge24" class="edge">
<title>Node20&#45;&gt;Node21</title>
<path fill="none" stroke="midnightblue" d="M623.62,-251.91C628.84,-249.75 634.57,-247.59 640,-246 700.54,-228.26 771.45,-216.32 822.43,-209.23"/>
<polygon fill="midnightblue" stroke="midnightblue" points="822.92,-212.7 832.36,-207.88 821.97,-205.76 822.92,-212.7"/>
</g>
<!-- Node20&#45;&gt;Node25 -->
<g id="edge33" class="edge">
<title>Node20&#45;&gt;Node25</title>
<path fill="none" stroke="midnightblue" d="M585.94,-251.98C563.53,-241.95 526.09,-225.2 500.29,-213.65"/>
<polygon fill="midnightblue" stroke="midnightblue" points="501.58,-210.4 491.02,-209.51 498.72,-216.79 501.58,-210.4"/>
</g>
<!-- Node21&#45;&gt;Node8 -->
<g id="edge25" class="edge">
<title>Node21&#45;&gt;Node8</title>
<path fill="none" stroke="midnightblue" d="M893.89,-190.31C900.66,-169.9 917.69,-118.6 926.89,-90.91"/>
<polygon fill="midnightblue" stroke="midnightblue" points="930.26,-91.85 930.09,-81.26 923.62,-89.64 930.26,-91.85"/>
</g>
<!-- Node21&#45;&gt;Node17 -->
<g id="edge32" class="edge">
<title>Node21&#45;&gt;Node17</title>
<path fill="none" stroke="midnightblue" d="M910.77,-190.48C934.14,-180.4 973.21,-163.55 1000,-152"/>
<polygon fill="midnightblue" stroke="midnightblue" points="1001.47,-155.18 1009.26,-148.01 998.7,-148.75 1001.47,-155.18"/>
</g>
<!-- Node22 -->
<g id="node22" class="node">
<title>Node22</title>
<g id="a_node22"><a xlink:title=" ">
<polygon fill="white" stroke="#bfbfbf" points="488,-62 488,-81 596,-81 596,-62 488,-62"/>
<text text-anchor="middle" x="542" y="-69" font-family="Helvetica,sans-Serif" font-size="10.00">sml/math/rectangle.h</text>
</a>
</g>
</g>
<!-- Node21&#45;&gt;Node22 -->
<g id="edge26" class="edge">
<title>Node21&#45;&gt;Node22</title>
<path fill="none" stroke="midnightblue" d="M858.1,-190.48C832.09,-182.97 795.41,-170.64 766,-154 747.03,-143.27 747.39,-132.96 728,-123 704.22,-110.78 637.67,-94.14 591,-83.36"/>
<polygon fill="midnightblue" stroke="midnightblue" points="591.6,-79.91 581.08,-81.09 590.04,-86.73 591.6,-79.91"/>
</g>
<!-- Node23 -->
<g id="node23" class="node">
<title>Node23</title>
<g id="a_node23"><a xlink:href="fill_8h.html" target="_top" xlink:title=" ">
<polygon fill="white" stroke="black" points="931.5,-129 931.5,-148 966.5,-148 966.5,-129 931.5,-129"/>
<text text-anchor="middle" x="949" y="-136" font-family="Helvetica,sans-Serif" font-size="10.00">fill.h</text>
</a>
</g>
</g>
<!-- Node21&#45;&gt;Node23 -->
<g id="edge27" class="edge">
<title>Node21&#45;&gt;Node23</title>
<path fill="none" stroke="midnightblue" d="M899.31,-190.48C908.18,-181.37 922.45,-166.74 933.42,-155.48"/>
<polygon fill="midnightblue" stroke="midnightblue" points="936.23,-157.61 940.71,-148.01 931.22,-152.73 936.23,-157.61"/>
</g>
<!-- Node23&#45;&gt;Node8 -->
<g id="edge28" class="edge">
<title>Node23&#45;&gt;Node8</title>
<path fill="none" stroke="midnightblue" d="M946.84,-128.73C944.47,-119.09 940.58,-103.3 937.53,-90.91"/>
<polygon fill="midnightblue" stroke="midnightblue" points="940.91,-90 935.12,-81.13 934.12,-91.67 940.91,-90"/>
</g>
<!-- Node23&#45;&gt;Node16 -->
<g id="edge31" class="edge">
<title>Node23&#45;&gt;Node16</title>
<path fill="none" stroke="midnightblue" d="M963.89,-128.86C967.76,-126.79 971.98,-124.69 976,-123 1007.41,-109.78 1043.53,-98.14 1073.58,-89.38"/>
<polygon fill="midnightblue" stroke="midnightblue" points="1074.88,-92.65 1083.53,-86.53 1072.95,-85.92 1074.88,-92.65"/>
</g>
<!-- Node23&#45;&gt;Node22 -->
<g id="edge30" class="edge">
<title>Node23&#45;&gt;Node22</title>
<path fill="none" stroke="midnightblue" d="M931.41,-133.21C918.38,-130.12 900.14,-125.99 884,-123 857.3,-118.06 697.45,-94.87 606.04,-81.7"/>
<polygon fill="midnightblue" stroke="midnightblue" points="606.45,-78.22 596.06,-80.26 605.46,-85.15 606.45,-78.22"/>
</g>
<!-- Node24 -->
<g id="node24" class="node">
<title>Node24</title>
<g id="a_node24"><a xlink:title=" ">
<polygon fill="white" stroke="#bfbfbf" points="973.5,-62 973.5,-81 1062.5,-81 1062.5,-62 973.5,-62"/>
<text text-anchor="middle" x="1018" y="-69" font-family="Helvetica,sans-Serif" font-size="10.00">sml/math/vec2.h</text>
</a>
</g>
</g>
<!-- Node23&#45;&gt;Node24 -->
<g id="edge29" class="edge">
<title>Node23&#45;&gt;Node24</title>
<path fill="none" stroke="midnightblue" d="M958.31,-128.73C969.27,-118.4 987.71,-101.04 1001.19,-88.33"/>
<polygon fill="midnightblue" stroke="midnightblue" points="1003.96,-90.53 1008.84,-81.13 999.16,-85.44 1003.96,-90.53"/>
</g>
<!-- Node25&#45;&gt;Node22 -->
<g id="edge35" class="edge">
<title>Node25&#45;&gt;Node22</title>
<path fill="none" stroke="midnightblue" d="M476.81,-190.31C488.2,-169.72 516.99,-117.69 532.22,-90.18"/>
<polygon fill="midnightblue" stroke="midnightblue" points="535.38,-91.7 537.15,-81.26 529.25,-88.31 535.38,-91.7"/>
</g>
<!-- Node26 -->
<g id="node26" class="node">
<title>Node26</title>
<g id="a_node26"><a xlink:title=" ">
<polygon fill="white" stroke="#bfbfbf" points="373,-123.5 373,-153.5 485,-153.5 485,-123.5 373,-123.5"/>
<text text-anchor="start" x="381" y="-141.5" font-family="Helvetica,sans-Serif" font-size="10.00">sml/graphics_wrapper</text>
<text text-anchor="middle" x="429" y="-130.5" font-family="Helvetica,sans-Serif" font-size="10.00">/color.h</text>
</a>
</g>
</g>
<!-- Node25&#45;&gt;Node26 -->
<g id="edge34" class="edge">
<title>Node25&#45;&gt;Node26</title>
<path fill="none" stroke="midnightblue" d="M465.84,-190.48C460.45,-183.02 452.38,-171.85 445.17,-161.87"/>
<polygon fill="midnightblue" stroke="midnightblue" points="447.83,-159.58 439.13,-153.52 442.15,-163.68 447.83,-159.58"/>
</g>
<!-- Node25&#45;&gt;Node27 -->
<g id="edge36" class="edge">
<title>Node25&#45;&gt;Node27</title>
<path fill="none" stroke="midnightblue" d="M446.07,-190.48C414.66,-180.15 361.61,-162.71 326.45,-151.15"/>
<polygon fill="midnightblue" stroke="midnightblue" points="327.19,-147.71 316.59,-147.91 325,-154.36 327.19,-147.71"/>
</g>
<!-- Node28 -->
<g id="node28" class="node">
<title>Node28</title>
<g id="a_node28"><a xlink:title=" ">
<polygon fill="white" stroke="#bfbfbf" points="266.5,-62 266.5,-81 315.5,-81 315.5,-62 266.5,-62"/>
<text text-anchor="middle" x="291" y="-69" font-family="Helvetica,sans-Serif" font-size="10.00">stdint.h</text>
</a>
</g>
</g>
<!-- Node27&#45;&gt;Node28 -->
<g id="edge37" class="edge">
<title>Node27&#45;&gt;Node28</title>
<path fill="none" stroke="midnightblue" d="M291,-128.73C291,-119.18 291,-103.62 291,-91.28"/>
<polygon fill="midnightblue" stroke="midnightblue" points="294.5,-91.13 291,-81.13 287.5,-91.13 294.5,-91.13"/>
</g>
<!-- Node29&#45;&gt;Node20 -->
<g id="edge40" class="edge">
<title>Node29&#45;&gt;Node20</title>
<path fill="none" stroke="midnightblue" d="M562.16,-313.48C569.74,-304.46 581.87,-290.02 591.29,-278.81"/>
<polygon fill="midnightblue" stroke="midnightblue" points="594.1,-280.92 597.85,-271.01 588.74,-276.41 594.1,-280.92"/>
</g>
<!-- Node29&#45;&gt;Node22 -->
<g id="edge39" class="edge">
<title>Node29&#45;&gt;Node22</title>
<path fill="none" stroke="midnightblue" d="M554.55,-313.41C552.7,-277.8 545.58,-141.25 542.97,-91.11"/>
<polygon fill="midnightblue" stroke="midnightblue" points="546.46,-90.86 542.45,-81.05 539.47,-91.22 546.46,-90.86"/>
</g>
<!-- Node30&#45;&gt;Node27 -->
<g id="edge47" class="edge">
<title>Node30&#45;&gt;Node27</title>
<path fill="none" stroke="midnightblue" d="M200.92,-313.26C189.65,-305.35 174.65,-292.58 168,-277 162.59,-264.33 162.27,-258.53 168,-246 187.81,-202.65 234.94,-170.18 264.77,-153.08"/>
<polygon fill="midnightblue" stroke="midnightblue" points="266.75,-155.98 273.79,-148.07 263.35,-149.86 266.75,-155.98"/>
</g>
<!-- Node31 -->
<g id="node31" class="node">
<title>Node31</title>
<g id="a_node31"><a xlink:title=" ">
<polygon fill="white" stroke="#bfbfbf" points="177,-246.5 177,-276.5 289,-276.5 289,-246.5 177,-246.5"/>
<text text-anchor="start" x="185" y="-264.5" font-family="Helvetica,sans-Serif" font-size="10.00">sml/graphics_wrapper</text>
<text text-anchor="middle" x="233" y="-253.5" font-family="Helvetica,sans-Serif" font-size="10.00">/renderer.h</text>
</a>
</g>
</g>
<!-- Node30&#45;&gt;Node31 -->
<g id="edge46" class="edge">
<title>Node30&#45;&gt;Node31</title>
<path fill="none" stroke="midnightblue" d="M217.58,-313.48C219.72,-306.4 222.87,-295.97 225.77,-286.39"/>
<polygon fill="midnightblue" stroke="midnightblue" points="229.21,-287.11 228.76,-276.52 222.51,-285.08 229.21,-287.11"/>
</g>
<!-- Node33 -->
<g id="node33" class="node">
<title>Node33</title>
<g id="a_node33"><a xlink:title=" ">
<polygon fill="white" stroke="#bfbfbf" points="92.5,-313.5 92.5,-332.5 175.5,-332.5 175.5,-313.5 92.5,-313.5"/>
<text text-anchor="middle" x="134" y="-320.5" font-family="Helvetica,sans-Serif" font-size="10.00">unordered_map</text>
</a>
</g>
</g>
<!-- Node32&#45;&gt;Node33 -->
<g id="edge49" class="edge">
<title>Node32&#45;&gt;Node33</title>
<path fill="none" stroke="midnightblue" d="M134,-369.4C134,-361.47 134,-351.46 134,-342.86"/>
<polygon fill="midnightblue" stroke="midnightblue" points="137.5,-342.66 134,-332.66 130.5,-342.66 137.5,-342.66"/>
</g>
<!-- Node34 -->
<g id="node34" class="node">
<title>Node34</title>
<g id="a_node34"><a xlink:href="container_8h.html" target="_top" xlink:title=" ">
<polygon fill="white" stroke="black" points="255,-313.5 255,-332.5 319,-332.5 319,-313.5 255,-313.5"/>
<text text-anchor="middle" x="287" y="-320.5" font-family="Helvetica,sans-Serif" font-size="10.00">container.h</text>
</a>
</g>
</g>
<!-- Node32&#45;&gt;Node34 -->
<g id="edge50" class="edge">
<title>Node32&#45;&gt;Node34</title>
<path fill="none" stroke="midnightblue" d="M170.26,-369.4C196.04,-359.37 230.36,-346.03 255.1,-336.4"/>
<polygon fill="midnightblue" stroke="midnightblue" points="256.69,-339.54 264.74,-332.66 254.15,-333.02 256.69,-339.54"/>
</g>
<!-- Node36 -->
<g id="node36" class="node">
<title>Node36</title>
<g id="a_node36"><a xlink:title=" ">
<polygon fill="white" stroke="#bfbfbf" points="0,-313.5 0,-332.5 74,-332.5 74,-313.5 0,-313.5"/>
<text text-anchor="middle" x="37" y="-320.5" font-family="Helvetica,sans-Serif" font-size="10.00">sys/syscall.h</text>
</a>
</g>
</g>
<!-- Node32&#45;&gt;Node36 -->
<g id="edge56" class="edge">
<title>Node32&#45;&gt;Node36</title>
<path fill="none" stroke="midnightblue" d="M111.01,-369.4C95.61,-359.95 75.41,-347.56 60,-338.11"/>
<polygon fill="midnightblue" stroke="midnightblue" points="61.47,-334.9 51.11,-332.66 57.81,-340.87 61.47,-334.9"/>
</g>
<!-- Node35 -->
<g id="node35" class="node">
<title>Node35</title>
<g id="a_node35"><a xlink:href="parent_8h.html" target="_top" xlink:title=" ">
<polygon fill="white" stroke="black" points="345.5,-252 345.5,-271 406.5,-271 406.5,-252 345.5,-252"/>
<text text-anchor="middle" x="376" y="-259" font-family="Helvetica,sans-Serif" font-size="10.00">../parent.h</text>
</a>
</g>
</g>
<!-- Node34&#45;&gt;Node35 -->
<g id="edge51" class="edge">
<title>Node34&#45;&gt;Node35</title>
<path fill="none" stroke="midnightblue" d="M299.75,-313.48C314.03,-303.93 337.4,-288.31 354.51,-276.87"/>
<polygon fill="midnightblue" stroke="midnightblue" points="356.9,-279.48 363.27,-271.01 353.01,-273.66 356.9,-279.48"/>
</g>
<!-- Node35&#45;&gt;Node5 -->
<g id="edge52" class="edge">
<title>Node35&#45;&gt;Node5</title>
<path fill="none" stroke="midnightblue" d="M406.5,-255.11C465.65,-244.67 596.26,-221.61 666.36,-209.23"/>
<polygon fill="midnightblue" stroke="midnightblue" points="667.01,-212.67 676.25,-207.49 665.8,-205.78 667.01,-212.67"/>
</g>
<!-- Node35&#45;&gt;Node21 -->
<g id="edge55" class="edge">
<title>Node35&#45;&gt;Node21</title>
<path fill="none" stroke="midnightblue" d="M406.67,-256.96C487.7,-247.59 709,-222.03 822.25,-208.94"/>
<polygon fill="midnightblue" stroke="midnightblue" points="822.67,-212.42 832.2,-207.79 821.87,-205.46 822.67,-212.42"/>
</g>
<!-- Node35&#45;&gt;Node25 -->
<g id="edge54" class="edge">
<title>Node35&#45;&gt;Node25</title>
<path fill="none" stroke="midnightblue" d="M389.75,-251.98C405.37,-242.3 431.06,-226.37 449.58,-214.89"/>
<polygon fill="midnightblue" stroke="midnightblue" points="451.62,-217.75 458.27,-209.51 447.93,-211.8 451.62,-217.75"/>
</g>
<!-- Node35&#45;&gt;Node27 -->
<g id="edge53" class="edge">
<title>Node35&#45;&gt;Node27</title>
<path fill="none" stroke="midnightblue" d="M370.74,-251.63C362.61,-238.08 346.33,-211.52 331,-190 322.75,-178.42 312.84,-165.89 304.94,-156.21"/>
<polygon fill="midnightblue" stroke="midnightblue" points="307.42,-153.72 298.36,-148.23 302.02,-158.17 307.42,-153.72"/>
</g>
<!-- Node37&#45;&gt;Node2 -->
<g id="edge61" class="edge">
<title>Node37&#45;&gt;Node2</title>
<path fill="none" stroke="midnightblue" d="M490.11,-441.73C500.54,-432.7 517.18,-418.27 531,-406.3"/>
<polygon fill="midnightblue" stroke="midnightblue" points="533.48,-408.78 538.74,-399.59 528.89,-403.49 533.48,-408.78"/>
</g>
<!-- Node38 -->
<g id="node38" class="node">
<title>Node38</title>
<g id="a_node38"><a xlink:href="control_8h.html" target="_top" xlink:title=" ">
<polygon fill="white" stroke="black" points="318,-375 318,-394 372,-394 372,-375 318,-375"/>
<text text-anchor="middle" x="345" y="-382" font-family="Helvetica,sans-Serif" font-size="10.00">control.h</text>
</a>
</g>
</g>
<!-- Node37&#45;&gt;Node38 -->
<g id="edge58" class="edge">
<title>Node37&#45;&gt;Node38</title>
<path fill="none" stroke="midnightblue" d="M462.07,-441.87C439.08,-430.8 398.97,-411.49 372.2,-398.6"/>
<polygon fill="midnightblue" stroke="midnightblue" points="373.53,-395.35 363,-394.17 370.49,-401.66 373.53,-395.35"/>
</g>
<!-- Node38&#45;&gt;Node30 -->
<g id="edge60" class="edge">
<title>Node38&#45;&gt;Node30</title>
<path fill="none" stroke="midnightblue" d="M326.37,-374.98C304.56,-364.99 268.2,-348.35 242.98,-336.81"/>
<polygon fill="midnightblue" stroke="midnightblue" points="244.14,-333.49 233.59,-332.51 241.23,-339.85 244.14,-333.49"/>
</g>
<!-- Node38&#45;&gt;Node35 -->
<g id="edge59" class="edge">
<title>Node38&#45;&gt;Node35</title>
<path fill="none" stroke="midnightblue" d="M347.23,-374.8C352.23,-355.26 364.45,-307.56 371.25,-281.05"/>
<polygon fill="midnightblue" stroke="midnightblue" points="374.7,-281.68 373.79,-271.12 367.92,-279.94 374.7,-281.68"/>
</g>
<!-- Node39&#45;&gt;Node38 -->
<g id="edge63" class="edge">
<title>Node39&#45;&gt;Node38</title>
<path fill="none" stroke="midnightblue" d="M345,-441.73C345,-432.18 345,-416.62 345,-404.28"/>
<polygon fill="midnightblue" stroke="midnightblue" points="348.5,-404.13 345,-394.13 341.5,-404.13 348.5,-404.13"/>
</g>
<!-- Node40&#45;&gt;Node38 -->
<g id="edge65" class="edge">
<title>Node40&#45;&gt;Node38</title>
<path fill="none" stroke="midnightblue" d="M243.99,-436.4C266.33,-425.14 297.37,-409.5 319.13,-398.54"/>
<polygon fill="midnightblue" stroke="midnightblue" points="320.76,-401.63 328.12,-394.01 317.61,-395.38 320.76,-401.63"/>
</g>
</g>
</svg>
        <g id="navigator" transform="translate(0 0)" fill="#404254">
                <rect fill="#f2f5e9" fill-opacity="0.5" stroke="#606060" stroke-width=".5" x="0" y="0" width="60" height="60"/>
                <use id="zoomplus" xlink:href="#zoomPlus" x="17" y="9" onmousedown="handleZoom(evt,'in')"/>
                <use id="zoomminus" xlink:href="#zoomMin" x="42" y="9" onmousedown="handleZoom(evt,'out')"/>
                <use id="reset" xlink:href="#resetDef" x="30" y="36" onmousedown="handleReset()"/>
                <g id="arrowUp" xlink:href="#dirArrow" transform="translate(30 24)" onmousedown="handlePan(0,-1)">
                  <use xlink:href="#rim" fill="#404040">
                        <set attributeName="fill" to="#808080" begin="arrowUp.mouseover" end="arrowUp.mouseout"/>
                  </use>
                  <path fill="none" stroke="white" stroke-width="1.5" d="M0,-3.0v7 M-2.5,-0.5L0,-3.0L2.5,-0.5"/>
                </g>
                <g id="arrowRight" xlink:href="#dirArrow" transform="rotate(90) translate(36 -43)" onmousedown="handlePan(1,0)">
                  <use xlink:href="#rim" fill="#404040">
                        <set attributeName="fill" to="#808080" begin="arrowRight.mouseover" end="arrowRight.mouseout"/>
                  </use>
                  <path fill="none" stroke="white" stroke-width="1.5" d="M0,-3.0v7 M-2.5,-0.5L0,-3.0L2.5,-0.5"/>
                </g>
                <g id="arrowDown" xlink:href="#dirArrow" transform="rotate(180) translate(-30 -48)" onmousedown="handlePan(0,1)">
                  <use xlink:href="#rim" fill="#404040">
                        <set attributeName="fill" to="#808080" begin="arrowDown.mouseover" end="arrowDown.mouseout"/>
                  </use>
                  <path fill="none" stroke="white" stroke-width="1.5" d="M0,-3.0v7 M-2.5,-0.5L0,-3.0L2.5,-0.5"/>
                </g>
                <g id="arrowLeft" xlink:href="#dirArrow" transform="rotate(270) translate(-36 17)" onmousedown="handlePan(-1,0)">
                  <use xlink:href="#rim" fill="#404040">
                        <set attributeName="fill" to="#808080" begin="arrowLeft.mouseover" end="arrowLeft.mouseout"/>
                  </use>
                  <path fill="none" stroke="white" stroke-width="1.5" d="M0,-3.0v7 M-2.5,-0.5L0,-3.0L2.5,-0.5"/>
                </g>
        </g>
        <svg viewBox="0 0 15 15" width="100%" height="30px" preserveAspectRatio="xMaxYMin meet">
         <g id="arrow_out" transform="scale(0.3 0.3)">
          <a xlink:href="default__skins_8cpp__incl_org.svg" target="_base">
           <rect id="button" ry="5" rx="5" y="6" x="6" height="38" width="38"
                fill="#f2f5e9" fill-opacity="0.5" stroke="#606060" stroke-width="1.0"/>
           <path id="arrow"
             d="M 11.500037,31.436501 C 11.940474,20.09759 22.043105,11.32322 32.158766,21.979434 L 37.068811,17.246167 C 37.068811,17.246167 37.088388,32 37.088388,32 L 22.160133,31.978069 C 22.160133,31.978069 26.997745,27.140456 26.997745,27.140456 C 18.528582,18.264221 13.291696,25.230495 11.500037,31.436501 z"
             style="fill:#404040;"/>
          </a>
         </g>
        </svg>
</svg>
