<?xml version="1.0" encoding="UTF-8" standalone="no"?>
<!DOCTYPE svg PUBLIC "-//W3C//DTD SVG 1.1//EN"
 "http://www.w3.org/Graphics/SVG/1.1/DTD/svg11.dtd">
<!-- Generated by graphviz version 2.50.0 (20211204.2007)
 -->
<!-- Title: default_skins.cpp Pages: 1 -->
<!--zoomable 476 -->
<svg id="main" version="1.1" xmlns="http://www.w3.org/2000/svg" xmlns:xlink="http://www.w3.org/1999/xlink" xml:space="preserve" onload="init(evt)">
<style type="text/css"><![CDATA[
.edge:hover path { stroke: red; }
.edge:hover polygon { stroke: red; fill: red; }
]]></style>
<script type="text/javascript"><![CDATA[
var edges = document.getElementsByTagName('g');
if (edges && edges.length) {
  for (var i=0;i<edges.length;i++) {
    if (edges[i].id.substr(0,4)=='edge') {
      edges[i].setAttribute('class','edge');
    }
  }
}
]]></script>
        <defs>
                <circle id="rim" cx="0" cy="0" r="7"/>
                <circle id="rim2" cx="0" cy="0" r="3.5"/>
                <g id="zoomPlus">
                        <use xlink:href="#rim" fill="#404040">
                                <set attributeName="fill" to="#808080" begin="zoomplus.mouseover" end="zoomplus.mouseout"/>
                        </use>
                        <path d="M-4,0h8M0,-4v8" fill="none" stroke="white" stroke-width="1.5" pointer-events="none"/>
                </g>
                <g id="zoomMin">
                        <use xlink:href="#rim" fill="#404040">
                                <set attributeName="fill" to="#808080" begin="zoomminus.mouseover" end="zoomminus.mouseout"/>
                        </use>
                        <path d="M-4,0h8" fill="none" stroke="white" stroke-width="1.5" pointer-events="none"/>
                </g>
                <g id="dirArrow">
                        <path fill="none" stroke="white" stroke-width="1.5" d="M0,-3.0v7 M-2.5,-0.5L0,-3.0L2.5,-0.5"/>
                </g>
               <g id="resetDef">
                       <use xlink:href="#rim2" fill="#404040">
                               <set attributeName="fill" to="#808080" begin="reset.mouseover" end="reset.mouseout"/>
                       </use>
               </g>
        </defs>

<script type="text/javascript">
var viewWidth = 1458;
var viewHeight = 476;
var sectionId = 'dynsection-0';
</script>
<script xlink:href="svgpan.js"/>
<svg id="graph" class="graph">
<g id="viewport">
<title>default_skins.cpp</title>
<polygon fill="white" stroke="transparent" points="-4,4 -4,-472 1453.5,-472 1453.5,4 -4,4"/>
<!-- Node1 -->
<g id="node1" class="node">
<title>Node1</title>
<g id="a_node1"><a xlink:title=" ">
<polygon fill="#bfbfbf" stroke="black" points="382.5,-448.5 382.5,-467.5 475.5,-467.5 475.5,-448.5 382.5,-448.5"/>
<text text-anchor="middle" x="429" y="-455.5" font-family="Helvetica,sans-Serif" font-size="10.00">default_skins.cpp</text>
</a>
</g>
</g>
<!-- Node2 -->
<g id="node2" class="node">
<title>Node2</title>
<g id="a_node2"><a xlink:href="default__skins_8h.html" target="_top" xlink:title=" ">
<polygon fill="white" stroke="black" points="569,-336.5 569,-355.5 705,-355.5 705,-336.5 569,-336.5"/>
<text text-anchor="middle" x="637" y="-343.5" font-family="Helvetica,sans-Serif" font-size="10.00">scene/style/default_skins.h</text>
</a>
</g>
</g>
<!-- Node1&#45;&gt;Node2 -->
<g id="edge1" class="edge">
<title>Node1&#45;&gt;Node2</title>
<path fill="none" stroke="midnightblue" d="M475.64,-456.39C546.5,-454.37 676.11,-445.98 705,-412 721.51,-392.58 692.62,-372.68 667.55,-360.11"/>
<polygon fill="midnightblue" stroke="midnightblue" points="668.76,-356.81 658.23,-355.66 665.74,-363.12 668.76,-356.81"/>
</g>
<!-- Node32 -->
<g id="node32" class="node">
<title>Node32</title>
<g id="a_node32"><a xlink:href="box__container_8h.html" target="_top" xlink:title=" ">
<polygon fill="white" stroke="black" points="43,-336.5 43,-355.5 205,-355.5 205,-336.5 43,-336.5"/>
<text text-anchor="middle" x="124" y="-343.5" font-family="Helvetica,sans-Serif" font-size="10.00">scene/containers/box_container.h</text>
</a>
</g>
</g>
<!-- Node1&#45;&gt;Node32 -->
<g id="edge48" class="edge">
<title>Node1&#45;&gt;Node32</title>
<path fill="none" stroke="midnightblue" d="M382.43,-457.14C305.72,-456.27 157.97,-449.62 125,-412 114.09,-399.55 115.35,-380.04 118.42,-365.64"/>
<polygon fill="midnightblue" stroke="midnightblue" points="121.84,-366.38 120.94,-355.83 115.06,-364.64 121.84,-366.38"/>
</g>
<!-- Node37 -->
<g id="node37" class="node">
<title>Node37</title>
<g id="a_node37"><a xlink:href="button_8h.html" target="_top" xlink:title=" ">
<polygon fill="white" stroke="black" points="577.5,-392.5 577.5,-411.5 696.5,-411.5 696.5,-392.5 577.5,-392.5"/>
<text text-anchor="middle" x="637" y="-399.5" font-family="Helvetica,sans-Serif" font-size="10.00">scene/controls/button.h</text>
</a>
</g>
</g>
<!-- Node1&#45;&gt;Node37 -->
<g id="edge57" class="edge">
<title>Node1&#45;&gt;Node37</title>
<path fill="none" stroke="midnightblue" d="M461.96,-448.44C497.79,-439.14 555.16,-424.25 594.39,-414.06"/>
<polygon fill="midnightblue" stroke="midnightblue" points="595.4,-417.42 604.2,-411.52 593.64,-410.64 595.4,-417.42"/>
</g>
<!-- Node39 -->
<g id="node39" class="node">
<title>Node39</title>
<g id="a_node39"><a xlink:href="slider_8h.html" target="_top" xlink:title=" ">
<polygon fill="white" stroke="black" points="445,-392.5 445,-411.5 559,-411.5 559,-392.5 445,-392.5"/>
<text text-anchor="middle" x="502" y="-399.5" font-family="Helvetica,sans-Serif" font-size="10.00">scene/controls/slider.h</text>
</a>
</g>
</g>
<!-- Node1&#45;&gt;Node39 -->
<g id="edge62" class="edge">
<title>Node1&#45;&gt;Node39</title>
<path fill="none" stroke="midnightblue" d="M440.73,-448.32C451.84,-440.11 468.74,-427.6 481.98,-417.81"/>
<polygon fill="midnightblue" stroke="midnightblue" points="484.1,-420.59 490.06,-411.83 479.94,-414.97 484.1,-420.59"/>
</g>
<!-- Node40 -->
<g id="node40" class="node">
<title>Node40</title>
<g id="a_node40"><a xlink:href="scroll__bar_8h.html" target="_top" xlink:title=" ">
<polygon fill="white" stroke="black" points="134.5,-392.5 134.5,-411.5 267.5,-411.5 267.5,-392.5 134.5,-392.5"/>
<text text-anchor="middle" x="201" y="-399.5" font-family="Helvetica,sans-Serif" font-size="10.00">scene/controls/scroll_bar.h</text>
</a>
</g>
</g>
<!-- Node1&#45;&gt;Node40 -->
<g id="edge64" class="edge">
<title>Node1&#45;&gt;Node40</title>
<path fill="none" stroke="midnightblue" d="M392.87,-448.44C353.35,-439.08 289.9,-424.06 246.89,-413.87"/>
<polygon fill="midnightblue" stroke="midnightblue" points="247.5,-410.42 236.96,-411.52 245.88,-417.23 247.5,-410.42"/>
</g>
<!-- Node41 -->
<g id="node41" class="node">
<title>Node41</title>
<g id="a_node41"><a xlink:href="scroll__pane_8h.html" target="_top" xlink:title=" ">
<polygon fill="white" stroke="black" points="285.5,-392.5 285.5,-411.5 426.5,-411.5 426.5,-392.5 285.5,-392.5"/>
<text text-anchor="middle" x="356" y="-399.5" font-family="Helvetica,sans-Serif" font-size="10.00">scene/controls/scroll_pane.h</text>
</a>
</g>
</g>
<!-- Node1&#45;&gt;Node41 -->
<g id="edge66" class="edge">
<title>Node1&#45;&gt;Node41</title>
<path fill="none" stroke="midnightblue" d="M417.27,-448.32C406.16,-440.11 389.26,-427.6 376.02,-417.81"/>
<polygon fill="midnightblue" stroke="midnightblue" points="378.06,-414.97 367.94,-411.83 373.9,-420.59 378.06,-414.97"/>
</g>
<!-- Node3 -->
<g id="node3" class="node">
<title>Node3</title>
<g id="a_node3"><a xlink:title=" ">
<polygon fill="white" stroke="#bfbfbf" points="406.5,-56.5 406.5,-75.5 547.5,-75.5 547.5,-56.5 406.5,-56.5"/>
<text text-anchor="middle" x="477" y="-63.5" font-family="Helvetica,sans-Serif" font-size="10.00">sml/events/listener_notifier.h</text>
</a>
</g>
</g>
<!-- Node2&#45;&gt;Node3 -->
<g id="edge2" class="edge">
<title>Node2&#45;&gt;Node3</title>
<path fill="none" stroke="midnightblue" d="M619.08,-336.43C603,-328.29 579.19,-315.06 561,-300 556.21,-296.03 415.2,-137.82 413,-132 409.86,-123.68 408.9,-119.89 413,-112 420.15,-98.23 433.67,-87.78 446.45,-80.44"/>
<polygon fill="midnightblue" stroke="midnightblue" points="448.32,-83.41 455.52,-75.64 445.04,-77.23 448.32,-83.41"/>
</g>
<!-- Node4 -->
<g id="node4" class="node">
<title>Node4</title>
<g id="a_node4"><a xlink:href="image__view_8h.html" target="_top" xlink:title=" ">
<polygon fill="white" stroke="black" points="888,-224.5 888,-243.5 972,-243.5 972,-224.5 888,-224.5"/>
<text text-anchor="middle" x="930" y="-231.5" font-family="Helvetica,sans-Serif" font-size="10.00">../image_view.h</text>
</a>
</g>
</g>
<!-- Node2&#45;&gt;Node4 -->
<g id="edge3" class="edge">
<title>Node2&#45;&gt;Node4</title>
<path fill="none" stroke="midnightblue" d="M678.27,-336.46C712.55,-328.76 762.28,-316.17 804,-300 841.45,-285.49 882.34,-263.07 907.08,-248.72"/>
<polygon fill="midnightblue" stroke="midnightblue" points="908.87,-251.73 915.73,-243.65 905.33,-245.69 908.87,-251.73"/>
</g>
<!-- Node14 -->
<g id="node14" class="node">
<title>Node14</title>
<g id="a_node14"><a xlink:href="shadow_8h.html" target="_top" xlink:title=" ">
<polygon fill="white" stroke="black" points="1237,-112.5 1237,-131.5 1327,-131.5 1327,-112.5 1237,-112.5"/>
<text text-anchor="middle" x="1282" y="-119.5" font-family="Helvetica,sans-Serif" font-size="10.00">../paint/shadow.h</text>
</a>
</g>
</g>
<!-- Node2&#45;&gt;Node14 -->
<g id="edge44" class="edge">
<title>Node2&#45;&gt;Node14</title>
<path fill="none" stroke="midnightblue" d="M705.17,-340.74C765.88,-335.52 856.51,-324.17 932,-300 1063.84,-257.8 1207,-171 1260.37,-137.05"/>
<polygon fill="midnightblue" stroke="midnightblue" points="1262.45,-139.87 1268.99,-131.53 1258.68,-133.98 1262.45,-139.87"/>
</g>
<!-- Node18 -->
<g id="node18" class="node">
<title>Node18</title>
<g id="a_node18"><a xlink:href="text_8h.html" target="_top" xlink:title=" ">
<polygon fill="white" stroke="black" points="709.5,-280.5 709.5,-299.5 794.5,-299.5 794.5,-280.5 709.5,-280.5"/>
<text text-anchor="middle" x="752" y="-287.5" font-family="Helvetica,sans-Serif" font-size="10.00">../shapes/text.h</text>
</a>
</g>
</g>
<!-- Node2&#45;&gt;Node18 -->
<g id="edge20" class="edge">
<title>Node2&#45;&gt;Node18</title>
<path fill="none" stroke="midnightblue" d="M655.22,-336.44C673.9,-327.68 703.16,-313.94 724.62,-303.86"/>
<polygon fill="midnightblue" stroke="midnightblue" points="726.3,-306.93 733.86,-299.52 723.32,-300.6 726.3,-306.93"/>
</g>
<!-- Node21 -->
<g id="node21" class="node">
<title>Node21</title>
<g id="a_node21"><a xlink:href="background_8h.html" target="_top" xlink:title=" ">
<polygon fill="white" stroke="black" points="941.5,-168.5 941.5,-187.5 1058.5,-187.5 1058.5,-168.5 941.5,-168.5"/>
<text text-anchor="middle" x="1000" y="-175.5" font-family="Helvetica,sans-Serif" font-size="10.00">../../paint/background.h</text>
</a>
</g>
</g>
<!-- Node2&#45;&gt;Node21 -->
<g id="edge41" class="edge">
<title>Node2&#45;&gt;Node21</title>
<path fill="none" stroke="midnightblue" d="M705.31,-344.82C783.64,-340.71 910.3,-321.47 981,-244 992.51,-231.39 997.07,-212.18 998.87,-197.91"/>
<polygon fill="midnightblue" stroke="midnightblue" points="1002.37,-198.02 999.8,-187.74 995.4,-197.38 1002.37,-198.02"/>
</g>
<!-- Node25 -->
<g id="node25" class="node">
<title>Node25</title>
<g id="a_node25"><a xlink:href="border_8h.html" target="_top" xlink:title=" ">
<polygon fill="white" stroke="black" points="505.5,-168.5 505.5,-187.5 598.5,-187.5 598.5,-168.5 505.5,-168.5"/>
<text text-anchor="middle" x="552" y="-175.5" font-family="Helvetica,sans-Serif" font-size="10.00">../../paint/border.h</text>
</a>
</g>
</g>
<!-- Node2&#45;&gt;Node25 -->
<g id="edge42" class="edge">
<title>Node2&#45;&gt;Node25</title>
<path fill="none" stroke="midnightblue" d="M617.92,-336.39C603.52,-328.88 584.51,-316.57 574,-300 553.87,-268.26 551.02,-222.95 551.21,-197.75"/>
<polygon fill="midnightblue" stroke="midnightblue" points="554.71,-197.79 551.45,-187.7 547.71,-197.62 554.71,-197.79"/>
</g>
<!-- Node27 -->
<g id="node27" class="node">
<title>Node27</title>
<g id="a_node27"><a xlink:href="insets_8h.html" target="_top" xlink:title=" ">
<polygon fill="white" stroke="black" points="314.5,-112.5 314.5,-131.5 365.5,-131.5 365.5,-112.5 314.5,-112.5"/>
<text text-anchor="middle" x="340" y="-119.5" font-family="Helvetica,sans-Serif" font-size="10.00">insets.h</text>
</a>
</g>
</g>
<!-- Node2&#45;&gt;Node27 -->
<g id="edge43" class="edge">
<title>Node2&#45;&gt;Node27</title>
<path fill="none" stroke="midnightblue" d="M596.47,-336.49C547,-324.15 463.7,-296.75 413,-244 382.8,-212.58 359.37,-166.51 347.85,-141.24"/>
<polygon fill="midnightblue" stroke="midnightblue" points="350.91,-139.52 343.65,-131.79 344.51,-142.35 350.91,-139.52"/>
</g>
<!-- Node29 -->
<g id="node29" class="node">
<title>Node29</title>
<g id="a_node29"><a xlink:href="rectangle_8h.html" target="_top" xlink:title=" ">
<polygon fill="white" stroke="black" points="583,-280.5 583,-299.5 691,-299.5 691,-280.5 583,-280.5"/>
<text text-anchor="middle" x="637" y="-287.5" font-family="Helvetica,sans-Serif" font-size="10.00">../shapes/rectangle.h</text>
</a>
</g>
</g>
<!-- Node2&#45;&gt;Node29 -->
<g id="edge38" class="edge">
<title>Node2&#45;&gt;Node29</title>
<path fill="none" stroke="midnightblue" d="M637,-336.08C637,-329.01 637,-318.86 637,-309.99"/>
<polygon fill="midnightblue" stroke="midnightblue" points="640.5,-309.75 637,-299.75 633.5,-309.75 640.5,-309.75"/>
</g>
<!-- Node30 -->
<g id="node30" class="node">
<title>Node30</title>
<g id="a_node30"><a xlink:href="skin_8h.html" target="_top" xlink:title=" ">
<polygon fill="white" stroke="black" points="202.5,-280.5 202.5,-299.5 245.5,-299.5 245.5,-280.5 202.5,-280.5"/>
<text text-anchor="middle" x="224" y="-287.5" font-family="Helvetica,sans-Serif" font-size="10.00">skin.h</text>
</a>
</g>
</g>
<!-- Node2&#45;&gt;Node30 -->
<g id="edge45" class="edge">
<title>Node2&#45;&gt;Node30</title>
<path fill="none" stroke="midnightblue" d="M568.84,-340.39C494.19,-334.57 370.87,-322.71 255.62,-299.79"/>
<polygon fill="midnightblue" stroke="midnightblue" points="256.06,-296.31 245.57,-297.76 254.68,-303.17 256.06,-296.31"/>
</g>
<!-- Node5 -->
<g id="node5" class="node">
<title>Node5</title>
<g id="a_node5"><a xlink:href="component_8h.html" target="_top" xlink:title=" ">
<polygon fill="white" stroke="black" points="771.5,-168.5 771.5,-187.5 844.5,-187.5 844.5,-168.5 771.5,-168.5"/>
<text text-anchor="middle" x="808" y="-175.5" font-family="Helvetica,sans-Serif" font-size="10.00">component.h</text>
</a>
</g>
</g>
<!-- Node4&#45;&gt;Node5 -->
<g id="edge4" class="edge">
<title>Node4&#45;&gt;Node5</title>
<path fill="none" stroke="midnightblue" d="M910.67,-224.44C890.68,-215.6 859.26,-201.69 836.44,-191.59"/>
<polygon fill="midnightblue" stroke="midnightblue" points="837.8,-188.36 827.24,-187.52 834.97,-194.76 837.8,-188.36"/>
</g>
<!-- Node17 -->
<g id="node17" class="node">
<title>Node17</title>
<g id="a_node17"><a xlink:href="image_8h.html" target="_top" xlink:title=" ">
<polygon fill="white" stroke="black" points="1129.5,-112.5 1129.5,-131.5 1218.5,-131.5 1218.5,-112.5 1129.5,-112.5"/>
<text text-anchor="middle" x="1174" y="-119.5" font-family="Helvetica,sans-Serif" font-size="10.00">../media/image.h</text>
</a>
</g>
</g>
<!-- Node4&#45;&gt;Node17 -->
<g id="edge18" class="edge">
<title>Node4&#45;&gt;Node17</title>
<path fill="none" stroke="midnightblue" d="M963.45,-224.47C991.93,-216.66 1033.57,-203.9 1068,-188 1099.41,-173.49 1133.04,-151.67 1153.8,-137.38"/>
<polygon fill="midnightblue" stroke="midnightblue" points="1155.92,-140.17 1162.12,-131.58 1151.91,-134.43 1155.92,-140.17"/>
</g>
<!-- Node6 -->
<g id="node6" class="node">
<title>Node6</title>
<g id="a_node6"><a xlink:title=" ">
<polygon fill="white" stroke="#bfbfbf" points="660,-112.5 660,-131.5 800,-131.5 800,-112.5 660,-112.5"/>
<text text-anchor="middle" x="730" y="-119.5" font-family="Helvetica,sans-Serif" font-size="10.00">sml/sml_graphics_wrapper.h</text>
</a>
</g>
</g>
<!-- Node5&#45;&gt;Node6 -->
<g id="edge5" class="edge">
<title>Node5&#45;&gt;Node6</title>
<path fill="none" stroke="midnightblue" d="M795.47,-168.32C783.41,-159.98 764.97,-147.21 750.73,-137.35"/>
<polygon fill="midnightblue" stroke="midnightblue" points="752.72,-134.47 742.5,-131.65 748.73,-140.22 752.72,-134.47"/>
</g>
<!-- Node7 -->
<g id="node7" class="node">
<title>Node7</title>
<g id="a_node7"><a xlink:href="gui__event__dispatching_8h.html" target="_top" xlink:title=" ">
<polygon fill="white" stroke="black" points="856.5,-112.5 856.5,-131.5 1019.5,-131.5 1019.5,-112.5 856.5,-112.5"/>
<text text-anchor="middle" x="938" y="-119.5" font-family="Helvetica,sans-Serif" font-size="10.00">../events/gui_event_dispatching.h</text>
</a>
</g>
</g>
<!-- Node5&#45;&gt;Node7 -->
<g id="edge6" class="edge">
<title>Node5&#45;&gt;Node7</title>
<path fill="none" stroke="midnightblue" d="M828.6,-168.44C849.99,-159.56 883.68,-145.56 908.02,-135.45"/>
<polygon fill="midnightblue" stroke="midnightblue" points="909.61,-138.58 917.5,-131.52 906.92,-132.12 909.61,-138.58"/>
</g>
<!-- Node5&#45;&gt;Node14 -->
<g id="edge15" class="edge">
<title>Node5&#45;&gt;Node14</title>
<path fill="none" stroke="midnightblue" d="M844.6,-173.8C916.02,-167.41 1079.14,-152.04 1226.8,-132.09"/>
<polygon fill="midnightblue" stroke="midnightblue" points="1227.51,-135.53 1236.95,-130.71 1226.57,-128.59 1227.51,-135.53"/>
</g>
<!-- Node7&#45;&gt;Node3 -->
<g id="edge9" class="edge">
<title>Node7&#45;&gt;Node3</title>
<path fill="none" stroke="midnightblue" d="M865.21,-112.47C781.49,-102.67 644.46,-86.62 557.6,-76.44"/>
<polygon fill="midnightblue" stroke="midnightblue" points="557.86,-72.95 547.52,-75.26 557.05,-79.9 557.86,-72.95"/>
</g>
<!-- Node8 -->
<g id="node8" class="node">
<title>Node8</title>
<g id="a_node8"><a xlink:title=" ">
<polygon fill="white" stroke="#bfbfbf" points="1026,-56.5 1026,-75.5 1070,-75.5 1070,-56.5 1026,-56.5"/>
<text text-anchor="middle" x="1048" y="-63.5" font-family="Helvetica,sans-Serif" font-size="10.00">vector</text>
</a>
</g>
</g>
<!-- Node7&#45;&gt;Node8 -->
<g id="edge7" class="edge">
<title>Node7&#45;&gt;Node8</title>
<path fill="none" stroke="midnightblue" d="M955.67,-112.32C973.39,-103.62 1000.9,-90.12 1021.29,-80.11"/>
<polygon fill="midnightblue" stroke="midnightblue" points="1022.94,-83.2 1030.37,-75.65 1019.85,-76.92 1022.94,-83.2"/>
</g>
<!-- Node9 -->
<g id="node9" class="node">
<title>Node9</title>
<g id="a_node9"><a xlink:title=" ">
<polygon fill="white" stroke="#bfbfbf" points="852.5,-56.5 852.5,-75.5 1007.5,-75.5 1007.5,-56.5 852.5,-56.5"/>
<text text-anchor="middle" x="930" y="-63.5" font-family="Helvetica,sans-Serif" font-size="10.00">sml/events/event_dispatching.h</text>
</a>
</g>
</g>
<!-- Node7&#45;&gt;Node9 -->
<g id="edge8" class="edge">
<title>Node7&#45;&gt;Node9</title>
<path fill="none" stroke="midnightblue" d="M936.68,-112.08C935.62,-104.93 934.09,-94.64 932.77,-85.69"/>
<polygon fill="midnightblue" stroke="midnightblue" points="936.22,-85.13 931.3,-75.75 929.3,-86.16 936.22,-85.13"/>
</g>
<!-- Node10 -->
<g id="node10" class="node">
<title>Node10</title>
<g id="a_node10"><a xlink:title=" ">
<polygon fill="white" stroke="#bfbfbf" points="628.5,-0.5 628.5,-19.5 771.5,-19.5 771.5,-0.5 628.5,-0.5"/>
<text text-anchor="middle" x="700" y="-7.5" font-family="Helvetica,sans-Serif" font-size="10.00">sml/events/system_events.h</text>
</a>
</g>
</g>
<!-- Node7&#45;&gt;Node10 -->
<g id="edge10" class="edge">
<title>Node7&#45;&gt;Node10</title>
<path fill="none" stroke="midnightblue" d="M862.75,-112.44C828.9,-106.09 789.57,-95.08 758,-76 738.06,-63.95 721.12,-42.87 710.79,-27.99"/>
<polygon fill="midnightblue" stroke="midnightblue" points="713.69,-26.04 705.24,-19.66 707.87,-29.92 713.69,-26.04"/>
</g>
<!-- Node11 -->
<g id="node11" class="node">
<title>Node11</title>
<g id="a_node11"><a xlink:href="gui__event_8h.html" target="_top" xlink:title=" ">
<polygon fill="white" stroke="black" points="767.5,-56.5 767.5,-75.5 834.5,-75.5 834.5,-56.5 767.5,-56.5"/>
<text text-anchor="middle" x="801" y="-63.5" font-family="Helvetica,sans-Serif" font-size="10.00">gui_event.h</text>
</a>
</g>
</g>
<!-- Node7&#45;&gt;Node11 -->
<g id="edge11" class="edge">
<title>Node7&#45;&gt;Node11</title>
<path fill="none" stroke="midnightblue" d="M916.29,-112.44C893.65,-103.52 857.93,-89.44 832.25,-79.32"/>
<polygon fill="midnightblue" stroke="midnightblue" points="833.19,-75.93 822.61,-75.52 830.63,-82.44 833.19,-75.93"/>
</g>
<!-- Node11&#45;&gt;Node10 -->
<g id="edge13" class="edge">
<title>Node11&#45;&gt;Node10</title>
<path fill="none" stroke="midnightblue" d="M784.77,-56.32C768.65,-47.7 743.7,-34.36 725.04,-24.39"/>
<polygon fill="midnightblue" stroke="midnightblue" points="726.66,-21.28 716.19,-19.65 723.36,-27.46 726.66,-21.28"/>
</g>
<!-- Node12 -->
<g id="node12" class="node">
<title>Node12</title>
<g id="a_node12"><a xlink:title=" ">
<polygon fill="white" stroke="#bfbfbf" points="885,-0.5 885,-19.5 985,-19.5 985,-0.5 885,-0.5"/>
<text text-anchor="middle" x="935" y="-7.5" font-family="Helvetica,sans-Serif" font-size="10.00">sml/events/event.h</text>
</a>
</g>
</g>
<!-- Node11&#45;&gt;Node12 -->
<g id="edge12" class="edge">
<title>Node11&#45;&gt;Node12</title>
<path fill="none" stroke="midnightblue" d="M822.23,-56.44C844.38,-47.52 879.32,-33.44 904.44,-23.32"/>
<polygon fill="midnightblue" stroke="midnightblue" points="905.9,-26.5 913.87,-19.52 903.28,-20.01 905.9,-26.5"/>
</g>
<!-- Node13 -->
<g id="node13" class="node">
<title>Node13</title>
<g id="a_node13"><a xlink:title=" ">
<polygon fill="white" stroke="#bfbfbf" points="789.5,-0.5 789.5,-19.5 866.5,-19.5 866.5,-0.5 789.5,-0.5"/>
<text text-anchor="middle" x="828" y="-7.5" font-family="Helvetica,sans-Serif" font-size="10.00">sml/sml_log.h</text>
</a>
</g>
</g>
<!-- Node11&#45;&gt;Node13 -->
<g id="edge14" class="edge">
<title>Node11&#45;&gt;Node13</title>
<path fill="none" stroke="midnightblue" d="M805.46,-56.08C809.15,-48.69 814.52,-37.95 819.09,-28.81"/>
<polygon fill="midnightblue" stroke="midnightblue" points="822.28,-30.26 823.62,-19.75 816.02,-27.13 822.28,-30.26"/>
</g>
<!-- Node15 -->
<g id="node15" class="node">
<title>Node15</title>
<g id="a_node15"><a xlink:title=" ">
<polygon fill="white" stroke="#bfbfbf" points="1366.5,-56.5 1366.5,-75.5 1449.5,-75.5 1449.5,-56.5 1366.5,-56.5"/>
<text text-anchor="middle" x="1408" y="-63.5" font-family="Helvetica,sans-Serif" font-size="10.00">sml/math/blur.h</text>
</a>
</g>
</g>
<!-- Node14&#45;&gt;Node15 -->
<g id="edge16" class="edge">
<title>Node14&#45;&gt;Node15</title>
<path fill="none" stroke="midnightblue" d="M1301.97,-112.44C1322.61,-103.6 1355.06,-89.69 1378.63,-79.59"/>
<polygon fill="midnightblue" stroke="midnightblue" points="1380.32,-82.67 1388.13,-75.52 1377.56,-76.24 1380.32,-82.67"/>
</g>
<!-- Node16 -->
<g id="node16" class="node">
<title>Node16</title>
<g id="a_node16"><a xlink:title=" ">
<polygon fill="white" stroke="#bfbfbf" points="1195.5,-56.5 1195.5,-75.5 1348.5,-75.5 1348.5,-56.5 1195.5,-56.5"/>
<text text-anchor="middle" x="1272" y="-63.5" font-family="Helvetica,sans-Serif" font-size="10.00">sml/graphics_wrapper/texture.h</text>
</a>
</g>
</g>
<!-- Node14&#45;&gt;Node16 -->
<g id="edge17" class="edge">
<title>Node14&#45;&gt;Node16</title>
<path fill="none" stroke="midnightblue" d="M1280.35,-112.08C1279.02,-104.93 1277.12,-94.64 1275.46,-85.69"/>
<polygon fill="midnightblue" stroke="midnightblue" points="1278.88,-84.95 1273.62,-75.75 1272,-86.22 1278.88,-84.95"/>
</g>
<!-- Node17&#45;&gt;Node16 -->
<g id="edge19" class="edge">
<title>Node17&#45;&gt;Node16</title>
<path fill="none" stroke="midnightblue" d="M1189.75,-112.32C1205.32,-103.74 1229.38,-90.49 1247.46,-80.52"/>
<polygon fill="midnightblue" stroke="midnightblue" points="1249.22,-83.55 1256.29,-75.65 1245.85,-77.42 1249.22,-83.55"/>
</g>
<!-- Node19 -->
<g id="node19" class="node">
<title>Node19</title>
<g id="a_node19"><a xlink:title=" ">
<polygon fill="white" stroke="#bfbfbf" points="730,-224.5 730,-243.5 870,-243.5 870,-224.5 730,-224.5"/>
<text text-anchor="middle" x="800" y="-231.5" font-family="Helvetica,sans-Serif" font-size="10.00">sml/graphics_wrapper/text.h</text>
</a>
</g>
</g>
<!-- Node18&#45;&gt;Node19 -->
<g id="edge21" class="edge">
<title>Node18&#45;&gt;Node19</title>
<path fill="none" stroke="midnightblue" d="M759.93,-280.08C766.85,-272.3 777.07,-260.8 785.45,-251.37"/>
<polygon fill="midnightblue" stroke="midnightblue" points="788.19,-253.55 792.22,-243.75 782.96,-248.9 788.19,-253.55"/>
</g>
<!-- Node20 -->
<g id="node20" class="node">
<title>Node20</title>
<g id="a_node20"><a xlink:href="shape_8h.html" target="_top" xlink:title=" ">
<polygon fill="white" stroke="black" points="660.5,-224.5 660.5,-243.5 711.5,-243.5 711.5,-224.5 660.5,-224.5"/>
<text text-anchor="middle" x="686" y="-231.5" font-family="Helvetica,sans-Serif" font-size="10.00">shape.h</text>
</a>
</g>
</g>
<!-- Node18&#45;&gt;Node20 -->
<g id="edge22" class="edge">
<title>Node18&#45;&gt;Node20</title>
<path fill="none" stroke="midnightblue" d="M741.4,-280.32C731.54,-272.26 716.65,-260.08 704.78,-250.37"/>
<polygon fill="midnightblue" stroke="midnightblue" points="706.75,-247.46 696.8,-243.83 702.32,-252.88 706.75,-247.46"/>
</g>
<!-- Node20&#45;&gt;Node5 -->
<g id="edge23" class="edge">
<title>Node20&#45;&gt;Node5</title>
<path fill="none" stroke="midnightblue" d="M705.33,-224.44C725.32,-215.6 756.74,-201.69 779.56,-191.59"/>
<polygon fill="midnightblue" stroke="midnightblue" points="781.03,-194.76 788.76,-187.52 778.2,-188.36 781.03,-194.76"/>
</g>
<!-- Node20&#45;&gt;Node21 -->
<g id="edge24" class="edge">
<title>Node20&#45;&gt;Node21</title>
<path fill="none" stroke="midnightblue" d="M711.55,-226.14C714.72,-225.38 717.93,-224.64 721,-224 792.36,-209.1 874.87,-196.34 931.55,-188.25"/>
<polygon fill="midnightblue" stroke="midnightblue" points="932.06,-191.71 941.47,-186.85 931.08,-184.78 932.06,-191.71"/>
</g>
<!-- Node20&#45;&gt;Node25 -->
<g id="edge33" class="edge">
<title>Node20&#45;&gt;Node25</title>
<path fill="none" stroke="midnightblue" d="M664.77,-224.44C642.62,-215.52 607.68,-201.44 582.56,-191.32"/>
<polygon fill="midnightblue" stroke="midnightblue" points="583.72,-188.01 573.13,-187.52 581.1,-194.5 583.72,-188.01"/>
</g>
<!-- Node21&#45;&gt;Node8 -->
<g id="edge25" class="edge">
<title>Node21&#45;&gt;Node8</title>
<path fill="none" stroke="midnightblue" d="M1006.57,-168.47C1013.04,-159.72 1022.82,-145.53 1029,-132 1035.87,-116.96 1040.92,-98.83 1044.09,-85.54"/>
<polygon fill="midnightblue" stroke="midnightblue" points="1047.52,-86.22 1046.3,-75.7 1040.69,-84.69 1047.52,-86.22"/>
</g>
<!-- Node21&#45;&gt;Node17 -->
<g id="edge32" class="edge">
<title>Node21&#45;&gt;Node17</title>
<path fill="none" stroke="midnightblue" d="M1027.57,-168.44C1057.1,-159.28 1104.12,-144.69 1136.88,-134.52"/>
<polygon fill="midnightblue" stroke="midnightblue" points="1138.04,-137.82 1146.56,-131.52 1135.97,-131.14 1138.04,-137.82"/>
</g>
<!-- Node22 -->
<g id="node22" class="node">
<title>Node22</title>
<g id="a_node22"><a xlink:title=" ">
<polygon fill="white" stroke="#bfbfbf" points="584,-56.5 584,-75.5 692,-75.5 692,-56.5 584,-56.5"/>
<text text-anchor="middle" x="638" y="-63.5" font-family="Helvetica,sans-Serif" font-size="10.00">sml/math/rectangle.h</text>
</a>
</g>
</g>
<!-- Node21&#45;&gt;Node22 -->
<g id="edge26" class="edge">
<title>Node21&#45;&gt;Node22</title>
<path fill="none" stroke="midnightblue" d="M964.35,-168.45C933.14,-160.5 886.83,-147.55 848,-132 829.92,-124.76 827.19,-118.96 809,-112 770.25,-97.17 724.75,-85.45 690.43,-77.7"/>
<polygon fill="midnightblue" stroke="midnightblue" points="691.13,-74.27 680.61,-75.52 689.62,-81.1 691.13,-74.27"/>
</g>
<!-- Node23 -->
<g id="node23" class="node">
<title>Node23</title>
<g id="a_node23"><a xlink:href="fill_8h.html" target="_top" xlink:title=" ">
<polygon fill="white" stroke="black" points="1076.5,-112.5 1076.5,-131.5 1111.5,-131.5 1111.5,-112.5 1076.5,-112.5"/>
<text text-anchor="middle" x="1094" y="-119.5" font-family="Helvetica,sans-Serif" font-size="10.00">fill.h</text>
</a>
</g>
</g>
<!-- Node21&#45;&gt;Node23 -->
<g id="edge27" class="edge">
<title>Node21&#45;&gt;Node23</title>
<path fill="none" stroke="midnightblue" d="M1015.1,-168.32C1029.9,-159.82 1052.69,-146.73 1069.98,-136.8"/>
<polygon fill="midnightblue" stroke="midnightblue" points="1072.01,-139.67 1078.93,-131.65 1068.52,-133.6 1072.01,-139.67"/>
</g>
<!-- Node23&#45;&gt;Node8 -->
<g id="edge28" class="edge">
<title>Node23&#45;&gt;Node8</title>
<path fill="none" stroke="midnightblue" d="M1086.4,-112.08C1079.77,-104.3 1069.98,-92.8 1061.94,-83.37"/>
<polygon fill="midnightblue" stroke="midnightblue" points="1064.6,-81.09 1055.45,-75.75 1059.27,-85.63 1064.6,-81.09"/>
</g>
<!-- Node23&#45;&gt;Node16 -->
<g id="edge31" class="edge">
<title>Node23&#45;&gt;Node16</title>
<path fill="none" stroke="midnightblue" d="M1111.69,-115.01C1114.79,-113.99 1117.98,-112.95 1121,-112 1158.73,-100.09 1202.03,-87.27 1232.56,-78.38"/>
<polygon fill="midnightblue" stroke="midnightblue" points="1233.78,-81.67 1242.4,-75.52 1231.82,-74.95 1233.78,-81.67"/>
</g>
<!-- Node23&#45;&gt;Node22 -->
<g id="edge30" class="edge">
<title>Node23&#45;&gt;Node22</title>
<path fill="none" stroke="midnightblue" d="M1076.36,-118.45C1063.29,-116.58 1045.05,-114.03 1029,-112 914.01,-97.42 779.73,-82.41 702.22,-73.93"/>
<polygon fill="midnightblue" stroke="midnightblue" points="702.45,-70.44 692.13,-72.83 701.69,-77.4 702.45,-70.44"/>
</g>
<!-- Node24 -->
<g id="node24" class="node">
<title>Node24</title>
<g id="a_node24"><a xlink:title=" ">
<polygon fill="white" stroke="#bfbfbf" points="1088.5,-56.5 1088.5,-75.5 1177.5,-75.5 1177.5,-56.5 1088.5,-56.5"/>
<text text-anchor="middle" x="1133" y="-63.5" font-family="Helvetica,sans-Serif" font-size="10.00">sml/math/vec2.h</text>
</a>
</g>
</g>
<!-- Node23&#45;&gt;Node24 -->
<g id="edge29" class="edge">
<title>Node23&#45;&gt;Node24</title>
<path fill="none" stroke="midnightblue" d="M1100.44,-112.08C1105.95,-104.46 1114.03,-93.26 1120.76,-83.94"/>
<polygon fill="midnightblue" stroke="midnightblue" points="1123.66,-85.91 1126.68,-75.75 1117.99,-81.81 1123.66,-85.91"/>
</g>
<!-- Node25&#45;&gt;Node22 -->
<g id="edge35" class="edge">
<title>Node25&#45;&gt;Node22</title>
<path fill="none" stroke="midnightblue" d="M558.75,-168.37C573,-150.14 606.39,-107.43 624.96,-83.68"/>
<polygon fill="midnightblue" stroke="midnightblue" points="627.88,-85.63 631.28,-75.59 622.37,-81.31 627.88,-85.63"/>
</g>
<!-- Node26 -->
<g id="node26" class="node">
<title>Node26</title>
<g id="a_node26"><a xlink:title=" ">
<polygon fill="white" stroke="#bfbfbf" points="422.5,-112.5 422.5,-131.5 565.5,-131.5 565.5,-112.5 422.5,-112.5"/>
<text text-anchor="middle" x="494" y="-119.5" font-family="Helvetica,sans-Serif" font-size="10.00">sml/graphics_wrapper/color.h</text>
</a>
</g>
</g>
<!-- Node25&#45;&gt;Node26 -->
<g id="edge34" class="edge">
<title>Node25&#45;&gt;Node26</title>
<path fill="none" stroke="midnightblue" d="M542.68,-168.32C534.11,-160.34 521.19,-148.31 510.81,-138.65"/>
<polygon fill="midnightblue" stroke="midnightblue" points="513.19,-136.09 503.49,-131.83 508.42,-141.21 513.19,-136.09"/>
</g>
<!-- Node25&#45;&gt;Node27 -->
<g id="edge36" class="edge">
<title>Node25&#45;&gt;Node27</title>
<path fill="none" stroke="midnightblue" d="M518.41,-168.44C479.42,-158.51 415.4,-142.21 375.58,-132.06"/>
<polygon fill="midnightblue" stroke="midnightblue" points="376.32,-128.64 365.77,-129.56 374.59,-135.42 376.32,-128.64"/>
</g>
<!-- Node28 -->
<g id="node28" class="node">
<title>Node28</title>
<g id="a_node28"><a xlink:title=" ">
<polygon fill="white" stroke="#bfbfbf" points="315.5,-56.5 315.5,-75.5 364.5,-75.5 364.5,-56.5 315.5,-56.5"/>
<text text-anchor="middle" x="340" y="-63.5" font-family="Helvetica,sans-Serif" font-size="10.00">stdint.h</text>
</a>
</g>
</g>
<!-- Node27&#45;&gt;Node28 -->
<g id="edge37" class="edge">
<title>Node27&#45;&gt;Node28</title>
<path fill="none" stroke="midnightblue" d="M340,-112.08C340,-105.01 340,-94.86 340,-85.99"/>
<polygon fill="midnightblue" stroke="midnightblue" points="343.5,-85.75 340,-75.75 336.5,-85.75 343.5,-85.75"/>
</g>
<!-- Node29&#45;&gt;Node20 -->
<g id="edge40" class="edge">
<title>Node29&#45;&gt;Node20</title>
<path fill="none" stroke="midnightblue" d="M645.09,-280.08C652.16,-272.3 662.59,-260.8 671.15,-251.37"/>
<polygon fill="midnightblue" stroke="midnightblue" points="673.93,-253.51 678.06,-243.75 668.75,-248.8 673.93,-253.51"/>
</g>
<!-- Node29&#45;&gt;Node22 -->
<g id="edge39" class="edge">
<title>Node29&#45;&gt;Node22</title>
<path fill="none" stroke="midnightblue" d="M637.04,-280.3C637.19,-247.63 637.71,-131.87 637.91,-85.96"/>
<polygon fill="midnightblue" stroke="midnightblue" points="641.41,-85.9 637.96,-75.88 634.41,-85.87 641.41,-85.9"/>
</g>
<!-- Node30&#45;&gt;Node27 -->
<g id="edge47" class="edge">
<title>Node30&#45;&gt;Node27</title>
<path fill="none" stroke="midnightblue" d="M216.07,-280.33C205.45,-267.63 189.05,-243.36 199,-224 221.61,-180 273.26,-150.88 307.38,-135.66"/>
<polygon fill="midnightblue" stroke="midnightblue" points="309.12,-138.72 316.92,-131.56 306.35,-132.29 309.12,-138.72"/>
</g>
<!-- Node31 -->
<g id="node31" class="node">
<title>Node31</title>
<g id="a_node31"><a xlink:title=" ">
<polygon fill="white" stroke="#bfbfbf" points="208,-224.5 208,-243.5 366,-243.5 366,-224.5 208,-224.5"/>
<text text-anchor="middle" x="287" y="-231.5" font-family="Helvetica,sans-Serif" font-size="10.00">sml/graphics_wrapper/renderer.h</text>
</a>
</g>
</g>
<!-- Node30&#45;&gt;Node31 -->
<g id="edge46" class="edge">
<title>Node30&#45;&gt;Node31</title>
<path fill="none" stroke="midnightblue" d="M234.12,-280.32C243.53,-272.26 257.74,-260.08 269.07,-250.37"/>
<polygon fill="midnightblue" stroke="midnightblue" points="271.38,-253 276.69,-243.83 266.82,-247.68 271.38,-253"/>
</g>
<!-- Node33 -->
<g id="node33" class="node">
<title>Node33</title>
<g id="a_node33"><a xlink:title=" ">
<polygon fill="white" stroke="#bfbfbf" points="92.5,-280.5 92.5,-299.5 175.5,-299.5 175.5,-280.5 92.5,-280.5"/>
<text text-anchor="middle" x="134" y="-287.5" font-family="Helvetica,sans-Serif" font-size="10.00">unordered_map</text>
</a>
</g>
</g>
<!-- Node32&#45;&gt;Node33 -->
<g id="edge49" class="edge">
<title>Node32&#45;&gt;Node33</title>
<path fill="none" stroke="midnightblue" d="M125.65,-336.08C126.98,-328.93 128.88,-318.64 130.54,-309.69"/>
<polygon fill="midnightblue" stroke="midnightblue" points="134,-310.22 132.38,-299.75 127.12,-308.95 134,-310.22"/>
</g>
<!-- Node34 -->
<g id="node34" class="node">
<title>Node34</title>
<g id="a_node34"><a xlink:href="container_8h.html" target="_top" xlink:title=" ">
<polygon fill="white" stroke="black" points="264,-280.5 264,-299.5 328,-299.5 328,-280.5 264,-280.5"/>
<text text-anchor="middle" x="296" y="-287.5" font-family="Helvetica,sans-Serif" font-size="10.00">container.h</text>
</a>
</g>
</g>
<!-- Node32&#45;&gt;Node34 -->
<g id="edge50" class="edge">
<title>Node32&#45;&gt;Node34</title>
<path fill="none" stroke="midnightblue" d="M151.25,-336.44C180.44,-327.28 226.92,-312.69 259.31,-302.52"/>
<polygon fill="midnightblue" stroke="midnightblue" points="260.38,-305.85 268.87,-299.52 258.28,-299.17 260.38,-305.85"/>
</g>
<!-- Node36 -->
<g id="node36" class="node">
<title>Node36</title>
<g id="a_node36"><a xlink:title=" ">
<polygon fill="white" stroke="#bfbfbf" points="0,-280.5 0,-299.5 74,-299.5 74,-280.5 0,-280.5"/>
<text text-anchor="middle" x="37" y="-287.5" font-family="Helvetica,sans-Serif" font-size="10.00">sys/syscall.h</text>
</a>
</g>
</g>
<!-- Node32&#45;&gt;Node36 -->
<g id="edge56" class="edge">
<title>Node32&#45;&gt;Node36</title>
<path fill="none" stroke="midnightblue" d="M110.02,-336.32C96.45,-327.9 75.62,-314.97 59.68,-305.07"/>
<polygon fill="midnightblue" stroke="midnightblue" points="61.29,-301.95 50.94,-299.65 57.59,-307.9 61.29,-301.95"/>
</g>
<!-- Node35 -->
<g id="node35" class="node">
<title>Node35</title>
<g id="a_node35"><a xlink:href="parent_8h.html" target="_top" xlink:title=" ">
<polygon fill="white" stroke="black" points="422.5,-224.5 422.5,-243.5 483.5,-243.5 483.5,-224.5 422.5,-224.5"/>
<text text-anchor="middle" x="453" y="-231.5" font-family="Helvetica,sans-Serif" font-size="10.00">../parent.h</text>
</a>
</g>
</g>
<!-- Node34&#45;&gt;Node35 -->
<g id="edge51" class="edge">
<title>Node34&#45;&gt;Node35</title>
<path fill="none" stroke="midnightblue" d="M320.88,-280.44C347.29,-271.36 389.22,-256.94 418.74,-246.78"/>
<polygon fill="midnightblue" stroke="midnightblue" points="419.92,-250.08 428.24,-243.52 417.64,-243.46 419.92,-250.08"/>
</g>
<!-- Node35&#45;&gt;Node5 -->
<g id="edge52" class="edge">
<title>Node35&#45;&gt;Node5</title>
<path fill="none" stroke="midnightblue" d="M483.57,-228.35C545.82,-218.88 687.59,-197.32 761.39,-186.09"/>
<polygon fill="midnightblue" stroke="midnightblue" points="761.98,-189.54 771.34,-184.58 760.93,-182.62 761.98,-189.54"/>
</g>
<!-- Node35&#45;&gt;Node21 -->
<g id="edge55" class="edge">
<title>Node35&#45;&gt;Node21</title>
<path fill="none" stroke="midnightblue" d="M483.58,-229.98C568.95,-221.55 811.42,-197.62 931.24,-185.79"/>
<polygon fill="midnightblue" stroke="midnightblue" points="931.79,-189.25 941.4,-184.78 931.11,-182.28 931.79,-189.25"/>
</g>
<!-- Node35&#45;&gt;Node25 -->
<g id="edge54" class="edge">
<title>Node35&#45;&gt;Node25</title>
<path fill="none" stroke="midnightblue" d="M468.91,-224.32C484.64,-215.74 508.94,-202.49 527.21,-192.52"/>
<polygon fill="midnightblue" stroke="midnightblue" points="529.03,-195.52 536.13,-187.65 525.68,-189.37 529.03,-195.52"/>
</g>
<!-- Node35&#45;&gt;Node27 -->
<g id="edge53" class="edge">
<title>Node35&#45;&gt;Node27</title>
<path fill="none" stroke="midnightblue" d="M448.37,-224.23C441.06,-210.96 425.85,-185.48 408,-168 395.43,-155.69 379.03,-144.72 365.49,-136.7"/>
<polygon fill="midnightblue" stroke="midnightblue" points="367.07,-133.57 356.65,-131.63 363.59,-139.64 367.07,-133.57"/>
</g>
<!-- Node37&#45;&gt;Node2 -->
<g id="edge61" class="edge">
<title>Node37&#45;&gt;Node2</title>
<path fill="none" stroke="midnightblue" d="M637,-392.08C637,-385.01 637,-374.86 637,-365.99"/>
<polygon fill="midnightblue" stroke="midnightblue" points="640.5,-365.75 637,-355.75 633.5,-365.75 640.5,-365.75"/>
</g>
<!-- Node38 -->
<g id="node38" class="node">
<title>Node38</title>
<g id="a_node38"><a xlink:href="control_8h.html" target="_top" xlink:title=" ">
<polygon fill="white" stroke="black" points="329,-336.5 329,-355.5 383,-355.5 383,-336.5 329,-336.5"/>
<text text-anchor="middle" x="356" y="-343.5" font-family="Helvetica,sans-Serif" font-size="10.00">control.h</text>
</a>
</g>
</g>
<!-- Node37&#45;&gt;Node38 -->
<g id="edge58" class="edge">
<title>Node37&#45;&gt;Node38</title>
<path fill="none" stroke="midnightblue" d="M592.47,-392.44C537.46,-381.87 444.83,-364.07 393.35,-354.18"/>
<polygon fill="midnightblue" stroke="midnightblue" points="393.8,-350.7 383.32,-352.25 392.48,-357.58 393.8,-350.7"/>
</g>
<!-- Node38&#45;&gt;Node30 -->
<g id="edge60" class="edge">
<title>Node38&#45;&gt;Node30</title>
<path fill="none" stroke="midnightblue" d="M335.08,-336.44C313.26,-327.52 278.85,-313.44 254.11,-303.32"/>
<polygon fill="midnightblue" stroke="midnightblue" points="255.4,-300.06 244.82,-299.52 252.75,-306.54 255.4,-300.06"/>
</g>
<!-- Node38&#45;&gt;Node35 -->
<g id="edge59" class="edge">
<title>Node38&#45;&gt;Node35</title>
<path fill="none" stroke="midnightblue" d="M363.61,-336.37C379.76,-318.05 417.68,-275.05 438.57,-251.36"/>
<polygon fill="midnightblue" stroke="midnightblue" points="441.44,-253.41 445.42,-243.59 436.18,-248.78 441.44,-253.41"/>
</g>
<!-- Node39&#45;&gt;Node38 -->
<g id="edge63" class="edge">
<title>Node39&#45;&gt;Node38</title>
<path fill="none" stroke="midnightblue" d="M478.87,-392.44C454.52,-383.44 415.99,-369.19 388.58,-359.05"/>
<polygon fill="midnightblue" stroke="midnightblue" points="389.62,-355.7 379.03,-355.52 387.19,-362.27 389.62,-355.7"/>
</g>
<!-- Node40&#45;&gt;Node38 -->
<g id="edge65" class="edge">
<title>Node40&#45;&gt;Node38</title>
<path fill="none" stroke="midnightblue" d="M225.56,-392.44C251.52,-383.4 292.67,-369.06 321.8,-358.92"/>
<polygon fill="midnightblue" stroke="midnightblue" points="323.26,-362.11 331.55,-355.52 320.96,-355.5 323.26,-362.11"/>
</g>
<!-- Node41&#45;&gt;Node38 -->
<g id="edge67" class="edge">
<title>Node41&#45;&gt;Node38</title>
<path fill="none" stroke="midnightblue" d="M356,-392.08C356,-385.01 356,-374.86 356,-365.99"/>
<polygon fill="midnightblue" stroke="midnightblue" points="359.5,-365.75 356,-355.75 352.5,-365.75 359.5,-365.75"/>
</g>
</g>
</svg>
        <g id="navigator" transform="translate(0 0)" fill="#404254">
                <rect fill="#f2f5e9" fill-opacity="0.5" stroke="#606060" stroke-width=".5" x="0" y="0" width="60" height="60"/>
                <use id="zoomplus" xlink:href="#zoomPlus" x="17" y="9" onmousedown="handleZoom(evt,'in')"/>
                <use id="zoomminus" xlink:href="#zoomMin" x="42" y="9" onmousedown="handleZoom(evt,'out')"/>
                <use id="reset" xlink:href="#resetDef" x="30" y="36" onmousedown="handleReset()"/>
                <g id="arrowUp" xlink:href="#dirArrow" transform="translate(30 24)" onmousedown="handlePan(0,-1)">
                  <use xlink:href="#rim" fill="#404040">
                        <set attributeName="fill" to="#808080" begin="arrowUp.mouseover" end="arrowUp.mouseout"/>
                  </use>
                  <path fill="none" stroke="white" stroke-width="1.5" d="M0,-3.0v7 M-2.5,-0.5L0,-3.0L2.5,-0.5"/>
                </g>
                <g id="arrowRight" xlink:href="#dirArrow" transform="rotate(90) translate(36 -43)" onmousedown="handlePan(1,0)">
                  <use xlink:href="#rim" fill="#404040">
                        <set attributeName="fill" to="#808080" begin="arrowRight.mouseover" end="arrowRight.mouseout"/>
                  </use>
                  <path fill="none" stroke="white" stroke-width="1.5" d="M0,-3.0v7 M-2.5,-0.5L0,-3.0L2.5,-0.5"/>
                </g>
                <g id="arrowDown" xlink:href="#dirArrow" transform="rotate(180) translate(-30 -48)" onmousedown="handlePan(0,1)">
                  <use xlink:href="#rim" fill="#404040">
                        <set attributeName="fill" to="#808080" begin="arrowDown.mouseover" end="arrowDown.mouseout"/>
                  </use>
                  <path fill="none" stroke="white" stroke-width="1.5" d="M0,-3.0v7 M-2.5,-0.5L0,-3.0L2.5,-0.5"/>
                </g>
                <g id="arrowLeft" xlink:href="#dirArrow" transform="rotate(270) translate(-36 17)" onmousedown="handlePan(-1,0)">
                  <use xlink:href="#rim" fill="#404040">
                        <set attributeName="fill" to="#808080" begin="arrowLeft.mouseover" end="arrowLeft.mouseout"/>
                  </use>
                  <path fill="none" stroke="white" stroke-width="1.5" d="M0,-3.0v7 M-2.5,-0.5L0,-3.0L2.5,-0.5"/>
                </g>
        </g>
        <svg viewBox="0 0 15 15" width="100%" height="30px" preserveAspectRatio="xMaxYMin meet">
         <g id="arrow_out" transform="scale(0.3 0.3)">
          <a xlink:href="default__skins_8cpp__incl_org.svg" target="_base">
           <rect id="button" ry="5" rx="5" y="6" x="6" height="38" width="38"
                fill="#f2f5e9" fill-opacity="0.5" stroke="#606060" stroke-width="1.0"/>
           <path id="arrow"
             d="M 11.500037,31.436501 C 11.940474,20.09759 22.043105,11.32322 32.158766,21.979434 L 37.068811,17.246167 C 37.068811,17.246167 37.088388,32 37.088388,32 L 22.160133,31.978069 C 22.160133,31.978069 26.997745,27.140456 26.997745,27.140456 C 18.528582,18.264221 13.291696,25.230495 11.500037,31.436501 z"
             style="fill:#404040;"/>
          </a>
         </g>
        </svg>
</svg>
