<?xml version="1.0" encoding="UTF-8" standalone="no"?>
<!DOCTYPE svg PUBLIC "-//W3C//DTD SVG 1.1//EN"
 "http://www.w3.org/Graphics/SVG/1.1/DTD/svg11.dtd">
<!-- Generated by graphviz version 2.50.0 (20211204.2007)
 -->
<!-- Title: src Pages: 1 -->
<svg width="382pt" height="132pt"
 viewBox="0.00 0.00 382.00 132.00" xmlns="http://www.w3.org/2000/svg" xmlns:xlink="http://www.w3.org/1999/xlink">
<g id="graph0" class="graph" transform="scale(1 1) rotate(0) translate(4 128)">
<title>src</title>
<polygon fill="white" stroke="transparent" points="-4,4 -4,-128 378,-128 378,4 -4,4"/>
<g id="clust1" class="cluster">
<title>clusterdir_68267d1309a1af8e8297ef4c3efbcdba</title>
<g id="a_clust1"><a xlink:href="dir_68267d1309a1af8e8297ef4c3efbcdba.html" target="_top">
<polygon fill="#eeeeff" stroke="black" points="8,-64 8,-116 366,-116 366,-64 8,-64"/>
</a>
</g>
</g>
<!-- dir_68267d1309a1af8e8297ef4c3efbcdba -->
<g id="node1" class="node">
<title>dir_68267d1309a1af8e8297ef4c3efbcdba</title>
<text text-anchor="middle" x="331" y="-87.5" font-family="Helvetica,sans-Serif" font-size="10.00">src</text>
</g>
<!-- dir_14e1e259e8275dc0c459acef3bbf05ae -->
<g id="node2" class="node">
<title>dir_14e1e259e8275dc0c459acef3bbf05ae</title>
<g id="a_node2"><a xlink:href="dir_14e1e259e8275dc0c459acef3bbf05ae.html" target="_top" xlink:title="events">
<polygon fill="white" stroke="black" points="286,-108 232,-108 232,-72 286,-72 286,-108"/>
<text text-anchor="middle" x="259" y="-87.5" font-family="Helvetica,sans-Serif" font-size="10.00">events</text>
</a>
</g>
</g>
<!-- dir_d44c64559bbebec7f509842c48db8b23 -->
<g id="node6" class="node">
<title>dir_d44c64559bbebec7f509842c48db8b23</title>
<g id="a_node6"><a xlink:href="dir_d44c64559bbebec7f509842c48db8b23.html" target="_top" xlink:title="include">
<polygon fill="white" stroke="red" points="178,-36 124,-36 124,0 178,0 178,-36"/>
<text text-anchor="middle" x="151" y="-15.5" font-family="Helvetica,sans-Serif" font-size="10.00">include</text>
</a>
</g>
</g>
<!-- dir_14e1e259e8275dc0c459acef3bbf05ae&#45;&gt;dir_d44c64559bbebec7f509842c48db8b23 -->
<g id="edge1" class="edge">
<title>dir_14e1e259e8275dc0c459acef3bbf05ae&#45;&gt;dir_d44c64559bbebec7f509842c48db8b23</title>
<path fill="none" stroke="black" d="M234.71,-71.89C230.81,-69.22 226.81,-66.51 223,-64 211.33,-56.31 198.43,-48.14 186.8,-40.9"/>
<polygon fill="black" stroke="black" points="188.55,-37.87 178.21,-35.57 184.86,-43.82 188.55,-37.87"/>
<g id="a_edge1&#45;headlabel"><a xlink:href="dir_000010_000000.html" target="_top" xlink:title="2">
<text text-anchor="middle" x="193.1" y="-34.85" font-family="Helvetica,sans-Serif" font-size="10.00">2</text>
</a>
</g>
</g>
<!-- dir_efcdea697c9bde70f5246c1fbdb5a5e5 -->
<g id="node3" class="node">
<title>dir_efcdea697c9bde70f5246c1fbdb5a5e5</title>
<g id="a_node3"><a xlink:href="dir_efcdea697c9bde70f5246c1fbdb5a5e5.html" target="_top" xlink:title="media">
<polygon fill="white" stroke="black" points="214,-108 160,-108 160,-72 214,-72 214,-108"/>
<text text-anchor="middle" x="187" y="-87.5" font-family="Helvetica,sans-Serif" font-size="10.00">media</text>
</a>
</g>
</g>
<!-- dir_efcdea697c9bde70f5246c1fbdb5a5e5&#45;&gt;dir_d44c64559bbebec7f509842c48db8b23 -->
<g id="edge4" class="edge">
<title>dir_efcdea697c9bde70f5246c1fbdb5a5e5&#45;&gt;dir_d44c64559bbebec7f509842c48db8b23</title>
<path fill="none" stroke="black" d="M178.1,-71.7C174,-63.73 169.05,-54.1 164.51,-45.26"/>
<polygon fill="black" stroke="black" points="167.48,-43.4 159.8,-36.1 161.26,-46.6 167.48,-43.4"/>
<g id="a_edge4&#45;headlabel"><a xlink:href="dir_000011_000000.html" target="_top" xlink:title="2">
<text text-anchor="middle" x="171.65" y="-42.79" font-family="Helvetica,sans-Serif" font-size="10.00">2</text>
</a>
</g>
</g>
<!-- dir_6e7f5f807b5c98929b5e3f23283f5c19 -->
<g id="node4" class="node">
<title>dir_6e7f5f807b5c98929b5e3f23283f5c19</title>
<g id="a_node4"><a xlink:href="dir_6e7f5f807b5c98929b5e3f23283f5c19.html" target="_top" xlink:title="paint">
<polygon fill="white" stroke="black" points="142,-108 88,-108 88,-72 142,-72 142,-108"/>
<text text-anchor="middle" x="115" y="-87.5" font-family="Helvetica,sans-Serif" font-size="10.00">paint</text>
</a>
</g>
</g>
<!-- dir_6e7f5f807b5c98929b5e3f23283f5c19&#45;&gt;dir_d44c64559bbebec7f509842c48db8b23 -->
<g id="edge3" class="edge">
<title>dir_6e7f5f807b5c98929b5e3f23283f5c19&#45;&gt;dir_d44c64559bbebec7f509842c48db8b23</title>
<path fill="none" stroke="black" d="M123.9,-71.7C128,-63.73 132.95,-54.1 137.49,-45.26"/>
<polygon fill="black" stroke="black" points="140.74,-46.6 142.2,-36.1 134.52,-43.4 140.74,-46.6"/>
<g id="a_edge3&#45;headlabel"><a xlink:href="dir_000012_000000.html" target="_top" xlink:title="7">
<text text-anchor="middle" x="141.62" y="-48.59" font-family="Helvetica,sans-Serif" font-size="10.00">7</text>
</a>
</g>
</g>
<!-- dir_35781f0e74aa8deac19fa31b37174dc2 -->
<g id="node5" class="node">
<title>dir_35781f0e74aa8deac19fa31b37174dc2</title>
<g id="a_node5"><a xlink:href="dir_35781f0e74aa8deac19fa31b37174dc2.html" target="_top" xlink:title="scene">
<polygon fill="white" stroke="red" points="70,-108 16,-108 16,-72 70,-72 70,-108"/>
<text text-anchor="middle" x="43" y="-87.5" font-family="Helvetica,sans-Serif" font-size="10.00">scene</text>
</a>
</g>
</g>
<!-- dir_35781f0e74aa8deac19fa31b37174dc2&#45;&gt;dir_d44c64559bbebec7f509842c48db8b23 -->
<g id="edge2" class="edge">
<title>dir_35781f0e74aa8deac19fa31b37174dc2&#45;&gt;dir_d44c64559bbebec7f509842c48db8b23</title>
<path fill="none" stroke="black" d="M67.29,-71.89C71.19,-69.22 75.19,-66.51 79,-64 90.67,-56.31 103.57,-48.14 115.2,-40.9"/>
<polygon fill="black" stroke="black" points="117.14,-43.82 123.79,-35.57 113.45,-37.87 117.14,-43.82"/>
<g id="a_edge2&#45;headlabel"><a xlink:href="dir_000013_000000.html" target="_top" xlink:title="38">
<text text-anchor="middle" x="115.58" y="-45.63" font-family="Helvetica,sans-Serif" font-size="10.00">38</text>
</a>
</g>
</g>
</g>
</svg>
