<?xml version="1.0" encoding="UTF-8" standalone="no"?>
<!DOCTYPE svg PUBLIC "-//W3C//DTD SVG 1.1//EN"
 "http://www.w3.org/Graphics/SVG/1.1/DTD/svg11.dtd">
<!-- Generated by graphviz version 2.50.0 (20211204.2007)
 -->
<!-- Title: scene Pages: 1 -->
<!--zoomable 535 -->
<svg id="main" version="1.1" xmlns="http://www.w3.org/2000/svg" xmlns:xlink="http://www.w3.org/1999/xlink" xml:space="preserve" onload="init(evt)">
<style type="text/css"><![CDATA[
.edge:hover path { stroke: red; }
.edge:hover polygon { stroke: red; fill: red; }
]]></style>
<script type="text/javascript"><![CDATA[
var edges = document.getElementsByTagName('g');
if (edges && edges.length) {
  for (var i=0;i<edges.length;i++) {
    if (edges[i].id.substr(0,4)=='edge') {
      edges[i].setAttribute('class','edge');
    }
  }
}
]]></script>
        <defs>
                <circle id="rim" cx="0" cy="0" r="7"/>
                <circle id="rim2" cx="0" cy="0" r="3.5"/>
                <g id="zoomPlus">
                        <use xlink:href="#rim" fill="#404040">
                                <set attributeName="fill" to="#808080" begin="zoomplus.mouseover" end="zoomplus.mouseout"/>
                        </use>
                        <path d="M-4,0h8M0,-4v8" fill="none" stroke="white" stroke-width="1.5" pointer-events="none"/>
                </g>
                <g id="zoomMin">
                        <use xlink:href="#rim" fill="#404040">
                                <set attributeName="fill" to="#808080" begin="zoomminus.mouseover" end="zoomminus.mouseout"/>
                        </use>
                        <path d="M-4,0h8" fill="none" stroke="white" stroke-width="1.5" pointer-events="none"/>
                </g>
                <g id="dirArrow">
                        <path fill="none" stroke="white" stroke-width="1.5" d="M0,-3.0v7 M-2.5,-0.5L0,-3.0L2.5,-0.5"/>
                </g>
               <g id="resetDef">
                       <use xlink:href="#rim2" fill="#404040">
                               <set attributeName="fill" to="#808080" begin="reset.mouseover" end="reset.mouseout"/>
                       </use>
               </g>
        </defs>

<script type="text/javascript">
var viewWidth = 222;
var viewHeight = 535;
var sectionId = 'dynsection-0';
</script>
<script xlink:href="svgpan.js"/>
<svg id="graph" class="graph">
<g id="viewport">
<title>scene</title>
<polygon fill="white" stroke="transparent" points="-4,4 -4,-531 218,-531 218,4 -4,4"/>
<g id="clust1" class="cluster">
<title>clusterdir_d44c64559bbebec7f509842c48db8b23</title>
<g id="a_clust1"><a xlink:href="dir_d44c64559bbebec7f509842c48db8b23.html" target="_top" xlink:title="include">
<polygon fill="#ddddee" stroke="black" points="8,-8 8,-519 206,-519 206,-8 8,-8"/>
<text text-anchor="middle" x="107" y="-507" font-family="Helvetica,sans-Serif" font-size="10.00">include</text>
</a>
</g>
</g>
<g id="clust2" class="cluster">
<title>clusterdir_cb6e897cb5cd097a761323417c742ef8</title>
<g id="a_clust2"><a xlink:href="dir_cb6e897cb5cd097a761323417c742ef8.html" target="_top">
<polygon fill="#eeeeff" stroke="black" points="16,-152 16,-492 94,-492 94,-152 16,-152"/>
</a>
</g>
</g>
<!-- dir_a2dab9bb0dd5f48c58ec25d093c9b827 -->
<g id="node1" class="node">
<title>dir_a2dab9bb0dd5f48c58ec25d093c9b827</title>
<g id="a_node1"><a xlink:href="dir_a2dab9bb0dd5f48c58ec25d093c9b827.html" target="_top" xlink:title="paint">
<polygon fill="none" stroke="black" points="118,-124 64,-124 64,-88 118,-88 118,-124"/>
<text text-anchor="middle" x="91" y="-103.5" font-family="Helvetica,sans-Serif" font-size="10.00">paint</text>
</a>
</g>
</g>
<!-- dir_aa03a1d12037901d4378cbd73498762d -->
<g id="node2" class="node">
<title>dir_aa03a1d12037901d4378cbd73498762d</title>
<g id="a_node2"><a xlink:href="dir_aa03a1d12037901d4378cbd73498762d.html" target="_top" xlink:title="media">
<polygon fill="none" stroke="black" points="141,-52 87,-52 87,-16 141,-16 141,-52"/>
<text text-anchor="middle" x="114" y="-31.5" font-family="Helvetica,sans-Serif" font-size="10.00">media</text>
</a>
</g>
</g>
<!-- dir_a2dab9bb0dd5f48c58ec25d093c9b827&#45;&gt;dir_aa03a1d12037901d4378cbd73498762d -->
<g id="edge5" class="edge">
<title>dir_a2dab9bb0dd5f48c58ec25d093c9b827&#45;&gt;dir_aa03a1d12037901d4378cbd73498762d</title>
<path fill="none" stroke="black" d="M96.69,-87.7C99.25,-79.9 102.33,-70.51 105.18,-61.83"/>
<polygon fill="black" stroke="black" points="108.58,-62.7 108.38,-52.1 101.93,-60.51 108.58,-62.7"/>
<g id="a_edge5&#45;headlabel"><a xlink:href="dir_000003_000002.html" target="_top" xlink:title="1">
<text text-anchor="middle" x="110.16" y="-64.5" font-family="Helvetica,sans-Serif" font-size="10.00">1</text>
</a>
</g>
</g>
<!-- dir_c33611b4dec78f96017d2ccf425d656a -->
<g id="node3" class="node">
<title>dir_c33611b4dec78f96017d2ccf425d656a</title>
<g id="a_node3"><a xlink:href="dir_c33611b4dec78f96017d2ccf425d656a.html" target="_top" xlink:title="events">
<polygon fill="none" stroke="black" points="198,-412 144,-412 144,-376 198,-376 198,-412"/>
<text text-anchor="middle" x="171" y="-391.5" font-family="Helvetica,sans-Serif" font-size="10.00">events</text>
</a>
</g>
</g>
<!-- dir_cb6e897cb5cd097a761323417c742ef8 -->
<g id="node4" class="node">
<title>dir_cb6e897cb5cd097a761323417c742ef8</title>
<text text-anchor="middle" x="59" y="-463.5" font-family="Helvetica,sans-Serif" font-size="10.00">scene</text>
</g>
<!-- dir_cb6e897cb5cd097a761323417c742ef8&#45;&gt;dir_a2dab9bb0dd5f48c58ec25d093c9b827 -->
<g id="edge8" class="edge">
<title>dir_cb6e897cb5cd097a761323417c742ef8&#45;&gt;dir_a2dab9bb0dd5f48c58ec25d093c9b827</title>
<path fill="none" stroke="black" d="M74.59,-447.77C82.34,-438.02 90.92,-425.17 95,-412 125.58,-313.37 107.25,-188.03 96.78,-133.9"/>
<polygon fill="black" stroke="black" points="100.21,-133.17 94.81,-124.05 93.34,-134.54 100.21,-133.17"/>
<g id="a_edge8&#45;headlabel"><a xlink:href="dir_000004_000003.html" target="_top" xlink:title="11">
<text text-anchor="middle" x="103.7" y="-133.64" font-family="Helvetica,sans-Serif" font-size="10.00">11</text>
</a>
</g>
</g>
<!-- dir_cb6e897cb5cd097a761323417c742ef8&#45;&gt;dir_aa03a1d12037901d4378cbd73498762d -->
<g id="edge9" class="edge">
<title>dir_cb6e897cb5cd097a761323417c742ef8&#45;&gt;dir_aa03a1d12037901d4378cbd73498762d</title>
<path fill="none" stroke="black" d="M78.06,-447.65C87.38,-438.06 97.89,-425.4 104,-412 117.43,-382.55 111.65,-372.2 115,-340 124.94,-244.37 124.33,-220.11 127,-124 127.44,-108.01 128.92,-103.88 127,-88 125.98,-79.53 124.07,-70.47 122.02,-62.28"/>
<polygon fill="black" stroke="black" points="125.36,-61.23 119.41,-52.47 118.6,-63.03 125.36,-61.23"/>
<g id="a_edge9&#45;headlabel"><a xlink:href="dir_000004_000002.html" target="_top" xlink:title="1">
<text text-anchor="middle" x="129.03" y="-61.48" font-family="Helvetica,sans-Serif" font-size="10.00">1</text>
</a>
</g>
</g>
<!-- dir_cb6e897cb5cd097a761323417c742ef8&#45;&gt;dir_c33611b4dec78f96017d2ccf425d656a -->
<g id="edge10" class="edge">
<title>dir_cb6e897cb5cd097a761323417c742ef8&#45;&gt;dir_c33611b4dec78f96017d2ccf425d656a</title>
<path fill="none" stroke="black" d="M86.11,-448.05C100.86,-438.84 119.29,-427.32 135.21,-417.37"/>
<polygon fill="black" stroke="black" points="137.12,-420.3 143.75,-412.03 133.41,-414.36 137.12,-420.3"/>
<g id="a_edge10&#45;headlabel"><a xlink:href="dir_000004_000001.html" target="_top" xlink:title="2">
<text text-anchor="middle" x="135.58" y="-422.11" font-family="Helvetica,sans-Serif" font-size="10.00">2</text>
</a>
</g>
</g>
<!-- dir_057336d144638fc4c968e18d44c9d8ca -->
<g id="node5" class="node">
<title>dir_057336d144638fc4c968e18d44c9d8ca</title>
<g id="a_node5"><a xlink:href="dir_057336d144638fc4c968e18d44c9d8ca.html" target="_top" xlink:title="containers">
<polygon fill="white" stroke="black" points="86,-412 24,-412 24,-376 86,-376 86,-412"/>
<text text-anchor="middle" x="55" y="-391.5" font-family="Helvetica,sans-Serif" font-size="10.00">containers</text>
</a>
</g>
</g>
<!-- dir_cb6e897cb5cd097a761323417c742ef8&#45;&gt;dir_057336d144638fc4c968e18d44c9d8ca -->
<g id="edge7" class="edge">
<title>dir_cb6e897cb5cd097a761323417c742ef8&#45;&gt;dir_057336d144638fc4c968e18d44c9d8ca</title>
<path fill="none" stroke="black" d="M58.01,-447.7C57.57,-439.98 57.04,-430.71 56.55,-422.11"/>
<polygon fill="black" stroke="black" points="60.04,-421.89 55.98,-412.1 53.05,-422.29 60.04,-421.89"/>
<g id="a_edge7&#45;headlabel"><a xlink:href="dir_000004_000005.html" target="_top" xlink:title="1">
<text text-anchor="middle" x="63.08" y="-422.82" font-family="Helvetica,sans-Serif" font-size="10.00">1</text>
</a>
</g>
</g>
<!-- dir_c182363c8acb6698f9a7504886899590 -->
<g id="node6" class="node">
<title>dir_c182363c8acb6698f9a7504886899590</title>
<g id="a_node6"><a xlink:href="dir_c182363c8acb6698f9a7504886899590.html" target="_top" xlink:title="controls">
<polygon fill="white" stroke="black" points="82,-340 28,-340 28,-304 82,-304 82,-340"/>
<text text-anchor="middle" x="55" y="-319.5" font-family="Helvetica,sans-Serif" font-size="10.00">controls</text>
</a>
</g>
</g>
<!-- dir_057336d144638fc4c968e18d44c9d8ca&#45;&gt;dir_c182363c8acb6698f9a7504886899590 -->
<g id="edge1" class="edge">
<title>dir_057336d144638fc4c968e18d44c9d8ca&#45;&gt;dir_c182363c8acb6698f9a7504886899590</title>
<path fill="none" stroke="black" d="M55,-375.7C55,-367.98 55,-358.71 55,-350.11"/>
<polygon fill="black" stroke="black" points="58.5,-350.1 55,-340.1 51.5,-350.1 58.5,-350.1"/>
<g id="a_edge1&#45;headlabel"><a xlink:href="dir_000005_000006.html" target="_top" xlink:title="1">
<text text-anchor="middle" x="61.34" y="-351.2" font-family="Helvetica,sans-Serif" font-size="10.00">1</text>
</a>
</g>
</g>
<!-- dir_41977ff68a693afa9cc0a1f245abbf84 -->
<g id="node8" class="node">
<title>dir_41977ff68a693afa9cc0a1f245abbf84</title>
<g id="a_node8"><a xlink:href="dir_41977ff68a693afa9cc0a1f245abbf84.html" target="_top" xlink:title="style">
<polygon fill="white" stroke="black" points="82,-268 28,-268 28,-232 82,-232 82,-268"/>
<text text-anchor="middle" x="55" y="-247.5" font-family="Helvetica,sans-Serif" font-size="10.00">style</text>
</a>
</g>
</g>
<!-- dir_c182363c8acb6698f9a7504886899590&#45;&gt;dir_41977ff68a693afa9cc0a1f245abbf84 -->
<g id="edge6" class="edge">
<title>dir_c182363c8acb6698f9a7504886899590&#45;&gt;dir_41977ff68a693afa9cc0a1f245abbf84</title>
<path fill="none" stroke="black" d="M55,-303.7C55,-295.98 55,-286.71 55,-278.11"/>
<polygon fill="black" stroke="black" points="58.5,-278.1 55,-268.1 51.5,-278.1 58.5,-278.1"/>
<g id="a_edge6&#45;headlabel"><a xlink:href="dir_000006_000008.html" target="_top" xlink:title="2">
<text text-anchor="middle" x="61.34" y="-279.2" font-family="Helvetica,sans-Serif" font-size="10.00">2</text>
</a>
</g>
</g>
<!-- dir_861235930d37b7e69b87d8b38e98fd1f -->
<g id="node7" class="node">
<title>dir_861235930d37b7e69b87d8b38e98fd1f</title>
<g id="a_node7"><a xlink:href="dir_861235930d37b7e69b87d8b38e98fd1f.html" target="_top" xlink:title="shapes">
<polygon fill="white" stroke="black" points="78,-196 24,-196 24,-160 78,-160 78,-196"/>
<text text-anchor="middle" x="51" y="-175.5" font-family="Helvetica,sans-Serif" font-size="10.00">shapes</text>
</a>
</g>
</g>
<!-- dir_861235930d37b7e69b87d8b38e98fd1f&#45;&gt;dir_a2dab9bb0dd5f48c58ec25d093c9b827 -->
<g id="edge4" class="edge">
<title>dir_861235930d37b7e69b87d8b38e98fd1f&#45;&gt;dir_a2dab9bb0dd5f48c58ec25d093c9b827</title>
<path fill="none" stroke="black" d="M60.89,-159.7C65.49,-151.64 71.06,-141.89 76.15,-132.98"/>
<polygon fill="black" stroke="black" points="79.3,-134.52 81.23,-124.1 73.23,-131.05 79.3,-134.52"/>
<g id="a_edge4&#45;headlabel"><a xlink:href="dir_000007_000003.html" target="_top" xlink:title="2">
<text text-anchor="middle" x="79.99" y="-136.55" font-family="Helvetica,sans-Serif" font-size="10.00">2</text>
</a>
</g>
</g>
<!-- dir_41977ff68a693afa9cc0a1f245abbf84&#45;&gt;dir_a2dab9bb0dd5f48c58ec25d093c9b827 -->
<g id="edge3" class="edge">
<title>dir_41977ff68a693afa9cc0a1f245abbf84&#45;&gt;dir_a2dab9bb0dd5f48c58ec25d093c9b827</title>
<path fill="none" stroke="black" d="M68.34,-231.91C75.26,-222 83.07,-208.96 87,-196 93.08,-175.92 93.84,-152.14 93.21,-134.21"/>
<polygon fill="black" stroke="black" points="96.7,-133.96 92.69,-124.15 89.71,-134.32 96.7,-133.96"/>
<g id="a_edge3&#45;headlabel"><a xlink:href="dir_000008_000003.html" target="_top" xlink:title="5">
<text text-anchor="middle" x="99.72" y="-134.9" font-family="Helvetica,sans-Serif" font-size="10.00">5</text>
</a>
</g>
</g>
<!-- dir_41977ff68a693afa9cc0a1f245abbf84&#45;&gt;dir_861235930d37b7e69b87d8b38e98fd1f -->
<g id="edge2" class="edge">
<title>dir_41977ff68a693afa9cc0a1f245abbf84&#45;&gt;dir_861235930d37b7e69b87d8b38e98fd1f</title>
<path fill="none" stroke="black" d="M54.01,-231.7C53.57,-223.98 53.04,-214.71 52.55,-206.11"/>
<polygon fill="black" stroke="black" points="56.04,-205.89 51.98,-196.1 49.05,-206.29 56.04,-205.89"/>
<g id="a_edge2&#45;headlabel"><a xlink:href="dir_000008_000007.html" target="_top" xlink:title="2">
<text text-anchor="middle" x="59.08" y="-206.82" font-family="Helvetica,sans-Serif" font-size="10.00">2</text>
</a>
</g>
</g>
</g>
</svg>
        <g id="navigator" transform="translate(0 0)" fill="#404254">
                <rect fill="#f2f5e9" fill-opacity="0.5" stroke="#606060" stroke-width=".5" x="0" y="0" width="60" height="60"/>
                <use id="zoomplus" xlink:href="#zoomPlus" x="17" y="9" onmousedown="handleZoom(evt,'in')"/>
                <use id="zoomminus" xlink:href="#zoomMin" x="42" y="9" onmousedown="handleZoom(evt,'out')"/>
                <use id="reset" xlink:href="#resetDef" x="30" y="36" onmousedown="handleReset()"/>
                <g id="arrowUp" xlink:href="#dirArrow" transform="translate(30 24)" onmousedown="handlePan(0,-1)">
                  <use xlink:href="#rim" fill="#404040">
                        <set attributeName="fill" to="#808080" begin="arrowUp.mouseover" end="arrowUp.mouseout"/>
                  </use>
                  <path fill="none" stroke="white" stroke-width="1.5" d="M0,-3.0v7 M-2.5,-0.5L0,-3.0L2.5,-0.5"/>
                </g>
                <g id="arrowRight" xlink:href="#dirArrow" transform="rotate(90) translate(36 -43)" onmousedown="handlePan(1,0)">
                  <use xlink:href="#rim" fill="#404040">
                        <set attributeName="fill" to="#808080" begin="arrowRight.mouseover" end="arrowRight.mouseout"/>
                  </use>
                  <path fill="none" stroke="white" stroke-width="1.5" d="M0,-3.0v7 M-2.5,-0.5L0,-3.0L2.5,-0.5"/>
                </g>
                <g id="arrowDown" xlink:href="#dirArrow" transform="rotate(180) translate(-30 -48)" onmousedown="handlePan(0,1)">
                  <use xlink:href="#rim" fill="#404040">
                        <set attributeName="fill" to="#808080" begin="arrowDown.mouseover" end="arrowDown.mouseout"/>
                  </use>
                  <path fill="none" stroke="white" stroke-width="1.5" d="M0,-3.0v7 M-2.5,-0.5L0,-3.0L2.5,-0.5"/>
                </g>
                <g id="arrowLeft" xlink:href="#dirArrow" transform="rotate(270) translate(-36 17)" onmousedown="handlePan(-1,0)">
                  <use xlink:href="#rim" fill="#404040">
                        <set attributeName="fill" to="#808080" begin="arrowLeft.mouseover" end="arrowLeft.mouseout"/>
                  </use>
                  <path fill="none" stroke="white" stroke-width="1.5" d="M0,-3.0v7 M-2.5,-0.5L0,-3.0L2.5,-0.5"/>
                </g>
        </g>
        <svg viewBox="0 0 15 15" width="100%" height="30px" preserveAspectRatio="xMaxYMin meet">
         <g id="arrow_out" transform="scale(0.3 0.3)">
          <a xlink:href="dir_cb6e897cb5cd097a761323417c742ef8_dep_org.svg" target="_base">
           <rect id="button" ry="5" rx="5" y="6" x="6" height="38" width="38"
                fill="#f2f5e9" fill-opacity="0.5" stroke="#606060" stroke-width="1.0"/>
           <path id="arrow"
             d="M 11.500037,31.436501 C 11.940474,20.09759 22.043105,11.32322 32.158766,21.979434 L 37.068811,17.246167 C 37.068811,17.246167 37.088388,32 37.088388,32 L 22.160133,31.978069 C 22.160133,31.978069 26.997745,27.140456 26.997745,27.140456 C 18.528582,18.264221 13.291696,25.230495 11.500037,31.436501 z"
             style="fill:#404040;"/>
          </a>
         </g>
        </svg>
</svg>
