<?xml version="1.0" encoding="UTF-8" standalone="no"?>
<!DOCTYPE svg PUBLIC "-//W3C//DTD SVG 1.1//EN"
 "http://www.w3.org/Graphics/SVG/1.1/DTD/svg11.dtd">
<!-- Generated by graphviz version 2.50.0 (20211204.2007)
 -->
<!-- Title: containers Pages: 1 -->
<svg width="102pt" height="167pt"
 viewBox="0.00 0.00 102.00 167.00" xmlns="http://www.w3.org/2000/svg" xmlns:xlink="http://www.w3.org/1999/xlink">
<g id="graph0" class="graph" transform="scale(1 1) rotate(0) translate(4 163)">
<title>containers</title>
<polygon fill="white" stroke="transparent" points="-4,4 -4,-163 98,-163 98,4 -4,4"/>
<g id="clust1" class="cluster">
<title>clusterdir_cb6e897cb5cd097a761323417c742ef8</title>
<g id="a_clust1"><a xlink:href="dir_cb6e897cb5cd097a761323417c742ef8.html" target="_top" xlink:title="scene">
<polygon fill="#ddddee" stroke="black" points="8,-8 8,-151 86,-151 86,-8 8,-8"/>
<text text-anchor="middle" x="47" y="-139" font-family="Helvetica,sans-Serif" font-size="10.00">scene</text>
</a>
</g>
</g>
<!-- dir_c182363c8acb6698f9a7504886899590 -->
<g id="node1" class="node">
<title>dir_c182363c8acb6698f9a7504886899590</title>
<g id="a_node1"><a xlink:href="dir_c182363c8acb6698f9a7504886899590.html" target="_top" xlink:title="controls">
<polygon fill="none" stroke="black" points="74,-124 20,-124 20,-88 74,-88 74,-124"/>
<text text-anchor="middle" x="47" y="-103.5" font-family="Helvetica,sans-Serif" font-size="10.00">controls</text>
</a>
</g>
</g>
<!-- dir_057336d144638fc4c968e18d44c9d8ca -->
<g id="node2" class="node">
<title>dir_057336d144638fc4c968e18d44c9d8ca</title>
<g id="a_node2"><a xlink:href="dir_057336d144638fc4c968e18d44c9d8ca.html" target="_top" xlink:title="containers">
<polygon fill="#eeeeff" stroke="black" points="78,-52 16,-52 16,-16 78,-16 78,-52"/>
<text text-anchor="middle" x="47" y="-31.5" font-family="Helvetica,sans-Serif" font-size="10.00">containers</text>
</a>
</g>
</g>
<!-- dir_c182363c8acb6698f9a7504886899590&#45;&gt;dir_057336d144638fc4c968e18d44c9d8ca -->
<g id="edge2" class="edge">
<title>dir_c182363c8acb6698f9a7504886899590&#45;&gt;dir_057336d144638fc4c968e18d44c9d8ca</title>
<path fill="none" stroke="black" d="M41.08,-87.7C40.29,-79.98 40.06,-70.71 40.4,-62.11"/>
<polygon fill="black" stroke="black" points="43.9,-62.32 41.1,-52.1 36.92,-61.84 43.9,-62.32"/>
<g id="a_edge2&#45;headlabel"><a xlink:href="dir_000006_000005.html" target="_top" xlink:title="1">
<text text-anchor="middle" x="46.48" y="-63.61" font-family="Helvetica,sans-Serif" font-size="10.00">1</text>
</a>
</g>
</g>
<!-- dir_057336d144638fc4c968e18d44c9d8ca&#45;&gt;dir_c182363c8acb6698f9a7504886899590 -->
<g id="edge1" class="edge">
<title>dir_057336d144638fc4c968e18d44c9d8ca&#45;&gt;dir_c182363c8acb6698f9a7504886899590</title>
<path fill="none" stroke="black" d="M52.9,-52.1C53.7,-59.79 53.94,-69.05 53.6,-77.67"/>
<polygon fill="black" stroke="black" points="50.11,-77.48 52.92,-87.7 57.09,-77.96 50.11,-77.48"/>
<g id="a_edge1&#45;headlabel"><a xlink:href="dir_000005_000006.html" target="_top" xlink:title="2">
<text text-anchor="middle" x="47.52" y="-71.2" font-family="Helvetica,sans-Serif" font-size="10.00">2</text>
</a>
</g>
</g>
</g>
</svg>
