<?xml version="1.0" encoding="UTF-8" standalone="no"?>
<!DOCTYPE svg PUBLIC "-//W3C//DTD SVG 1.1//EN"
 "http://www.w3.org/Graphics/SVG/1.1/DTD/svg11.dtd">
<!-- Generated by graphviz version 2.50.0 (20211204.2007)
 -->
<!-- Title: controls Pages: 1 -->
<svg width="114pt" height="311pt"
 viewBox="0.00 0.00 114.00 311.00" xmlns="http://www.w3.org/2000/svg" xmlns:xlink="http://www.w3.org/1999/xlink">
<g id="graph0" class="graph" transform="scale(1 1) rotate(0) translate(4 307)">
<title>controls</title>
<polygon fill="white" stroke="transparent" points="-4,4 -4,-307 110,-307 110,4 -4,4"/>
<g id="clust1" class="cluster">
<title>clusterdir_cb6e897cb5cd097a761323417c742ef8</title>
<g id="a_clust1"><a xlink:href="dir_cb6e897cb5cd097a761323417c742ef8.html" target="_top" xlink:title="scene">
<polygon fill="#ddddee" stroke="black" points="8,-8 8,-295 98,-295 98,-8 8,-8"/>
<text text-anchor="middle" x="53" y="-283" font-family="Helvetica,sans-Serif" font-size="10.00">scene</text>
</a>
</g>
</g>
<!-- dir_057336d144638fc4c968e18d44c9d8ca -->
<g id="node1" class="node">
<title>dir_057336d144638fc4c968e18d44c9d8ca</title>
<g id="a_node1"><a xlink:href="dir_057336d144638fc4c968e18d44c9d8ca.html" target="_top" xlink:title="containers">
<polygon fill="none" stroke="black" points="84,-268 22,-268 22,-232 84,-232 84,-268"/>
<text text-anchor="middle" x="53" y="-247.5" font-family="Helvetica,sans-Serif" font-size="10.00">containers</text>
</a>
</g>
</g>
<!-- dir_c182363c8acb6698f9a7504886899590 -->
<g id="node4" class="node">
<title>dir_c182363c8acb6698f9a7504886899590</title>
<g id="a_node4"><a xlink:href="dir_c182363c8acb6698f9a7504886899590.html" target="_top" xlink:title="controls">
<polygon fill="#eeeeff" stroke="black" points="80,-196 26,-196 26,-160 80,-160 80,-196"/>
<text text-anchor="middle" x="53" y="-175.5" font-family="Helvetica,sans-Serif" font-size="10.00">controls</text>
</a>
</g>
</g>
<!-- dir_057336d144638fc4c968e18d44c9d8ca&#45;&gt;dir_c182363c8acb6698f9a7504886899590 -->
<g id="edge1" class="edge">
<title>dir_057336d144638fc4c968e18d44c9d8ca&#45;&gt;dir_c182363c8acb6698f9a7504886899590</title>
<path fill="none" stroke="black" d="M47.08,-231.7C46.29,-223.98 46.06,-214.71 46.4,-206.11"/>
<polygon fill="black" stroke="black" points="49.9,-206.32 47.1,-196.1 42.92,-205.84 49.9,-206.32"/>
<g id="a_edge1&#45;headlabel"><a xlink:href="dir_000005_000006.html" target="_top" xlink:title="2">
<text text-anchor="middle" x="52.48" y="-207.61" font-family="Helvetica,sans-Serif" font-size="10.00">2</text>
</a>
</g>
</g>
<!-- dir_41977ff68a693afa9cc0a1f245abbf84 -->
<g id="node2" class="node">
<title>dir_41977ff68a693afa9cc0a1f245abbf84</title>
<g id="a_node2"><a xlink:href="dir_41977ff68a693afa9cc0a1f245abbf84.html" target="_top" xlink:title="style">
<polygon fill="none" stroke="black" points="70,-124 16,-124 16,-88 70,-88 70,-124"/>
<text text-anchor="middle" x="43" y="-103.5" font-family="Helvetica,sans-Serif" font-size="10.00">style</text>
</a>
</g>
</g>
<!-- dir_861235930d37b7e69b87d8b38e98fd1f -->
<g id="node3" class="node">
<title>dir_861235930d37b7e69b87d8b38e98fd1f</title>
<g id="a_node3"><a xlink:href="dir_861235930d37b7e69b87d8b38e98fd1f.html" target="_top" xlink:title="shapes">
<polygon fill="none" stroke="black" points="80,-52 26,-52 26,-16 80,-16 80,-52"/>
<text text-anchor="middle" x="53" y="-31.5" font-family="Helvetica,sans-Serif" font-size="10.00">shapes</text>
</a>
</g>
</g>
<!-- dir_41977ff68a693afa9cc0a1f245abbf84&#45;&gt;dir_861235930d37b7e69b87d8b38e98fd1f -->
<g id="edge2" class="edge">
<title>dir_41977ff68a693afa9cc0a1f245abbf84&#45;&gt;dir_861235930d37b7e69b87d8b38e98fd1f</title>
<path fill="none" stroke="black" d="M45.47,-87.7C46.57,-79.98 47.9,-70.71 49.13,-62.11"/>
<polygon fill="black" stroke="black" points="52.61,-62.5 50.56,-52.1 45.68,-61.51 52.61,-62.5"/>
<g id="a_edge2&#45;headlabel"><a xlink:href="dir_000008_000007.html" target="_top" xlink:title="2">
<text text-anchor="middle" x="54.91" y="-63.96" font-family="Helvetica,sans-Serif" font-size="10.00">2</text>
</a>
</g>
</g>
<!-- dir_c182363c8acb6698f9a7504886899590&#45;&gt;dir_057336d144638fc4c968e18d44c9d8ca -->
<g id="edge3" class="edge">
<title>dir_c182363c8acb6698f9a7504886899590&#45;&gt;dir_057336d144638fc4c968e18d44c9d8ca</title>
<path fill="none" stroke="black" d="M58.9,-196.1C59.7,-203.79 59.94,-213.05 59.6,-221.67"/>
<polygon fill="black" stroke="black" points="56.11,-221.48 58.92,-231.7 63.09,-221.96 56.11,-221.48"/>
<g id="a_edge3&#45;headlabel"><a xlink:href="dir_000006_000005.html" target="_top" xlink:title="1">
<text text-anchor="middle" x="53.52" y="-215.2" font-family="Helvetica,sans-Serif" font-size="10.00">1</text>
</a>
</g>
</g>
<!-- dir_c182363c8acb6698f9a7504886899590&#45;&gt;dir_41977ff68a693afa9cc0a1f245abbf84 -->
<g id="edge4" class="edge">
<title>dir_c182363c8acb6698f9a7504886899590&#45;&gt;dir_41977ff68a693afa9cc0a1f245abbf84</title>
<path fill="none" stroke="black" d="M50.53,-159.7C49.43,-151.98 48.1,-142.71 46.87,-134.11"/>
<polygon fill="black" stroke="black" points="50.32,-133.51 45.44,-124.1 43.39,-134.5 50.32,-133.51"/>
<g id="a_edge4&#45;headlabel"><a xlink:href="dir_000006_000008.html" target="_top" xlink:title="2">
<text text-anchor="middle" x="53.64" y="-134.17" font-family="Helvetica,sans-Serif" font-size="10.00">2</text>
</a>
</g>
</g>
<!-- dir_c182363c8acb6698f9a7504886899590&#45;&gt;dir_861235930d37b7e69b87d8b38e98fd1f -->
<g id="edge5" class="edge">
<title>dir_c182363c8acb6698f9a7504886899590&#45;&gt;dir_861235930d37b7e69b87d8b38e98fd1f</title>
<path fill="none" stroke="black" d="M64.05,-159.61C69.74,-149.62 76.08,-136.58 79,-124 82.62,-108.41 82.62,-103.59 79,-88 76.9,-78.96 73.03,-69.68 68.91,-61.47"/>
<polygon fill="black" stroke="black" points="71.86,-59.55 64.05,-52.39 65.69,-62.86 71.86,-59.55"/>
<g id="a_edge5&#45;headlabel"><a xlink:href="dir_000006_000007.html" target="_top" xlink:title="1">
<text text-anchor="middle" x="76.06" y="-58.88" font-family="Helvetica,sans-Serif" font-size="10.00">1</text>
</a>
</g>
</g>
</g>
</svg>
