<?xml version="1.0" encoding="UTF-8" standalone="no"?>
<!DOCTYPE svg PUBLIC "-//W3C//DTD SVG 1.1//EN"
 "http://www.w3.org/Graphics/SVG/1.1/DTD/svg11.dtd">
<!-- Generated by graphviz version 2.50.0 (20211204.2007)
 -->
<!-- Title: fill.cpp Pages: 1 -->
<svg width="484pt" height="162pt"
 viewBox="0.00 0.00 484.00 162.00" xmlns="http://www.w3.org/2000/svg" xmlns:xlink="http://www.w3.org/1999/xlink">
<g id="graph0" class="graph" transform="scale(1 1) rotate(0) translate(4 158)">
<title>fill.cpp</title>
<polygon fill="white" stroke="transparent" points="-4,4 -4,-158 480,-158 480,4 -4,4"/>
<!-- Node1 -->
<g id="node1" class="node">
<title>Node1</title>
<g id="a_node1"><a xlink:title=" ">
<polygon fill="#bfbfbf" stroke="black" points="107.5,-134.5 107.5,-153.5 152.5,-153.5 152.5,-134.5 107.5,-134.5"/>
<text text-anchor="middle" x="130" y="-141.5" font-family="Helvetica,sans-Serif" font-size="10.00">fill.cpp</text>
</a>
</g>
</g>
<!-- Node2 -->
<g id="node2" class="node">
<title>Node2</title>
<g id="a_node2"><a xlink:title=" ">
<polygon fill="white" stroke="#bfbfbf" points="0,-73 0,-92 56,-92 56,-73 0,-73"/>
<text text-anchor="middle" x="28" y="-80" font-family="Helvetica,sans-Serif" font-size="10.00">algorithm</text>
</a>
</g>
</g>
<!-- Node1&#45;&gt;Node2 -->
<g id="edge1" class="edge">
<title>Node1&#45;&gt;Node2</title>
<path fill="none" stroke="midnightblue" d="M115.39,-134.48C98.65,-124.71 71,-108.58 51.28,-97.08"/>
<polygon fill="midnightblue" stroke="midnightblue" points="52.99,-94.02 42.59,-92.01 49.46,-100.07 52.99,-94.02"/>
</g>
<!-- Node3 -->
<g id="node3" class="node">
<title>Node3</title>
<g id="a_node3"><a xlink:title=" ">
<polygon fill="white" stroke="#bfbfbf" points="74,-67.5 74,-97.5 186,-97.5 186,-67.5 74,-67.5"/>
<text text-anchor="start" x="82" y="-85.5" font-family="Helvetica,sans-Serif" font-size="10.00">sml/graphics_wrapper</text>
<text text-anchor="middle" x="130" y="-74.5" font-family="Helvetica,sans-Serif" font-size="10.00">/primitives.h</text>
</a>
</g>
</g>
<!-- Node1&#45;&gt;Node3 -->
<g id="edge2" class="edge">
<title>Node1&#45;&gt;Node3</title>
<path fill="none" stroke="midnightblue" d="M130,-134.48C130,-127.47 130,-117.19 130,-107.7"/>
<polygon fill="midnightblue" stroke="midnightblue" points="133.5,-107.52 130,-97.52 126.5,-107.52 133.5,-107.52"/>
</g>
<!-- Node4 -->
<g id="node4" class="node">
<title>Node4</title>
<g id="a_node4"><a xlink:href="fill_8h.html" target="_top" xlink:title=" ">
<polygon fill="white" stroke="black" points="204.5,-73 204.5,-92 263.5,-92 263.5,-73 204.5,-73"/>
<text text-anchor="middle" x="234" y="-80" font-family="Helvetica,sans-Serif" font-size="10.00">paint/fill.h</text>
</a>
</g>
</g>
<!-- Node1&#45;&gt;Node4 -->
<g id="edge3" class="edge">
<title>Node1&#45;&gt;Node4</title>
<path fill="none" stroke="midnightblue" d="M144.9,-134.48C161.97,-124.71 190.16,-108.58 210.26,-97.08"/>
<polygon fill="midnightblue" stroke="midnightblue" points="212.19,-100.01 219.13,-92.01 208.71,-93.94 212.19,-100.01"/>
</g>
<!-- Node5 -->
<g id="node5" class="node">
<title>Node5</title>
<g id="a_node5"><a xlink:title=" ">
<polygon fill="white" stroke="#bfbfbf" points="68,-6 68,-25 112,-25 112,-6 68,-6"/>
<text text-anchor="middle" x="90" y="-13" font-family="Helvetica,sans-Serif" font-size="10.00">vector</text>
</a>
</g>
</g>
<!-- Node4&#45;&gt;Node5 -->
<g id="edge4" class="edge">
<title>Node4&#45;&gt;Node5</title>
<path fill="none" stroke="midnightblue" d="M214.97,-72.93C192.68,-62.9 154.65,-45.76 122,-31 120.81,-30.46 119.6,-29.91 118.37,-29.36"/>
<polygon fill="midnightblue" stroke="midnightblue" points="119.5,-26.03 108.95,-25.09 116.62,-32.41 119.5,-26.03"/>
</g>
<!-- Node6 -->
<g id="node6" class="node">
<title>Node6</title>
<g id="a_node6"><a xlink:title=" ">
<polygon fill="white" stroke="#bfbfbf" points="130.5,-6 130.5,-25 219.5,-25 219.5,-6 130.5,-6"/>
<text text-anchor="middle" x="175" y="-13" font-family="Helvetica,sans-Serif" font-size="10.00">sml/math/vec2.h</text>
</a>
</g>
</g>
<!-- Node4&#45;&gt;Node6 -->
<g id="edge5" class="edge">
<title>Node4&#45;&gt;Node6</title>
<path fill="none" stroke="midnightblue" d="M226.04,-72.73C216.75,-62.5 201.2,-45.36 189.7,-32.69"/>
<polygon fill="midnightblue" stroke="midnightblue" points="192.14,-30.18 182.83,-25.13 186.96,-34.88 192.14,-30.18"/>
</g>
<!-- Node7 -->
<g id="node7" class="node">
<title>Node7</title>
<g id="a_node7"><a xlink:title=" ">
<polygon fill="white" stroke="#bfbfbf" points="238,-6 238,-25 346,-25 346,-6 238,-6"/>
<text text-anchor="middle" x="292" y="-13" font-family="Helvetica,sans-Serif" font-size="10.00">sml/math/rectangle.h</text>
</a>
</g>
</g>
<!-- Node4&#45;&gt;Node7 -->
<g id="edge6" class="edge">
<title>Node4&#45;&gt;Node7</title>
<path fill="none" stroke="midnightblue" d="M241.82,-72.73C250.95,-62.5 266.24,-45.36 277.55,-32.69"/>
<polygon fill="midnightblue" stroke="midnightblue" points="280.26,-34.92 284.3,-25.13 275.03,-30.26 280.26,-34.92"/>
</g>
<!-- Node8 -->
<g id="node8" class="node">
<title>Node8</title>
<g id="a_node8"><a xlink:title=" ">
<polygon fill="white" stroke="#bfbfbf" points="364,-0.5 364,-30.5 476,-30.5 476,-0.5 364,-0.5"/>
<text text-anchor="start" x="372" y="-18.5" font-family="Helvetica,sans-Serif" font-size="10.00">sml/graphics_wrapper</text>
<text text-anchor="middle" x="420" y="-7.5" font-family="Helvetica,sans-Serif" font-size="10.00">/texture.h</text>
</a>
</g>
</g>
<!-- Node4&#45;&gt;Node8 -->
<g id="edge7" class="edge">
<title>Node4&#45;&gt;Node8</title>
<path fill="none" stroke="midnightblue" d="M258.7,-72.87C286.97,-62.99 334.01,-46.55 370.02,-33.97"/>
<polygon fill="midnightblue" stroke="midnightblue" points="371.57,-37.13 379.86,-30.53 369.26,-30.52 371.57,-37.13"/>
</g>
</g>
</svg>
