<?xml version="1.0" encoding="UTF-8" standalone="no"?>
<!DOCTYPE svg PUBLIC "-//W3C//DTD SVG 1.1//EN"
 "http://www.w3.org/Graphics/SVG/1.1/DTD/svg11.dtd">
<!-- Generated by graphviz version 2.50.0 (20211204.2007)
 -->
<!-- Title: fill.h Pages: 1 -->
<svg width="458pt" height="84pt"
 viewBox="0.00 0.00 457.50 84.00" xmlns="http://www.w3.org/2000/svg" xmlns:xlink="http://www.w3.org/1999/xlink">
<g id="graph0" class="graph" transform="scale(1 1) rotate(0) translate(4 80)">
<title>fill.h</title>
<polygon fill="white" stroke="transparent" points="-4,4 -4,-80 453.5,-80 453.5,4 -4,4"/>
<!-- Node1 -->
<g id="node1" class="node">
<title>Node1</title>
<g id="a_node1"><a xlink:title=" ">
<polygon fill="#bfbfbf" stroke="black" points="147.5,-56.5 147.5,-75.5 182.5,-75.5 182.5,-56.5 147.5,-56.5"/>
<text text-anchor="middle" x="165" y="-63.5" font-family="Helvetica,sans-Serif" font-size="10.00">fill.h</text>
</a>
</g>
</g>
<!-- Node2 -->
<g id="node2" class="node">
<title>Node2</title>
<g id="a_node2"><a xlink:title=" ">
<polygon fill="white" stroke="#bfbfbf" points="0,-0.5 0,-19.5 44,-19.5 44,-0.5 0,-0.5"/>
<text text-anchor="middle" x="22" y="-7.5" font-family="Helvetica,sans-Serif" font-size="10.00">vector</text>
</a>
</g>
</g>
<!-- Node1&#45;&gt;Node2 -->
<g id="edge1" class="edge">
<title>Node1&#45;&gt;Node2</title>
<path fill="none" stroke="midnightblue" d="M147.47,-58.38C124.25,-49.61 82.88,-33.99 54.02,-23.09"/>
<polygon fill="midnightblue" stroke="midnightblue" points="54.97,-19.71 44.38,-19.45 52.5,-26.26 54.97,-19.71"/>
</g>
<!-- Node3 -->
<g id="node3" class="node">
<title>Node3</title>
<g id="a_node3"><a xlink:title=" ">
<polygon fill="white" stroke="#bfbfbf" points="62.5,-0.5 62.5,-19.5 151.5,-19.5 151.5,-0.5 62.5,-0.5"/>
<text text-anchor="middle" x="107" y="-7.5" font-family="Helvetica,sans-Serif" font-size="10.00">sml/math/vec2.h</text>
</a>
</g>
</g>
<!-- Node1&#45;&gt;Node3 -->
<g id="edge2" class="edge">
<title>Node1&#45;&gt;Node3</title>
<path fill="none" stroke="midnightblue" d="M155.68,-56.32C147.11,-48.34 134.19,-36.31 123.81,-26.65"/>
<polygon fill="midnightblue" stroke="midnightblue" points="126.19,-24.09 116.49,-19.83 121.42,-29.21 126.19,-24.09"/>
</g>
<!-- Node4 -->
<g id="node4" class="node">
<title>Node4</title>
<g id="a_node4"><a xlink:title=" ">
<polygon fill="white" stroke="#bfbfbf" points="170,-0.5 170,-19.5 278,-19.5 278,-0.5 170,-0.5"/>
<text text-anchor="middle" x="224" y="-7.5" font-family="Helvetica,sans-Serif" font-size="10.00">sml/math/rectangle.h</text>
</a>
</g>
</g>
<!-- Node1&#45;&gt;Node4 -->
<g id="edge3" class="edge">
<title>Node1&#45;&gt;Node4</title>
<path fill="none" stroke="midnightblue" d="M174.48,-56.32C183.2,-48.34 196.34,-36.31 206.9,-26.65"/>
<polygon fill="midnightblue" stroke="midnightblue" points="209.33,-29.17 214.35,-19.83 204.61,-24 209.33,-29.17"/>
</g>
<!-- Node5 -->
<g id="node5" class="node">
<title>Node5</title>
<g id="a_node5"><a xlink:title=" ">
<polygon fill="white" stroke="#bfbfbf" points="296.5,-0.5 296.5,-19.5 449.5,-19.5 449.5,-0.5 296.5,-0.5"/>
<text text-anchor="middle" x="373" y="-7.5" font-family="Helvetica,sans-Serif" font-size="10.00">sml/graphics_wrapper/texture.h</text>
</a>
</g>
</g>
<!-- Node1&#45;&gt;Node5 -->
<g id="edge4" class="edge">
<title>Node1&#45;&gt;Node5</title>
<path fill="none" stroke="midnightblue" d="M182.73,-60.4C215.16,-51.98 284.84,-33.89 330.27,-22.09"/>
<polygon fill="midnightblue" stroke="midnightblue" points="331.34,-25.43 340.14,-19.53 329.58,-18.66 331.34,-25.43"/>
</g>
</g>
</svg>
