<?xml version="1.0" encoding="UTF-8" standalone="no"?>
<!DOCTYPE svg PUBLIC "-//W3C//DTD SVG 1.1//EN"
 "http://www.w3.org/Graphics/SVG/1.1/DTD/svg11.dtd">
<!-- Generated by graphviz version 2.50.0 (20211204.2007)
 -->
<!-- Title: fill.h Pages: 1 -->
<svg width="1430pt" height="476pt"
 viewBox="0.00 0.00 1429.50 476.00" xmlns="http://www.w3.org/2000/svg" xmlns:xlink="http://www.w3.org/1999/xlink">
<g id="graph0" class="graph" transform="scale(1 1) rotate(0) translate(4 472)">
<title>fill.h</title>
<polygon fill="white" stroke="transparent" points="-4,4 -4,-472 1425.5,-472 1425.5,4 -4,4"/>
<!-- Node1 -->
<g id="node1" class="node">
<title>Node1</title>
<g id="a_node1"><a xlink:title=" ">
<polygon fill="#bfbfbf" stroke="black" points="347.5,-448.5 347.5,-467.5 382.5,-467.5 382.5,-448.5 347.5,-448.5"/>
<text text-anchor="middle" x="365" y="-455.5" font-family="Helvetica,sans-Serif" font-size="10.00">fill.h</text>
</a>
</g>
</g>
<!-- Node2 -->
<g id="node2" class="node">
<title>Node2</title>
<g id="a_node2"><a xlink:href="background_8cpp.html" target="_top" xlink:title=" ">
<polygon fill="white" stroke="black" points="235,-336.5 235,-355.5 321,-355.5 321,-336.5 235,-336.5"/>
<text text-anchor="middle" x="278" y="-343.5" font-family="Helvetica,sans-Serif" font-size="10.00">background.cpp</text>
</a>
</g>
</g>
<!-- Node1&#45;&gt;Node2 -->
<g id="edge1" class="edge">
<title>Node1&#45;&gt;Node2</title>
<path fill="none" stroke="midnightblue" d="M347.01,-441.77C337.78,-433.48 326.67,-422.74 318,-412 303.01,-393.45 289.33,-368.85 282.52,-355.88"/>
<polygon fill="midnightblue" stroke="midnightblue" points="344.71,-444.41 354.54,-448.37 349.33,-439.15 344.71,-444.41"/>
</g>
<!-- Node3 -->
<g id="node3" class="node">
<title>Node3</title>
<g id="a_node3"><a xlink:href="background_8h.html" target="_top" xlink:title=" ">
<polygon fill="white" stroke="black" points="327.5,-392.5 327.5,-411.5 402.5,-411.5 402.5,-392.5 327.5,-392.5"/>
<text text-anchor="middle" x="365" y="-399.5" font-family="Helvetica,sans-Serif" font-size="10.00">background.h</text>
</a>
</g>
</g>
<!-- Node1&#45;&gt;Node3 -->
<g id="edge2" class="edge">
<title>Node1&#45;&gt;Node3</title>
<path fill="none" stroke="midnightblue" d="M365,-437.8C365,-428.91 365,-418.78 365,-411.75"/>
<polygon fill="midnightblue" stroke="midnightblue" points="361.5,-438.08 365,-448.08 368.5,-438.08 361.5,-438.08"/>
</g>
<!-- Node45 -->
<g id="node45" class="node">
<title>Node45</title>
<g id="a_node45"><a xlink:href="fill_8cpp.html" target="_top" xlink:title=" ">
<polygon fill="white" stroke="black" points="420.5,-392.5 420.5,-411.5 465.5,-411.5 465.5,-392.5 420.5,-392.5"/>
<text text-anchor="middle" x="443" y="-399.5" font-family="Helvetica,sans-Serif" font-size="10.00">fill.cpp</text>
</a>
</g>
</g>
<!-- Node1&#45;&gt;Node45 -->
<g id="edge63" class="edge">
<title>Node1&#45;&gt;Node45</title>
<path fill="none" stroke="midnightblue" d="M385.77,-442.62C400.02,-432.76 418.46,-419.99 430.5,-411.65"/>
<polygon fill="midnightblue" stroke="midnightblue" points="383.76,-439.75 377.53,-448.32 387.75,-445.51 383.76,-439.75"/>
</g>
<!-- Node3&#45;&gt;Node2 -->
<g id="edge3" class="edge">
<title>Node3&#45;&gt;Node2</title>
<path fill="none" stroke="midnightblue" d="M342.28,-386.9C326.33,-377 305.5,-364.07 291.94,-355.65"/>
<polygon fill="midnightblue" stroke="midnightblue" points="340.68,-390.02 351.02,-392.32 344.37,-384.08 340.68,-390.02"/>
</g>
<!-- Node4 -->
<g id="node4" class="node">
<title>Node4</title>
<g id="a_node4"><a xlink:href="default__skins_8h.html" target="_top" xlink:title=" ">
<polygon fill="white" stroke="black" points="1090.5,-224.5 1090.5,-243.5 1173.5,-243.5 1173.5,-224.5 1090.5,-224.5"/>
<text text-anchor="middle" x="1132" y="-231.5" font-family="Helvetica,sans-Serif" font-size="10.00">default_skins.h</text>
</a>
</g>
</g>
<!-- Node3&#45;&gt;Node4 -->
<g id="edge4" class="edge">
<title>Node3&#45;&gt;Node4</title>
<path fill="none" stroke="midnightblue" d="M412.74,-391.67C622.04,-350.95 677.27,-346.56 882,-300 961.81,-281.85 1054.88,-256.54 1101.75,-243.51"/>
<polygon fill="midnightblue" stroke="midnightblue" points="411.8,-388.28 402.66,-393.63 413.14,-395.15 411.8,-388.28"/>
</g>
<!-- Node18 -->
<g id="node18" class="node">
<title>Node18</title>
<g id="a_node18"><a xlink:href="parent_8h.html" target="_top" xlink:title=" ">
<polygon fill="white" stroke="black" points="339,-336.5 339,-355.5 391,-355.5 391,-336.5 339,-336.5"/>
<text text-anchor="middle" x="365" y="-343.5" font-family="Helvetica,sans-Serif" font-size="10.00">parent.h</text>
</a>
</g>
</g>
<!-- Node3&#45;&gt;Node18 -->
<g id="edge21" class="edge">
<title>Node3&#45;&gt;Node18</title>
<path fill="none" stroke="midnightblue" d="M365,-381.8C365,-372.91 365,-362.78 365,-355.75"/>
<polygon fill="midnightblue" stroke="midnightblue" points="361.5,-382.08 365,-392.08 368.5,-382.08 361.5,-382.08"/>
</g>
<!-- Node38 -->
<g id="node38" class="node">
<title>Node38</title>
<g id="a_node38"><a xlink:href="shape_8h.html" target="_top" xlink:title=" ">
<polygon fill="white" stroke="black" points="1137.5,-336.5 1137.5,-355.5 1188.5,-355.5 1188.5,-336.5 1137.5,-336.5"/>
<text text-anchor="middle" x="1163" y="-343.5" font-family="Helvetica,sans-Serif" font-size="10.00">shape.h</text>
</a>
</g>
</g>
<!-- Node3&#45;&gt;Node38 -->
<g id="edge53" class="edge">
<title>Node3&#45;&gt;Node38</title>
<path fill="none" stroke="midnightblue" d="M412.83,-392.05C521.07,-380.74 1018.59,-354.52 1137.46,-348.33"/>
<polygon fill="midnightblue" stroke="midnightblue" points="412.13,-388.6 402.59,-393.22 412.92,-395.56 412.13,-388.6"/>
</g>
<!-- Node5 -->
<g id="node5" class="node">
<title>Node5</title>
<g id="a_node5"><a xlink:href="button_8h.html" target="_top" xlink:title=" ">
<polygon fill="white" stroke="black" points="1160,-168.5 1160,-187.5 1212,-187.5 1212,-168.5 1160,-168.5"/>
<text text-anchor="middle" x="1186" y="-175.5" font-family="Helvetica,sans-Serif" font-size="10.00">button.h</text>
</a>
</g>
</g>
<!-- Node4&#45;&gt;Node5 -->
<g id="edge5" class="edge">
<title>Node4&#45;&gt;Node5</title>
<path fill="none" stroke="midnightblue" d="M1148,-217C1157.57,-207.43 1169.36,-195.64 1177.25,-187.75"/>
<polygon fill="midnightblue" stroke="midnightblue" points="1145.51,-214.54 1140.92,-224.08 1150.46,-219.49 1145.51,-214.54"/>
</g>
<!-- Node8 -->
<g id="node8" class="node">
<title>Node8</title>
<g id="a_node8"><a xlink:href="default__skins_8cpp.html" target="_top" xlink:title=" ">
<polygon fill="white" stroke="black" points="848.5,-112.5 848.5,-131.5 941.5,-131.5 941.5,-112.5 848.5,-112.5"/>
<text text-anchor="middle" x="895" y="-119.5" font-family="Helvetica,sans-Serif" font-size="10.00">default_skins.cpp</text>
</a>
</g>
</g>
<!-- Node4&#45;&gt;Node8 -->
<g id="edge16" class="edge">
<title>Node4&#45;&gt;Node8</title>
<path fill="none" stroke="midnightblue" d="M1131.54,-214.42C1130.16,-199.74 1125.81,-179.81 1113,-168 1088.5,-145.4 998.03,-132.83 941.63,-127.03"/>
<polygon fill="midnightblue" stroke="midnightblue" points="1128.05,-214.62 1132.12,-224.4 1135.04,-214.22 1128.05,-214.62"/>
</g>
<!-- Node14 -->
<g id="node14" class="node">
<title>Node14</title>
<g id="a_node14"><a xlink:href="scroll__bar_8cpp.html" target="_top" xlink:title=" ">
<polygon fill="white" stroke="black" points="770.5,-168.5 770.5,-187.5 847.5,-187.5 847.5,-168.5 770.5,-168.5"/>
<text text-anchor="middle" x="809" y="-175.5" font-family="Helvetica,sans-Serif" font-size="10.00">scroll_bar.cpp</text>
</a>
</g>
</g>
<!-- Node4&#45;&gt;Node14 -->
<g id="edge17" class="edge">
<title>Node4&#45;&gt;Node14</title>
<path fill="none" stroke="midnightblue" d="M1080.24,-223.88C990.98,-208.66 898.63,-193.55 847.76,-185.28"/>
<polygon fill="midnightblue" stroke="midnightblue" points="1079.81,-227.36 1090.26,-225.6 1080.99,-220.46 1079.81,-227.36"/>
</g>
<!-- Node15 -->
<g id="node15" class="node">
<title>Node15</title>
<g id="a_node15"><a xlink:href="scroll__pane_8cpp.html" target="_top" xlink:title=" ">
<polygon fill="white" stroke="black" points="942.5,-168.5 942.5,-187.5 1027.5,-187.5 1027.5,-168.5 942.5,-168.5"/>
<text text-anchor="middle" x="985" y="-175.5" font-family="Helvetica,sans-Serif" font-size="10.00">scroll_pane.cpp</text>
</a>
</g>
</g>
<!-- Node4&#45;&gt;Node15 -->
<g id="edge18" class="edge">
<title>Node4&#45;&gt;Node15</title>
<path fill="none" stroke="midnightblue" d="M1099.08,-220.91C1071.44,-210.75 1032.66,-196.51 1008.18,-187.52"/>
<polygon fill="midnightblue" stroke="midnightblue" points="1098.11,-224.28 1108.71,-224.44 1100.53,-217.71 1098.11,-224.28"/>
</g>
<!-- Node16 -->
<g id="node16" class="node">
<title>Node16</title>
<g id="a_node16"><a xlink:href="slider_8cpp.html" target="_top" xlink:title=" ">
<polygon fill="white" stroke="black" points="1046,-168.5 1046,-187.5 1104,-187.5 1104,-168.5 1046,-168.5"/>
<text text-anchor="middle" x="1075" y="-175.5" font-family="Helvetica,sans-Serif" font-size="10.00">slider.cpp</text>
</a>
</g>
</g>
<!-- Node4&#45;&gt;Node16 -->
<g id="edge19" class="edge">
<title>Node4&#45;&gt;Node16</title>
<path fill="none" stroke="midnightblue" d="M1115.38,-217.25C1105.27,-207.67 1092.72,-195.79 1084.32,-187.83"/>
<polygon fill="midnightblue" stroke="midnightblue" points="1113.18,-219.99 1122.84,-224.32 1117.99,-214.91 1113.18,-219.99"/>
</g>
<!-- Node17 -->
<g id="node17" class="node">
<title>Node17</title>
<g id="a_node17"><a xlink:href="text_8cpp.html" target="_top" xlink:title=" ">
<polygon fill="white" stroke="black" points="1269,-168.5 1269,-187.5 1321,-187.5 1321,-168.5 1269,-168.5"/>
<text text-anchor="middle" x="1295" y="-175.5" font-family="Helvetica,sans-Serif" font-size="10.00">text.cpp</text>
</a>
</g>
</g>
<!-- Node4&#45;&gt;Node17 -->
<g id="edge20" class="edge">
<title>Node4&#45;&gt;Node17</title>
<path fill="none" stroke="midnightblue" d="M1167.7,-221.17C1198.4,-211 1241.92,-196.59 1269.29,-187.52"/>
<polygon fill="midnightblue" stroke="midnightblue" points="1166.22,-217.98 1157.83,-224.44 1168.42,-224.62 1166.22,-217.98"/>
</g>
<!-- Node6 -->
<g id="node6" class="node">
<title>Node6</title>
<g id="a_node6"><a xlink:href="button_8cpp.html" target="_top" xlink:title=" ">
<polygon fill="white" stroke="black" points="1155,-112.5 1155,-131.5 1217,-131.5 1217,-112.5 1155,-112.5"/>
<text text-anchor="middle" x="1186" y="-119.5" font-family="Helvetica,sans-Serif" font-size="10.00">button.cpp</text>
</a>
</g>
</g>
<!-- Node5&#45;&gt;Node6 -->
<g id="edge6" class="edge">
<title>Node5&#45;&gt;Node6</title>
<path fill="none" stroke="midnightblue" d="M1186,-157.8C1186,-148.91 1186,-138.78 1186,-131.75"/>
<polygon fill="midnightblue" stroke="midnightblue" points="1182.5,-158.08 1186,-168.08 1189.5,-158.08 1182.5,-158.08"/>
</g>
<!-- Node7 -->
<g id="node7" class="node">
<title>Node7</title>
<g id="a_node7"><a xlink:href="context__menu_8cpp.html" target="_top" xlink:title=" ">
<polygon fill="white" stroke="black" points="545.5,-0.5 545.5,-19.5 642.5,-19.5 642.5,-0.5 545.5,-0.5"/>
<text text-anchor="middle" x="594" y="-7.5" font-family="Helvetica,sans-Serif" font-size="10.00">context_menu.cpp</text>
</a>
</g>
</g>
<!-- Node5&#45;&gt;Node7 -->
<g id="edge7" class="edge">
<title>Node5&#45;&gt;Node7</title>
<path fill="none" stroke="midnightblue" d="M1150.06,-166.92C1042.49,-136.76 724.34,-47.55 624.4,-19.52"/>
<polygon fill="midnightblue" stroke="midnightblue" points="1149.23,-170.32 1159.8,-169.65 1151.12,-163.58 1149.23,-170.32"/>
</g>
<!-- Node5&#45;&gt;Node8 -->
<g id="edge8" class="edge">
<title>Node5&#45;&gt;Node8</title>
<path fill="none" stroke="midnightblue" d="M1149.82,-168.79C1148.53,-168.52 1147.26,-168.25 1146,-168 1075.05,-153.67 992.34,-139.29 941.84,-130.77"/>
<polygon fill="midnightblue" stroke="midnightblue" points="1149.27,-172.25 1159.79,-170.93 1150.75,-165.4 1149.27,-172.25"/>
</g>
<!-- Node9 -->
<g id="node9" class="node">
<title>Node9</title>
<g id="a_node9"><a xlink:href="menu__bar_8h.html" target="_top" xlink:title=" ">
<polygon fill="white" stroke="black" points="642.5,-112.5 642.5,-131.5 709.5,-131.5 709.5,-112.5 642.5,-112.5"/>
<text text-anchor="middle" x="676" y="-119.5" font-family="Helvetica,sans-Serif" font-size="10.00">menu_bar.h</text>
</a>
</g>
</g>
<!-- Node5&#45;&gt;Node9 -->
<g id="edge9" class="edge">
<title>Node5&#45;&gt;Node9</title>
<path fill="none" stroke="midnightblue" d="M1149.41,-172.34C1137.77,-170.9 1124.85,-169.34 1113,-168 962.75,-151 783.14,-133.34 709.74,-126.24"/>
<polygon fill="midnightblue" stroke="midnightblue" points="1149.3,-175.86 1159.66,-173.62 1150.17,-168.91 1149.3,-175.86"/>
</g>
<!-- Node10 -->
<g id="node10" class="node">
<title>Node10</title>
<g id="a_node10"><a xlink:href="menu__bar_8cpp.html" target="_top" xlink:title=" ">
<polygon fill="white" stroke="black" points="660.5,-0.5 660.5,-19.5 737.5,-19.5 737.5,-0.5 660.5,-0.5"/>
<text text-anchor="middle" x="699" y="-7.5" font-family="Helvetica,sans-Serif" font-size="10.00">menu_bar.cpp</text>
</a>
</g>
</g>
<!-- Node9&#45;&gt;Node10 -->
<g id="edge10" class="edge">
<title>Node9&#45;&gt;Node10</title>
<path fill="none" stroke="midnightblue" d="M679.9,-102.35C684.94,-78.25 693.5,-37.31 697.2,-19.59"/>
<polygon fill="midnightblue" stroke="midnightblue" points="676.43,-101.86 677.8,-112.37 683.28,-103.3 676.43,-101.86"/>
</g>
<!-- Node11 -->
<g id="node11" class="node">
<title>Node11</title>
<g id="a_node11"><a xlink:href="scene_8h.html" target="_top" xlink:title=" ">
<polygon fill="white" stroke="black" points="619.5,-56.5 619.5,-75.5 670.5,-75.5 670.5,-56.5 619.5,-56.5"/>
<text text-anchor="middle" x="645" y="-63.5" font-family="Helvetica,sans-Serif" font-size="10.00">scene.h</text>
</a>
</g>
</g>
<!-- Node9&#45;&gt;Node11 -->
<g id="edge11" class="edge">
<title>Node9&#45;&gt;Node11</title>
<path fill="none" stroke="midnightblue" d="M665.82,-103.27C660.53,-94.05 654.28,-83.17 650.02,-75.75"/>
<polygon fill="midnightblue" stroke="midnightblue" points="662.87,-105.15 670.88,-112.08 668.94,-101.67 662.87,-105.15"/>
</g>
<!-- Node11&#45;&gt;Node7 -->
<g id="edge13" class="edge">
<title>Node11&#45;&gt;Node7</title>
<path fill="none" stroke="midnightblue" d="M629.62,-48.72C620.63,-39.2 609.64,-27.56 602.26,-19.75"/>
<polygon fill="midnightblue" stroke="midnightblue" points="627.17,-51.22 636.58,-56.08 632.26,-46.41 627.17,-51.22"/>
</g>
<!-- Node11&#45;&gt;Node10 -->
<g id="edge14" class="edge">
<title>Node11&#45;&gt;Node10</title>
<path fill="none" stroke="midnightblue" d="M661,-49C670.57,-39.43 682.36,-27.64 690.25,-19.75"/>
<polygon fill="midnightblue" stroke="midnightblue" points="658.51,-46.54 653.92,-56.08 663.46,-51.49 658.51,-46.54"/>
</g>
<!-- Node12 -->
<g id="node12" class="node">
<title>Node12</title>
<g id="a_node12"><a xlink:href="component_8cpp.html" target="_top" xlink:title=" ">
<polygon fill="white" stroke="black" points="96.5,-0.5 96.5,-19.5 179.5,-19.5 179.5,-0.5 96.5,-0.5"/>
<text text-anchor="middle" x="138" y="-7.5" font-family="Helvetica,sans-Serif" font-size="10.00">component.cpp</text>
</a>
</g>
</g>
<!-- Node11&#45;&gt;Node12 -->
<g id="edge12" class="edge">
<title>Node11&#45;&gt;Node12</title>
<path fill="none" stroke="midnightblue" d="M609.03,-61.17C517.65,-51.44 276.95,-25.8 179.67,-15.44"/>
<polygon fill="midnightblue" stroke="midnightblue" points="608.85,-64.67 619.16,-62.25 609.59,-57.71 608.85,-64.67"/>
</g>
<!-- Node13 -->
<g id="node13" class="node">
<title>Node13</title>
<g id="a_node13"><a xlink:href="scene_8cpp.html" target="_top" xlink:title=" ">
<polygon fill="white" stroke="black" points="376,-0.5 376,-19.5 438,-19.5 438,-0.5 376,-0.5"/>
<text text-anchor="middle" x="407" y="-7.5" font-family="Helvetica,sans-Serif" font-size="10.00">scene.cpp</text>
</a>
</g>
</g>
<!-- Node11&#45;&gt;Node13 -->
<g id="edge15" class="edge">
<title>Node11&#45;&gt;Node13</title>
<path fill="none" stroke="midnightblue" d="M609.13,-56.86C562.61,-46.31 482.22,-28.07 438.14,-18.07"/>
<polygon fill="midnightblue" stroke="midnightblue" points="608.55,-60.32 619.08,-59.12 610.1,-53.49 608.55,-60.32"/>
</g>
<!-- Node18&#45;&gt;Node12 -->
<g id="edge22" class="edge">
<title>Node18&#45;&gt;Node12</title>
<path fill="none" stroke="midnightblue" d="M328.79,-335.56C279.8,-322.76 198.13,-301.35 195,-300 144.59,-278.3 90,-289.88 90,-235 90,-235 90,-235 90,-121 90,-80.16 118.14,-37.38 131.33,-19.56"/>
<polygon fill="midnightblue" stroke="midnightblue" points="328.14,-339 338.7,-338.14 329.91,-332.23 328.14,-339"/>
</g>
<!-- Node18&#45;&gt;Node13 -->
<g id="edge52" class="edge">
<title>Node18&#45;&gt;Node13</title>
<path fill="none" stroke="midnightblue" d="M331.03,-333C265.5,-309.36 128,-257.11 128,-235 128,-235 128,-235 128,-121 128,-68.22 303,-30.04 375.81,-16.45"/>
<polygon fill="midnightblue" stroke="midnightblue" points="329.93,-336.33 340.53,-336.41 332.3,-329.74 329.93,-336.33"/>
</g>
<!-- Node19 -->
<g id="node19" class="node">
<title>Node19</title>
<g id="a_node19"><a xlink:href="container_8h.html" target="_top" xlink:title=" ">
<polygon fill="white" stroke="black" points="333,-280.5 333,-299.5 397,-299.5 397,-280.5 333,-280.5"/>
<text text-anchor="middle" x="365" y="-287.5" font-family="Helvetica,sans-Serif" font-size="10.00">container.h</text>
</a>
</g>
</g>
<!-- Node18&#45;&gt;Node19 -->
<g id="edge23" class="edge">
<title>Node18&#45;&gt;Node19</title>
<path fill="none" stroke="midnightblue" d="M365,-325.8C365,-316.91 365,-306.78 365,-299.75"/>
<polygon fill="midnightblue" stroke="midnightblue" points="361.5,-326.08 365,-336.08 368.5,-326.08 361.5,-326.08"/>
</g>
<!-- Node30 -->
<g id="node30" class="node">
<title>Node30</title>
<g id="a_node30"><a xlink:href="control_8h.html" target="_top" xlink:title=" ">
<polygon fill="white" stroke="black" points="819,-280.5 819,-299.5 873,-299.5 873,-280.5 819,-280.5"/>
<text text-anchor="middle" x="846" y="-287.5" font-family="Helvetica,sans-Serif" font-size="10.00">control.h</text>
</a>
</g>
</g>
<!-- Node18&#45;&gt;Node30 -->
<g id="edge37" class="edge">
<title>Node18&#45;&gt;Node30</title>
<path fill="none" stroke="midnightblue" d="M401.21,-340.94C493.73,-330.55 737.25,-303.21 818.88,-294.04"/>
<polygon fill="midnightblue" stroke="midnightblue" points="400.75,-337.46 391.2,-342.06 401.53,-344.42 400.75,-337.46"/>
</g>
<!-- Node37 -->
<g id="node37" class="node">
<title>Node37</title>
<g id="a_node37"><a xlink:href="parent_8cpp.html" target="_top" xlink:title=" ">
<polygon fill="white" stroke="black" points="0,-280.5 0,-299.5 62,-299.5 62,-280.5 0,-280.5"/>
<text text-anchor="middle" x="31" y="-287.5" font-family="Helvetica,sans-Serif" font-size="10.00">parent.cpp</text>
</a>
</g>
</g>
<!-- Node18&#45;&gt;Node37 -->
<g id="edge51" class="edge">
<title>Node18&#45;&gt;Node37</title>
<path fill="none" stroke="midnightblue" d="M328.67,-335.92C216.42,-314.06 185.21,-318.64 76,-300 71.6,-299.25 66.97,-298.4 62.43,-297.52"/>
<polygon fill="midnightblue" stroke="midnightblue" points="328.21,-339.4 338.7,-337.9 329.57,-332.53 328.21,-339.4"/>
</g>
<!-- Node20 -->
<g id="node20" class="node">
<title>Node20</title>
<g id="a_node20"><a xlink:href="box__container_8h.html" target="_top" xlink:title=" ">
<polygon fill="white" stroke="black" points="504.5,-224.5 504.5,-243.5 589.5,-243.5 589.5,-224.5 504.5,-224.5"/>
<text text-anchor="middle" x="547" y="-231.5" font-family="Helvetica,sans-Serif" font-size="10.00">box_container.h</text>
</a>
</g>
</g>
<!-- Node19&#45;&gt;Node20 -->
<g id="edge24" class="edge">
<title>Node19&#45;&gt;Node20</title>
<path fill="none" stroke="midnightblue" d="M403.53,-277.57C437.86,-267.38 487.33,-252.7 518.3,-243.52"/>
<polygon fill="midnightblue" stroke="midnightblue" points="402.43,-274.24 393.84,-280.44 404.42,-280.95 402.43,-274.24"/>
</g>
<!-- Node23 -->
<g id="node23" class="node">
<title>Node23</title>
<g id="a_node23"><a xlink:href="container_8cpp.html" target="_top" xlink:title=" ">
<polygon fill="white" stroke="black" points="169,-224.5 169,-243.5 243,-243.5 243,-224.5 169,-224.5"/>
<text text-anchor="middle" x="206" y="-231.5" font-family="Helvetica,sans-Serif" font-size="10.00">container.cpp</text>
</a>
</g>
</g>
<!-- Node19&#45;&gt;Node23 -->
<g id="edge30" class="edge">
<title>Node19&#45;&gt;Node23</title>
<path fill="none" stroke="midnightblue" d="M330.17,-277.17C300.23,-267 257.78,-252.59 231.08,-243.52"/>
<polygon fill="midnightblue" stroke="midnightblue" points="329.21,-280.54 339.81,-280.44 331.46,-273.91 329.21,-280.54"/>
</g>
<!-- Node24 -->
<g id="node24" class="node">
<title>Node24</title>
<g id="a_node24"><a xlink:href="layered__container_8h.html" target="_top" xlink:title=" ">
<polygon fill="white" stroke="black" points="261.5,-224.5 261.5,-243.5 362.5,-243.5 362.5,-224.5 261.5,-224.5"/>
<text text-anchor="middle" x="312" y="-231.5" font-family="Helvetica,sans-Serif" font-size="10.00">layered_container.h</text>
</a>
</g>
</g>
<!-- Node19&#45;&gt;Node24 -->
<g id="edge31" class="edge">
<title>Node19&#45;&gt;Node24</title>
<path fill="none" stroke="midnightblue" d="M349.02,-272.72C339.68,-263.2 328.25,-251.56 320.59,-243.75"/>
<polygon fill="midnightblue" stroke="midnightblue" points="346.75,-275.4 356.25,-280.08 351.74,-270.49 346.75,-275.4"/>
</g>
<!-- Node28 -->
<g id="node28" class="node">
<title>Node28</title>
<g id="a_node28"><a xlink:href="tile__pane_8h.html" target="_top" xlink:title=" ">
<polygon fill="white" stroke="black" points="384,-224.5 384,-243.5 448,-243.5 448,-224.5 384,-224.5"/>
<text text-anchor="middle" x="416" y="-231.5" font-family="Helvetica,sans-Serif" font-size="10.00">tile_pane.h</text>
</a>
</g>
</g>
<!-- Node19&#45;&gt;Node28 -->
<g id="edge35" class="edge">
<title>Node19&#45;&gt;Node28</title>
<path fill="none" stroke="midnightblue" d="M380.38,-272.72C389.37,-263.2 400.36,-251.56 407.74,-243.75"/>
<polygon fill="midnightblue" stroke="midnightblue" points="377.74,-270.41 373.42,-280.08 382.83,-275.22 377.74,-270.41"/>
</g>
<!-- Node20&#45;&gt;Node8 -->
<g id="edge29" class="edge">
<title>Node20&#45;&gt;Node8</title>
<path fill="none" stroke="midnightblue" d="M587.71,-221.58C615.52,-213.33 652.99,-201.33 685,-188 702.98,-180.51 705.81,-174.96 724,-168 766.57,-151.7 817.3,-139.17 852.39,-131.52"/>
<polygon fill="midnightblue" stroke="midnightblue" points="586.54,-218.27 577.93,-224.45 588.51,-224.99 586.54,-218.27"/>
</g>
<!-- Node21 -->
<g id="node21" class="node">
<title>Node21</title>
<g id="a_node21"><a xlink:href="box__container_8cpp.html" target="_top" xlink:title=" ">
<polygon fill="white" stroke="black" points="476.5,-168.5 476.5,-187.5 571.5,-187.5 571.5,-168.5 476.5,-168.5"/>
<text text-anchor="middle" x="524" y="-175.5" font-family="Helvetica,sans-Serif" font-size="10.00">box_container.cpp</text>
</a>
</g>
</g>
<!-- Node20&#45;&gt;Node21 -->
<g id="edge25" class="edge">
<title>Node20&#45;&gt;Node21</title>
<path fill="none" stroke="midnightblue" d="M539.2,-214.69C535.32,-205.59 530.82,-195.01 527.73,-187.75"/>
<polygon fill="midnightblue" stroke="midnightblue" points="536.06,-216.25 543.2,-224.08 542.5,-213.51 536.06,-216.25"/>
</g>
<!-- Node22 -->
<g id="node22" class="node">
<title>Node22</title>
<g id="a_node22"><a xlink:href="context__menu_8h.html" target="_top" xlink:title=" ">
<polygon fill="white" stroke="black" points="590,-168.5 590,-187.5 676,-187.5 676,-168.5 590,-168.5"/>
<text text-anchor="middle" x="633" y="-175.5" font-family="Helvetica,sans-Serif" font-size="10.00">context_menu.h</text>
</a>
</g>
</g>
<!-- Node20&#45;&gt;Node22 -->
<g id="edge26" class="edge">
<title>Node20&#45;&gt;Node22</title>
<path fill="none" stroke="midnightblue" d="M569.45,-218.9C585.22,-209 605.81,-196.07 619.22,-187.65"/>
<polygon fill="midnightblue" stroke="midnightblue" points="567.43,-216.04 560.82,-224.32 571.15,-221.97 567.43,-216.04"/>
</g>
<!-- Node22&#45;&gt;Node7 -->
<g id="edge27" class="edge">
<title>Node22&#45;&gt;Node7</title>
<path fill="none" stroke="midnightblue" d="M628.52,-157.93C620.06,-121.92 602.04,-45.23 596.01,-19.57"/>
<polygon fill="midnightblue" stroke="midnightblue" points="625.21,-159.14 630.9,-168.08 632.02,-157.54 625.21,-159.14"/>
</g>
<!-- Node22&#45;&gt;Node9 -->
<g id="edge28" class="edge">
<title>Node22&#45;&gt;Node9</title>
<path fill="none" stroke="midnightblue" d="M646.42,-160.14C653.91,-150.74 662.94,-139.4 669.03,-131.75"/>
<polygon fill="midnightblue" stroke="midnightblue" points="643.59,-158.08 640.1,-168.08 649.07,-162.44 643.59,-158.08"/>
</g>
<!-- Node25 -->
<g id="node25" class="node">
<title>Node25</title>
<g id="a_node25"><a xlink:href="anchor__pane_8h.html" target="_top" xlink:title=" ">
<polygon fill="white" stroke="black" points="156,-168.5 156,-187.5 236,-187.5 236,-168.5 156,-168.5"/>
<text text-anchor="middle" x="196" y="-175.5" font-family="Helvetica,sans-Serif" font-size="10.00">anchor_pane.h</text>
</a>
</g>
</g>
<!-- Node24&#45;&gt;Node25 -->
<g id="edge32" class="edge">
<title>Node24&#45;&gt;Node25</title>
<path fill="none" stroke="midnightblue" d="M284.28,-220.1C262.61,-210.01 233.1,-196.27 214.29,-187.52"/>
<polygon fill="midnightblue" stroke="midnightblue" points="283.08,-223.4 293.62,-224.44 286.03,-217.05 283.08,-223.4"/>
</g>
<!-- Node27 -->
<g id="node27" class="node">
<title>Node27</title>
<g id="a_node27"><a xlink:href="layered__container_8cpp.html" target="_top" xlink:title=" ">
<polygon fill="white" stroke="black" points="254.5,-168.5 254.5,-187.5 365.5,-187.5 365.5,-168.5 254.5,-168.5"/>
<text text-anchor="middle" x="310" y="-175.5" font-family="Helvetica,sans-Serif" font-size="10.00">layered_container.cpp</text>
</a>
</g>
</g>
<!-- Node24&#45;&gt;Node27 -->
<g id="edge34" class="edge">
<title>Node24&#45;&gt;Node27</title>
<path fill="none" stroke="midnightblue" d="M311.29,-213.8C310.96,-204.91 310.58,-194.78 310.32,-187.75"/>
<polygon fill="midnightblue" stroke="midnightblue" points="307.8,-214.22 311.67,-224.08 314.8,-213.96 307.8,-214.22"/>
</g>
<!-- Node26 -->
<g id="node26" class="node">
<title>Node26</title>
<g id="a_node26"><a xlink:href="anchor__pane_8cpp.html" target="_top" xlink:title=" ">
<polygon fill="white" stroke="black" points="156.5,-112.5 156.5,-131.5 247.5,-131.5 247.5,-112.5 156.5,-112.5"/>
<text text-anchor="middle" x="202" y="-119.5" font-family="Helvetica,sans-Serif" font-size="10.00">anchor_pane.cpp</text>
</a>
</g>
</g>
<!-- Node25&#45;&gt;Node26 -->
<g id="edge33" class="edge">
<title>Node25&#45;&gt;Node26</title>
<path fill="none" stroke="midnightblue" d="M198.1,-158.1C199.1,-149.14 200.24,-138.86 201.03,-131.75"/>
<polygon fill="midnightblue" stroke="midnightblue" points="194.62,-157.76 196.99,-168.08 201.57,-158.53 194.62,-157.76"/>
</g>
<!-- Node29 -->
<g id="node29" class="node">
<title>Node29</title>
<g id="a_node29"><a xlink:href="tile__pane_8cpp.html" target="_top" xlink:title=" ">
<polygon fill="white" stroke="black" points="384,-168.5 384,-187.5 458,-187.5 458,-168.5 384,-168.5"/>
<text text-anchor="middle" x="421" y="-175.5" font-family="Helvetica,sans-Serif" font-size="10.00">tile_pane.cpp</text>
</a>
</g>
</g>
<!-- Node28&#45;&gt;Node29 -->
<g id="edge36" class="edge">
<title>Node28&#45;&gt;Node29</title>
<path fill="none" stroke="midnightblue" d="M417.75,-214.1C418.58,-205.14 419.53,-194.86 420.19,-187.75"/>
<polygon fill="midnightblue" stroke="midnightblue" points="414.26,-213.8 416.83,-224.08 421.23,-214.45 414.26,-213.8"/>
</g>
<!-- Node30&#45;&gt;Node5 -->
<g id="edge38" class="edge">
<title>Node30&#45;&gt;Node5</title>
<path fill="none" stroke="midnightblue" d="M883.32,-286.68C966.82,-281.12 1162.96,-265.85 1183,-244 1197.05,-228.68 1192.45,-201.8 1188.76,-187.9"/>
<polygon fill="midnightblue" stroke="midnightblue" points="883,-283.19 873.25,-287.34 883.46,-290.18 883,-283.19"/>
</g>
<!-- Node31 -->
<g id="node31" class="node">
<title>Node31</title>
<g id="a_node31"><a xlink:href="control_8cpp.html" target="_top" xlink:title=" ">
<polygon fill="white" stroke="black" points="1007.5,-224.5 1007.5,-243.5 1072.5,-243.5 1072.5,-224.5 1007.5,-224.5"/>
<text text-anchor="middle" x="1040" y="-231.5" font-family="Helvetica,sans-Serif" font-size="10.00">control.cpp</text>
</a>
</g>
</g>
<!-- Node30&#45;&gt;Node31 -->
<g id="edge39" class="edge">
<title>Node30&#45;&gt;Node31</title>
<path fill="none" stroke="midnightblue" d="M883.18,-278.65C919.78,-268.46 975.03,-253.09 1009.23,-243.56"/>
<polygon fill="midnightblue" stroke="midnightblue" points="882.08,-275.32 873.38,-281.38 883.96,-282.07 882.08,-275.32"/>
</g>
<!-- Node32 -->
<g id="node32" class="node">
<title>Node32</title>
<g id="a_node32"><a xlink:href="label_8h.html" target="_top" xlink:title=" ">
<polygon fill="white" stroke="black" points="715.5,-224.5 715.5,-243.5 760.5,-243.5 760.5,-224.5 715.5,-224.5"/>
<text text-anchor="middle" x="738" y="-231.5" font-family="Helvetica,sans-Serif" font-size="10.00">label.h</text>
</a>
</g>
</g>
<!-- Node30&#45;&gt;Node32 -->
<g id="edge40" class="edge">
<title>Node30&#45;&gt;Node32</title>
<path fill="none" stroke="midnightblue" d="M819.45,-275.73C799.45,-265.73 772.61,-252.31 755.31,-243.65"/>
<polygon fill="midnightblue" stroke="midnightblue" points="818.14,-278.98 828.65,-280.32 821.27,-272.72 818.14,-278.98"/>
</g>
<!-- Node33 -->
<g id="node33" class="node">
<title>Node33</title>
<g id="a_node33"><a xlink:href="scroll__bar_8h.html" target="_top" xlink:title=" ">
<polygon fill="white" stroke="black" points="631,-224.5 631,-243.5 697,-243.5 697,-224.5 631,-224.5"/>
<text text-anchor="middle" x="664" y="-231.5" font-family="Helvetica,sans-Serif" font-size="10.00">scroll_bar.h</text>
</a>
</g>
</g>
<!-- Node30&#45;&gt;Node33 -->
<g id="edge41" class="edge">
<title>Node30&#45;&gt;Node33</title>
<path fill="none" stroke="midnightblue" d="M809.1,-278.05C774.81,-267.88 724.41,-252.92 692.94,-243.59"/>
<polygon fill="midnightblue" stroke="midnightblue" points="808.17,-281.43 818.75,-280.92 810.16,-274.72 808.17,-281.43"/>
</g>
<!-- Node34 -->
<g id="node34" class="node">
<title>Node34</title>
<g id="a_node34"><a xlink:href="scroll__pane_8h.html" target="_top" xlink:title=" ">
<polygon fill="white" stroke="black" points="779,-224.5 779,-243.5 853,-243.5 853,-224.5 779,-224.5"/>
<text text-anchor="middle" x="816" y="-231.5" font-family="Helvetica,sans-Serif" font-size="10.00">scroll_pane.h</text>
</a>
</g>
</g>
<!-- Node30&#45;&gt;Node34 -->
<g id="edge44" class="edge">
<title>Node30&#45;&gt;Node34</title>
<path fill="none" stroke="midnightblue" d="M836.15,-271.27C831.03,-262.05 824.98,-251.17 820.86,-243.75"/>
<polygon fill="midnightblue" stroke="midnightblue" points="833.13,-273.04 841.05,-280.08 839.25,-269.64 833.13,-273.04"/>
</g>
<!-- Node35 -->
<g id="node35" class="node">
<title>Node35</title>
<g id="a_node35"><a xlink:href="skin_8cpp.html" target="_top" xlink:title=" ">
<polygon fill="white" stroke="black" points="936.5,-224.5 936.5,-243.5 989.5,-243.5 989.5,-224.5 936.5,-224.5"/>
<text text-anchor="middle" x="963" y="-231.5" font-family="Helvetica,sans-Serif" font-size="10.00">skin.cpp</text>
</a>
</g>
</g>
<!-- Node30&#45;&gt;Node35 -->
<g id="edge47" class="edge">
<title>Node30&#45;&gt;Node35</title>
<path fill="none" stroke="midnightblue" d="M873.66,-276.23C895.55,-266.13 925.5,-252.31 944.55,-243.52"/>
<polygon fill="midnightblue" stroke="midnightblue" points="872.15,-273.08 864.54,-280.44 875.09,-279.43 872.15,-273.08"/>
</g>
<!-- Node36 -->
<g id="node36" class="node">
<title>Node36</title>
<g id="a_node36"><a xlink:href="slider_8h.html" target="_top" xlink:title=" ">
<polygon fill="white" stroke="black" points="871.5,-224.5 871.5,-243.5 918.5,-243.5 918.5,-224.5 871.5,-224.5"/>
<text text-anchor="middle" x="895" y="-231.5" font-family="Helvetica,sans-Serif" font-size="10.00">slider.h</text>
</a>
</g>
</g>
<!-- Node30&#45;&gt;Node36 -->
<g id="edge48" class="edge">
<title>Node30&#45;&gt;Node36</title>
<path fill="none" stroke="midnightblue" d="M861.03,-272.43C869.62,-262.97 880.04,-251.48 887.06,-243.75"/>
<polygon fill="midnightblue" stroke="midnightblue" points="858.22,-270.33 854.09,-280.08 863.4,-275.03 858.22,-270.33"/>
</g>
<!-- Node33&#45;&gt;Node8 -->
<g id="edge42" class="edge">
<title>Node33&#45;&gt;Node8</title>
<path fill="none" stroke="midnightblue" d="M682.82,-218.16C701.72,-203.81 732.11,-182.21 761,-168 793.81,-151.86 833.82,-139.26 861.54,-131.55"/>
<polygon fill="midnightblue" stroke="midnightblue" points="680.55,-215.5 674.76,-224.37 684.82,-221.04 680.55,-215.5"/>
</g>
<!-- Node33&#45;&gt;Node14 -->
<g id="edge43" class="edge">
<title>Node33&#45;&gt;Node14</title>
<path fill="none" stroke="midnightblue" d="M696.48,-220.91C723.74,-210.75 761.99,-196.51 786.13,-187.52"/>
<polygon fill="midnightblue" stroke="midnightblue" points="695.13,-217.67 686.98,-224.44 697.57,-224.23 695.13,-217.67"/>
</g>
<!-- Node34&#45;&gt;Node8 -->
<g id="edge45" class="edge">
<title>Node34&#45;&gt;Node8</title>
<path fill="none" stroke="midnightblue" d="M831.59,-216.95C839.32,-208.63 848.57,-198.11 856,-188 870.02,-168.91 883.61,-144.53 890.44,-131.74"/>
<polygon fill="midnightblue" stroke="midnightblue" points="828.82,-214.78 824.48,-224.45 833.9,-219.6 828.82,-214.78"/>
</g>
<!-- Node34&#45;&gt;Node15 -->
<g id="edge46" class="edge">
<title>Node34&#45;&gt;Node15</title>
<path fill="none" stroke="midnightblue" d="M852.6,-221.3C884.45,-211.13 929.84,-196.62 958.35,-187.52"/>
<polygon fill="midnightblue" stroke="midnightblue" points="851.24,-218.07 842.78,-224.44 853.37,-224.73 851.24,-218.07"/>
</g>
<!-- Node36&#45;&gt;Node8 -->
<g id="edge49" class="edge">
<title>Node36&#45;&gt;Node8</title>
<path fill="none" stroke="midnightblue" d="M895,-214.35C895,-190.25 895,-149.31 895,-131.59"/>
<polygon fill="midnightblue" stroke="midnightblue" points="891.5,-214.37 895,-224.37 898.5,-214.37 891.5,-214.37"/>
</g>
<!-- Node36&#45;&gt;Node16 -->
<g id="edge50" class="edge">
<title>Node36&#45;&gt;Node16</title>
<path fill="none" stroke="midnightblue" d="M928.44,-222.97C962.37,-212.79 1014.34,-197.2 1046.41,-187.58"/>
<polygon fill="midnightblue" stroke="midnightblue" points="927.1,-219.71 918.53,-225.94 929.12,-226.42 927.1,-219.71"/>
</g>
<!-- Node39 -->
<g id="node39" class="node">
<title>Node39</title>
<g id="a_node39"><a xlink:href="circle_8h.html" target="_top" xlink:title=" ">
<polygon fill="white" stroke="black" points="1336,-280.5 1336,-299.5 1384,-299.5 1384,-280.5 1336,-280.5"/>
<text text-anchor="middle" x="1360" y="-287.5" font-family="Helvetica,sans-Serif" font-size="10.00">circle.h</text>
</a>
</g>
</g>
<!-- Node38&#45;&gt;Node39 -->
<g id="edge54" class="edge">
<title>Node38&#45;&gt;Node39</title>
<path fill="none" stroke="midnightblue" d="M1198.55,-335.25C1238.25,-324.37 1301.41,-307.06 1335.79,-297.64"/>
<polygon fill="midnightblue" stroke="midnightblue" points="1197.47,-331.92 1188.75,-337.94 1199.32,-338.67 1197.47,-331.92"/>
</g>
<!-- Node41 -->
<g id="node41" class="node">
<title>Node41</title>
<g id="a_node41"><a xlink:href="rectangle_8h.html" target="_top" xlink:title=" ">
<polygon fill="white" stroke="black" points="1130.5,-280.5 1130.5,-299.5 1195.5,-299.5 1195.5,-280.5 1130.5,-280.5"/>
<text text-anchor="middle" x="1163" y="-287.5" font-family="Helvetica,sans-Serif" font-size="10.00">rectangle.h</text>
</a>
</g>
</g>
<!-- Node38&#45;&gt;Node41 -->
<g id="edge56" class="edge">
<title>Node38&#45;&gt;Node41</title>
<path fill="none" stroke="midnightblue" d="M1163,-325.8C1163,-316.91 1163,-306.78 1163,-299.75"/>
<polygon fill="midnightblue" stroke="midnightblue" points="1159.5,-326.08 1163,-336.08 1166.5,-326.08 1159.5,-326.08"/>
</g>
<!-- Node43 -->
<g id="node43" class="node">
<title>Node43</title>
<g id="a_node43"><a xlink:href="shape_8cpp.html" target="_top" xlink:title=" ">
<polygon fill="white" stroke="black" points="1050,-280.5 1050,-299.5 1112,-299.5 1112,-280.5 1050,-280.5"/>
<text text-anchor="middle" x="1081" y="-287.5" font-family="Helvetica,sans-Serif" font-size="10.00">shape.cpp</text>
</a>
</g>
</g>
<!-- Node38&#45;&gt;Node43 -->
<g id="edge59" class="edge">
<title>Node38&#45;&gt;Node43</title>
<path fill="none" stroke="midnightblue" d="M1141.17,-330.62C1126.19,-320.76 1106.8,-307.99 1094.14,-299.65"/>
<polygon fill="midnightblue" stroke="midnightblue" points="1139.55,-333.75 1149.83,-336.32 1143.4,-327.9 1139.55,-333.75"/>
</g>
<!-- Node44 -->
<g id="node44" class="node">
<title>Node44</title>
<g id="a_node44"><a xlink:href="text_8h.html" target="_top" xlink:title=" ">
<polygon fill="white" stroke="black" points="1213.5,-280.5 1213.5,-299.5 1254.5,-299.5 1254.5,-280.5 1213.5,-280.5"/>
<text text-anchor="middle" x="1234" y="-287.5" font-family="Helvetica,sans-Serif" font-size="10.00">text.h</text>
</a>
</g>
</g>
<!-- Node38&#45;&gt;Node44 -->
<g id="edge60" class="edge">
<title>Node38&#45;&gt;Node44</title>
<path fill="none" stroke="midnightblue" d="M1182.59,-330.1C1195.37,-320.38 1211.61,-308.03 1222.39,-299.83"/>
<polygon fill="midnightblue" stroke="midnightblue" points="1180.25,-327.48 1174.41,-336.32 1184.49,-333.06 1180.25,-327.48"/>
</g>
<!-- Node40 -->
<g id="node40" class="node">
<title>Node40</title>
<g id="a_node40"><a xlink:href="circle_8cpp.html" target="_top" xlink:title=" ">
<polygon fill="white" stroke="black" points="1362.5,-224.5 1362.5,-243.5 1421.5,-243.5 1421.5,-224.5 1362.5,-224.5"/>
<text text-anchor="middle" x="1392" y="-231.5" font-family="Helvetica,sans-Serif" font-size="10.00">circle.cpp</text>
</a>
</g>
</g>
<!-- Node39&#45;&gt;Node40 -->
<g id="edge55" class="edge">
<title>Node39&#45;&gt;Node40</title>
<path fill="none" stroke="midnightblue" d="M1370.5,-271.27C1375.97,-262.05 1382.42,-251.17 1386.81,-243.75"/>
<polygon fill="midnightblue" stroke="midnightblue" points="1367.37,-269.7 1365.28,-280.08 1373.39,-273.26 1367.37,-269.7"/>
</g>
<!-- Node41&#45;&gt;Node4 -->
<g id="edge57" class="edge">
<title>Node41&#45;&gt;Node4</title>
<path fill="none" stroke="midnightblue" d="M1152.82,-271.27C1147.53,-262.05 1141.28,-251.17 1137.02,-243.75"/>
<polygon fill="midnightblue" stroke="midnightblue" points="1149.87,-273.15 1157.88,-280.08 1155.94,-269.67 1149.87,-273.15"/>
</g>
<!-- Node42 -->
<g id="node42" class="node">
<title>Node42</title>
<g id="a_node42"><a xlink:href="rectangle_8cpp.html" target="_top" xlink:title=" ">
<polygon fill="white" stroke="black" points="1230.5,-224.5 1230.5,-243.5 1305.5,-243.5 1305.5,-224.5 1230.5,-224.5"/>
<text text-anchor="middle" x="1268" y="-231.5" font-family="Helvetica,sans-Serif" font-size="10.00">rectangle.cpp</text>
</a>
</g>
</g>
<!-- Node41&#45;&gt;Node42 -->
<g id="edge58" class="edge">
<title>Node41&#45;&gt;Node42</title>
<path fill="none" stroke="midnightblue" d="M1188.81,-275.73C1208.25,-265.73 1234.35,-252.31 1251.17,-243.65"/>
<polygon fill="midnightblue" stroke="midnightblue" points="1187.16,-272.64 1179.87,-280.32 1190.36,-278.86 1187.16,-272.64"/>
</g>
<!-- Node44&#45;&gt;Node4 -->
<g id="edge61" class="edge">
<title>Node44&#45;&gt;Node4</title>
<path fill="none" stroke="midnightblue" d="M1208.67,-275.59C1189.81,-265.61 1164.62,-252.27 1148.35,-243.65"/>
<polygon fill="midnightblue" stroke="midnightblue" points="1207.14,-278.74 1217.61,-280.32 1210.41,-272.55 1207.14,-278.74"/>
</g>
<!-- Node44&#45;&gt;Node17 -->
<g id="edge62" class="edge">
<title>Node44&#45;&gt;Node17</title>
<path fill="none" stroke="midnightblue" d="M1264.49,-280.64C1282.61,-273.92 1304.12,-262.48 1315,-244 1325.9,-225.48 1311.19,-200.44 1301.78,-187.51"/>
<polygon fill="midnightblue" stroke="midnightblue" points="1263.21,-277.37 1254.86,-283.9 1265.45,-284 1263.21,-277.37"/>
</g>
</g>
</svg>
