<?xml version="1.0" encoding="UTF-8" standalone="no"?>
<!DOCTYPE svg PUBLIC "-//W3C//DTD SVG 1.1//EN"
 "http://www.w3.org/Graphics/SVG/1.1/DTD/svg11.dtd">
<!-- Generated by graphviz version 2.50.0 (20211204.2007)
 -->
<!-- Title: gui_event_dispatching.cpp Pages: 1 -->
<svg width="747pt" height="263pt"
 viewBox="0.00 0.00 747.00 263.00" xmlns="http://www.w3.org/2000/svg" xmlns:xlink="http://www.w3.org/1999/xlink">
<g id="graph0" class="graph" transform="scale(1 1) rotate(0) translate(4 259)">
<title>gui_event_dispatching.cpp</title>
<polygon fill="white" stroke="transparent" points="-4,4 -4,-259 743,-259 743,4 -4,4"/>
<!-- Node1 -->
<g id="node1" class="node">
<title>Node1</title>
<g id="a_node1"><a xlink:title=" ">
<polygon fill="#bfbfbf" stroke="black" points="240,-235.5 240,-254.5 372,-254.5 372,-235.5 240,-235.5"/>
<text text-anchor="middle" x="306" y="-242.5" font-family="Helvetica,sans-Serif" font-size="10.00">gui_event_dispatching.cpp</text>
</a>
</g>
</g>
<!-- Node2 -->
<g id="node2" class="node">
<title>Node2</title>
<g id="a_node2"><a xlink:title=" ">
<polygon fill="white" stroke="#bfbfbf" points="226,-179.5 226,-198.5 278,-198.5 278,-179.5 226,-179.5"/>
<text text-anchor="middle" x="252" y="-186.5" font-family="Helvetica,sans-Serif" font-size="10.00">assert.h</text>
</a>
</g>
</g>
<!-- Node1&#45;&gt;Node2 -->
<g id="edge1" class="edge">
<title>Node1&#45;&gt;Node2</title>
<path fill="none" stroke="midnightblue" d="M297.08,-235.08C289.22,-227.22 277.57,-215.57 268.08,-206.08"/>
<polygon fill="midnightblue" stroke="midnightblue" points="270.3,-203.35 260.75,-198.75 265.35,-208.3 270.3,-203.35"/>
</g>
<!-- Node3 -->
<g id="node3" class="node">
<title>Node3</title>
<g id="a_node3"><a xlink:href="gui__event__dispatching_8h.html" target="_top" xlink:title=" ">
<polygon fill="white" stroke="black" points="208,-123.5 208,-142.5 362,-142.5 362,-123.5 208,-123.5"/>
<text text-anchor="middle" x="285" y="-130.5" font-family="Helvetica,sans-Serif" font-size="10.00">events/gui_event_dispatching.h</text>
</a>
</g>
</g>
<!-- Node1&#45;&gt;Node3 -->
<g id="edge2" class="edge">
<title>Node1&#45;&gt;Node3</title>
<path fill="none" stroke="midnightblue" d="M304.35,-235.37C300.96,-217.62 293.15,-176.67 288.55,-152.6"/>
<polygon fill="midnightblue" stroke="midnightblue" points="291.95,-151.76 286.64,-142.59 285.08,-153.07 291.95,-151.76"/>
</g>
<!-- Node11 -->
<g id="node11" class="node">
<title>Node11</title>
<g id="a_node11"><a xlink:href="component_8h.html" target="_top" xlink:title=" ">
<polygon fill="white" stroke="black" points="377,-179.5 377,-198.5 479,-198.5 479,-179.5 377,-179.5"/>
<text text-anchor="middle" x="428" y="-186.5" font-family="Helvetica,sans-Serif" font-size="10.00">scene/component.h</text>
</a>
</g>
</g>
<!-- Node1&#45;&gt;Node11 -->
<g id="edge11" class="edge">
<title>Node1&#45;&gt;Node11</title>
<path fill="none" stroke="midnightblue" d="M325.33,-235.44C345.32,-226.6 376.74,-212.69 399.56,-202.59"/>
<polygon fill="midnightblue" stroke="midnightblue" points="401.03,-205.76 408.76,-198.52 398.2,-199.36 401.03,-205.76"/>
</g>
<!-- Node4 -->
<g id="node4" class="node">
<title>Node4</title>
<g id="a_node4"><a xlink:title=" ">
<polygon fill="white" stroke="#bfbfbf" points="0,-62 0,-81 44,-81 44,-62 0,-62"/>
<text text-anchor="middle" x="22" y="-69" font-family="Helvetica,sans-Serif" font-size="10.00">vector</text>
</a>
</g>
</g>
<!-- Node3&#45;&gt;Node4 -->
<g id="edge3" class="edge">
<title>Node3&#45;&gt;Node4</title>
<path fill="none" stroke="midnightblue" d="M218.15,-123.49C171.2,-116.44 107.33,-104.68 53,-87 51.33,-86.46 49.63,-85.85 47.93,-85.19"/>
<polygon fill="midnightblue" stroke="midnightblue" points="49,-81.84 38.43,-81.1 46.23,-88.27 49,-81.84"/>
</g>
<!-- Node5 -->
<g id="node5" class="node">
<title>Node5</title>
<g id="a_node5"><a xlink:title=" ">
<polygon fill="white" stroke="#bfbfbf" points="62.5,-62 62.5,-81 217.5,-81 217.5,-62 62.5,-62"/>
<text text-anchor="middle" x="140" y="-69" font-family="Helvetica,sans-Serif" font-size="10.00">sml/events/event_dispatching.h</text>
</a>
</g>
</g>
<!-- Node3&#45;&gt;Node5 -->
<g id="edge4" class="edge">
<title>Node3&#45;&gt;Node5</title>
<path fill="none" stroke="midnightblue" d="M264.23,-123.48C239.57,-113.36 198.25,-96.4 170.1,-84.85"/>
<polygon fill="midnightblue" stroke="midnightblue" points="171.32,-81.57 160.74,-81.01 168.66,-88.04 171.32,-81.57"/>
</g>
<!-- Node6 -->
<g id="node6" class="node">
<title>Node6</title>
<g id="a_node6"><a xlink:title=" ">
<polygon fill="white" stroke="#bfbfbf" points="235.5,-56.5 235.5,-86.5 334.5,-86.5 334.5,-56.5 235.5,-56.5"/>
<text text-anchor="start" x="243.5" y="-74.5" font-family="Helvetica,sans-Serif" font-size="10.00">sml/events/listener</text>
<text text-anchor="middle" x="285" y="-63.5" font-family="Helvetica,sans-Serif" font-size="10.00">_notifier.h</text>
</a>
</g>
</g>
<!-- Node3&#45;&gt;Node6 -->
<g id="edge5" class="edge">
<title>Node3&#45;&gt;Node6</title>
<path fill="none" stroke="midnightblue" d="M285,-123.48C285,-116.47 285,-106.19 285,-96.7"/>
<polygon fill="midnightblue" stroke="midnightblue" points="288.5,-96.52 285,-86.52 281.5,-96.52 288.5,-96.52"/>
</g>
<!-- Node7 -->
<g id="node7" class="node">
<title>Node7</title>
<g id="a_node7"><a xlink:title=" ">
<polygon fill="white" stroke="#bfbfbf" points="252.5,-0.5 252.5,-19.5 395.5,-19.5 395.5,-0.5 252.5,-0.5"/>
<text text-anchor="middle" x="324" y="-7.5" font-family="Helvetica,sans-Serif" font-size="10.00">sml/events/system_events.h</text>
</a>
</g>
</g>
<!-- Node3&#45;&gt;Node7 -->
<g id="edge6" class="edge">
<title>Node3&#45;&gt;Node7</title>
<path fill="none" stroke="midnightblue" d="M303.39,-123.47C317.1,-116 334.81,-103.71 343,-87 352.22,-68.19 343.46,-44.5 335.03,-28.61"/>
<polygon fill="midnightblue" stroke="midnightblue" points="338,-26.76 329.98,-19.84 331.94,-30.26 338,-26.76"/>
</g>
<!-- Node8 -->
<g id="node8" class="node">
<title>Node8</title>
<g id="a_node8"><a xlink:href="gui__event_8h.html" target="_top" xlink:title=" ">
<polygon fill="white" stroke="black" points="408.5,-62 408.5,-81 475.5,-81 475.5,-62 408.5,-62"/>
<text text-anchor="middle" x="442" y="-69" font-family="Helvetica,sans-Serif" font-size="10.00">gui_event.h</text>
</a>
</g>
</g>
<!-- Node3&#45;&gt;Node8 -->
<g id="edge7" class="edge">
<title>Node3&#45;&gt;Node8</title>
<path fill="none" stroke="midnightblue" d="M307.49,-123.48C334.31,-113.31 379.32,-96.26 409.81,-84.7"/>
<polygon fill="midnightblue" stroke="midnightblue" points="411.44,-87.83 419.55,-81.01 408.96,-81.28 411.44,-87.83"/>
</g>
<!-- Node8&#45;&gt;Node7 -->
<g id="edge9" class="edge">
<title>Node8&#45;&gt;Node7</title>
<path fill="none" stroke="midnightblue" d="M425.09,-61.98C405.47,-52.08 372.87,-35.64 350.01,-24.12"/>
<polygon fill="midnightblue" stroke="midnightblue" points="351.38,-20.89 340.88,-19.51 348.23,-27.14 351.38,-20.89"/>
</g>
<!-- Node9 -->
<g id="node9" class="node">
<title>Node9</title>
<g id="a_node9"><a xlink:title=" ">
<polygon fill="white" stroke="#bfbfbf" points="414,-0.5 414,-19.5 514,-19.5 514,-0.5 414,-0.5"/>
<text text-anchor="middle" x="464" y="-7.5" font-family="Helvetica,sans-Serif" font-size="10.00">sml/events/event.h</text>
</a>
</g>
</g>
<!-- Node8&#45;&gt;Node9 -->
<g id="edge8" class="edge">
<title>Node8&#45;&gt;Node9</title>
<path fill="none" stroke="midnightblue" d="M445.15,-61.98C448.32,-53.4 453.3,-39.93 457.35,-28.98"/>
<polygon fill="midnightblue" stroke="midnightblue" points="460.67,-30.1 460.85,-19.51 454.1,-27.67 460.67,-30.1"/>
</g>
<!-- Node10 -->
<g id="node10" class="node">
<title>Node10</title>
<g id="a_node10"><a xlink:title=" ">
<polygon fill="white" stroke="#bfbfbf" points="532.5,-0.5 532.5,-19.5 609.5,-19.5 609.5,-0.5 532.5,-0.5"/>
<text text-anchor="middle" x="571" y="-7.5" font-family="Helvetica,sans-Serif" font-size="10.00">sml/sml_log.h</text>
</a>
</g>
</g>
<!-- Node8&#45;&gt;Node10 -->
<g id="edge10" class="edge">
<title>Node8&#45;&gt;Node10</title>
<path fill="none" stroke="midnightblue" d="M460.48,-61.98C482.13,-51.99 518.21,-35.35 543.23,-23.81"/>
<polygon fill="midnightblue" stroke="midnightblue" points="544.94,-26.88 552.55,-19.51 542.01,-20.52 544.94,-26.88"/>
</g>
<!-- Node11&#45;&gt;Node3 -->
<g id="edge13" class="edge">
<title>Node11&#45;&gt;Node3</title>
<path fill="none" stroke="midnightblue" d="M405.34,-179.44C381.6,-170.48 344.09,-156.31 317.26,-146.18"/>
<polygon fill="midnightblue" stroke="midnightblue" points="318.14,-142.77 307.55,-142.52 315.67,-149.32 318.14,-142.77"/>
</g>
<!-- Node12 -->
<g id="node12" class="node">
<title>Node12</title>
<g id="a_node12"><a xlink:title=" ">
<polygon fill="white" stroke="#bfbfbf" points="380,-123.5 380,-142.5 520,-142.5 520,-123.5 380,-123.5"/>
<text text-anchor="middle" x="450" y="-130.5" font-family="Helvetica,sans-Serif" font-size="10.00">sml/sml_graphics_wrapper.h</text>
</a>
</g>
</g>
<!-- Node11&#45;&gt;Node12 -->
<g id="edge12" class="edge">
<title>Node11&#45;&gt;Node12</title>
<path fill="none" stroke="midnightblue" d="M431.63,-179.08C434.61,-171.77 438.93,-161.18 442.62,-152.1"/>
<polygon fill="midnightblue" stroke="midnightblue" points="445.9,-153.33 446.43,-142.75 439.42,-150.69 445.9,-153.33"/>
</g>
<!-- Node13 -->
<g id="node13" class="node">
<title>Node13</title>
<g id="a_node13"><a xlink:href="shadow_8h.html" target="_top" xlink:title=" ">
<polygon fill="white" stroke="black" points="538,-123.5 538,-142.5 628,-142.5 628,-123.5 538,-123.5"/>
<text text-anchor="middle" x="583" y="-130.5" font-family="Helvetica,sans-Serif" font-size="10.00">../paint/shadow.h</text>
</a>
</g>
</g>
<!-- Node11&#45;&gt;Node13 -->
<g id="edge14" class="edge">
<title>Node11&#45;&gt;Node13</title>
<path fill="none" stroke="midnightblue" d="M452.56,-179.44C478.52,-170.4 519.67,-156.06 548.8,-145.92"/>
<polygon fill="midnightblue" stroke="midnightblue" points="550.26,-149.11 558.55,-142.52 547.96,-142.5 550.26,-149.11"/>
</g>
<!-- Node14 -->
<g id="node14" class="node">
<title>Node14</title>
<g id="a_node14"><a xlink:title=" ">
<polygon fill="white" stroke="#bfbfbf" points="525.5,-62 525.5,-81 608.5,-81 608.5,-62 525.5,-62"/>
<text text-anchor="middle" x="567" y="-69" font-family="Helvetica,sans-Serif" font-size="10.00">sml/math/blur.h</text>
</a>
</g>
</g>
<!-- Node13&#45;&gt;Node14 -->
<g id="edge15" class="edge">
<title>Node13&#45;&gt;Node14</title>
<path fill="none" stroke="midnightblue" d="M580.71,-123.48C578.43,-114.99 574.85,-101.7 571.93,-90.82"/>
<polygon fill="midnightblue" stroke="midnightblue" points="575.26,-89.76 569.29,-81.01 568.51,-91.57 575.26,-89.76"/>
</g>
<!-- Node15 -->
<g id="node15" class="node">
<title>Node15</title>
<g id="a_node15"><a xlink:title=" ">
<polygon fill="white" stroke="#bfbfbf" points="627,-56.5 627,-86.5 739,-86.5 739,-56.5 627,-56.5"/>
<text text-anchor="start" x="635" y="-74.5" font-family="Helvetica,sans-Serif" font-size="10.00">sml/graphics_wrapper</text>
<text text-anchor="middle" x="683" y="-63.5" font-family="Helvetica,sans-Serif" font-size="10.00">/texture.h</text>
</a>
</g>
</g>
<!-- Node13&#45;&gt;Node15 -->
<g id="edge16" class="edge">
<title>Node13&#45;&gt;Node15</title>
<path fill="none" stroke="midnightblue" d="M597.33,-123.48C611.12,-115.27 632.48,-102.56 650.42,-91.88"/>
<polygon fill="midnightblue" stroke="midnightblue" points="652.63,-94.64 659.43,-86.52 649.05,-88.63 652.63,-94.64"/>
</g>
</g>
</svg>
