<?xml version="1.0" encoding="UTF-8" standalone="no"?>
<!DOCTYPE svg PUBLIC "-//W3C//DTD SVG 1.1//EN"
 "http://www.w3.org/Graphics/SVG/1.1/DTD/svg11.dtd">
<!-- Generated by graphviz version 2.50.0 (20211204.2007)
 -->
<!-- Title: gui_event_dispatching.cpp Pages: 1 -->
<svg width="814pt" height="252pt"
 viewBox="0.00 0.00 813.50 252.00" xmlns="http://www.w3.org/2000/svg" xmlns:xlink="http://www.w3.org/1999/xlink">
<g id="graph0" class="graph" transform="scale(1 1) rotate(0) translate(4 248)">
<title>gui_event_dispatching.cpp</title>
<polygon fill="white" stroke="transparent" points="-4,4 -4,-248 809.5,-248 809.5,4 -4,4"/>
<!-- Node1 -->
<g id="node1" class="node">
<title>Node1</title>
<g id="a_node1"><a xlink:title=" ">
<polygon fill="#bfbfbf" stroke="black" points="261,-224.5 261,-243.5 393,-243.5 393,-224.5 261,-224.5"/>
<text text-anchor="middle" x="327" y="-231.5" font-family="Helvetica,sans-Serif" font-size="10.00">gui_event_dispatching.cpp</text>
</a>
</g>
</g>
<!-- Node2 -->
<g id="node2" class="node">
<title>Node2</title>
<g id="a_node2"><a xlink:title=" ">
<polygon fill="white" stroke="#bfbfbf" points="247,-168.5 247,-187.5 299,-187.5 299,-168.5 247,-168.5"/>
<text text-anchor="middle" x="273" y="-175.5" font-family="Helvetica,sans-Serif" font-size="10.00">assert.h</text>
</a>
</g>
</g>
<!-- Node1&#45;&gt;Node2 -->
<g id="edge1" class="edge">
<title>Node1&#45;&gt;Node2</title>
<path fill="none" stroke="midnightblue" d="M318.08,-224.08C310.22,-216.22 298.57,-204.57 289.08,-195.08"/>
<polygon fill="midnightblue" stroke="midnightblue" points="291.3,-192.35 281.75,-187.75 286.35,-197.3 291.3,-192.35"/>
</g>
<!-- Node3 -->
<g id="node3" class="node">
<title>Node3</title>
<g id="a_node3"><a xlink:href="gui__event__dispatching_8h.html" target="_top" xlink:title=" ">
<polygon fill="white" stroke="black" points="229,-112.5 229,-131.5 383,-131.5 383,-112.5 229,-112.5"/>
<text text-anchor="middle" x="306" y="-119.5" font-family="Helvetica,sans-Serif" font-size="10.00">events/gui_event_dispatching.h</text>
</a>
</g>
</g>
<!-- Node1&#45;&gt;Node3 -->
<g id="edge2" class="edge">
<title>Node1&#45;&gt;Node3</title>
<path fill="none" stroke="midnightblue" d="M325.35,-224.37C321.96,-206.62 314.15,-165.67 309.55,-141.6"/>
<polygon fill="midnightblue" stroke="midnightblue" points="312.95,-140.76 307.64,-131.59 306.08,-142.07 312.95,-140.76"/>
</g>
<!-- Node11 -->
<g id="node11" class="node">
<title>Node11</title>
<g id="a_node11"><a xlink:href="component_8h.html" target="_top" xlink:title=" ">
<polygon fill="white" stroke="black" points="398,-168.5 398,-187.5 500,-187.5 500,-168.5 398,-168.5"/>
<text text-anchor="middle" x="449" y="-175.5" font-family="Helvetica,sans-Serif" font-size="10.00">scene/component.h</text>
</a>
</g>
</g>
<!-- Node1&#45;&gt;Node11 -->
<g id="edge11" class="edge">
<title>Node1&#45;&gt;Node11</title>
<path fill="none" stroke="midnightblue" d="M346.33,-224.44C366.32,-215.6 397.74,-201.69 420.56,-191.59"/>
<polygon fill="midnightblue" stroke="midnightblue" points="422.03,-194.76 429.76,-187.52 419.2,-188.36 422.03,-194.76"/>
</g>
<!-- Node4 -->
<g id="node4" class="node">
<title>Node4</title>
<g id="a_node4"><a xlink:title=" ">
<polygon fill="white" stroke="#bfbfbf" points="0,-56.5 0,-75.5 44,-75.5 44,-56.5 0,-56.5"/>
<text text-anchor="middle" x="22" y="-63.5" font-family="Helvetica,sans-Serif" font-size="10.00">vector</text>
</a>
</g>
</g>
<!-- Node3&#45;&gt;Node4 -->
<g id="edge3" class="edge">
<title>Node3&#45;&gt;Node4</title>
<path fill="none" stroke="midnightblue" d="M247.86,-112.46C198.67,-104.83 126.13,-92.62 54.39,-76.13"/>
<polygon fill="midnightblue" stroke="midnightblue" points="54.81,-72.63 44.28,-73.78 53.22,-79.45 54.81,-72.63"/>
</g>
<!-- Node5 -->
<g id="node5" class="node">
<title>Node5</title>
<g id="a_node5"><a xlink:title=" ">
<polygon fill="white" stroke="#bfbfbf" points="62.5,-56.5 62.5,-75.5 217.5,-75.5 217.5,-56.5 62.5,-56.5"/>
<text text-anchor="middle" x="140" y="-63.5" font-family="Helvetica,sans-Serif" font-size="10.00">sml/events/event_dispatching.h</text>
</a>
</g>
</g>
<!-- Node3&#45;&gt;Node5 -->
<g id="edge4" class="edge">
<title>Node3&#45;&gt;Node5</title>
<path fill="none" stroke="midnightblue" d="M279.7,-112.44C251.65,-103.32 207.06,-88.81 175.82,-78.65"/>
<polygon fill="midnightblue" stroke="midnightblue" points="176.77,-75.28 166.18,-75.52 174.61,-81.94 176.77,-75.28"/>
</g>
<!-- Node6 -->
<g id="node6" class="node">
<title>Node6</title>
<g id="a_node6"><a xlink:title=" ">
<polygon fill="white" stroke="#bfbfbf" points="235.5,-56.5 235.5,-75.5 376.5,-75.5 376.5,-56.5 235.5,-56.5"/>
<text text-anchor="middle" x="306" y="-63.5" font-family="Helvetica,sans-Serif" font-size="10.00">sml/events/listener_notifier.h</text>
</a>
</g>
</g>
<!-- Node3&#45;&gt;Node6 -->
<g id="edge5" class="edge">
<title>Node3&#45;&gt;Node6</title>
<path fill="none" stroke="midnightblue" d="M306,-112.08C306,-105.01 306,-94.86 306,-85.99"/>
<polygon fill="midnightblue" stroke="midnightblue" points="309.5,-85.75 306,-75.75 302.5,-85.75 309.5,-85.75"/>
</g>
<!-- Node7 -->
<g id="node7" class="node">
<title>Node7</title>
<g id="a_node7"><a xlink:title=" ">
<polygon fill="white" stroke="#bfbfbf" points="294.5,-0.5 294.5,-19.5 437.5,-19.5 437.5,-0.5 294.5,-0.5"/>
<text text-anchor="middle" x="366" y="-7.5" font-family="Helvetica,sans-Serif" font-size="10.00">sml/events/system_events.h</text>
</a>
</g>
</g>
<!-- Node3&#45;&gt;Node7 -->
<g id="edge6" class="edge">
<title>Node3&#45;&gt;Node7</title>
<path fill="none" stroke="midnightblue" d="M335.88,-112.39C353.54,-105.59 374.45,-94.15 385,-76 393.74,-60.97 386.04,-41.61 377.98,-27.95"/>
<polygon fill="midnightblue" stroke="midnightblue" points="380.9,-26.02 372.54,-19.52 375.02,-29.82 380.9,-26.02"/>
</g>
<!-- Node8 -->
<g id="node8" class="node">
<title>Node8</title>
<g id="a_node8"><a xlink:href="gui__event_8h.html" target="_top" xlink:title=" ">
<polygon fill="white" stroke="black" points="444.5,-56.5 444.5,-75.5 511.5,-75.5 511.5,-56.5 444.5,-56.5"/>
<text text-anchor="middle" x="478" y="-63.5" font-family="Helvetica,sans-Serif" font-size="10.00">gui_event.h</text>
</a>
</g>
</g>
<!-- Node3&#45;&gt;Node8 -->
<g id="edge7" class="edge">
<title>Node3&#45;&gt;Node8</title>
<path fill="none" stroke="midnightblue" d="M333.25,-112.44C362.44,-103.28 408.92,-88.69 441.31,-78.52"/>
<polygon fill="midnightblue" stroke="midnightblue" points="442.38,-81.85 450.87,-75.52 440.28,-75.17 442.38,-81.85"/>
</g>
<!-- Node8&#45;&gt;Node7 -->
<g id="edge9" class="edge">
<title>Node8&#45;&gt;Node7</title>
<path fill="none" stroke="midnightblue" d="M460.01,-56.32C441.96,-47.62 413.95,-34.12 393.2,-24.11"/>
<polygon fill="midnightblue" stroke="midnightblue" points="394.48,-20.84 383.95,-19.65 391.44,-27.15 394.48,-20.84"/>
</g>
<!-- Node9 -->
<g id="node9" class="node">
<title>Node9</title>
<g id="a_node9"><a xlink:title=" ">
<polygon fill="white" stroke="#bfbfbf" points="456,-0.5 456,-19.5 556,-19.5 556,-0.5 456,-0.5"/>
<text text-anchor="middle" x="506" y="-7.5" font-family="Helvetica,sans-Serif" font-size="10.00">sml/events/event.h</text>
</a>
</g>
</g>
<!-- Node8&#45;&gt;Node9 -->
<g id="edge8" class="edge">
<title>Node8&#45;&gt;Node9</title>
<path fill="none" stroke="midnightblue" d="M482.62,-56.08C486.46,-48.69 492.02,-37.95 496.76,-28.81"/>
<polygon fill="midnightblue" stroke="midnightblue" points="499.97,-30.24 501.46,-19.75 493.75,-27.02 499.97,-30.24"/>
</g>
<!-- Node10 -->
<g id="node10" class="node">
<title>Node10</title>
<g id="a_node10"><a xlink:title=" ">
<polygon fill="white" stroke="#bfbfbf" points="574.5,-0.5 574.5,-19.5 651.5,-19.5 651.5,-0.5 574.5,-0.5"/>
<text text-anchor="middle" x="613" y="-7.5" font-family="Helvetica,sans-Serif" font-size="10.00">sml/sml_log.h</text>
</a>
</g>
</g>
<!-- Node8&#45;&gt;Node10 -->
<g id="edge10" class="edge">
<title>Node8&#45;&gt;Node10</title>
<path fill="none" stroke="midnightblue" d="M499.39,-56.44C521.71,-47.52 556.9,-33.44 582.21,-23.32"/>
<polygon fill="midnightblue" stroke="midnightblue" points="583.72,-26.48 591.71,-19.52 581.12,-19.98 583.72,-26.48"/>
</g>
<!-- Node11&#45;&gt;Node3 -->
<g id="edge13" class="edge">
<title>Node11&#45;&gt;Node3</title>
<path fill="none" stroke="midnightblue" d="M426.34,-168.44C402.6,-159.48 365.09,-145.31 338.26,-135.18"/>
<polygon fill="midnightblue" stroke="midnightblue" points="339.14,-131.77 328.55,-131.52 336.67,-138.32 339.14,-131.77"/>
</g>
<!-- Node12 -->
<g id="node12" class="node">
<title>Node12</title>
<g id="a_node12"><a xlink:title=" ">
<polygon fill="white" stroke="#bfbfbf" points="401,-112.5 401,-131.5 541,-131.5 541,-112.5 401,-112.5"/>
<text text-anchor="middle" x="471" y="-119.5" font-family="Helvetica,sans-Serif" font-size="10.00">sml/sml_graphics_wrapper.h</text>
</a>
</g>
</g>
<!-- Node11&#45;&gt;Node12 -->
<g id="edge12" class="edge">
<title>Node11&#45;&gt;Node12</title>
<path fill="none" stroke="midnightblue" d="M452.63,-168.08C455.61,-160.77 459.93,-150.18 463.62,-141.1"/>
<polygon fill="midnightblue" stroke="midnightblue" points="466.9,-142.33 467.43,-131.75 460.42,-139.69 466.9,-142.33"/>
</g>
<!-- Node13 -->
<g id="node13" class="node">
<title>Node13</title>
<g id="a_node13"><a xlink:href="shadow_8h.html" target="_top" xlink:title=" ">
<polygon fill="white" stroke="black" points="559,-112.5 559,-131.5 649,-131.5 649,-112.5 559,-112.5"/>
<text text-anchor="middle" x="604" y="-119.5" font-family="Helvetica,sans-Serif" font-size="10.00">../paint/shadow.h</text>
</a>
</g>
</g>
<!-- Node11&#45;&gt;Node13 -->
<g id="edge14" class="edge">
<title>Node11&#45;&gt;Node13</title>
<path fill="none" stroke="midnightblue" d="M473.56,-168.44C499.52,-159.4 540.67,-145.06 569.8,-134.92"/>
<polygon fill="midnightblue" stroke="midnightblue" points="571.26,-138.11 579.55,-131.52 568.96,-131.5 571.26,-138.11"/>
</g>
<!-- Node14 -->
<g id="node14" class="node">
<title>Node14</title>
<g id="a_node14"><a xlink:title=" ">
<polygon fill="white" stroke="#bfbfbf" points="551.5,-56.5 551.5,-75.5 634.5,-75.5 634.5,-56.5 551.5,-56.5"/>
<text text-anchor="middle" x="593" y="-63.5" font-family="Helvetica,sans-Serif" font-size="10.00">sml/math/blur.h</text>
</a>
</g>
</g>
<!-- Node13&#45;&gt;Node14 -->
<g id="edge15" class="edge">
<title>Node13&#45;&gt;Node14</title>
<path fill="none" stroke="midnightblue" d="M602.18,-112.08C600.73,-104.93 598.63,-94.64 596.81,-85.69"/>
<polygon fill="midnightblue" stroke="midnightblue" points="600.21,-84.85 594.78,-75.75 593.35,-86.25 600.21,-84.85"/>
</g>
<!-- Node15 -->
<g id="node15" class="node">
<title>Node15</title>
<g id="a_node15"><a xlink:title=" ">
<polygon fill="white" stroke="#bfbfbf" points="652.5,-56.5 652.5,-75.5 805.5,-75.5 805.5,-56.5 652.5,-56.5"/>
<text text-anchor="middle" x="729" y="-63.5" font-family="Helvetica,sans-Serif" font-size="10.00">sml/graphics_wrapper/texture.h</text>
</a>
</g>
</g>
<!-- Node13&#45;&gt;Node15 -->
<g id="edge16" class="edge">
<title>Node13&#45;&gt;Node15</title>
<path fill="none" stroke="midnightblue" d="M623.81,-112.44C644.29,-103.6 676.48,-89.69 699.86,-79.59"/>
<polygon fill="midnightblue" stroke="midnightblue" points="701.49,-82.7 709.29,-75.52 698.72,-76.27 701.49,-82.7"/>
</g>
</g>
</svg>
