<?xml version="1.0" encoding="UTF-8" standalone="no"?>
<!DOCTYPE svg PUBLIC "-//W3C//DTD SVG 1.1//EN"
 "http://www.w3.org/Graphics/SVG/1.1/DTD/svg11.dtd">
<!-- Generated by graphviz version 2.50.0 (20211204.2007)
 -->
<!-- Title: gui_event_dispatching.h Pages: 1 -->
<svg width="637pt" height="151pt"
 viewBox="0.00 0.00 636.50 151.00" xmlns="http://www.w3.org/2000/svg" xmlns:xlink="http://www.w3.org/1999/xlink">
<g id="graph0" class="graph" transform="scale(1 1) rotate(0) translate(4 147)">
<title>gui_event_dispatching.h</title>
<polygon fill="white" stroke="transparent" points="-4,4 -4,-147 632.5,-147 632.5,4 -4,4"/>
<!-- Node1 -->
<g id="node1" class="node">
<title>Node1</title>
<g id="a_node1"><a xlink:title=" ">
<polygon fill="#bfbfbf" stroke="black" points="224,-123.5 224,-142.5 346,-142.5 346,-123.5 224,-123.5"/>
<text text-anchor="middle" x="285" y="-130.5" font-family="Helvetica,sans-Serif" font-size="10.00">gui_event_dispatching.h</text>
</a>
</g>
</g>
<!-- Node2 -->
<g id="node2" class="node">
<title>Node2</title>
<g id="a_node2"><a xlink:title=" ">
<polygon fill="white" stroke="#bfbfbf" points="0,-62 0,-81 44,-81 44,-62 0,-62"/>
<text text-anchor="middle" x="22" y="-69" font-family="Helvetica,sans-Serif" font-size="10.00">vector</text>
</a>
</g>
</g>
<!-- Node1&#45;&gt;Node2 -->
<g id="edge1" class="edge">
<title>Node1&#45;&gt;Node2</title>
<path fill="none" stroke="midnightblue" d="M223.88,-124.34C176.49,-117.4 109.57,-105.41 53,-87 51.33,-86.46 49.63,-85.85 47.93,-85.19"/>
<polygon fill="midnightblue" stroke="midnightblue" points="49,-81.84 38.43,-81.1 46.23,-88.27 49,-81.84"/>
</g>
<!-- Node3 -->
<g id="node3" class="node">
<title>Node3</title>
<g id="a_node3"><a xlink:title=" ">
<polygon fill="white" stroke="#bfbfbf" points="62.5,-62 62.5,-81 217.5,-81 217.5,-62 62.5,-62"/>
<text text-anchor="middle" x="140" y="-69" font-family="Helvetica,sans-Serif" font-size="10.00">sml/events/event_dispatching.h</text>
</a>
</g>
</g>
<!-- Node1&#45;&gt;Node3 -->
<g id="edge2" class="edge">
<title>Node1&#45;&gt;Node3</title>
<path fill="none" stroke="midnightblue" d="M264.23,-123.48C239.57,-113.36 198.25,-96.4 170.1,-84.85"/>
<polygon fill="midnightblue" stroke="midnightblue" points="171.32,-81.57 160.74,-81.01 168.66,-88.04 171.32,-81.57"/>
</g>
<!-- Node4 -->
<g id="node4" class="node">
<title>Node4</title>
<g id="a_node4"><a xlink:title=" ">
<polygon fill="white" stroke="#bfbfbf" points="235.5,-56.5 235.5,-86.5 334.5,-86.5 334.5,-56.5 235.5,-56.5"/>
<text text-anchor="start" x="243.5" y="-74.5" font-family="Helvetica,sans-Serif" font-size="10.00">sml/events/listener</text>
<text text-anchor="middle" x="285" y="-63.5" font-family="Helvetica,sans-Serif" font-size="10.00">_notifier.h</text>
</a>
</g>
</g>
<!-- Node1&#45;&gt;Node4 -->
<g id="edge3" class="edge">
<title>Node1&#45;&gt;Node4</title>
<path fill="none" stroke="midnightblue" d="M285,-123.48C285,-116.47 285,-106.19 285,-96.7"/>
<polygon fill="midnightblue" stroke="midnightblue" points="288.5,-96.52 285,-86.52 281.5,-96.52 288.5,-96.52"/>
</g>
<!-- Node5 -->
<g id="node5" class="node">
<title>Node5</title>
<g id="a_node5"><a xlink:title=" ">
<polygon fill="white" stroke="#bfbfbf" points="271.5,-0.5 271.5,-19.5 414.5,-19.5 414.5,-0.5 271.5,-0.5"/>
<text text-anchor="middle" x="343" y="-7.5" font-family="Helvetica,sans-Serif" font-size="10.00">sml/events/system_events.h</text>
</a>
</g>
</g>
<!-- Node1&#45;&gt;Node5 -->
<g id="edge4" class="edge">
<title>Node1&#45;&gt;Node5</title>
<path fill="none" stroke="midnightblue" d="M303.39,-123.47C317.1,-116 334.81,-103.71 343,-87 351.78,-69.07 350.18,-45.79 347.41,-29.75"/>
<polygon fill="midnightblue" stroke="midnightblue" points="350.75,-28.62 345.31,-19.52 343.89,-30.02 350.75,-28.62"/>
</g>
<!-- Node6 -->
<g id="node6" class="node">
<title>Node6</title>
<g id="a_node6"><a xlink:href="gui__event_8h.html" target="_top" xlink:title=" ">
<polygon fill="white" stroke="black" points="430.5,-62 430.5,-81 497.5,-81 497.5,-62 430.5,-62"/>
<text text-anchor="middle" x="464" y="-69" font-family="Helvetica,sans-Serif" font-size="10.00">gui_event.h</text>
</a>
</g>
</g>
<!-- Node1&#45;&gt;Node6 -->
<g id="edge5" class="edge">
<title>Node1&#45;&gt;Node6</title>
<path fill="none" stroke="midnightblue" d="M310.65,-123.48C341.62,-113.18 393.87,-95.81 428.65,-84.25"/>
<polygon fill="midnightblue" stroke="midnightblue" points="430.02,-87.48 438.4,-81.01 427.81,-80.84 430.02,-87.48"/>
</g>
<!-- Node6&#45;&gt;Node5 -->
<g id="edge7" class="edge">
<title>Node6&#45;&gt;Node5</title>
<path fill="none" stroke="midnightblue" d="M446.66,-61.98C426.45,-52.03 392.81,-35.49 369.36,-23.96"/>
<polygon fill="midnightblue" stroke="midnightblue" points="370.82,-20.78 360.3,-19.51 367.73,-27.06 370.82,-20.78"/>
</g>
<!-- Node7 -->
<g id="node7" class="node">
<title>Node7</title>
<g id="a_node7"><a xlink:title=" ">
<polygon fill="white" stroke="#bfbfbf" points="433,-0.5 433,-19.5 533,-19.5 533,-0.5 433,-0.5"/>
<text text-anchor="middle" x="483" y="-7.5" font-family="Helvetica,sans-Serif" font-size="10.00">sml/events/event.h</text>
</a>
</g>
</g>
<!-- Node6&#45;&gt;Node7 -->
<g id="edge6" class="edge">
<title>Node6&#45;&gt;Node7</title>
<path fill="none" stroke="midnightblue" d="M466.72,-61.98C469.43,-53.49 473.67,-40.2 477.15,-29.32"/>
<polygon fill="midnightblue" stroke="midnightblue" points="480.57,-30.1 480.28,-19.51 473.91,-27.97 480.57,-30.1"/>
</g>
<!-- Node8 -->
<g id="node8" class="node">
<title>Node8</title>
<g id="a_node8"><a xlink:title=" ">
<polygon fill="white" stroke="#bfbfbf" points="551.5,-0.5 551.5,-19.5 628.5,-19.5 628.5,-0.5 551.5,-0.5"/>
<text text-anchor="middle" x="590" y="-7.5" font-family="Helvetica,sans-Serif" font-size="10.00">sml/sml_log.h</text>
</a>
</g>
</g>
<!-- Node6&#45;&gt;Node8 -->
<g id="edge8" class="edge">
<title>Node6&#45;&gt;Node8</title>
<path fill="none" stroke="midnightblue" d="M482.05,-61.98C503.2,-51.99 538.44,-35.35 562.88,-23.81"/>
<polygon fill="midnightblue" stroke="midnightblue" points="564.43,-26.94 571.98,-19.51 561.44,-20.61 564.43,-26.94"/>
</g>
</g>
</svg>
