<?xml version="1.0" encoding="UTF-8" standalone="no"?>
<!DOCTYPE svg PUBLIC "-//W3C//DTD SVG 1.1//EN"
 "http://www.w3.org/Graphics/SVG/1.1/DTD/svg11.dtd">
<!-- Generated by graphviz version 2.50.0 (20211204.2007)
 -->
<!-- Title: gui_event.h Pages: 1 -->
<!--zoomable 532 -->
<svg id="main" version="1.1" xmlns="http://www.w3.org/2000/svg" xmlns:xlink="http://www.w3.org/1999/xlink" xml:space="preserve" onload="init(evt)">
<style type="text/css"><![CDATA[
.edge:hover path { stroke: red; }
.edge:hover polygon { stroke: red; fill: red; }
]]></style>
<script type="text/javascript"><![CDATA[
var edges = document.getElementsByTagName('g');
if (edges && edges.length) {
  for (var i=0;i<edges.length;i++) {
    if (edges[i].id.substr(0,4)=='edge') {
      edges[i].setAttribute('class','edge');
    }
  }
}
]]></script>
        <defs>
                <circle id="rim" cx="0" cy="0" r="7"/>
                <circle id="rim2" cx="0" cy="0" r="3.5"/>
                <g id="zoomPlus">
                        <use xlink:href="#rim" fill="#404040">
                                <set attributeName="fill" to="#808080" begin="zoomplus.mouseover" end="zoomplus.mouseout"/>
                        </use>
                        <path d="M-4,0h8M0,-4v8" fill="none" stroke="white" stroke-width="1.5" pointer-events="none"/>
                </g>
                <g id="zoomMin">
                        <use xlink:href="#rim" fill="#404040">
                                <set attributeName="fill" to="#808080" begin="zoomminus.mouseover" end="zoomminus.mouseout"/>
                        </use>
                        <path d="M-4,0h8" fill="none" stroke="white" stroke-width="1.5" pointer-events="none"/>
                </g>
                <g id="dirArrow">
                        <path fill="none" stroke="white" stroke-width="1.5" d="M0,-3.0v7 M-2.5,-0.5L0,-3.0L2.5,-0.5"/>
                </g>
               <g id="resetDef">
                       <use xlink:href="#rim2" fill="#404040">
                               <set attributeName="fill" to="#808080" begin="reset.mouseover" end="reset.mouseout"/>
                       </use>
               </g>
        </defs>

<script type="text/javascript">
var viewWidth = 1356;
var viewHeight = 532;
var sectionId = 'dynsection-1';
</script>
<script xlink:href="svgpan.js"/>
<svg id="graph" class="graph">
<g id="viewport">
<title>gui_event.h</title>
<polygon fill="white" stroke="transparent" points="-4,4 -4,-528 1351.5,-528 1351.5,4 -4,4"/>
<!-- Node1 -->
<g id="node1" class="node">
<title>Node1</title>
<g id="a_node1"><a xlink:title=" ">
<polygon fill="#bfbfbf" stroke="black" points="234,-504.5 234,-523.5 301,-523.5 301,-504.5 234,-504.5"/>
<text text-anchor="middle" x="267.5" y="-511.5" font-family="Helvetica,sans-Serif" font-size="10.00">gui_event.h</text>
</a>
</g>
</g>
<!-- Node2 -->
<g id="node2" class="node">
<title>Node2</title>
<g id="a_node2"><a xlink:href="gui__event__dispatching_8h.html" target="_top" xlink:title=" ">
<polygon fill="white" stroke="black" points="206.5,-448.5 206.5,-467.5 328.5,-467.5 328.5,-448.5 206.5,-448.5"/>
<text text-anchor="middle" x="267.5" y="-455.5" font-family="Helvetica,sans-Serif" font-size="10.00">gui_event_dispatching.h</text>
</a>
</g>
</g>
<!-- Node1&#45;&gt;Node2 -->
<g id="edge1" class="edge">
<title>Node1&#45;&gt;Node2</title>
<path fill="none" stroke="midnightblue" d="M267.5,-493.8C267.5,-484.91 267.5,-474.78 267.5,-467.75"/>
<polygon fill="midnightblue" stroke="midnightblue" points="264,-494.08 267.5,-504.08 271,-494.08 264,-494.08"/>
</g>
<!-- Node3 -->
<g id="node3" class="node">
<title>Node3</title>
<g id="a_node3"><a xlink:href="component_8h.html" target="_top" xlink:title=" ">
<polygon fill="white" stroke="black" points="231,-392.5 231,-411.5 304,-411.5 304,-392.5 231,-392.5"/>
<text text-anchor="middle" x="267.5" y="-399.5" font-family="Helvetica,sans-Serif" font-size="10.00">component.h</text>
</a>
</g>
</g>
<!-- Node2&#45;&gt;Node3 -->
<g id="edge2" class="edge">
<title>Node2&#45;&gt;Node3</title>
<path fill="none" stroke="midnightblue" d="M267.5,-437.8C267.5,-428.91 267.5,-418.78 267.5,-411.75"/>
<polygon fill="midnightblue" stroke="midnightblue" points="264,-438.08 267.5,-448.08 271,-438.08 264,-438.08"/>
</g>
<!-- Node4 -->
<g id="node4" class="node">
<title>Node4</title>
<g id="a_node4"><a xlink:href="gui__event__dispatching_8cpp.html" target="_top" xlink:title=" ">
<polygon fill="white" stroke="black" points="51.5,-336.5 51.5,-355.5 183.5,-355.5 183.5,-336.5 51.5,-336.5"/>
<text text-anchor="middle" x="117.5" y="-343.5" font-family="Helvetica,sans-Serif" font-size="10.00">gui_event_dispatching.cpp</text>
</a>
</g>
</g>
<!-- Node2&#45;&gt;Node4 -->
<g id="edge65" class="edge">
<title>Node2&#45;&gt;Node4</title>
<path fill="none" stroke="midnightblue" d="M247.61,-442.42C215.89,-419.15 154.8,-374.35 129.22,-355.59"/>
<polygon fill="midnightblue" stroke="midnightblue" points="245.6,-445.28 255.73,-448.37 249.74,-439.63 245.6,-445.28"/>
</g>
<!-- Node13 -->
<g id="node13" class="node">
<title>Node13</title>
<g id="a_node13"><a xlink:href="scene_8h.html" target="_top" xlink:title=" ">
<polygon fill="white" stroke="black" points="1132,-56.5 1132,-75.5 1183,-75.5 1183,-56.5 1132,-56.5"/>
<text text-anchor="middle" x="1157.5" y="-63.5" font-family="Helvetica,sans-Serif" font-size="10.00">scene.h</text>
</a>
</g>
</g>
<!-- Node2&#45;&gt;Node13 -->
<g id="edge66" class="edge">
<title>Node2&#45;&gt;Node13</title>
<path fill="none" stroke="midnightblue" d="M339,-456.53C565.83,-454.11 1254.5,-439.17 1254.5,-347 1254.5,-347 1254.5,-347 1254.5,-177 1254.5,-146.9 1254.09,-135.67 1235.5,-112 1221.88,-94.67 1199.6,-82.78 1182.33,-75.59"/>
<polygon fill="midnightblue" stroke="midnightblue" points="338.83,-453.03 328.87,-456.64 338.9,-460.03 338.83,-453.03"/>
</g>
<!-- Node3&#45;&gt;Node4 -->
<g id="edge3" class="edge">
<title>Node3&#45;&gt;Node4</title>
<path fill="none" stroke="midnightblue" d="M234.28,-389.04C206.05,-378.88 166.24,-364.55 141.16,-355.52"/>
<polygon fill="midnightblue" stroke="midnightblue" points="233.14,-392.35 243.73,-392.44 235.51,-385.76 233.14,-392.35"/>
</g>
<!-- Node5 -->
<g id="node5" class="node">
<title>Node5</title>
<g id="a_node5"><a xlink:href="image__view_8h.html" target="_top" xlink:title=" ">
<polygon fill="white" stroke="black" points="271,-336.5 271,-355.5 346,-355.5 346,-336.5 271,-336.5"/>
<text text-anchor="middle" x="308.5" y="-343.5" font-family="Helvetica,sans-Serif" font-size="10.00">image_view.h</text>
</a>
</g>
</g>
<!-- Node3&#45;&gt;Node5 -->
<g id="edge4" class="edge">
<title>Node3&#45;&gt;Node5</title>
<path fill="none" stroke="midnightblue" d="M280.52,-383.86C287.62,-374.5 296.1,-363.33 301.86,-355.75"/>
<polygon fill="midnightblue" stroke="midnightblue" points="277.53,-382 274.27,-392.08 283.11,-386.24 277.53,-382"/>
</g>
<!-- Node21 -->
<g id="node21" class="node">
<title>Node21</title>
<g id="a_node21"><a xlink:href="parent_8h.html" target="_top" xlink:title=" ">
<polygon fill="white" stroke="black" points="779.5,-336.5 779.5,-355.5 831.5,-355.5 831.5,-336.5 779.5,-336.5"/>
<text text-anchor="middle" x="805.5" y="-343.5" font-family="Helvetica,sans-Serif" font-size="10.00">parent.h</text>
</a>
</g>
</g>
<!-- Node3&#45;&gt;Node21 -->
<g id="edge23" class="edge">
<title>Node3&#45;&gt;Node21</title>
<path fill="none" stroke="midnightblue" d="M314.14,-396.32C423.65,-385.33 694.39,-358.15 779.47,-349.61"/>
<polygon fill="midnightblue" stroke="midnightblue" points="313.66,-392.85 304.06,-397.33 314.36,-399.81 313.66,-392.85"/>
</g>
<!-- Node41 -->
<g id="node41" class="node">
<title>Node41</title>
<g id="a_node41"><a xlink:href="shape_8h.html" target="_top" xlink:title=" ">
<polygon fill="white" stroke="black" points="202,-336.5 202,-355.5 253,-355.5 253,-336.5 202,-336.5"/>
<text text-anchor="middle" x="227.5" y="-343.5" font-family="Helvetica,sans-Serif" font-size="10.00">shape.h</text>
</a>
</g>
</g>
<!-- Node3&#45;&gt;Node41 -->
<g id="edge55" class="edge">
<title>Node3&#45;&gt;Node41</title>
<path fill="none" stroke="midnightblue" d="M254.8,-383.86C247.87,-374.5 239.59,-363.33 233.98,-355.75"/>
<polygon fill="midnightblue" stroke="midnightblue" points="252.13,-386.13 260.89,-392.08 257.75,-381.96 252.13,-386.13"/>
</g>
<!-- Node6 -->
<g id="node6" class="node">
<title>Node6</title>
<g id="a_node6"><a xlink:href="default__skins_8h.html" target="_top" xlink:title=" ">
<polygon fill="white" stroke="black" points="144,-224.5 144,-243.5 227,-243.5 227,-224.5 144,-224.5"/>
<text text-anchor="middle" x="185.5" y="-231.5" font-family="Helvetica,sans-Serif" font-size="10.00">default_skins.h</text>
</a>
</g>
</g>
<!-- Node5&#45;&gt;Node6 -->
<g id="edge5" class="edge">
<title>Node5&#45;&gt;Node6</title>
<path fill="none" stroke="midnightblue" d="M284.67,-331.18C271.34,-322.93 254.79,-311.78 241.5,-300 221.22,-282.01 201.47,-256.75 191.75,-243.64"/>
<polygon fill="midnightblue" stroke="midnightblue" points="282.94,-334.22 293.3,-336.4 286.56,-328.23 282.94,-334.22"/>
</g>
<!-- Node20 -->
<g id="node20" class="node">
<title>Node20</title>
<g id="a_node20"><a xlink:href="image__view_8cpp.html" target="_top" xlink:title=" ">
<polygon fill="white" stroke="black" points="333.5,-280.5 333.5,-299.5 419.5,-299.5 419.5,-280.5 333.5,-280.5"/>
<text text-anchor="middle" x="376.5" y="-287.5" font-family="Helvetica,sans-Serif" font-size="10.00">image_view.cpp</text>
</a>
</g>
</g>
<!-- Node5&#45;&gt;Node20 -->
<g id="edge22" class="edge">
<title>Node5&#45;&gt;Node20</title>
<path fill="none" stroke="midnightblue" d="M327.26,-330.1C339.5,-320.38 355.06,-308.03 365.38,-299.83"/>
<polygon fill="midnightblue" stroke="midnightblue" points="325.08,-327.36 319.43,-336.32 329.43,-332.85 325.08,-327.36"/>
</g>
<!-- Node7 -->
<g id="node7" class="node">
<title>Node7</title>
<g id="a_node7"><a xlink:href="button_8h.html" target="_top" xlink:title=" ">
<polygon fill="white" stroke="black" points="171.5,-168.5 171.5,-187.5 223.5,-187.5 223.5,-168.5 171.5,-168.5"/>
<text text-anchor="middle" x="197.5" y="-175.5" font-family="Helvetica,sans-Serif" font-size="10.00">button.h</text>
</a>
</g>
</g>
<!-- Node6&#45;&gt;Node7 -->
<g id="edge6" class="edge">
<title>Node6&#45;&gt;Node7</title>
<path fill="none" stroke="midnightblue" d="M189.7,-214.1C191.69,-205.14 193.98,-194.86 195.56,-187.75"/>
<polygon fill="midnightblue" stroke="midnightblue" points="186.23,-213.56 187.48,-224.08 193.07,-215.08 186.23,-213.56"/>
</g>
<!-- Node10 -->
<g id="node10" class="node">
<title>Node10</title>
<g id="a_node10"><a xlink:href="default__skins_8cpp.html" target="_top" xlink:title=" ">
<polygon fill="white" stroke="black" points="461,-112.5 461,-131.5 554,-131.5 554,-112.5 461,-112.5"/>
<text text-anchor="middle" x="507.5" y="-119.5" font-family="Helvetica,sans-Serif" font-size="10.00">default_skins.cpp</text>
</a>
</g>
</g>
<!-- Node6&#45;&gt;Node10 -->
<g id="edge17" class="edge">
<title>Node6&#45;&gt;Node10</title>
<path fill="none" stroke="midnightblue" d="M201.66,-217.1C217.92,-202.05 244.41,-180.03 271.5,-168 333.45,-140.5 411.84,-129.78 460.84,-125.62"/>
<polygon fill="midnightblue" stroke="midnightblue" points="198.98,-214.82 194.14,-224.25 203.8,-219.9 198.98,-214.82"/>
</g>
<!-- Node16 -->
<g id="node16" class="node">
<title>Node16</title>
<g id="a_node16"><a xlink:href="scroll__bar_8cpp.html" target="_top" xlink:title=" ">
<polygon fill="white" stroke="black" points="280,-168.5 280,-187.5 357,-187.5 357,-168.5 280,-168.5"/>
<text text-anchor="middle" x="318.5" y="-175.5" font-family="Helvetica,sans-Serif" font-size="10.00">scroll_bar.cpp</text>
</a>
</g>
</g>
<!-- Node6&#45;&gt;Node16 -->
<g id="edge18" class="edge">
<title>Node6&#45;&gt;Node16</title>
<path fill="none" stroke="midnightblue" d="M215.95,-220.64C240.91,-210.5 275.58,-196.43 297.52,-187.52"/>
<polygon fill="midnightblue" stroke="midnightblue" points="214.52,-217.44 206.57,-224.44 217.16,-223.92 214.52,-217.44"/>
</g>
<!-- Node17 -->
<g id="node17" class="node">
<title>Node17</title>
<g id="a_node17"><a xlink:href="scroll__pane_8cpp.html" target="_top" xlink:title=" ">
<polygon fill="white" stroke="black" points="375,-168.5 375,-187.5 460,-187.5 460,-168.5 375,-168.5"/>
<text text-anchor="middle" x="417.5" y="-175.5" font-family="Helvetica,sans-Serif" font-size="10.00">scroll_pane.cpp</text>
</a>
</g>
</g>
<!-- Node6&#45;&gt;Node17 -->
<g id="edge19" class="edge">
<title>Node6&#45;&gt;Node17</title>
<path fill="none" stroke="midnightblue" d="M232.1,-222.15C275.94,-211.95 340.68,-196.88 380.91,-187.52"/>
<polygon fill="midnightblue" stroke="midnightblue" points="231.21,-218.77 222.26,-224.44 232.79,-225.59 231.21,-218.77"/>
</g>
<!-- Node18 -->
<g id="node18" class="node">
<title>Node18</title>
<g id="a_node18"><a xlink:href="slider_8cpp.html" target="_top" xlink:title=" ">
<polygon fill="white" stroke="black" points="554.5,-168.5 554.5,-187.5 612.5,-187.5 612.5,-168.5 554.5,-168.5"/>
<text text-anchor="middle" x="583.5" y="-175.5" font-family="Helvetica,sans-Serif" font-size="10.00">slider.cpp</text>
</a>
</g>
</g>
<!-- Node6&#45;&gt;Node18 -->
<g id="edge20" class="edge">
<title>Node6&#45;&gt;Node18</title>
<path fill="none" stroke="midnightblue" d="M237.27,-223.95C361.25,-205.16 495.93,-189.08 554.19,-182.34"/>
<polygon fill="midnightblue" stroke="midnightblue" points="236.58,-220.51 227.22,-225.48 237.64,-227.43 236.58,-220.51"/>
</g>
<!-- Node19 -->
<g id="node19" class="node">
<title>Node19</title>
<g id="a_node19"><a xlink:href="text_8cpp.html" target="_top" xlink:title=" ">
<polygon fill="white" stroke="black" points="95.5,-168.5 95.5,-187.5 147.5,-187.5 147.5,-168.5 95.5,-168.5"/>
<text text-anchor="middle" x="121.5" y="-175.5" font-family="Helvetica,sans-Serif" font-size="10.00">text.cpp</text>
</a>
</g>
</g>
<!-- Node6&#45;&gt;Node19 -->
<g id="edge21" class="edge">
<title>Node6&#45;&gt;Node19</title>
<path fill="none" stroke="midnightblue" d="M167.51,-217.82C156.04,-208.15 141.59,-195.95 131.97,-187.83"/>
<polygon fill="midnightblue" stroke="midnightblue" points="165.32,-220.55 175.22,-224.32 169.83,-215.2 165.32,-220.55"/>
</g>
<!-- Node8 -->
<g id="node8" class="node">
<title>Node8</title>
<g id="a_node8"><a xlink:href="button_8cpp.html" target="_top" xlink:title=" ">
<polygon fill="white" stroke="black" points="225.5,-112.5 225.5,-131.5 287.5,-131.5 287.5,-112.5 225.5,-112.5"/>
<text text-anchor="middle" x="256.5" y="-119.5" font-family="Helvetica,sans-Serif" font-size="10.00">button.cpp</text>
</a>
</g>
</g>
<!-- Node7&#45;&gt;Node8 -->
<g id="edge7" class="edge">
<title>Node7&#45;&gt;Node8</title>
<path fill="none" stroke="midnightblue" d="M214.39,-161.54C224.91,-151.91 238.07,-139.87 246.85,-131.83"/>
<polygon fill="midnightblue" stroke="midnightblue" points="211.99,-158.99 206.98,-168.32 216.72,-164.15 211.99,-158.99"/>
</g>
<!-- Node9 -->
<g id="node9" class="node">
<title>Node9</title>
<g id="a_node9"><a xlink:href="context__menu_8cpp.html" target="_top" xlink:title=" ">
<polygon fill="white" stroke="black" points="701,-0.5 701,-19.5 798,-19.5 798,-0.5 701,-0.5"/>
<text text-anchor="middle" x="749.5" y="-7.5" font-family="Helvetica,sans-Serif" font-size="10.00">context_menu.cpp</text>
</a>
</g>
</g>
<!-- Node7&#45;&gt;Node9 -->
<g id="edge8" class="edge">
<title>Node7&#45;&gt;Node9</title>
<path fill="none" stroke="midnightblue" d="M197.9,-158.36C199.26,-143.65 203.59,-123.71 216.5,-112 287.56,-47.53 583.14,-21.7 700.83,-13.85"/>
<polygon fill="midnightblue" stroke="midnightblue" points="194.41,-158.2 197.35,-168.37 201.4,-158.58 194.41,-158.2"/>
</g>
<!-- Node7&#45;&gt;Node10 -->
<g id="edge9" class="edge">
<title>Node7&#45;&gt;Node10</title>
<path fill="none" stroke="midnightblue" d="M233.67,-168.77C234.96,-168.5 236.24,-168.25 237.5,-168 315.38,-152.76 406.55,-138.25 460.53,-130.01"/>
<polygon fill="midnightblue" stroke="midnightblue" points="232.76,-165.38 223.71,-170.88 234.21,-172.23 232.76,-165.38"/>
</g>
<!-- Node11 -->
<g id="node11" class="node">
<title>Node11</title>
<g id="a_node11"><a xlink:href="menu__bar_8h.html" target="_top" xlink:title=" ">
<polygon fill="white" stroke="black" points="936,-112.5 936,-131.5 1003,-131.5 1003,-112.5 936,-112.5"/>
<text text-anchor="middle" x="969.5" y="-119.5" font-family="Helvetica,sans-Serif" font-size="10.00">menu_bar.h</text>
</a>
</g>
</g>
<!-- Node7&#45;&gt;Node11 -->
<g id="edge10" class="edge">
<title>Node7&#45;&gt;Node11</title>
<path fill="none" stroke="midnightblue" d="M233.92,-172.16C245.87,-170.68 259.24,-169.14 271.5,-168 526.32,-144.31 834.64,-129.13 935.67,-124.5"/>
<polygon fill="midnightblue" stroke="midnightblue" points="233.31,-168.7 223.83,-173.43 234.19,-175.65 233.31,-168.7"/>
</g>
<!-- Node12 -->
<g id="node12" class="node">
<title>Node12</title>
<g id="a_node12"><a xlink:href="menu__bar_8cpp.html" target="_top" xlink:title=" ">
<polygon fill="white" stroke="black" points="1003,-0.5 1003,-19.5 1080,-19.5 1080,-0.5 1003,-0.5"/>
<text text-anchor="middle" x="1041.5" y="-7.5" font-family="Helvetica,sans-Serif" font-size="10.00">menu_bar.cpp</text>
</a>
</g>
</g>
<!-- Node11&#45;&gt;Node12 -->
<g id="edge11" class="edge">
<title>Node11&#45;&gt;Node12</title>
<path fill="none" stroke="midnightblue" d="M980.66,-103.96C996.26,-80.12 1024.02,-37.71 1035.88,-19.59"/>
<polygon fill="midnightblue" stroke="midnightblue" points="977.7,-102.08 975.15,-112.37 983.55,-105.92 977.7,-102.08"/>
</g>
<!-- Node11&#45;&gt;Node13 -->
<g id="edge12" class="edge">
<title>Node11&#45;&gt;Node13</title>
<path fill="none" stroke="midnightblue" d="M1009.23,-109.59C1046.19,-98.97 1100.17,-83.47 1131.78,-74.39"/>
<polygon fill="midnightblue" stroke="midnightblue" points="1007.93,-106.32 999.29,-112.44 1009.87,-113.05 1007.93,-106.32"/>
</g>
<!-- Node13&#45;&gt;Node9 -->
<g id="edge14" class="edge">
<title>Node13&#45;&gt;Node9</title>
<path fill="none" stroke="midnightblue" d="M1121.88,-60.29C1048.65,-50.59 881.14,-28.42 798.06,-17.43"/>
<polygon fill="midnightblue" stroke="midnightblue" points="1121.6,-63.78 1131.98,-61.62 1122.52,-56.84 1121.6,-63.78"/>
</g>
<!-- Node13&#45;&gt;Node12 -->
<g id="edge15" class="edge">
<title>Node13&#45;&gt;Node12</title>
<path fill="none" stroke="midnightblue" d="M1129.78,-52.1C1108.11,-42.01 1078.6,-28.27 1059.79,-19.52"/>
<polygon fill="midnightblue" stroke="midnightblue" points="1128.58,-55.4 1139.12,-56.44 1131.53,-49.05 1128.58,-55.4"/>
</g>
<!-- Node14 -->
<g id="node14" class="node">
<title>Node14</title>
<g id="a_node14"><a xlink:href="component_8cpp.html" target="_top" xlink:title=" ">
<polygon fill="white" stroke="black" points="1130,-0.5 1130,-19.5 1213,-19.5 1213,-0.5 1130,-0.5"/>
<text text-anchor="middle" x="1171.5" y="-7.5" font-family="Helvetica,sans-Serif" font-size="10.00">component.cpp</text>
</a>
</g>
</g>
<!-- Node13&#45;&gt;Node14 -->
<g id="edge13" class="edge">
<title>Node13&#45;&gt;Node14</title>
<path fill="none" stroke="midnightblue" d="M1162.32,-46.4C1164.67,-37.36 1167.37,-26.94 1169.23,-19.75"/>
<polygon fill="midnightblue" stroke="midnightblue" points="1158.93,-45.52 1159.81,-56.08 1165.71,-47.28 1158.93,-45.52"/>
</g>
<!-- Node15 -->
<g id="node15" class="node">
<title>Node15</title>
<g id="a_node15"><a xlink:href="scene_8cpp.html" target="_top" xlink:title=" ">
<polygon fill="white" stroke="black" points="1285.5,-0.5 1285.5,-19.5 1347.5,-19.5 1347.5,-0.5 1285.5,-0.5"/>
<text text-anchor="middle" x="1316.5" y="-7.5" font-family="Helvetica,sans-Serif" font-size="10.00">scene.cpp</text>
</a>
</g>
</g>
<!-- Node13&#45;&gt;Node15 -->
<g id="edge16" class="edge">
<title>Node13&#45;&gt;Node15</title>
<path fill="none" stroke="midnightblue" d="M1192.33,-53.17C1222.27,-43 1264.72,-28.59 1291.42,-19.52"/>
<polygon fill="midnightblue" stroke="midnightblue" points="1191.04,-49.91 1182.69,-56.44 1193.29,-56.54 1191.04,-49.91"/>
</g>
<!-- Node21&#45;&gt;Node14 -->
<g id="edge24" class="edge">
<title>Node21&#45;&gt;Node14</title>
<path fill="none" stroke="midnightblue" d="M841.9,-344.55C954.97,-342.18 1292.5,-327.37 1292.5,-235 1292.5,-235 1292.5,-235 1292.5,-121 1292.5,-68.48 1229.31,-34.42 1194.26,-19.57"/>
<polygon fill="midnightblue" stroke="midnightblue" points="841.62,-341.05 831.68,-344.74 841.75,-348.05 841.62,-341.05"/>
</g>
<!-- Node21&#45;&gt;Node15 -->
<g id="edge54" class="edge">
<title>Node21&#45;&gt;Node15</title>
<path fill="none" stroke="midnightblue" d="M841.57,-345.14C960.16,-344.65 1330.5,-335.11 1330.5,-235 1330.5,-235 1330.5,-235 1330.5,-121 1330.5,-82.88 1322.13,-37.93 1318.33,-19.51"/>
<polygon fill="midnightblue" stroke="midnightblue" points="841.53,-341.64 831.53,-345.16 841.54,-348.64 841.53,-341.64"/>
</g>
<!-- Node22 -->
<g id="node22" class="node">
<title>Node22</title>
<g id="a_node22"><a xlink:href="container_8h.html" target="_top" xlink:title=" ">
<polygon fill="white" stroke="black" points="939.5,-280.5 939.5,-299.5 1003.5,-299.5 1003.5,-280.5 939.5,-280.5"/>
<text text-anchor="middle" x="971.5" y="-287.5" font-family="Helvetica,sans-Serif" font-size="10.00">container.h</text>
</a>
</g>
</g>
<!-- Node21&#45;&gt;Node22 -->
<g id="edge25" class="edge">
<title>Node21&#45;&gt;Node22</title>
<path fill="none" stroke="midnightblue" d="M841.45,-333.3C872.73,-323.13 917.32,-308.62 945.32,-299.52"/>
<polygon fill="midnightblue" stroke="midnightblue" points="840.23,-330.02 831.8,-336.44 842.4,-336.68 840.23,-330.02"/>
</g>
<!-- Node33 -->
<g id="node33" class="node">
<title>Node33</title>
<g id="a_node33"><a xlink:href="control_8h.html" target="_top" xlink:title=" ">
<polygon fill="white" stroke="black" points="613.5,-280.5 613.5,-299.5 667.5,-299.5 667.5,-280.5 613.5,-280.5"/>
<text text-anchor="middle" x="640.5" y="-287.5" font-family="Helvetica,sans-Serif" font-size="10.00">control.h</text>
</a>
</g>
</g>
<!-- Node21&#45;&gt;Node33 -->
<g id="edge39" class="edge">
<title>Node21&#45;&gt;Node33</title>
<path fill="none" stroke="midnightblue" d="M769.76,-333.3C738.67,-323.13 694.35,-308.62 666.52,-299.52"/>
<polygon fill="midnightblue" stroke="midnightblue" points="768.76,-336.66 779.36,-336.44 770.94,-330.01 768.76,-336.66"/>
</g>
<!-- Node40 -->
<g id="node40" class="node">
<title>Node40</title>
<g id="a_node40"><a xlink:href="parent_8cpp.html" target="_top" xlink:title=" ">
<polygon fill="white" stroke="black" points="533.5,-280.5 533.5,-299.5 595.5,-299.5 595.5,-280.5 533.5,-280.5"/>
<text text-anchor="middle" x="564.5" y="-287.5" font-family="Helvetica,sans-Serif" font-size="10.00">parent.cpp</text>
</a>
</g>
</g>
<!-- Node21&#45;&gt;Node40 -->
<g id="edge53" class="edge">
<title>Node21&#45;&gt;Node40</title>
<path fill="none" stroke="midnightblue" d="M769.61,-336.98C729.4,-327.99 662.28,-312.97 604.5,-300 601.58,-299.35 598.55,-298.66 595.51,-297.98"/>
<polygon fill="midnightblue" stroke="midnightblue" points="768.96,-340.42 779.48,-339.18 770.48,-333.59 768.96,-340.42"/>
</g>
<!-- Node23 -->
<g id="node23" class="node">
<title>Node23</title>
<g id="a_node23"><a xlink:href="box__container_8h.html" target="_top" xlink:title=" ">
<polygon fill="white" stroke="black" points="836,-224.5 836,-243.5 921,-243.5 921,-224.5 836,-224.5"/>
<text text-anchor="middle" x="878.5" y="-231.5" font-family="Helvetica,sans-Serif" font-size="10.00">box_container.h</text>
</a>
</g>
</g>
<!-- Node22&#45;&gt;Node23 -->
<g id="edge26" class="edge">
<title>Node22&#45;&gt;Node23</title>
<path fill="none" stroke="midnightblue" d="M947.69,-275.18C930.58,-265.24 908.03,-252.15 893.4,-243.65"/>
<polygon fill="midnightblue" stroke="midnightblue" points="946.15,-278.33 956.56,-280.32 949.67,-272.28 946.15,-278.33"/>
</g>
<!-- Node26 -->
<g id="node26" class="node">
<title>Node26</title>
<g id="a_node26"><a xlink:href="container_8cpp.html" target="_top" xlink:title=" ">
<polygon fill="white" stroke="black" points="1021.5,-224.5 1021.5,-243.5 1095.5,-243.5 1095.5,-224.5 1021.5,-224.5"/>
<text text-anchor="middle" x="1058.5" y="-231.5" font-family="Helvetica,sans-Serif" font-size="10.00">container.cpp</text>
</a>
</g>
</g>
<!-- Node22&#45;&gt;Node26 -->
<g id="edge32" class="edge">
<title>Node22&#45;&gt;Node26</title>
<path fill="none" stroke="midnightblue" d="M994.22,-274.9C1010.17,-265 1031,-252.07 1044.56,-243.65"/>
<polygon fill="midnightblue" stroke="midnightblue" points="992.13,-272.08 985.48,-280.32 995.82,-278.02 992.13,-272.08"/>
</g>
<!-- Node27 -->
<g id="node27" class="node">
<title>Node27</title>
<g id="a_node27"><a xlink:href="layered__container_8h.html" target="_top" xlink:title=" ">
<polygon fill="white" stroke="black" points="1114,-224.5 1114,-243.5 1215,-243.5 1215,-224.5 1114,-224.5"/>
<text text-anchor="middle" x="1164.5" y="-231.5" font-family="Helvetica,sans-Serif" font-size="10.00">layered_container.h</text>
</a>
</g>
</g>
<!-- Node22&#45;&gt;Node27 -->
<g id="edge33" class="edge">
<title>Node22&#45;&gt;Node27</title>
<path fill="none" stroke="midnightblue" d="M1011.89,-277.7C1048.32,-267.51 1101.09,-252.74 1134.06,-243.52"/>
<polygon fill="midnightblue" stroke="midnightblue" points="1010.77,-274.38 1002.08,-280.44 1012.65,-281.12 1010.77,-274.38"/>
</g>
<!-- Node31 -->
<g id="node31" class="node">
<title>Node31</title>
<g id="a_node31"><a xlink:href="tile__pane_8h.html" target="_top" xlink:title=" ">
<polygon fill="white" stroke="black" points="939.5,-224.5 939.5,-243.5 1003.5,-243.5 1003.5,-224.5 939.5,-224.5"/>
<text text-anchor="middle" x="971.5" y="-231.5" font-family="Helvetica,sans-Serif" font-size="10.00">tile_pane.h</text>
</a>
</g>
</g>
<!-- Node22&#45;&gt;Node31 -->
<g id="edge37" class="edge">
<title>Node22&#45;&gt;Node31</title>
<path fill="none" stroke="midnightblue" d="M971.5,-269.8C971.5,-260.91 971.5,-250.78 971.5,-243.75"/>
<polygon fill="midnightblue" stroke="midnightblue" points="968,-270.08 971.5,-280.08 975,-270.08 968,-270.08"/>
</g>
<!-- Node23&#45;&gt;Node10 -->
<g id="edge31" class="edge">
<title>Node23&#45;&gt;Node10</title>
<path fill="none" stroke="midnightblue" d="M829.81,-222.2C793.18,-213.76 741.88,-201.27 697.5,-188 671.78,-180.31 665.88,-176.75 640.5,-168 603.17,-155.13 559.82,-140.53 533.03,-131.54"/>
<polygon fill="midnightblue" stroke="midnightblue" points="829.2,-225.65 839.73,-224.47 830.76,-218.83 829.2,-225.65"/>
</g>
<!-- Node24 -->
<g id="node24" class="node">
<title>Node24</title>
<g id="a_node24"><a xlink:href="box__container_8cpp.html" target="_top" xlink:title=" ">
<polygon fill="white" stroke="black" points="811,-168.5 811,-187.5 906,-187.5 906,-168.5 811,-168.5"/>
<text text-anchor="middle" x="858.5" y="-175.5" font-family="Helvetica,sans-Serif" font-size="10.00">box_container.cpp</text>
</a>
</g>
</g>
<!-- Node23&#45;&gt;Node24 -->
<g id="edge27" class="edge">
<title>Node23&#45;&gt;Node24</title>
<path fill="none" stroke="midnightblue" d="M871.72,-214.69C868.35,-205.59 864.43,-195.01 861.74,-187.75"/>
<polygon fill="midnightblue" stroke="midnightblue" points="868.44,-215.92 875.2,-224.08 875.01,-213.49 868.44,-215.92"/>
</g>
<!-- Node25 -->
<g id="node25" class="node">
<title>Node25</title>
<g id="a_node25"><a xlink:href="context__menu_8h.html" target="_top" xlink:title=" ">
<polygon fill="white" stroke="black" points="706.5,-168.5 706.5,-187.5 792.5,-187.5 792.5,-168.5 706.5,-168.5"/>
<text text-anchor="middle" x="749.5" y="-175.5" font-family="Helvetica,sans-Serif" font-size="10.00">context_menu.h</text>
</a>
</g>
</g>
<!-- Node23&#45;&gt;Node25 -->
<g id="edge28" class="edge">
<title>Node23&#45;&gt;Node25</title>
<path fill="none" stroke="midnightblue" d="M848.65,-220.5C824.46,-210.38 791.04,-196.39 769.84,-187.52"/>
<polygon fill="midnightblue" stroke="midnightblue" points="847.48,-223.81 858.06,-224.44 850.19,-217.35 847.48,-223.81"/>
</g>
<!-- Node25&#45;&gt;Node9 -->
<g id="edge29" class="edge">
<title>Node25&#45;&gt;Node9</title>
<path fill="none" stroke="midnightblue" d="M749.5,-157.93C749.5,-121.92 749.5,-45.23 749.5,-19.57"/>
<polygon fill="midnightblue" stroke="midnightblue" points="746,-158.08 749.5,-168.08 753,-158.08 746,-158.08"/>
</g>
<!-- Node25&#45;&gt;Node11 -->
<g id="edge30" class="edge">
<title>Node25&#45;&gt;Node11</title>
<path fill="none" stroke="midnightblue" d="M794.31,-166C836.26,-155.7 898.01,-140.55 935.89,-131.25"/>
<polygon fill="midnightblue" stroke="midnightblue" points="793.24,-162.66 784.36,-168.44 794.91,-169.46 793.24,-162.66"/>
</g>
<!-- Node28 -->
<g id="node28" class="node">
<title>Node28</title>
<g id="a_node28"><a xlink:href="anchor__pane_8h.html" target="_top" xlink:title=" ">
<polygon fill="white" stroke="black" points="1146.5,-168.5 1146.5,-187.5 1226.5,-187.5 1226.5,-168.5 1146.5,-168.5"/>
<text text-anchor="middle" x="1186.5" y="-175.5" font-family="Helvetica,sans-Serif" font-size="10.00">anchor_pane.h</text>
</a>
</g>
</g>
<!-- Node27&#45;&gt;Node28 -->
<g id="edge34" class="edge">
<title>Node27&#45;&gt;Node28</title>
<path fill="none" stroke="midnightblue" d="M1171.96,-214.69C1175.67,-205.59 1179.98,-195.01 1182.93,-187.75"/>
<polygon fill="midnightblue" stroke="midnightblue" points="1168.66,-213.5 1168.13,-224.08 1175.15,-216.14 1168.66,-213.5"/>
</g>
<!-- Node30 -->
<g id="node30" class="node">
<title>Node30</title>
<g id="a_node30"><a xlink:href="layered__container_8cpp.html" target="_top" xlink:title=" ">
<polygon fill="white" stroke="black" points="1017,-168.5 1017,-187.5 1128,-187.5 1128,-168.5 1017,-168.5"/>
<text text-anchor="middle" x="1072.5" y="-175.5" font-family="Helvetica,sans-Serif" font-size="10.00">layered_container.cpp</text>
</a>
</g>
</g>
<!-- Node27&#45;&gt;Node30 -->
<g id="edge36" class="edge">
<title>Node27&#45;&gt;Node30</title>
<path fill="none" stroke="midnightblue" d="M1140.95,-219.18C1124.02,-209.24 1101.72,-196.15 1087.24,-187.65"/>
<polygon fill="midnightblue" stroke="midnightblue" points="1139.32,-222.28 1149.72,-224.32 1142.87,-216.24 1139.32,-222.28"/>
</g>
<!-- Node29 -->
<g id="node29" class="node">
<title>Node29</title>
<g id="a_node29"><a xlink:href="anchor__pane_8cpp.html" target="_top" xlink:title=" ">
<polygon fill="white" stroke="black" points="1135,-112.5 1135,-131.5 1226,-131.5 1226,-112.5 1135,-112.5"/>
<text text-anchor="middle" x="1180.5" y="-119.5" font-family="Helvetica,sans-Serif" font-size="10.00">anchor_pane.cpp</text>
</a>
</g>
</g>
<!-- Node28&#45;&gt;Node29 -->
<g id="edge35" class="edge">
<title>Node28&#45;&gt;Node29</title>
<path fill="none" stroke="midnightblue" d="M1184.4,-158.1C1183.4,-149.14 1182.26,-138.86 1181.47,-131.75"/>
<polygon fill="midnightblue" stroke="midnightblue" points="1180.93,-158.53 1185.51,-168.08 1187.88,-157.76 1180.93,-158.53"/>
</g>
<!-- Node32 -->
<g id="node32" class="node">
<title>Node32</title>
<g id="a_node32"><a xlink:href="tile__pane_8cpp.html" target="_top" xlink:title=" ">
<polygon fill="white" stroke="black" points="924.5,-168.5 924.5,-187.5 998.5,-187.5 998.5,-168.5 924.5,-168.5"/>
<text text-anchor="middle" x="961.5" y="-175.5" font-family="Helvetica,sans-Serif" font-size="10.00">tile_pane.cpp</text>
</a>
</g>
</g>
<!-- Node31&#45;&gt;Node32 -->
<g id="edge38" class="edge">
<title>Node31&#45;&gt;Node32</title>
<path fill="none" stroke="midnightblue" d="M968,-214.1C966.34,-205.14 964.44,-194.86 963.12,-187.75"/>
<polygon fill="midnightblue" stroke="midnightblue" points="964.59,-214.89 969.85,-224.08 971.47,-213.61 964.59,-214.89"/>
</g>
<!-- Node33&#45;&gt;Node7 -->
<g id="edge40" class="edge">
<title>Node33&#45;&gt;Node7</title>
<path fill="none" stroke="midnightblue" d="M603.36,-279.98C498.08,-260.11 465.65,-276.27 367.5,-244 349.37,-238.04 347.03,-231.55 329.5,-224 293.7,-208.59 250.72,-194.76 223.75,-186.62"/>
<polygon fill="midnightblue" stroke="midnightblue" points="602.95,-283.46 613.44,-281.94 604.29,-276.59 602.95,-283.46"/>
</g>
<!-- Node34 -->
<g id="node34" class="node">
<title>Node34</title>
<g id="a_node34"><a xlink:href="control_8cpp.html" target="_top" xlink:title=" ">
<polygon fill="white" stroke="black" points="753,-224.5 753,-243.5 818,-243.5 818,-224.5 753,-224.5"/>
<text text-anchor="middle" x="785.5" y="-231.5" font-family="Helvetica,sans-Serif" font-size="10.00">control.cpp</text>
</a>
</g>
</g>
<!-- Node33&#45;&gt;Node34 -->
<g id="edge41" class="edge">
<title>Node33&#45;&gt;Node34</title>
<path fill="none" stroke="midnightblue" d="M672.98,-276.91C700.24,-266.75 738.49,-252.51 762.63,-243.52"/>
<polygon fill="midnightblue" stroke="midnightblue" points="671.63,-273.67 663.48,-280.44 674.07,-280.23 671.63,-273.67"/>
</g>
<!-- Node35 -->
<g id="node35" class="node">
<title>Node35</title>
<g id="a_node35"><a xlink:href="label_8h.html" target="_top" xlink:title=" ">
<polygon fill="white" stroke="black" points="461,-224.5 461,-243.5 506,-243.5 506,-224.5 461,-224.5"/>
<text text-anchor="middle" x="483.5" y="-231.5" font-family="Helvetica,sans-Serif" font-size="10.00">label.h</text>
</a>
</g>
</g>
<!-- Node33&#45;&gt;Node35 -->
<g id="edge42" class="edge">
<title>Node33&#45;&gt;Node35</title>
<path fill="none" stroke="midnightblue" d="M605.88,-277.09C575.55,-266.66 532.36,-251.8 506.22,-242.82"/>
<polygon fill="midnightblue" stroke="midnightblue" points="605.03,-280.5 615.62,-280.44 607.3,-273.88 605.03,-280.5"/>
</g>
<!-- Node36 -->
<g id="node36" class="node">
<title>Node36</title>
<g id="a_node36"><a xlink:href="scroll__bar_8h.html" target="_top" xlink:title=" ">
<polygon fill="white" stroke="black" points="376.5,-224.5 376.5,-243.5 442.5,-243.5 442.5,-224.5 376.5,-224.5"/>
<text text-anchor="middle" x="409.5" y="-231.5" font-family="Helvetica,sans-Serif" font-size="10.00">scroll_bar.h</text>
</a>
</g>
</g>
<!-- Node33&#45;&gt;Node36 -->
<g id="edge43" class="edge">
<title>Node33&#45;&gt;Node36</title>
<path fill="none" stroke="midnightblue" d="M603.39,-279.76C541.09,-264.84 479.53,-250.8 442.67,-242.46"/>
<polygon fill="midnightblue" stroke="midnightblue" points="602.85,-283.23 613.39,-282.17 604.48,-276.43 602.85,-283.23"/>
</g>
<!-- Node37 -->
<g id="node37" class="node">
<title>Node37</title>
<g id="a_node37"><a xlink:href="scroll__pane_8h.html" target="_top" xlink:title=" ">
<polygon fill="white" stroke="black" points="524.5,-224.5 524.5,-243.5 598.5,-243.5 598.5,-224.5 524.5,-224.5"/>
<text text-anchor="middle" x="561.5" y="-231.5" font-family="Helvetica,sans-Serif" font-size="10.00">scroll_pane.h</text>
</a>
</g>
</g>
<!-- Node33&#45;&gt;Node37 -->
<g id="edge46" class="edge">
<title>Node33&#45;&gt;Node37</title>
<path fill="none" stroke="midnightblue" d="M619.47,-274.62C605.03,-264.76 586.36,-251.99 574.16,-243.65"/>
<polygon fill="midnightblue" stroke="midnightblue" points="617.58,-277.57 627.81,-280.32 621.53,-271.79 617.58,-277.57"/>
</g>
<!-- Node38 -->
<g id="node38" class="node">
<title>Node38</title>
<g id="a_node38"><a xlink:href="skin_8cpp.html" target="_top" xlink:title=" ">
<polygon fill="white" stroke="black" points="682,-224.5 682,-243.5 735,-243.5 735,-224.5 682,-224.5"/>
<text text-anchor="middle" x="708.5" y="-231.5" font-family="Helvetica,sans-Serif" font-size="10.00">skin.cpp</text>
</a>
</g>
</g>
<!-- Node33&#45;&gt;Node38 -->
<g id="edge49" class="edge">
<title>Node33&#45;&gt;Node38</title>
<path fill="none" stroke="midnightblue" d="M659.26,-274.1C671.5,-264.38 687.06,-252.03 697.38,-243.83"/>
<polygon fill="midnightblue" stroke="midnightblue" points="657.08,-271.36 651.43,-280.32 661.43,-276.85 657.08,-271.36"/>
</g>
<!-- Node39 -->
<g id="node39" class="node">
<title>Node39</title>
<g id="a_node39"><a xlink:href="slider_8h.html" target="_top" xlink:title=" ">
<polygon fill="white" stroke="black" points="617,-224.5 617,-243.5 664,-243.5 664,-224.5 617,-224.5"/>
<text text-anchor="middle" x="640.5" y="-231.5" font-family="Helvetica,sans-Serif" font-size="10.00">slider.h</text>
</a>
</g>
</g>
<!-- Node33&#45;&gt;Node39 -->
<g id="edge50" class="edge">
<title>Node33&#45;&gt;Node39</title>
<path fill="none" stroke="midnightblue" d="M640.5,-269.8C640.5,-260.91 640.5,-250.78 640.5,-243.75"/>
<polygon fill="midnightblue" stroke="midnightblue" points="637,-270.08 640.5,-280.08 644,-270.08 637,-270.08"/>
</g>
<!-- Node36&#45;&gt;Node10 -->
<g id="edge44" class="edge">
<title>Node36&#45;&gt;Node10</title>
<path fill="none" stroke="midnightblue" d="M432.71,-218.81C444.64,-210.76 458.87,-199.93 469.5,-188 485.33,-170.24 497.86,-144.88 503.78,-131.7"/>
<polygon fill="midnightblue" stroke="midnightblue" points="430.6,-216 424.13,-224.39 434.42,-221.87 430.6,-216"/>
</g>
<!-- Node36&#45;&gt;Node16 -->
<g id="edge45" class="edge">
<title>Node36&#45;&gt;Node16</title>
<path fill="none" stroke="midnightblue" d="M386.21,-219.18C369.46,-209.24 347.4,-196.15 333.08,-187.65"/>
<polygon fill="midnightblue" stroke="midnightblue" points="384.49,-222.23 394.88,-224.32 388.07,-216.21 384.49,-222.23"/>
</g>
<!-- Node37&#45;&gt;Node10 -->
<g id="edge47" class="edge">
<title>Node37&#45;&gt;Node10</title>
<path fill="none" stroke="midnightblue" d="M552.82,-215.32C541.06,-191.37 520.53,-149.55 511.72,-131.59"/>
<polygon fill="midnightblue" stroke="midnightblue" points="549.71,-216.93 557.26,-224.37 556,-213.85 549.71,-216.93"/>
</g>
<!-- Node37&#45;&gt;Node17 -->
<g id="edge48" class="edge">
<title>Node37&#45;&gt;Node17</title>
<path fill="none" stroke="midnightblue" d="M529.25,-220.91C502.18,-210.75 464.18,-196.51 440.21,-187.52"/>
<polygon fill="midnightblue" stroke="midnightblue" points="528.09,-224.21 538.68,-224.44 530.55,-217.66 528.09,-224.21"/>
</g>
<!-- Node39&#45;&gt;Node10 -->
<g id="edge51" class="edge">
<title>Node39&#45;&gt;Node10</title>
<path fill="none" stroke="midnightblue" d="M639.37,-214.09C637.57,-199.82 633,-180.61 621.5,-168 604,-148.82 577.29,-137.7 554.12,-131.32"/>
<polygon fill="midnightblue" stroke="midnightblue" points="635.9,-214.62 640.3,-224.26 642.87,-213.98 635.9,-214.62"/>
</g>
<!-- Node39&#45;&gt;Node18 -->
<g id="edge52" class="edge">
<title>Node39&#45;&gt;Node18</title>
<path fill="none" stroke="midnightblue" d="M623.88,-217.25C613.77,-207.67 601.22,-195.79 592.82,-187.83"/>
<polygon fill="midnightblue" stroke="midnightblue" points="621.68,-219.99 631.34,-224.32 626.49,-214.91 621.68,-219.99"/>
</g>
<!-- Node42 -->
<g id="node42" class="node">
<title>Node42</title>
<g id="a_node42"><a xlink:href="circle_8h.html" target="_top" xlink:title=" ">
<polygon fill="white" stroke="black" points="5.5,-280.5 5.5,-299.5 53.5,-299.5 53.5,-280.5 5.5,-280.5"/>
<text text-anchor="middle" x="29.5" y="-287.5" font-family="Helvetica,sans-Serif" font-size="10.00">circle.h</text>
</a>
</g>
</g>
<!-- Node41&#45;&gt;Node42 -->
<g id="edge56" class="edge">
<title>Node41&#45;&gt;Node42</title>
<path fill="none" stroke="midnightblue" d="M191.74,-335.25C151.72,-324.33 88,-306.95 53.53,-297.55"/>
<polygon fill="midnightblue" stroke="midnightblue" points="191.05,-338.69 201.61,-337.94 192.89,-331.93 191.05,-338.69"/>
</g>
<!-- Node44 -->
<g id="node44" class="node">
<title>Node44</title>
<g id="a_node44"><a xlink:href="rectangle_8h.html" target="_top" xlink:title=" ">
<polygon fill="white" stroke="black" points="250,-280.5 250,-299.5 315,-299.5 315,-280.5 250,-280.5"/>
<text text-anchor="middle" x="282.5" y="-287.5" font-family="Helvetica,sans-Serif" font-size="10.00">rectangle.h</text>
</a>
</g>
</g>
<!-- Node41&#45;&gt;Node44 -->
<g id="edge58" class="edge">
<title>Node41&#45;&gt;Node44</title>
<path fill="none" stroke="midnightblue" d="M243.79,-329C253.54,-319.43 265.55,-307.64 273.59,-299.75"/>
<polygon fill="midnightblue" stroke="midnightblue" points="241.27,-326.58 236.58,-336.08 246.17,-331.57 241.27,-326.58"/>
</g>
<!-- Node46 -->
<g id="node46" class="node">
<title>Node46</title>
<g id="a_node46"><a xlink:href="shape_8cpp.html" target="_top" xlink:title=" ">
<polygon fill="white" stroke="black" points="71.5,-280.5 71.5,-299.5 133.5,-299.5 133.5,-280.5 71.5,-280.5"/>
<text text-anchor="middle" x="102.5" y="-287.5" font-family="Helvetica,sans-Serif" font-size="10.00">shape.cpp</text>
</a>
</g>
</g>
<!-- Node41&#45;&gt;Node46 -->
<g id="edge61" class="edge">
<title>Node41&#45;&gt;Node46</title>
<path fill="none" stroke="midnightblue" d="M198.26,-332.37C174.85,-322.26 142.66,-308.35 122.21,-299.52"/>
<polygon fill="midnightblue" stroke="midnightblue" points="197.13,-335.69 207.69,-336.44 199.9,-329.26 197.13,-335.69"/>
</g>
<!-- Node47 -->
<g id="node47" class="node">
<title>Node47</title>
<g id="a_node47"><a xlink:href="text_8h.html" target="_top" xlink:title=" ">
<polygon fill="white" stroke="black" points="152,-280.5 152,-299.5 193,-299.5 193,-280.5 152,-280.5"/>
<text text-anchor="middle" x="172.5" y="-287.5" font-family="Helvetica,sans-Serif" font-size="10.00">text.h</text>
</a>
</g>
</g>
<!-- Node41&#45;&gt;Node47 -->
<g id="edge62" class="edge">
<title>Node41&#45;&gt;Node47</title>
<path fill="none" stroke="midnightblue" d="M211.21,-329C201.46,-319.43 189.45,-307.64 181.41,-299.75"/>
<polygon fill="midnightblue" stroke="midnightblue" points="208.83,-331.57 218.42,-336.08 213.73,-326.58 208.83,-331.57"/>
</g>
<!-- Node43 -->
<g id="node43" class="node">
<title>Node43</title>
<g id="a_node43"><a xlink:href="circle_8cpp.html" target="_top" xlink:title=" ">
<polygon fill="white" stroke="black" points="0,-224.5 0,-243.5 59,-243.5 59,-224.5 0,-224.5"/>
<text text-anchor="middle" x="29.5" y="-231.5" font-family="Helvetica,sans-Serif" font-size="10.00">circle.cpp</text>
</a>
</g>
</g>
<!-- Node42&#45;&gt;Node43 -->
<g id="edge57" class="edge">
<title>Node42&#45;&gt;Node43</title>
<path fill="none" stroke="midnightblue" d="M29.5,-269.8C29.5,-260.91 29.5,-250.78 29.5,-243.75"/>
<polygon fill="midnightblue" stroke="midnightblue" points="26,-270.08 29.5,-280.08 33,-270.08 26,-270.08"/>
</g>
<!-- Node44&#45;&gt;Node6 -->
<g id="edge59" class="edge">
<title>Node44&#45;&gt;Node6</title>
<path fill="none" stroke="midnightblue" d="M258.16,-275.45C240.26,-265.48 216.45,-252.23 201.05,-243.65"/>
<polygon fill="midnightblue" stroke="midnightblue" points="256.48,-278.52 266.92,-280.32 259.88,-272.4 256.48,-278.52"/>
</g>
<!-- Node45 -->
<g id="node45" class="node">
<title>Node45</title>
<g id="a_node45"><a xlink:href="rectangle_8cpp.html" target="_top" xlink:title=" ">
<polygon fill="white" stroke="black" points="245,-224.5 245,-243.5 320,-243.5 320,-224.5 245,-224.5"/>
<text text-anchor="middle" x="282.5" y="-231.5" font-family="Helvetica,sans-Serif" font-size="10.00">rectangle.cpp</text>
</a>
</g>
</g>
<!-- Node44&#45;&gt;Node45 -->
<g id="edge60" class="edge">
<title>Node44&#45;&gt;Node45</title>
<path fill="none" stroke="midnightblue" d="M282.5,-269.8C282.5,-260.91 282.5,-250.78 282.5,-243.75"/>
<polygon fill="midnightblue" stroke="midnightblue" points="279,-270.08 282.5,-280.08 286,-270.08 279,-270.08"/>
</g>
<!-- Node47&#45;&gt;Node6 -->
<g id="edge63" class="edge">
<title>Node47&#45;&gt;Node6</title>
<path fill="none" stroke="midnightblue" d="M177.05,-270.1C179.21,-261.14 181.68,-250.86 183.39,-243.75"/>
<polygon fill="midnightblue" stroke="midnightblue" points="173.58,-269.54 174.65,-280.08 180.39,-271.18 173.58,-269.54"/>
</g>
<!-- Node47&#45;&gt;Node19 -->
<g id="edge64" class="edge">
<title>Node47&#45;&gt;Node19</title>
<path fill="none" stroke="midnightblue" d="M155.65,-273.14C148.08,-265.1 139.7,-254.78 134.5,-244 125.5,-225.34 122.73,-200.79 121.88,-187.85"/>
<polygon fill="midnightblue" stroke="midnightblue" points="153.28,-275.71 162.81,-280.34 158.24,-270.78 153.28,-275.71"/>
</g>
</g>
</svg>
        <g id="navigator" transform="translate(0 0)" fill="#404254">
                <rect fill="#f2f5e9" fill-opacity="0.5" stroke="#606060" stroke-width=".5" x="0" y="0" width="60" height="60"/>
                <use id="zoomplus" xlink:href="#zoomPlus" x="17" y="9" onmousedown="handleZoom(evt,'in')"/>
                <use id="zoomminus" xlink:href="#zoomMin" x="42" y="9" onmousedown="handleZoom(evt,'out')"/>
                <use id="reset" xlink:href="#resetDef" x="30" y="36" onmousedown="handleReset()"/>
                <g id="arrowUp" xlink:href="#dirArrow" transform="translate(30 24)" onmousedown="handlePan(0,-1)">
                  <use xlink:href="#rim" fill="#404040">
                        <set attributeName="fill" to="#808080" begin="arrowUp.mouseover" end="arrowUp.mouseout"/>
                  </use>
                  <path fill="none" stroke="white" stroke-width="1.5" d="M0,-3.0v7 M-2.5,-0.5L0,-3.0L2.5,-0.5"/>
                </g>
                <g id="arrowRight" xlink:href="#dirArrow" transform="rotate(90) translate(36 -43)" onmousedown="handlePan(1,0)">
                  <use xlink:href="#rim" fill="#404040">
                        <set attributeName="fill" to="#808080" begin="arrowRight.mouseover" end="arrowRight.mouseout"/>
                  </use>
                  <path fill="none" stroke="white" stroke-width="1.5" d="M0,-3.0v7 M-2.5,-0.5L0,-3.0L2.5,-0.5"/>
                </g>
                <g id="arrowDown" xlink:href="#dirArrow" transform="rotate(180) translate(-30 -48)" onmousedown="handlePan(0,1)">
                  <use xlink:href="#rim" fill="#404040">
                        <set attributeName="fill" to="#808080" begin="arrowDown.mouseover" end="arrowDown.mouseout"/>
                  </use>
                  <path fill="none" stroke="white" stroke-width="1.5" d="M0,-3.0v7 M-2.5,-0.5L0,-3.0L2.5,-0.5"/>
                </g>
                <g id="arrowLeft" xlink:href="#dirArrow" transform="rotate(270) translate(-36 17)" onmousedown="handlePan(-1,0)">
                  <use xlink:href="#rim" fill="#404040">
                        <set attributeName="fill" to="#808080" begin="arrowLeft.mouseover" end="arrowLeft.mouseout"/>
                  </use>
                  <path fill="none" stroke="white" stroke-width="1.5" d="M0,-3.0v7 M-2.5,-0.5L0,-3.0L2.5,-0.5"/>
                </g>
        </g>
        <svg viewBox="0 0 15 15" width="100%" height="30px" preserveAspectRatio="xMaxYMin meet">
         <g id="arrow_out" transform="scale(0.3 0.3)">
          <a xlink:href="gui__event_8h__dep__incl_org.svg" target="_base">
           <rect id="button" ry="5" rx="5" y="6" x="6" height="38" width="38"
                fill="#f2f5e9" fill-opacity="0.5" stroke="#606060" stroke-width="1.0"/>
           <path id="arrow"
             d="M 11.500037,31.436501 C 11.940474,20.09759 22.043105,11.32322 32.158766,21.979434 L 37.068811,17.246167 C 37.068811,17.246167 37.088388,32 37.088388,32 L 22.160133,31.978069 C 22.160133,31.978069 26.997745,27.140456 26.997745,27.140456 C 18.528582,18.264221 13.291696,25.230495 11.500037,31.436501 z"
             style="fill:#404040;"/>
          </a>
         </g>
        </svg>
</svg>
