<?xml version="1.0" encoding="UTF-8" standalone="no"?>
<!DOCTYPE svg PUBLIC "-//W3C//DTD SVG 1.1//EN"
 "http://www.w3.org/Graphics/SVG/1.1/DTD/svg11.dtd">
<!-- Generated by graphviz version 2.50.0 (20211204.2007)
 -->
<!-- Title: gui_event_dispatching.h Pages: 1 -->
<!--zoomable 476 -->
<svg id="main" version="1.1" xmlns="http://www.w3.org/2000/svg" xmlns:xlink="http://www.w3.org/1999/xlink" xml:space="preserve" onload="init(evt)">
<style type="text/css"><![CDATA[
.edge:hover path { stroke: red; }
.edge:hover polygon { stroke: red; fill: red; }
]]></style>
<script type="text/javascript"><![CDATA[
var edges = document.getElementsByTagName('g');
if (edges && edges.length) {
  for (var i=0;i<edges.length;i++) {
    if (edges[i].id.substr(0,4)=='edge') {
      edges[i].setAttribute('class','edge');
    }
  }
}
]]></script>
        <defs>
                <circle id="rim" cx="0" cy="0" r="7"/>
                <circle id="rim2" cx="0" cy="0" r="3.5"/>
                <g id="zoomPlus">
                        <use xlink:href="#rim" fill="#404040">
                                <set attributeName="fill" to="#808080" begin="zoomplus.mouseover" end="zoomplus.mouseout"/>
                        </use>
                        <path d="M-4,0h8M0,-4v8" fill="none" stroke="white" stroke-width="1.5" pointer-events="none"/>
                </g>
                <g id="zoomMin">
                        <use xlink:href="#rim" fill="#404040">
                                <set attributeName="fill" to="#808080" begin="zoomminus.mouseover" end="zoomminus.mouseout"/>
                        </use>
                        <path d="M-4,0h8" fill="none" stroke="white" stroke-width="1.5" pointer-events="none"/>
                </g>
                <g id="dirArrow">
                        <path fill="none" stroke="white" stroke-width="1.5" d="M0,-3.0v7 M-2.5,-0.5L0,-3.0L2.5,-0.5"/>
                </g>
               <g id="resetDef">
                       <use xlink:href="#rim2" fill="#404040">
                               <set attributeName="fill" to="#808080" begin="reset.mouseover" end="reset.mouseout"/>
                       </use>
               </g>
        </defs>

<script type="text/javascript">
var viewWidth = 1255;
var viewHeight = 476;
var sectionId = 'dynsection-1';
</script>
<script xlink:href="svgpan.js"/>
<svg id="graph" class="graph">
<g id="viewport">
<title>gui_event_dispatching.h</title>
<polygon fill="white" stroke="transparent" points="-4,4 -4,-472 1250.5,-472 1250.5,4 -4,4"/>
<!-- Node1 -->
<g id="node1" class="node">
<title>Node1</title>
<g id="a_node1"><a xlink:title=" ">
<polygon fill="#bfbfbf" stroke="black" points="253.5,-448.5 253.5,-467.5 375.5,-467.5 375.5,-448.5 253.5,-448.5"/>
<text text-anchor="middle" x="314.5" y="-455.5" font-family="Helvetica,sans-Serif" font-size="10.00">gui_event_dispatching.h</text>
</a>
</g>
</g>
<!-- Node2 -->
<g id="node2" class="node">
<title>Node2</title>
<g id="a_node2"><a xlink:href="component_8h.html" target="_top" xlink:title=" ">
<polygon fill="white" stroke="black" points="278,-392.5 278,-411.5 351,-411.5 351,-392.5 278,-392.5"/>
<text text-anchor="middle" x="314.5" y="-399.5" font-family="Helvetica,sans-Serif" font-size="10.00">component.h</text>
</a>
</g>
</g>
<!-- Node1&#45;&gt;Node2 -->
<g id="edge1" class="edge">
<title>Node1&#45;&gt;Node2</title>
<path fill="none" stroke="midnightblue" d="M314.5,-437.8C314.5,-428.91 314.5,-418.78 314.5,-411.75"/>
<polygon fill="midnightblue" stroke="midnightblue" points="311,-438.08 314.5,-448.08 318,-438.08 311,-438.08"/>
</g>
<!-- Node3 -->
<g id="node3" class="node">
<title>Node3</title>
<g id="a_node3"><a xlink:href="gui__event__dispatching_8cpp.html" target="_top" xlink:title=" ">
<polygon fill="white" stroke="black" points="92.5,-336.5 92.5,-355.5 224.5,-355.5 224.5,-336.5 92.5,-336.5"/>
<text text-anchor="middle" x="158.5" y="-343.5" font-family="Helvetica,sans-Serif" font-size="10.00">gui_event_dispatching.cpp</text>
</a>
</g>
</g>
<!-- Node1&#45;&gt;Node3 -->
<g id="edge60" class="edge">
<title>Node1&#45;&gt;Node3</title>
<path fill="none" stroke="midnightblue" d="M293.82,-442.42C260.82,-419.15 197.29,-374.35 170.68,-355.59"/>
<polygon fill="midnightblue" stroke="midnightblue" points="292.07,-445.47 302.26,-448.37 296.1,-439.75 292.07,-445.47"/>
</g>
<!-- Node12 -->
<g id="node12" class="node">
<title>Node12</title>
<g id="a_node12"><a xlink:href="scene_8h.html" target="_top" xlink:title=" ">
<polygon fill="white" stroke="black" points="1016,-56.5 1016,-75.5 1067,-75.5 1067,-56.5 1016,-56.5"/>
<text text-anchor="middle" x="1041.5" y="-63.5" font-family="Helvetica,sans-Serif" font-size="10.00">scene.h</text>
</a>
</g>
</g>
<!-- Node1&#45;&gt;Node12 -->
<g id="edge61" class="edge">
<title>Node1&#45;&gt;Node12</title>
<path fill="none" stroke="midnightblue" d="M385.7,-456.06C603.57,-452.23 1246.5,-433.61 1246.5,-347 1246.5,-347 1246.5,-347 1246.5,-233 1246.5,-141.64 1122,-91.86 1067.05,-74.34"/>
<polygon fill="midnightblue" stroke="midnightblue" points="385.59,-452.56 375.65,-456.23 385.71,-459.56 385.59,-452.56"/>
</g>
<!-- Node2&#45;&gt;Node3 -->
<g id="edge2" class="edge">
<title>Node2&#45;&gt;Node3</title>
<path fill="none" stroke="midnightblue" d="M280.33,-389.17C250.96,-379 209.3,-364.59 183.1,-355.52"/>
<polygon fill="midnightblue" stroke="midnightblue" points="279.19,-392.48 289.78,-392.44 281.48,-385.86 279.19,-392.48"/>
</g>
<!-- Node4 -->
<g id="node4" class="node">
<title>Node4</title>
<g id="a_node4"><a xlink:href="image__view_8h.html" target="_top" xlink:title=" ">
<polygon fill="white" stroke="black" points="323,-336.5 323,-355.5 398,-355.5 398,-336.5 323,-336.5"/>
<text text-anchor="middle" x="360.5" y="-343.5" font-family="Helvetica,sans-Serif" font-size="10.00">image_view.h</text>
</a>
</g>
</g>
<!-- Node2&#45;&gt;Node4 -->
<g id="edge3" class="edge">
<title>Node2&#45;&gt;Node4</title>
<path fill="none" stroke="midnightblue" d="M328.61,-384.43C336.68,-374.97 346.46,-363.48 353.05,-355.75"/>
<polygon fill="midnightblue" stroke="midnightblue" points="325.92,-382.2 322.1,-392.08 331.25,-386.74 325.92,-382.2"/>
</g>
<!-- Node19 -->
<g id="node19" class="node">
<title>Node19</title>
<g id="a_node19"><a xlink:href="parent_8h.html" target="_top" xlink:title=" ">
<polygon fill="white" stroke="black" points="623.5,-336.5 623.5,-355.5 675.5,-355.5 675.5,-336.5 623.5,-336.5"/>
<text text-anchor="middle" x="649.5" y="-343.5" font-family="Helvetica,sans-Serif" font-size="10.00">parent.h</text>
</a>
</g>
</g>
<!-- Node2&#45;&gt;Node19 -->
<g id="edge21" class="edge">
<title>Node2&#45;&gt;Node19</title>
<path fill="none" stroke="midnightblue" d="M361.38,-393.44C432.81,-381.93 566.56,-360.37 623.14,-351.25"/>
<polygon fill="midnightblue" stroke="midnightblue" points="360.62,-390.02 351.31,-395.07 361.74,-396.93 360.62,-390.02"/>
</g>
<!-- Node38 -->
<g id="node38" class="node">
<title>Node38</title>
<g id="a_node38"><a xlink:href="shape_8h.html" target="_top" xlink:title=" ">
<polygon fill="white" stroke="black" points="243,-336.5 243,-355.5 294,-355.5 294,-336.5 243,-336.5"/>
<text text-anchor="middle" x="268.5" y="-343.5" font-family="Helvetica,sans-Serif" font-size="10.00">shape.h</text>
</a>
</g>
</g>
<!-- Node2&#45;&gt;Node38 -->
<g id="edge50" class="edge">
<title>Node2&#45;&gt;Node38</title>
<path fill="none" stroke="midnightblue" d="M300.39,-384.43C292.32,-374.97 282.54,-363.48 275.95,-355.75"/>
<polygon fill="midnightblue" stroke="midnightblue" points="297.75,-386.74 306.9,-392.08 303.08,-382.2 297.75,-386.74"/>
</g>
<!-- Node5 -->
<g id="node5" class="node">
<title>Node5</title>
<g id="a_node5"><a xlink:href="default__skins_8h.html" target="_top" xlink:title=" ">
<polygon fill="white" stroke="black" points="116,-224.5 116,-243.5 199,-243.5 199,-224.5 116,-224.5"/>
<text text-anchor="middle" x="157.5" y="-231.5" font-family="Helvetica,sans-Serif" font-size="10.00">default_skins.h</text>
</a>
</g>
</g>
<!-- Node4&#45;&gt;Node5 -->
<g id="edge4" class="edge">
<title>Node4&#45;&gt;Node5</title>
<path fill="none" stroke="midnightblue" d="M384.44,-331.1C404.28,-317.84 427.06,-297.36 412.5,-280 412.5,-280 271.29,-255.08 199.04,-242.33"/>
<polygon fill="midnightblue" stroke="midnightblue" points="382.52,-328.17 375.95,-336.48 386.27,-334.08 382.52,-328.17"/>
</g>
<!-- Node18 -->
<g id="node18" class="node">
<title>Node18</title>
<g id="a_node18"><a xlink:href="image__view_8cpp.html" target="_top" xlink:title=" ">
<polygon fill="white" stroke="black" points="317.5,-280.5 317.5,-299.5 403.5,-299.5 403.5,-280.5 317.5,-280.5"/>
<text text-anchor="middle" x="360.5" y="-287.5" font-family="Helvetica,sans-Serif" font-size="10.00">image_view.cpp</text>
</a>
</g>
</g>
<!-- Node4&#45;&gt;Node18 -->
<g id="edge20" class="edge">
<title>Node4&#45;&gt;Node18</title>
<path fill="none" stroke="midnightblue" d="M360.5,-325.8C360.5,-316.91 360.5,-306.78 360.5,-299.75"/>
<polygon fill="midnightblue" stroke="midnightblue" points="357,-326.08 360.5,-336.08 364,-326.08 357,-326.08"/>
</g>
<!-- Node6 -->
<g id="node6" class="node">
<title>Node6</title>
<g id="a_node6"><a xlink:href="button_8h.html" target="_top" xlink:title=" ">
<polygon fill="white" stroke="black" points="228.5,-168.5 228.5,-187.5 280.5,-187.5 280.5,-168.5 228.5,-168.5"/>
<text text-anchor="middle" x="254.5" y="-175.5" font-family="Helvetica,sans-Serif" font-size="10.00">button.h</text>
</a>
</g>
</g>
<!-- Node5&#45;&gt;Node6 -->
<g id="edge5" class="edge">
<title>Node5&#45;&gt;Node6</title>
<path fill="none" stroke="midnightblue" d="M181.84,-219.45C199.74,-209.48 223.55,-196.23 238.95,-187.65"/>
<polygon fill="midnightblue" stroke="midnightblue" points="180.12,-216.4 173.08,-224.32 183.52,-222.52 180.12,-216.4"/>
</g>
<!-- Node9 -->
<g id="node9" class="node">
<title>Node9</title>
<g id="a_node9"><a xlink:href="default__skins_8cpp.html" target="_top" xlink:title=" ">
<polygon fill="white" stroke="black" points="473,-112.5 473,-131.5 566,-131.5 566,-112.5 473,-112.5"/>
<text text-anchor="middle" x="519.5" y="-119.5" font-family="Helvetica,sans-Serif" font-size="10.00">default_skins.cpp</text>
</a>
</g>
</g>
<!-- Node5&#45;&gt;Node9 -->
<g id="edge16" class="edge">
<title>Node5&#45;&gt;Node9</title>
<path fill="none" stroke="midnightblue" d="M196.54,-221.45C223.14,-213.16 258.93,-201.16 289.5,-188 307.03,-180.45 309.62,-174.68 327.5,-168 375.61,-150.04 433.26,-137.67 472.75,-130.52"/>
<polygon fill="midnightblue" stroke="midnightblue" points="195.36,-218.15 186.83,-224.44 197.42,-224.84 195.36,-218.15"/>
</g>
<!-- Node15 -->
<g id="node15" class="node">
<title>Node15</title>
<g id="a_node15"><a xlink:href="scroll__bar_8cpp.html" target="_top" xlink:title=" ">
<polygon fill="white" stroke="black" points="451,-168.5 451,-187.5 528,-187.5 528,-168.5 451,-168.5"/>
<text text-anchor="middle" x="489.5" y="-175.5" font-family="Helvetica,sans-Serif" font-size="10.00">scroll_bar.cpp</text>
</a>
</g>
</g>
<!-- Node5&#45;&gt;Node15 -->
<g id="edge17" class="edge">
<title>Node5&#45;&gt;Node15</title>
<path fill="none" stroke="midnightblue" d="M209.36,-223.88C302.07,-208.33 398.53,-193.14 450.83,-184.99"/>
<polygon fill="midnightblue" stroke="midnightblue" points="208.52,-220.47 199.24,-225.58 209.68,-227.37 208.52,-220.47"/>
</g>
<!-- Node16 -->
<g id="node16" class="node">
<title>Node16</title>
<g id="a_node16"><a xlink:href="slider_8cpp.html" target="_top" xlink:title=" ">
<polygon fill="white" stroke="black" points="336.5,-168.5 336.5,-187.5 394.5,-187.5 394.5,-168.5 336.5,-168.5"/>
<text text-anchor="middle" x="365.5" y="-175.5" font-family="Helvetica,sans-Serif" font-size="10.00">slider.cpp</text>
</a>
</g>
</g>
<!-- Node5&#45;&gt;Node16 -->
<g id="edge18" class="edge">
<title>Node5&#45;&gt;Node16</title>
<path fill="none" stroke="midnightblue" d="M200.35,-221.87C241.01,-211.32 301.01,-195.74 336.39,-186.56"/>
<polygon fill="midnightblue" stroke="midnightblue" points="199.26,-218.54 190.46,-224.44 201.02,-225.32 199.26,-218.54"/>
</g>
<!-- Node17 -->
<g id="node17" class="node">
<title>Node17</title>
<g id="a_node17"><a xlink:href="text_8cpp.html" target="_top" xlink:title=" ">
<polygon fill="white" stroke="black" points="96.5,-168.5 96.5,-187.5 148.5,-187.5 148.5,-168.5 96.5,-168.5"/>
<text text-anchor="middle" x="122.5" y="-175.5" font-family="Helvetica,sans-Serif" font-size="10.00">text.cpp</text>
</a>
</g>
</g>
<!-- Node5&#45;&gt;Node17 -->
<g id="edge19" class="edge">
<title>Node5&#45;&gt;Node17</title>
<path fill="none" stroke="midnightblue" d="M146.2,-215.57C140.18,-206.27 133.03,-195.25 128.17,-187.75"/>
<polygon fill="midnightblue" stroke="midnightblue" points="143.34,-217.6 151.72,-224.08 149.22,-213.79 143.34,-217.6"/>
</g>
<!-- Node7 -->
<g id="node7" class="node">
<title>Node7</title>
<g id="a_node7"><a xlink:href="button_8cpp.html" target="_top" xlink:title=" ">
<polygon fill="white" stroke="black" points="223.5,-112.5 223.5,-131.5 285.5,-131.5 285.5,-112.5 223.5,-112.5"/>
<text text-anchor="middle" x="254.5" y="-119.5" font-family="Helvetica,sans-Serif" font-size="10.00">button.cpp</text>
</a>
</g>
</g>
<!-- Node6&#45;&gt;Node7 -->
<g id="edge6" class="edge">
<title>Node6&#45;&gt;Node7</title>
<path fill="none" stroke="midnightblue" d="M254.5,-157.8C254.5,-148.91 254.5,-138.78 254.5,-131.75"/>
<polygon fill="midnightblue" stroke="midnightblue" points="251,-158.08 254.5,-168.08 258,-158.08 251,-158.08"/>
</g>
<!-- Node8 -->
<g id="node8" class="node">
<title>Node8</title>
<g id="a_node8"><a xlink:href="context__menu_8cpp.html" target="_top" xlink:title=" ">
<polygon fill="white" stroke="black" points="935,-0.5 935,-19.5 1032,-19.5 1032,-0.5 935,-0.5"/>
<text text-anchor="middle" x="983.5" y="-7.5" font-family="Helvetica,sans-Serif" font-size="10.00">context_menu.cpp</text>
</a>
</g>
</g>
<!-- Node6&#45;&gt;Node8 -->
<g id="edge7" class="edge">
<title>Node6&#45;&gt;Node8</title>
<path fill="none" stroke="midnightblue" d="M288.72,-165.16C330.02,-151.16 401.75,-127.77 464.5,-112 635.65,-68.99 842.44,-33.62 934.82,-18.67"/>
<polygon fill="midnightblue" stroke="midnightblue" points="287.48,-161.88 279.15,-168.42 289.74,-168.51 287.48,-161.88"/>
</g>
<!-- Node6&#45;&gt;Node9 -->
<g id="edge8" class="edge">
<title>Node6&#45;&gt;Node9</title>
<path fill="none" stroke="midnightblue" d="M290.68,-168.82C291.97,-168.54 293.25,-168.27 294.5,-168 357.04,-154.71 429.6,-140.4 475.04,-131.57"/>
<polygon fill="midnightblue" stroke="midnightblue" points="289.75,-165.44 280.73,-171 291.25,-172.28 289.75,-165.44"/>
</g>
<!-- Node10 -->
<g id="node10" class="node">
<title>Node10</title>
<g id="a_node10"><a xlink:href="menu__bar_8h.html" target="_top" xlink:title=" ">
<polygon fill="white" stroke="black" points="1012,-112.5 1012,-131.5 1079,-131.5 1079,-112.5 1012,-112.5"/>
<text text-anchor="middle" x="1045.5" y="-119.5" font-family="Helvetica,sans-Serif" font-size="10.00">menu_bar.h</text>
</a>
</g>
</g>
<!-- Node6&#45;&gt;Node10 -->
<g id="edge9" class="edge">
<title>Node6&#45;&gt;Node10</title>
<path fill="none" stroke="midnightblue" d="M291.06,-172.06C302.7,-170.6 315.62,-169.1 327.5,-168 396.05,-161.63 879.19,-132.85 1011.86,-124.99"/>
<polygon fill="midnightblue" stroke="midnightblue" points="290.29,-168.63 280.81,-173.37 291.18,-175.57 290.29,-168.63"/>
</g>
<!-- Node11 -->
<g id="node11" class="node">
<title>Node11</title>
<g id="a_node11"><a xlink:href="menu__bar_8cpp.html" target="_top" xlink:title=" ">
<polygon fill="white" stroke="black" points="1054,-0.5 1054,-19.5 1131,-19.5 1131,-0.5 1054,-0.5"/>
<text text-anchor="middle" x="1092.5" y="-7.5" font-family="Helvetica,sans-Serif" font-size="10.00">menu_bar.cpp</text>
</a>
</g>
</g>
<!-- Node10&#45;&gt;Node11 -->
<g id="edge10" class="edge">
<title>Node10&#45;&gt;Node11</title>
<path fill="none" stroke="midnightblue" d="M1059.12,-104.36C1065.2,-96.22 1071.99,-86.04 1076.5,-76 1085.07,-56.92 1089.5,-32.54 1091.37,-19.74"/>
<polygon fill="midnightblue" stroke="midnightblue" points="1056.34,-102.24 1052.95,-112.28 1061.86,-106.54 1056.34,-102.24"/>
</g>
<!-- Node10&#45;&gt;Node12 -->
<g id="edge11" class="edge">
<title>Node10&#45;&gt;Node12</title>
<path fill="none" stroke="midnightblue" d="M1044.1,-102.1C1043.44,-93.14 1042.67,-82.86 1042.15,-75.75"/>
<polygon fill="midnightblue" stroke="midnightblue" points="1040.61,-102.37 1044.84,-112.08 1047.59,-101.85 1040.61,-102.37"/>
</g>
<!-- Node12&#45;&gt;Node8 -->
<g id="edge13" class="edge">
<title>Node12&#45;&gt;Node8</title>
<path fill="none" stroke="midnightblue" d="M1024.59,-49.25C1014.3,-39.67 1001.53,-27.79 992.99,-19.83"/>
<polygon fill="midnightblue" stroke="midnightblue" points="1022.48,-52.07 1032.18,-56.32 1027.25,-46.95 1022.48,-52.07"/>
</g>
<!-- Node12&#45;&gt;Node11 -->
<g id="edge14" class="edge">
<title>Node12&#45;&gt;Node11</title>
<path fill="none" stroke="midnightblue" d="M1056.88,-48.72C1065.87,-39.2 1076.86,-27.56 1084.24,-19.75"/>
<polygon fill="midnightblue" stroke="midnightblue" points="1054.24,-46.41 1049.92,-56.08 1059.33,-51.22 1054.24,-46.41"/>
</g>
<!-- Node13 -->
<g id="node13" class="node">
<title>Node13</title>
<g id="a_node13"><a xlink:href="component_8cpp.html" target="_top" xlink:title=" ">
<polygon fill="white" stroke="black" points="694,-0.5 694,-19.5 777,-19.5 777,-0.5 694,-0.5"/>
<text text-anchor="middle" x="735.5" y="-7.5" font-family="Helvetica,sans-Serif" font-size="10.00">component.cpp</text>
</a>
</g>
</g>
<!-- Node12&#45;&gt;Node13 -->
<g id="edge12" class="edge">
<title>Node12&#45;&gt;Node13</title>
<path fill="none" stroke="midnightblue" d="M1005.96,-58.73C949.01,-48.68 837.56,-29.01 777.03,-18.33"/>
<polygon fill="midnightblue" stroke="midnightblue" points="1005.48,-62.2 1015.94,-60.49 1006.7,-55.3 1005.48,-62.2"/>
</g>
<!-- Node14 -->
<g id="node14" class="node">
<title>Node14</title>
<g id="a_node14"><a xlink:href="scene_8cpp.html" target="_top" xlink:title=" ">
<polygon fill="white" stroke="black" points="1163.5,-0.5 1163.5,-19.5 1225.5,-19.5 1225.5,-0.5 1163.5,-0.5"/>
<text text-anchor="middle" x="1194.5" y="-7.5" font-family="Helvetica,sans-Serif" font-size="10.00">scene.cpp</text>
</a>
</g>
</g>
<!-- Node12&#45;&gt;Node14 -->
<g id="edge15" class="edge">
<title>Node12&#45;&gt;Node14</title>
<path fill="none" stroke="midnightblue" d="M1075.39,-53.04C1104.18,-42.88 1144.79,-28.55 1170.37,-19.52"/>
<polygon fill="midnightblue" stroke="midnightblue" points="1074.01,-49.81 1065.74,-56.44 1076.34,-56.42 1074.01,-49.81"/>
</g>
<!-- Node19&#45;&gt;Node13 -->
<g id="edge22" class="edge">
<title>Node19&#45;&gt;Node13</title>
<path fill="none" stroke="midnightblue" d="M667.13,-329.39C691.92,-305.52 731.5,-259.03 707.5,-224 682.45,-187.44 639.55,-224.56 614.5,-188 609.48,-180.67 611.63,-176.41 614.5,-168 637.14,-101.55 700.53,-41.31 725.35,-19.58"/>
<polygon fill="midnightblue" stroke="midnightblue" points="664.64,-326.93 659.7,-336.3 669.41,-332.05 664.64,-326.93"/>
</g>
<!-- Node19&#45;&gt;Node14 -->
<g id="edge49" class="edge">
<title>Node19&#45;&gt;Node14</title>
<path fill="none" stroke="midnightblue" d="M685.83,-345.6C809.81,-346.7 1208.5,-341.92 1208.5,-235 1208.5,-235 1208.5,-235 1208.5,-121 1208.5,-82.88 1200.13,-37.93 1196.33,-19.51"/>
<polygon fill="midnightblue" stroke="midnightblue" points="685.75,-342.1 675.71,-345.49 685.67,-349.1 685.75,-342.1"/>
</g>
<!-- Node20 -->
<g id="node20" class="node">
<title>Node20</title>
<g id="a_node20"><a xlink:href="container_8h.html" target="_top" xlink:title=" ">
<polygon fill="white" stroke="black" points="904.5,-280.5 904.5,-299.5 968.5,-299.5 968.5,-280.5 904.5,-280.5"/>
<text text-anchor="middle" x="936.5" y="-287.5" font-family="Helvetica,sans-Serif" font-size="10.00">container.h</text>
</a>
</g>
</g>
<!-- Node19&#45;&gt;Node20 -->
<g id="edge23" class="edge">
<title>Node19&#45;&gt;Node20</title>
<path fill="none" stroke="midnightblue" d="M685.65,-338.2C742.15,-327.57 850.46,-307.19 904.38,-297.04"/>
<polygon fill="midnightblue" stroke="midnightblue" points="684.91,-334.78 675.73,-340.06 686.2,-341.66 684.91,-334.78"/>
</g>
<!-- Node31 -->
<g id="node31" class="node">
<title>Node31</title>
<g id="a_node31"><a xlink:href="control_8h.html" target="_top" xlink:title=" ">
<polygon fill="white" stroke="black" points="546.5,-280.5 546.5,-299.5 600.5,-299.5 600.5,-280.5 546.5,-280.5"/>
<text text-anchor="middle" x="573.5" y="-287.5" font-family="Helvetica,sans-Serif" font-size="10.00">control.h</text>
</a>
</g>
</g>
<!-- Node19&#45;&gt;Node31 -->
<g id="edge37" class="edge">
<title>Node19&#45;&gt;Node31</title>
<path fill="none" stroke="midnightblue" d="M628.92,-330.38C615.19,-320.62 597.57,-308.11 585.93,-299.83"/>
<polygon fill="midnightblue" stroke="midnightblue" points="627.11,-333.38 637.29,-336.32 631.16,-327.68 627.11,-333.38"/>
</g>
<!-- Node37 -->
<g id="node37" class="node">
<title>Node37</title>
<g id="a_node37"><a xlink:href="parent_8cpp.html" target="_top" xlink:title=" ">
<polygon fill="white" stroke="black" points="466.5,-280.5 466.5,-299.5 528.5,-299.5 528.5,-280.5 466.5,-280.5"/>
<text text-anchor="middle" x="497.5" y="-287.5" font-family="Helvetica,sans-Serif" font-size="10.00">parent.cpp</text>
</a>
</g>
</g>
<!-- Node19&#45;&gt;Node37 -->
<g id="edge48" class="edge">
<title>Node19&#45;&gt;Node37</title>
<path fill="none" stroke="midnightblue" d="M615.83,-333.04C587.23,-322.88 546.89,-308.55 521.47,-299.52"/>
<polygon fill="midnightblue" stroke="midnightblue" points="614.82,-336.39 625.42,-336.44 617.16,-329.8 614.82,-336.39"/>
</g>
<!-- Node21 -->
<g id="node21" class="node">
<title>Node21</title>
<g id="a_node21"><a xlink:href="box__container_8h.html" target="_top" xlink:title=" ">
<polygon fill="white" stroke="black" points="894,-224.5 894,-243.5 979,-243.5 979,-224.5 894,-224.5"/>
<text text-anchor="middle" x="936.5" y="-231.5" font-family="Helvetica,sans-Serif" font-size="10.00">box_container.h</text>
</a>
</g>
</g>
<!-- Node20&#45;&gt;Node21 -->
<g id="edge24" class="edge">
<title>Node20&#45;&gt;Node21</title>
<path fill="none" stroke="midnightblue" d="M936.5,-269.8C936.5,-260.91 936.5,-250.78 936.5,-243.75"/>
<polygon fill="midnightblue" stroke="midnightblue" points="933,-270.08 936.5,-280.08 940,-270.08 933,-270.08"/>
</g>
<!-- Node24 -->
<g id="node24" class="node">
<title>Node24</title>
<g id="a_node24"><a xlink:href="container_8cpp.html" target="_top" xlink:title=" ">
<polygon fill="white" stroke="black" points="997.5,-224.5 997.5,-243.5 1071.5,-243.5 1071.5,-224.5 997.5,-224.5"/>
<text text-anchor="middle" x="1034.5" y="-231.5" font-family="Helvetica,sans-Serif" font-size="10.00">container.cpp</text>
</a>
</g>
</g>
<!-- Node20&#45;&gt;Node24 -->
<g id="edge30" class="edge">
<title>Node20&#45;&gt;Node24</title>
<path fill="none" stroke="midnightblue" d="M961.09,-275.45C979.18,-265.48 1003.23,-252.23 1018.79,-243.65"/>
<polygon fill="midnightblue" stroke="midnightblue" points="959.31,-272.43 952.25,-280.32 962.69,-278.56 959.31,-272.43"/>
</g>
<!-- Node25 -->
<g id="node25" class="node">
<title>Node25</title>
<g id="a_node25"><a xlink:href="layered__container_8h.html" target="_top" xlink:title=" ">
<polygon fill="white" stroke="black" points="775,-224.5 775,-243.5 876,-243.5 876,-224.5 775,-224.5"/>
<text text-anchor="middle" x="825.5" y="-231.5" font-family="Helvetica,sans-Serif" font-size="10.00">layered_container.h</text>
</a>
</g>
</g>
<!-- Node20&#45;&gt;Node25 -->
<g id="edge31" class="edge">
<title>Node20&#45;&gt;Node25</title>
<path fill="none" stroke="midnightblue" d="M909.49,-275.86C888.91,-265.85 861.16,-252.35 843.29,-243.65"/>
<polygon fill="midnightblue" stroke="midnightblue" points="908.14,-279.1 918.67,-280.32 911.2,-272.8 908.14,-279.1"/>
</g>
<!-- Node29 -->
<g id="node29" class="node">
<title>Node29</title>
<g id="a_node29"><a xlink:href="tile__pane_8h.html" target="_top" xlink:title=" ">
<polygon fill="white" stroke="black" points="1100.5,-224.5 1100.5,-243.5 1164.5,-243.5 1164.5,-224.5 1100.5,-224.5"/>
<text text-anchor="middle" x="1132.5" y="-231.5" font-family="Helvetica,sans-Serif" font-size="10.00">tile_pane.h</text>
</a>
</g>
</g>
<!-- Node20&#45;&gt;Node29 -->
<g id="edge35" class="edge">
<title>Node20&#45;&gt;Node29</title>
<path fill="none" stroke="midnightblue" d="M977.52,-277.7C1014.51,-267.51 1068.1,-252.74 1101.59,-243.52"/>
<polygon fill="midnightblue" stroke="midnightblue" points="976.27,-274.41 967.56,-280.44 978.13,-281.16 976.27,-274.41"/>
</g>
<!-- Node21&#45;&gt;Node9 -->
<g id="edge29" class="edge">
<title>Node21&#45;&gt;Node9</title>
<path fill="none" stroke="midnightblue" d="M889.73,-222.05C858.53,-214.11 816.91,-202.29 781.5,-188 763.8,-180.86 761.48,-174.39 743.5,-168 684.07,-146.89 612.05,-134.64 566.01,-128.39"/>
<polygon fill="midnightblue" stroke="midnightblue" points="888.92,-225.46 899.47,-224.49 890.62,-218.67 888.92,-225.46"/>
</g>
<!-- Node22 -->
<g id="node22" class="node">
<title>Node22</title>
<g id="a_node22"><a xlink:href="box__container_8cpp.html" target="_top" xlink:title=" ">
<polygon fill="white" stroke="black" points="889,-168.5 889,-187.5 984,-187.5 984,-168.5 889,-168.5"/>
<text text-anchor="middle" x="936.5" y="-175.5" font-family="Helvetica,sans-Serif" font-size="10.00">box_container.cpp</text>
</a>
</g>
</g>
<!-- Node21&#45;&gt;Node22 -->
<g id="edge25" class="edge">
<title>Node21&#45;&gt;Node22</title>
<path fill="none" stroke="midnightblue" d="M936.5,-213.8C936.5,-204.91 936.5,-194.78 936.5,-187.75"/>
<polygon fill="midnightblue" stroke="midnightblue" points="933,-214.08 936.5,-224.08 940,-214.08 933,-214.08"/>
</g>
<!-- Node23 -->
<g id="node23" class="node">
<title>Node23</title>
<g id="a_node23"><a xlink:href="context__menu_8h.html" target="_top" xlink:title=" ">
<polygon fill="white" stroke="black" points="1002.5,-168.5 1002.5,-187.5 1088.5,-187.5 1088.5,-168.5 1002.5,-168.5"/>
<text text-anchor="middle" x="1045.5" y="-175.5" font-family="Helvetica,sans-Serif" font-size="10.00">context_menu.h</text>
</a>
</g>
</g>
<!-- Node21&#45;&gt;Node23 -->
<g id="edge26" class="edge">
<title>Node21&#45;&gt;Node23</title>
<path fill="none" stroke="midnightblue" d="M963.02,-219.86C983.23,-209.85 1010.49,-196.35 1028.03,-187.65"/>
<polygon fill="midnightblue" stroke="midnightblue" points="961.42,-216.75 954.01,-224.32 964.53,-223.02 961.42,-216.75"/>
</g>
<!-- Node23&#45;&gt;Node8 -->
<g id="edge27" class="edge">
<title>Node23&#45;&gt;Node8</title>
<path fill="none" stroke="midnightblue" d="M1026.62,-161.47C1018.22,-153.53 1009.01,-143.19 1003.5,-132 984.51,-93.41 983.04,-40.38 983.26,-19.73"/>
<polygon fill="midnightblue" stroke="midnightblue" points="1024.48,-164.25 1034.27,-168.29 1029.14,-159.03 1024.48,-164.25"/>
</g>
<!-- Node23&#45;&gt;Node10 -->
<g id="edge28" class="edge">
<title>Node23&#45;&gt;Node10</title>
<path fill="none" stroke="midnightblue" d="M1045.5,-157.8C1045.5,-148.91 1045.5,-138.78 1045.5,-131.75"/>
<polygon fill="midnightblue" stroke="midnightblue" points="1042,-158.08 1045.5,-168.08 1049,-158.08 1042,-158.08"/>
</g>
<!-- Node26 -->
<g id="node26" class="node">
<title>Node26</title>
<g id="a_node26"><a xlink:href="anchor__pane_8h.html" target="_top" xlink:title=" ">
<polygon fill="white" stroke="black" points="790.5,-168.5 790.5,-187.5 870.5,-187.5 870.5,-168.5 790.5,-168.5"/>
<text text-anchor="middle" x="830.5" y="-175.5" font-family="Helvetica,sans-Serif" font-size="10.00">anchor_pane.h</text>
</a>
</g>
</g>
<!-- Node25&#45;&gt;Node26 -->
<g id="edge32" class="edge">
<title>Node25&#45;&gt;Node26</title>
<path fill="none" stroke="midnightblue" d="M827.25,-214.1C828.08,-205.14 829.03,-194.86 829.69,-187.75"/>
<polygon fill="midnightblue" stroke="midnightblue" points="823.76,-213.8 826.33,-224.08 830.73,-214.45 823.76,-213.8"/>
</g>
<!-- Node28 -->
<g id="node28" class="node">
<title>Node28</title>
<g id="a_node28"><a xlink:href="layered__container_8cpp.html" target="_top" xlink:title=" ">
<polygon fill="white" stroke="black" points="623,-168.5 623,-187.5 734,-187.5 734,-168.5 623,-168.5"/>
<text text-anchor="middle" x="678.5" y="-175.5" font-family="Helvetica,sans-Serif" font-size="10.00">layered_container.cpp</text>
</a>
</g>
</g>
<!-- Node25&#45;&gt;Node28 -->
<g id="edge34" class="edge">
<title>Node25&#45;&gt;Node28</title>
<path fill="none" stroke="midnightblue" d="M792.58,-220.91C764.94,-210.75 726.16,-196.51 701.68,-187.52"/>
<polygon fill="midnightblue" stroke="midnightblue" points="791.61,-224.28 802.21,-224.44 794.03,-217.71 791.61,-224.28"/>
</g>
<!-- Node27 -->
<g id="node27" class="node">
<title>Node27</title>
<g id="a_node27"><a xlink:href="anchor__pane_8cpp.html" target="_top" xlink:title=" ">
<polygon fill="white" stroke="black" points="785,-112.5 785,-131.5 876,-131.5 876,-112.5 785,-112.5"/>
<text text-anchor="middle" x="830.5" y="-119.5" font-family="Helvetica,sans-Serif" font-size="10.00">anchor_pane.cpp</text>
</a>
</g>
</g>
<!-- Node26&#45;&gt;Node27 -->
<g id="edge33" class="edge">
<title>Node26&#45;&gt;Node27</title>
<path fill="none" stroke="midnightblue" d="M830.5,-157.8C830.5,-148.91 830.5,-138.78 830.5,-131.75"/>
<polygon fill="midnightblue" stroke="midnightblue" points="827,-158.08 830.5,-168.08 834,-158.08 827,-158.08"/>
</g>
<!-- Node30 -->
<g id="node30" class="node">
<title>Node30</title>
<g id="a_node30"><a xlink:href="tile__pane_8cpp.html" target="_top" xlink:title=" ">
<polygon fill="white" stroke="black" points="1106.5,-168.5 1106.5,-187.5 1180.5,-187.5 1180.5,-168.5 1106.5,-168.5"/>
<text text-anchor="middle" x="1143.5" y="-175.5" font-family="Helvetica,sans-Serif" font-size="10.00">tile_pane.cpp</text>
</a>
</g>
</g>
<!-- Node29&#45;&gt;Node30 -->
<g id="edge36" class="edge">
<title>Node29&#45;&gt;Node30</title>
<path fill="none" stroke="midnightblue" d="M1136.35,-214.1C1138.18,-205.14 1140.27,-194.86 1141.72,-187.75"/>
<polygon fill="midnightblue" stroke="midnightblue" points="1132.88,-213.59 1134.32,-224.08 1139.74,-214.98 1132.88,-213.59"/>
</g>
<!-- Node31&#45;&gt;Node6 -->
<g id="edge38" class="edge">
<title>Node31&#45;&gt;Node6</title>
<path fill="none" stroke="midnightblue" d="M536.55,-279.98C448.43,-262.44 419.12,-278.54 340.5,-244 308.63,-230 277.67,-202.03 263.13,-187.78"/>
<polygon fill="midnightblue" stroke="midnightblue" points="535.91,-283.42 546.42,-282.03 537.34,-276.57 535.91,-283.42"/>
</g>
<!-- Node32 -->
<g id="node32" class="node">
<title>Node32</title>
<g id="a_node32"><a xlink:href="control_8cpp.html" target="_top" xlink:title=" ">
<polygon fill="white" stroke="black" points="570,-224.5 570,-243.5 635,-243.5 635,-224.5 570,-224.5"/>
<text text-anchor="middle" x="602.5" y="-231.5" font-family="Helvetica,sans-Serif" font-size="10.00">control.cpp</text>
</a>
</g>
</g>
<!-- Node31&#45;&gt;Node32 -->
<g id="edge39" class="edge">
<title>Node31&#45;&gt;Node32</title>
<path fill="none" stroke="midnightblue" d="M583.18,-270.98C588.1,-261.82 593.86,-251.09 597.8,-243.75"/>
<polygon fill="midnightblue" stroke="midnightblue" points="579.94,-269.62 578.29,-280.08 586.1,-272.93 579.94,-269.62"/>
</g>
<!-- Node33 -->
<g id="node33" class="node">
<title>Node33</title>
<g id="a_node33"><a xlink:href="label_8h.html" target="_top" xlink:title=" ">
<polygon fill="white" stroke="black" points="653,-224.5 653,-243.5 698,-243.5 698,-224.5 653,-224.5"/>
<text text-anchor="middle" x="675.5" y="-231.5" font-family="Helvetica,sans-Serif" font-size="10.00">label.h</text>
</a>
</g>
</g>
<!-- Node31&#45;&gt;Node33 -->
<g id="edge40" class="edge">
<title>Node31&#45;&gt;Node33</title>
<path fill="none" stroke="midnightblue" d="M598.83,-275.59C617.69,-265.61 642.88,-252.27 659.15,-243.65"/>
<polygon fill="midnightblue" stroke="midnightblue" points="597.09,-272.55 589.89,-280.32 600.36,-278.74 597.09,-272.55"/>
</g>
<!-- Node34 -->
<g id="node34" class="node">
<title>Node34</title>
<g id="a_node34"><a xlink:href="scroll__bar_8h.html" target="_top" xlink:title=" ">
<polygon fill="white" stroke="black" points="485.5,-224.5 485.5,-243.5 551.5,-243.5 551.5,-224.5 485.5,-224.5"/>
<text text-anchor="middle" x="518.5" y="-231.5" font-family="Helvetica,sans-Serif" font-size="10.00">scroll_bar.h</text>
</a>
</g>
</g>
<!-- Node31&#45;&gt;Node34 -->
<g id="edge41" class="edge">
<title>Node31&#45;&gt;Node34</title>
<path fill="none" stroke="midnightblue" d="M557.21,-273C547.46,-263.43 535.45,-251.64 527.41,-243.75"/>
<polygon fill="midnightblue" stroke="midnightblue" points="554.83,-275.57 564.42,-280.08 559.73,-270.58 554.83,-275.57"/>
</g>
<!-- Node35 -->
<g id="node35" class="node">
<title>Node35</title>
<g id="a_node35"><a xlink:href="skin_8cpp.html" target="_top" xlink:title=" ">
<polygon fill="white" stroke="black" points="349,-224.5 349,-243.5 402,-243.5 402,-224.5 349,-224.5"/>
<text text-anchor="middle" x="375.5" y="-231.5" font-family="Helvetica,sans-Serif" font-size="10.00">skin.cpp</text>
</a>
</g>
</g>
<!-- Node31&#45;&gt;Node35 -->
<g id="edge44" class="edge">
<title>Node31&#45;&gt;Node35</title>
<path fill="none" stroke="midnightblue" d="M536.47,-278.9C497.45,-268.26 436.93,-251.75 402.29,-242.31"/>
<polygon fill="midnightblue" stroke="midnightblue" points="535.82,-282.35 546.38,-281.6 537.66,-275.6 535.82,-282.35"/>
</g>
<!-- Node36 -->
<g id="node36" class="node">
<title>Node36</title>
<g id="a_node36"><a xlink:href="slider_8h.html" target="_top" xlink:title=" ">
<polygon fill="white" stroke="black" points="420,-224.5 420,-243.5 467,-243.5 467,-224.5 420,-224.5"/>
<text text-anchor="middle" x="443.5" y="-231.5" font-family="Helvetica,sans-Serif" font-size="10.00">slider.h</text>
</a>
</g>
</g>
<!-- Node31&#45;&gt;Node36 -->
<g id="edge45" class="edge">
<title>Node31&#45;&gt;Node36</title>
<path fill="none" stroke="midnightblue" d="M543.41,-276.5C519.04,-266.38 485.36,-252.39 464,-243.52"/>
<polygon fill="midnightblue" stroke="midnightblue" points="542.32,-279.84 552.9,-280.44 545.01,-273.38 542.32,-279.84"/>
</g>
<!-- Node34&#45;&gt;Node9 -->
<g id="edge42" class="edge">
<title>Node34&#45;&gt;Node9</title>
<path fill="none" stroke="midnightblue" d="M527.93,-215.25C531.71,-207.17 535.61,-197.35 537.5,-188 541.64,-167.57 531.32,-144.13 524.65,-131.74"/>
<polygon fill="midnightblue" stroke="midnightblue" points="524.71,-213.86 523.38,-224.37 530.97,-216.99 524.71,-213.86"/>
</g>
<!-- Node34&#45;&gt;Node15 -->
<g id="edge43" class="edge">
<title>Node34&#45;&gt;Node15</title>
<path fill="none" stroke="midnightblue" d="M508.82,-214.98C503.9,-205.82 498.14,-195.09 494.2,-187.75"/>
<polygon fill="midnightblue" stroke="midnightblue" points="505.9,-216.93 513.71,-224.08 512.06,-213.62 505.9,-216.93"/>
</g>
<!-- Node36&#45;&gt;Node9 -->
<g id="edge46" class="edge">
<title>Node36&#45;&gt;Node9</title>
<path fill="none" stroke="midnightblue" d="M438.43,-214.54C435.73,-200.8 434.43,-182.06 442.5,-168 452.9,-149.87 473.75,-138.35 491.13,-131.51"/>
<polygon fill="midnightblue" stroke="midnightblue" points="435.03,-215.39 440.73,-224.31 441.84,-213.78 435.03,-215.39"/>
</g>
<!-- Node36&#45;&gt;Node16 -->
<g id="edge47" class="edge">
<title>Node36&#45;&gt;Node16</title>
<path fill="none" stroke="midnightblue" d="M422.73,-218.62C408.48,-208.76 390.04,-195.99 378,-187.65"/>
<polygon fill="midnightblue" stroke="midnightblue" points="420.75,-221.51 430.97,-224.32 424.74,-215.75 420.75,-221.51"/>
</g>
<!-- Node39 -->
<g id="node39" class="node">
<title>Node39</title>
<g id="a_node39"><a xlink:href="circle_8h.html" target="_top" xlink:title=" ">
<polygon fill="white" stroke="black" points="13.5,-280.5 13.5,-299.5 61.5,-299.5 61.5,-280.5 13.5,-280.5"/>
<text text-anchor="middle" x="37.5" y="-287.5" font-family="Helvetica,sans-Serif" font-size="10.00">circle.h</text>
</a>
</g>
</g>
<!-- Node38&#45;&gt;Node39 -->
<g id="edge51" class="edge">
<title>Node38&#45;&gt;Node39</title>
<path fill="none" stroke="midnightblue" d="M232.89,-335.9C164.99,-319.46 97,-304.18 61.69,-296.34"/>
<polygon fill="midnightblue" stroke="midnightblue" points="232.36,-339.38 242.91,-338.34 234.01,-332.57 232.36,-339.38"/>
</g>
<!-- Node41 -->
<g id="node41" class="node">
<title>Node41</title>
<g id="a_node41"><a xlink:href="rectangle_8h.html" target="_top" xlink:title=" ">
<polygon fill="white" stroke="black" points="154,-280.5 154,-299.5 219,-299.5 219,-280.5 154,-280.5"/>
<text text-anchor="middle" x="186.5" y="-287.5" font-family="Helvetica,sans-Serif" font-size="10.00">rectangle.h</text>
</a>
</g>
</g>
<!-- Node38&#45;&gt;Node41 -->
<g id="edge53" class="edge">
<title>Node38&#45;&gt;Node41</title>
<path fill="none" stroke="midnightblue" d="M246.67,-330.62C231.69,-320.76 212.3,-307.99 199.64,-299.65"/>
<polygon fill="midnightblue" stroke="midnightblue" points="245.05,-333.75 255.33,-336.32 248.9,-327.9 245.05,-333.75"/>
</g>
<!-- Node43 -->
<g id="node43" class="node">
<title>Node43</title>
<g id="a_node43"><a xlink:href="shape_8cpp.html" target="_top" xlink:title=" ">
<polygon fill="white" stroke="black" points="237.5,-280.5 237.5,-299.5 299.5,-299.5 299.5,-280.5 237.5,-280.5"/>
<text text-anchor="middle" x="268.5" y="-287.5" font-family="Helvetica,sans-Serif" font-size="10.00">shape.cpp</text>
</a>
</g>
</g>
<!-- Node38&#45;&gt;Node43 -->
<g id="edge56" class="edge">
<title>Node38&#45;&gt;Node43</title>
<path fill="none" stroke="midnightblue" d="M268.5,-325.8C268.5,-316.91 268.5,-306.78 268.5,-299.75"/>
<polygon fill="midnightblue" stroke="midnightblue" points="265,-326.08 268.5,-336.08 272,-326.08 265,-326.08"/>
</g>
<!-- Node44 -->
<g id="node44" class="node">
<title>Node44</title>
<g id="a_node44"><a xlink:href="text_8h.html" target="_top" xlink:title=" ">
<polygon fill="white" stroke="black" points="95,-280.5 95,-299.5 136,-299.5 136,-280.5 95,-280.5"/>
<text text-anchor="middle" x="115.5" y="-287.5" font-family="Helvetica,sans-Serif" font-size="10.00">text.h</text>
</a>
</g>
</g>
<!-- Node38&#45;&gt;Node44 -->
<g id="edge57" class="edge">
<title>Node38&#45;&gt;Node44</title>
<path fill="none" stroke="midnightblue" d="M234.58,-333.03C204.47,-322.4 161.44,-307.21 136.2,-298.3"/>
<polygon fill="midnightblue" stroke="midnightblue" points="233.66,-336.42 244.26,-336.44 235.99,-329.81 233.66,-336.42"/>
</g>
<!-- Node40 -->
<g id="node40" class="node">
<title>Node40</title>
<g id="a_node40"><a xlink:href="circle_8cpp.html" target="_top" xlink:title=" ">
<polygon fill="white" stroke="black" points="0,-224.5 0,-243.5 59,-243.5 59,-224.5 0,-224.5"/>
<text text-anchor="middle" x="29.5" y="-231.5" font-family="Helvetica,sans-Serif" font-size="10.00">circle.cpp</text>
</a>
</g>
</g>
<!-- Node39&#45;&gt;Node40 -->
<g id="edge52" class="edge">
<title>Node39&#45;&gt;Node40</title>
<path fill="none" stroke="midnightblue" d="M34.7,-270.1C33.37,-261.14 31.85,-250.86 30.8,-243.75"/>
<polygon fill="midnightblue" stroke="midnightblue" points="31.25,-270.7 36.18,-280.08 38.18,-269.68 31.25,-270.7"/>
</g>
<!-- Node41&#45;&gt;Node5 -->
<g id="edge54" class="edge">
<title>Node41&#45;&gt;Node5</title>
<path fill="none" stroke="midnightblue" d="M176.82,-270.98C171.9,-261.82 166.14,-251.09 162.2,-243.75"/>
<polygon fill="midnightblue" stroke="midnightblue" points="173.9,-272.93 181.71,-280.08 180.06,-269.62 173.9,-272.93"/>
</g>
<!-- Node42 -->
<g id="node42" class="node">
<title>Node42</title>
<g id="a_node42"><a xlink:href="rectangle_8cpp.html" target="_top" xlink:title=" ">
<polygon fill="white" stroke="black" points="217,-224.5 217,-243.5 292,-243.5 292,-224.5 217,-224.5"/>
<text text-anchor="middle" x="254.5" y="-231.5" font-family="Helvetica,sans-Serif" font-size="10.00">rectangle.cpp</text>
</a>
</g>
</g>
<!-- Node41&#45;&gt;Node42 -->
<g id="edge55" class="edge">
<title>Node41&#45;&gt;Node42</title>
<path fill="none" stroke="midnightblue" d="M205.26,-274.1C217.5,-264.38 233.06,-252.03 243.38,-243.83"/>
<polygon fill="midnightblue" stroke="midnightblue" points="203.08,-271.36 197.43,-280.32 207.43,-276.85 203.08,-271.36"/>
</g>
<!-- Node44&#45;&gt;Node5 -->
<g id="edge58" class="edge">
<title>Node44&#45;&gt;Node5</title>
<path fill="none" stroke="midnightblue" d="M128.61,-272.14C135.93,-262.74 144.74,-251.4 150.69,-243.75"/>
<polygon fill="midnightblue" stroke="midnightblue" points="125.81,-270.04 122.44,-280.08 131.34,-274.34 125.81,-270.04"/>
</g>
<!-- Node44&#45;&gt;Node17 -->
<g id="edge59" class="edge">
<title>Node44&#45;&gt;Node17</title>
<path fill="none" stroke="midnightblue" d="M109.9,-270.48C106.7,-257.44 103.81,-239.61 106.5,-224 108.76,-210.93 114.44,-196.62 118.39,-187.72"/>
<polygon fill="midnightblue" stroke="midnightblue" points="106.53,-271.42 112.54,-280.14 113.28,-269.57 106.53,-271.42"/>
</g>
</g>
</svg>
        <g id="navigator" transform="translate(0 0)" fill="#404254">
                <rect fill="#f2f5e9" fill-opacity="0.5" stroke="#606060" stroke-width=".5" x="0" y="0" width="60" height="60"/>
                <use id="zoomplus" xlink:href="#zoomPlus" x="17" y="9" onmousedown="handleZoom(evt,'in')"/>
                <use id="zoomminus" xlink:href="#zoomMin" x="42" y="9" onmousedown="handleZoom(evt,'out')"/>
                <use id="reset" xlink:href="#resetDef" x="30" y="36" onmousedown="handleReset()"/>
                <g id="arrowUp" xlink:href="#dirArrow" transform="translate(30 24)" onmousedown="handlePan(0,-1)">
                  <use xlink:href="#rim" fill="#404040">
                        <set attributeName="fill" to="#808080" begin="arrowUp.mouseover" end="arrowUp.mouseout"/>
                  </use>
                  <path fill="none" stroke="white" stroke-width="1.5" d="M0,-3.0v7 M-2.5,-0.5L0,-3.0L2.5,-0.5"/>
                </g>
                <g id="arrowRight" xlink:href="#dirArrow" transform="rotate(90) translate(36 -43)" onmousedown="handlePan(1,0)">
                  <use xlink:href="#rim" fill="#404040">
                        <set attributeName="fill" to="#808080" begin="arrowRight.mouseover" end="arrowRight.mouseout"/>
                  </use>
                  <path fill="none" stroke="white" stroke-width="1.5" d="M0,-3.0v7 M-2.5,-0.5L0,-3.0L2.5,-0.5"/>
                </g>
                <g id="arrowDown" xlink:href="#dirArrow" transform="rotate(180) translate(-30 -48)" onmousedown="handlePan(0,1)">
                  <use xlink:href="#rim" fill="#404040">
                        <set attributeName="fill" to="#808080" begin="arrowDown.mouseover" end="arrowDown.mouseout"/>
                  </use>
                  <path fill="none" stroke="white" stroke-width="1.5" d="M0,-3.0v7 M-2.5,-0.5L0,-3.0L2.5,-0.5"/>
                </g>
                <g id="arrowLeft" xlink:href="#dirArrow" transform="rotate(270) translate(-36 17)" onmousedown="handlePan(-1,0)">
                  <use xlink:href="#rim" fill="#404040">
                        <set attributeName="fill" to="#808080" begin="arrowLeft.mouseover" end="arrowLeft.mouseout"/>
                  </use>
                  <path fill="none" stroke="white" stroke-width="1.5" d="M0,-3.0v7 M-2.5,-0.5L0,-3.0L2.5,-0.5"/>
                </g>
        </g>
        <svg viewBox="0 0 15 15" width="100%" height="30px" preserveAspectRatio="xMaxYMin meet">
         <g id="arrow_out" transform="scale(0.3 0.3)">
          <a xlink:href="gui__event__dispatching_8h__dep__incl_org.svg" target="_base">
           <rect id="button" ry="5" rx="5" y="6" x="6" height="38" width="38"
                fill="#f2f5e9" fill-opacity="0.5" stroke="#606060" stroke-width="1.0"/>
           <path id="arrow"
             d="M 11.500037,31.436501 C 11.940474,20.09759 22.043105,11.32322 32.158766,21.979434 L 37.068811,17.246167 C 37.068811,17.246167 37.088388,32 37.088388,32 L 22.160133,31.978069 C 22.160133,31.978069 26.997745,27.140456 26.997745,27.140456 C 18.528582,18.264221 13.291696,25.230495 11.500037,31.436501 z"
             style="fill:#404040;"/>
          </a>
         </g>
        </svg>
</svg>
