<?xml version="1.0" encoding="UTF-8" standalone="no"?>
<!DOCTYPE svg PUBLIC "-//W3C//DTD SVG 1.1//EN"
 "http://www.w3.org/Graphics/SVG/1.1/DTD/svg11.dtd">
<!-- Generated by graphviz version 2.50.0 (20211204.2007)
 -->
<!-- Title: image.h Pages: 1 -->
<svg width="1327pt" height="476pt"
 viewBox="0.00 0.00 1326.50 476.00" xmlns="http://www.w3.org/2000/svg" xmlns:xlink="http://www.w3.org/1999/xlink">
<g id="graph0" class="graph" transform="scale(1 1) rotate(0) translate(4 472)">
<title>image.h</title>
<polygon fill="white" stroke="transparent" points="-4,4 -4,-472 1322.5,-472 1322.5,4 -4,4"/>
<!-- Node1 -->
<g id="node1" class="node">
<title>Node1</title>
<g id="a_node1"><a xlink:title=" ">
<polygon fill="#bfbfbf" stroke="black" points="866.5,-448.5 866.5,-467.5 917.5,-467.5 917.5,-448.5 866.5,-448.5"/>
<text text-anchor="middle" x="892" y="-455.5" font-family="Helvetica,sans-Serif" font-size="10.00">image.h</text>
</a>
</g>
</g>
<!-- Node2 -->
<g id="node2" class="node">
<title>Node2</title>
<g id="a_node2"><a xlink:href="background_8cpp.html" target="_top" xlink:title=" ">
<polygon fill="white" stroke="black" points="719,-336.5 719,-355.5 805,-355.5 805,-336.5 719,-336.5"/>
<text text-anchor="middle" x="762" y="-343.5" font-family="Helvetica,sans-Serif" font-size="10.00">background.cpp</text>
</a>
</g>
</g>
<!-- Node1&#45;&gt;Node2 -->
<g id="edge1" class="edge">
<title>Node1&#45;&gt;Node2</title>
<path fill="none" stroke="midnightblue" d="M856.91,-444.81C839.01,-437.35 817.76,-426.43 802,-412 784.02,-395.54 771.22,-369.16 765.45,-355.63"/>
<polygon fill="midnightblue" stroke="midnightblue" points="855.86,-448.16 866.45,-448.6 858.45,-441.66 855.86,-448.16"/>
</g>
<!-- Node3 -->
<g id="node3" class="node">
<title>Node3</title>
<g id="a_node3"><a xlink:href="background_8h.html" target="_top" xlink:title=" ">
<polygon fill="white" stroke="black" points="811.5,-392.5 811.5,-411.5 886.5,-411.5 886.5,-392.5 811.5,-392.5"/>
<text text-anchor="middle" x="849" y="-399.5" font-family="Helvetica,sans-Serif" font-size="10.00">background.h</text>
</a>
</g>
</g>
<!-- Node1&#45;&gt;Node3 -->
<g id="edge2" class="edge">
<title>Node1&#45;&gt;Node3</title>
<path fill="none" stroke="midnightblue" d="M878.58,-440.14C871.09,-430.74 862.06,-419.4 855.97,-411.75"/>
<polygon fill="midnightblue" stroke="midnightblue" points="875.93,-442.44 884.9,-448.08 881.41,-438.08 875.93,-442.44"/>
</g>
<!-- Node43 -->
<g id="node43" class="node">
<title>Node43</title>
<g id="a_node43"><a xlink:href="image_8cpp.html" target="_top" xlink:title=" ">
<polygon fill="white" stroke="black" points="905,-392.5 905,-411.5 967,-411.5 967,-392.5 905,-392.5"/>
<text text-anchor="middle" x="936" y="-399.5" font-family="Helvetica,sans-Serif" font-size="10.00">image.cpp</text>
</a>
</g>
</g>
<!-- Node1&#45;&gt;Node43 -->
<g id="edge59" class="edge">
<title>Node1&#45;&gt;Node43</title>
<path fill="none" stroke="midnightblue" d="M905.73,-440.14C913.4,-430.74 922.63,-419.4 928.87,-411.75"/>
<polygon fill="midnightblue" stroke="midnightblue" points="902.87,-438.12 899.27,-448.08 908.3,-442.54 902.87,-438.12"/>
</g>
<!-- Node44 -->
<g id="node44" class="node">
<title>Node44</title>
<g id="a_node44"><a xlink:href="image__view_8h.html" target="_top" xlink:title=" ">
<polygon fill="white" stroke="black" points="985.5,-392.5 985.5,-411.5 1060.5,-411.5 1060.5,-392.5 985.5,-392.5"/>
<text text-anchor="middle" x="1023" y="-399.5" font-family="Helvetica,sans-Serif" font-size="10.00">image_view.h</text>
</a>
</g>
</g>
<!-- Node1&#45;&gt;Node44 -->
<g id="edge60" class="edge">
<title>Node1&#45;&gt;Node44</title>
<path fill="none" stroke="midnightblue" d="M922.32,-444.5C946.88,-434.38 980.82,-420.39 1002.34,-411.52"/>
<polygon fill="midnightblue" stroke="midnightblue" points="920.67,-441.4 912.76,-448.44 923.34,-447.87 920.67,-441.4"/>
</g>
<!-- Node3&#45;&gt;Node2 -->
<g id="edge3" class="edge">
<title>Node3&#45;&gt;Node2</title>
<path fill="none" stroke="midnightblue" d="M826.28,-386.9C810.33,-377 789.5,-364.07 775.94,-355.65"/>
<polygon fill="midnightblue" stroke="midnightblue" points="824.68,-390.02 835.02,-392.32 828.37,-384.08 824.68,-390.02"/>
</g>
<!-- Node4 -->
<g id="node4" class="node">
<title>Node4</title>
<g id="a_node4"><a xlink:href="default__skins_8h.html" target="_top" xlink:title=" ">
<polygon fill="white" stroke="black" points="923.5,-224.5 923.5,-243.5 1006.5,-243.5 1006.5,-224.5 923.5,-224.5"/>
<text text-anchor="middle" x="965" y="-231.5" font-family="Helvetica,sans-Serif" font-size="10.00">default_skins.h</text>
</a>
</g>
</g>
<!-- Node3&#45;&gt;Node4 -->
<g id="edge4" class="edge">
<title>Node3&#45;&gt;Node4</title>
<path fill="none" stroke="midnightblue" d="M862.46,-384.28C869.09,-375.9 877.12,-365.53 884,-356 913.75,-314.81 946.72,-263.71 959.51,-243.65"/>
<polygon fill="midnightblue" stroke="midnightblue" points="859.66,-382.18 856.16,-392.18 865.13,-386.54 859.66,-382.18"/>
</g>
<!-- Node17 -->
<g id="node17" class="node">
<title>Node17</title>
<g id="a_node17"><a xlink:href="parent_8h.html" target="_top" xlink:title=" ">
<polygon fill="white" stroke="black" points="823,-336.5 823,-355.5 875,-355.5 875,-336.5 823,-336.5"/>
<text text-anchor="middle" x="849" y="-343.5" font-family="Helvetica,sans-Serif" font-size="10.00">parent.h</text>
</a>
</g>
</g>
<!-- Node3&#45;&gt;Node17 -->
<g id="edge20" class="edge">
<title>Node3&#45;&gt;Node17</title>
<path fill="none" stroke="midnightblue" d="M849,-381.8C849,-372.91 849,-362.78 849,-355.75"/>
<polygon fill="midnightblue" stroke="midnightblue" points="845.5,-382.08 849,-392.08 852.5,-382.08 845.5,-382.08"/>
</g>
<!-- Node36 -->
<g id="node36" class="node">
<title>Node36</title>
<g id="a_node36"><a xlink:href="shape_8h.html" target="_top" xlink:title=" ">
<polygon fill="white" stroke="black" points="1053.5,-336.5 1053.5,-355.5 1104.5,-355.5 1104.5,-336.5 1053.5,-336.5"/>
<text text-anchor="middle" x="1079" y="-343.5" font-family="Helvetica,sans-Serif" font-size="10.00">shape.h</text>
</a>
</g>
</g>
<!-- Node3&#45;&gt;Node36 -->
<g id="edge49" class="edge">
<title>Node3&#45;&gt;Node36</title>
<path fill="none" stroke="midnightblue" d="M895.2,-390.15C942.79,-378.98 1015.24,-361.97 1053.41,-353.01"/>
<polygon fill="midnightblue" stroke="midnightblue" points="894.38,-386.75 885.44,-392.44 895.98,-393.57 894.38,-386.75"/>
</g>
<!-- Node5 -->
<g id="node5" class="node">
<title>Node5</title>
<g id="a_node5"><a xlink:href="button_8h.html" target="_top" xlink:title=" ">
<polygon fill="white" stroke="black" points="890,-168.5 890,-187.5 942,-187.5 942,-168.5 890,-168.5"/>
<text text-anchor="middle" x="916" y="-175.5" font-family="Helvetica,sans-Serif" font-size="10.00">button.h</text>
</a>
</g>
</g>
<!-- Node4&#45;&gt;Node5 -->
<g id="edge5" class="edge">
<title>Node4&#45;&gt;Node5</title>
<path fill="none" stroke="midnightblue" d="M949.97,-216.43C941.38,-206.97 930.96,-195.48 923.94,-187.75"/>
<polygon fill="midnightblue" stroke="midnightblue" points="947.6,-219.03 956.91,-224.08 952.78,-214.33 947.6,-219.03"/>
</g>
<!-- Node8 -->
<g id="node8" class="node">
<title>Node8</title>
<g id="a_node8"><a xlink:href="default__skins_8cpp.html" target="_top" xlink:title=" ">
<polygon fill="white" stroke="black" points="605.5,-112.5 605.5,-131.5 698.5,-131.5 698.5,-112.5 605.5,-112.5"/>
<text text-anchor="middle" x="652" y="-119.5" font-family="Helvetica,sans-Serif" font-size="10.00">default_skins.cpp</text>
</a>
</g>
</g>
<!-- Node4&#45;&gt;Node8 -->
<g id="edge16" class="edge">
<title>Node4&#45;&gt;Node8</title>
<path fill="none" stroke="midnightblue" d="M939.84,-219.49C904.86,-200.73 845.53,-168.95 843,-168 795.18,-149.98 737.83,-137.62 698.53,-130.49"/>
<polygon fill="midnightblue" stroke="midnightblue" points="938.52,-222.76 948.99,-224.4 941.83,-216.59 938.52,-222.76"/>
</g>
<!-- Node14 -->
<g id="node14" class="node">
<title>Node14</title>
<g id="a_node14"><a xlink:href="scroll__bar_8cpp.html" target="_top" xlink:title=" ">
<polygon fill="white" stroke="black" points="680.5,-168.5 680.5,-187.5 757.5,-187.5 757.5,-168.5 680.5,-168.5"/>
<text text-anchor="middle" x="719" y="-175.5" font-family="Helvetica,sans-Serif" font-size="10.00">scroll_bar.cpp</text>
</a>
</g>
</g>
<!-- Node4&#45;&gt;Node14 -->
<g id="edge17" class="edge">
<title>Node4&#45;&gt;Node14</title>
<path fill="none" stroke="midnightblue" d="M916.17,-222.28C869.68,-212.08 800.64,-196.92 757.8,-187.52"/>
<polygon fill="midnightblue" stroke="midnightblue" points="915.5,-225.72 926.02,-224.44 917,-218.88 915.5,-225.72"/>
</g>
<!-- Node15 -->
<g id="node15" class="node">
<title>Node15</title>
<g id="a_node15"><a xlink:href="slider_8cpp.html" target="_top" xlink:title=" ">
<polygon fill="white" stroke="black" points="776,-168.5 776,-187.5 834,-187.5 834,-168.5 776,-168.5"/>
<text text-anchor="middle" x="805" y="-175.5" font-family="Helvetica,sans-Serif" font-size="10.00">slider.cpp</text>
</a>
</g>
</g>
<!-- Node4&#45;&gt;Node15 -->
<g id="edge18" class="edge">
<title>Node4&#45;&gt;Node15</title>
<path fill="none" stroke="midnightblue" d="M929.95,-221.17C899.83,-211 857.1,-196.59 830.23,-187.52"/>
<polygon fill="midnightblue" stroke="midnightblue" points="929.05,-224.56 939.65,-224.44 931.29,-217.93 929.05,-224.56"/>
</g>
<!-- Node16 -->
<g id="node16" class="node">
<title>Node16</title>
<g id="a_node16"><a xlink:href="text_8cpp.html" target="_top" xlink:title=" ">
<polygon fill="white" stroke="black" points="977,-168.5 977,-187.5 1029,-187.5 1029,-168.5 977,-168.5"/>
<text text-anchor="middle" x="1003" y="-175.5" font-family="Helvetica,sans-Serif" font-size="10.00">text.cpp</text>
</a>
</g>
</g>
<!-- Node4&#45;&gt;Node16 -->
<g id="edge19" class="edge">
<title>Node4&#45;&gt;Node16</title>
<path fill="none" stroke="midnightblue" d="M977.06,-215.86C983.64,-206.5 991.51,-195.33 996.84,-187.75"/>
<polygon fill="midnightblue" stroke="midnightblue" points="974.17,-213.89 971.27,-224.08 979.89,-217.92 974.17,-213.89"/>
</g>
<!-- Node6 -->
<g id="node6" class="node">
<title>Node6</title>
<g id="a_node6"><a xlink:href="button_8cpp.html" target="_top" xlink:title=" ">
<polygon fill="white" stroke="black" points="885,-112.5 885,-131.5 947,-131.5 947,-112.5 885,-112.5"/>
<text text-anchor="middle" x="916" y="-119.5" font-family="Helvetica,sans-Serif" font-size="10.00">button.cpp</text>
</a>
</g>
</g>
<!-- Node5&#45;&gt;Node6 -->
<g id="edge6" class="edge">
<title>Node5&#45;&gt;Node6</title>
<path fill="none" stroke="midnightblue" d="M916,-157.8C916,-148.91 916,-138.78 916,-131.75"/>
<polygon fill="midnightblue" stroke="midnightblue" points="912.5,-158.08 916,-168.08 919.5,-158.08 912.5,-158.08"/>
</g>
<!-- Node7 -->
<g id="node7" class="node">
<title>Node7</title>
<g id="a_node7"><a xlink:href="context__menu_8cpp.html" target="_top" xlink:title=" ">
<polygon fill="white" stroke="black" points="689.5,-0.5 689.5,-19.5 786.5,-19.5 786.5,-0.5 689.5,-0.5"/>
<text text-anchor="middle" x="738" y="-7.5" font-family="Helvetica,sans-Serif" font-size="10.00">context_menu.cpp</text>
</a>
</g>
</g>
<!-- Node5&#45;&gt;Node7 -->
<g id="edge7" class="edge">
<title>Node5&#45;&gt;Node7</title>
<path fill="none" stroke="midnightblue" d="M879.82,-168.81C844.41,-160.17 793.7,-145.89 779,-132 745.95,-100.78 739.54,-41.97 738.3,-19.78"/>
<polygon fill="midnightblue" stroke="midnightblue" points="879.27,-172.28 889.81,-171.2 880.9,-165.47 879.27,-172.28"/>
</g>
<!-- Node5&#45;&gt;Node8 -->
<g id="edge8" class="edge">
<title>Node5&#45;&gt;Node8</title>
<path fill="none" stroke="midnightblue" d="M879.81,-168.82C878.53,-168.54 877.25,-168.27 876,-168 813.73,-154.74 741.49,-140.42 696.26,-131.58"/>
<polygon fill="midnightblue" stroke="midnightblue" points="879.25,-172.28 889.77,-171.01 880.75,-165.44 879.25,-172.28"/>
</g>
<!-- Node9 -->
<g id="node9" class="node">
<title>Node9</title>
<g id="a_node9"><a xlink:href="menu__bar_8h.html" target="_top" xlink:title=" ">
<polygon fill="white" stroke="black" points="788.5,-112.5 788.5,-131.5 855.5,-131.5 855.5,-112.5 788.5,-112.5"/>
<text text-anchor="middle" x="822" y="-119.5" font-family="Helvetica,sans-Serif" font-size="10.00">menu_bar.h</text>
</a>
</g>
</g>
<!-- Node5&#45;&gt;Node9 -->
<g id="edge9" class="edge">
<title>Node5&#45;&gt;Node9</title>
<path fill="none" stroke="midnightblue" d="M891.94,-163.18C874.64,-153.24 851.85,-140.15 837.07,-131.65"/>
<polygon fill="midnightblue" stroke="midnightblue" points="890.48,-166.38 900.9,-168.32 893.97,-160.31 890.48,-166.38"/>
</g>
<!-- Node10 -->
<g id="node10" class="node">
<title>Node10</title>
<g id="a_node10"><a xlink:href="menu__bar_8cpp.html" target="_top" xlink:title=" ">
<polygon fill="white" stroke="black" points="806.5,-0.5 806.5,-19.5 883.5,-19.5 883.5,-0.5 806.5,-0.5"/>
<text text-anchor="middle" x="845" y="-7.5" font-family="Helvetica,sans-Serif" font-size="10.00">menu_bar.cpp</text>
</a>
</g>
</g>
<!-- Node9&#45;&gt;Node10 -->
<g id="edge10" class="edge">
<title>Node9&#45;&gt;Node10</title>
<path fill="none" stroke="midnightblue" d="M825.9,-102.35C830.94,-78.25 839.5,-37.31 843.2,-19.59"/>
<polygon fill="midnightblue" stroke="midnightblue" points="822.43,-101.86 823.8,-112.37 829.28,-103.3 822.43,-101.86"/>
</g>
<!-- Node11 -->
<g id="node11" class="node">
<title>Node11</title>
<g id="a_node11"><a xlink:href="scene_8h.html" target="_top" xlink:title=" ">
<polygon fill="white" stroke="black" points="766.5,-56.5 766.5,-75.5 817.5,-75.5 817.5,-56.5 766.5,-56.5"/>
<text text-anchor="middle" x="792" y="-63.5" font-family="Helvetica,sans-Serif" font-size="10.00">scene.h</text>
</a>
</g>
</g>
<!-- Node9&#45;&gt;Node11 -->
<g id="edge11" class="edge">
<title>Node9&#45;&gt;Node11</title>
<path fill="none" stroke="midnightblue" d="M812.15,-103.27C807.03,-94.05 800.98,-83.17 796.86,-75.75"/>
<polygon fill="midnightblue" stroke="midnightblue" points="809.13,-105.04 817.05,-112.08 815.25,-101.64 809.13,-105.04"/>
</g>
<!-- Node11&#45;&gt;Node7 -->
<g id="edge13" class="edge">
<title>Node11&#45;&gt;Node7</title>
<path fill="none" stroke="midnightblue" d="M776,-49C766.43,-39.43 754.64,-27.64 746.75,-19.75"/>
<polygon fill="midnightblue" stroke="midnightblue" points="773.54,-51.49 783.08,-56.08 778.49,-46.54 773.54,-51.49"/>
</g>
<!-- Node11&#45;&gt;Node10 -->
<g id="edge14" class="edge">
<title>Node11&#45;&gt;Node10</title>
<path fill="none" stroke="midnightblue" d="M807.98,-48.72C817.32,-39.2 828.75,-27.56 836.41,-19.75"/>
<polygon fill="midnightblue" stroke="midnightblue" points="805.26,-46.49 800.75,-56.08 810.25,-51.4 805.26,-46.49"/>
</g>
<!-- Node12 -->
<g id="node12" class="node">
<title>Node12</title>
<g id="a_node12"><a xlink:href="component_8cpp.html" target="_top" xlink:title=" ">
<polygon fill="white" stroke="black" points="966.5,-0.5 966.5,-19.5 1049.5,-19.5 1049.5,-0.5 966.5,-0.5"/>
<text text-anchor="middle" x="1008" y="-7.5" font-family="Helvetica,sans-Serif" font-size="10.00">component.cpp</text>
</a>
</g>
</g>
<!-- Node11&#45;&gt;Node12 -->
<g id="edge12" class="edge">
<title>Node11&#45;&gt;Node12</title>
<path fill="none" stroke="midnightblue" d="M827.35,-56.16C867.89,-46.03 933.88,-29.53 973.89,-19.53"/>
<polygon fill="midnightblue" stroke="midnightblue" points="826.48,-52.77 817.63,-58.59 828.18,-59.56 826.48,-52.77"/>
</g>
<!-- Node13 -->
<g id="node13" class="node">
<title>Node13</title>
<g id="a_node13"><a xlink:href="scene_8cpp.html" target="_top" xlink:title=" ">
<polygon fill="white" stroke="black" points="289,-0.5 289,-19.5 351,-19.5 351,-0.5 289,-0.5"/>
<text text-anchor="middle" x="320" y="-7.5" font-family="Helvetica,sans-Serif" font-size="10.00">scene.cpp</text>
</a>
</g>
</g>
<!-- Node11&#45;&gt;Node13 -->
<g id="edge15" class="edge">
<title>Node11&#45;&gt;Node13</title>
<path fill="none" stroke="midnightblue" d="M756.11,-60.89C666.72,-50.67 435.29,-24.19 351.16,-14.56"/>
<polygon fill="midnightblue" stroke="midnightblue" points="755.95,-64.4 766.29,-62.06 756.75,-57.44 755.95,-64.4"/>
</g>
<!-- Node17&#45;&gt;Node12 -->
<g id="edge21" class="edge">
<title>Node17&#45;&gt;Node12</title>
<path fill="none" stroke="midnightblue" d="M885.25,-341.47C937.37,-335.69 1029.9,-322.51 1054,-300 1076,-279.46 1073,-265.1 1073,-235 1073,-235 1073,-235 1073,-121 1073,-77.97 1035.67,-36.98 1017.59,-19.66"/>
<polygon fill="midnightblue" stroke="midnightblue" points="884.65,-338.02 875.08,-342.57 885.4,-344.98 884.65,-338.02"/>
</g>
<!-- Node17&#45;&gt;Node13 -->
<g id="edge48" class="edge">
<title>Node17&#45;&gt;Node13</title>
<path fill="none" stroke="midnightblue" d="M812.64,-336.07C596.27,-301.48 536.51,-329.19 323,-300 177.92,-280.16 0,-381.43 0,-235 0,-235 0,-235 0,-121 0,-60.34 208.21,-25.97 288.73,-14.94"/>
<polygon fill="midnightblue" stroke="midnightblue" points="812.3,-339.56 822.73,-337.71 813.42,-332.65 812.3,-339.56"/>
</g>
<!-- Node18 -->
<g id="node18" class="node">
<title>Node18</title>
<g id="a_node18"><a xlink:href="container_8h.html" target="_top" xlink:title=" ">
<polygon fill="white" stroke="black" points="332,-280.5 332,-299.5 396,-299.5 396,-280.5 332,-280.5"/>
<text text-anchor="middle" x="364" y="-287.5" font-family="Helvetica,sans-Serif" font-size="10.00">container.h</text>
</a>
</g>
</g>
<!-- Node17&#45;&gt;Node18 -->
<g id="edge22" class="edge">
<title>Node17&#45;&gt;Node18</title>
<path fill="none" stroke="midnightblue" d="M812.61,-336C651.12,-307.96 468.77,-296.36 396.15,-292.53"/>
<polygon fill="midnightblue" stroke="midnightblue" points="812.26,-339.5 822.72,-337.79 813.48,-332.6 812.26,-339.5"/>
</g>
<!-- Node29 -->
<g id="node29" class="node">
<title>Node29</title>
<g id="a_node29"><a xlink:href="control_8h.html" target="_top" xlink:title=" ">
<polygon fill="white" stroke="black" points="733,-280.5 733,-299.5 787,-299.5 787,-280.5 733,-280.5"/>
<text text-anchor="middle" x="760" y="-287.5" font-family="Helvetica,sans-Serif" font-size="10.00">control.h</text>
</a>
</g>
</g>
<!-- Node17&#45;&gt;Node29 -->
<g id="edge36" class="edge">
<title>Node17&#45;&gt;Node29</title>
<path fill="none" stroke="midnightblue" d="M825.76,-330.9C809.44,-321 788.13,-308.07 774.26,-299.65"/>
<polygon fill="midnightblue" stroke="midnightblue" points="824.34,-334.13 834.7,-336.32 827.97,-328.14 824.34,-334.13"/>
</g>
<!-- Node35 -->
<g id="node35" class="node">
<title>Node35</title>
<g id="a_node35"><a xlink:href="parent_8cpp.html" target="_top" xlink:title=" ">
<polygon fill="white" stroke="black" points="818,-280.5 818,-299.5 880,-299.5 880,-280.5 818,-280.5"/>
<text text-anchor="middle" x="849" y="-287.5" font-family="Helvetica,sans-Serif" font-size="10.00">parent.cpp</text>
</a>
</g>
</g>
<!-- Node17&#45;&gt;Node35 -->
<g id="edge47" class="edge">
<title>Node17&#45;&gt;Node35</title>
<path fill="none" stroke="midnightblue" d="M849,-325.8C849,-316.91 849,-306.78 849,-299.75"/>
<polygon fill="midnightblue" stroke="midnightblue" points="845.5,-326.08 849,-336.08 852.5,-326.08 845.5,-326.08"/>
</g>
<!-- Node19 -->
<g id="node19" class="node">
<title>Node19</title>
<g id="a_node19"><a xlink:href="box__container_8h.html" target="_top" xlink:title=" ">
<polygon fill="white" stroke="black" points="321.5,-224.5 321.5,-243.5 406.5,-243.5 406.5,-224.5 321.5,-224.5"/>
<text text-anchor="middle" x="364" y="-231.5" font-family="Helvetica,sans-Serif" font-size="10.00">box_container.h</text>
</a>
</g>
</g>
<!-- Node18&#45;&gt;Node19 -->
<g id="edge23" class="edge">
<title>Node18&#45;&gt;Node19</title>
<path fill="none" stroke="midnightblue" d="M364,-269.8C364,-260.91 364,-250.78 364,-243.75"/>
<polygon fill="midnightblue" stroke="midnightblue" points="360.5,-270.08 364,-280.08 367.5,-270.08 360.5,-270.08"/>
</g>
<!-- Node22 -->
<g id="node22" class="node">
<title>Node22</title>
<g id="a_node22"><a xlink:href="container_8cpp.html" target="_top" xlink:title=" ">
<polygon fill="white" stroke="black" points="425,-224.5 425,-243.5 499,-243.5 499,-224.5 425,-224.5"/>
<text text-anchor="middle" x="462" y="-231.5" font-family="Helvetica,sans-Serif" font-size="10.00">container.cpp</text>
</a>
</g>
</g>
<!-- Node18&#45;&gt;Node22 -->
<g id="edge29" class="edge">
<title>Node18&#45;&gt;Node22</title>
<path fill="none" stroke="midnightblue" d="M388.59,-275.45C406.68,-265.48 430.73,-252.23 446.29,-243.65"/>
<polygon fill="midnightblue" stroke="midnightblue" points="386.81,-272.43 379.75,-280.32 390.19,-278.56 386.81,-272.43"/>
</g>
<!-- Node23 -->
<g id="node23" class="node">
<title>Node23</title>
<g id="a_node23"><a xlink:href="layered__container_8h.html" target="_top" xlink:title=" ">
<polygon fill="white" stroke="black" points="119.5,-224.5 119.5,-243.5 220.5,-243.5 220.5,-224.5 119.5,-224.5"/>
<text text-anchor="middle" x="170" y="-231.5" font-family="Helvetica,sans-Serif" font-size="10.00">layered_container.h</text>
</a>
</g>
</g>
<!-- Node18&#45;&gt;Node23 -->
<g id="edge30" class="edge">
<title>Node18&#45;&gt;Node23</title>
<path fill="none" stroke="midnightblue" d="M323.4,-277.7C286.78,-267.51 233.74,-252.74 200.6,-243.52"/>
<polygon fill="midnightblue" stroke="midnightblue" points="322.69,-281.13 333.26,-280.44 324.56,-274.39 322.69,-281.13"/>
</g>
<!-- Node27 -->
<g id="node27" class="node">
<title>Node27</title>
<g id="a_node27"><a xlink:href="tile__pane_8h.html" target="_top" xlink:title=" ">
<polygon fill="white" stroke="black" points="239,-224.5 239,-243.5 303,-243.5 303,-224.5 239,-224.5"/>
<text text-anchor="middle" x="271" y="-231.5" font-family="Helvetica,sans-Serif" font-size="10.00">tile_pane.h</text>
</a>
</g>
</g>
<!-- Node18&#45;&gt;Node27 -->
<g id="edge34" class="edge">
<title>Node18&#45;&gt;Node27</title>
<path fill="none" stroke="midnightblue" d="M340.19,-275.18C323.08,-265.24 300.53,-252.15 285.9,-243.65"/>
<polygon fill="midnightblue" stroke="midnightblue" points="338.65,-278.33 349.06,-280.32 342.17,-272.28 338.65,-278.33"/>
</g>
<!-- Node19&#45;&gt;Node8 -->
<g id="edge28" class="edge">
<title>Node19&#45;&gt;Node8</title>
<path fill="none" stroke="midnightblue" d="M416.6,-222.91C464.48,-213.32 531.33,-198.8 556,-188 590.29,-172.98 625.43,-145.48 642.08,-131.55"/>
<polygon fill="midnightblue" stroke="midnightblue" points="415.82,-219.5 406.7,-224.88 417.19,-226.36 415.82,-219.5"/>
</g>
<!-- Node20 -->
<g id="node20" class="node">
<title>Node20</title>
<g id="a_node20"><a xlink:href="box__container_8cpp.html" target="_top" xlink:title=" ">
<polygon fill="white" stroke="black" points="452.5,-168.5 452.5,-187.5 547.5,-187.5 547.5,-168.5 452.5,-168.5"/>
<text text-anchor="middle" x="500" y="-175.5" font-family="Helvetica,sans-Serif" font-size="10.00">box_container.cpp</text>
</a>
</g>
</g>
<!-- Node19&#45;&gt;Node20 -->
<g id="edge24" class="edge">
<title>Node19&#45;&gt;Node20</title>
<path fill="none" stroke="midnightblue" d="M395.13,-220.64C420.66,-210.5 456.11,-196.43 478.55,-187.52"/>
<polygon fill="midnightblue" stroke="midnightblue" points="393.55,-217.5 385.55,-224.44 396.14,-224.01 393.55,-217.5"/>
</g>
<!-- Node21 -->
<g id="node21" class="node">
<title>Node21</title>
<g id="a_node21"><a xlink:href="context__menu_8h.html" target="_top" xlink:title=" ">
<polygon fill="white" stroke="black" points="348,-168.5 348,-187.5 434,-187.5 434,-168.5 348,-168.5"/>
<text text-anchor="middle" x="391" y="-175.5" font-family="Helvetica,sans-Serif" font-size="10.00">context_menu.h</text>
</a>
</g>
</g>
<!-- Node19&#45;&gt;Node21 -->
<g id="edge25" class="edge">
<title>Node19&#45;&gt;Node21</title>
<path fill="none" stroke="midnightblue" d="M373.01,-214.98C377.59,-205.82 382.95,-195.09 386.62,-187.75"/>
<polygon fill="midnightblue" stroke="midnightblue" points="369.8,-213.57 368.46,-224.08 376.06,-216.7 369.8,-213.57"/>
</g>
<!-- Node21&#45;&gt;Node7 -->
<g id="edge26" class="edge">
<title>Node21&#45;&gt;Node7</title>
<path fill="none" stroke="midnightblue" d="M418.44,-163.87C486.77,-131.19 663.11,-46.83 720.01,-19.61"/>
<polygon fill="midnightblue" stroke="midnightblue" points="416.68,-160.84 409.17,-168.31 419.7,-167.15 416.68,-160.84"/>
</g>
<!-- Node21&#45;&gt;Node9 -->
<g id="edge27" class="edge">
<title>Node21&#45;&gt;Node9</title>
<path fill="none" stroke="midnightblue" d="M444.1,-167.91C577.57,-148.66 723.88,-133.01 788.46,-126.38"/>
<polygon fill="midnightblue" stroke="midnightblue" points="443.5,-164.46 434.1,-169.36 444.5,-171.38 443.5,-164.46"/>
</g>
<!-- Node24 -->
<g id="node24" class="node">
<title>Node24</title>
<g id="a_node24"><a xlink:href="anchor__pane_8h.html" target="_top" xlink:title=" ">
<polygon fill="white" stroke="black" points="28,-168.5 28,-187.5 108,-187.5 108,-168.5 28,-168.5"/>
<text text-anchor="middle" x="68" y="-175.5" font-family="Helvetica,sans-Serif" font-size="10.00">anchor_pane.h</text>
</a>
</g>
</g>
<!-- Node23&#45;&gt;Node24 -->
<g id="edge31" class="edge">
<title>Node23&#45;&gt;Node24</title>
<path fill="none" stroke="midnightblue" d="M144.67,-219.59C125.81,-209.61 100.62,-196.27 84.35,-187.65"/>
<polygon fill="midnightblue" stroke="midnightblue" points="143.14,-222.74 153.61,-224.32 146.41,-216.55 143.14,-222.74"/>
</g>
<!-- Node26 -->
<g id="node26" class="node">
<title>Node26</title>
<g id="a_node26"><a xlink:href="layered__container_8cpp.html" target="_top" xlink:title=" ">
<polygon fill="white" stroke="black" points="126.5,-168.5 126.5,-187.5 237.5,-187.5 237.5,-168.5 126.5,-168.5"/>
<text text-anchor="middle" x="182" y="-175.5" font-family="Helvetica,sans-Serif" font-size="10.00">layered_container.cpp</text>
</a>
</g>
</g>
<!-- Node23&#45;&gt;Node26 -->
<g id="edge33" class="edge">
<title>Node23&#45;&gt;Node26</title>
<path fill="none" stroke="midnightblue" d="M174.2,-214.1C176.19,-205.14 178.48,-194.86 180.06,-187.75"/>
<polygon fill="midnightblue" stroke="midnightblue" points="170.73,-213.56 171.98,-224.08 177.57,-215.08 170.73,-213.56"/>
</g>
<!-- Node25 -->
<g id="node25" class="node">
<title>Node25</title>
<g id="a_node25"><a xlink:href="anchor__pane_8cpp.html" target="_top" xlink:title=" ">
<polygon fill="white" stroke="black" points="28.5,-112.5 28.5,-131.5 119.5,-131.5 119.5,-112.5 28.5,-112.5"/>
<text text-anchor="middle" x="74" y="-119.5" font-family="Helvetica,sans-Serif" font-size="10.00">anchor_pane.cpp</text>
</a>
</g>
</g>
<!-- Node24&#45;&gt;Node25 -->
<g id="edge32" class="edge">
<title>Node24&#45;&gt;Node25</title>
<path fill="none" stroke="midnightblue" d="M70.1,-158.1C71.1,-149.14 72.24,-138.86 73.03,-131.75"/>
<polygon fill="midnightblue" stroke="midnightblue" points="66.62,-157.76 68.99,-168.08 73.57,-158.53 66.62,-157.76"/>
</g>
<!-- Node28 -->
<g id="node28" class="node">
<title>Node28</title>
<g id="a_node28"><a xlink:href="tile__pane_8cpp.html" target="_top" xlink:title=" ">
<polygon fill="white" stroke="black" points="256,-168.5 256,-187.5 330,-187.5 330,-168.5 256,-168.5"/>
<text text-anchor="middle" x="293" y="-175.5" font-family="Helvetica,sans-Serif" font-size="10.00">tile_pane.cpp</text>
</a>
</g>
</g>
<!-- Node27&#45;&gt;Node28 -->
<g id="edge35" class="edge">
<title>Node27&#45;&gt;Node28</title>
<path fill="none" stroke="midnightblue" d="M278.46,-214.69C282.17,-205.59 286.48,-195.01 289.43,-187.75"/>
<polygon fill="midnightblue" stroke="midnightblue" points="275.16,-213.5 274.63,-224.08 281.65,-216.14 275.16,-213.5"/>
</g>
<!-- Node29&#45;&gt;Node5 -->
<g id="edge37" class="edge">
<title>Node29&#45;&gt;Node5</title>
<path fill="none" stroke="midnightblue" d="M797.03,-280.92C821.24,-274.2 852.44,-262.64 875,-244 893.93,-228.36 906.83,-201.63 912.59,-187.82"/>
<polygon fill="midnightblue" stroke="midnightblue" points="795.92,-277.6 787.13,-283.52 797.69,-284.37 795.92,-277.6"/>
</g>
<!-- Node30 -->
<g id="node30" class="node">
<title>Node30</title>
<g id="a_node30"><a xlink:href="control_8cpp.html" target="_top" xlink:title=" ">
<polygon fill="white" stroke="black" points="801.5,-224.5 801.5,-243.5 866.5,-243.5 866.5,-224.5 801.5,-224.5"/>
<text text-anchor="middle" x="834" y="-231.5" font-family="Helvetica,sans-Serif" font-size="10.00">control.cpp</text>
</a>
</g>
</g>
<!-- Node29&#45;&gt;Node30 -->
<g id="edge38" class="edge">
<title>Node29&#45;&gt;Node30</title>
<path fill="none" stroke="midnightblue" d="M780.03,-274.38C793.41,-264.62 810.56,-252.11 821.89,-243.83"/>
<polygon fill="midnightblue" stroke="midnightblue" points="777.9,-271.6 771.89,-280.32 782.03,-277.26 777.9,-271.6"/>
</g>
<!-- Node31 -->
<g id="node31" class="node">
<title>Node31</title>
<g id="a_node31"><a xlink:href="label_8h.html" target="_top" xlink:title=" ">
<polygon fill="white" stroke="black" points="517.5,-224.5 517.5,-243.5 562.5,-243.5 562.5,-224.5 517.5,-224.5"/>
<text text-anchor="middle" x="540" y="-231.5" font-family="Helvetica,sans-Serif" font-size="10.00">label.h</text>
</a>
</g>
</g>
<!-- Node29&#45;&gt;Node31 -->
<g id="edge39" class="edge">
<title>Node29&#45;&gt;Node31</title>
<path fill="none" stroke="midnightblue" d="M722.74,-280.53C684.73,-271.79 624.1,-257.56 572,-244 568.98,-243.22 565.82,-242.36 562.7,-241.5"/>
<polygon fill="midnightblue" stroke="midnightblue" points="722.3,-284.03 732.83,-282.85 723.87,-277.2 722.3,-284.03"/>
</g>
<!-- Node32 -->
<g id="node32" class="node">
<title>Node32</title>
<g id="a_node32"><a xlink:href="scroll__bar_8h.html" target="_top" xlink:title=" ">
<polygon fill="white" stroke="black" points="581,-224.5 581,-243.5 647,-243.5 647,-224.5 581,-224.5"/>
<text text-anchor="middle" x="614" y="-231.5" font-family="Helvetica,sans-Serif" font-size="10.00">scroll_bar.h</text>
</a>
</g>
</g>
<!-- Node29&#45;&gt;Node32 -->
<g id="edge40" class="edge">
<title>Node29&#45;&gt;Node32</title>
<path fill="none" stroke="midnightblue" d="M727.3,-276.91C699.85,-266.75 661.33,-252.51 637.03,-243.52"/>
<polygon fill="midnightblue" stroke="midnightblue" points="726.27,-280.26 736.87,-280.44 728.7,-273.69 726.27,-280.26"/>
</g>
<!-- Node33 -->
<g id="node33" class="node">
<title>Node33</title>
<g id="a_node33"><a xlink:href="skin_8cpp.html" target="_top" xlink:title=" ">
<polygon fill="white" stroke="black" points="665.5,-224.5 665.5,-243.5 718.5,-243.5 718.5,-224.5 665.5,-224.5"/>
<text text-anchor="middle" x="692" y="-231.5" font-family="Helvetica,sans-Serif" font-size="10.00">skin.cpp</text>
</a>
</g>
</g>
<!-- Node29&#45;&gt;Node33 -->
<g id="edge43" class="edge">
<title>Node29&#45;&gt;Node33</title>
<path fill="none" stroke="midnightblue" d="M741.24,-274.1C729,-264.38 713.44,-252.03 703.12,-243.83"/>
<polygon fill="midnightblue" stroke="midnightblue" points="739.07,-276.85 749.07,-280.32 743.42,-271.36 739.07,-276.85"/>
</g>
<!-- Node34 -->
<g id="node34" class="node">
<title>Node34</title>
<g id="a_node34"><a xlink:href="slider_8h.html" target="_top" xlink:title=" ">
<polygon fill="white" stroke="black" points="736.5,-224.5 736.5,-243.5 783.5,-243.5 783.5,-224.5 736.5,-224.5"/>
<text text-anchor="middle" x="760" y="-231.5" font-family="Helvetica,sans-Serif" font-size="10.00">slider.h</text>
</a>
</g>
</g>
<!-- Node29&#45;&gt;Node34 -->
<g id="edge44" class="edge">
<title>Node29&#45;&gt;Node34</title>
<path fill="none" stroke="midnightblue" d="M760,-269.8C760,-260.91 760,-250.78 760,-243.75"/>
<polygon fill="midnightblue" stroke="midnightblue" points="756.5,-270.08 760,-280.08 763.5,-270.08 756.5,-270.08"/>
</g>
<!-- Node32&#45;&gt;Node8 -->
<g id="edge41" class="edge">
<title>Node32&#45;&gt;Node8</title>
<path fill="none" stroke="midnightblue" d="M620.33,-214.67C628.64,-190.62 642.88,-149.39 649.03,-131.59"/>
<polygon fill="midnightblue" stroke="midnightblue" points="616.94,-213.77 616.98,-224.37 623.56,-216.06 616.94,-213.77"/>
</g>
<!-- Node32&#45;&gt;Node14 -->
<g id="edge42" class="edge">
<title>Node32&#45;&gt;Node14</title>
<path fill="none" stroke="midnightblue" d="M639.81,-219.73C659.25,-209.73 685.35,-196.31 702.17,-187.65"/>
<polygon fill="midnightblue" stroke="midnightblue" points="638.16,-216.64 630.87,-224.32 641.36,-222.86 638.16,-216.64"/>
</g>
<!-- Node34&#45;&gt;Node8 -->
<g id="edge45" class="edge">
<title>Node34&#45;&gt;Node8</title>
<path fill="none" stroke="midnightblue" d="M726.49,-223.42C707.71,-216.44 685.26,-205.15 671,-188 657.17,-171.36 653.41,-145.06 652.38,-131.58"/>
<polygon fill="midnightblue" stroke="midnightblue" points="725.6,-226.81 736.2,-226.77 727.89,-220.2 725.6,-226.81"/>
</g>
<!-- Node34&#45;&gt;Node15 -->
<g id="edge46" class="edge">
<title>Node34&#45;&gt;Node15</title>
<path fill="none" stroke="midnightblue" d="M774.05,-216.14C781.89,-206.74 791.33,-195.4 797.71,-187.75"/>
<polygon fill="midnightblue" stroke="midnightblue" points="771.14,-214.16 767.43,-224.08 776.52,-218.64 771.14,-214.16"/>
</g>
<!-- Node37 -->
<g id="node37" class="node">
<title>Node37</title>
<g id="a_node37"><a xlink:href="circle_8h.html" target="_top" xlink:title=" ">
<polygon fill="white" stroke="black" points="1265,-280.5 1265,-299.5 1313,-299.5 1313,-280.5 1265,-280.5"/>
<text text-anchor="middle" x="1289" y="-287.5" font-family="Helvetica,sans-Serif" font-size="10.00">circle.h</text>
</a>
</g>
</g>
<!-- Node36&#45;&gt;Node37 -->
<g id="edge50" class="edge">
<title>Node36&#45;&gt;Node37</title>
<path fill="none" stroke="midnightblue" d="M1114.44,-335.9C1178.68,-319.55 1195.99,-315.79 1256,-300 1258.87,-299.24 1261.88,-298.44 1264.86,-297.64"/>
<polygon fill="midnightblue" stroke="midnightblue" points="1113.44,-332.54 1104.61,-338.4 1115.17,-339.32 1113.44,-332.54"/>
</g>
<!-- Node39 -->
<g id="node39" class="node">
<title>Node39</title>
<g id="a_node39"><a xlink:href="rectangle_8h.html" target="_top" xlink:title=" ">
<polygon fill="white" stroke="black" points="1101.5,-280.5 1101.5,-299.5 1166.5,-299.5 1166.5,-280.5 1101.5,-280.5"/>
<text text-anchor="middle" x="1134" y="-287.5" font-family="Helvetica,sans-Serif" font-size="10.00">rectangle.h</text>
</a>
</g>
</g>
<!-- Node36&#45;&gt;Node39 -->
<g id="edge52" class="edge">
<title>Node36&#45;&gt;Node39</title>
<path fill="none" stroke="midnightblue" d="M1095.29,-329C1105.04,-319.43 1117.05,-307.64 1125.09,-299.75"/>
<polygon fill="midnightblue" stroke="midnightblue" points="1092.77,-326.58 1088.08,-336.08 1097.67,-331.57 1092.77,-326.58"/>
</g>
<!-- Node41 -->
<g id="node41" class="node">
<title>Node41</title>
<g id="a_node41"><a xlink:href="shape_8cpp.html" target="_top" xlink:title=" ">
<polygon fill="white" stroke="black" points="1185,-280.5 1185,-299.5 1247,-299.5 1247,-280.5 1185,-280.5"/>
<text text-anchor="middle" x="1216" y="-287.5" font-family="Helvetica,sans-Serif" font-size="10.00">shape.cpp</text>
</a>
</g>
</g>
<!-- Node36&#45;&gt;Node41 -->
<g id="edge55" class="edge">
<title>Node36&#45;&gt;Node41</title>
<path fill="none" stroke="midnightblue" d="M1110.02,-332.77C1135.76,-322.63 1171.69,-308.47 1194.39,-299.52"/>
<polygon fill="midnightblue" stroke="midnightblue" points="1108.73,-329.52 1100.71,-336.44 1111.29,-336.03 1108.73,-329.52"/>
</g>
<!-- Node42 -->
<g id="node42" class="node">
<title>Node42</title>
<g id="a_node42"><a xlink:href="text_8h.html" target="_top" xlink:title=" ">
<polygon fill="white" stroke="black" points="1003.5,-280.5 1003.5,-299.5 1044.5,-299.5 1044.5,-280.5 1003.5,-280.5"/>
<text text-anchor="middle" x="1024" y="-287.5" font-family="Helvetica,sans-Serif" font-size="10.00">text.h</text>
</a>
</g>
</g>
<!-- Node36&#45;&gt;Node42 -->
<g id="edge56" class="edge">
<title>Node36&#45;&gt;Node42</title>
<path fill="none" stroke="midnightblue" d="M1062.71,-329C1052.96,-319.43 1040.95,-307.64 1032.91,-299.75"/>
<polygon fill="midnightblue" stroke="midnightblue" points="1060.33,-331.57 1069.92,-336.08 1065.23,-326.58 1060.33,-331.57"/>
</g>
<!-- Node38 -->
<g id="node38" class="node">
<title>Node38</title>
<g id="a_node38"><a xlink:href="circle_8cpp.html" target="_top" xlink:title=" ">
<polygon fill="white" stroke="black" points="1259.5,-224.5 1259.5,-243.5 1318.5,-243.5 1318.5,-224.5 1259.5,-224.5"/>
<text text-anchor="middle" x="1289" y="-231.5" font-family="Helvetica,sans-Serif" font-size="10.00">circle.cpp</text>
</a>
</g>
</g>
<!-- Node37&#45;&gt;Node38 -->
<g id="edge51" class="edge">
<title>Node37&#45;&gt;Node38</title>
<path fill="none" stroke="midnightblue" d="M1289,-269.8C1289,-260.91 1289,-250.78 1289,-243.75"/>
<polygon fill="midnightblue" stroke="midnightblue" points="1285.5,-270.08 1289,-280.08 1292.5,-270.08 1285.5,-270.08"/>
</g>
<!-- Node39&#45;&gt;Node4 -->
<g id="edge53" class="edge">
<title>Node39&#45;&gt;Node4</title>
<path fill="none" stroke="midnightblue" d="M1097.4,-277.3C1065.55,-267.13 1020.16,-252.62 991.65,-243.52"/>
<polygon fill="midnightblue" stroke="midnightblue" points="1096.63,-280.73 1107.22,-280.44 1098.76,-274.07 1096.63,-280.73"/>
</g>
<!-- Node40 -->
<g id="node40" class="node">
<title>Node40</title>
<g id="a_node40"><a xlink:href="rectangle_8cpp.html" target="_top" xlink:title=" ">
<polygon fill="white" stroke="black" points="1101.5,-224.5 1101.5,-243.5 1176.5,-243.5 1176.5,-224.5 1101.5,-224.5"/>
<text text-anchor="middle" x="1139" y="-231.5" font-family="Helvetica,sans-Serif" font-size="10.00">rectangle.cpp</text>
</a>
</g>
</g>
<!-- Node39&#45;&gt;Node40 -->
<g id="edge54" class="edge">
<title>Node39&#45;&gt;Node40</title>
<path fill="none" stroke="midnightblue" d="M1135.75,-270.1C1136.58,-261.14 1137.53,-250.86 1138.19,-243.75"/>
<polygon fill="midnightblue" stroke="midnightblue" points="1132.26,-269.8 1134.83,-280.08 1139.23,-270.45 1132.26,-269.8"/>
</g>
<!-- Node42&#45;&gt;Node4 -->
<g id="edge57" class="edge">
<title>Node42&#45;&gt;Node4</title>
<path fill="none" stroke="midnightblue" d="M1007.11,-273.54C996.59,-263.91 983.43,-251.87 974.65,-243.83"/>
<polygon fill="midnightblue" stroke="midnightblue" points="1004.78,-276.15 1014.52,-280.32 1009.51,-270.99 1004.78,-276.15"/>
</g>
<!-- Node42&#45;&gt;Node16 -->
<g id="edge58" class="edge">
<title>Node42&#45;&gt;Node16</title>
<path fill="none" stroke="midnightblue" d="M1022.46,-270.01C1021.21,-256.98 1019.14,-239.34 1016,-224 1013.36,-211.09 1008.85,-196.5 1005.9,-187.53"/>
<polygon fill="midnightblue" stroke="midnightblue" points="1018.99,-270.44 1023.35,-280.1 1025.96,-269.83 1018.99,-270.44"/>
</g>
<!-- Node44&#45;&gt;Node4 -->
<g id="edge61" class="edge">
<title>Node44&#45;&gt;Node4</title>
<path fill="none" stroke="midnightblue" d="M1016.5,-382.39C1003.99,-346.59 977,-269.34 967.99,-243.57"/>
<polygon fill="midnightblue" stroke="midnightblue" points="1013.28,-383.79 1019.88,-392.08 1019.89,-381.48 1013.28,-383.79"/>
</g>
<!-- Node45 -->
<g id="node45" class="node">
<title>Node45</title>
<g id="a_node45"><a xlink:href="image__view_8cpp.html" target="_top" xlink:title=" ">
<polygon fill="white" stroke="black" points="1123,-336.5 1123,-355.5 1209,-355.5 1209,-336.5 1123,-336.5"/>
<text text-anchor="middle" x="1166" y="-343.5" font-family="Helvetica,sans-Serif" font-size="10.00">image_view.cpp</text>
</a>
</g>
</g>
<!-- Node44&#45;&gt;Node45 -->
<g id="edge62" class="edge">
<title>Node44&#45;&gt;Node45</title>
<path fill="none" stroke="midnightblue" d="M1055.03,-388.91C1081.91,-378.75 1119.64,-364.51 1143.45,-355.52"/>
<polygon fill="midnightblue" stroke="midnightblue" points="1053.78,-385.64 1045.66,-392.44 1056.25,-392.19 1053.78,-385.64"/>
</g>
</g>
</svg>
