<?xml version="1.0" encoding="UTF-8" standalone="no"?>
<!DOCTYPE svg PUBLIC "-//W3C//DTD SVG 1.1//EN"
 "http://www.w3.org/Graphics/SVG/1.1/DTD/svg11.dtd">
<!-- Generated by graphviz version 2.50.0 (20211204.2007)
 -->
<!-- Title: image.h Pages: 1 -->
<!--zoomable 476 -->
<svg id="main" version="1.1" xmlns="http://www.w3.org/2000/svg" xmlns:xlink="http://www.w3.org/1999/xlink" xml:space="preserve" onload="init(evt)">
<style type="text/css"><![CDATA[
.edge:hover path { stroke: red; }
.edge:hover polygon { stroke: red; fill: red; }
]]></style>
<script type="text/javascript"><![CDATA[
var edges = document.getElementsByTagName('g');
if (edges && edges.length) {
  for (var i=0;i<edges.length;i++) {
    if (edges[i].id.substr(0,4)=='edge') {
      edges[i].setAttribute('class','edge');
    }
  }
}
]]></script>
        <defs>
                <circle id="rim" cx="0" cy="0" r="7"/>
                <circle id="rim2" cx="0" cy="0" r="3.5"/>
                <g id="zoomPlus">
                        <use xlink:href="#rim" fill="#404040">
                                <set attributeName="fill" to="#808080" begin="zoomplus.mouseover" end="zoomplus.mouseout"/>
                        </use>
                        <path d="M-4,0h8M0,-4v8" fill="none" stroke="white" stroke-width="1.5" pointer-events="none"/>
                </g>
                <g id="zoomMin">
                        <use xlink:href="#rim" fill="#404040">
                                <set attributeName="fill" to="#808080" begin="zoomminus.mouseover" end="zoomminus.mouseout"/>
                        </use>
                        <path d="M-4,0h8" fill="none" stroke="white" stroke-width="1.5" pointer-events="none"/>
                </g>
                <g id="dirArrow">
                        <path fill="none" stroke="white" stroke-width="1.5" d="M0,-3.0v7 M-2.5,-0.5L0,-3.0L2.5,-0.5"/>
                </g>
               <g id="resetDef">
                       <use xlink:href="#rim2" fill="#404040">
                               <set attributeName="fill" to="#808080" begin="reset.mouseover" end="reset.mouseout"/>
                       </use>
               </g>
        </defs>

<script type="text/javascript">
var viewWidth = 1367;
var viewHeight = 476;
var sectionId = 'dynsection-1';
</script>
<script xlink:href="svgpan.js"/>
<svg id="graph" class="graph">
<g id="viewport">
<title>image.h</title>
<polygon fill="white" stroke="transparent" points="-4,4 -4,-472 1362.5,-472 1362.5,4 -4,4"/>
<!-- Node1 -->
<g id="node1" class="node">
<title>Node1</title>
<g id="a_node1"><a xlink:title=" ">
<polygon fill="#bfbfbf" stroke="black" points="279,-448.5 279,-467.5 330,-467.5 330,-448.5 279,-448.5"/>
<text text-anchor="middle" x="304.5" y="-455.5" font-family="Helvetica,sans-Serif" font-size="10.00">image.h</text>
</a>
</g>
</g>
<!-- Node2 -->
<g id="node2" class="node">
<title>Node2</title>
<g id="a_node2"><a xlink:href="background_8cpp.html" target="_top" xlink:title=" ">
<polygon fill="white" stroke="black" points="128.5,-336.5 128.5,-355.5 214.5,-355.5 214.5,-336.5 128.5,-336.5"/>
<text text-anchor="middle" x="171.5" y="-343.5" font-family="Helvetica,sans-Serif" font-size="10.00">background.cpp</text>
</a>
</g>
</g>
<!-- Node1&#45;&gt;Node2 -->
<g id="edge1" class="edge">
<title>Node1&#45;&gt;Node2</title>
<path fill="none" stroke="midnightblue" d="M269.51,-445.55C250.76,-438.15 228.16,-427.06 211.5,-412 193.41,-395.65 180.66,-369.23 174.92,-355.65"/>
<polygon fill="midnightblue" stroke="midnightblue" points="268.32,-448.84 278.92,-449.09 270.79,-442.29 268.32,-448.84"/>
</g>
<!-- Node3 -->
<g id="node3" class="node">
<title>Node3</title>
<g id="a_node3"><a xlink:href="background_8h.html" target="_top" xlink:title=" ">
<polygon fill="white" stroke="black" points="221,-392.5 221,-411.5 296,-411.5 296,-392.5 221,-392.5"/>
<text text-anchor="middle" x="258.5" y="-399.5" font-family="Helvetica,sans-Serif" font-size="10.00">background.h</text>
</a>
</g>
</g>
<!-- Node1&#45;&gt;Node3 -->
<g id="edge2" class="edge">
<title>Node1&#45;&gt;Node3</title>
<path fill="none" stroke="midnightblue" d="M290.39,-440.43C282.32,-430.97 272.54,-419.48 265.95,-411.75"/>
<polygon fill="midnightblue" stroke="midnightblue" points="287.75,-442.74 296.9,-448.08 293.08,-438.2 287.75,-442.74"/>
</g>
<!-- Node45 -->
<g id="node45" class="node">
<title>Node45</title>
<g id="a_node45"><a xlink:href="image_8cpp.html" target="_top" xlink:title=" ">
<polygon fill="white" stroke="black" points="407.5,-392.5 407.5,-411.5 469.5,-411.5 469.5,-392.5 407.5,-392.5"/>
<text text-anchor="middle" x="438.5" y="-399.5" font-family="Helvetica,sans-Serif" font-size="10.00">image.cpp</text>
</a>
</g>
</g>
<!-- Node1&#45;&gt;Node45 -->
<g id="edge63" class="edge">
<title>Node1&#45;&gt;Node45</title>
<path fill="none" stroke="midnightblue" d="M335.18,-444.64C360.32,-434.5 395.25,-420.43 417.37,-411.52"/>
<polygon fill="midnightblue" stroke="midnightblue" points="333.7,-441.46 325.73,-448.44 336.32,-447.95 333.7,-441.46"/>
</g>
<!-- Node46 -->
<g id="node46" class="node">
<title>Node46</title>
<g id="a_node46"><a xlink:href="image__view_8h.html" target="_top" xlink:title=" ">
<polygon fill="white" stroke="black" points="314,-392.5 314,-411.5 389,-411.5 389,-392.5 314,-392.5"/>
<text text-anchor="middle" x="351.5" y="-399.5" font-family="Helvetica,sans-Serif" font-size="10.00">image_view.h</text>
</a>
</g>
</g>
<!-- Node1&#45;&gt;Node46 -->
<g id="edge64" class="edge">
<title>Node1&#45;&gt;Node46</title>
<path fill="none" stroke="midnightblue" d="M318.92,-440.43C327.16,-430.97 337.15,-419.48 343.88,-411.75"/>
<polygon fill="midnightblue" stroke="midnightblue" points="316.19,-438.24 312.26,-448.08 321.47,-442.84 316.19,-438.24"/>
</g>
<!-- Node3&#45;&gt;Node2 -->
<g id="edge3" class="edge">
<title>Node3&#45;&gt;Node2</title>
<path fill="none" stroke="midnightblue" d="M235.78,-386.9C219.83,-377 199,-364.07 185.44,-355.65"/>
<polygon fill="midnightblue" stroke="midnightblue" points="234.18,-390.02 244.52,-392.32 237.87,-384.08 234.18,-390.02"/>
</g>
<!-- Node4 -->
<g id="node4" class="node">
<title>Node4</title>
<g id="a_node4"><a xlink:href="default__skins_8h.html" target="_top" xlink:title=" ">
<polygon fill="white" stroke="black" points="222,-224.5 222,-243.5 305,-243.5 305,-224.5 222,-224.5"/>
<text text-anchor="middle" x="263.5" y="-231.5" font-family="Helvetica,sans-Serif" font-size="10.00">default_skins.h</text>
</a>
</g>
</g>
<!-- Node3&#45;&gt;Node4 -->
<g id="edge4" class="edge">
<title>Node3&#45;&gt;Node4</title>
<path fill="none" stroke="midnightblue" d="M274.68,-384.96C281.6,-376.98 288.9,-366.75 292.5,-356 303.24,-323.97 302.04,-312.4 292.5,-280 288.35,-265.91 278.28,-252.07 271.17,-243.54"/>
<polygon fill="midnightblue" stroke="midnightblue" points="272.02,-382.68 267.79,-392.39 277.15,-387.44 272.02,-382.68"/>
</g>
<!-- Node18 -->
<g id="node18" class="node">
<title>Node18</title>
<g id="a_node18"><a xlink:href="parent_8h.html" target="_top" xlink:title=" ">
<polygon fill="white" stroke="black" points="551.5,-336.5 551.5,-355.5 603.5,-355.5 603.5,-336.5 551.5,-336.5"/>
<text text-anchor="middle" x="577.5" y="-343.5" font-family="Helvetica,sans-Serif" font-size="10.00">parent.h</text>
</a>
</g>
</g>
<!-- Node3&#45;&gt;Node18 -->
<g id="edge21" class="edge">
<title>Node3&#45;&gt;Node18</title>
<path fill="none" stroke="midnightblue" d="M306.02,-391.77C402.13,-374.56 504.5,-358.35 551.48,-351.02"/>
<polygon fill="midnightblue" stroke="midnightblue" points="305.36,-388.33 296.14,-393.54 306.6,-395.22 305.36,-388.33"/>
</g>
<!-- Node38 -->
<g id="node38" class="node">
<title>Node38</title>
<g id="a_node38"><a xlink:href="shape_8h.html" target="_top" xlink:title=" ">
<polygon fill="white" stroke="black" points="233,-336.5 233,-355.5 284,-355.5 284,-336.5 233,-336.5"/>
<text text-anchor="middle" x="258.5" y="-343.5" font-family="Helvetica,sans-Serif" font-size="10.00">shape.h</text>
</a>
</g>
</g>
<!-- Node3&#45;&gt;Node38 -->
<g id="edge53" class="edge">
<title>Node3&#45;&gt;Node38</title>
<path fill="none" stroke="midnightblue" d="M258.5,-381.8C258.5,-372.91 258.5,-362.78 258.5,-355.75"/>
<polygon fill="midnightblue" stroke="midnightblue" points="255,-382.08 258.5,-392.08 262,-382.08 255,-382.08"/>
</g>
<!-- Node5 -->
<g id="node5" class="node">
<title>Node5</title>
<g id="a_node5"><a xlink:href="button_8h.html" target="_top" xlink:title=" ">
<polygon fill="white" stroke="black" points="237.5,-168.5 237.5,-187.5 289.5,-187.5 289.5,-168.5 237.5,-168.5"/>
<text text-anchor="middle" x="263.5" y="-175.5" font-family="Helvetica,sans-Serif" font-size="10.00">button.h</text>
</a>
</g>
</g>
<!-- Node4&#45;&gt;Node5 -->
<g id="edge5" class="edge">
<title>Node4&#45;&gt;Node5</title>
<path fill="none" stroke="midnightblue" d="M263.5,-213.8C263.5,-204.91 263.5,-194.78 263.5,-187.75"/>
<polygon fill="midnightblue" stroke="midnightblue" points="260,-214.08 263.5,-224.08 267,-214.08 260,-214.08"/>
</g>
<!-- Node8 -->
<g id="node8" class="node">
<title>Node8</title>
<g id="a_node8"><a xlink:href="default__skins_8cpp.html" target="_top" xlink:title=" ">
<polygon fill="white" stroke="black" points="616,-112.5 616,-131.5 709,-131.5 709,-112.5 616,-112.5"/>
<text text-anchor="middle" x="662.5" y="-119.5" font-family="Helvetica,sans-Serif" font-size="10.00">default_skins.cpp</text>
</a>
</g>
</g>
<!-- Node4&#45;&gt;Node8 -->
<g id="edge16" class="edge">
<title>Node4&#45;&gt;Node8</title>
<path fill="none" stroke="midnightblue" d="M276.97,-216.33C290.34,-201.04 312.31,-179.13 336.5,-168 444.48,-118.32 483.82,-148.67 601.5,-132 606.16,-131.34 611.03,-130.64 615.88,-129.93"/>
<polygon fill="midnightblue" stroke="midnightblue" points="274.24,-214.14 270.46,-224.04 279.58,-218.66 274.24,-214.14"/>
</g>
<!-- Node14 -->
<g id="node14" class="node">
<title>Node14</title>
<g id="a_node14"><a xlink:href="scroll__bar_8cpp.html" target="_top" xlink:title=" ">
<polygon fill="white" stroke="black" points="564,-168.5 564,-187.5 641,-187.5 641,-168.5 564,-168.5"/>
<text text-anchor="middle" x="602.5" y="-175.5" font-family="Helvetica,sans-Serif" font-size="10.00">scroll_bar.cpp</text>
</a>
</g>
</g>
<!-- Node4&#45;&gt;Node14 -->
<g id="edge17" class="edge">
<title>Node4&#45;&gt;Node14</title>
<path fill="none" stroke="midnightblue" d="M315.2,-224.76C383.67,-213.86 502.9,-194.87 563.99,-185.13"/>
<polygon fill="midnightblue" stroke="midnightblue" points="314.39,-221.35 305.07,-226.38 315.49,-228.26 314.39,-221.35"/>
</g>
<!-- Node15 -->
<g id="node15" class="node">
<title>Node15</title>
<g id="a_node15"><a xlink:href="scroll__pane_8cpp.html" target="_top" xlink:title=" ">
<polygon fill="white" stroke="black" points="346,-168.5 346,-187.5 431,-187.5 431,-168.5 346,-168.5"/>
<text text-anchor="middle" x="388.5" y="-175.5" font-family="Helvetica,sans-Serif" font-size="10.00">scroll_pane.cpp</text>
</a>
</g>
</g>
<!-- Node4&#45;&gt;Node15 -->
<g id="edge18" class="edge">
<title>Node4&#45;&gt;Node15</title>
<path fill="none" stroke="midnightblue" d="M292.74,-220.37C316.15,-210.26 348.34,-196.35 368.79,-187.52"/>
<polygon fill="midnightblue" stroke="midnightblue" points="291.1,-217.26 283.31,-224.44 293.87,-223.69 291.1,-217.26"/>
</g>
<!-- Node16 -->
<g id="node16" class="node">
<title>Node16</title>
<g id="a_node16"><a xlink:href="slider_8cpp.html" target="_top" xlink:title=" ">
<polygon fill="white" stroke="black" points="449.5,-168.5 449.5,-187.5 507.5,-187.5 507.5,-168.5 449.5,-168.5"/>
<text text-anchor="middle" x="478.5" y="-175.5" font-family="Helvetica,sans-Serif" font-size="10.00">slider.cpp</text>
</a>
</g>
</g>
<!-- Node4&#45;&gt;Node16 -->
<g id="edge19" class="edge">
<title>Node4&#45;&gt;Node16</title>
<path fill="none" stroke="midnightblue" d="M307.35,-221.99C349.77,-211.33 412.86,-195.49 449.42,-186.3"/>
<polygon fill="midnightblue" stroke="midnightblue" points="306.41,-218.61 297.57,-224.44 308.12,-225.4 306.41,-218.61"/>
</g>
<!-- Node17 -->
<g id="node17" class="node">
<title>Node17</title>
<g id="a_node17"><a xlink:href="text_8cpp.html" target="_top" xlink:title=" ">
<polygon fill="white" stroke="black" points="167.5,-168.5 167.5,-187.5 219.5,-187.5 219.5,-168.5 167.5,-168.5"/>
<text text-anchor="middle" x="193.5" y="-175.5" font-family="Helvetica,sans-Serif" font-size="10.00">text.cpp</text>
</a>
</g>
</g>
<!-- Node4&#45;&gt;Node17 -->
<g id="edge20" class="edge">
<title>Node4&#45;&gt;Node17</title>
<path fill="none" stroke="midnightblue" d="M244.19,-218.1C231.59,-208.38 215.57,-196.03 204.95,-187.83"/>
<polygon fill="midnightblue" stroke="midnightblue" points="242.2,-220.99 252.25,-224.32 246.47,-215.44 242.2,-220.99"/>
</g>
<!-- Node6 -->
<g id="node6" class="node">
<title>Node6</title>
<g id="a_node6"><a xlink:href="button_8cpp.html" target="_top" xlink:title=" ">
<polygon fill="white" stroke="black" points="232.5,-112.5 232.5,-131.5 294.5,-131.5 294.5,-112.5 232.5,-112.5"/>
<text text-anchor="middle" x="263.5" y="-119.5" font-family="Helvetica,sans-Serif" font-size="10.00">button.cpp</text>
</a>
</g>
</g>
<!-- Node5&#45;&gt;Node6 -->
<g id="edge6" class="edge">
<title>Node5&#45;&gt;Node6</title>
<path fill="none" stroke="midnightblue" d="M263.5,-157.8C263.5,-148.91 263.5,-138.78 263.5,-131.75"/>
<polygon fill="midnightblue" stroke="midnightblue" points="260,-158.08 263.5,-168.08 267,-158.08 260,-158.08"/>
</g>
<!-- Node7 -->
<g id="node7" class="node">
<title>Node7</title>
<g id="a_node7"><a xlink:href="context__menu_8cpp.html" target="_top" xlink:title=" ">
<polygon fill="white" stroke="black" points="774,-0.5 774,-19.5 871,-19.5 871,-0.5 774,-0.5"/>
<text text-anchor="middle" x="822.5" y="-7.5" font-family="Helvetica,sans-Serif" font-size="10.00">context_menu.cpp</text>
</a>
</g>
</g>
<!-- Node5&#45;&gt;Node7 -->
<g id="edge7" class="edge">
<title>Node5&#45;&gt;Node7</title>
<path fill="none" stroke="midnightblue" d="M299.38,-166.35C402.75,-135.65 699.82,-47.43 793.7,-19.55"/>
<polygon fill="midnightblue" stroke="midnightblue" points="298.3,-163.01 289.71,-169.22 300.29,-169.72 298.3,-163.01"/>
</g>
<!-- Node5&#45;&gt;Node8 -->
<g id="edge8" class="edge">
<title>Node5&#45;&gt;Node8</title>
<path fill="none" stroke="midnightblue" d="M299.66,-168.69C300.95,-168.45 302.24,-168.22 303.5,-168 434.97,-145.33 469.28,-149.74 601.5,-132 606.17,-131.37 611.03,-130.7 615.89,-130.01"/>
<polygon fill="midnightblue" stroke="midnightblue" points="298.78,-165.3 289.67,-170.71 300.17,-172.16 298.78,-165.3"/>
</g>
<!-- Node9 -->
<g id="node9" class="node">
<title>Node9</title>
<g id="a_node9"><a xlink:href="menu__bar_8h.html" target="_top" xlink:title=" ">
<polygon fill="white" stroke="black" points="727,-112.5 727,-131.5 794,-131.5 794,-112.5 727,-112.5"/>
<text text-anchor="middle" x="760.5" y="-119.5" font-family="Helvetica,sans-Serif" font-size="10.00">menu_bar.h</text>
</a>
</g>
</g>
<!-- Node5&#45;&gt;Node9 -->
<g id="edge9" class="edge">
<title>Node5&#45;&gt;Node9</title>
<path fill="none" stroke="midnightblue" d="M300.09,-172.28C311.72,-170.84 324.64,-169.29 336.5,-168 506.03,-149.56 549.95,-157.91 718.5,-132 721.15,-131.59 723.89,-131.12 726.64,-130.61"/>
<polygon fill="midnightblue" stroke="midnightblue" points="299.32,-168.85 289.83,-173.57 300.19,-175.79 299.32,-168.85"/>
</g>
<!-- Node10 -->
<g id="node10" class="node">
<title>Node10</title>
<g id="a_node10"><a xlink:href="menu__bar_8cpp.html" target="_top" xlink:title=" ">
<polygon fill="white" stroke="black" points="595,-0.5 595,-19.5 672,-19.5 672,-0.5 595,-0.5"/>
<text text-anchor="middle" x="633.5" y="-7.5" font-family="Helvetica,sans-Serif" font-size="10.00">menu_bar.cpp</text>
</a>
</g>
</g>
<!-- Node9&#45;&gt;Node10 -->
<g id="edge10" class="edge">
<title>Node9&#45;&gt;Node10</title>
<path fill="none" stroke="midnightblue" d="M742.97,-105.82C715.92,-82.39 664.89,-38.19 643.42,-19.59"/>
<polygon fill="midnightblue" stroke="midnightblue" points="740.68,-108.47 750.53,-112.37 745.27,-103.18 740.68,-108.47"/>
</g>
<!-- Node11 -->
<g id="node11" class="node">
<title>Node11</title>
<g id="a_node11"><a xlink:href="scene_8h.html" target="_top" xlink:title=" ">
<polygon fill="white" stroke="black" points="851,-56.5 851,-75.5 902,-75.5 902,-56.5 851,-56.5"/>
<text text-anchor="middle" x="876.5" y="-63.5" font-family="Helvetica,sans-Serif" font-size="10.00">scene.h</text>
</a>
</g>
</g>
<!-- Node9&#45;&gt;Node11 -->
<g id="edge11" class="edge">
<title>Node9&#45;&gt;Node11</title>
<path fill="none" stroke="midnightblue" d="M788.22,-108.1C809.89,-98.01 839.4,-84.27 858.21,-75.52"/>
<polygon fill="midnightblue" stroke="midnightblue" points="786.47,-105.05 778.88,-112.44 789.42,-111.4 786.47,-105.05"/>
</g>
<!-- Node11&#45;&gt;Node7 -->
<g id="edge13" class="edge">
<title>Node11&#45;&gt;Node7</title>
<path fill="none" stroke="midnightblue" d="M860.5,-49C850.93,-39.43 839.14,-27.64 831.25,-19.75"/>
<polygon fill="midnightblue" stroke="midnightblue" points="858.04,-51.49 867.58,-56.08 862.99,-46.54 858.04,-51.49"/>
</g>
<!-- Node11&#45;&gt;Node10 -->
<g id="edge14" class="edge">
<title>Node11&#45;&gt;Node10</title>
<path fill="none" stroke="midnightblue" d="M841.03,-57.12C795.9,-47.09 718.24,-29.83 671.8,-19.51"/>
<polygon fill="midnightblue" stroke="midnightblue" points="840.43,-60.57 850.95,-59.32 841.95,-53.74 840.43,-60.57"/>
</g>
<!-- Node12 -->
<g id="node12" class="node">
<title>Node12</title>
<g id="a_node12"><a xlink:href="component_8cpp.html" target="_top" xlink:title=" ">
<polygon fill="white" stroke="black" points="1232,-0.5 1232,-19.5 1315,-19.5 1315,-0.5 1232,-0.5"/>
<text text-anchor="middle" x="1273.5" y="-7.5" font-family="Helvetica,sans-Serif" font-size="10.00">component.cpp</text>
</a>
</g>
</g>
<!-- Node11&#45;&gt;Node12 -->
<g id="edge12" class="edge">
<title>Node11&#45;&gt;Node12</title>
<path fill="none" stroke="midnightblue" d="M912.39,-60.12C985.94,-50.11 1153.44,-27.33 1231.72,-16.68"/>
<polygon fill="midnightblue" stroke="midnightblue" points="911.68,-56.68 902.24,-61.5 912.62,-63.62 911.68,-56.68"/>
</g>
<!-- Node13 -->
<g id="node13" class="node">
<title>Node13</title>
<g id="a_node13"><a xlink:href="scene_8cpp.html" target="_top" xlink:title=" ">
<polygon fill="white" stroke="black" points="1065.5,-0.5 1065.5,-19.5 1127.5,-19.5 1127.5,-0.5 1065.5,-0.5"/>
<text text-anchor="middle" x="1096.5" y="-7.5" font-family="Helvetica,sans-Serif" font-size="10.00">scene.cpp</text>
</a>
</g>
</g>
<!-- Node11&#45;&gt;Node13 -->
<g id="edge15" class="edge">
<title>Node11&#45;&gt;Node13</title>
<path fill="none" stroke="midnightblue" d="M912.07,-56.27C954.55,-45.84 1024.92,-28.57 1065.35,-18.65"/>
<polygon fill="midnightblue" stroke="midnightblue" points="911.04,-52.92 902.17,-58.7 912.71,-59.72 911.04,-52.92"/>
</g>
<!-- Node18&#45;&gt;Node12 -->
<g id="edge22" class="edge">
<title>Node18&#45;&gt;Node12</title>
<path fill="none" stroke="midnightblue" d="M613.87,-336.22C779.56,-314.96 1163.15,-363.54 1298.5,-300 1334.09,-283.29 1358.5,-274.32 1358.5,-235 1358.5,-235 1358.5,-235 1358.5,-121 1358.5,-74.9 1311.18,-36.36 1287.16,-19.76"/>
<polygon fill="midnightblue" stroke="midnightblue" points="613.17,-332.79 603.76,-337.65 614.15,-339.72 613.17,-332.79"/>
</g>
<!-- Node18&#45;&gt;Node13 -->
<g id="edge52" class="edge">
<title>Node18&#45;&gt;Node13</title>
<path fill="none" stroke="midnightblue" d="M613.9,-336.2C790.42,-312.07 1320.5,-390.82 1320.5,-235 1320.5,-235 1320.5,-235 1320.5,-121 1320.5,-36.08 1189.2,-16.72 1127.65,-12.3"/>
<polygon fill="midnightblue" stroke="midnightblue" points="613.12,-332.77 603.78,-337.76 614.19,-339.69 613.12,-332.77"/>
</g>
<!-- Node19 -->
<g id="node19" class="node">
<title>Node19</title>
<g id="a_node19"><a xlink:href="container_8h.html" target="_top" xlink:title=" ">
<polygon fill="white" stroke="black" points="930.5,-280.5 930.5,-299.5 994.5,-299.5 994.5,-280.5 930.5,-280.5"/>
<text text-anchor="middle" x="962.5" y="-287.5" font-family="Helvetica,sans-Serif" font-size="10.00">container.h</text>
</a>
</g>
</g>
<!-- Node18&#45;&gt;Node19 -->
<g id="edge23" class="edge">
<title>Node18&#45;&gt;Node19</title>
<path fill="none" stroke="midnightblue" d="M613.7,-335.98C735.94,-312.95 870.21,-299.3 930.44,-293.78"/>
<polygon fill="midnightblue" stroke="midnightblue" points="612.96,-332.55 603.79,-337.87 614.27,-339.43 612.96,-332.55"/>
</g>
<!-- Node30 -->
<g id="node30" class="node">
<title>Node30</title>
<g id="a_node30"><a xlink:href="control_8h.html" target="_top" xlink:title=" ">
<polygon fill="white" stroke="black" points="550.5,-280.5 550.5,-299.5 604.5,-299.5 604.5,-280.5 550.5,-280.5"/>
<text text-anchor="middle" x="577.5" y="-287.5" font-family="Helvetica,sans-Serif" font-size="10.00">control.h</text>
</a>
</g>
</g>
<!-- Node18&#45;&gt;Node30 -->
<g id="edge37" class="edge">
<title>Node18&#45;&gt;Node30</title>
<path fill="none" stroke="midnightblue" d="M577.5,-325.8C577.5,-316.91 577.5,-306.78 577.5,-299.75"/>
<polygon fill="midnightblue" stroke="midnightblue" points="574,-326.08 577.5,-336.08 581,-326.08 574,-326.08"/>
</g>
<!-- Node37 -->
<g id="node37" class="node">
<title>Node37</title>
<g id="a_node37"><a xlink:href="parent_8cpp.html" target="_top" xlink:title=" ">
<polygon fill="white" stroke="black" points="470.5,-280.5 470.5,-299.5 532.5,-299.5 532.5,-280.5 470.5,-280.5"/>
<text text-anchor="middle" x="501.5" y="-287.5" font-family="Helvetica,sans-Serif" font-size="10.00">parent.cpp</text>
</a>
</g>
</g>
<!-- Node18&#45;&gt;Node37 -->
<g id="edge51" class="edge">
<title>Node18&#45;&gt;Node37</title>
<path fill="none" stroke="midnightblue" d="M556.92,-330.38C543.19,-320.62 525.57,-308.11 513.93,-299.83"/>
<polygon fill="midnightblue" stroke="midnightblue" points="555.11,-333.38 565.29,-336.32 559.16,-327.68 555.11,-333.38"/>
</g>
<!-- Node20 -->
<g id="node20" class="node">
<title>Node20</title>
<g id="a_node20"><a xlink:href="box__container_8h.html" target="_top" xlink:title=" ">
<polygon fill="white" stroke="black" points="822,-224.5 822,-243.5 907,-243.5 907,-224.5 822,-224.5"/>
<text text-anchor="middle" x="864.5" y="-231.5" font-family="Helvetica,sans-Serif" font-size="10.00">box_container.h</text>
</a>
</g>
</g>
<!-- Node19&#45;&gt;Node20 -->
<g id="edge24" class="edge">
<title>Node19&#45;&gt;Node20</title>
<path fill="none" stroke="midnightblue" d="M937.91,-275.45C919.82,-265.48 895.77,-252.23 880.21,-243.65"/>
<polygon fill="midnightblue" stroke="midnightblue" points="936.31,-278.56 946.75,-280.32 939.69,-272.43 936.31,-278.56"/>
</g>
<!-- Node23 -->
<g id="node23" class="node">
<title>Node23</title>
<g id="a_node23"><a xlink:href="container_8cpp.html" target="_top" xlink:title=" ">
<polygon fill="white" stroke="black" points="925.5,-224.5 925.5,-243.5 999.5,-243.5 999.5,-224.5 925.5,-224.5"/>
<text text-anchor="middle" x="962.5" y="-231.5" font-family="Helvetica,sans-Serif" font-size="10.00">container.cpp</text>
</a>
</g>
</g>
<!-- Node19&#45;&gt;Node23 -->
<g id="edge30" class="edge">
<title>Node19&#45;&gt;Node23</title>
<path fill="none" stroke="midnightblue" d="M962.5,-269.8C962.5,-260.91 962.5,-250.78 962.5,-243.75"/>
<polygon fill="midnightblue" stroke="midnightblue" points="959,-270.08 962.5,-280.08 966,-270.08 959,-270.08"/>
</g>
<!-- Node24 -->
<g id="node24" class="node">
<title>Node24</title>
<g id="a_node24"><a xlink:href="layered__container_8h.html" target="_top" xlink:title=" ">
<polygon fill="white" stroke="black" points="1018,-224.5 1018,-243.5 1119,-243.5 1119,-224.5 1018,-224.5"/>
<text text-anchor="middle" x="1068.5" y="-231.5" font-family="Helvetica,sans-Serif" font-size="10.00">layered_container.h</text>
</a>
</g>
</g>
<!-- Node19&#45;&gt;Node24 -->
<g id="edge31" class="edge">
<title>Node19&#45;&gt;Node24</title>
<path fill="none" stroke="midnightblue" d="M988.56,-275.73C1008.18,-265.73 1034.53,-252.31 1051.51,-243.65"/>
<polygon fill="midnightblue" stroke="midnightblue" points="986.85,-272.67 979.53,-280.32 990.03,-278.9 986.85,-272.67"/>
</g>
<!-- Node28 -->
<g id="node28" class="node">
<title>Node28</title>
<g id="a_node28"><a xlink:href="tile__pane_8h.html" target="_top" xlink:title=" ">
<polygon fill="white" stroke="black" points="1180.5,-224.5 1180.5,-243.5 1244.5,-243.5 1244.5,-224.5 1180.5,-224.5"/>
<text text-anchor="middle" x="1212.5" y="-231.5" font-family="Helvetica,sans-Serif" font-size="10.00">tile_pane.h</text>
</a>
</g>
</g>
<!-- Node19&#45;&gt;Node28 -->
<g id="edge35" class="edge">
<title>Node19&#45;&gt;Node28</title>
<path fill="none" stroke="midnightblue" d="M1004.45,-279.94C1054.08,-269.22 1135.61,-251.61 1180.45,-241.92"/>
<polygon fill="midnightblue" stroke="midnightblue" points="1003.71,-276.52 994.67,-282.05 1005.18,-283.36 1003.71,-276.52"/>
</g>
<!-- Node20&#45;&gt;Node8 -->
<g id="edge29" class="edge">
<title>Node20&#45;&gt;Node8</title>
<path fill="none" stroke="midnightblue" d="M833.72,-220.51C813.66,-212.04 787.1,-200.2 764.5,-188 746.85,-178.47 698.76,-146.98 675.48,-131.6"/>
<polygon fill="midnightblue" stroke="midnightblue" points="832.42,-223.77 843,-224.39 835.12,-217.31 832.42,-223.77"/>
</g>
<!-- Node21 -->
<g id="node21" class="node">
<title>Node21</title>
<g id="a_node21"><a xlink:href="box__container_8cpp.html" target="_top" xlink:title=" ">
<polygon fill="white" stroke="black" points="878,-168.5 878,-187.5 973,-187.5 973,-168.5 878,-168.5"/>
<text text-anchor="middle" x="925.5" y="-175.5" font-family="Helvetica,sans-Serif" font-size="10.00">box_container.cpp</text>
</a>
</g>
</g>
<!-- Node20&#45;&gt;Node21 -->
<g id="edge25" class="edge">
<title>Node20&#45;&gt;Node21</title>
<path fill="none" stroke="midnightblue" d="M881.97,-217.54C892.84,-207.91 906.44,-195.87 915.52,-187.83"/>
<polygon fill="midnightblue" stroke="midnightblue" points="879.47,-215.07 874.3,-224.32 884.11,-220.32 879.47,-215.07"/>
</g>
<!-- Node22 -->
<g id="node22" class="node">
<title>Node22</title>
<g id="a_node22"><a xlink:href="context__menu_8h.html" target="_top" xlink:title=" ">
<polygon fill="white" stroke="black" points="773.5,-168.5 773.5,-187.5 859.5,-187.5 859.5,-168.5 773.5,-168.5"/>
<text text-anchor="middle" x="816.5" y="-175.5" font-family="Helvetica,sans-Serif" font-size="10.00">context_menu.h</text>
</a>
</g>
</g>
<!-- Node20&#45;&gt;Node22 -->
<g id="edge26" class="edge">
<title>Node20&#45;&gt;Node22</title>
<path fill="none" stroke="midnightblue" d="M849.77,-216.43C841.36,-206.97 831.15,-195.48 824.28,-187.75"/>
<polygon fill="midnightblue" stroke="midnightblue" points="847.31,-218.93 856.57,-224.08 852.55,-214.28 847.31,-218.93"/>
</g>
<!-- Node22&#45;&gt;Node7 -->
<g id="edge27" class="edge">
<title>Node22&#45;&gt;Node7</title>
<path fill="none" stroke="midnightblue" d="M817.19,-157.93C818.49,-121.92 821.26,-45.23 822.19,-19.57"/>
<polygon fill="midnightblue" stroke="midnightblue" points="813.69,-157.96 816.82,-168.08 820.68,-158.21 813.69,-157.96"/>
</g>
<!-- Node22&#45;&gt;Node9 -->
<g id="edge28" class="edge">
<title>Node22&#45;&gt;Node9</title>
<path fill="none" stroke="midnightblue" d="M800.17,-161.25C790.24,-151.67 777.91,-139.79 769.66,-131.83"/>
<polygon fill="midnightblue" stroke="midnightblue" points="797.87,-163.9 807.5,-168.32 802.73,-158.86 797.87,-163.9"/>
</g>
<!-- Node25 -->
<g id="node25" class="node">
<title>Node25</title>
<g id="a_node25"><a xlink:href="anchor__pane_8h.html" target="_top" xlink:title=" ">
<polygon fill="white" stroke="black" points="1120.5,-168.5 1120.5,-187.5 1200.5,-187.5 1200.5,-168.5 1120.5,-168.5"/>
<text text-anchor="middle" x="1160.5" y="-175.5" font-family="Helvetica,sans-Serif" font-size="10.00">anchor_pane.h</text>
</a>
</g>
</g>
<!-- Node24&#45;&gt;Node25 -->
<g id="edge32" class="edge">
<title>Node24&#45;&gt;Node25</title>
<path fill="none" stroke="midnightblue" d="M1092.05,-219.18C1108.98,-209.24 1131.28,-196.15 1145.76,-187.65"/>
<polygon fill="midnightblue" stroke="midnightblue" points="1090.13,-216.24 1083.28,-224.32 1093.68,-222.28 1090.13,-216.24"/>
</g>
<!-- Node27 -->
<g id="node27" class="node">
<title>Node27</title>
<g id="a_node27"><a xlink:href="layered__container_8cpp.html" target="_top" xlink:title=" ">
<polygon fill="white" stroke="black" points="991,-168.5 991,-187.5 1102,-187.5 1102,-168.5 991,-168.5"/>
<text text-anchor="middle" x="1046.5" y="-175.5" font-family="Helvetica,sans-Serif" font-size="10.00">layered_container.cpp</text>
</a>
</g>
</g>
<!-- Node24&#45;&gt;Node27 -->
<g id="edge34" class="edge">
<title>Node24&#45;&gt;Node27</title>
<path fill="none" stroke="midnightblue" d="M1061.04,-214.69C1057.33,-205.59 1053.02,-195.01 1050.07,-187.75"/>
<polygon fill="midnightblue" stroke="midnightblue" points="1057.85,-216.14 1064.87,-224.08 1064.34,-213.5 1057.85,-216.14"/>
</g>
<!-- Node26 -->
<g id="node26" class="node">
<title>Node26</title>
<g id="a_node26"><a xlink:href="anchor__pane_8cpp.html" target="_top" xlink:title=" ">
<polygon fill="white" stroke="black" points="1115,-112.5 1115,-131.5 1206,-131.5 1206,-112.5 1115,-112.5"/>
<text text-anchor="middle" x="1160.5" y="-119.5" font-family="Helvetica,sans-Serif" font-size="10.00">anchor_pane.cpp</text>
</a>
</g>
</g>
<!-- Node25&#45;&gt;Node26 -->
<g id="edge33" class="edge">
<title>Node25&#45;&gt;Node26</title>
<path fill="none" stroke="midnightblue" d="M1160.5,-157.8C1160.5,-148.91 1160.5,-138.78 1160.5,-131.75"/>
<polygon fill="midnightblue" stroke="midnightblue" points="1157,-158.08 1160.5,-168.08 1164,-158.08 1157,-158.08"/>
</g>
<!-- Node29 -->
<g id="node29" class="node">
<title>Node29</title>
<g id="a_node29"><a xlink:href="tile__pane_8cpp.html" target="_top" xlink:title=" ">
<polygon fill="white" stroke="black" points="1218.5,-168.5 1218.5,-187.5 1292.5,-187.5 1292.5,-168.5 1218.5,-168.5"/>
<text text-anchor="middle" x="1255.5" y="-175.5" font-family="Helvetica,sans-Serif" font-size="10.00">tile_pane.cpp</text>
</a>
</g>
</g>
<!-- Node28&#45;&gt;Node29 -->
<g id="edge36" class="edge">
<title>Node28&#45;&gt;Node29</title>
<path fill="none" stroke="midnightblue" d="M1225.92,-216.14C1233.41,-206.74 1242.44,-195.4 1248.53,-187.75"/>
<polygon fill="midnightblue" stroke="midnightblue" points="1223.09,-214.08 1219.6,-224.08 1228.57,-218.44 1223.09,-214.08"/>
</g>
<!-- Node30&#45;&gt;Node5 -->
<g id="edge38" class="edge">
<title>Node30&#45;&gt;Node5</title>
<path fill="none" stroke="midnightblue" d="M540.43,-279.93C456.36,-262.8 428.71,-276.45 353.5,-244 320.58,-229.8 287.99,-201.92 272.62,-187.74"/>
<polygon fill="midnightblue" stroke="midnightblue" points="539.9,-283.4 550.41,-282.06 541.36,-276.55 539.9,-283.4"/>
</g>
<!-- Node31 -->
<g id="node31" class="node">
<title>Node31</title>
<g id="a_node31"><a xlink:href="control_8cpp.html" target="_top" xlink:title=" ">
<polygon fill="white" stroke="black" points="589,-224.5 589,-243.5 654,-243.5 654,-224.5 589,-224.5"/>
<text text-anchor="middle" x="621.5" y="-231.5" font-family="Helvetica,sans-Serif" font-size="10.00">control.cpp</text>
</a>
</g>
</g>
<!-- Node30&#45;&gt;Node31 -->
<g id="edge39" class="edge">
<title>Node30&#45;&gt;Node31</title>
<path fill="none" stroke="midnightblue" d="M591.23,-272.14C598.9,-262.74 608.13,-251.4 614.37,-243.75"/>
<polygon fill="midnightblue" stroke="midnightblue" points="588.37,-270.12 584.77,-280.08 593.8,-274.54 588.37,-270.12"/>
</g>
<!-- Node32 -->
<g id="node32" class="node">
<title>Node32</title>
<g id="a_node32"><a xlink:href="label_8h.html" target="_top" xlink:title=" ">
<polygon fill="white" stroke="black" points="362,-224.5 362,-243.5 407,-243.5 407,-224.5 362,-224.5"/>
<text text-anchor="middle" x="384.5" y="-231.5" font-family="Helvetica,sans-Serif" font-size="10.00">label.h</text>
</a>
</g>
</g>
<!-- Node30&#45;&gt;Node32 -->
<g id="edge40" class="edge">
<title>Node30&#45;&gt;Node32</title>
<path fill="none" stroke="midnightblue" d="M540.44,-278.66C507.8,-269.55 458.99,-255.91 416.5,-244 413.5,-243.16 410.34,-242.27 407.22,-241.4"/>
<polygon fill="midnightblue" stroke="midnightblue" points="539.86,-282.13 550.43,-281.45 541.74,-275.39 539.86,-282.13"/>
</g>
<!-- Node33 -->
<g id="node33" class="node">
<title>Node33</title>
<g id="a_node33"><a xlink:href="scroll__bar_8h.html" target="_top" xlink:title=" ">
<polygon fill="white" stroke="black" points="737.5,-224.5 737.5,-243.5 803.5,-243.5 803.5,-224.5 737.5,-224.5"/>
<text text-anchor="middle" x="770.5" y="-231.5" font-family="Helvetica,sans-Serif" font-size="10.00">scroll_bar.h</text>
</a>
</g>
</g>
<!-- Node30&#45;&gt;Node33 -->
<g id="edge41" class="edge">
<title>Node30&#45;&gt;Node33</title>
<path fill="none" stroke="midnightblue" d="M614.49,-278.65C650.9,-268.46 705.86,-253.09 739.89,-243.56"/>
<polygon fill="midnightblue" stroke="midnightblue" points="613.43,-275.31 604.74,-281.38 615.32,-282.05 613.43,-275.31"/>
</g>
<!-- Node34 -->
<g id="node34" class="node">
<title>Node34</title>
<g id="a_node34"><a xlink:href="scroll__pane_8h.html" target="_top" xlink:title=" ">
<polygon fill="white" stroke="black" points="496.5,-224.5 496.5,-243.5 570.5,-243.5 570.5,-224.5 496.5,-224.5"/>
<text text-anchor="middle" x="533.5" y="-231.5" font-family="Helvetica,sans-Serif" font-size="10.00">scroll_pane.h</text>
</a>
</g>
</g>
<!-- Node30&#45;&gt;Node34 -->
<g id="edge44" class="edge">
<title>Node30&#45;&gt;Node34</title>
<path fill="none" stroke="midnightblue" d="M563.77,-272.14C556.1,-262.74 546.87,-251.4 540.63,-243.75"/>
<polygon fill="midnightblue" stroke="midnightblue" points="561.2,-274.54 570.23,-280.08 566.63,-270.12 561.2,-274.54"/>
</g>
<!-- Node35 -->
<g id="node35" class="node">
<title>Node35</title>
<g id="a_node35"><a xlink:href="skin_8cpp.html" target="_top" xlink:title=" ">
<polygon fill="white" stroke="black" points="425,-224.5 425,-243.5 478,-243.5 478,-224.5 425,-224.5"/>
<text text-anchor="middle" x="451.5" y="-231.5" font-family="Helvetica,sans-Serif" font-size="10.00">skin.cpp</text>
</a>
</g>
</g>
<!-- Node30&#45;&gt;Node35 -->
<g id="edge47" class="edge">
<title>Node30&#45;&gt;Node35</title>
<path fill="none" stroke="midnightblue" d="M548.34,-276.5C524.72,-266.38 492.07,-252.39 471.37,-243.52"/>
<polygon fill="midnightblue" stroke="midnightblue" points="546.96,-279.72 557.53,-280.44 549.72,-273.29 546.96,-279.72"/>
</g>
<!-- Node36 -->
<g id="node36" class="node">
<title>Node36</title>
<g id="a_node36"><a xlink:href="slider_8h.html" target="_top" xlink:title=" ">
<polygon fill="white" stroke="black" points="672,-224.5 672,-243.5 719,-243.5 719,-224.5 672,-224.5"/>
<text text-anchor="middle" x="695.5" y="-231.5" font-family="Helvetica,sans-Serif" font-size="10.00">slider.h</text>
</a>
</g>
</g>
<!-- Node30&#45;&gt;Node36 -->
<g id="edge48" class="edge">
<title>Node30&#45;&gt;Node36</title>
<path fill="none" stroke="midnightblue" d="M605.4,-276.23C627.47,-266.13 657.68,-252.31 676.89,-243.52"/>
<polygon fill="midnightblue" stroke="midnightblue" points="603.83,-273.1 596.2,-280.44 606.75,-279.46 603.83,-273.1"/>
</g>
<!-- Node33&#45;&gt;Node8 -->
<g id="edge42" class="edge">
<title>Node33&#45;&gt;Node8</title>
<path fill="none" stroke="midnightblue" d="M754.99,-217.21C731.84,-193.63 689.04,-150.03 670.94,-131.59"/>
<polygon fill="midnightblue" stroke="midnightblue" points="752.52,-219.68 762.03,-224.37 757.52,-214.78 752.52,-219.68"/>
</g>
<!-- Node33&#45;&gt;Node14 -->
<g id="edge43" class="edge">
<title>Node33&#45;&gt;Node14</title>
<path fill="none" stroke="midnightblue" d="M734.11,-221.3C702.46,-211.13 657.33,-196.62 629,-187.52"/>
<polygon fill="midnightblue" stroke="midnightblue" points="733.29,-224.72 743.88,-224.44 735.43,-218.05 733.29,-224.72"/>
</g>
<!-- Node34&#45;&gt;Node8 -->
<g id="edge45" class="edge">
<title>Node34&#45;&gt;Node8</title>
<path fill="none" stroke="midnightblue" d="M535.67,-214.12C538.22,-199.87 543.72,-180.66 555.5,-168 572.87,-149.34 599.2,-138.13 621.39,-131.57"/>
<polygon fill="midnightblue" stroke="midnightblue" points="532.17,-213.88 534.2,-224.28 539.1,-214.88 532.17,-213.88"/>
</g>
<!-- Node34&#45;&gt;Node15 -->
<g id="edge46" class="edge">
<title>Node34&#45;&gt;Node15</title>
<path fill="none" stroke="midnightblue" d="M501.02,-220.91C473.76,-210.75 435.51,-196.51 411.37,-187.52"/>
<polygon fill="midnightblue" stroke="midnightblue" points="499.93,-224.23 510.52,-224.44 502.37,-217.67 499.93,-224.23"/>
</g>
<!-- Node36&#45;&gt;Node8 -->
<g id="edge49" class="edge">
<title>Node36&#45;&gt;Node8</title>
<path fill="none" stroke="midnightblue" d="M690,-214.67C682.79,-190.62 670.42,-149.39 665.08,-131.59"/>
<polygon fill="midnightblue" stroke="midnightblue" points="686.68,-215.8 692.91,-224.37 693.39,-213.78 686.68,-215.8"/>
</g>
<!-- Node36&#45;&gt;Node16 -->
<g id="edge50" class="edge">
<title>Node36&#45;&gt;Node16</title>
<path fill="none" stroke="midnightblue" d="M661.77,-223.61C601.95,-208.03 542.35,-193.86 507.74,-185.77"/>
<polygon fill="midnightblue" stroke="midnightblue" points="661.2,-227.08 671.76,-226.22 662.97,-220.3 661.2,-227.08"/>
</g>
<!-- Node39 -->
<g id="node39" class="node">
<title>Node39</title>
<g id="a_node39"><a xlink:href="circle_8h.html" target="_top" xlink:title=" ">
<polygon fill="white" stroke="black" points="10.5,-280.5 10.5,-299.5 58.5,-299.5 58.5,-280.5 10.5,-280.5"/>
<text text-anchor="middle" x="34.5" y="-287.5" font-family="Helvetica,sans-Serif" font-size="10.00">circle.h</text>
</a>
</g>
</g>
<!-- Node38&#45;&gt;Node39 -->
<g id="edge54" class="edge">
<title>Node38&#45;&gt;Node39</title>
<path fill="none" stroke="midnightblue" d="M222.79,-335.87C153.56,-318.99 134.7,-316 69.5,-300 65.97,-299.13 62.24,-298.2 58.58,-297.27"/>
<polygon fill="midnightblue" stroke="midnightblue" points="222.36,-339.37 232.9,-338.35 224.02,-332.57 222.36,-339.37"/>
</g>
<!-- Node41 -->
<g id="node41" class="node">
<title>Node41</title>
<g id="a_node41"><a xlink:href="rectangle_8h.html" target="_top" xlink:title=" ">
<polygon fill="white" stroke="black" points="79,-280.5 79,-299.5 144,-299.5 144,-280.5 79,-280.5"/>
<text text-anchor="middle" x="111.5" y="-287.5" font-family="Helvetica,sans-Serif" font-size="10.00">rectangle.h</text>
</a>
</g>
</g>
<!-- Node38&#45;&gt;Node41 -->
<g id="edge56" class="edge">
<title>Node38&#45;&gt;Node41</title>
<path fill="none" stroke="midnightblue" d="M225.58,-332.91C197.94,-322.75 159.16,-308.51 134.68,-299.52"/>
<polygon fill="midnightblue" stroke="midnightblue" points="224.61,-336.28 235.21,-336.44 227.03,-329.71 224.61,-336.28"/>
</g>
<!-- Node43 -->
<g id="node43" class="node">
<title>Node43</title>
<g id="a_node43"><a xlink:href="shape_8cpp.html" target="_top" xlink:title=" ">
<polygon fill="white" stroke="black" points="162.5,-280.5 162.5,-299.5 224.5,-299.5 224.5,-280.5 162.5,-280.5"/>
<text text-anchor="middle" x="193.5" y="-287.5" font-family="Helvetica,sans-Serif" font-size="10.00">shape.cpp</text>
</a>
</g>
</g>
<!-- Node38&#45;&gt;Node43 -->
<g id="edge59" class="edge">
<title>Node38&#45;&gt;Node43</title>
<path fill="none" stroke="midnightblue" d="M240.23,-329.82C228.58,-320.15 213.9,-307.95 204.13,-299.83"/>
<polygon fill="midnightblue" stroke="midnightblue" points="238.13,-332.63 248.06,-336.32 242.6,-327.24 238.13,-332.63"/>
</g>
<!-- Node44 -->
<g id="node44" class="node">
<title>Node44</title>
<g id="a_node44"><a xlink:href="text_8h.html" target="_top" xlink:title=" ">
<polygon fill="white" stroke="black" points="243,-280.5 243,-299.5 284,-299.5 284,-280.5 243,-280.5"/>
<text text-anchor="middle" x="263.5" y="-287.5" font-family="Helvetica,sans-Serif" font-size="10.00">text.h</text>
</a>
</g>
</g>
<!-- Node38&#45;&gt;Node44 -->
<g id="edge60" class="edge">
<title>Node38&#45;&gt;Node44</title>
<path fill="none" stroke="midnightblue" d="M260.25,-326.1C261.08,-317.14 262.03,-306.86 262.69,-299.75"/>
<polygon fill="midnightblue" stroke="midnightblue" points="256.76,-325.8 259.33,-336.08 263.73,-326.45 256.76,-325.8"/>
</g>
<!-- Node40 -->
<g id="node40" class="node">
<title>Node40</title>
<g id="a_node40"><a xlink:href="circle_8cpp.html" target="_top" xlink:title=" ">
<polygon fill="white" stroke="black" points="0,-224.5 0,-243.5 59,-243.5 59,-224.5 0,-224.5"/>
<text text-anchor="middle" x="29.5" y="-231.5" font-family="Helvetica,sans-Serif" font-size="10.00">circle.cpp</text>
</a>
</g>
</g>
<!-- Node39&#45;&gt;Node40 -->
<g id="edge55" class="edge">
<title>Node39&#45;&gt;Node40</title>
<path fill="none" stroke="midnightblue" d="M32.75,-270.1C31.92,-261.14 30.97,-250.86 30.31,-243.75"/>
<polygon fill="midnightblue" stroke="midnightblue" points="29.27,-270.45 33.67,-280.08 36.24,-269.8 29.27,-270.45"/>
</g>
<!-- Node41&#45;&gt;Node4 -->
<g id="edge57" class="edge">
<title>Node41&#45;&gt;Node4</title>
<path fill="none" stroke="midnightblue" d="M145.17,-277.04C173.77,-266.88 214.11,-252.55 239.53,-243.52"/>
<polygon fill="midnightblue" stroke="midnightblue" points="143.84,-273.8 135.58,-280.44 146.18,-280.39 143.84,-273.8"/>
</g>
<!-- Node42 -->
<g id="node42" class="node">
<title>Node42</title>
<g id="a_node42"><a xlink:href="rectangle_8cpp.html" target="_top" xlink:title=" ">
<polygon fill="white" stroke="black" points="77,-224.5 77,-243.5 152,-243.5 152,-224.5 77,-224.5"/>
<text text-anchor="middle" x="114.5" y="-231.5" font-family="Helvetica,sans-Serif" font-size="10.00">rectangle.cpp</text>
</a>
</g>
</g>
<!-- Node41&#45;&gt;Node42 -->
<g id="edge58" class="edge">
<title>Node41&#45;&gt;Node42</title>
<path fill="none" stroke="midnightblue" d="M112.57,-269.8C113.06,-260.91 113.62,-250.78 114.01,-243.75"/>
<polygon fill="midnightblue" stroke="midnightblue" points="109.06,-269.9 112,-280.08 116.04,-270.29 109.06,-269.9"/>
</g>
<!-- Node44&#45;&gt;Node4 -->
<g id="edge61" class="edge">
<title>Node44&#45;&gt;Node4</title>
<path fill="none" stroke="midnightblue" d="M263.5,-269.8C263.5,-260.91 263.5,-250.78 263.5,-243.75"/>
<polygon fill="midnightblue" stroke="midnightblue" points="260,-270.08 263.5,-280.08 267,-270.08 260,-270.08"/>
</g>
<!-- Node44&#45;&gt;Node17 -->
<g id="edge62" class="edge">
<title>Node44&#45;&gt;Node17</title>
<path fill="none" stroke="midnightblue" d="M241.73,-274.27C231.54,-266.37 220.02,-255.83 212.5,-244 201.02,-225.94 196.26,-200.71 194.47,-187.63"/>
<polygon fill="midnightblue" stroke="midnightblue" points="239.73,-277.14 249.85,-280.25 243.88,-271.51 239.73,-277.14"/>
</g>
<!-- Node46&#45;&gt;Node4 -->
<g id="edge65" class="edge">
<title>Node46&#45;&gt;Node4</title>
<path fill="none" stroke="midnightblue" d="M347.9,-382.63C342.46,-357.87 330.47,-313.06 309.5,-280 300.28,-265.47 285.51,-252.14 275.2,-243.82"/>
<polygon fill="midnightblue" stroke="midnightblue" points="344.49,-383.41 349.95,-392.49 351.34,-381.99 344.49,-383.41"/>
</g>
<!-- Node47 -->
<g id="node47" class="node">
<title>Node47</title>
<g id="a_node47"><a xlink:href="image__view_8cpp.html" target="_top" xlink:title=" ">
<polygon fill="white" stroke="black" points="621.5,-336.5 621.5,-355.5 707.5,-355.5 707.5,-336.5 621.5,-336.5"/>
<text text-anchor="middle" x="664.5" y="-343.5" font-family="Helvetica,sans-Serif" font-size="10.00">image_view.cpp</text>
</a>
</g>
</g>
<!-- Node46&#45;&gt;Node47 -->
<g id="edge66" class="edge">
<title>Node46&#45;&gt;Node47</title>
<path fill="none" stroke="midnightblue" d="M399.32,-391.89C495.1,-374.73 520.58,-371.69 612.5,-356 615.39,-355.51 618.37,-355 621.37,-354.48"/>
<polygon fill="midnightblue" stroke="midnightblue" points="398.42,-388.49 389.2,-393.7 399.66,-395.38 398.42,-388.49"/>
</g>
</g>
</svg>
        <g id="navigator" transform="translate(0 0)" fill="#404254">
                <rect fill="#f2f5e9" fill-opacity="0.5" stroke="#606060" stroke-width=".5" x="0" y="0" width="60" height="60"/>
                <use id="zoomplus" xlink:href="#zoomPlus" x="17" y="9" onmousedown="handleZoom(evt,'in')"/>
                <use id="zoomminus" xlink:href="#zoomMin" x="42" y="9" onmousedown="handleZoom(evt,'out')"/>
                <use id="reset" xlink:href="#resetDef" x="30" y="36" onmousedown="handleReset()"/>
                <g id="arrowUp" xlink:href="#dirArrow" transform="translate(30 24)" onmousedown="handlePan(0,-1)">
                  <use xlink:href="#rim" fill="#404040">
                        <set attributeName="fill" to="#808080" begin="arrowUp.mouseover" end="arrowUp.mouseout"/>
                  </use>
                  <path fill="none" stroke="white" stroke-width="1.5" d="M0,-3.0v7 M-2.5,-0.5L0,-3.0L2.5,-0.5"/>
                </g>
                <g id="arrowRight" xlink:href="#dirArrow" transform="rotate(90) translate(36 -43)" onmousedown="handlePan(1,0)">
                  <use xlink:href="#rim" fill="#404040">
                        <set attributeName="fill" to="#808080" begin="arrowRight.mouseover" end="arrowRight.mouseout"/>
                  </use>
                  <path fill="none" stroke="white" stroke-width="1.5" d="M0,-3.0v7 M-2.5,-0.5L0,-3.0L2.5,-0.5"/>
                </g>
                <g id="arrowDown" xlink:href="#dirArrow" transform="rotate(180) translate(-30 -48)" onmousedown="handlePan(0,1)">
                  <use xlink:href="#rim" fill="#404040">
                        <set attributeName="fill" to="#808080" begin="arrowDown.mouseover" end="arrowDown.mouseout"/>
                  </use>
                  <path fill="none" stroke="white" stroke-width="1.5" d="M0,-3.0v7 M-2.5,-0.5L0,-3.0L2.5,-0.5"/>
                </g>
                <g id="arrowLeft" xlink:href="#dirArrow" transform="rotate(270) translate(-36 17)" onmousedown="handlePan(-1,0)">
                  <use xlink:href="#rim" fill="#404040">
                        <set attributeName="fill" to="#808080" begin="arrowLeft.mouseover" end="arrowLeft.mouseout"/>
                  </use>
                  <path fill="none" stroke="white" stroke-width="1.5" d="M0,-3.0v7 M-2.5,-0.5L0,-3.0L2.5,-0.5"/>
                </g>
        </g>
        <svg viewBox="0 0 15 15" width="100%" height="30px" preserveAspectRatio="xMaxYMin meet">
         <g id="arrow_out" transform="scale(0.3 0.3)">
          <a xlink:href="image_8h__dep__incl_org.svg" target="_base">
           <rect id="button" ry="5" rx="5" y="6" x="6" height="38" width="38"
                fill="#f2f5e9" fill-opacity="0.5" stroke="#606060" stroke-width="1.0"/>
           <path id="arrow"
             d="M 11.500037,31.436501 C 11.940474,20.09759 22.043105,11.32322 32.158766,21.979434 L 37.068811,17.246167 C 37.068811,17.246167 37.088388,32 37.088388,32 L 22.160133,31.978069 C 22.160133,31.978069 26.997745,27.140456 26.997745,27.140456 C 18.528582,18.264221 13.291696,25.230495 11.500037,31.436501 z"
             style="fill:#404040;"/>
          </a>
         </g>
        </svg>
</svg>
