<?xml version="1.0" encoding="UTF-8" standalone="no"?>
<!DOCTYPE svg PUBLIC "-//W3C//DTD SVG 1.1//EN"
 "http://www.w3.org/Graphics/SVG/1.1/DTD/svg11.dtd">
<!-- Generated by graphviz version 2.50.0 (20211204.2007)
 -->
<!-- Title: image.cpp Pages: 1 -->
<svg width="301pt" height="140pt"
 viewBox="0.00 0.00 300.50 140.00" xmlns="http://www.w3.org/2000/svg" xmlns:xlink="http://www.w3.org/1999/xlink">
<g id="graph0" class="graph" transform="scale(1 1) rotate(0) translate(4 136)">
<title>image.cpp</title>
<polygon fill="white" stroke="transparent" points="-4,4 -4,-136 296.5,-136 296.5,4 -4,4"/>
<!-- Node1 -->
<g id="node1" class="node">
<title>Node1</title>
<g id="a_node1"><a xlink:title=" ">
<polygon fill="#bfbfbf" stroke="black" points="116,-112.5 116,-131.5 178,-131.5 178,-112.5 116,-112.5"/>
<text text-anchor="middle" x="147" y="-119.5" font-family="Helvetica,sans-Serif" font-size="10.00">image.cpp</text>
</a>
</g>
</g>
<!-- Node2 -->
<g id="node2" class="node">
<title>Node2</title>
<g id="a_node2"><a xlink:title=" ">
<polygon fill="white" stroke="#bfbfbf" points="0,-56.5 0,-75.5 158,-75.5 158,-56.5 0,-56.5"/>
<text text-anchor="middle" x="79" y="-63.5" font-family="Helvetica,sans-Serif" font-size="10.00">sml/graphics_wrapper/renderer.h</text>
</a>
</g>
</g>
<!-- Node1&#45;&gt;Node2 -->
<g id="edge1" class="edge">
<title>Node1&#45;&gt;Node2</title>
<path fill="none" stroke="midnightblue" d="M136.07,-112.32C125.83,-104.18 110.28,-91.84 98,-82.09"/>
<polygon fill="midnightblue" stroke="midnightblue" points="100.13,-79.31 90.12,-75.83 95.78,-84.79 100.13,-79.31"/>
</g>
<!-- Node3 -->
<g id="node3" class="node">
<title>Node3</title>
<g id="a_node3"><a xlink:href="image_8h.html" target="_top" xlink:title=" ">
<polygon fill="white" stroke="black" points="176,-56.5 176,-75.5 256,-75.5 256,-56.5 176,-56.5"/>
<text text-anchor="middle" x="216" y="-63.5" font-family="Helvetica,sans-Serif" font-size="10.00">media/image.h</text>
</a>
</g>
</g>
<!-- Node1&#45;&gt;Node3 -->
<g id="edge2" class="edge">
<title>Node1&#45;&gt;Node3</title>
<path fill="none" stroke="midnightblue" d="M158.09,-112.32C168.49,-104.18 184.26,-91.84 196.72,-82.09"/>
<polygon fill="midnightblue" stroke="midnightblue" points="198.99,-84.75 204.71,-75.83 194.68,-79.24 198.99,-84.75"/>
</g>
<!-- Node4 -->
<g id="node4" class="node">
<title>Node4</title>
<g id="a_node4"><a xlink:title=" ">
<polygon fill="white" stroke="#bfbfbf" points="139.5,-0.5 139.5,-19.5 292.5,-19.5 292.5,-0.5 139.5,-0.5"/>
<text text-anchor="middle" x="216" y="-7.5" font-family="Helvetica,sans-Serif" font-size="10.00">sml/graphics_wrapper/texture.h</text>
</a>
</g>
</g>
<!-- Node3&#45;&gt;Node4 -->
<g id="edge3" class="edge">
<title>Node3&#45;&gt;Node4</title>
<path fill="none" stroke="midnightblue" d="M216,-56.08C216,-49.01 216,-38.86 216,-29.99"/>
<polygon fill="midnightblue" stroke="midnightblue" points="219.5,-29.75 216,-19.75 212.5,-29.75 219.5,-29.75"/>
</g>
</g>
</svg>
