<?xml version="1.0" encoding="UTF-8" standalone="no"?>
<!DOCTYPE svg PUBLIC "-//W3C//DTD SVG 1.1//EN"
 "http://www.w3.org/Graphics/SVG/1.1/DTD/svg11.dtd">
<!-- Generated by graphviz version 2.50.0 (20211204.2007)
 -->
<!-- Title: image_view.h Pages: 1 -->
<svg width="698pt" height="274pt"
 viewBox="0.00 0.00 698.00 274.00" xmlns="http://www.w3.org/2000/svg" xmlns:xlink="http://www.w3.org/1999/xlink">
<g id="graph0" class="graph" transform="scale(1 1) rotate(0) translate(4 270)">
<title>image_view.h</title>
<polygon fill="white" stroke="transparent" points="-4,4 -4,-270 694,-270 694,4 -4,4"/>
<!-- Node1 -->
<g id="node1" class="node">
<title>Node1</title>
<g id="a_node1"><a xlink:title=" ">
<polygon fill="#bfbfbf" stroke="black" points="449.5,-246.5 449.5,-265.5 524.5,-265.5 524.5,-246.5 449.5,-246.5"/>
<text text-anchor="middle" x="487" y="-253.5" font-family="Helvetica,sans-Serif" font-size="10.00">image_view.h</text>
</a>
</g>
</g>
<!-- Node2 -->
<g id="node2" class="node">
<title>Node2</title>
<g id="a_node2"><a xlink:href="component_8h.html" target="_top" xlink:title=" ">
<polygon fill="white" stroke="black" points="401.5,-190.5 401.5,-209.5 474.5,-209.5 474.5,-190.5 401.5,-190.5"/>
<text text-anchor="middle" x="438" y="-197.5" font-family="Helvetica,sans-Serif" font-size="10.00">component.h</text>
</a>
</g>
</g>
<!-- Node1&#45;&gt;Node2 -->
<g id="edge1" class="edge">
<title>Node1&#45;&gt;Node2</title>
<path fill="none" stroke="midnightblue" d="M478.91,-246.08C471.84,-238.3 461.41,-226.8 452.85,-217.37"/>
<polygon fill="midnightblue" stroke="midnightblue" points="455.25,-214.8 445.94,-209.75 450.07,-219.51 455.25,-214.8"/>
</g>
<!-- Node15 -->
<g id="node15" class="node">
<title>Node15</title>
<g id="a_node15"><a xlink:href="image_8h.html" target="_top" xlink:title=" ">
<polygon fill="white" stroke="black" points="529.5,-190.5 529.5,-209.5 618.5,-209.5 618.5,-190.5 529.5,-190.5"/>
<text text-anchor="middle" x="574" y="-197.5" font-family="Helvetica,sans-Serif" font-size="10.00">../media/image.h</text>
</a>
</g>
</g>
<!-- Node1&#45;&gt;Node15 -->
<g id="edge15" class="edge">
<title>Node1&#45;&gt;Node15</title>
<path fill="none" stroke="midnightblue" d="M500.98,-246.32C514.55,-237.9 535.38,-224.97 551.32,-215.07"/>
<polygon fill="midnightblue" stroke="midnightblue" points="553.41,-217.9 560.06,-209.65 549.71,-211.95 553.41,-217.9"/>
</g>
<!-- Node3 -->
<g id="node3" class="node">
<title>Node3</title>
<g id="a_node3"><a xlink:title=" ">
<polygon fill="white" stroke="#bfbfbf" points="155,-129 155,-148 295,-148 295,-129 155,-129"/>
<text text-anchor="middle" x="225" y="-136" font-family="Helvetica,sans-Serif" font-size="10.00">sml/sml_graphics_wrapper.h</text>
</a>
</g>
</g>
<!-- Node2&#45;&gt;Node3 -->
<g id="edge2" class="edge">
<title>Node2&#45;&gt;Node3</title>
<path fill="none" stroke="midnightblue" d="M407.48,-190.48C370.08,-180.03 306.57,-162.29 265.21,-150.73"/>
<polygon fill="midnightblue" stroke="midnightblue" points="266.03,-147.33 255.46,-148.01 264.15,-154.07 266.03,-147.33"/>
</g>
<!-- Node4 -->
<g id="node4" class="node">
<title>Node4</title>
<g id="a_node4"><a xlink:href="gui__event__dispatching_8h.html" target="_top" xlink:title=" ">
<polygon fill="white" stroke="black" points="313,-123.5 313,-153.5 413,-153.5 413,-123.5 313,-123.5"/>
<text text-anchor="start" x="321" y="-141.5" font-family="Helvetica,sans-Serif" font-size="10.00">../events/gui_event</text>
<text text-anchor="middle" x="363" y="-130.5" font-family="Helvetica,sans-Serif" font-size="10.00">_dispatching.h</text>
</a>
</g>
</g>
<!-- Node2&#45;&gt;Node4 -->
<g id="edge3" class="edge">
<title>Node2&#45;&gt;Node4</title>
<path fill="none" stroke="midnightblue" d="M427.25,-190.48C417.19,-182.49 401.77,-170.25 388.55,-159.77"/>
<polygon fill="midnightblue" stroke="midnightblue" points="390.69,-157 380.68,-153.52 386.33,-162.48 390.69,-157"/>
</g>
<!-- Node12 -->
<g id="node12" class="node">
<title>Node12</title>
<g id="a_node12"><a xlink:href="shadow_8h.html" target="_top" xlink:title=" ">
<polygon fill="white" stroke="black" points="473,-129 473,-148 563,-148 563,-129 473,-129"/>
<text text-anchor="middle" x="518" y="-136" font-family="Helvetica,sans-Serif" font-size="10.00">../paint/shadow.h</text>
</a>
</g>
</g>
<!-- Node2&#45;&gt;Node12 -->
<g id="edge12" class="edge">
<title>Node2&#45;&gt;Node12</title>
<path fill="none" stroke="midnightblue" d="M449.46,-190.48C462.17,-181.02 482.91,-165.6 498.25,-154.19"/>
<polygon fill="midnightblue" stroke="midnightblue" points="500.62,-156.79 506.56,-148.01 496.45,-151.17 500.62,-156.79"/>
</g>
<!-- Node5 -->
<g id="node5" class="node">
<title>Node5</title>
<g id="a_node5"><a xlink:title=" ">
<polygon fill="white" stroke="#bfbfbf" points="0,-62 0,-81 44,-81 44,-62 0,-62"/>
<text text-anchor="middle" x="22" y="-69" font-family="Helvetica,sans-Serif" font-size="10.00">vector</text>
</a>
</g>
</g>
<!-- Node4&#45;&gt;Node5 -->
<g id="edge4" class="edge">
<title>Node4&#45;&gt;Node5</title>
<path fill="none" stroke="midnightblue" d="M312.86,-124.82C309.87,-124.18 306.9,-123.56 304,-123 193.37,-101.53 160.99,-119.22 53,-87 51.12,-86.44 49.21,-85.78 47.31,-85.06"/>
<polygon fill="midnightblue" stroke="midnightblue" points="48.63,-81.82 38.06,-81.11 45.87,-88.26 48.63,-81.82"/>
</g>
<!-- Node6 -->
<g id="node6" class="node">
<title>Node6</title>
<g id="a_node6"><a xlink:title=" ">
<polygon fill="white" stroke="#bfbfbf" points="62.5,-62 62.5,-81 217.5,-81 217.5,-62 62.5,-62"/>
<text text-anchor="middle" x="140" y="-69" font-family="Helvetica,sans-Serif" font-size="10.00">sml/events/event_dispatching.h</text>
</a>
</g>
</g>
<!-- Node4&#45;&gt;Node6 -->
<g id="edge5" class="edge">
<title>Node4&#45;&gt;Node6</title>
<path fill="none" stroke="midnightblue" d="M314.89,-123.48C274.22,-111.62 216.71,-94.86 178.9,-83.84"/>
<polygon fill="midnightblue" stroke="midnightblue" points="179.84,-80.47 169.26,-81.03 177.88,-87.19 179.84,-80.47"/>
</g>
<!-- Node7 -->
<g id="node7" class="node">
<title>Node7</title>
<g id="a_node7"><a xlink:title=" ">
<polygon fill="white" stroke="#bfbfbf" points="235.5,-56.5 235.5,-86.5 334.5,-86.5 334.5,-56.5 235.5,-56.5"/>
<text text-anchor="start" x="243.5" y="-74.5" font-family="Helvetica,sans-Serif" font-size="10.00">sml/events/listener</text>
<text text-anchor="middle" x="285" y="-63.5" font-family="Helvetica,sans-Serif" font-size="10.00">_notifier.h</text>
</a>
</g>
</g>
<!-- Node4&#45;&gt;Node7 -->
<g id="edge6" class="edge">
<title>Node4&#45;&gt;Node7</title>
<path fill="none" stroke="midnightblue" d="M346.08,-123.4C335.45,-114.54 321.55,-102.96 309.7,-93.09"/>
<polygon fill="midnightblue" stroke="midnightblue" points="311.81,-90.29 301.89,-86.58 307.33,-95.67 311.81,-90.29"/>
</g>
<!-- Node8 -->
<g id="node8" class="node">
<title>Node8</title>
<g id="a_node8"><a xlink:title=" ">
<polygon fill="white" stroke="#bfbfbf" points="252.5,-0.5 252.5,-19.5 395.5,-19.5 395.5,-0.5 252.5,-0.5"/>
<text text-anchor="middle" x="324" y="-7.5" font-family="Helvetica,sans-Serif" font-size="10.00">sml/events/system_events.h</text>
</a>
</g>
</g>
<!-- Node4&#45;&gt;Node8 -->
<g id="edge7" class="edge">
<title>Node4&#45;&gt;Node8</title>
<path fill="none" stroke="midnightblue" d="M360.26,-123.47C356.91,-107.07 350.7,-79.23 343,-56 340,-46.94 335.97,-37.16 332.39,-29.03"/>
<polygon fill="midnightblue" stroke="midnightblue" points="335.52,-27.47 328.21,-19.8 329.15,-30.36 335.52,-27.47"/>
</g>
<!-- Node9 -->
<g id="node9" class="node">
<title>Node9</title>
<g id="a_node9"><a xlink:href="gui__event_8h.html" target="_top" xlink:title=" ">
<polygon fill="white" stroke="black" points="391.5,-62 391.5,-81 458.5,-81 458.5,-62 391.5,-62"/>
<text text-anchor="middle" x="425" y="-69" font-family="Helvetica,sans-Serif" font-size="10.00">gui_event.h</text>
</a>
</g>
</g>
<!-- Node4&#45;&gt;Node9 -->
<g id="edge8" class="edge">
<title>Node4&#45;&gt;Node9</title>
<path fill="none" stroke="midnightblue" d="M376.45,-123.4C386.22,-113.16 399.44,-99.3 409.62,-88.62"/>
<polygon fill="midnightblue" stroke="midnightblue" points="412.34,-90.85 416.71,-81.19 407.27,-86.01 412.34,-90.85"/>
</g>
<!-- Node9&#45;&gt;Node8 -->
<g id="edge10" class="edge">
<title>Node9&#45;&gt;Node8</title>
<path fill="none" stroke="midnightblue" d="M410.53,-61.98C394.03,-52.25 366.82,-36.23 347.32,-24.74"/>
<polygon fill="midnightblue" stroke="midnightblue" points="348.84,-21.57 338.44,-19.51 345.28,-27.6 348.84,-21.57"/>
</g>
<!-- Node10 -->
<g id="node10" class="node">
<title>Node10</title>
<g id="a_node10"><a xlink:title=" ">
<polygon fill="white" stroke="#bfbfbf" points="414,-0.5 414,-19.5 514,-19.5 514,-0.5 414,-0.5"/>
<text text-anchor="middle" x="464" y="-7.5" font-family="Helvetica,sans-Serif" font-size="10.00">sml/events/event.h</text>
</a>
</g>
</g>
<!-- Node9&#45;&gt;Node10 -->
<g id="edge9" class="edge">
<title>Node9&#45;&gt;Node10</title>
<path fill="none" stroke="midnightblue" d="M430.59,-61.98C436.38,-53.14 445.59,-39.09 452.87,-27.98"/>
<polygon fill="midnightblue" stroke="midnightblue" points="455.87,-29.79 458.42,-19.51 450.01,-25.95 455.87,-29.79"/>
</g>
<!-- Node11 -->
<g id="node11" class="node">
<title>Node11</title>
<g id="a_node11"><a xlink:title=" ">
<polygon fill="white" stroke="#bfbfbf" points="532.5,-0.5 532.5,-19.5 609.5,-19.5 609.5,-0.5 532.5,-0.5"/>
<text text-anchor="middle" x="571" y="-7.5" font-family="Helvetica,sans-Serif" font-size="10.00">sml/sml_log.h</text>
</a>
</g>
</g>
<!-- Node9&#45;&gt;Node11 -->
<g id="edge11" class="edge">
<title>Node9&#45;&gt;Node11</title>
<path fill="none" stroke="midnightblue" d="M445.92,-61.98C470.75,-51.86 512.34,-34.9 540.69,-23.35"/>
<polygon fill="midnightblue" stroke="midnightblue" points="542.18,-26.52 550.12,-19.51 539.54,-20.04 542.18,-26.52"/>
</g>
<!-- Node13 -->
<g id="node13" class="node">
<title>Node13</title>
<g id="a_node13"><a xlink:title=" ">
<polygon fill="white" stroke="#bfbfbf" points="476.5,-62 476.5,-81 559.5,-81 559.5,-62 476.5,-62"/>
<text text-anchor="middle" x="518" y="-69" font-family="Helvetica,sans-Serif" font-size="10.00">sml/math/blur.h</text>
</a>
</g>
</g>
<!-- Node12&#45;&gt;Node13 -->
<g id="edge13" class="edge">
<title>Node12&#45;&gt;Node13</title>
<path fill="none" stroke="midnightblue" d="M518,-128.73C518,-119.18 518,-103.62 518,-91.28"/>
<polygon fill="midnightblue" stroke="midnightblue" points="521.5,-91.13 518,-81.13 514.5,-91.13 521.5,-91.13"/>
</g>
<!-- Node14 -->
<g id="node14" class="node">
<title>Node14</title>
<g id="a_node14"><a xlink:title=" ">
<polygon fill="white" stroke="#bfbfbf" points="578,-56.5 578,-86.5 690,-86.5 690,-56.5 578,-56.5"/>
<text text-anchor="start" x="586" y="-74.5" font-family="Helvetica,sans-Serif" font-size="10.00">sml/graphics_wrapper</text>
<text text-anchor="middle" x="634" y="-63.5" font-family="Helvetica,sans-Serif" font-size="10.00">/texture.h</text>
</a>
</g>
</g>
<!-- Node12&#45;&gt;Node14 -->
<g id="edge14" class="edge">
<title>Node12&#45;&gt;Node14</title>
<path fill="none" stroke="midnightblue" d="M533.64,-128.73C550.53,-119.27 577.94,-103.91 599.85,-91.64"/>
<polygon fill="midnightblue" stroke="midnightblue" points="601.84,-94.53 608.86,-86.59 598.42,-88.42 601.84,-94.53"/>
</g>
<!-- Node15&#45;&gt;Node14 -->
<g id="edge16" class="edge">
<title>Node15&#45;&gt;Node14</title>
<path fill="none" stroke="midnightblue" d="M578.12,-190.31C587.22,-171.13 609.26,-124.66 622.78,-96.15"/>
<polygon fill="midnightblue" stroke="midnightblue" points="626.05,-97.42 627.18,-86.89 619.73,-94.42 626.05,-97.42"/>
</g>
</g>
</svg>
