<?xml version="1.0" encoding="UTF-8" standalone="no"?>
<!DOCTYPE svg PUBLIC "-//W3C//DTD SVG 1.1//EN"
 "http://www.w3.org/Graphics/SVG/1.1/DTD/svg11.dtd">
<!-- Generated by graphviz version 2.50.0 (20211204.2007)
 -->
<!-- Title: Graphical Class Hierarchy Pages: 1 -->
<svg width="853pt" height="332pt"
 viewBox="0.00 0.00 853.00 332.00" xmlns="http://www.w3.org/2000/svg" xmlns:xlink="http://www.w3.org/1999/xlink">
<g id="graph0" class="graph" transform="scale(1 1) rotate(0) translate(4 328)">
<title>Graphical Class Hierarchy</title>
<polygon fill="white" stroke="transparent" points="-4,4 -4,-328 849,-328 849,4 -4,4"/>
<!-- Node17 -->
<g id="node1" class="node">
<title>Node17</title>
<g id="a_node1"><a xlink:href="class_sgl_1_1_scroll_bar.html" target="_top" xlink:title=" ">
<polygon fill="white" stroke="black" points="0,-152.5 0,-171.5 77,-171.5 77,-152.5 0,-152.5"/>
<text text-anchor="middle" x="38.5" y="-159.5" font-family="Helvetica,sans-Serif" font-size="10.00">Sgl::ScrollBar</text>
</a>
</g>
</g>
<!-- Node0 -->
<g id="node2" class="node">
<title>Node0</title>
<g id="a_node2"><a xlink:href="class_sgl_1_1_component.html" target="_top" xlink:title=" ">
<polygon fill="white" stroke="black" points="113,-190.5 113,-209.5 200,-209.5 200,-190.5 113,-190.5"/>
<text text-anchor="middle" x="156.5" y="-197.5" font-family="Helvetica,sans-Serif" font-size="10.00">Sgl::Component</text>
</a>
</g>
</g>
<!-- Node17&#45;&gt;Node0 -->
<g id="edge1" class="edge">
<title>Node17&#45;&gt;Node0</title>
<path fill="none" stroke="midnightblue" d="M78.65,-174.83C94.22,-179.92 111.81,-185.69 126.24,-190.41"/>
<polygon fill="midnightblue" stroke="midnightblue" points="79.36,-171.38 68.77,-171.59 77.19,-178.03 79.36,-171.38"/>
</g>
<!-- Node42 -->
<g id="node25" class="node">
<title>Node42</title>
<g id="a_node25"><a xlink:href="class_sgl_1_1_scene.html" target="_top" xlink:title=" ">
<polygon fill="white" stroke="black" points="124,-152.5 124,-171.5 189,-171.5 189,-152.5 124,-152.5"/>
<text text-anchor="middle" x="156.5" y="-159.5" font-family="Helvetica,sans-Serif" font-size="10.00">Sgl::Scene</text>
</a>
</g>
</g>
<!-- Node17&#45;&gt;Node42 -->
<g id="edge25" class="edge">
<title>Node17&#45;&gt;Node42</title>
<path fill="none" stroke="midnightblue" d="M87.31,-162C99.63,-162 112.58,-162 123.85,-162"/>
<polygon fill="midnightblue" stroke="midnightblue" points="87.16,-158.5 77.16,-162 87.16,-165.5 87.16,-158.5"/>
</g>
<!-- Node1 -->
<g id="node3" class="node">
<title>Node1</title>
<g id="a_node3"><a xlink:href="class_sgl_1_1_image_view.html" target="_top" xlink:title=" ">
<polygon fill="white" stroke="black" points="236,-152.5 236,-171.5 322,-171.5 322,-152.5 236,-152.5"/>
<text text-anchor="middle" x="279" y="-159.5" font-family="Helvetica,sans-Serif" font-size="10.00">Sgl::ImageView</text>
</a>
</g>
</g>
<!-- Node0&#45;&gt;Node1 -->
<g id="edge2" class="edge">
<title>Node0&#45;&gt;Node1</title>
<path fill="none" stroke="midnightblue" d="M197.71,-187.32C213.99,-182.19 232.48,-176.36 247.6,-171.59"/>
<polygon fill="midnightblue" stroke="midnightblue" points="196.39,-184.07 187.91,-190.41 198.5,-190.74 196.39,-184.07"/>
</g>
<!-- Node2 -->
<g id="node4" class="node">
<title>Node2</title>
<g id="a_node4"><a xlink:href="class_sgl_1_1_parent.html" target="_top" xlink:title=" ">
<polygon fill="white" stroke="black" points="246.5,-190.5 246.5,-209.5 311.5,-209.5 311.5,-190.5 246.5,-190.5"/>
<text text-anchor="middle" x="279" y="-197.5" font-family="Helvetica,sans-Serif" font-size="10.00">Sgl::Parent</text>
</a>
</g>
</g>
<!-- Node0&#45;&gt;Node2 -->
<g id="edge3" class="edge">
<title>Node0&#45;&gt;Node2</title>
<path fill="none" stroke="midnightblue" d="M210.45,-200C222.68,-200 235.31,-200 246.3,-200"/>
<polygon fill="midnightblue" stroke="midnightblue" points="210.32,-196.5 200.32,-200 210.32,-203.5 210.32,-196.5"/>
</g>
<!-- Node20 -->
<g id="node21" class="node">
<title>Node20</title>
<g id="a_node21"><a xlink:href="class_sgl_1_1_shape.html" target="_top" xlink:title=" ">
<polygon fill="white" stroke="black" points="246.5,-247.5 246.5,-266.5 311.5,-266.5 311.5,-247.5 246.5,-247.5"/>
<text text-anchor="middle" x="279" y="-254.5" font-family="Helvetica,sans-Serif" font-size="10.00">Sgl::Shape</text>
</a>
</g>
</g>
<!-- Node0&#45;&gt;Node20 -->
<g id="edge21" class="edge">
<title>Node0&#45;&gt;Node20</title>
<path fill="none" stroke="midnightblue" d="M186.88,-213.9C208.87,-224.3 238.37,-238.25 257.77,-247.43"/>
<polygon fill="midnightblue" stroke="midnightblue" points="188.21,-210.65 177.67,-209.54 185.21,-216.98 188.21,-210.65"/>
</g>
<!-- Node3 -->
<g id="node5" class="node">
<title>Node3</title>
<g id="a_node5"><a xlink:href="class_sgl_1_1_container.html" target="_top" xlink:title=" ">
<polygon fill="white" stroke="black" points="359,-190.5 359,-209.5 438,-209.5 438,-190.5 359,-190.5"/>
<text text-anchor="middle" x="398.5" y="-197.5" font-family="Helvetica,sans-Serif" font-size="10.00">Sgl::Container</text>
</a>
</g>
</g>
<!-- Node2&#45;&gt;Node3 -->
<g id="edge4" class="edge">
<title>Node2&#45;&gt;Node3</title>
<path fill="none" stroke="midnightblue" d="M322.06,-200C334.1,-200 347.16,-200 358.98,-200"/>
<polygon fill="midnightblue" stroke="midnightblue" points="321.8,-196.5 311.8,-200 321.8,-203.5 321.8,-196.5"/>
</g>
<!-- Node13 -->
<g id="node15" class="node">
<title>Node13</title>
<g id="a_node15"><a xlink:href="class_sgl_1_1_control.html" target="_top" xlink:title=" ">
<polygon fill="white" stroke="black" points="364.5,-76.5 364.5,-95.5 432.5,-95.5 432.5,-76.5 364.5,-76.5"/>
<text text-anchor="middle" x="398.5" y="-83.5" font-family="Helvetica,sans-Serif" font-size="10.00">Sgl::Control</text>
</a>
</g>
</g>
<!-- Node2&#45;&gt;Node13 -->
<g id="edge14" class="edge">
<title>Node2&#45;&gt;Node13</title>
<path fill="none" stroke="midnightblue" d="M315.48,-185.48C317.76,-184.09 319.96,-182.59 322,-181 354.24,-155.88 380.97,-114.27 392.03,-95.6"/>
<polygon fill="midnightblue" stroke="midnightblue" points="313.56,-182.54 306.42,-190.37 316.88,-188.7 313.56,-182.54"/>
</g>
<!-- Node4 -->
<g id="node6" class="node">
<title>Node4</title>
<g id="a_node6"><a xlink:href="class_sgl_1_1_blank_container.html" target="_top" xlink:title=" ">
<polygon fill="white" stroke="black" points="479.5,-266.5 479.5,-285.5 583.5,-285.5 583.5,-266.5 479.5,-266.5"/>
<text text-anchor="middle" x="531.5" y="-273.5" font-family="Helvetica,sans-Serif" font-size="10.00">Sgl::BlankContainer</text>
</a>
</g>
</g>
<!-- Node3&#45;&gt;Node4 -->
<g id="edge5" class="edge">
<title>Node3&#45;&gt;Node4</title>
<path fill="none" stroke="midnightblue" d="M431.92,-214.37C434.38,-215.83 436.77,-217.37 439,-219 457.79,-232.71 455.43,-244.42 475,-257 480.91,-260.8 487.67,-263.93 494.39,-266.48"/>
<polygon fill="midnightblue" stroke="midnightblue" points="433.33,-211.15 422.87,-209.5 430.02,-217.32 433.33,-211.15"/>
</g>
<!-- Node5 -->
<g id="node7" class="node">
<title>Node5</title>
<g id="a_node7"><a xlink:href="class_sgl_1_1_box_container.html" target="_top" xlink:title="Basic list&#45;like container which lays out children in a line one after another.">
<polygon fill="white" stroke="black" points="483.5,-228.5 483.5,-247.5 579.5,-247.5 579.5,-228.5 483.5,-228.5"/>
<text text-anchor="middle" x="531.5" y="-235.5" font-family="Helvetica,sans-Serif" font-size="10.00">Sgl::BoxContainer</text>
</a>
</g>
</g>
<!-- Node3&#45;&gt;Node5 -->
<g id="edge6" class="edge">
<title>Node3&#45;&gt;Node5</title>
<path fill="none" stroke="midnightblue" d="M442.21,-212.39C460.15,-217.59 480.7,-223.55 497.45,-228.41"/>
<polygon fill="midnightblue" stroke="midnightblue" points="443.14,-209.01 432.56,-209.59 441.19,-215.74 443.14,-209.01"/>
</g>
<!-- Node10 -->
<g id="node12" class="node">
<title>Node10</title>
<g id="a_node12"><a xlink:href="class_sgl_1_1_layered_container.html" target="_top" xlink:title=" ">
<polygon fill="white" stroke="black" points="475,-190.5 475,-209.5 588,-209.5 588,-190.5 475,-190.5"/>
<text text-anchor="middle" x="531.5" y="-197.5" font-family="Helvetica,sans-Serif" font-size="10.00">Sgl::LayeredContainer</text>
</a>
</g>
</g>
<!-- Node3&#45;&gt;Node10 -->
<g id="edge11" class="edge">
<title>Node3&#45;&gt;Node10</title>
<path fill="none" stroke="midnightblue" d="M448.33,-200C456.93,-200 465.94,-200 474.71,-200"/>
<polygon fill="midnightblue" stroke="midnightblue" points="448.1,-196.5 438.1,-200 448.1,-203.5 448.1,-196.5"/>
</g>
<!-- Node12 -->
<g id="node14" class="node">
<title>Node12</title>
<g id="a_node14"><a xlink:href="class_sgl_1_1_tile_pane.html" target="_top" xlink:title=" ">
<polygon fill="white" stroke="black" points="494,-152.5 494,-171.5 569,-171.5 569,-152.5 494,-152.5"/>
<text text-anchor="middle" x="531.5" y="-159.5" font-family="Helvetica,sans-Serif" font-size="10.00">Sgl::TilePane</text>
</a>
</g>
</g>
<!-- Node3&#45;&gt;Node12 -->
<g id="edge13" class="edge">
<title>Node3&#45;&gt;Node12</title>
<path fill="none" stroke="midnightblue" d="M442.21,-187.61C460.15,-182.41 480.7,-176.45 497.45,-171.59"/>
<polygon fill="midnightblue" stroke="midnightblue" points="441.19,-184.26 432.56,-190.41 443.14,-190.99 441.19,-184.26"/>
</g>
<!-- Node6 -->
<g id="node8" class="node">
<title>Node6</title>
<g id="a_node8"><a xlink:href="class_sgl_1_1_h_box.html" target="_top" xlink:title=" ">
<polygon fill="white" stroke="black" points="638,-266.5 638,-285.5 700,-285.5 700,-266.5 638,-266.5"/>
<text text-anchor="middle" x="669" y="-273.5" font-family="Helvetica,sans-Serif" font-size="10.00">Sgl::HBox</text>
</a>
</g>
</g>
<!-- Node5&#45;&gt;Node6 -->
<g id="edge7" class="edge">
<title>Node5&#45;&gt;Node6</title>
<path fill="none" stroke="midnightblue" d="M576.56,-250.36C596.66,-255.99 619.93,-262.52 637.97,-267.58"/>
<polygon fill="midnightblue" stroke="midnightblue" points="577.27,-246.92 566.69,-247.59 575.38,-253.66 577.27,-246.92"/>
</g>
<!-- Node8 -->
<g id="node10" class="node">
<title>Node8</title>
<g id="a_node10"><a xlink:href="class_sgl_1_1_v_box.html" target="_top" xlink:title=" ">
<polygon fill="white" stroke="black" points="638.5,-228.5 638.5,-247.5 699.5,-247.5 699.5,-228.5 638.5,-228.5"/>
<text text-anchor="middle" x="669" y="-235.5" font-family="Helvetica,sans-Serif" font-size="10.00">Sgl::VBox</text>
</a>
</g>
</g>
<!-- Node5&#45;&gt;Node8 -->
<g id="edge9" class="edge">
<title>Node5&#45;&gt;Node8</title>
<path fill="none" stroke="midnightblue" d="M589.79,-238C606.54,-238 624.16,-238 638.43,-238"/>
<polygon fill="midnightblue" stroke="midnightblue" points="589.51,-234.5 579.51,-238 589.51,-241.5 589.51,-234.5"/>
</g>
<!-- Node7 -->
<g id="node9" class="node">
<title>Node7</title>
<g id="a_node9"><a xlink:href="class_sgl_1_1_menu_bar.html" target="_top" xlink:title=" ">
<polygon fill="white" stroke="black" points="759.5,-266.5 759.5,-285.5 835.5,-285.5 835.5,-266.5 759.5,-266.5"/>
<text text-anchor="middle" x="797.5" y="-273.5" font-family="Helvetica,sans-Serif" font-size="10.00">Sgl::MenuBar</text>
</a>
</g>
</g>
<!-- Node6&#45;&gt;Node7 -->
<g id="edge8" class="edge">
<title>Node6&#45;&gt;Node7</title>
<path fill="none" stroke="midnightblue" d="M710.7,-276C726.28,-276 743.97,-276 759.22,-276"/>
<polygon fill="midnightblue" stroke="midnightblue" points="710.3,-272.5 700.3,-276 710.3,-279.5 710.3,-272.5"/>
</g>
<!-- Node9 -->
<g id="node11" class="node">
<title>Node9</title>
<g id="a_node11"><a xlink:href="class_sgl_1_1_context_menu.html" target="_top" xlink:title=" ">
<polygon fill="white" stroke="black" points="750,-228.5 750,-247.5 845,-247.5 845,-228.5 750,-228.5"/>
<text text-anchor="middle" x="797.5" y="-235.5" font-family="Helvetica,sans-Serif" font-size="10.00">Sgl::ContextMenu</text>
</a>
</g>
</g>
<!-- Node8&#45;&gt;Node9 -->
<g id="edge10" class="edge">
<title>Node8&#45;&gt;Node9</title>
<path fill="none" stroke="midnightblue" d="M709.88,-238C722.53,-238 736.62,-238 749.7,-238"/>
<polygon fill="midnightblue" stroke="midnightblue" points="709.66,-234.5 699.66,-238 709.66,-241.5 709.66,-234.5"/>
</g>
<!-- Node11 -->
<g id="node13" class="node">
<title>Node11</title>
<g id="a_node13"><a xlink:href="class_sgl_1_1_anchor_pane.html" target="_top" xlink:title="Allows the edges of components to be anchored to anchor pane&#39;s edges.">
<polygon fill="white" stroke="black" points="624,-190.5 624,-209.5 714,-209.5 714,-190.5 624,-190.5"/>
<text text-anchor="middle" x="669" y="-197.5" font-family="Helvetica,sans-Serif" font-size="10.00">Sgl::AnchorPane</text>
</a>
</g>
</g>
<!-- Node10&#45;&gt;Node11 -->
<g id="edge12" class="edge">
<title>Node10&#45;&gt;Node11</title>
<path fill="none" stroke="midnightblue" d="M598.21,-200C606.95,-200 615.73,-200 623.98,-200"/>
<polygon fill="midnightblue" stroke="midnightblue" points="598,-196.5 588,-200 598,-203.5 598,-196.5"/>
</g>
<!-- Node13&#45;&gt;Node17 -->
<g id="edge18" class="edge">
<title>Node13&#45;&gt;Node17</title>
<path fill="none" stroke="midnightblue" d="M354.33,-97.39C343.78,-100.03 332.51,-102.72 322,-105 229.73,-124.98 205.21,-122.73 113,-143 100.26,-145.8 86.38,-149.28 74.15,-152.49"/>
<polygon fill="midnightblue" stroke="midnightblue" points="355.33,-100.75 364.16,-94.9 353.61,-93.96 355.33,-100.75"/>
</g>
<!-- Node14 -->
<g id="node16" class="node">
<title>Node14</title>
<g id="a_node16"><a xlink:href="class_sgl_1_1_button.html" target="_top" xlink:title=" ">
<polygon fill="white" stroke="black" points="499,-114.5 499,-133.5 564,-133.5 564,-114.5 499,-114.5"/>
<text text-anchor="middle" x="531.5" y="-121.5" font-family="Helvetica,sans-Serif" font-size="10.00">Sgl::Button</text>
</a>
</g>
</g>
<!-- Node13&#45;&gt;Node14 -->
<g id="edge15" class="edge">
<title>Node13&#45;&gt;Node14</title>
<path fill="none" stroke="midnightblue" d="M442.19,-98.38C460.62,-103.73 481.81,-109.88 498.81,-114.81"/>
<polygon fill="midnightblue" stroke="midnightblue" points="443.14,-95.01 432.56,-95.59 441.19,-101.74 443.14,-95.01"/>
</g>
<!-- Node16 -->
<g id="node18" class="node">
<title>Node16</title>
<g id="a_node18"><a xlink:href="class_sgl_1_1_label.html" target="_top" xlink:title=" ">
<polygon fill="white" stroke="black" points="501.5,-76.5 501.5,-95.5 561.5,-95.5 561.5,-76.5 501.5,-76.5"/>
<text text-anchor="middle" x="531.5" y="-83.5" font-family="Helvetica,sans-Serif" font-size="10.00">Sgl::Label</text>
</a>
</g>
</g>
<!-- Node13&#45;&gt;Node16 -->
<g id="edge17" class="edge">
<title>Node13&#45;&gt;Node16</title>
<path fill="none" stroke="midnightblue" d="M442.63,-86C461.94,-86 484.19,-86 501.47,-86"/>
<polygon fill="midnightblue" stroke="midnightblue" points="442.56,-82.5 432.56,-86 442.56,-89.5 442.56,-82.5"/>
</g>
<!-- Node18 -->
<g id="node19" class="node">
<title>Node18</title>
<g id="a_node19"><a xlink:href="class_sgl_1_1_scroll_pane.html" target="_top" xlink:title=" ">
<polygon fill="white" stroke="black" points="489.5,-38.5 489.5,-57.5 573.5,-57.5 573.5,-38.5 489.5,-38.5"/>
<text text-anchor="middle" x="531.5" y="-45.5" font-family="Helvetica,sans-Serif" font-size="10.00">Sgl::ScrollPane</text>
</a>
</g>
</g>
<!-- Node13&#45;&gt;Node18 -->
<g id="edge19" class="edge">
<title>Node13&#45;&gt;Node18</title>
<path fill="none" stroke="midnightblue" d="M442.21,-73.61C460.15,-68.41 480.7,-62.45 497.45,-57.59"/>
<polygon fill="midnightblue" stroke="midnightblue" points="441.19,-70.26 432.56,-76.41 443.14,-76.99 441.19,-70.26"/>
</g>
<!-- Node19 -->
<g id="node20" class="node">
<title>Node19</title>
<g id="a_node20"><a xlink:href="class_sgl_1_1_slider.html" target="_top" xlink:title=" ">
<polygon fill="white" stroke="black" points="500.5,-0.5 500.5,-19.5 562.5,-19.5 562.5,-0.5 500.5,-0.5"/>
<text text-anchor="middle" x="531.5" y="-7.5" font-family="Helvetica,sans-Serif" font-size="10.00">Sgl::Slider</text>
</a>
</g>
</g>
<!-- Node13&#45;&gt;Node19 -->
<g id="edge20" class="edge">
<title>Node13&#45;&gt;Node19</title>
<path fill="none" stroke="midnightblue" d="M417.77,-69.56C432.41,-57.08 453.9,-40.21 475,-29 482.92,-24.8 491.95,-21.24 500.39,-18.38"/>
<polygon fill="midnightblue" stroke="midnightblue" points="415.25,-67.12 410.01,-76.33 419.85,-72.4 415.25,-67.12"/>
</g>
<!-- Node15 -->
<g id="node17" class="node">
<title>Node15</title>
<g id="a_node17"><a xlink:href="class_sgl_1_1_menu_item.html" target="_top" xlink:title=" ">
<polygon fill="white" stroke="black" points="629,-114.5 629,-133.5 709,-133.5 709,-114.5 629,-114.5"/>
<text text-anchor="middle" x="669" y="-121.5" font-family="Helvetica,sans-Serif" font-size="10.00">Sgl::MenuItem</text>
</a>
</g>
</g>
<!-- Node14&#45;&gt;Node15 -->
<g id="edge16" class="edge">
<title>Node14&#45;&gt;Node15</title>
<path fill="none" stroke="midnightblue" d="M574.67,-124C591.99,-124 611.94,-124 628.93,-124"/>
<polygon fill="midnightblue" stroke="midnightblue" points="574.27,-120.5 564.27,-124 574.27,-127.5 574.27,-120.5"/>
</g>
<!-- Node21 -->
<g id="node22" class="node">
<title>Node21</title>
<g id="a_node22"><a xlink:href="class_sgl_1_1_circle.html" target="_top" xlink:title=" ">
<polygon fill="white" stroke="black" points="367.5,-228.5 367.5,-247.5 429.5,-247.5 429.5,-228.5 367.5,-228.5"/>
<text text-anchor="middle" x="398.5" y="-235.5" font-family="Helvetica,sans-Serif" font-size="10.00">Sgl::Circle</text>
</a>
</g>
</g>
<!-- Node20&#45;&gt;Node21 -->
<g id="edge22" class="edge">
<title>Node20&#45;&gt;Node21</title>
<path fill="none" stroke="midnightblue" d="M321.87,-250.23C336.87,-247.8 353.48,-245.12 367.3,-242.88"/>
<polygon fill="midnightblue" stroke="midnightblue" points="321.11,-246.81 311.8,-251.86 322.23,-253.72 321.11,-246.81"/>
</g>
<!-- Node22 -->
<g id="node23" class="node">
<title>Node22</title>
<g id="a_node23"><a xlink:href="class_sgl_1_1_rectangle.html" target="_top" xlink:title=" ">
<polygon fill="white" stroke="black" points="358,-304.5 358,-323.5 439,-323.5 439,-304.5 358,-304.5"/>
<text text-anchor="middle" x="398.5" y="-311.5" font-family="Helvetica,sans-Serif" font-size="10.00">Sgl::Rectangle</text>
</a>
</g>
</g>
<!-- Node20&#45;&gt;Node22 -->
<g id="edge23" class="edge">
<title>Node20&#45;&gt;Node22</title>
<path fill="none" stroke="midnightblue" d="M308.66,-271.01C323.4,-278.2 341.65,-287.09 358,-295 364.3,-298.05 371.18,-301.36 377.4,-304.35"/>
<polygon fill="midnightblue" stroke="midnightblue" points="310.06,-267.79 299.54,-266.55 306.99,-274.09 310.06,-267.79"/>
</g>
<!-- Node23 -->
<g id="node24" class="node">
<title>Node23</title>
<g id="a_node24"><a xlink:href="class_sgl_1_1_text.html" target="_top" xlink:title=" ">
<polygon fill="white" stroke="black" points="370.5,-266.5 370.5,-285.5 426.5,-285.5 426.5,-266.5 370.5,-266.5"/>
<text text-anchor="middle" x="398.5" y="-273.5" font-family="Helvetica,sans-Serif" font-size="10.00">Sgl::Text</text>
</a>
</g>
</g>
<!-- Node20&#45;&gt;Node23 -->
<g id="edge24" class="edge">
<title>Node20&#45;&gt;Node23</title>
<path fill="none" stroke="midnightblue" d="M322.07,-263.8C338.18,-266.41 356.12,-269.31 370.46,-271.63"/>
<polygon fill="midnightblue" stroke="midnightblue" points="322.23,-260.28 311.8,-262.14 321.11,-267.19 322.23,-260.28"/>
</g>
<!-- Node88 -->
<g id="node26" class="node">
<title>Node88</title>
<g id="a_node26"><a xlink:href="class_sgl_1_1_skinnable.html" target="_top" xlink:title=" ">
<polygon fill="white" stroke="black" points="239,-76.5 239,-95.5 319,-95.5 319,-76.5 239,-76.5"/>
<text text-anchor="middle" x="279" y="-83.5" font-family="Helvetica,sans-Serif" font-size="10.00">Sgl::Skinnable</text>
</a>
</g>
</g>
<!-- Node88&#45;&gt;Node13 -->
<g id="edge26" class="edge">
<title>Node88&#45;&gt;Node13</title>
<path fill="none" stroke="midnightblue" d="M329.34,-86C341.18,-86 353.54,-86 364.43,-86"/>
<polygon fill="midnightblue" stroke="midnightblue" points="329.13,-82.5 319.13,-86 329.13,-89.5 329.13,-82.5"/>
</g>
</g>
</svg>
