<?xml version="1.0" encoding="UTF-8" standalone="no"?>
<!DOCTYPE svg PUBLIC "-//W3C//DTD SVG 1.1//EN"
 "http://www.w3.org/Graphics/SVG/1.1/DTD/svg11.dtd">
<!-- Generated by graphviz version 2.50.0 (20211204.2007)
 -->
<!-- Title: Graphical Class Hierarchy Pages: 1 -->
<svg width="657pt" height="388pt"
 viewBox="0.00 0.00 657.00 387.50" xmlns="http://www.w3.org/2000/svg" xmlns:xlink="http://www.w3.org/1999/xlink">
<g id="graph0" class="graph" transform="scale(1 1) rotate(0) translate(4 383.5)">
<title>Graphical Class Hierarchy</title>
<polygon fill="white" stroke="transparent" points="-4,4 -4,-383.5 653,-383.5 653,4 -4,4"/>
<!-- Node48 -->
<g id="node1" class="node">
<title>Node48</title>
<g id="a_node1"><a xlink:title=" ">
<polygon fill="white" stroke="#bfbfbf" points="0,-207.5 0,-226.5 74,-226.5 74,-207.5 0,-207.5"/>
<text text-anchor="middle" x="37" y="-214.5" font-family="Helvetica,sans-Serif" font-size="10.00">Sml::Listener</text>
</a>
</g>
</g>
<!-- Node0 -->
<g id="node2" class="node">
<title>Node0</title>
<g id="a_node2"><a xlink:href="class_sgl_1_1_component_event_listener.html" target="_top" xlink:title=" ">
<polygon fill="white" stroke="black" points="123,-324 123,-354 270,-354 270,-324 123,-324"/>
<text text-anchor="start" x="131" y="-342" font-family="Helvetica,sans-Serif" font-size="10.00">Sgl::ComponentEventListener</text>
<text text-anchor="middle" x="196.5" y="-331" font-family="Helvetica,sans-Serif" font-size="10.00">&lt; Button &gt;</text>
</a>
</g>
</g>
<!-- Node48&#45;&gt;Node0 -->
<g id="edge1" class="edge">
<title>Node48&#45;&gt;Node0</title>
<path fill="none" stroke="midnightblue" d="M52.65,-234.74C66.39,-250.69 88.06,-274.13 110,-291 126.6,-303.76 146.99,-315.34 163.69,-323.93"/>
<polygon fill="midnightblue" stroke="midnightblue" points="55.01,-232.12 45.88,-226.74 49.67,-236.64 55.01,-232.12"/>
</g>
<!-- Node51 -->
<g id="node4" class="node">
<title>Node51</title>
<g id="a_node4"><a xlink:href="class_sgl_1_1_component_event_listener.html" target="_top" xlink:title=" ">
<polygon fill="white" stroke="black" points="123,-251 123,-281 270,-281 270,-251 123,-251"/>
<text text-anchor="start" x="131" y="-269" font-family="Helvetica,sans-Serif" font-size="10.00">Sgl::ComponentEventListener</text>
<text text-anchor="middle" x="196.5" y="-258" font-family="Helvetica,sans-Serif" font-size="10.00">&lt; Slider &gt;</text>
</a>
</g>
</g>
<!-- Node48&#45;&gt;Node51 -->
<g id="edge3" class="edge">
<title>Node48&#45;&gt;Node51</title>
<path fill="none" stroke="midnightblue" d="M78.32,-229.54C99.3,-236.07 125.11,-244.1 147.17,-250.96"/>
<polygon fill="midnightblue" stroke="midnightblue" points="79.33,-226.19 68.74,-226.56 77.25,-232.88 79.33,-226.19"/>
</g>
<!-- Node55 -->
<g id="node8" class="node">
<title>Node55</title>
<g id="a_node8"><a xlink:href="class_sgl_1_1_component_event_listener.html" target="_top" xlink:title=" ">
<polygon fill="white" stroke="black" points="110,-136.5 110,-155.5 283,-155.5 283,-136.5 110,-136.5"/>
<text text-anchor="middle" x="196.5" y="-143.5" font-family="Helvetica,sans-Serif" font-size="10.00">Sgl::ComponentEventListener&lt; C &gt;</text>
</a>
</g>
</g>
<!-- Node48&#45;&gt;Node55 -->
<g id="edge7" class="edge">
<title>Node48&#45;&gt;Node55</title>
<path fill="none" stroke="midnightblue" d="M68.73,-203.15C99.86,-189.11 147.19,-167.78 174.34,-155.54"/>
<polygon fill="midnightblue" stroke="midnightblue" points="66.92,-200.12 59.24,-207.42 69.8,-206.51 66.92,-200.12"/>
</g>
<!-- Node64 -->
<g id="node17" class="node">
<title>Node64</title>
<g id="a_node17"><a xlink:href="class_sgl_1_1_menu_select_listener.html" target="_top" xlink:title=" ">
<polygon fill="white" stroke="black" points="135,-98.5 135,-117.5 258,-117.5 258,-98.5 135,-98.5"/>
<text text-anchor="middle" x="196.5" y="-105.5" font-family="Helvetica,sans-Serif" font-size="10.00">Sgl::MenuSelectListener</text>
</a>
</g>
</g>
<!-- Node48&#45;&gt;Node64 -->
<g id="edge16" class="edge">
<title>Node48&#45;&gt;Node64</title>
<path fill="none" stroke="midnightblue" d="M47.67,-198.52C59.52,-177.78 81.56,-144.73 110,-127 117.48,-122.33 125.97,-118.81 134.61,-116.14"/>
<polygon fill="midnightblue" stroke="midnightblue" points="44.58,-196.88 42.83,-207.33 50.71,-200.25 44.58,-196.88"/>
</g>
<!-- Node1 -->
<g id="node3" class="node">
<title>Node1</title>
<g id="a_node3"><a xlink:href="class_sgl_1_1_default_skins_1_1_button_base_skin_event_listener.html" target="_top" xlink:title=" ">
<polygon fill="white" stroke="black" points="320.5,-349 320.5,-379 467.5,-379 467.5,-349 320.5,-349"/>
<text text-anchor="start" x="328.5" y="-367" font-family="Helvetica,sans-Serif" font-size="10.00">Sgl::DefaultSkins::</text>
<text text-anchor="middle" x="394" y="-356" font-family="Helvetica,sans-Serif" font-size="10.00">ButtonBaseSkinEventListener</text>
</a>
</g>
</g>
<!-- Node0&#45;&gt;Node1 -->
<g id="edge2" class="edge">
<title>Node0&#45;&gt;Node1</title>
<path fill="none" stroke="midnightblue" d="M280.13,-349.57C293.47,-351.27 307.19,-353.03 320.27,-354.7"/>
<polygon fill="midnightblue" stroke="midnightblue" points="280.38,-346.07 270.02,-348.27 279.49,-353.01 280.38,-346.07"/>
</g>
<!-- Node52 -->
<g id="node5" class="node">
<title>Node52</title>
<g id="a_node5"><a xlink:href="class_sgl_1_1_drag_listener.html" target="_top" xlink:title=" ">
<polygon fill="white" stroke="black" points="345,-300 345,-330 443,-330 443,-300 345,-300"/>
<text text-anchor="start" x="353" y="-318" font-family="Helvetica,sans-Serif" font-size="10.00">Sgl::DragListener&lt;</text>
<text text-anchor="middle" x="394" y="-307" font-family="Helvetica,sans-Serif" font-size="10.00"> Slider &gt;</text>
</a>
</g>
</g>
<!-- Node51&#45;&gt;Node52 -->
<g id="edge4" class="edge">
<title>Node51&#45;&gt;Node52</title>
<path fill="none" stroke="midnightblue" d="M267.19,-283.47C292.93,-289.92 321.5,-297.08 344.9,-302.95"/>
<polygon fill="midnightblue" stroke="midnightblue" points="268.04,-280.07 257.49,-281.03 266.33,-286.86 268.04,-280.07"/>
</g>
<!-- Node54 -->
<g id="node7" class="node">
<title>Node54</title>
<g id="a_node7"><a xlink:href="class_sgl_1_1_default_skins_1_1_slider_skin_mouse_press_listener.html" target="_top" xlink:title=" ">
<polygon fill="white" stroke="black" points="319,-251 319,-281 469,-281 469,-251 319,-251"/>
<text text-anchor="start" x="327" y="-269" font-family="Helvetica,sans-Serif" font-size="10.00">Sgl::DefaultSkins::</text>
<text text-anchor="middle" x="394" y="-258" font-family="Helvetica,sans-Serif" font-size="10.00">SliderSkinMousePressListener</text>
</a>
</g>
</g>
<!-- Node51&#45;&gt;Node54 -->
<g id="edge6" class="edge">
<title>Node51&#45;&gt;Node54</title>
<path fill="none" stroke="midnightblue" d="M280.24,-266C293.1,-266 306.31,-266 318.97,-266"/>
<polygon fill="midnightblue" stroke="midnightblue" points="280.02,-262.5 270.02,-266 280.02,-269.5 280.02,-262.5"/>
</g>
<!-- Node53 -->
<g id="node6" class="node">
<title>Node53</title>
<g id="a_node6"><a xlink:href="class_sgl_1_1_default_skins_1_1_slider_skin_drag_listener.html" target="_top" xlink:title=" ">
<polygon fill="white" stroke="black" points="519,-300 519,-330 635,-330 635,-300 519,-300"/>
<text text-anchor="start" x="527" y="-318" font-family="Helvetica,sans-Serif" font-size="10.00">Sgl::DefaultSkins::</text>
<text text-anchor="middle" x="577" y="-307" font-family="Helvetica,sans-Serif" font-size="10.00">SliderSkinDragListener</text>
</a>
</g>
</g>
<!-- Node52&#45;&gt;Node53 -->
<g id="edge5" class="edge">
<title>Node52&#45;&gt;Node53</title>
<path fill="none" stroke="midnightblue" d="M453.1,-315C474.11,-315 497.79,-315 518.72,-315"/>
<polygon fill="midnightblue" stroke="midnightblue" points="453.03,-311.5 443.03,-315 453.03,-318.5 453.03,-311.5"/>
</g>
<!-- Node56 -->
<g id="node9" class="node">
<title>Node56</title>
<g id="a_node9"><a xlink:href="class_sgl_1_1_focus_listener.html" target="_top" xlink:title=" ">
<polygon fill="white" stroke="black" points="338.5,-202 338.5,-232 449.5,-232 449.5,-202 338.5,-202"/>
<text text-anchor="start" x="346.5" y="-220" font-family="Helvetica,sans-Serif" font-size="10.00">Sgl::FocusListener</text>
<text text-anchor="middle" x="394" y="-209" font-family="Helvetica,sans-Serif" font-size="10.00">&lt; LayeredContainer &gt;</text>
</a>
</g>
</g>
<!-- Node55&#45;&gt;Node56 -->
<g id="edge8" class="edge">
<title>Node55&#45;&gt;Node56</title>
<path fill="none" stroke="midnightblue" d="M231.55,-159.27C255.84,-168.64 289.33,-181.37 319,-192 328.19,-195.29 338.07,-198.71 347.51,-201.92"/>
<polygon fill="midnightblue" stroke="midnightblue" points="232.66,-155.94 222.07,-155.6 230.13,-162.47 232.66,-155.94"/>
</g>
<!-- Node58 -->
<g id="node11" class="node">
<title>Node58</title>
<g id="a_node11"><a xlink:href="class_sgl_1_1_focus_listener.html" target="_top" xlink:title=" ">
<polygon fill="white" stroke="black" points="345,-153 345,-183 443,-183 443,-153 345,-153"/>
<text text-anchor="start" x="353" y="-171" font-family="Helvetica,sans-Serif" font-size="10.00">Sgl::FocusListener</text>
<text text-anchor="middle" x="394" y="-160" font-family="Helvetica,sans-Serif" font-size="10.00">&lt; ContextMenu &gt;</text>
</a>
</g>
</g>
<!-- Node55&#45;&gt;Node58 -->
<g id="edge10" class="edge">
<title>Node55&#45;&gt;Node58</title>
<path fill="none" stroke="midnightblue" d="M292.22,-156.66C310.47,-158.71 328.86,-160.78 344.85,-162.58"/>
<polygon fill="midnightblue" stroke="midnightblue" points="292.44,-153.16 282.11,-155.52 291.66,-160.12 292.44,-153.16"/>
</g>
<!-- Node60 -->
<g id="node13" class="node">
<title>Node60</title>
<g id="a_node13"><a xlink:href="class_sgl_1_1_action_listener.html" target="_top" xlink:title=" ">
<polygon fill="white" stroke="black" points="331.5,-114.5 331.5,-133.5 456.5,-133.5 456.5,-114.5 331.5,-114.5"/>
<text text-anchor="middle" x="394" y="-121.5" font-family="Helvetica,sans-Serif" font-size="10.00">Sgl::ActionListener&lt; C &gt;</text>
</a>
</g>
</g>
<!-- Node55&#45;&gt;Node60 -->
<g id="edge12" class="edge">
<title>Node55&#45;&gt;Node60</title>
<path fill="none" stroke="midnightblue" d="M292.22,-135.34C305.48,-133.85 318.81,-132.35 331.24,-130.95"/>
<polygon fill="midnightblue" stroke="midnightblue" points="291.66,-131.88 282.11,-136.48 292.44,-138.84 291.66,-131.88"/>
</g>
<!-- Node61 -->
<g id="node14" class="node">
<title>Node61</title>
<g id="a_node14"><a xlink:href="class_sgl_1_1_drag_listener.html" target="_top" xlink:title=" ">
<polygon fill="white" stroke="black" points="335,-76.5 335,-95.5 453,-95.5 453,-76.5 335,-76.5"/>
<text text-anchor="middle" x="394" y="-83.5" font-family="Helvetica,sans-Serif" font-size="10.00">Sgl::DragListener&lt; C &gt;</text>
</a>
</g>
</g>
<!-- Node55&#45;&gt;Node61 -->
<g id="edge13" class="edge">
<title>Node55&#45;&gt;Node61</title>
<path fill="none" stroke="midnightblue" d="M263.06,-133.78C269.89,-131.81 276.65,-129.56 283,-127 300.39,-119.98 301.73,-112.3 319,-105 327.8,-101.28 337.5,-98.15 346.9,-95.57"/>
<polygon fill="midnightblue" stroke="midnightblue" points="261.8,-130.49 253.05,-136.46 263.61,-137.25 261.8,-130.49"/>
</g>
<!-- Node62 -->
<g id="node15" class="node">
<title>Node62</title>
<g id="a_node15"><a xlink:href="class_sgl_1_1_focus_listener.html" target="_top" xlink:title=" ">
<polygon fill="white" stroke="black" points="332,-38.5 332,-57.5 456,-57.5 456,-38.5 332,-38.5"/>
<text text-anchor="middle" x="394" y="-45.5" font-family="Helvetica,sans-Serif" font-size="10.00">Sgl::FocusListener&lt; C &gt;</text>
</a>
</g>
</g>
<!-- Node55&#45;&gt;Node62 -->
<g id="edge14" class="edge">
<title>Node55&#45;&gt;Node62</title>
<path fill="none" stroke="midnightblue" d="M274.89,-132.05C277.71,-130.53 280.43,-128.85 283,-127 308.23,-108.82 294.07,-85.59 319,-67 324.21,-63.11 330.14,-60.02 336.31,-57.56"/>
<polygon fill="midnightblue" stroke="midnightblue" points="273.16,-128.99 265.56,-136.37 276.1,-135.34 273.16,-128.99"/>
</g>
<!-- Node63 -->
<g id="node16" class="node">
<title>Node63</title>
<g id="a_node16"><a xlink:href="class_sgl_1_1_hover_listener.html" target="_top" xlink:title=" ">
<polygon fill="white" stroke="black" points="332.5,-0.5 332.5,-19.5 455.5,-19.5 455.5,-0.5 332.5,-0.5"/>
<text text-anchor="middle" x="394" y="-7.5" font-family="Helvetica,sans-Serif" font-size="10.00">Sgl::HoverListener&lt; C &gt;</text>
</a>
</g>
</g>
<!-- Node55&#45;&gt;Node63 -->
<g id="edge15" class="edge">
<title>Node55&#45;&gt;Node63</title>
<path fill="none" stroke="midnightblue" d="M277.42,-131.29C279.37,-129.97 281.23,-128.55 283,-127 317.92,-96.45 284.58,-60.12 319,-29 323.23,-25.18 328.13,-22.1 333.35,-19.63"/>
<polygon fill="midnightblue" stroke="midnightblue" points="275.4,-128.42 268.45,-136.41 278.87,-134.5 275.4,-128.42"/>
</g>
<!-- Node57 -->
<g id="node10" class="node">
<title>Node57</title>
<g id="a_node10"><a xlink:href="class_focus_received_filter.html" target="_top" xlink:title=" ">
<polygon fill="white" stroke="black" points="523.5,-207.5 523.5,-226.5 630.5,-226.5 630.5,-207.5 523.5,-207.5"/>
<text text-anchor="middle" x="577" y="-214.5" font-family="Helvetica,sans-Serif" font-size="10.00">FocusReceivedFilter</text>
</a>
</g>
</g>
<!-- Node56&#45;&gt;Node57 -->
<g id="edge9" class="edge">
<title>Node56&#45;&gt;Node57</title>
<path fill="none" stroke="midnightblue" d="M459.83,-217C480.64,-217 503.42,-217 523.25,-217"/>
<polygon fill="midnightblue" stroke="midnightblue" points="459.8,-213.5 449.8,-217 459.8,-220.5 459.8,-213.5"/>
</g>
<!-- Node59 -->
<g id="node12" class="node">
<title>Node59</title>
<g id="a_node12"><a xlink:href="class_sgl_1_1_context_menu_focus_filter.html" target="_top" xlink:title=" ">
<polygon fill="white" stroke="black" points="505,-158.5 505,-177.5 649,-177.5 649,-158.5 505,-158.5"/>
<text text-anchor="middle" x="577" y="-165.5" font-family="Helvetica,sans-Serif" font-size="10.00">Sgl::ContextMenuFocusFilter</text>
</a>
</g>
</g>
<!-- Node58&#45;&gt;Node59 -->
<g id="edge11" class="edge">
<title>Node58&#45;&gt;Node59</title>
<path fill="none" stroke="midnightblue" d="M453.07,-168C469.56,-168 487.72,-168 504.9,-168"/>
<polygon fill="midnightblue" stroke="midnightblue" points="453.03,-164.5 443.03,-168 453.03,-171.5 453.03,-164.5"/>
</g>
</g>
</svg>
