<?xml version="1.0" encoding="UTF-8" standalone="no"?>
<!DOCTYPE svg PUBLIC "-//W3C//DTD SVG 1.1//EN"
 "http://www.w3.org/Graphics/SVG/1.1/DTD/svg11.dtd">
<!-- Generated by graphviz version 2.50.0 (20211204.2007)
 -->
<!-- Title: Graphical Class Hierarchy Pages: 1 -->
<svg width="816pt" height="332pt"
 viewBox="0.00 0.00 816.00 332.00" xmlns="http://www.w3.org/2000/svg" xmlns:xlink="http://www.w3.org/1999/xlink">
<g id="graph0" class="graph" transform="scale(1 1) rotate(0) translate(4 328)">
<title>Graphical Class Hierarchy</title>
<polygon fill="white" stroke="transparent" points="-4,4 -4,-328 812,-328 812,4 -4,4"/>
<!-- Node49 -->
<g id="node1" class="node">
<title>Node49</title>
<g id="a_node1"><a xlink:title=" ">
<polygon fill="white" stroke="#bfbfbf" points="0,-171.5 0,-190.5 74,-190.5 74,-171.5 0,-171.5"/>
<text text-anchor="middle" x="37" y="-178.5" font-family="Helvetica,sans-Serif" font-size="10.00">Sml::Listener</text>
</a>
</g>
</g>
<!-- Node0 -->
<g id="node2" class="node">
<title>Node0</title>
<g id="a_node2"><a xlink:href="class_sgl_1_1_component_event_listener.html" target="_top" xlink:title=" ">
<polygon fill="white" stroke="black" points="110,-285.5 110,-304.5 304,-304.5 304,-285.5 110,-285.5"/>
<text text-anchor="middle" x="207" y="-292.5" font-family="Helvetica,sans-Serif" font-size="10.00">Sgl::ComponentEventListener&lt; Button &gt;</text>
</a>
</g>
</g>
<!-- Node49&#45;&gt;Node0 -->
<g id="edge1" class="edge">
<title>Node49&#45;&gt;Node0</title>
<path fill="none" stroke="midnightblue" d="M51.02,-198.69C64.25,-215.61 86.15,-240.87 110,-257 128.86,-269.75 152.63,-279.21 171.8,-285.49"/>
<polygon fill="midnightblue" stroke="midnightblue" points="53.77,-196.52 44.92,-190.69 48.2,-200.77 53.77,-196.52"/>
</g>
<!-- Node52 -->
<g id="node4" class="node">
<title>Node52</title>
<g id="a_node4"><a xlink:href="class_sgl_1_1_component_event_listener.html" target="_top" xlink:title=" ">
<polygon fill="white" stroke="black" points="112,-228.5 112,-247.5 302,-247.5 302,-228.5 112,-228.5"/>
<text text-anchor="middle" x="207" y="-235.5" font-family="Helvetica,sans-Serif" font-size="10.00">Sgl::ComponentEventListener&lt; Slider &gt;</text>
</a>
</g>
</g>
<!-- Node49&#45;&gt;Node52 -->
<g id="edge3" class="edge">
<title>Node49&#45;&gt;Node52</title>
<path fill="none" stroke="midnightblue" d="M75.7,-193.79C106.64,-204.29 149.77,-218.92 177.79,-228.43"/>
<polygon fill="midnightblue" stroke="midnightblue" points="76.71,-190.44 66.12,-190.54 74.46,-197.07 76.71,-190.44"/>
</g>
<!-- Node56 -->
<g id="node8" class="node">
<title>Node56</title>
<g id="a_node8"><a xlink:href="class_sgl_1_1_component_event_listener.html" target="_top" xlink:title=" ">
<polygon fill="white" stroke="black" points="120.5,-133.5 120.5,-152.5 293.5,-152.5 293.5,-133.5 120.5,-133.5"/>
<text text-anchor="middle" x="207" y="-140.5" font-family="Helvetica,sans-Serif" font-size="10.00">Sgl::ComponentEventListener&lt; C &gt;</text>
</a>
</g>
</g>
<!-- Node49&#45;&gt;Node56 -->
<g id="edge7" class="edge">
<title>Node49&#45;&gt;Node56</title>
<path fill="none" stroke="midnightblue" d="M83.99,-170.6C108.91,-164.96 139.48,-158.05 163.79,-152.55"/>
<polygon fill="midnightblue" stroke="midnightblue" points="83.02,-167.23 74.04,-172.85 84.57,-174.06 83.02,-167.23"/>
</g>
<!-- Node65 -->
<g id="node17" class="node">
<title>Node65</title>
<g id="a_node17"><a xlink:href="class_sgl_1_1_menu_select_listener.html" target="_top" xlink:title=" ">
<polygon fill="white" stroke="black" points="145.5,-95.5 145.5,-114.5 268.5,-114.5 268.5,-95.5 145.5,-95.5"/>
<text text-anchor="middle" x="207" y="-102.5" font-family="Helvetica,sans-Serif" font-size="10.00">Sgl::MenuSelectListener</text>
</a>
</g>
</g>
<!-- Node49&#45;&gt;Node65 -->
<g id="edge16" class="edge">
<title>Node49&#45;&gt;Node65</title>
<path fill="none" stroke="midnightblue" d="M54.44,-164.17C68.11,-151.19 88.7,-133.83 110,-124 121.03,-118.91 133.39,-115.18 145.47,-112.45"/>
<polygon fill="midnightblue" stroke="midnightblue" points="51.93,-161.73 47.24,-171.23 56.83,-166.73 51.93,-161.73"/>
</g>
<!-- Node1 -->
<g id="node3" class="node">
<title>Node1</title>
<g id="a_node3"><a xlink:href="class_sgl_1_1_default_skins_1_1_button_base_skin_event_listener.html" target="_top" xlink:title=" ">
<polygon fill="white" stroke="black" points="341.5,-304.5 341.5,-323.5 571.5,-323.5 571.5,-304.5 341.5,-304.5"/>
<text text-anchor="middle" x="456.5" y="-311.5" font-family="Helvetica,sans-Serif" font-size="10.00">Sgl::DefaultSkins::ButtonBaseSkinEventListener</text>
</a>
</g>
</g>
<!-- Node0&#45;&gt;Node1 -->
<g id="edge2" class="edge">
<title>Node0&#45;&gt;Node1</title>
<path fill="none" stroke="midnightblue" d="M314.15,-303.15C323.16,-303.84 332.3,-304.54 341.36,-305.24"/>
<polygon fill="midnightblue" stroke="midnightblue" points="314.28,-299.65 304.04,-302.37 313.75,-306.63 314.28,-299.65"/>
</g>
<!-- Node53 -->
<g id="node5" class="node">
<title>Node53</title>
<g id="a_node5"><a xlink:href="class_sgl_1_1_drag_listener.html" target="_top" xlink:title=" ">
<polygon fill="white" stroke="black" points="389,-266.5 389,-285.5 524,-285.5 524,-266.5 389,-266.5"/>
<text text-anchor="middle" x="456.5" y="-273.5" font-family="Helvetica,sans-Serif" font-size="10.00">Sgl::DragListener&lt; Slider &gt;</text>
</a>
</g>
</g>
<!-- Node52&#45;&gt;Node53 -->
<g id="edge4" class="edge">
<title>Node52&#45;&gt;Node53</title>
<path fill="none" stroke="midnightblue" d="M280.06,-249.06C315.95,-254.57 358.91,-261.17 393.34,-266.46"/>
<polygon fill="midnightblue" stroke="midnightblue" points="280.55,-245.6 270.14,-247.54 279.49,-252.52 280.55,-245.6"/>
</g>
<!-- Node55 -->
<g id="node7" class="node">
<title>Node55</title>
<g id="a_node7"><a xlink:href="class_sgl_1_1_default_skins_1_1_slider_skin_mouse_press_listener.html" target="_top" xlink:title=" ">
<polygon fill="white" stroke="black" points="340,-228.5 340,-247.5 573,-247.5 573,-228.5 340,-228.5"/>
<text text-anchor="middle" x="456.5" y="-235.5" font-family="Helvetica,sans-Serif" font-size="10.00">Sgl::DefaultSkins::SliderSkinMousePressListener</text>
</a>
</g>
</g>
<!-- Node52&#45;&gt;Node55 -->
<g id="edge6" class="edge">
<title>Node52&#45;&gt;Node55</title>
<path fill="none" stroke="midnightblue" d="M312.44,-238C321.51,-238 330.72,-238 339.87,-238"/>
<polygon fill="midnightblue" stroke="midnightblue" points="312.28,-234.5 302.28,-238 312.28,-241.5 312.28,-234.5"/>
</g>
<!-- Node54 -->
<g id="node6" class="node">
<title>Node54</title>
<g id="a_node6"><a xlink:href="class_sgl_1_1_default_skins_1_1_slider_skin_drag_listener.html" target="_top" xlink:title=" ">
<polygon fill="white" stroke="black" points="609,-266.5 609,-285.5 808,-285.5 808,-266.5 609,-266.5"/>
<text text-anchor="middle" x="708.5" y="-273.5" font-family="Helvetica,sans-Serif" font-size="10.00">Sgl::DefaultSkins::SliderSkinDragListener</text>
</a>
</g>
</g>
<!-- Node53&#45;&gt;Node54 -->
<g id="edge5" class="edge">
<title>Node53&#45;&gt;Node54</title>
<path fill="none" stroke="midnightblue" d="M534.38,-276C557.81,-276 583.91,-276 608.58,-276"/>
<polygon fill="midnightblue" stroke="midnightblue" points="534.17,-272.5 524.17,-276 534.17,-279.5 534.17,-272.5"/>
</g>
<!-- Node57 -->
<g id="node9" class="node">
<title>Node57</title>
<g id="a_node9"><a xlink:href="class_sgl_1_1_focus_listener.html" target="_top" xlink:title=" ">
<polygon fill="white" stroke="black" points="360,-190.5 360,-209.5 553,-209.5 553,-190.5 360,-190.5"/>
<text text-anchor="middle" x="456.5" y="-197.5" font-family="Helvetica,sans-Serif" font-size="10.00">Sgl::FocusListener&lt; LayeredContainer &gt;</text>
</a>
</g>
</g>
<!-- Node56&#45;&gt;Node57 -->
<g id="edge8" class="edge">
<title>Node56&#45;&gt;Node57</title>
<path fill="none" stroke="midnightblue" d="M247.25,-155.61C273.34,-163.66 308.47,-173.9 340,-181 355.86,-184.57 373.09,-187.77 389.28,-190.48"/>
<polygon fill="midnightblue" stroke="midnightblue" points="247.95,-152.16 237.36,-152.53 245.87,-158.84 247.95,-152.16"/>
</g>
<!-- Node59 -->
<g id="node11" class="node">
<title>Node59</title>
<g id="a_node11"><a xlink:href="class_sgl_1_1_focus_listener.html" target="_top" xlink:title=" ">
<polygon fill="white" stroke="black" points="369,-152.5 369,-171.5 544,-171.5 544,-152.5 369,-152.5"/>
<text text-anchor="middle" x="456.5" y="-159.5" font-family="Helvetica,sans-Serif" font-size="10.00">Sgl::FocusListener&lt; ContextMenu &gt;</text>
</a>
</g>
</g>
<!-- Node56&#45;&gt;Node59 -->
<g id="edge10" class="edge">
<title>Node56&#45;&gt;Node59</title>
<path fill="none" stroke="midnightblue" d="M303.61,-150.34C325.04,-151.98 347.66,-153.72 368.72,-155.34"/>
<polygon fill="midnightblue" stroke="midnightblue" points="303.76,-146.84 293.52,-149.57 303.22,-153.82 303.76,-146.84"/>
</g>
<!-- Node61 -->
<g id="node13" class="node">
<title>Node61</title>
<g id="a_node13"><a xlink:href="class_sgl_1_1_action_listener.html" target="_top" xlink:title=" ">
<polygon fill="white" stroke="black" points="394,-114.5 394,-133.5 519,-133.5 519,-114.5 394,-114.5"/>
<text text-anchor="middle" x="456.5" y="-121.5" font-family="Helvetica,sans-Serif" font-size="10.00">Sgl::ActionListener&lt; C &gt;</text>
</a>
</g>
</g>
<!-- Node56&#45;&gt;Node61 -->
<g id="edge12" class="edge">
<title>Node56&#45;&gt;Node61</title>
<path fill="none" stroke="midnightblue" d="M303.68,-135.65C333.94,-133.33 366.56,-130.83 393.79,-128.74"/>
<polygon fill="midnightblue" stroke="midnightblue" points="303.22,-132.18 293.52,-136.43 303.76,-139.16 303.22,-132.18"/>
</g>
<!-- Node62 -->
<g id="node14" class="node">
<title>Node62</title>
<g id="a_node14"><a xlink:href="class_sgl_1_1_drag_listener.html" target="_top" xlink:title=" ">
<polygon fill="white" stroke="black" points="397.5,-76.5 397.5,-95.5 515.5,-95.5 515.5,-76.5 397.5,-76.5"/>
<text text-anchor="middle" x="456.5" y="-83.5" font-family="Helvetica,sans-Serif" font-size="10.00">Sgl::DragListener&lt; C &gt;</text>
</a>
</g>
</g>
<!-- Node56&#45;&gt;Node62 -->
<g id="edge13" class="edge">
<title>Node56&#45;&gt;Node62</title>
<path fill="none" stroke="midnightblue" d="M279.65,-131.21C287.96,-129.14 296.23,-126.75 304,-124 321.05,-117.96 322.85,-110.77 340,-105 358.2,-98.88 378.71,-94.69 397.33,-91.84"/>
<polygon fill="midnightblue" stroke="midnightblue" points="278.85,-127.81 269.91,-133.5 280.45,-134.62 278.85,-127.81"/>
</g>
<!-- Node63 -->
<g id="node15" class="node">
<title>Node63</title>
<g id="a_node15"><a xlink:href="class_sgl_1_1_focus_listener.html" target="_top" xlink:title=" ">
<polygon fill="white" stroke="black" points="394.5,-38.5 394.5,-57.5 518.5,-57.5 518.5,-38.5 394.5,-38.5"/>
<text text-anchor="middle" x="456.5" y="-45.5" font-family="Helvetica,sans-Serif" font-size="10.00">Sgl::FocusListener&lt; C &gt;</text>
</a>
</g>
</g>
<!-- Node56&#45;&gt;Node63 -->
<g id="edge14" class="edge">
<title>Node56&#45;&gt;Node63</title>
<path fill="none" stroke="midnightblue" d="M294.9,-129.38C298.06,-127.77 301.11,-125.98 304,-124 328.71,-107.05 315.02,-83.55 340,-67 355.92,-56.45 375.73,-51.08 394.41,-48.52"/>
<polygon fill="midnightblue" stroke="midnightblue" points="293.45,-126.2 285.73,-133.46 296.29,-132.59 293.45,-126.2"/>
</g>
<!-- Node64 -->
<g id="node16" class="node">
<title>Node64</title>
<g id="a_node16"><a xlink:href="class_sgl_1_1_hover_listener.html" target="_top" xlink:title=" ">
<polygon fill="white" stroke="black" points="395,-0.5 395,-19.5 518,-19.5 518,-0.5 395,-0.5"/>
<text text-anchor="middle" x="456.5" y="-7.5" font-family="Helvetica,sans-Serif" font-size="10.00">Sgl::HoverListener&lt; C &gt;</text>
</a>
</g>
</g>
<!-- Node56&#45;&gt;Node64 -->
<g id="edge15" class="edge">
<title>Node56&#45;&gt;Node64</title>
<path fill="none" stroke="midnightblue" d="M298.38,-128.23C300.33,-126.92 302.21,-125.52 304,-124 338.48,-94.84 305.06,-57.59 340,-29 355.26,-16.52 375.53,-10.77 394.84,-8.44"/>
<polygon fill="midnightblue" stroke="midnightblue" points="296.38,-125.34 289.42,-133.33 299.84,-131.42 296.38,-125.34"/>
</g>
<!-- Node58 -->
<g id="node10" class="node">
<title>Node58</title>
<g id="a_node10"><a xlink:href="class_focus_received_filter.html" target="_top" xlink:title=" ">
<polygon fill="white" stroke="black" points="655,-190.5 655,-209.5 762,-209.5 762,-190.5 655,-190.5"/>
<text text-anchor="middle" x="708.5" y="-197.5" font-family="Helvetica,sans-Serif" font-size="10.00">FocusReceivedFilter</text>
</a>
</g>
</g>
<!-- Node57&#45;&gt;Node58 -->
<g id="edge9" class="edge">
<title>Node57&#45;&gt;Node58</title>
<path fill="none" stroke="midnightblue" d="M563.26,-200C594.82,-200 628.05,-200 654.65,-200"/>
<polygon fill="midnightblue" stroke="midnightblue" points="563.08,-196.5 553.08,-200 563.08,-203.5 563.08,-196.5"/>
</g>
<!-- Node60 -->
<g id="node12" class="node">
<title>Node60</title>
<g id="a_node12"><a xlink:href="class_sgl_1_1_context_menu_focus_filter.html" target="_top" xlink:title=" ">
<polygon fill="white" stroke="black" points="636.5,-152.5 636.5,-171.5 780.5,-171.5 780.5,-152.5 636.5,-152.5"/>
<text text-anchor="middle" x="708.5" y="-159.5" font-family="Helvetica,sans-Serif" font-size="10.00">Sgl::ContextMenuFocusFilter</text>
</a>
</g>
</g>
<!-- Node59&#45;&gt;Node60 -->
<g id="edge11" class="edge">
<title>Node59&#45;&gt;Node60</title>
<path fill="none" stroke="midnightblue" d="M554.56,-162C581.76,-162 610.82,-162 636.23,-162"/>
<polygon fill="midnightblue" stroke="midnightblue" points="554.24,-158.5 544.24,-162 554.24,-165.5 554.24,-158.5"/>
</g>
</g>
</svg>
