<?xml version="1.0" encoding="UTF-8" standalone="no"?>
<!DOCTYPE svg PUBLIC "-//W3C//DTD SVG 1.1//EN"
 "http://www.w3.org/Graphics/SVG/1.1/DTD/svg11.dtd">
<!-- Generated by graphviz version 2.50.0 (20211204.2007)
 -->
<!-- Title: Graphical Class Hierarchy Pages: 1 -->
<svg width="658pt" height="218pt"
 viewBox="0.00 0.00 658.00 218.00" xmlns="http://www.w3.org/2000/svg" xmlns:xlink="http://www.w3.org/1999/xlink">
<g id="graph0" class="graph" transform="scale(1 1) rotate(0) translate(4 214)">
<title>Graphical Class Hierarchy</title>
<polygon fill="white" stroke="transparent" points="-4,4 -4,-214 654,-214 654,4 -4,4"/>
<!-- Node0 -->
<g id="node1" class="node">
<title>Node0</title>
<g id="a_node1"><a xlink:href="class_sgl_1_1_skin.html" target="_top" xlink:title=" ">
<polygon fill="white" stroke="black" points="0,-76.5 0,-95.5 56,-95.5 56,-76.5 0,-76.5"/>
<text text-anchor="middle" x="28" y="-83.5" font-family="Helvetica,sans-Serif" font-size="10.00">Sgl::Skin</text>
</a>
</g>
</g>
<!-- Node1 -->
<g id="node2" class="node">
<title>Node1</title>
<g id="a_node2"><a xlink:href="class_sgl_1_1_base_skin.html" target="_top" xlink:title=" ">
<polygon fill="white" stroke="black" points="101.5,-152.5 101.5,-171.5 226.5,-171.5 226.5,-152.5 101.5,-152.5"/>
<text text-anchor="middle" x="164" y="-159.5" font-family="Helvetica,sans-Serif" font-size="10.00">Sgl::BaseSkin&lt; Button &gt;</text>
</a>
</g>
</g>
<!-- Node0&#45;&gt;Node1 -->
<g id="edge1" class="edge">
<title>Node0&#45;&gt;Node1</title>
<path fill="none" stroke="midnightblue" d="M43.82,-103.25C55.65,-115.99 73.3,-132.82 92,-143 99.06,-146.84 106.95,-149.95 114.82,-152.44"/>
<polygon fill="midnightblue" stroke="midnightblue" points="46.22,-100.69 36.93,-95.58 41.01,-105.36 46.22,-100.69"/>
</g>
<!-- Node6 -->
<g id="node7" class="node">
<title>Node6</title>
<g id="a_node7"><a xlink:href="class_sgl_1_1_base_skin.html" target="_top" xlink:title=" ">
<polygon fill="white" stroke="black" points="95.5,-114.5 95.5,-133.5 232.5,-133.5 232.5,-114.5 95.5,-114.5"/>
<text text-anchor="middle" x="164" y="-121.5" font-family="Helvetica,sans-Serif" font-size="10.00">Sgl::BaseSkin&lt; ScrollBar &gt;</text>
</a>
</g>
</g>
<!-- Node0&#45;&gt;Node6 -->
<g id="edge6" class="edge">
<title>Node0&#45;&gt;Node6</title>
<path fill="none" stroke="midnightblue" d="M65.95,-97.36C74.49,-99.92 83.55,-102.6 92,-105 103.17,-108.18 115.37,-111.5 126.45,-114.46"/>
<polygon fill="midnightblue" stroke="midnightblue" points="66.82,-93.96 56.23,-94.42 64.79,-100.66 66.82,-93.96"/>
</g>
<!-- Node8 -->
<g id="node9" class="node">
<title>Node8</title>
<g id="a_node9"><a xlink:href="class_sgl_1_1_base_skin.html" target="_top" xlink:title=" ">
<polygon fill="white" stroke="black" points="92,-76.5 92,-95.5 236,-95.5 236,-76.5 92,-76.5"/>
<text text-anchor="middle" x="164" y="-83.5" font-family="Helvetica,sans-Serif" font-size="10.00">Sgl::BaseSkin&lt; ScrollPane &gt;</text>
</a>
</g>
</g>
<!-- Node0&#45;&gt;Node8 -->
<g id="edge8" class="edge">
<title>Node0&#45;&gt;Node8</title>
<path fill="none" stroke="midnightblue" d="M66.21,-86C74.24,-86 82.99,-86 91.84,-86"/>
<polygon fill="midnightblue" stroke="midnightblue" points="66.12,-82.5 56.12,-86 66.12,-89.5 66.12,-82.5"/>
</g>
<!-- Node10 -->
<g id="node11" class="node">
<title>Node10</title>
<g id="a_node11"><a xlink:href="class_sgl_1_1_base_skin.html" target="_top" xlink:title=" ">
<polygon fill="white" stroke="black" points="103,-38.5 103,-57.5 225,-57.5 225,-38.5 103,-38.5"/>
<text text-anchor="middle" x="164" y="-45.5" font-family="Helvetica,sans-Serif" font-size="10.00">Sgl::BaseSkin&lt; Slider &gt;</text>
</a>
</g>
</g>
<!-- Node0&#45;&gt;Node10 -->
<g id="edge10" class="edge">
<title>Node0&#45;&gt;Node10</title>
<path fill="none" stroke="midnightblue" d="M65.95,-74.64C74.49,-72.08 83.55,-69.4 92,-67 103.17,-63.82 115.37,-60.5 126.45,-57.54"/>
<polygon fill="midnightblue" stroke="midnightblue" points="64.79,-71.34 56.23,-77.58 66.82,-78.04 64.79,-71.34"/>
</g>
<!-- Node12 -->
<g id="node13" class="node">
<title>Node12</title>
<g id="a_node13"><a xlink:href="class_sgl_1_1_base_skin.html" target="_top" xlink:title=" ">
<polygon fill="white" stroke="black" points="112,-0.5 112,-19.5 216,-19.5 216,-0.5 112,-0.5"/>
<text text-anchor="middle" x="164" y="-7.5" font-family="Helvetica,sans-Serif" font-size="10.00">Sgl::BaseSkin&lt; C &gt;</text>
</a>
</g>
</g>
<!-- Node0&#45;&gt;Node12 -->
<g id="edge12" class="edge">
<title>Node0&#45;&gt;Node12</title>
<path fill="none" stroke="midnightblue" d="M43.82,-68.75C55.65,-56.01 73.3,-39.18 92,-29 99.06,-25.16 106.95,-22.05 114.82,-19.56"/>
<polygon fill="midnightblue" stroke="midnightblue" points="41.01,-66.64 36.93,-76.42 46.22,-71.31 41.01,-66.64"/>
</g>
<!-- Node2 -->
<g id="node3" class="node">
<title>Node2</title>
<g id="a_node3"><a xlink:href="class_sgl_1_1_default_skins_1_1_button_base_skin.html" target="_top" xlink:title=" ">
<polygon fill="white" stroke="black" points="272,-152.5 272,-171.5 442,-171.5 442,-152.5 272,-152.5"/>
<text text-anchor="middle" x="357" y="-159.5" font-family="Helvetica,sans-Serif" font-size="10.00">Sgl::DefaultSkins::ButtonBaseSkin</text>
</a>
</g>
</g>
<!-- Node1&#45;&gt;Node2 -->
<g id="edge2" class="edge">
<title>Node1&#45;&gt;Node2</title>
<path fill="none" stroke="midnightblue" d="M237.04,-162C248.41,-162 260.25,-162 271.87,-162"/>
<polygon fill="midnightblue" stroke="midnightblue" points="236.75,-158.5 226.75,-162 236.75,-165.5 236.75,-158.5"/>
</g>
<!-- Node3 -->
<g id="node4" class="node">
<title>Node3</title>
<g id="a_node4"><a xlink:href="class_sgl_1_1_default_skins_1_1_button_plane_skin.html" target="_top" xlink:title=" ">
<polygon fill="white" stroke="black" points="478,-190.5 478,-209.5 650,-209.5 650,-190.5 478,-190.5"/>
<text text-anchor="middle" x="564" y="-197.5" font-family="Helvetica,sans-Serif" font-size="10.00">Sgl::DefaultSkins::ButtonPlaneSkin</text>
</a>
</g>
</g>
<!-- Node2&#45;&gt;Node3 -->
<g id="edge3" class="edge">
<title>Node2&#45;&gt;Node3</title>
<path fill="none" stroke="midnightblue" d="M419.6,-173.42C448.93,-178.86 483.61,-185.28 511.51,-190.46"/>
<polygon fill="midnightblue" stroke="midnightblue" points="419.94,-169.92 409.47,-171.54 418.66,-176.8 419.94,-169.92"/>
</g>
<!-- Node4 -->
<g id="node5" class="node">
<title>Node4</title>
<g id="a_node5"><a xlink:href="class_sgl_1_1_default_skins_1_1_button_skin.html" target="_top" xlink:title=" ">
<polygon fill="white" stroke="black" points="490.5,-152.5 490.5,-171.5 637.5,-171.5 637.5,-152.5 490.5,-152.5"/>
<text text-anchor="middle" x="564" y="-159.5" font-family="Helvetica,sans-Serif" font-size="10.00">Sgl::DefaultSkins::ButtonSkin</text>
</a>
</g>
</g>
<!-- Node2&#45;&gt;Node4 -->
<g id="edge4" class="edge">
<title>Node2&#45;&gt;Node4</title>
<path fill="none" stroke="midnightblue" d="M452.4,-162C465.09,-162 477.95,-162 490.19,-162"/>
<polygon fill="midnightblue" stroke="midnightblue" points="452.27,-158.5 442.27,-162 452.27,-165.5 452.27,-158.5"/>
</g>
<!-- Node5 -->
<g id="node6" class="node">
<title>Node5</title>
<g id="a_node6"><a xlink:href="class_sgl_1_1_default_skins_1_1_menu_item_skin.html" target="_top" xlink:title=" ">
<polygon fill="white" stroke="black" points="483,-114.5 483,-133.5 645,-133.5 645,-114.5 483,-114.5"/>
<text text-anchor="middle" x="564" y="-121.5" font-family="Helvetica,sans-Serif" font-size="10.00">Sgl::DefaultSkins::MenuItemSkin</text>
</a>
</g>
</g>
<!-- Node2&#45;&gt;Node5 -->
<g id="edge5" class="edge">
<title>Node2&#45;&gt;Node5</title>
<path fill="none" stroke="midnightblue" d="M419.6,-150.58C448.93,-145.14 483.61,-138.72 511.51,-133.54"/>
<polygon fill="midnightblue" stroke="midnightblue" points="418.66,-147.2 409.47,-152.46 419.94,-154.08 418.66,-147.2"/>
</g>
<!-- Node7 -->
<g id="node8" class="node">
<title>Node7</title>
<g id="a_node8"><a xlink:href="class_sgl_1_1_default_skins_1_1_scroll_bar_skin.html" target="_top" xlink:title=" ">
<polygon fill="white" stroke="black" points="278,-114.5 278,-133.5 436,-133.5 436,-114.5 278,-114.5"/>
<text text-anchor="middle" x="357" y="-121.5" font-family="Helvetica,sans-Serif" font-size="10.00">Sgl::DefaultSkins::ScrollBarSkin</text>
</a>
</g>
</g>
<!-- Node6&#45;&gt;Node7 -->
<g id="edge7" class="edge">
<title>Node6&#45;&gt;Node7</title>
<path fill="none" stroke="midnightblue" d="M242.66,-124C254.22,-124 266.14,-124 277.71,-124"/>
<polygon fill="midnightblue" stroke="midnightblue" points="242.61,-120.5 232.61,-124 242.61,-127.5 242.61,-120.5"/>
</g>
<!-- Node9 -->
<g id="node10" class="node">
<title>Node9</title>
<g id="a_node10"><a xlink:href="class_sgl_1_1_default_skins_1_1_scroll_pane_skin.html" target="_top" xlink:title=" ">
<polygon fill="white" stroke="black" points="274,-76.5 274,-95.5 440,-95.5 440,-76.5 274,-76.5"/>
<text text-anchor="middle" x="357" y="-83.5" font-family="Helvetica,sans-Serif" font-size="10.00">Sgl::DefaultSkins::ScrollPaneSkin</text>
</a>
</g>
</g>
<!-- Node8&#45;&gt;Node9 -->
<g id="edge9" class="edge">
<title>Node8&#45;&gt;Node9</title>
<path fill="none" stroke="midnightblue" d="M246.33,-86C255.45,-86 264.74,-86 273.87,-86"/>
<polygon fill="midnightblue" stroke="midnightblue" points="246.12,-82.5 236.12,-86 246.12,-89.5 246.12,-82.5"/>
</g>
<!-- Node11 -->
<g id="node12" class="node">
<title>Node11</title>
<g id="a_node12"><a xlink:href="class_sgl_1_1_default_skins_1_1_slider_skin.html" target="_top" xlink:title=" ">
<polygon fill="white" stroke="black" points="285.5,-38.5 285.5,-57.5 428.5,-57.5 428.5,-38.5 285.5,-38.5"/>
<text text-anchor="middle" x="357" y="-45.5" font-family="Helvetica,sans-Serif" font-size="10.00">Sgl::DefaultSkins::SliderSkin</text>
</a>
</g>
</g>
<!-- Node10&#45;&gt;Node11 -->
<g id="edge11" class="edge">
<title>Node10&#45;&gt;Node11</title>
<path fill="none" stroke="midnightblue" d="M235.21,-48C251.6,-48 269.05,-48 285.45,-48"/>
<polygon fill="midnightblue" stroke="midnightblue" points="235.17,-44.5 225.17,-48 235.17,-51.5 235.17,-44.5"/>
</g>
</g>
</svg>
