<?xml version="1.0" encoding="UTF-8" standalone="no"?>
<!DOCTYPE svg PUBLIC "-//W3C//DTD SVG 1.1//EN"
 "http://www.w3.org/Graphics/SVG/1.1/DTD/svg11.dtd">
<!-- Generated by graphviz version 2.50.0 (20211204.2007)
 -->
<!-- Title: Graphical Class Hierarchy Pages: 1 -->
<svg width="383pt" height="142pt"
 viewBox="0.00 0.00 383.00 142.00" xmlns="http://www.w3.org/2000/svg" xmlns:xlink="http://www.w3.org/1999/xlink">
<g id="graph0" class="graph" transform="scale(1 1) rotate(0) translate(4 138)">
<title>Graphical Class Hierarchy</title>
<polygon fill="white" stroke="transparent" points="-4,4 -4,-138 379,-138 379,4 -4,4"/>
<!-- Node5 -->
<g id="node1" class="node">
<title>Node5</title>
<g id="a_node1"><a xlink:title=" ">
<polygon fill="white" stroke="#bfbfbf" points="0,-57.5 0,-76.5 65,-76.5 65,-57.5 0,-57.5"/>
<text text-anchor="middle" x="32.5" y="-64.5" font-family="Helvetica,sans-Serif" font-size="10.00">Sml::Event</text>
</a>
</g>
</g>
<!-- Node0 -->
<g id="node2" class="node">
<title>Node0</title>
<g id="a_node2"><a xlink:href="class_sgl_1_1_action_event.html" target="_top" xlink:title=" ">
<polygon fill="white" stroke="black" points="121.5,-114.5 121.5,-133.5 211.5,-133.5 211.5,-114.5 121.5,-114.5"/>
<text text-anchor="middle" x="166.5" y="-121.5" font-family="Helvetica,sans-Serif" font-size="10.00">Sgl::ActionEvent</text>
</a>
</g>
</g>
<!-- Node5&#45;&gt;Node0 -->
<g id="edge1" class="edge">
<title>Node5&#45;&gt;Node0</title>
<path fill="none" stroke="midnightblue" d="M56.85,-81.88C69.55,-89.52 85.75,-98.56 101,-105 109.5,-108.59 118.89,-111.77 127.82,-114.46"/>
<polygon fill="midnightblue" stroke="midnightblue" points="58.64,-78.87 48.28,-76.62 54.97,-84.83 58.64,-78.87"/>
</g>
<!-- Node7 -->
<g id="node3" class="node">
<title>Node7</title>
<g id="a_node3"><a xlink:href="class_sgl_1_1_drag_event.html" target="_top" xlink:title=" ">
<polygon fill="white" stroke="black" points="125,-76.5 125,-95.5 208,-95.5 208,-76.5 125,-76.5"/>
<text text-anchor="middle" x="166.5" y="-83.5" font-family="Helvetica,sans-Serif" font-size="10.00">Sgl::DragEvent</text>
</a>
</g>
</g>
<!-- Node5&#45;&gt;Node7 -->
<g id="edge2" class="edge">
<title>Node5&#45;&gt;Node7</title>
<path fill="none" stroke="midnightblue" d="M75.14,-72.99C90.94,-75.27 108.91,-77.85 124.64,-80.12"/>
<polygon fill="midnightblue" stroke="midnightblue" points="75.51,-69.51 65.12,-71.55 74.52,-76.44 75.51,-69.51"/>
</g>
<!-- Node11 -->
<g id="node7" class="node">
<title>Node11</title>
<g id="a_node7"><a xlink:href="class_sgl_1_1_focus_lost_event.html" target="_top" xlink:title=" ">
<polygon fill="white" stroke="black" points="112.5,-38.5 112.5,-57.5 220.5,-57.5 220.5,-38.5 112.5,-38.5"/>
<text text-anchor="middle" x="166.5" y="-45.5" font-family="Helvetica,sans-Serif" font-size="10.00">Sgl::FocusLostEvent</text>
</a>
</g>
</g>
<!-- Node5&#45;&gt;Node11 -->
<g id="edge6" class="edge">
<title>Node5&#45;&gt;Node11</title>
<path fill="none" stroke="midnightblue" d="M75.17,-61C87.01,-59.3 100.07,-57.42 112.49,-55.63"/>
<polygon fill="midnightblue" stroke="midnightblue" points="74.52,-57.56 65.12,-62.45 75.51,-64.49 74.52,-57.56"/>
</g>
<!-- Node12 -->
<g id="node8" class="node">
<title>Node12</title>
<g id="a_node8"><a xlink:href="class_sgl_1_1_focus_received_event.html" target="_top" xlink:title=" ">
<polygon fill="white" stroke="black" points="101,-0.5 101,-19.5 232,-19.5 232,-0.5 101,-0.5"/>
<text text-anchor="middle" x="166.5" y="-7.5" font-family="Helvetica,sans-Serif" font-size="10.00">Sgl::FocusReceivedEvent</text>
</a>
</g>
</g>
<!-- Node5&#45;&gt;Node12 -->
<g id="edge7" class="edge">
<title>Node5&#45;&gt;Node12</title>
<path fill="none" stroke="midnightblue" d="M56.85,-52.12C69.55,-44.48 85.75,-35.44 101,-29 109.5,-25.41 118.89,-22.23 127.82,-19.54"/>
<polygon fill="midnightblue" stroke="midnightblue" points="54.97,-49.17 48.28,-57.38 58.64,-55.13 54.97,-49.17"/>
</g>
<!-- Node8 -->
<g id="node4" class="node">
<title>Node8</title>
<g id="a_node4"><a xlink:href="class_sgl_1_1_drag_end_event.html" target="_top" xlink:title=" ">
<polygon fill="white" stroke="black" points="271,-114.5 271,-133.5 372,-133.5 372,-114.5 271,-114.5"/>
<text text-anchor="middle" x="321.5" y="-121.5" font-family="Helvetica,sans-Serif" font-size="10.00">Sgl::DragEndEvent</text>
</a>
</g>
</g>
<!-- Node7&#45;&gt;Node8 -->
<g id="edge3" class="edge">
<title>Node7&#45;&gt;Node8</title>
<path fill="none" stroke="midnightblue" d="M215.98,-98.04C237.35,-103.35 262.11,-109.5 282.17,-114.48"/>
<polygon fill="midnightblue" stroke="midnightblue" points="216.66,-94.6 206.11,-95.59 214.97,-101.4 216.66,-94.6"/>
</g>
<!-- Node9 -->
<g id="node5" class="node">
<title>Node9</title>
<g id="a_node5"><a xlink:href="class_sgl_1_1_drag_move_event.html" target="_top" xlink:title=" ">
<polygon fill="white" stroke="black" points="268,-76.5 268,-95.5 375,-95.5 375,-76.5 268,-76.5"/>
<text text-anchor="middle" x="321.5" y="-83.5" font-family="Helvetica,sans-Serif" font-size="10.00">Sgl::DragMoveEvent</text>
</a>
</g>
</g>
<!-- Node7&#45;&gt;Node9 -->
<g id="edge4" class="edge">
<title>Node7&#45;&gt;Node9</title>
<path fill="none" stroke="midnightblue" d="M218.29,-86C234.21,-86 251.82,-86 267.87,-86"/>
<polygon fill="midnightblue" stroke="midnightblue" points="218.1,-82.5 208.1,-86 218.1,-89.5 218.1,-82.5"/>
</g>
<!-- Node10 -->
<g id="node6" class="node">
<title>Node10</title>
<g id="a_node6"><a xlink:href="class_sgl_1_1_drag_start_event.html" target="_top" xlink:title=" ">
<polygon fill="white" stroke="black" points="269.5,-38.5 269.5,-57.5 373.5,-57.5 373.5,-38.5 269.5,-38.5"/>
<text text-anchor="middle" x="321.5" y="-45.5" font-family="Helvetica,sans-Serif" font-size="10.00">Sgl::DragStartEvent</text>
</a>
</g>
</g>
<!-- Node7&#45;&gt;Node10 -->
<g id="edge5" class="edge">
<title>Node7&#45;&gt;Node10</title>
<path fill="none" stroke="midnightblue" d="M215.98,-73.96C237.35,-68.65 262.11,-62.5 282.17,-57.52"/>
<polygon fill="midnightblue" stroke="midnightblue" points="214.97,-70.6 206.11,-76.41 216.66,-77.4 214.97,-70.6"/>
</g>
</g>
</svg>
