<?xml version="1.0" encoding="UTF-8" standalone="no"?>
<!DOCTYPE svg PUBLIC "-//W3C//DTD SVG 1.1//EN"
 "http://www.w3.org/Graphics/SVG/1.1/DTD/svg11.dtd">
<!-- Generated by graphviz version 2.50.0 (20211204.2007)
 -->
<!-- Title: Graphical Class Hierarchy Pages: 1 -->
<svg width="392pt" height="66pt"
 viewBox="0.00 0.00 392.00 66.00" xmlns="http://www.w3.org/2000/svg" xmlns:xlink="http://www.w3.org/1999/xlink">
<g id="graph0" class="graph" transform="scale(1 1) rotate(0) translate(4 62)">
<title>Graphical Class Hierarchy</title>
<polygon fill="white" stroke="transparent" points="-4,4 -4,-62 388,-62 388,4 -4,4"/>
<!-- Node70 -->
<g id="node1" class="node">
<title>Node70</title>
<g id="a_node1"><a xlink:title=" ">
<polygon fill="white" stroke="#bfbfbf" points="0,-19.5 0,-38.5 145,-38.5 145,-19.5 0,-19.5"/>
<text text-anchor="middle" x="72.5" y="-26.5" font-family="Helvetica,sans-Serif" font-size="10.00">Sml::PropertyChangeListener</text>
</a>
</g>
</g>
<!-- Node0 -->
<g id="node2" class="node">
<title>Node0</title>
<g id="a_node2"><a xlink:href="class_sgl_1_1_default_skins_1_1_horizontal_scroll_listener.html" target="_top" xlink:title=" ">
<polygon fill="white" stroke="black" points="181,-38.5 181,-57.5 384,-57.5 384,-38.5 181,-38.5"/>
<text text-anchor="middle" x="282.5" y="-45.5" font-family="Helvetica,sans-Serif" font-size="10.00">Sgl::DefaultSkins::HorizontalScrollListener</text>
</a>
</g>
</g>
<!-- Node70&#45;&gt;Node0 -->
<g id="edge1" class="edge">
<title>Node70&#45;&gt;Node0</title>
<path fill="none" stroke="midnightblue" d="M155.2,-36.46C163.59,-37.23 172.19,-38.01 180.75,-38.8"/>
<polygon fill="midnightblue" stroke="midnightblue" points="155.36,-32.96 145.08,-35.54 154.72,-39.93 155.36,-32.96"/>
</g>
<!-- Node72 -->
<g id="node3" class="node">
<title>Node72</title>
<g id="a_node3"><a xlink:href="class_sgl_1_1_default_skins_1_1_vertical_scroll_listener.html" target="_top" xlink:title=" ">
<polygon fill="white" stroke="black" points="187,-0.5 187,-19.5 378,-19.5 378,-0.5 187,-0.5"/>
<text text-anchor="middle" x="282.5" y="-7.5" font-family="Helvetica,sans-Serif" font-size="10.00">Sgl::DefaultSkins::VerticalScrollListener</text>
</a>
</g>
</g>
<!-- Node70&#45;&gt;Node72 -->
<g id="edge2" class="edge">
<title>Node70&#45;&gt;Node72</title>
<path fill="none" stroke="midnightblue" d="M155.26,-21.53C165.56,-20.59 176.17,-19.62 186.64,-18.66"/>
<polygon fill="midnightblue" stroke="midnightblue" points="154.72,-18.07 145.08,-22.46 155.36,-25.04 154.72,-18.07"/>
</g>
</g>
</svg>
