<?xml version="1.0" encoding="UTF-8" standalone="no"?>
<!DOCTYPE svg PUBLIC "-//W3C//DTD SVG 1.1//EN"
 "http://www.w3.org/Graphics/SVG/1.1/DTD/svg11.dtd">
<!-- Generated by graphviz version 2.50.0 (20211204.2007)
 -->
<!-- Title: insets.h Pages: 1 -->
<svg width="1341pt" height="476pt"
 viewBox="0.00 0.00 1340.50 476.00" xmlns="http://www.w3.org/2000/svg" xmlns:xlink="http://www.w3.org/1999/xlink">
<g id="graph0" class="graph" transform="scale(1 1) rotate(0) translate(4 472)">
<title>insets.h</title>
<polygon fill="white" stroke="transparent" points="-4,4 -4,-472 1336.5,-472 1336.5,4 -4,4"/>
<!-- Node1 -->
<g id="node1" class="node">
<title>Node1</title>
<g id="a_node1"><a xlink:title=" ">
<polygon fill="#bfbfbf" stroke="black" points="375,-448.5 375,-467.5 426,-467.5 426,-448.5 375,-448.5"/>
<text text-anchor="middle" x="400.5" y="-455.5" font-family="Helvetica,sans-Serif" font-size="10.00">insets.h</text>
</a>
</g>
</g>
<!-- Node2 -->
<g id="node2" class="node">
<title>Node2</title>
<g id="a_node2"><a xlink:href="border_8h.html" target="_top" xlink:title=" ">
<polygon fill="white" stroke="black" points="264,-392.5 264,-411.5 315,-411.5 315,-392.5 264,-392.5"/>
<text text-anchor="middle" x="289.5" y="-399.5" font-family="Helvetica,sans-Serif" font-size="10.00">border.h</text>
</a>
</g>
</g>
<!-- Node1&#45;&gt;Node2 -->
<g id="edge1" class="edge">
<title>Node1&#45;&gt;Node2</title>
<path fill="none" stroke="midnightblue" d="M373.49,-443.86C352.91,-433.85 325.16,-420.35 307.29,-411.65"/>
<polygon fill="midnightblue" stroke="midnightblue" points="372.14,-447.1 382.67,-448.32 375.2,-440.8 372.14,-447.1"/>
</g>
<!-- Node4 -->
<g id="node4" class="node">
<title>Node4</title>
<g id="a_node4"><a xlink:href="default__skins_8h.html" target="_top" xlink:title=" ">
<polygon fill="white" stroke="black" points="214,-224.5 214,-243.5 297,-243.5 297,-224.5 214,-224.5"/>
<text text-anchor="middle" x="255.5" y="-231.5" font-family="Helvetica,sans-Serif" font-size="10.00">default_skins.h</text>
</a>
</g>
</g>
<!-- Node1&#45;&gt;Node4 -->
<g id="edge62" class="edge">
<title>Node1&#45;&gt;Node4</title>
<path fill="none" stroke="midnightblue" d="M392.74,-439C377.95,-405.74 343.51,-333.23 302.5,-280 291.61,-265.86 276.26,-252.03 266.1,-243.52"/>
<polygon fill="midnightblue" stroke="midnightblue" points="389.62,-440.59 396.84,-448.34 396.03,-437.78 389.62,-440.59"/>
</g>
<!-- Node18 -->
<g id="node18" class="node">
<title>Node18</title>
<g id="a_node18"><a xlink:href="parent_8h.html" target="_top" xlink:title=" ">
<polygon fill="white" stroke="black" points="948.5,-336.5 948.5,-355.5 1000.5,-355.5 1000.5,-336.5 948.5,-336.5"/>
<text text-anchor="middle" x="974.5" y="-343.5" font-family="Helvetica,sans-Serif" font-size="10.00">parent.h</text>
</a>
</g>
</g>
<!-- Node1&#45;&gt;Node18 -->
<g id="edge64" class="edge">
<title>Node1&#45;&gt;Node18</title>
<path fill="none" stroke="midnightblue" d="M410.29,-439.74C420.08,-424.32 436.65,-402.56 457.5,-392 544.71,-347.83 855.55,-346.21 948.23,-346.74"/>
<polygon fill="midnightblue" stroke="midnightblue" points="407.26,-438 405.1,-448.38 413.26,-441.61 407.26,-438"/>
</g>
<!-- Node45 -->
<g id="node45" class="node">
<title>Node45</title>
<g id="a_node45"><a xlink:href="insets_8cpp.html" target="_top" xlink:title=" ">
<polygon fill="white" stroke="black" points="466.5,-392.5 466.5,-411.5 528.5,-411.5 528.5,-392.5 466.5,-392.5"/>
<text text-anchor="middle" x="497.5" y="-399.5" font-family="Helvetica,sans-Serif" font-size="10.00">insets.cpp</text>
</a>
</g>
</g>
<!-- Node1&#45;&gt;Node45 -->
<g id="edge63" class="edge">
<title>Node1&#45;&gt;Node45</title>
<path fill="none" stroke="midnightblue" d="M424.84,-443.45C442.74,-433.48 466.55,-420.23 481.95,-411.65"/>
<polygon fill="midnightblue" stroke="midnightblue" points="423.12,-440.4 416.08,-448.32 426.52,-446.52 423.12,-440.4"/>
</g>
<!-- Node46 -->
<g id="node46" class="node">
<title>Node46</title>
<g id="a_node46"><a xlink:href="skin_8h.html" target="_top" xlink:title=" ">
<polygon fill="white" stroke="black" points="389,-336.5 389,-355.5 432,-355.5 432,-336.5 389,-336.5"/>
<text text-anchor="middle" x="410.5" y="-343.5" font-family="Helvetica,sans-Serif" font-size="10.00">skin.h</text>
</a>
</g>
</g>
<!-- Node1&#45;&gt;Node46 -->
<g id="edge65" class="edge">
<title>Node1&#45;&gt;Node46</title>
<path fill="none" stroke="midnightblue" d="M402.2,-438.35C404.39,-414.25 408.11,-373.31 409.72,-355.59"/>
<polygon fill="midnightblue" stroke="midnightblue" points="398.7,-438.09 401.28,-448.37 405.68,-438.73 398.7,-438.09"/>
</g>
<!-- Node3 -->
<g id="node3" class="node">
<title>Node3</title>
<g id="a_node3"><a xlink:href="border_8cpp.html" target="_top" xlink:title=" ">
<polygon fill="white" stroke="black" points="215.5,-336.5 215.5,-355.5 277.5,-355.5 277.5,-336.5 215.5,-336.5"/>
<text text-anchor="middle" x="246.5" y="-343.5" font-family="Helvetica,sans-Serif" font-size="10.00">border.cpp</text>
</a>
</g>
</g>
<!-- Node2&#45;&gt;Node3 -->
<g id="edge2" class="edge">
<title>Node2&#45;&gt;Node3</title>
<path fill="none" stroke="midnightblue" d="M276.08,-384.14C268.59,-374.74 259.56,-363.4 253.47,-355.75"/>
<polygon fill="midnightblue" stroke="midnightblue" points="273.43,-386.44 282.4,-392.08 278.91,-382.08 273.43,-386.44"/>
</g>
<!-- Node2&#45;&gt;Node4 -->
<g id="edge3" class="edge">
<title>Node2&#45;&gt;Node4</title>
<path fill="none" stroke="midnightblue" d="M291.99,-382.23C294.52,-357.97 296.64,-314.73 285.5,-280 280.97,-265.87 270.6,-252.04 263.33,-243.52"/>
<polygon fill="midnightblue" stroke="midnightblue" points="288.51,-381.87 290.81,-392.21 295.46,-382.69 288.51,-381.87"/>
</g>
<!-- Node2&#45;&gt;Node18 -->
<g id="edge20" class="edge">
<title>Node2&#45;&gt;Node18</title>
<path fill="none" stroke="midnightblue" d="M325.36,-398.17C447.09,-388.58 842.81,-357.38 948.4,-349.06"/>
<polygon fill="midnightblue" stroke="midnightblue" points="324.8,-394.71 315.1,-398.98 325.35,-401.68 324.8,-394.71"/>
</g>
<!-- Node38 -->
<g id="node38" class="node">
<title>Node38</title>
<g id="a_node38"><a xlink:href="shape_8h.html" target="_top" xlink:title=" ">
<polygon fill="white" stroke="black" points="137,-336.5 137,-355.5 188,-355.5 188,-336.5 137,-336.5"/>
<text text-anchor="middle" x="162.5" y="-343.5" font-family="Helvetica,sans-Serif" font-size="10.00">shape.h</text>
</a>
</g>
</g>
<!-- Node2&#45;&gt;Node38 -->
<g id="edge52" class="edge">
<title>Node2&#45;&gt;Node38</title>
<path fill="none" stroke="midnightblue" d="M260.11,-388.5C236.3,-378.38 203.39,-364.39 182.53,-355.52"/>
<polygon fill="midnightblue" stroke="midnightblue" points="258.8,-391.75 269.38,-392.44 261.54,-385.31 258.8,-391.75"/>
</g>
<!-- Node5 -->
<g id="node5" class="node">
<title>Node5</title>
<g id="a_node5"><a xlink:href="button_8h.html" target="_top" xlink:title=" ">
<polygon fill="white" stroke="black" points="211.5,-168.5 211.5,-187.5 263.5,-187.5 263.5,-168.5 211.5,-168.5"/>
<text text-anchor="middle" x="237.5" y="-175.5" font-family="Helvetica,sans-Serif" font-size="10.00">button.h</text>
</a>
</g>
</g>
<!-- Node4&#45;&gt;Node5 -->
<g id="edge4" class="edge">
<title>Node4&#45;&gt;Node5</title>
<path fill="none" stroke="midnightblue" d="M249.3,-214.4C246.29,-205.36 242.81,-194.94 240.42,-187.75"/>
<polygon fill="midnightblue" stroke="midnightblue" points="246.04,-215.7 252.53,-224.08 252.69,-213.49 246.04,-215.7"/>
</g>
<!-- Node8 -->
<g id="node8" class="node">
<title>Node8</title>
<g id="a_node8"><a xlink:href="default__skins_8cpp.html" target="_top" xlink:title=" ">
<polygon fill="white" stroke="black" points="577,-112.5 577,-131.5 670,-131.5 670,-112.5 577,-112.5"/>
<text text-anchor="middle" x="623.5" y="-119.5" font-family="Helvetica,sans-Serif" font-size="10.00">default_skins.cpp</text>
</a>
</g>
</g>
<!-- Node4&#45;&gt;Node8 -->
<g id="edge15" class="edge">
<title>Node4&#45;&gt;Node8</title>
<path fill="none" stroke="midnightblue" d="M265.52,-215.1C275.02,-199.92 290.77,-178.93 310.5,-168 355.29,-143.2 500.94,-130.65 576.72,-125.67"/>
<polygon fill="midnightblue" stroke="midnightblue" points="262.29,-213.68 260.19,-224.07 268.31,-217.25 262.29,-213.68"/>
</g>
<!-- Node14 -->
<g id="node14" class="node">
<title>Node14</title>
<g id="a_node14"><a xlink:href="scroll__bar_8cpp.html" target="_top" xlink:title=" ">
<polygon fill="white" stroke="black" points="320,-168.5 320,-187.5 397,-187.5 397,-168.5 320,-168.5"/>
<text text-anchor="middle" x="358.5" y="-175.5" font-family="Helvetica,sans-Serif" font-size="10.00">scroll_bar.cpp</text>
</a>
</g>
</g>
<!-- Node4&#45;&gt;Node14 -->
<g id="edge16" class="edge">
<title>Node4&#45;&gt;Node14</title>
<path fill="none" stroke="midnightblue" d="M281.08,-219.59C300.12,-209.61 325.56,-196.27 341.99,-187.65"/>
<polygon fill="midnightblue" stroke="midnightblue" points="279.28,-216.58 272.05,-224.32 282.53,-222.78 279.28,-216.58"/>
</g>
<!-- Node15 -->
<g id="node15" class="node">
<title>Node15</title>
<g id="a_node15"><a xlink:href="scroll__pane_8cpp.html" target="_top" xlink:title=" ">
<polygon fill="white" stroke="black" points="415,-168.5 415,-187.5 500,-187.5 500,-168.5 415,-168.5"/>
<text text-anchor="middle" x="457.5" y="-175.5" font-family="Helvetica,sans-Serif" font-size="10.00">scroll_pane.cpp</text>
</a>
</g>
</g>
<!-- Node4&#45;&gt;Node15 -->
<g id="edge17" class="edge">
<title>Node4&#45;&gt;Node15</title>
<path fill="none" stroke="midnightblue" d="M297.29,-221.83C335.43,-211.63 390.98,-196.78 425.64,-187.52"/>
<polygon fill="midnightblue" stroke="midnightblue" points="296.26,-218.48 287.51,-224.44 298.07,-225.24 296.26,-218.48"/>
</g>
<!-- Node16 -->
<g id="node16" class="node">
<title>Node16</title>
<g id="a_node16"><a xlink:href="slider_8cpp.html" target="_top" xlink:title=" ">
<polygon fill="white" stroke="black" points="518.5,-168.5 518.5,-187.5 576.5,-187.5 576.5,-168.5 518.5,-168.5"/>
<text text-anchor="middle" x="547.5" y="-175.5" font-family="Helvetica,sans-Serif" font-size="10.00">slider.cpp</text>
</a>
</g>
</g>
<!-- Node4&#45;&gt;Node16 -->
<g id="edge18" class="edge">
<title>Node4&#45;&gt;Node16</title>
<path fill="none" stroke="midnightblue" d="M307.12,-223.72C397.8,-207.74 422.42,-205.98 509.5,-188 512.42,-187.4 515.46,-186.74 518.49,-186.05"/>
<polygon fill="midnightblue" stroke="midnightblue" points="306.48,-220.28 297.24,-225.48 307.7,-227.18 306.48,-220.28"/>
</g>
<!-- Node17 -->
<g id="node17" class="node">
<title>Node17</title>
<g id="a_node17"><a xlink:href="text_8cpp.html" target="_top" xlink:title=" ">
<polygon fill="white" stroke="black" points="104.5,-168.5 104.5,-187.5 156.5,-187.5 156.5,-168.5 104.5,-168.5"/>
<text text-anchor="middle" x="130.5" y="-175.5" font-family="Helvetica,sans-Serif" font-size="10.00">text.cpp</text>
</a>
</g>
</g>
<!-- Node4&#45;&gt;Node17 -->
<g id="edge19" class="edge">
<title>Node4&#45;&gt;Node17</title>
<path fill="none" stroke="midnightblue" d="M226.26,-220.37C202.85,-210.26 170.66,-196.35 150.21,-187.52"/>
<polygon fill="midnightblue" stroke="midnightblue" points="225.13,-223.69 235.69,-224.44 227.9,-217.26 225.13,-223.69"/>
</g>
<!-- Node6 -->
<g id="node6" class="node">
<title>Node6</title>
<g id="a_node6"><a xlink:href="button_8cpp.html" target="_top" xlink:title=" ">
<polygon fill="white" stroke="black" points="206.5,-112.5 206.5,-131.5 268.5,-131.5 268.5,-112.5 206.5,-112.5"/>
<text text-anchor="middle" x="237.5" y="-119.5" font-family="Helvetica,sans-Serif" font-size="10.00">button.cpp</text>
</a>
</g>
</g>
<!-- Node5&#45;&gt;Node6 -->
<g id="edge5" class="edge">
<title>Node5&#45;&gt;Node6</title>
<path fill="none" stroke="midnightblue" d="M237.5,-157.8C237.5,-148.91 237.5,-138.78 237.5,-131.75"/>
<polygon fill="midnightblue" stroke="midnightblue" points="234,-158.08 237.5,-168.08 241,-158.08 234,-158.08"/>
</g>
<!-- Node7 -->
<g id="node7" class="node">
<title>Node7</title>
<g id="a_node7"><a xlink:href="context__menu_8cpp.html" target="_top" xlink:title=" ">
<polygon fill="white" stroke="black" points="691,-0.5 691,-19.5 788,-19.5 788,-0.5 691,-0.5"/>
<text text-anchor="middle" x="739.5" y="-7.5" font-family="Helvetica,sans-Serif" font-size="10.00">context_menu.cpp</text>
</a>
</g>
</g>
<!-- Node5&#45;&gt;Node7 -->
<g id="edge6" class="edge">
<title>Node5&#45;&gt;Node7</title>
<path fill="none" stroke="midnightblue" d="M272.95,-165.28C368.62,-133.64 630.47,-47.06 713.72,-19.52"/>
<polygon fill="midnightblue" stroke="midnightblue" points="271.83,-161.96 263.43,-168.42 274.03,-168.61 271.83,-161.96"/>
</g>
<!-- Node5&#45;&gt;Node8 -->
<g id="edge7" class="edge">
<title>Node5&#45;&gt;Node8</title>
<path fill="none" stroke="midnightblue" d="M273.66,-168.71C274.96,-168.46 276.24,-168.22 277.5,-168 383.97,-149.14 510.18,-134.7 576.84,-127.69"/>
<polygon fill="midnightblue" stroke="midnightblue" points="272.78,-165.32 263.68,-170.75 274.18,-172.17 272.78,-165.32"/>
</g>
<!-- Node9 -->
<g id="node9" class="node">
<title>Node9</title>
<g id="a_node9"><a xlink:href="menu__bar_8h.html" target="_top" xlink:title=" ">
<polygon fill="white" stroke="black" points="768,-112.5 768,-131.5 835,-131.5 835,-112.5 768,-112.5"/>
<text text-anchor="middle" x="801.5" y="-119.5" font-family="Helvetica,sans-Serif" font-size="10.00">menu_bar.h</text>
</a>
</g>
</g>
<!-- Node5&#45;&gt;Node9 -->
<g id="edge8" class="edge">
<title>Node5&#45;&gt;Node9</title>
<path fill="none" stroke="midnightblue" d="M274.08,-172.26C285.72,-170.82 298.64,-169.27 310.5,-168 482.21,-149.55 688.23,-132.23 767.83,-125.72"/>
<polygon fill="midnightblue" stroke="midnightblue" points="273.32,-168.83 263.83,-173.55 274.19,-175.78 273.32,-168.83"/>
</g>
<!-- Node10 -->
<g id="node10" class="node">
<title>Node10</title>
<g id="a_node10"><a xlink:href="menu__bar_8cpp.html" target="_top" xlink:title=" ">
<polygon fill="white" stroke="black" points="812,-0.5 812,-19.5 889,-19.5 889,-0.5 812,-0.5"/>
<text text-anchor="middle" x="850.5" y="-7.5" font-family="Helvetica,sans-Serif" font-size="10.00">menu_bar.cpp</text>
</a>
</g>
</g>
<!-- Node9&#45;&gt;Node10 -->
<g id="edge9" class="edge">
<title>Node9&#45;&gt;Node10</title>
<path fill="none" stroke="midnightblue" d="M805.76,-102.47C809.15,-89.18 814.5,-71.05 821.5,-56 827.77,-42.52 837.53,-28.31 843.97,-19.55"/>
<polygon fill="midnightblue" stroke="midnightblue" points="802.33,-101.77 803.37,-112.31 809.13,-103.42 802.33,-101.77"/>
</g>
<!-- Node11 -->
<g id="node11" class="node">
<title>Node11</title>
<g id="a_node11"><a xlink:href="scene_8h.html" target="_top" xlink:title=" ">
<polygon fill="white" stroke="black" points="830,-56.5 830,-75.5 881,-75.5 881,-56.5 830,-56.5"/>
<text text-anchor="middle" x="855.5" y="-63.5" font-family="Helvetica,sans-Serif" font-size="10.00">scene.h</text>
</a>
</g>
</g>
<!-- Node9&#45;&gt;Node11 -->
<g id="edge10" class="edge">
<title>Node9&#45;&gt;Node11</title>
<path fill="none" stroke="midnightblue" d="M817.5,-105C827.07,-95.43 838.86,-83.64 846.75,-75.75"/>
<polygon fill="midnightblue" stroke="midnightblue" points="815.01,-102.54 810.42,-112.08 819.96,-107.49 815.01,-102.54"/>
</g>
<!-- Node11&#45;&gt;Node7 -->
<g id="edge12" class="edge">
<title>Node11&#45;&gt;Node7</title>
<path fill="none" stroke="midnightblue" d="M827.78,-52.1C806.11,-42.01 776.6,-28.27 757.79,-19.52"/>
<polygon fill="midnightblue" stroke="midnightblue" points="826.58,-55.4 837.12,-56.44 829.53,-49.05 826.58,-55.4"/>
</g>
<!-- Node11&#45;&gt;Node10 -->
<g id="edge13" class="edge">
<title>Node11&#45;&gt;Node10</title>
<path fill="none" stroke="midnightblue" d="M853.75,-46.1C852.92,-37.14 851.97,-26.86 851.31,-19.75"/>
<polygon fill="midnightblue" stroke="midnightblue" points="850.27,-46.45 854.67,-56.08 857.24,-45.8 850.27,-46.45"/>
</g>
<!-- Node12 -->
<g id="node12" class="node">
<title>Node12</title>
<g id="a_node12"><a xlink:href="component_8cpp.html" target="_top" xlink:title=" ">
<polygon fill="white" stroke="black" points="1146,-0.5 1146,-19.5 1229,-19.5 1229,-0.5 1146,-0.5"/>
<text text-anchor="middle" x="1187.5" y="-7.5" font-family="Helvetica,sans-Serif" font-size="10.00">component.cpp</text>
</a>
</g>
</g>
<!-- Node11&#45;&gt;Node12 -->
<g id="edge11" class="edge">
<title>Node11&#45;&gt;Node12</title>
<path fill="none" stroke="midnightblue" d="M891.06,-59.22C952.93,-49.15 1080.07,-28.47 1145.92,-17.76"/>
<polygon fill="midnightblue" stroke="midnightblue" points="890.31,-55.79 881,-60.85 891.43,-62.7 890.31,-55.79"/>
</g>
<!-- Node13 -->
<g id="node13" class="node">
<title>Node13</title>
<g id="a_node13"><a xlink:href="scene_8cpp.html" target="_top" xlink:title=" ">
<polygon fill="white" stroke="black" points="919.5,-0.5 919.5,-19.5 981.5,-19.5 981.5,-0.5 919.5,-0.5"/>
<text text-anchor="middle" x="950.5" y="-7.5" font-family="Helvetica,sans-Serif" font-size="10.00">scene.cpp</text>
</a>
</g>
</g>
<!-- Node11&#45;&gt;Node13 -->
<g id="edge14" class="edge">
<title>Node11&#45;&gt;Node13</title>
<path fill="none" stroke="midnightblue" d="M879.82,-51.18C897.3,-41.24 920.33,-28.15 935.27,-19.65"/>
<polygon fill="midnightblue" stroke="midnightblue" points="877.73,-48.34 870.76,-56.32 881.19,-54.43 877.73,-48.34"/>
</g>
<!-- Node18&#45;&gt;Node12 -->
<g id="edge21" class="edge">
<title>Node18&#45;&gt;Node12</title>
<path fill="none" stroke="midnightblue" d="M1010.65,-341.66C1101.57,-332.27 1332.5,-301.84 1332.5,-235 1332.5,-235 1332.5,-235 1332.5,-121 1332.5,-64.44 1261.61,-33.2 1218.96,-19.52"/>
<polygon fill="midnightblue" stroke="midnightblue" points="1010.13,-338.2 1000.53,-342.68 1010.83,-345.16 1010.13,-338.2"/>
</g>
<!-- Node18&#45;&gt;Node13 -->
<g id="edge51" class="edge">
<title>Node18&#45;&gt;Node13</title>
<path fill="none" stroke="midnightblue" d="M974.5,-326.25C974.5,-304.36 974.5,-267.05 974.5,-235 974.5,-235 974.5,-235 974.5,-121 974.5,-82.49 960.29,-38.11 953.74,-19.7"/>
<polygon fill="midnightblue" stroke="midnightblue" points="971,-326.44 974.5,-336.44 978,-326.44 971,-326.44"/>
</g>
<!-- Node19 -->
<g id="node19" class="node">
<title>Node19</title>
<g id="a_node19"><a xlink:href="container_8h.html" target="_top" xlink:title=" ">
<polygon fill="white" stroke="black" points="1082.5,-280.5 1082.5,-299.5 1146.5,-299.5 1146.5,-280.5 1082.5,-280.5"/>
<text text-anchor="middle" x="1114.5" y="-287.5" font-family="Helvetica,sans-Serif" font-size="10.00">container.h</text>
</a>
</g>
</g>
<!-- Node18&#45;&gt;Node19 -->
<g id="edge22" class="edge">
<title>Node18&#45;&gt;Node19</title>
<path fill="none" stroke="midnightblue" d="M1006.2,-332.77C1032.5,-322.63 1069.22,-308.47 1092.42,-299.52"/>
<polygon fill="midnightblue" stroke="midnightblue" points="1004.75,-329.58 996.68,-336.44 1007.27,-336.11 1004.75,-329.58"/>
</g>
<!-- Node30 -->
<g id="node30" class="node">
<title>Node30</title>
<g id="a_node30"><a xlink:href="control_8h.html" target="_top" xlink:title=" ">
<polygon fill="white" stroke="black" points="503.5,-280.5 503.5,-299.5 557.5,-299.5 557.5,-280.5 503.5,-280.5"/>
<text text-anchor="middle" x="530.5" y="-287.5" font-family="Helvetica,sans-Serif" font-size="10.00">control.h</text>
</a>
</g>
</g>
<!-- Node18&#45;&gt;Node30 -->
<g id="edge36" class="edge">
<title>Node18&#45;&gt;Node30</title>
<path fill="none" stroke="midnightblue" d="M938.25,-340.59C851.65,-330.06 634.28,-303.62 557.71,-294.31"/>
<polygon fill="midnightblue" stroke="midnightblue" points="938.03,-344.09 948.38,-341.82 938.88,-337.14 938.03,-344.09"/>
</g>
<!-- Node37 -->
<g id="node37" class="node">
<title>Node37</title>
<g id="a_node37"><a xlink:href="parent_8cpp.html" target="_top" xlink:title=" ">
<polygon fill="white" stroke="black" points="1002.5,-280.5 1002.5,-299.5 1064.5,-299.5 1064.5,-280.5 1002.5,-280.5"/>
<text text-anchor="middle" x="1033.5" y="-287.5" font-family="Helvetica,sans-Serif" font-size="10.00">parent.cpp</text>
</a>
</g>
</g>
<!-- Node18&#45;&gt;Node37 -->
<g id="edge50" class="edge">
<title>Node18&#45;&gt;Node37</title>
<path fill="none" stroke="midnightblue" d="M991.39,-329.54C1001.91,-319.91 1015.07,-307.87 1023.85,-299.83"/>
<polygon fill="midnightblue" stroke="midnightblue" points="988.99,-326.99 983.98,-336.32 993.72,-332.15 988.99,-326.99"/>
</g>
<!-- Node20 -->
<g id="node20" class="node">
<title>Node20</title>
<g id="a_node20"><a xlink:href="box__container_8h.html" target="_top" xlink:title=" ">
<polygon fill="white" stroke="black" points="835,-224.5 835,-243.5 920,-243.5 920,-224.5 835,-224.5"/>
<text text-anchor="middle" x="877.5" y="-231.5" font-family="Helvetica,sans-Serif" font-size="10.00">box_container.h</text>
</a>
</g>
</g>
<!-- Node19&#45;&gt;Node20 -->
<g id="edge23" class="edge">
<title>Node19&#45;&gt;Node20</title>
<path fill="none" stroke="midnightblue" d="M1072.08,-279.34C1027.42,-269.16 957.76,-253.29 915.03,-243.55"/>
<polygon fill="midnightblue" stroke="midnightblue" points="1071.52,-282.8 1082.04,-281.6 1073.07,-275.97 1071.52,-282.8"/>
</g>
<!-- Node23 -->
<g id="node23" class="node">
<title>Node23</title>
<g id="a_node23"><a xlink:href="container_8cpp.html" target="_top" xlink:title=" ">
<polygon fill="white" stroke="black" points="1008.5,-224.5 1008.5,-243.5 1082.5,-243.5 1082.5,-224.5 1008.5,-224.5"/>
<text text-anchor="middle" x="1045.5" y="-231.5" font-family="Helvetica,sans-Serif" font-size="10.00">container.cpp</text>
</a>
</g>
</g>
<!-- Node19&#45;&gt;Node23 -->
<g id="edge29" class="edge">
<title>Node19&#45;&gt;Node23</title>
<path fill="none" stroke="midnightblue" d="M1095.46,-274.1C1083.04,-264.38 1067.26,-252.03 1056.79,-243.83"/>
<polygon fill="midnightblue" stroke="midnightblue" points="1093.38,-276.92 1103.41,-280.32 1097.7,-271.4 1093.38,-276.92"/>
</g>
<!-- Node24 -->
<g id="node24" class="node">
<title>Node24</title>
<g id="a_node24"><a xlink:href="layered__container_8h.html" target="_top" xlink:title=" ">
<polygon fill="white" stroke="black" points="1101,-224.5 1101,-243.5 1202,-243.5 1202,-224.5 1101,-224.5"/>
<text text-anchor="middle" x="1151.5" y="-231.5" font-family="Helvetica,sans-Serif" font-size="10.00">layered_container.h</text>
</a>
</g>
</g>
<!-- Node19&#45;&gt;Node24 -->
<g id="edge30" class="edge">
<title>Node19&#45;&gt;Node24</title>
<path fill="none" stroke="midnightblue" d="M1126.45,-271.57C1132.81,-262.27 1140.37,-251.25 1145.5,-243.75"/>
<polygon fill="midnightblue" stroke="midnightblue" points="1123.37,-269.86 1120.61,-280.08 1129.15,-273.81 1123.37,-269.86"/>
</g>
<!-- Node28 -->
<g id="node28" class="node">
<title>Node28</title>
<g id="a_node28"><a xlink:href="tile__pane_8h.html" target="_top" xlink:title=" ">
<polygon fill="white" stroke="black" points="1228.5,-224.5 1228.5,-243.5 1292.5,-243.5 1292.5,-224.5 1228.5,-224.5"/>
<text text-anchor="middle" x="1260.5" y="-231.5" font-family="Helvetica,sans-Serif" font-size="10.00">tile_pane.h</text>
</a>
</g>
</g>
<!-- Node19&#45;&gt;Node28 -->
<g id="edge34" class="edge">
<title>Node19&#45;&gt;Node28</title>
<path fill="none" stroke="midnightblue" d="M1147.2,-276.91C1174.65,-266.75 1213.17,-252.51 1237.47,-243.52"/>
<polygon fill="midnightblue" stroke="midnightblue" points="1145.8,-273.69 1137.63,-280.44 1148.23,-280.26 1145.8,-273.69"/>
</g>
<!-- Node20&#45;&gt;Node8 -->
<g id="edge28" class="edge">
<title>Node20&#45;&gt;Node8</title>
<path fill="none" stroke="midnightblue" d="M833.65,-221.76C805.55,-213.87 768.63,-202.2 737.5,-188 721.9,-180.88 719.33,-176.61 704.5,-168 682.1,-155 655.84,-140.55 639.43,-131.62"/>
<polygon fill="midnightblue" stroke="midnightblue" points="833.01,-225.21 843.58,-224.5 834.87,-218.47 833.01,-225.21"/>
</g>
<!-- Node21 -->
<g id="node21" class="node">
<title>Node21</title>
<g id="a_node21"><a xlink:href="box__container_8cpp.html" target="_top" xlink:title=" ">
<polygon fill="white" stroke="black" points="851,-168.5 851,-187.5 946,-187.5 946,-168.5 851,-168.5"/>
<text text-anchor="middle" x="898.5" y="-175.5" font-family="Helvetica,sans-Serif" font-size="10.00">box_container.cpp</text>
</a>
</g>
</g>
<!-- Node20&#45;&gt;Node21 -->
<g id="edge24" class="edge">
<title>Node20&#45;&gt;Node21</title>
<path fill="none" stroke="midnightblue" d="M884.62,-214.69C888.16,-205.59 892.27,-195.01 895.1,-187.75"/>
<polygon fill="midnightblue" stroke="midnightblue" points="881.33,-213.49 880.97,-224.08 887.85,-216.03 881.33,-213.49"/>
</g>
<!-- Node22 -->
<g id="node22" class="node">
<title>Node22</title>
<g id="a_node22"><a xlink:href="context__menu_8h.html" target="_top" xlink:title=" ">
<polygon fill="white" stroke="black" points="746.5,-168.5 746.5,-187.5 832.5,-187.5 832.5,-168.5 746.5,-168.5"/>
<text text-anchor="middle" x="789.5" y="-175.5" font-family="Helvetica,sans-Serif" font-size="10.00">context_menu.h</text>
</a>
</g>
</g>
<!-- Node20&#45;&gt;Node22 -->
<g id="edge25" class="edge">
<title>Node20&#45;&gt;Node22</title>
<path fill="none" stroke="midnightblue" d="M854.52,-218.9C838.39,-209 817.32,-196.07 803.6,-187.65"/>
<polygon fill="midnightblue" stroke="midnightblue" points="853.01,-222.08 863.36,-224.32 856.67,-216.11 853.01,-222.08"/>
</g>
<!-- Node22&#45;&gt;Node7 -->
<g id="edge26" class="edge">
<title>Node22&#45;&gt;Node7</title>
<path fill="none" stroke="midnightblue" d="M775.8,-160.18C769.9,-152.11 763.46,-142.03 759.5,-132 743.71,-91.99 740.39,-39.79 739.69,-19.54"/>
<polygon fill="midnightblue" stroke="midnightblue" points="773.2,-162.54 782.07,-168.33 778.75,-158.27 773.2,-162.54"/>
</g>
<!-- Node22&#45;&gt;Node9 -->
<g id="edge27" class="edge">
<title>Node22&#45;&gt;Node9</title>
<path fill="none" stroke="midnightblue" d="M793.7,-158.1C795.69,-149.14 797.98,-138.86 799.56,-131.75"/>
<polygon fill="midnightblue" stroke="midnightblue" points="790.23,-157.56 791.48,-168.08 797.07,-159.08 790.23,-157.56"/>
</g>
<!-- Node25 -->
<g id="node25" class="node">
<title>Node25</title>
<g id="a_node25"><a xlink:href="anchor__pane_8h.html" target="_top" xlink:title=" ">
<polygon fill="white" stroke="black" points="1002.5,-168.5 1002.5,-187.5 1082.5,-187.5 1082.5,-168.5 1002.5,-168.5"/>
<text text-anchor="middle" x="1042.5" y="-175.5" font-family="Helvetica,sans-Serif" font-size="10.00">anchor_pane.h</text>
</a>
</g>
</g>
<!-- Node24&#45;&gt;Node25 -->
<g id="edge31" class="edge">
<title>Node24&#45;&gt;Node25</title>
<path fill="none" stroke="midnightblue" d="M1124.98,-219.86C1104.77,-209.85 1077.51,-196.35 1059.97,-187.65"/>
<polygon fill="midnightblue" stroke="midnightblue" points="1123.47,-223.02 1133.99,-224.32 1126.58,-216.75 1123.47,-223.02"/>
</g>
<!-- Node27 -->
<g id="node27" class="node">
<title>Node27</title>
<g id="a_node27"><a xlink:href="layered__container_8cpp.html" target="_top" xlink:title=" ">
<polygon fill="white" stroke="black" points="1101,-168.5 1101,-187.5 1212,-187.5 1212,-168.5 1101,-168.5"/>
<text text-anchor="middle" x="1156.5" y="-175.5" font-family="Helvetica,sans-Serif" font-size="10.00">layered_container.cpp</text>
</a>
</g>
</g>
<!-- Node24&#45;&gt;Node27 -->
<g id="edge33" class="edge">
<title>Node24&#45;&gt;Node27</title>
<path fill="none" stroke="midnightblue" d="M1153.25,-214.1C1154.08,-205.14 1155.03,-194.86 1155.69,-187.75"/>
<polygon fill="midnightblue" stroke="midnightblue" points="1149.76,-213.8 1152.33,-224.08 1156.73,-214.45 1149.76,-213.8"/>
</g>
<!-- Node26 -->
<g id="node26" class="node">
<title>Node26</title>
<g id="a_node26"><a xlink:href="anchor__pane_8cpp.html" target="_top" xlink:title=" ">
<polygon fill="white" stroke="black" points="1003,-112.5 1003,-131.5 1094,-131.5 1094,-112.5 1003,-112.5"/>
<text text-anchor="middle" x="1048.5" y="-119.5" font-family="Helvetica,sans-Serif" font-size="10.00">anchor_pane.cpp</text>
</a>
</g>
</g>
<!-- Node25&#45;&gt;Node26 -->
<g id="edge32" class="edge">
<title>Node25&#45;&gt;Node26</title>
<path fill="none" stroke="midnightblue" d="M1044.6,-158.1C1045.6,-149.14 1046.74,-138.86 1047.53,-131.75"/>
<polygon fill="midnightblue" stroke="midnightblue" points="1041.12,-157.76 1043.49,-168.08 1048.07,-158.53 1041.12,-157.76"/>
</g>
<!-- Node29 -->
<g id="node29" class="node">
<title>Node29</title>
<g id="a_node29"><a xlink:href="tile__pane_8cpp.html" target="_top" xlink:title=" ">
<polygon fill="white" stroke="black" points="1230.5,-168.5 1230.5,-187.5 1304.5,-187.5 1304.5,-168.5 1230.5,-168.5"/>
<text text-anchor="middle" x="1267.5" y="-175.5" font-family="Helvetica,sans-Serif" font-size="10.00">tile_pane.cpp</text>
</a>
</g>
</g>
<!-- Node28&#45;&gt;Node29 -->
<g id="edge35" class="edge">
<title>Node28&#45;&gt;Node29</title>
<path fill="none" stroke="midnightblue" d="M1262.95,-214.1C1264.11,-205.14 1265.44,-194.86 1266.37,-187.75"/>
<polygon fill="midnightblue" stroke="midnightblue" points="1259.47,-213.72 1261.66,-224.08 1266.41,-214.62 1259.47,-213.72"/>
</g>
<!-- Node30&#45;&gt;Node5 -->
<g id="edge37" class="edge">
<title>Node30&#45;&gt;Node5</title>
<path fill="none" stroke="midnightblue" d="M496.73,-276.81C473.62,-268.22 442.4,-256.12 415.5,-244 397.74,-236 394.49,-231.47 376.5,-224 338.08,-208.05 291.84,-194.07 263.57,-186.08"/>
<polygon fill="midnightblue" stroke="midnightblue" points="495.83,-280.21 506.42,-280.38 498.25,-273.64 495.83,-280.21"/>
</g>
<!-- Node31 -->
<g id="node31" class="node">
<title>Node31</title>
<g id="a_node31"><a xlink:href="control_8cpp.html" target="_top" xlink:title=" ">
<polygon fill="white" stroke="black" points="425,-224.5 425,-243.5 490,-243.5 490,-224.5 425,-224.5"/>
<text text-anchor="middle" x="457.5" y="-231.5" font-family="Helvetica,sans-Serif" font-size="10.00">control.cpp</text>
</a>
</g>
</g>
<!-- Node30&#45;&gt;Node31 -->
<g id="edge38" class="edge">
<title>Node30&#45;&gt;Node31</title>
<path fill="none" stroke="midnightblue" d="M510.36,-274.1C497.22,-264.38 480.52,-252.03 469.44,-243.83"/>
<polygon fill="midnightblue" stroke="midnightblue" points="508.65,-277.19 518.77,-280.32 512.81,-271.56 508.65,-277.19"/>
</g>
<!-- Node32 -->
<g id="node32" class="node">
<title>Node32</title>
<g id="a_node32"><a xlink:href="label_8h.html" target="_top" xlink:title=" ">
<polygon fill="white" stroke="black" points="508,-224.5 508,-243.5 553,-243.5 553,-224.5 508,-224.5"/>
<text text-anchor="middle" x="530.5" y="-231.5" font-family="Helvetica,sans-Serif" font-size="10.00">label.h</text>
</a>
</g>
</g>
<!-- Node30&#45;&gt;Node32 -->
<g id="edge39" class="edge">
<title>Node30&#45;&gt;Node32</title>
<path fill="none" stroke="midnightblue" d="M530.5,-269.8C530.5,-260.91 530.5,-250.78 530.5,-243.75"/>
<polygon fill="midnightblue" stroke="midnightblue" points="527,-270.08 530.5,-280.08 534,-270.08 527,-270.08"/>
</g>
<!-- Node33 -->
<g id="node33" class="node">
<title>Node33</title>
<g id="a_node33"><a xlink:href="scroll__bar_8h.html" target="_top" xlink:title=" ">
<polygon fill="white" stroke="black" points="571.5,-224.5 571.5,-243.5 637.5,-243.5 637.5,-224.5 571.5,-224.5"/>
<text text-anchor="middle" x="604.5" y="-231.5" font-family="Helvetica,sans-Serif" font-size="10.00">scroll_bar.h</text>
</a>
</g>
</g>
<!-- Node30&#45;&gt;Node33 -->
<g id="edge40" class="edge">
<title>Node30&#45;&gt;Node33</title>
<path fill="none" stroke="midnightblue" d="M550.53,-274.38C563.91,-264.62 581.06,-252.11 592.39,-243.83"/>
<polygon fill="midnightblue" stroke="midnightblue" points="548.4,-271.6 542.39,-280.32 552.53,-277.26 548.4,-271.6"/>
</g>
<!-- Node34 -->
<g id="node34" class="node">
<title>Node34</title>
<g id="a_node34"><a xlink:href="scroll__pane_8h.html" target="_top" xlink:title=" ">
<polygon fill="white" stroke="black" points="655.5,-224.5 655.5,-243.5 729.5,-243.5 729.5,-224.5 655.5,-224.5"/>
<text text-anchor="middle" x="692.5" y="-231.5" font-family="Helvetica,sans-Serif" font-size="10.00">scroll_pane.h</text>
</a>
</g>
</g>
<!-- Node30&#45;&gt;Node34 -->
<g id="edge43" class="edge">
<title>Node30&#45;&gt;Node34</title>
<path fill="none" stroke="midnightblue" d="M565.98,-277.17C596.49,-267 639.74,-252.59 666.95,-243.52"/>
<polygon fill="midnightblue" stroke="midnightblue" points="564.55,-273.96 556.17,-280.44 566.76,-280.6 564.55,-273.96"/>
</g>
<!-- Node35 -->
<g id="node35" class="node">
<title>Node35</title>
<g id="a_node35"><a xlink:href="skin_8cpp.html" target="_top" xlink:title=" ">
<polygon fill="white" stroke="black" points="315,-224.5 315,-243.5 368,-243.5 368,-224.5 315,-224.5"/>
<text text-anchor="middle" x="341.5" y="-231.5" font-family="Helvetica,sans-Serif" font-size="10.00">skin.cpp</text>
</a>
</g>
</g>
<!-- Node30&#45;&gt;Node35 -->
<g id="edge46" class="edge">
<title>Node30&#45;&gt;Node35</title>
<path fill="none" stroke="midnightblue" d="M493.56,-278.45C456.71,-267.92 400.99,-252 368.22,-242.64"/>
<polygon fill="midnightblue" stroke="midnightblue" points="492.84,-281.88 503.42,-281.26 494.77,-275.15 492.84,-281.88"/>
</g>
<!-- Node36 -->
<g id="node36" class="node">
<title>Node36</title>
<g id="a_node36"><a xlink:href="slider_8h.html" target="_top" xlink:title=" ">
<polygon fill="white" stroke="black" points="748,-224.5 748,-243.5 795,-243.5 795,-224.5 748,-224.5"/>
<text text-anchor="middle" x="771.5" y="-231.5" font-family="Helvetica,sans-Serif" font-size="10.00">slider.h</text>
</a>
</g>
</g>
<!-- Node30&#45;&gt;Node36 -->
<g id="edge47" class="edge">
<title>Node30&#45;&gt;Node36</title>
<path fill="none" stroke="midnightblue" d="M567.5,-281.61C609.2,-273.15 678.94,-258.55 738.5,-244 741.5,-243.27 744.64,-242.46 747.75,-241.64"/>
<polygon fill="midnightblue" stroke="midnightblue" points="566.64,-278.22 557.53,-283.63 568.03,-285.08 566.64,-278.22"/>
</g>
<!-- Node33&#45;&gt;Node8 -->
<g id="edge41" class="edge">
<title>Node33&#45;&gt;Node8</title>
<path fill="none" stroke="midnightblue" d="M607.72,-214.35C611.88,-190.25 618.96,-149.31 622.02,-131.59"/>
<polygon fill="midnightblue" stroke="midnightblue" points="604.24,-213.92 605.99,-224.37 611.14,-215.11 604.24,-213.92"/>
</g>
<!-- Node33&#45;&gt;Node14 -->
<g id="edge42" class="edge">
<title>Node33&#45;&gt;Node14</title>
<path fill="none" stroke="midnightblue" d="M561.27,-223.51C514.86,-213.32 441.8,-197.29 397.21,-187.5"/>
<polygon fill="midnightblue" stroke="midnightblue" points="560.81,-226.99 571.32,-225.72 562.31,-220.15 560.81,-226.99"/>
</g>
<!-- Node34&#45;&gt;Node8 -->
<g id="edge44" class="edge">
<title>Node34&#45;&gt;Node8</title>
<path fill="none" stroke="midnightblue" d="M681.61,-215.64C666.62,-191.74 640.2,-149.63 628.89,-131.59"/>
<polygon fill="midnightblue" stroke="midnightblue" points="678.81,-217.76 687.09,-224.37 684.74,-214.04 678.81,-217.76"/>
</g>
<!-- Node34&#45;&gt;Node15 -->
<g id="edge45" class="edge">
<title>Node34&#45;&gt;Node15</title>
<path fill="none" stroke="midnightblue" d="M645.29,-222.15C600.89,-211.95 535.31,-196.88 494.56,-187.52"/>
<polygon fill="midnightblue" stroke="midnightblue" points="644.73,-225.62 655.26,-224.44 646.3,-218.79 644.73,-225.62"/>
</g>
<!-- Node36&#45;&gt;Node8 -->
<g id="edge48" class="edge">
<title>Node36&#45;&gt;Node8</title>
<path fill="none" stroke="midnightblue" d="M749.45,-218.87C736.23,-210.22 719.18,-198.79 704.5,-188 678.35,-168.78 648.93,-144.45 633.76,-131.7"/>
<polygon fill="midnightblue" stroke="midnightblue" points="747.63,-221.86 757.92,-224.36 751.44,-215.98 747.63,-221.86"/>
</g>
<!-- Node36&#45;&gt;Node16 -->
<g id="edge49" class="edge">
<title>Node36&#45;&gt;Node16</title>
<path fill="none" stroke="midnightblue" d="M738.01,-223.94C674.89,-207.99 612.4,-193.62 576.7,-185.55"/>
<polygon fill="midnightblue" stroke="midnightblue" points="737.18,-227.34 747.73,-226.41 738.9,-220.56 737.18,-227.34"/>
</g>
<!-- Node39 -->
<g id="node39" class="node">
<title>Node39</title>
<g id="a_node39"><a xlink:href="circle_8h.html" target="_top" xlink:title=" ">
<polygon fill="white" stroke="black" points="5.5,-280.5 5.5,-299.5 53.5,-299.5 53.5,-280.5 5.5,-280.5"/>
<text text-anchor="middle" x="29.5" y="-287.5" font-family="Helvetica,sans-Serif" font-size="10.00">circle.h</text>
</a>
</g>
</g>
<!-- Node38&#45;&gt;Node39 -->
<g id="edge53" class="edge">
<title>Node38&#45;&gt;Node39</title>
<path fill="none" stroke="midnightblue" d="M132.05,-332.64C107.09,-322.5 72.42,-308.43 50.48,-299.52"/>
<polygon fill="midnightblue" stroke="midnightblue" points="130.84,-335.92 141.43,-336.44 133.48,-329.44 130.84,-335.92"/>
</g>
<!-- Node41 -->
<g id="node41" class="node">
<title>Node41</title>
<g id="a_node41"><a xlink:href="rectangle_8h.html" target="_top" xlink:title=" ">
<polygon fill="white" stroke="black" points="212,-280.5 212,-299.5 277,-299.5 277,-280.5 212,-280.5"/>
<text text-anchor="middle" x="244.5" y="-287.5" font-family="Helvetica,sans-Serif" font-size="10.00">rectangle.h</text>
</a>
</g>
</g>
<!-- Node38&#45;&gt;Node41 -->
<g id="edge55" class="edge">
<title>Node38&#45;&gt;Node41</title>
<path fill="none" stroke="midnightblue" d="M184.33,-330.62C199.31,-320.76 218.7,-307.99 231.36,-299.65"/>
<polygon fill="midnightblue" stroke="midnightblue" points="182.1,-327.9 175.67,-336.32 185.95,-333.75 182.1,-327.9"/>
</g>
<!-- Node43 -->
<g id="node43" class="node">
<title>Node43</title>
<g id="a_node43"><a xlink:href="shape_8cpp.html" target="_top" xlink:title=" ">
<polygon fill="white" stroke="black" points="131.5,-280.5 131.5,-299.5 193.5,-299.5 193.5,-280.5 131.5,-280.5"/>
<text text-anchor="middle" x="162.5" y="-287.5" font-family="Helvetica,sans-Serif" font-size="10.00">shape.cpp</text>
</a>
</g>
</g>
<!-- Node38&#45;&gt;Node43 -->
<g id="edge58" class="edge">
<title>Node38&#45;&gt;Node43</title>
<path fill="none" stroke="midnightblue" d="M162.5,-325.8C162.5,-316.91 162.5,-306.78 162.5,-299.75"/>
<polygon fill="midnightblue" stroke="midnightblue" points="159,-326.08 162.5,-336.08 166,-326.08 159,-326.08"/>
</g>
<!-- Node44 -->
<g id="node44" class="node">
<title>Node44</title>
<g id="a_node44"><a xlink:href="text_8h.html" target="_top" xlink:title=" ">
<polygon fill="white" stroke="black" points="72,-280.5 72,-299.5 113,-299.5 113,-280.5 72,-280.5"/>
<text text-anchor="middle" x="92.5" y="-287.5" font-family="Helvetica,sans-Serif" font-size="10.00">text.h</text>
</a>
</g>
</g>
<!-- Node38&#45;&gt;Node44 -->
<g id="edge59" class="edge">
<title>Node38&#45;&gt;Node44</title>
<path fill="none" stroke="midnightblue" d="M143.19,-330.1C130.59,-320.38 114.57,-308.03 103.95,-299.83"/>
<polygon fill="midnightblue" stroke="midnightblue" points="141.2,-332.99 151.25,-336.32 145.47,-327.44 141.2,-332.99"/>
</g>
<!-- Node40 -->
<g id="node40" class="node">
<title>Node40</title>
<g id="a_node40"><a xlink:href="circle_8cpp.html" target="_top" xlink:title=" ">
<polygon fill="white" stroke="black" points="0,-224.5 0,-243.5 59,-243.5 59,-224.5 0,-224.5"/>
<text text-anchor="middle" x="29.5" y="-231.5" font-family="Helvetica,sans-Serif" font-size="10.00">circle.cpp</text>
</a>
</g>
</g>
<!-- Node39&#45;&gt;Node40 -->
<g id="edge54" class="edge">
<title>Node39&#45;&gt;Node40</title>
<path fill="none" stroke="midnightblue" d="M29.5,-269.8C29.5,-260.91 29.5,-250.78 29.5,-243.75"/>
<polygon fill="midnightblue" stroke="midnightblue" points="26,-270.08 29.5,-280.08 33,-270.08 26,-270.08"/>
</g>
<!-- Node41&#45;&gt;Node4 -->
<g id="edge56" class="edge">
<title>Node41&#45;&gt;Node4</title>
<path fill="none" stroke="midnightblue" d="M248.35,-270.1C250.18,-261.14 252.27,-250.86 253.72,-243.75"/>
<polygon fill="midnightblue" stroke="midnightblue" points="244.88,-269.59 246.32,-280.08 251.74,-270.98 244.88,-269.59"/>
</g>
<!-- Node42 -->
<g id="node42" class="node">
<title>Node42</title>
<g id="a_node42"><a xlink:href="rectangle_8cpp.html" target="_top" xlink:title=" ">
<polygon fill="white" stroke="black" points="121,-224.5 121,-243.5 196,-243.5 196,-224.5 121,-224.5"/>
<text text-anchor="middle" x="158.5" y="-231.5" font-family="Helvetica,sans-Serif" font-size="10.00">rectangle.cpp</text>
</a>
</g>
</g>
<!-- Node41&#45;&gt;Node42 -->
<g id="edge57" class="edge">
<title>Node41&#45;&gt;Node42</title>
<path fill="none" stroke="midnightblue" d="M222.05,-274.9C206.28,-265 185.69,-252.07 172.28,-243.65"/>
<polygon fill="midnightblue" stroke="midnightblue" points="220.35,-277.97 230.68,-280.32 224.07,-272.04 220.35,-277.97"/>
</g>
<!-- Node44&#45;&gt;Node4 -->
<g id="edge60" class="edge">
<title>Node44&#45;&gt;Node4</title>
<path fill="none" stroke="midnightblue" d="M122.9,-278.93C153.64,-268.74 200.65,-253.17 229.66,-243.56"/>
<polygon fill="midnightblue" stroke="midnightblue" points="121.54,-275.69 113.14,-282.16 123.74,-282.34 121.54,-275.69"/>
</g>
<!-- Node44&#45;&gt;Node17 -->
<g id="edge61" class="edge">
<title>Node44&#45;&gt;Node17</title>
<path fill="none" stroke="midnightblue" d="M97.22,-270.78C100.77,-257.65 105.96,-239.58 111.5,-224 116.11,-211.06 122.49,-196.47 126.56,-187.51"/>
<polygon fill="midnightblue" stroke="midnightblue" points="93.83,-269.92 94.65,-280.49 100.6,-271.71 93.83,-269.92"/>
</g>
<!-- Node46&#45;&gt;Node4 -->
<g id="edge67" class="edge">
<title>Node46&#45;&gt;Node4</title>
<path fill="none" stroke="midnightblue" d="M399.88,-327.87C390.27,-313.53 374.98,-293.32 357.5,-280 335.33,-263.11 305.83,-250.98 284.26,-243.6"/>
<polygon fill="midnightblue" stroke="midnightblue" points="396.97,-329.82 405.34,-336.32 402.85,-326.02 396.97,-329.82"/>
</g>
<!-- Node46&#45;&gt;Node30 -->
<g id="edge66" class="edge">
<title>Node46&#45;&gt;Node30</title>
<path fill="none" stroke="midnightblue" d="M438.87,-332.23C461.32,-322.13 492.04,-308.31 511.57,-299.52"/>
<polygon fill="midnightblue" stroke="midnightblue" points="437.2,-329.15 429.51,-336.44 440.07,-335.53 437.2,-329.15"/>
</g>
<!-- Node46&#45;&gt;Node35 -->
<g id="edge68" class="edge">
<title>Node46&#45;&gt;Node35</title>
<path fill="none" stroke="midnightblue" d="M409.36,-326.2C407.8,-312.52 404.13,-294.03 395.5,-280 385.91,-264.41 369.02,-251.64 356.67,-243.74"/>
<polygon fill="midnightblue" stroke="midnightblue" points="405.89,-326.68 410.23,-336.35 412.86,-326.08 405.89,-326.68"/>
</g>
</g>
</svg>
