<?xml version="1.0" encoding="UTF-8" standalone="no"?>
<!DOCTYPE svg PUBLIC "-//W3C//DTD SVG 1.1//EN"
 "http://www.w3.org/Graphics/SVG/1.1/DTD/svg11.dtd">
<!-- Generated by graphviz version 2.50.0 (20211204.2007)
 -->
<!-- Title: insets.h Pages: 1 -->
<svg width="1536pt" height="532pt"
 viewBox="0.00 0.00 1535.50 532.00" xmlns="http://www.w3.org/2000/svg" xmlns:xlink="http://www.w3.org/1999/xlink">
<g id="graph0" class="graph" transform="scale(1 1) rotate(0) translate(4 528)">
<title>insets.h</title>
<polygon fill="white" stroke="transparent" points="-4,4 -4,-528 1531.5,-528 1531.5,4 -4,4"/>
<!-- Node1 -->
<g id="node1" class="node">
<title>Node1</title>
<g id="a_node1"><a xlink:title=" ">
<polygon fill="#bfbfbf" stroke="black" points="460,-504.5 460,-523.5 511,-523.5 511,-504.5 460,-504.5"/>
<text text-anchor="middle" x="485.5" y="-511.5" font-family="Helvetica,sans-Serif" font-size="10.00">insets.h</text>
</a>
</g>
</g>
<!-- Node2 -->
<g id="node2" class="node">
<title>Node2</title>
<g id="a_node2"><a xlink:href="border_8h.html" target="_top" xlink:title=" ">
<polygon fill="white" stroke="black" points="357,-448.5 357,-467.5 408,-467.5 408,-448.5 357,-448.5"/>
<text text-anchor="middle" x="382.5" y="-455.5" font-family="Helvetica,sans-Serif" font-size="10.00">border.h</text>
</a>
</g>
</g>
<!-- Node1&#45;&gt;Node2 -->
<g id="edge1" class="edge">
<title>Node1&#45;&gt;Node2</title>
<path fill="none" stroke="midnightblue" d="M459.92,-499.59C440.88,-489.61 415.44,-476.27 399.01,-467.65"/>
<polygon fill="midnightblue" stroke="midnightblue" points="458.47,-502.78 468.95,-504.32 461.72,-496.58 458.47,-502.78"/>
</g>
<!-- Node4 -->
<g id="node4" class="node">
<title>Node4</title>
<g id="a_node4"><a xlink:href="default__skins_8h.html" target="_top" xlink:title=" ">
<polygon fill="white" stroke="black" points="283,-280.5 283,-299.5 366,-299.5 366,-280.5 283,-280.5"/>
<text text-anchor="middle" x="324.5" y="-287.5" font-family="Helvetica,sans-Serif" font-size="10.00">default_skins.h</text>
</a>
</g>
</g>
<!-- Node1&#45;&gt;Node4 -->
<g id="edge78" class="edge">
<title>Node1&#45;&gt;Node4</title>
<path fill="none" stroke="midnightblue" d="M478.03,-494.82C467.52,-470.3 446.89,-425.79 422.5,-392 395.05,-353.96 353.65,-316.17 334.66,-299.65"/>
<polygon fill="midnightblue" stroke="midnightblue" points="474.91,-496.43 482.01,-504.3 481.36,-493.72 474.91,-496.43"/>
</g>
<!-- Node21 -->
<g id="node21" class="node">
<title>Node21</title>
<g id="a_node21"><a xlink:href="parent_8h.html" target="_top" xlink:title=" ">
<polygon fill="white" stroke="black" points="878.5,-392.5 878.5,-411.5 930.5,-411.5 930.5,-392.5 878.5,-392.5"/>
<text text-anchor="middle" x="904.5" y="-399.5" font-family="Helvetica,sans-Serif" font-size="10.00">parent.h</text>
</a>
</g>
</g>
<!-- Node1&#45;&gt;Node21 -->
<g id="edge80" class="edge">
<title>Node1&#45;&gt;Node21</title>
<path fill="none" stroke="midnightblue" d="M520.97,-503.69C603.38,-482.05 806.24,-428.8 878.45,-409.84"/>
<polygon fill="midnightblue" stroke="midnightblue" points="519.86,-500.36 511.08,-506.28 521.64,-507.13 519.86,-500.36"/>
</g>
<!-- Node48 -->
<g id="node48" class="node">
<title>Node48</title>
<g id="a_node48"><a xlink:href="insets_8cpp.html" target="_top" xlink:title=" ">
<polygon fill="white" stroke="black" points="513.5,-448.5 513.5,-467.5 575.5,-467.5 575.5,-448.5 513.5,-448.5"/>
<text text-anchor="middle" x="544.5" y="-455.5" font-family="Helvetica,sans-Serif" font-size="10.00">insets.cpp</text>
</a>
</g>
</g>
<!-- Node1&#45;&gt;Node48 -->
<g id="edge79" class="edge">
<title>Node1&#45;&gt;Node48</title>
<path fill="none" stroke="midnightblue" d="M502.39,-497.54C512.91,-487.91 526.07,-475.87 534.85,-467.83"/>
<polygon fill="midnightblue" stroke="midnightblue" points="499.99,-494.99 494.98,-504.32 504.72,-500.15 499.99,-494.99"/>
</g>
<!-- Node49 -->
<g id="node49" class="node">
<title>Node49</title>
<g id="a_node49"><a xlink:href="skin_8h.html" target="_top" xlink:title=" ">
<polygon fill="white" stroke="black" points="470,-336.5 470,-355.5 513,-355.5 513,-336.5 470,-336.5"/>
<text text-anchor="middle" x="491.5" y="-343.5" font-family="Helvetica,sans-Serif" font-size="10.00">skin.h</text>
</a>
</g>
</g>
<!-- Node1&#45;&gt;Node49 -->
<g id="edge81" class="edge">
<title>Node1&#45;&gt;Node49</title>
<path fill="none" stroke="midnightblue" d="M486.19,-493.93C487.49,-457.92 490.26,-381.23 491.19,-355.57"/>
<polygon fill="midnightblue" stroke="midnightblue" points="482.69,-493.96 485.82,-504.08 489.68,-494.21 482.69,-493.96"/>
</g>
<!-- Node3 -->
<g id="node3" class="node">
<title>Node3</title>
<g id="a_node3"><a xlink:href="border_8cpp.html" target="_top" xlink:title=" ">
<polygon fill="white" stroke="black" points="351.5,-392.5 351.5,-411.5 413.5,-411.5 413.5,-392.5 351.5,-392.5"/>
<text text-anchor="middle" x="382.5" y="-399.5" font-family="Helvetica,sans-Serif" font-size="10.00">border.cpp</text>
</a>
</g>
</g>
<!-- Node2&#45;&gt;Node3 -->
<g id="edge2" class="edge">
<title>Node2&#45;&gt;Node3</title>
<path fill="none" stroke="midnightblue" d="M382.5,-437.8C382.5,-428.91 382.5,-418.78 382.5,-411.75"/>
<polygon fill="midnightblue" stroke="midnightblue" points="379,-438.08 382.5,-448.08 386,-438.08 379,-438.08"/>
</g>
<!-- Node2&#45;&gt;Node4 -->
<g id="edge3" class="edge">
<title>Node2&#45;&gt;Node4</title>
<path fill="none" stroke="midnightblue" d="M364.2,-441.1C356.25,-433.17 347.61,-422.94 342.5,-412 324.34,-373.13 323.63,-320.27 324.14,-299.69"/>
<polygon fill="midnightblue" stroke="midnightblue" points="362.07,-443.9 371.76,-448.21 366.87,-438.81 362.07,-443.9"/>
</g>
<!-- Node2&#45;&gt;Node21 -->
<g id="edge26" class="edge">
<title>Node2&#45;&gt;Node21</title>
<path fill="none" stroke="midnightblue" d="M418.1,-453.32C516.78,-443.11 792.25,-414.61 878.4,-405.7"/>
<polygon fill="midnightblue" stroke="midnightblue" points="417.62,-449.85 408.03,-454.36 418.34,-456.81 417.62,-449.85"/>
</g>
<!-- Node40 -->
<g id="node40" class="node">
<title>Node40</title>
<g id="a_node40"><a xlink:href="shape_8h.html" target="_top" xlink:title=" ">
<polygon fill="white" stroke="black" points="175,-392.5 175,-411.5 226,-411.5 226,-392.5 175,-392.5"/>
<text text-anchor="middle" x="200.5" y="-399.5" font-family="Helvetica,sans-Serif" font-size="10.00">shape.h</text>
</a>
</g>
</g>
<!-- Node2&#45;&gt;Node40 -->
<g id="edge64" class="edge">
<title>Node2&#45;&gt;Node40</title>
<path fill="none" stroke="midnightblue" d="M346.85,-446.42C311.3,-435.87 257.57,-419.93 226.06,-410.58"/>
<polygon fill="midnightblue" stroke="midnightblue" points="346.23,-449.89 356.81,-449.38 348.22,-443.18 346.23,-449.89"/>
</g>
<!-- Node5 -->
<g id="node5" class="node">
<title>Node5</title>
<g id="a_node5"><a xlink:href="button_8h.html" target="_top" xlink:title=" ">
<polygon fill="white" stroke="black" points="363.5,-224.5 363.5,-243.5 415.5,-243.5 415.5,-224.5 363.5,-224.5"/>
<text text-anchor="middle" x="389.5" y="-231.5" font-family="Helvetica,sans-Serif" font-size="10.00">button.h</text>
</a>
</g>
</g>
<!-- Node4&#45;&gt;Node5 -->
<g id="edge4" class="edge">
<title>Node4&#45;&gt;Node5</title>
<path fill="none" stroke="midnightblue" d="M342.77,-273.82C354.42,-264.15 369.1,-251.95 378.87,-243.83"/>
<polygon fill="midnightblue" stroke="midnightblue" points="340.4,-271.24 334.94,-280.32 344.87,-276.63 340.4,-271.24"/>
</g>
<!-- Node16 -->
<g id="node16" class="node">
<title>Node16</title>
<g id="a_node16"><a xlink:href="default__skins_8cpp.html" target="_top" xlink:title=" ">
<polygon fill="white" stroke="black" points="620,-168.5 620,-187.5 713,-187.5 713,-168.5 620,-168.5"/>
<text text-anchor="middle" x="666.5" y="-175.5" font-family="Helvetica,sans-Serif" font-size="10.00">default_skins.cpp</text>
</a>
</g>
</g>
<!-- Node4&#45;&gt;Node16 -->
<g id="edge21" class="edge">
<title>Node4&#45;&gt;Node16</title>
<path fill="none" stroke="midnightblue" d="M328.11,-269.98C331.99,-255.04 339.71,-234.98 354.5,-224 400.8,-189.62 554.48,-196.66 611.5,-188 614.18,-187.59 616.93,-187.17 619.7,-186.73"/>
<polygon fill="midnightblue" stroke="midnightblue" points="324.6,-269.65 325.84,-280.17 331.43,-271.17 324.6,-269.65"/>
</g>
<!-- Node17 -->
<g id="node17" class="node">
<title>Node17</title>
<g id="a_node17"><a xlink:href="scroll__bar_8cpp.html" target="_top" xlink:title=" ">
<polygon fill="white" stroke="black" points="422,-168.5 422,-187.5 499,-187.5 499,-168.5 422,-168.5"/>
<text text-anchor="middle" x="460.5" y="-175.5" font-family="Helvetica,sans-Serif" font-size="10.00">scroll_bar.cpp</text>
</a>
</g>
</g>
<!-- Node4&#45;&gt;Node17 -->
<g id="edge22" class="edge">
<title>Node4&#45;&gt;Node17</title>
<path fill="none" stroke="midnightblue" d="M304.19,-274.03C288.32,-260.48 270.88,-240.23 283.5,-224 300.29,-202.41 374.82,-189.48 421.65,-183.35"/>
<polygon fill="midnightblue" stroke="midnightblue" points="302.2,-276.91 312.19,-280.44 306.58,-271.45 302.2,-276.91"/>
</g>
<!-- Node18 -->
<g id="node18" class="node">
<title>Node18</title>
<g id="a_node18"><a xlink:href="scroll__pane_8cpp.html" target="_top" xlink:title=" ">
<polygon fill="white" stroke="black" points="517,-168.5 517,-187.5 602,-187.5 602,-168.5 517,-168.5"/>
<text text-anchor="middle" x="559.5" y="-175.5" font-family="Helvetica,sans-Serif" font-size="10.00">scroll_pane.cpp</text>
</a>
</g>
</g>
<!-- Node4&#45;&gt;Node18 -->
<g id="edge23" class="edge">
<title>Node4&#45;&gt;Node18</title>
<path fill="none" stroke="midnightblue" d="M317.54,-270.53C313.45,-256.22 310.93,-236.75 321.5,-224 323.06,-222.11 448.66,-199.09 516.75,-186.73"/>
<polygon fill="midnightblue" stroke="midnightblue" points="314.3,-271.88 320.77,-280.27 320.94,-269.67 314.3,-271.88"/>
</g>
<!-- Node19 -->
<g id="node19" class="node">
<title>Node19</title>
<g id="a_node19"><a xlink:href="slider_8cpp.html" target="_top" xlink:title=" ">
<polygon fill="white" stroke="black" points="189.5,-168.5 189.5,-187.5 247.5,-187.5 247.5,-168.5 189.5,-168.5"/>
<text text-anchor="middle" x="218.5" y="-175.5" font-family="Helvetica,sans-Serif" font-size="10.00">slider.cpp</text>
</a>
</g>
</g>
<!-- Node4&#45;&gt;Node19 -->
<g id="edge24" class="edge">
<title>Node4&#45;&gt;Node19</title>
<path fill="none" stroke="midnightblue" d="M291.62,-276.27C275.95,-268.84 257.96,-258.11 245.5,-244 230.62,-227.15 223.18,-200.94 220.17,-187.53"/>
<polygon fill="midnightblue" stroke="midnightblue" points="290.45,-279.58 301.01,-280.48 293.31,-273.2 290.45,-279.58"/>
</g>
<!-- Node20 -->
<g id="node20" class="node">
<title>Node20</title>
<g id="a_node20"><a xlink:href="text_8cpp.html" target="_top" xlink:title=" ">
<polygon fill="white" stroke="black" points="141.5,-224.5 141.5,-243.5 193.5,-243.5 193.5,-224.5 141.5,-224.5"/>
<text text-anchor="middle" x="167.5" y="-231.5" font-family="Helvetica,sans-Serif" font-size="10.00">text.cpp</text>
</a>
</g>
</g>
<!-- Node4&#45;&gt;Node20 -->
<g id="edge25" class="edge">
<title>Node4&#45;&gt;Node20</title>
<path fill="none" stroke="midnightblue" d="M290.11,-277.17C260.55,-267 218.63,-252.59 192.26,-243.52"/>
<polygon fill="midnightblue" stroke="midnightblue" points="289.03,-280.5 299.62,-280.44 291.3,-273.88 289.03,-280.5"/>
</g>
<!-- Node6 -->
<g id="node6" class="node">
<title>Node6</title>
<g id="a_node6"><a xlink:href="button_8cpp.html" target="_top" xlink:title=" ">
<polygon fill="white" stroke="black" points="303.5,-168.5 303.5,-187.5 365.5,-187.5 365.5,-168.5 303.5,-168.5"/>
<text text-anchor="middle" x="334.5" y="-175.5" font-family="Helvetica,sans-Serif" font-size="10.00">button.cpp</text>
</a>
</g>
</g>
<!-- Node5&#45;&gt;Node6 -->
<g id="edge5" class="edge">
<title>Node5&#45;&gt;Node6</title>
<path fill="none" stroke="midnightblue" d="M373.21,-217C363.46,-207.43 351.45,-195.64 343.41,-187.75"/>
<polygon fill="midnightblue" stroke="midnightblue" points="370.83,-219.57 380.42,-224.08 375.73,-214.58 370.83,-219.57"/>
</g>
<!-- Node7 -->
<g id="node7" class="node">
<title>Node7</title>
<g id="a_node7"><a xlink:href="context__menu_8cpp.html" target="_top" xlink:title=" ">
<polygon fill="white" stroke="black" points="859,-0.5 859,-19.5 956,-19.5 956,-0.5 859,-0.5"/>
<text text-anchor="middle" x="907.5" y="-7.5" font-family="Helvetica,sans-Serif" font-size="10.00">context_menu.cpp</text>
</a>
</g>
</g>
<!-- Node5&#45;&gt;Node7 -->
<g id="edge6" class="edge">
<title>Node5&#45;&gt;Node7</title>
<path fill="none" stroke="midnightblue" d="M353.33,-223.76C318.7,-213.14 274.48,-193.79 294.5,-168 364.64,-77.63 726.31,-30.4 858.8,-15.92"/>
<polygon fill="midnightblue" stroke="midnightblue" points="352.65,-227.21 363.23,-226.65 354.61,-220.49 352.65,-227.21"/>
</g>
<!-- Node8 -->
<g id="node8" class="node">
<title>Node8</title>
<g id="a_node8"><a xlink:href="context__menu_8h.html" target="_top" xlink:title=" ">
<polygon fill="white" stroke="black" points="898.5,-168.5 898.5,-187.5 984.5,-187.5 984.5,-168.5 898.5,-168.5"/>
<text text-anchor="middle" x="941.5" y="-175.5" font-family="Helvetica,sans-Serif" font-size="10.00">context_menu.h</text>
</a>
</g>
</g>
<!-- Node5&#45;&gt;Node8 -->
<g id="edge7" class="edge">
<title>Node5&#45;&gt;Node8</title>
<path fill="none" stroke="midnightblue" d="M425.93,-224.07C532.9,-207.24 794.4,-188.81 898.17,-181.85"/>
<polygon fill="midnightblue" stroke="midnightblue" points="425.07,-220.67 415.77,-225.75 426.21,-227.57 425.07,-220.67"/>
</g>
<!-- Node10 -->
<g id="node10" class="node">
<title>Node10</title>
<g id="a_node10"><a xlink:href="menu__bar_8h.html" target="_top" xlink:title=" ">
<polygon fill="white" stroke="black" points="936,-112.5 936,-131.5 1003,-131.5 1003,-112.5 936,-112.5"/>
<text text-anchor="middle" x="969.5" y="-119.5" font-family="Helvetica,sans-Serif" font-size="10.00">menu_bar.h</text>
</a>
</g>
</g>
<!-- Node5&#45;&gt;Node10 -->
<g id="edge20" class="edge">
<title>Node5&#45;&gt;Node10</title>
<path fill="none" stroke="midnightblue" d="M390.82,-213.89C392.95,-198.9 398.44,-178.82 412.5,-168 454.03,-136.06 822.01,-125.98 936,-123.61"/>
<polygon fill="midnightblue" stroke="midnightblue" points="387.31,-213.82 389.76,-224.12 394.27,-214.54 387.31,-213.82"/>
</g>
<!-- Node15 -->
<g id="node15" class="node">
<title>Node15</title>
<g id="a_node15"><a xlink:href="controls_8h.html" target="_top" xlink:title=" ">
<polygon fill="white" stroke="black" points="731,-168.5 731,-187.5 790,-187.5 790,-168.5 731,-168.5"/>
<text text-anchor="middle" x="760.5" y="-175.5" font-family="Helvetica,sans-Serif" font-size="10.00">controls.h</text>
</a>
</g>
</g>
<!-- Node5&#45;&gt;Node15 -->
<g id="edge18" class="edge">
<title>Node5&#45;&gt;Node15</title>
<path fill="none" stroke="midnightblue" d="M425.85,-223.97C557.4,-199.9 594.37,-210.84 722.5,-188 725.17,-187.52 727.93,-186.98 730.7,-186.39"/>
<polygon fill="midnightblue" stroke="midnightblue" points="424.98,-220.57 415.79,-225.84 426.26,-227.45 424.98,-220.57"/>
</g>
<!-- Node5&#45;&gt;Node16 -->
<g id="edge19" class="edge">
<title>Node5&#45;&gt;Node16</title>
<path fill="none" stroke="midnightblue" d="M425.67,-223.85C498.82,-207.85 573.15,-194.64 619.92,-186.7"/>
<polygon fill="midnightblue" stroke="midnightblue" points="424.84,-220.45 415.83,-226.03 426.35,-227.29 424.84,-220.45"/>
</g>
<!-- Node8&#45;&gt;Node7 -->
<g id="edge9" class="edge">
<title>Node8&#45;&gt;Node7</title>
<path fill="none" stroke="midnightblue" d="M935.25,-158.91C932.59,-150.76 929.63,-140.97 927.5,-132 917.63,-90.36 910.93,-39.51 908.51,-19.59"/>
<polygon fill="midnightblue" stroke="midnightblue" points="931.96,-160.11 938.46,-168.47 938.59,-157.88 931.96,-160.11"/>
</g>
<!-- Node9 -->
<g id="node9" class="node">
<title>Node9</title>
<g id="a_node9"><a xlink:href="containers_8h.html" target="_top" xlink:title=" ">
<polygon fill="white" stroke="black" points="1063.5,-56.5 1063.5,-75.5 1133.5,-75.5 1133.5,-56.5 1063.5,-56.5"/>
<text text-anchor="middle" x="1098.5" y="-63.5" font-family="Helvetica,sans-Serif" font-size="10.00">containers.h</text>
</a>
</g>
</g>
<!-- Node8&#45;&gt;Node9 -->
<g id="edge8" class="edge">
<title>Node8&#45;&gt;Node9</title>
<path fill="none" stroke="midnightblue" d="M964.43,-163.13C978.49,-154.46 996.76,-142.91 1012.5,-132 1040.19,-112.81 1071.46,-88.47 1087.58,-75.71"/>
<polygon fill="midnightblue" stroke="midnightblue" points="962.57,-160.17 955.87,-168.37 966.22,-166.14 962.57,-160.17"/>
</g>
<!-- Node8&#45;&gt;Node10 -->
<g id="edge10" class="edge">
<title>Node8&#45;&gt;Node10</title>
<path fill="none" stroke="midnightblue" d="M950.84,-158.98C955.59,-149.82 961.16,-139.09 964.96,-131.75"/>
<polygon fill="midnightblue" stroke="midnightblue" points="947.62,-157.59 946.12,-168.08 953.83,-160.82 947.62,-157.59"/>
</g>
<!-- Node10&#45;&gt;Node9 -->
<g id="edge11" class="edge">
<title>Node10&#45;&gt;Node9</title>
<path fill="none" stroke="midnightblue" d="M999.35,-108.5C1023.54,-98.38 1056.96,-84.39 1078.16,-75.52"/>
<polygon fill="midnightblue" stroke="midnightblue" points="997.81,-105.35 989.94,-112.44 1000.52,-111.81 997.81,-105.35"/>
</g>
<!-- Node11 -->
<g id="node11" class="node">
<title>Node11</title>
<g id="a_node11"><a xlink:href="menu__bar_8cpp.html" target="_top" xlink:title=" ">
<polygon fill="white" stroke="black" points="977,-0.5 977,-19.5 1054,-19.5 1054,-0.5 977,-0.5"/>
<text text-anchor="middle" x="1015.5" y="-7.5" font-family="Helvetica,sans-Serif" font-size="10.00">menu_bar.cpp</text>
</a>
</g>
</g>
<!-- Node10&#45;&gt;Node11 -->
<g id="edge12" class="edge">
<title>Node10&#45;&gt;Node11</title>
<path fill="none" stroke="midnightblue" d="M972.31,-102.41C974.74,-89.1 978.92,-70.96 985.5,-56 991.48,-42.42 1001.5,-28.46 1008.3,-19.77"/>
<polygon fill="midnightblue" stroke="midnightblue" points="968.85,-101.84 970.66,-112.28 975.76,-102.99 968.85,-101.84"/>
</g>
<!-- Node12 -->
<g id="node12" class="node">
<title>Node12</title>
<g id="a_node12"><a xlink:href="scene_8h.html" target="_top" xlink:title=" ">
<polygon fill="white" stroke="black" points="994,-56.5 994,-75.5 1045,-75.5 1045,-56.5 994,-56.5"/>
<text text-anchor="middle" x="1019.5" y="-63.5" font-family="Helvetica,sans-Serif" font-size="10.00">scene.h</text>
</a>
</g>
</g>
<!-- Node10&#45;&gt;Node12 -->
<g id="edge13" class="edge">
<title>Node10&#45;&gt;Node12</title>
<path fill="none" stroke="midnightblue" d="M984.58,-104.72C993.39,-95.2 1004.17,-83.56 1011.4,-75.75"/>
<polygon fill="midnightblue" stroke="midnightblue" points="981.98,-102.37 977.76,-112.08 987.12,-107.12 981.98,-102.37"/>
</g>
<!-- Node12&#45;&gt;Node7 -->
<g id="edge15" class="edge">
<title>Node12&#45;&gt;Node7</title>
<path fill="none" stroke="midnightblue" d="M992.25,-51.86C971.48,-41.85 943.48,-28.35 925.45,-19.65"/>
<polygon fill="midnightblue" stroke="midnightblue" points="990.98,-55.13 1001.51,-56.32 994.02,-48.83 990.98,-55.13"/>
</g>
<!-- Node12&#45;&gt;Node11 -->
<g id="edge16" class="edge">
<title>Node12&#45;&gt;Node11</title>
<path fill="none" stroke="midnightblue" d="M1018.1,-46.1C1017.44,-37.14 1016.67,-26.86 1016.15,-19.75"/>
<polygon fill="midnightblue" stroke="midnightblue" points="1014.61,-46.37 1018.84,-56.08 1021.59,-45.85 1014.61,-46.37"/>
</g>
<!-- Node13 -->
<g id="node13" class="node">
<title>Node13</title>
<g id="a_node13"><a xlink:href="component_8cpp.html" target="_top" xlink:title=" ">
<polygon fill="white" stroke="black" points="1233,-0.5 1233,-19.5 1316,-19.5 1316,-0.5 1233,-0.5"/>
<text text-anchor="middle" x="1274.5" y="-7.5" font-family="Helvetica,sans-Serif" font-size="10.00">component.cpp</text>
</a>
</g>
</g>
<!-- Node12&#45;&gt;Node13 -->
<g id="edge14" class="edge">
<title>Node12&#45;&gt;Node13</title>
<path fill="none" stroke="midnightblue" d="M1055.09,-55.96C1122.92,-40.43 1190.32,-27.07 1232.6,-18.92"/>
<polygon fill="midnightblue" stroke="midnightblue" points="1054.04,-52.61 1045.08,-58.27 1055.61,-59.43 1054.04,-52.61"/>
</g>
<!-- Node14 -->
<g id="node14" class="node">
<title>Node14</title>
<g id="a_node14"><a xlink:href="scene_8cpp.html" target="_top" xlink:title=" ">
<polygon fill="white" stroke="black" points="1415.5,-0.5 1415.5,-19.5 1477.5,-19.5 1477.5,-0.5 1415.5,-0.5"/>
<text text-anchor="middle" x="1446.5" y="-7.5" font-family="Helvetica,sans-Serif" font-size="10.00">scene.cpp</text>
</a>
</g>
</g>
<!-- Node12&#45;&gt;Node14 -->
<g id="edge17" class="edge">
<title>Node12&#45;&gt;Node14</title>
<path fill="none" stroke="midnightblue" d="M1055.07,-56.15C1195.03,-30.76 1350.18,-17.85 1415.29,-13.12"/>
<polygon fill="midnightblue" stroke="midnightblue" points="1054.22,-52.75 1045.02,-58 1055.49,-59.64 1054.22,-52.75"/>
</g>
<!-- Node21&#45;&gt;Node13 -->
<g id="edge27" class="edge">
<title>Node21&#45;&gt;Node13</title>
<path fill="none" stroke="midnightblue" d="M940.84,-398.04C1068.6,-387.17 1489.5,-347.1 1489.5,-291 1489.5,-291 1489.5,-291 1489.5,-121 1489.5,-43.96 1378.73,-20.84 1316.21,-13.93"/>
<polygon fill="midnightblue" stroke="midnightblue" points="940.44,-394.56 930.77,-398.89 941.03,-401.54 940.44,-394.56"/>
</g>
<!-- Node21&#45;&gt;Node14 -->
<g id="edge63" class="edge">
<title>Node21&#45;&gt;Node14</title>
<path fill="none" stroke="midnightblue" d="M940.79,-400.72C1018.61,-399.4 1206.84,-392.37 1359.5,-356 1437.38,-337.45 1527.5,-371.06 1527.5,-291 1527.5,-291 1527.5,-291 1527.5,-121 1527.5,-75.46 1481.94,-36.36 1459.16,-19.65"/>
<polygon fill="midnightblue" stroke="midnightblue" points="940.51,-397.22 930.56,-400.87 940.61,-404.22 940.51,-397.22"/>
</g>
<!-- Node22 -->
<g id="node22" class="node">
<title>Node22</title>
<g id="a_node22"><a xlink:href="container_8h.html" target="_top" xlink:title=" ">
<polygon fill="white" stroke="black" points="1031.5,-336.5 1031.5,-355.5 1095.5,-355.5 1095.5,-336.5 1031.5,-336.5"/>
<text text-anchor="middle" x="1063.5" y="-343.5" font-family="Helvetica,sans-Serif" font-size="10.00">container.h</text>
</a>
</g>
</g>
<!-- Node21&#45;&gt;Node22 -->
<g id="edge28" class="edge">
<title>Node21&#45;&gt;Node22</title>
<path fill="none" stroke="midnightblue" d="M939.33,-389.17C969.27,-379 1011.72,-364.59 1038.42,-355.52"/>
<polygon fill="midnightblue" stroke="midnightblue" points="938.04,-385.91 929.69,-392.44 940.29,-392.54 938.04,-385.91"/>
</g>
<!-- Node33 -->
<g id="node33" class="node">
<title>Node33</title>
<g id="a_node33"><a xlink:href="control_8h.html" target="_top" xlink:title=" ">
<polygon fill="white" stroke="black" points="576.5,-280.5 576.5,-299.5 630.5,-299.5 630.5,-280.5 576.5,-280.5"/>
<text text-anchor="middle" x="603.5" y="-287.5" font-family="Helvetica,sans-Serif" font-size="10.00">control.h</text>
</a>
</g>
</g>
<!-- Node21&#45;&gt;Node33 -->
<g id="edge47" class="edge">
<title>Node21&#45;&gt;Node33</title>
<path fill="none" stroke="midnightblue" d="M871.29,-388.86C809.93,-366.44 680.2,-319.03 627.01,-299.59"/>
<polygon fill="midnightblue" stroke="midnightblue" points="870.29,-392.22 880.88,-392.37 872.69,-385.65 870.29,-392.22"/>
</g>
<!-- Node39 -->
<g id="node39" class="node">
<title>Node39</title>
<g id="a_node39"><a xlink:href="parent_8cpp.html" target="_top" xlink:title=" ">
<polygon fill="white" stroke="black" points="873.5,-336.5 873.5,-355.5 935.5,-355.5 935.5,-336.5 873.5,-336.5"/>
<text text-anchor="middle" x="904.5" y="-343.5" font-family="Helvetica,sans-Serif" font-size="10.00">parent.cpp</text>
</a>
</g>
</g>
<!-- Node21&#45;&gt;Node39 -->
<g id="edge62" class="edge">
<title>Node21&#45;&gt;Node39</title>
<path fill="none" stroke="midnightblue" d="M904.5,-381.8C904.5,-372.91 904.5,-362.78 904.5,-355.75"/>
<polygon fill="midnightblue" stroke="midnightblue" points="901,-382.08 904.5,-392.08 908,-382.08 901,-382.08"/>
</g>
<!-- Node23 -->
<g id="node23" class="node">
<title>Node23</title>
<g id="a_node23"><a xlink:href="box__container_8h.html" target="_top" xlink:title=" ">
<polygon fill="white" stroke="black" points="907,-280.5 907,-299.5 992,-299.5 992,-280.5 907,-280.5"/>
<text text-anchor="middle" x="949.5" y="-287.5" font-family="Helvetica,sans-Serif" font-size="10.00">box_container.h</text>
</a>
</g>
</g>
<!-- Node22&#45;&gt;Node23 -->
<g id="edge29" class="edge">
<title>Node22&#45;&gt;Node23</title>
<path fill="none" stroke="midnightblue" d="M1036.26,-332.1C1014.96,-322.01 985.96,-308.27 967.48,-299.52"/>
<polygon fill="midnightblue" stroke="midnightblue" points="1034.9,-335.33 1045.44,-336.44 1037.9,-329 1034.9,-335.33"/>
</g>
<!-- Node26 -->
<g id="node26" class="node">
<title>Node26</title>
<g id="a_node26"><a xlink:href="container_8cpp.html" target="_top" xlink:title=" ">
<polygon fill="white" stroke="black" points="1026.5,-280.5 1026.5,-299.5 1100.5,-299.5 1100.5,-280.5 1026.5,-280.5"/>
<text text-anchor="middle" x="1063.5" y="-287.5" font-family="Helvetica,sans-Serif" font-size="10.00">container.cpp</text>
</a>
</g>
</g>
<!-- Node22&#45;&gt;Node26 -->
<g id="edge38" class="edge">
<title>Node22&#45;&gt;Node26</title>
<path fill="none" stroke="midnightblue" d="M1063.5,-325.8C1063.5,-316.91 1063.5,-306.78 1063.5,-299.75"/>
<polygon fill="midnightblue" stroke="midnightblue" points="1060,-326.08 1063.5,-336.08 1067,-326.08 1060,-326.08"/>
</g>
<!-- Node27 -->
<g id="node27" class="node">
<title>Node27</title>
<g id="a_node27"><a xlink:href="layered__container_8h.html" target="_top" xlink:title=" ">
<polygon fill="white" stroke="black" points="1127,-280.5 1127,-299.5 1228,-299.5 1228,-280.5 1127,-280.5"/>
<text text-anchor="middle" x="1177.5" y="-287.5" font-family="Helvetica,sans-Serif" font-size="10.00">layered_container.h</text>
</a>
</g>
</g>
<!-- Node22&#45;&gt;Node27 -->
<g id="edge39" class="edge">
<title>Node22&#45;&gt;Node27</title>
<path fill="none" stroke="midnightblue" d="M1090.74,-332.1C1112.04,-322.01 1141.04,-308.27 1159.52,-299.52"/>
<polygon fill="midnightblue" stroke="midnightblue" points="1089.1,-329 1081.56,-336.44 1092.1,-335.33 1089.1,-329"/>
</g>
<!-- Node31 -->
<g id="node31" class="node">
<title>Node31</title>
<g id="a_node31"><a xlink:href="tile__pane_8h.html" target="_top" xlink:title=" ">
<polygon fill="white" stroke="black" points="1354.5,-280.5 1354.5,-299.5 1418.5,-299.5 1418.5,-280.5 1354.5,-280.5"/>
<text text-anchor="middle" x="1386.5" y="-287.5" font-family="Helvetica,sans-Serif" font-size="10.00">tile_pane.h</text>
</a>
</g>
</g>
<!-- Node22&#45;&gt;Node31 -->
<g id="edge44" class="edge">
<title>Node22&#45;&gt;Node31</title>
<path fill="none" stroke="midnightblue" d="M1105.63,-337.96C1171.1,-327.01 1295.81,-306.16 1354.48,-296.35"/>
<polygon fill="midnightblue" stroke="midnightblue" points="1104.94,-334.52 1095.65,-339.62 1106.09,-341.43 1104.94,-334.52"/>
</g>
<!-- Node23&#45;&gt;Node8 -->
<g id="edge32" class="edge">
<title>Node23&#45;&gt;Node8</title>
<path fill="none" stroke="midnightblue" d="M948.14,-270.35C946.39,-246.25 943.41,-205.31 942.12,-187.59"/>
<polygon fill="midnightblue" stroke="midnightblue" points="944.66,-270.65 948.87,-280.37 951.64,-270.14 944.66,-270.65"/>
</g>
<!-- Node23&#45;&gt;Node9 -->
<g id="edge31" class="edge">
<title>Node23&#45;&gt;Node9</title>
<path fill="none" stroke="midnightblue" d="M1002.24,-282.82C1027.88,-277.01 1056.9,-265.77 1074.5,-244 1116.23,-192.4 1104.96,-103.38 1100.14,-75.56"/>
<polygon fill="midnightblue" stroke="midnightblue" points="1001.34,-279.43 992.24,-284.85 1002.73,-286.29 1001.34,-279.43"/>
</g>
<!-- Node23&#45;&gt;Node16 -->
<g id="edge33" class="edge">
<title>Node23&#45;&gt;Node16</title>
<path fill="none" stroke="midnightblue" d="M937.41,-272.25C925.63,-257.23 906.34,-235.78 884.5,-224 869.58,-215.95 772.66,-197.79 713.18,-187.16"/>
<polygon fill="midnightblue" stroke="midnightblue" points="934.62,-274.37 943.44,-280.24 940.2,-270.15 934.62,-274.37"/>
</g>
<!-- Node24 -->
<g id="node24" class="node">
<title>Node24</title>
<g id="a_node24"><a xlink:href="box__container_8cpp.html" target="_top" xlink:title=" ">
<polygon fill="white" stroke="black" points="970,-224.5 970,-243.5 1065,-243.5 1065,-224.5 970,-224.5"/>
<text text-anchor="middle" x="1017.5" y="-231.5" font-family="Helvetica,sans-Serif" font-size="10.00">box_container.cpp</text>
</a>
</g>
</g>
<!-- Node23&#45;&gt;Node24 -->
<g id="edge30" class="edge">
<title>Node23&#45;&gt;Node24</title>
<path fill="none" stroke="midnightblue" d="M968.26,-274.1C980.5,-264.38 996.06,-252.03 1006.38,-243.83"/>
<polygon fill="midnightblue" stroke="midnightblue" points="966.08,-271.36 960.43,-280.32 970.43,-276.85 966.08,-271.36"/>
</g>
<!-- Node25 -->
<g id="node25" class="node">
<title>Node25</title>
<g id="a_node25"><a xlink:href="slider_8h.html" target="_top" xlink:title=" ">
<polygon fill="white" stroke="black" points="505,-224.5 505,-243.5 552,-243.5 552,-224.5 505,-224.5"/>
<text text-anchor="middle" x="528.5" y="-231.5" font-family="Helvetica,sans-Serif" font-size="10.00">slider.h</text>
</a>
</g>
</g>
<!-- Node23&#45;&gt;Node25 -->
<g id="edge34" class="edge">
<title>Node23&#45;&gt;Node25</title>
<path fill="none" stroke="midnightblue" d="M896.85,-285.42C821.88,-279.76 680.25,-266.94 561.5,-244 558.47,-243.41 555.31,-242.7 552.19,-241.92"/>
<polygon fill="midnightblue" stroke="midnightblue" points="896.75,-288.93 906.98,-286.18 897.27,-281.95 896.75,-288.93"/>
</g>
<!-- Node25&#45;&gt;Node15 -->
<g id="edge35" class="edge">
<title>Node25&#45;&gt;Node15</title>
<path fill="none" stroke="midnightblue" d="M562.29,-223.9C634.34,-206.16 654.12,-203.74 722.5,-188 725.14,-187.39 727.89,-186.75 730.64,-186.11"/>
<polygon fill="midnightblue" stroke="midnightblue" points="561.12,-220.58 552.26,-226.38 562.81,-227.37 561.12,-220.58"/>
</g>
<!-- Node25&#45;&gt;Node16 -->
<g id="edge36" class="edge">
<title>Node25&#45;&gt;Node16</title>
<path fill="none" stroke="midnightblue" d="M559.75,-220.77C585.67,-210.63 621.86,-196.47 644.74,-187.52"/>
<polygon fill="midnightblue" stroke="midnightblue" points="558.4,-217.54 550.37,-224.44 560.95,-224.06 558.4,-217.54"/>
</g>
<!-- Node25&#45;&gt;Node19 -->
<g id="edge37" class="edge">
<title>Node25&#45;&gt;Node19</title>
<path fill="none" stroke="midnightblue" d="M494.91,-224.08C398.92,-203.58 296.87,-189.19 247.8,-182.73"/>
<polygon fill="midnightblue" stroke="midnightblue" points="494.27,-227.52 504.78,-226.21 495.75,-220.68 494.27,-227.52"/>
</g>
<!-- Node28 -->
<g id="node28" class="node">
<title>Node28</title>
<g id="a_node28"><a xlink:href="anchor__pane_8h.html" target="_top" xlink:title=" ">
<polygon fill="white" stroke="black" points="1251.5,-224.5 1251.5,-243.5 1331.5,-243.5 1331.5,-224.5 1251.5,-224.5"/>
<text text-anchor="middle" x="1291.5" y="-231.5" font-family="Helvetica,sans-Serif" font-size="10.00">anchor_pane.h</text>
</a>
</g>
</g>
<!-- Node27&#45;&gt;Node28 -->
<g id="edge40" class="edge">
<title>Node27&#45;&gt;Node28</title>
<path fill="none" stroke="midnightblue" d="M1204.74,-276.1C1226.04,-266.01 1255.04,-252.27 1273.52,-243.52"/>
<polygon fill="midnightblue" stroke="midnightblue" points="1203.1,-273 1195.56,-280.44 1206.1,-279.33 1203.1,-273"/>
</g>
<!-- Node30 -->
<g id="node30" class="node">
<title>Node30</title>
<g id="a_node30"><a xlink:href="layered__container_8cpp.html" target="_top" xlink:title=" ">
<polygon fill="white" stroke="black" points="1122,-224.5 1122,-243.5 1233,-243.5 1233,-224.5 1122,-224.5"/>
<text text-anchor="middle" x="1177.5" y="-231.5" font-family="Helvetica,sans-Serif" font-size="10.00">layered_container.cpp</text>
</a>
</g>
</g>
<!-- Node27&#45;&gt;Node30 -->
<g id="edge43" class="edge">
<title>Node27&#45;&gt;Node30</title>
<path fill="none" stroke="midnightblue" d="M1177.5,-269.8C1177.5,-260.91 1177.5,-250.78 1177.5,-243.75"/>
<polygon fill="midnightblue" stroke="midnightblue" points="1174,-270.08 1177.5,-280.08 1181,-270.08 1174,-270.08"/>
</g>
<!-- Node28&#45;&gt;Node9 -->
<g id="edge42" class="edge">
<title>Node28&#45;&gt;Node9</title>
<path fill="none" stroke="midnightblue" d="M1273.38,-218.06C1262.86,-209.35 1249.38,-198.12 1237.5,-188 1188.54,-146.3 1130.77,-95.49 1108.21,-75.58"/>
<polygon fill="midnightblue" stroke="midnightblue" points="1271.15,-220.77 1281.09,-224.44 1275.61,-215.37 1271.15,-220.77"/>
</g>
<!-- Node29 -->
<g id="node29" class="node">
<title>Node29</title>
<g id="a_node29"><a xlink:href="anchor__pane_8cpp.html" target="_top" xlink:title=" ">
<polygon fill="white" stroke="black" points="1246,-168.5 1246,-187.5 1337,-187.5 1337,-168.5 1246,-168.5"/>
<text text-anchor="middle" x="1291.5" y="-175.5" font-family="Helvetica,sans-Serif" font-size="10.00">anchor_pane.cpp</text>
</a>
</g>
</g>
<!-- Node28&#45;&gt;Node29 -->
<g id="edge41" class="edge">
<title>Node28&#45;&gt;Node29</title>
<path fill="none" stroke="midnightblue" d="M1291.5,-213.8C1291.5,-204.91 1291.5,-194.78 1291.5,-187.75"/>
<polygon fill="midnightblue" stroke="midnightblue" points="1288,-214.08 1291.5,-224.08 1295,-214.08 1288,-214.08"/>
</g>
<!-- Node31&#45;&gt;Node9 -->
<g id="edge45" class="edge">
<title>Node31&#45;&gt;Node9</title>
<path fill="none" stroke="midnightblue" d="M1408.48,-274.36C1424.72,-261.6 1442.43,-242.32 1432.5,-224 1372.26,-112.89 1206.56,-79.8 1133.68,-70.46"/>
<polygon fill="midnightblue" stroke="midnightblue" points="1406.25,-271.65 1400.27,-280.4 1410.4,-277.29 1406.25,-271.65"/>
</g>
<!-- Node32 -->
<g id="node32" class="node">
<title>Node32</title>
<g id="a_node32"><a xlink:href="tile__pane_8cpp.html" target="_top" xlink:title=" ">
<polygon fill="white" stroke="black" points="1349.5,-224.5 1349.5,-243.5 1423.5,-243.5 1423.5,-224.5 1349.5,-224.5"/>
<text text-anchor="middle" x="1386.5" y="-231.5" font-family="Helvetica,sans-Serif" font-size="10.00">tile_pane.cpp</text>
</a>
</g>
</g>
<!-- Node31&#45;&gt;Node32 -->
<g id="edge46" class="edge">
<title>Node31&#45;&gt;Node32</title>
<path fill="none" stroke="midnightblue" d="M1386.5,-269.8C1386.5,-260.91 1386.5,-250.78 1386.5,-243.75"/>
<polygon fill="midnightblue" stroke="midnightblue" points="1383,-270.08 1386.5,-280.08 1390,-270.08 1383,-270.08"/>
</g>
<!-- Node33&#45;&gt;Node5 -->
<g id="edge48" class="edge">
<title>Node33&#45;&gt;Node5</title>
<path fill="none" stroke="midnightblue" d="M566.4,-279.74C530.19,-270.68 473.54,-256.47 424.5,-244 421.7,-243.29 418.78,-242.54 415.87,-241.8"/>
<polygon fill="midnightblue" stroke="midnightblue" points="565.95,-283.23 576.5,-282.26 567.65,-276.44 565.95,-283.23"/>
</g>
<!-- Node33&#45;&gt;Node25 -->
<g id="edge61" class="edge">
<title>Node33&#45;&gt;Node25</title>
<path fill="none" stroke="midnightblue" d="M583.19,-274.38C569.64,-264.62 552.26,-252.11 540.77,-243.83"/>
<polygon fill="midnightblue" stroke="midnightblue" points="581.29,-277.32 591.45,-280.32 585.38,-271.64 581.29,-277.32"/>
</g>
<!-- Node34 -->
<g id="node34" class="node">
<title>Node34</title>
<g id="a_node34"><a xlink:href="control_8cpp.html" target="_top" xlink:title=" ">
<polygon fill="white" stroke="black" points="747,-224.5 747,-243.5 812,-243.5 812,-224.5 747,-224.5"/>
<text text-anchor="middle" x="779.5" y="-231.5" font-family="Helvetica,sans-Serif" font-size="10.00">control.cpp</text>
</a>
</g>
</g>
<!-- Node33&#45;&gt;Node34 -->
<g id="edge49" class="edge">
<title>Node33&#45;&gt;Node34</title>
<path fill="none" stroke="midnightblue" d="M640.41,-277.67C673.64,-267.48 721.73,-252.73 751.77,-243.51"/>
<polygon fill="midnightblue" stroke="midnightblue" points="639.15,-274.4 630.61,-280.68 641.2,-281.09 639.15,-274.4"/>
</g>
<!-- Node35 -->
<g id="node35" class="node">
<title>Node35</title>
<g id="a_node35"><a xlink:href="label_8h.html" target="_top" xlink:title=" ">
<polygon fill="white" stroke="black" points="830,-224.5 830,-243.5 875,-243.5 875,-224.5 830,-224.5"/>
<text text-anchor="middle" x="852.5" y="-231.5" font-family="Helvetica,sans-Serif" font-size="10.00">label.h</text>
</a>
</g>
</g>
<!-- Node33&#45;&gt;Node35 -->
<g id="edge50" class="edge">
<title>Node33&#45;&gt;Node35</title>
<path fill="none" stroke="midnightblue" d="M640.35,-282.31C683.86,-274.21 758.3,-259.67 821.5,-244 824.22,-243.33 827.06,-242.57 829.87,-241.79"/>
<polygon fill="midnightblue" stroke="midnightblue" points="639.7,-278.87 630.5,-284.14 640.97,-285.76 639.7,-278.87"/>
</g>
<!-- Node36 -->
<g id="node36" class="node">
<title>Node36</title>
<g id="a_node36"><a xlink:href="scroll__bar_8h.html" target="_top" xlink:title=" ">
<polygon fill="white" stroke="black" points="570.5,-224.5 570.5,-243.5 636.5,-243.5 636.5,-224.5 570.5,-224.5"/>
<text text-anchor="middle" x="603.5" y="-231.5" font-family="Helvetica,sans-Serif" font-size="10.00">scroll_bar.h</text>
</a>
</g>
</g>
<!-- Node33&#45;&gt;Node36 -->
<g id="edge52" class="edge">
<title>Node33&#45;&gt;Node36</title>
<path fill="none" stroke="midnightblue" d="M603.5,-269.8C603.5,-260.91 603.5,-250.78 603.5,-243.75"/>
<polygon fill="midnightblue" stroke="midnightblue" points="600,-270.08 603.5,-280.08 607,-270.08 600,-270.08"/>
</g>
<!-- Node37 -->
<g id="node37" class="node">
<title>Node37</title>
<g id="a_node37"><a xlink:href="scroll__pane_8h.html" target="_top" xlink:title=" ">
<polygon fill="white" stroke="black" points="654.5,-224.5 654.5,-243.5 728.5,-243.5 728.5,-224.5 654.5,-224.5"/>
<text text-anchor="middle" x="691.5" y="-231.5" font-family="Helvetica,sans-Serif" font-size="10.00">scroll_pane.h</text>
</a>
</g>
</g>
<!-- Node33&#45;&gt;Node37 -->
<g id="edge56" class="edge">
<title>Node33&#45;&gt;Node37</title>
<path fill="none" stroke="midnightblue" d="M626.48,-274.9C642.61,-265 663.68,-252.07 677.4,-243.65"/>
<polygon fill="midnightblue" stroke="midnightblue" points="624.33,-272.11 617.64,-280.32 627.99,-278.08 624.33,-272.11"/>
</g>
<!-- Node38 -->
<g id="node38" class="node">
<title>Node38</title>
<g id="a_node38"><a xlink:href="skin_8cpp.html" target="_top" xlink:title=" ">
<polygon fill="white" stroke="black" points="434,-224.5 434,-243.5 487,-243.5 487,-224.5 434,-224.5"/>
<text text-anchor="middle" x="460.5" y="-231.5" font-family="Helvetica,sans-Serif" font-size="10.00">skin.cpp</text>
</a>
</g>
</g>
<!-- Node33&#45;&gt;Node38 -->
<g id="edge60" class="edge">
<title>Node33&#45;&gt;Node38</title>
<path fill="none" stroke="midnightblue" d="M571.47,-276.91C544.59,-266.75 506.86,-252.51 483.05,-243.52"/>
<polygon fill="midnightblue" stroke="midnightblue" points="570.25,-280.19 580.84,-280.44 572.72,-273.64 570.25,-280.19"/>
</g>
<!-- Node35&#45;&gt;Node15 -->
<g id="edge51" class="edge">
<title>Node35&#45;&gt;Node15</title>
<path fill="none" stroke="midnightblue" d="M828.95,-219.18C812.02,-209.24 789.72,-196.15 775.24,-187.65"/>
<polygon fill="midnightblue" stroke="midnightblue" points="827.32,-222.28 837.72,-224.32 830.87,-216.24 827.32,-222.28"/>
</g>
<!-- Node36&#45;&gt;Node15 -->
<g id="edge53" class="edge">
<title>Node36&#45;&gt;Node15</title>
<path fill="none" stroke="midnightblue" d="M637.89,-221.17C667.45,-211 709.37,-196.59 735.74,-187.52"/>
<polygon fill="midnightblue" stroke="midnightblue" points="636.7,-217.88 628.38,-224.44 638.97,-224.5 636.7,-217.88"/>
</g>
<!-- Node36&#45;&gt;Node16 -->
<g id="edge54" class="edge">
<title>Node36&#45;&gt;Node16</title>
<path fill="none" stroke="midnightblue" d="M621.54,-217.54C632.77,-207.91 646.82,-195.87 656.19,-187.83"/>
<polygon fill="midnightblue" stroke="midnightblue" points="618.94,-215.16 613.62,-224.32 623.49,-220.47 618.94,-215.16"/>
</g>
<!-- Node36&#45;&gt;Node17 -->
<g id="edge55" class="edge">
<title>Node36&#45;&gt;Node17</title>
<path fill="none" stroke="midnightblue" d="M571.47,-220.91C544.59,-210.75 506.86,-196.51 483.05,-187.52"/>
<polygon fill="midnightblue" stroke="midnightblue" points="570.25,-224.19 580.84,-224.44 572.72,-217.64 570.25,-224.19"/>
</g>
<!-- Node37&#45;&gt;Node15 -->
<g id="edge57" class="edge">
<title>Node37&#45;&gt;Node15</title>
<path fill="none" stroke="midnightblue" d="M710.54,-218.1C722.96,-208.38 738.74,-196.03 749.21,-187.83"/>
<polygon fill="midnightblue" stroke="midnightblue" points="708.3,-215.4 702.59,-224.32 712.62,-220.92 708.3,-215.4"/>
</g>
<!-- Node37&#45;&gt;Node16 -->
<g id="edge58" class="edge">
<title>Node37&#45;&gt;Node16</title>
<path fill="none" stroke="midnightblue" d="M683.16,-214.98C678.92,-205.82 673.95,-195.09 670.55,-187.75"/>
<polygon fill="midnightblue" stroke="midnightblue" points="679.99,-216.48 687.37,-224.08 686.35,-213.54 679.99,-216.48"/>
</g>
<!-- Node37&#45;&gt;Node18 -->
<g id="edge59" class="edge">
<title>Node37&#45;&gt;Node18</title>
<path fill="none" stroke="midnightblue" d="M661.28,-220.64C636.51,-210.5 602.1,-196.43 580.32,-187.52"/>
<polygon fill="midnightblue" stroke="midnightblue" points="660,-223.9 670.58,-224.44 662.65,-217.42 660,-223.9"/>
</g>
<!-- Node41 -->
<g id="node41" class="node">
<title>Node41</title>
<g id="a_node41"><a xlink:href="circle_8h.html" target="_top" xlink:title=" ">
<polygon fill="white" stroke="black" points="101.5,-336.5 101.5,-355.5 149.5,-355.5 149.5,-336.5 101.5,-336.5"/>
<text text-anchor="middle" x="125.5" y="-343.5" font-family="Helvetica,sans-Serif" font-size="10.00">circle.h</text>
</a>
</g>
</g>
<!-- Node40&#45;&gt;Node41 -->
<g id="edge65" class="edge">
<title>Node40&#45;&gt;Node41</title>
<path fill="none" stroke="midnightblue" d="M180.19,-386.38C166.64,-376.62 149.26,-364.11 137.77,-355.83"/>
<polygon fill="midnightblue" stroke="midnightblue" points="178.29,-389.32 188.45,-392.32 182.38,-383.64 178.29,-389.32"/>
</g>
<!-- Node44 -->
<g id="node44" class="node">
<title>Node44</title>
<g id="a_node44"><a xlink:href="rectangle_8h.html" target="_top" xlink:title=" ">
<polygon fill="white" stroke="black" points="168,-336.5 168,-355.5 233,-355.5 233,-336.5 168,-336.5"/>
<text text-anchor="middle" x="200.5" y="-343.5" font-family="Helvetica,sans-Serif" font-size="10.00">rectangle.h</text>
</a>
</g>
</g>
<!-- Node40&#45;&gt;Node44 -->
<g id="edge68" class="edge">
<title>Node40&#45;&gt;Node44</title>
<path fill="none" stroke="midnightblue" d="M200.5,-381.8C200.5,-372.91 200.5,-362.78 200.5,-355.75"/>
<polygon fill="midnightblue" stroke="midnightblue" points="197,-382.08 200.5,-392.08 204,-382.08 197,-382.08"/>
</g>
<!-- Node46 -->
<g id="node46" class="node">
<title>Node46</title>
<g id="a_node46"><a xlink:href="shape_8cpp.html" target="_top" xlink:title=" ">
<polygon fill="white" stroke="black" points="21.5,-336.5 21.5,-355.5 83.5,-355.5 83.5,-336.5 21.5,-336.5"/>
<text text-anchor="middle" x="52.5" y="-343.5" font-family="Helvetica,sans-Serif" font-size="10.00">shape.cpp</text>
</a>
</g>
</g>
<!-- Node40&#45;&gt;Node46 -->
<g id="edge72" class="edge">
<title>Node40&#45;&gt;Node46</title>
<path fill="none" stroke="midnightblue" d="M167.35,-388.91C139.53,-378.75 100.48,-364.51 75.84,-355.52"/>
<polygon fill="midnightblue" stroke="midnightblue" points="166.46,-392.3 177.05,-392.44 168.85,-385.73 166.46,-392.3"/>
</g>
<!-- Node47 -->
<g id="node47" class="node">
<title>Node47</title>
<g id="a_node47"><a xlink:href="text_8h.html" target="_top" xlink:title=" ">
<polygon fill="white" stroke="black" points="251,-336.5 251,-355.5 292,-355.5 292,-336.5 251,-336.5"/>
<text text-anchor="middle" x="271.5" y="-343.5" font-family="Helvetica,sans-Serif" font-size="10.00">text.h</text>
</a>
</g>
</g>
<!-- Node40&#45;&gt;Node47 -->
<g id="edge73" class="edge">
<title>Node40&#45;&gt;Node47</title>
<path fill="none" stroke="midnightblue" d="M220.09,-386.1C232.87,-376.38 249.11,-364.03 259.89,-355.83"/>
<polygon fill="midnightblue" stroke="midnightblue" points="217.75,-383.48 211.91,-392.32 221.99,-389.06 217.75,-383.48"/>
</g>
<!-- Node42 -->
<g id="node42" class="node">
<title>Node42</title>
<g id="a_node42"><a xlink:href="circle_8cpp.html" target="_top" xlink:title=" ">
<polygon fill="white" stroke="black" points="0,-280.5 0,-299.5 59,-299.5 59,-280.5 0,-280.5"/>
<text text-anchor="middle" x="29.5" y="-287.5" font-family="Helvetica,sans-Serif" font-size="10.00">circle.cpp</text>
</a>
</g>
</g>
<!-- Node41&#45;&gt;Node42 -->
<g id="edge66" class="edge">
<title>Node41&#45;&gt;Node42</title>
<path fill="none" stroke="midnightblue" d="M100.93,-331.18C83.26,-321.24 59.99,-308.15 44.89,-299.65"/>
<polygon fill="midnightblue" stroke="midnightblue" points="99.64,-334.47 110.08,-336.32 103.08,-328.37 99.64,-334.47"/>
</g>
<!-- Node43 -->
<g id="node43" class="node">
<title>Node43</title>
<g id="a_node43"><a xlink:href="shapes_8h.html" target="_top" xlink:title=" ">
<polygon fill="white" stroke="black" points="170.5,-280.5 170.5,-299.5 226.5,-299.5 226.5,-280.5 170.5,-280.5"/>
<text text-anchor="middle" x="198.5" y="-287.5" font-family="Helvetica,sans-Serif" font-size="10.00">shapes.h</text>
</a>
</g>
</g>
<!-- Node41&#45;&gt;Node43 -->
<g id="edge67" class="edge">
<title>Node41&#45;&gt;Node43</title>
<path fill="none" stroke="midnightblue" d="M145.64,-330.1C158.78,-320.38 175.48,-308.03 186.56,-299.83"/>
<polygon fill="midnightblue" stroke="midnightblue" points="143.19,-327.56 137.23,-336.32 147.35,-333.19 143.19,-327.56"/>
</g>
<!-- Node44&#45;&gt;Node4 -->
<g id="edge69" class="edge">
<title>Node44&#45;&gt;Node4</title>
<path fill="none" stroke="midnightblue" d="M229.51,-332.37C252.73,-322.26 284.66,-308.35 304.94,-299.52"/>
<polygon fill="midnightblue" stroke="midnightblue" points="227.92,-329.24 220.15,-336.44 230.71,-335.66 227.92,-329.24"/>
</g>
<!-- Node44&#45;&gt;Node43 -->
<g id="edge71" class="edge">
<title>Node44&#45;&gt;Node43</title>
<path fill="none" stroke="midnightblue" d="M199.79,-325.8C199.46,-316.91 199.08,-306.78 198.82,-299.75"/>
<polygon fill="midnightblue" stroke="midnightblue" points="196.3,-326.22 200.17,-336.08 203.3,-325.96 196.3,-326.22"/>
</g>
<!-- Node45 -->
<g id="node45" class="node">
<title>Node45</title>
<g id="a_node45"><a xlink:href="rectangle_8cpp.html" target="_top" xlink:title=" ">
<polygon fill="white" stroke="black" points="77,-280.5 77,-299.5 152,-299.5 152,-280.5 77,-280.5"/>
<text text-anchor="middle" x="114.5" y="-287.5" font-family="Helvetica,sans-Serif" font-size="10.00">rectangle.cpp</text>
</a>
</g>
</g>
<!-- Node44&#45;&gt;Node45 -->
<g id="edge70" class="edge">
<title>Node44&#45;&gt;Node45</title>
<path fill="none" stroke="midnightblue" d="M178.05,-330.9C162.28,-321 141.69,-308.07 128.28,-299.65"/>
<polygon fill="midnightblue" stroke="midnightblue" points="176.35,-333.97 186.68,-336.32 180.07,-328.04 176.35,-333.97"/>
</g>
<!-- Node47&#45;&gt;Node4 -->
<g id="edge74" class="edge">
<title>Node47&#45;&gt;Node4</title>
<path fill="none" stroke="midnightblue" d="M287.48,-328.72C296.82,-319.2 308.25,-307.56 315.91,-299.75"/>
<polygon fill="midnightblue" stroke="midnightblue" points="284.76,-326.49 280.25,-336.08 289.75,-331.4 284.76,-326.49"/>
</g>
<!-- Node47&#45;&gt;Node20 -->
<g id="edge77" class="edge">
<title>Node47&#45;&gt;Node20</title>
<path fill="none" stroke="midnightblue" d="M264.23,-326.69C258.06,-312.77 248.2,-293.74 235.5,-280 220.99,-264.3 199.94,-251.47 185.11,-243.58"/>
<polygon fill="midnightblue" stroke="midnightblue" points="261.11,-328.3 268.21,-336.17 267.56,-325.59 261.11,-328.3"/>
</g>
<!-- Node47&#45;&gt;Node25 -->
<g id="edge76" class="edge">
<title>Node47&#45;&gt;Node25</title>
<path fill="none" stroke="midnightblue" d="M301.16,-332.3C354.07,-309.66 463.38,-262.87 508.43,-243.59"/>
<polygon fill="midnightblue" stroke="midnightblue" points="299.48,-329.22 291.67,-336.37 302.24,-335.65 299.48,-329.22"/>
</g>
<!-- Node47&#45;&gt;Node43 -->
<g id="edge75" class="edge">
<title>Node47&#45;&gt;Node43</title>
<path fill="none" stroke="midnightblue" d="M251.36,-330.1C238.22,-320.38 221.52,-308.03 210.44,-299.83"/>
<polygon fill="midnightblue" stroke="midnightblue" points="249.65,-333.19 259.77,-336.32 253.81,-327.56 249.65,-333.19"/>
</g>
<!-- Node49&#45;&gt;Node4 -->
<g id="edge83" class="edge">
<title>Node49&#45;&gt;Node4</title>
<path fill="none" stroke="midnightblue" d="M460.07,-334.84C428.58,-324.65 380.65,-309.16 351.02,-299.58"/>
<polygon fill="midnightblue" stroke="midnightblue" points="459.08,-338.19 469.67,-337.94 461.23,-331.53 459.08,-338.19"/>
</g>
<!-- Node49&#45;&gt;Node33 -->
<g id="edge82" class="edge">
<title>Node49&#45;&gt;Node33</title>
<path fill="none" stroke="midnightblue" d="M518.75,-331.86C539.52,-321.85 567.52,-308.35 585.55,-299.65"/>
<polygon fill="midnightblue" stroke="midnightblue" points="516.98,-328.83 509.49,-336.32 520.02,-335.13 516.98,-328.83"/>
</g>
<!-- Node49&#45;&gt;Node38 -->
<g id="edge84" class="edge">
<title>Node49&#45;&gt;Node38</title>
<path fill="none" stroke="midnightblue" d="M486.34,-326.67C479.56,-302.62 467.94,-261.39 462.92,-243.59"/>
<polygon fill="midnightblue" stroke="midnightblue" points="482.99,-327.69 489.07,-336.37 489.72,-325.79 482.99,-327.69"/>
</g>
</g>
</svg>
