<?xml version="1.0" encoding="UTF-8" standalone="no"?>
<!DOCTYPE svg PUBLIC "-//W3C//DTD SVG 1.1//EN"
 "http://www.w3.org/Graphics/SVG/1.1/DTD/svg11.dtd">
<!-- Generated by graphviz version 2.50.0 (20211204.2007)
 -->
<!-- Title: menu_bar.cpp Pages: 1 -->
<svg width="1483pt" height="644pt"
 viewBox="0.00 0.00 1483.00 644.00" xmlns="http://www.w3.org/2000/svg" xmlns:xlink="http://www.w3.org/1999/xlink">
<g id="graph0" class="graph" transform="scale(1 1) rotate(0) translate(4 640)">
<title>menu_bar.cpp</title>
<polygon fill="white" stroke="transparent" points="-4,4 -4,-640 1479,-640 1479,4 -4,4"/>
<!-- Node1 -->
<g id="node1" class="node">
<title>Node1</title>
<g id="a_node1"><a xlink:title=" ">
<polygon fill="#bfbfbf" stroke="black" points="511,-616.5 511,-635.5 588,-635.5 588,-616.5 511,-616.5"/>
<text text-anchor="middle" x="549.5" y="-623.5" font-family="Helvetica,sans-Serif" font-size="10.00">menu_bar.cpp</text>
</a>
</g>
</g>
<!-- Node2 -->
<g id="node2" class="node">
<title>Node2</title>
<g id="a_node2"><a xlink:href="menu__bar_8h.html" target="_top" xlink:title=" ">
<polygon fill="white" stroke="black" points="443.5,-504.5 443.5,-523.5 587.5,-523.5 587.5,-504.5 443.5,-504.5"/>
<text text-anchor="middle" x="515.5" y="-511.5" font-family="Helvetica,sans-Serif" font-size="10.00">scene/containers/menu_bar.h</text>
</a>
</g>
</g>
<!-- Node1&#45;&gt;Node2 -->
<g id="edge1" class="edge">
<title>Node1&#45;&gt;Node2</title>
<path fill="none" stroke="midnightblue" d="M546.53,-616.4C543.43,-607.37 538.48,-592.73 534.5,-580 529.62,-564.4 524.44,-546.56 520.72,-533.53"/>
<polygon fill="midnightblue" stroke="midnightblue" points="524.07,-532.53 517.98,-523.86 517.34,-534.44 524.07,-532.53"/>
</g>
<!-- Node41 -->
<g id="node41" class="node">
<title>Node41</title>
<g id="a_node41"><a xlink:href="scene_8h.html" target="_top" xlink:title=" ">
<polygon fill="white" stroke="black" points="543.5,-560.5 543.5,-579.5 623.5,-579.5 623.5,-560.5 543.5,-560.5"/>
<text text-anchor="middle" x="583.5" y="-567.5" font-family="Helvetica,sans-Serif" font-size="10.00">scene/scene.h</text>
</a>
</g>
</g>
<!-- Node1&#45;&gt;Node41 -->
<g id="edge64" class="edge">
<title>Node1&#45;&gt;Node41</title>
<path fill="none" stroke="midnightblue" d="M555.11,-616.08C559.87,-608.53 566.82,-597.49 572.65,-588.23"/>
<polygon fill="midnightblue" stroke="midnightblue" points="575.62,-590.08 577.99,-579.75 569.7,-586.35 575.62,-590.08"/>
</g>
<!-- Node3 -->
<g id="node3" class="node">
<title>Node3</title>
<g id="a_node3"><a xlink:href="button_8h.html" target="_top" xlink:title=" ">
<polygon fill="white" stroke="black" points="430.5,-392.5 430.5,-411.5 528.5,-411.5 528.5,-392.5 430.5,-392.5"/>
<text text-anchor="middle" x="479.5" y="-399.5" font-family="Helvetica,sans-Serif" font-size="10.00">../controls/button.h</text>
</a>
</g>
</g>
<!-- Node2&#45;&gt;Node3 -->
<g id="edge2" class="edge">
<title>Node2&#45;&gt;Node3</title>
<path fill="none" stroke="midnightblue" d="M513.13,-504.1C509.73,-491.52 503.14,-467.85 496.5,-448 493.52,-439.08 489.87,-429.3 486.72,-421.14"/>
<polygon fill="midnightblue" stroke="midnightblue" points="489.87,-419.59 482.96,-411.56 483.35,-422.14 489.87,-419.59"/>
</g>
<!-- Node36 -->
<g id="node36" class="node">
<title>Node36</title>
<g id="a_node36"><a xlink:href="context__menu_8h.html" target="_top" xlink:title=" ">
<polygon fill="white" stroke="black" points="401.5,-448.5 401.5,-467.5 487.5,-467.5 487.5,-448.5 401.5,-448.5"/>
<text text-anchor="middle" x="444.5" y="-455.5" font-family="Helvetica,sans-Serif" font-size="10.00">context_menu.h</text>
</a>
</g>
</g>
<!-- Node2&#45;&gt;Node36 -->
<g id="edge57" class="edge">
<title>Node2&#45;&gt;Node36</title>
<path fill="none" stroke="midnightblue" d="M504.09,-504.32C493.39,-496.18 477.16,-483.84 464.34,-474.09"/>
<polygon fill="midnightblue" stroke="midnightblue" points="466.19,-471.1 456.11,-467.83 461.96,-476.67 466.19,-471.1"/>
</g>
<!-- Node4 -->
<g id="node4" class="node">
<title>Node4</title>
<g id="a_node4"><a xlink:href="control_8h.html" target="_top" xlink:title=" ">
<polygon fill="white" stroke="black" points="313.5,-280.5 313.5,-299.5 367.5,-299.5 367.5,-280.5 313.5,-280.5"/>
<text text-anchor="middle" x="340.5" y="-287.5" font-family="Helvetica,sans-Serif" font-size="10.00">control.h</text>
</a>
</g>
</g>
<!-- Node3&#45;&gt;Node4 -->
<g id="edge3" class="edge">
<title>Node3&#45;&gt;Node4</title>
<path fill="none" stroke="midnightblue" d="M468.59,-392.37C444.94,-373.65 388.71,-329.15 359.24,-305.83"/>
<polygon fill="midnightblue" stroke="midnightblue" points="361.37,-303.05 351.36,-299.59 357.03,-308.54 361.37,-303.05"/>
</g>
<!-- Node30 -->
<g id="node30" class="node">
<title>Node30</title>
<g id="a_node30"><a xlink:href="default__skins_8h.html" target="_top" xlink:title=" ">
<polygon fill="white" stroke="black" points="454.5,-336.5 454.5,-355.5 570.5,-355.5 570.5,-336.5 454.5,-336.5"/>
<text text-anchor="middle" x="512.5" y="-343.5" font-family="Helvetica,sans-Serif" font-size="10.00">../style/default_skins.h</text>
</a>
</g>
</g>
<!-- Node3&#45;&gt;Node30 -->
<g id="edge38" class="edge">
<title>Node3&#45;&gt;Node30</title>
<path fill="none" stroke="midnightblue" d="M484.95,-392.08C489.51,-384.61 496.17,-373.72 501.79,-364.52"/>
<polygon fill="midnightblue" stroke="midnightblue" points="504.92,-366.11 507.15,-355.75 498.95,-362.46 504.92,-366.11"/>
</g>
<!-- Node5 -->
<g id="node5" class="node">
<title>Node5</title>
<g id="a_node5"><a xlink:href="parent_8h.html" target="_top" xlink:title=" ">
<polygon fill="white" stroke="black" points="344,-224.5 344,-243.5 405,-243.5 405,-224.5 344,-224.5"/>
<text text-anchor="middle" x="374.5" y="-231.5" font-family="Helvetica,sans-Serif" font-size="10.00">../parent.h</text>
</a>
</g>
</g>
<!-- Node4&#45;&gt;Node5 -->
<g id="edge4" class="edge">
<title>Node4&#45;&gt;Node5</title>
<path fill="none" stroke="midnightblue" d="M346.11,-280.08C350.87,-272.53 357.82,-261.49 363.65,-252.23"/>
<polygon fill="midnightblue" stroke="midnightblue" points="366.62,-254.08 368.99,-243.75 360.7,-250.35 366.62,-254.08"/>
</g>
<!-- Node28 -->
<g id="node28" class="node">
<title>Node28</title>
<g id="a_node28"><a xlink:href="skin_8h.html" target="_top" xlink:title=" ">
<polygon fill="white" stroke="black" points="175.5,-224.5 175.5,-243.5 251.5,-243.5 251.5,-224.5 175.5,-224.5"/>
<text text-anchor="middle" x="213.5" y="-231.5" font-family="Helvetica,sans-Serif" font-size="10.00">../style/skin.h</text>
</a>
</g>
</g>
<!-- Node4&#45;&gt;Node28 -->
<g id="edge35" class="edge">
<title>Node4&#45;&gt;Node28</title>
<path fill="none" stroke="midnightblue" d="M320.38,-280.44C299.48,-271.56 266.57,-257.56 242.78,-247.45"/>
<polygon fill="midnightblue" stroke="midnightblue" points="244.1,-244.21 233.53,-243.52 241.36,-250.65 244.1,-244.21"/>
</g>
<!-- Node6 -->
<g id="node6" class="node">
<title>Node6</title>
<g id="a_node6"><a xlink:href="component_8h.html" target="_top" xlink:title=" ">
<polygon fill="white" stroke="black" points="606,-168.5 606,-187.5 679,-187.5 679,-168.5 606,-168.5"/>
<text text-anchor="middle" x="642.5" y="-175.5" font-family="Helvetica,sans-Serif" font-size="10.00">component.h</text>
</a>
</g>
</g>
<!-- Node5&#45;&gt;Node6 -->
<g id="edge5" class="edge">
<title>Node5&#45;&gt;Node6</title>
<path fill="none" stroke="midnightblue" d="M405.24,-226.81C451.87,-217.41 540.83,-199.49 595.58,-188.45"/>
<polygon fill="midnightblue" stroke="midnightblue" points="596.6,-191.82 605.71,-186.41 595.22,-184.96 596.6,-191.82"/>
</g>
<!-- Node19 -->
<g id="node19" class="node">
<title>Node19</title>
<g id="a_node19"><a xlink:href="insets_8h.html" target="_top" xlink:title=" ">
<polygon fill="white" stroke="black" points="181.5,-112.5 181.5,-131.5 265.5,-131.5 265.5,-112.5 181.5,-112.5"/>
<text text-anchor="middle" x="223.5" y="-119.5" font-family="Helvetica,sans-Serif" font-size="10.00">../paint/insets.h</text>
</a>
</g>
</g>
<!-- Node5&#45;&gt;Node19 -->
<g id="edge19" class="edge">
<title>Node5&#45;&gt;Node19</title>
<path fill="none" stroke="midnightblue" d="M370.47,-224.25C363.76,-210.55 349.08,-183.95 329.5,-168 310.9,-152.85 286.44,-142.02 265.71,-134.78"/>
<polygon fill="midnightblue" stroke="midnightblue" points="266.77,-131.45 256.18,-131.61 264.57,-138.09 266.77,-131.45"/>
</g>
<!-- Node21 -->
<g id="node21" class="node">
<title>Node21</title>
<g id="a_node21"><a xlink:href="border_8h.html" target="_top" xlink:title=" ">
<polygon fill="white" stroke="black" points="381.5,-168.5 381.5,-187.5 465.5,-187.5 465.5,-168.5 381.5,-168.5"/>
<text text-anchor="middle" x="423.5" y="-175.5" font-family="Helvetica,sans-Serif" font-size="10.00">../paint/border.h</text>
</a>
</g>
</g>
<!-- Node5&#45;&gt;Node21 -->
<g id="edge21" class="edge">
<title>Node5&#45;&gt;Node21</title>
<path fill="none" stroke="midnightblue" d="M382.59,-224.08C389.66,-216.3 400.09,-204.8 408.65,-195.37"/>
<polygon fill="midnightblue" stroke="midnightblue" points="411.43,-197.51 415.56,-187.75 406.25,-192.8 411.43,-197.51"/>
</g>
<!-- Node24 -->
<g id="node24" class="node">
<title>Node24</title>
<g id="a_node24"><a xlink:href="background_8h.html" target="_top" xlink:title=" ">
<polygon fill="white" stroke="black" points="743.5,-168.5 743.5,-187.5 851.5,-187.5 851.5,-168.5 743.5,-168.5"/>
<text text-anchor="middle" x="797.5" y="-175.5" font-family="Helvetica,sans-Serif" font-size="10.00">../paint/background.h</text>
</a>
</g>
</g>
<!-- Node5&#45;&gt;Node24 -->
<g id="edge25" class="edge">
<title>Node5&#45;&gt;Node24</title>
<path fill="none" stroke="midnightblue" d="M405.26,-229.07C473.89,-220.31 640.71,-199.02 733.16,-187.21"/>
<polygon fill="midnightblue" stroke="midnightblue" points="733.76,-190.67 743.23,-185.93 732.87,-183.72 733.76,-190.67"/>
</g>
<!-- Node7 -->
<g id="node7" class="node">
<title>Node7</title>
<g id="a_node7"><a xlink:title=" ">
<polygon fill="white" stroke="#bfbfbf" points="629.5,-112.5 629.5,-131.5 769.5,-131.5 769.5,-112.5 629.5,-112.5"/>
<text text-anchor="middle" x="699.5" y="-119.5" font-family="Helvetica,sans-Serif" font-size="10.00">sml/sml_graphics_wrapper.h</text>
</a>
</g>
</g>
<!-- Node6&#45;&gt;Node7 -->
<g id="edge6" class="edge">
<title>Node6&#45;&gt;Node7</title>
<path fill="none" stroke="midnightblue" d="M651.66,-168.32C660,-160.42 672.53,-148.55 682.68,-138.94"/>
<polygon fill="midnightblue" stroke="midnightblue" points="685.32,-141.25 690.18,-131.83 680.51,-136.17 685.32,-141.25"/>
</g>
<!-- Node8 -->
<g id="node8" class="node">
<title>Node8</title>
<g id="a_node8"><a xlink:href="gui__event__dispatching_8h.html" target="_top" xlink:title=" ">
<polygon fill="white" stroke="black" points="1063,-112.5 1063,-131.5 1226,-131.5 1226,-112.5 1063,-112.5"/>
<text text-anchor="middle" x="1144.5" y="-119.5" font-family="Helvetica,sans-Serif" font-size="10.00">../events/gui_event_dispatching.h</text>
</a>
</g>
</g>
<!-- Node6&#45;&gt;Node8 -->
<g id="edge7" class="edge">
<title>Node6&#45;&gt;Node8</title>
<path fill="none" stroke="midnightblue" d="M679.01,-173.07C757.33,-164.65 943.45,-144.63 1055.18,-132.61"/>
<polygon fill="midnightblue" stroke="midnightblue" points="1055.85,-136.06 1065.42,-131.51 1055.1,-129.1 1055.85,-136.06"/>
</g>
<!-- Node16 -->
<g id="node16" class="node">
<title>Node16</title>
<g id="a_node16"><a xlink:href="shadow_8h.html" target="_top" xlink:title=" ">
<polygon fill="white" stroke="black" points="521.5,-112.5 521.5,-131.5 611.5,-131.5 611.5,-112.5 521.5,-112.5"/>
<text text-anchor="middle" x="566.5" y="-119.5" font-family="Helvetica,sans-Serif" font-size="10.00">../paint/shadow.h</text>
</a>
</g>
</g>
<!-- Node6&#45;&gt;Node16 -->
<g id="edge16" class="edge">
<title>Node6&#45;&gt;Node16</title>
<path fill="none" stroke="midnightblue" d="M630.29,-168.32C618.72,-160.11 601.12,-147.6 587.34,-137.81"/>
<polygon fill="midnightblue" stroke="midnightblue" points="589.11,-134.77 578.93,-131.83 585.06,-140.48 589.11,-134.77"/>
</g>
<!-- Node9 -->
<g id="node9" class="node">
<title>Node9</title>
<g id="a_node9"><a xlink:title=" ">
<polygon fill="white" stroke="#bfbfbf" points="974.5,-56.5 974.5,-75.5 1018.5,-75.5 1018.5,-56.5 974.5,-56.5"/>
<text text-anchor="middle" x="996.5" y="-63.5" font-family="Helvetica,sans-Serif" font-size="10.00">vector</text>
</a>
</g>
</g>
<!-- Node8&#45;&gt;Node9 -->
<g id="edge8" class="edge">
<title>Node8&#45;&gt;Node9</title>
<path fill="none" stroke="midnightblue" d="M1121.05,-112.44C1096.08,-103.33 1056.39,-88.85 1028.55,-78.69"/>
<polygon fill="midnightblue" stroke="midnightblue" points="1029.47,-75.3 1018.87,-75.16 1027.07,-81.88 1029.47,-75.3"/>
</g>
<!-- Node10 -->
<g id="node10" class="node">
<title>Node10</title>
<g id="a_node10"><a xlink:title=" ">
<polygon fill="white" stroke="#bfbfbf" points="1320,-56.5 1320,-75.5 1475,-75.5 1475,-56.5 1320,-56.5"/>
<text text-anchor="middle" x="1397.5" y="-63.5" font-family="Helvetica,sans-Serif" font-size="10.00">sml/events/event_dispatching.h</text>
</a>
</g>
</g>
<!-- Node8&#45;&gt;Node10 -->
<g id="edge9" class="edge">
<title>Node8&#45;&gt;Node10</title>
<path fill="none" stroke="midnightblue" d="M1184.59,-112.44C1228.82,-103 1300.04,-87.8 1347.78,-77.61"/>
<polygon fill="midnightblue" stroke="midnightblue" points="1348.55,-81.03 1357.6,-75.52 1347.09,-74.18 1348.55,-81.03"/>
</g>
<!-- Node11 -->
<g id="node11" class="node">
<title>Node11</title>
<g id="a_node11"><a xlink:title=" ">
<polygon fill="white" stroke="#bfbfbf" points="1037,-56.5 1037,-75.5 1178,-75.5 1178,-56.5 1037,-56.5"/>
<text text-anchor="middle" x="1107.5" y="-63.5" font-family="Helvetica,sans-Serif" font-size="10.00">sml/events/listener_notifier.h</text>
</a>
</g>
</g>
<!-- Node8&#45;&gt;Node11 -->
<g id="edge10" class="edge">
<title>Node8&#45;&gt;Node11</title>
<path fill="none" stroke="midnightblue" d="M1138.39,-112.08C1133.22,-104.53 1125.65,-93.49 1119.31,-84.23"/>
<polygon fill="midnightblue" stroke="midnightblue" points="1122.04,-82.02 1113.5,-75.75 1116.26,-85.98 1122.04,-82.02"/>
</g>
<!-- Node12 -->
<g id="node12" class="node">
<title>Node12</title>
<g id="a_node12"><a xlink:title=" ">
<polygon fill="white" stroke="#bfbfbf" points="1102,-0.5 1102,-19.5 1245,-19.5 1245,-0.5 1102,-0.5"/>
<text text-anchor="middle" x="1173.5" y="-7.5" font-family="Helvetica,sans-Serif" font-size="10.00">sml/events/system_events.h</text>
</a>
</g>
</g>
<!-- Node8&#45;&gt;Node12 -->
<g id="edge11" class="edge">
<title>Node8&#45;&gt;Node12</title>
<path fill="none" stroke="midnightblue" d="M1157,-112.3C1167.37,-104.25 1181.39,-91.24 1187.5,-76 1193.66,-60.63 1188.52,-42.08 1182.81,-28.74"/>
<polygon fill="midnightblue" stroke="midnightblue" points="1185.97,-27.22 1178.51,-19.69 1179.64,-30.22 1185.97,-27.22"/>
</g>
<!-- Node13 -->
<g id="node13" class="node">
<title>Node13</title>
<g id="a_node13"><a xlink:href="gui__event_8h.html" target="_top" xlink:title=" ">
<polygon fill="white" stroke="black" points="1235,-56.5 1235,-75.5 1302,-75.5 1302,-56.5 1235,-56.5"/>
<text text-anchor="middle" x="1268.5" y="-63.5" font-family="Helvetica,sans-Serif" font-size="10.00">gui_event.h</text>
</a>
</g>
</g>
<!-- Node8&#45;&gt;Node13 -->
<g id="edge12" class="edge">
<title>Node8&#45;&gt;Node13</title>
<path fill="none" stroke="midnightblue" d="M1164.15,-112.44C1184.46,-103.6 1216.4,-89.69 1239.6,-79.59"/>
<polygon fill="midnightblue" stroke="midnightblue" points="1241.17,-82.72 1248.94,-75.52 1238.38,-76.3 1241.17,-82.72"/>
</g>
<!-- Node13&#45;&gt;Node12 -->
<g id="edge14" class="edge">
<title>Node13&#45;&gt;Node12</title>
<path fill="none" stroke="midnightblue" d="M1253.24,-56.32C1238.28,-47.82 1215.25,-34.73 1197.77,-24.8"/>
<polygon fill="midnightblue" stroke="midnightblue" points="1199.15,-21.55 1188.73,-19.65 1195.69,-27.64 1199.15,-21.55"/>
</g>
<!-- Node14 -->
<g id="node14" class="node">
<title>Node14</title>
<g id="a_node14"><a xlink:title=" ">
<polygon fill="white" stroke="#bfbfbf" points="1358.5,-0.5 1358.5,-19.5 1458.5,-19.5 1458.5,-0.5 1358.5,-0.5"/>
<text text-anchor="middle" x="1408.5" y="-7.5" font-family="Helvetica,sans-Serif" font-size="10.00">sml/events/event.h</text>
</a>
</g>
</g>
<!-- Node13&#45;&gt;Node14 -->
<g id="edge13" class="edge">
<title>Node13&#45;&gt;Node14</title>
<path fill="none" stroke="midnightblue" d="M1290.68,-56.44C1313.93,-47.48 1350.65,-33.31 1376.92,-23.18"/>
<polygon fill="midnightblue" stroke="midnightblue" points="1378.35,-26.38 1386.42,-19.52 1375.83,-19.85 1378.35,-26.38"/>
</g>
<!-- Node15 -->
<g id="node15" class="node">
<title>Node15</title>
<g id="a_node15"><a xlink:title=" ">
<polygon fill="white" stroke="#bfbfbf" points="1263,-0.5 1263,-19.5 1340,-19.5 1340,-0.5 1263,-0.5"/>
<text text-anchor="middle" x="1301.5" y="-7.5" font-family="Helvetica,sans-Serif" font-size="10.00">sml/sml_log.h</text>
</a>
</g>
</g>
<!-- Node13&#45;&gt;Node15 -->
<g id="edge15" class="edge">
<title>Node13&#45;&gt;Node15</title>
<path fill="none" stroke="midnightblue" d="M1273.95,-56.08C1278.51,-48.61 1285.17,-37.72 1290.79,-28.52"/>
<polygon fill="midnightblue" stroke="midnightblue" points="1293.92,-30.11 1296.15,-19.75 1287.95,-26.46 1293.92,-30.11"/>
</g>
<!-- Node17 -->
<g id="node17" class="node">
<title>Node17</title>
<g id="a_node17"><a xlink:title=" ">
<polygon fill="white" stroke="#bfbfbf" points="468,-56.5 468,-75.5 551,-75.5 551,-56.5 468,-56.5"/>
<text text-anchor="middle" x="509.5" y="-63.5" font-family="Helvetica,sans-Serif" font-size="10.00">sml/math/blur.h</text>
</a>
</g>
</g>
<!-- Node16&#45;&gt;Node17 -->
<g id="edge17" class="edge">
<title>Node16&#45;&gt;Node17</title>
<path fill="none" stroke="midnightblue" d="M557.34,-112.32C549,-104.42 536.47,-92.55 526.32,-82.94"/>
<polygon fill="midnightblue" stroke="midnightblue" points="528.49,-80.17 518.82,-75.83 523.68,-85.25 528.49,-80.17"/>
</g>
<!-- Node18 -->
<g id="node18" class="node">
<title>Node18</title>
<g id="a_node18"><a xlink:title=" ">
<polygon fill="white" stroke="#bfbfbf" points="696,-56.5 696,-75.5 849,-75.5 849,-56.5 696,-56.5"/>
<text text-anchor="middle" x="772.5" y="-63.5" font-family="Helvetica,sans-Serif" font-size="10.00">sml/graphics_wrapper/texture.h</text>
</a>
</g>
</g>
<!-- Node16&#45;&gt;Node18 -->
<g id="edge18" class="edge">
<title>Node16&#45;&gt;Node18</title>
<path fill="none" stroke="midnightblue" d="M599.14,-112.44C634.55,-103.16 691.21,-88.31 730.05,-78.13"/>
<polygon fill="midnightblue" stroke="midnightblue" points="731.23,-81.44 740.01,-75.52 729.45,-74.67 731.23,-81.44"/>
</g>
<!-- Node20 -->
<g id="node20" class="node">
<title>Node20</title>
<g id="a_node20"><a xlink:title=" ">
<polygon fill="white" stroke="#bfbfbf" points="199,-56.5 199,-75.5 248,-75.5 248,-56.5 199,-56.5"/>
<text text-anchor="middle" x="223.5" y="-63.5" font-family="Helvetica,sans-Serif" font-size="10.00">stdint.h</text>
</a>
</g>
</g>
<!-- Node19&#45;&gt;Node20 -->
<g id="edge20" class="edge">
<title>Node19&#45;&gt;Node20</title>
<path fill="none" stroke="midnightblue" d="M223.5,-112.08C223.5,-105.01 223.5,-94.86 223.5,-85.99"/>
<polygon fill="midnightblue" stroke="midnightblue" points="227,-85.75 223.5,-75.75 220,-85.75 227,-85.75"/>
</g>
<!-- Node21&#45;&gt;Node19 -->
<g id="edge24" class="edge">
<title>Node21&#45;&gt;Node19</title>
<path fill="none" stroke="midnightblue" d="M391.81,-168.44C357.43,-159.16 302.42,-144.31 264.71,-134.13"/>
<polygon fill="midnightblue" stroke="midnightblue" points="265.61,-130.74 255.04,-131.52 263.78,-137.5 265.61,-130.74"/>
</g>
<!-- Node22 -->
<g id="node22" class="node">
<title>Node22</title>
<g id="a_node22"><a xlink:title=" ">
<polygon fill="white" stroke="#bfbfbf" points="284,-112.5 284,-131.5 427,-131.5 427,-112.5 284,-112.5"/>
<text text-anchor="middle" x="355.5" y="-119.5" font-family="Helvetica,sans-Serif" font-size="10.00">sml/graphics_wrapper/color.h</text>
</a>
</g>
</g>
<!-- Node21&#45;&gt;Node22 -->
<g id="edge22" class="edge">
<title>Node21&#45;&gt;Node22</title>
<path fill="none" stroke="midnightblue" d="M412.57,-168.32C402.33,-160.18 386.78,-147.84 374.5,-138.09"/>
<polygon fill="midnightblue" stroke="midnightblue" points="376.63,-135.31 366.62,-131.83 372.28,-140.79 376.63,-135.31"/>
</g>
<!-- Node23 -->
<g id="node23" class="node">
<title>Node23</title>
<g id="a_node23"><a xlink:title=" ">
<polygon fill="white" stroke="#bfbfbf" points="569.5,-56.5 569.5,-75.5 677.5,-75.5 677.5,-56.5 569.5,-56.5"/>
<text text-anchor="middle" x="623.5" y="-63.5" font-family="Helvetica,sans-Serif" font-size="10.00">sml/math/rectangle.h</text>
</a>
</g>
</g>
<!-- Node21&#45;&gt;Node23 -->
<g id="edge23" class="edge">
<title>Node21&#45;&gt;Node23</title>
<path fill="none" stroke="midnightblue" d="M428.58,-168.49C437.28,-154.63 456.34,-127.21 479.5,-112 504.65,-95.48 536.23,-84.72 563.4,-77.88"/>
<polygon fill="midnightblue" stroke="midnightblue" points="564.28,-81.27 573.19,-75.54 562.65,-74.46 564.28,-81.27"/>
</g>
<!-- Node24&#45;&gt;Node9 -->
<g id="edge26" class="edge">
<title>Node24&#45;&gt;Node9</title>
<path fill="none" stroke="midnightblue" d="M851.94,-169.45C898.11,-161.98 959.62,-149.19 977.5,-132 989.94,-120.04 994.36,-100.43 995.87,-85.87"/>
<polygon fill="midnightblue" stroke="midnightblue" points="999.39,-85.73 996.55,-75.52 992.4,-85.27 999.39,-85.73"/>
</g>
<!-- Node24&#45;&gt;Node23 -->
<g id="edge27" class="edge">
<title>Node24&#45;&gt;Node23</title>
<path fill="none" stroke="midnightblue" d="M797.47,-168.09C796.93,-154.18 793.81,-127.28 778.5,-112 764.53,-98.05 718.98,-85.83 680.84,-77.65"/>
<polygon fill="midnightblue" stroke="midnightblue" points="681.33,-74.18 670.83,-75.56 679.9,-81.03 681.33,-74.18"/>
</g>
<!-- Node25 -->
<g id="node25" class="node">
<title>Node25</title>
<g id="a_node25"><a xlink:href="fill_8h.html" target="_top" xlink:title=" ">
<polygon fill="white" stroke="black" points="933,-112.5 933,-131.5 968,-131.5 968,-112.5 933,-112.5"/>
<text text-anchor="middle" x="950.5" y="-119.5" font-family="Helvetica,sans-Serif" font-size="10.00">fill.h</text>
</a>
</g>
</g>
<!-- Node24&#45;&gt;Node25 -->
<g id="edge28" class="edge">
<title>Node24&#45;&gt;Node25</title>
<path fill="none" stroke="midnightblue" d="M821.74,-168.44C849.33,-158.71 894.28,-142.84 923.11,-132.67"/>
<polygon fill="midnightblue" stroke="midnightblue" points="924.32,-135.95 932.58,-129.32 921.99,-129.35 924.32,-135.95"/>
</g>
<!-- Node27 -->
<g id="node27" class="node">
<title>Node27</title>
<g id="a_node27"><a xlink:href="image_8h.html" target="_top" xlink:title=" ">
<polygon fill="white" stroke="black" points="826,-112.5 826,-131.5 915,-131.5 915,-112.5 826,-112.5"/>
<text text-anchor="middle" x="870.5" y="-119.5" font-family="Helvetica,sans-Serif" font-size="10.00">../media/image.h</text>
</a>
</g>
</g>
<!-- Node24&#45;&gt;Node27 -->
<g id="edge33" class="edge">
<title>Node24&#45;&gt;Node27</title>
<path fill="none" stroke="midnightblue" d="M809.23,-168.32C820.34,-160.11 837.24,-147.6 850.48,-137.81"/>
<polygon fill="midnightblue" stroke="midnightblue" points="852.6,-140.59 858.56,-131.83 848.44,-134.97 852.6,-140.59"/>
</g>
<!-- Node25&#45;&gt;Node9 -->
<g id="edge29" class="edge">
<title>Node25&#45;&gt;Node9</title>
<path fill="none" stroke="midnightblue" d="M958.1,-112.08C964.73,-104.3 974.52,-92.8 982.56,-83.37"/>
<polygon fill="midnightblue" stroke="midnightblue" points="985.23,-85.63 989.05,-75.75 979.9,-81.09 985.23,-85.63"/>
</g>
<!-- Node25&#45;&gt;Node18 -->
<g id="edge32" class="edge">
<title>Node25&#45;&gt;Node18</title>
<path fill="none" stroke="midnightblue" d="M932.91,-114.79C930.11,-113.84 927.23,-112.88 924.5,-112 886.83,-99.91 843.54,-87.21 812.82,-78.4"/>
<polygon fill="midnightblue" stroke="midnightblue" points="813.48,-74.95 802.91,-75.56 811.56,-81.68 813.48,-74.95"/>
</g>
<!-- Node25&#45;&gt;Node23 -->
<g id="edge31" class="edge">
<title>Node25&#45;&gt;Node23</title>
<path fill="none" stroke="midnightblue" d="M932.73,-114.36C930,-113.48 927.19,-112.66 924.5,-112 913.11,-109.2 772.76,-88.64 687.79,-76.3"/>
<polygon fill="midnightblue" stroke="midnightblue" points="688.11,-72.81 677.72,-74.84 687.11,-79.74 688.11,-72.81"/>
</g>
<!-- Node26 -->
<g id="node26" class="node">
<title>Node26</title>
<g id="a_node26"><a xlink:title=" ">
<polygon fill="white" stroke="#bfbfbf" points="867,-56.5 867,-75.5 956,-75.5 956,-56.5 867,-56.5"/>
<text text-anchor="middle" x="911.5" y="-63.5" font-family="Helvetica,sans-Serif" font-size="10.00">sml/math/vec2.h</text>
</a>
</g>
</g>
<!-- Node25&#45;&gt;Node26 -->
<g id="edge30" class="edge">
<title>Node25&#45;&gt;Node26</title>
<path fill="none" stroke="midnightblue" d="M944.06,-112.08C938.55,-104.46 930.47,-93.26 923.74,-83.94"/>
<polygon fill="midnightblue" stroke="midnightblue" points="926.51,-81.81 917.82,-75.75 920.84,-85.91 926.51,-81.81"/>
</g>
<!-- Node27&#45;&gt;Node18 -->
<g id="edge34" class="edge">
<title>Node27&#45;&gt;Node18</title>
<path fill="none" stroke="midnightblue" d="M854.75,-112.32C839.18,-103.74 815.12,-90.49 797.04,-80.52"/>
<polygon fill="midnightblue" stroke="midnightblue" points="798.65,-77.42 788.21,-75.65 795.28,-83.55 798.65,-77.42"/>
</g>
<!-- Node28&#45;&gt;Node19 -->
<g id="edge37" class="edge">
<title>Node28&#45;&gt;Node19</title>
<path fill="none" stroke="midnightblue" d="M214.28,-224.37C215.9,-206.62 219.62,-165.67 221.81,-141.6"/>
<polygon fill="midnightblue" stroke="midnightblue" points="225.3,-141.87 222.72,-131.59 218.33,-141.23 225.3,-141.87"/>
</g>
<!-- Node29 -->
<g id="node29" class="node">
<title>Node29</title>
<g id="a_node29"><a xlink:title=" ">
<polygon fill="white" stroke="#bfbfbf" points="37.5,-168.5 37.5,-187.5 195.5,-187.5 195.5,-168.5 37.5,-168.5"/>
<text text-anchor="middle" x="116.5" y="-175.5" font-family="Helvetica,sans-Serif" font-size="10.00">sml/graphics_wrapper/renderer.h</text>
</a>
</g>
</g>
<!-- Node28&#45;&gt;Node29 -->
<g id="edge36" class="edge">
<title>Node28&#45;&gt;Node29</title>
<path fill="none" stroke="midnightblue" d="M197.92,-224.32C182.5,-215.74 158.69,-202.49 140.79,-192.52"/>
<polygon fill="midnightblue" stroke="midnightblue" points="142.49,-189.46 132.05,-187.65 139.08,-195.58 142.49,-189.46"/>
</g>
<!-- Node30&#45;&gt;Node11 -->
<g id="edge39" class="edge">
<title>Node30&#45;&gt;Node11</title>
<path fill="none" stroke="midnightblue" d="M570.61,-344.89C706.67,-343.07 1034.5,-328.95 1034.5,-235 1034.5,-235 1034.5,-235 1034.5,-177 1034.5,-146.77 1037.87,-137.24 1054.5,-112 1062.39,-100.03 1074.36,-89.48 1084.93,-81.61"/>
<polygon fill="midnightblue" stroke="midnightblue" points="1087.21,-84.29 1093.36,-75.66 1083.18,-78.57 1087.21,-84.29"/>
</g>
<!-- Node30&#45;&gt;Node16 -->
<g id="edge55" class="edge">
<title>Node30&#45;&gt;Node16</title>
<path fill="none" stroke="midnightblue" d="M506.3,-336.33C498.25,-324.02 485.76,-300.67 490.5,-280 502.97,-225.61 536.87,-168.17 554.88,-140.26"/>
<polygon fill="midnightblue" stroke="midnightblue" points="557.96,-141.95 560.53,-131.67 552.11,-138.1 557.96,-141.95"/>
</g>
<!-- Node30&#45;&gt;Node19 -->
<g id="edge54" class="edge">
<title>Node30&#45;&gt;Node19</title>
<path fill="none" stroke="midnightblue" d="M493.1,-336.46C459.02,-320.94 387.04,-285.82 334.5,-244 294.18,-211.9 255.44,-164.79 236.17,-139.88"/>
<polygon fill="midnightblue" stroke="midnightblue" points="238.83,-137.6 229.98,-131.78 233.27,-141.85 238.83,-137.6"/>
</g>
<!-- Node30&#45;&gt;Node21 -->
<g id="edge53" class="edge">
<title>Node30&#45;&gt;Node21</title>
<path fill="none" stroke="midnightblue" d="M497.48,-336.37C485,-328.44 467.7,-315.59 457.5,-300 436.47,-267.86 428.28,-222.7 425.22,-197.63"/>
<polygon fill="midnightblue" stroke="midnightblue" points="428.7,-197.21 424.15,-187.65 421.74,-197.96 428.7,-197.21"/>
</g>
<!-- Node30&#45;&gt;Node24 -->
<g id="edge52" class="edge">
<title>Node30&#45;&gt;Node24</title>
<path fill="none" stroke="midnightblue" d="M570.64,-337.42C661.13,-324.18 828.43,-293.46 858.5,-244 870.74,-223.87 846.85,-204.69 825.47,-192.45"/>
<polygon fill="midnightblue" stroke="midnightblue" points="827.03,-189.32 816.57,-187.65 823.71,-195.48 827.03,-189.32"/>
</g>
<!-- Node30&#45;&gt;Node28 -->
<g id="edge56" class="edge">
<title>Node30&#45;&gt;Node28</title>
<path fill="none" stroke="midnightblue" d="M454.45,-343.93C379.22,-341.25 253.94,-331.96 222.5,-300 210.77,-288.08 209.54,-268.46 210.61,-253.89"/>
<polygon fill="midnightblue" stroke="midnightblue" points="214.14,-253.87 211.82,-243.53 207.19,-253.06 214.14,-253.87"/>
</g>
<!-- Node31 -->
<g id="node31" class="node">
<title>Node31</title>
<g id="a_node31"><a xlink:href="image__view_8h.html" target="_top" xlink:title=" ">
<polygon fill="white" stroke="black" points="765.5,-224.5 765.5,-243.5 849.5,-243.5 849.5,-224.5 765.5,-224.5"/>
<text text-anchor="middle" x="807.5" y="-231.5" font-family="Helvetica,sans-Serif" font-size="10.00">../image_view.h</text>
</a>
</g>
</g>
<!-- Node30&#45;&gt;Node31 -->
<g id="edge40" class="edge">
<title>Node30&#45;&gt;Node31</title>
<path fill="none" stroke="midnightblue" d="M570.65,-339.18C613.57,-333.29 672.59,-321.82 720.5,-300 747.68,-287.62 774.53,-265.68 791.05,-250.74"/>
<polygon fill="midnightblue" stroke="midnightblue" points="793.74,-253.02 798.7,-243.66 788.99,-247.89 793.74,-253.02"/>
</g>
<!-- Node32 -->
<g id="node32" class="node">
<title>Node32</title>
<g id="a_node32"><a xlink:href="text_8h.html" target="_top" xlink:title=" ">
<polygon fill="white" stroke="black" points="626,-280.5 626,-299.5 711,-299.5 711,-280.5 626,-280.5"/>
<text text-anchor="middle" x="668.5" y="-287.5" font-family="Helvetica,sans-Serif" font-size="10.00">../shapes/text.h</text>
</a>
</g>
</g>
<!-- Node30&#45;&gt;Node32 -->
<g id="edge43" class="edge">
<title>Node30&#45;&gt;Node32</title>
<path fill="none" stroke="midnightblue" d="M537.22,-336.44C563.35,-327.4 604.76,-313.06 634.08,-302.92"/>
<polygon fill="midnightblue" stroke="midnightblue" points="635.59,-306.1 643.9,-299.52 633.3,-299.48 635.59,-306.1"/>
</g>
<!-- Node35 -->
<g id="node35" class="node">
<title>Node35</title>
<g id="a_node35"><a xlink:href="rectangle_8h.html" target="_top" xlink:title=" ">
<polygon fill="white" stroke="black" points="499.5,-280.5 499.5,-299.5 607.5,-299.5 607.5,-280.5 499.5,-280.5"/>
<text text-anchor="middle" x="553.5" y="-287.5" font-family="Helvetica,sans-Serif" font-size="10.00">../shapes/rectangle.h</text>
</a>
</g>
</g>
<!-- Node30&#45;&gt;Node35 -->
<g id="edge49" class="edge">
<title>Node30&#45;&gt;Node35</title>
<path fill="none" stroke="midnightblue" d="M519.27,-336.08C525.06,-328.46 533.56,-317.26 540.64,-307.94"/>
<polygon fill="midnightblue" stroke="midnightblue" points="543.6,-309.83 546.86,-299.75 538.02,-305.6 543.6,-309.83"/>
</g>
<!-- Node31&#45;&gt;Node6 -->
<g id="edge41" class="edge">
<title>Node31&#45;&gt;Node6</title>
<path fill="none" stroke="midnightblue" d="M781.36,-224.44C753.48,-215.32 709.15,-200.81 678.1,-190.65"/>
<polygon fill="midnightblue" stroke="midnightblue" points="679.12,-187.3 668.52,-187.52 676.94,-193.95 679.12,-187.3"/>
</g>
<!-- Node31&#45;&gt;Node27 -->
<g id="edge42" class="edge">
<title>Node31&#45;&gt;Node27</title>
<path fill="none" stroke="midnightblue" d="M822.69,-224.37C834.99,-216.54 851.67,-203.8 860.5,-188 868.42,-173.83 870.63,-155.35 871.03,-141.72"/>
<polygon fill="midnightblue" stroke="midnightblue" points="874.53,-141.6 871.02,-131.61 867.53,-141.61 874.53,-141.6"/>
</g>
<!-- Node33 -->
<g id="node33" class="node">
<title>Node33</title>
<g id="a_node33"><a xlink:title=" ">
<polygon fill="white" stroke="#bfbfbf" points="607.5,-224.5 607.5,-243.5 747.5,-243.5 747.5,-224.5 607.5,-224.5"/>
<text text-anchor="middle" x="677.5" y="-231.5" font-family="Helvetica,sans-Serif" font-size="10.00">sml/graphics_wrapper/text.h</text>
</a>
</g>
</g>
<!-- Node32&#45;&gt;Node33 -->
<g id="edge44" class="edge">
<title>Node32&#45;&gt;Node33</title>
<path fill="none" stroke="midnightblue" d="M669.99,-280.08C671.18,-272.93 672.89,-262.64 674.38,-253.69"/>
<polygon fill="midnightblue" stroke="midnightblue" points="677.85,-254.19 676.04,-243.75 670.95,-253.04 677.85,-254.19"/>
</g>
<!-- Node34 -->
<g id="node34" class="node">
<title>Node34</title>
<g id="a_node34"><a xlink:href="shape_8h.html" target="_top" xlink:title=" ">
<polygon fill="white" stroke="black" points="538,-224.5 538,-243.5 589,-243.5 589,-224.5 538,-224.5"/>
<text text-anchor="middle" x="563.5" y="-231.5" font-family="Helvetica,sans-Serif" font-size="10.00">shape.h</text>
</a>
</g>
</g>
<!-- Node32&#45;&gt;Node34 -->
<g id="edge45" class="edge">
<title>Node32&#45;&gt;Node34</title>
<path fill="none" stroke="midnightblue" d="M651.63,-280.32C634.79,-271.66 608.69,-258.24 589.26,-248.25"/>
<polygon fill="midnightblue" stroke="midnightblue" points="590.82,-245.12 580.33,-243.65 587.62,-251.34 590.82,-245.12"/>
</g>
<!-- Node34&#45;&gt;Node6 -->
<g id="edge46" class="edge">
<title>Node34&#45;&gt;Node6</title>
<path fill="none" stroke="midnightblue" d="M576.19,-224.32C588.4,-215.98 607.08,-203.21 621.5,-193.35"/>
<polygon fill="midnightblue" stroke="midnightblue" points="623.56,-196.19 629.84,-187.65 619.61,-190.41 623.56,-196.19"/>
</g>
<!-- Node34&#45;&gt;Node21 -->
<g id="edge48" class="edge">
<title>Node34&#45;&gt;Node21</title>
<path fill="none" stroke="midnightblue" d="M541.32,-224.44C518.07,-215.48 481.35,-201.31 455.08,-191.18"/>
<polygon fill="midnightblue" stroke="midnightblue" points="456.17,-187.85 445.58,-187.52 453.65,-194.38 456.17,-187.85"/>
</g>
<!-- Node34&#45;&gt;Node24 -->
<g id="edge47" class="edge">
<title>Node34&#45;&gt;Node24</title>
<path fill="none" stroke="midnightblue" d="M589.09,-226.33C592.26,-225.53 595.45,-224.74 598.5,-224 649.44,-211.69 707.98,-198.58 748.31,-189.7"/>
<polygon fill="midnightblue" stroke="midnightblue" points="749.14,-193.1 758.15,-187.54 747.63,-186.27 749.14,-193.1"/>
</g>
<!-- Node35&#45;&gt;Node23 -->
<g id="edge50" class="edge">
<title>Node35&#45;&gt;Node23</title>
<path fill="none" stroke="midnightblue" d="M547.24,-280.41C528.27,-253.25 474.96,-167.72 512.5,-112 523.48,-95.7 541.49,-85.3 559.83,-78.67"/>
<polygon fill="midnightblue" stroke="midnightblue" points="561,-81.97 569.42,-75.53 558.83,-75.31 561,-81.97"/>
</g>
<!-- Node35&#45;&gt;Node34 -->
<g id="edge51" class="edge">
<title>Node35&#45;&gt;Node34</title>
<path fill="none" stroke="midnightblue" d="M555.15,-280.08C556.48,-272.93 558.38,-262.64 560.04,-253.69"/>
<polygon fill="midnightblue" stroke="midnightblue" points="563.5,-254.22 561.88,-243.75 556.62,-252.95 563.5,-254.22"/>
</g>
<!-- Node36&#45;&gt;Node3 -->
<g id="edge63" class="edge">
<title>Node36&#45;&gt;Node3</title>
<path fill="none" stroke="midnightblue" d="M450.28,-448.08C455.17,-440.53 462.33,-429.49 468.33,-420.23"/>
<polygon fill="midnightblue" stroke="midnightblue" points="471.33,-422.05 473.83,-411.75 465.45,-418.24 471.33,-422.05"/>
</g>
<!-- Node37 -->
<g id="node37" class="node">
<title>Node37</title>
<g id="a_node37"><a xlink:href="box__container_8h.html" target="_top" xlink:title=" ">
<polygon fill="white" stroke="black" points="159,-336.5 159,-355.5 244,-355.5 244,-336.5 159,-336.5"/>
<text text-anchor="middle" x="201.5" y="-343.5" font-family="Helvetica,sans-Serif" font-size="10.00">box_container.h</text>
</a>
</g>
</g>
<!-- Node36&#45;&gt;Node37 -->
<g id="edge58" class="edge">
<title>Node36&#45;&gt;Node37</title>
<path fill="none" stroke="midnightblue" d="M425.43,-448.37C382.85,-429.09 279.82,-382.45 229.75,-359.79"/>
<polygon fill="midnightblue" stroke="midnightblue" points="231.03,-356.53 220.48,-355.59 228.15,-362.9 231.03,-356.53"/>
</g>
<!-- Node38 -->
<g id="node38" class="node">
<title>Node38</title>
<g id="a_node38"><a xlink:title=" ">
<polygon fill="white" stroke="#bfbfbf" points="0,-280.5 0,-299.5 83,-299.5 83,-280.5 0,-280.5"/>
<text text-anchor="middle" x="41.5" y="-287.5" font-family="Helvetica,sans-Serif" font-size="10.00">unordered_map</text>
</a>
</g>
</g>
<!-- Node37&#45;&gt;Node38 -->
<g id="edge59" class="edge">
<title>Node37&#45;&gt;Node38</title>
<path fill="none" stroke="midnightblue" d="M176.15,-336.44C149.23,-327.36 106.5,-312.94 76.41,-302.78"/>
<polygon fill="midnightblue" stroke="midnightblue" points="77.33,-299.4 66.73,-299.52 75.09,-306.03 77.33,-299.4"/>
</g>
<!-- Node39 -->
<g id="node39" class="node">
<title>Node39</title>
<g id="a_node39"><a xlink:href="container_8h.html" target="_top" xlink:title=" ">
<polygon fill="white" stroke="black" points="231.5,-280.5 231.5,-299.5 295.5,-299.5 295.5,-280.5 231.5,-280.5"/>
<text text-anchor="middle" x="263.5" y="-287.5" font-family="Helvetica,sans-Serif" font-size="10.00">container.h</text>
</a>
</g>
</g>
<!-- Node37&#45;&gt;Node39 -->
<g id="edge60" class="edge">
<title>Node37&#45;&gt;Node39</title>
<path fill="none" stroke="midnightblue" d="M211.46,-336.32C220.63,-328.34 234.44,-316.31 245.53,-306.65"/>
<polygon fill="midnightblue" stroke="midnightblue" points="248.12,-309.04 253.36,-299.83 243.52,-303.76 248.12,-309.04"/>
</g>
<!-- Node40 -->
<g id="node40" class="node">
<title>Node40</title>
<g id="a_node40"><a xlink:title=" ">
<polygon fill="white" stroke="#bfbfbf" points="101.5,-280.5 101.5,-299.5 175.5,-299.5 175.5,-280.5 101.5,-280.5"/>
<text text-anchor="middle" x="138.5" y="-287.5" font-family="Helvetica,sans-Serif" font-size="10.00">sys/syscall.h</text>
</a>
</g>
</g>
<!-- Node37&#45;&gt;Node40 -->
<g id="edge62" class="edge">
<title>Node37&#45;&gt;Node40</title>
<path fill="none" stroke="midnightblue" d="M191.38,-336.32C181.97,-328.26 167.76,-316.08 156.43,-306.37"/>
<polygon fill="midnightblue" stroke="midnightblue" points="158.68,-303.68 148.81,-299.83 154.12,-309 158.68,-303.68"/>
</g>
<!-- Node39&#45;&gt;Node5 -->
<g id="edge61" class="edge">
<title>Node39&#45;&gt;Node5</title>
<path fill="none" stroke="midnightblue" d="M281.33,-280.32C299.22,-271.62 326.98,-258.12 347.55,-248.11"/>
<polygon fill="midnightblue" stroke="midnightblue" points="349.25,-251.18 356.71,-243.65 346.19,-244.88 349.25,-251.18"/>
</g>
<!-- Node41&#45;&gt;Node2 -->
<g id="edge66" class="edge">
<title>Node41&#45;&gt;Node2</title>
<path fill="none" stroke="midnightblue" d="M572.57,-560.32C562.33,-552.18 546.78,-539.84 534.5,-530.09"/>
<polygon fill="midnightblue" stroke="midnightblue" points="536.63,-527.31 526.62,-523.83 532.28,-532.79 536.63,-527.31"/>
</g>
<!-- Node41&#45;&gt;Node8 -->
<g id="edge65" class="edge">
<title>Node41&#45;&gt;Node8</title>
<path fill="none" stroke="midnightblue" d="M623.82,-569.12C746.76,-568.42 1108.5,-557.95 1108.5,-459 1108.5,-459 1108.5,-459 1108.5,-233 1108.5,-198.98 1124.24,-161.85 1134.91,-140.6"/>
<polygon fill="midnightblue" stroke="midnightblue" points="1138.12,-142.01 1139.64,-131.53 1131.91,-138.77 1138.12,-142.01"/>
</g>
</g>
</svg>
