<?xml version="1.0" encoding="UTF-8" standalone="no"?>
<!DOCTYPE svg PUBLIC "-//W3C//DTD SVG 1.1//EN"
 "http://www.w3.org/Graphics/SVG/1.1/DTD/svg11.dtd">
<!-- Generated by graphviz version 2.50.0 (20211204.2007)
 -->
<!-- Title: menu_bar.h Pages: 1 -->
<svg width="1113pt" height="509pt"
 viewBox="0.00 0.00 1112.50 509.00" xmlns="http://www.w3.org/2000/svg" xmlns:xlink="http://www.w3.org/1999/xlink">
<g id="graph0" class="graph" transform="scale(1 1) rotate(0) translate(4 505)">
<title>menu_bar.h</title>
<polygon fill="white" stroke="transparent" points="-4,4 -4,-505 1108.5,-505 1108.5,4 -4,4"/>
<!-- Node1 -->
<g id="node1" class="node">
<title>Node1</title>
<g id="a_node1"><a xlink:title=" ">
<polygon fill="#bfbfbf" stroke="black" points="730,-481.5 730,-500.5 797,-500.5 797,-481.5 730,-481.5"/>
<text text-anchor="middle" x="763.5" y="-488.5" font-family="Helvetica,sans-Serif" font-size="10.00">menu_bar.h</text>
</a>
</g>
</g>
<!-- Node2 -->
<g id="node2" class="node">
<title>Node2</title>
<g id="a_node2"><a xlink:href="button_8h.html" target="_top" xlink:title=" ">
<polygon fill="white" stroke="black" points="659.5,-425.5 659.5,-444.5 757.5,-444.5 757.5,-425.5 659.5,-425.5"/>
<text text-anchor="middle" x="708.5" y="-432.5" font-family="Helvetica,sans-Serif" font-size="10.00">../controls/button.h</text>
</a>
</g>
</g>
<!-- Node1&#45;&gt;Node2 -->
<g id="edge1" class="edge">
<title>Node1&#45;&gt;Node2</title>
<path fill="none" stroke="midnightblue" d="M754.42,-481.08C746.33,-473.14 734.3,-461.34 724.59,-451.8"/>
<polygon fill="midnightblue" stroke="midnightblue" points="727,-449.26 717.41,-444.75 722.1,-454.25 727,-449.26"/>
</g>
<!-- Node35 -->
<g id="node35" class="node">
<title>Node35</title>
<g id="a_node35"><a xlink:href="context__menu_8h.html" target="_top" xlink:title=" ">
<polygon fill="white" stroke="black" points="818.5,-425.5 818.5,-444.5 904.5,-444.5 904.5,-425.5 818.5,-425.5"/>
<text text-anchor="middle" x="861.5" y="-432.5" font-family="Helvetica,sans-Serif" font-size="10.00">context_menu.h</text>
</a>
</g>
</g>
<!-- Node1&#45;&gt;Node35 -->
<g id="edge56" class="edge">
<title>Node1&#45;&gt;Node35</title>
<path fill="none" stroke="midnightblue" d="M779.25,-481.32C794.82,-472.74 818.88,-459.49 836.96,-449.52"/>
<polygon fill="midnightblue" stroke="midnightblue" points="838.72,-452.55 845.79,-444.65 835.35,-446.42 838.72,-452.55"/>
</g>
<!-- Node3 -->
<g id="node3" class="node">
<title>Node3</title>
<g id="a_node3"><a xlink:href="control_8h.html" target="_top" xlink:title=" ">
<polygon fill="white" stroke="black" points="681.5,-369.5 681.5,-388.5 735.5,-388.5 735.5,-369.5 681.5,-369.5"/>
<text text-anchor="middle" x="708.5" y="-376.5" font-family="Helvetica,sans-Serif" font-size="10.00">control.h</text>
</a>
</g>
</g>
<!-- Node2&#45;&gt;Node3 -->
<g id="edge2" class="edge">
<title>Node2&#45;&gt;Node3</title>
<path fill="none" stroke="midnightblue" d="M708.5,-425.08C708.5,-418.01 708.5,-407.86 708.5,-398.99"/>
<polygon fill="midnightblue" stroke="midnightblue" points="712,-398.75 708.5,-388.75 705,-398.75 712,-398.75"/>
</g>
<!-- Node29 -->
<g id="node29" class="node">
<title>Node29</title>
<g id="a_node29"><a xlink:href="default__skins_8h.html" target="_top" xlink:title=" ">
<polygon fill="white" stroke="black" points="519.5,-369.5 519.5,-388.5 635.5,-388.5 635.5,-369.5 519.5,-369.5"/>
<text text-anchor="middle" x="577.5" y="-376.5" font-family="Helvetica,sans-Serif" font-size="10.00">../style/default_skins.h</text>
</a>
</g>
</g>
<!-- Node2&#45;&gt;Node29 -->
<g id="edge37" class="edge">
<title>Node2&#45;&gt;Node29</title>
<path fill="none" stroke="midnightblue" d="M687.74,-425.44C666.18,-416.56 632.24,-402.56 607.71,-392.45"/>
<polygon fill="midnightblue" stroke="midnightblue" points="608.74,-389.09 598.16,-388.52 606.07,-395.56 608.74,-389.09"/>
</g>
<!-- Node4 -->
<g id="node4" class="node">
<title>Node4</title>
<g id="a_node4"><a xlink:href="parent_8h.html" target="_top" xlink:title=" ">
<polygon fill="white" stroke="black" points="677,-252 677,-271 738,-271 738,-252 677,-252"/>
<text text-anchor="middle" x="707.5" y="-259" font-family="Helvetica,sans-Serif" font-size="10.00">../parent.h</text>
</a>
</g>
</g>
<!-- Node3&#45;&gt;Node4 -->
<g id="edge3" class="edge">
<title>Node3&#45;&gt;Node4</title>
<path fill="none" stroke="midnightblue" d="M707.75,-369.38C707.01,-360.33 705.92,-345.68 705.5,-333 704.91,-315.43 705.62,-295.38 706.34,-281.17"/>
<polygon fill="midnightblue" stroke="midnightblue" points="709.84,-281.37 706.91,-271.18 702.85,-280.97 709.84,-281.37"/>
</g>
<!-- Node27 -->
<g id="node27" class="node">
<title>Node27</title>
<g id="a_node27"><a xlink:href="skin_8h.html" target="_top" xlink:title=" ">
<polygon fill="white" stroke="black" points="834.5,-313.5 834.5,-332.5 910.5,-332.5 910.5,-313.5 834.5,-313.5"/>
<text text-anchor="middle" x="872.5" y="-320.5" font-family="Helvetica,sans-Serif" font-size="10.00">../style/skin.h</text>
</a>
</g>
</g>
<!-- Node3&#45;&gt;Node27 -->
<g id="edge34" class="edge">
<title>Node3&#45;&gt;Node27</title>
<path fill="none" stroke="midnightblue" d="M734.49,-369.44C762.2,-360.32 806.25,-345.81 837.12,-335.65"/>
<polygon fill="midnightblue" stroke="midnightblue" points="838.23,-338.97 846.64,-332.52 836.04,-332.32 838.23,-338.97"/>
</g>
<!-- Node5 -->
<g id="node5" class="node">
<title>Node5</title>
<g id="a_node5"><a xlink:href="component_8h.html" target="_top" xlink:title=" ">
<polygon fill="white" stroke="black" points="467,-190.5 467,-209.5 540,-209.5 540,-190.5 467,-190.5"/>
<text text-anchor="middle" x="503.5" y="-197.5" font-family="Helvetica,sans-Serif" font-size="10.00">component.h</text>
</a>
</g>
</g>
<!-- Node4&#45;&gt;Node5 -->
<g id="edge4" class="edge">
<title>Node4&#45;&gt;Node5</title>
<path fill="none" stroke="midnightblue" d="M678.27,-251.98C642.6,-241.57 582.14,-223.94 542.52,-212.38"/>
<polygon fill="midnightblue" stroke="midnightblue" points="543.25,-208.95 532.67,-209.51 541.29,-215.67 543.25,-208.95"/>
</g>
<!-- Node18 -->
<g id="node18" class="node">
<title>Node18</title>
<g id="a_node18"><a xlink:href="insets_8h.html" target="_top" xlink:title=" ">
<polygon fill="white" stroke="black" points="928.5,-129 928.5,-148 1012.5,-148 1012.5,-129 928.5,-129"/>
<text text-anchor="middle" x="970.5" y="-136" font-family="Helvetica,sans-Serif" font-size="10.00">../paint/insets.h</text>
</a>
</g>
</g>
<!-- Node4&#45;&gt;Node18 -->
<g id="edge18" class="edge">
<title>Node4&#45;&gt;Node18</title>
<path fill="none" stroke="midnightblue" d="M715.55,-251.77C729.71,-236.94 760.6,-206.78 792.5,-190 844.42,-162.68 863.06,-170.02 919.5,-154 923.12,-152.97 926.89,-151.9 930.66,-150.83"/>
<polygon fill="midnightblue" stroke="midnightblue" points="931.9,-154.12 940.57,-148.01 929.99,-147.38 931.9,-154.12"/>
</g>
<!-- Node20 -->
<g id="node20" class="node">
<title>Node20</title>
<g id="a_node20"><a xlink:href="border_8h.html" target="_top" xlink:title=" ">
<polygon fill="white" stroke="black" points="649.5,-190.5 649.5,-209.5 733.5,-209.5 733.5,-190.5 649.5,-190.5"/>
<text text-anchor="middle" x="691.5" y="-197.5" font-family="Helvetica,sans-Serif" font-size="10.00">../paint/border.h</text>
</a>
</g>
</g>
<!-- Node4&#45;&gt;Node20 -->
<g id="edge20" class="edge">
<title>Node4&#45;&gt;Node20</title>
<path fill="none" stroke="midnightblue" d="M705.21,-251.98C702.93,-243.49 699.35,-230.2 696.43,-219.32"/>
<polygon fill="midnightblue" stroke="midnightblue" points="699.76,-218.26 693.79,-209.51 693.01,-220.07 699.76,-218.26"/>
</g>
<!-- Node23 -->
<g id="node23" class="node">
<title>Node23</title>
<g id="a_node23"><a xlink:href="background_8h.html" target="_top" xlink:title=" ">
<polygon fill="white" stroke="black" points="326.5,-190.5 326.5,-209.5 434.5,-209.5 434.5,-190.5 326.5,-190.5"/>
<text text-anchor="middle" x="380.5" y="-197.5" font-family="Helvetica,sans-Serif" font-size="10.00">../paint/background.h</text>
</a>
</g>
</g>
<!-- Node4&#45;&gt;Node23 -->
<g id="edge24" class="edge">
<title>Node4&#45;&gt;Node23</title>
<path fill="none" stroke="midnightblue" d="M676.74,-254.9C621.96,-244.93 506.75,-223.97 437.25,-211.33"/>
<polygon fill="midnightblue" stroke="midnightblue" points="437.81,-207.87 427.34,-209.52 436.55,-214.76 437.81,-207.87"/>
</g>
<!-- Node6 -->
<g id="node6" class="node">
<title>Node6</title>
<g id="a_node6"><a xlink:title=" ">
<polygon fill="white" stroke="#bfbfbf" points="446.5,-129 446.5,-148 586.5,-148 586.5,-129 446.5,-129"/>
<text text-anchor="middle" x="516.5" y="-136" font-family="Helvetica,sans-Serif" font-size="10.00">sml/sml_graphics_wrapper.h</text>
</a>
</g>
</g>
<!-- Node5&#45;&gt;Node6 -->
<g id="edge5" class="edge">
<title>Node5&#45;&gt;Node6</title>
<path fill="none" stroke="midnightblue" d="M505.36,-190.48C507.22,-181.99 510.12,-168.7 512.5,-157.82"/>
<polygon fill="midnightblue" stroke="midnightblue" points="515.93,-158.53 514.64,-148.01 509.09,-157.03 515.93,-158.53"/>
</g>
<!-- Node7 -->
<g id="node7" class="node">
<title>Node7</title>
<g id="a_node7"><a xlink:href="gui__event__dispatching_8h.html" target="_top" xlink:title=" ">
<polygon fill="white" stroke="black" points="680.5,-123.5 680.5,-153.5 780.5,-153.5 780.5,-123.5 680.5,-123.5"/>
<text text-anchor="start" x="688.5" y="-141.5" font-family="Helvetica,sans-Serif" font-size="10.00">../events/gui_event</text>
<text text-anchor="middle" x="730.5" y="-130.5" font-family="Helvetica,sans-Serif" font-size="10.00">_dispatching.h</text>
</a>
</g>
</g>
<!-- Node5&#45;&gt;Node7 -->
<g id="edge6" class="edge">
<title>Node5&#45;&gt;Node7</title>
<path fill="none" stroke="midnightblue" d="M536.02,-190.48C571.05,-181.29 627.56,-166.48 670.65,-155.19"/>
<polygon fill="midnightblue" stroke="midnightblue" points="671.68,-158.54 680.46,-152.62 669.9,-151.76 671.68,-158.54"/>
</g>
<!-- Node15 -->
<g id="node15" class="node">
<title>Node15</title>
<g id="a_node15"><a xlink:href="shadow_8h.html" target="_top" xlink:title=" ">
<polygon fill="white" stroke="black" points="62.5,-129 62.5,-148 152.5,-148 152.5,-129 62.5,-129"/>
<text text-anchor="middle" x="107.5" y="-136" font-family="Helvetica,sans-Serif" font-size="10.00">../paint/shadow.h</text>
</a>
</g>
</g>
<!-- Node5&#45;&gt;Node15 -->
<g id="edge15" class="edge">
<title>Node5&#45;&gt;Node15</title>
<path fill="none" stroke="midnightblue" d="M466.71,-193.35C459.04,-192.21 451.01,-191.04 443.5,-190 318.35,-172.63 285.46,-178.44 161.5,-154 156.51,-153.02 151.3,-151.83 146.17,-150.56"/>
<polygon fill="midnightblue" stroke="midnightblue" points="147.03,-147.17 136.48,-148.05 145.28,-153.95 147.03,-147.17"/>
</g>
<!-- Node8 -->
<g id="node8" class="node">
<title>Node8</title>
<g id="a_node8"><a xlink:title=" ">
<polygon fill="white" stroke="#bfbfbf" points="465.5,-62 465.5,-81 509.5,-81 509.5,-62 465.5,-62"/>
<text text-anchor="middle" x="487.5" y="-69" font-family="Helvetica,sans-Serif" font-size="10.00">vector</text>
</a>
</g>
</g>
<!-- Node7&#45;&gt;Node8 -->
<g id="edge7" class="edge">
<title>Node7&#45;&gt;Node8</title>
<path fill="none" stroke="midnightblue" d="M680.44,-124.11C632.16,-111.19 560.52,-92.03 519.48,-81.06"/>
<polygon fill="midnightblue" stroke="midnightblue" points="520.31,-77.65 509.74,-78.45 518.5,-84.42 520.31,-77.65"/>
</g>
<!-- Node9 -->
<g id="node9" class="node">
<title>Node9</title>
<g id="a_node9"><a xlink:title=" ">
<polygon fill="white" stroke="#bfbfbf" points="794,-62 794,-81 949,-81 949,-62 794,-62"/>
<text text-anchor="middle" x="871.5" y="-69" font-family="Helvetica,sans-Serif" font-size="10.00">sml/events/event_dispatching.h</text>
</a>
</g>
</g>
<!-- Node7&#45;&gt;Node9 -->
<g id="edge8" class="edge">
<title>Node7&#45;&gt;Node9</title>
<path fill="none" stroke="midnightblue" d="M761.09,-123.4C785.73,-112.04 820.05,-96.22 843.86,-85.24"/>
<polygon fill="midnightblue" stroke="midnightblue" points="845.43,-88.37 853.05,-81.01 842.5,-82.02 845.43,-88.37"/>
</g>
<!-- Node10 -->
<g id="node10" class="node">
<title>Node10</title>
<g id="a_node10"><a xlink:title=" ">
<polygon fill="white" stroke="#bfbfbf" points="553,-56.5 553,-86.5 652,-86.5 652,-56.5 553,-56.5"/>
<text text-anchor="start" x="561" y="-74.5" font-family="Helvetica,sans-Serif" font-size="10.00">sml/events/listener</text>
<text text-anchor="middle" x="602.5" y="-63.5" font-family="Helvetica,sans-Serif" font-size="10.00">_notifier.h</text>
</a>
</g>
</g>
<!-- Node7&#45;&gt;Node10 -->
<g id="edge9" class="edge">
<title>Node7&#45;&gt;Node10</title>
<path fill="none" stroke="midnightblue" d="M702.73,-123.4C684.11,-113.94 659.39,-101.39 639.16,-91.12"/>
<polygon fill="midnightblue" stroke="midnightblue" points="640.72,-87.98 630.22,-86.58 637.55,-94.23 640.72,-87.98"/>
</g>
<!-- Node11 -->
<g id="node11" class="node">
<title>Node11</title>
<g id="a_node11"><a xlink:title=" ">
<polygon fill="white" stroke="#bfbfbf" points="576,-0.5 576,-19.5 719,-19.5 719,-0.5 576,-0.5"/>
<text text-anchor="middle" x="647.5" y="-7.5" font-family="Helvetica,sans-Serif" font-size="10.00">sml/events/system_events.h</text>
</a>
</g>
</g>
<!-- Node7&#45;&gt;Node11 -->
<g id="edge10" class="edge">
<title>Node7&#45;&gt;Node11</title>
<path fill="none" stroke="midnightblue" d="M721.3,-123.48C706.03,-100.21 675.49,-53.66 658.89,-28.36"/>
<polygon fill="midnightblue" stroke="midnightblue" points="661.68,-26.23 653.27,-19.79 655.83,-30.07 661.68,-26.23"/>
</g>
<!-- Node12 -->
<g id="node12" class="node">
<title>Node12</title>
<g id="a_node12"><a xlink:href="gui__event_8h.html" target="_top" xlink:title=" ">
<polygon fill="white" stroke="black" points="709,-62 709,-81 776,-81 776,-62 709,-62"/>
<text text-anchor="middle" x="742.5" y="-69" font-family="Helvetica,sans-Serif" font-size="10.00">gui_event.h</text>
</a>
</g>
</g>
<!-- Node7&#45;&gt;Node12 -->
<g id="edge11" class="edge">
<title>Node7&#45;&gt;Node12</title>
<path fill="none" stroke="midnightblue" d="M733.1,-123.4C734.85,-113.96 737.16,-101.45 739.05,-91.19"/>
<polygon fill="midnightblue" stroke="midnightblue" points="742.52,-91.66 740.89,-81.19 735.64,-90.39 742.52,-91.66"/>
</g>
<!-- Node12&#45;&gt;Node11 -->
<g id="edge13" class="edge">
<title>Node12&#45;&gt;Node11</title>
<path fill="none" stroke="midnightblue" d="M728.89,-61.98C713.44,-52.3 688.01,-36.37 669.68,-24.89"/>
<polygon fill="midnightblue" stroke="midnightblue" points="671.42,-21.85 661.09,-19.51 667.7,-27.78 671.42,-21.85"/>
</g>
<!-- Node13 -->
<g id="node13" class="node">
<title>Node13</title>
<g id="a_node13"><a xlink:title=" ">
<polygon fill="white" stroke="#bfbfbf" points="832.5,-0.5 832.5,-19.5 932.5,-19.5 932.5,-0.5 832.5,-0.5"/>
<text text-anchor="middle" x="882.5" y="-7.5" font-family="Helvetica,sans-Serif" font-size="10.00">sml/events/event.h</text>
</a>
</g>
</g>
<!-- Node12&#45;&gt;Node13 -->
<g id="edge12" class="edge">
<title>Node12&#45;&gt;Node13</title>
<path fill="none" stroke="midnightblue" d="M762.56,-61.98C786.26,-51.9 825.91,-35.05 853.08,-23.5"/>
<polygon fill="midnightblue" stroke="midnightblue" points="854.64,-26.64 862.48,-19.51 851.91,-20.2 854.64,-26.64"/>
</g>
<!-- Node14 -->
<g id="node14" class="node">
<title>Node14</title>
<g id="a_node14"><a xlink:title=" ">
<polygon fill="white" stroke="#bfbfbf" points="737,-0.5 737,-19.5 814,-19.5 814,-0.5 737,-0.5"/>
<text text-anchor="middle" x="775.5" y="-7.5" font-family="Helvetica,sans-Serif" font-size="10.00">sml/sml_log.h</text>
</a>
</g>
</g>
<!-- Node12&#45;&gt;Node14 -->
<g id="edge14" class="edge">
<title>Node12&#45;&gt;Node14</title>
<path fill="none" stroke="midnightblue" d="M747.23,-61.98C752.08,-53.23 759.77,-39.37 765.9,-28.31"/>
<polygon fill="midnightblue" stroke="midnightblue" points="768.99,-29.95 770.78,-19.51 762.87,-26.56 768.99,-29.95"/>
</g>
<!-- Node16 -->
<g id="node16" class="node">
<title>Node16</title>
<g id="a_node16"><a xlink:title=" ">
<polygon fill="white" stroke="#bfbfbf" points="0,-62 0,-81 83,-81 83,-62 0,-62"/>
<text text-anchor="middle" x="41.5" y="-69" font-family="Helvetica,sans-Serif" font-size="10.00">sml/math/blur.h</text>
</a>
</g>
</g>
<!-- Node15&#45;&gt;Node16 -->
<g id="edge16" class="edge">
<title>Node15&#45;&gt;Node16</title>
<path fill="none" stroke="midnightblue" d="M98.6,-128.73C88.11,-118.4 70.48,-101.04 57.58,-88.33"/>
<polygon fill="midnightblue" stroke="midnightblue" points="59.84,-85.65 50.26,-81.13 54.93,-90.64 59.84,-85.65"/>
</g>
<!-- Node17 -->
<g id="node17" class="node">
<title>Node17</title>
<g id="a_node17"><a xlink:title=" ">
<polygon fill="white" stroke="#bfbfbf" points="101.5,-56.5 101.5,-86.5 213.5,-86.5 213.5,-56.5 101.5,-56.5"/>
<text text-anchor="start" x="109.5" y="-74.5" font-family="Helvetica,sans-Serif" font-size="10.00">sml/graphics_wrapper</text>
<text text-anchor="middle" x="157.5" y="-63.5" font-family="Helvetica,sans-Serif" font-size="10.00">/texture.h</text>
</a>
</g>
</g>
<!-- Node15&#45;&gt;Node17 -->
<g id="edge17" class="edge">
<title>Node15&#45;&gt;Node17</title>
<path fill="none" stroke="midnightblue" d="M114.24,-128.73C120.94,-120.03 131.47,-106.34 140.46,-94.65"/>
<polygon fill="midnightblue" stroke="midnightblue" points="143.34,-96.65 146.66,-86.59 137.79,-92.38 143.34,-96.65"/>
</g>
<!-- Node19 -->
<g id="node19" class="node">
<title>Node19</title>
<g id="a_node19"><a xlink:title=" ">
<polygon fill="white" stroke="#bfbfbf" points="967,-62 967,-81 1016,-81 1016,-62 967,-62"/>
<text text-anchor="middle" x="991.5" y="-69" font-family="Helvetica,sans-Serif" font-size="10.00">stdint.h</text>
</a>
</g>
</g>
<!-- Node18&#45;&gt;Node19 -->
<g id="edge19" class="edge">
<title>Node18&#45;&gt;Node19</title>
<path fill="none" stroke="midnightblue" d="M973.33,-128.73C976.45,-119.09 981.55,-103.3 985.55,-90.91"/>
<polygon fill="midnightblue" stroke="midnightblue" points="988.97,-91.72 988.71,-81.13 982.31,-89.57 988.97,-91.72"/>
</g>
<!-- Node20&#45;&gt;Node18 -->
<g id="edge23" class="edge">
<title>Node20&#45;&gt;Node18</title>
<path fill="none" stroke="midnightblue" d="M733.75,-191.73C779.69,-183.58 855.16,-169.47 919.5,-154 923.63,-153.01 927.92,-151.9 932.19,-150.76"/>
<polygon fill="midnightblue" stroke="midnightblue" points="933.31,-154.08 942.02,-148.04 931.45,-147.33 933.31,-154.08"/>
</g>
<!-- Node21 -->
<g id="node21" class="node">
<title>Node21</title>
<g id="a_node21"><a xlink:title=" ">
<polygon fill="white" stroke="#bfbfbf" points="798.5,-123.5 798.5,-153.5 910.5,-153.5 910.5,-123.5 798.5,-123.5"/>
<text text-anchor="start" x="806.5" y="-141.5" font-family="Helvetica,sans-Serif" font-size="10.00">sml/graphics_wrapper</text>
<text text-anchor="middle" x="854.5" y="-130.5" font-family="Helvetica,sans-Serif" font-size="10.00">/color.h</text>
</a>
</g>
</g>
<!-- Node20&#45;&gt;Node21 -->
<g id="edge21" class="edge">
<title>Node20&#45;&gt;Node21</title>
<path fill="none" stroke="midnightblue" d="M714.85,-190.48C738.68,-181.78 776.35,-168.03 806.56,-157"/>
<polygon fill="midnightblue" stroke="midnightblue" points="807.89,-160.24 816.08,-153.52 805.49,-153.66 807.89,-160.24"/>
</g>
<!-- Node22 -->
<g id="node22" class="node">
<title>Node22</title>
<g id="a_node22"><a xlink:title=" ">
<polygon fill="white" stroke="#bfbfbf" points="339.5,-62 339.5,-81 447.5,-81 447.5,-62 339.5,-62"/>
<text text-anchor="middle" x="393.5" y="-69" font-family="Helvetica,sans-Serif" font-size="10.00">sml/math/rectangle.h</text>
</a>
</g>
</g>
<!-- Node20&#45;&gt;Node22 -->
<g id="edge22" class="edge">
<title>Node20&#45;&gt;Node22</title>
<path fill="none" stroke="midnightblue" d="M683.12,-190.26C667.44,-174.41 631.93,-140.93 595.5,-123 588.41,-119.51 496.62,-97.19 439.25,-83.42"/>
<polygon fill="midnightblue" stroke="midnightblue" points="439.85,-79.97 429.31,-81.04 438.22,-86.77 439.85,-79.97"/>
</g>
<!-- Node23&#45;&gt;Node8 -->
<g id="edge25" class="edge">
<title>Node23&#45;&gt;Node8</title>
<path fill="none" stroke="midnightblue" d="M386.46,-190.27C396.45,-175.82 417.46,-146.23 437.5,-123 448.06,-110.77 460.9,-97.83 470.93,-88.11"/>
<polygon fill="midnightblue" stroke="midnightblue" points="473.46,-90.53 478.27,-81.09 468.62,-85.47 473.46,-90.53"/>
</g>
<!-- Node23&#45;&gt;Node22 -->
<g id="edge26" class="edge">
<title>Node23&#45;&gt;Node22</title>
<path fill="none" stroke="midnightblue" d="M381.39,-190.31C383.48,-169.99 388.72,-119.05 391.57,-91.28"/>
<polygon fill="midnightblue" stroke="midnightblue" points="395.06,-91.56 392.6,-81.26 388.1,-90.85 395.06,-91.56"/>
</g>
<!-- Node24 -->
<g id="node24" class="node">
<title>Node24</title>
<g id="a_node24"><a xlink:href="fill_8h.html" target="_top" xlink:title=" ">
<polygon fill="white" stroke="black" points="317,-129 317,-148 352,-148 352,-129 317,-129"/>
<text text-anchor="middle" x="334.5" y="-136" font-family="Helvetica,sans-Serif" font-size="10.00">fill.h</text>
</a>
</g>
</g>
<!-- Node23&#45;&gt;Node24 -->
<g id="edge27" class="edge">
<title>Node23&#45;&gt;Node24</title>
<path fill="none" stroke="midnightblue" d="M373.91,-190.48C367.01,-181.55 356,-167.31 347.37,-156.14"/>
<polygon fill="midnightblue" stroke="midnightblue" points="349.96,-153.78 341.08,-148.01 344.43,-158.06 349.96,-153.78"/>
</g>
<!-- Node26 -->
<g id="node26" class="node">
<title>Node26</title>
<g id="a_node26"><a xlink:href="image_8h.html" target="_top" xlink:title=" ">
<polygon fill="white" stroke="black" points="171,-129 171,-148 260,-148 260,-129 171,-129"/>
<text text-anchor="middle" x="215.5" y="-136" font-family="Helvetica,sans-Serif" font-size="10.00">../media/image.h</text>
</a>
</g>
</g>
<!-- Node23&#45;&gt;Node26 -->
<g id="edge32" class="edge">
<title>Node23&#45;&gt;Node26</title>
<path fill="none" stroke="midnightblue" d="M356.86,-190.48C328.56,-180.27 280.97,-163.11 248.91,-151.55"/>
<polygon fill="midnightblue" stroke="midnightblue" points="249.69,-148.11 239.1,-148.01 247.32,-154.69 249.69,-148.11"/>
</g>
<!-- Node24&#45;&gt;Node8 -->
<g id="edge28" class="edge">
<title>Node24&#45;&gt;Node8</title>
<path fill="none" stroke="midnightblue" d="M352.39,-130.39C376.26,-120.83 419.79,-103.17 456.5,-87 457.69,-86.47 458.91,-85.93 460.14,-85.38"/>
<polygon fill="midnightblue" stroke="midnightblue" points="461.9,-88.42 469.53,-81.07 458.98,-82.06 461.9,-88.42"/>
</g>
<!-- Node24&#45;&gt;Node17 -->
<g id="edge31" class="edge">
<title>Node24&#45;&gt;Node17</title>
<path fill="none" stroke="midnightblue" d="M316.88,-131.03C291.12,-121.57 242.22,-103.61 205.34,-90.07"/>
<polygon fill="midnightblue" stroke="midnightblue" points="206.37,-86.72 195.77,-86.56 203.95,-93.29 206.37,-86.72"/>
</g>
<!-- Node24&#45;&gt;Node22 -->
<g id="edge30" class="edge">
<title>Node24&#45;&gt;Node22</title>
<path fill="none" stroke="midnightblue" d="M342.46,-128.73C351.75,-118.5 367.3,-101.36 378.8,-88.69"/>
<polygon fill="midnightblue" stroke="midnightblue" points="381.54,-90.88 385.67,-81.13 376.36,-86.18 381.54,-90.88"/>
</g>
<!-- Node25 -->
<g id="node25" class="node">
<title>Node25</title>
<g id="a_node25"><a xlink:title=" ">
<polygon fill="white" stroke="#bfbfbf" points="232,-62 232,-81 321,-81 321,-62 232,-62"/>
<text text-anchor="middle" x="276.5" y="-69" font-family="Helvetica,sans-Serif" font-size="10.00">sml/math/vec2.h</text>
</a>
</g>
</g>
<!-- Node24&#45;&gt;Node25 -->
<g id="edge29" class="edge">
<title>Node24&#45;&gt;Node25</title>
<path fill="none" stroke="midnightblue" d="M326.68,-128.73C317.55,-118.5 302.26,-101.36 290.95,-88.69"/>
<polygon fill="midnightblue" stroke="midnightblue" points="293.47,-86.26 284.2,-81.13 288.24,-90.92 293.47,-86.26"/>
</g>
<!-- Node26&#45;&gt;Node17 -->
<g id="edge33" class="edge">
<title>Node26&#45;&gt;Node17</title>
<path fill="none" stroke="midnightblue" d="M207.68,-128.73C199.84,-119.95 187.46,-106.08 176.96,-94.31"/>
<polygon fill="midnightblue" stroke="midnightblue" points="179.34,-91.72 170.07,-86.59 174.12,-96.38 179.34,-91.72"/>
</g>
<!-- Node27&#45;&gt;Node18 -->
<g id="edge36" class="edge">
<title>Node27&#45;&gt;Node18</title>
<path fill="none" stroke="midnightblue" d="M903.15,-313.35C921.42,-306.54 943.35,-295.1 955.5,-277 979.85,-240.73 977.17,-186.57 973.58,-158.26"/>
<polygon fill="midnightblue" stroke="midnightblue" points="977.01,-157.54 972.11,-148.15 970.08,-158.55 977.01,-157.54"/>
</g>
<!-- Node28 -->
<g id="node28" class="node">
<title>Node28</title>
<g id="a_node28"><a xlink:title=" ">
<polygon fill="white" stroke="#bfbfbf" points="834.5,-246.5 834.5,-276.5 946.5,-276.5 946.5,-246.5 834.5,-246.5"/>
<text text-anchor="start" x="842.5" y="-264.5" font-family="Helvetica,sans-Serif" font-size="10.00">sml/graphics_wrapper</text>
<text text-anchor="middle" x="890.5" y="-253.5" font-family="Helvetica,sans-Serif" font-size="10.00">/renderer.h</text>
</a>
</g>
</g>
<!-- Node27&#45;&gt;Node28 -->
<g id="edge35" class="edge">
<title>Node27&#45;&gt;Node28</title>
<path fill="none" stroke="midnightblue" d="M875.08,-313.48C877.22,-306.4 880.37,-295.97 883.27,-286.39"/>
<polygon fill="midnightblue" stroke="midnightblue" points="886.71,-287.11 886.26,-276.52 880.01,-285.08 886.71,-287.11"/>
</g>
<!-- Node29&#45;&gt;Node10 -->
<g id="edge38" class="edge">
<title>Node29&#45;&gt;Node10</title>
<path fill="none" stroke="midnightblue" d="M578.94,-369.38C581.8,-351.98 588.2,-311.36 591.5,-277 597.72,-212.25 600.67,-135.61 601.84,-97.14"/>
<polygon fill="midnightblue" stroke="midnightblue" points="605.35,-97.01 602.14,-86.91 598.35,-96.8 605.35,-97.01"/>
</g>
<!-- Node29&#45;&gt;Node15 -->
<g id="edge54" class="edge">
<title>Node29&#45;&gt;Node15</title>
<path fill="none" stroke="midnightblue" d="M519.44,-374.14C443.8,-368.3 316.4,-355.44 275.5,-333 197.64,-290.28 139.05,-196.52 117.03,-157.3"/>
<polygon fill="midnightblue" stroke="midnightblue" points="120,-155.45 112.12,-148.37 113.87,-158.82 120,-155.45"/>
</g>
<!-- Node29&#45;&gt;Node18 -->
<g id="edge53" class="edge">
<title>Node29&#45;&gt;Node18</title>
<path fill="none" stroke="midnightblue" d="M635.72,-371.53C689.57,-364.49 764.62,-351.7 787.5,-333 820.17,-306.3 799.15,-278.95 825.5,-246 858.91,-204.22 912.52,-170.67 944.35,-153.04"/>
<polygon fill="midnightblue" stroke="midnightblue" points="946.36,-155.94 953.48,-148.09 943.02,-149.78 946.36,-155.94"/>
</g>
<!-- Node29&#45;&gt;Node20 -->
<g id="edge52" class="edge">
<title>Node29&#45;&gt;Node20</title>
<path fill="none" stroke="midnightblue" d="M588.64,-369.27C598.9,-360.81 614.07,-347.21 624.5,-333 650.02,-298.23 647.79,-284.37 667.5,-246 672.16,-236.93 677.48,-226.91 681.93,-218.64"/>
<polygon fill="midnightblue" stroke="midnightblue" points="685.15,-220.05 686.82,-209.59 678.99,-216.72 685.15,-220.05"/>
</g>
<!-- Node29&#45;&gt;Node23 -->
<g id="edge51" class="edge">
<title>Node29&#45;&gt;Node23</title>
<path fill="none" stroke="midnightblue" d="M519.25,-374.3C467.54,-369.44 390.76,-358.31 328.5,-333 287.28,-316.24 266.39,-316.29 245.5,-277 239.03,-264.83 237.44,-257.18 245.5,-246 261.77,-223.43 289.85,-212.01 316.2,-206.3"/>
<polygon fill="midnightblue" stroke="midnightblue" points="317.03,-209.7 326.18,-204.37 315.7,-202.83 317.03,-209.7"/>
</g>
<!-- Node29&#45;&gt;Node27 -->
<g id="edge55" class="edge">
<title>Node29&#45;&gt;Node27</title>
<path fill="none" stroke="midnightblue" d="M624.24,-369.44C679,-359.42 769.24,-342.9 824.52,-332.78"/>
<polygon fill="midnightblue" stroke="midnightblue" points="825.21,-336.21 834.42,-330.97 823.95,-329.33 825.21,-336.21"/>
</g>
<!-- Node30 -->
<g id="node30" class="node">
<title>Node30</title>
<g id="a_node30"><a xlink:href="image__view_8h.html" target="_top" xlink:title=" ">
<polygon fill="white" stroke="black" points="254.5,-252 254.5,-271 338.5,-271 338.5,-252 254.5,-252"/>
<text text-anchor="middle" x="296.5" y="-259" font-family="Helvetica,sans-Serif" font-size="10.00">../image_view.h</text>
</a>
</g>
</g>
<!-- Node29&#45;&gt;Node30 -->
<g id="edge39" class="edge">
<title>Node29&#45;&gt;Node30</title>
<path fill="none" stroke="midnightblue" d="M519.16,-376.83C471.77,-373.5 404.78,-363.19 354.5,-333 333.12,-320.16 316.11,-296.47 306.18,-280.12"/>
<polygon fill="midnightblue" stroke="midnightblue" points="308.97,-277.95 300.93,-271.05 302.91,-281.46 308.97,-277.95"/>
</g>
<!-- Node31 -->
<g id="node31" class="node">
<title>Node31</title>
<g id="a_node31"><a xlink:href="text_8h.html" target="_top" xlink:title=" ">
<polygon fill="white" stroke="black" points="490,-313.5 490,-332.5 575,-332.5 575,-313.5 490,-313.5"/>
<text text-anchor="middle" x="532.5" y="-320.5" font-family="Helvetica,sans-Serif" font-size="10.00">../shapes/text.h</text>
</a>
</g>
</g>
<!-- Node29&#45;&gt;Node31 -->
<g id="edge42" class="edge">
<title>Node29&#45;&gt;Node31</title>
<path fill="none" stroke="midnightblue" d="M570.07,-369.08C563.65,-361.38 554.19,-350.03 546.38,-340.65"/>
<polygon fill="midnightblue" stroke="midnightblue" points="548.88,-338.19 539.79,-332.75 543.51,-342.67 548.88,-338.19"/>
</g>
<!-- Node34 -->
<g id="node34" class="node">
<title>Node34</title>
<g id="a_node34"><a xlink:href="rectangle_8h.html" target="_top" xlink:title=" ">
<polygon fill="white" stroke="black" points="363.5,-313.5 363.5,-332.5 471.5,-332.5 471.5,-313.5 363.5,-313.5"/>
<text text-anchor="middle" x="417.5" y="-320.5" font-family="Helvetica,sans-Serif" font-size="10.00">../shapes/rectangle.h</text>
</a>
</g>
</g>
<!-- Node29&#45;&gt;Node34 -->
<g id="edge48" class="edge">
<title>Node29&#45;&gt;Node34</title>
<path fill="none" stroke="midnightblue" d="M552.15,-369.44C525.23,-360.36 482.5,-345.94 452.41,-335.78"/>
<polygon fill="midnightblue" stroke="midnightblue" points="453.33,-332.4 442.73,-332.52 451.09,-339.03 453.33,-332.4"/>
</g>
<!-- Node30&#45;&gt;Node5 -->
<g id="edge40" class="edge">
<title>Node30&#45;&gt;Node5</title>
<path fill="none" stroke="midnightblue" d="M326.16,-251.98C362.43,-241.55 423.96,-223.86 464.16,-212.31"/>
<polygon fill="midnightblue" stroke="midnightblue" points="465.25,-215.64 473.9,-209.51 463.32,-208.91 465.25,-215.64"/>
</g>
<!-- Node30&#45;&gt;Node26 -->
<g id="edge41" class="edge">
<title>Node30&#45;&gt;Node26</title>
<path fill="none" stroke="midnightblue" d="M290.67,-251.8C277.36,-231.91 244.52,-182.85 226.98,-156.65"/>
<polygon fill="midnightblue" stroke="midnightblue" points="229.74,-154.49 221.27,-148.12 223.93,-158.38 229.74,-154.49"/>
</g>
<!-- Node32 -->
<g id="node32" class="node">
<title>Node32</title>
<g id="a_node32"><a xlink:title=" ">
<polygon fill="white" stroke="#bfbfbf" points="470.5,-246.5 470.5,-276.5 582.5,-276.5 582.5,-246.5 470.5,-246.5"/>
<text text-anchor="start" x="478.5" y="-264.5" font-family="Helvetica,sans-Serif" font-size="10.00">sml/graphics_wrapper</text>
<text text-anchor="middle" x="526.5" y="-253.5" font-family="Helvetica,sans-Serif" font-size="10.00">/text.h</text>
</a>
</g>
</g>
<!-- Node31&#45;&gt;Node32 -->
<g id="edge43" class="edge">
<title>Node31&#45;&gt;Node32</title>
<path fill="none" stroke="midnightblue" d="M531.64,-313.48C530.93,-306.47 529.9,-296.19 528.94,-286.7"/>
<polygon fill="midnightblue" stroke="midnightblue" points="532.4,-286.12 527.91,-276.52 525.44,-286.82 532.4,-286.12"/>
</g>
<!-- Node33 -->
<g id="node33" class="node">
<title>Node33</title>
<g id="a_node33"><a xlink:href="shape_8h.html" target="_top" xlink:title=" ">
<polygon fill="white" stroke="black" points="401,-252 401,-271 452,-271 452,-252 401,-252"/>
<text text-anchor="middle" x="426.5" y="-259" font-family="Helvetica,sans-Serif" font-size="10.00">shape.h</text>
</a>
</g>
</g>
<!-- Node31&#45;&gt;Node33 -->
<g id="edge44" class="edge">
<title>Node31&#45;&gt;Node33</title>
<path fill="none" stroke="midnightblue" d="M517.31,-313.48C499.84,-303.67 470.92,-287.43 450.42,-275.92"/>
<polygon fill="midnightblue" stroke="midnightblue" points="452.09,-272.85 441.66,-271.01 448.67,-278.96 452.09,-272.85"/>
</g>
<!-- Node33&#45;&gt;Node5 -->
<g id="edge45" class="edge">
<title>Node33&#45;&gt;Node5</title>
<path fill="none" stroke="midnightblue" d="M437.53,-251.98C449.77,-242.52 469.73,-227.1 484.49,-215.69"/>
<polygon fill="midnightblue" stroke="midnightblue" points="486.72,-218.39 492.49,-209.51 482.44,-212.85 486.72,-218.39"/>
</g>
<!-- Node33&#45;&gt;Node20 -->
<g id="edge47" class="edge">
<title>Node33&#45;&gt;Node20</title>
<path fill="none" stroke="midnightblue" d="M445.14,-251.97C450.36,-249.81 456.08,-247.63 461.5,-246 521.38,-227.94 592.28,-215.34 639.37,-208.16"/>
<polygon fill="midnightblue" stroke="midnightblue" points="639.97,-211.61 649.34,-206.67 638.93,-204.69 639.97,-211.61"/>
</g>
<!-- Node33&#45;&gt;Node23 -->
<g id="edge46" class="edge">
<title>Node33&#45;&gt;Node23</title>
<path fill="none" stroke="midnightblue" d="M419.91,-251.98C413.01,-243.05 402,-228.81 393.37,-217.64"/>
<polygon fill="midnightblue" stroke="midnightblue" points="395.96,-215.28 387.08,-209.51 390.43,-219.56 395.96,-215.28"/>
</g>
<!-- Node34&#45;&gt;Node22 -->
<g id="edge49" class="edge">
<title>Node34&#45;&gt;Node22</title>
<path fill="none" stroke="midnightblue" d="M409.6,-313.41C386.49,-288.26 320.51,-216.18 317.5,-210 306.44,-187.27 309.73,-179.18 307.5,-154 306.28,-140.28 300.66,-134.96 307.5,-123 317.73,-105.12 337.03,-92.96 354.75,-85.05"/>
<polygon fill="midnightblue" stroke="midnightblue" points="356.46,-88.13 364.37,-81.09 353.79,-81.66 356.46,-88.13"/>
</g>
<!-- Node34&#45;&gt;Node33 -->
<g id="edge50" class="edge">
<title>Node34&#45;&gt;Node33</title>
<path fill="none" stroke="midnightblue" d="M418.79,-313.48C420.06,-305.08 422.04,-291.98 423.68,-281.16"/>
<polygon fill="midnightblue" stroke="midnightblue" points="427.18,-281.42 425.21,-271.01 420.26,-280.37 427.18,-281.42"/>
</g>
<!-- Node36 -->
<g id="node36" class="node">
<title>Node36</title>
<g id="a_node36"><a xlink:href="box__container_8h.html" target="_top" xlink:title=" ">
<polygon fill="white" stroke="black" points="906,-369.5 906,-388.5 991,-388.5 991,-369.5 906,-369.5"/>
<text text-anchor="middle" x="948.5" y="-376.5" font-family="Helvetica,sans-Serif" font-size="10.00">box_container.h</text>
</a>
</g>
</g>
<!-- Node35&#45;&gt;Node36 -->
<g id="edge57" class="edge">
<title>Node35&#45;&gt;Node36</title>
<path fill="none" stroke="midnightblue" d="M875.48,-425.32C889.05,-416.9 909.88,-403.97 925.82,-394.07"/>
<polygon fill="midnightblue" stroke="midnightblue" points="927.91,-396.9 934.56,-388.65 924.21,-390.95 927.91,-396.9"/>
</g>
<!-- Node37 -->
<g id="node37" class="node">
<title>Node37</title>
<g id="a_node37"><a xlink:title=" ">
<polygon fill="white" stroke="#bfbfbf" points="929,-313.5 929,-332.5 1012,-332.5 1012,-313.5 929,-313.5"/>
<text text-anchor="middle" x="970.5" y="-320.5" font-family="Helvetica,sans-Serif" font-size="10.00">unordered_map</text>
</a>
</g>
</g>
<!-- Node36&#45;&gt;Node37 -->
<g id="edge58" class="edge">
<title>Node36&#45;&gt;Node37</title>
<path fill="none" stroke="midnightblue" d="M952.13,-369.08C955.11,-361.77 959.43,-351.18 963.12,-342.1"/>
<polygon fill="midnightblue" stroke="midnightblue" points="966.4,-343.33 966.93,-332.75 959.92,-340.69 966.4,-343.33"/>
</g>
<!-- Node38 -->
<g id="node38" class="node">
<title>Node38</title>
<g id="a_node38"><a xlink:href="container_8h.html" target="_top" xlink:title=" ">
<polygon fill="white" stroke="black" points="714.5,-313.5 714.5,-332.5 778.5,-332.5 778.5,-313.5 714.5,-313.5"/>
<text text-anchor="middle" x="746.5" y="-320.5" font-family="Helvetica,sans-Serif" font-size="10.00">container.h</text>
</a>
</g>
</g>
<!-- Node36&#45;&gt;Node38 -->
<g id="edge59" class="edge">
<title>Node36&#45;&gt;Node38</title>
<path fill="none" stroke="midnightblue" d="M916.49,-369.44C881.77,-360.16 826.21,-345.31 788.12,-335.13"/>
<polygon fill="midnightblue" stroke="midnightblue" points="788.92,-331.72 778.36,-332.52 787.11,-338.48 788.92,-331.72"/>
</g>
<!-- Node39 -->
<g id="node39" class="node">
<title>Node39</title>
<g id="a_node39"><a xlink:title=" ">
<polygon fill="white" stroke="#bfbfbf" points="1030.5,-313.5 1030.5,-332.5 1104.5,-332.5 1104.5,-313.5 1030.5,-313.5"/>
<text text-anchor="middle" x="1067.5" y="-320.5" font-family="Helvetica,sans-Serif" font-size="10.00">sys/syscall.h</text>
</a>
</g>
</g>
<!-- Node36&#45;&gt;Node39 -->
<g id="edge61" class="edge">
<title>Node36&#45;&gt;Node39</title>
<path fill="none" stroke="midnightblue" d="M967.36,-369.44C986.77,-360.64 1017.23,-346.81 1039.46,-336.72"/>
<polygon fill="midnightblue" stroke="midnightblue" points="1041.07,-339.84 1048.73,-332.52 1038.18,-333.46 1041.07,-339.84"/>
</g>
<!-- Node38&#45;&gt;Node4 -->
<g id="edge60" class="edge">
<title>Node38&#45;&gt;Node4</title>
<path fill="none" stroke="midnightblue" d="M740.91,-313.48C735.12,-304.64 725.91,-290.59 718.63,-279.48"/>
<polygon fill="midnightblue" stroke="midnightblue" points="721.49,-277.45 713.08,-271.01 715.63,-281.29 721.49,-277.45"/>
</g>
</g>
</svg>
