<?xml version="1.0" encoding="UTF-8" standalone="no"?>
<!DOCTYPE svg PUBLIC "-//W3C//DTD SVG 1.1//EN"
 "http://www.w3.org/Graphics/SVG/1.1/DTD/svg11.dtd">
<!-- Generated by graphviz version 2.50.0 (20211204.2007)
 -->
<!-- Title: menu_bar.cpp Pages: 1 -->
<!--zoomable 588 -->
<svg id="main" version="1.1" xmlns="http://www.w3.org/2000/svg" xmlns:xlink="http://www.w3.org/1999/xlink" xml:space="preserve" onload="init(evt)">
<style type="text/css"><![CDATA[
.edge:hover path { stroke: red; }
.edge:hover polygon { stroke: red; fill: red; }
]]></style>
<script type="text/javascript"><![CDATA[
var edges = document.getElementsByTagName('g');
if (edges && edges.length) {
  for (var i=0;i<edges.length;i++) {
    if (edges[i].id.substr(0,4)=='edge') {
      edges[i].setAttribute('class','edge');
    }
  }
}
]]></script>
        <defs>
                <circle id="rim" cx="0" cy="0" r="7"/>
                <circle id="rim2" cx="0" cy="0" r="3.5"/>
                <g id="zoomPlus">
                        <use xlink:href="#rim" fill="#404040">
                                <set attributeName="fill" to="#808080" begin="zoomplus.mouseover" end="zoomplus.mouseout"/>
                        </use>
                        <path d="M-4,0h8M0,-4v8" fill="none" stroke="white" stroke-width="1.5" pointer-events="none"/>
                </g>
                <g id="zoomMin">
                        <use xlink:href="#rim" fill="#404040">
                                <set attributeName="fill" to="#808080" begin="zoomminus.mouseover" end="zoomminus.mouseout"/>
                        </use>
                        <path d="M-4,0h8" fill="none" stroke="white" stroke-width="1.5" pointer-events="none"/>
                </g>
                <g id="dirArrow">
                        <path fill="none" stroke="white" stroke-width="1.5" d="M0,-3.0v7 M-2.5,-0.5L0,-3.0L2.5,-0.5"/>
                </g>
               <g id="resetDef">
                       <use xlink:href="#rim2" fill="#404040">
                               <set attributeName="fill" to="#808080" begin="reset.mouseover" end="reset.mouseout"/>
                       </use>
               </g>
        </defs>

<script type="text/javascript">
var viewWidth = 1436;
var viewHeight = 588;
var sectionId = 'dynsection-0';
</script>
<script xlink:href="svgpan.js"/>
<svg id="graph" class="graph">
<g id="viewport">
<title>menu_bar.cpp</title>
<polygon fill="white" stroke="transparent" points="-4,4 -4,-584 1431.5,-584 1431.5,4 -4,4"/>
<!-- Node1 -->
<g id="node1" class="node">
<title>Node1</title>
<g id="a_node1"><a xlink:title=" ">
<polygon fill="#bfbfbf" stroke="black" points="530.5,-560.5 530.5,-579.5 607.5,-579.5 607.5,-560.5 530.5,-560.5"/>
<text text-anchor="middle" x="569" y="-567.5" font-family="Helvetica,sans-Serif" font-size="10.00">menu_bar.cpp</text>
</a>
</g>
</g>
<!-- Node2 -->
<g id="node2" class="node">
<title>Node2</title>
<g id="a_node2"><a xlink:href="menu__bar_8h.html" target="_top" xlink:title=" ">
<polygon fill="white" stroke="black" points="463,-448.5 463,-467.5 607,-467.5 607,-448.5 463,-448.5"/>
<text text-anchor="middle" x="535" y="-455.5" font-family="Helvetica,sans-Serif" font-size="10.00">scene/containers/menu_bar.h</text>
</a>
</g>
</g>
<!-- Node1&#45;&gt;Node2 -->
<g id="edge1" class="edge">
<title>Node1&#45;&gt;Node2</title>
<path fill="none" stroke="midnightblue" d="M566.03,-560.4C562.93,-551.37 557.98,-536.73 554,-524 549.12,-508.4 543.94,-490.56 540.22,-477.53"/>
<polygon fill="midnightblue" stroke="midnightblue" points="543.57,-476.53 537.48,-467.86 536.84,-478.44 543.57,-476.53"/>
</g>
<!-- Node41 -->
<g id="node41" class="node">
<title>Node41</title>
<g id="a_node41"><a xlink:href="scene_8h.html" target="_top" xlink:title=" ">
<polygon fill="white" stroke="black" points="563,-504.5 563,-523.5 643,-523.5 643,-504.5 563,-504.5"/>
<text text-anchor="middle" x="603" y="-511.5" font-family="Helvetica,sans-Serif" font-size="10.00">scene/scene.h</text>
</a>
</g>
</g>
<!-- Node1&#45;&gt;Node41 -->
<g id="edge63" class="edge">
<title>Node1&#45;&gt;Node41</title>
<path fill="none" stroke="midnightblue" d="M574.61,-560.08C579.37,-552.53 586.32,-541.49 592.15,-532.23"/>
<polygon fill="midnightblue" stroke="midnightblue" points="595.12,-534.08 597.49,-523.75 589.2,-530.35 595.12,-534.08"/>
</g>
<!-- Node3 -->
<g id="node3" class="node">
<title>Node3</title>
<g id="a_node3"><a xlink:href="button_8h.html" target="_top" xlink:title=" ">
<polygon fill="white" stroke="black" points="486,-392.5 486,-411.5 584,-411.5 584,-392.5 486,-392.5"/>
<text text-anchor="middle" x="535" y="-399.5" font-family="Helvetica,sans-Serif" font-size="10.00">../controls/button.h</text>
</a>
</g>
</g>
<!-- Node2&#45;&gt;Node3 -->
<g id="edge2" class="edge">
<title>Node2&#45;&gt;Node3</title>
<path fill="none" stroke="midnightblue" d="M535,-448.08C535,-441.01 535,-430.86 535,-421.99"/>
<polygon fill="midnightblue" stroke="midnightblue" points="538.5,-421.75 535,-411.75 531.5,-421.75 538.5,-421.75"/>
</g>
<!-- Node36 -->
<g id="node36" class="node">
<title>Node36</title>
<g id="a_node36"><a xlink:href="context__menu_8h.html" target="_top" xlink:title=" ">
<polygon fill="white" stroke="black" points="333,-392.5 333,-411.5 419,-411.5 419,-392.5 333,-392.5"/>
<text text-anchor="middle" x="376" y="-399.5" font-family="Helvetica,sans-Serif" font-size="10.00">context_menu.h</text>
</a>
</g>
</g>
<!-- Node2&#45;&gt;Node36 -->
<g id="edge57" class="edge">
<title>Node2&#45;&gt;Node36</title>
<path fill="none" stroke="midnightblue" d="M509.81,-448.44C483.06,-439.36 440.6,-424.94 410.69,-414.78"/>
<polygon fill="midnightblue" stroke="midnightblue" points="411.67,-411.42 401.08,-411.52 409.42,-418.05 411.67,-411.42"/>
</g>
<!-- Node4 -->
<g id="node4" class="node">
<title>Node4</title>
<g id="a_node4"><a xlink:href="control_8h.html" target="_top" xlink:title=" ">
<polygon fill="white" stroke="black" points="391,-336.5 391,-355.5 445,-355.5 445,-336.5 391,-336.5"/>
<text text-anchor="middle" x="418" y="-343.5" font-family="Helvetica,sans-Serif" font-size="10.00">control.h</text>
</a>
</g>
</g>
<!-- Node3&#45;&gt;Node4 -->
<g id="edge3" class="edge">
<title>Node3&#45;&gt;Node4</title>
<path fill="none" stroke="midnightblue" d="M516.46,-392.44C497.38,-383.64 467.43,-369.81 445.56,-359.72"/>
<polygon fill="midnightblue" stroke="midnightblue" points="447,-356.53 436.45,-355.52 444.07,-362.88 447,-356.53"/>
</g>
<!-- Node30 -->
<g id="node30" class="node">
<title>Node30</title>
<g id="a_node30"><a xlink:href="default__skins_8h.html" target="_top" xlink:title=" ">
<polygon fill="white" stroke="black" points="537,-336.5 537,-355.5 653,-355.5 653,-336.5 537,-336.5"/>
<text text-anchor="middle" x="595" y="-343.5" font-family="Helvetica,sans-Serif" font-size="10.00">../style/default_skins.h</text>
</a>
</g>
</g>
<!-- Node3&#45;&gt;Node30 -->
<g id="edge38" class="edge">
<title>Node3&#45;&gt;Node30</title>
<path fill="none" stroke="midnightblue" d="M544.64,-392.32C553.51,-384.34 566.87,-372.31 577.61,-362.65"/>
<polygon fill="midnightblue" stroke="midnightblue" points="580.09,-365.13 585.18,-355.83 575.41,-359.92 580.09,-365.13"/>
</g>
<!-- Node5 -->
<g id="node5" class="node">
<title>Node5</title>
<g id="a_node5"><a xlink:href="parent_8h.html" target="_top" xlink:title=" ">
<polygon fill="white" stroke="black" points="357.5,-224.5 357.5,-243.5 418.5,-243.5 418.5,-224.5 357.5,-224.5"/>
<text text-anchor="middle" x="388" y="-231.5" font-family="Helvetica,sans-Serif" font-size="10.00">../parent.h</text>
</a>
</g>
</g>
<!-- Node4&#45;&gt;Node5 -->
<g id="edge4" class="edge">
<title>Node4&#45;&gt;Node5</title>
<path fill="none" stroke="midnightblue" d="M415.65,-336.37C410.78,-318.54 399.54,-277.3 392.98,-253.27"/>
<polygon fill="midnightblue" stroke="midnightblue" points="396.35,-252.32 390.34,-243.59 389.6,-254.16 396.35,-252.32"/>
</g>
<!-- Node28 -->
<g id="node28" class="node">
<title>Node28</title>
<g id="a_node28"><a xlink:href="skin_8h.html" target="_top" xlink:title=" ">
<polygon fill="white" stroke="black" points="194,-280.5 194,-299.5 270,-299.5 270,-280.5 194,-280.5"/>
<text text-anchor="middle" x="232" y="-287.5" font-family="Helvetica,sans-Serif" font-size="10.00">../style/skin.h</text>
</a>
</g>
</g>
<!-- Node4&#45;&gt;Node28 -->
<g id="edge35" class="edge">
<title>Node4&#45;&gt;Node28</title>
<path fill="none" stroke="midnightblue" d="M390.95,-337.15C359.46,-328 307.17,-312.82 271.21,-302.38"/>
<polygon fill="midnightblue" stroke="midnightblue" points="272.12,-299 261.54,-299.58 270.17,-305.72 272.12,-299"/>
</g>
<!-- Node6 -->
<g id="node6" class="node">
<title>Node6</title>
<g id="a_node6"><a xlink:href="component_8h.html" target="_top" xlink:title=" ">
<polygon fill="white" stroke="black" points="784.5,-168.5 784.5,-187.5 857.5,-187.5 857.5,-168.5 784.5,-168.5"/>
<text text-anchor="middle" x="821" y="-175.5" font-family="Helvetica,sans-Serif" font-size="10.00">component.h</text>
</a>
</g>
</g>
<!-- Node5&#45;&gt;Node6 -->
<g id="edge5" class="edge">
<title>Node5&#45;&gt;Node6</title>
<path fill="none" stroke="midnightblue" d="M418.79,-229.16C493.6,-219.83 685.26,-195.93 774.27,-184.83"/>
<polygon fill="midnightblue" stroke="midnightblue" points="774.86,-188.28 784.35,-183.57 773.99,-181.34 774.86,-188.28"/>
</g>
<!-- Node19 -->
<g id="node19" class="node">
<title>Node19</title>
<g id="a_node19"><a xlink:href="insets_8h.html" target="_top" xlink:title=" ">
<polygon fill="white" stroke="black" points="173,-112.5 173,-131.5 257,-131.5 257,-112.5 173,-112.5"/>
<text text-anchor="middle" x="215" y="-119.5" font-family="Helvetica,sans-Serif" font-size="10.00">../paint/insets.h</text>
</a>
</g>
</g>
<!-- Node5&#45;&gt;Node19 -->
<g id="edge19" class="edge">
<title>Node5&#45;&gt;Node19</title>
<path fill="none" stroke="midnightblue" d="M379.28,-224.13C365.78,-210.73 338.59,-185.08 312,-168 291.56,-154.87 266.66,-143.4 247.21,-135.33"/>
<polygon fill="midnightblue" stroke="midnightblue" points="248.45,-132.05 237.87,-131.54 245.82,-138.54 248.45,-132.05"/>
</g>
<!-- Node21 -->
<g id="node21" class="node">
<title>Node21</title>
<g id="a_node21"><a xlink:href="border_8h.html" target="_top" xlink:title=" ">
<polygon fill="white" stroke="black" points="371,-168.5 371,-187.5 455,-187.5 455,-168.5 371,-168.5"/>
<text text-anchor="middle" x="413" y="-175.5" font-family="Helvetica,sans-Serif" font-size="10.00">../paint/border.h</text>
</a>
</g>
</g>
<!-- Node5&#45;&gt;Node21 -->
<g id="edge21" class="edge">
<title>Node5&#45;&gt;Node21</title>
<path fill="none" stroke="midnightblue" d="M392.13,-224.08C395.51,-216.77 400.42,-206.18 404.62,-197.1"/>
<polygon fill="midnightblue" stroke="midnightblue" points="407.92,-198.3 408.95,-187.75 401.57,-195.36 407.92,-198.3"/>
</g>
<!-- Node24 -->
<g id="node24" class="node">
<title>Node24</title>
<g id="a_node24"><a xlink:href="background_8h.html" target="_top" xlink:title=" ">
<polygon fill="white" stroke="black" points="515,-168.5 515,-187.5 623,-187.5 623,-168.5 515,-168.5"/>
<text text-anchor="middle" x="569" y="-175.5" font-family="Helvetica,sans-Serif" font-size="10.00">../paint/background.h</text>
</a>
</g>
</g>
<!-- Node5&#45;&gt;Node24 -->
<g id="edge25" class="edge">
<title>Node5&#45;&gt;Node24</title>
<path fill="none" stroke="midnightblue" d="M416.68,-224.44C447.53,-215.24 496.73,-200.56 530.83,-190.39"/>
<polygon fill="midnightblue" stroke="midnightblue" points="531.87,-193.73 540.45,-187.52 529.87,-187.02 531.87,-193.73"/>
</g>
<!-- Node7 -->
<g id="node7" class="node">
<title>Node7</title>
<g id="a_node7"><a xlink:title=" ">
<polygon fill="white" stroke="#bfbfbf" points="751,-112.5 751,-131.5 891,-131.5 891,-112.5 751,-112.5"/>
<text text-anchor="middle" x="821" y="-119.5" font-family="Helvetica,sans-Serif" font-size="10.00">sml/sml_graphics_wrapper.h</text>
</a>
</g>
</g>
<!-- Node6&#45;&gt;Node7 -->
<g id="edge6" class="edge">
<title>Node6&#45;&gt;Node7</title>
<path fill="none" stroke="midnightblue" d="M821,-168.08C821,-161.01 821,-150.86 821,-141.99"/>
<polygon fill="midnightblue" stroke="midnightblue" points="824.5,-141.75 821,-131.75 817.5,-141.75 824.5,-141.75"/>
</g>
<!-- Node8 -->
<g id="node8" class="node">
<title>Node8</title>
<g id="a_node8"><a xlink:href="gui__event__dispatching_8h.html" target="_top" xlink:title=" ">
<polygon fill="white" stroke="black" points="1017.5,-112.5 1017.5,-131.5 1180.5,-131.5 1180.5,-112.5 1017.5,-112.5"/>
<text text-anchor="middle" x="1099" y="-119.5" font-family="Helvetica,sans-Serif" font-size="10.00">../events/gui_event_dispatching.h</text>
</a>
</g>
</g>
<!-- Node6&#45;&gt;Node8 -->
<g id="edge7" class="edge">
<title>Node6&#45;&gt;Node8</title>
<path fill="none" stroke="midnightblue" d="M857.63,-169.88C905.52,-160.58 989.78,-144.22 1044.99,-133.49"/>
<polygon fill="midnightblue" stroke="midnightblue" points="1045.8,-136.9 1054.95,-131.56 1044.47,-130.03 1045.8,-136.9"/>
</g>
<!-- Node16 -->
<g id="node16" class="node">
<title>Node16</title>
<g id="a_node16"><a xlink:href="shadow_8h.html" target="_top" xlink:title=" ">
<polygon fill="white" stroke="black" points="909,-112.5 909,-131.5 999,-131.5 999,-112.5 909,-112.5"/>
<text text-anchor="middle" x="954" y="-119.5" font-family="Helvetica,sans-Serif" font-size="10.00">../paint/shadow.h</text>
</a>
</g>
</g>
<!-- Node6&#45;&gt;Node16 -->
<g id="edge16" class="edge">
<title>Node6&#45;&gt;Node16</title>
<path fill="none" stroke="midnightblue" d="M842.07,-168.44C864.06,-159.52 898.73,-145.44 923.66,-135.32"/>
<polygon fill="midnightblue" stroke="midnightblue" points="925.08,-138.52 933.02,-131.52 922.44,-132.04 925.08,-138.52"/>
</g>
<!-- Node9 -->
<g id="node9" class="node">
<title>Node9</title>
<g id="a_node9"><a xlink:title=" ">
<polygon fill="white" stroke="#bfbfbf" points="803,-56.5 803,-75.5 847,-75.5 847,-56.5 803,-56.5"/>
<text text-anchor="middle" x="825" y="-63.5" font-family="Helvetica,sans-Serif" font-size="10.00">vector</text>
</a>
</g>
</g>
<!-- Node8&#45;&gt;Node9 -->
<g id="edge8" class="edge">
<title>Node8&#45;&gt;Node9</title>
<path fill="none" stroke="midnightblue" d="M1055.58,-112.44C1000.47,-101.58 906.67,-83.09 857.41,-73.39"/>
<polygon fill="midnightblue" stroke="midnightblue" points="857.8,-69.9 847.31,-71.4 856.45,-76.77 857.8,-69.9"/>
</g>
<!-- Node10 -->
<g id="node10" class="node">
<title>Node10</title>
<g id="a_node10"><a xlink:title=" ">
<polygon fill="white" stroke="#bfbfbf" points="1113.5,-56.5 1113.5,-75.5 1268.5,-75.5 1268.5,-56.5 1113.5,-56.5"/>
<text text-anchor="middle" x="1191" y="-63.5" font-family="Helvetica,sans-Serif" font-size="10.00">sml/events/event_dispatching.h</text>
</a>
</g>
</g>
<!-- Node8&#45;&gt;Node10 -->
<g id="edge9" class="edge">
<title>Node8&#45;&gt;Node10</title>
<path fill="none" stroke="midnightblue" d="M1113.78,-112.32C1128.27,-103.82 1150.57,-90.73 1167.49,-80.8"/>
<polygon fill="midnightblue" stroke="midnightblue" points="1169.4,-83.74 1176.26,-75.65 1165.86,-77.7 1169.4,-83.74"/>
</g>
<!-- Node11 -->
<g id="node11" class="node">
<title>Node11</title>
<g id="a_node11"><a xlink:title=" ">
<polygon fill="white" stroke="#bfbfbf" points="1286.5,-56.5 1286.5,-75.5 1427.5,-75.5 1427.5,-56.5 1286.5,-56.5"/>
<text text-anchor="middle" x="1357" y="-63.5" font-family="Helvetica,sans-Serif" font-size="10.00">sml/events/listener_notifier.h</text>
</a>
</g>
</g>
<!-- Node8&#45;&gt;Node11 -->
<g id="edge10" class="edge">
<title>Node8&#45;&gt;Node11</title>
<path fill="none" stroke="midnightblue" d="M1139.88,-112.44C1184.98,-103 1257.61,-87.8 1306.3,-77.61"/>
<polygon fill="midnightblue" stroke="midnightblue" points="1307.24,-80.99 1316.31,-75.52 1305.81,-74.14 1307.24,-80.99"/>
</g>
<!-- Node12 -->
<g id="node12" class="node">
<title>Node12</title>
<g id="a_node12"><a xlink:title=" ">
<polygon fill="white" stroke="#bfbfbf" points="895.5,-0.5 895.5,-19.5 1038.5,-19.5 1038.5,-0.5 895.5,-0.5"/>
<text text-anchor="middle" x="967" y="-7.5" font-family="Helvetica,sans-Serif" font-size="10.00">sml/events/system_events.h</text>
</a>
</g>
</g>
<!-- Node8&#45;&gt;Node12 -->
<g id="edge11" class="edge">
<title>Node8&#45;&gt;Node12</title>
<path fill="none" stroke="midnightblue" d="M1079.55,-112.43C1062.73,-104.46 1038.32,-91.5 1020,-76 1003.41,-61.96 988.14,-42.19 978.3,-28.15"/>
<polygon fill="midnightblue" stroke="midnightblue" points="981.18,-26.16 972.65,-19.86 975.39,-30.1 981.18,-26.16"/>
</g>
<!-- Node13 -->
<g id="node13" class="node">
<title>Node13</title>
<g id="a_node13"><a xlink:href="gui__event_8h.html" target="_top" xlink:title=" ">
<polygon fill="white" stroke="black" points="1028.5,-56.5 1028.5,-75.5 1095.5,-75.5 1095.5,-56.5 1028.5,-56.5"/>
<text text-anchor="middle" x="1062" y="-63.5" font-family="Helvetica,sans-Serif" font-size="10.00">gui_event.h</text>
</a>
</g>
</g>
<!-- Node8&#45;&gt;Node13 -->
<g id="edge12" class="edge">
<title>Node8&#45;&gt;Node13</title>
<path fill="none" stroke="midnightblue" d="M1092.89,-112.08C1087.72,-104.53 1080.15,-93.49 1073.81,-84.23"/>
<polygon fill="midnightblue" stroke="midnightblue" points="1076.54,-82.02 1068,-75.75 1070.76,-85.98 1076.54,-82.02"/>
</g>
<!-- Node13&#45;&gt;Node12 -->
<g id="edge14" class="edge">
<title>Node13&#45;&gt;Node12</title>
<path fill="none" stroke="midnightblue" d="M1046.74,-56.32C1031.78,-47.82 1008.75,-34.73 991.27,-24.8"/>
<polygon fill="midnightblue" stroke="midnightblue" points="992.65,-21.55 982.23,-19.65 989.19,-27.64 992.65,-21.55"/>
</g>
<!-- Node14 -->
<g id="node14" class="node">
<title>Node14</title>
<g id="a_node14"><a xlink:title=" ">
<polygon fill="white" stroke="#bfbfbf" points="1152,-0.5 1152,-19.5 1252,-19.5 1252,-0.5 1152,-0.5"/>
<text text-anchor="middle" x="1202" y="-7.5" font-family="Helvetica,sans-Serif" font-size="10.00">sml/events/event.h</text>
</a>
</g>
</g>
<!-- Node13&#45;&gt;Node14 -->
<g id="edge13" class="edge">
<title>Node13&#45;&gt;Node14</title>
<path fill="none" stroke="midnightblue" d="M1084.18,-56.44C1107.43,-47.48 1144.15,-33.31 1170.42,-23.18"/>
<polygon fill="midnightblue" stroke="midnightblue" points="1171.85,-26.38 1179.92,-19.52 1169.33,-19.85 1171.85,-26.38"/>
</g>
<!-- Node15 -->
<g id="node15" class="node">
<title>Node15</title>
<g id="a_node15"><a xlink:title=" ">
<polygon fill="white" stroke="#bfbfbf" points="1056.5,-0.5 1056.5,-19.5 1133.5,-19.5 1133.5,-0.5 1056.5,-0.5"/>
<text text-anchor="middle" x="1095" y="-7.5" font-family="Helvetica,sans-Serif" font-size="10.00">sml/sml_log.h</text>
</a>
</g>
</g>
<!-- Node13&#45;&gt;Node15 -->
<g id="edge15" class="edge">
<title>Node13&#45;&gt;Node15</title>
<path fill="none" stroke="midnightblue" d="M1067.45,-56.08C1072.01,-48.61 1078.67,-37.72 1084.29,-28.52"/>
<polygon fill="midnightblue" stroke="midnightblue" points="1087.42,-30.11 1089.65,-19.75 1081.45,-26.46 1087.42,-30.11"/>
</g>
<!-- Node17 -->
<g id="node17" class="node">
<title>Node17</title>
<g id="a_node17"><a xlink:title=" ">
<polygon fill="white" stroke="#bfbfbf" points="888.5,-56.5 888.5,-75.5 971.5,-75.5 971.5,-56.5 888.5,-56.5"/>
<text text-anchor="middle" x="930" y="-63.5" font-family="Helvetica,sans-Serif" font-size="10.00">sml/math/blur.h</text>
</a>
</g>
</g>
<!-- Node16&#45;&gt;Node17 -->
<g id="edge17" class="edge">
<title>Node16&#45;&gt;Node17</title>
<path fill="none" stroke="midnightblue" d="M950.04,-112.08C946.79,-104.77 942.08,-94.18 938.05,-85.1"/>
<polygon fill="midnightblue" stroke="midnightblue" points="941.15,-83.47 933.89,-75.75 934.75,-86.31 941.15,-83.47"/>
</g>
<!-- Node18 -->
<g id="node18" class="node">
<title>Node18</title>
<g id="a_node18"><a xlink:title=" ">
<polygon fill="white" stroke="#bfbfbf" points="631.5,-56.5 631.5,-75.5 784.5,-75.5 784.5,-56.5 631.5,-56.5"/>
<text text-anchor="middle" x="708" y="-63.5" font-family="Helvetica,sans-Serif" font-size="10.00">sml/graphics_wrapper/texture.h</text>
</a>
</g>
</g>
<!-- Node16&#45;&gt;Node18 -->
<g id="edge18" class="edge">
<title>Node16&#45;&gt;Node18</title>
<path fill="none" stroke="midnightblue" d="M915.02,-112.44C872.11,-103.02 803.05,-87.87 756.63,-77.68"/>
<polygon fill="midnightblue" stroke="midnightblue" points="757.31,-74.24 746.8,-75.52 755.81,-81.08 757.31,-74.24"/>
</g>
<!-- Node20 -->
<g id="node20" class="node">
<title>Node20</title>
<g id="a_node20"><a xlink:title=" ">
<polygon fill="white" stroke="#bfbfbf" points="190.5,-56.5 190.5,-75.5 239.5,-75.5 239.5,-56.5 190.5,-56.5"/>
<text text-anchor="middle" x="215" y="-63.5" font-family="Helvetica,sans-Serif" font-size="10.00">stdint.h</text>
</a>
</g>
</g>
<!-- Node19&#45;&gt;Node20 -->
<g id="edge20" class="edge">
<title>Node19&#45;&gt;Node20</title>
<path fill="none" stroke="midnightblue" d="M215,-112.08C215,-105.01 215,-94.86 215,-85.99"/>
<polygon fill="midnightblue" stroke="midnightblue" points="218.5,-85.75 215,-75.75 211.5,-85.75 218.5,-85.75"/>
</g>
<!-- Node21&#45;&gt;Node19 -->
<g id="edge24" class="edge">
<title>Node21&#45;&gt;Node19</title>
<path fill="none" stroke="midnightblue" d="M381.63,-168.44C347.74,-159.2 293.6,-144.44 256.28,-134.26"/>
<polygon fill="midnightblue" stroke="midnightblue" points="256.8,-130.77 246.23,-131.52 254.95,-137.52 256.8,-130.77"/>
</g>
<!-- Node22 -->
<g id="node22" class="node">
<title>Node22</title>
<g id="a_node22"><a xlink:title=" ">
<polygon fill="white" stroke="#bfbfbf" points="275.5,-112.5 275.5,-131.5 418.5,-131.5 418.5,-112.5 275.5,-112.5"/>
<text text-anchor="middle" x="347" y="-119.5" font-family="Helvetica,sans-Serif" font-size="10.00">sml/graphics_wrapper/color.h</text>
</a>
</g>
</g>
<!-- Node21&#45;&gt;Node22 -->
<g id="edge22" class="edge">
<title>Node21&#45;&gt;Node22</title>
<path fill="none" stroke="midnightblue" d="M402.4,-168.32C392.54,-160.26 377.65,-148.08 365.78,-138.37"/>
<polygon fill="midnightblue" stroke="midnightblue" points="367.75,-135.46 357.8,-131.83 363.32,-140.88 367.75,-135.46"/>
</g>
<!-- Node23 -->
<g id="node23" class="node">
<title>Node23</title>
<g id="a_node23"><a xlink:title=" ">
<polygon fill="white" stroke="#bfbfbf" points="398,-56.5 398,-75.5 506,-75.5 506,-56.5 398,-56.5"/>
<text text-anchor="middle" x="452" y="-63.5" font-family="Helvetica,sans-Serif" font-size="10.00">sml/math/rectangle.h</text>
</a>
</g>
</g>
<!-- Node21&#45;&gt;Node23 -->
<g id="edge23" class="edge">
<title>Node21&#45;&gt;Node23</title>
<path fill="none" stroke="midnightblue" d="M416.06,-168.37C422.38,-150.54 437,-109.3 445.52,-85.27"/>
<polygon fill="midnightblue" stroke="midnightblue" points="448.91,-86.19 448.95,-75.59 442.31,-83.85 448.91,-86.19"/>
</g>
<!-- Node24&#45;&gt;Node9 -->
<g id="edge26" class="edge">
<title>Node24&#45;&gt;Node9</title>
<path fill="none" stroke="midnightblue" d="M575.22,-168.3C585.8,-154.16 608.75,-126.35 635,-112 695.85,-78.74 721.6,-92.76 792.82,-76.09"/>
<polygon fill="midnightblue" stroke="midnightblue" points="793.82,-79.44 802.69,-73.65 792.15,-72.65 793.82,-79.44"/>
</g>
<!-- Node24&#45;&gt;Node23 -->
<g id="edge27" class="edge">
<title>Node24&#45;&gt;Node23</title>
<path fill="none" stroke="midnightblue" d="M559.82,-168.37C540.17,-149.89 493.79,-106.29 468.75,-82.74"/>
<polygon fill="midnightblue" stroke="midnightblue" points="470.82,-79.89 461.14,-75.59 466.03,-84.99 470.82,-79.89"/>
</g>
<!-- Node25 -->
<g id="node25" class="node">
<title>Node25</title>
<g id="a_node25"><a xlink:href="fill_8h.html" target="_top" xlink:title=" ">
<polygon fill="white" stroke="black" points="551.5,-112.5 551.5,-131.5 586.5,-131.5 586.5,-112.5 551.5,-112.5"/>
<text text-anchor="middle" x="569" y="-119.5" font-family="Helvetica,sans-Serif" font-size="10.00">fill.h</text>
</a>
</g>
</g>
<!-- Node24&#45;&gt;Node25 -->
<g id="edge28" class="edge">
<title>Node24&#45;&gt;Node25</title>
<path fill="none" stroke="midnightblue" d="M569,-168.08C569,-161.01 569,-150.86 569,-141.99"/>
<polygon fill="midnightblue" stroke="midnightblue" points="572.5,-141.75 569,-131.75 565.5,-141.75 572.5,-141.75"/>
</g>
<!-- Node27 -->
<g id="node27" class="node">
<title>Node27</title>
<g id="a_node27"><a xlink:href="image_8h.html" target="_top" xlink:title=" ">
<polygon fill="white" stroke="black" points="643.5,-112.5 643.5,-131.5 732.5,-131.5 732.5,-112.5 643.5,-112.5"/>
<text text-anchor="middle" x="688" y="-119.5" font-family="Helvetica,sans-Serif" font-size="10.00">../media/image.h</text>
</a>
</g>
</g>
<!-- Node24&#45;&gt;Node27 -->
<g id="edge33" class="edge">
<title>Node24&#45;&gt;Node27</title>
<path fill="none" stroke="midnightblue" d="M587.86,-168.44C607.27,-159.64 637.73,-145.81 659.96,-135.72"/>
<polygon fill="midnightblue" stroke="midnightblue" points="661.57,-138.84 669.23,-131.52 658.68,-132.46 661.57,-138.84"/>
</g>
<!-- Node25&#45;&gt;Node9 -->
<g id="edge29" class="edge">
<title>Node25&#45;&gt;Node9</title>
<path fill="none" stroke="midnightblue" d="M586.53,-115.76C591.21,-114.45 596.28,-113.1 601,-112 682.9,-92.88 707.36,-95.93 792.84,-76.08"/>
<polygon fill="midnightblue" stroke="midnightblue" points="793.79,-79.46 802.72,-73.75 792.18,-72.64 793.79,-79.46"/>
</g>
<!-- Node25&#45;&gt;Node18 -->
<g id="edge32" class="edge">
<title>Node25&#45;&gt;Node18</title>
<path fill="none" stroke="midnightblue" d="M586.6,-114.16C609.12,-105.42 648.5,-90.11 676.3,-79.32"/>
<polygon fill="midnightblue" stroke="midnightblue" points="677.91,-82.44 685.96,-75.56 675.37,-75.92 677.91,-82.44"/>
</g>
<!-- Node25&#45;&gt;Node23 -->
<g id="edge31" class="edge">
<title>Node25&#45;&gt;Node23</title>
<path fill="none" stroke="midnightblue" d="M551.48,-112.92C532.6,-104.2 502.28,-90.2 480.06,-79.95"/>
<polygon fill="midnightblue" stroke="midnightblue" points="481.35,-76.69 470.8,-75.68 478.41,-83.05 481.35,-76.69"/>
</g>
<!-- Node26 -->
<g id="node26" class="node">
<title>Node26</title>
<g id="a_node26"><a xlink:title=" ">
<polygon fill="white" stroke="#bfbfbf" points="524.5,-56.5 524.5,-75.5 613.5,-75.5 613.5,-56.5 524.5,-56.5"/>
<text text-anchor="middle" x="569" y="-63.5" font-family="Helvetica,sans-Serif" font-size="10.00">sml/math/vec2.h</text>
</a>
</g>
</g>
<!-- Node25&#45;&gt;Node26 -->
<g id="edge30" class="edge">
<title>Node25&#45;&gt;Node26</title>
<path fill="none" stroke="midnightblue" d="M569,-112.08C569,-105.01 569,-94.86 569,-85.99"/>
<polygon fill="midnightblue" stroke="midnightblue" points="572.5,-85.75 569,-75.75 565.5,-85.75 572.5,-85.75"/>
</g>
<!-- Node27&#45;&gt;Node18 -->
<g id="edge34" class="edge">
<title>Node27&#45;&gt;Node18</title>
<path fill="none" stroke="midnightblue" d="M691.3,-112.08C693.98,-104.85 697.85,-94.41 701.19,-85.4"/>
<polygon fill="midnightblue" stroke="midnightblue" points="704.57,-86.34 704.76,-75.75 698,-83.91 704.57,-86.34"/>
</g>
<!-- Node28&#45;&gt;Node19 -->
<g id="edge37" class="edge">
<title>Node28&#45;&gt;Node19</title>
<path fill="none" stroke="midnightblue" d="M193.88,-280.83C159.86,-272.67 113.78,-259.18 103,-244 72.41,-200.93 144.12,-157.08 186.54,-135.95"/>
<polygon fill="midnightblue" stroke="midnightblue" points="188.14,-139.07 195.61,-131.56 185.08,-132.77 188.14,-139.07"/>
</g>
<!-- Node29 -->
<g id="node29" class="node">
<title>Node29</title>
<g id="a_node29"><a xlink:title=" ">
<polygon fill="white" stroke="#bfbfbf" points="112,-224.5 112,-243.5 270,-243.5 270,-224.5 112,-224.5"/>
<text text-anchor="middle" x="191" y="-231.5" font-family="Helvetica,sans-Serif" font-size="10.00">sml/graphics_wrapper/renderer.h</text>
</a>
</g>
</g>
<!-- Node28&#45;&gt;Node29 -->
<g id="edge36" class="edge">
<title>Node28&#45;&gt;Node29</title>
<path fill="none" stroke="midnightblue" d="M225.23,-280.08C219.44,-272.46 210.94,-261.26 203.86,-251.94"/>
<polygon fill="midnightblue" stroke="midnightblue" points="206.48,-249.6 197.64,-243.75 200.9,-253.83 206.48,-249.6"/>
</g>
<!-- Node30&#45;&gt;Node11 -->
<g id="edge39" class="edge">
<title>Node30&#45;&gt;Node11</title>
<path fill="none" stroke="midnightblue" d="M653.07,-341.81C818.93,-331.92 1283,-298.58 1283,-235 1283,-235 1283,-235 1283,-177 1283,-137.61 1316.07,-101.73 1338,-82.26"/>
<polygon fill="midnightblue" stroke="midnightblue" points="1340.43,-84.79 1345.76,-75.64 1335.88,-79.47 1340.43,-84.79"/>
</g>
<!-- Node30&#45;&gt;Node16 -->
<g id="edge55" class="edge">
<title>Node30&#45;&gt;Node16</title>
<path fill="none" stroke="midnightblue" d="M653.11,-337.4C692.85,-330.82 746.08,-319.24 790,-300 830.42,-282.29 840.85,-275.26 872,-244 903.96,-211.93 931.2,-165.79 944.78,-140.77"/>
<polygon fill="midnightblue" stroke="midnightblue" points="947.98,-142.19 949.59,-131.72 941.8,-138.91 947.98,-142.19"/>
</g>
<!-- Node30&#45;&gt;Node19 -->
<g id="edge54" class="edge">
<title>Node30&#45;&gt;Node19</title>
<path fill="none" stroke="midnightblue" d="M536.72,-341.75C465.72,-336.76 351.03,-325.01 317,-300 286.57,-277.63 297.57,-256.88 279,-224 261.98,-193.87 239.98,-160.15 226.71,-140.29"/>
<polygon fill="midnightblue" stroke="midnightblue" points="229.44,-138.08 220.96,-131.73 223.63,-141.98 229.44,-138.08"/>
</g>
<!-- Node30&#45;&gt;Node21 -->
<g id="edge53" class="edge">
<title>Node30&#45;&gt;Node21</title>
<path fill="none" stroke="midnightblue" d="M550.08,-336.48C525.56,-329.94 496.01,-318.73 475,-300 458.45,-285.25 432.8,-226.99 420.32,-197.02"/>
<polygon fill="midnightblue" stroke="midnightblue" points="423.54,-195.63 416.49,-187.72 417.06,-198.3 423.54,-195.63"/>
</g>
<!-- Node30&#45;&gt;Node24 -->
<g id="edge52" class="edge">
<title>Node30&#45;&gt;Node24</title>
<path fill="none" stroke="midnightblue" d="M634.25,-336.46C657.19,-329.78 685.39,-318.45 705,-300 731.11,-275.44 753.71,-252.52 732,-224 719.75,-207.9 673.44,-196.1 633.3,-188.62"/>
<polygon fill="midnightblue" stroke="midnightblue" points="633.72,-185.14 623.26,-186.82 632.48,-192.03 633.72,-185.14"/>
</g>
<!-- Node30&#45;&gt;Node28 -->
<g id="edge56" class="edge">
<title>Node30&#45;&gt;Node28</title>
<path fill="none" stroke="midnightblue" d="M536.75,-337.06C474.21,-328.42 371.96,-313.97 284,-300 282.73,-299.8 281.44,-299.59 280.14,-299.38"/>
<polygon fill="midnightblue" stroke="midnightblue" points="280.47,-295.89 270.04,-297.71 279.33,-302.79 280.47,-295.89"/>
</g>
<!-- Node31 -->
<g id="node31" class="node">
<title>Node31</title>
<g id="a_node31"><a xlink:href="image__view_8h.html" target="_top" xlink:title=" ">
<polygon fill="white" stroke="black" points="779,-224.5 779,-243.5 863,-243.5 863,-224.5 779,-224.5"/>
<text text-anchor="middle" x="821" y="-231.5" font-family="Helvetica,sans-Serif" font-size="10.00">../image_view.h</text>
</a>
</g>
</g>
<!-- Node30&#45;&gt;Node31 -->
<g id="edge40" class="edge">
<title>Node30&#45;&gt;Node31</title>
<path fill="none" stroke="midnightblue" d="M653.16,-338.4C687.71,-332.42 731.23,-321.14 765,-300 784.26,-287.94 800.46,-267.17 810.4,-252.35"/>
<polygon fill="midnightblue" stroke="midnightblue" points="813.54,-253.93 816,-243.63 807.65,-250.15 813.54,-253.93"/>
</g>
<!-- Node32 -->
<g id="node32" class="node">
<title>Node32</title>
<g id="a_node32"><a xlink:href="text_8h.html" target="_top" xlink:title=" ">
<polygon fill="white" stroke="black" points="610.5,-280.5 610.5,-299.5 695.5,-299.5 695.5,-280.5 610.5,-280.5"/>
<text text-anchor="middle" x="653" y="-287.5" font-family="Helvetica,sans-Serif" font-size="10.00">../shapes/text.h</text>
</a>
</g>
</g>
<!-- Node30&#45;&gt;Node32 -->
<g id="edge43" class="edge">
<title>Node30&#45;&gt;Node32</title>
<path fill="none" stroke="midnightblue" d="M604.32,-336.32C612.89,-328.34 625.81,-316.31 636.19,-306.65"/>
<polygon fill="midnightblue" stroke="midnightblue" points="638.58,-309.21 643.51,-299.83 633.81,-304.09 638.58,-309.21"/>
</g>
<!-- Node35 -->
<g id="node35" class="node">
<title>Node35</title>
<g id="a_node35"><a xlink:href="rectangle_8h.html" target="_top" xlink:title=" ">
<polygon fill="white" stroke="black" points="484,-280.5 484,-299.5 592,-299.5 592,-280.5 484,-280.5"/>
<text text-anchor="middle" x="538" y="-287.5" font-family="Helvetica,sans-Serif" font-size="10.00">../shapes/rectangle.h</text>
</a>
</g>
</g>
<!-- Node30&#45;&gt;Node35 -->
<g id="edge49" class="edge">
<title>Node30&#45;&gt;Node35</title>
<path fill="none" stroke="midnightblue" d="M585.84,-336.32C577.5,-328.42 564.97,-316.55 554.82,-306.94"/>
<polygon fill="midnightblue" stroke="midnightblue" points="556.99,-304.17 547.32,-299.83 552.18,-309.25 556.99,-304.17"/>
</g>
<!-- Node31&#45;&gt;Node6 -->
<g id="edge41" class="edge">
<title>Node31&#45;&gt;Node6</title>
<path fill="none" stroke="midnightblue" d="M821,-224.08C821,-217.01 821,-206.86 821,-197.99"/>
<polygon fill="midnightblue" stroke="midnightblue" points="824.5,-197.75 821,-187.75 817.5,-197.75 824.5,-197.75"/>
</g>
<!-- Node31&#45;&gt;Node27 -->
<g id="edge42" class="edge">
<title>Node31&#45;&gt;Node27</title>
<path fill="none" stroke="midnightblue" d="M810.56,-224.37C788.03,-205.73 734.59,-161.53 706.3,-138.13"/>
<polygon fill="midnightblue" stroke="midnightblue" points="708.32,-135.27 698.39,-131.59 703.86,-140.66 708.32,-135.27"/>
</g>
<!-- Node33 -->
<g id="node33" class="node">
<title>Node33</title>
<g id="a_node33"><a xlink:title=" ">
<polygon fill="white" stroke="#bfbfbf" points="583,-224.5 583,-243.5 723,-243.5 723,-224.5 583,-224.5"/>
<text text-anchor="middle" x="653" y="-231.5" font-family="Helvetica,sans-Serif" font-size="10.00">sml/graphics_wrapper/text.h</text>
</a>
</g>
</g>
<!-- Node32&#45;&gt;Node33 -->
<g id="edge44" class="edge">
<title>Node32&#45;&gt;Node33</title>
<path fill="none" stroke="midnightblue" d="M653,-280.08C653,-273.01 653,-262.86 653,-253.99"/>
<polygon fill="midnightblue" stroke="midnightblue" points="656.5,-253.75 653,-243.75 649.5,-253.75 656.5,-253.75"/>
</g>
<!-- Node34 -->
<g id="node34" class="node">
<title>Node34</title>
<g id="a_node34"><a xlink:href="shape_8h.html" target="_top" xlink:title=" ">
<polygon fill="white" stroke="black" points="513.5,-224.5 513.5,-243.5 564.5,-243.5 564.5,-224.5 513.5,-224.5"/>
<text text-anchor="middle" x="539" y="-231.5" font-family="Helvetica,sans-Serif" font-size="10.00">shape.h</text>
</a>
</g>
</g>
<!-- Node32&#45;&gt;Node34 -->
<g id="edge45" class="edge">
<title>Node32&#45;&gt;Node34</title>
<path fill="none" stroke="midnightblue" d="M634.94,-280.44C616.43,-271.68 587.42,-257.94 566.14,-247.86"/>
<polygon fill="midnightblue" stroke="midnightblue" points="567.51,-244.63 556.98,-243.52 564.52,-250.96 567.51,-244.63"/>
</g>
<!-- Node34&#45;&gt;Node6 -->
<g id="edge46" class="edge">
<title>Node34&#45;&gt;Node6</title>
<path fill="none" stroke="midnightblue" d="M564.56,-226.2C567.73,-225.43 570.94,-224.67 574,-224 643.36,-208.78 724.47,-194.71 774.29,-186.49"/>
<polygon fill="midnightblue" stroke="midnightblue" points="775.13,-189.9 784.43,-184.82 773.99,-182.99 775.13,-189.9"/>
</g>
<!-- Node34&#45;&gt;Node21 -->
<g id="edge48" class="edge">
<title>Node34&#45;&gt;Node21</title>
<path fill="none" stroke="midnightblue" d="M519.03,-224.44C498.39,-215.6 465.94,-201.69 442.37,-191.59"/>
<polygon fill="midnightblue" stroke="midnightblue" points="443.44,-188.24 432.87,-187.52 440.68,-194.67 443.44,-188.24"/>
</g>
<!-- Node34&#45;&gt;Node24 -->
<g id="edge47" class="edge">
<title>Node34&#45;&gt;Node24</title>
<path fill="none" stroke="midnightblue" d="M543.95,-224.08C548.1,-216.61 554.15,-205.72 559.27,-196.52"/>
<polygon fill="midnightblue" stroke="midnightblue" points="562.34,-198.19 564.14,-187.75 556.22,-194.79 562.34,-198.19"/>
</g>
<!-- Node35&#45;&gt;Node23 -->
<g id="edge50" class="edge">
<title>Node35&#45;&gt;Node23</title>
<path fill="none" stroke="midnightblue" d="M529.93,-280.34C522.28,-271.72 510.96,-257.82 504,-244 476.69,-189.75 461.31,-118.74 455.17,-85.58"/>
<polygon fill="midnightblue" stroke="midnightblue" points="458.57,-84.75 453.37,-75.51 451.68,-85.97 458.57,-84.75"/>
</g>
<!-- Node35&#45;&gt;Node34 -->
<g id="edge51" class="edge">
<title>Node35&#45;&gt;Node34</title>
<path fill="none" stroke="midnightblue" d="M538.17,-280.08C538.3,-273.01 538.48,-262.86 538.65,-253.99"/>
<polygon fill="midnightblue" stroke="midnightblue" points="542.15,-253.81 538.84,-243.75 535.15,-253.68 542.15,-253.81"/>
</g>
<!-- Node37 -->
<g id="node37" class="node">
<title>Node37</title>
<g id="a_node37"><a xlink:href="box__container_8h.html" target="_top" xlink:title=" ">
<polygon fill="white" stroke="black" points="189.5,-336.5 189.5,-355.5 274.5,-355.5 274.5,-336.5 189.5,-336.5"/>
<text text-anchor="middle" x="232" y="-343.5" font-family="Helvetica,sans-Serif" font-size="10.00">box_container.h</text>
</a>
</g>
</g>
<!-- Node36&#45;&gt;Node37 -->
<g id="edge58" class="edge">
<title>Node36&#45;&gt;Node37</title>
<path fill="none" stroke="midnightblue" d="M353.18,-392.44C329.17,-383.44 291.17,-369.19 264.13,-359.05"/>
<polygon fill="midnightblue" stroke="midnightblue" points="265.3,-355.75 254.71,-355.52 262.84,-362.3 265.3,-355.75"/>
</g>
<!-- Node38 -->
<g id="node38" class="node">
<title>Node38</title>
<g id="a_node38"><a xlink:title=" ">
<polygon fill="white" stroke="#bfbfbf" points="92.5,-280.5 92.5,-299.5 175.5,-299.5 175.5,-280.5 92.5,-280.5"/>
<text text-anchor="middle" x="134" y="-287.5" font-family="Helvetica,sans-Serif" font-size="10.00">unordered_map</text>
</a>
</g>
</g>
<!-- Node37&#45;&gt;Node38 -->
<g id="edge59" class="edge">
<title>Node37&#45;&gt;Node38</title>
<path fill="none" stroke="midnightblue" d="M216.25,-336.32C200.68,-327.74 176.62,-314.49 158.54,-304.52"/>
<polygon fill="midnightblue" stroke="midnightblue" points="160.15,-301.42 149.71,-299.65 156.78,-307.55 160.15,-301.42"/>
</g>
<!-- Node39 -->
<g id="node39" class="node">
<title>Node39</title>
<g id="a_node39"><a xlink:href="container_8h.html" target="_top" xlink:title=" ">
<polygon fill="white" stroke="black" points="326,-280.5 326,-299.5 390,-299.5 390,-280.5 326,-280.5"/>
<text text-anchor="middle" x="358" y="-287.5" font-family="Helvetica,sans-Serif" font-size="10.00">container.h</text>
</a>
</g>
</g>
<!-- Node37&#45;&gt;Node39 -->
<g id="edge60" class="edge">
<title>Node37&#45;&gt;Node39</title>
<path fill="none" stroke="midnightblue" d="M251.97,-336.44C272.61,-327.6 305.06,-313.69 328.63,-303.59"/>
<polygon fill="midnightblue" stroke="midnightblue" points="330.32,-306.67 338.13,-299.52 327.56,-300.24 330.32,-306.67"/>
</g>
<!-- Node40 -->
<g id="node40" class="node">
<title>Node40</title>
<g id="a_node40"><a xlink:title=" ">
<polygon fill="white" stroke="#bfbfbf" points="0,-280.5 0,-299.5 74,-299.5 74,-280.5 0,-280.5"/>
<text text-anchor="middle" x="37" y="-287.5" font-family="Helvetica,sans-Serif" font-size="10.00">sys/syscall.h</text>
</a>
</g>
</g>
<!-- Node37&#45;&gt;Node40 -->
<g id="edge62" class="edge">
<title>Node37&#45;&gt;Node40</title>
<path fill="none" stroke="midnightblue" d="M201.1,-336.44C167.73,-327.2 114.41,-312.44 77.65,-302.26"/>
<polygon fill="midnightblue" stroke="midnightblue" points="78.33,-298.81 67.75,-299.52 76.46,-305.56 78.33,-298.81"/>
</g>
<!-- Node39&#45;&gt;Node5 -->
<g id="edge61" class="edge">
<title>Node39&#45;&gt;Node5</title>
<path fill="none" stroke="midnightblue" d="M362.95,-280.08C367.1,-272.61 373.15,-261.72 378.27,-252.52"/>
<polygon fill="midnightblue" stroke="midnightblue" points="381.34,-254.19 383.14,-243.75 375.22,-250.79 381.34,-254.19"/>
</g>
<!-- Node41&#45;&gt;Node2 -->
<g id="edge65" class="edge">
<title>Node41&#45;&gt;Node2</title>
<path fill="none" stroke="midnightblue" d="M592.07,-504.32C581.83,-496.18 566.28,-483.84 554,-474.09"/>
<polygon fill="midnightblue" stroke="midnightblue" points="556.13,-471.31 546.12,-467.83 551.78,-476.79 556.13,-471.31"/>
</g>
<!-- Node41&#45;&gt;Node8 -->
<g id="edge64" class="edge">
<title>Node41&#45;&gt;Node8</title>
<path fill="none" stroke="midnightblue" d="M643.08,-511.18C749.12,-505.3 1029,-482.25 1029,-403 1029,-403 1029,-403 1029,-233 1029,-194.23 1060.33,-158.1 1081.07,-138.43"/>
<polygon fill="midnightblue" stroke="midnightblue" points="1083.64,-140.83 1088.67,-131.5 1078.92,-135.65 1083.64,-140.83"/>
</g>
</g>
</svg>
        <g id="navigator" transform="translate(0 0)" fill="#404254">
                <rect fill="#f2f5e9" fill-opacity="0.5" stroke="#606060" stroke-width=".5" x="0" y="0" width="60" height="60"/>
                <use id="zoomplus" xlink:href="#zoomPlus" x="17" y="9" onmousedown="handleZoom(evt,'in')"/>
                <use id="zoomminus" xlink:href="#zoomMin" x="42" y="9" onmousedown="handleZoom(evt,'out')"/>
                <use id="reset" xlink:href="#resetDef" x="30" y="36" onmousedown="handleReset()"/>
                <g id="arrowUp" xlink:href="#dirArrow" transform="translate(30 24)" onmousedown="handlePan(0,-1)">
                  <use xlink:href="#rim" fill="#404040">
                        <set attributeName="fill" to="#808080" begin="arrowUp.mouseover" end="arrowUp.mouseout"/>
                  </use>
                  <path fill="none" stroke="white" stroke-width="1.5" d="M0,-3.0v7 M-2.5,-0.5L0,-3.0L2.5,-0.5"/>
                </g>
                <g id="arrowRight" xlink:href="#dirArrow" transform="rotate(90) translate(36 -43)" onmousedown="handlePan(1,0)">
                  <use xlink:href="#rim" fill="#404040">
                        <set attributeName="fill" to="#808080" begin="arrowRight.mouseover" end="arrowRight.mouseout"/>
                  </use>
                  <path fill="none" stroke="white" stroke-width="1.5" d="M0,-3.0v7 M-2.5,-0.5L0,-3.0L2.5,-0.5"/>
                </g>
                <g id="arrowDown" xlink:href="#dirArrow" transform="rotate(180) translate(-30 -48)" onmousedown="handlePan(0,1)">
                  <use xlink:href="#rim" fill="#404040">
                        <set attributeName="fill" to="#808080" begin="arrowDown.mouseover" end="arrowDown.mouseout"/>
                  </use>
                  <path fill="none" stroke="white" stroke-width="1.5" d="M0,-3.0v7 M-2.5,-0.5L0,-3.0L2.5,-0.5"/>
                </g>
                <g id="arrowLeft" xlink:href="#dirArrow" transform="rotate(270) translate(-36 17)" onmousedown="handlePan(-1,0)">
                  <use xlink:href="#rim" fill="#404040">
                        <set attributeName="fill" to="#808080" begin="arrowLeft.mouseover" end="arrowLeft.mouseout"/>
                  </use>
                  <path fill="none" stroke="white" stroke-width="1.5" d="M0,-3.0v7 M-2.5,-0.5L0,-3.0L2.5,-0.5"/>
                </g>
        </g>
        <svg viewBox="0 0 15 15" width="100%" height="30px" preserveAspectRatio="xMaxYMin meet">
         <g id="arrow_out" transform="scale(0.3 0.3)">
          <a xlink:href="menu__bar_8cpp__incl_org.svg" target="_base">
           <rect id="button" ry="5" rx="5" y="6" x="6" height="38" width="38"
                fill="#f2f5e9" fill-opacity="0.5" stroke="#606060" stroke-width="1.0"/>
           <path id="arrow"
             d="M 11.500037,31.436501 C 11.940474,20.09759 22.043105,11.32322 32.158766,21.979434 L 37.068811,17.246167 C 37.068811,17.246167 37.088388,32 37.088388,32 L 22.160133,31.978069 C 22.160133,31.978069 26.997745,27.140456 26.997745,27.140456 C 18.528582,18.264221 13.291696,25.230495 11.500037,31.436501 z"
             style="fill:#404040;"/>
          </a>
         </g>
        </svg>
</svg>
