<?xml version="1.0" encoding="UTF-8" standalone="no"?>
<!DOCTYPE svg PUBLIC "-//W3C//DTD SVG 1.1//EN"
 "http://www.w3.org/Graphics/SVG/1.1/DTD/svg11.dtd">
<!-- Generated by graphviz version 2.50.0 (20211204.2007)
 -->
<!-- Title: menu_bar.h Pages: 1 -->
<!--zoomable 476 -->
<svg id="main" version="1.1" xmlns="http://www.w3.org/2000/svg" xmlns:xlink="http://www.w3.org/1999/xlink" xml:space="preserve" onload="init(evt)">
<style type="text/css"><![CDATA[
.edge:hover path { stroke: red; }
.edge:hover polygon { stroke: red; fill: red; }
]]></style>
<script type="text/javascript"><![CDATA[
var edges = document.getElementsByTagName('g');
if (edges && edges.length) {
  for (var i=0;i<edges.length;i++) {
    if (edges[i].id.substr(0,4)=='edge') {
      edges[i].setAttribute('class','edge');
    }
  }
}
]]></script>
        <defs>
                <circle id="rim" cx="0" cy="0" r="7"/>
                <circle id="rim2" cx="0" cy="0" r="3.5"/>
                <g id="zoomPlus">
                        <use xlink:href="#rim" fill="#404040">
                                <set attributeName="fill" to="#808080" begin="zoomplus.mouseover" end="zoomplus.mouseout"/>
                        </use>
                        <path d="M-4,0h8M0,-4v8" fill="none" stroke="white" stroke-width="1.5" pointer-events="none"/>
                </g>
                <g id="zoomMin">
                        <use xlink:href="#rim" fill="#404040">
                                <set attributeName="fill" to="#808080" begin="zoomminus.mouseover" end="zoomminus.mouseout"/>
                        </use>
                        <path d="M-4,0h8" fill="none" stroke="white" stroke-width="1.5" pointer-events="none"/>
                </g>
                <g id="dirArrow">
                        <path fill="none" stroke="white" stroke-width="1.5" d="M0,-3.0v7 M-2.5,-0.5L0,-3.0L2.5,-0.5"/>
                </g>
               <g id="resetDef">
                       <use xlink:href="#rim2" fill="#404040">
                               <set attributeName="fill" to="#808080" begin="reset.mouseover" end="reset.mouseout"/>
                       </use>
               </g>
        </defs>

<script type="text/javascript">
var viewWidth = 1155;
var viewHeight = 476;
var sectionId = 'dynsection-0';
</script>
<script xlink:href="svgpan.js"/>
<svg id="graph" class="graph">
<g id="viewport">
<title>menu_bar.h</title>
<polygon fill="white" stroke="transparent" points="-4,4 -4,-472 1150.5,-472 1150.5,4 -4,4"/>
<!-- Node1 -->
<g id="node1" class="node">
<title>Node1</title>
<g id="a_node1"><a xlink:title=" ">
<polygon fill="#bfbfbf" stroke="black" points="772,-448.5 772,-467.5 839,-467.5 839,-448.5 772,-448.5"/>
<text text-anchor="middle" x="805.5" y="-455.5" font-family="Helvetica,sans-Serif" font-size="10.00">menu_bar.h</text>
</a>
</g>
</g>
<!-- Node2 -->
<g id="node2" class="node">
<title>Node2</title>
<g id="a_node2"><a xlink:href="button_8h.html" target="_top" xlink:title=" ">
<polygon fill="white" stroke="black" points="701.5,-392.5 701.5,-411.5 799.5,-411.5 799.5,-392.5 701.5,-392.5"/>
<text text-anchor="middle" x="750.5" y="-399.5" font-family="Helvetica,sans-Serif" font-size="10.00">../controls/button.h</text>
</a>
</g>
</g>
<!-- Node1&#45;&gt;Node2 -->
<g id="edge1" class="edge">
<title>Node1&#45;&gt;Node2</title>
<path fill="none" stroke="midnightblue" d="M796.42,-448.08C788.33,-440.14 776.3,-428.34 766.59,-418.8"/>
<polygon fill="midnightblue" stroke="midnightblue" points="769,-416.26 759.41,-411.75 764.1,-421.25 769,-416.26"/>
</g>
<!-- Node35 -->
<g id="node35" class="node">
<title>Node35</title>
<g id="a_node35"><a xlink:href="context__menu_8h.html" target="_top" xlink:title=" ">
<polygon fill="white" stroke="black" points="860.5,-392.5 860.5,-411.5 946.5,-411.5 946.5,-392.5 860.5,-392.5"/>
<text text-anchor="middle" x="903.5" y="-399.5" font-family="Helvetica,sans-Serif" font-size="10.00">context_menu.h</text>
</a>
</g>
</g>
<!-- Node1&#45;&gt;Node35 -->
<g id="edge56" class="edge">
<title>Node1&#45;&gt;Node35</title>
<path fill="none" stroke="midnightblue" d="M821.25,-448.32C836.82,-439.74 860.88,-426.49 878.96,-416.52"/>
<polygon fill="midnightblue" stroke="midnightblue" points="880.72,-419.55 887.79,-411.65 877.35,-413.42 880.72,-419.55"/>
</g>
<!-- Node3 -->
<g id="node3" class="node">
<title>Node3</title>
<g id="a_node3"><a xlink:href="control_8h.html" target="_top" xlink:title=" ">
<polygon fill="white" stroke="black" points="723.5,-336.5 723.5,-355.5 777.5,-355.5 777.5,-336.5 723.5,-336.5"/>
<text text-anchor="middle" x="750.5" y="-343.5" font-family="Helvetica,sans-Serif" font-size="10.00">control.h</text>
</a>
</g>
</g>
<!-- Node2&#45;&gt;Node3 -->
<g id="edge2" class="edge">
<title>Node2&#45;&gt;Node3</title>
<path fill="none" stroke="midnightblue" d="M750.5,-392.08C750.5,-385.01 750.5,-374.86 750.5,-365.99"/>
<polygon fill="midnightblue" stroke="midnightblue" points="754,-365.75 750.5,-355.75 747,-365.75 754,-365.75"/>
</g>
<!-- Node29 -->
<g id="node29" class="node">
<title>Node29</title>
<g id="a_node29"><a xlink:href="default__skins_8h.html" target="_top" xlink:title=" ">
<polygon fill="white" stroke="black" points="554.5,-336.5 554.5,-355.5 670.5,-355.5 670.5,-336.5 554.5,-336.5"/>
<text text-anchor="middle" x="612.5" y="-343.5" font-family="Helvetica,sans-Serif" font-size="10.00">../style/default_skins.h</text>
</a>
</g>
</g>
<!-- Node2&#45;&gt;Node29 -->
<g id="edge37" class="edge">
<title>Node2&#45;&gt;Node29</title>
<path fill="none" stroke="midnightblue" d="M728.63,-392.44C705.72,-383.48 669.52,-369.31 643.63,-359.18"/>
<polygon fill="midnightblue" stroke="midnightblue" points="644.85,-355.9 634.26,-355.52 642.3,-362.42 644.85,-355.9"/>
</g>
<!-- Node4 -->
<g id="node4" class="node">
<title>Node4</title>
<g id="a_node4"><a xlink:href="parent_8h.html" target="_top" xlink:title=" ">
<polygon fill="white" stroke="black" points="719,-224.5 719,-243.5 780,-243.5 780,-224.5 719,-224.5"/>
<text text-anchor="middle" x="749.5" y="-231.5" font-family="Helvetica,sans-Serif" font-size="10.00">../parent.h</text>
</a>
</g>
</g>
<!-- Node3&#45;&gt;Node4 -->
<g id="edge3" class="edge">
<title>Node3&#45;&gt;Node4</title>
<path fill="none" stroke="midnightblue" d="M749.75,-336.38C749.01,-327.33 747.92,-312.68 747.5,-300 746.98,-284.47 747.6,-266.84 748.28,-253.87"/>
<polygon fill="midnightblue" stroke="midnightblue" points="751.78,-254.02 748.87,-243.83 744.79,-253.61 751.78,-254.02"/>
</g>
<!-- Node27 -->
<g id="node27" class="node">
<title>Node27</title>
<g id="a_node27"><a xlink:href="skin_8h.html" target="_top" xlink:title=" ">
<polygon fill="white" stroke="black" points="876.5,-280.5 876.5,-299.5 952.5,-299.5 952.5,-280.5 876.5,-280.5"/>
<text text-anchor="middle" x="914.5" y="-287.5" font-family="Helvetica,sans-Serif" font-size="10.00">../style/skin.h</text>
</a>
</g>
</g>
<!-- Node3&#45;&gt;Node27 -->
<g id="edge34" class="edge">
<title>Node3&#45;&gt;Node27</title>
<path fill="none" stroke="midnightblue" d="M776.49,-336.44C804.2,-327.32 848.25,-312.81 879.12,-302.65"/>
<polygon fill="midnightblue" stroke="midnightblue" points="880.23,-305.97 888.64,-299.52 878.04,-299.32 880.23,-305.97"/>
</g>
<!-- Node5 -->
<g id="node5" class="node">
<title>Node5</title>
<g id="a_node5"><a xlink:href="component_8h.html" target="_top" xlink:title=" ">
<polygon fill="white" stroke="black" points="505,-168.5 505,-187.5 578,-187.5 578,-168.5 505,-168.5"/>
<text text-anchor="middle" x="541.5" y="-175.5" font-family="Helvetica,sans-Serif" font-size="10.00">component.h</text>
</a>
</g>
</g>
<!-- Node4&#45;&gt;Node5 -->
<g id="edge4" class="edge">
<title>Node4&#45;&gt;Node5</title>
<path fill="none" stroke="midnightblue" d="M718.81,-225.03C683.18,-215.78 624.2,-200.47 584.13,-190.07"/>
<polygon fill="midnightblue" stroke="midnightblue" points="584.94,-186.66 574.38,-187.54 583.18,-193.44 584.94,-186.66"/>
</g>
<!-- Node18 -->
<g id="node18" class="node">
<title>Node18</title>
<g id="a_node18"><a xlink:href="insets_8h.html" target="_top" xlink:title=" ">
<polygon fill="white" stroke="black" points="1061.5,-112.5 1061.5,-131.5 1145.5,-131.5 1145.5,-112.5 1061.5,-112.5"/>
<text text-anchor="middle" x="1103.5" y="-119.5" font-family="Helvetica,sans-Serif" font-size="10.00">../paint/insets.h</text>
</a>
</g>
</g>
<!-- Node4&#45;&gt;Node18 -->
<g id="edge18" class="edge">
<title>Node4&#45;&gt;Node18</title>
<path fill="none" stroke="midnightblue" d="M757.98,-224.16C772.29,-209.82 802.79,-181.72 834.5,-168 921.73,-130.27 953.64,-147.34 1051.48,-132.09"/>
<polygon fill="midnightblue" stroke="midnightblue" points="1052.18,-135.52 1061.48,-130.45 1051.05,-128.61 1052.18,-135.52"/>
</g>
<!-- Node20 -->
<g id="node20" class="node">
<title>Node20</title>
<g id="a_node20"><a xlink:href="border_8h.html" target="_top" xlink:title=" ">
<polygon fill="white" stroke="black" points="689.5,-168.5 689.5,-187.5 773.5,-187.5 773.5,-168.5 689.5,-168.5"/>
<text text-anchor="middle" x="731.5" y="-175.5" font-family="Helvetica,sans-Serif" font-size="10.00">../paint/border.h</text>
</a>
</g>
</g>
<!-- Node4&#45;&gt;Node20 -->
<g id="edge20" class="edge">
<title>Node4&#45;&gt;Node20</title>
<path fill="none" stroke="midnightblue" d="M746.53,-224.08C744.12,-216.85 740.64,-206.41 737.63,-197.4"/>
<polygon fill="midnightblue" stroke="midnightblue" points="740.9,-196.13 734.42,-187.75 734.26,-198.34 740.9,-196.13"/>
</g>
<!-- Node23 -->
<g id="node23" class="node">
<title>Node23</title>
<g id="a_node23"><a xlink:href="background_8h.html" target="_top" xlink:title=" ">
<polygon fill="white" stroke="black" points="364.5,-168.5 364.5,-187.5 472.5,-187.5 472.5,-168.5 364.5,-168.5"/>
<text text-anchor="middle" x="418.5" y="-175.5" font-family="Helvetica,sans-Serif" font-size="10.00">../paint/background.h</text>
</a>
</g>
</g>
<!-- Node4&#45;&gt;Node23 -->
<g id="edge24" class="edge">
<title>Node4&#45;&gt;Node23</title>
<path fill="none" stroke="midnightblue" d="M718.95,-228.02C665.03,-219.22 551.97,-200.77 480.95,-189.19"/>
<polygon fill="midnightblue" stroke="midnightblue" points="481.22,-185.69 470.79,-187.53 480.09,-192.59 481.22,-185.69"/>
</g>
<!-- Node6 -->
<g id="node6" class="node">
<title>Node6</title>
<g id="a_node6"><a xlink:title=" ">
<polygon fill="white" stroke="#bfbfbf" points="484.5,-112.5 484.5,-131.5 624.5,-131.5 624.5,-112.5 484.5,-112.5"/>
<text text-anchor="middle" x="554.5" y="-119.5" font-family="Helvetica,sans-Serif" font-size="10.00">sml/sml_graphics_wrapper.h</text>
</a>
</g>
</g>
<!-- Node5&#45;&gt;Node6 -->
<g id="edge5" class="edge">
<title>Node5&#45;&gt;Node6</title>
<path fill="none" stroke="midnightblue" d="M543.65,-168.08C545.37,-160.93 547.85,-150.64 550,-141.69"/>
<polygon fill="midnightblue" stroke="midnightblue" points="553.46,-142.29 552.39,-131.75 546.65,-140.65 553.46,-142.29"/>
</g>
<!-- Node7 -->
<g id="node7" class="node">
<title>Node7</title>
<g id="a_node7"><a xlink:href="gui__event__dispatching_8h.html" target="_top" xlink:title=" ">
<polygon fill="white" stroke="black" points="719,-112.5 719,-131.5 882,-131.5 882,-112.5 719,-112.5"/>
<text text-anchor="middle" x="800.5" y="-119.5" font-family="Helvetica,sans-Serif" font-size="10.00">../events/gui_event_dispatching.h</text>
</a>
</g>
</g>
<!-- Node5&#45;&gt;Node7 -->
<g id="edge6" class="edge">
<title>Node5&#45;&gt;Node7</title>
<path fill="none" stroke="midnightblue" d="M578.06,-169.38C622.8,-160.05 698.84,-144.2 749.36,-133.66"/>
<polygon fill="midnightblue" stroke="midnightblue" points="750.35,-137.03 759.43,-131.56 748.92,-130.18 750.35,-137.03"/>
</g>
<!-- Node15 -->
<g id="node15" class="node">
<title>Node15</title>
<g id="a_node15"><a xlink:href="shadow_8h.html" target="_top" xlink:title=" ">
<polygon fill="white" stroke="black" points="100.5,-112.5 100.5,-131.5 190.5,-131.5 190.5,-112.5 100.5,-112.5"/>
<text text-anchor="middle" x="145.5" y="-119.5" font-family="Helvetica,sans-Serif" font-size="10.00">../paint/shadow.h</text>
</a>
</g>
</g>
<!-- Node5&#45;&gt;Node15 -->
<g id="edge15" class="edge">
<title>Node5&#45;&gt;Node15</title>
<path fill="none" stroke="midnightblue" d="M504.71,-171.35C497.04,-170.21 489.01,-169.04 481.5,-168 359.53,-151.07 326.18,-150.41 200.57,-132.11"/>
<polygon fill="midnightblue" stroke="midnightblue" points="200.96,-128.63 190.56,-130.64 199.95,-135.56 200.96,-128.63"/>
</g>
<!-- Node8 -->
<g id="node8" class="node">
<title>Node8</title>
<g id="a_node8"><a xlink:title=" ">
<polygon fill="white" stroke="#bfbfbf" points="505.5,-56.5 505.5,-75.5 549.5,-75.5 549.5,-56.5 505.5,-56.5"/>
<text text-anchor="middle" x="527.5" y="-63.5" font-family="Helvetica,sans-Serif" font-size="10.00">vector</text>
</a>
</g>
</g>
<!-- Node7&#45;&gt;Node8 -->
<g id="edge7" class="edge">
<title>Node7&#45;&gt;Node8</title>
<path fill="none" stroke="midnightblue" d="M757.21,-112.49C711.34,-103.46 636.81,-88.78 572.5,-76 568.48,-75.2 564.26,-74.36 560.09,-73.53"/>
<polygon fill="midnightblue" stroke="midnightblue" points="560.42,-70.03 549.93,-71.5 559.05,-76.89 560.42,-70.03"/>
</g>
<!-- Node9 -->
<g id="node9" class="node">
<title>Node9</title>
<g id="a_node9"><a xlink:title=" ">
<polygon fill="white" stroke="#bfbfbf" points="865,-56.5 865,-75.5 1020,-75.5 1020,-56.5 865,-56.5"/>
<text text-anchor="middle" x="942.5" y="-63.5" font-family="Helvetica,sans-Serif" font-size="10.00">sml/events/event_dispatching.h</text>
</a>
</g>
</g>
<!-- Node7&#45;&gt;Node9 -->
<g id="edge8" class="edge">
<title>Node7&#45;&gt;Node9</title>
<path fill="none" stroke="midnightblue" d="M823,-112.44C846.58,-103.48 883.82,-89.31 910.46,-79.18"/>
<polygon fill="midnightblue" stroke="midnightblue" points="912,-82.34 920.1,-75.52 909.51,-75.8 912,-82.34"/>
</g>
<!-- Node10 -->
<g id="node10" class="node">
<title>Node10</title>
<g id="a_node10"><a xlink:title=" ">
<polygon fill="white" stroke="#bfbfbf" points="582,-56.5 582,-75.5 723,-75.5 723,-56.5 582,-56.5"/>
<text text-anchor="middle" x="652.5" y="-63.5" font-family="Helvetica,sans-Serif" font-size="10.00">sml/events/listener_notifier.h</text>
</a>
</g>
</g>
<!-- Node7&#45;&gt;Node10 -->
<g id="edge9" class="edge">
<title>Node7&#45;&gt;Node10</title>
<path fill="none" stroke="midnightblue" d="M777.05,-112.44C752.37,-103.44 713.31,-89.19 685.52,-79.05"/>
<polygon fill="midnightblue" stroke="midnightblue" points="686.44,-75.66 675.84,-75.52 684.04,-82.23 686.44,-75.66"/>
</g>
<!-- Node11 -->
<g id="node11" class="node">
<title>Node11</title>
<g id="a_node11"><a xlink:title=" ">
<polygon fill="white" stroke="#bfbfbf" points="647,-0.5 647,-19.5 790,-19.5 790,-0.5 647,-0.5"/>
<text text-anchor="middle" x="718.5" y="-7.5" font-family="Helvetica,sans-Serif" font-size="10.00">sml/events/system_events.h</text>
</a>
</g>
</g>
<!-- Node7&#45;&gt;Node11 -->
<g id="edge10" class="edge">
<title>Node7&#45;&gt;Node11</title>
<path fill="none" stroke="midnightblue" d="M794.07,-112.37C780.47,-94.14 748.64,-51.43 730.93,-27.68"/>
<polygon fill="midnightblue" stroke="midnightblue" points="733.69,-25.52 724.9,-19.59 728.08,-29.7 733.69,-25.52"/>
</g>
<!-- Node12 -->
<g id="node12" class="node">
<title>Node12</title>
<g id="a_node12"><a xlink:href="gui__event_8h.html" target="_top" xlink:title=" ">
<polygon fill="white" stroke="black" points="780,-56.5 780,-75.5 847,-75.5 847,-56.5 780,-56.5"/>
<text text-anchor="middle" x="813.5" y="-63.5" font-family="Helvetica,sans-Serif" font-size="10.00">gui_event.h</text>
</a>
</g>
</g>
<!-- Node7&#45;&gt;Node12 -->
<g id="edge11" class="edge">
<title>Node7&#45;&gt;Node12</title>
<path fill="none" stroke="midnightblue" d="M802.65,-112.08C804.37,-104.93 806.85,-94.64 809,-85.69"/>
<polygon fill="midnightblue" stroke="midnightblue" points="812.46,-86.29 811.39,-75.75 805.65,-84.65 812.46,-86.29"/>
</g>
<!-- Node12&#45;&gt;Node11 -->
<g id="edge13" class="edge">
<title>Node12&#45;&gt;Node11</title>
<path fill="none" stroke="midnightblue" d="M798.24,-56.32C783.28,-47.82 760.25,-34.73 742.77,-24.8"/>
<polygon fill="midnightblue" stroke="midnightblue" points="744.15,-21.55 733.73,-19.65 740.69,-27.64 744.15,-21.55"/>
</g>
<!-- Node13 -->
<g id="node13" class="node">
<title>Node13</title>
<g id="a_node13"><a xlink:title=" ">
<polygon fill="white" stroke="#bfbfbf" points="903.5,-0.5 903.5,-19.5 1003.5,-19.5 1003.5,-0.5 903.5,-0.5"/>
<text text-anchor="middle" x="953.5" y="-7.5" font-family="Helvetica,sans-Serif" font-size="10.00">sml/events/event.h</text>
</a>
</g>
</g>
<!-- Node12&#45;&gt;Node13 -->
<g id="edge12" class="edge">
<title>Node12&#45;&gt;Node13</title>
<path fill="none" stroke="midnightblue" d="M835.68,-56.44C858.93,-47.48 895.65,-33.31 921.92,-23.18"/>
<polygon fill="midnightblue" stroke="midnightblue" points="923.35,-26.38 931.42,-19.52 920.83,-19.85 923.35,-26.38"/>
</g>
<!-- Node14 -->
<g id="node14" class="node">
<title>Node14</title>
<g id="a_node14"><a xlink:title=" ">
<polygon fill="white" stroke="#bfbfbf" points="808,-0.5 808,-19.5 885,-19.5 885,-0.5 808,-0.5"/>
<text text-anchor="middle" x="846.5" y="-7.5" font-family="Helvetica,sans-Serif" font-size="10.00">sml/sml_log.h</text>
</a>
</g>
</g>
<!-- Node12&#45;&gt;Node14 -->
<g id="edge14" class="edge">
<title>Node12&#45;&gt;Node14</title>
<path fill="none" stroke="midnightblue" d="M818.95,-56.08C823.51,-48.61 830.17,-37.72 835.79,-28.52"/>
<polygon fill="midnightblue" stroke="midnightblue" points="838.92,-30.11 841.15,-19.75 832.95,-26.46 838.92,-30.11"/>
</g>
<!-- Node16 -->
<g id="node16" class="node">
<title>Node16</title>
<g id="a_node16"><a xlink:title=" ">
<polygon fill="white" stroke="#bfbfbf" points="0,-56.5 0,-75.5 83,-75.5 83,-56.5 0,-56.5"/>
<text text-anchor="middle" x="41.5" y="-63.5" font-family="Helvetica,sans-Serif" font-size="10.00">sml/math/blur.h</text>
</a>
</g>
</g>
<!-- Node15&#45;&gt;Node16 -->
<g id="edge16" class="edge">
<title>Node15&#45;&gt;Node16</title>
<path fill="none" stroke="midnightblue" d="M128.79,-112.32C112.19,-103.7 86.5,-90.36 67.28,-80.39"/>
<polygon fill="midnightblue" stroke="midnightblue" points="68.66,-77.16 58.17,-75.65 65.43,-83.37 68.66,-77.16"/>
</g>
<!-- Node17 -->
<g id="node17" class="node">
<title>Node17</title>
<g id="a_node17"><a xlink:title=" ">
<polygon fill="white" stroke="#bfbfbf" points="101,-56.5 101,-75.5 254,-75.5 254,-56.5 101,-56.5"/>
<text text-anchor="middle" x="177.5" y="-63.5" font-family="Helvetica,sans-Serif" font-size="10.00">sml/graphics_wrapper/texture.h</text>
</a>
</g>
</g>
<!-- Node15&#45;&gt;Node17 -->
<g id="edge17" class="edge">
<title>Node15&#45;&gt;Node17</title>
<path fill="none" stroke="midnightblue" d="M150.78,-112.08C155.21,-104.61 161.66,-93.72 167.12,-84.52"/>
<polygon fill="midnightblue" stroke="midnightblue" points="170.23,-86.14 172.31,-75.75 164.21,-82.57 170.23,-86.14"/>
</g>
<!-- Node19 -->
<g id="node19" class="node">
<title>Node19</title>
<g id="a_node19"><a xlink:title=" ">
<polygon fill="white" stroke="#bfbfbf" points="1079,-56.5 1079,-75.5 1128,-75.5 1128,-56.5 1079,-56.5"/>
<text text-anchor="middle" x="1103.5" y="-63.5" font-family="Helvetica,sans-Serif" font-size="10.00">stdint.h</text>
</a>
</g>
</g>
<!-- Node18&#45;&gt;Node19 -->
<g id="edge19" class="edge">
<title>Node18&#45;&gt;Node19</title>
<path fill="none" stroke="midnightblue" d="M1103.5,-112.08C1103.5,-105.01 1103.5,-94.86 1103.5,-85.99"/>
<polygon fill="midnightblue" stroke="midnightblue" points="1107,-85.75 1103.5,-75.75 1100,-85.75 1107,-85.75"/>
</g>
<!-- Node20&#45;&gt;Node18 -->
<g id="edge23" class="edge">
<title>Node20&#45;&gt;Node18</title>
<path fill="none" stroke="midnightblue" d="M773.82,-170.71C780.09,-169.79 786.46,-168.86 792.5,-168 904.83,-151.94 935.6,-150.22 1051.51,-132.11"/>
<polygon fill="midnightblue" stroke="midnightblue" points="1052.16,-135.55 1061.5,-130.54 1051.07,-128.63 1052.16,-135.55"/>
</g>
<!-- Node21 -->
<g id="node21" class="node">
<title>Node21</title>
<g id="a_node21"><a xlink:title=" ">
<polygon fill="white" stroke="#bfbfbf" points="900,-112.5 900,-131.5 1043,-131.5 1043,-112.5 900,-112.5"/>
<text text-anchor="middle" x="971.5" y="-119.5" font-family="Helvetica,sans-Serif" font-size="10.00">sml/graphics_wrapper/color.h</text>
</a>
</g>
</g>
<!-- Node20&#45;&gt;Node21 -->
<g id="edge21" class="edge">
<title>Node20&#45;&gt;Node21</title>
<path fill="none" stroke="midnightblue" d="M769.53,-168.44C811.31,-159.04 878.48,-143.93 923.77,-133.74"/>
<polygon fill="midnightblue" stroke="midnightblue" points="924.66,-137.13 933.65,-131.52 923.12,-130.3 924.66,-137.13"/>
</g>
<!-- Node22 -->
<g id="node22" class="node">
<title>Node22</title>
<g id="a_node22"><a xlink:title=" ">
<polygon fill="white" stroke="#bfbfbf" points="379.5,-56.5 379.5,-75.5 487.5,-75.5 487.5,-56.5 379.5,-56.5"/>
<text text-anchor="middle" x="433.5" y="-63.5" font-family="Helvetica,sans-Serif" font-size="10.00">sml/math/rectangle.h</text>
</a>
</g>
</g>
<!-- Node20&#45;&gt;Node22 -->
<g id="edge22" class="edge">
<title>Node20&#45;&gt;Node22</title>
<path fill="none" stroke="midnightblue" d="M721.36,-168.42C704.33,-154.47 668.42,-126.91 633.5,-112 608.16,-101.18 540.31,-86.99 490.64,-77.46"/>
<polygon fill="midnightblue" stroke="midnightblue" points="491.13,-73.99 480.66,-75.56 489.83,-80.87 491.13,-73.99"/>
</g>
<!-- Node23&#45;&gt;Node8 -->
<g id="edge25" class="edge">
<title>Node23&#45;&gt;Node8</title>
<path fill="none" stroke="midnightblue" d="M425.52,-168.25C435.94,-155.44 456.33,-131.04 475.5,-112 486.09,-101.48 498.73,-90.51 508.9,-82.03"/>
<polygon fill="midnightblue" stroke="midnightblue" points="511.27,-84.62 516.76,-75.56 506.82,-79.21 511.27,-84.62"/>
</g>
<!-- Node23&#45;&gt;Node22 -->
<g id="edge26" class="edge">
<title>Node23&#45;&gt;Node22</title>
<path fill="none" stroke="midnightblue" d="M419.68,-168.37C422.1,-150.62 427.68,-109.67 430.96,-85.6"/>
<polygon fill="midnightblue" stroke="midnightblue" points="434.45,-85.97 432.33,-75.59 427.51,-85.03 434.45,-85.97"/>
</g>
<!-- Node24 -->
<g id="node24" class="node">
<title>Node24</title>
<g id="a_node24"><a xlink:href="fill_8h.html" target="_top" xlink:title=" ">
<polygon fill="white" stroke="black" points="355,-112.5 355,-131.5 390,-131.5 390,-112.5 355,-112.5"/>
<text text-anchor="middle" x="372.5" y="-119.5" font-family="Helvetica,sans-Serif" font-size="10.00">fill.h</text>
</a>
</g>
</g>
<!-- Node23&#45;&gt;Node24 -->
<g id="edge27" class="edge">
<title>Node23&#45;&gt;Node24</title>
<path fill="none" stroke="midnightblue" d="M410.9,-168.08C404.27,-160.3 394.48,-148.8 386.44,-139.37"/>
<polygon fill="midnightblue" stroke="midnightblue" points="389.1,-137.09 379.95,-131.75 383.77,-141.63 389.1,-137.09"/>
</g>
<!-- Node26 -->
<g id="node26" class="node">
<title>Node26</title>
<g id="a_node26"><a xlink:href="image_8h.html" target="_top" xlink:title=" ">
<polygon fill="white" stroke="black" points="209,-112.5 209,-131.5 298,-131.5 298,-112.5 209,-112.5"/>
<text text-anchor="middle" x="253.5" y="-119.5" font-family="Helvetica,sans-Serif" font-size="10.00">../media/image.h</text>
</a>
</g>
</g>
<!-- Node23&#45;&gt;Node26 -->
<g id="edge32" class="edge">
<title>Node23&#45;&gt;Node26</title>
<path fill="none" stroke="midnightblue" d="M392.36,-168.44C364.48,-159.32 320.15,-144.81 289.1,-134.65"/>
<polygon fill="midnightblue" stroke="midnightblue" points="290.12,-131.3 279.52,-131.52 287.94,-137.95 290.12,-131.3"/>
</g>
<!-- Node24&#45;&gt;Node8 -->
<g id="edge28" class="edge">
<title>Node24&#45;&gt;Node8</title>
<path fill="none" stroke="midnightblue" d="M390.28,-114.81C415.97,-105.86 463.87,-89.17 495.72,-78.07"/>
<polygon fill="midnightblue" stroke="midnightblue" points="497.16,-81.28 505.45,-74.68 494.86,-74.67 497.16,-81.28"/>
</g>
<!-- Node24&#45;&gt;Node17 -->
<g id="edge31" class="edge">
<title>Node24&#45;&gt;Node17</title>
<path fill="none" stroke="midnightblue" d="M354.85,-116.11C324.13,-107.6 260.07,-89.87 217.94,-78.2"/>
<polygon fill="midnightblue" stroke="midnightblue" points="218.83,-74.81 208.26,-75.52 216.97,-81.56 218.83,-74.81"/>
</g>
<!-- Node24&#45;&gt;Node22 -->
<g id="edge30" class="edge">
<title>Node24&#45;&gt;Node22</title>
<path fill="none" stroke="midnightblue" d="M382.3,-112.32C391.32,-104.34 404.91,-92.31 415.82,-82.65"/>
<polygon fill="midnightblue" stroke="midnightblue" points="418.35,-85.08 423.52,-75.83 413.71,-79.84 418.35,-85.08"/>
</g>
<!-- Node25 -->
<g id="node25" class="node">
<title>Node25</title>
<g id="a_node25"><a xlink:title=" ">
<polygon fill="white" stroke="#bfbfbf" points="272,-56.5 272,-75.5 361,-75.5 361,-56.5 272,-56.5"/>
<text text-anchor="middle" x="316.5" y="-63.5" font-family="Helvetica,sans-Serif" font-size="10.00">sml/math/vec2.h</text>
</a>
</g>
</g>
<!-- Node24&#45;&gt;Node25 -->
<g id="edge29" class="edge">
<title>Node24&#45;&gt;Node25</title>
<path fill="none" stroke="midnightblue" d="M363.5,-112.32C355.31,-104.42 342.99,-92.55 333.03,-82.94"/>
<polygon fill="midnightblue" stroke="midnightblue" points="335.29,-80.26 325.66,-75.83 330.43,-85.29 335.29,-80.26"/>
</g>
<!-- Node26&#45;&gt;Node17 -->
<g id="edge33" class="edge">
<title>Node26&#45;&gt;Node17</title>
<path fill="none" stroke="midnightblue" d="M241.29,-112.32C229.72,-104.11 212.12,-91.6 198.34,-81.81"/>
<polygon fill="midnightblue" stroke="midnightblue" points="200.11,-78.77 189.93,-75.83 196.06,-84.48 200.11,-78.77"/>
</g>
<!-- Node27&#45;&gt;Node18 -->
<g id="edge36" class="edge">
<title>Node27&#45;&gt;Node18</title>
<path fill="none" stroke="midnightblue" d="M947.77,-280.48C980.97,-271.45 1029.05,-256.75 1043.5,-244 1075.04,-216.17 1091.84,-167.93 1099.07,-141.55"/>
<polygon fill="midnightblue" stroke="midnightblue" points="1102.5,-142.26 1101.6,-131.71 1095.72,-140.52 1102.5,-142.26"/>
</g>
<!-- Node28 -->
<g id="node28" class="node">
<title>Node28</title>
<g id="a_node28"><a xlink:title=" ">
<polygon fill="white" stroke="#bfbfbf" points="876.5,-224.5 876.5,-243.5 1034.5,-243.5 1034.5,-224.5 876.5,-224.5"/>
<text text-anchor="middle" x="955.5" y="-231.5" font-family="Helvetica,sans-Serif" font-size="10.00">sml/graphics_wrapper/renderer.h</text>
</a>
</g>
</g>
<!-- Node27&#45;&gt;Node28 -->
<g id="edge35" class="edge">
<title>Node27&#45;&gt;Node28</title>
<path fill="none" stroke="midnightblue" d="M921.27,-280.08C927.06,-272.46 935.56,-261.26 942.64,-251.94"/>
<polygon fill="midnightblue" stroke="midnightblue" points="945.6,-253.83 948.86,-243.75 940.02,-249.6 945.6,-253.83"/>
</g>
<!-- Node29&#45;&gt;Node10 -->
<g id="edge38" class="edge">
<title>Node29&#45;&gt;Node10</title>
<path fill="none" stroke="midnightblue" d="M618.06,-336.27C629.05,-318.15 652.5,-274.83 652.5,-235 652.5,-235 652.5,-235 652.5,-177 652.5,-144.95 652.5,-107.64 652.5,-85.75"/>
<polygon fill="midnightblue" stroke="midnightblue" points="656,-85.56 652.5,-75.56 649,-85.56 656,-85.56"/>
</g>
<!-- Node29&#45;&gt;Node15 -->
<g id="edge54" class="edge">
<title>Node29&#45;&gt;Node15</title>
<path fill="none" stroke="midnightblue" d="M554.43,-342.34C472.4,-337.7 327.56,-326.03 282.5,-300 216.35,-261.79 171,-177.88 153.52,-141"/>
<polygon fill="midnightblue" stroke="midnightblue" points="156.53,-139.16 149.17,-131.54 150.17,-142.09 156.53,-139.16"/>
</g>
<!-- Node29&#45;&gt;Node18 -->
<g id="edge53" class="edge">
<title>Node29&#45;&gt;Node18</title>
<path fill="none" stroke="midnightblue" d="M670.61,-338.71C726.19,-331.7 805.07,-318.8 829.5,-300 859.43,-276.97 840.02,-249.9 867.5,-224 919.91,-174.61 1000.18,-147.33 1052.26,-133.93"/>
<polygon fill="midnightblue" stroke="midnightblue" points="1053.11,-137.32 1061.97,-131.51 1051.42,-130.53 1053.11,-137.32"/>
</g>
<!-- Node29&#45;&gt;Node20 -->
<g id="edge52" class="edge">
<title>Node29&#45;&gt;Node20</title>
<path fill="none" stroke="midnightblue" d="M625.73,-336.2C637.49,-327.89 654.62,-314.56 666.5,-300 673.71,-291.16 706.44,-227.97 722.52,-196.59"/>
<polygon fill="midnightblue" stroke="midnightblue" points="725.67,-198.12 727.11,-187.63 719.44,-194.94 725.67,-198.12"/>
</g>
<!-- Node29&#45;&gt;Node23 -->
<g id="edge51" class="edge">
<title>Node29&#45;&gt;Node23</title>
<path fill="none" stroke="midnightblue" d="M554.24,-341.5C498.66,-336.72 413.29,-325.6 343.5,-300 297.84,-283.26 273.53,-286.28 249.5,-244 224.7,-200.36 296.57,-185.87 354.18,-181.15"/>
<polygon fill="midnightblue" stroke="midnightblue" points="354.66,-184.62 364.38,-180.4 354.15,-177.64 354.66,-184.62"/>
</g>
<!-- Node29&#45;&gt;Node27 -->
<g id="edge55" class="edge">
<title>Node29&#45;&gt;Node27</title>
<path fill="none" stroke="midnightblue" d="M660.35,-336.44C716.72,-326.36 809.82,-309.72 866.33,-299.61"/>
<polygon fill="midnightblue" stroke="midnightblue" points="867.21,-303.01 876.43,-297.81 865.97,-296.12 867.21,-303.01"/>
</g>
<!-- Node30 -->
<g id="node30" class="node">
<title>Node30</title>
<g id="a_node30"><a xlink:href="image__view_8h.html" target="_top" xlink:title=" ">
<polygon fill="white" stroke="black" points="258.5,-224.5 258.5,-243.5 342.5,-243.5 342.5,-224.5 258.5,-224.5"/>
<text text-anchor="middle" x="300.5" y="-231.5" font-family="Helvetica,sans-Serif" font-size="10.00">../image_view.h</text>
</a>
</g>
</g>
<!-- Node29&#45;&gt;Node30 -->
<g id="edge39" class="edge">
<title>Node29&#45;&gt;Node30</title>
<path fill="none" stroke="midnightblue" d="M554.41,-342.09C505.23,-337.74 433.93,-326.92 377.5,-300 352.72,-288.18 329.38,-266.42 315.04,-251.36"/>
<polygon fill="midnightblue" stroke="midnightblue" points="317.39,-248.75 308.04,-243.78 312.25,-253.5 317.39,-248.75"/>
</g>
<!-- Node31 -->
<g id="node31" class="node">
<title>Node31</title>
<g id="a_node31"><a xlink:href="text_8h.html" target="_top" xlink:title=" ">
<polygon fill="white" stroke="black" points="513,-280.5 513,-299.5 598,-299.5 598,-280.5 513,-280.5"/>
<text text-anchor="middle" x="555.5" y="-287.5" font-family="Helvetica,sans-Serif" font-size="10.00">../shapes/text.h</text>
</a>
</g>
</g>
<!-- Node29&#45;&gt;Node31 -->
<g id="edge42" class="edge">
<title>Node29&#45;&gt;Node31</title>
<path fill="none" stroke="midnightblue" d="M603.34,-336.32C595,-328.42 582.47,-316.55 572.32,-306.94"/>
<polygon fill="midnightblue" stroke="midnightblue" points="574.49,-304.17 564.82,-299.83 569.68,-309.25 574.49,-304.17"/>
</g>
<!-- Node34 -->
<g id="node34" class="node">
<title>Node34</title>
<g id="a_node34"><a xlink:href="rectangle_8h.html" target="_top" xlink:title=" ">
<polygon fill="white" stroke="black" points="386.5,-280.5 386.5,-299.5 494.5,-299.5 494.5,-280.5 386.5,-280.5"/>
<text text-anchor="middle" x="440.5" y="-287.5" font-family="Helvetica,sans-Serif" font-size="10.00">../shapes/rectangle.h</text>
</a>
</g>
</g>
<!-- Node29&#45;&gt;Node34 -->
<g id="edge48" class="edge">
<title>Node29&#45;&gt;Node34</title>
<path fill="none" stroke="midnightblue" d="M585.25,-336.44C556.06,-327.28 509.58,-312.69 477.19,-302.52"/>
<polygon fill="midnightblue" stroke="midnightblue" points="478.22,-299.17 467.63,-299.52 476.12,-305.85 478.22,-299.17"/>
</g>
<!-- Node30&#45;&gt;Node5 -->
<g id="edge40" class="edge">
<title>Node30&#45;&gt;Node5</title>
<path fill="none" stroke="midnightblue" d="M338.69,-224.44C381.01,-214.96 449.29,-199.66 494.77,-189.47"/>
<polygon fill="midnightblue" stroke="midnightblue" points="495.68,-192.85 504.68,-187.25 494.15,-186.02 495.68,-192.85"/>
</g>
<!-- Node30&#45;&gt;Node26 -->
<g id="edge41" class="edge">
<title>Node30&#45;&gt;Node26</title>
<path fill="none" stroke="midnightblue" d="M296.81,-224.37C289.16,-206.46 271.41,-164.92 261.17,-140.95"/>
<polygon fill="midnightblue" stroke="midnightblue" points="264.32,-139.41 257.17,-131.59 257.88,-142.16 264.32,-139.41"/>
</g>
<!-- Node32 -->
<g id="node32" class="node">
<title>Node32</title>
<g id="a_node32"><a xlink:title=" ">
<polygon fill="white" stroke="#bfbfbf" points="484.5,-224.5 484.5,-243.5 624.5,-243.5 624.5,-224.5 484.5,-224.5"/>
<text text-anchor="middle" x="554.5" y="-231.5" font-family="Helvetica,sans-Serif" font-size="10.00">sml/graphics_wrapper/text.h</text>
</a>
</g>
</g>
<!-- Node31&#45;&gt;Node32 -->
<g id="edge43" class="edge">
<title>Node31&#45;&gt;Node32</title>
<path fill="none" stroke="midnightblue" d="M555.33,-280.08C555.2,-273.01 555.02,-262.86 554.85,-253.99"/>
<polygon fill="midnightblue" stroke="midnightblue" points="558.35,-253.68 554.66,-243.75 551.35,-253.81 558.35,-253.68"/>
</g>
<!-- Node33 -->
<g id="node33" class="node">
<title>Node33</title>
<g id="a_node33"><a xlink:href="shape_8h.html" target="_top" xlink:title=" ">
<polygon fill="white" stroke="black" points="415,-224.5 415,-243.5 466,-243.5 466,-224.5 415,-224.5"/>
<text text-anchor="middle" x="440.5" y="-231.5" font-family="Helvetica,sans-Serif" font-size="10.00">shape.h</text>
</a>
</g>
</g>
<!-- Node31&#45;&gt;Node33 -->
<g id="edge44" class="edge">
<title>Node31&#45;&gt;Node33</title>
<path fill="none" stroke="midnightblue" d="M537.28,-280.44C518.6,-271.68 489.34,-257.94 467.88,-247.86"/>
<polygon fill="midnightblue" stroke="midnightblue" points="469.18,-244.6 458.64,-243.52 466.2,-250.93 469.18,-244.6"/>
</g>
<!-- Node33&#45;&gt;Node5 -->
<g id="edge45" class="edge">
<title>Node33&#45;&gt;Node5</title>
<path fill="none" stroke="midnightblue" d="M456.73,-224.32C472.85,-215.7 497.8,-202.36 516.46,-192.39"/>
<polygon fill="midnightblue" stroke="midnightblue" points="518.14,-195.46 525.31,-187.65 514.84,-189.28 518.14,-195.46"/>
</g>
<!-- Node33&#45;&gt;Node20 -->
<g id="edge47" class="edge">
<title>Node33&#45;&gt;Node20</title>
<path fill="none" stroke="midnightblue" d="M466.06,-226.18C469.23,-225.41 472.43,-224.66 475.5,-224 545.59,-208.85 627.3,-195.17 679.21,-186.97"/>
<polygon fill="midnightblue" stroke="midnightblue" points="679.84,-190.42 689.18,-185.41 678.75,-183.5 679.84,-190.42"/>
</g>
<!-- Node33&#45;&gt;Node23 -->
<g id="edge46" class="edge">
<title>Node33&#45;&gt;Node23</title>
<path fill="none" stroke="midnightblue" d="M436.87,-224.08C433.89,-216.77 429.57,-206.18 425.88,-197.1"/>
<polygon fill="midnightblue" stroke="midnightblue" points="429.08,-195.69 422.07,-187.75 422.6,-198.33 429.08,-195.69"/>
</g>
<!-- Node34&#45;&gt;Node22 -->
<g id="edge49" class="edge">
<title>Node34&#45;&gt;Node22</title>
<path fill="none" stroke="midnightblue" d="M430.44,-280.44C412.25,-264.35 374.07,-227.64 355.5,-188 344.77,-165.11 347.73,-157.18 345.5,-132 344.72,-123.15 340.86,-119.58 345.5,-112 355.01,-96.46 371.76,-86.07 388.12,-79.23"/>
<polygon fill="midnightblue" stroke="midnightblue" points="389.55,-82.43 397.65,-75.6 387.06,-75.89 389.55,-82.43"/>
</g>
<!-- Node34&#45;&gt;Node33 -->
<g id="edge50" class="edge">
<title>Node34&#45;&gt;Node33</title>
<path fill="none" stroke="midnightblue" d="M440.5,-280.08C440.5,-273.01 440.5,-262.86 440.5,-253.99"/>
<polygon fill="midnightblue" stroke="midnightblue" points="444,-253.75 440.5,-243.75 437,-253.75 444,-253.75"/>
</g>
<!-- Node36 -->
<g id="node36" class="node">
<title>Node36</title>
<g id="a_node36"><a xlink:href="box__container_8h.html" target="_top" xlink:title=" ">
<polygon fill="white" stroke="black" points="948,-336.5 948,-355.5 1033,-355.5 1033,-336.5 948,-336.5"/>
<text text-anchor="middle" x="990.5" y="-343.5" font-family="Helvetica,sans-Serif" font-size="10.00">box_container.h</text>
</a>
</g>
</g>
<!-- Node35&#45;&gt;Node36 -->
<g id="edge57" class="edge">
<title>Node35&#45;&gt;Node36</title>
<path fill="none" stroke="midnightblue" d="M917.48,-392.32C931.05,-383.9 951.88,-370.97 967.82,-361.07"/>
<polygon fill="midnightblue" stroke="midnightblue" points="969.91,-363.9 976.56,-355.65 966.21,-357.95 969.91,-363.9"/>
</g>
<!-- Node37 -->
<g id="node37" class="node">
<title>Node37</title>
<g id="a_node37"><a xlink:title=" ">
<polygon fill="white" stroke="#bfbfbf" points="971,-280.5 971,-299.5 1054,-299.5 1054,-280.5 971,-280.5"/>
<text text-anchor="middle" x="1012.5" y="-287.5" font-family="Helvetica,sans-Serif" font-size="10.00">unordered_map</text>
</a>
</g>
</g>
<!-- Node36&#45;&gt;Node37 -->
<g id="edge58" class="edge">
<title>Node36&#45;&gt;Node37</title>
<path fill="none" stroke="midnightblue" d="M994.13,-336.08C997.11,-328.77 1001.43,-318.18 1005.12,-309.1"/>
<polygon fill="midnightblue" stroke="midnightblue" points="1008.4,-310.33 1008.93,-299.75 1001.92,-307.69 1008.4,-310.33"/>
</g>
<!-- Node38 -->
<g id="node38" class="node">
<title>Node38</title>
<g id="a_node38"><a xlink:href="container_8h.html" target="_top" xlink:title=" ">
<polygon fill="white" stroke="black" points="756.5,-280.5 756.5,-299.5 820.5,-299.5 820.5,-280.5 756.5,-280.5"/>
<text text-anchor="middle" x="788.5" y="-287.5" font-family="Helvetica,sans-Serif" font-size="10.00">container.h</text>
</a>
</g>
</g>
<!-- Node36&#45;&gt;Node38 -->
<g id="edge59" class="edge">
<title>Node36&#45;&gt;Node38</title>
<path fill="none" stroke="midnightblue" d="M958.49,-336.44C923.77,-327.16 868.21,-312.31 830.12,-302.13"/>
<polygon fill="midnightblue" stroke="midnightblue" points="830.92,-298.72 820.36,-299.52 829.11,-305.48 830.92,-298.72"/>
</g>
<!-- Node39 -->
<g id="node39" class="node">
<title>Node39</title>
<g id="a_node39"><a xlink:title=" ">
<polygon fill="white" stroke="#bfbfbf" points="1072.5,-280.5 1072.5,-299.5 1146.5,-299.5 1146.5,-280.5 1072.5,-280.5"/>
<text text-anchor="middle" x="1109.5" y="-287.5" font-family="Helvetica,sans-Serif" font-size="10.00">sys/syscall.h</text>
</a>
</g>
</g>
<!-- Node36&#45;&gt;Node39 -->
<g id="edge61" class="edge">
<title>Node36&#45;&gt;Node39</title>
<path fill="none" stroke="midnightblue" d="M1009.36,-336.44C1028.77,-327.64 1059.23,-313.81 1081.46,-303.72"/>
<polygon fill="midnightblue" stroke="midnightblue" points="1083.07,-306.84 1090.73,-299.52 1080.18,-300.46 1083.07,-306.84"/>
</g>
<!-- Node38&#45;&gt;Node4 -->
<g id="edge60" class="edge">
<title>Node38&#45;&gt;Node4</title>
<path fill="none" stroke="midnightblue" d="M782.06,-280.08C776.55,-272.46 768.47,-261.26 761.74,-251.94"/>
<polygon fill="midnightblue" stroke="midnightblue" points="764.51,-249.81 755.82,-243.75 758.84,-253.91 764.51,-249.81"/>
</g>
</g>
</svg>
        <g id="navigator" transform="translate(0 0)" fill="#404254">
                <rect fill="#f2f5e9" fill-opacity="0.5" stroke="#606060" stroke-width=".5" x="0" y="0" width="60" height="60"/>
                <use id="zoomplus" xlink:href="#zoomPlus" x="17" y="9" onmousedown="handleZoom(evt,'in')"/>
                <use id="zoomminus" xlink:href="#zoomMin" x="42" y="9" onmousedown="handleZoom(evt,'out')"/>
                <use id="reset" xlink:href="#resetDef" x="30" y="36" onmousedown="handleReset()"/>
                <g id="arrowUp" xlink:href="#dirArrow" transform="translate(30 24)" onmousedown="handlePan(0,-1)">
                  <use xlink:href="#rim" fill="#404040">
                        <set attributeName="fill" to="#808080" begin="arrowUp.mouseover" end="arrowUp.mouseout"/>
                  </use>
                  <path fill="none" stroke="white" stroke-width="1.5" d="M0,-3.0v7 M-2.5,-0.5L0,-3.0L2.5,-0.5"/>
                </g>
                <g id="arrowRight" xlink:href="#dirArrow" transform="rotate(90) translate(36 -43)" onmousedown="handlePan(1,0)">
                  <use xlink:href="#rim" fill="#404040">
                        <set attributeName="fill" to="#808080" begin="arrowRight.mouseover" end="arrowRight.mouseout"/>
                  </use>
                  <path fill="none" stroke="white" stroke-width="1.5" d="M0,-3.0v7 M-2.5,-0.5L0,-3.0L2.5,-0.5"/>
                </g>
                <g id="arrowDown" xlink:href="#dirArrow" transform="rotate(180) translate(-30 -48)" onmousedown="handlePan(0,1)">
                  <use xlink:href="#rim" fill="#404040">
                        <set attributeName="fill" to="#808080" begin="arrowDown.mouseover" end="arrowDown.mouseout"/>
                  </use>
                  <path fill="none" stroke="white" stroke-width="1.5" d="M0,-3.0v7 M-2.5,-0.5L0,-3.0L2.5,-0.5"/>
                </g>
                <g id="arrowLeft" xlink:href="#dirArrow" transform="rotate(270) translate(-36 17)" onmousedown="handlePan(-1,0)">
                  <use xlink:href="#rim" fill="#404040">
                        <set attributeName="fill" to="#808080" begin="arrowLeft.mouseover" end="arrowLeft.mouseout"/>
                  </use>
                  <path fill="none" stroke="white" stroke-width="1.5" d="M0,-3.0v7 M-2.5,-0.5L0,-3.0L2.5,-0.5"/>
                </g>
        </g>
        <svg viewBox="0 0 15 15" width="100%" height="30px" preserveAspectRatio="xMaxYMin meet">
         <g id="arrow_out" transform="scale(0.3 0.3)">
          <a xlink:href="menu__bar_8h__incl_org.svg" target="_base">
           <rect id="button" ry="5" rx="5" y="6" x="6" height="38" width="38"
                fill="#f2f5e9" fill-opacity="0.5" stroke="#606060" stroke-width="1.0"/>
           <path id="arrow"
             d="M 11.500037,31.436501 C 11.940474,20.09759 22.043105,11.32322 32.158766,21.979434 L 37.068811,17.246167 C 37.068811,17.246167 37.088388,32 37.088388,32 L 22.160133,31.978069 C 22.160133,31.978069 26.997745,27.140456 26.997745,27.140456 C 18.528582,18.264221 13.291696,25.230495 11.500037,31.436501 z"
             style="fill:#404040;"/>
          </a>
         </g>
        </svg>
</svg>
