<?xml version="1.0" encoding="UTF-8" standalone="no"?>
<!DOCTYPE svg PUBLIC "-//W3C//DTD SVG 1.1//EN"
 "http://www.w3.org/Graphics/SVG/1.1/DTD/svg11.dtd">
<!-- Generated by graphviz version 2.50.0 (20211204.2007)
 -->
<!-- Title: parent.h Pages: 1 -->
<svg width="1157pt" height="252pt"
 viewBox="0.00 0.00 1156.50 252.00" xmlns="http://www.w3.org/2000/svg" xmlns:xlink="http://www.w3.org/1999/xlink">
<g id="graph0" class="graph" transform="scale(1 1) rotate(0) translate(4 248)">
<title>parent.h</title>
<polygon fill="white" stroke="transparent" points="-4,4 -4,-248 1152.5,-248 1152.5,4 -4,4"/>
<!-- Node1 -->
<g id="node1" class="node">
<title>Node1</title>
<g id="a_node1"><a xlink:title=" ">
<polygon fill="#bfbfbf" stroke="black" points="837.5,-224.5 837.5,-243.5 889.5,-243.5 889.5,-224.5 837.5,-224.5"/>
<text text-anchor="middle" x="863.5" y="-231.5" font-family="Helvetica,sans-Serif" font-size="10.00">parent.h</text>
</a>
</g>
</g>
<!-- Node2 -->
<g id="node2" class="node">
<title>Node2</title>
<g id="a_node2"><a xlink:href="component_8h.html" target="_top" xlink:title=" ">
<polygon fill="white" stroke="black" points="451,-168.5 451,-187.5 524,-187.5 524,-168.5 451,-168.5"/>
<text text-anchor="middle" x="487.5" y="-175.5" font-family="Helvetica,sans-Serif" font-size="10.00">component.h</text>
</a>
</g>
</g>
<!-- Node1&#45;&gt;Node2 -->
<g id="edge1" class="edge">
<title>Node1&#45;&gt;Node2</title>
<path fill="none" stroke="midnightblue" d="M837.36,-229.25C774.56,-220.23 614.5,-197.24 534.5,-185.75"/>
<polygon fill="midnightblue" stroke="midnightblue" points="534.62,-182.23 524.23,-184.27 533.63,-189.16 534.62,-182.23"/>
</g>
<!-- Node15 -->
<g id="node15" class="node">
<title>Node15</title>
<g id="a_node15"><a xlink:href="insets_8h.html" target="_top" xlink:title=" ">
<polygon fill="white" stroke="black" points="1064.5,-112.5 1064.5,-131.5 1148.5,-131.5 1148.5,-112.5 1064.5,-112.5"/>
<text text-anchor="middle" x="1106.5" y="-119.5" font-family="Helvetica,sans-Serif" font-size="10.00">../paint/insets.h</text>
</a>
</g>
</g>
<!-- Node1&#45;&gt;Node15 -->
<g id="edge15" class="edge">
<title>Node1&#45;&gt;Node15</title>
<path fill="none" stroke="midnightblue" d="M889.72,-227.69C920.22,-220.93 971.61,-207.71 1012.5,-188 1040.92,-174.3 1070.29,-152.55 1088.48,-138.03"/>
<polygon fill="midnightblue" stroke="midnightblue" points="1090.9,-140.57 1096.45,-131.55 1086.48,-135.14 1090.9,-140.57"/>
</g>
<!-- Node17 -->
<g id="node17" class="node">
<title>Node17</title>
<g id="a_node17"><a xlink:href="border_8h.html" target="_top" xlink:title=" ">
<polygon fill="white" stroke="black" points="919.5,-168.5 919.5,-187.5 1003.5,-187.5 1003.5,-168.5 919.5,-168.5"/>
<text text-anchor="middle" x="961.5" y="-175.5" font-family="Helvetica,sans-Serif" font-size="10.00">../paint/border.h</text>
</a>
</g>
</g>
<!-- Node1&#45;&gt;Node17 -->
<g id="edge17" class="edge">
<title>Node1&#45;&gt;Node17</title>
<path fill="none" stroke="midnightblue" d="M879.25,-224.32C894.82,-215.74 918.88,-202.49 936.96,-192.52"/>
<polygon fill="midnightblue" stroke="midnightblue" points="938.72,-195.55 945.79,-187.65 935.35,-189.42 938.72,-195.55"/>
</g>
<!-- Node20 -->
<g id="node20" class="node">
<title>Node20</title>
<g id="a_node20"><a xlink:href="background_8h.html" target="_top" xlink:title=" ">
<polygon fill="white" stroke="black" points="736.5,-168.5 736.5,-187.5 844.5,-187.5 844.5,-168.5 736.5,-168.5"/>
<text text-anchor="middle" x="790.5" y="-175.5" font-family="Helvetica,sans-Serif" font-size="10.00">../paint/background.h</text>
</a>
</g>
</g>
<!-- Node1&#45;&gt;Node20 -->
<g id="edge21" class="edge">
<title>Node1&#45;&gt;Node20</title>
<path fill="none" stroke="midnightblue" d="M851.77,-224.32C840.66,-216.11 823.76,-203.6 810.52,-193.81"/>
<polygon fill="midnightblue" stroke="midnightblue" points="812.56,-190.97 802.44,-187.83 808.4,-196.59 812.56,-190.97"/>
</g>
<!-- Node3 -->
<g id="node3" class="node">
<title>Node3</title>
<g id="a_node3"><a xlink:title=" ">
<polygon fill="white" stroke="#bfbfbf" points="174.5,-112.5 174.5,-131.5 314.5,-131.5 314.5,-112.5 174.5,-112.5"/>
<text text-anchor="middle" x="244.5" y="-119.5" font-family="Helvetica,sans-Serif" font-size="10.00">sml/sml_graphics_wrapper.h</text>
</a>
</g>
</g>
<!-- Node2&#45;&gt;Node3 -->
<g id="edge2" class="edge">
<title>Node2&#45;&gt;Node3</title>
<path fill="none" stroke="midnightblue" d="M450.86,-168.86C408.74,-159.5 339.44,-144.1 292.91,-133.76"/>
<polygon fill="midnightblue" stroke="midnightblue" points="293.57,-130.32 283.05,-131.57 292.05,-137.15 293.57,-130.32"/>
</g>
<!-- Node4 -->
<g id="node4" class="node">
<title>Node4</title>
<g id="a_node4"><a xlink:href="gui__event__dispatching_8h.html" target="_top" xlink:title=" ">
<polygon fill="white" stroke="black" points="333,-112.5 333,-131.5 496,-131.5 496,-112.5 333,-112.5"/>
<text text-anchor="middle" x="414.5" y="-119.5" font-family="Helvetica,sans-Serif" font-size="10.00">../events/gui_event_dispatching.h</text>
</a>
</g>
</g>
<!-- Node2&#45;&gt;Node4 -->
<g id="edge3" class="edge">
<title>Node2&#45;&gt;Node4</title>
<path fill="none" stroke="midnightblue" d="M475.77,-168.32C464.66,-160.11 447.76,-147.6 434.52,-137.81"/>
<polygon fill="midnightblue" stroke="midnightblue" points="436.56,-134.97 426.44,-131.83 432.4,-140.59 436.56,-134.97"/>
</g>
<!-- Node12 -->
<g id="node12" class="node">
<title>Node12</title>
<g id="a_node12"><a xlink:href="shadow_8h.html" target="_top" xlink:title=" ">
<polygon fill="white" stroke="black" points="514.5,-112.5 514.5,-131.5 604.5,-131.5 604.5,-112.5 514.5,-112.5"/>
<text text-anchor="middle" x="559.5" y="-119.5" font-family="Helvetica,sans-Serif" font-size="10.00">../paint/shadow.h</text>
</a>
</g>
</g>
<!-- Node2&#45;&gt;Node12 -->
<g id="edge12" class="edge">
<title>Node2&#45;&gt;Node12</title>
<path fill="none" stroke="midnightblue" d="M499.07,-168.32C509.92,-160.18 526.38,-147.84 539.38,-138.09"/>
<polygon fill="midnightblue" stroke="midnightblue" points="541.82,-140.63 547.72,-131.83 537.62,-135.03 541.82,-140.63"/>
</g>
<!-- Node5 -->
<g id="node5" class="node">
<title>Node5</title>
<g id="a_node5"><a xlink:title=" ">
<polygon fill="white" stroke="#bfbfbf" points="615.5,-56.5 615.5,-75.5 659.5,-75.5 659.5,-56.5 615.5,-56.5"/>
<text text-anchor="middle" x="637.5" y="-63.5" font-family="Helvetica,sans-Serif" font-size="10.00">vector</text>
</a>
</g>
</g>
<!-- Node4&#45;&gt;Node5 -->
<g id="edge4" class="edge">
<title>Node4&#45;&gt;Node5</title>
<path fill="none" stroke="midnightblue" d="M453.63,-112.46C490.48,-104.28 547.44,-91.27 605.49,-76.17"/>
<polygon fill="midnightblue" stroke="midnightblue" points="606.4,-79.55 615.19,-73.63 604.63,-72.78 606.4,-79.55"/>
</g>
<!-- Node6 -->
<g id="node6" class="node">
<title>Node6</title>
<g id="a_node6"><a xlink:title=" ">
<polygon fill="white" stroke="#bfbfbf" points="143,-56.5 143,-75.5 298,-75.5 298,-56.5 143,-56.5"/>
<text text-anchor="middle" x="220.5" y="-63.5" font-family="Helvetica,sans-Serif" font-size="10.00">sml/events/event_dispatching.h</text>
</a>
</g>
</g>
<!-- Node4&#45;&gt;Node6 -->
<g id="edge5" class="edge">
<title>Node4&#45;&gt;Node6</title>
<path fill="none" stroke="midnightblue" d="M383.76,-112.44C350.56,-103.2 297.51,-88.44 260.94,-78.26"/>
<polygon fill="midnightblue" stroke="midnightblue" points="261.67,-74.83 251.1,-75.52 259.79,-81.57 261.67,-74.83"/>
</g>
<!-- Node7 -->
<g id="node7" class="node">
<title>Node7</title>
<g id="a_node7"><a xlink:title=" ">
<polygon fill="white" stroke="#bfbfbf" points="316,-56.5 316,-75.5 457,-75.5 457,-56.5 316,-56.5"/>
<text text-anchor="middle" x="386.5" y="-63.5" font-family="Helvetica,sans-Serif" font-size="10.00">sml/events/listener_notifier.h</text>
</a>
</g>
</g>
<!-- Node4&#45;&gt;Node7 -->
<g id="edge6" class="edge">
<title>Node4&#45;&gt;Node7</title>
<path fill="none" stroke="midnightblue" d="M409.88,-112.08C406.04,-104.69 400.48,-93.95 395.74,-84.81"/>
<polygon fill="midnightblue" stroke="midnightblue" points="398.75,-83.02 391.04,-75.75 392.53,-86.24 398.75,-83.02"/>
</g>
<!-- Node8 -->
<g id="node8" class="node">
<title>Node8</title>
<g id="a_node8"><a xlink:title=" ">
<polygon fill="white" stroke="#bfbfbf" points="314,-0.5 314,-19.5 457,-19.5 457,-0.5 314,-0.5"/>
<text text-anchor="middle" x="385.5" y="-7.5" font-family="Helvetica,sans-Serif" font-size="10.00">sml/events/system_events.h</text>
</a>
</g>
</g>
<!-- Node4&#45;&gt;Node8 -->
<g id="edge7" class="edge">
<title>Node4&#45;&gt;Node8</title>
<path fill="none" stroke="midnightblue" d="M430.34,-112.35C449.98,-100.42 479.4,-77.92 466.5,-56 457.58,-40.84 441.51,-30.43 426.02,-23.46"/>
<polygon fill="midnightblue" stroke="midnightblue" points="427.1,-20.12 416.52,-19.56 424.44,-26.6 427.1,-20.12"/>
</g>
<!-- Node9 -->
<g id="node9" class="node">
<title>Node9</title>
<g id="a_node9"><a xlink:href="gui__event_8h.html" target="_top" xlink:title=" ">
<polygon fill="white" stroke="black" points="58,-56.5 58,-75.5 125,-75.5 125,-56.5 58,-56.5"/>
<text text-anchor="middle" x="91.5" y="-63.5" font-family="Helvetica,sans-Serif" font-size="10.00">gui_event.h</text>
</a>
</g>
</g>
<!-- Node4&#45;&gt;Node9 -->
<g id="edge8" class="edge">
<title>Node4&#45;&gt;Node9</title>
<path fill="none" stroke="midnightblue" d="M355.68,-112.5C300.95,-104.37 216.87,-91.37 135.33,-76.27"/>
<polygon fill="midnightblue" stroke="midnightblue" points="135.87,-72.81 125.4,-74.42 134.58,-79.7 135.87,-72.81"/>
</g>
<!-- Node9&#45;&gt;Node8 -->
<g id="edge10" class="edge">
<title>Node9&#45;&gt;Node8</title>
<path fill="none" stroke="midnightblue" d="M125.41,-57.63C128.14,-57.07 130.87,-56.52 133.5,-56 198.71,-43.19 273.72,-30 324.83,-21.23"/>
<polygon fill="midnightblue" stroke="midnightblue" points="325.46,-24.68 334.72,-19.54 324.28,-17.78 325.46,-24.68"/>
</g>
<!-- Node10 -->
<g id="node10" class="node">
<title>Node10</title>
<g id="a_node10"><a xlink:title=" ">
<polygon fill="white" stroke="#bfbfbf" points="95.5,-0.5 95.5,-19.5 195.5,-19.5 195.5,-0.5 95.5,-0.5"/>
<text text-anchor="middle" x="145.5" y="-7.5" font-family="Helvetica,sans-Serif" font-size="10.00">sml/events/event.h</text>
</a>
</g>
</g>
<!-- Node9&#45;&gt;Node10 -->
<g id="edge9" class="edge">
<title>Node9&#45;&gt;Node10</title>
<path fill="none" stroke="midnightblue" d="M100.42,-56.08C108.28,-48.22 119.93,-36.57 129.42,-27.08"/>
<polygon fill="midnightblue" stroke="midnightblue" points="132.15,-29.3 136.75,-19.75 127.2,-24.35 132.15,-29.3"/>
</g>
<!-- Node11 -->
<g id="node11" class="node">
<title>Node11</title>
<g id="a_node11"><a xlink:title=" ">
<polygon fill="white" stroke="#bfbfbf" points="0,-0.5 0,-19.5 77,-19.5 77,-0.5 0,-0.5"/>
<text text-anchor="middle" x="38.5" y="-7.5" font-family="Helvetica,sans-Serif" font-size="10.00">sml/sml_log.h</text>
</a>
</g>
</g>
<!-- Node9&#45;&gt;Node11 -->
<g id="edge11" class="edge">
<title>Node9&#45;&gt;Node11</title>
<path fill="none" stroke="midnightblue" d="M82.75,-56.08C75.03,-48.22 63.6,-36.57 54.28,-27.08"/>
<polygon fill="midnightblue" stroke="midnightblue" points="56.59,-24.44 47.09,-19.75 51.6,-29.34 56.59,-24.44"/>
</g>
<!-- Node13 -->
<g id="node13" class="node">
<title>Node13</title>
<g id="a_node13"><a xlink:title=" ">
<polygon fill="white" stroke="#bfbfbf" points="514,-56.5 514,-75.5 597,-75.5 597,-56.5 514,-56.5"/>
<text text-anchor="middle" x="555.5" y="-63.5" font-family="Helvetica,sans-Serif" font-size="10.00">sml/math/blur.h</text>
</a>
</g>
</g>
<!-- Node12&#45;&gt;Node13 -->
<g id="edge13" class="edge">
<title>Node12&#45;&gt;Node13</title>
<path fill="none" stroke="midnightblue" d="M558.84,-112.08C558.32,-105.01 557.56,-94.86 556.91,-85.99"/>
<polygon fill="midnightblue" stroke="midnightblue" points="560.38,-85.47 556.15,-75.75 553.4,-85.98 560.38,-85.47"/>
</g>
<!-- Node14 -->
<g id="node14" class="node">
<title>Node14</title>
<g id="a_node14"><a xlink:title=" ">
<polygon fill="white" stroke="#bfbfbf" points="678,-56.5 678,-75.5 831,-75.5 831,-56.5 678,-56.5"/>
<text text-anchor="middle" x="754.5" y="-63.5" font-family="Helvetica,sans-Serif" font-size="10.00">sml/graphics_wrapper/texture.h</text>
</a>
</g>
</g>
<!-- Node12&#45;&gt;Node14 -->
<g id="edge14" class="edge">
<title>Node12&#45;&gt;Node14</title>
<path fill="none" stroke="midnightblue" d="M590.4,-112.44C623.77,-103.2 677.09,-88.44 713.85,-78.26"/>
<polygon fill="midnightblue" stroke="midnightblue" points="715.04,-81.56 723.75,-75.52 713.17,-74.81 715.04,-81.56"/>
</g>
<!-- Node16 -->
<g id="node16" class="node">
<title>Node16</title>
<g id="a_node16"><a xlink:title=" ">
<polygon fill="white" stroke="#bfbfbf" points="1083,-56.5 1083,-75.5 1132,-75.5 1132,-56.5 1083,-56.5"/>
<text text-anchor="middle" x="1107.5" y="-63.5" font-family="Helvetica,sans-Serif" font-size="10.00">stdint.h</text>
</a>
</g>
</g>
<!-- Node15&#45;&gt;Node16 -->
<g id="edge16" class="edge">
<title>Node15&#45;&gt;Node16</title>
<path fill="none" stroke="midnightblue" d="M1106.67,-112.08C1106.8,-105.01 1106.98,-94.86 1107.15,-85.99"/>
<polygon fill="midnightblue" stroke="midnightblue" points="1110.65,-85.81 1107.34,-75.75 1103.65,-85.68 1110.65,-85.81"/>
</g>
<!-- Node17&#45;&gt;Node15 -->
<g id="edge20" class="edge">
<title>Node17&#45;&gt;Node15</title>
<path fill="none" stroke="midnightblue" d="M984.48,-168.44C1008.66,-159.44 1046.92,-145.19 1074.15,-135.05"/>
<polygon fill="midnightblue" stroke="midnightblue" points="1075.48,-138.29 1083.63,-131.52 1073.04,-131.73 1075.48,-138.29"/>
</g>
<!-- Node18 -->
<g id="node18" class="node">
<title>Node18</title>
<g id="a_node18"><a xlink:title=" ">
<polygon fill="white" stroke="#bfbfbf" points="865,-112.5 865,-131.5 1008,-131.5 1008,-112.5 865,-112.5"/>
<text text-anchor="middle" x="936.5" y="-119.5" font-family="Helvetica,sans-Serif" font-size="10.00">sml/graphics_wrapper/color.h</text>
</a>
</g>
</g>
<!-- Node17&#45;&gt;Node18 -->
<g id="edge18" class="edge">
<title>Node17&#45;&gt;Node18</title>
<path fill="none" stroke="midnightblue" d="M957.37,-168.08C953.99,-160.77 949.08,-150.18 944.88,-141.1"/>
<polygon fill="midnightblue" stroke="midnightblue" points="947.93,-139.36 940.55,-131.75 941.58,-142.3 947.93,-139.36"/>
</g>
<!-- Node19 -->
<g id="node19" class="node">
<title>Node19</title>
<g id="a_node19"><a xlink:title=" ">
<polygon fill="white" stroke="#bfbfbf" points="956.5,-56.5 956.5,-75.5 1064.5,-75.5 1064.5,-56.5 956.5,-56.5"/>
<text text-anchor="middle" x="1010.5" y="-63.5" font-family="Helvetica,sans-Serif" font-size="10.00">sml/math/rectangle.h</text>
</a>
</g>
</g>
<!-- Node17&#45;&gt;Node19 -->
<g id="edge19" class="edge">
<title>Node17&#45;&gt;Node19</title>
<path fill="none" stroke="midnightblue" d="M979,-168.46C992.29,-160.92 1009.58,-148.53 1017.5,-132 1024.47,-117.46 1021.55,-99.05 1017.57,-85.53"/>
<polygon fill="midnightblue" stroke="midnightblue" points="1020.84,-84.27 1014.32,-75.91 1014.2,-86.51 1020.84,-84.27"/>
</g>
<!-- Node20&#45;&gt;Node5 -->
<g id="edge22" class="edge">
<title>Node20&#45;&gt;Node5</title>
<path fill="none" stroke="midnightblue" d="M736.37,-170.44C709.41,-164.54 678.23,-153.32 657.5,-132 645.55,-119.71 640.72,-100.45 638.78,-86.09"/>
<polygon fill="midnightblue" stroke="midnightblue" points="642.23,-85.44 637.76,-75.84 635.27,-86.13 642.23,-85.44"/>
</g>
<!-- Node20&#45;&gt;Node19 -->
<g id="edge23" class="edge">
<title>Node20&#45;&gt;Node19</title>
<path fill="none" stroke="midnightblue" d="M796.82,-168.48C807.55,-154.6 830.71,-127.15 856.5,-112 884.54,-95.53 919.03,-84.73 948.25,-77.84"/>
<polygon fill="midnightblue" stroke="midnightblue" points="949.37,-81.18 958.35,-75.57 947.83,-74.35 949.37,-81.18"/>
</g>
<!-- Node21 -->
<g id="node21" class="node">
<title>Node21</title>
<g id="a_node21"><a xlink:href="fill_8h.html" target="_top" xlink:title=" ">
<polygon fill="white" stroke="black" points="773,-112.5 773,-131.5 808,-131.5 808,-112.5 773,-112.5"/>
<text text-anchor="middle" x="790.5" y="-119.5" font-family="Helvetica,sans-Serif" font-size="10.00">fill.h</text>
</a>
</g>
</g>
<!-- Node20&#45;&gt;Node21 -->
<g id="edge24" class="edge">
<title>Node20&#45;&gt;Node21</title>
<path fill="none" stroke="midnightblue" d="M790.5,-168.08C790.5,-161.01 790.5,-150.86 790.5,-141.99"/>
<polygon fill="midnightblue" stroke="midnightblue" points="794,-141.75 790.5,-131.75 787,-141.75 794,-141.75"/>
</g>
<!-- Node23 -->
<g id="node23" class="node">
<title>Node23</title>
<g id="a_node23"><a xlink:href="image_8h.html" target="_top" xlink:title=" ">
<polygon fill="white" stroke="black" points="666,-112.5 666,-131.5 755,-131.5 755,-112.5 666,-112.5"/>
<text text-anchor="middle" x="710.5" y="-119.5" font-family="Helvetica,sans-Serif" font-size="10.00">../media/image.h</text>
</a>
</g>
</g>
<!-- Node20&#45;&gt;Node23 -->
<g id="edge29" class="edge">
<title>Node20&#45;&gt;Node23</title>
<path fill="none" stroke="midnightblue" d="M777.65,-168.32C765.28,-159.98 746.37,-147.21 731.76,-137.35"/>
<polygon fill="midnightblue" stroke="midnightblue" points="733.57,-134.35 723.32,-131.65 729.65,-140.15 733.57,-134.35"/>
</g>
<!-- Node21&#45;&gt;Node5 -->
<g id="edge25" class="edge">
<title>Node21&#45;&gt;Node5</title>
<path fill="none" stroke="midnightblue" d="M772.95,-114.81C747.66,-105.88 700.58,-89.26 669.13,-78.16"/>
<polygon fill="midnightblue" stroke="midnightblue" points="670.12,-74.8 659.52,-74.77 667.79,-81.4 670.12,-74.8"/>
</g>
<!-- Node21&#45;&gt;Node14 -->
<g id="edge28" class="edge">
<title>Node21&#45;&gt;Node14</title>
<path fill="none" stroke="midnightblue" d="M784.56,-112.08C779.52,-104.53 772.16,-93.49 765.99,-84.23"/>
<polygon fill="midnightblue" stroke="midnightblue" points="768.79,-82.13 760.33,-75.75 762.97,-86.01 768.79,-82.13"/>
</g>
<!-- Node21&#45;&gt;Node19 -->
<g id="edge27" class="edge">
<title>Node21&#45;&gt;Node19</title>
<path fill="none" stroke="midnightblue" d="M808.07,-115.92C812.75,-114.61 817.81,-113.22 822.5,-112 870.2,-99.59 925.05,-86.61 963.15,-77.79"/>
<polygon fill="midnightblue" stroke="midnightblue" points="963.98,-81.19 972.94,-75.53 962.41,-74.37 963.98,-81.19"/>
</g>
<!-- Node22 -->
<g id="node22" class="node">
<title>Node22</title>
<g id="a_node22"><a xlink:title=" ">
<polygon fill="white" stroke="#bfbfbf" points="849,-56.5 849,-75.5 938,-75.5 938,-56.5 849,-56.5"/>
<text text-anchor="middle" x="893.5" y="-63.5" font-family="Helvetica,sans-Serif" font-size="10.00">sml/math/vec2.h</text>
</a>
</g>
</g>
<!-- Node21&#45;&gt;Node22 -->
<g id="edge26" class="edge">
<title>Node21&#45;&gt;Node22</title>
<path fill="none" stroke="midnightblue" d="M807.05,-112.32C823.49,-103.7 848.93,-90.36 867.97,-80.39"/>
<polygon fill="midnightblue" stroke="midnightblue" points="869.76,-83.4 876.99,-75.65 866.51,-77.2 869.76,-83.4"/>
</g>
<!-- Node23&#45;&gt;Node14 -->
<g id="edge30" class="edge">
<title>Node23&#45;&gt;Node14</title>
<path fill="none" stroke="midnightblue" d="M717.77,-112.08C724.04,-104.38 733.29,-93.03 740.93,-83.65"/>
<polygon fill="midnightblue" stroke="midnightblue" points="743.77,-85.71 747.37,-75.75 738.34,-81.29 743.77,-85.71"/>
</g>
</g>
</svg>
