<?xml version="1.0" encoding="UTF-8" standalone="no"?>
<!DOCTYPE svg PUBLIC "-//W3C//DTD SVG 1.1//EN"
 "http://www.w3.org/Graphics/SVG/1.1/DTD/svg11.dtd">
<!-- Generated by graphviz version 2.50.0 (20211204.2007)
 -->
<!-- Title: rectangle.cpp Pages: 1 -->
<!--zoomable 364 -->
<svg id="main" version="1.1" xmlns="http://www.w3.org/2000/svg" xmlns:xlink="http://www.w3.org/1999/xlink" xml:space="preserve" onload="init(evt)">
<style type="text/css"><![CDATA[
.edge:hover path { stroke: red; }
.edge:hover polygon { stroke: red; fill: red; }
]]></style>
<script type="text/javascript"><![CDATA[
var edges = document.getElementsByTagName('g');
if (edges && edges.length) {
  for (var i=0;i<edges.length;i++) {
    if (edges[i].id.substr(0,4)=='edge') {
      edges[i].setAttribute('class','edge');
    }
  }
}
]]></script>
        <defs>
                <circle id="rim" cx="0" cy="0" r="7"/>
                <circle id="rim2" cx="0" cy="0" r="3.5"/>
                <g id="zoomPlus">
                        <use xlink:href="#rim" fill="#404040">
                                <set attributeName="fill" to="#808080" begin="zoomplus.mouseover" end="zoomplus.mouseout"/>
                        </use>
                        <path d="M-4,0h8M0,-4v8" fill="none" stroke="white" stroke-width="1.5" pointer-events="none"/>
                </g>
                <g id="zoomMin">
                        <use xlink:href="#rim" fill="#404040">
                                <set attributeName="fill" to="#808080" begin="zoomminus.mouseover" end="zoomminus.mouseout"/>
                        </use>
                        <path d="M-4,0h8" fill="none" stroke="white" stroke-width="1.5" pointer-events="none"/>
                </g>
                <g id="dirArrow">
                        <path fill="none" stroke="white" stroke-width="1.5" d="M0,-3.0v7 M-2.5,-0.5L0,-3.0L2.5,-0.5"/>
                </g>
               <g id="resetDef">
                       <use xlink:href="#rim2" fill="#404040">
                               <set attributeName="fill" to="#808080" begin="reset.mouseover" end="reset.mouseout"/>
                       </use>
               </g>
        </defs>

<script type="text/javascript">
var viewWidth = 1270;
var viewHeight = 364;
var sectionId = 'dynsection-0';
</script>
<script xlink:href="svgpan.js"/>
<svg id="graph" class="graph">
<g id="viewport">
<title>rectangle.cpp</title>
<polygon fill="white" stroke="transparent" points="-4,4 -4,-360 1266,-360 1266,4 -4,4"/>
<!-- Node1 -->
<g id="node1" class="node">
<title>Node1</title>
<g id="a_node1"><a xlink:title=" ">
<polygon fill="#bfbfbf" stroke="black" points="1031.5,-336.5 1031.5,-355.5 1106.5,-355.5 1106.5,-336.5 1031.5,-336.5"/>
<text text-anchor="middle" x="1069" y="-343.5" font-family="Helvetica,sans-Serif" font-size="10.00">rectangle.cpp</text>
</a>
</g>
</g>
<!-- Node2 -->
<g id="node2" class="node">
<title>Node2</title>
<g id="a_node2"><a xlink:href="rectangle_8h.html" target="_top" xlink:title=" ">
<polygon fill="white" stroke="black" points="1005,-280.5 1005,-299.5 1133,-299.5 1133,-280.5 1005,-280.5"/>
<text text-anchor="middle" x="1069" y="-287.5" font-family="Helvetica,sans-Serif" font-size="10.00">scene/shapes/rectangle.h</text>
</a>
</g>
</g>
<!-- Node1&#45;&gt;Node2 -->
<g id="edge1" class="edge">
<title>Node1&#45;&gt;Node2</title>
<path fill="none" stroke="midnightblue" d="M1069,-336.08C1069,-329.01 1069,-318.86 1069,-309.99"/>
<polygon fill="midnightblue" stroke="midnightblue" points="1072.5,-309.75 1069,-299.75 1065.5,-309.75 1072.5,-309.75"/>
</g>
<!-- Node3 -->
<g id="node3" class="node">
<title>Node3</title>
<g id="a_node3"><a xlink:title=" ">
<polygon fill="white" stroke="#bfbfbf" points="1154,-56.5 1154,-75.5 1262,-75.5 1262,-56.5 1154,-56.5"/>
<text text-anchor="middle" x="1208" y="-63.5" font-family="Helvetica,sans-Serif" font-size="10.00">sml/math/rectangle.h</text>
</a>
</g>
</g>
<!-- Node2&#45;&gt;Node3 -->
<g id="edge2" class="edge">
<title>Node2&#45;&gt;Node3</title>
<path fill="none" stroke="midnightblue" d="M1075.48,-280.43C1092.88,-257.23 1141.61,-190.99 1176,-132 1185,-116.57 1193.86,-98.25 1199.97,-85"/>
<polygon fill="midnightblue" stroke="midnightblue" points="1203.29,-86.17 1204.23,-75.61 1196.91,-83.27 1203.29,-86.17"/>
</g>
<!-- Node4 -->
<g id="node4" class="node">
<title>Node4</title>
<g id="a_node4"><a xlink:href="shape_8h.html" target="_top" xlink:title=" ">
<polygon fill="white" stroke="black" points="899.5,-224.5 899.5,-243.5 950.5,-243.5 950.5,-224.5 899.5,-224.5"/>
<text text-anchor="middle" x="925" y="-231.5" font-family="Helvetica,sans-Serif" font-size="10.00">shape.h</text>
</a>
</g>
</g>
<!-- Node2&#45;&gt;Node4 -->
<g id="edge3" class="edge">
<title>Node2&#45;&gt;Node4</title>
<path fill="none" stroke="midnightblue" d="M1046.18,-280.44C1022.17,-271.44 984.17,-257.19 957.13,-247.05"/>
<polygon fill="midnightblue" stroke="midnightblue" points="958.3,-243.75 947.71,-243.52 955.84,-250.3 958.3,-243.75"/>
</g>
<!-- Node5 -->
<g id="node5" class="node">
<title>Node5</title>
<g id="a_node5"><a xlink:href="component_8h.html" target="_top" xlink:title=" ">
<polygon fill="white" stroke="black" points="527,-168.5 527,-187.5 609,-187.5 609,-168.5 527,-168.5"/>
<text text-anchor="middle" x="568" y="-175.5" font-family="Helvetica,sans-Serif" font-size="10.00">../component.h</text>
</a>
</g>
</g>
<!-- Node4&#45;&gt;Node5 -->
<g id="edge4" class="edge">
<title>Node4&#45;&gt;Node5</title>
<path fill="none" stroke="midnightblue" d="M899.33,-229.12C840.8,-220.26 696.6,-198.45 619.14,-186.74"/>
<polygon fill="midnightblue" stroke="midnightblue" points="619.54,-183.26 609.13,-185.22 618.49,-190.18 619.54,-183.26"/>
</g>
<!-- Node18 -->
<g id="node18" class="node">
<title>Node18</title>
<g id="a_node18"><a xlink:href="background_8h.html" target="_top" xlink:title=" ">
<polygon fill="white" stroke="black" points="952.5,-168.5 952.5,-187.5 1069.5,-187.5 1069.5,-168.5 952.5,-168.5"/>
<text text-anchor="middle" x="1011" y="-175.5" font-family="Helvetica,sans-Serif" font-size="10.00">../../paint/background.h</text>
</a>
</g>
</g>
<!-- Node4&#45;&gt;Node18 -->
<g id="edge18" class="edge">
<title>Node4&#45;&gt;Node18</title>
<path fill="none" stroke="midnightblue" d="M938.82,-224.32C952.23,-215.9 972.82,-202.97 988.59,-193.07"/>
<polygon fill="midnightblue" stroke="midnightblue" points="990.61,-195.94 997.22,-187.65 986.89,-190.01 990.61,-195.94"/>
</g>
<!-- Node22 -->
<g id="node22" class="node">
<title>Node22</title>
<g id="a_node22"><a xlink:href="border_8h.html" target="_top" xlink:title=" ">
<polygon fill="white" stroke="black" points="816.5,-168.5 816.5,-187.5 909.5,-187.5 909.5,-168.5 816.5,-168.5"/>
<text text-anchor="middle" x="863" y="-175.5" font-family="Helvetica,sans-Serif" font-size="10.00">../../paint/border.h</text>
</a>
</g>
</g>
<!-- Node4&#45;&gt;Node22 -->
<g id="edge28" class="edge">
<title>Node4&#45;&gt;Node22</title>
<path fill="none" stroke="midnightblue" d="M915.04,-224.32C905.87,-216.34 892.06,-204.31 880.97,-194.65"/>
<polygon fill="midnightblue" stroke="midnightblue" points="882.98,-191.76 873.14,-187.83 878.38,-197.04 882.98,-191.76"/>
</g>
<!-- Node6 -->
<g id="node6" class="node">
<title>Node6</title>
<g id="a_node6"><a xlink:title=" ">
<polygon fill="white" stroke="#bfbfbf" points="431,-112.5 431,-131.5 571,-131.5 571,-112.5 431,-112.5"/>
<text text-anchor="middle" x="501" y="-119.5" font-family="Helvetica,sans-Serif" font-size="10.00">sml/sml_graphics_wrapper.h</text>
</a>
</g>
</g>
<!-- Node5&#45;&gt;Node6 -->
<g id="edge5" class="edge">
<title>Node5&#45;&gt;Node6</title>
<path fill="none" stroke="midnightblue" d="M557.24,-168.32C547.23,-160.26 532.11,-148.08 520.07,-138.37"/>
<polygon fill="midnightblue" stroke="midnightblue" points="521.94,-135.38 511.96,-131.83 517.55,-140.83 521.94,-135.38"/>
</g>
<!-- Node7 -->
<g id="node7" class="node">
<title>Node7</title>
<g id="a_node7"><a xlink:href="gui__event__dispatching_8h.html" target="_top" xlink:title=" ">
<polygon fill="white" stroke="black" points="249.5,-112.5 249.5,-131.5 412.5,-131.5 412.5,-112.5 249.5,-112.5"/>
<text text-anchor="middle" x="331" y="-119.5" font-family="Helvetica,sans-Serif" font-size="10.00">../events/gui_event_dispatching.h</text>
</a>
</g>
</g>
<!-- Node5&#45;&gt;Node7 -->
<g id="edge6" class="edge">
<title>Node5&#45;&gt;Node7</title>
<path fill="none" stroke="midnightblue" d="M530.45,-168.44C489.19,-159.04 422.86,-143.93 378.13,-133.74"/>
<polygon fill="midnightblue" stroke="midnightblue" points="378.91,-130.33 368.38,-131.52 377.35,-137.15 378.91,-130.33"/>
</g>
<!-- Node15 -->
<g id="node15" class="node">
<title>Node15</title>
<g id="a_node15"><a xlink:href="shadow_8h.html" target="_top" xlink:title=" ">
<polygon fill="white" stroke="black" points="589,-112.5 589,-131.5 679,-131.5 679,-112.5 589,-112.5"/>
<text text-anchor="middle" x="634" y="-119.5" font-family="Helvetica,sans-Serif" font-size="10.00">../paint/shadow.h</text>
</a>
</g>
</g>
<!-- Node5&#45;&gt;Node15 -->
<g id="edge15" class="edge">
<title>Node5&#45;&gt;Node15</title>
<path fill="none" stroke="midnightblue" d="M578.6,-168.32C588.46,-160.26 603.35,-148.08 615.22,-138.37"/>
<polygon fill="midnightblue" stroke="midnightblue" points="617.68,-140.88 623.2,-131.83 613.25,-135.46 617.68,-140.88"/>
</g>
<!-- Node8 -->
<g id="node8" class="node">
<title>Node8</title>
<g id="a_node8"><a xlink:title=" ">
<polygon fill="white" stroke="#bfbfbf" points="813,-56.5 813,-75.5 857,-75.5 857,-56.5 813,-56.5"/>
<text text-anchor="middle" x="835" y="-63.5" font-family="Helvetica,sans-Serif" font-size="10.00">vector</text>
</a>
</g>
</g>
<!-- Node7&#45;&gt;Node8 -->
<g id="edge7" class="edge">
<title>Node7&#45;&gt;Node8</title>
<path fill="none" stroke="midnightblue" d="M412.89,-112.52C498.49,-103.62 636.7,-89.11 756,-76 771.31,-74.32 788.28,-72.39 802.55,-70.76"/>
<polygon fill="midnightblue" stroke="midnightblue" points="803.34,-74.19 812.87,-69.57 802.54,-67.23 803.34,-74.19"/>
</g>
<!-- Node9 -->
<g id="node9" class="node">
<title>Node9</title>
<g id="a_node9"><a xlink:title=" ">
<polygon fill="white" stroke="#bfbfbf" points="154.5,-56.5 154.5,-75.5 309.5,-75.5 309.5,-56.5 154.5,-56.5"/>
<text text-anchor="middle" x="232" y="-63.5" font-family="Helvetica,sans-Serif" font-size="10.00">sml/events/event_dispatching.h</text>
</a>
</g>
</g>
<!-- Node7&#45;&gt;Node9 -->
<g id="edge8" class="edge">
<title>Node7&#45;&gt;Node9</title>
<path fill="none" stroke="midnightblue" d="M315.09,-112.32C299.36,-103.74 275.06,-90.49 256.79,-80.52"/>
<polygon fill="midnightblue" stroke="midnightblue" points="258.32,-77.37 247.87,-75.65 254.97,-83.52 258.32,-77.37"/>
</g>
<!-- Node10 -->
<g id="node10" class="node">
<title>Node10</title>
<g id="a_node10"><a xlink:title=" ">
<polygon fill="white" stroke="#bfbfbf" points="327.5,-56.5 327.5,-75.5 468.5,-75.5 468.5,-56.5 327.5,-56.5"/>
<text text-anchor="middle" x="398" y="-63.5" font-family="Helvetica,sans-Serif" font-size="10.00">sml/events/listener_notifier.h</text>
</a>
</g>
</g>
<!-- Node7&#45;&gt;Node10 -->
<g id="edge9" class="edge">
<title>Node7&#45;&gt;Node10</title>
<path fill="none" stroke="midnightblue" d="M341.76,-112.32C351.77,-104.26 366.89,-92.08 378.93,-82.37"/>
<polygon fill="midnightblue" stroke="midnightblue" points="381.45,-84.83 387.04,-75.83 377.06,-79.38 381.45,-84.83"/>
</g>
<!-- Node11 -->
<g id="node11" class="node">
<title>Node11</title>
<g id="a_node11"><a xlink:title=" ">
<polygon fill="white" stroke="#bfbfbf" points="319.5,-0.5 319.5,-19.5 462.5,-19.5 462.5,-0.5 319.5,-0.5"/>
<text text-anchor="middle" x="391" y="-7.5" font-family="Helvetica,sans-Serif" font-size="10.00">sml/events/system_events.h</text>
</a>
</g>
</g>
<!-- Node7&#45;&gt;Node11 -->
<g id="edge10" class="edge">
<title>Node7&#45;&gt;Node11</title>
<path fill="none" stroke="midnightblue" d="M412.7,-114.34C437.31,-108.05 461.8,-96.59 477,-76 494,-52.97 459.99,-34.26 429.85,-22.92"/>
<polygon fill="midnightblue" stroke="midnightblue" points="430.87,-19.57 420.27,-19.51 428.52,-26.16 430.87,-19.57"/>
</g>
<!-- Node12 -->
<g id="node12" class="node">
<title>Node12</title>
<g id="a_node12"><a xlink:href="gui__event_8h.html" target="_top" xlink:title=" ">
<polygon fill="white" stroke="black" points="69.5,-56.5 69.5,-75.5 136.5,-75.5 136.5,-56.5 69.5,-56.5"/>
<text text-anchor="middle" x="103" y="-63.5" font-family="Helvetica,sans-Serif" font-size="10.00">gui_event.h</text>
</a>
</g>
</g>
<!-- Node7&#45;&gt;Node12 -->
<g id="edge11" class="edge">
<title>Node7&#45;&gt;Node12</title>
<path fill="none" stroke="midnightblue" d="M294.87,-112.44C254.65,-102.92 189.66,-87.52 146.63,-77.33"/>
<polygon fill="midnightblue" stroke="midnightblue" points="147.27,-73.89 136.73,-74.99 145.65,-80.7 147.27,-73.89"/>
</g>
<!-- Node12&#45;&gt;Node11 -->
<g id="edge13" class="edge">
<title>Node12&#45;&gt;Node11</title>
<path fill="none" stroke="midnightblue" d="M136.91,-57.64C139.64,-57.08 142.37,-56.52 145,-56 208.75,-43.34 282.05,-30.1 331.94,-21.29"/>
<polygon fill="midnightblue" stroke="midnightblue" points="332.67,-24.71 341.91,-19.53 331.45,-17.82 332.67,-24.71"/>
</g>
<!-- Node13 -->
<g id="node13" class="node">
<title>Node13</title>
<g id="a_node13"><a xlink:title=" ">
<polygon fill="white" stroke="#bfbfbf" points="0,-0.5 0,-19.5 100,-19.5 100,-0.5 0,-0.5"/>
<text text-anchor="middle" x="50" y="-7.5" font-family="Helvetica,sans-Serif" font-size="10.00">sml/events/event.h</text>
</a>
</g>
</g>
<!-- Node12&#45;&gt;Node13 -->
<g id="edge12" class="edge">
<title>Node12&#45;&gt;Node13</title>
<path fill="none" stroke="midnightblue" d="M94.25,-56.08C86.53,-48.22 75.1,-36.57 65.78,-27.08"/>
<polygon fill="midnightblue" stroke="midnightblue" points="68.09,-24.44 58.59,-19.75 63.1,-29.34 68.09,-24.44"/>
</g>
<!-- Node14 -->
<g id="node14" class="node">
<title>Node14</title>
<g id="a_node14"><a xlink:title=" ">
<polygon fill="white" stroke="#bfbfbf" points="118.5,-0.5 118.5,-19.5 195.5,-19.5 195.5,-0.5 118.5,-0.5"/>
<text text-anchor="middle" x="157" y="-7.5" font-family="Helvetica,sans-Serif" font-size="10.00">sml/sml_log.h</text>
</a>
</g>
</g>
<!-- Node12&#45;&gt;Node14 -->
<g id="edge14" class="edge">
<title>Node12&#45;&gt;Node14</title>
<path fill="none" stroke="midnightblue" d="M111.92,-56.08C119.78,-48.22 131.43,-36.57 140.92,-27.08"/>
<polygon fill="midnightblue" stroke="midnightblue" points="143.65,-29.3 148.25,-19.75 138.7,-24.35 143.65,-29.3"/>
</g>
<!-- Node16 -->
<g id="node16" class="node">
<title>Node16</title>
<g id="a_node16"><a xlink:title=" ">
<polygon fill="white" stroke="#bfbfbf" points="592.5,-56.5 592.5,-75.5 675.5,-75.5 675.5,-56.5 592.5,-56.5"/>
<text text-anchor="middle" x="634" y="-63.5" font-family="Helvetica,sans-Serif" font-size="10.00">sml/math/blur.h</text>
</a>
</g>
</g>
<!-- Node15&#45;&gt;Node16 -->
<g id="edge16" class="edge">
<title>Node15&#45;&gt;Node16</title>
<path fill="none" stroke="midnightblue" d="M634,-112.08C634,-105.01 634,-94.86 634,-85.99"/>
<polygon fill="midnightblue" stroke="midnightblue" points="637.5,-85.75 634,-75.75 630.5,-85.75 637.5,-85.75"/>
</g>
<!-- Node17 -->
<g id="node17" class="node">
<title>Node17</title>
<g id="a_node17"><a xlink:title=" ">
<polygon fill="white" stroke="#bfbfbf" points="875.5,-56.5 875.5,-75.5 1028.5,-75.5 1028.5,-56.5 875.5,-56.5"/>
<text text-anchor="middle" x="952" y="-63.5" font-family="Helvetica,sans-Serif" font-size="10.00">sml/graphics_wrapper/texture.h</text>
</a>
</g>
</g>
<!-- Node15&#45;&gt;Node17 -->
<g id="edge17" class="edge">
<title>Node15&#45;&gt;Node17</title>
<path fill="none" stroke="midnightblue" d="M679.22,-113.32C734.94,-103.86 829.79,-87.75 891.67,-77.24"/>
<polygon fill="midnightblue" stroke="midnightblue" points="892.41,-80.67 901.69,-75.54 891.24,-73.77 892.41,-80.67"/>
</g>
<!-- Node18&#45;&gt;Node3 -->
<g id="edge20" class="edge">
<title>Node18&#45;&gt;Node3</title>
<path fill="none" stroke="midnightblue" d="M1058.22,-168.5C1086.76,-161.79 1122.94,-150.42 1151,-132 1169.94,-119.57 1186.36,-99.2 1196.65,-84.58"/>
<polygon fill="midnightblue" stroke="midnightblue" points="1199.79,-86.18 1202.49,-75.94 1193.99,-82.26 1199.79,-86.18"/>
</g>
<!-- Node18&#45;&gt;Node8 -->
<g id="edge19" class="edge">
<title>Node18&#45;&gt;Node8</title>
<path fill="none" stroke="midnightblue" d="M999.54,-168.36C982.26,-155.47 948.33,-130.74 918,-112 899.47,-100.55 877.8,-88.86 861.26,-80.26"/>
<polygon fill="midnightblue" stroke="midnightblue" points="862.66,-77.05 852.17,-75.59 859.46,-83.27 862.66,-77.05"/>
</g>
<!-- Node19 -->
<g id="node19" class="node">
<title>Node19</title>
<g id="a_node19"><a xlink:href="fill_8h.html" target="_top" xlink:title=" ">
<polygon fill="white" stroke="black" points="1073.5,-112.5 1073.5,-131.5 1108.5,-131.5 1108.5,-112.5 1073.5,-112.5"/>
<text text-anchor="middle" x="1091" y="-119.5" font-family="Helvetica,sans-Serif" font-size="10.00">fill.h</text>
</a>
</g>
</g>
<!-- Node18&#45;&gt;Node19 -->
<g id="edge21" class="edge">
<title>Node18&#45;&gt;Node19</title>
<path fill="none" stroke="midnightblue" d="M1023.85,-168.32C1036.22,-159.98 1055.13,-147.21 1069.74,-137.35"/>
<polygon fill="midnightblue" stroke="midnightblue" points="1071.85,-140.15 1078.18,-131.65 1067.93,-134.35 1071.85,-140.15"/>
</g>
<!-- Node21 -->
<g id="node21" class="node">
<title>Node21</title>
<g id="a_node21"><a xlink:href="image_8h.html" target="_top" xlink:title=" ">
<polygon fill="white" stroke="black" points="966.5,-112.5 966.5,-131.5 1055.5,-131.5 1055.5,-112.5 966.5,-112.5"/>
<text text-anchor="middle" x="1011" y="-119.5" font-family="Helvetica,sans-Serif" font-size="10.00">../media/image.h</text>
</a>
</g>
</g>
<!-- Node18&#45;&gt;Node21 -->
<g id="edge26" class="edge">
<title>Node18&#45;&gt;Node21</title>
<path fill="none" stroke="midnightblue" d="M1011,-168.08C1011,-161.01 1011,-150.86 1011,-141.99"/>
<polygon fill="midnightblue" stroke="midnightblue" points="1014.5,-141.75 1011,-131.75 1007.5,-141.75 1014.5,-141.75"/>
</g>
<!-- Node19&#45;&gt;Node3 -->
<g id="edge24" class="edge">
<title>Node19&#45;&gt;Node3</title>
<path fill="none" stroke="midnightblue" d="M1108.52,-112.92C1127.4,-104.2 1157.72,-90.2 1179.94,-79.95"/>
<polygon fill="midnightblue" stroke="midnightblue" points="1181.59,-83.05 1189.2,-75.68 1178.65,-76.69 1181.59,-83.05"/>
</g>
<!-- Node19&#45;&gt;Node8 -->
<g id="edge22" class="edge">
<title>Node19&#45;&gt;Node8</title>
<path fill="none" stroke="midnightblue" d="M1073.39,-114.73C1070.28,-113.74 1067.06,-112.78 1064,-112 980.4,-90.58 954.85,-96.06 867.12,-76.06"/>
<polygon fill="midnightblue" stroke="midnightblue" points="867.81,-72.62 857.28,-73.76 866.22,-79.44 867.81,-72.62"/>
</g>
<!-- Node19&#45;&gt;Node17 -->
<g id="edge25" class="edge">
<title>Node19&#45;&gt;Node17</title>
<path fill="none" stroke="midnightblue" d="M1073.4,-114.16C1050.88,-105.42 1011.5,-90.11 983.7,-79.32"/>
<polygon fill="midnightblue" stroke="midnightblue" points="984.63,-75.92 974.04,-75.56 982.09,-82.44 984.63,-75.92"/>
</g>
<!-- Node20 -->
<g id="node20" class="node">
<title>Node20</title>
<g id="a_node20"><a xlink:title=" ">
<polygon fill="white" stroke="#bfbfbf" points="1046.5,-56.5 1046.5,-75.5 1135.5,-75.5 1135.5,-56.5 1046.5,-56.5"/>
<text text-anchor="middle" x="1091" y="-63.5" font-family="Helvetica,sans-Serif" font-size="10.00">sml/math/vec2.h</text>
</a>
</g>
</g>
<!-- Node19&#45;&gt;Node20 -->
<g id="edge23" class="edge">
<title>Node19&#45;&gt;Node20</title>
<path fill="none" stroke="midnightblue" d="M1091,-112.08C1091,-105.01 1091,-94.86 1091,-85.99"/>
<polygon fill="midnightblue" stroke="midnightblue" points="1094.5,-85.75 1091,-75.75 1087.5,-85.75 1094.5,-85.75"/>
</g>
<!-- Node21&#45;&gt;Node17 -->
<g id="edge27" class="edge">
<title>Node21&#45;&gt;Node17</title>
<path fill="none" stroke="midnightblue" d="M1001.52,-112.32C992.8,-104.34 979.66,-92.31 969.1,-82.65"/>
<polygon fill="midnightblue" stroke="midnightblue" points="971.39,-80 961.65,-75.83 966.67,-85.17 971.39,-80"/>
</g>
<!-- Node22&#45;&gt;Node3 -->
<g id="edge30" class="edge">
<title>Node22&#45;&gt;Node3</title>
<path fill="none" stroke="midnightblue" d="M909.67,-171.24C972.42,-163.08 1080.36,-147.4 1117,-132 1132.25,-125.59 1167.51,-98.92 1189.39,-81.8"/>
<polygon fill="midnightblue" stroke="midnightblue" points="1191.63,-84.49 1197.32,-75.55 1187.3,-78.99 1191.63,-84.49"/>
</g>
<!-- Node23 -->
<g id="node23" class="node">
<title>Node23</title>
<g id="a_node23"><a xlink:title=" ">
<polygon fill="white" stroke="#bfbfbf" points="766.5,-112.5 766.5,-131.5 909.5,-131.5 909.5,-112.5 766.5,-112.5"/>
<text text-anchor="middle" x="838" y="-119.5" font-family="Helvetica,sans-Serif" font-size="10.00">sml/graphics_wrapper/color.h</text>
</a>
</g>
</g>
<!-- Node22&#45;&gt;Node23 -->
<g id="edge29" class="edge">
<title>Node22&#45;&gt;Node23</title>
<path fill="none" stroke="midnightblue" d="M858.87,-168.08C855.49,-160.77 850.58,-150.18 846.38,-141.1"/>
<polygon fill="midnightblue" stroke="midnightblue" points="849.43,-139.36 842.05,-131.75 843.08,-142.3 849.43,-139.36"/>
</g>
<!-- Node24 -->
<g id="node24" class="node">
<title>Node24</title>
<g id="a_node24"><a xlink:href="insets_8h.html" target="_top" xlink:title=" ">
<polygon fill="white" stroke="black" points="697.5,-112.5 697.5,-131.5 748.5,-131.5 748.5,-112.5 697.5,-112.5"/>
<text text-anchor="middle" x="723" y="-119.5" font-family="Helvetica,sans-Serif" font-size="10.00">insets.h</text>
</a>
</g>
</g>
<!-- Node22&#45;&gt;Node24 -->
<g id="edge31" class="edge">
<title>Node22&#45;&gt;Node24</title>
<path fill="none" stroke="midnightblue" d="M840.82,-168.44C817.57,-159.48 780.85,-145.31 754.58,-135.18"/>
<polygon fill="midnightblue" stroke="midnightblue" points="755.67,-131.85 745.08,-131.52 753.15,-138.38 755.67,-131.85"/>
</g>
<!-- Node25 -->
<g id="node25" class="node">
<title>Node25</title>
<g id="a_node25"><a xlink:title=" ">
<polygon fill="white" stroke="#bfbfbf" points="698.5,-56.5 698.5,-75.5 747.5,-75.5 747.5,-56.5 698.5,-56.5"/>
<text text-anchor="middle" x="723" y="-63.5" font-family="Helvetica,sans-Serif" font-size="10.00">stdint.h</text>
</a>
</g>
</g>
<!-- Node24&#45;&gt;Node25 -->
<g id="edge32" class="edge">
<title>Node24&#45;&gt;Node25</title>
<path fill="none" stroke="midnightblue" d="M723,-112.08C723,-105.01 723,-94.86 723,-85.99"/>
<polygon fill="midnightblue" stroke="midnightblue" points="726.5,-85.75 723,-75.75 719.5,-85.75 726.5,-85.75"/>
</g>
</g>
</svg>
        <g id="navigator" transform="translate(0 0)" fill="#404254">
                <rect fill="#f2f5e9" fill-opacity="0.5" stroke="#606060" stroke-width=".5" x="0" y="0" width="60" height="60"/>
                <use id="zoomplus" xlink:href="#zoomPlus" x="17" y="9" onmousedown="handleZoom(evt,'in')"/>
                <use id="zoomminus" xlink:href="#zoomMin" x="42" y="9" onmousedown="handleZoom(evt,'out')"/>
                <use id="reset" xlink:href="#resetDef" x="30" y="36" onmousedown="handleReset()"/>
                <g id="arrowUp" xlink:href="#dirArrow" transform="translate(30 24)" onmousedown="handlePan(0,-1)">
                  <use xlink:href="#rim" fill="#404040">
                        <set attributeName="fill" to="#808080" begin="arrowUp.mouseover" end="arrowUp.mouseout"/>
                  </use>
                  <path fill="none" stroke="white" stroke-width="1.5" d="M0,-3.0v7 M-2.5,-0.5L0,-3.0L2.5,-0.5"/>
                </g>
                <g id="arrowRight" xlink:href="#dirArrow" transform="rotate(90) translate(36 -43)" onmousedown="handlePan(1,0)">
                  <use xlink:href="#rim" fill="#404040">
                        <set attributeName="fill" to="#808080" begin="arrowRight.mouseover" end="arrowRight.mouseout"/>
                  </use>
                  <path fill="none" stroke="white" stroke-width="1.5" d="M0,-3.0v7 M-2.5,-0.5L0,-3.0L2.5,-0.5"/>
                </g>
                <g id="arrowDown" xlink:href="#dirArrow" transform="rotate(180) translate(-30 -48)" onmousedown="handlePan(0,1)">
                  <use xlink:href="#rim" fill="#404040">
                        <set attributeName="fill" to="#808080" begin="arrowDown.mouseover" end="arrowDown.mouseout"/>
                  </use>
                  <path fill="none" stroke="white" stroke-width="1.5" d="M0,-3.0v7 M-2.5,-0.5L0,-3.0L2.5,-0.5"/>
                </g>
                <g id="arrowLeft" xlink:href="#dirArrow" transform="rotate(270) translate(-36 17)" onmousedown="handlePan(-1,0)">
                  <use xlink:href="#rim" fill="#404040">
                        <set attributeName="fill" to="#808080" begin="arrowLeft.mouseover" end="arrowLeft.mouseout"/>
                  </use>
                  <path fill="none" stroke="white" stroke-width="1.5" d="M0,-3.0v7 M-2.5,-0.5L0,-3.0L2.5,-0.5"/>
                </g>
        </g>
        <svg viewBox="0 0 15 15" width="100%" height="30px" preserveAspectRatio="xMaxYMin meet">
         <g id="arrow_out" transform="scale(0.3 0.3)">
          <a xlink:href="rectangle_8cpp__incl_org.svg" target="_base">
           <rect id="button" ry="5" rx="5" y="6" x="6" height="38" width="38"
                fill="#f2f5e9" fill-opacity="0.5" stroke="#606060" stroke-width="1.0"/>
           <path id="arrow"
             d="M 11.500037,31.436501 C 11.940474,20.09759 22.043105,11.32322 32.158766,21.979434 L 37.068811,17.246167 C 37.068811,17.246167 37.088388,32 37.088388,32 L 22.160133,31.978069 C 22.160133,31.978069 26.997745,27.140456 26.997745,27.140456 C 18.528582,18.264221 13.291696,25.230495 11.500037,31.436501 z"
             style="fill:#404040;"/>
          </a>
         </g>
        </svg>
</svg>
