<?xml version="1.0" encoding="UTF-8" standalone="no"?>
<!DOCTYPE svg PUBLIC "-//W3C//DTD SVG 1.1//EN"
 "http://www.w3.org/Graphics/SVG/1.1/DTD/svg11.dtd">
<!-- Generated by graphviz version 2.50.0 (20211204.2007)
 -->
<!-- Title: scene.h Pages: 1 -->
<svg width="1372pt" height="565pt"
 viewBox="0.00 0.00 1371.50 565.00" xmlns="http://www.w3.org/2000/svg" xmlns:xlink="http://www.w3.org/1999/xlink">
<g id="graph0" class="graph" transform="scale(1 1) rotate(0) translate(4 561)">
<title>scene.h</title>
<polygon fill="white" stroke="transparent" points="-4,4 -4,-561 1367.5,-561 1367.5,4 -4,4"/>
<!-- Node1 -->
<g id="node1" class="node">
<title>Node1</title>
<g id="a_node1"><a xlink:title=" ">
<polygon fill="#bfbfbf" stroke="black" points="473,-537.5 473,-556.5 524,-556.5 524,-537.5 473,-537.5"/>
<text text-anchor="middle" x="498.5" y="-544.5" font-family="Helvetica,sans-Serif" font-size="10.00">scene.h</text>
</a>
</g>
</g>
<!-- Node2 -->
<g id="node2" class="node">
<title>Node2</title>
<g id="a_node2"><a xlink:href="gui__event__dispatching_8h.html" target="_top" xlink:title=" ">
<polygon fill="white" stroke="black" points="200.5,-123.5 200.5,-153.5 300.5,-153.5 300.5,-123.5 200.5,-123.5"/>
<text text-anchor="start" x="208.5" y="-141.5" font-family="Helvetica,sans-Serif" font-size="10.00">../events/gui_event</text>
<text text-anchor="middle" x="250.5" y="-130.5" font-family="Helvetica,sans-Serif" font-size="10.00">_dispatching.h</text>
</a>
</g>
</g>
<!-- Node1&#45;&gt;Node2 -->
<g id="edge1" class="edge">
<title>Node1&#45;&gt;Node2</title>
<path fill="none" stroke="midnightblue" d="M472.94,-541.89C402.46,-529.85 210.5,-491.93 210.5,-436 210.5,-436 210.5,-436 210.5,-260.5 210.5,-224.91 226.29,-186.28 238.03,-162.48"/>
<polygon fill="midnightblue" stroke="midnightblue" points="241.17,-164.03 242.6,-153.53 234.93,-160.84 241.17,-164.03"/>
</g>
<!-- Node10 -->
<g id="node10" class="node">
<title>Node10</title>
<g id="a_node10"><a xlink:href="menu__bar_8h.html" target="_top" xlink:title=" ">
<polygon fill="white" stroke="black" points="822,-481.5 822,-500.5 937,-500.5 937,-481.5 822,-481.5"/>
<text text-anchor="middle" x="879.5" y="-488.5" font-family="Helvetica,sans-Serif" font-size="10.00">containers/menu_bar.h</text>
</a>
</g>
</g>
<!-- Node1&#45;&gt;Node10 -->
<g id="edge10" class="edge">
<title>Node1&#45;&gt;Node10</title>
<path fill="none" stroke="midnightblue" d="M524.09,-542.37C582.27,-534.13 726.05,-513.75 811.85,-501.59"/>
<polygon fill="midnightblue" stroke="midnightblue" points="812.35,-505.05 821.76,-500.18 811.37,-498.12 812.35,-505.05"/>
</g>
<!-- Node3 -->
<g id="node3" class="node">
<title>Node3</title>
<g id="a_node3"><a xlink:title=" ">
<polygon fill="white" stroke="#bfbfbf" points="413.5,-62 413.5,-81 457.5,-81 457.5,-62 413.5,-62"/>
<text text-anchor="middle" x="435.5" y="-69" font-family="Helvetica,sans-Serif" font-size="10.00">vector</text>
</a>
</g>
</g>
<!-- Node2&#45;&gt;Node3 -->
<g id="edge2" class="edge">
<title>Node2&#45;&gt;Node3</title>
<path fill="none" stroke="midnightblue" d="M294.08,-123.44C323.91,-113.65 364.28,-100.05 399.5,-87 401.35,-86.32 403.24,-85.6 405.15,-84.86"/>
<polygon fill="midnightblue" stroke="midnightblue" points="406.61,-88.05 414.64,-81.13 404.05,-81.54 406.61,-88.05"/>
</g>
<!-- Node4 -->
<g id="node4" class="node">
<title>Node4</title>
<g id="a_node4"><a xlink:title=" ">
<polygon fill="white" stroke="#bfbfbf" points="202,-62 202,-81 357,-81 357,-62 202,-62"/>
<text text-anchor="middle" x="279.5" y="-69" font-family="Helvetica,sans-Serif" font-size="10.00">sml/events/event_dispatching.h</text>
</a>
</g>
</g>
<!-- Node2&#45;&gt;Node4 -->
<g id="edge3" class="edge">
<title>Node2&#45;&gt;Node4</title>
<path fill="none" stroke="midnightblue" d="M256.79,-123.4C261.09,-113.76 266.82,-100.91 271.45,-90.54"/>
<polygon fill="midnightblue" stroke="midnightblue" points="274.74,-91.75 275.62,-81.19 268.35,-88.9 274.74,-91.75"/>
</g>
<!-- Node5 -->
<g id="node5" class="node">
<title>Node5</title>
<g id="a_node5"><a xlink:title=" ">
<polygon fill="white" stroke="#bfbfbf" points="0,-56.5 0,-86.5 99,-86.5 99,-56.5 0,-56.5"/>
<text text-anchor="start" x="8" y="-74.5" font-family="Helvetica,sans-Serif" font-size="10.00">sml/events/listener</text>
<text text-anchor="middle" x="49.5" y="-63.5" font-family="Helvetica,sans-Serif" font-size="10.00">_notifier.h</text>
</a>
</g>
</g>
<!-- Node2&#45;&gt;Node5 -->
<g id="edge4" class="edge">
<title>Node2&#45;&gt;Node5</title>
<path fill="none" stroke="midnightblue" d="M206.89,-123.4C176.33,-113.52 135.32,-100.25 102.82,-89.74"/>
<polygon fill="midnightblue" stroke="midnightblue" points="103.62,-86.32 93.03,-86.58 101.47,-92.98 103.62,-86.32"/>
</g>
<!-- Node6 -->
<g id="node6" class="node">
<title>Node6</title>
<g id="a_node6"><a xlink:title=" ">
<polygon fill="white" stroke="#bfbfbf" points="290,-0.5 290,-19.5 433,-19.5 433,-0.5 290,-0.5"/>
<text text-anchor="middle" x="361.5" y="-7.5" font-family="Helvetica,sans-Serif" font-size="10.00">sml/events/system_events.h</text>
</a>
</g>
</g>
<!-- Node2&#45;&gt;Node6 -->
<g id="edge5" class="edge">
<title>Node2&#45;&gt;Node6</title>
<path fill="none" stroke="midnightblue" d="M295.8,-123.5C324.65,-113.56 358.13,-99.77 366.5,-87 377.68,-69.94 373.57,-45.86 368.54,-29.4"/>
<polygon fill="midnightblue" stroke="midnightblue" points="371.82,-28.16 365.26,-19.84 365.2,-30.43 371.82,-28.16"/>
</g>
<!-- Node7 -->
<g id="node7" class="node">
<title>Node7</title>
<g id="a_node7"><a xlink:href="gui__event_8h.html" target="_top" xlink:title=" ">
<polygon fill="white" stroke="black" points="117,-62 117,-81 184,-81 184,-62 117,-62"/>
<text text-anchor="middle" x="150.5" y="-69" font-family="Helvetica,sans-Serif" font-size="10.00">gui_event.h</text>
</a>
</g>
</g>
<!-- Node2&#45;&gt;Node7 -->
<g id="edge6" class="edge">
<title>Node2&#45;&gt;Node7</title>
<path fill="none" stroke="midnightblue" d="M228.8,-123.4C212.03,-112.5 188.93,-97.48 172.17,-86.58"/>
<polygon fill="midnightblue" stroke="midnightblue" points="173.88,-83.52 163.59,-81.01 170.06,-89.39 173.88,-83.52"/>
</g>
<!-- Node7&#45;&gt;Node6 -->
<g id="edge8" class="edge">
<title>Node7&#45;&gt;Node6</title>
<path fill="none" stroke="midnightblue" d="M174.97,-61.95C181.01,-59.92 187.47,-57.82 193.5,-56 235.15,-43.41 283.14,-30.74 317.13,-22.06"/>
<polygon fill="midnightblue" stroke="midnightblue" points="318.38,-25.36 327.21,-19.5 316.66,-18.57 318.38,-25.36"/>
</g>
<!-- Node8 -->
<g id="node8" class="node">
<title>Node8</title>
<g id="a_node8"><a xlink:title=" ">
<polygon fill="white" stroke="#bfbfbf" points="124.5,-0.5 124.5,-19.5 224.5,-19.5 224.5,-0.5 124.5,-0.5"/>
<text text-anchor="middle" x="174.5" y="-7.5" font-family="Helvetica,sans-Serif" font-size="10.00">sml/events/event.h</text>
</a>
</g>
</g>
<!-- Node7&#45;&gt;Node8 -->
<g id="edge7" class="edge">
<title>Node7&#45;&gt;Node8</title>
<path fill="none" stroke="midnightblue" d="M153.94,-61.98C157.4,-53.4 162.83,-39.93 167.25,-28.98"/>
<polygon fill="midnightblue" stroke="midnightblue" points="170.57,-30.09 171.07,-19.51 164.08,-27.47 170.57,-30.09"/>
</g>
<!-- Node9 -->
<g id="node9" class="node">
<title>Node9</title>
<g id="a_node9"><a xlink:title=" ">
<polygon fill="white" stroke="#bfbfbf" points="29,-0.5 29,-19.5 106,-19.5 106,-0.5 29,-0.5"/>
<text text-anchor="middle" x="67.5" y="-7.5" font-family="Helvetica,sans-Serif" font-size="10.00">sml/sml_log.h</text>
</a>
</g>
</g>
<!-- Node7&#45;&gt;Node9 -->
<g id="edge9" class="edge">
<title>Node7&#45;&gt;Node9</title>
<path fill="none" stroke="midnightblue" d="M138.61,-61.98C125.3,-52.43 103.5,-36.81 87.54,-25.37"/>
<polygon fill="midnightblue" stroke="midnightblue" points="89.54,-22.49 79.37,-19.51 85.46,-28.18 89.54,-22.49"/>
</g>
<!-- Node11 -->
<g id="node11" class="node">
<title>Node11</title>
<g id="a_node11"><a xlink:href="button_8h.html" target="_top" xlink:title=" ">
<polygon fill="white" stroke="black" points="830.5,-425.5 830.5,-444.5 928.5,-444.5 928.5,-425.5 830.5,-425.5"/>
<text text-anchor="middle" x="879.5" y="-432.5" font-family="Helvetica,sans-Serif" font-size="10.00">../controls/button.h</text>
</a>
</g>
</g>
<!-- Node10&#45;&gt;Node11 -->
<g id="edge11" class="edge">
<title>Node10&#45;&gt;Node11</title>
<path fill="none" stroke="midnightblue" d="M879.5,-481.08C879.5,-474.01 879.5,-463.86 879.5,-454.99"/>
<polygon fill="midnightblue" stroke="midnightblue" points="883,-454.75 879.5,-444.75 876,-454.75 883,-454.75"/>
</g>
<!-- Node36 -->
<g id="node36" class="node">
<title>Node36</title>
<g id="a_node36"><a xlink:href="context__menu_8h.html" target="_top" xlink:title=" ">
<polygon fill="white" stroke="black" points="1014.5,-425.5 1014.5,-444.5 1100.5,-444.5 1100.5,-425.5 1014.5,-425.5"/>
<text text-anchor="middle" x="1057.5" y="-432.5" font-family="Helvetica,sans-Serif" font-size="10.00">context_menu.h</text>
</a>
</g>
</g>
<!-- Node10&#45;&gt;Node36 -->
<g id="edge58" class="edge">
<title>Node10&#45;&gt;Node36</title>
<path fill="none" stroke="midnightblue" d="M907.7,-481.44C937.91,-472.28 986.01,-457.69 1019.53,-447.52"/>
<polygon fill="midnightblue" stroke="midnightblue" points="1020.87,-450.77 1029.43,-444.52 1018.84,-444.07 1020.87,-450.77"/>
</g>
<!-- Node12 -->
<g id="node12" class="node">
<title>Node12</title>
<g id="a_node12"><a xlink:href="control_8h.html" target="_top" xlink:title=" ">
<polygon fill="white" stroke="black" points="918.5,-369.5 918.5,-388.5 972.5,-388.5 972.5,-369.5 918.5,-369.5"/>
<text text-anchor="middle" x="945.5" y="-376.5" font-family="Helvetica,sans-Serif" font-size="10.00">control.h</text>
</a>
</g>
</g>
<!-- Node11&#45;&gt;Node12 -->
<g id="edge12" class="edge">
<title>Node11&#45;&gt;Node12</title>
<path fill="none" stroke="midnightblue" d="M890.1,-425.32C899.96,-417.26 914.85,-405.08 926.72,-395.37"/>
<polygon fill="midnightblue" stroke="midnightblue" points="929.18,-397.88 934.7,-388.83 924.75,-392.46 929.18,-397.88"/>
</g>
<!-- Node30 -->
<g id="node30" class="node">
<title>Node30</title>
<g id="a_node30"><a xlink:href="default__skins_8h.html" target="_top" xlink:title=" ">
<polygon fill="white" stroke="black" points="756.5,-369.5 756.5,-388.5 872.5,-388.5 872.5,-369.5 756.5,-369.5"/>
<text text-anchor="middle" x="814.5" y="-376.5" font-family="Helvetica,sans-Serif" font-size="10.00">../style/default_skins.h</text>
</a>
</g>
</g>
<!-- Node11&#45;&gt;Node30 -->
<g id="edge39" class="edge">
<title>Node11&#45;&gt;Node30</title>
<path fill="none" stroke="midnightblue" d="M869.06,-425.32C859.35,-417.26 844.68,-405.08 833,-395.37"/>
<polygon fill="midnightblue" stroke="midnightblue" points="835.06,-392.53 825.13,-388.83 830.59,-397.92 835.06,-392.53"/>
</g>
<!-- Node13 -->
<g id="node13" class="node">
<title>Node13</title>
<g id="a_node13"><a xlink:href="parent_8h.html" target="_top" xlink:title=" ">
<polygon fill="white" stroke="black" points="936,-252 936,-271 997,-271 997,-252 936,-252"/>
<text text-anchor="middle" x="966.5" y="-259" font-family="Helvetica,sans-Serif" font-size="10.00">../parent.h</text>
</a>
</g>
</g>
<!-- Node12&#45;&gt;Node13 -->
<g id="edge13" class="edge">
<title>Node12&#45;&gt;Node13</title>
<path fill="none" stroke="midnightblue" d="M947.08,-369.32C950.47,-350.67 958.51,-306.44 963.11,-281.13"/>
<polygon fill="midnightblue" stroke="midnightblue" points="966.56,-281.75 964.9,-271.28 959.67,-280.49 966.56,-281.75"/>
</g>
<!-- Node28 -->
<g id="node28" class="node">
<title>Node28</title>
<g id="a_node28"><a xlink:href="skin_8h.html" target="_top" xlink:title=" ">
<polygon fill="white" stroke="black" points="1093.5,-313.5 1093.5,-332.5 1169.5,-332.5 1169.5,-313.5 1093.5,-313.5"/>
<text text-anchor="middle" x="1131.5" y="-320.5" font-family="Helvetica,sans-Serif" font-size="10.00">../style/skin.h</text>
</a>
</g>
</g>
<!-- Node12&#45;&gt;Node28 -->
<g id="edge36" class="edge">
<title>Node12&#45;&gt;Node28</title>
<path fill="none" stroke="midnightblue" d="M972.55,-370.15C1004.04,-361 1056.33,-345.82 1092.29,-335.38"/>
<polygon fill="midnightblue" stroke="midnightblue" points="1093.33,-338.72 1101.96,-332.58 1091.38,-332 1093.33,-338.72"/>
</g>
<!-- Node14 -->
<g id="node14" class="node">
<title>Node14</title>
<g id="a_node14"><a xlink:href="component_8h.html" target="_top" xlink:title=" ">
<polygon fill="white" stroke="black" points="552,-190.5 552,-209.5 625,-209.5 625,-190.5 552,-190.5"/>
<text text-anchor="middle" x="588.5" y="-197.5" font-family="Helvetica,sans-Serif" font-size="10.00">component.h</text>
</a>
</g>
</g>
<!-- Node13&#45;&gt;Node14 -->
<g id="edge14" class="edge">
<title>Node13&#45;&gt;Node14</title>
<path fill="none" stroke="midnightblue" d="M935.76,-256.27C878.68,-248.31 752.24,-230.24 635,-210.02"/>
<polygon fill="midnightblue" stroke="midnightblue" points="635.58,-206.57 625.13,-208.31 634.39,-213.47 635.58,-206.57"/>
</g>
<!-- Node19 -->
<g id="node19" class="node">
<title>Node19</title>
<g id="a_node19"><a xlink:href="insets_8h.html" target="_top" xlink:title=" ">
<polygon fill="white" stroke="black" points="1027.5,-129 1027.5,-148 1111.5,-148 1111.5,-129 1027.5,-129"/>
<text text-anchor="middle" x="1069.5" y="-136" font-family="Helvetica,sans-Serif" font-size="10.00">../paint/insets.h</text>
</a>
</g>
</g>
<!-- Node13&#45;&gt;Node19 -->
<g id="edge20" class="edge">
<title>Node13&#45;&gt;Node19</title>
<path fill="none" stroke="midnightblue" d="M973.91,-251.8C990.98,-231.74 1033.33,-181.99 1055.49,-155.96"/>
<polygon fill="midnightblue" stroke="midnightblue" points="1058.34,-158.01 1062.16,-148.12 1053.01,-153.47 1058.34,-158.01"/>
</g>
<!-- Node21 -->
<g id="node21" class="node">
<title>Node21</title>
<g id="a_node21"><a xlink:href="border_8h.html" target="_top" xlink:title=" ">
<polygon fill="white" stroke="black" points="904.5,-190.5 904.5,-209.5 988.5,-209.5 988.5,-190.5 904.5,-190.5"/>
<text text-anchor="middle" x="946.5" y="-197.5" font-family="Helvetica,sans-Serif" font-size="10.00">../paint/border.h</text>
</a>
</g>
</g>
<!-- Node13&#45;&gt;Node21 -->
<g id="edge22" class="edge">
<title>Node13&#45;&gt;Node21</title>
<path fill="none" stroke="midnightblue" d="M963.63,-251.98C960.78,-243.49 956.32,-230.2 952.66,-219.32"/>
<polygon fill="midnightblue" stroke="midnightblue" points="955.86,-217.87 949.36,-209.51 949.23,-220.1 955.86,-217.87"/>
</g>
<!-- Node24 -->
<g id="node24" class="node">
<title>Node24</title>
<g id="a_node24"><a xlink:href="background_8h.html" target="_top" xlink:title=" ">
<polygon fill="white" stroke="black" points="643.5,-190.5 643.5,-209.5 751.5,-209.5 751.5,-190.5 643.5,-190.5"/>
<text text-anchor="middle" x="697.5" y="-197.5" font-family="Helvetica,sans-Serif" font-size="10.00">../paint/background.h</text>
</a>
</g>
</g>
<!-- Node13&#45;&gt;Node24 -->
<g id="edge26" class="edge">
<title>Node13&#45;&gt;Node24</title>
<path fill="none" stroke="midnightblue" d="M935.9,-253.73C889.62,-243.5 801.38,-223.98 746.2,-211.77"/>
<polygon fill="midnightblue" stroke="midnightblue" points="746.82,-208.33 736.3,-209.58 745.31,-215.16 746.82,-208.33"/>
</g>
<!-- Node14&#45;&gt;Node2 -->
<g id="edge16" class="edge">
<title>Node14&#45;&gt;Node2</title>
<path fill="none" stroke="midnightblue" d="M551.77,-194.04C500.13,-186.87 402.95,-172.59 310.71,-154.15"/>
<polygon fill="midnightblue" stroke="midnightblue" points="311.14,-150.67 300.65,-152.12 309.76,-157.53 311.14,-150.67"/>
</g>
<!-- Node15 -->
<g id="node15" class="node">
<title>Node15</title>
<g id="a_node15"><a xlink:title=" ">
<polygon fill="white" stroke="#bfbfbf" points="318.5,-129 318.5,-148 458.5,-148 458.5,-129 318.5,-129"/>
<text text-anchor="middle" x="388.5" y="-136" font-family="Helvetica,sans-Serif" font-size="10.00">sml/sml_graphics_wrapper.h</text>
</a>
</g>
</g>
<!-- Node14&#45;&gt;Node15 -->
<g id="edge15" class="edge">
<title>Node14&#45;&gt;Node15</title>
<path fill="none" stroke="midnightblue" d="M559.84,-190.48C524.94,-180.09 465.85,-162.51 427,-150.95"/>
<polygon fill="midnightblue" stroke="midnightblue" points="427.68,-147.51 417.1,-148.01 425.69,-154.22 427.68,-147.51"/>
</g>
<!-- Node16 -->
<g id="node16" class="node">
<title>Node16</title>
<g id="a_node16"><a xlink:href="shadow_8h.html" target="_top" xlink:title=" ">
<polygon fill="white" stroke="black" points="675.5,-129 675.5,-148 765.5,-148 765.5,-129 675.5,-129"/>
<text text-anchor="middle" x="720.5" y="-136" font-family="Helvetica,sans-Serif" font-size="10.00">../paint/shadow.h</text>
</a>
</g>
</g>
<!-- Node14&#45;&gt;Node16 -->
<g id="edge17" class="edge">
<title>Node14&#45;&gt;Node16</title>
<path fill="none" stroke="midnightblue" d="M607.41,-190.48C629.66,-180.45 666.81,-163.7 692.43,-152.15"/>
<polygon fill="midnightblue" stroke="midnightblue" points="693.94,-155.31 701.62,-148.01 691.07,-148.93 693.94,-155.31"/>
</g>
<!-- Node17 -->
<g id="node17" class="node">
<title>Node17</title>
<g id="a_node17"><a xlink:title=" ">
<polygon fill="white" stroke="#bfbfbf" points="714,-62 714,-81 797,-81 797,-62 714,-62"/>
<text text-anchor="middle" x="755.5" y="-69" font-family="Helvetica,sans-Serif" font-size="10.00">sml/math/blur.h</text>
</a>
</g>
</g>
<!-- Node16&#45;&gt;Node17 -->
<g id="edge18" class="edge">
<title>Node16&#45;&gt;Node17</title>
<path fill="none" stroke="midnightblue" d="M725.22,-128.73C730.52,-118.89 739.26,-102.66 745.99,-90.16"/>
<polygon fill="midnightblue" stroke="midnightblue" points="749.2,-91.59 750.85,-81.13 743.03,-88.27 749.2,-91.59"/>
</g>
<!-- Node18 -->
<g id="node18" class="node">
<title>Node18</title>
<g id="a_node18"><a xlink:title=" ">
<polygon fill="white" stroke="#bfbfbf" points="583.5,-56.5 583.5,-86.5 695.5,-86.5 695.5,-56.5 583.5,-56.5"/>
<text text-anchor="start" x="591.5" y="-74.5" font-family="Helvetica,sans-Serif" font-size="10.00">sml/graphics_wrapper</text>
<text text-anchor="middle" x="639.5" y="-63.5" font-family="Helvetica,sans-Serif" font-size="10.00">/texture.h</text>
</a>
</g>
</g>
<!-- Node16&#45;&gt;Node18 -->
<g id="edge19" class="edge">
<title>Node16&#45;&gt;Node18</title>
<path fill="none" stroke="midnightblue" d="M709.58,-128.73C698.21,-119.61 680,-105 665,-92.96"/>
<polygon fill="midnightblue" stroke="midnightblue" points="667.05,-90.12 657.06,-86.59 662.67,-95.58 667.05,-90.12"/>
</g>
<!-- Node20 -->
<g id="node20" class="node">
<title>Node20</title>
<g id="a_node20"><a xlink:title=" ">
<polygon fill="white" stroke="#bfbfbf" points="1045,-62 1045,-81 1094,-81 1094,-62 1045,-62"/>
<text text-anchor="middle" x="1069.5" y="-69" font-family="Helvetica,sans-Serif" font-size="10.00">stdint.h</text>
</a>
</g>
</g>
<!-- Node19&#45;&gt;Node20 -->
<g id="edge21" class="edge">
<title>Node19&#45;&gt;Node20</title>
<path fill="none" stroke="midnightblue" d="M1069.5,-128.73C1069.5,-119.18 1069.5,-103.62 1069.5,-91.28"/>
<polygon fill="midnightblue" stroke="midnightblue" points="1073,-91.13 1069.5,-81.13 1066,-91.13 1073,-91.13"/>
</g>
<!-- Node21&#45;&gt;Node19 -->
<g id="edge25" class="edge">
<title>Node21&#45;&gt;Node19</title>
<path fill="none" stroke="midnightblue" d="M964.12,-190.48C984.67,-180.53 1018.86,-163.99 1042.71,-152.46"/>
<polygon fill="midnightblue" stroke="midnightblue" points="1044.43,-155.51 1051.91,-148.01 1041.38,-149.21 1044.43,-155.51"/>
</g>
<!-- Node22 -->
<g id="node22" class="node">
<title>Node22</title>
<g id="a_node22"><a xlink:title=" ">
<polygon fill="white" stroke="#bfbfbf" points="897.5,-123.5 897.5,-153.5 1009.5,-153.5 1009.5,-123.5 897.5,-123.5"/>
<text text-anchor="start" x="905.5" y="-141.5" font-family="Helvetica,sans-Serif" font-size="10.00">sml/graphics_wrapper</text>
<text text-anchor="middle" x="953.5" y="-130.5" font-family="Helvetica,sans-Serif" font-size="10.00">/color.h</text>
</a>
</g>
</g>
<!-- Node21&#45;&gt;Node22 -->
<g id="edge23" class="edge">
<title>Node21&#45;&gt;Node22</title>
<path fill="none" stroke="midnightblue" d="M947.5,-190.48C948.33,-183.47 949.54,-173.19 950.65,-163.7"/>
<polygon fill="midnightblue" stroke="midnightblue" points="954.16,-163.86 951.85,-153.52 947.21,-163.05 954.16,-163.86"/>
</g>
<!-- Node23 -->
<g id="node23" class="node">
<title>Node23</title>
<g id="a_node23"><a xlink:title=" ">
<polygon fill="white" stroke="#bfbfbf" points="815.5,-62 815.5,-81 923.5,-81 923.5,-62 815.5,-62"/>
<text text-anchor="middle" x="869.5" y="-69" font-family="Helvetica,sans-Serif" font-size="10.00">sml/math/rectangle.h</text>
</a>
</g>
</g>
<!-- Node21&#45;&gt;Node23 -->
<g id="edge24" class="edge">
<title>Node21&#45;&gt;Node23</title>
<path fill="none" stroke="midnightblue" d="M929.94,-190.37C916.71,-182.61 898.75,-169.99 888.5,-154 876.22,-134.84 871.85,-108.6 870.31,-91.13"/>
<polygon fill="midnightblue" stroke="midnightblue" points="873.8,-90.83 869.66,-81.08 866.82,-91.28 873.8,-90.83"/>
</g>
<!-- Node24&#45;&gt;Node3 -->
<g id="edge27" class="edge">
<title>Node24&#45;&gt;Node3</title>
<path fill="none" stroke="midnightblue" d="M645.55,-190.46C597.33,-181.87 529.62,-167.94 506.5,-154 479.95,-137.99 458.1,-108.7 445.94,-89.94"/>
<polygon fill="midnightblue" stroke="midnightblue" points="448.76,-87.84 440.49,-81.22 442.82,-91.55 448.76,-87.84"/>
</g>
<!-- Node24&#45;&gt;Node23 -->
<g id="edge28" class="edge">
<title>Node24&#45;&gt;Node23</title>
<path fill="none" stroke="midnightblue" d="M714.26,-190.34C730.23,-181.83 754.7,-168.1 774.5,-154 803.66,-133.23 834.64,-105.43 853.01,-88.26"/>
<polygon fill="midnightblue" stroke="midnightblue" points="855.65,-90.59 860.52,-81.18 850.84,-85.5 855.65,-90.59"/>
</g>
<!-- Node25 -->
<g id="node25" class="node">
<title>Node25</title>
<g id="a_node25"><a xlink:href="fill_8h.html" target="_top" xlink:title=" ">
<polygon fill="white" stroke="black" points="622,-129 622,-148 657,-148 657,-129 622,-129"/>
<text text-anchor="middle" x="639.5" y="-136" font-family="Helvetica,sans-Serif" font-size="10.00">fill.h</text>
</a>
</g>
</g>
<!-- Node24&#45;&gt;Node25 -->
<g id="edge29" class="edge">
<title>Node24&#45;&gt;Node25</title>
<path fill="none" stroke="midnightblue" d="M689.19,-190.48C680.32,-181.37 666.05,-166.74 655.08,-155.48"/>
<polygon fill="midnightblue" stroke="midnightblue" points="657.28,-152.73 647.79,-148.01 652.27,-157.61 657.28,-152.73"/>
</g>
<!-- Node27 -->
<g id="node27" class="node">
<title>Node27</title>
<g id="a_node27"><a xlink:href="image_8h.html" target="_top" xlink:title=" ">
<polygon fill="white" stroke="black" points="515,-129 515,-148 604,-148 604,-129 515,-129"/>
<text text-anchor="middle" x="559.5" y="-136" font-family="Helvetica,sans-Serif" font-size="10.00">../media/image.h</text>
</a>
</g>
</g>
<!-- Node24&#45;&gt;Node27 -->
<g id="edge34" class="edge">
<title>Node24&#45;&gt;Node27</title>
<path fill="none" stroke="midnightblue" d="M677.73,-190.48C654.36,-180.4 615.29,-163.55 588.5,-152"/>
<polygon fill="midnightblue" stroke="midnightblue" points="589.8,-148.75 579.24,-148.01 587.03,-155.18 589.8,-148.75"/>
</g>
<!-- Node25&#45;&gt;Node3 -->
<g id="edge30" class="edge">
<title>Node25&#45;&gt;Node3</title>
<path fill="none" stroke="midnightblue" d="M625.8,-128.96C621.93,-126.8 617.64,-124.63 613.5,-123 551.32,-98.51 530.65,-108.88 467.5,-87 465.84,-86.42 464.14,-85.79 462.44,-85.13"/>
<polygon fill="midnightblue" stroke="midnightblue" points="463.44,-81.75 452.87,-81.07 460.71,-88.19 463.44,-81.75"/>
</g>
<!-- Node25&#45;&gt;Node18 -->
<g id="edge33" class="edge">
<title>Node25&#45;&gt;Node18</title>
<path fill="none" stroke="midnightblue" d="M639.5,-128.73C639.5,-120.54 639.5,-107.92 639.5,-96.71"/>
<polygon fill="midnightblue" stroke="midnightblue" points="643,-96.59 639.5,-86.59 636,-96.59 643,-96.59"/>
</g>
<!-- Node25&#45;&gt;Node23 -->
<g id="edge32" class="edge">
<title>Node25&#45;&gt;Node23</title>
<path fill="none" stroke="midnightblue" d="M653.76,-128.99C657.78,-126.82 662.23,-124.65 666.5,-123 681.09,-117.37 767.98,-96.45 823.25,-83.36"/>
<polygon fill="midnightblue" stroke="midnightblue" points="824.25,-86.72 833.18,-81.02 822.64,-79.91 824.25,-86.72"/>
</g>
<!-- Node26 -->
<g id="node26" class="node">
<title>Node26</title>
<g id="a_node26"><a xlink:title=" ">
<polygon fill="white" stroke="#bfbfbf" points="476,-62 476,-81 565,-81 565,-62 476,-62"/>
<text text-anchor="middle" x="520.5" y="-69" font-family="Helvetica,sans-Serif" font-size="10.00">sml/math/vec2.h</text>
</a>
</g>
</g>
<!-- Node25&#45;&gt;Node26 -->
<g id="edge31" class="edge">
<title>Node25&#45;&gt;Node26</title>
<path fill="none" stroke="midnightblue" d="M624.12,-128.88C620.63,-126.94 616.94,-124.89 613.5,-123 590.37,-110.27 563.9,-95.92 545.13,-85.78"/>
<polygon fill="midnightblue" stroke="midnightblue" points="546.79,-82.69 536.33,-81.02 543.46,-88.85 546.79,-82.69"/>
</g>
<!-- Node27&#45;&gt;Node18 -->
<g id="edge35" class="edge">
<title>Node27&#45;&gt;Node18</title>
<path fill="none" stroke="midnightblue" d="M570.29,-128.73C581.52,-119.61 599.5,-105 614.31,-92.96"/>
<polygon fill="midnightblue" stroke="midnightblue" points="616.61,-95.61 622.16,-86.59 612.19,-90.18 616.61,-95.61"/>
</g>
<!-- Node28&#45;&gt;Node19 -->
<g id="edge38" class="edge">
<title>Node28&#45;&gt;Node19</title>
<path fill="none" stroke="midnightblue" d="M1163.68,-313.49C1182.04,-306.8 1203.52,-295.45 1214.5,-277 1221.55,-265.16 1220.72,-258.29 1214.5,-246 1190.9,-199.39 1136.23,-168.22 1101.18,-152.21"/>
<polygon fill="midnightblue" stroke="midnightblue" points="1102.41,-148.93 1091.85,-148.1 1099.59,-155.34 1102.41,-148.93"/>
</g>
<!-- Node29 -->
<g id="node29" class="node">
<title>Node29</title>
<g id="a_node29"><a xlink:title=" ">
<polygon fill="white" stroke="#bfbfbf" points="1093.5,-246.5 1093.5,-276.5 1205.5,-276.5 1205.5,-246.5 1093.5,-246.5"/>
<text text-anchor="start" x="1101.5" y="-264.5" font-family="Helvetica,sans-Serif" font-size="10.00">sml/graphics_wrapper</text>
<text text-anchor="middle" x="1149.5" y="-253.5" font-family="Helvetica,sans-Serif" font-size="10.00">/renderer.h</text>
</a>
</g>
</g>
<!-- Node28&#45;&gt;Node29 -->
<g id="edge37" class="edge">
<title>Node28&#45;&gt;Node29</title>
<path fill="none" stroke="midnightblue" d="M1134.08,-313.48C1136.22,-306.4 1139.37,-295.97 1142.27,-286.39"/>
<polygon fill="midnightblue" stroke="midnightblue" points="1145.71,-287.11 1145.26,-276.52 1139.01,-285.08 1145.71,-287.11"/>
</g>
<!-- Node30&#45;&gt;Node5 -->
<g id="edge40" class="edge">
<title>Node30&#45;&gt;Node5</title>
<path fill="none" stroke="midnightblue" d="M756.35,-372.9C702.48,-367.03 620.62,-355.21 552.5,-333 361.13,-270.6 154.23,-141.46 78.97,-92.19"/>
<polygon fill="midnightblue" stroke="midnightblue" points="80.73,-89.16 70.45,-86.58 76.88,-95 80.73,-89.16"/>
</g>
<!-- Node30&#45;&gt;Node16 -->
<g id="edge56" class="edge">
<title>Node30&#45;&gt;Node16</title>
<path fill="none" stroke="midnightblue" d="M824.66,-369.19C833.41,-360.87 845.4,-347.54 850.5,-333 853.44,-324.61 852.77,-321.59 850.5,-313 832.34,-244.18 770.08,-182.36 738.77,-154.75"/>
<polygon fill="midnightblue" stroke="midnightblue" points="741.03,-152.08 731.18,-148.19 736.46,-157.38 741.03,-152.08"/>
</g>
<!-- Node30&#45;&gt;Node19 -->
<g id="edge55" class="edge">
<title>Node30&#45;&gt;Node19</title>
<path fill="none" stroke="midnightblue" d="M872.58,-370.34C937.37,-361.24 1034.7,-345.7 1046.5,-333 1091.58,-284.49 1081.17,-197.03 1073.77,-158.55"/>
<polygon fill="midnightblue" stroke="midnightblue" points="1077.1,-157.35 1071.63,-148.28 1070.24,-158.78 1077.1,-157.35"/>
</g>
<!-- Node30&#45;&gt;Node21 -->
<g id="edge54" class="edge">
<title>Node30&#45;&gt;Node21</title>
<path fill="none" stroke="midnightblue" d="M833.23,-369.39C848.39,-361.65 869.46,-349.03 883.5,-333 891.61,-323.74 923.59,-252.75 938.62,-218.88"/>
<polygon fill="midnightblue" stroke="midnightblue" points="941.85,-220.23 942.69,-209.67 935.45,-217.4 941.85,-220.23"/>
</g>
<!-- Node30&#45;&gt;Node24 -->
<g id="edge53" class="edge">
<title>Node30&#45;&gt;Node24</title>
<path fill="none" stroke="midnightblue" d="M756.09,-371.55C706.17,-364.8 639.63,-352.44 621.5,-333 594.99,-304.57 592.45,-279.3 612.5,-246 621.79,-230.57 638.33,-220.16 654.37,-213.27"/>
<polygon fill="midnightblue" stroke="midnightblue" points="655.67,-216.52 663.7,-209.61 653.11,-210.01 655.67,-216.52"/>
</g>
<!-- Node30&#45;&gt;Node28 -->
<g id="edge57" class="edge">
<title>Node30&#45;&gt;Node28</title>
<path fill="none" stroke="midnightblue" d="M865.31,-369.42C918.66,-360.4 1004.99,-345.77 1079.5,-333 1080.77,-332.78 1082.06,-332.56 1083.36,-332.34"/>
<polygon fill="midnightblue" stroke="midnightblue" points="1084.19,-335.75 1093.45,-330.6 1083,-328.85 1084.19,-335.75"/>
</g>
<!-- Node31 -->
<g id="node31" class="node">
<title>Node31</title>
<g id="a_node31"><a xlink:href="image__view_8h.html" target="_top" xlink:title=" ">
<polygon fill="white" stroke="black" points="481.5,-252 481.5,-271 565.5,-271 565.5,-252 481.5,-252"/>
<text text-anchor="middle" x="523.5" y="-259" font-family="Helvetica,sans-Serif" font-size="10.00">../image_view.h</text>
</a>
</g>
</g>
<!-- Node30&#45;&gt;Node31 -->
<g id="edge41" class="edge">
<title>Node30&#45;&gt;Node31</title>
<path fill="none" stroke="midnightblue" d="M756.4,-377.94C706.23,-375.43 633.51,-365.7 579.5,-333 558.46,-320.26 542.13,-296.55 532.67,-280.17"/>
<polygon fill="midnightblue" stroke="midnightblue" points="535.56,-278.16 527.68,-271.07 529.42,-281.53 535.56,-278.16"/>
</g>
<!-- Node32 -->
<g id="node32" class="node">
<title>Node32</title>
<g id="a_node32"><a xlink:href="text_8h.html" target="_top" xlink:title=" ">
<polygon fill="white" stroke="black" points="630,-313.5 630,-332.5 715,-332.5 715,-313.5 630,-313.5"/>
<text text-anchor="middle" x="672.5" y="-320.5" font-family="Helvetica,sans-Serif" font-size="10.00">../shapes/text.h</text>
</a>
</g>
</g>
<!-- Node30&#45;&gt;Node32 -->
<g id="edge44" class="edge">
<title>Node30&#45;&gt;Node32</title>
<path fill="none" stroke="midnightblue" d="M792,-369.44C768.42,-360.48 731.18,-346.31 704.54,-336.18"/>
<polygon fill="midnightblue" stroke="midnightblue" points="705.49,-332.8 694.9,-332.52 703,-339.34 705.49,-332.8"/>
</g>
<!-- Node35 -->
<g id="node35" class="node">
<title>Node35</title>
<g id="a_node35"><a xlink:href="rectangle_8h.html" target="_top" xlink:title=" ">
<polygon fill="white" stroke="black" points="733.5,-313.5 733.5,-332.5 841.5,-332.5 841.5,-313.5 733.5,-313.5"/>
<text text-anchor="middle" x="787.5" y="-320.5" font-family="Helvetica,sans-Serif" font-size="10.00">../shapes/rectangle.h</text>
</a>
</g>
</g>
<!-- Node30&#45;&gt;Node35 -->
<g id="edge50" class="edge">
<title>Node30&#45;&gt;Node35</title>
<path fill="none" stroke="midnightblue" d="M810.04,-369.08C806.35,-361.69 800.98,-350.95 796.41,-341.81"/>
<polygon fill="midnightblue" stroke="midnightblue" points="799.48,-340.13 791.88,-332.75 793.22,-343.26 799.48,-340.13"/>
</g>
<!-- Node31&#45;&gt;Node14 -->
<g id="edge42" class="edge">
<title>Node31&#45;&gt;Node14</title>
<path fill="none" stroke="midnightblue" d="M532.81,-251.98C542.95,-242.7 559.36,-227.67 571.75,-216.33"/>
<polygon fill="midnightblue" stroke="midnightblue" points="574.19,-218.84 579.2,-209.51 569.46,-213.68 574.19,-218.84"/>
</g>
<!-- Node31&#45;&gt;Node27 -->
<g id="edge43" class="edge">
<title>Node31&#45;&gt;Node27</title>
<path fill="none" stroke="midnightblue" d="M525.88,-251.79C529.54,-238.45 536.84,-212.18 543.5,-190 546.73,-179.25 550.51,-167.27 553.59,-157.68"/>
<polygon fill="midnightblue" stroke="midnightblue" points="556.96,-158.65 556.7,-148.05 550.3,-156.49 556.96,-158.65"/>
</g>
<!-- Node33 -->
<g id="node33" class="node">
<title>Node33</title>
<g id="a_node33"><a xlink:title=" ">
<polygon fill="white" stroke="#bfbfbf" points="621.5,-246.5 621.5,-276.5 733.5,-276.5 733.5,-246.5 621.5,-246.5"/>
<text text-anchor="start" x="629.5" y="-264.5" font-family="Helvetica,sans-Serif" font-size="10.00">sml/graphics_wrapper</text>
<text text-anchor="middle" x="677.5" y="-253.5" font-family="Helvetica,sans-Serif" font-size="10.00">/text.h</text>
</a>
</g>
</g>
<!-- Node32&#45;&gt;Node33 -->
<g id="edge45" class="edge">
<title>Node32&#45;&gt;Node33</title>
<path fill="none" stroke="midnightblue" d="M673.22,-313.48C673.8,-306.47 674.67,-296.19 675.47,-286.7"/>
<polygon fill="midnightblue" stroke="midnightblue" points="678.97,-286.78 676.32,-276.52 672,-286.19 678.97,-286.78"/>
</g>
<!-- Node34 -->
<g id="node34" class="node">
<title>Node34</title>
<g id="a_node34"><a xlink:href="shape_8h.html" target="_top" xlink:title=" ">
<polygon fill="white" stroke="black" points="752,-252 752,-271 803,-271 803,-252 752,-252"/>
<text text-anchor="middle" x="777.5" y="-259" font-family="Helvetica,sans-Serif" font-size="10.00">shape.h</text>
</a>
</g>
</g>
<!-- Node32&#45;&gt;Node34 -->
<g id="edge46" class="edge">
<title>Node32&#45;&gt;Node34</title>
<path fill="none" stroke="midnightblue" d="M687.54,-313.48C704.78,-303.71 733.24,-287.58 753.53,-276.08"/>
<polygon fill="midnightblue" stroke="midnightblue" points="755.51,-278.98 762.48,-271.01 752.06,-272.89 755.51,-278.98"/>
</g>
<!-- Node34&#45;&gt;Node14 -->
<g id="edge47" class="edge">
<title>Node34&#45;&gt;Node14</title>
<path fill="none" stroke="midnightblue" d="M758.02,-251.99C753.01,-249.92 747.59,-247.79 742.5,-246 705.4,-232.94 662.37,-220.59 631.24,-212.15"/>
<polygon fill="midnightblue" stroke="midnightblue" points="632.14,-208.77 621.57,-209.55 630.32,-215.53 632.14,-208.77"/>
</g>
<!-- Node34&#45;&gt;Node21 -->
<g id="edge49" class="edge">
<title>Node34&#45;&gt;Node21</title>
<path fill="none" stroke="midnightblue" d="M801.71,-251.98C830.83,-241.72 879.87,-224.46 912.7,-212.9"/>
<polygon fill="midnightblue" stroke="midnightblue" points="914.06,-216.13 922.33,-209.51 911.74,-209.53 914.06,-216.13"/>
</g>
<!-- Node34&#45;&gt;Node24 -->
<g id="edge48" class="edge">
<title>Node34&#45;&gt;Node24</title>
<path fill="none" stroke="midnightblue" d="M766.04,-251.98C753.33,-242.52 732.59,-227.1 717.25,-215.69"/>
<polygon fill="midnightblue" stroke="midnightblue" points="719.05,-212.67 708.94,-209.51 714.88,-218.29 719.05,-212.67"/>
</g>
<!-- Node35&#45;&gt;Node23 -->
<g id="edge51" class="edge">
<title>Node35&#45;&gt;Node23</title>
<path fill="none" stroke="midnightblue" d="M793.12,-313.34C798.66,-304.5 807.07,-290.23 812.5,-277 839.52,-211.16 858.21,-128.29 865.76,-91.54"/>
<polygon fill="midnightblue" stroke="midnightblue" points="869.28,-91.81 867.82,-81.32 862.42,-90.43 869.28,-91.81"/>
</g>
<!-- Node35&#45;&gt;Node34 -->
<g id="edge52" class="edge">
<title>Node35&#45;&gt;Node34</title>
<path fill="none" stroke="midnightblue" d="M786.07,-313.48C784.66,-305.08 782.45,-291.98 780.64,-281.16"/>
<polygon fill="midnightblue" stroke="midnightblue" points="784.04,-280.29 778.93,-271.01 777.14,-281.45 784.04,-280.29"/>
</g>
<!-- Node37 -->
<g id="node37" class="node">
<title>Node37</title>
<g id="a_node37"><a xlink:href="box__container_8h.html" target="_top" xlink:title=" ">
<polygon fill="white" stroke="black" points="1089,-369.5 1089,-388.5 1174,-388.5 1174,-369.5 1089,-369.5"/>
<text text-anchor="middle" x="1131.5" y="-376.5" font-family="Helvetica,sans-Serif" font-size="10.00">box_container.h</text>
</a>
</g>
</g>
<!-- Node36&#45;&gt;Node37 -->
<g id="edge59" class="edge">
<title>Node36&#45;&gt;Node37</title>
<path fill="none" stroke="midnightblue" d="M1069.39,-425.32C1080.65,-417.11 1097.79,-404.6 1111.21,-394.81"/>
<polygon fill="midnightblue" stroke="midnightblue" points="1113.38,-397.56 1119.39,-388.83 1109.25,-391.9 1113.38,-397.56"/>
</g>
<!-- Node38 -->
<g id="node38" class="node">
<title>Node38</title>
<g id="a_node38"><a xlink:title=" ">
<polygon fill="white" stroke="#bfbfbf" points="1188,-313.5 1188,-332.5 1271,-332.5 1271,-313.5 1188,-313.5"/>
<text text-anchor="middle" x="1229.5" y="-320.5" font-family="Helvetica,sans-Serif" font-size="10.00">unordered_map</text>
</a>
</g>
</g>
<!-- Node37&#45;&gt;Node38 -->
<g id="edge60" class="edge">
<title>Node37&#45;&gt;Node38</title>
<path fill="none" stroke="midnightblue" d="M1147.25,-369.32C1162.82,-360.74 1186.88,-347.49 1204.96,-337.52"/>
<polygon fill="midnightblue" stroke="midnightblue" points="1206.72,-340.55 1213.79,-332.65 1203.35,-334.42 1206.72,-340.55"/>
</g>
<!-- Node39 -->
<g id="node39" class="node">
<title>Node39</title>
<g id="a_node39"><a xlink:href="container_8h.html" target="_top" xlink:title=" ">
<polygon fill="white" stroke="black" points="973.5,-313.5 973.5,-332.5 1037.5,-332.5 1037.5,-313.5 973.5,-313.5"/>
<text text-anchor="middle" x="1005.5" y="-320.5" font-family="Helvetica,sans-Serif" font-size="10.00">container.h</text>
</a>
</g>
</g>
<!-- Node37&#45;&gt;Node39 -->
<g id="edge61" class="edge">
<title>Node37&#45;&gt;Node39</title>
<path fill="none" stroke="midnightblue" d="M1111.53,-369.44C1090.89,-360.6 1058.44,-346.69 1034.87,-336.59"/>
<polygon fill="midnightblue" stroke="midnightblue" points="1035.94,-333.24 1025.37,-332.52 1033.18,-339.67 1035.94,-333.24"/>
</g>
<!-- Node40 -->
<g id="node40" class="node">
<title>Node40</title>
<g id="a_node40"><a xlink:title=" ">
<polygon fill="white" stroke="#bfbfbf" points="1289.5,-313.5 1289.5,-332.5 1363.5,-332.5 1363.5,-313.5 1289.5,-313.5"/>
<text text-anchor="middle" x="1326.5" y="-320.5" font-family="Helvetica,sans-Serif" font-size="10.00">sys/syscall.h</text>
</a>
</g>
</g>
<!-- Node37&#45;&gt;Node40 -->
<g id="edge63" class="edge">
<title>Node37&#45;&gt;Node40</title>
<path fill="none" stroke="midnightblue" d="M1162.4,-369.44C1195.77,-360.2 1249.09,-345.44 1285.85,-335.26"/>
<polygon fill="midnightblue" stroke="midnightblue" points="1287.04,-338.56 1295.75,-332.52 1285.17,-331.81 1287.04,-338.56"/>
</g>
<!-- Node39&#45;&gt;Node13 -->
<g id="edge62" class="edge">
<title>Node39&#45;&gt;Node13</title>
<path fill="none" stroke="midnightblue" d="M999.91,-313.48C994.12,-304.64 984.91,-290.59 977.63,-279.48"/>
<polygon fill="midnightblue" stroke="midnightblue" points="980.49,-277.45 972.08,-271.01 974.63,-281.29 980.49,-277.45"/>
</g>
</g>
</svg>
