<?xml version="1.0" encoding="UTF-8" standalone="no"?>
<!DOCTYPE svg PUBLIC "-//W3C//DTD SVG 1.1//EN"
 "http://www.w3.org/Graphics/SVG/1.1/DTD/svg11.dtd">
<!-- Generated by graphviz version 2.50.0 (20211204.2007)
 -->
<!-- Title: scene.cpp Pages: 1 -->
<svg width="1124pt" height="621pt"
 viewBox="0.00 0.00 1124.17 621.00" xmlns="http://www.w3.org/2000/svg" xmlns:xlink="http://www.w3.org/1999/xlink">
<g id="graph0" class="graph" transform="scale(1 1) rotate(0) translate(4 617)">
<title>scene.cpp</title>
<polygon fill="white" stroke="transparent" points="-4,4 -4,-617 1120.17,-617 1120.17,4 -4,4"/>
<!-- Node1 -->
<g id="node1" class="node">
<title>Node1</title>
<g id="a_node1"><a xlink:title=" ">
<polygon fill="#bfbfbf" stroke="black" points="731.95,-593.5 731.95,-612.5 793.95,-612.5 793.95,-593.5 731.95,-593.5"/>
<text text-anchor="middle" x="762.95" y="-600.5" font-family="Helvetica,sans-Serif" font-size="10.00">scene.cpp</text>
</a>
</g>
</g>
<!-- Node2 -->
<g id="node2" class="node">
<title>Node2</title>
<g id="a_node2"><a xlink:title=" ">
<polygon fill="white" stroke="#bfbfbf" points="626.45,-0.5 626.45,-19.5 769.45,-19.5 769.45,-0.5 626.45,-0.5"/>
<text text-anchor="middle" x="697.95" y="-7.5" font-family="Helvetica,sans-Serif" font-size="10.00">sml/events/system_events.h</text>
</a>
</g>
</g>
<!-- Node1&#45;&gt;Node2 -->
<g id="edge1" class="edge">
<title>Node1&#45;&gt;Node2</title>
<path fill="none" stroke="midnightblue" d="M731.7,-600.84C588.5,-595.1 1.95,-567.01 1.95,-492 1.95,-492 1.95,-492 1.95,-137.5 1.95,-100.09 -5.84,-79.88 22.95,-56 67.65,-18.91 446.37,-12.27 616.16,-11.17"/>
<polygon fill="midnightblue" stroke="midnightblue" points="616.32,-14.67 626.3,-11.11 616.28,-7.67 616.32,-14.67"/>
</g>
<!-- Node3 -->
<g id="node3" class="node">
<title>Node3</title>
<g id="a_node3"><a xlink:href="scene_8h.html" target="_top" xlink:title=" ">
<polygon fill="white" stroke="black" points="858.95,-537.5 858.95,-556.5 938.95,-556.5 938.95,-537.5 858.95,-537.5"/>
<text text-anchor="middle" x="898.95" y="-544.5" font-family="Helvetica,sans-Serif" font-size="10.00">scene/scene.h</text>
</a>
</g>
</g>
<!-- Node1&#45;&gt;Node3 -->
<g id="edge2" class="edge">
<title>Node1&#45;&gt;Node3</title>
<path fill="none" stroke="midnightblue" d="M784.5,-593.44C806.98,-584.52 842.43,-570.44 867.93,-560.32"/>
<polygon fill="midnightblue" stroke="midnightblue" points="869.5,-563.46 877.5,-556.52 866.91,-556.95 869.5,-563.46"/>
</g>
<!-- Node14 -->
<g id="node14" class="node">
<title>Node14</title>
<g id="a_node14"><a xlink:href="parent_8h.html" target="_top" xlink:title=" ">
<polygon fill="white" stroke="black" points="828.45,-252 828.45,-271 889.45,-271 889.45,-252 828.45,-252"/>
<text text-anchor="middle" x="858.95" y="-259" font-family="Helvetica,sans-Serif" font-size="10.00">../parent.h</text>
</a>
</g>
</g>
<!-- Node1&#45;&gt;Node14 -->
<g id="edge66" class="edge">
<title>Node1&#45;&gt;Node14</title>
<path fill="none" stroke="midnightblue" d="M762.95,-593.44C762.95,-574.94 762.95,-529.81 762.95,-492 762.95,-492 762.95,-492 762.95,-434 762.95,-369.71 814.94,-307.16 842.4,-278.61"/>
<polygon fill="midnightblue" stroke="midnightblue" points="845.2,-280.75 849.74,-271.18 840.22,-275.83 845.2,-280.75"/>
</g>
<!-- Node4 -->
<g id="node4" class="node">
<title>Node4</title>
<g id="a_node4"><a xlink:href="gui__event__dispatching_8h.html" target="_top" xlink:title=" ">
<polygon fill="white" stroke="black" points="647.95,-123.5 647.95,-153.5 747.95,-153.5 747.95,-123.5 647.95,-123.5"/>
<text text-anchor="start" x="655.95" y="-141.5" font-family="Helvetica,sans-Serif" font-size="10.00">../events/gui_event</text>
<text text-anchor="middle" x="697.95" y="-130.5" font-family="Helvetica,sans-Serif" font-size="10.00">_dispatching.h</text>
</a>
</g>
</g>
<!-- Node3&#45;&gt;Node4 -->
<g id="edge3" class="edge">
<title>Node3&#45;&gt;Node4</title>
<path fill="none" stroke="midnightblue" d="M939,-543.42C1001.7,-536.97 1115.95,-514.46 1115.95,-436 1115.95,-436 1115.95,-436 1115.95,-378 1115.95,-347.9 1116.85,-335.58 1096.95,-313 1049.14,-258.77 849.73,-188.63 752.17,-156.7"/>
<polygon fill="midnightblue" stroke="midnightblue" points="753.09,-153.31 742.49,-153.54 750.92,-159.97 753.09,-153.31"/>
</g>
<!-- Node11 -->
<g id="node11" class="node">
<title>Node11</title>
<g id="a_node11"><a xlink:href="menu__bar_8h.html" target="_top" xlink:title=" ">
<polygon fill="white" stroke="black" points="841.45,-481.5 841.45,-500.5 956.45,-500.5 956.45,-481.5 841.45,-481.5"/>
<text text-anchor="middle" x="898.95" y="-488.5" font-family="Helvetica,sans-Serif" font-size="10.00">containers/menu_bar.h</text>
</a>
</g>
</g>
<!-- Node3&#45;&gt;Node11 -->
<g id="edge12" class="edge">
<title>Node3&#45;&gt;Node11</title>
<path fill="none" stroke="midnightblue" d="M898.95,-537.08C898.95,-530.01 898.95,-519.86 898.95,-510.99"/>
<polygon fill="midnightblue" stroke="midnightblue" points="902.45,-510.75 898.95,-500.75 895.45,-510.75 902.45,-510.75"/>
</g>
<!-- Node4&#45;&gt;Node2 -->
<g id="edge7" class="edge">
<title>Node4&#45;&gt;Node2</title>
<path fill="none" stroke="midnightblue" d="M697.95,-123.48C697.95,-100.72 697.95,-55.7 697.95,-30.06"/>
<polygon fill="midnightblue" stroke="midnightblue" points="701.45,-29.79 697.95,-19.79 694.45,-29.79 701.45,-29.79"/>
</g>
<!-- Node5 -->
<g id="node5" class="node">
<title>Node5</title>
<g id="a_node5"><a xlink:title=" ">
<polygon fill="white" stroke="#bfbfbf" points="507.95,-62 507.95,-81 551.95,-81 551.95,-62 507.95,-62"/>
<text text-anchor="middle" x="529.95" y="-69" font-family="Helvetica,sans-Serif" font-size="10.00">vector</text>
</a>
</g>
</g>
<!-- Node4&#45;&gt;Node5 -->
<g id="edge4" class="edge">
<title>Node4&#45;&gt;Node5</title>
<path fill="none" stroke="midnightblue" d="M657.13,-123.47C629.71,-113.8 592.88,-100.33 560.95,-87 559.58,-86.43 558.18,-85.83 556.77,-85.21"/>
<polygon fill="midnightblue" stroke="midnightblue" points="558.09,-81.97 547.54,-81.04 555.21,-88.35 558.09,-81.97"/>
</g>
<!-- Node6 -->
<g id="node6" class="node">
<title>Node6</title>
<g id="a_node6"><a xlink:title=" ">
<polygon fill="white" stroke="#bfbfbf" points="726.45,-62 726.45,-81 881.45,-81 881.45,-62 726.45,-62"/>
<text text-anchor="middle" x="803.95" y="-69" font-family="Helvetica,sans-Serif" font-size="10.00">sml/events/event_dispatching.h</text>
</a>
</g>
</g>
<!-- Node4&#45;&gt;Node6 -->
<g id="edge5" class="edge">
<title>Node4&#45;&gt;Node6</title>
<path fill="none" stroke="midnightblue" d="M720.95,-123.4C738.89,-112.39 763.67,-97.2 781.47,-86.28"/>
<polygon fill="midnightblue" stroke="midnightblue" points="783.38,-89.22 790.07,-81.01 779.72,-83.25 783.38,-89.22"/>
</g>
<!-- Node7 -->
<g id="node7" class="node">
<title>Node7</title>
<g id="a_node7"><a xlink:title=" ">
<polygon fill="white" stroke="#bfbfbf" points="570.45,-56.5 570.45,-86.5 669.45,-86.5 669.45,-56.5 570.45,-56.5"/>
<text text-anchor="start" x="578.45" y="-74.5" font-family="Helvetica,sans-Serif" font-size="10.00">sml/events/listener</text>
<text text-anchor="middle" x="619.95" y="-63.5" font-family="Helvetica,sans-Serif" font-size="10.00">_notifier.h</text>
</a>
</g>
</g>
<!-- Node4&#45;&gt;Node7 -->
<g id="edge6" class="edge">
<title>Node4&#45;&gt;Node7</title>
<path fill="none" stroke="midnightblue" d="M681.02,-123.4C670.39,-114.54 656.5,-102.96 644.65,-93.09"/>
<polygon fill="midnightblue" stroke="midnightblue" points="646.76,-90.29 636.84,-86.58 642.28,-95.67 646.76,-90.29"/>
</g>
<!-- Node8 -->
<g id="node8" class="node">
<title>Node8</title>
<g id="a_node8"><a xlink:href="gui__event_8h.html" target="_top" xlink:title=" ">
<polygon fill="white" stroke="black" points="899.45,-62 899.45,-81 966.45,-81 966.45,-62 899.45,-62"/>
<text text-anchor="middle" x="932.95" y="-69" font-family="Helvetica,sans-Serif" font-size="10.00">gui_event.h</text>
</a>
</g>
</g>
<!-- Node4&#45;&gt;Node8 -->
<g id="edge8" class="edge">
<title>Node4&#45;&gt;Node8</title>
<path fill="none" stroke="midnightblue" d="M748.28,-124.8C796.1,-112.64 864.51,-95.01 890.95,-87 893.72,-86.16 896.57,-85.26 899.44,-84.32"/>
<polygon fill="midnightblue" stroke="midnightblue" points="900.69,-87.6 909.06,-81.1 898.47,-80.96 900.69,-87.6"/>
</g>
<!-- Node8&#45;&gt;Node2 -->
<g id="edge10" class="edge">
<title>Node8&#45;&gt;Node2</title>
<path fill="none" stroke="midnightblue" d="M909.54,-61.94C903.52,-59.87 897.02,-57.75 890.95,-56 843.76,-42.39 789.19,-29.97 750.14,-21.64"/>
<polygon fill="midnightblue" stroke="midnightblue" points="750.57,-18.15 740.06,-19.51 749.12,-25 750.57,-18.15"/>
</g>
<!-- Node9 -->
<g id="node9" class="node">
<title>Node9</title>
<g id="a_node9"><a xlink:title=" ">
<polygon fill="white" stroke="#bfbfbf" points="834.95,-0.5 834.95,-19.5 934.95,-19.5 934.95,-0.5 834.95,-0.5"/>
<text text-anchor="middle" x="884.95" y="-7.5" font-family="Helvetica,sans-Serif" font-size="10.00">sml/events/event.h</text>
</a>
</g>
</g>
<!-- Node8&#45;&gt;Node9 -->
<g id="edge9" class="edge">
<title>Node8&#45;&gt;Node9</title>
<path fill="none" stroke="midnightblue" d="M926.07,-61.98C918.8,-52.96 907.15,-38.52 898.11,-27.31"/>
<polygon fill="midnightblue" stroke="midnightblue" points="900.81,-25.09 891.81,-19.51 895.37,-29.49 900.81,-25.09"/>
</g>
<!-- Node10 -->
<g id="node10" class="node">
<title>Node10</title>
<g id="a_node10"><a xlink:title=" ">
<polygon fill="white" stroke="#bfbfbf" points="953.45,-0.5 953.45,-19.5 1030.45,-19.5 1030.45,-0.5 953.45,-0.5"/>
<text text-anchor="middle" x="991.95" y="-7.5" font-family="Helvetica,sans-Serif" font-size="10.00">sml/sml_log.h</text>
</a>
</g>
</g>
<!-- Node8&#45;&gt;Node10 -->
<g id="edge11" class="edge">
<title>Node8&#45;&gt;Node10</title>
<path fill="none" stroke="midnightblue" d="M941.4,-61.98C950.51,-52.78 965.22,-37.96 976.42,-26.66"/>
<polygon fill="midnightblue" stroke="midnightblue" points="978.95,-29.07 983.51,-19.51 973.98,-24.15 978.95,-29.07"/>
</g>
<!-- Node12 -->
<g id="node12" class="node">
<title>Node12</title>
<g id="a_node12"><a xlink:href="button_8h.html" target="_top" xlink:title=" ">
<polygon fill="white" stroke="black" points="790.95,-425.5 790.95,-444.5 888.95,-444.5 888.95,-425.5 790.95,-425.5"/>
<text text-anchor="middle" x="839.95" y="-432.5" font-family="Helvetica,sans-Serif" font-size="10.00">../controls/button.h</text>
</a>
</g>
</g>
<!-- Node11&#45;&gt;Node12 -->
<g id="edge13" class="edge">
<title>Node11&#45;&gt;Node12</title>
<path fill="none" stroke="midnightblue" d="M889.47,-481.32C880.75,-473.34 867.6,-461.31 857.05,-451.65"/>
<polygon fill="midnightblue" stroke="midnightblue" points="859.34,-449 849.6,-444.83 854.61,-454.17 859.34,-449"/>
</g>
<!-- Node37 -->
<g id="node37" class="node">
<title>Node37</title>
<g id="a_node37"><a xlink:href="context__menu_8h.html" target="_top" xlink:title=" ">
<polygon fill="white" stroke="black" points="906.95,-425.5 906.95,-444.5 992.95,-444.5 992.95,-425.5 906.95,-425.5"/>
<text text-anchor="middle" x="949.95" y="-432.5" font-family="Helvetica,sans-Serif" font-size="10.00">context_menu.h</text>
</a>
</g>
</g>
<!-- Node11&#45;&gt;Node37 -->
<g id="edge60" class="edge">
<title>Node11&#45;&gt;Node37</title>
<path fill="none" stroke="midnightblue" d="M907.37,-481.08C914.79,-473.22 925.8,-461.57 934.76,-452.08"/>
<polygon fill="midnightblue" stroke="midnightblue" points="937.36,-454.42 941.68,-444.75 932.27,-449.62 937.36,-454.42"/>
</g>
<!-- Node13 -->
<g id="node13" class="node">
<title>Node13</title>
<g id="a_node13"><a xlink:href="control_8h.html" target="_top" xlink:title=" ">
<polygon fill="white" stroke="black" points="790.95,-369.5 790.95,-388.5 844.95,-388.5 844.95,-369.5 790.95,-369.5"/>
<text text-anchor="middle" x="817.95" y="-376.5" font-family="Helvetica,sans-Serif" font-size="10.00">control.h</text>
</a>
</g>
</g>
<!-- Node12&#45;&gt;Node13 -->
<g id="edge14" class="edge">
<title>Node12&#45;&gt;Node13</title>
<path fill="none" stroke="midnightblue" d="M836.31,-425.08C833.33,-417.77 829.02,-407.18 825.32,-398.1"/>
<polygon fill="midnightblue" stroke="midnightblue" points="828.53,-396.69 821.51,-388.75 822.04,-399.33 828.53,-396.69"/>
</g>
<!-- Node31 -->
<g id="node31" class="node">
<title>Node31</title>
<g id="a_node31"><a xlink:href="default__skins_8h.html" target="_top" xlink:title=" ">
<polygon fill="white" stroke="black" points="478.95,-369.5 478.95,-388.5 594.95,-388.5 594.95,-369.5 478.95,-369.5"/>
<text text-anchor="middle" x="536.95" y="-376.5" font-family="Helvetica,sans-Serif" font-size="10.00">../style/default_skins.h</text>
</a>
</g>
</g>
<!-- Node12&#45;&gt;Node31 -->
<g id="edge41" class="edge">
<title>Node12&#45;&gt;Node31</title>
<path fill="none" stroke="midnightblue" d="M791.94,-425.44C738.41,-415.9 651.88,-400.48 594.7,-390.29"/>
<polygon fill="midnightblue" stroke="midnightblue" points="595.19,-386.83 584.73,-388.52 593.96,-393.72 595.19,-386.83"/>
</g>
<!-- Node13&#45;&gt;Node14 -->
<g id="edge15" class="edge">
<title>Node13&#45;&gt;Node14</title>
<path fill="none" stroke="midnightblue" d="M816.76,-369.27C815.37,-356.49 814.06,-332.13 820.95,-313 825.56,-300.2 834.62,-287.94 842.74,-278.72"/>
<polygon fill="midnightblue" stroke="midnightblue" points="845.52,-280.86 849.77,-271.16 840.4,-276.09 845.52,-280.86"/>
</g>
<!-- Node29 -->
<g id="node29" class="node">
<title>Node29</title>
<g id="a_node29"><a xlink:href="skin_8h.html" target="_top" xlink:title=" ">
<polygon fill="white" stroke="black" points="659.95,-313.5 659.95,-332.5 735.95,-332.5 735.95,-313.5 659.95,-313.5"/>
<text text-anchor="middle" x="697.95" y="-320.5" font-family="Helvetica,sans-Serif" font-size="10.00">../style/skin.h</text>
</a>
</g>
</g>
<!-- Node13&#45;&gt;Node29 -->
<g id="edge38" class="edge">
<title>Node13&#45;&gt;Node29</title>
<path fill="none" stroke="midnightblue" d="M798.93,-369.44C779.36,-360.64 748.64,-346.81 726.22,-336.72"/>
<polygon fill="midnightblue" stroke="midnightblue" points="727.43,-333.43 716.87,-332.52 724.56,-339.81 727.43,-333.43"/>
</g>
<!-- Node15 -->
<g id="node15" class="node">
<title>Node15</title>
<g id="a_node15"><a xlink:href="component_8h.html" target="_top" xlink:title=" ">
<polygon fill="white" stroke="black" points="335.45,-190.5 335.45,-209.5 408.45,-209.5 408.45,-190.5 335.45,-190.5"/>
<text text-anchor="middle" x="371.95" y="-197.5" font-family="Helvetica,sans-Serif" font-size="10.00">component.h</text>
</a>
</g>
</g>
<!-- Node14&#45;&gt;Node15 -->
<g id="edge16" class="edge">
<title>Node14&#45;&gt;Node15</title>
<path fill="none" stroke="midnightblue" d="M828.29,-254.22C813.95,-251.43 796.62,-248.27 780.95,-246 628.81,-223.93 589.55,-228.54 436.95,-210 431.08,-209.29 424.92,-208.49 418.83,-207.68"/>
<polygon fill="midnightblue" stroke="midnightblue" points="419.08,-204.18 408.7,-206.31 418.14,-211.12 419.08,-204.18"/>
</g>
<!-- Node20 -->
<g id="node20" class="node">
<title>Node20</title>
<g id="a_node20"><a xlink:href="insets_8h.html" target="_top" xlink:title=" ">
<polygon fill="white" stroke="black" points="895.95,-129 895.95,-148 979.95,-148 979.95,-129 895.95,-129"/>
<text text-anchor="middle" x="937.95" y="-136" font-family="Helvetica,sans-Serif" font-size="10.00">../paint/insets.h</text>
</a>
</g>
</g>
<!-- Node14&#45;&gt;Node20 -->
<g id="edge22" class="edge">
<title>Node14&#45;&gt;Node20</title>
<path fill="none" stroke="midnightblue" d="M864.63,-251.8C877.61,-231.91 909.64,-182.85 926.75,-156.65"/>
<polygon fill="midnightblue" stroke="midnightblue" points="929.78,-158.41 932.32,-148.12 923.92,-154.58 929.78,-158.41"/>
</g>
<!-- Node22 -->
<g id="node22" class="node">
<title>Node22</title>
<g id="a_node22"><a xlink:href="border_8h.html" target="_top" xlink:title=" ">
<polygon fill="white" stroke="black" points="610.95,-190.5 610.95,-209.5 694.95,-209.5 694.95,-190.5 610.95,-190.5"/>
<text text-anchor="middle" x="652.95" y="-197.5" font-family="Helvetica,sans-Serif" font-size="10.00">../paint/border.h</text>
</a>
</g>
</g>
<!-- Node14&#45;&gt;Node22 -->
<g id="edge24" class="edge">
<title>Node14&#45;&gt;Node22</title>
<path fill="none" stroke="midnightblue" d="M829.43,-251.98C793.33,-241.55 732.1,-223.86 692.09,-212.31"/>
<polygon fill="midnightblue" stroke="midnightblue" points="692.99,-208.92 682.41,-209.51 691.04,-215.65 692.99,-208.92"/>
</g>
<!-- Node25 -->
<g id="node25" class="node">
<title>Node25</title>
<g id="a_node25"><a xlink:href="background_8h.html" target="_top" xlink:title=" ">
<polygon fill="white" stroke="black" points="445.95,-190.5 445.95,-209.5 553.95,-209.5 553.95,-190.5 445.95,-190.5"/>
<text text-anchor="middle" x="499.95" y="-197.5" font-family="Helvetica,sans-Serif" font-size="10.00">../paint/background.h</text>
</a>
</g>
</g>
<!-- Node14&#45;&gt;Node25 -->
<g id="edge28" class="edge">
<title>Node14&#45;&gt;Node25</title>
<path fill="none" stroke="midnightblue" d="M828.23,-254.61C813.88,-251.9 796.55,-248.7 780.95,-246 706.66,-233.15 621.1,-219.63 564.1,-210.81"/>
<polygon fill="midnightblue" stroke="midnightblue" points="564.56,-207.34 554.15,-209.27 563.49,-214.25 564.56,-207.34"/>
</g>
<!-- Node15&#45;&gt;Node4 -->
<g id="edge18" class="edge">
<title>Node15&#45;&gt;Node4</title>
<path fill="none" stroke="midnightblue" d="M408.71,-192.29C464.38,-182.13 570.68,-162.73 637.75,-150.49"/>
<polygon fill="midnightblue" stroke="midnightblue" points="638.54,-153.9 647.75,-148.66 637.29,-147.01 638.54,-153.9"/>
</g>
<!-- Node16 -->
<g id="node16" class="node">
<title>Node16</title>
<g id="a_node16"><a xlink:title=" ">
<polygon fill="white" stroke="#bfbfbf" points="283.95,-129 283.95,-148 423.95,-148 423.95,-129 283.95,-129"/>
<text text-anchor="middle" x="353.95" y="-136" font-family="Helvetica,sans-Serif" font-size="10.00">sml/sml_graphics_wrapper.h</text>
</a>
</g>
</g>
<!-- Node15&#45;&gt;Node16 -->
<g id="edge17" class="edge">
<title>Node15&#45;&gt;Node16</title>
<path fill="none" stroke="midnightblue" d="M369.37,-190.48C366.8,-181.99 362.78,-168.7 359.49,-157.82"/>
<polygon fill="midnightblue" stroke="midnightblue" points="362.77,-156.57 356.52,-148.01 356.07,-158.59 362.77,-156.57"/>
</g>
<!-- Node17 -->
<g id="node17" class="node">
<title>Node17</title>
<g id="a_node17"><a xlink:href="shadow_8h.html" target="_top" xlink:title=" ">
<polygon fill="white" stroke="black" points="29.95,-129 29.95,-148 119.95,-148 119.95,-129 29.95,-129"/>
<text text-anchor="middle" x="74.95" y="-136" font-family="Helvetica,sans-Serif" font-size="10.00">../paint/shadow.h</text>
</a>
</g>
</g>
<!-- Node15&#45;&gt;Node17 -->
<g id="edge19" class="edge">
<title>Node15&#45;&gt;Node17</title>
<path fill="none" stroke="midnightblue" d="M335.12,-193.11C287.36,-185.27 201.55,-170.44 128.95,-154 124.46,-152.98 119.78,-151.85 115.14,-150.67"/>
<polygon fill="midnightblue" stroke="midnightblue" points="115.68,-147.19 105.12,-148.05 113.91,-153.96 115.68,-147.19"/>
</g>
<!-- Node18 -->
<g id="node18" class="node">
<title>Node18</title>
<g id="a_node18"><a xlink:title=" ">
<polygon fill="white" stroke="#bfbfbf" points="32.45,-62 32.45,-81 115.45,-81 115.45,-62 32.45,-62"/>
<text text-anchor="middle" x="73.95" y="-69" font-family="Helvetica,sans-Serif" font-size="10.00">sml/math/blur.h</text>
</a>
</g>
</g>
<!-- Node17&#45;&gt;Node18 -->
<g id="edge20" class="edge">
<title>Node17&#45;&gt;Node18</title>
<path fill="none" stroke="midnightblue" d="M74.81,-128.73C74.66,-119.18 74.43,-103.62 74.24,-91.28"/>
<polygon fill="midnightblue" stroke="midnightblue" points="77.73,-91.07 74.08,-81.13 70.73,-91.18 77.73,-91.07"/>
</g>
<!-- Node19 -->
<g id="node19" class="node">
<title>Node19</title>
<g id="a_node19"><a xlink:title=" ">
<polygon fill="white" stroke="#bfbfbf" points="133.95,-56.5 133.95,-86.5 245.95,-86.5 245.95,-56.5 133.95,-56.5"/>
<text text-anchor="start" x="141.95" y="-74.5" font-family="Helvetica,sans-Serif" font-size="10.00">sml/graphics_wrapper</text>
<text text-anchor="middle" x="189.95" y="-63.5" font-family="Helvetica,sans-Serif" font-size="10.00">/texture.h</text>
</a>
</g>
</g>
<!-- Node17&#45;&gt;Node19 -->
<g id="edge21" class="edge">
<title>Node17&#45;&gt;Node19</title>
<path fill="none" stroke="midnightblue" d="M90.46,-128.73C107.19,-119.27 134.37,-103.91 156.09,-91.64"/>
<polygon fill="midnightblue" stroke="midnightblue" points="158.04,-94.56 165.02,-86.59 154.59,-88.46 158.04,-94.56"/>
</g>
<!-- Node21 -->
<g id="node21" class="node">
<title>Node21</title>
<g id="a_node21"><a xlink:title=" ">
<polygon fill="white" stroke="#bfbfbf" points="984.45,-62 984.45,-81 1033.45,-81 1033.45,-62 984.45,-62"/>
<text text-anchor="middle" x="1008.95" y="-69" font-family="Helvetica,sans-Serif" font-size="10.00">stdint.h</text>
</a>
</g>
</g>
<!-- Node20&#45;&gt;Node21 -->
<g id="edge23" class="edge">
<title>Node20&#45;&gt;Node21</title>
<path fill="none" stroke="midnightblue" d="M947.52,-128.73C958.91,-118.31 978.13,-100.71 992.05,-87.97"/>
<polygon fill="midnightblue" stroke="midnightblue" points="994.51,-90.46 999.52,-81.13 989.78,-85.3 994.51,-90.46"/>
</g>
<!-- Node22&#45;&gt;Node20 -->
<g id="edge27" class="edge">
<title>Node22&#45;&gt;Node20</title>
<path fill="none" stroke="midnightblue" d="M695.03,-192.04C742.05,-184.01 820.34,-169.84 886.95,-154 891.08,-153.02 895.38,-151.92 899.65,-150.78"/>
<polygon fill="midnightblue" stroke="midnightblue" points="900.76,-154.1 909.47,-148.07 898.9,-147.35 900.76,-154.1"/>
</g>
<!-- Node23 -->
<g id="node23" class="node">
<title>Node23</title>
<g id="a_node23"><a xlink:title=" ">
<polygon fill="white" stroke="#bfbfbf" points="765.95,-123.5 765.95,-153.5 877.95,-153.5 877.95,-123.5 765.95,-123.5"/>
<text text-anchor="start" x="773.95" y="-141.5" font-family="Helvetica,sans-Serif" font-size="10.00">sml/graphics_wrapper</text>
<text text-anchor="middle" x="821.95" y="-130.5" font-family="Helvetica,sans-Serif" font-size="10.00">/color.h</text>
</a>
</g>
</g>
<!-- Node22&#45;&gt;Node23 -->
<g id="edge25" class="edge">
<title>Node22&#45;&gt;Node23</title>
<path fill="none" stroke="midnightblue" d="M677.16,-190.48C701.97,-181.74 741.26,-167.91 772.65,-156.86"/>
<polygon fill="midnightblue" stroke="midnightblue" points="773.85,-160.15 782.12,-153.52 771.52,-153.54 773.85,-160.15"/>
</g>
<!-- Node24 -->
<g id="node24" class="node">
<title>Node24</title>
<g id="a_node24"><a xlink:title=" ">
<polygon fill="white" stroke="#bfbfbf" points="381.95,-62 381.95,-81 489.95,-81 489.95,-62 381.95,-62"/>
<text text-anchor="middle" x="435.95" y="-69" font-family="Helvetica,sans-Serif" font-size="10.00">sml/math/rectangle.h</text>
</a>
</g>
</g>
<!-- Node22&#45;&gt;Node24 -->
<g id="edge26" class="edge">
<title>Node22&#45;&gt;Node24</title>
<path fill="none" stroke="midnightblue" d="M638.03,-190.31C600.93,-168.68 504.26,-112.32 459.42,-86.18"/>
<polygon fill="midnightblue" stroke="midnightblue" points="461.08,-83.1 450.68,-81.09 457.56,-89.15 461.08,-83.1"/>
</g>
<!-- Node25&#45;&gt;Node5 -->
<g id="edge29" class="edge">
<title>Node25&#45;&gt;Node5</title>
<path fill="none" stroke="midnightblue" d="M504.73,-190.32C509.4,-181.47 516.3,-167.18 519.95,-154 525.76,-133.01 528.19,-108.06 529.21,-91.34"/>
<polygon fill="midnightblue" stroke="midnightblue" points="532.72,-91.39 529.72,-81.23 525.73,-91.04 532.72,-91.39"/>
</g>
<!-- Node25&#45;&gt;Node24 -->
<g id="edge30" class="edge">
<title>Node25&#45;&gt;Node24</title>
<path fill="none" stroke="midnightblue" d="M499.98,-190.49C499.7,-175.86 497.62,-145.36 485.95,-123 478.74,-109.19 466.48,-96.72 455.9,-87.63"/>
<polygon fill="midnightblue" stroke="midnightblue" points="457.87,-84.72 447.91,-81.1 453.44,-90.14 457.87,-84.72"/>
</g>
<!-- Node26 -->
<g id="node26" class="node">
<title>Node26</title>
<g id="a_node26"><a xlink:href="fill_8h.html" target="_top" xlink:title=" ">
<polygon fill="white" stroke="black" points="442.45,-129 442.45,-148 477.45,-148 477.45,-129 442.45,-129"/>
<text text-anchor="middle" x="459.95" y="-136" font-family="Helvetica,sans-Serif" font-size="10.00">fill.h</text>
</a>
</g>
</g>
<!-- Node25&#45;&gt;Node26 -->
<g id="edge31" class="edge">
<title>Node25&#45;&gt;Node26</title>
<path fill="none" stroke="midnightblue" d="M494.22,-190.48C488.28,-181.64 478.83,-167.59 471.36,-156.48"/>
<polygon fill="midnightblue" stroke="midnightblue" points="474.15,-154.36 465.67,-148.01 468.34,-158.26 474.15,-154.36"/>
</g>
<!-- Node28 -->
<g id="node28" class="node">
<title>Node28</title>
<g id="a_node28"><a xlink:href="image_8h.html" target="_top" xlink:title=" ">
<polygon fill="white" stroke="black" points="138.45,-129 138.45,-148 227.45,-148 227.45,-129 138.45,-129"/>
<text text-anchor="middle" x="182.95" y="-136" font-family="Helvetica,sans-Serif" font-size="10.00">../media/image.h</text>
</a>
</g>
</g>
<!-- Node25&#45;&gt;Node28 -->
<g id="edge36" class="edge">
<title>Node25&#45;&gt;Node28</title>
<path fill="none" stroke="midnightblue" d="M454.53,-190.48C397.2,-179.71 298.69,-161.23 237.39,-149.72"/>
<polygon fill="midnightblue" stroke="midnightblue" points="237.99,-146.27 227.51,-147.87 236.7,-153.15 237.99,-146.27"/>
</g>
<!-- Node26&#45;&gt;Node5 -->
<g id="edge32" class="edge">
<title>Node26&#45;&gt;Node5</title>
<path fill="none" stroke="midnightblue" d="M469.39,-128.73C480.62,-118.31 499.57,-100.71 513.28,-87.97"/>
<polygon fill="midnightblue" stroke="midnightblue" points="515.71,-90.5 520.66,-81.13 510.95,-85.37 515.71,-90.5"/>
</g>
<!-- Node26&#45;&gt;Node19 -->
<g id="edge35" class="edge">
<title>Node26&#45;&gt;Node19</title>
<path fill="none" stroke="midnightblue" d="M445.73,-128.88C441.7,-126.71 437.25,-124.56 432.95,-123 424.55,-119.95 325.05,-99.66 256.01,-85.74"/>
<polygon fill="midnightblue" stroke="midnightblue" points="256.55,-82.28 246.06,-83.74 255.17,-89.14 256.55,-82.28"/>
</g>
<!-- Node26&#45;&gt;Node24 -->
<g id="edge34" class="edge">
<title>Node26&#45;&gt;Node24</title>
<path fill="none" stroke="midnightblue" d="M456.71,-128.73C453.11,-118.99 447.2,-102.98 442.6,-90.53"/>
<polygon fill="midnightblue" stroke="midnightblue" points="445.88,-89.3 439.13,-81.13 439.31,-91.72 445.88,-89.3"/>
</g>
<!-- Node27 -->
<g id="node27" class="node">
<title>Node27</title>
<g id="a_node27"><a xlink:title=" ">
<polygon fill="white" stroke="#bfbfbf" points="274.45,-62 274.45,-81 363.45,-81 363.45,-62 274.45,-62"/>
<text text-anchor="middle" x="318.95" y="-69" font-family="Helvetica,sans-Serif" font-size="10.00">sml/math/vec2.h</text>
</a>
</g>
</g>
<!-- Node26&#45;&gt;Node27 -->
<g id="edge33" class="edge">
<title>Node26&#45;&gt;Node27</title>
<path fill="none" stroke="midnightblue" d="M444.35,-128.86C440.64,-126.88 436.67,-124.82 432.95,-123 404.87,-109.27 372.21,-94.96 349.06,-85.1"/>
<polygon fill="midnightblue" stroke="midnightblue" points="350.33,-81.84 339.76,-81.16 347.6,-88.28 350.33,-81.84"/>
</g>
<!-- Node28&#45;&gt;Node19 -->
<g id="edge37" class="edge">
<title>Node28&#45;&gt;Node19</title>
<path fill="none" stroke="midnightblue" d="M183.89,-128.73C184.77,-120.54 186.13,-107.92 187.34,-96.71"/>
<polygon fill="midnightblue" stroke="midnightblue" points="190.84,-96.91 188.43,-86.59 183.88,-96.16 190.84,-96.91"/>
</g>
<!-- Node29&#45;&gt;Node20 -->
<g id="edge40" class="edge">
<title>Node29&#45;&gt;Node20</title>
<path fill="none" stroke="midnightblue" d="M716.44,-313.45C733.73,-305.12 759.96,-291.61 780.95,-277 795.81,-266.66 883.17,-188.64 920.76,-154.93"/>
<polygon fill="midnightblue" stroke="midnightblue" points="923.28,-157.38 928.39,-148.09 918.61,-152.17 923.28,-157.38"/>
</g>
<!-- Node30 -->
<g id="node30" class="node">
<title>Node30</title>
<g id="a_node30"><a xlink:title=" ">
<polygon fill="white" stroke="#bfbfbf" points="659.95,-246.5 659.95,-276.5 771.95,-276.5 771.95,-246.5 659.95,-246.5"/>
<text text-anchor="start" x="667.95" y="-264.5" font-family="Helvetica,sans-Serif" font-size="10.00">sml/graphics_wrapper</text>
<text text-anchor="middle" x="715.95" y="-253.5" font-family="Helvetica,sans-Serif" font-size="10.00">/renderer.h</text>
</a>
</g>
</g>
<!-- Node29&#45;&gt;Node30 -->
<g id="edge39" class="edge">
<title>Node29&#45;&gt;Node30</title>
<path fill="none" stroke="midnightblue" d="M700.53,-313.48C702.67,-306.4 705.82,-295.97 708.72,-286.39"/>
<polygon fill="midnightblue" stroke="midnightblue" points="712.16,-287.11 711.7,-276.52 705.46,-285.08 712.16,-287.11"/>
</g>
<!-- Node31&#45;&gt;Node7 -->
<g id="edge42" class="edge">
<title>Node31&#45;&gt;Node7</title>
<path fill="none" stroke="midnightblue" d="M539.34,-369.19C550.35,-328.68 596.27,-159.66 613.43,-96.47"/>
<polygon fill="midnightblue" stroke="midnightblue" points="616.87,-97.18 616.11,-86.62 610.11,-95.35 616.87,-97.18"/>
</g>
<!-- Node31&#45;&gt;Node17 -->
<g id="edge58" class="edge">
<title>Node31&#45;&gt;Node17</title>
<path fill="none" stroke="midnightblue" d="M478.85,-375.47C416.78,-371.37 316.23,-360.7 233.95,-333 184.93,-316.5 166.47,-315.51 131.95,-277 100.43,-241.84 84.86,-186.81 78.53,-158.2"/>
<polygon fill="midnightblue" stroke="midnightblue" points="81.94,-157.39 76.49,-148.31 75.09,-158.81 81.94,-157.39"/>
</g>
<!-- Node31&#45;&gt;Node20 -->
<g id="edge57" class="edge">
<title>Node31&#45;&gt;Node20</title>
<path fill="none" stroke="midnightblue" d="M548.65,-369.46C559.92,-360.93 577.1,-347.09 589.95,-333 621.76,-298.1 613.56,-274.85 650.95,-246 690.95,-215.13 829.86,-171.36 898.69,-150.89"/>
<polygon fill="midnightblue" stroke="midnightblue" points="899.71,-154.23 908.31,-148.04 897.73,-147.52 899.71,-154.23"/>
</g>
<!-- Node31&#45;&gt;Node22 -->
<g id="edge56" class="edge">
<title>Node31&#45;&gt;Node22</title>
<path fill="none" stroke="midnightblue" d="M543.87,-369.27C550.8,-360.38 561.6,-346.06 569.95,-333 593.72,-295.78 593.65,-282.88 617.95,-246 624.41,-236.19 632.41,-225.79 639.13,-217.47"/>
<polygon fill="midnightblue" stroke="midnightblue" points="641.9,-219.61 645.55,-209.66 636.5,-215.16 641.9,-219.61"/>
</g>
<!-- Node31&#45;&gt;Node25 -->
<g id="edge55" class="edge">
<title>Node31&#45;&gt;Node25</title>
<path fill="none" stroke="midnightblue" d="M535.16,-369.46C529.51,-342.43 511.91,-258.24 503.94,-220.11"/>
<polygon fill="midnightblue" stroke="midnightblue" points="507.27,-218.94 501.8,-209.87 500.42,-220.37 507.27,-218.94"/>
</g>
<!-- Node31&#45;&gt;Node29 -->
<g id="edge59" class="edge">
<title>Node31&#45;&gt;Node29</title>
<path fill="none" stroke="midnightblue" d="M562.46,-369.44C589.54,-360.36 632.54,-345.94 662.82,-335.78"/>
<polygon fill="midnightblue" stroke="midnightblue" points="664.19,-339.01 672.56,-332.52 661.96,-332.38 664.19,-339.01"/>
</g>
<!-- Node32 -->
<g id="node32" class="node">
<title>Node32</title>
<g id="a_node32"><a xlink:href="image__view_8h.html" target="_top" xlink:title=" ">
<polygon fill="white" stroke="black" points="140.95,-252 140.95,-271 224.95,-271 224.95,-252 140.95,-252"/>
<text text-anchor="middle" x="182.95" y="-259" font-family="Helvetica,sans-Serif" font-size="10.00">../image_view.h</text>
</a>
</g>
</g>
<!-- Node31&#45;&gt;Node32 -->
<g id="edge43" class="edge">
<title>Node31&#45;&gt;Node32</title>
<path fill="none" stroke="midnightblue" d="M478.76,-376.81C422.72,-373.72 336.7,-363.79 268.95,-333 240.51,-320.08 213.66,-295.33 197.76,-278.86"/>
<polygon fill="midnightblue" stroke="midnightblue" points="199.88,-276.01 190.49,-271.12 194.78,-280.8 199.88,-276.01"/>
</g>
<!-- Node33 -->
<g id="node33" class="node">
<title>Node33</title>
<g id="a_node33"><a xlink:href="text_8h.html" target="_top" xlink:title=" ">
<polygon fill="white" stroke="black" points="278.45,-313.5 278.45,-332.5 363.45,-332.5 363.45,-313.5 278.45,-313.5"/>
<text text-anchor="middle" x="320.95" y="-320.5" font-family="Helvetica,sans-Serif" font-size="10.00">../shapes/text.h</text>
</a>
</g>
</g>
<!-- Node31&#45;&gt;Node33 -->
<g id="edge46" class="edge">
<title>Node31&#45;&gt;Node33</title>
<path fill="none" stroke="midnightblue" d="M502.72,-369.44C465.44,-360.12 405.68,-345.18 364.94,-335"/>
<polygon fill="midnightblue" stroke="midnightblue" points="365.56,-331.55 355.01,-332.52 363.86,-338.34 365.56,-331.55"/>
</g>
<!-- Node36 -->
<g id="node36" class="node">
<title>Node36</title>
<g id="a_node36"><a xlink:href="rectangle_8h.html" target="_top" xlink:title=" ">
<polygon fill="white" stroke="black" points="381.95,-313.5 381.95,-332.5 489.95,-332.5 489.95,-313.5 381.95,-313.5"/>
<text text-anchor="middle" x="435.95" y="-320.5" font-family="Helvetica,sans-Serif" font-size="10.00">../shapes/rectangle.h</text>
</a>
</g>
</g>
<!-- Node31&#45;&gt;Node36 -->
<g id="edge52" class="edge">
<title>Node31&#45;&gt;Node36</title>
<path fill="none" stroke="midnightblue" d="M520.72,-369.32C504.6,-360.7 479.65,-347.36 460.98,-337.39"/>
<polygon fill="midnightblue" stroke="midnightblue" points="462.6,-334.28 452.13,-332.65 459.3,-340.46 462.6,-334.28"/>
</g>
<!-- Node32&#45;&gt;Node15 -->
<g id="edge44" class="edge">
<title>Node32&#45;&gt;Node15</title>
<path fill="none" stroke="midnightblue" d="M210.03,-251.98C242.87,-241.64 298.38,-224.16 335.09,-212.6"/>
<polygon fill="midnightblue" stroke="midnightblue" points="336.43,-215.85 344.92,-209.51 334.33,-209.17 336.43,-215.85"/>
</g>
<!-- Node32&#45;&gt;Node28 -->
<g id="edge45" class="edge">
<title>Node32&#45;&gt;Node28</title>
<path fill="none" stroke="midnightblue" d="M182.95,-251.8C182.95,-232.35 182.95,-184.99 182.95,-158.4"/>
<polygon fill="midnightblue" stroke="midnightblue" points="186.45,-158.12 182.95,-148.12 179.45,-158.12 186.45,-158.12"/>
</g>
<!-- Node34 -->
<g id="node34" class="node">
<title>Node34</title>
<g id="a_node34"><a xlink:title=" ">
<polygon fill="white" stroke="#bfbfbf" points="242.95,-246.5 242.95,-276.5 354.95,-276.5 354.95,-246.5 242.95,-246.5"/>
<text text-anchor="start" x="250.95" y="-264.5" font-family="Helvetica,sans-Serif" font-size="10.00">sml/graphics_wrapper</text>
<text text-anchor="middle" x="298.95" y="-253.5" font-family="Helvetica,sans-Serif" font-size="10.00">/text.h</text>
</a>
</g>
</g>
<!-- Node33&#45;&gt;Node34 -->
<g id="edge47" class="edge">
<title>Node33&#45;&gt;Node34</title>
<path fill="none" stroke="midnightblue" d="M317.79,-313.48C315.15,-306.32 311.24,-295.75 307.67,-286.08"/>
<polygon fill="midnightblue" stroke="midnightblue" points="310.88,-284.69 304.13,-276.52 304.32,-287.12 310.88,-284.69"/>
</g>
<!-- Node35 -->
<g id="node35" class="node">
<title>Node35</title>
<g id="a_node35"><a xlink:href="shape_8h.html" target="_top" xlink:title=" ">
<polygon fill="white" stroke="black" points="411.45,-252 411.45,-271 462.45,-271 462.45,-252 411.45,-252"/>
<text text-anchor="middle" x="436.95" y="-259" font-family="Helvetica,sans-Serif" font-size="10.00">shape.h</text>
</a>
</g>
</g>
<!-- Node33&#45;&gt;Node35 -->
<g id="edge48" class="edge">
<title>Node33&#45;&gt;Node35</title>
<path fill="none" stroke="midnightblue" d="M337.57,-313.48C356.86,-303.58 388.91,-287.14 411.38,-275.62"/>
<polygon fill="midnightblue" stroke="midnightblue" points="413.06,-278.69 420.36,-271.01 409.86,-272.46 413.06,-278.69"/>
</g>
<!-- Node35&#45;&gt;Node15 -->
<g id="edge49" class="edge">
<title>Node35&#45;&gt;Node15</title>
<path fill="none" stroke="midnightblue" d="M427.63,-251.98C417.5,-242.7 401.08,-227.67 388.69,-216.33"/>
<polygon fill="midnightblue" stroke="midnightblue" points="390.98,-213.68 381.24,-209.51 386.26,-218.84 390.98,-213.68"/>
</g>
<!-- Node35&#45;&gt;Node22 -->
<g id="edge51" class="edge">
<title>Node35&#45;&gt;Node22</title>
<path fill="none" stroke="midnightblue" d="M462.57,-253.44C499.48,-243.27 567.99,-224.4 611.97,-212.29"/>
<polygon fill="midnightblue" stroke="midnightblue" points="613.06,-215.62 621.78,-209.59 611.21,-208.87 613.06,-215.62"/>
</g>
<!-- Node35&#45;&gt;Node25 -->
<g id="edge50" class="edge">
<title>Node35&#45;&gt;Node25</title>
<path fill="none" stroke="midnightblue" d="M445.97,-251.98C455.7,-242.78 471.4,-227.96 483.37,-216.66"/>
<polygon fill="midnightblue" stroke="midnightblue" points="486.07,-218.92 490.94,-209.51 481.26,-213.83 486.07,-218.92"/>
</g>
<!-- Node36&#45;&gt;Node24 -->
<g id="edge53" class="edge">
<title>Node36&#45;&gt;Node24</title>
<path fill="none" stroke="midnightblue" d="M428.1,-313.42C415.03,-299.19 387.85,-269.9 363.95,-246 316.23,-198.29 235.01,-177.39 274.95,-123 282.06,-113.31 346.2,-95.3 391.34,-83.61"/>
<polygon fill="midnightblue" stroke="midnightblue" points="392.41,-86.95 401.22,-81.07 390.67,-80.17 392.41,-86.95"/>
</g>
<!-- Node36&#45;&gt;Node35 -->
<g id="edge54" class="edge">
<title>Node36&#45;&gt;Node35</title>
<path fill="none" stroke="midnightblue" d="M436.09,-313.48C436.23,-305.08 436.45,-291.98 436.63,-281.16"/>
<polygon fill="midnightblue" stroke="midnightblue" points="440.14,-281.07 436.8,-271.01 433.14,-280.95 440.14,-281.07"/>
</g>
<!-- Node38 -->
<g id="node38" class="node">
<title>Node38</title>
<g id="a_node38"><a xlink:href="box__container_8h.html" target="_top" xlink:title=" ">
<polygon fill="white" stroke="black" points="906.45,-369.5 906.45,-388.5 991.45,-388.5 991.45,-369.5 906.45,-369.5"/>
<text text-anchor="middle" x="948.95" y="-376.5" font-family="Helvetica,sans-Serif" font-size="10.00">box_container.h</text>
</a>
</g>
</g>
<!-- Node37&#45;&gt;Node38 -->
<g id="edge61" class="edge">
<title>Node37&#45;&gt;Node38</title>
<path fill="none" stroke="midnightblue" d="M949.78,-425.08C949.65,-418.01 949.46,-407.86 949.3,-398.99"/>
<polygon fill="midnightblue" stroke="midnightblue" points="952.79,-398.68 949.11,-388.75 945.79,-398.81 952.79,-398.68"/>
</g>
<!-- Node39 -->
<g id="node39" class="node">
<title>Node39</title>
<g id="a_node39"><a xlink:title=" ">
<polygon fill="white" stroke="#bfbfbf" points="1004.45,-313.5 1004.45,-332.5 1087.45,-332.5 1087.45,-313.5 1004.45,-313.5"/>
<text text-anchor="middle" x="1045.95" y="-320.5" font-family="Helvetica,sans-Serif" font-size="10.00">unordered_map</text>
</a>
</g>
</g>
<!-- Node38&#45;&gt;Node39 -->
<g id="edge62" class="edge">
<title>Node38&#45;&gt;Node39</title>
<path fill="none" stroke="midnightblue" d="M964.53,-369.32C979.95,-360.74 1003.76,-347.49 1021.66,-337.52"/>
<polygon fill="midnightblue" stroke="midnightblue" points="1023.37,-340.58 1030.4,-332.65 1019.96,-334.46 1023.37,-340.58"/>
</g>
<!-- Node40 -->
<g id="node40" class="node">
<title>Node40</title>
<g id="a_node40"><a xlink:href="container_8h.html" target="_top" xlink:title=" ">
<polygon fill="white" stroke="black" points="829.95,-313.5 829.95,-332.5 893.95,-332.5 893.95,-313.5 829.95,-313.5"/>
<text text-anchor="middle" x="861.95" y="-320.5" font-family="Helvetica,sans-Serif" font-size="10.00">container.h</text>
</a>
</g>
</g>
<!-- Node38&#45;&gt;Node40 -->
<g id="edge63" class="edge">
<title>Node38&#45;&gt;Node40</title>
<path fill="none" stroke="midnightblue" d="M934.97,-369.32C921.4,-360.9 900.57,-347.97 884.62,-338.07"/>
<polygon fill="midnightblue" stroke="midnightblue" points="886.23,-334.95 875.89,-332.65 882.54,-340.9 886.23,-334.95"/>
</g>
<!-- Node41 -->
<g id="node41" class="node">
<title>Node41</title>
<g id="a_node41"><a xlink:title=" ">
<polygon fill="white" stroke="#bfbfbf" points="911.95,-313.5 911.95,-332.5 985.95,-332.5 985.95,-313.5 911.95,-313.5"/>
<text text-anchor="middle" x="948.95" y="-320.5" font-family="Helvetica,sans-Serif" font-size="10.00">sys/syscall.h</text>
</a>
</g>
</g>
<!-- Node38&#45;&gt;Node41 -->
<g id="edge65" class="edge">
<title>Node38&#45;&gt;Node41</title>
<path fill="none" stroke="midnightblue" d="M948.95,-369.08C948.95,-362.01 948.95,-351.86 948.95,-342.99"/>
<polygon fill="midnightblue" stroke="midnightblue" points="952.45,-342.75 948.95,-332.75 945.45,-342.75 952.45,-342.75"/>
</g>
<!-- Node40&#45;&gt;Node14 -->
<g id="edge64" class="edge">
<title>Node40&#45;&gt;Node14</title>
<path fill="none" stroke="midnightblue" d="M861.52,-313.48C861.09,-305.08 860.43,-291.98 859.89,-281.16"/>
<polygon fill="midnightblue" stroke="midnightblue" points="863.37,-280.82 859.38,-271.01 856.38,-281.17 863.37,-280.82"/>
</g>
</g>
</svg>
