<?xml version="1.0" encoding="UTF-8" standalone="no"?>
<!DOCTYPE svg PUBLIC "-//W3C//DTD SVG 1.1//EN"
 "http://www.w3.org/Graphics/SVG/1.1/DTD/svg11.dtd">
<!-- Generated by graphviz version 2.50.0 (20211204.2007)
 -->
<!-- Title: scene.cpp Pages: 1 -->
<!--zoomable 588 -->
<svg id="main" version="1.1" xmlns="http://www.w3.org/2000/svg" xmlns:xlink="http://www.w3.org/1999/xlink" xml:space="preserve" onload="init(evt)">
<style type="text/css"><![CDATA[
.edge:hover path { stroke: red; }
.edge:hover polygon { stroke: red; fill: red; }
]]></style>
<script type="text/javascript"><![CDATA[
var edges = document.getElementsByTagName('g');
if (edges && edges.length) {
  for (var i=0;i<edges.length;i++) {
    if (edges[i].id.substr(0,4)=='edge') {
      edges[i].setAttribute('class','edge');
    }
  }
}
]]></script>
        <defs>
                <circle id="rim" cx="0" cy="0" r="7"/>
                <circle id="rim2" cx="0" cy="0" r="3.5"/>
                <g id="zoomPlus">
                        <use xlink:href="#rim" fill="#404040">
                                <set attributeName="fill" to="#808080" begin="zoomplus.mouseover" end="zoomplus.mouseout"/>
                        </use>
                        <path d="M-4,0h8M0,-4v8" fill="none" stroke="white" stroke-width="1.5" pointer-events="none"/>
                </g>
                <g id="zoomMin">
                        <use xlink:href="#rim" fill="#404040">
                                <set attributeName="fill" to="#808080" begin="zoomminus.mouseover" end="zoomminus.mouseout"/>
                        </use>
                        <path d="M-4,0h8" fill="none" stroke="white" stroke-width="1.5" pointer-events="none"/>
                </g>
                <g id="dirArrow">
                        <path fill="none" stroke="white" stroke-width="1.5" d="M0,-3.0v7 M-2.5,-0.5L0,-3.0L2.5,-0.5"/>
                </g>
               <g id="resetDef">
                       <use xlink:href="#rim2" fill="#404040">
                               <set attributeName="fill" to="#808080" begin="reset.mouseover" end="reset.mouseout"/>
                       </use>
               </g>
        </defs>

<script type="text/javascript">
var viewWidth = 1126;
var viewHeight = 588;
var sectionId = 'dynsection-0';
</script>
<script xlink:href="svgpan.js"/>
<svg id="graph" class="graph">
<g id="viewport">
<title>scene.cpp</title>
<polygon fill="white" stroke="transparent" points="-4,4 -4,-584 1122.13,-584 1122.13,4 -4,4"/>
<!-- Node1 -->
<g id="node1" class="node">
<title>Node1</title>
<g id="a_node1"><a xlink:title=" ">
<polygon fill="#bfbfbf" stroke="black" points="734.13,-560.5 734.13,-579.5 796.13,-579.5 796.13,-560.5 734.13,-560.5"/>
<text text-anchor="middle" x="765.13" y="-567.5" font-family="Helvetica,sans-Serif" font-size="10.00">scene.cpp</text>
</a>
</g>
</g>
<!-- Node2 -->
<g id="node2" class="node">
<title>Node2</title>
<g id="a_node2"><a xlink:title=" ">
<polygon fill="white" stroke="#bfbfbf" points="695.63,-0.5 695.63,-19.5 838.63,-19.5 838.63,-0.5 695.63,-0.5"/>
<text text-anchor="middle" x="767.13" y="-7.5" font-family="Helvetica,sans-Serif" font-size="10.00">sml/events/system_events.h</text>
</a>
</g>
</g>
<!-- Node1&#45;&gt;Node2 -->
<g id="edge1" class="edge">
<title>Node1&#45;&gt;Node2</title>
<path fill="none" stroke="midnightblue" d="M733.76,-567.85C589.99,-562.17 1.13,-534.29 1.13,-459 1.13,-459 1.13,-459 1.13,-121 1.13,-90.9 -3.4,-74.77 20.13,-56 71.16,-15.3 502.36,-10.77 685.44,-10.7"/>
<polygon fill="midnightblue" stroke="midnightblue" points="685.56,-14.2 695.56,-10.7 685.56,-7.2 685.56,-14.2"/>
</g>
<!-- Node3 -->
<g id="node3" class="node">
<title>Node3</title>
<g id="a_node3"><a xlink:href="scene_8h.html" target="_top" xlink:title=" ">
<polygon fill="white" stroke="black" points="861.13,-504.5 861.13,-523.5 941.13,-523.5 941.13,-504.5 861.13,-504.5"/>
<text text-anchor="middle" x="901.13" y="-511.5" font-family="Helvetica,sans-Serif" font-size="10.00">scene/scene.h</text>
</a>
</g>
</g>
<!-- Node1&#45;&gt;Node3 -->
<g id="edge2" class="edge">
<title>Node1&#45;&gt;Node3</title>
<path fill="none" stroke="midnightblue" d="M786.68,-560.44C809.16,-551.52 844.62,-537.44 870.11,-527.32"/>
<polygon fill="midnightblue" stroke="midnightblue" points="871.68,-530.46 879.68,-523.52 869.1,-523.95 871.68,-530.46"/>
</g>
<!-- Node14 -->
<g id="node14" class="node">
<title>Node14</title>
<g id="a_node14"><a xlink:href="parent_8h.html" target="_top" xlink:title=" ">
<polygon fill="white" stroke="black" points="876.63,-224.5 876.63,-243.5 937.63,-243.5 937.63,-224.5 876.63,-224.5"/>
<text text-anchor="middle" x="907.13" y="-231.5" font-family="Helvetica,sans-Serif" font-size="10.00">../parent.h</text>
</a>
</g>
</g>
<!-- Node1&#45;&gt;Node14 -->
<g id="edge66" class="edge">
<title>Node1&#45;&gt;Node14</title>
<path fill="none" stroke="midnightblue" d="M765.13,-560.44C765.13,-541.94 765.13,-496.81 765.13,-459 765.13,-459 765.13,-459 765.13,-401 765.13,-343.15 771.59,-320.26 813.13,-280 828.44,-265.16 849.57,-254.45 867.92,-247.21"/>
<polygon fill="midnightblue" stroke="midnightblue" points="869.35,-250.41 877.49,-243.64 866.9,-243.86 869.35,-250.41"/>
</g>
<!-- Node4 -->
<g id="node4" class="node">
<title>Node4</title>
<g id="a_node4"><a xlink:href="gui__event__dispatching_8h.html" target="_top" xlink:title=" ">
<polygon fill="white" stroke="black" points="661.63,-112.5 661.63,-131.5 824.63,-131.5 824.63,-112.5 661.63,-112.5"/>
<text text-anchor="middle" x="743.13" y="-119.5" font-family="Helvetica,sans-Serif" font-size="10.00">../events/gui_event_dispatching.h</text>
</a>
</g>
</g>
<!-- Node3&#45;&gt;Node4 -->
<g id="edge3" class="edge">
<title>Node3&#45;&gt;Node4</title>
<path fill="none" stroke="midnightblue" d="M941.19,-510.42C1003.89,-503.97 1118.13,-481.46 1118.13,-403 1118.13,-403 1118.13,-403 1118.13,-345 1118.13,-207.07 927.95,-153.01 818.46,-133.31"/>
<polygon fill="midnightblue" stroke="midnightblue" points="818.91,-129.83 808.45,-131.56 817.7,-136.73 818.91,-129.83"/>
</g>
<!-- Node11 -->
<g id="node11" class="node">
<title>Node11</title>
<g id="a_node11"><a xlink:href="menu__bar_8h.html" target="_top" xlink:title=" ">
<polygon fill="white" stroke="black" points="843.63,-448.5 843.63,-467.5 958.63,-467.5 958.63,-448.5 843.63,-448.5"/>
<text text-anchor="middle" x="901.13" y="-455.5" font-family="Helvetica,sans-Serif" font-size="10.00">containers/menu_bar.h</text>
</a>
</g>
</g>
<!-- Node3&#45;&gt;Node11 -->
<g id="edge12" class="edge">
<title>Node3&#45;&gt;Node11</title>
<path fill="none" stroke="midnightblue" d="M901.13,-504.08C901.13,-497.01 901.13,-486.86 901.13,-477.99"/>
<polygon fill="midnightblue" stroke="midnightblue" points="904.63,-477.75 901.13,-467.75 897.63,-477.75 904.63,-477.75"/>
</g>
<!-- Node4&#45;&gt;Node2 -->
<g id="edge7" class="edge">
<title>Node4&#45;&gt;Node2</title>
<path fill="none" stroke="midnightblue" d="M745.02,-112.37C748.89,-94.62 757.82,-53.67 763.07,-29.6"/>
<polygon fill="midnightblue" stroke="midnightblue" points="766.55,-30.11 765.26,-19.59 759.71,-28.62 766.55,-30.11"/>
</g>
<!-- Node5 -->
<g id="node5" class="node">
<title>Node5</title>
<g id="a_node5"><a xlink:title=" ">
<polygon fill="white" stroke="#bfbfbf" points="535.13,-56.5 535.13,-75.5 579.13,-75.5 579.13,-56.5 535.13,-56.5"/>
<text text-anchor="middle" x="557.13" y="-63.5" font-family="Helvetica,sans-Serif" font-size="10.00">vector</text>
</a>
</g>
</g>
<!-- Node4&#45;&gt;Node5 -->
<g id="edge4" class="edge">
<title>Node4&#45;&gt;Node5</title>
<path fill="none" stroke="midnightblue" d="M713.66,-112.44C679.63,-102.56 623.86,-86.37 588.89,-76.22"/>
<polygon fill="midnightblue" stroke="midnightblue" points="589.77,-72.83 579.19,-73.4 587.81,-79.55 589.77,-72.83"/>
</g>
<!-- Node6 -->
<g id="node6" class="node">
<title>Node6</title>
<g id="a_node6"><a xlink:title=" ">
<polygon fill="white" stroke="#bfbfbf" points="795.63,-56.5 795.63,-75.5 950.63,-75.5 950.63,-56.5 795.63,-56.5"/>
<text text-anchor="middle" x="873.13" y="-63.5" font-family="Helvetica,sans-Serif" font-size="10.00">sml/events/event_dispatching.h</text>
</a>
</g>
</g>
<!-- Node4&#45;&gt;Node6 -->
<g id="edge5" class="edge">
<title>Node4&#45;&gt;Node6</title>
<path fill="none" stroke="midnightblue" d="M763.73,-112.44C785.13,-103.56 818.81,-89.56 843.16,-79.45"/>
<polygon fill="midnightblue" stroke="midnightblue" points="844.74,-82.58 852.63,-75.52 842.05,-76.12 844.74,-82.58"/>
</g>
<!-- Node7 -->
<g id="node7" class="node">
<title>Node7</title>
<g id="a_node7"><a xlink:title=" ">
<polygon fill="white" stroke="#bfbfbf" points="597.63,-56.5 597.63,-75.5 738.63,-75.5 738.63,-56.5 597.63,-56.5"/>
<text text-anchor="middle" x="668.13" y="-63.5" font-family="Helvetica,sans-Serif" font-size="10.00">sml/events/listener_notifier.h</text>
</a>
</g>
</g>
<!-- Node4&#45;&gt;Node7 -->
<g id="edge6" class="edge">
<title>Node4&#45;&gt;Node7</title>
<path fill="none" stroke="midnightblue" d="M731.08,-112.32C719.67,-104.11 702.3,-91.6 688.7,-81.81"/>
<polygon fill="midnightblue" stroke="midnightblue" points="690.56,-78.84 680.4,-75.83 686.47,-84.52 690.56,-78.84"/>
</g>
<!-- Node8 -->
<g id="node8" class="node">
<title>Node8</title>
<g id="a_node8"><a xlink:href="gui__event_8h.html" target="_top" xlink:title=" ">
<polygon fill="white" stroke="black" points="968.63,-56.5 968.63,-75.5 1035.63,-75.5 1035.63,-56.5 968.63,-56.5"/>
<text text-anchor="middle" x="1002.13" y="-63.5" font-family="Helvetica,sans-Serif" font-size="10.00">gui_event.h</text>
</a>
</g>
</g>
<!-- Node4&#45;&gt;Node8 -->
<g id="edge8" class="edge">
<title>Node4&#45;&gt;Node8</title>
<path fill="none" stroke="midnightblue" d="M784.75,-112.45C826.31,-103.9 892.3,-90.27 958.08,-76.42"/>
<polygon fill="midnightblue" stroke="midnightblue" points="959.15,-79.78 968.21,-74.29 957.7,-72.93 959.15,-79.78"/>
</g>
<!-- Node8&#45;&gt;Node2 -->
<g id="edge10" class="edge">
<title>Node8&#45;&gt;Node2</title>
<path fill="none" stroke="midnightblue" d="M968.46,-57.26C927.99,-47.96 859.84,-32.3 814.18,-21.81"/>
<polygon fill="midnightblue" stroke="midnightblue" points="814.76,-18.35 804.23,-19.52 813.19,-25.18 814.76,-18.35"/>
</g>
<!-- Node9 -->
<g id="node9" class="node">
<title>Node9</title>
<g id="a_node9"><a xlink:title=" ">
<polygon fill="white" stroke="#bfbfbf" points="904.13,-0.5 904.13,-19.5 1004.13,-19.5 1004.13,-0.5 904.13,-0.5"/>
<text text-anchor="middle" x="954.13" y="-7.5" font-family="Helvetica,sans-Serif" font-size="10.00">sml/events/event.h</text>
</a>
</g>
</g>
<!-- Node8&#45;&gt;Node9 -->
<g id="edge9" class="edge">
<title>Node8&#45;&gt;Node9</title>
<path fill="none" stroke="midnightblue" d="M994.21,-56.08C987.29,-48.3 977.07,-36.8 968.68,-27.37"/>
<polygon fill="midnightblue" stroke="midnightblue" points="971.17,-24.9 961.91,-19.75 965.94,-29.55 971.17,-24.9"/>
</g>
<!-- Node10 -->
<g id="node10" class="node">
<title>Node10</title>
<g id="a_node10"><a xlink:title=" ">
<polygon fill="white" stroke="#bfbfbf" points="1022.63,-0.5 1022.63,-19.5 1099.63,-19.5 1099.63,-0.5 1022.63,-0.5"/>
<text text-anchor="middle" x="1061.13" y="-7.5" font-family="Helvetica,sans-Serif" font-size="10.00">sml/sml_log.h</text>
</a>
</g>
</g>
<!-- Node8&#45;&gt;Node10 -->
<g id="edge11" class="edge">
<title>Node8&#45;&gt;Node10</title>
<path fill="none" stroke="midnightblue" d="M1011.61,-56.32C1020.33,-48.34 1033.48,-36.31 1044.03,-26.65"/>
<polygon fill="midnightblue" stroke="midnightblue" points="1046.47,-29.17 1051.48,-19.83 1041.74,-24 1046.47,-29.17"/>
</g>
<!-- Node12 -->
<g id="node12" class="node">
<title>Node12</title>
<g id="a_node12"><a xlink:href="button_8h.html" target="_top" xlink:title=" ">
<polygon fill="white" stroke="black" points="793.13,-392.5 793.13,-411.5 891.13,-411.5 891.13,-392.5 793.13,-392.5"/>
<text text-anchor="middle" x="842.13" y="-399.5" font-family="Helvetica,sans-Serif" font-size="10.00">../controls/button.h</text>
</a>
</g>
</g>
<!-- Node11&#45;&gt;Node12 -->
<g id="edge13" class="edge">
<title>Node11&#45;&gt;Node12</title>
<path fill="none" stroke="midnightblue" d="M891.65,-448.32C882.93,-440.34 869.79,-428.31 859.23,-418.65"/>
<polygon fill="midnightblue" stroke="midnightblue" points="861.52,-416 851.78,-411.83 856.8,-421.17 861.52,-416"/>
</g>
<!-- Node37 -->
<g id="node37" class="node">
<title>Node37</title>
<g id="a_node37"><a xlink:href="context__menu_8h.html" target="_top" xlink:title=" ">
<polygon fill="white" stroke="black" points="909.13,-392.5 909.13,-411.5 995.13,-411.5 995.13,-392.5 909.13,-392.5"/>
<text text-anchor="middle" x="952.13" y="-399.5" font-family="Helvetica,sans-Serif" font-size="10.00">context_menu.h</text>
</a>
</g>
</g>
<!-- Node11&#45;&gt;Node37 -->
<g id="edge60" class="edge">
<title>Node11&#45;&gt;Node37</title>
<path fill="none" stroke="midnightblue" d="M909.55,-448.08C916.98,-440.22 927.98,-428.57 936.94,-419.08"/>
<polygon fill="midnightblue" stroke="midnightblue" points="939.55,-421.42 943.87,-411.75 934.46,-416.62 939.55,-421.42"/>
</g>
<!-- Node13 -->
<g id="node13" class="node">
<title>Node13</title>
<g id="a_node13"><a xlink:href="control_8h.html" target="_top" xlink:title=" ">
<polygon fill="white" stroke="black" points="793.13,-336.5 793.13,-355.5 847.13,-355.5 847.13,-336.5 793.13,-336.5"/>
<text text-anchor="middle" x="820.13" y="-343.5" font-family="Helvetica,sans-Serif" font-size="10.00">control.h</text>
</a>
</g>
</g>
<!-- Node12&#45;&gt;Node13 -->
<g id="edge14" class="edge">
<title>Node12&#45;&gt;Node13</title>
<path fill="none" stroke="midnightblue" d="M838.5,-392.08C835.52,-384.77 831.21,-374.18 827.51,-365.1"/>
<polygon fill="midnightblue" stroke="midnightblue" points="830.71,-363.69 823.7,-355.75 824.23,-366.33 830.71,-363.69"/>
</g>
<!-- Node31 -->
<g id="node31" class="node">
<title>Node31</title>
<g id="a_node31"><a xlink:href="default__skins_8h.html" target="_top" xlink:title=" ">
<polygon fill="white" stroke="black" points="481.13,-336.5 481.13,-355.5 597.13,-355.5 597.13,-336.5 481.13,-336.5"/>
<text text-anchor="middle" x="539.13" y="-343.5" font-family="Helvetica,sans-Serif" font-size="10.00">../style/default_skins.h</text>
</a>
</g>
</g>
<!-- Node12&#45;&gt;Node31 -->
<g id="edge41" class="edge">
<title>Node12&#45;&gt;Node31</title>
<path fill="none" stroke="midnightblue" d="M794.12,-392.44C740.6,-382.9 654.07,-367.48 596.89,-357.29"/>
<polygon fill="midnightblue" stroke="midnightblue" points="597.38,-353.83 586.92,-355.52 596.15,-360.72 597.38,-353.83"/>
</g>
<!-- Node13&#45;&gt;Node14 -->
<g id="edge15" class="edge">
<title>Node13&#45;&gt;Node14</title>
<path fill="none" stroke="midnightblue" d="M817.99,-336.21C815.28,-322.91 812.17,-297.39 823.13,-280 833.09,-264.21 850.59,-253.59 867.05,-246.66"/>
<polygon fill="midnightblue" stroke="midnightblue" points="868.49,-249.86 876.56,-242.99 865.97,-243.33 868.49,-249.86"/>
</g>
<!-- Node29 -->
<g id="node29" class="node">
<title>Node29</title>
<g id="a_node29"><a xlink:href="skin_8h.html" target="_top" xlink:title=" ">
<polygon fill="white" stroke="black" points="662.13,-280.5 662.13,-299.5 738.13,-299.5 738.13,-280.5 662.13,-280.5"/>
<text text-anchor="middle" x="700.13" y="-287.5" font-family="Helvetica,sans-Serif" font-size="10.00">../style/skin.h</text>
</a>
</g>
</g>
<!-- Node13&#45;&gt;Node29 -->
<g id="edge38" class="edge">
<title>Node13&#45;&gt;Node29</title>
<path fill="none" stroke="midnightblue" d="M801.12,-336.44C781.54,-327.64 750.82,-313.81 728.4,-303.72"/>
<polygon fill="midnightblue" stroke="midnightblue" points="729.61,-300.43 719.06,-299.52 726.74,-306.81 729.61,-300.43"/>
</g>
<!-- Node15 -->
<g id="node15" class="node">
<title>Node15</title>
<g id="a_node15"><a xlink:href="component_8h.html" target="_top" xlink:title=" ">
<polygon fill="white" stroke="black" points="348.63,-168.5 348.63,-187.5 421.63,-187.5 421.63,-168.5 348.63,-168.5"/>
<text text-anchor="middle" x="385.13" y="-175.5" font-family="Helvetica,sans-Serif" font-size="10.00">component.h</text>
</a>
</g>
</g>
<!-- Node14&#45;&gt;Node15 -->
<g id="edge16" class="edge">
<title>Node14&#45;&gt;Node15</title>
<path fill="none" stroke="midnightblue" d="M876.4,-229.31C862.05,-227.62 844.72,-225.64 829.13,-224 660.86,-206.3 618.2,-207.61 450.13,-188 444.26,-187.31 438.1,-186.54 432.01,-185.73"/>
<polygon fill="midnightblue" stroke="midnightblue" points="432.26,-182.24 421.88,-184.37 431.32,-189.17 432.26,-182.24"/>
</g>
<!-- Node20 -->
<g id="node20" class="node">
<title>Node20</title>
<g id="a_node20"><a xlink:href="insets_8h.html" target="_top" xlink:title=" ">
<polygon fill="white" stroke="black" points="1004.13,-112.5 1004.13,-131.5 1088.13,-131.5 1088.13,-112.5 1004.13,-112.5"/>
<text text-anchor="middle" x="1046.13" y="-119.5" font-family="Helvetica,sans-Serif" font-size="10.00">../paint/insets.h</text>
</a>
</g>
</g>
<!-- Node14&#45;&gt;Node20 -->
<g id="edge22" class="edge">
<title>Node14&#45;&gt;Node20</title>
<path fill="none" stroke="midnightblue" d="M918.04,-224.37C941.69,-205.65 997.92,-161.15 1027.39,-137.83"/>
<polygon fill="midnightblue" stroke="midnightblue" points="1029.61,-140.54 1035.28,-131.59 1025.26,-135.05 1029.61,-140.54"/>
</g>
<!-- Node22 -->
<g id="node22" class="node">
<title>Node22</title>
<g id="a_node22"><a xlink:href="border_8h.html" target="_top" xlink:title=" ">
<polygon fill="white" stroke="black" points="638.13,-168.5 638.13,-187.5 722.13,-187.5 722.13,-168.5 638.13,-168.5"/>
<text text-anchor="middle" x="680.13" y="-175.5" font-family="Helvetica,sans-Serif" font-size="10.00">../paint/border.h</text>
</a>
</g>
</g>
<!-- Node14&#45;&gt;Node22 -->
<g id="edge24" class="edge">
<title>Node14&#45;&gt;Node22</title>
<path fill="none" stroke="midnightblue" d="M876.52,-225.72C837.82,-216.51 770.84,-200.58 726.01,-189.91"/>
<polygon fill="midnightblue" stroke="midnightblue" points="726.78,-186.5 716.24,-187.59 725.16,-193.31 726.78,-186.5"/>
</g>
<!-- Node25 -->
<g id="node25" class="node">
<title>Node25</title>
<g id="a_node25"><a xlink:href="background_8h.html" target="_top" xlink:title=" ">
<polygon fill="white" stroke="black" points="459.13,-168.5 459.13,-187.5 567.13,-187.5 567.13,-168.5 459.13,-168.5"/>
<text text-anchor="middle" x="513.13" y="-175.5" font-family="Helvetica,sans-Serif" font-size="10.00">../paint/background.h</text>
</a>
</g>
</g>
<!-- Node14&#45;&gt;Node25 -->
<g id="edge28" class="edge">
<title>Node14&#45;&gt;Node25</title>
<path fill="none" stroke="midnightblue" d="M876.54,-228.81C812.54,-220.04 663.33,-199.59 577.32,-187.8"/>
<polygon fill="midnightblue" stroke="midnightblue" points="577.8,-184.33 567.41,-186.44 576.84,-191.26 577.8,-184.33"/>
</g>
<!-- Node15&#45;&gt;Node4 -->
<g id="edge18" class="edge">
<title>Node15&#45;&gt;Node4</title>
<path fill="none" stroke="midnightblue" d="M421.76,-171.47C481.59,-162.45 601.12,-144.42 676.35,-133.07"/>
<polygon fill="midnightblue" stroke="midnightblue" points="677.29,-136.47 686.66,-131.52 676.25,-129.55 677.29,-136.47"/>
</g>
<!-- Node16 -->
<g id="node16" class="node">
<title>Node16</title>
<g id="a_node16"><a xlink:title=" ">
<polygon fill="white" stroke="#bfbfbf" points="297.13,-112.5 297.13,-131.5 437.13,-131.5 437.13,-112.5 297.13,-112.5"/>
<text text-anchor="middle" x="367.13" y="-119.5" font-family="Helvetica,sans-Serif" font-size="10.00">sml/sml_graphics_wrapper.h</text>
</a>
</g>
</g>
<!-- Node15&#45;&gt;Node16 -->
<g id="edge17" class="edge">
<title>Node15&#45;&gt;Node16</title>
<path fill="none" stroke="midnightblue" d="M382.16,-168.08C379.75,-160.85 376.27,-150.41 373.26,-141.4"/>
<polygon fill="midnightblue" stroke="midnightblue" points="376.53,-140.13 370.05,-131.75 369.89,-142.34 376.53,-140.13"/>
</g>
<!-- Node17 -->
<g id="node17" class="node">
<title>Node17</title>
<g id="a_node17"><a xlink:href="shadow_8h.html" target="_top" xlink:title=" ">
<polygon fill="white" stroke="black" points="43.13,-112.5 43.13,-131.5 133.13,-131.5 133.13,-112.5 43.13,-112.5"/>
<text text-anchor="middle" x="88.13" y="-119.5" font-family="Helvetica,sans-Serif" font-size="10.00">../paint/shadow.h</text>
</a>
</g>
</g>
<!-- Node15&#45;&gt;Node17 -->
<g id="edge19" class="edge">
<title>Node15&#45;&gt;Node17</title>
<path fill="none" stroke="midnightblue" d="M348.42,-170.32C296.99,-160.97 203.12,-143.91 143.28,-133.03"/>
<polygon fill="midnightblue" stroke="midnightblue" points="143.71,-129.55 133.25,-131.2 142.46,-136.44 143.71,-129.55"/>
</g>
<!-- Node18 -->
<g id="node18" class="node">
<title>Node18</title>
<g id="a_node18"><a xlink:title=" ">
<polygon fill="white" stroke="#bfbfbf" points="29.63,-56.5 29.63,-75.5 112.63,-75.5 112.63,-56.5 29.63,-56.5"/>
<text text-anchor="middle" x="71.13" y="-63.5" font-family="Helvetica,sans-Serif" font-size="10.00">sml/math/blur.h</text>
</a>
</g>
</g>
<!-- Node17&#45;&gt;Node18 -->
<g id="edge20" class="edge">
<title>Node17&#45;&gt;Node18</title>
<path fill="none" stroke="midnightblue" d="M85.33,-112.08C83.05,-104.85 79.76,-94.41 76.92,-85.4"/>
<polygon fill="midnightblue" stroke="midnightblue" points="80.23,-84.24 73.89,-75.75 73.55,-86.34 80.23,-84.24"/>
</g>
<!-- Node19 -->
<g id="node19" class="node">
<title>Node19</title>
<g id="a_node19"><a xlink:title=" ">
<polygon fill="white" stroke="#bfbfbf" points="130.63,-56.5 130.63,-75.5 283.63,-75.5 283.63,-56.5 130.63,-56.5"/>
<text text-anchor="middle" x="207.13" y="-63.5" font-family="Helvetica,sans-Serif" font-size="10.00">sml/graphics_wrapper/texture.h</text>
</a>
</g>
</g>
<!-- Node17&#45;&gt;Node19 -->
<g id="edge21" class="edge">
<title>Node17&#45;&gt;Node19</title>
<path fill="none" stroke="midnightblue" d="M106.99,-112.44C126.4,-103.64 156.86,-89.81 179.1,-79.72"/>
<polygon fill="midnightblue" stroke="midnightblue" points="180.7,-82.84 188.36,-75.52 177.81,-76.46 180.7,-82.84"/>
</g>
<!-- Node21 -->
<g id="node21" class="node">
<title>Node21</title>
<g id="a_node21"><a xlink:title=" ">
<polygon fill="white" stroke="#bfbfbf" points="1053.63,-56.5 1053.63,-75.5 1102.63,-75.5 1102.63,-56.5 1053.63,-56.5"/>
<text text-anchor="middle" x="1078.13" y="-63.5" font-family="Helvetica,sans-Serif" font-size="10.00">stdint.h</text>
</a>
</g>
</g>
<!-- Node20&#45;&gt;Node21 -->
<g id="edge23" class="edge">
<title>Node20&#45;&gt;Node21</title>
<path fill="none" stroke="midnightblue" d="M1051.42,-112.08C1055.84,-104.61 1062.3,-93.72 1067.75,-84.52"/>
<polygon fill="midnightblue" stroke="midnightblue" points="1070.86,-86.14 1072.95,-75.75 1064.84,-82.57 1070.86,-86.14"/>
</g>
<!-- Node22&#45;&gt;Node20 -->
<g id="edge27" class="edge">
<title>Node22&#45;&gt;Node20</title>
<path fill="none" stroke="midnightblue" d="M722.23,-171.43C780.82,-163.59 890.49,-148.54 994.12,-132.12"/>
<polygon fill="midnightblue" stroke="midnightblue" points="994.8,-135.55 1004.13,-130.53 993.7,-128.64 994.8,-135.55"/>
</g>
<!-- Node23 -->
<g id="node23" class="node">
<title>Node23</title>
<g id="a_node23"><a xlink:title=" ">
<polygon fill="white" stroke="#bfbfbf" points="842.63,-112.5 842.63,-131.5 985.63,-131.5 985.63,-112.5 842.63,-112.5"/>
<text text-anchor="middle" x="914.13" y="-119.5" font-family="Helvetica,sans-Serif" font-size="10.00">sml/graphics_wrapper/color.h</text>
</a>
</g>
</g>
<!-- Node22&#45;&gt;Node23 -->
<g id="edge25" class="edge">
<title>Node22&#45;&gt;Node23</title>
<path fill="none" stroke="midnightblue" d="M717.21,-168.44C757.86,-159.06 823.16,-143.99 867.32,-133.8"/>
<polygon fill="midnightblue" stroke="midnightblue" points="868.27,-137.18 877.23,-131.52 866.7,-130.35 868.27,-137.18"/>
</g>
<!-- Node24 -->
<g id="node24" class="node">
<title>Node24</title>
<g id="a_node24"><a xlink:title=" ">
<polygon fill="white" stroke="#bfbfbf" points="409.13,-56.5 409.13,-75.5 517.13,-75.5 517.13,-56.5 409.13,-56.5"/>
<text text-anchor="middle" x="463.13" y="-63.5" font-family="Helvetica,sans-Serif" font-size="10.00">sml/math/rectangle.h</text>
</a>
</g>
</g>
<!-- Node22&#45;&gt;Node24 -->
<g id="edge26" class="edge">
<title>Node22&#45;&gt;Node24</title>
<path fill="none" stroke="midnightblue" d="M663.1,-168.37C625.31,-149.21 534.22,-103.04 489.21,-80.22"/>
<polygon fill="midnightblue" stroke="midnightblue" points="490.58,-76.99 480.08,-75.59 487.42,-83.23 490.58,-76.99"/>
</g>
<!-- Node25&#45;&gt;Node5 -->
<g id="edge29" class="edge">
<title>Node25&#45;&gt;Node5</title>
<path fill="none" stroke="midnightblue" d="M517.13,-168.44C521.29,-159.44 527.92,-144.83 533.13,-132 539.43,-116.5 545.97,-98.66 550.63,-85.6"/>
<polygon fill="midnightblue" stroke="midnightblue" points="554.02,-86.5 554.05,-75.9 547.42,-84.16 554.02,-86.5"/>
</g>
<!-- Node25&#45;&gt;Node24 -->
<g id="edge30" class="edge">
<title>Node25&#45;&gt;Node24</title>
<path fill="none" stroke="midnightblue" d="M512.52,-168.18C511.35,-155.28 508.05,-130.77 499.13,-112 494.16,-101.54 486.32,-91.33 479.23,-83.29"/>
<polygon fill="midnightblue" stroke="midnightblue" points="481.62,-80.73 472.25,-75.78 476.49,-85.49 481.62,-80.73"/>
</g>
<!-- Node26 -->
<g id="node26" class="node">
<title>Node26</title>
<g id="a_node26"><a xlink:href="fill_8h.html" target="_top" xlink:title=" ">
<polygon fill="white" stroke="black" points="455.63,-112.5 455.63,-131.5 490.63,-131.5 490.63,-112.5 455.63,-112.5"/>
<text text-anchor="middle" x="473.13" y="-119.5" font-family="Helvetica,sans-Serif" font-size="10.00">fill.h</text>
</a>
</g>
</g>
<!-- Node25&#45;&gt;Node26 -->
<g id="edge31" class="edge">
<title>Node25&#45;&gt;Node26</title>
<path fill="none" stroke="midnightblue" d="M506.53,-168.08C500.88,-160.46 492.59,-149.26 485.68,-139.94"/>
<polygon fill="midnightblue" stroke="midnightblue" points="488.38,-137.7 479.61,-131.75 482.75,-141.87 488.38,-137.7"/>
</g>
<!-- Node28 -->
<g id="node28" class="node">
<title>Node28</title>
<g id="a_node28"><a xlink:href="image_8h.html" target="_top" xlink:title=" ">
<polygon fill="white" stroke="black" points="151.63,-112.5 151.63,-131.5 240.63,-131.5 240.63,-112.5 151.63,-112.5"/>
<text text-anchor="middle" x="196.13" y="-119.5" font-family="Helvetica,sans-Serif" font-size="10.00">../media/image.h</text>
</a>
</g>
</g>
<!-- Node25&#45;&gt;Node28 -->
<g id="edge36" class="edge">
<title>Node25&#45;&gt;Node28</title>
<path fill="none" stroke="midnightblue" d="M462.9,-168.44C405.06,-158.59 310.36,-142.46 250.73,-132.3"/>
<polygon fill="midnightblue" stroke="midnightblue" points="251.2,-128.83 240.75,-130.6 250.02,-135.73 251.2,-128.83"/>
</g>
<!-- Node26&#45;&gt;Node5 -->
<g id="edge32" class="edge">
<title>Node26&#45;&gt;Node5</title>
<path fill="none" stroke="midnightblue" d="M486.63,-112.32C499.73,-103.9 519.84,-90.97 535.24,-81.07"/>
<polygon fill="midnightblue" stroke="midnightblue" points="537.15,-84.01 543.67,-75.65 533.37,-78.12 537.15,-84.01"/>
</g>
<!-- Node26&#45;&gt;Node19 -->
<g id="edge35" class="edge">
<title>Node26&#45;&gt;Node19</title>
<path fill="none" stroke="midnightblue" d="M455.52,-114.75C452.41,-113.75 449.19,-112.79 446.13,-112 388.9,-97.15 322.77,-85.08 274.59,-77.19"/>
<polygon fill="midnightblue" stroke="midnightblue" points="275.03,-73.72 264.6,-75.57 273.91,-80.63 275.03,-73.72"/>
</g>
<!-- Node26&#45;&gt;Node24 -->
<g id="edge34" class="edge">
<title>Node26&#45;&gt;Node24</title>
<path fill="none" stroke="midnightblue" d="M471.48,-112.08C470.16,-104.93 468.25,-94.64 466.59,-85.69"/>
<polygon fill="midnightblue" stroke="midnightblue" points="470.02,-84.95 464.75,-75.75 463.13,-86.22 470.02,-84.95"/>
</g>
<!-- Node27 -->
<g id="node27" class="node">
<title>Node27</title>
<g id="a_node27"><a xlink:title=" ">
<polygon fill="white" stroke="#bfbfbf" points="301.63,-56.5 301.63,-75.5 390.63,-75.5 390.63,-56.5 301.63,-56.5"/>
<text text-anchor="middle" x="346.13" y="-63.5" font-family="Helvetica,sans-Serif" font-size="10.00">sml/math/vec2.h</text>
</a>
</g>
</g>
<!-- Node26&#45;&gt;Node27 -->
<g id="edge33" class="edge">
<title>Node26&#45;&gt;Node27</title>
<path fill="none" stroke="midnightblue" d="M455.47,-113.49C434.78,-104.69 400.16,-89.97 375.42,-79.46"/>
<polygon fill="midnightblue" stroke="midnightblue" points="376.72,-76.2 366.15,-75.51 373.98,-82.65 376.72,-76.2"/>
</g>
<!-- Node28&#45;&gt;Node19 -->
<g id="edge37" class="edge">
<title>Node28&#45;&gt;Node19</title>
<path fill="none" stroke="midnightblue" d="M197.95,-112.08C199.41,-104.93 201.5,-94.64 203.32,-85.69"/>
<polygon fill="midnightblue" stroke="midnightblue" points="206.78,-86.25 205.35,-75.75 199.92,-84.85 206.78,-86.25"/>
</g>
<!-- Node29&#45;&gt;Node20 -->
<g id="edge40" class="edge">
<title>Node29&#45;&gt;Node20</title>
<path fill="none" stroke="midnightblue" d="M729.7,-280.44C756.26,-272.35 796.05,-259.2 829.13,-244 859.71,-229.95 930.66,-184.25 960.13,-168 979.99,-157.05 1002.74,-145.18 1019.85,-136.38"/>
<polygon fill="midnightblue" stroke="midnightblue" points="1021.91,-139.26 1029.21,-131.58 1018.71,-133.03 1021.91,-139.26"/>
</g>
<!-- Node30 -->
<g id="node30" class="node">
<title>Node30</title>
<g id="a_node30"><a xlink:title=" ">
<polygon fill="white" stroke="#bfbfbf" points="662.13,-224.5 662.13,-243.5 820.13,-243.5 820.13,-224.5 662.13,-224.5"/>
<text text-anchor="middle" x="741.13" y="-231.5" font-family="Helvetica,sans-Serif" font-size="10.00">sml/graphics_wrapper/renderer.h</text>
</a>
</g>
</g>
<!-- Node29&#45;&gt;Node30 -->
<g id="edge39" class="edge">
<title>Node29&#45;&gt;Node30</title>
<path fill="none" stroke="midnightblue" d="M706.9,-280.08C712.69,-272.46 721.19,-261.26 728.27,-251.94"/>
<polygon fill="midnightblue" stroke="midnightblue" points="731.23,-253.83 734.49,-243.75 725.65,-249.6 731.23,-253.83"/>
</g>
<!-- Node31&#45;&gt;Node7 -->
<g id="edge42" class="edge">
<title>Node31&#45;&gt;Node7</title>
<path fill="none" stroke="midnightblue" d="M543.13,-336.38C561.16,-297.54 634.97,-138.47 659.88,-84.79"/>
<polygon fill="midnightblue" stroke="midnightblue" points="663.14,-86.07 664.18,-75.52 656.79,-83.12 663.14,-86.07"/>
</g>
<!-- Node31&#45;&gt;Node17 -->
<g id="edge58" class="edge">
<title>Node31&#45;&gt;Node17</title>
<path fill="none" stroke="midnightblue" d="M481.05,-342.34C418.13,-338.12 315.43,-327.34 231.13,-300 180.08,-283.44 158.25,-285.43 124.13,-244 99.48,-214.07 91.71,-167.72 89.26,-141.94"/>
<polygon fill="midnightblue" stroke="midnightblue" points="92.73,-141.38 88.47,-131.68 85.75,-141.92 92.73,-141.38"/>
</g>
<!-- Node31&#45;&gt;Node20 -->
<g id="edge57" class="edge">
<title>Node31&#45;&gt;Node20</title>
<path fill="none" stroke="midnightblue" d="M550.64,-336.28C561.76,-327.61 578.83,-313.67 592.13,-300 622.33,-268.95 616.74,-247.48 653.13,-224 682.22,-205.23 898.29,-155.75 997.09,-133.78"/>
<polygon fill="midnightblue" stroke="midnightblue" points="998.12,-137.13 1007.13,-131.55 996.61,-130.3 998.12,-137.13"/>
</g>
<!-- Node31&#45;&gt;Node22 -->
<g id="edge56" class="edge">
<title>Node31&#45;&gt;Node22</title>
<path fill="none" stroke="midnightblue" d="M545.89,-336.17C552.7,-327.19 563.41,-312.81 572.13,-300 594.63,-266.98 593.04,-253.36 620.13,-224 631.04,-212.18 645.39,-201.29 657.32,-193.19"/>
<polygon fill="midnightblue" stroke="midnightblue" points="659.44,-195.98 665.88,-187.56 655.6,-190.13 659.44,-195.98"/>
</g>
<!-- Node31&#45;&gt;Node25 -->
<g id="edge55" class="edge">
<title>Node31&#45;&gt;Node25</title>
<path fill="none" stroke="midnightblue" d="M537.73,-336.08C533.64,-309.95 521.62,-233.21 516.04,-197.58"/>
<polygon fill="midnightblue" stroke="midnightblue" points="519.48,-196.91 514.47,-187.57 512.56,-197.99 519.48,-196.91"/>
</g>
<!-- Node31&#45;&gt;Node29 -->
<g id="edge59" class="edge">
<title>Node31&#45;&gt;Node29</title>
<path fill="none" stroke="midnightblue" d="M564.64,-336.44C591.73,-327.36 634.72,-312.94 665,-302.78"/>
<polygon fill="midnightblue" stroke="midnightblue" points="666.37,-306.01 674.74,-299.52 664.15,-299.38 666.37,-306.01"/>
</g>
<!-- Node32 -->
<g id="node32" class="node">
<title>Node32</title>
<g id="a_node32"><a xlink:href="image__view_8h.html" target="_top" xlink:title=" ">
<polygon fill="white" stroke="black" points="133.13,-224.5 133.13,-243.5 217.13,-243.5 217.13,-224.5 133.13,-224.5"/>
<text text-anchor="middle" x="175.13" y="-231.5" font-family="Helvetica,sans-Serif" font-size="10.00">../image_view.h</text>
</a>
</g>
</g>
<!-- Node31&#45;&gt;Node32 -->
<g id="edge43" class="edge">
<title>Node31&#45;&gt;Node32</title>
<path fill="none" stroke="midnightblue" d="M481.01,-342.39C425.39,-338.25 340.01,-327.57 271.13,-300 241.1,-287.98 210.95,-265.44 192.65,-250.32"/>
<polygon fill="midnightblue" stroke="midnightblue" points="194.57,-247.36 184.68,-243.57 190.05,-252.7 194.57,-247.36"/>
</g>
<!-- Node33 -->
<g id="node33" class="node">
<title>Node33</title>
<g id="a_node33"><a xlink:href="text_8h.html" target="_top" xlink:title=" ">
<polygon fill="white" stroke="black" points="280.63,-280.5 280.63,-299.5 365.63,-299.5 365.63,-280.5 280.63,-280.5"/>
<text text-anchor="middle" x="323.13" y="-287.5" font-family="Helvetica,sans-Serif" font-size="10.00">../shapes/text.h</text>
</a>
</g>
</g>
<!-- Node31&#45;&gt;Node33 -->
<g id="edge46" class="edge">
<title>Node31&#45;&gt;Node33</title>
<path fill="none" stroke="midnightblue" d="M504.91,-336.44C467.62,-327.12 407.86,-312.18 367.12,-302"/>
<polygon fill="midnightblue" stroke="midnightblue" points="367.75,-298.55 357.2,-299.52 366.05,-305.34 367.75,-298.55"/>
</g>
<!-- Node36 -->
<g id="node36" class="node">
<title>Node36</title>
<g id="a_node36"><a xlink:href="rectangle_8h.html" target="_top" xlink:title=" ">
<polygon fill="white" stroke="black" points="384.13,-280.5 384.13,-299.5 492.13,-299.5 492.13,-280.5 384.13,-280.5"/>
<text text-anchor="middle" x="438.13" y="-287.5" font-family="Helvetica,sans-Serif" font-size="10.00">../shapes/rectangle.h</text>
</a>
</g>
</g>
<!-- Node31&#45;&gt;Node36 -->
<g id="edge52" class="edge">
<title>Node31&#45;&gt;Node36</title>
<path fill="none" stroke="midnightblue" d="M522.91,-336.32C506.78,-327.7 481.83,-314.36 463.17,-304.39"/>
<polygon fill="midnightblue" stroke="midnightblue" points="464.79,-301.28 454.32,-299.65 461.49,-307.46 464.79,-301.28"/>
</g>
<!-- Node32&#45;&gt;Node15 -->
<g id="edge44" class="edge">
<title>Node32&#45;&gt;Node15</title>
<path fill="none" stroke="midnightblue" d="M208.41,-224.44C244.58,-215.14 302.51,-200.25 342.11,-190.06"/>
<polygon fill="midnightblue" stroke="midnightblue" points="343.2,-193.4 352.01,-187.52 341.46,-186.62 343.2,-193.4"/>
</g>
<!-- Node32&#45;&gt;Node28 -->
<g id="edge45" class="edge">
<title>Node32&#45;&gt;Node28</title>
<path fill="none" stroke="midnightblue" d="M176.78,-224.37C180.17,-206.62 187.99,-165.67 192.58,-141.6"/>
<polygon fill="midnightblue" stroke="midnightblue" points="196.05,-142.07 194.49,-131.59 189.18,-140.76 196.05,-142.07"/>
</g>
<!-- Node34 -->
<g id="node34" class="node">
<title>Node34</title>
<g id="a_node34"><a xlink:title=" ">
<polygon fill="white" stroke="#bfbfbf" points="235.13,-224.5 235.13,-243.5 375.13,-243.5 375.13,-224.5 235.13,-224.5"/>
<text text-anchor="middle" x="305.13" y="-231.5" font-family="Helvetica,sans-Serif" font-size="10.00">sml/graphics_wrapper/text.h</text>
</a>
</g>
</g>
<!-- Node33&#45;&gt;Node34 -->
<g id="edge47" class="edge">
<title>Node33&#45;&gt;Node34</title>
<path fill="none" stroke="midnightblue" d="M320.16,-280.08C317.75,-272.85 314.27,-262.41 311.26,-253.4"/>
<polygon fill="midnightblue" stroke="midnightblue" points="314.53,-252.13 308.05,-243.75 307.89,-254.34 314.53,-252.13"/>
</g>
<!-- Node35 -->
<g id="node35" class="node">
<title>Node35</title>
<g id="a_node35"><a xlink:href="shape_8h.html" target="_top" xlink:title=" ">
<polygon fill="white" stroke="black" points="431.63,-224.5 431.63,-243.5 482.63,-243.5 482.63,-224.5 431.63,-224.5"/>
<text text-anchor="middle" x="457.13" y="-231.5" font-family="Helvetica,sans-Serif" font-size="10.00">shape.h</text>
</a>
</g>
</g>
<!-- Node33&#45;&gt;Node35 -->
<g id="edge48" class="edge">
<title>Node33&#45;&gt;Node35</title>
<path fill="none" stroke="midnightblue" d="M344.37,-280.44C366.52,-271.52 401.45,-257.44 426.57,-247.32"/>
<polygon fill="midnightblue" stroke="midnightblue" points="428.03,-250.5 436,-243.52 425.42,-244.01 428.03,-250.5"/>
</g>
<!-- Node35&#45;&gt;Node15 -->
<g id="edge49" class="edge">
<title>Node35&#45;&gt;Node15</title>
<path fill="none" stroke="midnightblue" d="M445.56,-224.32C434.71,-216.18 418.25,-203.84 405.25,-194.09"/>
<polygon fill="midnightblue" stroke="midnightblue" points="407.01,-191.03 396.91,-187.83 402.81,-196.63 407.01,-191.03"/>
</g>
<!-- Node35&#45;&gt;Node22 -->
<g id="edge51" class="edge">
<title>Node35&#45;&gt;Node22</title>
<path fill="none" stroke="midnightblue" d="M482.71,-226.81C519.83,-217.82 589.19,-201.02 635.02,-189.93"/>
<polygon fill="midnightblue" stroke="midnightblue" points="636.09,-193.27 644.99,-187.51 634.44,-186.46 636.09,-193.27"/>
</g>
<!-- Node35&#45;&gt;Node25 -->
<g id="edge50" class="edge">
<title>Node35&#45;&gt;Node25</title>
<path fill="none" stroke="midnightblue" d="M466.13,-224.32C474.33,-216.42 486.64,-204.55 496.6,-194.94"/>
<polygon fill="midnightblue" stroke="midnightblue" points="499.2,-197.29 503.97,-187.83 494.34,-192.26 499.2,-197.29"/>
</g>
<!-- Node36&#45;&gt;Node24 -->
<g id="edge53" class="edge">
<title>Node36&#45;&gt;Node24</title>
<path fill="none" stroke="midnightblue" d="M431.66,-280.11C422.02,-267.12 402.98,-242.5 384.13,-224 337.35,-178.07 247.96,-163.81 288.13,-112 295.69,-102.25 360.04,-87.49 408.53,-77.56"/>
<polygon fill="midnightblue" stroke="midnightblue" points="409.51,-80.93 418.61,-75.52 408.12,-74.07 409.51,-80.93"/>
</g>
<!-- Node36&#45;&gt;Node35 -->
<g id="edge54" class="edge">
<title>Node36&#45;&gt;Node35</title>
<path fill="none" stroke="midnightblue" d="M441.27,-280.08C443.82,-272.85 447.49,-262.41 450.66,-253.4"/>
<polygon fill="midnightblue" stroke="midnightblue" points="454.04,-254.35 454.05,-243.75 447.43,-252.02 454.04,-254.35"/>
</g>
<!-- Node38 -->
<g id="node38" class="node">
<title>Node38</title>
<g id="a_node38"><a xlink:href="box__container_8h.html" target="_top" xlink:title=" ">
<polygon fill="white" stroke="black" points="908.63,-336.5 908.63,-355.5 993.63,-355.5 993.63,-336.5 908.63,-336.5"/>
<text text-anchor="middle" x="951.13" y="-343.5" font-family="Helvetica,sans-Serif" font-size="10.00">box_container.h</text>
</a>
</g>
</g>
<!-- Node37&#45;&gt;Node38 -->
<g id="edge61" class="edge">
<title>Node37&#45;&gt;Node38</title>
<path fill="none" stroke="midnightblue" d="M951.97,-392.08C951.84,-385.01 951.65,-374.86 951.48,-365.99"/>
<polygon fill="midnightblue" stroke="midnightblue" points="954.98,-365.68 951.29,-355.75 947.98,-365.81 954.98,-365.68"/>
</g>
<!-- Node39 -->
<g id="node39" class="node">
<title>Node39</title>
<g id="a_node39"><a xlink:title=" ">
<polygon fill="white" stroke="#bfbfbf" points="1006.63,-280.5 1006.63,-299.5 1089.63,-299.5 1089.63,-280.5 1006.63,-280.5"/>
<text text-anchor="middle" x="1048.13" y="-287.5" font-family="Helvetica,sans-Serif" font-size="10.00">unordered_map</text>
</a>
</g>
</g>
<!-- Node38&#45;&gt;Node39 -->
<g id="edge62" class="edge">
<title>Node38&#45;&gt;Node39</title>
<path fill="none" stroke="midnightblue" d="M966.72,-336.32C982.13,-327.74 1005.94,-314.49 1023.84,-304.52"/>
<polygon fill="midnightblue" stroke="midnightblue" points="1025.55,-307.58 1032.59,-299.65 1022.15,-301.46 1025.55,-307.58"/>
</g>
<!-- Node40 -->
<g id="node40" class="node">
<title>Node40</title>
<g id="a_node40"><a xlink:href="container_8h.html" target="_top" xlink:title=" ">
<polygon fill="white" stroke="black" points="832.13,-280.5 832.13,-299.5 896.13,-299.5 896.13,-280.5 832.13,-280.5"/>
<text text-anchor="middle" x="864.13" y="-287.5" font-family="Helvetica,sans-Serif" font-size="10.00">container.h</text>
</a>
</g>
</g>
<!-- Node38&#45;&gt;Node40 -->
<g id="edge63" class="edge">
<title>Node38&#45;&gt;Node40</title>
<path fill="none" stroke="midnightblue" d="M937.15,-336.32C923.58,-327.9 902.75,-314.97 886.81,-305.07"/>
<polygon fill="midnightblue" stroke="midnightblue" points="888.42,-301.95 878.08,-299.65 884.73,-307.9 888.42,-301.95"/>
</g>
<!-- Node41 -->
<g id="node41" class="node">
<title>Node41</title>
<g id="a_node41"><a xlink:title=" ">
<polygon fill="white" stroke="#bfbfbf" points="914.13,-280.5 914.13,-299.5 988.13,-299.5 988.13,-280.5 914.13,-280.5"/>
<text text-anchor="middle" x="951.13" y="-287.5" font-family="Helvetica,sans-Serif" font-size="10.00">sys/syscall.h</text>
</a>
</g>
</g>
<!-- Node38&#45;&gt;Node41 -->
<g id="edge65" class="edge">
<title>Node38&#45;&gt;Node41</title>
<path fill="none" stroke="midnightblue" d="M951.13,-336.08C951.13,-329.01 951.13,-318.86 951.13,-309.99"/>
<polygon fill="midnightblue" stroke="midnightblue" points="954.63,-309.75 951.13,-299.75 947.63,-309.75 954.63,-309.75"/>
</g>
<!-- Node40&#45;&gt;Node14 -->
<g id="edge64" class="edge">
<title>Node40&#45;&gt;Node14</title>
<path fill="none" stroke="midnightblue" d="M871.23,-280.08C877.37,-272.38 886.4,-261.03 893.87,-251.65"/>
<polygon fill="midnightblue" stroke="midnightblue" points="896.67,-253.75 900.16,-243.75 891.2,-249.39 896.67,-253.75"/>
</g>
</g>
</svg>
        <g id="navigator" transform="translate(0 0)" fill="#404254">
                <rect fill="#f2f5e9" fill-opacity="0.5" stroke="#606060" stroke-width=".5" x="0" y="0" width="60" height="60"/>
                <use id="zoomplus" xlink:href="#zoomPlus" x="17" y="9" onmousedown="handleZoom(evt,'in')"/>
                <use id="zoomminus" xlink:href="#zoomMin" x="42" y="9" onmousedown="handleZoom(evt,'out')"/>
                <use id="reset" xlink:href="#resetDef" x="30" y="36" onmousedown="handleReset()"/>
                <g id="arrowUp" xlink:href="#dirArrow" transform="translate(30 24)" onmousedown="handlePan(0,-1)">
                  <use xlink:href="#rim" fill="#404040">
                        <set attributeName="fill" to="#808080" begin="arrowUp.mouseover" end="arrowUp.mouseout"/>
                  </use>
                  <path fill="none" stroke="white" stroke-width="1.5" d="M0,-3.0v7 M-2.5,-0.5L0,-3.0L2.5,-0.5"/>
                </g>
                <g id="arrowRight" xlink:href="#dirArrow" transform="rotate(90) translate(36 -43)" onmousedown="handlePan(1,0)">
                  <use xlink:href="#rim" fill="#404040">
                        <set attributeName="fill" to="#808080" begin="arrowRight.mouseover" end="arrowRight.mouseout"/>
                  </use>
                  <path fill="none" stroke="white" stroke-width="1.5" d="M0,-3.0v7 M-2.5,-0.5L0,-3.0L2.5,-0.5"/>
                </g>
                <g id="arrowDown" xlink:href="#dirArrow" transform="rotate(180) translate(-30 -48)" onmousedown="handlePan(0,1)">
                  <use xlink:href="#rim" fill="#404040">
                        <set attributeName="fill" to="#808080" begin="arrowDown.mouseover" end="arrowDown.mouseout"/>
                  </use>
                  <path fill="none" stroke="white" stroke-width="1.5" d="M0,-3.0v7 M-2.5,-0.5L0,-3.0L2.5,-0.5"/>
                </g>
                <g id="arrowLeft" xlink:href="#dirArrow" transform="rotate(270) translate(-36 17)" onmousedown="handlePan(-1,0)">
                  <use xlink:href="#rim" fill="#404040">
                        <set attributeName="fill" to="#808080" begin="arrowLeft.mouseover" end="arrowLeft.mouseout"/>
                  </use>
                  <path fill="none" stroke="white" stroke-width="1.5" d="M0,-3.0v7 M-2.5,-0.5L0,-3.0L2.5,-0.5"/>
                </g>
        </g>
        <svg viewBox="0 0 15 15" width="100%" height="30px" preserveAspectRatio="xMaxYMin meet">
         <g id="arrow_out" transform="scale(0.3 0.3)">
          <a xlink:href="scene_8cpp__incl_org.svg" target="_base">
           <rect id="button" ry="5" rx="5" y="6" x="6" height="38" width="38"
                fill="#f2f5e9" fill-opacity="0.5" stroke="#606060" stroke-width="1.0"/>
           <path id="arrow"
             d="M 11.500037,31.436501 C 11.940474,20.09759 22.043105,11.32322 32.158766,21.979434 L 37.068811,17.246167 C 37.068811,17.246167 37.088388,32 37.088388,32 L 22.160133,31.978069 C 22.160133,31.978069 26.997745,27.140456 26.997745,27.140456 C 18.528582,18.264221 13.291696,25.230495 11.500037,31.436501 z"
             style="fill:#404040;"/>
          </a>
         </g>
        </svg>
</svg>
