<?xml version="1.0" encoding="UTF-8" standalone="no"?>
<!DOCTYPE svg PUBLIC "-//W3C//DTD SVG 1.1//EN"
 "http://www.w3.org/Graphics/SVG/1.1/DTD/svg11.dtd">
<!-- Generated by graphviz version 2.50.0 (20211204.2007)
 -->
<!-- Title: scene.h Pages: 1 -->
<!--zoomable 588 -->
<svg id="main" version="1.1" xmlns="http://www.w3.org/2000/svg" xmlns:xlink="http://www.w3.org/1999/xlink" xml:space="preserve" onload="init(evt)">
<style type="text/css"><![CDATA[
.edge:hover path { stroke: red; }
.edge:hover polygon { stroke: red; fill: red; }
]]></style>
<script type="text/javascript"><![CDATA[
var edges = document.getElementsByTagName('g');
if (edges && edges.length) {
  for (var i=0;i<edges.length;i++) {
    if (edges[i].id.substr(0,4)=='edge') {
      edges[i].setAttribute('class','edge');
    }
  }
}
]]></script>
        <defs>
                <circle id="rim" cx="0" cy="0" r="7"/>
                <circle id="rim2" cx="0" cy="0" r="3.5"/>
                <g id="zoomPlus">
                        <use xlink:href="#rim" fill="#404040">
                                <set attributeName="fill" to="#808080" begin="zoomplus.mouseover" end="zoomplus.mouseout"/>
                        </use>
                        <path d="M-4,0h8M0,-4v8" fill="none" stroke="white" stroke-width="1.5" pointer-events="none"/>
                </g>
                <g id="zoomMin">
                        <use xlink:href="#rim" fill="#404040">
                                <set attributeName="fill" to="#808080" begin="zoomminus.mouseover" end="zoomminus.mouseout"/>
                        </use>
                        <path d="M-4,0h8" fill="none" stroke="white" stroke-width="1.5" pointer-events="none"/>
                </g>
                <g id="dirArrow">
                        <path fill="none" stroke="white" stroke-width="1.5" d="M0,-3.0v7 M-2.5,-0.5L0,-3.0L2.5,-0.5"/>
                </g>
               <g id="resetDef">
                       <use xlink:href="#rim2" fill="#404040">
                               <set attributeName="fill" to="#808080" begin="reset.mouseover" end="reset.mouseout"/>
                       </use>
               </g>
        </defs>

<script type="text/javascript">
var viewWidth = 1529;
var viewHeight = 588;
var sectionId = 'dynsection-0';
</script>
<script xlink:href="svgpan.js"/>
<svg id="graph" class="graph">
<g id="viewport">
<title>scene.h</title>
<polygon fill="white" stroke="transparent" points="-4,4 -4,-584 1525,-584 1525,4 -4,4"/>
<!-- Node1 -->
<g id="node1" class="node">
<title>Node1</title>
<g id="a_node1"><a xlink:title=" ">
<polygon fill="#bfbfbf" stroke="black" points="438,-560.5 438,-579.5 489,-579.5 489,-560.5 438,-560.5"/>
<text text-anchor="middle" x="463.5" y="-567.5" font-family="Helvetica,sans-Serif" font-size="10.00">scene.h</text>
</a>
</g>
</g>
<!-- Node2 -->
<g id="node2" class="node">
<title>Node2</title>
<g id="a_node2"><a xlink:href="gui__event__dispatching_8h.html" target="_top" xlink:title=" ">
<polygon fill="white" stroke="black" points="232,-112.5 232,-131.5 395,-131.5 395,-112.5 232,-112.5"/>
<text text-anchor="middle" x="313.5" y="-119.5" font-family="Helvetica,sans-Serif" font-size="10.00">../events/gui_event_dispatching.h</text>
</a>
</g>
</g>
<!-- Node1&#45;&gt;Node2 -->
<g id="edge1" class="edge">
<title>Node1&#45;&gt;Node2</title>
<path fill="none" stroke="midnightblue" d="M437.6,-567.95C379.04,-564.05 241.5,-545.67 241.5,-459 241.5,-459 241.5,-459 241.5,-233 241.5,-193.94 273.68,-157.94 295.01,-138.37"/>
<polygon fill="midnightblue" stroke="midnightblue" points="297.38,-140.94 302.56,-131.7 292.75,-135.7 297.38,-140.94"/>
</g>
<!-- Node10 -->
<g id="node10" class="node">
<title>Node10</title>
<g id="a_node10"><a xlink:href="menu__bar_8h.html" target="_top" xlink:title=" ">
<polygon fill="white" stroke="black" points="754,-504.5 754,-523.5 869,-523.5 869,-504.5 754,-504.5"/>
<text text-anchor="middle" x="811.5" y="-511.5" font-family="Helvetica,sans-Serif" font-size="10.00">containers/menu_bar.h</text>
</a>
</g>
</g>
<!-- Node1&#45;&gt;Node10 -->
<g id="edge10" class="edge">
<title>Node1&#45;&gt;Node10</title>
<path fill="none" stroke="midnightblue" d="M489.09,-565.03C542.79,-556.7 668.69,-537.16 746.32,-525.11"/>
<polygon fill="midnightblue" stroke="midnightblue" points="747.13,-528.53 756.47,-523.54 746.05,-521.61 747.13,-528.53"/>
</g>
<!-- Node3 -->
<g id="node3" class="node">
<title>Node3</title>
<g id="a_node3"><a xlink:title=" ">
<polygon fill="white" stroke="#bfbfbf" points="564.5,-56.5 564.5,-75.5 608.5,-75.5 608.5,-56.5 564.5,-56.5"/>
<text text-anchor="middle" x="586.5" y="-63.5" font-family="Helvetica,sans-Serif" font-size="10.00">vector</text>
</a>
</g>
</g>
<!-- Node2&#45;&gt;Node3 -->
<g id="edge2" class="edge">
<title>Node2&#45;&gt;Node3</title>
<path fill="none" stroke="midnightblue" d="M361.33,-112.47C408.9,-103.84 483.91,-89.83 548.5,-76 550.44,-75.58 552.43,-75.15 554.44,-74.7"/>
<polygon fill="midnightblue" stroke="midnightblue" points="555.47,-78.05 564.43,-72.4 553.9,-71.23 555.47,-78.05"/>
</g>
<!-- Node4 -->
<g id="node4" class="node">
<title>Node4</title>
<g id="a_node4"><a xlink:title=" ">
<polygon fill="white" stroke="#bfbfbf" points="244,-56.5 244,-75.5 399,-75.5 399,-56.5 244,-56.5"/>
<text text-anchor="middle" x="321.5" y="-63.5" font-family="Helvetica,sans-Serif" font-size="10.00">sml/events/event_dispatching.h</text>
</a>
</g>
</g>
<!-- Node2&#45;&gt;Node4 -->
<g id="edge3" class="edge">
<title>Node2&#45;&gt;Node4</title>
<path fill="none" stroke="midnightblue" d="M314.82,-112.08C315.88,-104.93 317.41,-94.64 318.73,-85.69"/>
<polygon fill="midnightblue" stroke="midnightblue" points="322.2,-86.16 320.2,-75.75 315.28,-85.13 322.2,-86.16"/>
</g>
<!-- Node5 -->
<g id="node5" class="node">
<title>Node5</title>
<g id="a_node5"><a xlink:title=" ">
<polygon fill="white" stroke="#bfbfbf" points="0,-56.5 0,-75.5 141,-75.5 141,-56.5 0,-56.5"/>
<text text-anchor="middle" x="70.5" y="-63.5" font-family="Helvetica,sans-Serif" font-size="10.00">sml/events/listener_notifier.h</text>
</a>
</g>
</g>
<!-- Node2&#45;&gt;Node5 -->
<g id="edge4" class="edge">
<title>Node2&#45;&gt;Node5</title>
<path fill="none" stroke="midnightblue" d="M275,-112.44C232.69,-103.04 164.68,-87.93 118.83,-77.74"/>
<polygon fill="midnightblue" stroke="midnightblue" points="119.35,-74.27 108.82,-75.52 117.83,-81.1 119.35,-74.27"/>
</g>
<!-- Node6 -->
<g id="node6" class="node">
<title>Node6</title>
<g id="a_node6"><a xlink:title=" ">
<polygon fill="white" stroke="#bfbfbf" points="332,-0.5 332,-19.5 475,-19.5 475,-0.5 332,-0.5"/>
<text text-anchor="middle" x="403.5" y="-7.5" font-family="Helvetica,sans-Serif" font-size="10.00">sml/events/system_events.h</text>
</a>
</g>
</g>
<!-- Node2&#45;&gt;Node6 -->
<g id="edge5" class="edge">
<title>Node2&#45;&gt;Node6</title>
<path fill="none" stroke="midnightblue" d="M354.55,-112.38C374.46,-105.92 396.59,-94.81 408.5,-76 417.19,-62.27 414.56,-43.49 410.57,-29.64"/>
<polygon fill="midnightblue" stroke="midnightblue" points="413.77,-28.16 407.27,-19.79 407.13,-30.38 413.77,-28.16"/>
</g>
<!-- Node7 -->
<g id="node7" class="node">
<title>Node7</title>
<g id="a_node7"><a xlink:href="gui__event_8h.html" target="_top" xlink:title=" ">
<polygon fill="white" stroke="black" points="159,-56.5 159,-75.5 226,-75.5 226,-56.5 159,-56.5"/>
<text text-anchor="middle" x="192.5" y="-63.5" font-family="Helvetica,sans-Serif" font-size="10.00">gui_event.h</text>
</a>
</g>
</g>
<!-- Node2&#45;&gt;Node7 -->
<g id="edge6" class="edge">
<title>Node2&#45;&gt;Node7</title>
<path fill="none" stroke="midnightblue" d="M294.33,-112.44C274.59,-103.64 243.61,-89.81 221.01,-79.72"/>
<polygon fill="midnightblue" stroke="midnightblue" points="222.14,-76.4 211.58,-75.52 219.29,-82.79 222.14,-76.4"/>
</g>
<!-- Node7&#45;&gt;Node6 -->
<g id="edge8" class="edge">
<title>Node7&#45;&gt;Node6</title>
<path fill="none" stroke="midnightblue" d="M225.93,-56.44C262.36,-47.12 320.73,-32.18 360.53,-22"/>
<polygon fill="midnightblue" stroke="midnightblue" points="361.4,-25.39 370.22,-19.52 359.67,-18.61 361.4,-25.39"/>
</g>
<!-- Node8 -->
<g id="node8" class="node">
<title>Node8</title>
<g id="a_node8"><a xlink:title=" ">
<polygon fill="white" stroke="#bfbfbf" points="166.5,-0.5 166.5,-19.5 266.5,-19.5 266.5,-0.5 166.5,-0.5"/>
<text text-anchor="middle" x="216.5" y="-7.5" font-family="Helvetica,sans-Serif" font-size="10.00">sml/events/event.h</text>
</a>
</g>
</g>
<!-- Node7&#45;&gt;Node8 -->
<g id="edge7" class="edge">
<title>Node7&#45;&gt;Node8</title>
<path fill="none" stroke="midnightblue" d="M196.46,-56.08C199.71,-48.77 204.42,-38.18 208.45,-29.1"/>
<polygon fill="midnightblue" stroke="midnightblue" points="211.75,-30.31 212.61,-19.75 205.35,-27.47 211.75,-30.31"/>
</g>
<!-- Node9 -->
<g id="node9" class="node">
<title>Node9</title>
<g id="a_node9"><a xlink:title=" ">
<polygon fill="white" stroke="#bfbfbf" points="71,-0.5 71,-19.5 148,-19.5 148,-0.5 71,-0.5"/>
<text text-anchor="middle" x="109.5" y="-7.5" font-family="Helvetica,sans-Serif" font-size="10.00">sml/sml_log.h</text>
</a>
</g>
</g>
<!-- Node7&#45;&gt;Node9 -->
<g id="edge9" class="edge">
<title>Node7&#45;&gt;Node9</title>
<path fill="none" stroke="midnightblue" d="M179.16,-56.32C166.34,-47.98 146.72,-35.21 131.56,-25.35"/>
<polygon fill="midnightblue" stroke="midnightblue" points="133.09,-22.17 122.8,-19.65 129.28,-28.04 133.09,-22.17"/>
</g>
<!-- Node11 -->
<g id="node11" class="node">
<title>Node11</title>
<g id="a_node11"><a xlink:href="button_8h.html" target="_top" xlink:title=" ">
<polygon fill="white" stroke="black" points="798.5,-392.5 798.5,-411.5 896.5,-411.5 896.5,-392.5 798.5,-392.5"/>
<text text-anchor="middle" x="847.5" y="-399.5" font-family="Helvetica,sans-Serif" font-size="10.00">../controls/button.h</text>
</a>
</g>
</g>
<!-- Node10&#45;&gt;Node11 -->
<g id="edge11" class="edge">
<title>Node10&#45;&gt;Node11</title>
<path fill="none" stroke="midnightblue" d="M813.87,-504.1C817.27,-491.52 823.86,-467.85 830.5,-448 833.48,-439.08 837.13,-429.3 840.28,-421.14"/>
<polygon fill="midnightblue" stroke="midnightblue" points="843.65,-422.14 844.04,-411.56 837.13,-419.59 843.65,-422.14"/>
</g>
<!-- Node36 -->
<g id="node36" class="node">
<title>Node36</title>
<g id="a_node36"><a xlink:href="context__menu_8h.html" target="_top" xlink:title=" ">
<polygon fill="white" stroke="black" points="839.5,-448.5 839.5,-467.5 925.5,-467.5 925.5,-448.5 839.5,-448.5"/>
<text text-anchor="middle" x="882.5" y="-455.5" font-family="Helvetica,sans-Serif" font-size="10.00">context_menu.h</text>
</a>
</g>
</g>
<!-- Node10&#45;&gt;Node36 -->
<g id="edge58" class="edge">
<title>Node10&#45;&gt;Node36</title>
<path fill="none" stroke="midnightblue" d="M822.91,-504.32C833.61,-496.18 849.84,-483.84 862.66,-474.09"/>
<polygon fill="midnightblue" stroke="midnightblue" points="865.04,-476.67 870.89,-467.83 860.81,-471.1 865.04,-476.67"/>
</g>
<!-- Node12 -->
<g id="node12" class="node">
<title>Node12</title>
<g id="a_node12"><a xlink:href="control_8h.html" target="_top" xlink:title=" ">
<polygon fill="white" stroke="black" points="995.5,-280.5 995.5,-299.5 1049.5,-299.5 1049.5,-280.5 995.5,-280.5"/>
<text text-anchor="middle" x="1022.5" y="-287.5" font-family="Helvetica,sans-Serif" font-size="10.00">control.h</text>
</a>
</g>
</g>
<!-- Node11&#45;&gt;Node12 -->
<g id="edge12" class="edge">
<title>Node11&#45;&gt;Node12</title>
<path fill="none" stroke="midnightblue" d="M861.23,-392.37C891.39,-373.41 963.64,-328 1000.32,-304.94"/>
<polygon fill="midnightblue" stroke="midnightblue" points="1002.23,-307.88 1008.83,-299.59 998.5,-301.95 1002.23,-307.88"/>
</g>
<!-- Node30 -->
<g id="node30" class="node">
<title>Node30</title>
<g id="a_node30"><a xlink:href="default__skins_8h.html" target="_top" xlink:title=" ">
<polygon fill="white" stroke="black" points="748.5,-336.5 748.5,-355.5 864.5,-355.5 864.5,-336.5 748.5,-336.5"/>
<text text-anchor="middle" x="806.5" y="-343.5" font-family="Helvetica,sans-Serif" font-size="10.00">../style/default_skins.h</text>
</a>
</g>
</g>
<!-- Node11&#45;&gt;Node30 -->
<g id="edge39" class="edge">
<title>Node11&#45;&gt;Node30</title>
<path fill="none" stroke="midnightblue" d="M840.73,-392.08C834.94,-384.46 826.44,-373.26 819.36,-363.94"/>
<polygon fill="midnightblue" stroke="midnightblue" points="821.98,-361.6 813.14,-355.75 816.4,-365.83 821.98,-361.6"/>
</g>
<!-- Node13 -->
<g id="node13" class="node">
<title>Node13</title>
<g id="a_node13"><a xlink:href="parent_8h.html" target="_top" xlink:title=" ">
<polygon fill="white" stroke="black" points="992,-224.5 992,-243.5 1053,-243.5 1053,-224.5 992,-224.5"/>
<text text-anchor="middle" x="1022.5" y="-231.5" font-family="Helvetica,sans-Serif" font-size="10.00">../parent.h</text>
</a>
</g>
</g>
<!-- Node12&#45;&gt;Node13 -->
<g id="edge13" class="edge">
<title>Node12&#45;&gt;Node13</title>
<path fill="none" stroke="midnightblue" d="M1022.5,-280.08C1022.5,-273.01 1022.5,-262.86 1022.5,-253.99"/>
<polygon fill="midnightblue" stroke="midnightblue" points="1026,-253.75 1022.5,-243.75 1019,-253.75 1026,-253.75"/>
</g>
<!-- Node28 -->
<g id="node28" class="node">
<title>Node28</title>
<g id="a_node28"><a xlink:href="skin_8h.html" target="_top" xlink:title=" ">
<polygon fill="white" stroke="black" points="1132.5,-224.5 1132.5,-243.5 1208.5,-243.5 1208.5,-224.5 1132.5,-224.5"/>
<text text-anchor="middle" x="1170.5" y="-231.5" font-family="Helvetica,sans-Serif" font-size="10.00">../style/skin.h</text>
</a>
</g>
</g>
<!-- Node12&#45;&gt;Node28 -->
<g id="edge36" class="edge">
<title>Node12&#45;&gt;Node28</title>
<path fill="none" stroke="midnightblue" d="M1045.95,-280.44C1070.63,-271.44 1109.69,-257.19 1137.48,-247.05"/>
<polygon fill="midnightblue" stroke="midnightblue" points="1138.96,-250.23 1147.16,-243.52 1136.56,-243.66 1138.96,-250.23"/>
</g>
<!-- Node14 -->
<g id="node14" class="node">
<title>Node14</title>
<g id="a_node14"><a xlink:href="component_8h.html" target="_top" xlink:title=" ">
<polygon fill="white" stroke="black" points="554,-168.5 554,-187.5 627,-187.5 627,-168.5 554,-168.5"/>
<text text-anchor="middle" x="590.5" y="-175.5" font-family="Helvetica,sans-Serif" font-size="10.00">component.h</text>
</a>
</g>
</g>
<!-- Node13&#45;&gt;Node14 -->
<g id="edge14" class="edge">
<title>Node13&#45;&gt;Node14</title>
<path fill="none" stroke="midnightblue" d="M991.78,-229.16C917.15,-219.83 725.92,-195.93 637.12,-184.83"/>
<polygon fill="midnightblue" stroke="midnightblue" points="637.42,-181.34 627.07,-183.57 636.55,-188.28 637.42,-181.34"/>
</g>
<!-- Node19 -->
<g id="node19" class="node">
<title>Node19</title>
<g id="a_node19"><a xlink:href="insets_8h.html" target="_top" xlink:title=" ">
<polygon fill="white" stroke="black" points="1195.5,-112.5 1195.5,-131.5 1279.5,-131.5 1279.5,-112.5 1195.5,-112.5"/>
<text text-anchor="middle" x="1237.5" y="-119.5" font-family="Helvetica,sans-Serif" font-size="10.00">../paint/insets.h</text>
</a>
</g>
</g>
<!-- Node13&#45;&gt;Node19 -->
<g id="edge20" class="edge">
<title>Node13&#45;&gt;Node19</title>
<path fill="none" stroke="midnightblue" d="M1028.32,-224.47C1038.23,-210.57 1059.73,-183.1 1084.5,-168 1115.3,-149.22 1154.37,-137.9 1185.32,-131.31"/>
<polygon fill="midnightblue" stroke="midnightblue" points="1186.38,-134.67 1195.48,-129.26 1184.99,-127.81 1186.38,-134.67"/>
</g>
<!-- Node21 -->
<g id="node21" class="node">
<title>Node21</title>
<g id="a_node21"><a xlink:href="border_8h.html" target="_top" xlink:title=" ">
<polygon fill="white" stroke="black" points="953.5,-168.5 953.5,-187.5 1037.5,-187.5 1037.5,-168.5 953.5,-168.5"/>
<text text-anchor="middle" x="995.5" y="-175.5" font-family="Helvetica,sans-Serif" font-size="10.00">../paint/border.h</text>
</a>
</g>
</g>
<!-- Node13&#45;&gt;Node21 -->
<g id="edge22" class="edge">
<title>Node13&#45;&gt;Node21</title>
<path fill="none" stroke="midnightblue" d="M1018.04,-224.08C1014.35,-216.69 1008.98,-205.95 1004.41,-196.81"/>
<polygon fill="midnightblue" stroke="midnightblue" points="1007.48,-195.13 999.88,-187.75 1001.22,-198.26 1007.48,-195.13"/>
</g>
<!-- Node24 -->
<g id="node24" class="node">
<title>Node24</title>
<g id="a_node24"><a xlink:href="background_8h.html" target="_top" xlink:title=" ">
<polygon fill="white" stroke="black" points="788.5,-168.5 788.5,-187.5 896.5,-187.5 896.5,-168.5 788.5,-168.5"/>
<text text-anchor="middle" x="842.5" y="-175.5" font-family="Helvetica,sans-Serif" font-size="10.00">../paint/background.h</text>
</a>
</g>
</g>
<!-- Node13&#45;&gt;Node24 -->
<g id="edge26" class="edge">
<title>Node13&#45;&gt;Node24</title>
<path fill="none" stroke="midnightblue" d="M993.98,-224.44C963.43,-215.28 914.79,-200.69 880.9,-190.52"/>
<polygon fill="midnightblue" stroke="midnightblue" points="881.47,-187.04 870.89,-187.52 879.46,-193.74 881.47,-187.04"/>
</g>
<!-- Node14&#45;&gt;Node2 -->
<g id="edge16" class="edge">
<title>Node14&#45;&gt;Node2</title>
<path fill="none" stroke="midnightblue" d="M553.72,-169.83C505.92,-160.51 422.1,-144.17 367.19,-133.47"/>
<polygon fill="midnightblue" stroke="midnightblue" points="367.78,-130.02 357.29,-131.54 366.44,-136.89 367.78,-130.02"/>
</g>
<!-- Node15 -->
<g id="node15" class="node">
<title>Node15</title>
<g id="a_node15"><a xlink:title=" ">
<polygon fill="white" stroke="#bfbfbf" points="521.5,-112.5 521.5,-131.5 661.5,-131.5 661.5,-112.5 521.5,-112.5"/>
<text text-anchor="middle" x="591.5" y="-119.5" font-family="Helvetica,sans-Serif" font-size="10.00">sml/sml_graphics_wrapper.h</text>
</a>
</g>
</g>
<!-- Node14&#45;&gt;Node15 -->
<g id="edge15" class="edge">
<title>Node14&#45;&gt;Node15</title>
<path fill="none" stroke="midnightblue" d="M590.67,-168.08C590.8,-161.01 590.98,-150.86 591.15,-141.99"/>
<polygon fill="midnightblue" stroke="midnightblue" points="594.65,-141.81 591.34,-131.75 587.65,-141.68 594.65,-141.81"/>
</g>
<!-- Node16 -->
<g id="node16" class="node">
<title>Node16</title>
<g id="a_node16"><a xlink:href="shadow_8h.html" target="_top" xlink:title=" ">
<polygon fill="white" stroke="black" points="413.5,-112.5 413.5,-131.5 503.5,-131.5 503.5,-112.5 413.5,-112.5"/>
<text text-anchor="middle" x="458.5" y="-119.5" font-family="Helvetica,sans-Serif" font-size="10.00">../paint/shadow.h</text>
</a>
</g>
</g>
<!-- Node14&#45;&gt;Node16 -->
<g id="edge17" class="edge">
<title>Node14&#45;&gt;Node16</title>
<path fill="none" stroke="midnightblue" d="M569.58,-168.44C547.76,-159.52 513.35,-145.44 488.61,-135.32"/>
<polygon fill="midnightblue" stroke="midnightblue" points="489.9,-132.06 479.32,-131.52 487.25,-138.54 489.9,-132.06"/>
</g>
<!-- Node17 -->
<g id="node17" class="node">
<title>Node17</title>
<g id="a_node17"><a xlink:title=" ">
<polygon fill="white" stroke="#bfbfbf" points="456,-56.5 456,-75.5 539,-75.5 539,-56.5 456,-56.5"/>
<text text-anchor="middle" x="497.5" y="-63.5" font-family="Helvetica,sans-Serif" font-size="10.00">sml/math/blur.h</text>
</a>
</g>
</g>
<!-- Node16&#45;&gt;Node17 -->
<g id="edge18" class="edge">
<title>Node16&#45;&gt;Node17</title>
<path fill="none" stroke="midnightblue" d="M464.94,-112.08C470.45,-104.46 478.53,-93.26 485.26,-83.94"/>
<polygon fill="midnightblue" stroke="midnightblue" points="488.16,-85.91 491.18,-75.75 482.49,-81.81 488.16,-85.91"/>
</g>
<!-- Node18 -->
<g id="node18" class="node">
<title>Node18</title>
<g id="a_node18"><a xlink:title=" ">
<polygon fill="white" stroke="#bfbfbf" points="627,-56.5 627,-75.5 780,-75.5 780,-56.5 627,-56.5"/>
<text text-anchor="middle" x="703.5" y="-63.5" font-family="Helvetica,sans-Serif" font-size="10.00">sml/graphics_wrapper/texture.h</text>
</a>
</g>
</g>
<!-- Node16&#45;&gt;Node18 -->
<g id="edge19" class="edge">
<title>Node16&#45;&gt;Node18</title>
<path fill="none" stroke="midnightblue" d="M497.32,-112.44C540.06,-103.02 608.83,-87.87 655.07,-77.68"/>
<polygon fill="midnightblue" stroke="midnightblue" points="655.85,-81.09 664.86,-75.52 654.34,-74.25 655.85,-81.09"/>
</g>
<!-- Node20 -->
<g id="node20" class="node">
<title>Node20</title>
<g id="a_node20"><a xlink:title=" ">
<polygon fill="white" stroke="#bfbfbf" points="1213,-56.5 1213,-75.5 1262,-75.5 1262,-56.5 1213,-56.5"/>
<text text-anchor="middle" x="1237.5" y="-63.5" font-family="Helvetica,sans-Serif" font-size="10.00">stdint.h</text>
</a>
</g>
</g>
<!-- Node19&#45;&gt;Node20 -->
<g id="edge21" class="edge">
<title>Node19&#45;&gt;Node20</title>
<path fill="none" stroke="midnightblue" d="M1237.5,-112.08C1237.5,-105.01 1237.5,-94.86 1237.5,-85.99"/>
<polygon fill="midnightblue" stroke="midnightblue" points="1241,-85.75 1237.5,-75.75 1234,-85.75 1241,-85.75"/>
</g>
<!-- Node21&#45;&gt;Node19 -->
<g id="edge25" class="edge">
<title>Node21&#45;&gt;Node19</title>
<path fill="none" stroke="midnightblue" d="M1033.85,-168.44C1075.97,-159.04 1143.71,-143.93 1189.37,-133.74"/>
<polygon fill="midnightblue" stroke="midnightblue" points="1190.34,-137.11 1199.33,-131.52 1188.81,-130.28 1190.34,-137.11"/>
</g>
<!-- Node22 -->
<g id="node22" class="node">
<title>Node22</title>
<g id="a_node22"><a xlink:title=" ">
<polygon fill="white" stroke="#bfbfbf" points="993,-112.5 993,-131.5 1136,-131.5 1136,-112.5 993,-112.5"/>
<text text-anchor="middle" x="1064.5" y="-119.5" font-family="Helvetica,sans-Serif" font-size="10.00">sml/graphics_wrapper/color.h</text>
</a>
</g>
</g>
<!-- Node21&#45;&gt;Node22 -->
<g id="edge23" class="edge">
<title>Node21&#45;&gt;Node22</title>
<path fill="none" stroke="midnightblue" d="M1006.59,-168.32C1016.99,-160.18 1032.76,-147.84 1045.22,-138.09"/>
<polygon fill="midnightblue" stroke="midnightblue" points="1047.49,-140.75 1053.21,-131.83 1043.18,-135.24 1047.49,-140.75"/>
</g>
<!-- Node23 -->
<g id="node23" class="node">
<title>Node23</title>
<g id="a_node23"><a xlink:title=" ">
<polygon fill="white" stroke="#bfbfbf" points="905.5,-56.5 905.5,-75.5 1013.5,-75.5 1013.5,-56.5 905.5,-56.5"/>
<text text-anchor="middle" x="959.5" y="-63.5" font-family="Helvetica,sans-Serif" font-size="10.00">sml/math/rectangle.h</text>
</a>
</g>
</g>
<!-- Node21&#45;&gt;Node23 -->
<g id="edge24" class="edge">
<title>Node21&#45;&gt;Node23</title>
<path fill="none" stroke="midnightblue" d="M992.68,-168.37C986.84,-150.54 973.34,-109.3 965.48,-85.27"/>
<polygon fill="midnightblue" stroke="midnightblue" points="968.75,-84.01 962.31,-75.59 962.1,-86.18 968.75,-84.01"/>
</g>
<!-- Node24&#45;&gt;Node3 -->
<g id="edge27" class="edge">
<title>Node24&#45;&gt;Node3</title>
<path fill="none" stroke="midnightblue" d="M812.94,-168.48C785.64,-160.28 744.21,-146.93 709.5,-132 699.66,-127.77 644.34,-98.16 611.34,-80.4"/>
<polygon fill="midnightblue" stroke="midnightblue" points="612.74,-77.18 602.28,-75.52 609.42,-83.34 612.74,-77.18"/>
</g>
<!-- Node24&#45;&gt;Node23 -->
<g id="edge28" class="edge">
<title>Node24&#45;&gt;Node23</title>
<path fill="none" stroke="midnightblue" d="M851.68,-168.37C871.33,-149.89 917.71,-106.29 942.75,-82.74"/>
<polygon fill="midnightblue" stroke="midnightblue" points="945.47,-84.99 950.36,-75.59 940.68,-79.89 945.47,-84.99"/>
</g>
<!-- Node25 -->
<g id="node25" class="node">
<title>Node25</title>
<g id="a_node25"><a xlink:href="fill_8h.html" target="_top" xlink:title=" ">
<polygon fill="white" stroke="black" points="825,-112.5 825,-131.5 860,-131.5 860,-112.5 825,-112.5"/>
<text text-anchor="middle" x="842.5" y="-119.5" font-family="Helvetica,sans-Serif" font-size="10.00">fill.h</text>
</a>
</g>
</g>
<!-- Node24&#45;&gt;Node25 -->
<g id="edge29" class="edge">
<title>Node24&#45;&gt;Node25</title>
<path fill="none" stroke="midnightblue" d="M842.5,-168.08C842.5,-161.01 842.5,-150.86 842.5,-141.99"/>
<polygon fill="midnightblue" stroke="midnightblue" points="846,-141.75 842.5,-131.75 839,-141.75 846,-141.75"/>
</g>
<!-- Node27 -->
<g id="node27" class="node">
<title>Node27</title>
<g id="a_node27"><a xlink:href="image_8h.html" target="_top" xlink:title=" ">
<polygon fill="white" stroke="black" points="718,-112.5 718,-131.5 807,-131.5 807,-112.5 718,-112.5"/>
<text text-anchor="middle" x="762.5" y="-119.5" font-family="Helvetica,sans-Serif" font-size="10.00">../media/image.h</text>
</a>
</g>
</g>
<!-- Node24&#45;&gt;Node27 -->
<g id="edge34" class="edge">
<title>Node24&#45;&gt;Node27</title>
<path fill="none" stroke="midnightblue" d="M829.65,-168.32C817.28,-159.98 798.37,-147.21 783.76,-137.35"/>
<polygon fill="midnightblue" stroke="midnightblue" points="785.57,-134.35 775.32,-131.65 781.65,-140.15 785.57,-134.35"/>
</g>
<!-- Node25&#45;&gt;Node3 -->
<g id="edge30" class="edge">
<title>Node25&#45;&gt;Node3</title>
<path fill="none" stroke="midnightblue" d="M824.99,-114.53C822.17,-113.61 819.27,-112.73 816.5,-112 733.03,-90.1 707.44,-95.69 618.76,-75.84"/>
<polygon fill="midnightblue" stroke="midnightblue" points="619.34,-72.38 608.81,-73.56 617.78,-79.2 619.34,-72.38"/>
</g>
<!-- Node25&#45;&gt;Node18 -->
<g id="edge33" class="edge">
<title>Node25&#45;&gt;Node18</title>
<path fill="none" stroke="midnightblue" d="M824.9,-114.16C802.38,-105.42 763,-90.11 735.2,-79.32"/>
<polygon fill="midnightblue" stroke="midnightblue" points="736.13,-75.92 725.54,-75.56 733.59,-82.44 736.13,-75.92"/>
</g>
<!-- Node25&#45;&gt;Node23 -->
<g id="edge32" class="edge">
<title>Node25&#45;&gt;Node23</title>
<path fill="none" stroke="midnightblue" d="M860.02,-112.92C878.9,-104.2 909.22,-90.2 931.44,-79.95"/>
<polygon fill="midnightblue" stroke="midnightblue" points="933.09,-83.05 940.7,-75.68 930.15,-76.69 933.09,-83.05"/>
</g>
<!-- Node26 -->
<g id="node26" class="node">
<title>Node26</title>
<g id="a_node26"><a xlink:title=" ">
<polygon fill="white" stroke="#bfbfbf" points="798,-56.5 798,-75.5 887,-75.5 887,-56.5 798,-56.5"/>
<text text-anchor="middle" x="842.5" y="-63.5" font-family="Helvetica,sans-Serif" font-size="10.00">sml/math/vec2.h</text>
</a>
</g>
</g>
<!-- Node25&#45;&gt;Node26 -->
<g id="edge31" class="edge">
<title>Node25&#45;&gt;Node26</title>
<path fill="none" stroke="midnightblue" d="M842.5,-112.08C842.5,-105.01 842.5,-94.86 842.5,-85.99"/>
<polygon fill="midnightblue" stroke="midnightblue" points="846,-85.75 842.5,-75.75 839,-85.75 846,-85.75"/>
</g>
<!-- Node27&#45;&gt;Node18 -->
<g id="edge35" class="edge">
<title>Node27&#45;&gt;Node18</title>
<path fill="none" stroke="midnightblue" d="M753.02,-112.32C744.3,-104.34 731.16,-92.31 720.6,-82.65"/>
<polygon fill="midnightblue" stroke="midnightblue" points="722.89,-80 713.15,-75.83 718.17,-85.17 722.89,-80"/>
</g>
<!-- Node28&#45;&gt;Node19 -->
<g id="edge38" class="edge">
<title>Node28&#45;&gt;Node19</title>
<path fill="none" stroke="midnightblue" d="M1207.6,-224.46C1226.94,-217.92 1248.93,-206.72 1260.5,-188 1269.9,-172.8 1260.51,-153.22 1251.05,-139.54"/>
<polygon fill="midnightblue" stroke="midnightblue" points="1253.83,-137.41 1245.03,-131.51 1248.23,-141.61 1253.83,-137.41"/>
</g>
<!-- Node29 -->
<g id="node29" class="node">
<title>Node29</title>
<g id="a_node29"><a xlink:title=" ">
<polygon fill="white" stroke="#bfbfbf" points="1093.5,-168.5 1093.5,-187.5 1251.5,-187.5 1251.5,-168.5 1093.5,-168.5"/>
<text text-anchor="middle" x="1172.5" y="-175.5" font-family="Helvetica,sans-Serif" font-size="10.00">sml/graphics_wrapper/renderer.h</text>
</a>
</g>
</g>
<!-- Node28&#45;&gt;Node29 -->
<g id="edge37" class="edge">
<title>Node28&#45;&gt;Node29</title>
<path fill="none" stroke="midnightblue" d="M1170.83,-224.08C1171.09,-217.01 1171.47,-206.86 1171.8,-197.99"/>
<polygon fill="midnightblue" stroke="midnightblue" points="1175.3,-197.87 1172.18,-187.75 1168.31,-197.61 1175.3,-197.87"/>
</g>
<!-- Node30&#45;&gt;Node5 -->
<g id="edge40" class="edge">
<title>Node30&#45;&gt;Node5</title>
<path fill="none" stroke="midnightblue" d="M748.32,-337.69C700.8,-330.78 632.28,-318.66 574.5,-300 381.75,-237.77 165.88,-120.73 94.69,-80.77"/>
<polygon fill="midnightblue" stroke="midnightblue" points="96.05,-77.52 85.62,-75.66 92.62,-83.62 96.05,-77.52"/>
</g>
<!-- Node30&#45;&gt;Node16 -->
<g id="edge56" class="edge">
<title>Node30&#45;&gt;Node16</title>
<path fill="none" stroke="midnightblue" d="M748.39,-337.08C710.02,-330.44 659.29,-318.92 617.5,-300 578.29,-282.25 568.43,-274.92 538.5,-244 507.25,-211.72 480.7,-165.66 467.48,-140.71"/>
<polygon fill="midnightblue" stroke="midnightblue" points="470.51,-138.95 462.79,-131.69 464.3,-142.18 470.51,-138.95"/>
</g>
<!-- Node30&#45;&gt;Node19 -->
<g id="edge55" class="edge">
<title>Node30&#45;&gt;Node19</title>
<path fill="none" stroke="midnightblue" d="M864.51,-342.24C951.8,-337.33 1112.17,-325.14 1163.5,-300 1226.72,-269.04 1248.56,-253.04 1275.5,-188 1282.86,-170.23 1269.21,-151.42 1256.27,-138.63"/>
<polygon fill="midnightblue" stroke="midnightblue" points="1258.62,-136.04 1248.89,-131.85 1253.88,-141.19 1258.62,-136.04"/>
</g>
<!-- Node30&#45;&gt;Node21 -->
<g id="edge54" class="edge">
<title>Node30&#45;&gt;Node21</title>
<path fill="none" stroke="midnightblue" d="M862.78,-336.46C888.68,-330.09 918.28,-319.06 939.5,-300 955.6,-285.54 978.07,-227.62 989,-197.47"/>
<polygon fill="midnightblue" stroke="midnightblue" points="992.41,-198.34 992.48,-187.74 985.82,-195.98 992.41,-198.34"/>
</g>
<!-- Node30&#45;&gt;Node24 -->
<g id="edge53" class="edge">
<title>Node30&#45;&gt;Node24</title>
<path fill="none" stroke="midnightblue" d="M776.9,-336.42C756.38,-329.29 729.44,-317.47 710.5,-300 683.56,-275.15 656.28,-253.14 678.5,-224 690.9,-207.73 737.93,-195.89 778.47,-188.45"/>
<polygon fill="midnightblue" stroke="midnightblue" points="779.1,-191.89 788.34,-186.7 777.88,-185 779.1,-191.89"/>
</g>
<!-- Node30&#45;&gt;Node28 -->
<g id="edge57" class="edge">
<title>Node30&#45;&gt;Node28</title>
<path fill="none" stroke="midnightblue" d="M864.84,-343.97C949.25,-341.37 1099.99,-332.22 1142.5,-300 1157.01,-289 1164.11,-268.95 1167.51,-254.01"/>
<polygon fill="midnightblue" stroke="midnightblue" points="1171.02,-254.3 1169.45,-243.83 1164.14,-252.99 1171.02,-254.3"/>
</g>
<!-- Node31 -->
<g id="node31" class="node">
<title>Node31</title>
<g id="a_node31"><a xlink:href="image__view_8h.html" target="_top" xlink:title=" ">
<polygon fill="white" stroke="black" points="547.5,-224.5 547.5,-243.5 631.5,-243.5 631.5,-224.5 547.5,-224.5"/>
<text text-anchor="middle" x="589.5" y="-231.5" font-family="Helvetica,sans-Serif" font-size="10.00">../image_view.h</text>
</a>
</g>
</g>
<!-- Node30&#45;&gt;Node31 -->
<g id="edge41" class="edge">
<title>Node30&#45;&gt;Node31</title>
<path fill="none" stroke="midnightblue" d="M748.37,-337.22C716.16,-330.91 676.49,-319.69 645.5,-300 626.32,-287.81 610.11,-267.06 600.14,-252.29"/>
<polygon fill="midnightblue" stroke="midnightblue" points="602.89,-250.09 594.53,-243.59 597.01,-253.89 602.89,-250.09"/>
</g>
<!-- Node32 -->
<g id="node32" class="node">
<title>Node32</title>
<g id="a_node32"><a xlink:href="text_8h.html" target="_top" xlink:title=" ">
<polygon fill="white" stroke="black" points="719,-280.5 719,-299.5 804,-299.5 804,-280.5 719,-280.5"/>
<text text-anchor="middle" x="761.5" y="-287.5" font-family="Helvetica,sans-Serif" font-size="10.00">../shapes/text.h</text>
</a>
</g>
</g>
<!-- Node30&#45;&gt;Node32 -->
<g id="edge44" class="edge">
<title>Node30&#45;&gt;Node32</title>
<path fill="none" stroke="midnightblue" d="M799.07,-336.08C792.65,-328.38 783.19,-317.03 775.38,-307.65"/>
<polygon fill="midnightblue" stroke="midnightblue" points="777.88,-305.19 768.79,-299.75 772.51,-309.67 777.88,-305.19"/>
</g>
<!-- Node35 -->
<g id="node35" class="node">
<title>Node35</title>
<g id="a_node35"><a xlink:href="rectangle_8h.html" target="_top" xlink:title=" ">
<polygon fill="white" stroke="black" points="822.5,-280.5 822.5,-299.5 930.5,-299.5 930.5,-280.5 822.5,-280.5"/>
<text text-anchor="middle" x="876.5" y="-287.5" font-family="Helvetica,sans-Serif" font-size="10.00">../shapes/rectangle.h</text>
</a>
</g>
</g>
<!-- Node30&#45;&gt;Node35 -->
<g id="edge50" class="edge">
<title>Node30&#45;&gt;Node35</title>
<path fill="none" stroke="midnightblue" d="M817.75,-336.32C828.3,-328.18 844.3,-315.84 856.94,-306.09"/>
<polygon fill="midnightblue" stroke="midnightblue" points="859.27,-308.71 865.05,-299.83 854.99,-303.17 859.27,-308.71"/>
</g>
<!-- Node31&#45;&gt;Node14 -->
<g id="edge42" class="edge">
<title>Node31&#45;&gt;Node14</title>
<path fill="none" stroke="midnightblue" d="M589.67,-224.08C589.8,-217.01 589.98,-206.86 590.15,-197.99"/>
<polygon fill="midnightblue" stroke="midnightblue" points="593.65,-197.81 590.34,-187.75 586.65,-197.68 593.65,-197.81"/>
</g>
<!-- Node31&#45;&gt;Node27 -->
<g id="edge43" class="edge">
<title>Node31&#45;&gt;Node27</title>
<path fill="none" stroke="midnightblue" d="M603.08,-224.37C632.76,-205.49 703.7,-160.38 740.11,-137.24"/>
<polygon fill="midnightblue" stroke="midnightblue" points="742.43,-139.91 748.99,-131.59 738.67,-134 742.43,-139.91"/>
</g>
<!-- Node33 -->
<g id="node33" class="node">
<title>Node33</title>
<g id="a_node33"><a xlink:title=" ">
<polygon fill="white" stroke="#bfbfbf" points="687.5,-224.5 687.5,-243.5 827.5,-243.5 827.5,-224.5 687.5,-224.5"/>
<text text-anchor="middle" x="757.5" y="-231.5" font-family="Helvetica,sans-Serif" font-size="10.00">sml/graphics_wrapper/text.h</text>
</a>
</g>
</g>
<!-- Node32&#45;&gt;Node33 -->
<g id="edge45" class="edge">
<title>Node32&#45;&gt;Node33</title>
<path fill="none" stroke="midnightblue" d="M760.84,-280.08C760.32,-273.01 759.56,-262.86 758.91,-253.99"/>
<polygon fill="midnightblue" stroke="midnightblue" points="762.38,-253.47 758.15,-243.75 755.4,-253.98 762.38,-253.47"/>
</g>
<!-- Node34 -->
<g id="node34" class="node">
<title>Node34</title>
<g id="a_node34"><a xlink:href="shape_8h.html" target="_top" xlink:title=" ">
<polygon fill="white" stroke="black" points="846,-224.5 846,-243.5 897,-243.5 897,-224.5 846,-224.5"/>
<text text-anchor="middle" x="871.5" y="-231.5" font-family="Helvetica,sans-Serif" font-size="10.00">shape.h</text>
</a>
</g>
</g>
<!-- Node32&#45;&gt;Node34 -->
<g id="edge46" class="edge">
<title>Node32&#45;&gt;Node34</title>
<path fill="none" stroke="midnightblue" d="M779.17,-280.32C796.89,-271.62 824.4,-258.12 844.79,-248.11"/>
<polygon fill="midnightblue" stroke="midnightblue" points="846.44,-251.2 853.87,-243.65 843.35,-244.92 846.44,-251.2"/>
</g>
<!-- Node34&#45;&gt;Node14 -->
<g id="edge47" class="edge">
<title>Node34&#45;&gt;Node14</title>
<path fill="none" stroke="midnightblue" d="M845.94,-226.2C842.77,-225.43 839.56,-224.67 836.5,-224 767.61,-208.86 687.1,-194.82 637.45,-186.57"/>
<polygon fill="midnightblue" stroke="midnightblue" points="637.78,-183.08 627.34,-184.9 636.63,-189.99 637.78,-183.08"/>
</g>
<!-- Node34&#45;&gt;Node21 -->
<g id="edge49" class="edge">
<title>Node34&#45;&gt;Node21</title>
<path fill="none" stroke="midnightblue" d="M891.15,-224.44C911.46,-215.6 943.4,-201.69 966.6,-191.59"/>
<polygon fill="midnightblue" stroke="midnightblue" points="968.17,-194.72 975.94,-187.52 965.38,-188.3 968.17,-194.72"/>
</g>
<!-- Node34&#45;&gt;Node24 -->
<g id="edge48" class="edge">
<title>Node34&#45;&gt;Node24</title>
<path fill="none" stroke="midnightblue" d="M866.71,-224.08C862.74,-216.69 856.97,-205.95 852.07,-196.81"/>
<polygon fill="midnightblue" stroke="midnightblue" points="855.01,-194.91 847.2,-187.75 848.85,-198.22 855.01,-194.91"/>
</g>
<!-- Node35&#45;&gt;Node23 -->
<g id="edge51" class="edge">
<title>Node35&#45;&gt;Node23</title>
<path fill="none" stroke="midnightblue" d="M883.3,-280.5C889.99,-271.77 900.11,-257.6 906.5,-244 932.26,-189.21 948.85,-119 955.78,-85.88"/>
<polygon fill="midnightblue" stroke="midnightblue" points="959.27,-86.3 957.83,-75.81 952.41,-84.91 959.27,-86.3"/>
</g>
<!-- Node35&#45;&gt;Node34 -->
<g id="edge52" class="edge">
<title>Node35&#45;&gt;Node34</title>
<path fill="none" stroke="midnightblue" d="M875.67,-280.08C875.02,-273.01 874.08,-262.86 873.26,-253.99"/>
<polygon fill="midnightblue" stroke="midnightblue" points="876.72,-253.39 872.31,-243.75 869.75,-254.03 876.72,-253.39"/>
</g>
<!-- Node36&#45;&gt;Node11 -->
<g id="edge64" class="edge">
<title>Node36&#45;&gt;Node11</title>
<path fill="none" stroke="midnightblue" d="M876.72,-448.08C871.83,-440.53 864.67,-429.49 858.67,-420.23"/>
<polygon fill="midnightblue" stroke="midnightblue" points="861.55,-418.24 853.17,-411.75 855.67,-422.05 861.55,-418.24"/>
</g>
<!-- Node37 -->
<g id="node37" class="node">
<title>Node37</title>
<g id="a_node37"><a xlink:href="box__container_8h.html" target="_top" xlink:title=" ">
<polygon fill="white" stroke="black" points="1199,-336.5 1199,-355.5 1284,-355.5 1284,-336.5 1199,-336.5"/>
<text text-anchor="middle" x="1241.5" y="-343.5" font-family="Helvetica,sans-Serif" font-size="10.00">box_container.h</text>
</a>
</g>
</g>
<!-- Node36&#45;&gt;Node37 -->
<g id="edge59" class="edge">
<title>Node36&#45;&gt;Node37</title>
<path fill="none" stroke="midnightblue" d="M910.37,-448.46C974.25,-428.89 1131.3,-380.77 1203.76,-358.57"/>
<polygon fill="midnightblue" stroke="midnightblue" points="1204.86,-361.89 1213.4,-355.61 1202.81,-355.19 1204.86,-361.89"/>
</g>
<!-- Node38 -->
<g id="node38" class="node">
<title>Node38</title>
<g id="a_node38"><a xlink:title=" ">
<polygon fill="white" stroke="#bfbfbf" points="1438,-280.5 1438,-299.5 1521,-299.5 1521,-280.5 1438,-280.5"/>
<text text-anchor="middle" x="1479.5" y="-287.5" font-family="Helvetica,sans-Serif" font-size="10.00">unordered_map</text>
</a>
</g>
</g>
<!-- Node37&#45;&gt;Node38 -->
<g id="edge60" class="edge">
<title>Node37&#45;&gt;Node38</title>
<path fill="none" stroke="midnightblue" d="M1279.21,-336.44C1320.64,-327.04 1387.26,-311.93 1432.17,-301.74"/>
<polygon fill="midnightblue" stroke="midnightblue" points="1432.99,-305.14 1441.96,-299.52 1431.44,-298.32 1432.99,-305.14"/>
</g>
<!-- Node39 -->
<g id="node39" class="node">
<title>Node39</title>
<g id="a_node39"><a xlink:href="container_8h.html" target="_top" xlink:title=" ">
<polygon fill="white" stroke="black" points="1069.5,-280.5 1069.5,-299.5 1133.5,-299.5 1133.5,-280.5 1069.5,-280.5"/>
<text text-anchor="middle" x="1101.5" y="-287.5" font-family="Helvetica,sans-Serif" font-size="10.00">container.h</text>
</a>
</g>
</g>
<!-- Node37&#45;&gt;Node39 -->
<g id="edge61" class="edge">
<title>Node37&#45;&gt;Node39</title>
<path fill="none" stroke="midnightblue" d="M1219.32,-336.44C1196.07,-327.48 1159.35,-313.31 1133.08,-303.18"/>
<polygon fill="midnightblue" stroke="midnightblue" points="1134.17,-299.85 1123.58,-299.52 1131.65,-306.38 1134.17,-299.85"/>
</g>
<!-- Node40 -->
<g id="node40" class="node">
<title>Node40</title>
<g id="a_node40"><a xlink:title=" ">
<polygon fill="white" stroke="#bfbfbf" points="1345.5,-280.5 1345.5,-299.5 1419.5,-299.5 1419.5,-280.5 1345.5,-280.5"/>
<text text-anchor="middle" x="1382.5" y="-287.5" font-family="Helvetica,sans-Serif" font-size="10.00">sys/syscall.h</text>
</a>
</g>
</g>
<!-- Node37&#45;&gt;Node40 -->
<g id="edge63" class="edge">
<title>Node37&#45;&gt;Node40</title>
<path fill="none" stroke="midnightblue" d="M1263.84,-336.44C1287.25,-327.48 1324.24,-313.31 1350.69,-303.18"/>
<polygon fill="midnightblue" stroke="midnightblue" points="1352.18,-306.36 1360.26,-299.52 1349.67,-299.82 1352.18,-306.36"/>
</g>
<!-- Node39&#45;&gt;Node13 -->
<g id="edge62" class="edge">
<title>Node39&#45;&gt;Node13</title>
<path fill="none" stroke="midnightblue" d="M1088.81,-280.32C1076.6,-271.98 1057.92,-259.21 1043.5,-249.35"/>
<polygon fill="midnightblue" stroke="midnightblue" points="1045.39,-246.41 1035.16,-243.65 1041.44,-252.19 1045.39,-246.41"/>
</g>
</g>
</svg>
        <g id="navigator" transform="translate(0 0)" fill="#404254">
                <rect fill="#f2f5e9" fill-opacity="0.5" stroke="#606060" stroke-width=".5" x="0" y="0" width="60" height="60"/>
                <use id="zoomplus" xlink:href="#zoomPlus" x="17" y="9" onmousedown="handleZoom(evt,'in')"/>
                <use id="zoomminus" xlink:href="#zoomMin" x="42" y="9" onmousedown="handleZoom(evt,'out')"/>
                <use id="reset" xlink:href="#resetDef" x="30" y="36" onmousedown="handleReset()"/>
                <g id="arrowUp" xlink:href="#dirArrow" transform="translate(30 24)" onmousedown="handlePan(0,-1)">
                  <use xlink:href="#rim" fill="#404040">
                        <set attributeName="fill" to="#808080" begin="arrowUp.mouseover" end="arrowUp.mouseout"/>
                  </use>
                  <path fill="none" stroke="white" stroke-width="1.5" d="M0,-3.0v7 M-2.5,-0.5L0,-3.0L2.5,-0.5"/>
                </g>
                <g id="arrowRight" xlink:href="#dirArrow" transform="rotate(90) translate(36 -43)" onmousedown="handlePan(1,0)">
                  <use xlink:href="#rim" fill="#404040">
                        <set attributeName="fill" to="#808080" begin="arrowRight.mouseover" end="arrowRight.mouseout"/>
                  </use>
                  <path fill="none" stroke="white" stroke-width="1.5" d="M0,-3.0v7 M-2.5,-0.5L0,-3.0L2.5,-0.5"/>
                </g>
                <g id="arrowDown" xlink:href="#dirArrow" transform="rotate(180) translate(-30 -48)" onmousedown="handlePan(0,1)">
                  <use xlink:href="#rim" fill="#404040">
                        <set attributeName="fill" to="#808080" begin="arrowDown.mouseover" end="arrowDown.mouseout"/>
                  </use>
                  <path fill="none" stroke="white" stroke-width="1.5" d="M0,-3.0v7 M-2.5,-0.5L0,-3.0L2.5,-0.5"/>
                </g>
                <g id="arrowLeft" xlink:href="#dirArrow" transform="rotate(270) translate(-36 17)" onmousedown="handlePan(-1,0)">
                  <use xlink:href="#rim" fill="#404040">
                        <set attributeName="fill" to="#808080" begin="arrowLeft.mouseover" end="arrowLeft.mouseout"/>
                  </use>
                  <path fill="none" stroke="white" stroke-width="1.5" d="M0,-3.0v7 M-2.5,-0.5L0,-3.0L2.5,-0.5"/>
                </g>
        </g>
        <svg viewBox="0 0 15 15" width="100%" height="30px" preserveAspectRatio="xMaxYMin meet">
         <g id="arrow_out" transform="scale(0.3 0.3)">
          <a xlink:href="scene_8h__incl_org.svg" target="_base">
           <rect id="button" ry="5" rx="5" y="6" x="6" height="38" width="38"
                fill="#f2f5e9" fill-opacity="0.5" stroke="#606060" stroke-width="1.0"/>
           <path id="arrow"
             d="M 11.500037,31.436501 C 11.940474,20.09759 22.043105,11.32322 32.158766,21.979434 L 37.068811,17.246167 C 37.068811,17.246167 37.088388,32 37.088388,32 L 22.160133,31.978069 C 22.160133,31.978069 26.997745,27.140456 26.997745,27.140456 C 18.528582,18.264221 13.291696,25.230495 11.500037,31.436501 z"
             style="fill:#404040;"/>
          </a>
         </g>
        </svg>
</svg>
