<?xml version="1.0" encoding="UTF-8" standalone="no"?>
<!DOCTYPE svg PUBLIC "-//W3C//DTD SVG 1.1//EN"
 "http://www.w3.org/Graphics/SVG/1.1/DTD/svg11.dtd">
<!-- Generated by graphviz version 2.50.0 (20211204.2007)
 -->
<!-- Title: scene.h Pages: 1 -->
<svg width="382pt" height="84pt"
 viewBox="0.00 0.00 381.50 84.00" xmlns="http://www.w3.org/2000/svg" xmlns:xlink="http://www.w3.org/1999/xlink">
<g id="graph0" class="graph" transform="scale(1 1) rotate(0) translate(4 80)">
<title>scene.h</title>
<polygon fill="white" stroke="transparent" points="-4,4 -4,-80 377.5,-80 377.5,4 -4,4"/>
<!-- Node1 -->
<g id="node1" class="node">
<title>Node1</title>
<g id="a_node1"><a xlink:title=" ">
<polygon fill="#bfbfbf" stroke="black" points="176,-56.5 176,-75.5 227,-75.5 227,-56.5 176,-56.5"/>
<text text-anchor="middle" x="201.5" y="-63.5" font-family="Helvetica,sans-Serif" font-size="10.00">scene.h</text>
</a>
</g>
</g>
<!-- Node2 -->
<g id="node2" class="node">
<title>Node2</title>
<g id="a_node2"><a xlink:href="component_8cpp.html" target="_top" xlink:title=" ">
<polygon fill="white" stroke="black" points="0,-0.5 0,-19.5 83,-19.5 83,-0.5 0,-0.5"/>
<text text-anchor="middle" x="41.5" y="-7.5" font-family="Helvetica,sans-Serif" font-size="10.00">component.cpp</text>
</a>
</g>
</g>
<!-- Node1&#45;&gt;Node2 -->
<g id="edge1" class="edge">
<title>Node1&#45;&gt;Node2</title>
<path fill="none" stroke="midnightblue" d="M166.45,-53.17C136.33,-43 93.6,-28.59 66.73,-19.52"/>
<polygon fill="midnightblue" stroke="midnightblue" points="165.55,-56.56 176.15,-56.44 167.79,-49.93 165.55,-56.56"/>
</g>
<!-- Node3 -->
<g id="node3" class="node">
<title>Node3</title>
<g id="a_node3"><a xlink:href="context__menu_8cpp.html" target="_top" xlink:title=" ">
<polygon fill="white" stroke="black" points="101,-0.5 101,-19.5 198,-19.5 198,-0.5 101,-0.5"/>
<text text-anchor="middle" x="149.5" y="-7.5" font-family="Helvetica,sans-Serif" font-size="10.00">context_menu.cpp</text>
</a>
</g>
</g>
<!-- Node1&#45;&gt;Node3 -->
<g id="edge2" class="edge">
<title>Node1&#45;&gt;Node3</title>
<path fill="none" stroke="midnightblue" d="M185.82,-48.72C176.66,-39.2 165.45,-27.56 157.93,-19.75"/>
<polygon fill="midnightblue" stroke="midnightblue" points="183.46,-51.31 192.91,-56.08 188.5,-46.45 183.46,-51.31"/>
</g>
<!-- Node4 -->
<g id="node4" class="node">
<title>Node4</title>
<g id="a_node4"><a xlink:href="menu__bar_8cpp.html" target="_top" xlink:title=" ">
<polygon fill="white" stroke="black" points="216,-0.5 216,-19.5 293,-19.5 293,-0.5 216,-0.5"/>
<text text-anchor="middle" x="254.5" y="-7.5" font-family="Helvetica,sans-Serif" font-size="10.00">menu_bar.cpp</text>
</a>
</g>
</g>
<!-- Node1&#45;&gt;Node4 -->
<g id="edge3" class="edge">
<title>Node1&#45;&gt;Node4</title>
<path fill="none" stroke="midnightblue" d="M217.48,-48.72C226.82,-39.2 238.25,-27.56 245.91,-19.75"/>
<polygon fill="midnightblue" stroke="midnightblue" points="214.76,-46.49 210.25,-56.08 219.75,-51.4 214.76,-46.49"/>
</g>
<!-- Node5 -->
<g id="node5" class="node">
<title>Node5</title>
<g id="a_node5"><a xlink:href="scene_8cpp.html" target="_top" xlink:title=" ">
<polygon fill="white" stroke="black" points="311.5,-0.5 311.5,-19.5 373.5,-19.5 373.5,-0.5 311.5,-0.5"/>
<text text-anchor="middle" x="342.5" y="-7.5" font-family="Helvetica,sans-Serif" font-size="10.00">scene.cpp</text>
</a>
</g>
</g>
<!-- Node1&#45;&gt;Node5 -->
<g id="edge4" class="edge">
<title>Node1&#45;&gt;Node5</title>
<path fill="none" stroke="midnightblue" d="M233.43,-52.77C259.91,-42.63 296.89,-28.47 320.26,-19.52"/>
<polygon fill="midnightblue" stroke="midnightblue" points="231.93,-49.6 223.84,-56.44 234.43,-56.14 231.93,-49.6"/>
</g>
</g>
</svg>
