<?xml version="1.0" encoding="UTF-8" standalone="no"?>
<!DOCTYPE svg PUBLIC "-//W3C//DTD SVG 1.1//EN"
 "http://www.w3.org/Graphics/SVG/1.1/DTD/svg11.dtd">
<!-- Generated by graphviz version 2.50.0 (20211204.2007)
 -->
<!-- Title: scene.cpp Pages: 1 -->
<!--zoomable 644 -->
<svg id="main" version="1.1" xmlns="http://www.w3.org/2000/svg" xmlns:xlink="http://www.w3.org/1999/xlink" xml:space="preserve" onload="init(evt)">
<style type="text/css"><![CDATA[
.edge:hover path { stroke: red; }
.edge:hover polygon { stroke: red; fill: red; }
]]></style>
<script type="text/javascript"><![CDATA[
var edges = document.getElementsByTagName('g');
if (edges && edges.length) {
  for (var i=0;i<edges.length;i++) {
    if (edges[i].id.substr(0,4)=='edge') {
      edges[i].setAttribute('class','edge');
    }
  }
}
]]></script>
        <defs>
                <circle id="rim" cx="0" cy="0" r="7"/>
                <circle id="rim2" cx="0" cy="0" r="3.5"/>
                <g id="zoomPlus">
                        <use xlink:href="#rim" fill="#404040">
                                <set attributeName="fill" to="#808080" begin="zoomplus.mouseover" end="zoomplus.mouseout"/>
                        </use>
                        <path d="M-4,0h8M0,-4v8" fill="none" stroke="white" stroke-width="1.5" pointer-events="none"/>
                </g>
                <g id="zoomMin">
                        <use xlink:href="#rim" fill="#404040">
                                <set attributeName="fill" to="#808080" begin="zoomminus.mouseover" end="zoomminus.mouseout"/>
                        </use>
                        <path d="M-4,0h8" fill="none" stroke="white" stroke-width="1.5" pointer-events="none"/>
                </g>
                <g id="dirArrow">
                        <path fill="none" stroke="white" stroke-width="1.5" d="M0,-3.0v7 M-2.5,-0.5L0,-3.0L2.5,-0.5"/>
                </g>
               <g id="resetDef">
                       <use xlink:href="#rim2" fill="#404040">
                               <set attributeName="fill" to="#808080" begin="reset.mouseover" end="reset.mouseout"/>
                       </use>
               </g>
        </defs>

<script type="text/javascript">
var viewWidth = 1268;
var viewHeight = 644;
var sectionId = 'dynsection-0';
</script>
<script xlink:href="svgpan.js"/>
<svg id="graph" class="graph">
<g id="viewport">
<title>scene.cpp</title>
<polygon fill="white" stroke="transparent" points="-4,4 -4,-640 1264.31,-640 1264.31,4 -4,4"/>
<!-- Node1 -->
<g id="node1" class="node">
<title>Node1</title>
<g id="a_node1"><a xlink:title=" ">
<polygon fill="#bfbfbf" stroke="black" points="381.31,-616.5 381.31,-635.5 443.31,-635.5 443.31,-616.5 381.31,-616.5"/>
<text text-anchor="middle" x="412.31" y="-623.5" font-family="Helvetica,sans-Serif" font-size="10.00">scene.cpp</text>
</a>
</g>
</g>
<!-- Node2 -->
<g id="node2" class="node">
<title>Node2</title>
<g id="a_node2"><a xlink:title=" ">
<polygon fill="white" stroke="#bfbfbf" points="60.81,-0.5 60.81,-19.5 203.81,-19.5 203.81,-0.5 60.81,-0.5"/>
<text text-anchor="middle" x="132.31" y="-7.5" font-family="Helvetica,sans-Serif" font-size="10.00">sml/events/system_events.h</text>
</a>
</g>
</g>
<!-- Node1&#45;&gt;Node2 -->
<g id="edge1" class="edge">
<title>Node1&#45;&gt;Node2</title>
<path fill="none" stroke="midnightblue" d="M381.01,-623.39C284.86,-617.58 0.31,-593.75 0.31,-515 0.31,-515 0.31,-515 0.31,-121 0.31,-90.9 -0.94,-78.26 19.31,-56 34.09,-39.76 55.5,-29.28 75.73,-22.58"/>
<polygon fill="midnightblue" stroke="midnightblue" points="76.99,-25.85 85.53,-19.58 74.94,-19.16 76.99,-25.85"/>
</g>
<!-- Node3 -->
<g id="node3" class="node">
<title>Node3</title>
<g id="a_node3"><a xlink:href="scene_8h.html" target="_top" xlink:title=" ">
<polygon fill="white" stroke="black" points="372.31,-560.5 372.31,-579.5 452.31,-579.5 452.31,-560.5 372.31,-560.5"/>
<text text-anchor="middle" x="412.31" y="-567.5" font-family="Helvetica,sans-Serif" font-size="10.00">scene/scene.h</text>
</a>
</g>
</g>
<!-- Node1&#45;&gt;Node3 -->
<g id="edge2" class="edge">
<title>Node1&#45;&gt;Node3</title>
<path fill="none" stroke="midnightblue" d="M412.31,-616.08C412.31,-609.01 412.31,-598.86 412.31,-589.99"/>
<polygon fill="midnightblue" stroke="midnightblue" points="415.81,-589.75 412.31,-579.75 408.81,-589.75 415.81,-589.75"/>
</g>
<!-- Node14 -->
<g id="node14" class="node">
<title>Node14</title>
<g id="a_node14"><a xlink:href="parent_8h.html" target="_top" xlink:title=" ">
<polygon fill="white" stroke="black" points="913.81,-224.5 913.81,-243.5 974.81,-243.5 974.81,-224.5 913.81,-224.5"/>
<text text-anchor="middle" x="944.31" y="-231.5" font-family="Helvetica,sans-Serif" font-size="10.00">../parent.h</text>
</a>
</g>
</g>
<!-- Node1&#45;&gt;Node14 -->
<g id="edge67" class="edge">
<title>Node1&#45;&gt;Node14</title>
<path fill="none" stroke="midnightblue" d="M443.35,-623.39C577.8,-616 1103.31,-582.8 1103.31,-515 1103.31,-515 1103.31,-515 1103.31,-345 1103.31,-314.9 1105.31,-301.56 1084.31,-280 1058.23,-253.21 1016.17,-242.35 984.96,-237.95"/>
<polygon fill="midnightblue" stroke="midnightblue" points="985.18,-234.45 974.82,-236.7 984.32,-241.4 985.18,-234.45"/>
</g>
<!-- Node4 -->
<g id="node4" class="node">
<title>Node4</title>
<g id="a_node4"><a xlink:href="gui__event__dispatching_8h.html" target="_top" xlink:title=" ">
<polygon fill="white" stroke="black" points="230.81,-112.5 230.81,-131.5 393.81,-131.5 393.81,-112.5 230.81,-112.5"/>
<text text-anchor="middle" x="312.31" y="-119.5" font-family="Helvetica,sans-Serif" font-size="10.00">../events/gui_event_dispatching.h</text>
</a>
</g>
</g>
<!-- Node3&#45;&gt;Node4 -->
<g id="edge3" class="edge">
<title>Node3&#45;&gt;Node4</title>
<path fill="none" stroke="midnightblue" d="M395.35,-560.36C366.82,-544.49 312.31,-507.78 312.31,-459 312.31,-459 312.31,-459 312.31,-233 312.31,-200.95 312.31,-163.64 312.31,-141.75"/>
<polygon fill="midnightblue" stroke="midnightblue" points="315.81,-141.56 312.31,-131.56 308.81,-141.56 315.81,-141.56"/>
</g>
<!-- Node11 -->
<g id="node11" class="node">
<title>Node11</title>
<g id="a_node11"><a xlink:href="menu__bar_8h.html" target="_top" xlink:title=" ">
<polygon fill="white" stroke="black" points="454.81,-504.5 454.81,-523.5 569.81,-523.5 569.81,-504.5 454.81,-504.5"/>
<text text-anchor="middle" x="512.31" y="-511.5" font-family="Helvetica,sans-Serif" font-size="10.00">containers/menu_bar.h</text>
</a>
</g>
</g>
<!-- Node3&#45;&gt;Node11 -->
<g id="edge12" class="edge">
<title>Node3&#45;&gt;Node11</title>
<path fill="none" stroke="midnightblue" d="M428.38,-560.32C444.27,-551.74 468.82,-538.49 487.27,-528.52"/>
<polygon fill="midnightblue" stroke="midnightblue" points="489.15,-531.49 496.29,-523.65 485.82,-525.33 489.15,-531.49"/>
</g>
<!-- Node4&#45;&gt;Node2 -->
<g id="edge7" class="edge">
<title>Node4&#45;&gt;Node2</title>
<path fill="none" stroke="midnightblue" d="M290.9,-112.39C271.2,-104.12 241.46,-90.73 217.31,-76 192.6,-60.93 166.47,-40.12 149.82,-26.14"/>
<polygon fill="midnightblue" stroke="midnightblue" points="151.91,-23.33 142.03,-19.52 147.38,-28.67 151.91,-23.33"/>
</g>
<!-- Node5 -->
<g id="node5" class="node">
<title>Node5</title>
<g id="a_node5"><a xlink:title=" ">
<polygon fill="white" stroke="#bfbfbf" points="757.31,-56.5 757.31,-75.5 801.31,-75.5 801.31,-56.5 757.31,-56.5"/>
<text text-anchor="middle" x="779.31" y="-63.5" font-family="Helvetica,sans-Serif" font-size="10.00">vector</text>
</a>
</g>
</g>
<!-- Node4&#45;&gt;Node5 -->
<g id="edge4" class="edge">
<title>Node4&#45;&gt;Node5</title>
<path fill="none" stroke="midnightblue" d="M393.84,-112.77C506.03,-101.42 698.94,-81.82 747.05,-75.49"/>
<polygon fill="midnightblue" stroke="midnightblue" points="747.71,-78.93 757.08,-73.97 746.67,-72.01 747.71,-78.93"/>
</g>
<!-- Node6 -->
<g id="node6" class="node">
<title>Node6</title>
<g id="a_node6"><a xlink:title=" ">
<polygon fill="white" stroke="#bfbfbf" points="311.81,-56.5 311.81,-75.5 466.81,-75.5 466.81,-56.5 311.81,-56.5"/>
<text text-anchor="middle" x="389.31" y="-63.5" font-family="Helvetica,sans-Serif" font-size="10.00">sml/events/event_dispatching.h</text>
</a>
</g>
</g>
<!-- Node4&#45;&gt;Node6 -->
<g id="edge5" class="edge">
<title>Node4&#45;&gt;Node6</title>
<path fill="none" stroke="midnightblue" d="M324.68,-112.32C336.47,-104.06 354.45,-91.45 368.45,-81.63"/>
<polygon fill="midnightblue" stroke="midnightblue" points="370.79,-84.26 376.97,-75.65 366.78,-78.53 370.79,-84.26"/>
</g>
<!-- Node7 -->
<g id="node7" class="node">
<title>Node7</title>
<g id="a_node7"><a xlink:title=" ">
<polygon fill="white" stroke="#bfbfbf" points="28.81,-56.5 28.81,-75.5 169.81,-75.5 169.81,-56.5 28.81,-56.5"/>
<text text-anchor="middle" x="99.31" y="-63.5" font-family="Helvetica,sans-Serif" font-size="10.00">sml/events/listener_notifier.h</text>
</a>
</g>
</g>
<!-- Node4&#45;&gt;Node7 -->
<g id="edge6" class="edge">
<title>Node4&#45;&gt;Node7</title>
<path fill="none" stroke="midnightblue" d="M278.56,-112.44C241.79,-103.12 182.87,-88.18 142.69,-78"/>
<polygon fill="midnightblue" stroke="midnightblue" points="143.46,-74.58 132.91,-75.52 141.74,-81.37 143.46,-74.58"/>
</g>
<!-- Node8 -->
<g id="node8" class="node">
<title>Node8</title>
<g id="a_node8"><a xlink:href="gui__event_8h.html" target="_top" xlink:title=" ">
<polygon fill="white" stroke="black" points="226.81,-56.5 226.81,-75.5 293.81,-75.5 293.81,-56.5 226.81,-56.5"/>
<text text-anchor="middle" x="260.31" y="-63.5" font-family="Helvetica,sans-Serif" font-size="10.00">gui_event.h</text>
</a>
</g>
</g>
<!-- Node4&#45;&gt;Node8 -->
<g id="edge8" class="edge">
<title>Node4&#45;&gt;Node8</title>
<path fill="none" stroke="midnightblue" d="M303.73,-112.08C296.15,-104.22 284.93,-92.57 275.8,-83.08"/>
<polygon fill="midnightblue" stroke="midnightblue" points="278.2,-80.53 268.74,-75.75 273.16,-85.38 278.2,-80.53"/>
</g>
<!-- Node8&#45;&gt;Node2 -->
<g id="edge10" class="edge">
<title>Node8&#45;&gt;Node2</title>
<path fill="none" stroke="midnightblue" d="M240.03,-56.44C218.97,-47.56 185.8,-33.56 161.83,-23.45"/>
<polygon fill="midnightblue" stroke="midnightblue" points="163.07,-20.18 152.5,-19.52 160.35,-26.63 163.07,-20.18"/>
</g>
<!-- Node9 -->
<g id="node9" class="node">
<title>Node9</title>
<g id="a_node9"><a xlink:title=" ">
<polygon fill="white" stroke="#bfbfbf" points="317.31,-0.5 317.31,-19.5 417.31,-19.5 417.31,-0.5 317.31,-0.5"/>
<text text-anchor="middle" x="367.31" y="-7.5" font-family="Helvetica,sans-Serif" font-size="10.00">sml/events/event.h</text>
</a>
</g>
</g>
<!-- Node8&#45;&gt;Node9 -->
<g id="edge9" class="edge">
<title>Node8&#45;&gt;Node9</title>
<path fill="none" stroke="midnightblue" d="M277.5,-56.32C294.66,-47.66 321.26,-34.24 341.06,-24.25"/>
<polygon fill="midnightblue" stroke="midnightblue" points="342.81,-27.28 350.16,-19.65 339.66,-21.04 342.81,-27.28"/>
</g>
<!-- Node10 -->
<g id="node10" class="node">
<title>Node10</title>
<g id="a_node10"><a xlink:title=" ">
<polygon fill="white" stroke="#bfbfbf" points="221.81,-0.5 221.81,-19.5 298.81,-19.5 298.81,-0.5 221.81,-0.5"/>
<text text-anchor="middle" x="260.31" y="-7.5" font-family="Helvetica,sans-Serif" font-size="10.00">sml/sml_log.h</text>
</a>
</g>
</g>
<!-- Node8&#45;&gt;Node10 -->
<g id="edge11" class="edge">
<title>Node8&#45;&gt;Node10</title>
<path fill="none" stroke="midnightblue" d="M260.31,-56.08C260.31,-49.01 260.31,-38.86 260.31,-29.99"/>
<polygon fill="midnightblue" stroke="midnightblue" points="263.81,-29.75 260.31,-19.75 256.81,-29.75 263.81,-29.75"/>
</g>
<!-- Node12 -->
<g id="node12" class="node">
<title>Node12</title>
<g id="a_node12"><a xlink:href="button_8h.html" target="_top" xlink:title=" ">
<polygon fill="white" stroke="black" points="587.31,-392.5 587.31,-411.5 685.31,-411.5 685.31,-392.5 587.31,-392.5"/>
<text text-anchor="middle" x="636.31" y="-399.5" font-family="Helvetica,sans-Serif" font-size="10.00">../controls/button.h</text>
</a>
</g>
</g>
<!-- Node11&#45;&gt;Node12 -->
<g id="edge13" class="edge">
<title>Node11&#45;&gt;Node12</title>
<path fill="none" stroke="midnightblue" d="M522.34,-504.43C532.85,-495.43 549.82,-480.81 564.31,-468 583.09,-451.4 604.36,-432.14 618.89,-418.92"/>
<polygon fill="midnightblue" stroke="midnightblue" points="621.56,-421.22 626.59,-411.9 616.84,-416.05 621.56,-421.22"/>
</g>
<!-- Node37 -->
<g id="node37" class="node">
<title>Node37</title>
<g id="a_node37"><a xlink:href="context__menu_8h.html" target="_top" xlink:title=" ">
<polygon fill="white" stroke="black" points="469.31,-448.5 469.31,-467.5 555.31,-467.5 555.31,-448.5 469.31,-448.5"/>
<text text-anchor="middle" x="512.31" y="-455.5" font-family="Helvetica,sans-Serif" font-size="10.00">context_menu.h</text>
</a>
</g>
</g>
<!-- Node11&#45;&gt;Node37 -->
<g id="edge60" class="edge">
<title>Node11&#45;&gt;Node37</title>
<path fill="none" stroke="midnightblue" d="M512.31,-504.08C512.31,-497.01 512.31,-486.86 512.31,-477.99"/>
<polygon fill="midnightblue" stroke="midnightblue" points="515.81,-477.75 512.31,-467.75 508.81,-477.75 515.81,-477.75"/>
</g>
<!-- Node13 -->
<g id="node13" class="node">
<title>Node13</title>
<g id="a_node13"><a xlink:href="control_8h.html" target="_top" xlink:title=" ">
<polygon fill="white" stroke="black" points="1021.31,-280.5 1021.31,-299.5 1075.31,-299.5 1075.31,-280.5 1021.31,-280.5"/>
<text text-anchor="middle" x="1048.31" y="-287.5" font-family="Helvetica,sans-Serif" font-size="10.00">control.h</text>
</a>
</g>
</g>
<!-- Node12&#45;&gt;Node13 -->
<g id="edge14" class="edge">
<title>Node12&#45;&gt;Node13</title>
<path fill="none" stroke="midnightblue" d="M668.3,-392.46C743.48,-372.39 931.1,-322.29 1011.16,-300.92"/>
<polygon fill="midnightblue" stroke="midnightblue" points="1012.52,-304.18 1021.28,-298.22 1010.71,-297.42 1012.52,-304.18"/>
</g>
<!-- Node31 -->
<g id="node31" class="node">
<title>Node31</title>
<g id="a_node31"><a xlink:href="default__skins_8h.html" target="_top" xlink:title=" ">
<polygon fill="white" stroke="black" points="635.31,-336.5 635.31,-355.5 751.31,-355.5 751.31,-336.5 635.31,-336.5"/>
<text text-anchor="middle" x="693.31" y="-343.5" font-family="Helvetica,sans-Serif" font-size="10.00">../style/default_skins.h</text>
</a>
</g>
</g>
<!-- Node12&#45;&gt;Node31 -->
<g id="edge41" class="edge">
<title>Node12&#45;&gt;Node31</title>
<path fill="none" stroke="midnightblue" d="M645.47,-392.32C653.81,-384.42 666.35,-372.55 676.49,-362.94"/>
<polygon fill="midnightblue" stroke="midnightblue" points="679.14,-365.25 683.99,-355.83 674.32,-360.17 679.14,-365.25"/>
</g>
<!-- Node13&#45;&gt;Node14 -->
<g id="edge15" class="edge">
<title>Node13&#45;&gt;Node14</title>
<path fill="none" stroke="midnightblue" d="M1031.6,-280.32C1015,-271.7 989.31,-258.36 970.09,-248.39"/>
<polygon fill="midnightblue" stroke="midnightblue" points="971.47,-245.16 960.98,-243.65 968.24,-251.37 971.47,-245.16"/>
</g>
<!-- Node29 -->
<g id="node29" class="node">
<title>Node29</title>
<g id="a_node29"><a xlink:href="skin_8h.html" target="_top" xlink:title=" ">
<polygon fill="white" stroke="black" points="1100.31,-224.5 1100.31,-243.5 1176.31,-243.5 1176.31,-224.5 1100.31,-224.5"/>
<text text-anchor="middle" x="1138.31" y="-231.5" font-family="Helvetica,sans-Serif" font-size="10.00">../style/skin.h</text>
</a>
</g>
</g>
<!-- Node13&#45;&gt;Node29 -->
<g id="edge38" class="edge">
<title>Node13&#45;&gt;Node29</title>
<path fill="none" stroke="midnightblue" d="M1062.77,-280.32C1076.81,-271.9 1098.36,-258.97 1114.86,-249.07"/>
<polygon fill="midnightblue" stroke="midnightblue" points="1117.11,-251.8 1123.89,-243.65 1113.51,-245.8 1117.11,-251.8"/>
</g>
<!-- Node15 -->
<g id="node15" class="node">
<title>Node15</title>
<g id="a_node15"><a xlink:href="component_8h.html" target="_top" xlink:title=" ">
<polygon fill="white" stroke="black" points="533.81,-168.5 533.81,-187.5 606.81,-187.5 606.81,-168.5 533.81,-168.5"/>
<text text-anchor="middle" x="570.31" y="-175.5" font-family="Helvetica,sans-Serif" font-size="10.00">component.h</text>
</a>
</g>
</g>
<!-- Node14&#45;&gt;Node15 -->
<g id="edge16" class="edge">
<title>Node14&#45;&gt;Node15</title>
<path fill="none" stroke="midnightblue" d="M913.71,-228.58C848.34,-219.14 694.75,-196.97 617.06,-185.75"/>
<polygon fill="midnightblue" stroke="midnightblue" points="617.47,-182.27 607.07,-184.31 616.47,-189.2 617.47,-182.27"/>
</g>
<!-- Node20 -->
<g id="node20" class="node">
<title>Node20</title>
<g id="a_node20"><a xlink:href="insets_8h.html" target="_top" xlink:title=" ">
<polygon fill="white" stroke="black" points="1176.31,-112.5 1176.31,-131.5 1260.31,-131.5 1260.31,-112.5 1176.31,-112.5"/>
<text text-anchor="middle" x="1218.31" y="-119.5" font-family="Helvetica,sans-Serif" font-size="10.00">../paint/insets.h</text>
</a>
</g>
</g>
<!-- Node14&#45;&gt;Node20 -->
<g id="edge22" class="edge">
<title>Node14&#45;&gt;Node20</title>
<path fill="none" stroke="midnightblue" d="M955.16,-224.35C972.97,-210.54 1009.98,-183.49 1045.31,-168 1084.25,-150.93 1131.05,-139.25 1166.15,-132.07"/>
<polygon fill="midnightblue" stroke="midnightblue" points="1167.05,-135.46 1176.18,-130.07 1165.69,-128.59 1167.05,-135.46"/>
</g>
<!-- Node22 -->
<g id="node22" class="node">
<title>Node22</title>
<g id="a_node22"><a xlink:href="border_8h.html" target="_top" xlink:title=" ">
<polygon fill="white" stroke="black" points="914.31,-168.5 914.31,-187.5 998.31,-187.5 998.31,-168.5 914.31,-168.5"/>
<text text-anchor="middle" x="956.31" y="-175.5" font-family="Helvetica,sans-Serif" font-size="10.00">../paint/border.h</text>
</a>
</g>
</g>
<!-- Node14&#45;&gt;Node22 -->
<g id="edge24" class="edge">
<title>Node14&#45;&gt;Node22</title>
<path fill="none" stroke="midnightblue" d="M946.29,-224.08C947.88,-216.93 950.17,-206.64 952.16,-197.69"/>
<polygon fill="midnightblue" stroke="midnightblue" points="955.62,-198.27 954.37,-187.75 948.78,-196.75 955.62,-198.27"/>
</g>
<!-- Node25 -->
<g id="node25" class="node">
<title>Node25</title>
<g id="a_node25"><a xlink:href="background_8h.html" target="_top" xlink:title=" ">
<polygon fill="white" stroke="black" points="750.31,-168.5 750.31,-187.5 858.31,-187.5 858.31,-168.5 750.31,-168.5"/>
<text text-anchor="middle" x="804.31" y="-175.5" font-family="Helvetica,sans-Serif" font-size="10.00">../paint/background.h</text>
</a>
</g>
</g>
<!-- Node14&#45;&gt;Node25 -->
<g id="edge28" class="edge">
<title>Node14&#45;&gt;Node25</title>
<path fill="none" stroke="midnightblue" d="M922.13,-224.44C898.88,-215.48 862.16,-201.31 835.9,-191.18"/>
<polygon fill="midnightblue" stroke="midnightblue" points="836.98,-187.85 826.39,-187.52 834.46,-194.38 836.98,-187.85"/>
</g>
<!-- Node15&#45;&gt;Node4 -->
<g id="edge18" class="edge">
<title>Node15&#45;&gt;Node4</title>
<path fill="none" stroke="midnightblue" d="M533.62,-169.32C488.98,-159.98 413.36,-144.15 363.14,-133.64"/>
<polygon fill="midnightblue" stroke="midnightblue" points="363.64,-130.17 353.13,-131.54 362.21,-137.02 363.64,-130.17"/>
</g>
<!-- Node16 -->
<g id="node16" class="node">
<title>Node16</title>
<g id="a_node16"><a xlink:title=" ">
<polygon fill="white" stroke="#bfbfbf" points="520.31,-112.5 520.31,-131.5 660.31,-131.5 660.31,-112.5 520.31,-112.5"/>
<text text-anchor="middle" x="590.31" y="-119.5" font-family="Helvetica,sans-Serif" font-size="10.00">sml/sml_graphics_wrapper.h</text>
</a>
</g>
</g>
<!-- Node15&#45;&gt;Node16 -->
<g id="edge17" class="edge">
<title>Node15&#45;&gt;Node16</title>
<path fill="none" stroke="midnightblue" d="M573.62,-168.08C576.3,-160.85 580.16,-150.41 583.5,-141.4"/>
<polygon fill="midnightblue" stroke="midnightblue" points="586.88,-142.34 587.07,-131.75 580.32,-139.91 586.88,-142.34"/>
</g>
<!-- Node17 -->
<g id="node17" class="node">
<title>Node17</title>
<g id="a_node17"><a xlink:href="shadow_8h.html" target="_top" xlink:title=" ">
<polygon fill="white" stroke="black" points="412.31,-112.5 412.31,-131.5 502.31,-131.5 502.31,-112.5 412.31,-112.5"/>
<text text-anchor="middle" x="457.31" y="-119.5" font-family="Helvetica,sans-Serif" font-size="10.00">../paint/shadow.h</text>
</a>
</g>
</g>
<!-- Node15&#45;&gt;Node17 -->
<g id="edge19" class="edge">
<title>Node15&#45;&gt;Node17</title>
<path fill="none" stroke="midnightblue" d="M552.41,-168.44C534.06,-159.68 505.31,-145.94 484.22,-135.86"/>
<polygon fill="midnightblue" stroke="midnightblue" points="485.67,-132.67 475.13,-131.52 482.65,-138.99 485.67,-132.67"/>
</g>
<!-- Node18 -->
<g id="node18" class="node">
<title>Node18</title>
<g id="a_node18"><a xlink:title=" ">
<polygon fill="white" stroke="#bfbfbf" points="484.81,-56.5 484.81,-75.5 567.81,-75.5 567.81,-56.5 484.81,-56.5"/>
<text text-anchor="middle" x="526.31" y="-63.5" font-family="Helvetica,sans-Serif" font-size="10.00">sml/math/blur.h</text>
</a>
</g>
</g>
<!-- Node17&#45;&gt;Node18 -->
<g id="edge20" class="edge">
<title>Node17&#45;&gt;Node18</title>
<path fill="none" stroke="midnightblue" d="M468.4,-112.32C478.8,-104.18 494.57,-91.84 507.03,-82.09"/>
<polygon fill="midnightblue" stroke="midnightblue" points="509.31,-84.75 515.03,-75.83 504.99,-79.24 509.31,-84.75"/>
</g>
<!-- Node19 -->
<g id="node19" class="node">
<title>Node19</title>
<g id="a_node19"><a xlink:title=" ">
<polygon fill="white" stroke="#bfbfbf" points="585.81,-56.5 585.81,-75.5 738.81,-75.5 738.81,-56.5 585.81,-56.5"/>
<text text-anchor="middle" x="662.31" y="-63.5" font-family="Helvetica,sans-Serif" font-size="10.00">sml/graphics_wrapper/texture.h</text>
</a>
</g>
</g>
<!-- Node17&#45;&gt;Node19 -->
<g id="edge21" class="edge">
<title>Node17&#45;&gt;Node19</title>
<path fill="none" stroke="midnightblue" d="M489.8,-112.44C525.03,-103.16 581.42,-88.31 620.07,-78.13"/>
<polygon fill="midnightblue" stroke="midnightblue" points="621.2,-81.45 629.98,-75.52 619.42,-74.68 621.2,-81.45"/>
</g>
<!-- Node21 -->
<g id="node21" class="node">
<title>Node21</title>
<g id="a_node21"><a xlink:title=" ">
<polygon fill="white" stroke="#bfbfbf" points="1193.81,-56.5 1193.81,-75.5 1242.81,-75.5 1242.81,-56.5 1193.81,-56.5"/>
<text text-anchor="middle" x="1218.31" y="-63.5" font-family="Helvetica,sans-Serif" font-size="10.00">stdint.h</text>
</a>
</g>
</g>
<!-- Node20&#45;&gt;Node21 -->
<g id="edge23" class="edge">
<title>Node20&#45;&gt;Node21</title>
<path fill="none" stroke="midnightblue" d="M1218.31,-112.08C1218.31,-105.01 1218.31,-94.86 1218.31,-85.99"/>
<polygon fill="midnightblue" stroke="midnightblue" points="1221.81,-85.75 1218.31,-75.75 1214.81,-85.75 1221.81,-85.75"/>
</g>
<!-- Node22&#45;&gt;Node20 -->
<g id="edge27" class="edge">
<title>Node22&#45;&gt;Node20</title>
<path fill="none" stroke="midnightblue" d="M997.83,-168.44C1043.72,-158.98 1117.69,-143.74 1167.14,-133.55"/>
<polygon fill="midnightblue" stroke="midnightblue" points="1167.91,-136.96 1176.99,-131.52 1166.49,-130.11 1167.91,-136.96"/>
</g>
<!-- Node23 -->
<g id="node23" class="node">
<title>Node23</title>
<g id="a_node23"><a xlink:title=" ">
<polygon fill="white" stroke="#bfbfbf" points="992.81,-112.5 992.81,-131.5 1135.81,-131.5 1135.81,-112.5 992.81,-112.5"/>
<text text-anchor="middle" x="1064.31" y="-119.5" font-family="Helvetica,sans-Serif" font-size="10.00">sml/graphics_wrapper/color.h</text>
</a>
</g>
</g>
<!-- Node22&#45;&gt;Node23 -->
<g id="edge25" class="edge">
<title>Node22&#45;&gt;Node23</title>
<path fill="none" stroke="midnightblue" d="M973.67,-168.32C990.98,-159.66 1017.83,-146.24 1037.82,-136.25"/>
<polygon fill="midnightblue" stroke="midnightblue" points="1039.63,-139.26 1047,-131.65 1036.49,-133 1039.63,-139.26"/>
</g>
<!-- Node24 -->
<g id="node24" class="node">
<title>Node24</title>
<g id="a_node24"><a xlink:title=" ">
<polygon fill="white" stroke="#bfbfbf" points="927.31,-56.5 927.31,-75.5 1035.31,-75.5 1035.31,-56.5 927.31,-56.5"/>
<text text-anchor="middle" x="981.31" y="-63.5" font-family="Helvetica,sans-Serif" font-size="10.00">sml/math/rectangle.h</text>
</a>
</g>
</g>
<!-- Node22&#45;&gt;Node24 -->
<g id="edge26" class="edge">
<title>Node22&#45;&gt;Node24</title>
<path fill="none" stroke="midnightblue" d="M958.27,-168.37C962.31,-150.62 971.62,-109.67 977.09,-85.6"/>
<polygon fill="midnightblue" stroke="midnightblue" points="980.56,-86.12 979.36,-75.59 973.73,-84.57 980.56,-86.12"/>
</g>
<!-- Node25&#45;&gt;Node5 -->
<g id="edge29" class="edge">
<title>Node25&#45;&gt;Node5</title>
<path fill="none" stroke="midnightblue" d="M802.35,-168.37C798.32,-150.62 789.01,-109.67 783.54,-85.6"/>
<polygon fill="midnightblue" stroke="midnightblue" points="786.89,-84.57 781.27,-75.59 780.07,-86.12 786.89,-84.57"/>
</g>
<!-- Node25&#45;&gt;Node24 -->
<g id="edge30" class="edge">
<title>Node25&#45;&gt;Node24</title>
<path fill="none" stroke="midnightblue" d="M818.2,-168.37C848.7,-149.41 921.78,-104 958.88,-80.94"/>
<polygon fill="midnightblue" stroke="midnightblue" points="960.84,-83.84 967.49,-75.59 957.15,-77.9 960.84,-83.84"/>
</g>
<!-- Node26 -->
<g id="node26" class="node">
<title>Node26</title>
<g id="a_node26"><a xlink:href="fill_8h.html" target="_top" xlink:title=" ">
<polygon fill="white" stroke="black" points="824.81,-112.5 824.81,-131.5 859.81,-131.5 859.81,-112.5 824.81,-112.5"/>
<text text-anchor="middle" x="842.31" y="-119.5" font-family="Helvetica,sans-Serif" font-size="10.00">fill.h</text>
</a>
</g>
</g>
<!-- Node25&#45;&gt;Node26 -->
<g id="edge31" class="edge">
<title>Node25&#45;&gt;Node26</title>
<path fill="none" stroke="midnightblue" d="M810.59,-168.08C815.96,-160.46 823.83,-149.26 830.39,-139.94"/>
<polygon fill="midnightblue" stroke="midnightblue" points="833.26,-141.94 836.15,-131.75 827.54,-137.91 833.26,-141.94"/>
</g>
<!-- Node28 -->
<g id="node28" class="node">
<title>Node28</title>
<g id="a_node28"><a xlink:href="image_8h.html" target="_top" xlink:title=" ">
<polygon fill="white" stroke="black" points="678.81,-112.5 678.81,-131.5 767.81,-131.5 767.81,-112.5 678.81,-112.5"/>
<text text-anchor="middle" x="723.31" y="-119.5" font-family="Helvetica,sans-Serif" font-size="10.00">../media/image.h</text>
</a>
</g>
</g>
<!-- Node25&#45;&gt;Node28 -->
<g id="edge36" class="edge">
<title>Node25&#45;&gt;Node28</title>
<path fill="none" stroke="midnightblue" d="M791.3,-168.32C778.78,-159.98 759.63,-147.21 744.84,-137.35"/>
<polygon fill="midnightblue" stroke="midnightblue" points="746.56,-134.29 736.29,-131.65 742.67,-140.11 746.56,-134.29"/>
</g>
<!-- Node26&#45;&gt;Node5 -->
<g id="edge32" class="edge">
<title>Node26&#45;&gt;Node5</title>
<path fill="none" stroke="midnightblue" d="M832.19,-112.32C822.79,-104.26 808.57,-92.08 797.24,-82.37"/>
<polygon fill="midnightblue" stroke="midnightblue" points="799.49,-79.68 789.62,-75.83 794.93,-85 799.49,-79.68"/>
</g>
<!-- Node26&#45;&gt;Node19 -->
<g id="edge35" class="edge">
<title>Node26&#45;&gt;Node19</title>
<path fill="none" stroke="midnightblue" d="M824.73,-115.72C796.14,-107.15 738.95,-89.99 700.64,-78.5"/>
<polygon fill="midnightblue" stroke="midnightblue" points="701.44,-75.09 690.86,-75.56 699.43,-81.79 701.44,-75.09"/>
</g>
<!-- Node26&#45;&gt;Node24 -->
<g id="edge34" class="edge">
<title>Node26&#45;&gt;Node24</title>
<path fill="none" stroke="midnightblue" d="M859.92,-114.16C882.43,-105.42 921.82,-90.11 949.61,-79.32"/>
<polygon fill="midnightblue" stroke="midnightblue" points="951.22,-82.44 959.28,-75.56 948.69,-75.92 951.22,-82.44"/>
</g>
<!-- Node27 -->
<g id="node27" class="node">
<title>Node27</title>
<g id="a_node27"><a xlink:title=" ">
<polygon fill="white" stroke="#bfbfbf" points="819.81,-56.5 819.81,-75.5 908.81,-75.5 908.81,-56.5 819.81,-56.5"/>
<text text-anchor="middle" x="864.31" y="-63.5" font-family="Helvetica,sans-Serif" font-size="10.00">sml/math/vec2.h</text>
</a>
</g>
</g>
<!-- Node26&#45;&gt;Node27 -->
<g id="edge33" class="edge">
<title>Node26&#45;&gt;Node27</title>
<path fill="none" stroke="midnightblue" d="M845.95,-112.08C848.93,-104.77 853.24,-94.18 856.94,-85.1"/>
<polygon fill="midnightblue" stroke="midnightblue" points="860.22,-86.33 860.75,-75.75 853.73,-83.69 860.22,-86.33"/>
</g>
<!-- Node28&#45;&gt;Node19 -->
<g id="edge37" class="edge">
<title>Node28&#45;&gt;Node19</title>
<path fill="none" stroke="midnightblue" d="M713.51,-112.32C704.5,-104.34 690.91,-92.31 680,-82.65"/>
<polygon fill="midnightblue" stroke="midnightblue" points="682.1,-79.84 672.29,-75.83 677.46,-85.08 682.1,-79.84"/>
</g>
<!-- Node29&#45;&gt;Node20 -->
<g id="edge40" class="edge">
<title>Node29&#45;&gt;Node20</title>
<path fill="none" stroke="midnightblue" d="M1170.5,-224.49C1188.85,-217.8 1210.33,-206.45 1221.31,-188 1229.61,-174.06 1227.66,-155.31 1224.34,-141.52"/>
<polygon fill="midnightblue" stroke="midnightblue" points="1227.65,-140.39 1221.56,-131.73 1220.92,-142.3 1227.65,-140.39"/>
</g>
<!-- Node30 -->
<g id="node30" class="node">
<title>Node30</title>
<g id="a_node30"><a xlink:title=" ">
<polygon fill="white" stroke="#bfbfbf" points="1054.31,-168.5 1054.31,-187.5 1212.31,-187.5 1212.31,-168.5 1054.31,-168.5"/>
<text text-anchor="middle" x="1133.31" y="-175.5" font-family="Helvetica,sans-Serif" font-size="10.00">sml/graphics_wrapper/renderer.h</text>
</a>
</g>
</g>
<!-- Node29&#45;&gt;Node30 -->
<g id="edge39" class="edge">
<title>Node29&#45;&gt;Node30</title>
<path fill="none" stroke="midnightblue" d="M1137.49,-224.08C1136.83,-217.01 1135.89,-206.86 1135.07,-197.99"/>
<polygon fill="midnightblue" stroke="midnightblue" points="1138.53,-197.39 1134.12,-187.75 1131.56,-198.03 1138.53,-197.39"/>
</g>
<!-- Node31&#45;&gt;Node7 -->
<g id="edge42" class="edge">
<title>Node31&#45;&gt;Node7</title>
<path fill="none" stroke="midnightblue" d="M652.88,-336.42C619.59,-328.74 571.52,-316.19 531.31,-300 366.28,-233.55 183.1,-120.51 121.14,-81.07"/>
<polygon fill="midnightblue" stroke="midnightblue" points="122.88,-78.04 112.57,-75.6 119.11,-83.93 122.88,-78.04"/>
</g>
<!-- Node31&#45;&gt;Node17 -->
<g id="edge58" class="edge">
<title>Node31&#45;&gt;Node17</title>
<path fill="none" stroke="midnightblue" d="M657.3,-336.49C612.79,-324.03 538.07,-296.39 498.31,-244 474.71,-212.9 464.18,-167.35 459.91,-141.94"/>
<polygon fill="midnightblue" stroke="midnightblue" points="463.33,-141.16 458.36,-131.8 456.41,-142.21 463.33,-141.16"/>
</g>
<!-- Node31&#45;&gt;Node20 -->
<g id="edge57" class="edge">
<title>Node31&#45;&gt;Node20</title>
<path fill="none" stroke="midnightblue" d="M751.52,-342.45C850.12,-337.5 1045.51,-324.85 1109.31,-300 1179.75,-272.57 1209.68,-258.36 1237.31,-188 1243.48,-172.3 1236.77,-153.79 1229.68,-140.54"/>
<polygon fill="midnightblue" stroke="midnightblue" points="1232.48,-138.41 1224.39,-131.58 1226.45,-141.97 1232.48,-138.41"/>
</g>
<!-- Node31&#45;&gt;Node22 -->
<g id="edge56" class="edge">
<title>Node31&#45;&gt;Node22</title>
<path fill="none" stroke="midnightblue" d="M751.64,-339.27C829.27,-331.1 958.65,-315.38 974.31,-300 998.62,-276.13 993.67,-256.76 984.31,-224 981.41,-213.84 975.48,-203.75 969.82,-195.7"/>
<polygon fill="midnightblue" stroke="midnightblue" points="972.53,-193.48 963.73,-187.59 966.94,-197.69 972.53,-193.48"/>
</g>
<!-- Node31&#45;&gt;Node25 -->
<g id="edge55" class="edge">
<title>Node31&#45;&gt;Node25</title>
<path fill="none" stroke="midnightblue" d="M683.56,-336.37C661.11,-315.49 609.85,-261.2 638.31,-224 650.93,-207.51 698.8,-195.66 739.92,-188.27"/>
<polygon fill="midnightblue" stroke="midnightblue" points="740.67,-191.69 749.93,-186.54 739.48,-184.8 740.67,-191.69"/>
</g>
<!-- Node31&#45;&gt;Node29 -->
<g id="edge59" class="edge">
<title>Node31&#45;&gt;Node29</title>
<path fill="none" stroke="midnightblue" d="M751.35,-343.57C845.88,-340.38 1028.2,-330.37 1084.31,-300 1104.21,-289.23 1119.73,-267.85 1128.93,-252.55"/>
<polygon fill="midnightblue" stroke="midnightblue" points="1132.15,-253.97 1134.04,-243.54 1126.06,-250.51 1132.15,-253.97"/>
</g>
<!-- Node32 -->
<g id="node32" class="node">
<title>Node32</title>
<g id="a_node32"><a xlink:href="image__view_8h.html" target="_top" xlink:title=" ">
<polygon fill="white" stroke="black" points="507.31,-224.5 507.31,-243.5 591.31,-243.5 591.31,-224.5 507.31,-224.5"/>
<text text-anchor="middle" x="549.31" y="-231.5" font-family="Helvetica,sans-Serif" font-size="10.00">../image_view.h</text>
</a>
</g>
</g>
<!-- Node31&#45;&gt;Node32 -->
<g id="edge43" class="edge">
<title>Node31&#45;&gt;Node32</title>
<path fill="none" stroke="midnightblue" d="M670.95,-336.42C652.28,-328.62 625.55,-315.91 605.31,-300 587.64,-286.11 571.34,-266 560.94,-251.84"/>
<polygon fill="midnightblue" stroke="midnightblue" points="563.65,-249.62 555,-243.51 557.96,-253.69 563.65,-249.62"/>
</g>
<!-- Node33 -->
<g id="node33" class="node">
<title>Node33</title>
<g id="a_node33"><a xlink:href="text_8h.html" target="_top" xlink:title=" ">
<polygon fill="white" stroke="black" points="671.81,-280.5 671.81,-299.5 756.81,-299.5 756.81,-280.5 671.81,-280.5"/>
<text text-anchor="middle" x="714.31" y="-287.5" font-family="Helvetica,sans-Serif" font-size="10.00">../shapes/text.h</text>
</a>
</g>
</g>
<!-- Node31&#45;&gt;Node33 -->
<g id="edge46" class="edge">
<title>Node31&#45;&gt;Node33</title>
<path fill="none" stroke="midnightblue" d="M696.78,-336.08C699.62,-328.77 703.74,-318.18 707.27,-309.1"/>
<polygon fill="midnightblue" stroke="midnightblue" points="710.55,-310.34 710.91,-299.75 704.02,-307.8 710.55,-310.34"/>
</g>
<!-- Node36 -->
<g id="node36" class="node">
<title>Node36</title>
<g id="a_node36"><a xlink:href="rectangle_8h.html" target="_top" xlink:title=" ">
<polygon fill="white" stroke="black" points="775.31,-280.5 775.31,-299.5 883.31,-299.5 883.31,-280.5 775.31,-280.5"/>
<text text-anchor="middle" x="829.31" y="-287.5" font-family="Helvetica,sans-Serif" font-size="10.00">../shapes/rectangle.h</text>
</a>
</g>
</g>
<!-- Node31&#45;&gt;Node36 -->
<g id="edge52" class="edge">
<title>Node31&#45;&gt;Node36</title>
<path fill="none" stroke="midnightblue" d="M714.86,-336.44C737.34,-327.52 772.8,-313.44 798.29,-303.32"/>
<polygon fill="midnightblue" stroke="midnightblue" points="799.86,-306.46 807.86,-299.52 797.28,-299.95 799.86,-306.46"/>
</g>
<!-- Node32&#45;&gt;Node15 -->
<g id="edge44" class="edge">
<title>Node32&#45;&gt;Node15</title>
<path fill="none" stroke="midnightblue" d="M552.78,-224.08C555.62,-216.77 559.74,-206.18 563.27,-197.1"/>
<polygon fill="midnightblue" stroke="midnightblue" points="566.55,-198.34 566.91,-187.75 560.02,-195.8 566.55,-198.34"/>
</g>
<!-- Node32&#45;&gt;Node28 -->
<g id="edge45" class="edge">
<title>Node32&#45;&gt;Node28</title>
<path fill="none" stroke="midnightblue" d="M562.97,-224.37C592.95,-205.41 664.78,-160 701.26,-136.94"/>
<polygon fill="midnightblue" stroke="midnightblue" points="703.14,-139.89 709.72,-131.59 699.4,-133.98 703.14,-139.89"/>
</g>
<!-- Node34 -->
<g id="node34" class="node">
<title>Node34</title>
<g id="a_node34"><a xlink:title=" ">
<polygon fill="white" stroke="#bfbfbf" points="647.31,-224.5 647.31,-243.5 787.31,-243.5 787.31,-224.5 647.31,-224.5"/>
<text text-anchor="middle" x="717.31" y="-231.5" font-family="Helvetica,sans-Serif" font-size="10.00">sml/graphics_wrapper/text.h</text>
</a>
</g>
</g>
<!-- Node33&#45;&gt;Node34 -->
<g id="edge47" class="edge">
<title>Node33&#45;&gt;Node34</title>
<path fill="none" stroke="midnightblue" d="M714.81,-280.08C715.2,-273.01 715.77,-262.86 716.26,-253.99"/>
<polygon fill="midnightblue" stroke="midnightblue" points="719.77,-253.93 716.83,-243.75 712.78,-253.54 719.77,-253.93"/>
</g>
<!-- Node35 -->
<g id="node35" class="node">
<title>Node35</title>
<g id="a_node35"><a xlink:href="shape_8h.html" target="_top" xlink:title=" ">
<polygon fill="white" stroke="black" points="805.81,-224.5 805.81,-243.5 856.81,-243.5 856.81,-224.5 805.81,-224.5"/>
<text text-anchor="middle" x="831.31" y="-231.5" font-family="Helvetica,sans-Serif" font-size="10.00">shape.h</text>
</a>
</g>
</g>
<!-- Node33&#45;&gt;Node35 -->
<g id="edge48" class="edge">
<title>Node33&#45;&gt;Node35</title>
<path fill="none" stroke="midnightblue" d="M732.85,-280.44C751.94,-271.64 781.89,-257.81 803.75,-247.72"/>
<polygon fill="midnightblue" stroke="midnightblue" points="805.25,-250.88 812.86,-243.52 802.31,-244.53 805.25,-250.88"/>
</g>
<!-- Node35&#45;&gt;Node15 -->
<g id="edge49" class="edge">
<title>Node35&#45;&gt;Node15</title>
<path fill="none" stroke="midnightblue" d="M805.74,-226.25C802.57,-225.47 799.37,-224.7 796.31,-224 734.48,-209.91 662.58,-196.01 616.78,-187.48"/>
<polygon fill="midnightblue" stroke="midnightblue" points="617.32,-184.02 606.85,-185.63 616.04,-190.9 617.32,-184.02"/>
</g>
<!-- Node35&#45;&gt;Node22 -->
<g id="edge51" class="edge">
<title>Node35&#45;&gt;Node22</title>
<path fill="none" stroke="midnightblue" d="M851.12,-224.44C871.6,-215.6 903.8,-201.69 927.18,-191.59"/>
<polygon fill="midnightblue" stroke="midnightblue" points="928.81,-194.7 936.6,-187.52 926.03,-188.27 928.81,-194.7"/>
</g>
<!-- Node35&#45;&gt;Node25 -->
<g id="edge50" class="edge">
<title>Node35&#45;&gt;Node25</title>
<path fill="none" stroke="midnightblue" d="M826.85,-224.08C823.16,-216.69 817.79,-205.95 813.22,-196.81"/>
<polygon fill="midnightblue" stroke="midnightblue" points="816.29,-195.13 808.69,-187.75 810.03,-198.26 816.29,-195.13"/>
</g>
<!-- Node36&#45;&gt;Node24 -->
<g id="edge53" class="edge">
<title>Node36&#45;&gt;Node24</title>
<path fill="none" stroke="midnightblue" d="M837.27,-280.47C845.2,-271.72 857.43,-257.53 866.31,-244 887.16,-212.27 885.16,-200.17 905.31,-168 924.91,-136.71 951.57,-102.93 967.55,-83.44"/>
<polygon fill="midnightblue" stroke="midnightblue" points="970.4,-85.49 974.08,-75.55 965,-81.03 970.4,-85.49"/>
</g>
<!-- Node36&#45;&gt;Node35 -->
<g id="edge54" class="edge">
<title>Node36&#45;&gt;Node35</title>
<path fill="none" stroke="midnightblue" d="M829.64,-280.08C829.91,-273.01 830.28,-262.86 830.61,-253.99"/>
<polygon fill="midnightblue" stroke="midnightblue" points="834.12,-253.87 830.99,-243.75 827.12,-253.61 834.12,-253.87"/>
</g>
<!-- Node37&#45;&gt;Node12 -->
<g id="edge66" class="edge">
<title>Node37&#45;&gt;Node12</title>
<path fill="none" stroke="midnightblue" d="M531.96,-448.44C552.28,-439.6 584.22,-425.69 607.41,-415.59"/>
<polygon fill="midnightblue" stroke="midnightblue" points="608.99,-418.72 616.76,-411.52 606.19,-412.3 608.99,-418.72"/>
</g>
<!-- Node38 -->
<g id="node38" class="node">
<title>Node38</title>
<g id="a_node38"><a xlink:href="box__container_8h.html" target="_top" xlink:title=" ">
<polygon fill="white" stroke="black" points="198.81,-336.5 198.81,-355.5 283.81,-355.5 283.81,-336.5 198.81,-336.5"/>
<text text-anchor="middle" x="241.31" y="-343.5" font-family="Helvetica,sans-Serif" font-size="10.00">box_container.h</text>
</a>
</g>
</g>
<!-- Node37&#45;&gt;Node38 -->
<g id="edge61" class="edge">
<title>Node37&#45;&gt;Node38</title>
<path fill="none" stroke="midnightblue" d="M491.05,-448.37C443.26,-428.97 327.22,-381.87 271.78,-359.37"/>
<polygon fill="midnightblue" stroke="midnightblue" points="273.06,-356.11 262.48,-355.59 270.43,-362.6 273.06,-356.11"/>
</g>
<!-- Node39 -->
<g id="node39" class="node">
<title>Node39</title>
<g id="a_node39"><a xlink:title=" ">
<polygon fill="white" stroke="#bfbfbf" points="105.81,-280.5 105.81,-299.5 188.81,-299.5 188.81,-280.5 105.81,-280.5"/>
<text text-anchor="middle" x="147.31" y="-287.5" font-family="Helvetica,sans-Serif" font-size="10.00">unordered_map</text>
</a>
</g>
</g>
<!-- Node38&#45;&gt;Node39 -->
<g id="edge62" class="edge">
<title>Node38&#45;&gt;Node39</title>
<path fill="none" stroke="midnightblue" d="M226.21,-336.32C211.41,-327.82 188.62,-314.73 171.33,-304.8"/>
<polygon fill="midnightblue" stroke="midnightblue" points="172.79,-301.6 162.38,-299.65 169.31,-307.67 172.79,-301.6"/>
</g>
<!-- Node40 -->
<g id="node40" class="node">
<title>Node40</title>
<g id="a_node40"><a xlink:href="container_8h.html" target="_top" xlink:title=" ">
<polygon fill="white" stroke="black" points="901.31,-280.5 901.31,-299.5 965.31,-299.5 965.31,-280.5 901.31,-280.5"/>
<text text-anchor="middle" x="933.31" y="-287.5" font-family="Helvetica,sans-Serif" font-size="10.00">container.h</text>
</a>
</g>
</g>
<!-- Node38&#45;&gt;Node40 -->
<g id="edge63" class="edge">
<title>Node38&#45;&gt;Node40</title>
<path fill="none" stroke="midnightblue" d="M284.2,-344.21C387.22,-341.86 656.89,-332.93 891.1,-299.96"/>
<polygon fill="midnightblue" stroke="midnightblue" points="891.76,-303.4 901.17,-298.53 890.77,-296.47 891.76,-303.4"/>
</g>
<!-- Node41 -->
<g id="node41" class="node">
<title>Node41</title>
<g id="a_node41"><a xlink:title=" ">
<polygon fill="white" stroke="#bfbfbf" points="207.31,-280.5 207.31,-299.5 281.31,-299.5 281.31,-280.5 207.31,-280.5"/>
<text text-anchor="middle" x="244.31" y="-287.5" font-family="Helvetica,sans-Serif" font-size="10.00">sys/syscall.h</text>
</a>
</g>
</g>
<!-- Node38&#45;&gt;Node41 -->
<g id="edge65" class="edge">
<title>Node38&#45;&gt;Node41</title>
<path fill="none" stroke="midnightblue" d="M241.81,-336.08C242.2,-329.01 242.77,-318.86 243.26,-309.99"/>
<polygon fill="midnightblue" stroke="midnightblue" points="246.77,-309.93 243.83,-299.75 239.78,-309.54 246.77,-309.93"/>
</g>
<!-- Node40&#45;&gt;Node14 -->
<g id="edge64" class="edge">
<title>Node40&#45;&gt;Node14</title>
<path fill="none" stroke="midnightblue" d="M935.13,-280.08C936.59,-272.93 938.68,-262.64 940.51,-253.69"/>
<polygon fill="midnightblue" stroke="midnightblue" points="943.96,-254.25 942.53,-243.75 937.1,-252.85 943.96,-254.25"/>
</g>
</g>
</svg>
        <g id="navigator" transform="translate(0 0)" fill="#404254">
                <rect fill="#f2f5e9" fill-opacity="0.5" stroke="#606060" stroke-width=".5" x="0" y="0" width="60" height="60"/>
                <use id="zoomplus" xlink:href="#zoomPlus" x="17" y="9" onmousedown="handleZoom(evt,'in')"/>
                <use id="zoomminus" xlink:href="#zoomMin" x="42" y="9" onmousedown="handleZoom(evt,'out')"/>
                <use id="reset" xlink:href="#resetDef" x="30" y="36" onmousedown="handleReset()"/>
                <g id="arrowUp" xlink:href="#dirArrow" transform="translate(30 24)" onmousedown="handlePan(0,-1)">
                  <use xlink:href="#rim" fill="#404040">
                        <set attributeName="fill" to="#808080" begin="arrowUp.mouseover" end="arrowUp.mouseout"/>
                  </use>
                  <path fill="none" stroke="white" stroke-width="1.5" d="M0,-3.0v7 M-2.5,-0.5L0,-3.0L2.5,-0.5"/>
                </g>
                <g id="arrowRight" xlink:href="#dirArrow" transform="rotate(90) translate(36 -43)" onmousedown="handlePan(1,0)">
                  <use xlink:href="#rim" fill="#404040">
                        <set attributeName="fill" to="#808080" begin="arrowRight.mouseover" end="arrowRight.mouseout"/>
                  </use>
                  <path fill="none" stroke="white" stroke-width="1.5" d="M0,-3.0v7 M-2.5,-0.5L0,-3.0L2.5,-0.5"/>
                </g>
                <g id="arrowDown" xlink:href="#dirArrow" transform="rotate(180) translate(-30 -48)" onmousedown="handlePan(0,1)">
                  <use xlink:href="#rim" fill="#404040">
                        <set attributeName="fill" to="#808080" begin="arrowDown.mouseover" end="arrowDown.mouseout"/>
                  </use>
                  <path fill="none" stroke="white" stroke-width="1.5" d="M0,-3.0v7 M-2.5,-0.5L0,-3.0L2.5,-0.5"/>
                </g>
                <g id="arrowLeft" xlink:href="#dirArrow" transform="rotate(270) translate(-36 17)" onmousedown="handlePan(-1,0)">
                  <use xlink:href="#rim" fill="#404040">
                        <set attributeName="fill" to="#808080" begin="arrowLeft.mouseover" end="arrowLeft.mouseout"/>
                  </use>
                  <path fill="none" stroke="white" stroke-width="1.5" d="M0,-3.0v7 M-2.5,-0.5L0,-3.0L2.5,-0.5"/>
                </g>
        </g>
        <svg viewBox="0 0 15 15" width="100%" height="30px" preserveAspectRatio="xMaxYMin meet">
         <g id="arrow_out" transform="scale(0.3 0.3)">
          <a xlink:href="scene_8cpp__incl_org.svg" target="_base">
           <rect id="button" ry="5" rx="5" y="6" x="6" height="38" width="38"
                fill="#f2f5e9" fill-opacity="0.5" stroke="#606060" stroke-width="1.0"/>
           <path id="arrow"
             d="M 11.500037,31.436501 C 11.940474,20.09759 22.043105,11.32322 32.158766,21.979434 L 37.068811,17.246167 C 37.068811,17.246167 37.088388,32 37.088388,32 L 22.160133,31.978069 C 22.160133,31.978069 26.997745,27.140456 26.997745,27.140456 C 18.528582,18.264221 13.291696,25.230495 11.500037,31.436501 z"
             style="fill:#404040;"/>
          </a>
         </g>
        </svg>
</svg>
