<?xml version="1.0" encoding="UTF-8" standalone="no"?>
<!DOCTYPE svg PUBLIC "-//W3C//DTD SVG 1.1//EN"
 "http://www.w3.org/Graphics/SVG/1.1/DTD/svg11.dtd">
<!-- Generated by graphviz version 2.50.0 (20211204.2007)
 -->
<!-- Title: scroll_bar.h Pages: 1 -->
<!--zoomable 397 -->
<svg id="main" version="1.1" xmlns="http://www.w3.org/2000/svg" xmlns:xlink="http://www.w3.org/1999/xlink" xml:space="preserve" onload="init(evt)">
<style type="text/css"><![CDATA[
.edge:hover path { stroke: red; }
.edge:hover polygon { stroke: red; fill: red; }
]]></style>
<script type="text/javascript"><![CDATA[
var edges = document.getElementsByTagName('g');
if (edges && edges.length) {
  for (var i=0;i<edges.length;i++) {
    if (edges[i].id.substr(0,4)=='edge') {
      edges[i].setAttribute('class','edge');
    }
  }
}
]]></script>
        <defs>
                <circle id="rim" cx="0" cy="0" r="7"/>
                <circle id="rim2" cx="0" cy="0" r="3.5"/>
                <g id="zoomPlus">
                        <use xlink:href="#rim" fill="#404040">
                                <set attributeName="fill" to="#808080" begin="zoomplus.mouseover" end="zoomplus.mouseout"/>
                        </use>
                        <path d="M-4,0h8M0,-4v8" fill="none" stroke="white" stroke-width="1.5" pointer-events="none"/>
                </g>
                <g id="zoomMin">
                        <use xlink:href="#rim" fill="#404040">
                                <set attributeName="fill" to="#808080" begin="zoomminus.mouseover" end="zoomminus.mouseout"/>
                        </use>
                        <path d="M-4,0h8" fill="none" stroke="white" stroke-width="1.5" pointer-events="none"/>
                </g>
                <g id="dirArrow">
                        <path fill="none" stroke="white" stroke-width="1.5" d="M0,-3.0v7 M-2.5,-0.5L0,-3.0L2.5,-0.5"/>
                </g>
               <g id="resetDef">
                       <use xlink:href="#rim2" fill="#404040">
                               <set attributeName="fill" to="#808080" begin="reset.mouseover" end="reset.mouseout"/>
                       </use>
               </g>
        </defs>

<script type="text/javascript">
var viewWidth = 1256;
var viewHeight = 397;
var sectionId = 'dynsection-0';
</script>
<script xlink:href="svgpan.js"/>
<svg id="graph" class="graph">
<g id="viewport">
<title>scroll_bar.h</title>
<polygon fill="white" stroke="transparent" points="-4,4 -4,-393 1251.5,-393 1251.5,4 -4,4"/>
<!-- Node1 -->
<g id="node1" class="node">
<title>Node1</title>
<g id="a_node1"><a xlink:title=" ">
<polygon fill="#bfbfbf" stroke="black" points="1020.5,-369.5 1020.5,-388.5 1086.5,-388.5 1086.5,-369.5 1020.5,-369.5"/>
<text text-anchor="middle" x="1053.5" y="-376.5" font-family="Helvetica,sans-Serif" font-size="10.00">scroll_bar.h</text>
</a>
</g>
</g>
<!-- Node2 -->
<g id="node2" class="node">
<title>Node2</title>
<g id="a_node2"><a xlink:href="control_8h.html" target="_top" xlink:title=" ">
<polygon fill="white" stroke="black" points="1026.5,-313.5 1026.5,-332.5 1080.5,-332.5 1080.5,-313.5 1026.5,-313.5"/>
<text text-anchor="middle" x="1053.5" y="-320.5" font-family="Helvetica,sans-Serif" font-size="10.00">control.h</text>
</a>
</g>
</g>
<!-- Node1&#45;&gt;Node2 -->
<g id="edge1" class="edge">
<title>Node1&#45;&gt;Node2</title>
<path fill="none" stroke="midnightblue" d="M1053.5,-369.08C1053.5,-362.01 1053.5,-351.86 1053.5,-342.99"/>
<polygon fill="midnightblue" stroke="midnightblue" points="1057,-342.75 1053.5,-332.75 1050,-342.75 1057,-342.75"/>
</g>
<!-- Node3 -->
<g id="node3" class="node">
<title>Node3</title>
<g id="a_node3"><a xlink:href="parent_8h.html" target="_top" xlink:title=" ">
<polygon fill="white" stroke="black" points="969,-257.5 969,-276.5 1030,-276.5 1030,-257.5 969,-257.5"/>
<text text-anchor="middle" x="999.5" y="-264.5" font-family="Helvetica,sans-Serif" font-size="10.00">../parent.h</text>
</a>
</g>
</g>
<!-- Node2&#45;&gt;Node3 -->
<g id="edge2" class="edge">
<title>Node2&#45;&gt;Node3</title>
<path fill="none" stroke="midnightblue" d="M1044.58,-313.08C1036.72,-305.22 1025.07,-293.57 1015.58,-284.08"/>
<polygon fill="midnightblue" stroke="midnightblue" points="1017.8,-281.35 1008.25,-276.75 1012.85,-286.3 1017.8,-281.35"/>
</g>
<!-- Node26 -->
<g id="node26" class="node">
<title>Node26</title>
<g id="a_node26"><a xlink:href="skin_8h.html" target="_top" xlink:title=" ">
<polygon fill="white" stroke="black" points="1069.5,-257.5 1069.5,-276.5 1145.5,-276.5 1145.5,-257.5 1069.5,-257.5"/>
<text text-anchor="middle" x="1107.5" y="-264.5" font-family="Helvetica,sans-Serif" font-size="10.00">../style/skin.h</text>
</a>
</g>
</g>
<!-- Node2&#45;&gt;Node26 -->
<g id="edge33" class="edge">
<title>Node2&#45;&gt;Node26</title>
<path fill="none" stroke="midnightblue" d="M1062.42,-313.08C1070.28,-305.22 1081.93,-293.57 1091.42,-284.08"/>
<polygon fill="midnightblue" stroke="midnightblue" points="1094.15,-286.3 1098.75,-276.75 1089.2,-281.35 1094.15,-286.3"/>
</g>
<!-- Node4 -->
<g id="node4" class="node">
<title>Node4</title>
<g id="a_node4"><a xlink:href="component_8h.html" target="_top" xlink:title=" ">
<polygon fill="white" stroke="black" points="470,-196 470,-215 543,-215 543,-196 470,-196"/>
<text text-anchor="middle" x="506.5" y="-203" font-family="Helvetica,sans-Serif" font-size="10.00">component.h</text>
</a>
</g>
</g>
<!-- Node3&#45;&gt;Node4 -->
<g id="edge3" class="edge">
<title>Node3&#45;&gt;Node4</title>
<path fill="none" stroke="midnightblue" d="M968.66,-262.28C884.98,-252.18 653.26,-224.21 553.34,-212.15"/>
<polygon fill="midnightblue" stroke="midnightblue" points="553.59,-208.66 543.24,-210.93 552.75,-215.61 553.59,-208.66"/>
</g>
<!-- Node17 -->
<g id="node17" class="node">
<title>Node17</title>
<g id="a_node17"><a xlink:href="insets_8h.html" target="_top" xlink:title=" ">
<polygon fill="white" stroke="black" points="1065.5,-129 1065.5,-148 1149.5,-148 1149.5,-129 1065.5,-129"/>
<text text-anchor="middle" x="1107.5" y="-136" font-family="Helvetica,sans-Serif" font-size="10.00">../paint/insets.h</text>
</a>
</g>
</g>
<!-- Node3&#45;&gt;Node17 -->
<g id="edge17" class="edge">
<title>Node3&#45;&gt;Node17</title>
<path fill="none" stroke="midnightblue" d="M1010.74,-257.38C1021.56,-248.79 1038.07,-234.91 1050.5,-221 1068.77,-200.55 1086.31,-174.1 1096.99,-156.97"/>
<polygon fill="midnightblue" stroke="midnightblue" points="1100.2,-158.43 1102.45,-148.08 1094.24,-154.78 1100.2,-158.43"/>
</g>
<!-- Node19 -->
<g id="node19" class="node">
<title>Node19</title>
<g id="a_node19"><a xlink:href="border_8h.html" target="_top" xlink:title=" ">
<polygon fill="white" stroke="black" points="957.5,-196 957.5,-215 1041.5,-215 1041.5,-196 957.5,-196"/>
<text text-anchor="middle" x="999.5" y="-203" font-family="Helvetica,sans-Serif" font-size="10.00">../paint/border.h</text>
</a>
</g>
</g>
<!-- Node3&#45;&gt;Node19 -->
<g id="edge19" class="edge">
<title>Node3&#45;&gt;Node19</title>
<path fill="none" stroke="midnightblue" d="M999.5,-257.48C999.5,-249.08 999.5,-235.98 999.5,-225.16"/>
<polygon fill="midnightblue" stroke="midnightblue" points="1003,-225.01 999.5,-215.01 996,-225.01 1003,-225.01"/>
</g>
<!-- Node22 -->
<g id="node22" class="node">
<title>Node22</title>
<g id="a_node22"><a xlink:href="background_8h.html" target="_top" xlink:title=" ">
<polygon fill="white" stroke="black" points="769.5,-196 769.5,-215 877.5,-215 877.5,-196 769.5,-196"/>
<text text-anchor="middle" x="823.5" y="-203" font-family="Helvetica,sans-Serif" font-size="10.00">../paint/background.h</text>
</a>
</g>
</g>
<!-- Node3&#45;&gt;Node22 -->
<g id="edge23" class="edge">
<title>Node3&#45;&gt;Node22</title>
<path fill="none" stroke="midnightblue" d="M974.28,-257.48C943.83,-247.18 892.45,-229.81 858.26,-218.25"/>
<polygon fill="midnightblue" stroke="midnightblue" points="859.26,-214.9 848.67,-215.01 857.02,-221.53 859.26,-214.9"/>
</g>
<!-- Node5 -->
<g id="node5" class="node">
<title>Node5</title>
<g id="a_node5"><a xlink:title=" ">
<polygon fill="white" stroke="#bfbfbf" points="502.5,-129 502.5,-148 642.5,-148 642.5,-129 502.5,-129"/>
<text text-anchor="middle" x="572.5" y="-136" font-family="Helvetica,sans-Serif" font-size="10.00">sml/sml_graphics_wrapper.h</text>
</a>
</g>
</g>
<!-- Node4&#45;&gt;Node5 -->
<g id="edge4" class="edge">
<title>Node4&#45;&gt;Node5</title>
<path fill="none" stroke="midnightblue" d="M515.4,-195.73C525.89,-185.4 543.52,-168.04 556.42,-155.33"/>
<polygon fill="midnightblue" stroke="midnightblue" points="559.07,-157.64 563.74,-148.13 554.16,-152.65 559.07,-157.64"/>
</g>
<!-- Node6 -->
<g id="node6" class="node">
<title>Node6</title>
<g id="a_node6"><a xlink:href="gui__event__dispatching_8h.html" target="_top" xlink:title=" ">
<polygon fill="white" stroke="black" points="269.5,-123.5 269.5,-153.5 369.5,-153.5 369.5,-123.5 269.5,-123.5"/>
<text text-anchor="start" x="277.5" y="-141.5" font-family="Helvetica,sans-Serif" font-size="10.00">../events/gui_event</text>
<text text-anchor="middle" x="319.5" y="-130.5" font-family="Helvetica,sans-Serif" font-size="10.00">_dispatching.h</text>
</a>
</g>
</g>
<!-- Node4&#45;&gt;Node6 -->
<g id="edge5" class="edge">
<title>Node4&#45;&gt;Node6</title>
<path fill="none" stroke="midnightblue" d="M481.67,-195.87C453.24,-185.99 405.95,-169.55 369.75,-156.97"/>
<polygon fill="midnightblue" stroke="midnightblue" points="370.45,-153.51 359.86,-153.53 368.15,-160.12 370.45,-153.51"/>
</g>
<!-- Node14 -->
<g id="node14" class="node">
<title>Node14</title>
<g id="a_node14"><a xlink:href="shadow_8h.html" target="_top" xlink:title=" ">
<polygon fill="white" stroke="black" points="394.5,-129 394.5,-148 484.5,-148 484.5,-129 394.5,-129"/>
<text text-anchor="middle" x="439.5" y="-136" font-family="Helvetica,sans-Serif" font-size="10.00">../paint/shadow.h</text>
</a>
</g>
</g>
<!-- Node4&#45;&gt;Node14 -->
<g id="edge14" class="edge">
<title>Node4&#45;&gt;Node14</title>
<path fill="none" stroke="midnightblue" d="M497.46,-195.73C486.82,-185.4 468.92,-168.04 455.82,-155.33"/>
<polygon fill="midnightblue" stroke="midnightblue" points="458.01,-152.58 448.39,-148.13 453.13,-157.6 458.01,-152.58"/>
</g>
<!-- Node7 -->
<g id="node7" class="node">
<title>Node7</title>
<g id="a_node7"><a xlink:title=" ">
<polygon fill="white" stroke="#bfbfbf" points="625.5,-62 625.5,-81 669.5,-81 669.5,-62 625.5,-62"/>
<text text-anchor="middle" x="647.5" y="-69" font-family="Helvetica,sans-Serif" font-size="10.00">vector</text>
</a>
</g>
</g>
<!-- Node6&#45;&gt;Node7 -->
<g id="edge6" class="edge">
<title>Node6&#45;&gt;Node7</title>
<path fill="none" stroke="midnightblue" d="M369.52,-126.17C374.91,-125.05 380.31,-123.97 385.5,-123 487.62,-103.84 517.11,-117.31 616.5,-87 618.38,-86.43 620.28,-85.76 622.18,-85.04"/>
<polygon fill="midnightblue" stroke="midnightblue" points="623.62,-88.23 631.43,-81.07 620.86,-81.79 623.62,-88.23"/>
</g>
<!-- Node8 -->
<g id="node8" class="node">
<title>Node8</title>
<g id="a_node8"><a xlink:title=" ">
<polygon fill="white" stroke="#bfbfbf" points="234,-62 234,-81 389,-81 389,-62 234,-62"/>
<text text-anchor="middle" x="311.5" y="-69" font-family="Helvetica,sans-Serif" font-size="10.00">sml/events/event_dispatching.h</text>
</a>
</g>
</g>
<!-- Node6&#45;&gt;Node8 -->
<g id="edge7" class="edge">
<title>Node6&#45;&gt;Node8</title>
<path fill="none" stroke="midnightblue" d="M317.76,-123.4C316.6,-113.96 315.06,-101.45 313.8,-91.19"/>
<polygon fill="midnightblue" stroke="midnightblue" points="317.27,-90.69 312.57,-81.19 310.32,-91.55 317.27,-90.69"/>
</g>
<!-- Node9 -->
<g id="node9" class="node">
<title>Node9</title>
<g id="a_node9"><a xlink:title=" ">
<polygon fill="white" stroke="#bfbfbf" points="407,-56.5 407,-86.5 506,-86.5 506,-56.5 407,-56.5"/>
<text text-anchor="start" x="415" y="-74.5" font-family="Helvetica,sans-Serif" font-size="10.00">sml/events/listener</text>
<text text-anchor="middle" x="456.5" y="-63.5" font-family="Helvetica,sans-Serif" font-size="10.00">_notifier.h</text>
</a>
</g>
</g>
<!-- Node6&#45;&gt;Node9 -->
<g id="edge8" class="edge">
<title>Node6&#45;&gt;Node9</title>
<path fill="none" stroke="midnightblue" d="M349.23,-123.4C369.24,-113.9 395.85,-101.28 417.55,-90.98"/>
<polygon fill="midnightblue" stroke="midnightblue" points="419.3,-94.03 426.83,-86.58 416.3,-87.7 419.3,-94.03"/>
</g>
<!-- Node10 -->
<g id="node10" class="node">
<title>Node10</title>
<g id="a_node10"><a xlink:title=" ">
<polygon fill="white" stroke="#bfbfbf" points="0,-0.5 0,-19.5 143,-19.5 143,-0.5 0,-0.5"/>
<text text-anchor="middle" x="71.5" y="-7.5" font-family="Helvetica,sans-Serif" font-size="10.00">sml/events/system_events.h</text>
</a>
</g>
</g>
<!-- Node6&#45;&gt;Node10 -->
<g id="edge9" class="edge">
<title>Node6&#45;&gt;Node10</title>
<path fill="none" stroke="midnightblue" d="M269.46,-131.22C231.52,-124.69 179.31,-111.8 139.5,-87 115.16,-71.83 94.39,-45.43 82.43,-28.08"/>
<polygon fill="midnightblue" stroke="midnightblue" points="85.17,-25.89 76.72,-19.5 79.34,-29.77 85.17,-25.89"/>
</g>
<!-- Node11 -->
<g id="node11" class="node">
<title>Node11</title>
<g id="a_node11"><a xlink:href="gui__event_8h.html" target="_top" xlink:title=" ">
<polygon fill="white" stroke="black" points="149,-62 149,-81 216,-81 216,-62 149,-62"/>
<text text-anchor="middle" x="182.5" y="-69" font-family="Helvetica,sans-Serif" font-size="10.00">gui_event.h</text>
</a>
</g>
</g>
<!-- Node6&#45;&gt;Node11 -->
<g id="edge10" class="edge">
<title>Node6&#45;&gt;Node11</title>
<path fill="none" stroke="midnightblue" d="M289.77,-123.4C265.95,-112.09 232.79,-96.36 209.67,-85.39"/>
<polygon fill="midnightblue" stroke="midnightblue" points="210.97,-82.13 200.43,-81.01 207.96,-88.46 210.97,-82.13"/>
</g>
<!-- Node11&#45;&gt;Node10 -->
<g id="edge12" class="edge">
<title>Node11&#45;&gt;Node10</title>
<path fill="none" stroke="midnightblue" d="M166.6,-61.98C148.22,-52.12 117.74,-35.79 96.26,-24.27"/>
<polygon fill="midnightblue" stroke="midnightblue" points="97.84,-21.15 87.37,-19.51 94.53,-27.32 97.84,-21.15"/>
</g>
<!-- Node12 -->
<g id="node12" class="node">
<title>Node12</title>
<g id="a_node12"><a xlink:title=" ">
<polygon fill="white" stroke="#bfbfbf" points="256.5,-0.5 256.5,-19.5 356.5,-19.5 356.5,-0.5 256.5,-0.5"/>
<text text-anchor="middle" x="306.5" y="-7.5" font-family="Helvetica,sans-Serif" font-size="10.00">sml/events/event.h</text>
</a>
</g>
</g>
<!-- Node11&#45;&gt;Node12 -->
<g id="edge11" class="edge">
<title>Node11&#45;&gt;Node12</title>
<path fill="none" stroke="midnightblue" d="M200.27,-61.98C220.98,-52.03 255.45,-35.49 279.49,-23.96"/>
<polygon fill="midnightblue" stroke="midnightblue" points="281.27,-26.99 288.77,-19.51 278.24,-20.68 281.27,-26.99"/>
</g>
<!-- Node13 -->
<g id="node13" class="node">
<title>Node13</title>
<g id="a_node13"><a xlink:title=" ">
<polygon fill="white" stroke="#bfbfbf" points="161,-0.5 161,-19.5 238,-19.5 238,-0.5 161,-0.5"/>
<text text-anchor="middle" x="199.5" y="-7.5" font-family="Helvetica,sans-Serif" font-size="10.00">sml/sml_log.h</text>
</a>
</g>
</g>
<!-- Node11&#45;&gt;Node13 -->
<g id="edge13" class="edge">
<title>Node11&#45;&gt;Node13</title>
<path fill="none" stroke="midnightblue" d="M184.94,-61.98C187.36,-53.49 191.16,-40.2 194.27,-29.32"/>
<polygon fill="midnightblue" stroke="midnightblue" points="197.69,-30.09 197.07,-19.51 190.96,-28.16 197.69,-30.09"/>
</g>
<!-- Node15 -->
<g id="node15" class="node">
<title>Node15</title>
<g id="a_node15"><a xlink:title=" ">
<polygon fill="white" stroke="#bfbfbf" points="524,-62 524,-81 607,-81 607,-62 524,-62"/>
<text text-anchor="middle" x="565.5" y="-69" font-family="Helvetica,sans-Serif" font-size="10.00">sml/math/blur.h</text>
</a>
</g>
</g>
<!-- Node14&#45;&gt;Node15 -->
<g id="edge15" class="edge">
<title>Node14&#45;&gt;Node15</title>
<path fill="none" stroke="midnightblue" d="M456.23,-128.87C477.6,-117.84 514.8,-98.66 539.78,-85.77"/>
<polygon fill="midnightblue" stroke="midnightblue" points="541.42,-88.86 548.7,-81.17 538.21,-82.64 541.42,-88.86"/>
</g>
<!-- Node16 -->
<g id="node16" class="node">
<title>Node16</title>
<g id="a_node16"><a xlink:title=" ">
<polygon fill="white" stroke="#bfbfbf" points="687.5,-56.5 687.5,-86.5 799.5,-86.5 799.5,-56.5 687.5,-56.5"/>
<text text-anchor="start" x="695.5" y="-74.5" font-family="Helvetica,sans-Serif" font-size="10.00">sml/graphics_wrapper</text>
<text text-anchor="middle" x="743.5" y="-63.5" font-family="Helvetica,sans-Serif" font-size="10.00">/texture.h</text>
</a>
</g>
</g>
<!-- Node14&#45;&gt;Node16 -->
<g id="edge16" class="edge">
<title>Node14&#45;&gt;Node16</title>
<path fill="none" stroke="midnightblue" d="M469.68,-129C477.42,-126.93 485.74,-124.79 493.5,-123 572.08,-104.83 594.83,-104.15 677.34,-87.2"/>
<polygon fill="midnightblue" stroke="midnightblue" points="678.07,-90.63 687.15,-85.17 676.65,-83.77 678.07,-90.63"/>
</g>
<!-- Node18 -->
<g id="node18" class="node">
<title>Node18</title>
<g id="a_node18"><a xlink:title=" ">
<polygon fill="white" stroke="#bfbfbf" points="1083,-62 1083,-81 1132,-81 1132,-62 1083,-62"/>
<text text-anchor="middle" x="1107.5" y="-69" font-family="Helvetica,sans-Serif" font-size="10.00">stdint.h</text>
</a>
</g>
</g>
<!-- Node17&#45;&gt;Node18 -->
<g id="edge18" class="edge">
<title>Node17&#45;&gt;Node18</title>
<path fill="none" stroke="midnightblue" d="M1107.5,-128.73C1107.5,-119.18 1107.5,-103.62 1107.5,-91.28"/>
<polygon fill="midnightblue" stroke="midnightblue" points="1111,-91.13 1107.5,-81.13 1104,-91.13 1111,-91.13"/>
</g>
<!-- Node19&#45;&gt;Node17 -->
<g id="edge22" class="edge">
<title>Node19&#45;&gt;Node17</title>
<path fill="none" stroke="midnightblue" d="M1014.07,-195.73C1032.12,-184.87 1063.11,-166.22 1084.42,-153.39"/>
<polygon fill="midnightblue" stroke="midnightblue" points="1086.4,-156.28 1093.17,-148.13 1082.79,-150.29 1086.4,-156.28"/>
</g>
<!-- Node20 -->
<g id="node20" class="node">
<title>Node20</title>
<g id="a_node20"><a xlink:title=" ">
<polygon fill="white" stroke="#bfbfbf" points="897.5,-123.5 897.5,-153.5 1009.5,-153.5 1009.5,-123.5 897.5,-123.5"/>
<text text-anchor="start" x="905.5" y="-141.5" font-family="Helvetica,sans-Serif" font-size="10.00">sml/graphics_wrapper</text>
<text text-anchor="middle" x="953.5" y="-130.5" font-family="Helvetica,sans-Serif" font-size="10.00">/color.h</text>
</a>
</g>
</g>
<!-- Node19&#45;&gt;Node20 -->
<g id="edge20" class="edge">
<title>Node19&#45;&gt;Node20</title>
<path fill="none" stroke="midnightblue" d="M993.3,-195.73C987.2,-187.12 977.64,-173.61 969.42,-161.99"/>
<polygon fill="midnightblue" stroke="midnightblue" points="972.1,-159.73 963.47,-153.59 966.39,-163.77 972.1,-159.73"/>
</g>
<!-- Node21 -->
<g id="node21" class="node">
<title>Node21</title>
<g id="a_node21"><a xlink:title=" ">
<polygon fill="white" stroke="#bfbfbf" points="925.5,-62 925.5,-81 1033.5,-81 1033.5,-62 925.5,-62"/>
<text text-anchor="middle" x="979.5" y="-69" font-family="Helvetica,sans-Serif" font-size="10.00">sml/math/rectangle.h</text>
</a>
</g>
</g>
<!-- Node19&#45;&gt;Node21 -->
<g id="edge21" class="edge">
<title>Node19&#45;&gt;Node21</title>
<path fill="none" stroke="midnightblue" d="M1004.68,-195.78C1012.94,-180.69 1027.32,-148.85 1018.5,-123 1014.02,-109.86 1004.58,-97.49 996.11,-88.28"/>
<polygon fill="midnightblue" stroke="midnightblue" points="998.56,-85.77 989.07,-81.06 993.55,-90.66 998.56,-85.77"/>
</g>
<!-- Node22&#45;&gt;Node7 -->
<g id="edge24" class="edge">
<title>Node22&#45;&gt;Node7</title>
<path fill="none" stroke="midnightblue" d="M778.56,-195.96C750.57,-188.73 715.29,-175.92 690.5,-154 671.27,-136.99 659.25,-109.27 652.96,-90.96"/>
<polygon fill="midnightblue" stroke="midnightblue" points="656.29,-89.88 649.9,-81.42 649.62,-92.01 656.29,-89.88"/>
</g>
<!-- Node22&#45;&gt;Node21 -->
<g id="edge25" class="edge">
<title>Node22&#45;&gt;Node21</title>
<path fill="none" stroke="midnightblue" d="M828.68,-195.97C838.67,-180.06 861.97,-145.44 888.5,-123 906.94,-107.4 930.94,-94.32 949.66,-85.38"/>
<polygon fill="midnightblue" stroke="midnightblue" points="951.31,-88.48 958.92,-81.1 948.37,-82.13 951.31,-88.48"/>
</g>
<!-- Node23 -->
<g id="node23" class="node">
<title>Node23</title>
<g id="a_node23"><a xlink:href="fill_8h.html" target="_top" xlink:title=" ">
<polygon fill="white" stroke="black" points="806,-129 806,-148 841,-148 841,-129 806,-129"/>
<text text-anchor="middle" x="823.5" y="-136" font-family="Helvetica,sans-Serif" font-size="10.00">fill.h</text>
</a>
</g>
</g>
<!-- Node22&#45;&gt;Node23 -->
<g id="edge26" class="edge">
<title>Node22&#45;&gt;Node23</title>
<path fill="none" stroke="midnightblue" d="M823.5,-195.73C823.5,-186.18 823.5,-170.62 823.5,-158.28"/>
<polygon fill="midnightblue" stroke="midnightblue" points="827,-158.13 823.5,-148.13 820,-158.13 827,-158.13"/>
</g>
<!-- Node25 -->
<g id="node25" class="node">
<title>Node25</title>
<g id="a_node25"><a xlink:href="image_8h.html" target="_top" xlink:title=" ">
<polygon fill="white" stroke="black" points="699,-129 699,-148 788,-148 788,-129 699,-129"/>
<text text-anchor="middle" x="743.5" y="-136" font-family="Helvetica,sans-Serif" font-size="10.00">../media/image.h</text>
</a>
</g>
</g>
<!-- Node22&#45;&gt;Node25 -->
<g id="edge31" class="edge">
<title>Node22&#45;&gt;Node25</title>
<path fill="none" stroke="midnightblue" d="M812.71,-195.73C799.76,-185.21 777.81,-167.38 762.11,-154.62"/>
<polygon fill="midnightblue" stroke="midnightblue" points="764.09,-151.72 754.12,-148.13 759.67,-157.15 764.09,-151.72"/>
</g>
<!-- Node23&#45;&gt;Node7 -->
<g id="edge27" class="edge">
<title>Node23&#45;&gt;Node7</title>
<path fill="none" stroke="midnightblue" d="M809.47,-128.96C805.67,-126.84 801.5,-124.7 797.5,-123 746.63,-101.42 730.1,-106.76 678.5,-87 677.08,-86.46 675.63,-85.87 674.18,-85.27"/>
<polygon fill="midnightblue" stroke="midnightblue" points="675.25,-81.92 664.69,-81.08 672.42,-88.32 675.25,-81.92"/>
</g>
<!-- Node23&#45;&gt;Node16 -->
<g id="edge30" class="edge">
<title>Node23&#45;&gt;Node16</title>
<path fill="none" stroke="midnightblue" d="M812.71,-128.73C801.48,-119.61 783.5,-105 768.69,-92.96"/>
<polygon fill="midnightblue" stroke="midnightblue" points="770.81,-90.18 760.84,-86.59 766.39,-95.61 770.81,-90.18"/>
</g>
<!-- Node23&#45;&gt;Node21 -->
<g id="edge29" class="edge">
<title>Node23&#45;&gt;Node21</title>
<path fill="none" stroke="midnightblue" d="M841.05,-129.4C845.73,-127.28 850.79,-125.02 855.5,-123 886.98,-109.46 923.33,-94.77 948.5,-84.74"/>
<polygon fill="midnightblue" stroke="midnightblue" points="949.89,-87.95 957.89,-81.01 947.3,-81.45 949.89,-87.95"/>
</g>
<!-- Node24 -->
<g id="node24" class="node">
<title>Node24</title>
<g id="a_node24"><a xlink:title=" ">
<polygon fill="white" stroke="#bfbfbf" points="818,-62 818,-81 907,-81 907,-62 818,-62"/>
<text text-anchor="middle" x="862.5" y="-69" font-family="Helvetica,sans-Serif" font-size="10.00">sml/math/vec2.h</text>
</a>
</g>
</g>
<!-- Node23&#45;&gt;Node24 -->
<g id="edge28" class="edge">
<title>Node23&#45;&gt;Node24</title>
<path fill="none" stroke="midnightblue" d="M828.76,-128.73C834.72,-118.79 844.6,-102.34 852.13,-89.79"/>
<polygon fill="midnightblue" stroke="midnightblue" points="855.18,-91.5 857.32,-81.13 849.18,-87.9 855.18,-91.5"/>
</g>
<!-- Node25&#45;&gt;Node16 -->
<g id="edge32" class="edge">
<title>Node25&#45;&gt;Node16</title>
<path fill="none" stroke="midnightblue" d="M743.5,-128.73C743.5,-120.54 743.5,-107.92 743.5,-96.71"/>
<polygon fill="midnightblue" stroke="midnightblue" points="747,-96.59 743.5,-86.59 740,-96.59 747,-96.59"/>
</g>
<!-- Node26&#45;&gt;Node17 -->
<g id="edge35" class="edge">
<title>Node26&#45;&gt;Node17</title>
<path fill="none" stroke="midnightblue" d="M1107.5,-257.31C1107.5,-236.99 1107.5,-186.05 1107.5,-158.28"/>
<polygon fill="midnightblue" stroke="midnightblue" points="1111,-158.26 1107.5,-148.26 1104,-158.26 1111,-158.26"/>
</g>
<!-- Node27 -->
<g id="node27" class="node">
<title>Node27</title>
<g id="a_node27"><a xlink:title=" ">
<polygon fill="white" stroke="#bfbfbf" points="1135.5,-190.5 1135.5,-220.5 1247.5,-220.5 1247.5,-190.5 1135.5,-190.5"/>
<text text-anchor="start" x="1143.5" y="-208.5" font-family="Helvetica,sans-Serif" font-size="10.00">sml/graphics_wrapper</text>
<text text-anchor="middle" x="1191.5" y="-197.5" font-family="Helvetica,sans-Serif" font-size="10.00">/renderer.h</text>
</a>
</g>
</g>
<!-- Node26&#45;&gt;Node27 -->
<g id="edge34" class="edge">
<title>Node26&#45;&gt;Node27</title>
<path fill="none" stroke="midnightblue" d="M1119.54,-257.48C1130.91,-249.42 1148.41,-237.02 1163.3,-226.47"/>
<polygon fill="midnightblue" stroke="midnightblue" points="1165.57,-229.16 1171.7,-220.52 1161.52,-223.45 1165.57,-229.16"/>
</g>
</g>
</svg>
        <g id="navigator" transform="translate(0 0)" fill="#404254">
                <rect fill="#f2f5e9" fill-opacity="0.5" stroke="#606060" stroke-width=".5" x="0" y="0" width="60" height="60"/>
                <use id="zoomplus" xlink:href="#zoomPlus" x="17" y="9" onmousedown="handleZoom(evt,'in')"/>
                <use id="zoomminus" xlink:href="#zoomMin" x="42" y="9" onmousedown="handleZoom(evt,'out')"/>
                <use id="reset" xlink:href="#resetDef" x="30" y="36" onmousedown="handleReset()"/>
                <g id="arrowUp" xlink:href="#dirArrow" transform="translate(30 24)" onmousedown="handlePan(0,-1)">
                  <use xlink:href="#rim" fill="#404040">
                        <set attributeName="fill" to="#808080" begin="arrowUp.mouseover" end="arrowUp.mouseout"/>
                  </use>
                  <path fill="none" stroke="white" stroke-width="1.5" d="M0,-3.0v7 M-2.5,-0.5L0,-3.0L2.5,-0.5"/>
                </g>
                <g id="arrowRight" xlink:href="#dirArrow" transform="rotate(90) translate(36 -43)" onmousedown="handlePan(1,0)">
                  <use xlink:href="#rim" fill="#404040">
                        <set attributeName="fill" to="#808080" begin="arrowRight.mouseover" end="arrowRight.mouseout"/>
                  </use>
                  <path fill="none" stroke="white" stroke-width="1.5" d="M0,-3.0v7 M-2.5,-0.5L0,-3.0L2.5,-0.5"/>
                </g>
                <g id="arrowDown" xlink:href="#dirArrow" transform="rotate(180) translate(-30 -48)" onmousedown="handlePan(0,1)">
                  <use xlink:href="#rim" fill="#404040">
                        <set attributeName="fill" to="#808080" begin="arrowDown.mouseover" end="arrowDown.mouseout"/>
                  </use>
                  <path fill="none" stroke="white" stroke-width="1.5" d="M0,-3.0v7 M-2.5,-0.5L0,-3.0L2.5,-0.5"/>
                </g>
                <g id="arrowLeft" xlink:href="#dirArrow" transform="rotate(270) translate(-36 17)" onmousedown="handlePan(-1,0)">
                  <use xlink:href="#rim" fill="#404040">
                        <set attributeName="fill" to="#808080" begin="arrowLeft.mouseover" end="arrowLeft.mouseout"/>
                  </use>
                  <path fill="none" stroke="white" stroke-width="1.5" d="M0,-3.0v7 M-2.5,-0.5L0,-3.0L2.5,-0.5"/>
                </g>
        </g>
        <svg viewBox="0 0 15 15" width="100%" height="30px" preserveAspectRatio="xMaxYMin meet">
         <g id="arrow_out" transform="scale(0.3 0.3)">
          <a xlink:href="scroll__bar_8h__incl_org.svg" target="_base">
           <rect id="button" ry="5" rx="5" y="6" x="6" height="38" width="38"
                fill="#f2f5e9" fill-opacity="0.5" stroke="#606060" stroke-width="1.0"/>
           <path id="arrow"
             d="M 11.500037,31.436501 C 11.940474,20.09759 22.043105,11.32322 32.158766,21.979434 L 37.068811,17.246167 C 37.068811,17.246167 37.088388,32 37.088388,32 L 22.160133,31.978069 C 22.160133,31.978069 26.997745,27.140456 26.997745,27.140456 C 18.528582,18.264221 13.291696,25.230495 11.500037,31.436501 z"
             style="fill:#404040;"/>
          </a>
         </g>
        </svg>
</svg>
