<?xml version="1.0" encoding="UTF-8" standalone="no"?>
<!DOCTYPE svg PUBLIC "-//W3C//DTD SVG 1.1//EN"
 "http://www.w3.org/Graphics/SVG/1.1/DTD/svg11.dtd">
<!-- Generated by graphviz version 2.50.0 (20211204.2007)
 -->
<!-- Title: scroll_pane.h Pages: 1 -->
<svg width="281pt" height="84pt"
 viewBox="0.00 0.00 281.00 84.00" xmlns="http://www.w3.org/2000/svg" xmlns:xlink="http://www.w3.org/1999/xlink">
<g id="graph0" class="graph" transform="scale(1 1) rotate(0) translate(4 80)">
<title>scroll_pane.h</title>
<polygon fill="white" stroke="transparent" points="-4,4 -4,-80 277,-80 277,4 -4,4"/>
<!-- Node1 -->
<g id="node1" class="node">
<title>Node1</title>
<g id="a_node1"><a xlink:title=" ">
<polygon fill="#bfbfbf" stroke="black" points="86.5,-56.5 86.5,-75.5 160.5,-75.5 160.5,-56.5 86.5,-56.5"/>
<text text-anchor="middle" x="123.5" y="-63.5" font-family="Helvetica,sans-Serif" font-size="10.00">scroll_pane.h</text>
</a>
</g>
</g>
<!-- Node2 -->
<g id="node2" class="node">
<title>Node2</title>
<g id="a_node2"><a xlink:href="controls_8h.html" target="_top" xlink:title=" ">
<polygon fill="white" stroke="black" points="0,-0.5 0,-19.5 59,-19.5 59,-0.5 0,-0.5"/>
<text text-anchor="middle" x="29.5" y="-7.5" font-family="Helvetica,sans-Serif" font-size="10.00">controls.h</text>
</a>
</g>
</g>
<!-- Node1&#45;&gt;Node2 -->
<g id="edge1" class="edge">
<title>Node1&#45;&gt;Node2</title>
<path fill="none" stroke="midnightblue" d="M99.44,-51.18C82.14,-41.24 59.35,-28.15 44.57,-19.65"/>
<polygon fill="midnightblue" stroke="midnightblue" points="97.98,-54.38 108.4,-56.32 101.47,-48.31 97.98,-54.38"/>
</g>
<!-- Node3 -->
<g id="node3" class="node">
<title>Node3</title>
<g id="a_node3"><a xlink:href="default__skins_8cpp.html" target="_top" xlink:title=" ">
<polygon fill="white" stroke="black" points="77,-0.5 77,-19.5 170,-19.5 170,-0.5 77,-0.5"/>
<text text-anchor="middle" x="123.5" y="-7.5" font-family="Helvetica,sans-Serif" font-size="10.00">default_skins.cpp</text>
</a>
</g>
</g>
<!-- Node1&#45;&gt;Node3 -->
<g id="edge2" class="edge">
<title>Node1&#45;&gt;Node3</title>
<path fill="none" stroke="midnightblue" d="M123.5,-45.8C123.5,-36.91 123.5,-26.78 123.5,-19.75"/>
<polygon fill="midnightblue" stroke="midnightblue" points="120,-46.08 123.5,-56.08 127,-46.08 120,-46.08"/>
</g>
<!-- Node4 -->
<g id="node4" class="node">
<title>Node4</title>
<g id="a_node4"><a xlink:href="scroll__pane_8cpp.html" target="_top" xlink:title=" ">
<polygon fill="white" stroke="black" points="188,-0.5 188,-19.5 273,-19.5 273,-0.5 188,-0.5"/>
<text text-anchor="middle" x="230.5" y="-7.5" font-family="Helvetica,sans-Serif" font-size="10.00">scroll_pane.cpp</text>
</a>
</g>
</g>
<!-- Node1&#45;&gt;Node4 -->
<g id="edge3" class="edge">
<title>Node1&#45;&gt;Node4</title>
<path fill="none" stroke="midnightblue" d="M149.8,-51.73C169.61,-41.73 196.21,-28.31 213.35,-19.65"/>
<polygon fill="midnightblue" stroke="midnightblue" points="148.04,-48.69 140.69,-56.32 151.2,-54.94 148.04,-48.69"/>
</g>
</g>
</svg>
