<?xml version="1.0" encoding="UTF-8" standalone="no"?>
<!DOCTYPE svg PUBLIC "-//W3C//DTD SVG 1.1//EN"
 "http://www.w3.org/Graphics/SVG/1.1/DTD/svg11.dtd">
<!-- Generated by graphviz version 2.50.0 (20211204.2007)
 -->
<!-- Title: shadow.h Pages: 1 -->
<svg width="1547pt" height="476pt"
 viewBox="0.00 0.00 1546.50 476.00" xmlns="http://www.w3.org/2000/svg" xmlns:xlink="http://www.w3.org/1999/xlink">
<g id="graph0" class="graph" transform="scale(1 1) rotate(0) translate(4 472)">
<title>shadow.h</title>
<polygon fill="white" stroke="transparent" points="-4,4 -4,-472 1542.5,-472 1542.5,4 -4,4"/>
<!-- Node1 -->
<g id="node1" class="node">
<title>Node1</title>
<g id="a_node1"><a xlink:title=" ">
<polygon fill="#bfbfbf" stroke="black" points="1126.5,-448.5 1126.5,-467.5 1183.5,-467.5 1183.5,-448.5 1126.5,-448.5"/>
<text text-anchor="middle" x="1155" y="-455.5" font-family="Helvetica,sans-Serif" font-size="10.00">shadow.h</text>
</a>
</g>
</g>
<!-- Node2 -->
<g id="node2" class="node">
<title>Node2</title>
<g id="a_node2"><a xlink:href="component_8h.html" target="_top" xlink:title=" ">
<polygon fill="white" stroke="black" points="1005.5,-392.5 1005.5,-411.5 1078.5,-411.5 1078.5,-392.5 1005.5,-392.5"/>
<text text-anchor="middle" x="1042" y="-399.5" font-family="Helvetica,sans-Serif" font-size="10.00">component.h</text>
</a>
</g>
</g>
<!-- Node1&#45;&gt;Node2 -->
<g id="edge1" class="edge">
<title>Node1&#45;&gt;Node2</title>
<path fill="none" stroke="midnightblue" d="M1128,-444.1C1106.89,-434.01 1078.14,-420.27 1059.82,-411.52"/>
<polygon fill="midnightblue" stroke="midnightblue" points="1126.56,-447.29 1137.09,-448.44 1129.58,-440.97 1126.56,-447.29"/>
</g>
<!-- Node5 -->
<g id="node5" class="node">
<title>Node5</title>
<g id="a_node5"><a xlink:href="default__skins_8h.html" target="_top" xlink:title=" ">
<polygon fill="white" stroke="black" points="1125.5,-224.5 1125.5,-243.5 1208.5,-243.5 1208.5,-224.5 1125.5,-224.5"/>
<text text-anchor="middle" x="1167" y="-231.5" font-family="Helvetica,sans-Serif" font-size="10.00">default_skins.h</text>
</a>
</g>
</g>
<!-- Node1&#45;&gt;Node5 -->
<g id="edge64" class="edge">
<title>Node1&#45;&gt;Node5</title>
<path fill="none" stroke="midnightblue" d="M1156.01,-438.3C1158.48,-392.64 1164.74,-276.85 1166.52,-243.88"/>
<polygon fill="midnightblue" stroke="midnightblue" points="1152.52,-438.12 1155.47,-448.3 1159.51,-438.5 1152.52,-438.12"/>
</g>
<!-- Node47 -->
<g id="node47" class="node">
<title>Node47</title>
<g id="a_node47"><a xlink:href="shadow_8cpp.html" target="_top" xlink:title=" ">
<polygon fill="white" stroke="black" points="1183,-392.5 1183,-411.5 1251,-411.5 1251,-392.5 1183,-392.5"/>
<text text-anchor="middle" x="1217" y="-399.5" font-family="Helvetica,sans-Serif" font-size="10.00">shadow.cpp</text>
</a>
</g>
</g>
<!-- Node1&#45;&gt;Node47 -->
<g id="edge65" class="edge">
<title>Node1&#45;&gt;Node47</title>
<path fill="none" stroke="midnightblue" d="M1172.75,-441.54C1183.81,-431.91 1197.63,-419.87 1206.86,-411.83"/>
<polygon fill="midnightblue" stroke="midnightblue" points="1170.2,-439.12 1164.96,-448.32 1174.8,-444.4 1170.2,-439.12"/>
</g>
<!-- Node3 -->
<g id="node3" class="node">
<title>Node3</title>
<g id="a_node3"><a xlink:href="gui__event__dispatching_8cpp.html" target="_top" xlink:title=" ">
<polygon fill="white" stroke="black" points="772,-336.5 772,-355.5 904,-355.5 904,-336.5 772,-336.5"/>
<text text-anchor="middle" x="838" y="-343.5" font-family="Helvetica,sans-Serif" font-size="10.00">gui_event_dispatching.cpp</text>
</a>
</g>
</g>
<!-- Node2&#45;&gt;Node3 -->
<g id="edge2" class="edge">
<title>Node2&#45;&gt;Node3</title>
<path fill="none" stroke="midnightblue" d="M999.8,-389.83C961.28,-379.63 905.18,-364.78 870.17,-355.52"/>
<polygon fill="midnightblue" stroke="midnightblue" points="999.11,-393.27 1009.68,-392.44 1000.9,-386.5 999.11,-393.27"/>
</g>
<!-- Node4 -->
<g id="node4" class="node">
<title>Node4</title>
<g id="a_node4"><a xlink:href="image__view_8h.html" target="_top" xlink:title=" ">
<polygon fill="white" stroke="black" points="922.5,-336.5 922.5,-355.5 997.5,-355.5 997.5,-336.5 922.5,-336.5"/>
<text text-anchor="middle" x="960" y="-343.5" font-family="Helvetica,sans-Serif" font-size="10.00">image_view.h</text>
</a>
</g>
</g>
<!-- Node2&#45;&gt;Node4 -->
<g id="edge3" class="edge">
<title>Node2&#45;&gt;Node4</title>
<path fill="none" stroke="midnightblue" d="M1020.17,-386.62C1005.19,-376.76 985.8,-363.99 973.14,-355.65"/>
<polygon fill="midnightblue" stroke="midnightblue" points="1018.55,-389.75 1028.83,-392.32 1022.4,-383.9 1018.55,-389.75"/>
</g>
<!-- Node20 -->
<g id="node20" class="node">
<title>Node20</title>
<g id="a_node20"><a xlink:href="parent_8h.html" target="_top" xlink:title=" ">
<polygon fill="white" stroke="black" points="1016,-336.5 1016,-355.5 1068,-355.5 1068,-336.5 1016,-336.5"/>
<text text-anchor="middle" x="1042" y="-343.5" font-family="Helvetica,sans-Serif" font-size="10.00">parent.h</text>
</a>
</g>
</g>
<!-- Node2&#45;&gt;Node20 -->
<g id="edge22" class="edge">
<title>Node2&#45;&gt;Node20</title>
<path fill="none" stroke="midnightblue" d="M1042,-381.8C1042,-372.91 1042,-362.78 1042,-355.75"/>
<polygon fill="midnightblue" stroke="midnightblue" points="1038.5,-382.08 1042,-392.08 1045.5,-382.08 1038.5,-382.08"/>
</g>
<!-- Node40 -->
<g id="node40" class="node">
<title>Node40</title>
<g id="a_node40"><a xlink:href="shape_8h.html" target="_top" xlink:title=" ">
<polygon fill="white" stroke="black" points="1328.5,-336.5 1328.5,-355.5 1379.5,-355.5 1379.5,-336.5 1328.5,-336.5"/>
<text text-anchor="middle" x="1354" y="-343.5" font-family="Helvetica,sans-Serif" font-size="10.00">shape.h</text>
</a>
</g>
</g>
<!-- Node2&#45;&gt;Node40 -->
<g id="edge54" class="edge">
<title>Node2&#45;&gt;Node40</title>
<path fill="none" stroke="midnightblue" d="M1088.94,-392.87C1155.7,-381.32 1275.76,-360.54 1328.25,-351.46"/>
<polygon fill="midnightblue" stroke="midnightblue" points="1087.96,-389.49 1078.71,-394.65 1089.16,-396.39 1087.96,-389.49"/>
</g>
<!-- Node4&#45;&gt;Node5 -->
<g id="edge4" class="edge">
<title>Node4&#45;&gt;Node5</title>
<path fill="none" stroke="midnightblue" d="M967.32,-326.82C974.16,-312.08 985.77,-291.87 1002,-280 1021.53,-265.71 1083.08,-251.37 1125.23,-242.84"/>
<polygon fill="midnightblue" stroke="midnightblue" points="963.94,-325.82 963.18,-336.39 970.36,-328.6 963.94,-325.82"/>
</g>
<!-- Node19 -->
<g id="node19" class="node">
<title>Node19</title>
<g id="a_node19"><a xlink:href="image__view_8cpp.html" target="_top" xlink:title=" ">
<polygon fill="white" stroke="black" points="0,-280.5 0,-299.5 86,-299.5 86,-280.5 0,-280.5"/>
<text text-anchor="middle" x="43" y="-287.5" font-family="Helvetica,sans-Serif" font-size="10.00">image_view.cpp</text>
</a>
</g>
</g>
<!-- Node4&#45;&gt;Node19 -->
<g id="edge21" class="edge">
<title>Node4&#45;&gt;Node19</title>
<path fill="none" stroke="midnightblue" d="M912.18,-336.11C552.01,-294.66 456.53,-335.93 100,-300 95.51,-299.55 90.84,-298.98 86.19,-298.34"/>
<polygon fill="midnightblue" stroke="midnightblue" points="912.03,-339.62 922.36,-337.3 912.84,-332.66 912.03,-339.62"/>
</g>
<!-- Node6 -->
<g id="node6" class="node">
<title>Node6</title>
<g id="a_node6"><a xlink:href="button_8h.html" target="_top" xlink:title=" ">
<polygon fill="white" stroke="black" points="1146,-168.5 1146,-187.5 1198,-187.5 1198,-168.5 1146,-168.5"/>
<text text-anchor="middle" x="1172" y="-175.5" font-family="Helvetica,sans-Serif" font-size="10.00">button.h</text>
</a>
</g>
</g>
<!-- Node5&#45;&gt;Node6 -->
<g id="edge5" class="edge">
<title>Node5&#45;&gt;Node6</title>
<path fill="none" stroke="midnightblue" d="M1168.75,-214.1C1169.58,-205.14 1170.53,-194.86 1171.19,-187.75"/>
<polygon fill="midnightblue" stroke="midnightblue" points="1165.26,-213.8 1167.83,-224.08 1172.23,-214.45 1165.26,-213.8"/>
</g>
<!-- Node9 -->
<g id="node9" class="node">
<title>Node9</title>
<g id="a_node9"><a xlink:href="default__skins_8cpp.html" target="_top" xlink:title=" ">
<polygon fill="white" stroke="black" points="765.5,-112.5 765.5,-131.5 858.5,-131.5 858.5,-112.5 765.5,-112.5"/>
<text text-anchor="middle" x="812" y="-119.5" font-family="Helvetica,sans-Serif" font-size="10.00">default_skins.cpp</text>
</a>
</g>
</g>
<!-- Node5&#45;&gt;Node9 -->
<g id="edge16" class="edge">
<title>Node5&#45;&gt;Node9</title>
<path fill="none" stroke="midnightblue" d="M1154.07,-216.02C1141.5,-200.82 1120.98,-179.26 1098,-168 1056.76,-147.78 928.65,-133.5 858.72,-126.98"/>
<polygon fill="midnightblue" stroke="midnightblue" points="1151.54,-218.46 1160.51,-224.1 1157.01,-214.1 1151.54,-218.46"/>
</g>
<!-- Node15 -->
<g id="node15" class="node">
<title>Node15</title>
<g id="a_node15"><a xlink:href="scroll__bar_8cpp.html" target="_top" xlink:title=" ">
<polygon fill="white" stroke="black" points="794.5,-168.5 794.5,-187.5 871.5,-187.5 871.5,-168.5 794.5,-168.5"/>
<text text-anchor="middle" x="833" y="-175.5" font-family="Helvetica,sans-Serif" font-size="10.00">scroll_bar.cpp</text>
</a>
</g>
</g>
<!-- Node5&#45;&gt;Node15 -->
<g id="edge17" class="edge">
<title>Node5&#45;&gt;Node15</title>
<path fill="none" stroke="midnightblue" d="M1115.35,-225.34C1058.02,-216.73 962.77,-202.1 881,-188 877.99,-187.48 874.88,-186.93 871.76,-186.37"/>
<polygon fill="midnightblue" stroke="midnightblue" points="1114.85,-228.8 1125.26,-226.82 1115.89,-221.88 1114.85,-228.8"/>
</g>
<!-- Node16 -->
<g id="node16" class="node">
<title>Node16</title>
<g id="a_node16"><a xlink:href="scroll__pane_8cpp.html" target="_top" xlink:title=" ">
<polygon fill="white" stroke="black" points="1004.5,-168.5 1004.5,-187.5 1089.5,-187.5 1089.5,-168.5 1004.5,-168.5"/>
<text text-anchor="middle" x="1047" y="-175.5" font-family="Helvetica,sans-Serif" font-size="10.00">scroll_pane.cpp</text>
</a>
</g>
</g>
<!-- Node5&#45;&gt;Node16 -->
<g id="edge18" class="edge">
<title>Node5&#45;&gt;Node16</title>
<path fill="none" stroke="midnightblue" d="M1138.63,-220.23C1116.18,-210.13 1085.46,-196.31 1065.93,-187.52"/>
<polygon fill="midnightblue" stroke="midnightblue" points="1137.43,-223.53 1147.99,-224.44 1140.3,-217.15 1137.43,-223.53"/>
</g>
<!-- Node17 -->
<g id="node17" class="node">
<title>Node17</title>
<g id="a_node17"><a xlink:href="slider_8cpp.html" target="_top" xlink:title=" ">
<polygon fill="white" stroke="black" points="890,-168.5 890,-187.5 948,-187.5 948,-168.5 890,-168.5"/>
<text text-anchor="middle" x="919" y="-175.5" font-family="Helvetica,sans-Serif" font-size="10.00">slider.cpp</text>
</a>
</g>
</g>
<!-- Node5&#45;&gt;Node17 -->
<g id="edge19" class="edge">
<title>Node5&#45;&gt;Node17</title>
<path fill="none" stroke="midnightblue" d="M1117.62,-222.25C1066.91,-211.21 989.68,-194.39 948.04,-185.32"/>
<polygon fill="midnightblue" stroke="midnightblue" points="1117.19,-225.74 1127.7,-224.44 1118.68,-218.9 1117.19,-225.74"/>
</g>
<!-- Node18 -->
<g id="node18" class="node">
<title>Node18</title>
<g id="a_node18"><a xlink:href="text_8cpp.html" target="_top" xlink:title=" ">
<polygon fill="white" stroke="black" points="1216,-168.5 1216,-187.5 1268,-187.5 1268,-168.5 1216,-168.5"/>
<text text-anchor="middle" x="1242" y="-175.5" font-family="Helvetica,sans-Serif" font-size="10.00">text.cpp</text>
</a>
</g>
</g>
<!-- Node5&#45;&gt;Node18 -->
<g id="edge20" class="edge">
<title>Node5&#45;&gt;Node18</title>
<path fill="none" stroke="midnightblue" d="M1187.31,-218.38C1200.86,-208.62 1218.24,-196.11 1229.73,-187.83"/>
<polygon fill="midnightblue" stroke="midnightblue" points="1185.12,-215.64 1179.05,-224.32 1189.21,-221.32 1185.12,-215.64"/>
</g>
<!-- Node7 -->
<g id="node7" class="node">
<title>Node7</title>
<g id="a_node7"><a xlink:href="button_8cpp.html" target="_top" xlink:title=" ">
<polygon fill="white" stroke="black" points="1141,-112.5 1141,-131.5 1203,-131.5 1203,-112.5 1141,-112.5"/>
<text text-anchor="middle" x="1172" y="-119.5" font-family="Helvetica,sans-Serif" font-size="10.00">button.cpp</text>
</a>
</g>
</g>
<!-- Node6&#45;&gt;Node7 -->
<g id="edge6" class="edge">
<title>Node6&#45;&gt;Node7</title>
<path fill="none" stroke="midnightblue" d="M1172,-157.8C1172,-148.91 1172,-138.78 1172,-131.75"/>
<polygon fill="midnightblue" stroke="midnightblue" points="1168.5,-158.08 1172,-168.08 1175.5,-158.08 1168.5,-158.08"/>
</g>
<!-- Node8 -->
<g id="node8" class="node">
<title>Node8</title>
<g id="a_node8"><a xlink:href="context__menu_8cpp.html" target="_top" xlink:title=" ">
<polygon fill="white" stroke="black" points="885.5,-0.5 885.5,-19.5 982.5,-19.5 982.5,-0.5 885.5,-0.5"/>
<text text-anchor="middle" x="934" y="-7.5" font-family="Helvetica,sans-Serif" font-size="10.00">context_menu.cpp</text>
</a>
</g>
</g>
<!-- Node6&#45;&gt;Node8 -->
<g id="edge7" class="edge">
<title>Node6&#45;&gt;Node8</title>
<path fill="none" stroke="midnightblue" d="M1135.78,-169.58C1080.84,-158.2 982.13,-137.2 976,-132 941.06,-102.37 935.16,-42.08 934.18,-19.65"/>
<polygon fill="midnightblue" stroke="midnightblue" points="1135.32,-173.06 1145.82,-171.65 1136.74,-166.2 1135.32,-173.06"/>
</g>
<!-- Node6&#45;&gt;Node9 -->
<g id="edge8" class="edge">
<title>Node6&#45;&gt;Node9</title>
<path fill="none" stroke="midnightblue" d="M1135.83,-168.72C1134.54,-168.47 1133.26,-168.23 1132,-168 1035.28,-150.35 921.02,-135.78 858.56,-128.34"/>
<polygon fill="midnightblue" stroke="midnightblue" points="1135.31,-172.19 1145.81,-170.79 1136.73,-165.33 1135.31,-172.19"/>
</g>
<!-- Node10 -->
<g id="node10" class="node">
<title>Node10</title>
<g id="a_node10"><a xlink:href="menu__bar_8h.html" target="_top" xlink:title=" ">
<polygon fill="white" stroke="black" points="985.5,-112.5 985.5,-131.5 1052.5,-131.5 1052.5,-112.5 985.5,-112.5"/>
<text text-anchor="middle" x="1019" y="-119.5" font-family="Helvetica,sans-Serif" font-size="10.00">menu_bar.h</text>
</a>
</g>
</g>
<!-- Node6&#45;&gt;Node10 -->
<g id="edge9" class="edge">
<title>Node6&#45;&gt;Node10</title>
<path fill="none" stroke="midnightblue" d="M1138.11,-165.04C1109.32,-154.88 1068.71,-140.55 1043.13,-131.52"/>
<polygon fill="midnightblue" stroke="midnightblue" points="1137.16,-168.42 1147.76,-168.44 1139.49,-161.81 1137.16,-168.42"/>
</g>
<!-- Node11 -->
<g id="node11" class="node">
<title>Node11</title>
<g id="a_node11"><a xlink:href="menu__bar_8cpp.html" target="_top" xlink:title=" ">
<polygon fill="white" stroke="black" points="1002.5,-0.5 1002.5,-19.5 1079.5,-19.5 1079.5,-0.5 1002.5,-0.5"/>
<text text-anchor="middle" x="1041" y="-7.5" font-family="Helvetica,sans-Serif" font-size="10.00">menu_bar.cpp</text>
</a>
</g>
</g>
<!-- Node10&#45;&gt;Node11 -->
<g id="edge10" class="edge">
<title>Node10&#45;&gt;Node11</title>
<path fill="none" stroke="midnightblue" d="M1022.73,-102.35C1027.55,-78.25 1035.74,-37.31 1039.28,-19.59"/>
<polygon fill="midnightblue" stroke="midnightblue" points="1019.26,-101.88 1020.73,-112.37 1026.12,-103.25 1019.26,-101.88"/>
</g>
<!-- Node12 -->
<g id="node12" class="node">
<title>Node12</title>
<g id="a_node12"><a xlink:href="scene_8h.html" target="_top" xlink:title=" ">
<polygon fill="white" stroke="black" points="962.5,-56.5 962.5,-75.5 1013.5,-75.5 1013.5,-56.5 962.5,-56.5"/>
<text text-anchor="middle" x="988" y="-63.5" font-family="Helvetica,sans-Serif" font-size="10.00">scene.h</text>
</a>
</g>
</g>
<!-- Node10&#45;&gt;Node12 -->
<g id="edge11" class="edge">
<title>Node10&#45;&gt;Node12</title>
<path fill="none" stroke="midnightblue" d="M1008.82,-103.27C1003.53,-94.05 997.28,-83.17 993.02,-75.75"/>
<polygon fill="midnightblue" stroke="midnightblue" points="1005.87,-105.15 1013.88,-112.08 1011.94,-101.67 1005.87,-105.15"/>
</g>
<!-- Node12&#45;&gt;Node8 -->
<g id="edge13" class="edge">
<title>Node12&#45;&gt;Node8</title>
<path fill="none" stroke="midnightblue" d="M972,-49C962.43,-39.43 950.64,-27.64 942.75,-19.75"/>
<polygon fill="midnightblue" stroke="midnightblue" points="969.54,-51.49 979.08,-56.08 974.49,-46.54 969.54,-51.49"/>
</g>
<!-- Node12&#45;&gt;Node11 -->
<g id="edge14" class="edge">
<title>Node12&#45;&gt;Node11</title>
<path fill="none" stroke="midnightblue" d="M1003.98,-48.72C1013.32,-39.2 1024.75,-27.56 1032.41,-19.75"/>
<polygon fill="midnightblue" stroke="midnightblue" points="1001.26,-46.49 996.75,-56.08 1006.25,-51.4 1001.26,-46.49"/>
</g>
<!-- Node13 -->
<g id="node13" class="node">
<title>Node13</title>
<g id="a_node13"><a xlink:href="component_8cpp.html" target="_top" xlink:title=" ">
<polygon fill="white" stroke="black" points="440.5,-0.5 440.5,-19.5 523.5,-19.5 523.5,-0.5 440.5,-0.5"/>
<text text-anchor="middle" x="482" y="-7.5" font-family="Helvetica,sans-Serif" font-size="10.00">component.cpp</text>
</a>
</g>
</g>
<!-- Node12&#45;&gt;Node13 -->
<g id="edge12" class="edge">
<title>Node12&#45;&gt;Node13</title>
<path fill="none" stroke="midnightblue" d="M952.1,-61.17C860.9,-51.44 620.68,-25.8 523.59,-15.44"/>
<polygon fill="midnightblue" stroke="midnightblue" points="951.9,-64.67 962.21,-62.25 952.64,-57.71 951.9,-64.67"/>
</g>
<!-- Node14 -->
<g id="node14" class="node">
<title>Node14</title>
<g id="a_node14"><a xlink:href="scene_8cpp.html" target="_top" xlink:title=" ">
<polygon fill="white" stroke="black" points="1182,-0.5 1182,-19.5 1244,-19.5 1244,-0.5 1182,-0.5"/>
<text text-anchor="middle" x="1213" y="-7.5" font-family="Helvetica,sans-Serif" font-size="10.00">scene.cpp</text>
</a>
</g>
</g>
<!-- Node12&#45;&gt;Node14 -->
<g id="edge15" class="edge">
<title>Node12&#45;&gt;Node14</title>
<path fill="none" stroke="midnightblue" d="M1023.69,-56.43C1067.27,-45.97 1140.28,-28.45 1181.74,-18.5"/>
<polygon fill="midnightblue" stroke="midnightblue" points="1022.72,-53.07 1013.81,-58.81 1024.35,-59.88 1022.72,-53.07"/>
</g>
<!-- Node20&#45;&gt;Node13 -->
<g id="edge23" class="edge">
<title>Node20&#45;&gt;Node13</title>
<path fill="none" stroke="midnightblue" d="M1005.57,-336.3C721.17,-294.29 642.45,-343.85 363,-300 250.01,-282.27 114,-349.38 114,-235 114,-235 114,-235 114,-121 114,-53.57 343.69,-24.03 440.14,-14.59"/>
<polygon fill="midnightblue" stroke="midnightblue" points="1005.36,-339.81 1015.77,-337.83 1006.4,-332.89 1005.36,-339.81"/>
</g>
<!-- Node20&#45;&gt;Node14 -->
<g id="edge53" class="edge">
<title>Node20&#45;&gt;Node14</title>
<path fill="none" stroke="midnightblue" d="M1078.53,-343.12C1136.69,-339.3 1246.3,-328.44 1271,-300 1346,-213.65 1245.83,-57.8 1219.19,-19.62"/>
<polygon fill="midnightblue" stroke="midnightblue" points="1078.06,-339.65 1068.3,-343.76 1078.5,-346.63 1078.06,-339.65"/>
</g>
<!-- Node21 -->
<g id="node21" class="node">
<title>Node21</title>
<g id="a_node21"><a xlink:href="container_8h.html" target="_top" xlink:title=" ">
<polygon fill="white" stroke="black" points="372,-280.5 372,-299.5 436,-299.5 436,-280.5 372,-280.5"/>
<text text-anchor="middle" x="404" y="-287.5" font-family="Helvetica,sans-Serif" font-size="10.00">container.h</text>
</a>
</g>
</g>
<!-- Node20&#45;&gt;Node21 -->
<g id="edge24" class="edge">
<title>Node20&#45;&gt;Node21</title>
<path fill="none" stroke="midnightblue" d="M1005.83,-336.3C782.58,-301 525.29,-293.22 436.2,-291.48"/>
<polygon fill="midnightblue" stroke="midnightblue" points="1005.33,-339.76 1015.76,-337.89 1006.44,-332.85 1005.33,-339.76"/>
</g>
<!-- Node32 -->
<g id="node32" class="node">
<title>Node32</title>
<g id="a_node32"><a xlink:href="control_8h.html" target="_top" xlink:title=" ">
<polygon fill="white" stroke="black" points="878,-280.5 878,-299.5 932,-299.5 932,-280.5 878,-280.5"/>
<text text-anchor="middle" x="905" y="-287.5" font-family="Helvetica,sans-Serif" font-size="10.00">control.h</text>
</a>
</g>
</g>
<!-- Node20&#45;&gt;Node32 -->
<g id="edge38" class="edge">
<title>Node20&#45;&gt;Node32</title>
<path fill="none" stroke="midnightblue" d="M1010.98,-332.77C985.24,-322.63 949.31,-308.47 926.61,-299.52"/>
<polygon fill="midnightblue" stroke="midnightblue" points="1009.71,-336.03 1020.29,-336.44 1012.27,-329.52 1009.71,-336.03"/>
</g>
<!-- Node39 -->
<g id="node39" class="node">
<title>Node39</title>
<g id="a_node39"><a xlink:href="parent_8cpp.html" target="_top" xlink:title=" ">
<polygon fill="white" stroke="black" points="1011,-280.5 1011,-299.5 1073,-299.5 1073,-280.5 1011,-280.5"/>
<text text-anchor="middle" x="1042" y="-287.5" font-family="Helvetica,sans-Serif" font-size="10.00">parent.cpp</text>
</a>
</g>
</g>
<!-- Node20&#45;&gt;Node39 -->
<g id="edge52" class="edge">
<title>Node20&#45;&gt;Node39</title>
<path fill="none" stroke="midnightblue" d="M1042,-325.8C1042,-316.91 1042,-306.78 1042,-299.75"/>
<polygon fill="midnightblue" stroke="midnightblue" points="1038.5,-326.08 1042,-336.08 1045.5,-326.08 1038.5,-326.08"/>
</g>
<!-- Node22 -->
<g id="node22" class="node">
<title>Node22</title>
<g id="a_node22"><a xlink:href="box__container_8h.html" target="_top" xlink:title=" ">
<polygon fill="white" stroke="black" points="496.5,-224.5 496.5,-243.5 581.5,-243.5 581.5,-224.5 496.5,-224.5"/>
<text text-anchor="middle" x="539" y="-231.5" font-family="Helvetica,sans-Serif" font-size="10.00">box_container.h</text>
</a>
</g>
</g>
<!-- Node21&#45;&gt;Node22 -->
<g id="edge25" class="edge">
<title>Node21&#45;&gt;Node22</title>
<path fill="none" stroke="midnightblue" d="M434.91,-276.64C460.24,-266.5 495.43,-252.43 517.71,-243.52"/>
<polygon fill="midnightblue" stroke="midnightblue" points="433.38,-273.48 425.39,-280.44 435.98,-279.98 433.38,-273.48"/>
</g>
<!-- Node25 -->
<g id="node25" class="node">
<title>Node25</title>
<g id="a_node25"><a xlink:href="container_8cpp.html" target="_top" xlink:title=" ">
<polygon fill="white" stroke="black" points="261,-224.5 261,-243.5 335,-243.5 335,-224.5 261,-224.5"/>
<text text-anchor="middle" x="298" y="-231.5" font-family="Helvetica,sans-Serif" font-size="10.00">container.cpp</text>
</a>
</g>
</g>
<!-- Node21&#45;&gt;Node25 -->
<g id="edge31" class="edge">
<title>Node21&#45;&gt;Node25</title>
<path fill="none" stroke="midnightblue" d="M377.94,-275.73C358.32,-265.73 331.97,-252.31 314.99,-243.65"/>
<polygon fill="midnightblue" stroke="midnightblue" points="376.47,-278.9 386.97,-280.32 379.65,-272.67 376.47,-278.9"/>
</g>
<!-- Node26 -->
<g id="node26" class="node">
<title>Node26</title>
<g id="a_node26"><a xlink:href="layered__container_8h.html" target="_top" xlink:title=" ">
<polygon fill="white" stroke="black" points="353.5,-224.5 353.5,-243.5 454.5,-243.5 454.5,-224.5 353.5,-224.5"/>
<text text-anchor="middle" x="404" y="-231.5" font-family="Helvetica,sans-Serif" font-size="10.00">layered_container.h</text>
</a>
</g>
</g>
<!-- Node21&#45;&gt;Node26 -->
<g id="edge32" class="edge">
<title>Node21&#45;&gt;Node26</title>
<path fill="none" stroke="midnightblue" d="M404,-269.8C404,-260.91 404,-250.78 404,-243.75"/>
<polygon fill="midnightblue" stroke="midnightblue" points="400.5,-270.08 404,-280.08 407.5,-270.08 400.5,-270.08"/>
</g>
<!-- Node30 -->
<g id="node30" class="node">
<title>Node30</title>
<g id="a_node30"><a xlink:href="tile__pane_8h.html" target="_top" xlink:title=" ">
<polygon fill="white" stroke="black" points="163,-224.5 163,-243.5 227,-243.5 227,-224.5 163,-224.5"/>
<text text-anchor="middle" x="195" y="-231.5" font-family="Helvetica,sans-Serif" font-size="10.00">tile_pane.h</text>
</a>
</g>
</g>
<!-- Node21&#45;&gt;Node30 -->
<g id="edge36" class="edge">
<title>Node21&#45;&gt;Node30</title>
<path fill="none" stroke="midnightblue" d="M361.88,-278.12C322.13,-267.85 263.38,-252.67 227.23,-243.33"/>
<polygon fill="midnightblue" stroke="midnightblue" points="361.24,-281.57 371.8,-280.68 363,-274.79 361.24,-281.57"/>
</g>
<!-- Node22&#45;&gt;Node9 -->
<g id="edge30" class="edge">
<title>Node22&#45;&gt;Node9</title>
<path fill="none" stroke="midnightblue" d="M551.36,-216.31C563.38,-201.32 583.01,-179.9 605,-168 655.62,-140.61 721.71,-129.89 765.44,-125.7"/>
<polygon fill="midnightblue" stroke="midnightblue" points="548.55,-214.22 545.2,-224.27 554.09,-218.5 548.55,-214.22"/>
</g>
<!-- Node23 -->
<g id="node23" class="node">
<title>Node23</title>
<g id="a_node23"><a xlink:href="box__container_8cpp.html" target="_top" xlink:title=" ">
<polygon fill="white" stroke="black" points="462.5,-168.5 462.5,-187.5 557.5,-187.5 557.5,-168.5 462.5,-168.5"/>
<text text-anchor="middle" x="510" y="-175.5" font-family="Helvetica,sans-Serif" font-size="10.00">box_container.cpp</text>
</a>
</g>
</g>
<!-- Node22&#45;&gt;Node23 -->
<g id="edge26" class="edge">
<title>Node22&#45;&gt;Node23</title>
<path fill="none" stroke="midnightblue" d="M529.32,-214.98C524.4,-205.82 518.64,-195.09 514.7,-187.75"/>
<polygon fill="midnightblue" stroke="midnightblue" points="526.4,-216.93 534.21,-224.08 532.56,-213.62 526.4,-216.93"/>
</g>
<!-- Node24 -->
<g id="node24" class="node">
<title>Node24</title>
<g id="a_node24"><a xlink:href="context__menu_8h.html" target="_top" xlink:title=" ">
<polygon fill="white" stroke="black" points="614,-168.5 614,-187.5 700,-187.5 700,-168.5 614,-168.5"/>
<text text-anchor="middle" x="657" y="-175.5" font-family="Helvetica,sans-Serif" font-size="10.00">context_menu.h</text>
</a>
</g>
</g>
<!-- Node22&#45;&gt;Node24 -->
<g id="edge27" class="edge">
<title>Node22&#45;&gt;Node24</title>
<path fill="none" stroke="midnightblue" d="M566.9,-220.23C588.97,-210.13 619.18,-196.31 638.39,-187.52"/>
<polygon fill="midnightblue" stroke="midnightblue" points="565.33,-217.1 557.7,-224.44 568.25,-223.46 565.33,-217.1"/>
</g>
<!-- Node24&#45;&gt;Node8 -->
<g id="edge28" class="edge">
<title>Node24&#45;&gt;Node8</title>
<path fill="none" stroke="midnightblue" d="M677.95,-162.67C697.82,-149.23 728.61,-128.74 756,-112 814.82,-76.06 886.71,-36.59 918.09,-19.58"/>
<polygon fill="midnightblue" stroke="midnightblue" points="675.95,-159.8 669.65,-168.32 679.88,-165.59 675.95,-159.8"/>
</g>
<!-- Node24&#45;&gt;Node10 -->
<g id="edge29" class="edge">
<title>Node24&#45;&gt;Node10</title>
<path fill="none" stroke="midnightblue" d="M710.57,-169.01C786.27,-157.72 922.31,-137.42 985.3,-128.03"/>
<polygon fill="midnightblue" stroke="midnightblue" points="709.68,-165.6 700.31,-170.54 710.71,-172.53 709.68,-165.6"/>
</g>
<!-- Node27 -->
<g id="node27" class="node">
<title>Node27</title>
<g id="a_node27"><a xlink:href="anchor__pane_8h.html" target="_top" xlink:title=" ">
<polygon fill="white" stroke="black" points="364,-168.5 364,-187.5 444,-187.5 444,-168.5 364,-168.5"/>
<text text-anchor="middle" x="404" y="-175.5" font-family="Helvetica,sans-Serif" font-size="10.00">anchor_pane.h</text>
</a>
</g>
</g>
<!-- Node26&#45;&gt;Node27 -->
<g id="edge33" class="edge">
<title>Node26&#45;&gt;Node27</title>
<path fill="none" stroke="midnightblue" d="M404,-213.8C404,-204.91 404,-194.78 404,-187.75"/>
<polygon fill="midnightblue" stroke="midnightblue" points="400.5,-214.08 404,-224.08 407.5,-214.08 400.5,-214.08"/>
</g>
<!-- Node29 -->
<g id="node29" class="node">
<title>Node29</title>
<g id="a_node29"><a xlink:href="layered__container_8cpp.html" target="_top" xlink:title=" ">
<polygon fill="white" stroke="black" points="234.5,-168.5 234.5,-187.5 345.5,-187.5 345.5,-168.5 234.5,-168.5"/>
<text text-anchor="middle" x="290" y="-175.5" font-family="Helvetica,sans-Serif" font-size="10.00">layered_container.cpp</text>
</a>
</g>
</g>
<!-- Node26&#45;&gt;Node29 -->
<g id="edge35" class="edge">
<title>Node26&#45;&gt;Node29</title>
<path fill="none" stroke="midnightblue" d="M376.76,-220.1C355.46,-210.01 326.46,-196.27 307.98,-187.52"/>
<polygon fill="midnightblue" stroke="midnightblue" points="375.4,-223.33 385.94,-224.44 378.4,-217 375.4,-223.33"/>
</g>
<!-- Node28 -->
<g id="node28" class="node">
<title>Node28</title>
<g id="a_node28"><a xlink:href="anchor__pane_8cpp.html" target="_top" xlink:title=" ">
<polygon fill="white" stroke="black" points="358.5,-112.5 358.5,-131.5 449.5,-131.5 449.5,-112.5 358.5,-112.5"/>
<text text-anchor="middle" x="404" y="-119.5" font-family="Helvetica,sans-Serif" font-size="10.00">anchor_pane.cpp</text>
</a>
</g>
</g>
<!-- Node27&#45;&gt;Node28 -->
<g id="edge34" class="edge">
<title>Node27&#45;&gt;Node28</title>
<path fill="none" stroke="midnightblue" d="M404,-157.8C404,-148.91 404,-138.78 404,-131.75"/>
<polygon fill="midnightblue" stroke="midnightblue" points="400.5,-158.08 404,-168.08 407.5,-158.08 400.5,-158.08"/>
</g>
<!-- Node31 -->
<g id="node31" class="node">
<title>Node31</title>
<g id="a_node31"><a xlink:href="tile__pane_8cpp.html" target="_top" xlink:title=" ">
<polygon fill="white" stroke="black" points="142,-168.5 142,-187.5 216,-187.5 216,-168.5 142,-168.5"/>
<text text-anchor="middle" x="179" y="-175.5" font-family="Helvetica,sans-Serif" font-size="10.00">tile_pane.cpp</text>
</a>
</g>
</g>
<!-- Node30&#45;&gt;Node31 -->
<g id="edge37" class="edge">
<title>Node30&#45;&gt;Node31</title>
<path fill="none" stroke="midnightblue" d="M189.49,-214.4C186.81,-205.36 183.72,-194.94 181.59,-187.75"/>
<polygon fill="midnightblue" stroke="midnightblue" points="186.16,-215.49 192.36,-224.08 192.87,-213.5 186.16,-215.49"/>
</g>
<!-- Node32&#45;&gt;Node6 -->
<g id="edge39" class="edge">
<title>Node32&#45;&gt;Node6</title>
<path fill="none" stroke="midnightblue" d="M942.11,-283.24C978.03,-276.77 1033.45,-264.42 1078,-244 1111.37,-228.71 1145.6,-201.57 1162.02,-187.7"/>
<polygon fill="midnightblue" stroke="midnightblue" points="941.32,-279.82 932.07,-284.98 942.52,-286.72 941.32,-279.82"/>
</g>
<!-- Node33 -->
<g id="node33" class="node">
<title>Node33</title>
<g id="a_node33"><a xlink:href="control_8cpp.html" target="_top" xlink:title=" ">
<polygon fill="white" stroke="black" points="848.5,-224.5 848.5,-243.5 913.5,-243.5 913.5,-224.5 848.5,-224.5"/>
<text text-anchor="middle" x="881" y="-231.5" font-family="Helvetica,sans-Serif" font-size="10.00">control.cpp</text>
</a>
</g>
</g>
<!-- Node32&#45;&gt;Node33 -->
<g id="edge40" class="edge">
<title>Node32&#45;&gt;Node33</title>
<path fill="none" stroke="midnightblue" d="M896.86,-270.69C892.82,-261.59 888.12,-251.01 884.89,-243.75"/>
<polygon fill="midnightblue" stroke="midnightblue" points="893.78,-272.37 901.04,-280.08 900.17,-269.52 893.78,-272.37"/>
</g>
<!-- Node34 -->
<g id="node34" class="node">
<title>Node34</title>
<g id="a_node34"><a xlink:href="label_8h.html" target="_top" xlink:title=" ">
<polygon fill="white" stroke="black" points="931.5,-224.5 931.5,-243.5 976.5,-243.5 976.5,-224.5 931.5,-224.5"/>
<text text-anchor="middle" x="954" y="-231.5" font-family="Helvetica,sans-Serif" font-size="10.00">label.h</text>
</a>
</g>
</g>
<!-- Node32&#45;&gt;Node34 -->
<g id="edge41" class="edge">
<title>Node32&#45;&gt;Node34</title>
<path fill="none" stroke="midnightblue" d="M920.03,-272.43C928.62,-262.97 939.04,-251.48 946.06,-243.75"/>
<polygon fill="midnightblue" stroke="midnightblue" points="917.22,-270.33 913.09,-280.08 922.4,-275.03 917.22,-270.33"/>
</g>
<!-- Node35 -->
<g id="node35" class="node">
<title>Node35</title>
<g id="a_node35"><a xlink:href="scroll__bar_8h.html" target="_top" xlink:title=" ">
<polygon fill="white" stroke="black" points="699,-224.5 699,-243.5 765,-243.5 765,-224.5 699,-224.5"/>
<text text-anchor="middle" x="732" y="-231.5" font-family="Helvetica,sans-Serif" font-size="10.00">scroll_bar.h</text>
</a>
</g>
</g>
<!-- Node32&#45;&gt;Node35 -->
<g id="edge42" class="edge">
<title>Node32&#45;&gt;Node35</title>
<path fill="none" stroke="midnightblue" d="M868.35,-277.56C835.76,-267.39 788.85,-252.74 759.41,-243.56"/>
<polygon fill="midnightblue" stroke="midnightblue" points="867.38,-280.92 877.97,-280.56 869.47,-274.24 867.38,-280.92"/>
</g>
<!-- Node36 -->
<g id="node36" class="node">
<title>Node36</title>
<g id="a_node36"><a xlink:href="scroll__pane_8h.html" target="_top" xlink:title=" ">
<polygon fill="white" stroke="black" points="995,-224.5 995,-243.5 1069,-243.5 1069,-224.5 995,-224.5"/>
<text text-anchor="middle" x="1032" y="-231.5" font-family="Helvetica,sans-Serif" font-size="10.00">scroll_pane.h</text>
</a>
</g>
</g>
<!-- Node32&#45;&gt;Node36 -->
<g id="edge45" class="edge">
<title>Node32&#45;&gt;Node36</title>
<path fill="none" stroke="midnightblue" d="M934.39,-276.5C958.2,-266.38 991.11,-252.39 1011.97,-243.52"/>
<polygon fill="midnightblue" stroke="midnightblue" points="932.96,-273.31 925.12,-280.44 935.7,-279.75 932.96,-273.31"/>
</g>
<!-- Node37 -->
<g id="node37" class="node">
<title>Node37</title>
<g id="a_node37"><a xlink:href="skin_8cpp.html" target="_top" xlink:title=" ">
<polygon fill="white" stroke="black" points="627.5,-224.5 627.5,-243.5 680.5,-243.5 680.5,-224.5 627.5,-224.5"/>
<text text-anchor="middle" x="654" y="-231.5" font-family="Helvetica,sans-Serif" font-size="10.00">skin.cpp</text>
</a>
</g>
</g>
<!-- Node32&#45;&gt;Node37 -->
<g id="edge48" class="edge">
<title>Node32&#45;&gt;Node37</title>
<path fill="none" stroke="midnightblue" d="M867.78,-281.66C824.84,-273.1 752.15,-258.27 690,-244 686.99,-243.31 683.84,-242.56 680.71,-241.8"/>
<polygon fill="midnightblue" stroke="midnightblue" points="867.28,-285.13 877.77,-283.65 868.65,-278.27 867.28,-285.13"/>
</g>
<!-- Node38 -->
<g id="node38" class="node">
<title>Node38</title>
<g id="a_node38"><a xlink:href="slider_8h.html" target="_top" xlink:title=" ">
<polygon fill="white" stroke="black" points="783.5,-224.5 783.5,-243.5 830.5,-243.5 830.5,-224.5 783.5,-224.5"/>
<text text-anchor="middle" x="807" y="-231.5" font-family="Helvetica,sans-Serif" font-size="10.00">slider.h</text>
</a>
</g>
</g>
<!-- Node32&#45;&gt;Node38 -->
<g id="edge49" class="edge">
<title>Node32&#45;&gt;Node38</title>
<path fill="none" stroke="midnightblue" d="M880.41,-275.45C862.32,-265.48 838.27,-252.23 822.71,-243.65"/>
<polygon fill="midnightblue" stroke="midnightblue" points="878.81,-278.56 889.25,-280.32 882.19,-272.43 878.81,-278.56"/>
</g>
<!-- Node35&#45;&gt;Node9 -->
<g id="edge43" class="edge">
<title>Node35&#45;&gt;Node9</title>
<path fill="none" stroke="midnightblue" d="M744.17,-216.27C761.46,-192.49 792.52,-149.79 805.75,-131.59"/>
<polygon fill="midnightblue" stroke="midnightblue" points="741.33,-214.22 738.28,-224.37 746.99,-218.34 741.33,-214.22"/>
</g>
<!-- Node35&#45;&gt;Node15 -->
<g id="edge44" class="edge">
<title>Node35&#45;&gt;Node15</title>
<path fill="none" stroke="midnightblue" d="M757.08,-219.59C775.76,-209.61 800.7,-196.27 816.81,-187.65"/>
<polygon fill="midnightblue" stroke="midnightblue" points="755.4,-216.52 748.23,-224.32 758.7,-222.7 755.4,-216.52"/>
</g>
<!-- Node36&#45;&gt;Node9 -->
<g id="edge46" class="edge">
<title>Node36&#45;&gt;Node9</title>
<path fill="none" stroke="midnightblue" d="M1017.16,-216.76C1002.98,-202.14 980.38,-181 957,-168 925.1,-150.26 885.27,-138.54 855.44,-131.52"/>
<polygon fill="midnightblue" stroke="midnightblue" points="1014.7,-219.26 1024.11,-224.12 1019.79,-214.45 1014.7,-219.26"/>
</g>
<!-- Node36&#45;&gt;Node16 -->
<g id="edge47" class="edge">
<title>Node36&#45;&gt;Node16</title>
<path fill="none" stroke="midnightblue" d="M1037.17,-214.4C1039.68,-205.36 1042.57,-194.94 1044.57,-187.75"/>
<polygon fill="midnightblue" stroke="midnightblue" points="1033.78,-213.51 1034.48,-224.08 1040.53,-215.38 1033.78,-213.51"/>
</g>
<!-- Node38&#45;&gt;Node9 -->
<g id="edge50" class="edge">
<title>Node38&#45;&gt;Node9</title>
<path fill="none" stroke="midnightblue" d="M795.09,-215.47C787.73,-202.48 780.49,-184.29 785,-168 788.84,-154.13 798.23,-140.24 804.85,-131.64"/>
<polygon fill="midnightblue" stroke="midnightblue" points="792.3,-217.61 800.54,-224.27 798.25,-213.92 792.3,-217.61"/>
</g>
<!-- Node38&#45;&gt;Node17 -->
<g id="edge51" class="edge">
<title>Node38&#45;&gt;Node17</title>
<path fill="none" stroke="midnightblue" d="M834.25,-219.86C855.02,-209.85 883.02,-196.35 901.05,-187.65"/>
<polygon fill="midnightblue" stroke="midnightblue" points="832.48,-216.83 824.99,-224.32 835.52,-223.13 832.48,-216.83"/>
</g>
<!-- Node41 -->
<g id="node41" class="node">
<title>Node41</title>
<g id="a_node41"><a xlink:href="circle_8h.html" target="_top" xlink:title=" ">
<polygon fill="white" stroke="black" points="1485,-280.5 1485,-299.5 1533,-299.5 1533,-280.5 1485,-280.5"/>
<text text-anchor="middle" x="1509" y="-287.5" font-family="Helvetica,sans-Serif" font-size="10.00">circle.h</text>
</a>
</g>
</g>
<!-- Node40&#45;&gt;Node41 -->
<g id="edge55" class="edge">
<title>Node40&#45;&gt;Node41</title>
<path fill="none" stroke="midnightblue" d="M1388.36,-333.03C1417.62,-322.84 1458.92,-308.45 1484.81,-299.43"/>
<polygon fill="midnightblue" stroke="midnightblue" points="1386.85,-329.85 1378.56,-336.44 1389.16,-336.46 1386.85,-329.85"/>
</g>
<!-- Node43 -->
<g id="node43" class="node">
<title>Node43</title>
<g id="a_node43"><a xlink:href="rectangle_8h.html" target="_top" xlink:title=" ">
<polygon fill="white" stroke="black" points="1321.5,-280.5 1321.5,-299.5 1386.5,-299.5 1386.5,-280.5 1321.5,-280.5"/>
<text text-anchor="middle" x="1354" y="-287.5" font-family="Helvetica,sans-Serif" font-size="10.00">rectangle.h</text>
</a>
</g>
</g>
<!-- Node40&#45;&gt;Node43 -->
<g id="edge57" class="edge">
<title>Node40&#45;&gt;Node43</title>
<path fill="none" stroke="midnightblue" d="M1354,-325.8C1354,-316.91 1354,-306.78 1354,-299.75"/>
<polygon fill="midnightblue" stroke="midnightblue" points="1350.5,-326.08 1354,-336.08 1357.5,-326.08 1350.5,-326.08"/>
</g>
<!-- Node45 -->
<g id="node45" class="node">
<title>Node45</title>
<g id="a_node45"><a xlink:href="shape_8cpp.html" target="_top" xlink:title=" ">
<polygon fill="white" stroke="black" points="1405,-280.5 1405,-299.5 1467,-299.5 1467,-280.5 1405,-280.5"/>
<text text-anchor="middle" x="1436" y="-287.5" font-family="Helvetica,sans-Serif" font-size="10.00">shape.cpp</text>
</a>
</g>
</g>
<!-- Node40&#45;&gt;Node45 -->
<g id="edge60" class="edge">
<title>Node40&#45;&gt;Node45</title>
<path fill="none" stroke="midnightblue" d="M1375.83,-330.62C1390.81,-320.76 1410.2,-307.99 1422.86,-299.65"/>
<polygon fill="midnightblue" stroke="midnightblue" points="1373.6,-327.9 1367.17,-336.32 1377.45,-333.75 1373.6,-327.9"/>
</g>
<!-- Node46 -->
<g id="node46" class="node">
<title>Node46</title>
<g id="a_node46"><a xlink:href="text_8h.html" target="_top" xlink:title=" ">
<polygon fill="white" stroke="black" points="1221.5,-280.5 1221.5,-299.5 1262.5,-299.5 1262.5,-280.5 1221.5,-280.5"/>
<text text-anchor="middle" x="1242" y="-287.5" font-family="Helvetica,sans-Serif" font-size="10.00">text.h</text>
</a>
</g>
</g>
<!-- Node40&#45;&gt;Node46 -->
<g id="edge61" class="edge">
<title>Node40&#45;&gt;Node46</title>
<path fill="none" stroke="midnightblue" d="M1326.75,-331.86C1305.98,-321.85 1277.98,-308.35 1259.95,-299.65"/>
<polygon fill="midnightblue" stroke="midnightblue" points="1325.48,-335.13 1336.01,-336.32 1328.52,-328.83 1325.48,-335.13"/>
</g>
<!-- Node42 -->
<g id="node42" class="node">
<title>Node42</title>
<g id="a_node42"><a xlink:href="circle_8cpp.html" target="_top" xlink:title=" ">
<polygon fill="white" stroke="black" points="1479.5,-224.5 1479.5,-243.5 1538.5,-243.5 1538.5,-224.5 1479.5,-224.5"/>
<text text-anchor="middle" x="1509" y="-231.5" font-family="Helvetica,sans-Serif" font-size="10.00">circle.cpp</text>
</a>
</g>
</g>
<!-- Node41&#45;&gt;Node42 -->
<g id="edge56" class="edge">
<title>Node41&#45;&gt;Node42</title>
<path fill="none" stroke="midnightblue" d="M1509,-269.8C1509,-260.91 1509,-250.78 1509,-243.75"/>
<polygon fill="midnightblue" stroke="midnightblue" points="1505.5,-270.08 1509,-280.08 1512.5,-270.08 1505.5,-270.08"/>
</g>
<!-- Node43&#45;&gt;Node5 -->
<g id="edge58" class="edge">
<title>Node43&#45;&gt;Node5</title>
<path fill="none" stroke="midnightblue" d="M1314.41,-277.57C1279.13,-267.38 1228.31,-252.7 1196.49,-243.52"/>
<polygon fill="midnightblue" stroke="midnightblue" points="1313.79,-281.03 1324.37,-280.44 1315.73,-274.31 1313.79,-281.03"/>
</g>
<!-- Node44 -->
<g id="node44" class="node">
<title>Node44</title>
<g id="a_node44"><a xlink:href="rectangle_8cpp.html" target="_top" xlink:title=" ">
<polygon fill="white" stroke="black" points="1321.5,-224.5 1321.5,-243.5 1396.5,-243.5 1396.5,-224.5 1321.5,-224.5"/>
<text text-anchor="middle" x="1359" y="-231.5" font-family="Helvetica,sans-Serif" font-size="10.00">rectangle.cpp</text>
</a>
</g>
</g>
<!-- Node43&#45;&gt;Node44 -->
<g id="edge59" class="edge">
<title>Node43&#45;&gt;Node44</title>
<path fill="none" stroke="midnightblue" d="M1355.75,-270.1C1356.58,-261.14 1357.53,-250.86 1358.19,-243.75"/>
<polygon fill="midnightblue" stroke="midnightblue" points="1352.26,-269.8 1354.83,-280.08 1359.23,-270.45 1352.26,-269.8"/>
</g>
<!-- Node46&#45;&gt;Node5 -->
<g id="edge62" class="edge">
<title>Node46&#45;&gt;Node5</title>
<path fill="none" stroke="midnightblue" d="M1221.69,-274.38C1208.14,-264.62 1190.76,-252.11 1179.27,-243.83"/>
<polygon fill="midnightblue" stroke="midnightblue" points="1219.79,-277.32 1229.95,-280.32 1223.88,-271.64 1219.79,-277.32"/>
</g>
<!-- Node46&#45;&gt;Node18 -->
<g id="edge63" class="edge">
<title>Node46&#45;&gt;Node18</title>
<path fill="none" stroke="midnightblue" d="M1242,-270.35C1242,-246.25 1242,-205.31 1242,-187.59"/>
<polygon fill="midnightblue" stroke="midnightblue" points="1238.5,-270.37 1242,-280.37 1245.5,-270.37 1238.5,-270.37"/>
</g>
</g>
</svg>
