<?xml version="1.0" encoding="UTF-8" standalone="no"?>
<!DOCTYPE svg PUBLIC "-//W3C//DTD SVG 1.1//EN"
 "http://www.w3.org/Graphics/SVG/1.1/DTD/svg11.dtd">
<!-- Generated by graphviz version 2.50.0 (20211204.2007)
 -->
<!-- Title: shadow.h Pages: 1 -->
<svg width="1217pt" height="476pt"
 viewBox="0.00 0.00 1216.50 476.00" xmlns="http://www.w3.org/2000/svg" xmlns:xlink="http://www.w3.org/1999/xlink">
<g id="graph0" class="graph" transform="scale(1 1) rotate(0) translate(4 472)">
<title>shadow.h</title>
<polygon fill="white" stroke="transparent" points="-4,4 -4,-472 1212.5,-472 1212.5,4 -4,4"/>
<!-- Node1 -->
<g id="node1" class="node">
<title>Node1</title>
<g id="a_node1"><a xlink:title=" ">
<polygon fill="#bfbfbf" stroke="black" points="427,-448.5 427,-467.5 484,-467.5 484,-448.5 427,-448.5"/>
<text text-anchor="middle" x="455.5" y="-455.5" font-family="Helvetica,sans-Serif" font-size="10.00">shadow.h</text>
</a>
</g>
</g>
<!-- Node2 -->
<g id="node2" class="node">
<title>Node2</title>
<g id="a_node2"><a xlink:href="component_8h.html" target="_top" xlink:title=" ">
<polygon fill="white" stroke="black" points="332,-392.5 332,-411.5 405,-411.5 405,-392.5 332,-392.5"/>
<text text-anchor="middle" x="368.5" y="-399.5" font-family="Helvetica,sans-Serif" font-size="10.00">component.h</text>
</a>
</g>
</g>
<!-- Node1&#45;&gt;Node2 -->
<g id="edge1" class="edge">
<title>Node1&#45;&gt;Node2</title>
<path fill="none" stroke="midnightblue" d="M432.78,-442.9C416.83,-433 396,-420.07 382.44,-411.65"/>
<polygon fill="midnightblue" stroke="midnightblue" points="431.18,-446.02 441.52,-448.32 434.87,-440.08 431.18,-446.02"/>
</g>
<!-- Node5 -->
<g id="node5" class="node">
<title>Node5</title>
<g id="a_node5"><a xlink:href="default__skins_8h.html" target="_top" xlink:title=" ">
<polygon fill="white" stroke="black" points="211,-224.5 211,-243.5 294,-243.5 294,-224.5 211,-224.5"/>
<text text-anchor="middle" x="252.5" y="-231.5" font-family="Helvetica,sans-Serif" font-size="10.00">default_skins.h</text>
</a>
</g>
</g>
<!-- Node1&#45;&gt;Node5 -->
<g id="edge60" class="edge">
<title>Node1&#45;&gt;Node5</title>
<path fill="none" stroke="midnightblue" d="M457.05,-438.17C458.89,-402.34 457.49,-324.02 415.5,-280 398.88,-262.58 336.66,-249.01 294.09,-241.51"/>
<polygon fill="midnightblue" stroke="midnightblue" points="453.55,-438 456.38,-448.21 460.54,-438.46 453.55,-438"/>
</g>
<!-- Node45 -->
<g id="node45" class="node">
<title>Node45</title>
<g id="a_node45"><a xlink:href="shadow_8cpp.html" target="_top" xlink:title=" ">
<polygon fill="white" stroke="black" points="483.5,-392.5 483.5,-411.5 551.5,-411.5 551.5,-392.5 483.5,-392.5"/>
<text text-anchor="middle" x="517.5" y="-399.5" font-family="Helvetica,sans-Serif" font-size="10.00">shadow.cpp</text>
</a>
</g>
</g>
<!-- Node1&#45;&gt;Node45 -->
<g id="edge61" class="edge">
<title>Node1&#45;&gt;Node45</title>
<path fill="none" stroke="midnightblue" d="M473.25,-441.54C484.31,-431.91 498.13,-419.87 507.36,-411.83"/>
<polygon fill="midnightblue" stroke="midnightblue" points="470.7,-439.12 465.46,-448.32 475.3,-444.4 470.7,-439.12"/>
</g>
<!-- Node3 -->
<g id="node3" class="node">
<title>Node3</title>
<g id="a_node3"><a xlink:href="gui__event__dispatching_8cpp.html" target="_top" xlink:title=" ">
<polygon fill="white" stroke="black" points="43.5,-336.5 43.5,-355.5 175.5,-355.5 175.5,-336.5 43.5,-336.5"/>
<text text-anchor="middle" x="109.5" y="-343.5" font-family="Helvetica,sans-Serif" font-size="10.00">gui_event_dispatching.cpp</text>
</a>
</g>
</g>
<!-- Node2&#45;&gt;Node3 -->
<g id="edge2" class="edge">
<title>Node2&#45;&gt;Node3</title>
<path fill="none" stroke="midnightblue" d="M321.96,-391.3C273.16,-381.12 197.22,-365.29 150.57,-355.56"/>
<polygon fill="midnightblue" stroke="midnightblue" points="321.44,-394.76 331.94,-393.38 322.87,-387.91 321.44,-394.76"/>
</g>
<!-- Node4 -->
<g id="node4" class="node">
<title>Node4</title>
<g id="a_node4"><a xlink:href="image__view_8h.html" target="_top" xlink:title=" ">
<polygon fill="white" stroke="black" points="331,-336.5 331,-355.5 406,-355.5 406,-336.5 331,-336.5"/>
<text text-anchor="middle" x="368.5" y="-343.5" font-family="Helvetica,sans-Serif" font-size="10.00">image_view.h</text>
</a>
</g>
</g>
<!-- Node2&#45;&gt;Node4 -->
<g id="edge3" class="edge">
<title>Node2&#45;&gt;Node4</title>
<path fill="none" stroke="midnightblue" d="M368.5,-381.8C368.5,-372.91 368.5,-362.78 368.5,-355.75"/>
<polygon fill="midnightblue" stroke="midnightblue" points="365,-382.08 368.5,-392.08 372,-382.08 365,-382.08"/>
</g>
<!-- Node19 -->
<g id="node19" class="node">
<title>Node19</title>
<g id="a_node19"><a xlink:href="parent_8h.html" target="_top" xlink:title=" ">
<polygon fill="white" stroke="black" points="853.5,-336.5 853.5,-355.5 905.5,-355.5 905.5,-336.5 853.5,-336.5"/>
<text text-anchor="middle" x="879.5" y="-343.5" font-family="Helvetica,sans-Serif" font-size="10.00">parent.h</text>
</a>
</g>
</g>
<!-- Node2&#45;&gt;Node19 -->
<g id="edge21" class="edge">
<title>Node2&#45;&gt;Node19</title>
<path fill="none" stroke="midnightblue" d="M415.23,-396.06C520.13,-384.98 771.51,-358.41 853.3,-349.77"/>
<polygon fill="midnightblue" stroke="midnightblue" points="414.83,-392.58 405.25,-397.12 415.56,-399.55 414.83,-392.58"/>
</g>
<!-- Node38 -->
<g id="node38" class="node">
<title>Node38</title>
<g id="a_node38"><a xlink:href="shape_8h.html" target="_top" xlink:title=" ">
<polygon fill="white" stroke="black" points="194,-336.5 194,-355.5 245,-355.5 245,-336.5 194,-336.5"/>
<text text-anchor="middle" x="219.5" y="-343.5" font-family="Helvetica,sans-Serif" font-size="10.00">shape.h</text>
</a>
</g>
</g>
<!-- Node2&#45;&gt;Node38 -->
<g id="edge50" class="edge">
<title>Node2&#45;&gt;Node38</title>
<path fill="none" stroke="midnightblue" d="M335.13,-388.91C307.12,-378.75 267.8,-364.51 243,-355.52"/>
<polygon fill="midnightblue" stroke="midnightblue" points="334.3,-392.33 344.89,-392.44 336.68,-385.75 334.3,-392.33"/>
</g>
<!-- Node4&#45;&gt;Node5 -->
<g id="edge4" class="edge">
<title>Node4&#45;&gt;Node5</title>
<path fill="none" stroke="midnightblue" d="M384.85,-329.1C397.02,-315.3 409.73,-295.21 398.5,-280 385.98,-263.04 332.69,-249.78 294.1,-242.18"/>
<polygon fill="midnightblue" stroke="midnightblue" points="382.27,-326.74 377.94,-336.41 387.35,-331.55 382.27,-326.74"/>
</g>
<!-- Node18 -->
<g id="node18" class="node">
<title>Node18</title>
<g id="a_node18"><a xlink:href="image__view_8cpp.html" target="_top" xlink:title=" ">
<polygon fill="white" stroke="black" points="303.5,-280.5 303.5,-299.5 389.5,-299.5 389.5,-280.5 303.5,-280.5"/>
<text text-anchor="middle" x="346.5" y="-287.5" font-family="Helvetica,sans-Serif" font-size="10.00">image_view.cpp</text>
</a>
</g>
</g>
<!-- Node4&#45;&gt;Node18 -->
<g id="edge20" class="edge">
<title>Node4&#45;&gt;Node18</title>
<path fill="none" stroke="midnightblue" d="M361.04,-326.69C357.33,-317.59 353.02,-307.01 350.07,-299.75"/>
<polygon fill="midnightblue" stroke="midnightblue" points="357.85,-328.14 364.87,-336.08 364.34,-325.5 357.85,-328.14"/>
</g>
<!-- Node6 -->
<g id="node6" class="node">
<title>Node6</title>
<g id="a_node6"><a xlink:href="button_8h.html" target="_top" xlink:title=" ">
<polygon fill="white" stroke="black" points="266.5,-168.5 266.5,-187.5 318.5,-187.5 318.5,-168.5 266.5,-168.5"/>
<text text-anchor="middle" x="292.5" y="-175.5" font-family="Helvetica,sans-Serif" font-size="10.00">button.h</text>
</a>
</g>
</g>
<!-- Node5&#45;&gt;Node6 -->
<g id="edge5" class="edge">
<title>Node5&#45;&gt;Node6</title>
<path fill="none" stroke="midnightblue" d="M265.2,-215.86C272.13,-206.5 280.41,-195.33 286.02,-187.75"/>
<polygon fill="midnightblue" stroke="midnightblue" points="262.25,-213.96 259.11,-224.08 267.87,-218.13 262.25,-213.96"/>
</g>
<!-- Node9 -->
<g id="node9" class="node">
<title>Node9</title>
<g id="a_node9"><a xlink:href="default__skins_8cpp.html" target="_top" xlink:title=" ">
<polygon fill="white" stroke="black" points="472,-112.5 472,-131.5 565,-131.5 565,-112.5 472,-112.5"/>
<text text-anchor="middle" x="518.5" y="-119.5" font-family="Helvetica,sans-Serif" font-size="10.00">default_skins.cpp</text>
</a>
</g>
</g>
<!-- Node5&#45;&gt;Node9 -->
<g id="edge16" class="edge">
<title>Node5&#45;&gt;Node9</title>
<path fill="none" stroke="midnightblue" d="M248.34,-214.26C246.31,-199.81 246.33,-180.27 257.5,-168 285.55,-137.18 404.71,-127.45 471.91,-124.39"/>
<polygon fill="midnightblue" stroke="midnightblue" points="244.9,-214.91 250.14,-224.12 251.79,-213.66 244.9,-214.91"/>
</g>
<!-- Node15 -->
<g id="node15" class="node">
<title>Node15</title>
<g id="a_node15"><a xlink:href="scroll__bar_8cpp.html" target="_top" xlink:title=" ">
<polygon fill="white" stroke="black" points="337,-168.5 337,-187.5 414,-187.5 414,-168.5 337,-168.5"/>
<text text-anchor="middle" x="375.5" y="-175.5" font-family="Helvetica,sans-Serif" font-size="10.00">scroll_bar.cpp</text>
</a>
</g>
</g>
<!-- Node5&#45;&gt;Node15 -->
<g id="edge17" class="edge">
<title>Node5&#45;&gt;Node15</title>
<path fill="none" stroke="midnightblue" d="M281.27,-220.37C304.31,-210.26 335.98,-196.35 356.1,-187.52"/>
<polygon fill="midnightblue" stroke="midnightblue" points="279.74,-217.22 271.99,-224.44 282.55,-223.63 279.74,-217.22"/>
</g>
<!-- Node16 -->
<g id="node16" class="node">
<title>Node16</title>
<g id="a_node16"><a xlink:href="slider_8cpp.html" target="_top" xlink:title=" ">
<polygon fill="white" stroke="black" points="432.5,-168.5 432.5,-187.5 490.5,-187.5 490.5,-168.5 432.5,-168.5"/>
<text text-anchor="middle" x="461.5" y="-175.5" font-family="Helvetica,sans-Serif" font-size="10.00">slider.cpp</text>
</a>
</g>
</g>
<!-- Node5&#45;&gt;Node16 -->
<g id="edge18" class="edge">
<title>Node5&#45;&gt;Node16</title>
<path fill="none" stroke="midnightblue" d="M295.56,-221.87C336.41,-211.32 396.7,-195.74 432.25,-186.56"/>
<polygon fill="midnightblue" stroke="midnightblue" points="294.42,-218.55 285.62,-224.44 296.17,-225.33 294.42,-218.55"/>
</g>
<!-- Node17 -->
<g id="node17" class="node">
<title>Node17</title>
<g id="a_node17"><a xlink:href="text_8cpp.html" target="_top" xlink:title=" ">
<polygon fill="white" stroke="black" points="157.5,-168.5 157.5,-187.5 209.5,-187.5 209.5,-168.5 157.5,-168.5"/>
<text text-anchor="middle" x="183.5" y="-175.5" font-family="Helvetica,sans-Serif" font-size="10.00">text.cpp</text>
</a>
</g>
</g>
<!-- Node5&#45;&gt;Node17 -->
<g id="edge19" class="edge">
<title>Node5&#45;&gt;Node17</title>
<path fill="none" stroke="midnightblue" d="M233.46,-218.1C221.04,-208.38 205.26,-196.03 194.79,-187.83"/>
<polygon fill="midnightblue" stroke="midnightblue" points="231.38,-220.92 241.41,-224.32 235.7,-215.4 231.38,-220.92"/>
</g>
<!-- Node7 -->
<g id="node7" class="node">
<title>Node7</title>
<g id="a_node7"><a xlink:href="button_8cpp.html" target="_top" xlink:title=" ">
<polygon fill="white" stroke="black" points="261.5,-112.5 261.5,-131.5 323.5,-131.5 323.5,-112.5 261.5,-112.5"/>
<text text-anchor="middle" x="292.5" y="-119.5" font-family="Helvetica,sans-Serif" font-size="10.00">button.cpp</text>
</a>
</g>
</g>
<!-- Node6&#45;&gt;Node7 -->
<g id="edge6" class="edge">
<title>Node6&#45;&gt;Node7</title>
<path fill="none" stroke="midnightblue" d="M292.5,-157.8C292.5,-148.91 292.5,-138.78 292.5,-131.75"/>
<polygon fill="midnightblue" stroke="midnightblue" points="289,-158.08 292.5,-168.08 296,-158.08 289,-158.08"/>
</g>
<!-- Node8 -->
<g id="node8" class="node">
<title>Node8</title>
<g id="a_node8"><a xlink:href="context__menu_8cpp.html" target="_top" xlink:title=" ">
<polygon fill="white" stroke="black" points="652,-0.5 652,-19.5 749,-19.5 749,-0.5 652,-0.5"/>
<text text-anchor="middle" x="700.5" y="-7.5" font-family="Helvetica,sans-Serif" font-size="10.00">context_menu.cpp</text>
</a>
</g>
</g>
<!-- Node6&#45;&gt;Node8 -->
<g id="edge7" class="edge">
<title>Node6&#45;&gt;Node8</title>
<path fill="none" stroke="midnightblue" d="M322.97,-164.6C401.96,-132.47 611.85,-47.07 679.3,-19.62"/>
<polygon fill="midnightblue" stroke="midnightblue" points="321.52,-161.41 313.58,-168.42 324.16,-167.9 321.52,-161.41"/>
</g>
<!-- Node6&#45;&gt;Node9 -->
<g id="edge8" class="edge">
<title>Node6&#45;&gt;Node9</title>
<path fill="none" stroke="midnightblue" d="M328.65,-167.75C387.21,-153.38 444.6,-140 481.12,-131.57"/>
<polygon fill="midnightblue" stroke="midnightblue" points="327.73,-164.37 318.86,-170.16 329.41,-171.17 327.73,-164.37"/>
</g>
<!-- Node10 -->
<g id="node10" class="node">
<title>Node10</title>
<g id="a_node10"><a xlink:href="menu__bar_8h.html" target="_top" xlink:title=" ">
<polygon fill="white" stroke="black" points="600,-112.5 600,-131.5 667,-131.5 667,-112.5 600,-112.5"/>
<text text-anchor="middle" x="633.5" y="-119.5" font-family="Helvetica,sans-Serif" font-size="10.00">menu_bar.h</text>
</a>
</g>
</g>
<!-- Node6&#45;&gt;Node10 -->
<g id="edge9" class="edge">
<title>Node6&#45;&gt;Node10</title>
<path fill="none" stroke="midnightblue" d="M328.87,-167.9C437.56,-146.31 467.4,-147.72 573.5,-132 582.04,-130.73 591.27,-129.36 599.87,-128.07"/>
<polygon fill="midnightblue" stroke="midnightblue" points="327.92,-164.52 318.8,-169.92 329.3,-171.38 327.92,-164.52"/>
</g>
<!-- Node11 -->
<g id="node11" class="node">
<title>Node11</title>
<g id="a_node11"><a xlink:href="menu__bar_8cpp.html" target="_top" xlink:title=" ">
<polygon fill="white" stroke="black" points="557,-0.5 557,-19.5 634,-19.5 634,-0.5 557,-0.5"/>
<text text-anchor="middle" x="595.5" y="-7.5" font-family="Helvetica,sans-Serif" font-size="10.00">menu_bar.cpp</text>
</a>
</g>
</g>
<!-- Node10&#45;&gt;Node11 -->
<g id="edge10" class="edge">
<title>Node10&#45;&gt;Node11</title>
<path fill="none" stroke="midnightblue" d="M625.43,-103.21C621.86,-95.01 617.74,-85.1 614.5,-76 607.4,-56.06 600.89,-32.03 597.65,-19.51"/>
<polygon fill="midnightblue" stroke="midnightblue" points="622.3,-104.78 629.56,-112.49 628.69,-101.93 622.3,-104.78"/>
</g>
<!-- Node12 -->
<g id="node12" class="node">
<title>Node12</title>
<g id="a_node12"><a xlink:href="scene_8h.html" target="_top" xlink:title=" ">
<polygon fill="white" stroke="black" points="624,-56.5 624,-75.5 675,-75.5 675,-56.5 624,-56.5"/>
<text text-anchor="middle" x="649.5" y="-63.5" font-family="Helvetica,sans-Serif" font-size="10.00">scene.h</text>
</a>
</g>
</g>
<!-- Node10&#45;&gt;Node12 -->
<g id="edge11" class="edge">
<title>Node10&#45;&gt;Node12</title>
<path fill="none" stroke="midnightblue" d="M639.01,-102.4C641.69,-93.36 644.78,-82.94 646.91,-75.75"/>
<polygon fill="midnightblue" stroke="midnightblue" points="635.63,-101.5 636.14,-112.08 642.34,-103.49 635.63,-101.5"/>
</g>
<!-- Node12&#45;&gt;Node8 -->
<g id="edge13" class="edge">
<title>Node12&#45;&gt;Node8</title>
<path fill="none" stroke="midnightblue" d="M664.88,-48.72C673.87,-39.2 684.86,-27.56 692.24,-19.75"/>
<polygon fill="midnightblue" stroke="midnightblue" points="662.24,-46.41 657.92,-56.08 667.33,-51.22 662.24,-46.41"/>
</g>
<!-- Node12&#45;&gt;Node11 -->
<g id="edge14" class="edge">
<title>Node12&#45;&gt;Node11</title>
<path fill="none" stroke="midnightblue" d="M633.5,-49C623.93,-39.43 612.14,-27.64 604.25,-19.75"/>
<polygon fill="midnightblue" stroke="midnightblue" points="631.04,-51.49 640.58,-56.08 635.99,-46.54 631.04,-51.49"/>
</g>
<!-- Node13 -->
<g id="node13" class="node">
<title>Node13</title>
<g id="a_node13"><a xlink:href="component_8cpp.html" target="_top" xlink:title=" ">
<polygon fill="white" stroke="black" points="800,-0.5 800,-19.5 883,-19.5 883,-0.5 800,-0.5"/>
<text text-anchor="middle" x="841.5" y="-7.5" font-family="Helvetica,sans-Serif" font-size="10.00">component.cpp</text>
</a>
</g>
</g>
<!-- Node12&#45;&gt;Node13 -->
<g id="edge12" class="edge">
<title>Node12&#45;&gt;Node13</title>
<path fill="none" stroke="midnightblue" d="M685.05,-55C721.23,-44.83 776.7,-29.22 810.96,-19.59"/>
<polygon fill="midnightblue" stroke="midnightblue" points="684.07,-51.64 675.39,-57.72 685.97,-58.38 684.07,-51.64"/>
</g>
<!-- Node14 -->
<g id="node14" class="node">
<title>Node14</title>
<g id="a_node14"><a xlink:href="scene_8cpp.html" target="_top" xlink:title=" ">
<polygon fill="white" stroke="black" points="1051.5,-0.5 1051.5,-19.5 1113.5,-19.5 1113.5,-0.5 1051.5,-0.5"/>
<text text-anchor="middle" x="1082.5" y="-7.5" font-family="Helvetica,sans-Serif" font-size="10.00">scene.cpp</text>
</a>
</g>
</g>
<!-- Node12&#45;&gt;Node14 -->
<g id="edge15" class="edge">
<title>Node12&#45;&gt;Node14</title>
<path fill="none" stroke="midnightblue" d="M685.26,-60.54C768.33,-50.18 973.2,-24.63 1051.44,-14.87"/>
<polygon fill="midnightblue" stroke="midnightblue" points="684.78,-57.07 675.29,-61.78 685.65,-64.02 684.78,-57.07"/>
</g>
<!-- Node19&#45;&gt;Node13 -->
<g id="edge22" class="edge">
<title>Node19&#45;&gt;Node13</title>
<path fill="none" stroke="midnightblue" d="M871.66,-326.91C863.07,-305.42 850.5,-268.28 850.5,-235 850.5,-235 850.5,-235 850.5,-121 850.5,-83.06 845.12,-38.01 842.68,-19.54"/>
<polygon fill="midnightblue" stroke="midnightblue" points="868.52,-328.47 875.59,-336.36 874.98,-325.79 868.52,-328.47"/>
</g>
<!-- Node19&#45;&gt;Node14 -->
<g id="edge49" class="edge">
<title>Node19&#45;&gt;Node14</title>
<path fill="none" stroke="midnightblue" d="M915.62,-340.71C1001.07,-329.57 1208.5,-296.21 1208.5,-235 1208.5,-235 1208.5,-235 1208.5,-121 1208.5,-67.57 1143.41,-34.12 1106.79,-19.53"/>
<polygon fill="midnightblue" stroke="midnightblue" points="915.07,-337.26 905.59,-341.99 915.95,-344.2 915.07,-337.26"/>
</g>
<!-- Node20 -->
<g id="node20" class="node">
<title>Node20</title>
<g id="a_node20"><a xlink:href="container_8h.html" target="_top" xlink:title=" ">
<polygon fill="white" stroke="black" points="958.5,-280.5 958.5,-299.5 1022.5,-299.5 1022.5,-280.5 958.5,-280.5"/>
<text text-anchor="middle" x="990.5" y="-287.5" font-family="Helvetica,sans-Serif" font-size="10.00">container.h</text>
</a>
</g>
</g>
<!-- Node19&#45;&gt;Node20 -->
<g id="edge23" class="edge">
<title>Node19&#45;&gt;Node20</title>
<path fill="none" stroke="midnightblue" d="M906.51,-331.86C927.09,-321.85 954.84,-308.35 972.71,-299.65"/>
<polygon fill="midnightblue" stroke="midnightblue" points="904.8,-328.8 897.33,-336.32 907.86,-335.1 904.8,-328.8"/>
</g>
<!-- Node31 -->
<g id="node31" class="node">
<title>Node31</title>
<g id="a_node31"><a xlink:href="control_8h.html" target="_top" xlink:title=" ">
<polygon fill="white" stroke="black" points="491.5,-280.5 491.5,-299.5 545.5,-299.5 545.5,-280.5 491.5,-280.5"/>
<text text-anchor="middle" x="518.5" y="-287.5" font-family="Helvetica,sans-Serif" font-size="10.00">control.h</text>
</a>
</g>
</g>
<!-- Node19&#45;&gt;Node31 -->
<g id="edge37" class="edge">
<title>Node19&#45;&gt;Node31</title>
<path fill="none" stroke="midnightblue" d="M843.23,-339.57C770.81,-328.74 609.78,-304.65 545.63,-295.06"/>
<polygon fill="midnightblue" stroke="midnightblue" points="842.84,-343.05 853.25,-341.07 843.87,-336.13 842.84,-343.05"/>
</g>
<!-- Node37 -->
<g id="node37" class="node">
<title>Node37</title>
<g id="a_node37"><a xlink:href="parent_8cpp.html" target="_top" xlink:title=" ">
<polygon fill="white" stroke="black" points="878.5,-280.5 878.5,-299.5 940.5,-299.5 940.5,-280.5 878.5,-280.5"/>
<text text-anchor="middle" x="909.5" y="-287.5" font-family="Helvetica,sans-Serif" font-size="10.00">parent.cpp</text>
</a>
</g>
</g>
<!-- Node19&#45;&gt;Node37 -->
<g id="edge48" class="edge">
<title>Node19&#45;&gt;Node37</title>
<path fill="none" stroke="midnightblue" d="M889.35,-327.27C894.47,-318.05 900.52,-307.17 904.64,-299.75"/>
<polygon fill="midnightblue" stroke="midnightblue" points="886.25,-325.64 884.45,-336.08 892.37,-329.04 886.25,-325.64"/>
</g>
<!-- Node21 -->
<g id="node21" class="node">
<title>Node21</title>
<g id="a_node21"><a xlink:href="box__container_8h.html" target="_top" xlink:title=" ">
<polygon fill="white" stroke="black" points="725,-224.5 725,-243.5 810,-243.5 810,-224.5 725,-224.5"/>
<text text-anchor="middle" x="767.5" y="-231.5" font-family="Helvetica,sans-Serif" font-size="10.00">box_container.h</text>
</a>
</g>
</g>
<!-- Node20&#45;&gt;Node21 -->
<g id="edge24" class="edge">
<title>Node20&#45;&gt;Node21</title>
<path fill="none" stroke="midnightblue" d="M948.14,-278.74C906.09,-268.56 842.36,-253.13 802.91,-243.58"/>
<polygon fill="midnightblue" stroke="midnightblue" points="947.53,-282.2 958.07,-281.15 949.18,-275.39 947.53,-282.2"/>
</g>
<!-- Node24 -->
<g id="node24" class="node">
<title>Node24</title>
<g id="a_node24"><a xlink:href="container_8cpp.html" target="_top" xlink:title=" ">
<polygon fill="white" stroke="black" points="1093.5,-224.5 1093.5,-243.5 1167.5,-243.5 1167.5,-224.5 1093.5,-224.5"/>
<text text-anchor="middle" x="1130.5" y="-231.5" font-family="Helvetica,sans-Serif" font-size="10.00">container.cpp</text>
</a>
</g>
</g>
<!-- Node20&#45;&gt;Node24 -->
<g id="edge30" class="edge">
<title>Node20&#45;&gt;Node24</title>
<path fill="none" stroke="midnightblue" d="M1022.2,-276.77C1048.5,-266.63 1085.22,-252.47 1108.42,-243.52"/>
<polygon fill="midnightblue" stroke="midnightblue" points="1020.75,-273.58 1012.68,-280.44 1023.27,-280.11 1020.75,-273.58"/>
</g>
<!-- Node25 -->
<g id="node25" class="node">
<title>Node25</title>
<g id="a_node25"><a xlink:href="layered__container_8h.html" target="_top" xlink:title=" ">
<polygon fill="white" stroke="black" points="892,-224.5 892,-243.5 993,-243.5 993,-224.5 892,-224.5"/>
<text text-anchor="middle" x="942.5" y="-231.5" font-family="Helvetica,sans-Serif" font-size="10.00">layered_container.h</text>
</a>
</g>
</g>
<!-- Node20&#45;&gt;Node25 -->
<g id="edge31" class="edge">
<title>Node20&#45;&gt;Node25</title>
<path fill="none" stroke="midnightblue" d="M975.77,-272.43C967.36,-262.97 957.15,-251.48 950.28,-243.75"/>
<polygon fill="midnightblue" stroke="midnightblue" points="973.31,-274.93 982.57,-280.08 978.55,-270.28 973.31,-274.93"/>
</g>
<!-- Node29 -->
<g id="node29" class="node">
<title>Node29</title>
<g id="a_node29"><a xlink:href="tile__pane_8h.html" target="_top" xlink:title=" ">
<polygon fill="white" stroke="black" points="1011.5,-224.5 1011.5,-243.5 1075.5,-243.5 1075.5,-224.5 1011.5,-224.5"/>
<text text-anchor="middle" x="1043.5" y="-231.5" font-family="Helvetica,sans-Serif" font-size="10.00">tile_pane.h</text>
</a>
</g>
</g>
<!-- Node20&#45;&gt;Node29 -->
<g id="edge35" class="edge">
<title>Node20&#45;&gt;Node29</title>
<path fill="none" stroke="midnightblue" d="M1006.48,-272.72C1015.82,-263.2 1027.25,-251.56 1034.91,-243.75"/>
<polygon fill="midnightblue" stroke="midnightblue" points="1003.76,-270.49 999.25,-280.08 1008.75,-275.4 1003.76,-270.49"/>
</g>
<!-- Node21&#45;&gt;Node9 -->
<g id="edge29" class="edge">
<title>Node21&#45;&gt;Node9</title>
<path fill="none" stroke="midnightblue" d="M715.33,-222.1C684.78,-214.67 645.96,-203.37 613.5,-188 580.09,-172.18 545.35,-145.28 528.66,-131.58"/>
<polygon fill="midnightblue" stroke="midnightblue" points="714.81,-225.58 725.35,-224.48 716.42,-218.77 714.81,-225.58"/>
</g>
<!-- Node22 -->
<g id="node22" class="node">
<title>Node22</title>
<g id="a_node22"><a xlink:href="box__container_8cpp.html" target="_top" xlink:title=" ">
<polygon fill="white" stroke="black" points="727,-168.5 727,-187.5 822,-187.5 822,-168.5 727,-168.5"/>
<text text-anchor="middle" x="774.5" y="-175.5" font-family="Helvetica,sans-Serif" font-size="10.00">box_container.cpp</text>
</a>
</g>
</g>
<!-- Node21&#45;&gt;Node22 -->
<g id="edge25" class="edge">
<title>Node21&#45;&gt;Node22</title>
<path fill="none" stroke="midnightblue" d="M769.95,-214.1C771.11,-205.14 772.44,-194.86 773.37,-187.75"/>
<polygon fill="midnightblue" stroke="midnightblue" points="766.47,-213.72 768.66,-224.08 773.41,-214.62 766.47,-213.72"/>
</g>
<!-- Node23 -->
<g id="node23" class="node">
<title>Node23</title>
<g id="a_node23"><a xlink:href="context__menu_8h.html" target="_top" xlink:title=" ">
<polygon fill="white" stroke="black" points="622.5,-168.5 622.5,-187.5 708.5,-187.5 708.5,-168.5 622.5,-168.5"/>
<text text-anchor="middle" x="665.5" y="-175.5" font-family="Helvetica,sans-Serif" font-size="10.00">context_menu.h</text>
</a>
</g>
</g>
<!-- Node21&#45;&gt;Node23 -->
<g id="edge26" class="edge">
<title>Node21&#45;&gt;Node23</title>
<path fill="none" stroke="midnightblue" d="M742.17,-219.59C723.31,-209.61 698.12,-196.27 681.85,-187.65"/>
<polygon fill="midnightblue" stroke="midnightblue" points="740.64,-222.74 751.11,-224.32 743.91,-216.55 740.64,-222.74"/>
</g>
<!-- Node23&#45;&gt;Node8 -->
<g id="edge27" class="edge">
<title>Node23&#45;&gt;Node8</title>
<path fill="none" stroke="midnightblue" d="M670.21,-158.51C672.23,-150.4 674.56,-140.75 676.5,-132 685.8,-89.97 695.29,-39.35 698.94,-19.54"/>
<polygon fill="midnightblue" stroke="midnightblue" points="666.77,-157.85 667.72,-168.4 673.56,-159.56 666.77,-157.85"/>
</g>
<!-- Node23&#45;&gt;Node10 -->
<g id="edge28" class="edge">
<title>Node23&#45;&gt;Node10</title>
<path fill="none" stroke="midnightblue" d="M655,-159.27C649.53,-150.05 643.08,-139.17 638.69,-131.75"/>
<polygon fill="midnightblue" stroke="midnightblue" points="652.11,-161.26 660.22,-168.08 658.13,-157.7 652.11,-161.26"/>
</g>
<!-- Node26 -->
<g id="node26" class="node">
<title>Node26</title>
<g id="a_node26"><a xlink:href="anchor__pane_8h.html" target="_top" xlink:title=" ">
<polygon fill="white" stroke="black" points="878.5,-168.5 878.5,-187.5 958.5,-187.5 958.5,-168.5 878.5,-168.5"/>
<text text-anchor="middle" x="918.5" y="-175.5" font-family="Helvetica,sans-Serif" font-size="10.00">anchor_pane.h</text>
</a>
</g>
</g>
<!-- Node25&#45;&gt;Node26 -->
<g id="edge32" class="edge">
<title>Node25&#45;&gt;Node26</title>
<path fill="none" stroke="midnightblue" d="M934.36,-214.69C930.32,-205.59 925.62,-195.01 922.39,-187.75"/>
<polygon fill="midnightblue" stroke="midnightblue" points="931.28,-216.37 938.54,-224.08 937.67,-213.52 931.28,-216.37"/>
</g>
<!-- Node28 -->
<g id="node28" class="node">
<title>Node28</title>
<g id="a_node28"><a xlink:href="layered__container_8cpp.html" target="_top" xlink:title=" ">
<polygon fill="white" stroke="black" points="977,-168.5 977,-187.5 1088,-187.5 1088,-168.5 977,-168.5"/>
<text text-anchor="middle" x="1032.5" y="-175.5" font-family="Helvetica,sans-Serif" font-size="10.00">layered_container.cpp</text>
</a>
</g>
</g>
<!-- Node25&#45;&gt;Node28 -->
<g id="edge34" class="edge">
<title>Node25&#45;&gt;Node28</title>
<path fill="none" stroke="midnightblue" d="M965.54,-219.18C982.1,-209.24 1003.92,-196.15 1018.08,-187.65"/>
<polygon fill="midnightblue" stroke="midnightblue" points="963.73,-216.18 956.96,-224.32 967.34,-222.18 963.73,-216.18"/>
</g>
<!-- Node27 -->
<g id="node27" class="node">
<title>Node27</title>
<g id="a_node27"><a xlink:href="anchor__pane_8cpp.html" target="_top" xlink:title=" ">
<polygon fill="white" stroke="black" points="879,-112.5 879,-131.5 970,-131.5 970,-112.5 879,-112.5"/>
<text text-anchor="middle" x="924.5" y="-119.5" font-family="Helvetica,sans-Serif" font-size="10.00">anchor_pane.cpp</text>
</a>
</g>
</g>
<!-- Node26&#45;&gt;Node27 -->
<g id="edge33" class="edge">
<title>Node26&#45;&gt;Node27</title>
<path fill="none" stroke="midnightblue" d="M920.6,-158.1C921.6,-149.14 922.74,-138.86 923.53,-131.75"/>
<polygon fill="midnightblue" stroke="midnightblue" points="917.12,-157.76 919.49,-168.08 924.07,-158.53 917.12,-157.76"/>
</g>
<!-- Node30 -->
<g id="node30" class="node">
<title>Node30</title>
<g id="a_node30"><a xlink:href="tile__pane_8cpp.html" target="_top" xlink:title=" ">
<polygon fill="white" stroke="black" points="1106.5,-168.5 1106.5,-187.5 1180.5,-187.5 1180.5,-168.5 1106.5,-168.5"/>
<text text-anchor="middle" x="1143.5" y="-175.5" font-family="Helvetica,sans-Serif" font-size="10.00">tile_pane.cpp</text>
</a>
</g>
</g>
<!-- Node29&#45;&gt;Node30 -->
<g id="edge36" class="edge">
<title>Node29&#45;&gt;Node30</title>
<path fill="none" stroke="midnightblue" d="M1068.59,-219.45C1087.05,-209.48 1111.6,-196.23 1127.47,-187.65"/>
<polygon fill="midnightblue" stroke="midnightblue" points="1066.7,-216.49 1059.57,-224.32 1070.03,-222.65 1066.7,-216.49"/>
</g>
<!-- Node31&#45;&gt;Node6 -->
<g id="edge38" class="edge">
<title>Node31&#45;&gt;Node6</title>
<path fill="none" stroke="midnightblue" d="M481.6,-280.99C433.25,-270.29 353.18,-251.77 341.5,-244 319.61,-229.44 303.66,-201.73 296.58,-187.66"/>
<polygon fill="midnightblue" stroke="midnightblue" points="480.89,-284.42 491.41,-283.15 482.39,-277.58 480.89,-284.42"/>
</g>
<!-- Node32 -->
<g id="node32" class="node">
<title>Node32</title>
<g id="a_node32"><a xlink:href="control_8cpp.html" target="_top" xlink:title=" ">
<polygon fill="white" stroke="black" points="635,-224.5 635,-243.5 700,-243.5 700,-224.5 635,-224.5"/>
<text text-anchor="middle" x="667.5" y="-231.5" font-family="Helvetica,sans-Serif" font-size="10.00">control.cpp</text>
</a>
</g>
</g>
<!-- Node31&#45;&gt;Node32 -->
<g id="edge39" class="edge">
<title>Node31&#45;&gt;Node32</title>
<path fill="none" stroke="midnightblue" d="M551.87,-276.91C579.88,-266.75 619.2,-252.51 644,-243.52"/>
<polygon fill="midnightblue" stroke="midnightblue" points="550.32,-273.75 542.11,-280.44 552.7,-280.33 550.32,-273.75"/>
</g>
<!-- Node33 -->
<g id="node33" class="node">
<title>Node33</title>
<g id="a_node33"><a xlink:href="label_8h.html" target="_top" xlink:title=" ">
<polygon fill="white" stroke="black" points="351,-224.5 351,-243.5 396,-243.5 396,-224.5 351,-224.5"/>
<text text-anchor="middle" x="373.5" y="-231.5" font-family="Helvetica,sans-Serif" font-size="10.00">label.h</text>
</a>
</g>
</g>
<!-- Node31&#45;&gt;Node33 -->
<g id="edge40" class="edge">
<title>Node31&#45;&gt;Node33</title>
<path fill="none" stroke="midnightblue" d="M486.02,-276.91C458.76,-266.75 420.51,-252.51 396.37,-243.52"/>
<polygon fill="midnightblue" stroke="midnightblue" points="484.93,-280.23 495.52,-280.44 487.37,-273.67 484.93,-280.23"/>
</g>
<!-- Node34 -->
<g id="node34" class="node">
<title>Node34</title>
<g id="a_node34"><a xlink:href="scroll__bar_8h.html" target="_top" xlink:title=" ">
<polygon fill="white" stroke="black" points="485.5,-224.5 485.5,-243.5 551.5,-243.5 551.5,-224.5 485.5,-224.5"/>
<text text-anchor="middle" x="518.5" y="-231.5" font-family="Helvetica,sans-Serif" font-size="10.00">scroll_bar.h</text>
</a>
</g>
</g>
<!-- Node31&#45;&gt;Node34 -->
<g id="edge41" class="edge">
<title>Node31&#45;&gt;Node34</title>
<path fill="none" stroke="midnightblue" d="M518.5,-269.8C518.5,-260.91 518.5,-250.78 518.5,-243.75"/>
<polygon fill="midnightblue" stroke="midnightblue" points="515,-270.08 518.5,-280.08 522,-270.08 515,-270.08"/>
</g>
<!-- Node35 -->
<g id="node35" class="node">
<title>Node35</title>
<g id="a_node35"><a xlink:href="skin_8cpp.html" target="_top" xlink:title=" ">
<polygon fill="white" stroke="black" points="414,-224.5 414,-243.5 467,-243.5 467,-224.5 414,-224.5"/>
<text text-anchor="middle" x="440.5" y="-231.5" font-family="Helvetica,sans-Serif" font-size="10.00">skin.cpp</text>
</a>
</g>
</g>
<!-- Node31&#45;&gt;Node35 -->
<g id="edge44" class="edge">
<title>Node31&#45;&gt;Node35</title>
<path fill="none" stroke="midnightblue" d="M497.73,-274.62C483.48,-264.76 465.04,-251.99 453,-243.65"/>
<polygon fill="midnightblue" stroke="midnightblue" points="495.75,-277.51 505.97,-280.32 499.74,-271.75 495.75,-277.51"/>
</g>
<!-- Node36 -->
<g id="node36" class="node">
<title>Node36</title>
<g id="a_node36"><a xlink:href="slider_8h.html" target="_top" xlink:title=" ">
<polygon fill="white" stroke="black" points="570,-224.5 570,-243.5 617,-243.5 617,-224.5 570,-224.5"/>
<text text-anchor="middle" x="593.5" y="-231.5" font-family="Helvetica,sans-Serif" font-size="10.00">slider.h</text>
</a>
</g>
</g>
<!-- Node31&#45;&gt;Node36 -->
<g id="edge45" class="edge">
<title>Node31&#45;&gt;Node36</title>
<path fill="none" stroke="midnightblue" d="M538.81,-274.38C552.36,-264.62 569.74,-252.11 581.23,-243.83"/>
<polygon fill="midnightblue" stroke="midnightblue" points="536.62,-271.64 530.55,-280.32 540.71,-277.32 536.62,-271.64"/>
</g>
<!-- Node34&#45;&gt;Node9 -->
<g id="edge42" class="edge">
<title>Node34&#45;&gt;Node9</title>
<path fill="none" stroke="midnightblue" d="M518.5,-214.35C518.5,-190.25 518.5,-149.31 518.5,-131.59"/>
<polygon fill="midnightblue" stroke="midnightblue" points="515,-214.37 518.5,-224.37 522,-214.37 515,-214.37"/>
</g>
<!-- Node34&#45;&gt;Node15 -->
<g id="edge43" class="edge">
<title>Node34&#45;&gt;Node15</title>
<path fill="none" stroke="midnightblue" d="M486.47,-220.91C459.59,-210.75 421.86,-196.51 398.05,-187.52"/>
<polygon fill="midnightblue" stroke="midnightblue" points="485.25,-224.19 495.84,-224.44 487.72,-217.64 485.25,-224.19"/>
</g>
<!-- Node36&#45;&gt;Node9 -->
<g id="edge46" class="edge">
<title>Node36&#45;&gt;Node9</title>
<path fill="none" stroke="midnightblue" d="M581.88,-215.96C565.63,-192.12 536.71,-149.71 524.36,-131.59"/>
<polygon fill="midnightblue" stroke="midnightblue" points="579.09,-218.08 587.61,-224.37 584.87,-214.13 579.09,-218.08"/>
</g>
<!-- Node36&#45;&gt;Node16 -->
<g id="edge47" class="edge">
<title>Node36&#45;&gt;Node16</title>
<path fill="none" stroke="midnightblue" d="M563.28,-220.64C538.51,-210.5 504.1,-196.43 482.32,-187.52"/>
<polygon fill="midnightblue" stroke="midnightblue" points="562,-223.9 572.58,-224.44 564.65,-217.42 562,-223.9"/>
</g>
<!-- Node39 -->
<g id="node39" class="node">
<title>Node39</title>
<g id="a_node39"><a xlink:href="circle_8h.html" target="_top" xlink:title=" ">
<polygon fill="white" stroke="black" points="9.5,-280.5 9.5,-299.5 57.5,-299.5 57.5,-280.5 9.5,-280.5"/>
<text text-anchor="middle" x="33.5" y="-287.5" font-family="Helvetica,sans-Serif" font-size="10.00">circle.h</text>
</a>
</g>
</g>
<!-- Node38&#45;&gt;Node39 -->
<g id="edge51" class="edge">
<title>Node38&#45;&gt;Node39</title>
<path fill="none" stroke="midnightblue" d="M183.75,-334.62C146.68,-323.86 89.76,-307.33 57.67,-298.02"/>
<polygon fill="midnightblue" stroke="midnightblue" points="183.06,-338.06 193.64,-337.49 185.01,-331.34 183.06,-338.06"/>
</g>
<!-- Node41 -->
<g id="node41" class="node">
<title>Node41</title>
<g id="a_node41"><a xlink:href="rectangle_8h.html" target="_top" xlink:title=" ">
<polygon fill="white" stroke="black" points="81,-280.5 81,-299.5 146,-299.5 146,-280.5 81,-280.5"/>
<text text-anchor="middle" x="113.5" y="-287.5" font-family="Helvetica,sans-Serif" font-size="10.00">rectangle.h</text>
</a>
</g>
</g>
<!-- Node38&#45;&gt;Node41 -->
<g id="edge53" class="edge">
<title>Node38&#45;&gt;Node41</title>
<path fill="none" stroke="midnightblue" d="M193.44,-331.73C173.82,-321.73 147.47,-308.31 130.49,-299.65"/>
<polygon fill="midnightblue" stroke="midnightblue" points="191.97,-334.9 202.47,-336.32 195.15,-328.67 191.97,-334.9"/>
</g>
<!-- Node43 -->
<g id="node43" class="node">
<title>Node43</title>
<g id="a_node43"><a xlink:href="shape_8cpp.html" target="_top" xlink:title=" ">
<polygon fill="white" stroke="black" points="223.5,-280.5 223.5,-299.5 285.5,-299.5 285.5,-280.5 223.5,-280.5"/>
<text text-anchor="middle" x="254.5" y="-287.5" font-family="Helvetica,sans-Serif" font-size="10.00">shape.cpp</text>
</a>
</g>
</g>
<!-- Node38&#45;&gt;Node43 -->
<g id="edge56" class="edge">
<title>Node38&#45;&gt;Node43</title>
<path fill="none" stroke="midnightblue" d="M230.8,-327.57C236.82,-318.27 243.97,-307.25 248.83,-299.75"/>
<polygon fill="midnightblue" stroke="midnightblue" points="227.78,-325.79 225.28,-336.08 233.66,-329.6 227.78,-325.79"/>
</g>
<!-- Node44 -->
<g id="node44" class="node">
<title>Node44</title>
<g id="a_node44"><a xlink:href="text_8h.html" target="_top" xlink:title=" ">
<polygon fill="white" stroke="black" points="164,-280.5 164,-299.5 205,-299.5 205,-280.5 164,-280.5"/>
<text text-anchor="middle" x="184.5" y="-287.5" font-family="Helvetica,sans-Serif" font-size="10.00">text.h</text>
</a>
</g>
</g>
<!-- Node38&#45;&gt;Node44 -->
<g id="edge57" class="edge">
<title>Node38&#45;&gt;Node44</title>
<path fill="none" stroke="midnightblue" d="M208.2,-327.57C202.18,-318.27 195.03,-307.25 190.17,-299.75"/>
<polygon fill="midnightblue" stroke="midnightblue" points="205.34,-329.6 213.72,-336.08 211.22,-325.79 205.34,-329.6"/>
</g>
<!-- Node40 -->
<g id="node40" class="node">
<title>Node40</title>
<g id="a_node40"><a xlink:href="circle_8cpp.html" target="_top" xlink:title=" ">
<polygon fill="white" stroke="black" points="0,-224.5 0,-243.5 59,-243.5 59,-224.5 0,-224.5"/>
<text text-anchor="middle" x="29.5" y="-231.5" font-family="Helvetica,sans-Serif" font-size="10.00">circle.cpp</text>
</a>
</g>
</g>
<!-- Node39&#45;&gt;Node40 -->
<g id="edge52" class="edge">
<title>Node39&#45;&gt;Node40</title>
<path fill="none" stroke="midnightblue" d="M32.1,-270.1C31.44,-261.14 30.67,-250.86 30.15,-243.75"/>
<polygon fill="midnightblue" stroke="midnightblue" points="28.61,-270.37 32.84,-280.08 35.59,-269.85 28.61,-270.37"/>
</g>
<!-- Node41&#45;&gt;Node5 -->
<g id="edge54" class="edge">
<title>Node41&#45;&gt;Node5</title>
<path fill="none" stroke="midnightblue" d="M144.98,-276.77C171.09,-266.63 207.54,-252.47 230.58,-243.52"/>
<polygon fill="midnightblue" stroke="midnightblue" points="143.58,-273.56 135.52,-280.44 146.11,-280.08 143.58,-273.56"/>
</g>
<!-- Node42 -->
<g id="node42" class="node">
<title>Node42</title>
<g id="a_node42"><a xlink:href="rectangle_8cpp.html" target="_top" xlink:title=" ">
<polygon fill="white" stroke="black" points="77,-224.5 77,-243.5 152,-243.5 152,-224.5 77,-224.5"/>
<text text-anchor="middle" x="114.5" y="-231.5" font-family="Helvetica,sans-Serif" font-size="10.00">rectangle.cpp</text>
</a>
</g>
</g>
<!-- Node41&#45;&gt;Node42 -->
<g id="edge55" class="edge">
<title>Node41&#45;&gt;Node42</title>
<path fill="none" stroke="midnightblue" d="M113.86,-269.8C114.02,-260.91 114.21,-250.78 114.34,-243.75"/>
<polygon fill="midnightblue" stroke="midnightblue" points="110.35,-270.02 113.67,-280.08 117.35,-270.15 110.35,-270.02"/>
</g>
<!-- Node44&#45;&gt;Node5 -->
<g id="edge58" class="edge">
<title>Node44&#45;&gt;Node5</title>
<path fill="none" stroke="midnightblue" d="M203.26,-274.1C215.5,-264.38 231.06,-252.03 241.38,-243.83"/>
<polygon fill="midnightblue" stroke="midnightblue" points="201.08,-271.36 195.43,-280.32 205.43,-276.85 201.08,-271.36"/>
</g>
<!-- Node44&#45;&gt;Node17 -->
<g id="edge59" class="edge">
<title>Node44&#45;&gt;Node17</title>
<path fill="none" stroke="midnightblue" d="M184.33,-270.35C184.11,-246.25 183.74,-205.31 183.58,-187.59"/>
<polygon fill="midnightblue" stroke="midnightblue" points="180.83,-270.4 184.42,-280.37 187.83,-270.34 180.83,-270.4"/>
</g>
</g>
</svg>
