<?xml version="1.0" encoding="UTF-8" standalone="no"?>
<!DOCTYPE svg PUBLIC "-//W3C//DTD SVG 1.1//EN"
 "http://www.w3.org/Graphics/SVG/1.1/DTD/svg11.dtd">
<!-- Generated by graphviz version 2.50.0 (20211204.2007)
 -->
<!-- Title: shapes.h Pages: 1 -->
<!--zoomable 364 -->
<svg id="main" version="1.1" xmlns="http://www.w3.org/2000/svg" xmlns:xlink="http://www.w3.org/1999/xlink" xml:space="preserve" onload="init(evt)">
<style type="text/css"><![CDATA[
.edge:hover path { stroke: red; }
.edge:hover polygon { stroke: red; fill: red; }
]]></style>
<script type="text/javascript"><![CDATA[
var edges = document.getElementsByTagName('g');
if (edges && edges.length) {
  for (var i=0;i<edges.length;i++) {
    if (edges[i].id.substr(0,4)=='edge') {
      edges[i].setAttribute('class','edge');
    }
  }
}
]]></script>
        <defs>
                <circle id="rim" cx="0" cy="0" r="7"/>
                <circle id="rim2" cx="0" cy="0" r="3.5"/>
                <g id="zoomPlus">
                        <use xlink:href="#rim" fill="#404040">
                                <set attributeName="fill" to="#808080" begin="zoomplus.mouseover" end="zoomplus.mouseout"/>
                        </use>
                        <path d="M-4,0h8M0,-4v8" fill="none" stroke="white" stroke-width="1.5" pointer-events="none"/>
                </g>
                <g id="zoomMin">
                        <use xlink:href="#rim" fill="#404040">
                                <set attributeName="fill" to="#808080" begin="zoomminus.mouseover" end="zoomminus.mouseout"/>
                        </use>
                        <path d="M-4,0h8" fill="none" stroke="white" stroke-width="1.5" pointer-events="none"/>
                </g>
                <g id="dirArrow">
                        <path fill="none" stroke="white" stroke-width="1.5" d="M0,-3.0v7 M-2.5,-0.5L0,-3.0L2.5,-0.5"/>
                </g>
               <g id="resetDef">
                       <use xlink:href="#rim2" fill="#404040">
                               <set attributeName="fill" to="#808080" begin="reset.mouseover" end="reset.mouseout"/>
                       </use>
               </g>
        </defs>

<script type="text/javascript">
var viewWidth = 1294;
var viewHeight = 364;
var sectionId = 'dynsection-0';
</script>
<script xlink:href="svgpan.js"/>
<svg id="graph" class="graph">
<g id="viewport">
<title>shapes.h</title>
<polygon fill="white" stroke="transparent" points="-4,4 -4,-360 1289.5,-360 1289.5,4 -4,4"/>
<!-- Node1 -->
<g id="node1" class="node">
<title>Node1</title>
<g id="a_node1"><a xlink:title=" ">
<polygon fill="#bfbfbf" stroke="black" points="1052.5,-336.5 1052.5,-355.5 1108.5,-355.5 1108.5,-336.5 1052.5,-336.5"/>
<text text-anchor="middle" x="1080.5" y="-343.5" font-family="Helvetica,sans-Serif" font-size="10.00">shapes.h</text>
</a>
</g>
</g>
<!-- Node2 -->
<g id="node2" class="node">
<title>Node2</title>
<g id="a_node2"><a xlink:href="circle_8h.html" target="_top" xlink:title=" ">
<polygon fill="white" stroke="black" points="886.5,-280.5 886.5,-299.5 998.5,-299.5 998.5,-280.5 886.5,-280.5"/>
<text text-anchor="middle" x="942.5" y="-287.5" font-family="Helvetica,sans-Serif" font-size="10.00">scene/shapes/circle.h</text>
</a>
</g>
</g>
<!-- Node1&#45;&gt;Node2 -->
<g id="edge1" class="edge">
<title>Node1&#45;&gt;Node2</title>
<path fill="none" stroke="midnightblue" d="M1058.63,-336.44C1035.72,-327.48 999.52,-313.31 973.63,-303.18"/>
<polygon fill="midnightblue" stroke="midnightblue" points="974.85,-299.9 964.26,-299.52 972.3,-306.42 974.85,-299.9"/>
</g>
<!-- Node26 -->
<g id="node26" class="node">
<title>Node26</title>
<g id="a_node26"><a xlink:href="rectangle_8h.html" target="_top" xlink:title=" ">
<polygon fill="white" stroke="black" points="1016.5,-280.5 1016.5,-299.5 1144.5,-299.5 1144.5,-280.5 1016.5,-280.5"/>
<text text-anchor="middle" x="1080.5" y="-287.5" font-family="Helvetica,sans-Serif" font-size="10.00">scene/shapes/rectangle.h</text>
</a>
</g>
</g>
<!-- Node1&#45;&gt;Node26 -->
<g id="edge32" class="edge">
<title>Node1&#45;&gt;Node26</title>
<path fill="none" stroke="midnightblue" d="M1080.5,-336.08C1080.5,-329.01 1080.5,-318.86 1080.5,-309.99"/>
<polygon fill="midnightblue" stroke="midnightblue" points="1084,-309.75 1080.5,-299.75 1077,-309.75 1084,-309.75"/>
</g>
<!-- Node27 -->
<g id="node27" class="node">
<title>Node27</title>
<g id="a_node27"><a xlink:href="text_8h.html" target="_top" xlink:title=" ">
<polygon fill="white" stroke="black" points="1163,-280.5 1163,-299.5 1268,-299.5 1268,-280.5 1163,-280.5"/>
<text text-anchor="middle" x="1215.5" y="-287.5" font-family="Helvetica,sans-Serif" font-size="10.00">scene/shapes/text.h</text>
</a>
</g>
</g>
<!-- Node1&#45;&gt;Node27 -->
<g id="edge35" class="edge">
<title>Node1&#45;&gt;Node27</title>
<path fill="none" stroke="midnightblue" d="M1101.89,-336.44C1124.21,-327.52 1159.4,-313.44 1184.71,-303.32"/>
<polygon fill="midnightblue" stroke="midnightblue" points="1186.22,-306.48 1194.21,-299.52 1183.62,-299.98 1186.22,-306.48"/>
</g>
<!-- Node3 -->
<g id="node3" class="node">
<title>Node3</title>
<g id="a_node3"><a xlink:href="shape_8h.html" target="_top" xlink:title=" ">
<polygon fill="white" stroke="black" points="920,-224.5 920,-243.5 971,-243.5 971,-224.5 920,-224.5"/>
<text text-anchor="middle" x="945.5" y="-231.5" font-family="Helvetica,sans-Serif" font-size="10.00">shape.h</text>
</a>
</g>
</g>
<!-- Node2&#45;&gt;Node3 -->
<g id="edge2" class="edge">
<title>Node2&#45;&gt;Node3</title>
<path fill="none" stroke="midnightblue" d="M943,-280.08C943.39,-273.01 943.95,-262.86 944.45,-253.99"/>
<polygon fill="midnightblue" stroke="midnightblue" points="947.95,-253.93 945.01,-243.75 940.96,-253.54 947.95,-253.93"/>
</g>
<!-- Node4 -->
<g id="node4" class="node">
<title>Node4</title>
<g id="a_node4"><a xlink:href="component_8h.html" target="_top" xlink:title=" ">
<polygon fill="white" stroke="black" points="435.5,-168.5 435.5,-187.5 517.5,-187.5 517.5,-168.5 435.5,-168.5"/>
<text text-anchor="middle" x="476.5" y="-175.5" font-family="Helvetica,sans-Serif" font-size="10.00">../component.h</text>
</a>
</g>
</g>
<!-- Node3&#45;&gt;Node4 -->
<g id="edge3" class="edge">
<title>Node3&#45;&gt;Node4</title>
<path fill="none" stroke="midnightblue" d="M919.95,-230.06C845.55,-221.49 627.99,-196.44 527.93,-184.92"/>
<polygon fill="midnightblue" stroke="midnightblue" points="528.1,-181.42 517.76,-183.75 527.3,-188.37 528.1,-181.42"/>
</g>
<!-- Node17 -->
<g id="node17" class="node">
<title>Node17</title>
<g id="a_node17"><a xlink:href="background_8h.html" target="_top" xlink:title=" ">
<polygon fill="white" stroke="black" points="705,-168.5 705,-187.5 822,-187.5 822,-168.5 705,-168.5"/>
<text text-anchor="middle" x="763.5" y="-175.5" font-family="Helvetica,sans-Serif" font-size="10.00">../../paint/background.h</text>
</a>
</g>
</g>
<!-- Node3&#45;&gt;Node17 -->
<g id="edge17" class="edge">
<title>Node3&#45;&gt;Node17</title>
<path fill="none" stroke="midnightblue" d="M919.81,-225.38C889.22,-216.3 837.82,-201.05 802.36,-190.53"/>
<polygon fill="midnightblue" stroke="midnightblue" points="802.95,-187.05 792.36,-187.56 800.95,-193.76 802.95,-187.05"/>
</g>
<!-- Node22 -->
<g id="node22" class="node">
<title>Node22</title>
<g id="a_node22"><a xlink:href="border_8h.html" target="_top" xlink:title=" ">
<polygon fill="white" stroke="black" points="900,-168.5 900,-187.5 993,-187.5 993,-168.5 900,-168.5"/>
<text text-anchor="middle" x="946.5" y="-175.5" font-family="Helvetica,sans-Serif" font-size="10.00">../../paint/border.h</text>
</a>
</g>
</g>
<!-- Node3&#45;&gt;Node22 -->
<g id="edge27" class="edge">
<title>Node3&#45;&gt;Node22</title>
<path fill="none" stroke="midnightblue" d="M945.67,-224.08C945.8,-217.01 945.98,-206.86 946.15,-197.99"/>
<polygon fill="midnightblue" stroke="midnightblue" points="949.65,-197.81 946.34,-187.75 942.65,-197.68 949.65,-197.81"/>
</g>
<!-- Node5 -->
<g id="node5" class="node">
<title>Node5</title>
<g id="a_node5"><a xlink:title=" ">
<polygon fill="white" stroke="#bfbfbf" points="144.5,-112.5 144.5,-131.5 284.5,-131.5 284.5,-112.5 144.5,-112.5"/>
<text text-anchor="middle" x="214.5" y="-119.5" font-family="Helvetica,sans-Serif" font-size="10.00">sml/sml_graphics_wrapper.h</text>
</a>
</g>
</g>
<!-- Node4&#45;&gt;Node5 -->
<g id="edge4" class="edge">
<title>Node4&#45;&gt;Node5</title>
<path fill="none" stroke="midnightblue" d="M435.27,-168.5C389.44,-159.06 315.34,-143.78 265.79,-133.57"/>
<polygon fill="midnightblue" stroke="midnightblue" points="266.42,-130.13 255.92,-131.54 265.01,-136.98 266.42,-130.13"/>
</g>
<!-- Node6 -->
<g id="node6" class="node">
<title>Node6</title>
<g id="a_node6"><a xlink:href="gui__event__dispatching_8h.html" target="_top" xlink:title=" ">
<polygon fill="white" stroke="black" points="303,-112.5 303,-131.5 466,-131.5 466,-112.5 303,-112.5"/>
<text text-anchor="middle" x="384.5" y="-119.5" font-family="Helvetica,sans-Serif" font-size="10.00">../events/gui_event_dispatching.h</text>
</a>
</g>
</g>
<!-- Node4&#45;&gt;Node6 -->
<g id="edge5" class="edge">
<title>Node4&#45;&gt;Node6</title>
<path fill="none" stroke="midnightblue" d="M461.72,-168.32C447.23,-159.82 424.93,-146.73 408.01,-136.8"/>
<polygon fill="midnightblue" stroke="midnightblue" points="409.64,-133.7 399.24,-131.65 406.1,-139.74 409.64,-133.7"/>
</g>
<!-- Node14 -->
<g id="node14" class="node">
<title>Node14</title>
<g id="a_node14"><a xlink:href="shadow_8h.html" target="_top" xlink:title=" ">
<polygon fill="white" stroke="black" points="522.5,-112.5 522.5,-131.5 612.5,-131.5 612.5,-112.5 522.5,-112.5"/>
<text text-anchor="middle" x="567.5" y="-119.5" font-family="Helvetica,sans-Serif" font-size="10.00">../paint/shadow.h</text>
</a>
</g>
</g>
<!-- Node4&#45;&gt;Node14 -->
<g id="edge14" class="edge">
<title>Node4&#45;&gt;Node14</title>
<path fill="none" stroke="midnightblue" d="M491.12,-168.32C505.45,-159.82 527.51,-146.73 544.25,-136.8"/>
<polygon fill="midnightblue" stroke="midnightblue" points="546.1,-139.77 552.92,-131.65 542.53,-133.75 546.1,-139.77"/>
</g>
<!-- Node7 -->
<g id="node7" class="node">
<title>Node7</title>
<g id="a_node7"><a xlink:title=" ">
<polygon fill="white" stroke="#bfbfbf" points="456.5,-56.5 456.5,-75.5 500.5,-75.5 500.5,-56.5 456.5,-56.5"/>
<text text-anchor="middle" x="478.5" y="-63.5" font-family="Helvetica,sans-Serif" font-size="10.00">vector</text>
</a>
</g>
</g>
<!-- Node6&#45;&gt;Node7 -->
<g id="edge6" class="edge">
<title>Node6&#45;&gt;Node7</title>
<path fill="none" stroke="midnightblue" d="M399.6,-112.32C414.4,-103.82 437.19,-90.73 454.48,-80.8"/>
<polygon fill="midnightblue" stroke="midnightblue" points="456.51,-83.67 463.43,-75.65 453.02,-77.6 456.51,-83.67"/>
</g>
<!-- Node8 -->
<g id="node8" class="node">
<title>Node8</title>
<g id="a_node8"><a xlink:title=" ">
<polygon fill="white" stroke="#bfbfbf" points="0,-56.5 0,-75.5 155,-75.5 155,-56.5 0,-56.5"/>
<text text-anchor="middle" x="77.5" y="-63.5" font-family="Helvetica,sans-Serif" font-size="10.00">sml/events/event_dispatching.h</text>
</a>
</g>
</g>
<!-- Node6&#45;&gt;Node8 -->
<g id="edge7" class="edge">
<title>Node6&#45;&gt;Node8</title>
<path fill="none" stroke="midnightblue" d="M335.85,-112.44C281.63,-102.9 193.95,-87.48 136.02,-77.29"/>
<polygon fill="midnightblue" stroke="midnightblue" points="136.37,-73.8 125.92,-75.52 135.16,-80.7 136.37,-73.8"/>
</g>
<!-- Node9 -->
<g id="node9" class="node">
<title>Node9</title>
<g id="a_node9"><a xlink:title=" ">
<polygon fill="white" stroke="#bfbfbf" points="173,-56.5 173,-75.5 314,-75.5 314,-56.5 173,-56.5"/>
<text text-anchor="middle" x="243.5" y="-63.5" font-family="Helvetica,sans-Serif" font-size="10.00">sml/events/listener_notifier.h</text>
</a>
</g>
</g>
<!-- Node6&#45;&gt;Node9 -->
<g id="edge8" class="edge">
<title>Node6&#45;&gt;Node9</title>
<path fill="none" stroke="midnightblue" d="M362.16,-112.44C338.75,-103.48 301.76,-89.31 275.31,-79.18"/>
<polygon fill="midnightblue" stroke="midnightblue" points="276.33,-75.82 265.74,-75.52 273.82,-82.36 276.33,-75.82"/>
</g>
<!-- Node10 -->
<g id="node10" class="node">
<title>Node10</title>
<g id="a_node10"><a xlink:title=" ">
<polygon fill="white" stroke="#bfbfbf" points="232,-0.5 232,-19.5 375,-19.5 375,-0.5 232,-0.5"/>
<text text-anchor="middle" x="303.5" y="-7.5" font-family="Helvetica,sans-Serif" font-size="10.00">sml/events/system_events.h</text>
</a>
</g>
</g>
<!-- Node6&#45;&gt;Node10 -->
<g id="edge9" class="edge">
<title>Node6&#45;&gt;Node10</title>
<path fill="none" stroke="midnightblue" d="M378.14,-112.37C364.72,-94.14 333.27,-51.43 315.78,-27.68"/>
<polygon fill="midnightblue" stroke="midnightblue" points="318.57,-25.57 309.83,-19.59 312.94,-29.72 318.57,-25.57"/>
</g>
<!-- Node11 -->
<g id="node11" class="node">
<title>Node11</title>
<g id="a_node11"><a xlink:href="gui__event_8h.html" target="_top" xlink:title=" ">
<polygon fill="white" stroke="black" points="371,-56.5 371,-75.5 438,-75.5 438,-56.5 371,-56.5"/>
<text text-anchor="middle" x="404.5" y="-63.5" font-family="Helvetica,sans-Serif" font-size="10.00">gui_event.h</text>
</a>
</g>
</g>
<!-- Node6&#45;&gt;Node11 -->
<g id="edge10" class="edge">
<title>Node6&#45;&gt;Node11</title>
<path fill="none" stroke="midnightblue" d="M387.8,-112.08C390.48,-104.85 394.35,-94.41 397.69,-85.4"/>
<polygon fill="midnightblue" stroke="midnightblue" points="401.07,-86.34 401.26,-75.75 394.5,-83.91 401.07,-86.34"/>
</g>
<!-- Node11&#45;&gt;Node10 -->
<g id="edge12" class="edge">
<title>Node11&#45;&gt;Node10</title>
<path fill="none" stroke="midnightblue" d="M388.27,-56.32C372.15,-47.7 347.2,-34.36 328.54,-24.39"/>
<polygon fill="midnightblue" stroke="midnightblue" points="330.16,-21.28 319.69,-19.65 326.86,-27.46 330.16,-21.28"/>
</g>
<!-- Node12 -->
<g id="node12" class="node">
<title>Node12</title>
<g id="a_node12"><a xlink:title=" ">
<polygon fill="white" stroke="#bfbfbf" points="393.5,-0.5 393.5,-19.5 493.5,-19.5 493.5,-0.5 393.5,-0.5"/>
<text text-anchor="middle" x="443.5" y="-7.5" font-family="Helvetica,sans-Serif" font-size="10.00">sml/events/event.h</text>
</a>
</g>
</g>
<!-- Node11&#45;&gt;Node12 -->
<g id="edge11" class="edge">
<title>Node11&#45;&gt;Node12</title>
<path fill="none" stroke="midnightblue" d="M410.94,-56.08C416.45,-48.46 424.53,-37.26 431.26,-27.94"/>
<polygon fill="midnightblue" stroke="midnightblue" points="434.16,-29.91 437.18,-19.75 428.49,-25.81 434.16,-29.91"/>
</g>
<!-- Node13 -->
<g id="node13" class="node">
<title>Node13</title>
<g id="a_node13"><a xlink:title=" ">
<polygon fill="white" stroke="#bfbfbf" points="512,-0.5 512,-19.5 589,-19.5 589,-0.5 512,-0.5"/>
<text text-anchor="middle" x="550.5" y="-7.5" font-family="Helvetica,sans-Serif" font-size="10.00">sml/sml_log.h</text>
</a>
</g>
</g>
<!-- Node11&#45;&gt;Node13 -->
<g id="edge13" class="edge">
<title>Node11&#45;&gt;Node13</title>
<path fill="none" stroke="midnightblue" d="M427.63,-56.44C451.98,-47.44 490.51,-33.19 517.92,-23.05"/>
<polygon fill="midnightblue" stroke="midnightblue" points="519.31,-26.27 527.47,-19.52 516.88,-19.7 519.31,-26.27"/>
</g>
<!-- Node15 -->
<g id="node15" class="node">
<title>Node15</title>
<g id="a_node15"><a xlink:title=" ">
<polygon fill="white" stroke="#bfbfbf" points="519,-56.5 519,-75.5 602,-75.5 602,-56.5 519,-56.5"/>
<text text-anchor="middle" x="560.5" y="-63.5" font-family="Helvetica,sans-Serif" font-size="10.00">sml/math/blur.h</text>
</a>
</g>
</g>
<!-- Node14&#45;&gt;Node15 -->
<g id="edge15" class="edge">
<title>Node14&#45;&gt;Node15</title>
<path fill="none" stroke="midnightblue" d="M566.34,-112.08C565.42,-104.93 564.08,-94.64 562.92,-85.69"/>
<polygon fill="midnightblue" stroke="midnightblue" points="566.39,-85.22 561.63,-75.75 559.45,-86.12 566.39,-85.22"/>
</g>
<!-- Node16 -->
<g id="node16" class="node">
<title>Node16</title>
<g id="a_node16"><a xlink:title=" ">
<polygon fill="white" stroke="#bfbfbf" points="620,-56.5 620,-75.5 773,-75.5 773,-56.5 620,-56.5"/>
<text text-anchor="middle" x="696.5" y="-63.5" font-family="Helvetica,sans-Serif" font-size="10.00">sml/graphics_wrapper/texture.h</text>
</a>
</g>
</g>
<!-- Node14&#45;&gt;Node16 -->
<g id="edge16" class="edge">
<title>Node14&#45;&gt;Node16</title>
<path fill="none" stroke="midnightblue" d="M587.94,-112.44C609.17,-103.56 642.6,-89.56 666.75,-79.45"/>
<polygon fill="midnightblue" stroke="midnightblue" points="668.28,-82.61 676.16,-75.52 665.58,-76.15 668.28,-82.61"/>
</g>
<!-- Node17&#45;&gt;Node7 -->
<g id="edge18" class="edge">
<title>Node17&#45;&gt;Node7</title>
<path fill="none" stroke="midnightblue" d="M704.96,-172.33C640.91,-166.22 543.35,-153.65 513.5,-132 497.97,-120.74 488.64,-100.43 483.56,-85.5"/>
<polygon fill="midnightblue" stroke="midnightblue" points="486.86,-84.32 480.59,-75.78 480.17,-86.37 486.86,-84.32"/>
</g>
<!-- Node18 -->
<g id="node18" class="node">
<title>Node18</title>
<g id="a_node18"><a xlink:title=" ">
<polygon fill="white" stroke="#bfbfbf" points="898.5,-56.5 898.5,-75.5 1006.5,-75.5 1006.5,-56.5 898.5,-56.5"/>
<text text-anchor="middle" x="952.5" y="-63.5" font-family="Helvetica,sans-Serif" font-size="10.00">sml/math/rectangle.h</text>
</a>
</g>
</g>
<!-- Node17&#45;&gt;Node18 -->
<g id="edge19" class="edge">
<title>Node17&#45;&gt;Node18</title>
<path fill="none" stroke="midnightblue" d="M774.97,-168.43C792.63,-155.43 827.76,-130.29 859.5,-112 880.41,-99.95 905.03,-88.13 923.68,-79.64"/>
<polygon fill="midnightblue" stroke="midnightblue" points="925.16,-82.81 932.84,-75.51 922.29,-76.43 925.16,-82.81"/>
</g>
<!-- Node19 -->
<g id="node19" class="node">
<title>Node19</title>
<g id="a_node19"><a xlink:href="fill_8h.html" target="_top" xlink:title=" ">
<polygon fill="white" stroke="black" points="746,-112.5 746,-131.5 781,-131.5 781,-112.5 746,-112.5"/>
<text text-anchor="middle" x="763.5" y="-119.5" font-family="Helvetica,sans-Serif" font-size="10.00">fill.h</text>
</a>
</g>
</g>
<!-- Node17&#45;&gt;Node19 -->
<g id="edge20" class="edge">
<title>Node17&#45;&gt;Node19</title>
<path fill="none" stroke="midnightblue" d="M763.5,-168.08C763.5,-161.01 763.5,-150.86 763.5,-141.99"/>
<polygon fill="midnightblue" stroke="midnightblue" points="767,-141.75 763.5,-131.75 760,-141.75 767,-141.75"/>
</g>
<!-- Node21 -->
<g id="node21" class="node">
<title>Node21</title>
<g id="a_node21"><a xlink:href="image_8h.html" target="_top" xlink:title=" ">
<polygon fill="white" stroke="black" points="639,-112.5 639,-131.5 728,-131.5 728,-112.5 639,-112.5"/>
<text text-anchor="middle" x="683.5" y="-119.5" font-family="Helvetica,sans-Serif" font-size="10.00">../media/image.h</text>
</a>
</g>
</g>
<!-- Node17&#45;&gt;Node21 -->
<g id="edge25" class="edge">
<title>Node17&#45;&gt;Node21</title>
<path fill="none" stroke="midnightblue" d="M750.65,-168.32C738.28,-159.98 719.37,-147.21 704.76,-137.35"/>
<polygon fill="midnightblue" stroke="midnightblue" points="706.57,-134.35 696.32,-131.65 702.65,-140.15 706.57,-134.35"/>
</g>
<!-- Node19&#45;&gt;Node7 -->
<g id="edge21" class="edge">
<title>Node19&#45;&gt;Node7</title>
<path fill="none" stroke="midnightblue" d="M745.9,-114.67C742.8,-113.69 739.57,-112.75 736.5,-112 640.37,-88.52 611.01,-97.66 510.7,-76.02"/>
<polygon fill="midnightblue" stroke="midnightblue" points="511.28,-72.56 500.76,-73.83 509.78,-79.4 511.28,-72.56"/>
</g>
<!-- Node19&#45;&gt;Node16 -->
<g id="edge24" class="edge">
<title>Node19&#45;&gt;Node16</title>
<path fill="none" stroke="midnightblue" d="M752.74,-112.32C742.73,-104.26 727.61,-92.08 715.57,-82.37"/>
<polygon fill="midnightblue" stroke="midnightblue" points="717.44,-79.38 707.46,-75.83 713.05,-84.83 717.44,-79.38"/>
</g>
<!-- Node19&#45;&gt;Node18 -->
<g id="edge23" class="edge">
<title>Node19&#45;&gt;Node18</title>
<path fill="none" stroke="midnightblue" d="M781.28,-115.92C811.18,-107.38 872.24,-89.93 912.77,-78.35"/>
<polygon fill="midnightblue" stroke="midnightblue" points="913.95,-81.65 922.6,-75.54 912.03,-74.92 913.95,-81.65"/>
</g>
<!-- Node20 -->
<g id="node20" class="node">
<title>Node20</title>
<g id="a_node20"><a xlink:title=" ">
<polygon fill="white" stroke="#bfbfbf" points="791,-56.5 791,-75.5 880,-75.5 880,-56.5 791,-56.5"/>
<text text-anchor="middle" x="835.5" y="-63.5" font-family="Helvetica,sans-Serif" font-size="10.00">sml/math/vec2.h</text>
</a>
</g>
</g>
<!-- Node19&#45;&gt;Node20 -->
<g id="edge22" class="edge">
<title>Node19&#45;&gt;Node20</title>
<path fill="none" stroke="midnightblue" d="M775.07,-112.32C785.92,-104.18 802.38,-91.84 815.38,-82.09"/>
<polygon fill="midnightblue" stroke="midnightblue" points="817.82,-84.63 823.72,-75.83 813.62,-79.03 817.82,-84.63"/>
</g>
<!-- Node21&#45;&gt;Node16 -->
<g id="edge26" class="edge">
<title>Node21&#45;&gt;Node16</title>
<path fill="none" stroke="midnightblue" d="M685.65,-112.08C687.37,-104.93 689.85,-94.64 692,-85.69"/>
<polygon fill="midnightblue" stroke="midnightblue" points="695.46,-86.29 694.39,-75.75 688.65,-84.65 695.46,-86.29"/>
</g>
<!-- Node22&#45;&gt;Node18 -->
<g id="edge29" class="edge">
<title>Node22&#45;&gt;Node18</title>
<path fill="none" stroke="midnightblue" d="M919.38,-168.45C890.48,-157.79 850.88,-137.8 866.5,-112 875.91,-96.46 892.65,-86.02 908.88,-79.15"/>
<polygon fill="midnightblue" stroke="midnightblue" points="910.25,-82.37 918.32,-75.51 907.73,-75.85 910.25,-82.37"/>
</g>
<!-- Node23 -->
<g id="node23" class="node">
<title>Node23</title>
<g id="a_node23"><a xlink:title=" ">
<polygon fill="white" stroke="#bfbfbf" points="876,-112.5 876,-131.5 1019,-131.5 1019,-112.5 876,-112.5"/>
<text text-anchor="middle" x="947.5" y="-119.5" font-family="Helvetica,sans-Serif" font-size="10.00">sml/graphics_wrapper/color.h</text>
</a>
</g>
</g>
<!-- Node22&#45;&gt;Node23 -->
<g id="edge28" class="edge">
<title>Node22&#45;&gt;Node23</title>
<path fill="none" stroke="midnightblue" d="M946.67,-168.08C946.8,-161.01 946.98,-150.86 947.15,-141.99"/>
<polygon fill="midnightblue" stroke="midnightblue" points="950.65,-141.81 947.34,-131.75 943.65,-141.68 950.65,-141.81"/>
</g>
<!-- Node24 -->
<g id="node24" class="node">
<title>Node24</title>
<g id="a_node24"><a xlink:href="insets_8h.html" target="_top" xlink:title=" ">
<polygon fill="white" stroke="black" points="1037,-112.5 1037,-131.5 1088,-131.5 1088,-112.5 1037,-112.5"/>
<text text-anchor="middle" x="1062.5" y="-119.5" font-family="Helvetica,sans-Serif" font-size="10.00">insets.h</text>
</a>
</g>
</g>
<!-- Node22&#45;&gt;Node24 -->
<g id="edge30" class="edge">
<title>Node22&#45;&gt;Node24</title>
<path fill="none" stroke="midnightblue" d="M964.88,-168.44C983.72,-159.68 1013.23,-145.94 1034.88,-135.86"/>
<polygon fill="midnightblue" stroke="midnightblue" points="1036.62,-138.91 1044.21,-131.52 1033.66,-132.56 1036.62,-138.91"/>
</g>
<!-- Node25 -->
<g id="node25" class="node">
<title>Node25</title>
<g id="a_node25"><a xlink:title=" ">
<polygon fill="white" stroke="#bfbfbf" points="1038,-56.5 1038,-75.5 1087,-75.5 1087,-56.5 1038,-56.5"/>
<text text-anchor="middle" x="1062.5" y="-63.5" font-family="Helvetica,sans-Serif" font-size="10.00">stdint.h</text>
</a>
</g>
</g>
<!-- Node24&#45;&gt;Node25 -->
<g id="edge31" class="edge">
<title>Node24&#45;&gt;Node25</title>
<path fill="none" stroke="midnightblue" d="M1062.5,-112.08C1062.5,-105.01 1062.5,-94.86 1062.5,-85.99"/>
<polygon fill="midnightblue" stroke="midnightblue" points="1066,-85.75 1062.5,-75.75 1059,-85.75 1066,-85.75"/>
</g>
<!-- Node26&#45;&gt;Node3 -->
<g id="edge34" class="edge">
<title>Node26&#45;&gt;Node3</title>
<path fill="none" stroke="midnightblue" d="M1059.11,-280.44C1036.79,-271.52 1001.6,-257.44 976.29,-247.32"/>
<polygon fill="midnightblue" stroke="midnightblue" points="977.38,-243.98 966.79,-243.52 974.78,-250.48 977.38,-243.98"/>
</g>
<!-- Node26&#45;&gt;Node18 -->
<g id="edge33" class="edge">
<title>Node26&#45;&gt;Node18</title>
<path fill="none" stroke="midnightblue" d="M1085.08,-280.18C1098.83,-252.32 1136.5,-164.94 1097.5,-112 1086.78,-97.45 1045.95,-85.58 1010.34,-77.69"/>
<polygon fill="midnightblue" stroke="midnightblue" points="1010.97,-74.25 1000.46,-75.57 1009.51,-81.09 1010.97,-74.25"/>
</g>
<!-- Node27&#45;&gt;Node3 -->
<g id="edge37" class="edge">
<title>Node27&#45;&gt;Node3</title>
<path fill="none" stroke="midnightblue" d="M1172.72,-280.44C1119.69,-269.84 1030.29,-251.96 980.92,-242.08"/>
<polygon fill="midnightblue" stroke="midnightblue" points="981.51,-238.63 971.02,-240.1 980.14,-245.5 981.51,-238.63"/>
</g>
<!-- Node28 -->
<g id="node28" class="node">
<title>Node28</title>
<g id="a_node28"><a xlink:title=" ">
<polygon fill="white" stroke="#bfbfbf" points="1145.5,-224.5 1145.5,-243.5 1285.5,-243.5 1285.5,-224.5 1145.5,-224.5"/>
<text text-anchor="middle" x="1215.5" y="-231.5" font-family="Helvetica,sans-Serif" font-size="10.00">sml/graphics_wrapper/text.h</text>
</a>
</g>
</g>
<!-- Node27&#45;&gt;Node28 -->
<g id="edge36" class="edge">
<title>Node27&#45;&gt;Node28</title>
<path fill="none" stroke="midnightblue" d="M1215.5,-280.08C1215.5,-273.01 1215.5,-262.86 1215.5,-253.99"/>
<polygon fill="midnightblue" stroke="midnightblue" points="1219,-253.75 1215.5,-243.75 1212,-253.75 1219,-253.75"/>
</g>
</g>
</svg>
        <g id="navigator" transform="translate(0 0)" fill="#404254">
                <rect fill="#f2f5e9" fill-opacity="0.5" stroke="#606060" stroke-width=".5" x="0" y="0" width="60" height="60"/>
                <use id="zoomplus" xlink:href="#zoomPlus" x="17" y="9" onmousedown="handleZoom(evt,'in')"/>
                <use id="zoomminus" xlink:href="#zoomMin" x="42" y="9" onmousedown="handleZoom(evt,'out')"/>
                <use id="reset" xlink:href="#resetDef" x="30" y="36" onmousedown="handleReset()"/>
                <g id="arrowUp" xlink:href="#dirArrow" transform="translate(30 24)" onmousedown="handlePan(0,-1)">
                  <use xlink:href="#rim" fill="#404040">
                        <set attributeName="fill" to="#808080" begin="arrowUp.mouseover" end="arrowUp.mouseout"/>
                  </use>
                  <path fill="none" stroke="white" stroke-width="1.5" d="M0,-3.0v7 M-2.5,-0.5L0,-3.0L2.5,-0.5"/>
                </g>
                <g id="arrowRight" xlink:href="#dirArrow" transform="rotate(90) translate(36 -43)" onmousedown="handlePan(1,0)">
                  <use xlink:href="#rim" fill="#404040">
                        <set attributeName="fill" to="#808080" begin="arrowRight.mouseover" end="arrowRight.mouseout"/>
                  </use>
                  <path fill="none" stroke="white" stroke-width="1.5" d="M0,-3.0v7 M-2.5,-0.5L0,-3.0L2.5,-0.5"/>
                </g>
                <g id="arrowDown" xlink:href="#dirArrow" transform="rotate(180) translate(-30 -48)" onmousedown="handlePan(0,1)">
                  <use xlink:href="#rim" fill="#404040">
                        <set attributeName="fill" to="#808080" begin="arrowDown.mouseover" end="arrowDown.mouseout"/>
                  </use>
                  <path fill="none" stroke="white" stroke-width="1.5" d="M0,-3.0v7 M-2.5,-0.5L0,-3.0L2.5,-0.5"/>
                </g>
                <g id="arrowLeft" xlink:href="#dirArrow" transform="rotate(270) translate(-36 17)" onmousedown="handlePan(-1,0)">
                  <use xlink:href="#rim" fill="#404040">
                        <set attributeName="fill" to="#808080" begin="arrowLeft.mouseover" end="arrowLeft.mouseout"/>
                  </use>
                  <path fill="none" stroke="white" stroke-width="1.5" d="M0,-3.0v7 M-2.5,-0.5L0,-3.0L2.5,-0.5"/>
                </g>
        </g>
        <svg viewBox="0 0 15 15" width="100%" height="30px" preserveAspectRatio="xMaxYMin meet">
         <g id="arrow_out" transform="scale(0.3 0.3)">
          <a xlink:href="shapes_8h__incl_org.svg" target="_base">
           <rect id="button" ry="5" rx="5" y="6" x="6" height="38" width="38"
                fill="#f2f5e9" fill-opacity="0.5" stroke="#606060" stroke-width="1.0"/>
           <path id="arrow"
             d="M 11.500037,31.436501 C 11.940474,20.09759 22.043105,11.32322 32.158766,21.979434 L 37.068811,17.246167 C 37.068811,17.246167 37.088388,32 37.088388,32 L 22.160133,31.978069 C 22.160133,31.978069 26.997745,27.140456 26.997745,27.140456 C 18.528582,18.264221 13.291696,25.230495 11.500037,31.436501 z"
             style="fill:#404040;"/>
          </a>
         </g>
        </svg>
</svg>
