<?xml version="1.0" encoding="UTF-8" standalone="no"?>
<!DOCTYPE svg PUBLIC "-//W3C//DTD SVG 1.1//EN"
 "http://www.w3.org/Graphics/SVG/1.1/DTD/svg11.dtd">
<!-- Generated by graphviz version 2.50.0 (20211204.2007)
 -->
<!-- Title: shape.cpp Pages: 1 -->
<svg width="1178pt" height="308pt"
 viewBox="0.00 0.00 1178.00 308.00" xmlns="http://www.w3.org/2000/svg" xmlns:xlink="http://www.w3.org/1999/xlink">
<g id="graph0" class="graph" transform="scale(1 1) rotate(0) translate(4 304)">
<title>shape.cpp</title>
<polygon fill="white" stroke="transparent" points="-4,4 -4,-304 1174,-304 1174,4 -4,4"/>
<!-- Node1 -->
<g id="node1" class="node">
<title>Node1</title>
<g id="a_node1"><a xlink:title=" ">
<polygon fill="#bfbfbf" stroke="black" points="705.5,-280.5 705.5,-299.5 767.5,-299.5 767.5,-280.5 705.5,-280.5"/>
<text text-anchor="middle" x="736.5" y="-287.5" font-family="Helvetica,sans-Serif" font-size="10.00">shape.cpp</text>
</a>
</g>
</g>
<!-- Node2 -->
<g id="node2" class="node">
<title>Node2</title>
<g id="a_node2"><a xlink:href="shape_8h.html" target="_top" xlink:title=" ">
<polygon fill="white" stroke="black" points="679,-224.5 679,-243.5 794,-243.5 794,-224.5 679,-224.5"/>
<text text-anchor="middle" x="736.5" y="-231.5" font-family="Helvetica,sans-Serif" font-size="10.00">scene/shapes/shape.h</text>
</a>
</g>
</g>
<!-- Node1&#45;&gt;Node2 -->
<g id="edge1" class="edge">
<title>Node1&#45;&gt;Node2</title>
<path fill="none" stroke="midnightblue" d="M736.5,-280.08C736.5,-273.01 736.5,-262.86 736.5,-253.99"/>
<polygon fill="midnightblue" stroke="midnightblue" points="740,-253.75 736.5,-243.75 733,-253.75 740,-253.75"/>
</g>
<!-- Node3 -->
<g id="node3" class="node">
<title>Node3</title>
<g id="a_node3"><a xlink:href="component_8h.html" target="_top" xlink:title=" ">
<polygon fill="white" stroke="black" points="441.5,-168.5 441.5,-187.5 523.5,-187.5 523.5,-168.5 441.5,-168.5"/>
<text text-anchor="middle" x="482.5" y="-175.5" font-family="Helvetica,sans-Serif" font-size="10.00">../component.h</text>
</a>
</g>
</g>
<!-- Node2&#45;&gt;Node3 -->
<g id="edge2" class="edge">
<title>Node2&#45;&gt;Node3</title>
<path fill="none" stroke="midnightblue" d="M696.25,-224.44C651.85,-215 580.35,-199.8 532.41,-189.61"/>
<polygon fill="midnightblue" stroke="midnightblue" points="533.07,-186.17 522.56,-187.52 531.61,-193.02 533.07,-186.17"/>
</g>
<!-- Node16 -->
<g id="node16" class="node">
<title>Node16</title>
<g id="a_node16"><a xlink:href="background_8h.html" target="_top" xlink:title=" ">
<polygon fill="white" stroke="black" points="678,-168.5 678,-187.5 795,-187.5 795,-168.5 678,-168.5"/>
<text text-anchor="middle" x="736.5" y="-175.5" font-family="Helvetica,sans-Serif" font-size="10.00">../../paint/background.h</text>
</a>
</g>
</g>
<!-- Node2&#45;&gt;Node16 -->
<g id="edge16" class="edge">
<title>Node2&#45;&gt;Node16</title>
<path fill="none" stroke="midnightblue" d="M736.5,-224.08C736.5,-217.01 736.5,-206.86 736.5,-197.99"/>
<polygon fill="midnightblue" stroke="midnightblue" points="740,-197.75 736.5,-187.75 733,-197.75 740,-197.75"/>
</g>
<!-- Node21 -->
<g id="node21" class="node">
<title>Node21</title>
<g id="a_node21"><a xlink:href="border_8h.html" target="_top" xlink:title=" ">
<polygon fill="white" stroke="black" points="933,-168.5 933,-187.5 1026,-187.5 1026,-168.5 933,-168.5"/>
<text text-anchor="middle" x="979.5" y="-175.5" font-family="Helvetica,sans-Serif" font-size="10.00">../../paint/border.h</text>
</a>
</g>
</g>
<!-- Node2&#45;&gt;Node21 -->
<g id="edge26" class="edge">
<title>Node2&#45;&gt;Node21</title>
<path fill="none" stroke="midnightblue" d="M775,-224.44C817.31,-215.04 885.32,-199.93 931.17,-189.74"/>
<polygon fill="midnightblue" stroke="midnightblue" points="932.17,-193.1 941.18,-187.52 930.65,-186.27 932.17,-193.1"/>
</g>
<!-- Node4 -->
<g id="node4" class="node">
<title>Node4</title>
<g id="a_node4"><a xlink:title=" ">
<polygon fill="white" stroke="#bfbfbf" points="150.5,-112.5 150.5,-131.5 290.5,-131.5 290.5,-112.5 150.5,-112.5"/>
<text text-anchor="middle" x="220.5" y="-119.5" font-family="Helvetica,sans-Serif" font-size="10.00">sml/sml_graphics_wrapper.h</text>
</a>
</g>
</g>
<!-- Node3&#45;&gt;Node4 -->
<g id="edge3" class="edge">
<title>Node3&#45;&gt;Node4</title>
<path fill="none" stroke="midnightblue" d="M441.27,-168.5C395.44,-159.06 321.34,-143.78 271.79,-133.57"/>
<polygon fill="midnightblue" stroke="midnightblue" points="272.42,-130.13 261.92,-131.54 271.01,-136.98 272.42,-130.13"/>
</g>
<!-- Node5 -->
<g id="node5" class="node">
<title>Node5</title>
<g id="a_node5"><a xlink:href="gui__event__dispatching_8h.html" target="_top" xlink:title=" ">
<polygon fill="white" stroke="black" points="309,-112.5 309,-131.5 472,-131.5 472,-112.5 309,-112.5"/>
<text text-anchor="middle" x="390.5" y="-119.5" font-family="Helvetica,sans-Serif" font-size="10.00">../events/gui_event_dispatching.h</text>
</a>
</g>
</g>
<!-- Node3&#45;&gt;Node5 -->
<g id="edge4" class="edge">
<title>Node3&#45;&gt;Node5</title>
<path fill="none" stroke="midnightblue" d="M467.72,-168.32C453.23,-159.82 430.93,-146.73 414.01,-136.8"/>
<polygon fill="midnightblue" stroke="midnightblue" points="415.64,-133.7 405.24,-131.65 412.1,-139.74 415.64,-133.7"/>
</g>
<!-- Node13 -->
<g id="node13" class="node">
<title>Node13</title>
<g id="a_node13"><a xlink:href="shadow_8h.html" target="_top" xlink:title=" ">
<polygon fill="white" stroke="black" points="528.5,-112.5 528.5,-131.5 618.5,-131.5 618.5,-112.5 528.5,-112.5"/>
<text text-anchor="middle" x="573.5" y="-119.5" font-family="Helvetica,sans-Serif" font-size="10.00">../paint/shadow.h</text>
</a>
</g>
</g>
<!-- Node3&#45;&gt;Node13 -->
<g id="edge13" class="edge">
<title>Node3&#45;&gt;Node13</title>
<path fill="none" stroke="midnightblue" d="M497.12,-168.32C511.45,-159.82 533.51,-146.73 550.25,-136.8"/>
<polygon fill="midnightblue" stroke="midnightblue" points="552.1,-139.77 558.92,-131.65 548.53,-133.75 552.1,-139.77"/>
</g>
<!-- Node6 -->
<g id="node6" class="node">
<title>Node6</title>
<g id="a_node6"><a xlink:title=" ">
<polygon fill="white" stroke="#bfbfbf" points="456.5,-56.5 456.5,-75.5 500.5,-75.5 500.5,-56.5 456.5,-56.5"/>
<text text-anchor="middle" x="478.5" y="-63.5" font-family="Helvetica,sans-Serif" font-size="10.00">vector</text>
</a>
</g>
</g>
<!-- Node5&#45;&gt;Node6 -->
<g id="edge5" class="edge">
<title>Node5&#45;&gt;Node6</title>
<path fill="none" stroke="midnightblue" d="M404.64,-112.32C418.37,-103.9 439.44,-90.97 455.56,-81.07"/>
<polygon fill="midnightblue" stroke="midnightblue" points="457.7,-83.87 464.4,-75.65 454.04,-77.9 457.7,-83.87"/>
</g>
<!-- Node7 -->
<g id="node7" class="node">
<title>Node7</title>
<g id="a_node7"><a xlink:title=" ">
<polygon fill="white" stroke="#bfbfbf" points="0,-56.5 0,-75.5 155,-75.5 155,-56.5 0,-56.5"/>
<text text-anchor="middle" x="77.5" y="-63.5" font-family="Helvetica,sans-Serif" font-size="10.00">sml/events/event_dispatching.h</text>
</a>
</g>
</g>
<!-- Node5&#45;&gt;Node7 -->
<g id="edge6" class="edge">
<title>Node5&#45;&gt;Node7</title>
<path fill="none" stroke="midnightblue" d="M340.9,-112.44C285.5,-102.89 195.86,-87.42 136.79,-77.23"/>
<polygon fill="midnightblue" stroke="midnightblue" points="137.31,-73.77 126.86,-75.52 136.12,-80.67 137.31,-73.77"/>
</g>
<!-- Node8 -->
<g id="node8" class="node">
<title>Node8</title>
<g id="a_node8"><a xlink:title=" ">
<polygon fill="white" stroke="#bfbfbf" points="173,-56.5 173,-75.5 314,-75.5 314,-56.5 173,-56.5"/>
<text text-anchor="middle" x="243.5" y="-63.5" font-family="Helvetica,sans-Serif" font-size="10.00">sml/events/listener_notifier.h</text>
</a>
</g>
</g>
<!-- Node5&#45;&gt;Node8 -->
<g id="edge7" class="edge">
<title>Node5&#45;&gt;Node8</title>
<path fill="none" stroke="midnightblue" d="M367.21,-112.44C342.69,-103.44 303.9,-89.19 276.3,-79.05"/>
<polygon fill="midnightblue" stroke="midnightblue" points="277.28,-75.68 266.68,-75.52 274.86,-82.25 277.28,-75.68"/>
</g>
<!-- Node9 -->
<g id="node9" class="node">
<title>Node9</title>
<g id="a_node9"><a xlink:title=" ">
<polygon fill="white" stroke="#bfbfbf" points="232,-0.5 232,-19.5 375,-19.5 375,-0.5 232,-0.5"/>
<text text-anchor="middle" x="303.5" y="-7.5" font-family="Helvetica,sans-Serif" font-size="10.00">sml/events/system_events.h</text>
</a>
</g>
</g>
<!-- Node5&#45;&gt;Node9 -->
<g id="edge8" class="edge">
<title>Node5&#45;&gt;Node9</title>
<path fill="none" stroke="midnightblue" d="M383.67,-112.37C369.25,-94.14 335.47,-51.43 316.69,-27.68"/>
<polygon fill="midnightblue" stroke="midnightblue" points="319.24,-25.26 310.3,-19.59 313.75,-29.61 319.24,-25.26"/>
</g>
<!-- Node10 -->
<g id="node10" class="node">
<title>Node10</title>
<g id="a_node10"><a xlink:href="gui__event_8h.html" target="_top" xlink:title=" ">
<polygon fill="white" stroke="black" points="371,-56.5 371,-75.5 438,-75.5 438,-56.5 371,-56.5"/>
<text text-anchor="middle" x="404.5" y="-63.5" font-family="Helvetica,sans-Serif" font-size="10.00">gui_event.h</text>
</a>
</g>
</g>
<!-- Node5&#45;&gt;Node10 -->
<g id="edge9" class="edge">
<title>Node5&#45;&gt;Node10</title>
<path fill="none" stroke="midnightblue" d="M392.81,-112.08C394.67,-104.93 397.34,-94.64 399.65,-85.69"/>
<polygon fill="midnightblue" stroke="midnightblue" points="403.11,-86.31 402.23,-75.75 396.33,-84.55 403.11,-86.31"/>
</g>
<!-- Node10&#45;&gt;Node9 -->
<g id="edge11" class="edge">
<title>Node10&#45;&gt;Node9</title>
<path fill="none" stroke="midnightblue" d="M388.27,-56.32C372.15,-47.7 347.2,-34.36 328.54,-24.39"/>
<polygon fill="midnightblue" stroke="midnightblue" points="330.16,-21.28 319.69,-19.65 326.86,-27.46 330.16,-21.28"/>
</g>
<!-- Node11 -->
<g id="node11" class="node">
<title>Node11</title>
<g id="a_node11"><a xlink:title=" ">
<polygon fill="white" stroke="#bfbfbf" points="393.5,-0.5 393.5,-19.5 493.5,-19.5 493.5,-0.5 393.5,-0.5"/>
<text text-anchor="middle" x="443.5" y="-7.5" font-family="Helvetica,sans-Serif" font-size="10.00">sml/events/event.h</text>
</a>
</g>
</g>
<!-- Node10&#45;&gt;Node11 -->
<g id="edge10" class="edge">
<title>Node10&#45;&gt;Node11</title>
<path fill="none" stroke="midnightblue" d="M410.94,-56.08C416.45,-48.46 424.53,-37.26 431.26,-27.94"/>
<polygon fill="midnightblue" stroke="midnightblue" points="434.16,-29.91 437.18,-19.75 428.49,-25.81 434.16,-29.91"/>
</g>
<!-- Node12 -->
<g id="node12" class="node">
<title>Node12</title>
<g id="a_node12"><a xlink:title=" ">
<polygon fill="white" stroke="#bfbfbf" points="512,-0.5 512,-19.5 589,-19.5 589,-0.5 512,-0.5"/>
<text text-anchor="middle" x="550.5" y="-7.5" font-family="Helvetica,sans-Serif" font-size="10.00">sml/sml_log.h</text>
</a>
</g>
</g>
<!-- Node10&#45;&gt;Node12 -->
<g id="edge12" class="edge">
<title>Node10&#45;&gt;Node12</title>
<path fill="none" stroke="midnightblue" d="M427.63,-56.44C451.98,-47.44 490.51,-33.19 517.92,-23.05"/>
<polygon fill="midnightblue" stroke="midnightblue" points="519.31,-26.27 527.47,-19.52 516.88,-19.7 519.31,-26.27"/>
</g>
<!-- Node14 -->
<g id="node14" class="node">
<title>Node14</title>
<g id="a_node14"><a xlink:title=" ">
<polygon fill="white" stroke="#bfbfbf" points="519,-56.5 519,-75.5 602,-75.5 602,-56.5 519,-56.5"/>
<text text-anchor="middle" x="560.5" y="-63.5" font-family="Helvetica,sans-Serif" font-size="10.00">sml/math/blur.h</text>
</a>
</g>
</g>
<!-- Node13&#45;&gt;Node14 -->
<g id="edge14" class="edge">
<title>Node13&#45;&gt;Node14</title>
<path fill="none" stroke="midnightblue" d="M571.35,-112.08C569.63,-104.93 567.15,-94.64 565,-85.69"/>
<polygon fill="midnightblue" stroke="midnightblue" points="568.35,-84.65 562.61,-75.75 561.54,-86.29 568.35,-84.65"/>
</g>
<!-- Node15 -->
<g id="node15" class="node">
<title>Node15</title>
<g id="a_node15"><a xlink:title=" ">
<polygon fill="white" stroke="#bfbfbf" points="620,-56.5 620,-75.5 773,-75.5 773,-56.5 620,-56.5"/>
<text text-anchor="middle" x="696.5" y="-63.5" font-family="Helvetica,sans-Serif" font-size="10.00">sml/graphics_wrapper/texture.h</text>
</a>
</g>
</g>
<!-- Node13&#45;&gt;Node15 -->
<g id="edge15" class="edge">
<title>Node13&#45;&gt;Node15</title>
<path fill="none" stroke="midnightblue" d="M592.99,-112.44C613.14,-103.6 644.82,-89.69 667.83,-79.59"/>
<polygon fill="midnightblue" stroke="midnightblue" points="669.35,-82.74 677.1,-75.52 666.54,-76.33 669.35,-82.74"/>
</g>
<!-- Node16&#45;&gt;Node6 -->
<g id="edge17" class="edge">
<title>Node16&#45;&gt;Node6</title>
<path fill="none" stroke="midnightblue" d="M677.73,-177.03C631.07,-174.35 566.14,-164.34 519.5,-132 503.09,-120.62 491.85,-100.33 485.35,-85.44"/>
<polygon fill="midnightblue" stroke="midnightblue" points="488.43,-83.72 481.45,-75.75 481.94,-86.33 488.43,-83.72"/>
</g>
<!-- Node17 -->
<g id="node17" class="node">
<title>Node17</title>
<g id="a_node17"><a xlink:title=" ">
<polygon fill="white" stroke="#bfbfbf" points="898.5,-56.5 898.5,-75.5 1006.5,-75.5 1006.5,-56.5 898.5,-56.5"/>
<text text-anchor="middle" x="952.5" y="-63.5" font-family="Helvetica,sans-Serif" font-size="10.00">sml/math/rectangle.h</text>
</a>
</g>
</g>
<!-- Node16&#45;&gt;Node17 -->
<g id="edge18" class="edge">
<title>Node16&#45;&gt;Node17</title>
<path fill="none" stroke="midnightblue" d="M753.45,-168.37C791.07,-149.21 881.74,-103.04 926.55,-80.22"/>
<polygon fill="midnightblue" stroke="midnightblue" points="928.31,-83.25 935.63,-75.59 925.13,-77.01 928.31,-83.25"/>
</g>
<!-- Node18 -->
<g id="node18" class="node">
<title>Node18</title>
<g id="a_node18"><a xlink:href="fill_8h.html" target="_top" xlink:title=" ">
<polygon fill="white" stroke="black" points="759,-112.5 759,-131.5 794,-131.5 794,-112.5 759,-112.5"/>
<text text-anchor="middle" x="776.5" y="-119.5" font-family="Helvetica,sans-Serif" font-size="10.00">fill.h</text>
</a>
</g>
</g>
<!-- Node16&#45;&gt;Node18 -->
<g id="edge19" class="edge">
<title>Node16&#45;&gt;Node18</title>
<path fill="none" stroke="midnightblue" d="M743.11,-168.08C748.76,-160.46 757.04,-149.26 763.95,-139.94"/>
<polygon fill="midnightblue" stroke="midnightblue" points="766.88,-141.87 770.02,-131.75 761.25,-137.7 766.88,-141.87"/>
</g>
<!-- Node20 -->
<g id="node20" class="node">
<title>Node20</title>
<g id="a_node20"><a xlink:href="image_8h.html" target="_top" xlink:title=" ">
<polygon fill="white" stroke="black" points="652,-112.5 652,-131.5 741,-131.5 741,-112.5 652,-112.5"/>
<text text-anchor="middle" x="696.5" y="-119.5" font-family="Helvetica,sans-Serif" font-size="10.00">../media/image.h</text>
</a>
</g>
</g>
<!-- Node16&#45;&gt;Node20 -->
<g id="edge24" class="edge">
<title>Node16&#45;&gt;Node20</title>
<path fill="none" stroke="midnightblue" d="M729.89,-168.08C724.24,-160.46 715.96,-149.26 709.05,-139.94"/>
<polygon fill="midnightblue" stroke="midnightblue" points="711.75,-137.7 702.98,-131.75 706.12,-141.87 711.75,-137.7"/>
</g>
<!-- Node18&#45;&gt;Node6 -->
<g id="edge20" class="edge">
<title>Node18&#45;&gt;Node6</title>
<path fill="none" stroke="midnightblue" d="M758.73,-114.36C756,-113.49 753.19,-112.66 750.5,-112 648.83,-87 617.77,-97.95 510.7,-75.76"/>
<polygon fill="midnightblue" stroke="midnightblue" points="511.3,-72.31 500.79,-73.65 509.85,-79.15 511.3,-72.31"/>
</g>
<!-- Node18&#45;&gt;Node15 -->
<g id="edge23" class="edge">
<title>Node18&#45;&gt;Node15</title>
<path fill="none" stroke="midnightblue" d="M763.65,-112.32C751.28,-103.98 732.37,-91.21 717.76,-81.35"/>
<polygon fill="midnightblue" stroke="midnightblue" points="719.57,-78.35 709.32,-75.65 715.65,-84.15 719.57,-78.35"/>
</g>
<!-- Node18&#45;&gt;Node17 -->
<g id="edge22" class="edge">
<title>Node18&#45;&gt;Node17</title>
<path fill="none" stroke="midnightblue" d="M794.02,-115.62C821.99,-107.04 877.39,-90.04 914.7,-78.6"/>
<polygon fill="midnightblue" stroke="midnightblue" points="916.18,-81.81 924.71,-75.53 914.12,-75.11 916.18,-81.81"/>
</g>
<!-- Node19 -->
<g id="node19" class="node">
<title>Node19</title>
<g id="a_node19"><a xlink:title=" ">
<polygon fill="white" stroke="#bfbfbf" points="791,-56.5 791,-75.5 880,-75.5 880,-56.5 791,-56.5"/>
<text text-anchor="middle" x="835.5" y="-63.5" font-family="Helvetica,sans-Serif" font-size="10.00">sml/math/vec2.h</text>
</a>
</g>
</g>
<!-- Node18&#45;&gt;Node19 -->
<g id="edge21" class="edge">
<title>Node18&#45;&gt;Node19</title>
<path fill="none" stroke="midnightblue" d="M785.98,-112.32C794.7,-104.34 807.84,-92.31 818.4,-82.65"/>
<polygon fill="midnightblue" stroke="midnightblue" points="820.83,-85.17 825.85,-75.83 816.11,-80 820.83,-85.17"/>
</g>
<!-- Node20&#45;&gt;Node15 -->
<g id="edge25" class="edge">
<title>Node20&#45;&gt;Node15</title>
<path fill="none" stroke="midnightblue" d="M696.5,-112.08C696.5,-105.01 696.5,-94.86 696.5,-85.99"/>
<polygon fill="midnightblue" stroke="midnightblue" points="700,-85.75 696.5,-75.75 693,-85.75 700,-85.75"/>
</g>
<!-- Node21&#45;&gt;Node17 -->
<g id="edge28" class="edge">
<title>Node21&#45;&gt;Node17</title>
<path fill="none" stroke="midnightblue" d="M971.29,-168.18C963.96,-159.66 953.74,-146.02 949.5,-132 944.94,-116.95 946.23,-99.04 948.35,-85.84"/>
<polygon fill="midnightblue" stroke="midnightblue" points="951.86,-86.12 950.31,-75.64 944.99,-84.8 951.86,-86.12"/>
</g>
<!-- Node22 -->
<g id="node22" class="node">
<title>Node22</title>
<g id="a_node22"><a xlink:title=" ">
<polygon fill="white" stroke="#bfbfbf" points="958,-112.5 958,-131.5 1101,-131.5 1101,-112.5 958,-112.5"/>
<text text-anchor="middle" x="1029.5" y="-119.5" font-family="Helvetica,sans-Serif" font-size="10.00">sml/graphics_wrapper/color.h</text>
</a>
</g>
</g>
<!-- Node21&#45;&gt;Node22 -->
<g id="edge27" class="edge">
<title>Node21&#45;&gt;Node22</title>
<path fill="none" stroke="midnightblue" d="M987.76,-168.08C994.96,-160.3 1005.61,-148.8 1014.35,-139.37"/>
<polygon fill="midnightblue" stroke="midnightblue" points="1017.17,-141.47 1021.4,-131.75 1012.03,-136.71 1017.17,-141.47"/>
</g>
<!-- Node23 -->
<g id="node23" class="node">
<title>Node23</title>
<g id="a_node23"><a xlink:href="insets_8h.html" target="_top" xlink:title=" ">
<polygon fill="white" stroke="black" points="1119,-112.5 1119,-131.5 1170,-131.5 1170,-112.5 1119,-112.5"/>
<text text-anchor="middle" x="1144.5" y="-119.5" font-family="Helvetica,sans-Serif" font-size="10.00">insets.h</text>
</a>
</g>
</g>
<!-- Node21&#45;&gt;Node23 -->
<g id="edge29" class="edge">
<title>Node21&#45;&gt;Node23</title>
<path fill="none" stroke="midnightblue" d="M1005.64,-168.44C1033.61,-159.29 1078.11,-144.73 1109.17,-134.56"/>
<polygon fill="midnightblue" stroke="midnightblue" points="1110.33,-137.86 1118.75,-131.43 1108.16,-131.21 1110.33,-137.86"/>
</g>
<!-- Node24 -->
<g id="node24" class="node">
<title>Node24</title>
<g id="a_node24"><a xlink:title=" ">
<polygon fill="white" stroke="#bfbfbf" points="1120,-56.5 1120,-75.5 1169,-75.5 1169,-56.5 1120,-56.5"/>
<text text-anchor="middle" x="1144.5" y="-63.5" font-family="Helvetica,sans-Serif" font-size="10.00">stdint.h</text>
</a>
</g>
</g>
<!-- Node23&#45;&gt;Node24 -->
<g id="edge30" class="edge">
<title>Node23&#45;&gt;Node24</title>
<path fill="none" stroke="midnightblue" d="M1144.5,-112.08C1144.5,-105.01 1144.5,-94.86 1144.5,-85.99"/>
<polygon fill="midnightblue" stroke="midnightblue" points="1148,-85.75 1144.5,-75.75 1141,-85.75 1148,-85.75"/>
</g>
</g>
</svg>
