<?xml version="1.0" encoding="UTF-8" standalone="no"?>
<!DOCTYPE svg PUBLIC "-//W3C//DTD SVG 1.1//EN"
 "http://www.w3.org/Graphics/SVG/1.1/DTD/svg11.dtd">
<!-- Generated by graphviz version 2.50.0 (20211204.2007)
 -->
<!-- Title: shape.h Pages: 1 -->
<svg width="474pt" height="364pt"
 viewBox="0.00 0.00 473.50 364.00" xmlns="http://www.w3.org/2000/svg" xmlns:xlink="http://www.w3.org/1999/xlink">
<g id="graph0" class="graph" transform="scale(1 1) rotate(0) translate(4 360)">
<title>shape.h</title>
<polygon fill="white" stroke="transparent" points="-4,4 -4,-360 469.5,-360 469.5,4 -4,4"/>
<!-- Node1 -->
<g id="node1" class="node">
<title>Node1</title>
<g id="a_node1"><a xlink:title=" ">
<polygon fill="#bfbfbf" stroke="black" points="171.5,-336.5 171.5,-355.5 222.5,-355.5 222.5,-336.5 171.5,-336.5"/>
<text text-anchor="middle" x="197" y="-343.5" font-family="Helvetica,sans-Serif" font-size="10.00">shape.h</text>
</a>
</g>
</g>
<!-- Node2 -->
<g id="node2" class="node">
<title>Node2</title>
<g id="a_node2"><a xlink:href="circle_8h.html" target="_top" xlink:title=" ">
<polygon fill="white" stroke="black" points="75,-280.5 75,-299.5 123,-299.5 123,-280.5 75,-280.5"/>
<text text-anchor="middle" x="99" y="-287.5" font-family="Helvetica,sans-Serif" font-size="10.00">circle.h</text>
</a>
</g>
</g>
<!-- Node1&#45;&gt;Node2 -->
<g id="edge1" class="edge">
<title>Node1&#45;&gt;Node2</title>
<path fill="none" stroke="midnightblue" d="M172.41,-331.45C154.32,-321.48 130.27,-308.23 114.71,-299.65"/>
<polygon fill="midnightblue" stroke="midnightblue" points="170.81,-334.56 181.25,-336.32 174.19,-328.43 170.81,-334.56"/>
</g>
<!-- Node5 -->
<g id="node5" class="node">
<title>Node5</title>
<g id="a_node5"><a xlink:href="rectangle_8h.html" target="_top" xlink:title=" ">
<polygon fill="white" stroke="black" points="200.5,-280.5 200.5,-299.5 265.5,-299.5 265.5,-280.5 200.5,-280.5"/>
<text text-anchor="middle" x="233" y="-287.5" font-family="Helvetica,sans-Serif" font-size="10.00">rectangle.h</text>
</a>
</g>
</g>
<!-- Node1&#45;&gt;Node5 -->
<g id="edge4" class="edge">
<title>Node1&#45;&gt;Node5</title>
<path fill="none" stroke="midnightblue" d="M208.62,-327.57C214.82,-318.27 222.17,-307.25 227.17,-299.75"/>
<polygon fill="midnightblue" stroke="midnightblue" points="205.58,-325.82 202.94,-336.08 211.4,-329.7 205.58,-325.82"/>
</g>
<!-- Node23 -->
<g id="node23" class="node">
<title>Node23</title>
<g id="a_node23"><a xlink:href="shape_8cpp.html" target="_top" xlink:title=" ">
<polygon fill="white" stroke="black" points="284,-280.5 284,-299.5 346,-299.5 346,-280.5 284,-280.5"/>
<text text-anchor="middle" x="315" y="-287.5" font-family="Helvetica,sans-Serif" font-size="10.00">shape.cpp</text>
</a>
</g>
</g>
<!-- Node1&#45;&gt;Node23 -->
<g id="edge26" class="edge">
<title>Node1&#45;&gt;Node23</title>
<path fill="none" stroke="midnightblue" d="M224.9,-332.23C246.97,-322.13 277.18,-308.31 296.39,-299.52"/>
<polygon fill="midnightblue" stroke="midnightblue" points="223.33,-329.1 215.7,-336.44 226.25,-335.46 223.33,-329.1"/>
</g>
<!-- Node24 -->
<g id="node24" class="node">
<title>Node24</title>
<g id="a_node24"><a xlink:href="text_8h.html" target="_top" xlink:title=" ">
<polygon fill="white" stroke="black" points="141.5,-280.5 141.5,-299.5 182.5,-299.5 182.5,-280.5 141.5,-280.5"/>
<text text-anchor="middle" x="162" y="-287.5" font-family="Helvetica,sans-Serif" font-size="10.00">text.h</text>
</a>
</g>
</g>
<!-- Node1&#45;&gt;Node24 -->
<g id="edge27" class="edge">
<title>Node1&#45;&gt;Node24</title>
<path fill="none" stroke="midnightblue" d="M185.7,-327.57C179.68,-318.27 172.53,-307.25 167.67,-299.75"/>
<polygon fill="midnightblue" stroke="midnightblue" points="182.84,-329.6 191.22,-336.08 188.72,-325.79 182.84,-329.6"/>
</g>
<!-- Node3 -->
<g id="node3" class="node">
<title>Node3</title>
<g id="a_node3"><a xlink:href="circle_8cpp.html" target="_top" xlink:title=" ">
<polygon fill="white" stroke="black" points="1.5,-224.5 1.5,-243.5 60.5,-243.5 60.5,-224.5 1.5,-224.5"/>
<text text-anchor="middle" x="31" y="-231.5" font-family="Helvetica,sans-Serif" font-size="10.00">circle.cpp</text>
</a>
</g>
</g>
<!-- Node2&#45;&gt;Node3 -->
<g id="edge2" class="edge">
<title>Node2&#45;&gt;Node3</title>
<path fill="none" stroke="midnightblue" d="M80.24,-274.1C68,-264.38 52.44,-252.03 42.12,-243.83"/>
<polygon fill="midnightblue" stroke="midnightblue" points="78.07,-276.85 88.07,-280.32 82.42,-271.36 78.07,-276.85"/>
</g>
<!-- Node4 -->
<g id="node4" class="node">
<title>Node4</title>
<g id="a_node4"><a xlink:href="shapes_8h.html" target="_top" xlink:title=" ">
<polygon fill="white" stroke="black" points="79,-224.5 79,-243.5 135,-243.5 135,-224.5 79,-224.5"/>
<text text-anchor="middle" x="107" y="-231.5" font-family="Helvetica,sans-Serif" font-size="10.00">shapes.h</text>
</a>
</g>
</g>
<!-- Node2&#45;&gt;Node4 -->
<g id="edge3" class="edge">
<title>Node2&#45;&gt;Node4</title>
<path fill="none" stroke="midnightblue" d="M101.8,-270.1C103.13,-261.14 104.65,-250.86 105.7,-243.75"/>
<polygon fill="midnightblue" stroke="midnightblue" points="98.32,-269.68 100.32,-280.08 105.25,-270.7 98.32,-269.68"/>
</g>
<!-- Node5&#45;&gt;Node4 -->
<g id="edge25" class="edge">
<title>Node5&#45;&gt;Node4</title>
<path fill="none" stroke="midnightblue" d="M203.84,-276.5C180.22,-266.38 147.57,-252.39 126.87,-243.52"/>
<polygon fill="midnightblue" stroke="midnightblue" points="202.46,-279.72 213.03,-280.44 205.22,-273.29 202.46,-279.72"/>
</g>
<!-- Node6 -->
<g id="node6" class="node">
<title>Node6</title>
<g id="a_node6"><a xlink:href="default__skins_8h.html" target="_top" xlink:title=" ">
<polygon fill="white" stroke="black" points="191.5,-224.5 191.5,-243.5 274.5,-243.5 274.5,-224.5 191.5,-224.5"/>
<text text-anchor="middle" x="233" y="-231.5" font-family="Helvetica,sans-Serif" font-size="10.00">default_skins.h</text>
</a>
</g>
</g>
<!-- Node5&#45;&gt;Node6 -->
<g id="edge5" class="edge">
<title>Node5&#45;&gt;Node6</title>
<path fill="none" stroke="midnightblue" d="M233,-269.8C233,-260.91 233,-250.78 233,-243.75"/>
<polygon fill="midnightblue" stroke="midnightblue" points="229.5,-270.08 233,-280.08 236.5,-270.08 229.5,-270.08"/>
</g>
<!-- Node22 -->
<g id="node22" class="node">
<title>Node22</title>
<g id="a_node22"><a xlink:href="rectangle_8cpp.html" target="_top" xlink:title=" ">
<polygon fill="white" stroke="black" points="292.5,-224.5 292.5,-243.5 367.5,-243.5 367.5,-224.5 292.5,-224.5"/>
<text text-anchor="middle" x="330" y="-231.5" font-family="Helvetica,sans-Serif" font-size="10.00">rectangle.cpp</text>
</a>
</g>
</g>
<!-- Node5&#45;&gt;Node22 -->
<g id="edge24" class="edge">
<title>Node5&#45;&gt;Node22</title>
<path fill="none" stroke="midnightblue" d="M257.34,-275.45C275.24,-265.48 299.05,-252.23 314.45,-243.65"/>
<polygon fill="midnightblue" stroke="midnightblue" points="255.62,-272.4 248.58,-280.32 259.02,-278.52 255.62,-272.4"/>
</g>
<!-- Node7 -->
<g id="node7" class="node">
<title>Node7</title>
<g id="a_node7"><a xlink:href="button_8h.html" target="_top" xlink:title=" ">
<polygon fill="white" stroke="black" points="280,-168.5 280,-187.5 332,-187.5 332,-168.5 280,-168.5"/>
<text text-anchor="middle" x="306" y="-175.5" font-family="Helvetica,sans-Serif" font-size="10.00">button.h</text>
</a>
</g>
</g>
<!-- Node6&#45;&gt;Node7 -->
<g id="edge6" class="edge">
<title>Node6&#45;&gt;Node7</title>
<path fill="none" stroke="midnightblue" d="M253.14,-218.1C266.28,-208.38 282.98,-196.03 294.06,-187.83"/>
<polygon fill="midnightblue" stroke="midnightblue" points="250.69,-215.56 244.73,-224.32 254.85,-221.19 250.69,-215.56"/>
</g>
<!-- Node11 -->
<g id="node11" class="node">
<title>Node11</title>
<g id="a_node11"><a xlink:href="default__skins_8cpp.html" target="_top" xlink:title=" ">
<polygon fill="white" stroke="black" points="363.5,-112.5 363.5,-131.5 456.5,-131.5 456.5,-112.5 363.5,-112.5"/>
<text text-anchor="middle" x="410" y="-119.5" font-family="Helvetica,sans-Serif" font-size="10.00">default_skins.cpp</text>
</a>
</g>
</g>
<!-- Node6&#45;&gt;Node11 -->
<g id="edge19" class="edge">
<title>Node6&#45;&gt;Node11</title>
<path fill="none" stroke="midnightblue" d="M270.46,-221.17C292.04,-213.45 319.12,-202.18 341,-188 366.41,-171.53 390.94,-145.16 402.73,-131.62"/>
<polygon fill="midnightblue" stroke="midnightblue" points="269.28,-217.88 260.98,-224.46 271.57,-224.49 269.28,-217.88"/>
</g>
<!-- Node18 -->
<g id="node18" class="node">
<title>Node18</title>
<g id="a_node18"><a xlink:href="scroll__bar_8cpp.html" target="_top" xlink:title=" ">
<polygon fill="white" stroke="black" points="388.5,-168.5 388.5,-187.5 465.5,-187.5 465.5,-168.5 388.5,-168.5"/>
<text text-anchor="middle" x="427" y="-175.5" font-family="Helvetica,sans-Serif" font-size="10.00">scroll_bar.cpp</text>
</a>
</g>
</g>
<!-- Node6&#45;&gt;Node18 -->
<g id="edge20" class="edge">
<title>Node6&#45;&gt;Node18</title>
<path fill="none" stroke="midnightblue" d="M273.6,-221.7C310.22,-211.51 363.26,-196.74 396.4,-187.52"/>
<polygon fill="midnightblue" stroke="midnightblue" points="272.44,-218.39 263.74,-224.44 274.31,-225.13 272.44,-218.39"/>
</g>
<!-- Node19 -->
<g id="node19" class="node">
<title>Node19</title>
<g id="a_node19"><a xlink:href="scroll__pane_8cpp.html" target="_top" xlink:title=" ">
<polygon fill="white" stroke="black" points="100.5,-168.5 100.5,-187.5 185.5,-187.5 185.5,-168.5 100.5,-168.5"/>
<text text-anchor="middle" x="143" y="-175.5" font-family="Helvetica,sans-Serif" font-size="10.00">scroll_pane.cpp</text>
</a>
</g>
</g>
<!-- Node6&#45;&gt;Node19 -->
<g id="edge21" class="edge">
<title>Node6&#45;&gt;Node19</title>
<path fill="none" stroke="midnightblue" d="M209.96,-219.18C193.4,-209.24 171.58,-196.15 157.42,-187.65"/>
<polygon fill="midnightblue" stroke="midnightblue" points="208.16,-222.18 218.54,-224.32 211.77,-216.18 208.16,-222.18"/>
</g>
<!-- Node20 -->
<g id="node20" class="node">
<title>Node20</title>
<g id="a_node20"><a xlink:href="slider_8cpp.html" target="_top" xlink:title=" ">
<polygon fill="white" stroke="black" points="204,-168.5 204,-187.5 262,-187.5 262,-168.5 204,-168.5"/>
<text text-anchor="middle" x="233" y="-175.5" font-family="Helvetica,sans-Serif" font-size="10.00">slider.cpp</text>
</a>
</g>
</g>
<!-- Node6&#45;&gt;Node20 -->
<g id="edge22" class="edge">
<title>Node6&#45;&gt;Node20</title>
<path fill="none" stroke="midnightblue" d="M233,-213.8C233,-204.91 233,-194.78 233,-187.75"/>
<polygon fill="midnightblue" stroke="midnightblue" points="229.5,-214.08 233,-224.08 236.5,-214.08 229.5,-214.08"/>
</g>
<!-- Node21 -->
<g id="node21" class="node">
<title>Node21</title>
<g id="a_node21"><a xlink:href="text_8cpp.html" target="_top" xlink:title=" ">
<polygon fill="white" stroke="black" points="30,-168.5 30,-187.5 82,-187.5 82,-168.5 30,-168.5"/>
<text text-anchor="middle" x="56" y="-175.5" font-family="Helvetica,sans-Serif" font-size="10.00">text.cpp</text>
</a>
</g>
</g>
<!-- Node6&#45;&gt;Node21 -->
<g id="edge23" class="edge">
<title>Node6&#45;&gt;Node21</title>
<path fill="none" stroke="midnightblue" d="M195.35,-221.51C161.32,-211.13 112.11,-196.12 82.18,-186.99"/>
<polygon fill="midnightblue" stroke="midnightblue" points="194.37,-224.87 204.95,-224.44 196.41,-218.18 194.37,-224.87"/>
</g>
<!-- Node8 -->
<g id="node8" class="node">
<title>Node8</title>
<g id="a_node8"><a xlink:href="button_8cpp.html" target="_top" xlink:title=" ">
<polygon fill="white" stroke="black" points="245,-112.5 245,-131.5 307,-131.5 307,-112.5 245,-112.5"/>
<text text-anchor="middle" x="276" y="-119.5" font-family="Helvetica,sans-Serif" font-size="10.00">button.cpp</text>
</a>
</g>
</g>
<!-- Node7&#45;&gt;Node8 -->
<g id="edge7" class="edge">
<title>Node7&#45;&gt;Node8</title>
<path fill="none" stroke="midnightblue" d="M296.15,-159.27C291.03,-150.05 284.98,-139.17 280.86,-131.75"/>
<polygon fill="midnightblue" stroke="midnightblue" points="293.13,-161.04 301.05,-168.08 299.25,-157.64 293.13,-161.04"/>
</g>
<!-- Node9 -->
<g id="node9" class="node">
<title>Node9</title>
<g id="a_node9"><a xlink:href="context__menu_8cpp.html" target="_top" xlink:title=" ">
<polygon fill="white" stroke="black" points="289.5,-0.5 289.5,-19.5 386.5,-19.5 386.5,-0.5 289.5,-0.5"/>
<text text-anchor="middle" x="338" y="-7.5" font-family="Helvetica,sans-Serif" font-size="10.00">context_menu.cpp</text>
</a>
</g>
</g>
<!-- Node7&#45;&gt;Node9 -->
<g id="edge8" class="edge">
<title>Node7&#45;&gt;Node9</title>
<path fill="none" stroke="midnightblue" d="M310.28,-158.51C312.11,-150.39 314.24,-140.74 316,-132 324.5,-89.93 333.21,-39.33 336.57,-19.53"/>
<polygon fill="midnightblue" stroke="midnightblue" points="306.84,-157.87 308.02,-168.39 313.66,-159.43 306.84,-157.87"/>
</g>
<!-- Node10 -->
<g id="node10" class="node">
<title>Node10</title>
<g id="a_node10"><a xlink:href="controls_8h.html" target="_top" xlink:title=" ">
<polygon fill="white" stroke="black" points="167.5,-112.5 167.5,-131.5 226.5,-131.5 226.5,-112.5 167.5,-112.5"/>
<text text-anchor="middle" x="197" y="-119.5" font-family="Helvetica,sans-Serif" font-size="10.00">controls.h</text>
</a>
</g>
</g>
<!-- Node7&#45;&gt;Node10 -->
<g id="edge9" class="edge">
<title>Node7&#45;&gt;Node10</title>
<path fill="none" stroke="midnightblue" d="M279.48,-163.86C259.27,-153.85 232.01,-140.35 214.47,-131.65"/>
<polygon fill="midnightblue" stroke="midnightblue" points="277.97,-167.02 288.49,-168.32 281.08,-160.75 277.97,-167.02"/>
</g>
<!-- Node7&#45;&gt;Node11 -->
<g id="edge10" class="edge">
<title>Node7&#45;&gt;Node11</title>
<path fill="none" stroke="midnightblue" d="M331.83,-163.59C351.06,-153.61 376.74,-140.27 393.33,-131.65"/>
<polygon fill="midnightblue" stroke="midnightblue" points="329.97,-160.61 322.71,-168.32 333.2,-166.82 329.97,-160.61"/>
</g>
<!-- Node12 -->
<g id="node12" class="node">
<title>Node12</title>
<g id="a_node12"><a xlink:href="menu__bar_8h.html" target="_top" xlink:title=" ">
<polygon fill="white" stroke="black" points="76.5,-112.5 76.5,-131.5 143.5,-131.5 143.5,-112.5 76.5,-112.5"/>
<text text-anchor="middle" x="110" y="-119.5" font-family="Helvetica,sans-Serif" font-size="10.00">menu_bar.h</text>
</a>
</g>
</g>
<!-- Node7&#45;&gt;Node12 -->
<g id="edge11" class="edge">
<title>Node7&#45;&gt;Node12</title>
<path fill="none" stroke="midnightblue" d="M270.11,-167.11C233.12,-156.92 176.06,-141.2 140.99,-131.54"/>
<polygon fill="midnightblue" stroke="midnightblue" points="269.4,-170.55 279.97,-169.83 271.26,-163.8 269.4,-170.55"/>
</g>
<!-- Node13 -->
<g id="node13" class="node">
<title>Node13</title>
<g id="a_node13"><a xlink:href="containers_8h.html" target="_top" xlink:title=" ">
<polygon fill="white" stroke="black" points="0,-56.5 0,-75.5 70,-75.5 70,-56.5 0,-56.5"/>
<text text-anchor="middle" x="35" y="-63.5" font-family="Helvetica,sans-Serif" font-size="10.00">containers.h</text>
</a>
</g>
</g>
<!-- Node12&#45;&gt;Node13 -->
<g id="edge12" class="edge">
<title>Node12&#45;&gt;Node13</title>
<path fill="none" stroke="midnightblue" d="M89.69,-106.38C76.14,-96.62 58.76,-84.11 47.27,-75.83"/>
<polygon fill="midnightblue" stroke="midnightblue" points="87.79,-109.32 97.95,-112.32 91.88,-103.64 87.79,-109.32"/>
</g>
<!-- Node14 -->
<g id="node14" class="node">
<title>Node14</title>
<g id="a_node14"><a xlink:href="menu__bar_8cpp.html" target="_top" xlink:title=" ">
<polygon fill="white" stroke="black" points="12.5,-0.5 12.5,-19.5 89.5,-19.5 89.5,-0.5 12.5,-0.5"/>
<text text-anchor="middle" x="51" y="-7.5" font-family="Helvetica,sans-Serif" font-size="10.00">menu_bar.cpp</text>
</a>
</g>
</g>
<!-- Node12&#45;&gt;Node14 -->
<g id="edge13" class="edge">
<title>Node12&#45;&gt;Node14</title>
<path fill="none" stroke="midnightblue" d="M102.11,-103.08C96.13,-89.88 87.53,-71.58 79,-56 71.93,-43.09 62.76,-28.74 56.88,-19.79"/>
<polygon fill="midnightblue" stroke="midnightblue" points="99.01,-104.73 106.28,-112.43 105.4,-101.88 99.01,-104.73"/>
</g>
<!-- Node15 -->
<g id="node15" class="node">
<title>Node15</title>
<g id="a_node15"><a xlink:href="scene_8h.html" target="_top" xlink:title=" ">
<polygon fill="white" stroke="black" points="126.5,-56.5 126.5,-75.5 177.5,-75.5 177.5,-56.5 126.5,-56.5"/>
<text text-anchor="middle" x="152" y="-63.5" font-family="Helvetica,sans-Serif" font-size="10.00">scene.h</text>
</a>
</g>
</g>
<!-- Node12&#45;&gt;Node15 -->
<g id="edge14" class="edge">
<title>Node12&#45;&gt;Node15</title>
<path fill="none" stroke="midnightblue" d="M123.11,-104.14C130.43,-94.74 139.24,-83.4 145.19,-75.75"/>
<polygon fill="midnightblue" stroke="midnightblue" points="120.31,-102.04 116.94,-112.08 125.84,-106.34 120.31,-102.04"/>
</g>
<!-- Node15&#45;&gt;Node9 -->
<g id="edge16" class="edge">
<title>Node15&#45;&gt;Node9</title>
<path fill="none" stroke="midnightblue" d="M187.71,-54.63C222.87,-44.42 275.92,-29.02 308.68,-19.51"/>
<polygon fill="midnightblue" stroke="midnightblue" points="186.49,-51.34 177.86,-57.49 188.44,-58.06 186.49,-51.34"/>
</g>
<!-- Node15&#45;&gt;Node14 -->
<g id="edge17" class="edge">
<title>Node15&#45;&gt;Node14</title>
<path fill="none" stroke="midnightblue" d="M126.92,-51.59C108.24,-41.61 83.3,-28.27 67.19,-19.65"/>
<polygon fill="midnightblue" stroke="midnightblue" points="125.3,-54.7 135.77,-56.32 128.6,-48.52 125.3,-54.7"/>
</g>
<!-- Node16 -->
<g id="node16" class="node">
<title>Node16</title>
<g id="a_node16"><a xlink:href="component_8cpp.html" target="_top" xlink:title=" ">
<polygon fill="white" stroke="black" points="107.5,-0.5 107.5,-19.5 190.5,-19.5 190.5,-0.5 107.5,-0.5"/>
<text text-anchor="middle" x="149" y="-7.5" font-family="Helvetica,sans-Serif" font-size="10.00">component.cpp</text>
</a>
</g>
</g>
<!-- Node15&#45;&gt;Node16 -->
<g id="edge15" class="edge">
<title>Node15&#45;&gt;Node16</title>
<path fill="none" stroke="midnightblue" d="M150.93,-45.8C150.44,-36.91 149.88,-26.78 149.49,-19.75"/>
<polygon fill="midnightblue" stroke="midnightblue" points="147.46,-46.29 151.5,-56.08 154.44,-45.9 147.46,-46.29"/>
</g>
<!-- Node17 -->
<g id="node17" class="node">
<title>Node17</title>
<g id="a_node17"><a xlink:href="scene_8cpp.html" target="_top" xlink:title=" ">
<polygon fill="white" stroke="black" points="209,-0.5 209,-19.5 271,-19.5 271,-0.5 209,-0.5"/>
<text text-anchor="middle" x="240" y="-7.5" font-family="Helvetica,sans-Serif" font-size="10.00">scene.cpp</text>
</a>
</g>
</g>
<!-- Node15&#45;&gt;Node17 -->
<g id="edge18" class="edge">
<title>Node15&#45;&gt;Node17</title>
<path fill="none" stroke="midnightblue" d="M174.98,-50.9C191.11,-41 212.18,-28.07 225.9,-19.65"/>
<polygon fill="midnightblue" stroke="midnightblue" points="172.83,-48.11 166.14,-56.32 176.49,-54.08 172.83,-48.11"/>
</g>
<!-- Node24&#45;&gt;Node4 -->
<g id="edge29" class="edge">
<title>Node24&#45;&gt;Node4</title>
<path fill="none" stroke="midnightblue" d="M145.71,-273C135.96,-263.43 123.95,-251.64 115.91,-243.75"/>
<polygon fill="midnightblue" stroke="midnightblue" points="143.33,-275.57 152.92,-280.08 148.23,-270.58 143.33,-275.57"/>
</g>
<!-- Node24&#45;&gt;Node6 -->
<g id="edge28" class="edge">
<title>Node24&#45;&gt;Node6</title>
<path fill="none" stroke="midnightblue" d="M181.59,-274.1C194.37,-264.38 210.61,-252.03 221.39,-243.83"/>
<polygon fill="midnightblue" stroke="midnightblue" points="179.25,-271.48 173.41,-280.32 183.49,-277.06 179.25,-271.48"/>
</g>
<!-- Node24&#45;&gt;Node21 -->
<g id="edge30" class="edge">
<title>Node24&#45;&gt;Node21</title>
<path fill="none" stroke="midnightblue" d="M160.84,-270.41C159.09,-256.31 154.74,-237.17 144,-224 128.17,-204.58 101.77,-192.68 82.01,-186.03"/>
<polygon fill="midnightblue" stroke="midnightblue" points="157.36,-270.79 161.76,-280.43 164.33,-270.15 157.36,-270.79"/>
</g>
</g>
</svg>
