<?xml version="1.0" encoding="UTF-8" standalone="no"?>
<!DOCTYPE svg PUBLIC "-//W3C//DTD SVG 1.1//EN"
 "http://www.w3.org/Graphics/SVG/1.1/DTD/svg11.dtd">
<!-- Generated by graphviz version 2.50.0 (20211204.2007)
 -->
<!-- Title: skin.h Pages: 1 -->
<svg width="784pt" height="308pt"
 viewBox="0.00 0.00 784.00 308.00" xmlns="http://www.w3.org/2000/svg" xmlns:xlink="http://www.w3.org/1999/xlink">
<g id="graph0" class="graph" transform="scale(1 1) rotate(0) translate(4 304)">
<title>skin.h</title>
<polygon fill="white" stroke="transparent" points="-4,4 -4,-304 780,-304 780,4 -4,4"/>
<!-- Node1 -->
<g id="node1" class="node">
<title>Node1</title>
<g id="a_node1"><a xlink:title=" ">
<polygon fill="#bfbfbf" stroke="black" points="270,-280.5 270,-299.5 313,-299.5 313,-280.5 270,-280.5"/>
<text text-anchor="middle" x="291.5" y="-287.5" font-family="Helvetica,sans-Serif" font-size="10.00">skin.h</text>
</a>
</g>
</g>
<!-- Node2 -->
<g id="node2" class="node">
<title>Node2</title>
<g id="a_node2"><a xlink:href="control_8h.html" target="_top" xlink:title=" ">
<polygon fill="white" stroke="black" points="264.5,-224.5 264.5,-243.5 318.5,-243.5 318.5,-224.5 264.5,-224.5"/>
<text text-anchor="middle" x="291.5" y="-231.5" font-family="Helvetica,sans-Serif" font-size="10.00">control.h</text>
</a>
</g>
</g>
<!-- Node1&#45;&gt;Node2 -->
<g id="edge1" class="edge">
<title>Node1&#45;&gt;Node2</title>
<path fill="none" stroke="midnightblue" d="M291.5,-269.8C291.5,-260.91 291.5,-250.78 291.5,-243.75"/>
<polygon fill="midnightblue" stroke="midnightblue" points="288,-270.08 291.5,-280.08 295,-270.08 288,-270.08"/>
</g>
<!-- Node18 -->
<g id="node18" class="node">
<title>Node18</title>
<g id="a_node18"><a xlink:href="skin_8cpp.html" target="_top" xlink:title=" ">
<polygon fill="white" stroke="black" points="48,-168.5 48,-187.5 101,-187.5 101,-168.5 48,-168.5"/>
<text text-anchor="middle" x="74.5" y="-175.5" font-family="Helvetica,sans-Serif" font-size="10.00">skin.cpp</text>
</a>
</g>
</g>
<!-- Node1&#45;&gt;Node18 -->
<g id="edge32" class="edge">
<title>Node1&#45;&gt;Node18</title>
<path fill="none" stroke="midnightblue" d="M265.33,-275.73C220.25,-252.88 129.17,-206.71 91.45,-187.59"/>
<polygon fill="midnightblue" stroke="midnightblue" points="263.97,-278.97 274.47,-280.37 267.14,-272.73 263.97,-278.97"/>
</g>
<!-- Node21 -->
<g id="node21" class="node">
<title>Node21</title>
<g id="a_node21"><a xlink:href="default__skins_8h.html" target="_top" xlink:title=" ">
<polygon fill="white" stroke="black" points="492,-224.5 492,-243.5 575,-243.5 575,-224.5 492,-224.5"/>
<text text-anchor="middle" x="533.5" y="-231.5" font-family="Helvetica,sans-Serif" font-size="10.00">default_skins.h</text>
</a>
</g>
</g>
<!-- Node1&#45;&gt;Node21 -->
<g id="edge25" class="edge">
<title>Node1&#45;&gt;Node21</title>
<path fill="none" stroke="midnightblue" d="M323.34,-281.9C367.66,-272.01 447.85,-254.11 495.32,-243.52"/>
<polygon fill="midnightblue" stroke="midnightblue" points="322.4,-278.52 313.4,-284.11 323.92,-285.35 322.4,-278.52"/>
</g>
<!-- Node3 -->
<g id="node3" class="node">
<title>Node3</title>
<g id="a_node3"><a xlink:href="button_8h.html" target="_top" xlink:title=" ">
<polygon fill="white" stroke="black" points="265.5,-168.5 265.5,-187.5 317.5,-187.5 317.5,-168.5 265.5,-168.5"/>
<text text-anchor="middle" x="291.5" y="-175.5" font-family="Helvetica,sans-Serif" font-size="10.00">button.h</text>
</a>
</g>
</g>
<!-- Node2&#45;&gt;Node3 -->
<g id="edge2" class="edge">
<title>Node2&#45;&gt;Node3</title>
<path fill="none" stroke="midnightblue" d="M291.5,-213.8C291.5,-204.91 291.5,-194.78 291.5,-187.75"/>
<polygon fill="midnightblue" stroke="midnightblue" points="288,-214.08 291.5,-224.08 295,-214.08 288,-214.08"/>
</g>
<!-- Node12 -->
<g id="node12" class="node">
<title>Node12</title>
<g id="a_node12"><a xlink:href="control_8cpp.html" target="_top" xlink:title=" ">
<polygon fill="white" stroke="black" points="182,-168.5 182,-187.5 247,-187.5 247,-168.5 182,-168.5"/>
<text text-anchor="middle" x="214.5" y="-175.5" font-family="Helvetica,sans-Serif" font-size="10.00">control.cpp</text>
</a>
</g>
</g>
<!-- Node2&#45;&gt;Node12 -->
<g id="edge13" class="edge">
<title>Node2&#45;&gt;Node12</title>
<path fill="none" stroke="midnightblue" d="M270.6,-218.34C256.59,-208.52 238.62,-195.91 226.84,-187.65"/>
<polygon fill="midnightblue" stroke="midnightblue" points="268.93,-221.45 279.13,-224.32 272.95,-215.72 268.93,-221.45"/>
</g>
<!-- Node13 -->
<g id="node13" class="node">
<title>Node13</title>
<g id="a_node13"><a xlink:href="label_8h.html" target="_top" xlink:title=" ">
<polygon fill="white" stroke="black" points="119,-168.5 119,-187.5 164,-187.5 164,-168.5 119,-168.5"/>
<text text-anchor="middle" x="141.5" y="-175.5" font-family="Helvetica,sans-Serif" font-size="10.00">label.h</text>
</a>
</g>
</g>
<!-- Node2&#45;&gt;Node13 -->
<g id="edge14" class="edge">
<title>Node2&#45;&gt;Node13</title>
<path fill="none" stroke="midnightblue" d="M258.16,-221C229.57,-210.71 189.15,-196.16 164.17,-187.16"/>
<polygon fill="midnightblue" stroke="midnightblue" points="257.14,-224.35 267.73,-224.44 259.51,-217.76 257.14,-224.35"/>
</g>
<!-- Node14 -->
<g id="node14" class="node">
<title>Node14</title>
<g id="a_node14"><a xlink:href="scroll__bar_8h.html" target="_top" xlink:title=" ">
<polygon fill="white" stroke="black" points="373.5,-168.5 373.5,-187.5 439.5,-187.5 439.5,-168.5 373.5,-168.5"/>
<text text-anchor="middle" x="406.5" y="-175.5" font-family="Helvetica,sans-Serif" font-size="10.00">scroll_bar.h</text>
</a>
</g>
</g>
<!-- Node2&#45;&gt;Node14 -->
<g id="edge15" class="edge">
<title>Node2&#45;&gt;Node14</title>
<path fill="none" stroke="midnightblue" d="M318.98,-220.1C340.47,-210.01 369.72,-196.27 388.36,-187.52"/>
<polygon fill="midnightblue" stroke="midnightblue" points="317.29,-217.02 309.72,-224.44 320.26,-223.36 317.29,-217.02"/>
</g>
<!-- Node16 -->
<g id="node16" class="node">
<title>Node16</title>
<g id="a_node16"><a xlink:href="scroll__pane_8h.html" target="_top" xlink:title=" ">
<polygon fill="white" stroke="black" points="561.5,-168.5 561.5,-187.5 635.5,-187.5 635.5,-168.5 561.5,-168.5"/>
<text text-anchor="middle" x="598.5" y="-175.5" font-family="Helvetica,sans-Serif" font-size="10.00">scroll_pane.h</text>
</a>
</g>
</g>
<!-- Node2&#45;&gt;Node16 -->
<g id="edge18" class="edge">
<title>Node2&#45;&gt;Node16</title>
<path fill="none" stroke="midnightblue" d="M328.77,-226.44C387.88,-216.05 502.47,-195.89 561.45,-185.52"/>
<polygon fill="midnightblue" stroke="midnightblue" points="327.99,-223.03 318.74,-228.21 329.2,-229.92 327.99,-223.03"/>
</g>
<!-- Node2&#45;&gt;Node18 -->
<g id="edge21" class="edge">
<title>Node2&#45;&gt;Node18</title>
<path fill="none" stroke="midnightblue" d="M254.56,-223.97C217.77,-214.96 159.7,-200.66 109.5,-188 106.82,-187.32 104.03,-186.62 101.25,-185.9"/>
<polygon fill="midnightblue" stroke="midnightblue" points="253.8,-227.39 264.35,-226.37 255.47,-220.59 253.8,-227.39"/>
</g>
<!-- Node19 -->
<g id="node19" class="node">
<title>Node19</title>
<g id="a_node19"><a xlink:href="slider_8h.html" target="_top" xlink:title=" ">
<polygon fill="white" stroke="black" points="458,-168.5 458,-187.5 505,-187.5 505,-168.5 458,-168.5"/>
<text text-anchor="middle" x="481.5" y="-175.5" font-family="Helvetica,sans-Serif" font-size="10.00">slider.h</text>
</a>
</g>
</g>
<!-- Node2&#45;&gt;Node19 -->
<g id="edge22" class="edge">
<title>Node2&#45;&gt;Node19</title>
<path fill="none" stroke="midnightblue" d="M328.47,-222.49C366.78,-211.61 425.49,-194.92 457.92,-185.7"/>
<polygon fill="midnightblue" stroke="midnightblue" points="327.38,-219.16 318.72,-225.26 329.3,-225.9 327.38,-219.16"/>
</g>
<!-- Node4 -->
<g id="node4" class="node">
<title>Node4</title>
<g id="a_node4"><a xlink:href="button_8cpp.html" target="_top" xlink:title=" ">
<polygon fill="white" stroke="black" points="235.5,-112.5 235.5,-131.5 297.5,-131.5 297.5,-112.5 235.5,-112.5"/>
<text text-anchor="middle" x="266.5" y="-119.5" font-family="Helvetica,sans-Serif" font-size="10.00">button.cpp</text>
</a>
</g>
</g>
<!-- Node3&#45;&gt;Node4 -->
<g id="edge3" class="edge">
<title>Node3&#45;&gt;Node4</title>
<path fill="none" stroke="midnightblue" d="M283.16,-158.98C278.92,-149.82 273.95,-139.09 270.55,-131.75"/>
<polygon fill="midnightblue" stroke="midnightblue" points="279.99,-160.48 287.37,-168.08 286.35,-157.54 279.99,-160.48"/>
</g>
<!-- Node5 -->
<g id="node5" class="node">
<title>Node5</title>
<g id="a_node5"><a xlink:href="context__menu_8cpp.html" target="_top" xlink:title=" ">
<polygon fill="white" stroke="black" points="277,-0.5 277,-19.5 374,-19.5 374,-0.5 277,-0.5"/>
<text text-anchor="middle" x="325.5" y="-7.5" font-family="Helvetica,sans-Serif" font-size="10.00">context_menu.cpp</text>
</a>
</g>
</g>
<!-- Node3&#45;&gt;Node5 -->
<g id="edge4" class="edge">
<title>Node3&#45;&gt;Node5</title>
<path fill="none" stroke="midnightblue" d="M298.28,-158.95C301.14,-150.81 304.31,-141.01 306.5,-132 316.61,-90.47 322.56,-39.56 324.65,-19.6"/>
<polygon fill="midnightblue" stroke="midnightblue" points="294.94,-157.9 294.81,-168.5 301.51,-160.3 294.94,-157.9"/>
</g>
<!-- Node6 -->
<g id="node6" class="node">
<title>Node6</title>
<g id="a_node6"><a xlink:href="default__skins_8cpp.html" target="_top" xlink:title=" ">
<polygon fill="white" stroke="black" points="449,-112.5 449,-131.5 542,-131.5 542,-112.5 449,-112.5"/>
<text text-anchor="middle" x="495.5" y="-119.5" font-family="Helvetica,sans-Serif" font-size="10.00">default_skins.cpp</text>
</a>
</g>
</g>
<!-- Node3&#45;&gt;Node6 -->
<g id="edge5" class="edge">
<title>Node3&#45;&gt;Node6</title>
<path fill="none" stroke="midnightblue" d="M327.51,-167.47C365.97,-157.29 426.37,-141.3 463.3,-131.52"/>
<polygon fill="midnightblue" stroke="midnightblue" points="326.52,-164.11 317.75,-170.05 328.31,-170.88 326.52,-164.11"/>
</g>
<!-- Node7 -->
<g id="node7" class="node">
<title>Node7</title>
<g id="a_node7"><a xlink:href="menu__bar_8h.html" target="_top" xlink:title=" ">
<polygon fill="white" stroke="black" points="150,-112.5 150,-131.5 217,-131.5 217,-112.5 150,-112.5"/>
<text text-anchor="middle" x="183.5" y="-119.5" font-family="Helvetica,sans-Serif" font-size="10.00">menu_bar.h</text>
</a>
</g>
</g>
<!-- Node3&#45;&gt;Node7 -->
<g id="edge6" class="edge">
<title>Node3&#45;&gt;Node7</title>
<path fill="none" stroke="midnightblue" d="M264.95,-163.73C244.95,-153.73 218.11,-140.31 200.81,-131.65"/>
<polygon fill="midnightblue" stroke="midnightblue" points="263.64,-166.98 274.15,-168.32 266.77,-160.72 263.64,-166.98"/>
</g>
<!-- Node8 -->
<g id="node8" class="node">
<title>Node8</title>
<g id="a_node8"><a xlink:href="menu__bar_8cpp.html" target="_top" xlink:title=" ">
<polygon fill="white" stroke="black" points="182,-0.5 182,-19.5 259,-19.5 259,-0.5 182,-0.5"/>
<text text-anchor="middle" x="220.5" y="-7.5" font-family="Helvetica,sans-Serif" font-size="10.00">menu_bar.cpp</text>
</a>
</g>
</g>
<!-- Node7&#45;&gt;Node8 -->
<g id="edge7" class="edge">
<title>Node7&#45;&gt;Node8</title>
<path fill="none" stroke="midnightblue" d="M190.66,-102.84C193.8,-94.68 197.45,-84.9 200.5,-76 207.31,-56.12 214.32,-32.46 217.96,-19.89"/>
<polygon fill="midnightblue" stroke="midnightblue" points="187.29,-101.84 186.92,-112.43 193.81,-104.38 187.29,-101.84"/>
</g>
<!-- Node9 -->
<g id="node9" class="node">
<title>Node9</title>
<g id="a_node9"><a xlink:href="scene_8h.html" target="_top" xlink:title=" ">
<polygon fill="white" stroke="black" points="141,-56.5 141,-75.5 192,-75.5 192,-56.5 141,-56.5"/>
<text text-anchor="middle" x="166.5" y="-63.5" font-family="Helvetica,sans-Serif" font-size="10.00">scene.h</text>
</a>
</g>
</g>
<!-- Node7&#45;&gt;Node9 -->
<g id="edge8" class="edge">
<title>Node7&#45;&gt;Node9</title>
<path fill="none" stroke="midnightblue" d="M177.64,-102.4C174.8,-93.36 171.52,-82.94 169.25,-75.75"/>
<polygon fill="midnightblue" stroke="midnightblue" points="174.35,-103.6 180.69,-112.08 181.03,-101.49 174.35,-103.6"/>
</g>
<!-- Node9&#45;&gt;Node5 -->
<g id="edge10" class="edge">
<title>Node9&#45;&gt;Node5</title>
<path fill="none" stroke="midnightblue" d="M201.33,-53.17C231.27,-43 273.72,-28.59 300.42,-19.52"/>
<polygon fill="midnightblue" stroke="midnightblue" points="200.04,-49.91 191.69,-56.44 202.29,-56.54 200.04,-49.91"/>
</g>
<!-- Node9&#45;&gt;Node8 -->
<g id="edge11" class="edge">
<title>Node9&#45;&gt;Node8</title>
<path fill="none" stroke="midnightblue" d="M182.5,-49C192.07,-39.43 203.86,-27.64 211.75,-19.75"/>
<polygon fill="midnightblue" stroke="midnightblue" points="180.01,-46.54 175.42,-56.08 184.96,-51.49 180.01,-46.54"/>
</g>
<!-- Node10 -->
<g id="node10" class="node">
<title>Node10</title>
<g id="a_node10"><a xlink:href="component_8cpp.html" target="_top" xlink:title=" ">
<polygon fill="white" stroke="black" points="0,-0.5 0,-19.5 83,-19.5 83,-0.5 0,-0.5"/>
<text text-anchor="middle" x="41.5" y="-7.5" font-family="Helvetica,sans-Serif" font-size="10.00">component.cpp</text>
</a>
</g>
</g>
<!-- Node9&#45;&gt;Node10 -->
<g id="edge9" class="edge">
<title>Node9&#45;&gt;Node10</title>
<path fill="none" stroke="midnightblue" d="M137.26,-52.37C113.85,-42.26 81.66,-28.35 61.21,-19.52"/>
<polygon fill="midnightblue" stroke="midnightblue" points="136.13,-55.69 146.69,-56.44 138.9,-49.26 136.13,-55.69"/>
</g>
<!-- Node11 -->
<g id="node11" class="node">
<title>Node11</title>
<g id="a_node11"><a xlink:href="scene_8cpp.html" target="_top" xlink:title=" ">
<polygon fill="white" stroke="black" points="101.5,-0.5 101.5,-19.5 163.5,-19.5 163.5,-0.5 101.5,-0.5"/>
<text text-anchor="middle" x="132.5" y="-7.5" font-family="Helvetica,sans-Serif" font-size="10.00">scene.cpp</text>
</a>
</g>
</g>
<!-- Node9&#45;&gt;Node11 -->
<g id="edge12" class="edge">
<title>Node9&#45;&gt;Node11</title>
<path fill="none" stroke="midnightblue" d="M155.52,-47.57C149.67,-38.27 142.73,-27.25 138.01,-19.75"/>
<polygon fill="midnightblue" stroke="midnightblue" points="152.6,-49.49 160.89,-56.08 158.52,-45.76 152.6,-49.49"/>
</g>
<!-- Node14&#45;&gt;Node6 -->
<g id="edge16" class="edge">
<title>Node14&#45;&gt;Node6</title>
<path fill="none" stroke="midnightblue" d="M429.74,-162.9C446.06,-153 467.37,-140.07 481.24,-131.65"/>
<polygon fill="midnightblue" stroke="midnightblue" points="427.53,-160.14 420.8,-168.32 431.16,-166.13 427.53,-160.14"/>
</g>
<!-- Node15 -->
<g id="node15" class="node">
<title>Node15</title>
<g id="a_node15"><a xlink:href="scroll__bar_8cpp.html" target="_top" xlink:title=" ">
<polygon fill="white" stroke="black" points="354,-112.5 354,-131.5 431,-131.5 431,-112.5 354,-112.5"/>
<text text-anchor="middle" x="392.5" y="-119.5" font-family="Helvetica,sans-Serif" font-size="10.00">scroll_bar.cpp</text>
</a>
</g>
</g>
<!-- Node14&#45;&gt;Node15 -->
<g id="edge17" class="edge">
<title>Node14&#45;&gt;Node15</title>
<path fill="none" stroke="midnightblue" d="M401.68,-158.4C399.33,-149.36 396.63,-138.94 394.77,-131.75"/>
<polygon fill="midnightblue" stroke="midnightblue" points="398.29,-159.28 404.19,-168.08 405.07,-157.52 398.29,-159.28"/>
</g>
<!-- Node16&#45;&gt;Node6 -->
<g id="edge19" class="edge">
<title>Node16&#45;&gt;Node6</title>
<path fill="none" stroke="midnightblue" d="M572.92,-163.59C553.88,-153.61 528.44,-140.27 512.01,-131.65"/>
<polygon fill="midnightblue" stroke="midnightblue" points="571.47,-166.78 581.95,-168.32 574.72,-160.58 571.47,-166.78"/>
</g>
<!-- Node17 -->
<g id="node17" class="node">
<title>Node17</title>
<g id="a_node17"><a xlink:href="scroll__pane_8cpp.html" target="_top" xlink:title=" ">
<polygon fill="white" stroke="black" points="691,-112.5 691,-131.5 776,-131.5 776,-112.5 691,-112.5"/>
<text text-anchor="middle" x="733.5" y="-119.5" font-family="Helvetica,sans-Serif" font-size="10.00">scroll_pane.cpp</text>
</a>
</g>
</g>
<!-- Node16&#45;&gt;Node17 -->
<g id="edge20" class="edge">
<title>Node16&#45;&gt;Node17</title>
<path fill="none" stroke="midnightblue" d="M629.41,-164.64C654.74,-154.5 689.93,-140.43 712.21,-131.52"/>
<polygon fill="midnightblue" stroke="midnightblue" points="627.88,-161.48 619.89,-168.44 630.48,-167.98 627.88,-161.48"/>
</g>
<!-- Node19&#45;&gt;Node6 -->
<g id="edge23" class="edge">
<title>Node19&#45;&gt;Node6</title>
<path fill="none" stroke="midnightblue" d="M486.32,-158.4C488.67,-149.36 491.37,-138.94 493.23,-131.75"/>
<polygon fill="midnightblue" stroke="midnightblue" points="482.93,-157.52 483.81,-168.08 489.71,-159.28 482.93,-157.52"/>
</g>
<!-- Node20 -->
<g id="node20" class="node">
<title>Node20</title>
<g id="a_node20"><a xlink:href="slider_8cpp.html" target="_top" xlink:title=" ">
<polygon fill="white" stroke="black" points="590.5,-112.5 590.5,-131.5 648.5,-131.5 648.5,-112.5 590.5,-112.5"/>
<text text-anchor="middle" x="619.5" y="-119.5" font-family="Helvetica,sans-Serif" font-size="10.00">slider.cpp</text>
</a>
</g>
</g>
<!-- Node19&#45;&gt;Node20 -->
<g id="edge24" class="edge">
<title>Node19&#45;&gt;Node20</title>
<path fill="none" stroke="midnightblue" d="M512.75,-164.77C538.67,-154.63 574.86,-140.47 597.74,-131.52"/>
<polygon fill="midnightblue" stroke="midnightblue" points="511.4,-161.54 503.37,-168.44 513.95,-168.06 511.4,-161.54"/>
</g>
<!-- Node21&#45;&gt;Node3 -->
<g id="edge26" class="edge">
<title>Node21&#45;&gt;Node3</title>
<path fill="none" stroke="midnightblue" d="M485.17,-222.26C444.25,-213.17 384.02,-199.76 331.5,-188 327.05,-187 322.33,-185.94 317.75,-184.91"/>
<polygon fill="midnightblue" stroke="midnightblue" points="484.62,-225.73 495.15,-224.48 486.14,-218.89 484.62,-225.73"/>
</g>
<!-- Node21&#45;&gt;Node6 -->
<g id="edge27" class="edge">
<title>Node21&#45;&gt;Node6</title>
<path fill="none" stroke="midnightblue" d="M528.78,-214.78C525.23,-201.65 520.04,-183.58 514.5,-168 509.89,-155.06 503.51,-140.47 499.44,-131.51"/>
<polygon fill="midnightblue" stroke="midnightblue" points="525.4,-215.71 531.35,-224.49 532.17,-213.92 525.4,-215.71"/>
</g>
<!-- Node21&#45;&gt;Node15 -->
<g id="edge28" class="edge">
<title>Node21&#45;&gt;Node15</title>
<path fill="none" stroke="midnightblue" d="M481.58,-226.15C437.36,-219.13 378.79,-206.59 364.5,-188 350.87,-170.27 370.77,-144.9 383.42,-131.71"/>
<polygon fill="midnightblue" stroke="midnightblue" points="481.21,-229.64 491.62,-227.69 482.27,-222.72 481.21,-229.64"/>
</g>
<!-- Node21&#45;&gt;Node17 -->
<g id="edge29" class="edge">
<title>Node21&#45;&gt;Node17</title>
<path fill="none" stroke="midnightblue" d="M585.15,-229.74C643.12,-224.87 731.79,-213.4 752.5,-188 766.17,-171.23 750.37,-144.99 740.41,-131.55"/>
<polygon fill="midnightblue" stroke="midnightblue" points="584.75,-226.26 575.06,-230.54 585.31,-233.23 584.75,-226.26"/>
</g>
<!-- Node21&#45;&gt;Node20 -->
<g id="edge30" class="edge">
<title>Node21&#45;&gt;Node20</title>
<path fill="none" stroke="midnightblue" d="M584.77,-225.27C607.03,-219.09 631.04,-207.98 644.5,-188 656.79,-169.75 638.97,-144.6 627.64,-131.58"/>
<polygon fill="midnightblue" stroke="midnightblue" points="583.9,-221.88 575.05,-227.7 585.6,-228.67 583.9,-221.88"/>
</g>
<!-- Node22 -->
<g id="node22" class="node">
<title>Node22</title>
<g id="a_node22"><a xlink:href="text_8cpp.html" target="_top" xlink:title=" ">
<polygon fill="white" stroke="black" points="691.5,-168.5 691.5,-187.5 743.5,-187.5 743.5,-168.5 691.5,-168.5"/>
<text text-anchor="middle" x="717.5" y="-175.5" font-family="Helvetica,sans-Serif" font-size="10.00">text.cpp</text>
</a>
</g>
</g>
<!-- Node21&#45;&gt;Node22 -->
<g id="edge31" class="edge">
<title>Node21&#45;&gt;Node22</title>
<path fill="none" stroke="midnightblue" d="M572.3,-221.61C608.13,-211.1 660.38,-195.76 691.46,-186.64"/>
<polygon fill="midnightblue" stroke="midnightblue" points="571.27,-218.27 562.66,-224.44 573.24,-224.99 571.27,-218.27"/>
</g>
</g>
</svg>
