<?xml version="1.0" encoding="UTF-8" standalone="no"?>
<!DOCTYPE svg PUBLIC "-//W3C//DTD SVG 1.1//EN"
 "http://www.w3.org/Graphics/SVG/1.1/DTD/svg11.dtd">
<!-- Generated by graphviz version 2.50.0 (20211204.2007)
 -->
<!-- Title: skin.cpp Pages: 1 -->
<!--zoomable 364 -->
<svg id="main" version="1.1" xmlns="http://www.w3.org/2000/svg" xmlns:xlink="http://www.w3.org/1999/xlink" xml:space="preserve" onload="init(evt)">
<style type="text/css"><![CDATA[
.edge:hover path { stroke: red; }
.edge:hover polygon { stroke: red; fill: red; }
]]></style>
<script type="text/javascript"><![CDATA[
var edges = document.getElementsByTagName('g');
if (edges && edges.length) {
  for (var i=0;i<edges.length;i++) {
    if (edges[i].id.substr(0,4)=='edge') {
      edges[i].setAttribute('class','edge');
    }
  }
}
]]></script>
        <defs>
                <circle id="rim" cx="0" cy="0" r="7"/>
                <circle id="rim2" cx="0" cy="0" r="3.5"/>
                <g id="zoomPlus">
                        <use xlink:href="#rim" fill="#404040">
                                <set attributeName="fill" to="#808080" begin="zoomplus.mouseover" end="zoomplus.mouseout"/>
                        </use>
                        <path d="M-4,0h8M0,-4v8" fill="none" stroke="white" stroke-width="1.5" pointer-events="none"/>
                </g>
                <g id="zoomMin">
                        <use xlink:href="#rim" fill="#404040">
                                <set attributeName="fill" to="#808080" begin="zoomminus.mouseover" end="zoomminus.mouseout"/>
                        </use>
                        <path d="M-4,0h8" fill="none" stroke="white" stroke-width="1.5" pointer-events="none"/>
                </g>
                <g id="dirArrow">
                        <path fill="none" stroke="white" stroke-width="1.5" d="M0,-3.0v7 M-2.5,-0.5L0,-3.0L2.5,-0.5"/>
                </g>
               <g id="resetDef">
                       <use xlink:href="#rim2" fill="#404040">
                               <set attributeName="fill" to="#808080" begin="reset.mouseover" end="reset.mouseout"/>
                       </use>
               </g>
        </defs>

<script type="text/javascript">
var viewWidth = 1542;
var viewHeight = 364;
var sectionId = 'dynsection-0';
</script>
<script xlink:href="svgpan.js"/>
<svg id="graph" class="graph">
<g id="viewport">
<title>skin.cpp</title>
<polygon fill="white" stroke="transparent" points="-4,4 -4,-360 1538,-360 1538,4 -4,4"/>
<!-- Node1 -->
<g id="node1" class="node">
<title>Node1</title>
<g id="a_node1"><a xlink:title=" ">
<polygon fill="#bfbfbf" stroke="black" points="211,-336.5 211,-355.5 264,-355.5 264,-336.5 211,-336.5"/>
<text text-anchor="middle" x="237.5" y="-343.5" font-family="Helvetica,sans-Serif" font-size="10.00">skin.cpp</text>
</a>
</g>
</g>
<!-- Node2 -->
<g id="node2" class="node">
<title>Node2</title>
<g id="a_node2"><a xlink:title=" ">
<polygon fill="white" stroke="#bfbfbf" points="0,-280.5 0,-299.5 165,-299.5 165,-280.5 0,-280.5"/>
<text text-anchor="middle" x="82.5" y="-287.5" font-family="Helvetica,sans-Serif" font-size="10.00">sml/graphics_wrapper/primitives.h</text>
</a>
</g>
</g>
<!-- Node1&#45;&gt;Node2 -->
<g id="edge1" class="edge">
<title>Node1&#45;&gt;Node2</title>
<path fill="none" stroke="midnightblue" d="M212.94,-336.44C186.98,-327.4 145.83,-313.06 116.7,-302.92"/>
<polygon fill="midnightblue" stroke="midnightblue" points="117.54,-299.5 106.95,-299.52 115.24,-306.11 117.54,-299.5"/>
</g>
<!-- Node3 -->
<g id="node3" class="node">
<title>Node3</title>
<g id="a_node3"><a xlink:href="skin_8h.html" target="_top" xlink:title=" ">
<polygon fill="white" stroke="black" points="145.5,-224.5 145.5,-243.5 241.5,-243.5 241.5,-224.5 145.5,-224.5"/>
<text text-anchor="middle" x="193.5" y="-231.5" font-family="Helvetica,sans-Serif" font-size="10.00">scene/style/skin.h</text>
</a>
</g>
</g>
<!-- Node1&#45;&gt;Node3 -->
<g id="edge2" class="edge">
<title>Node1&#45;&gt;Node3</title>
<path fill="none" stroke="midnightblue" d="M232.2,-336.28C226.96,-327.39 218.94,-313.08 213.5,-300 207.12,-284.67 201.72,-266.57 198.14,-253.37"/>
<polygon fill="midnightblue" stroke="midnightblue" points="201.5,-252.39 195.58,-243.6 194.73,-254.16 201.5,-252.39"/>
</g>
<!-- Node7 -->
<g id="node7" class="node">
<title>Node7</title>
<g id="a_node7"><a xlink:href="control_8h.html" target="_top" xlink:title=" ">
<polygon fill="white" stroke="black" points="222,-280.5 222,-299.5 343,-299.5 343,-280.5 222,-280.5"/>
<text text-anchor="middle" x="282.5" y="-287.5" font-family="Helvetica,sans-Serif" font-size="10.00">scene/controls/control.h</text>
</a>
</g>
</g>
<!-- Node1&#45;&gt;Node7 -->
<g id="edge6" class="edge">
<title>Node1&#45;&gt;Node7</title>
<path fill="none" stroke="midnightblue" d="M244.93,-336.08C251.35,-328.38 260.81,-317.03 268.62,-307.65"/>
<polygon fill="midnightblue" stroke="midnightblue" points="271.49,-309.67 275.21,-299.75 266.12,-305.19 271.49,-309.67"/>
</g>
<!-- Node29 -->
<g id="node29" class="node">
<title>Node29</title>
<g id="a_node29"><a xlink:href="utils_8h.html" target="_top" xlink:title=" ">
<polygon fill="white" stroke="black" points="361.5,-280.5 361.5,-299.5 433.5,-299.5 433.5,-280.5 361.5,-280.5"/>
<text text-anchor="middle" x="397.5" y="-287.5" font-family="Helvetica,sans-Serif" font-size="10.00">scene/utils.h</text>
</a>
</g>
</g>
<!-- Node1&#45;&gt;Node29 -->
<g id="edge38" class="edge">
<title>Node1&#45;&gt;Node29</title>
<path fill="none" stroke="midnightblue" d="M262.85,-336.44C289.77,-327.36 332.5,-312.94 362.59,-302.78"/>
<polygon fill="midnightblue" stroke="midnightblue" points="363.91,-306.03 372.27,-299.52 361.67,-299.4 363.91,-306.03"/>
</g>
<!-- Node4 -->
<g id="node4" class="node">
<title>Node4</title>
<g id="a_node4"><a xlink:title=" ">
<polygon fill="white" stroke="#bfbfbf" points="7.5,-168.5 7.5,-187.5 165.5,-187.5 165.5,-168.5 7.5,-168.5"/>
<text text-anchor="middle" x="86.5" y="-175.5" font-family="Helvetica,sans-Serif" font-size="10.00">sml/graphics_wrapper/renderer.h</text>
</a>
</g>
</g>
<!-- Node3&#45;&gt;Node4 -->
<g id="edge3" class="edge">
<title>Node3&#45;&gt;Node4</title>
<path fill="none" stroke="midnightblue" d="M176.31,-224.32C159.15,-215.66 132.55,-202.24 112.75,-192.25"/>
<polygon fill="midnightblue" stroke="midnightblue" points="114.15,-189.04 103.65,-187.65 111,-195.28 114.15,-189.04"/>
</g>
<!-- Node5 -->
<g id="node5" class="node">
<title>Node5</title>
<g id="a_node5"><a xlink:href="insets_8h.html" target="_top" xlink:title=" ">
<polygon fill="white" stroke="black" points="147,-112.5 147,-131.5 240,-131.5 240,-112.5 147,-112.5"/>
<text text-anchor="middle" x="193.5" y="-119.5" font-family="Helvetica,sans-Serif" font-size="10.00">../../paint/insets.h</text>
</a>
</g>
</g>
<!-- Node3&#45;&gt;Node5 -->
<g id="edge4" class="edge">
<title>Node3&#45;&gt;Node5</title>
<path fill="none" stroke="midnightblue" d="M193.5,-224.37C193.5,-206.62 193.5,-165.67 193.5,-141.6"/>
<polygon fill="midnightblue" stroke="midnightblue" points="197,-141.59 193.5,-131.59 190,-141.59 197,-141.59"/>
</g>
<!-- Node6 -->
<g id="node6" class="node">
<title>Node6</title>
<g id="a_node6"><a xlink:title=" ">
<polygon fill="white" stroke="#bfbfbf" points="169,-56.5 169,-75.5 218,-75.5 218,-56.5 169,-56.5"/>
<text text-anchor="middle" x="193.5" y="-63.5" font-family="Helvetica,sans-Serif" font-size="10.00">stdint.h</text>
</a>
</g>
</g>
<!-- Node5&#45;&gt;Node6 -->
<g id="edge5" class="edge">
<title>Node5&#45;&gt;Node6</title>
<path fill="none" stroke="midnightblue" d="M193.5,-112.08C193.5,-105.01 193.5,-94.86 193.5,-85.99"/>
<polygon fill="midnightblue" stroke="midnightblue" points="197,-85.75 193.5,-75.75 190,-85.75 197,-85.75"/>
</g>
<!-- Node7&#45;&gt;Node3 -->
<g id="edge37" class="edge">
<title>Node7&#45;&gt;Node3</title>
<path fill="none" stroke="midnightblue" d="M268.2,-280.32C254.32,-271.9 233.01,-258.97 216.7,-249.07"/>
<polygon fill="midnightblue" stroke="midnightblue" points="218.13,-245.85 207.76,-243.65 214.5,-251.83 218.13,-245.85"/>
</g>
<!-- Node8 -->
<g id="node8" class="node">
<title>Node8</title>
<g id="a_node8"><a xlink:href="parent_8h.html" target="_top" xlink:title=" ">
<polygon fill="white" stroke="black" points="271,-224.5 271,-243.5 332,-243.5 332,-224.5 271,-224.5"/>
<text text-anchor="middle" x="301.5" y="-231.5" font-family="Helvetica,sans-Serif" font-size="10.00">../parent.h</text>
</a>
</g>
</g>
<!-- Node7&#45;&gt;Node8 -->
<g id="edge7" class="edge">
<title>Node7&#45;&gt;Node8</title>
<path fill="none" stroke="midnightblue" d="M285.64,-280.08C288.18,-272.85 291.86,-262.41 295.03,-253.4"/>
<polygon fill="midnightblue" stroke="midnightblue" points="298.4,-254.35 298.42,-243.75 291.8,-252.02 298.4,-254.35"/>
</g>
<!-- Node8&#45;&gt;Node5 -->
<g id="edge22" class="edge">
<title>Node8&#45;&gt;Node5</title>
<path fill="none" stroke="midnightblue" d="M290.99,-224.41C280.43,-215.61 263.84,-201.38 250.5,-188 234.85,-172.31 218.29,-153.09 207.08,-139.64"/>
<polygon fill="midnightblue" stroke="midnightblue" points="209.61,-137.21 200.54,-131.73 204.21,-141.67 209.61,-137.21"/>
</g>
<!-- Node9 -->
<g id="node9" class="node">
<title>Node9</title>
<g id="a_node9"><a xlink:href="component_8h.html" target="_top" xlink:title=" ">
<polygon fill="white" stroke="black" points="795,-168.5 795,-187.5 868,-187.5 868,-168.5 795,-168.5"/>
<text text-anchor="middle" x="831.5" y="-175.5" font-family="Helvetica,sans-Serif" font-size="10.00">component.h</text>
</a>
</g>
</g>
<!-- Node8&#45;&gt;Node9 -->
<g id="edge8" class="edge">
<title>Node8&#45;&gt;Node9</title>
<path fill="none" stroke="midnightblue" d="M332.29,-229.86C421.12,-220.81 678.34,-194.61 784.66,-183.77"/>
<polygon fill="midnightblue" stroke="midnightblue" points="785.17,-187.24 794.77,-182.74 784.46,-180.27 785.17,-187.24"/>
</g>
<!-- Node22 -->
<g id="node22" class="node">
<title>Node22</title>
<g id="a_node22"><a xlink:href="border_8h.html" target="_top" xlink:title=" ">
<polygon fill="white" stroke="black" points="259.5,-168.5 259.5,-187.5 343.5,-187.5 343.5,-168.5 259.5,-168.5"/>
<text text-anchor="middle" x="301.5" y="-175.5" font-family="Helvetica,sans-Serif" font-size="10.00">../paint/border.h</text>
</a>
</g>
</g>
<!-- Node8&#45;&gt;Node22 -->
<g id="edge23" class="edge">
<title>Node8&#45;&gt;Node22</title>
<path fill="none" stroke="midnightblue" d="M301.5,-224.08C301.5,-217.01 301.5,-206.86 301.5,-197.99"/>
<polygon fill="midnightblue" stroke="midnightblue" points="305,-197.75 301.5,-187.75 298,-197.75 305,-197.75"/>
</g>
<!-- Node25 -->
<g id="node25" class="node">
<title>Node25</title>
<g id="a_node25"><a xlink:href="background_8h.html" target="_top" xlink:title=" ">
<polygon fill="white" stroke="black" points="452.5,-168.5 452.5,-187.5 560.5,-187.5 560.5,-168.5 452.5,-168.5"/>
<text text-anchor="middle" x="506.5" y="-175.5" font-family="Helvetica,sans-Serif" font-size="10.00">../paint/background.h</text>
</a>
</g>
</g>
<!-- Node8&#45;&gt;Node25 -->
<g id="edge27" class="edge">
<title>Node8&#45;&gt;Node25</title>
<path fill="none" stroke="midnightblue" d="M332.19,-224.92C367.23,-215.69 424.76,-200.53 464.08,-190.17"/>
<polygon fill="midnightblue" stroke="midnightblue" points="465.12,-193.52 473.9,-187.59 463.34,-186.75 465.12,-193.52"/>
</g>
<!-- Node10 -->
<g id="node10" class="node">
<title>Node10</title>
<g id="a_node10"><a xlink:title=" ">
<polygon fill="white" stroke="#bfbfbf" points="695.5,-112.5 695.5,-131.5 835.5,-131.5 835.5,-112.5 695.5,-112.5"/>
<text text-anchor="middle" x="765.5" y="-119.5" font-family="Helvetica,sans-Serif" font-size="10.00">sml/sml_graphics_wrapper.h</text>
</a>
</g>
</g>
<!-- Node9&#45;&gt;Node10 -->
<g id="edge9" class="edge">
<title>Node9&#45;&gt;Node10</title>
<path fill="none" stroke="midnightblue" d="M820.9,-168.32C811.04,-160.26 796.15,-148.08 784.28,-138.37"/>
<polygon fill="midnightblue" stroke="midnightblue" points="786.25,-135.46 776.3,-131.83 781.82,-140.88 786.25,-135.46"/>
</g>
<!-- Node11 -->
<g id="node11" class="node">
<title>Node11</title>
<g id="a_node11"><a xlink:href="gui__event__dispatching_8h.html" target="_top" xlink:title=" ">
<polygon fill="white" stroke="black" points="1025,-112.5 1025,-131.5 1188,-131.5 1188,-112.5 1025,-112.5"/>
<text text-anchor="middle" x="1106.5" y="-119.5" font-family="Helvetica,sans-Serif" font-size="10.00">../events/gui_event_dispatching.h</text>
</a>
</g>
</g>
<!-- Node9&#45;&gt;Node11 -->
<g id="edge10" class="edge">
<title>Node9&#45;&gt;Node11</title>
<path fill="none" stroke="midnightblue" d="M868.02,-169.83C915.47,-160.51 998.68,-144.17 1053.19,-133.47"/>
<polygon fill="midnightblue" stroke="midnightblue" points="1053.89,-136.9 1063.02,-131.54 1052.54,-130.03 1053.89,-136.9"/>
</g>
<!-- Node19 -->
<g id="node19" class="node">
<title>Node19</title>
<g id="a_node19"><a xlink:href="shadow_8h.html" target="_top" xlink:title=" ">
<polygon fill="white" stroke="black" points="853.5,-112.5 853.5,-131.5 943.5,-131.5 943.5,-112.5 853.5,-112.5"/>
<text text-anchor="middle" x="898.5" y="-119.5" font-family="Helvetica,sans-Serif" font-size="10.00">../paint/shadow.h</text>
</a>
</g>
</g>
<!-- Node9&#45;&gt;Node19 -->
<g id="edge19" class="edge">
<title>Node9&#45;&gt;Node19</title>
<path fill="none" stroke="midnightblue" d="M842.26,-168.32C852.27,-160.26 867.39,-148.08 879.43,-138.37"/>
<polygon fill="midnightblue" stroke="midnightblue" points="881.95,-140.83 887.54,-131.83 877.56,-135.38 881.95,-140.83"/>
</g>
<!-- Node12 -->
<g id="node12" class="node">
<title>Node12</title>
<g id="a_node12"><a xlink:title=" ">
<polygon fill="white" stroke="#bfbfbf" points="484.5,-56.5 484.5,-75.5 528.5,-75.5 528.5,-56.5 484.5,-56.5"/>
<text text-anchor="middle" x="506.5" y="-63.5" font-family="Helvetica,sans-Serif" font-size="10.00">vector</text>
</a>
</g>
</g>
<!-- Node11&#45;&gt;Node12 -->
<g id="edge11" class="edge">
<title>Node11&#45;&gt;Node12</title>
<path fill="none" stroke="midnightblue" d="M1024.81,-115.41C886.18,-105.81 613.42,-86.34 538.65,-75.46"/>
<polygon fill="midnightblue" stroke="midnightblue" points="539.18,-72 528.75,-73.86 538.06,-78.91 539.18,-72"/>
</g>
<!-- Node13 -->
<g id="node13" class="node">
<title>Node13</title>
<g id="a_node13"><a xlink:title=" ">
<polygon fill="white" stroke="#bfbfbf" points="926,-56.5 926,-75.5 1081,-75.5 1081,-56.5 926,-56.5"/>
<text text-anchor="middle" x="1003.5" y="-63.5" font-family="Helvetica,sans-Serif" font-size="10.00">sml/events/event_dispatching.h</text>
</a>
</g>
</g>
<!-- Node11&#45;&gt;Node13 -->
<g id="edge12" class="edge">
<title>Node11&#45;&gt;Node13</title>
<path fill="none" stroke="midnightblue" d="M1089.95,-112.32C1073.51,-103.7 1048.07,-90.36 1029.03,-80.39"/>
<polygon fill="midnightblue" stroke="midnightblue" points="1030.49,-77.2 1020.01,-75.65 1027.24,-83.4 1030.49,-77.2"/>
</g>
<!-- Node14 -->
<g id="node14" class="node">
<title>Node14</title>
<g id="a_node14"><a xlink:title=" ">
<polygon fill="white" stroke="#bfbfbf" points="1099,-56.5 1099,-75.5 1240,-75.5 1240,-56.5 1099,-56.5"/>
<text text-anchor="middle" x="1169.5" y="-63.5" font-family="Helvetica,sans-Serif" font-size="10.00">sml/events/listener_notifier.h</text>
</a>
</g>
</g>
<!-- Node11&#45;&gt;Node14 -->
<g id="edge13" class="edge">
<title>Node11&#45;&gt;Node14</title>
<path fill="none" stroke="midnightblue" d="M1116.62,-112.32C1126.03,-104.26 1140.24,-92.08 1151.57,-82.37"/>
<polygon fill="midnightblue" stroke="midnightblue" points="1153.88,-85 1159.19,-75.83 1149.32,-79.68 1153.88,-85"/>
</g>
<!-- Node15 -->
<g id="node15" class="node">
<title>Node15</title>
<g id="a_node15"><a xlink:title=" ">
<polygon fill="white" stroke="#bfbfbf" points="1177,-0.5 1177,-19.5 1320,-19.5 1320,-0.5 1177,-0.5"/>
<text text-anchor="middle" x="1248.5" y="-7.5" font-family="Helvetica,sans-Serif" font-size="10.00">sml/events/system_events.h</text>
</a>
</g>
</g>
<!-- Node11&#45;&gt;Node15 -->
<g id="edge14" class="edge">
<title>Node11&#45;&gt;Node15</title>
<path fill="none" stroke="midnightblue" d="M1188.06,-113.55C1211.66,-107.15 1234.95,-95.83 1249.5,-76 1259.19,-62.79 1257.57,-43.66 1254.35,-29.57"/>
<polygon fill="midnightblue" stroke="midnightblue" points="1257.62,-28.28 1251.61,-19.56 1250.87,-30.13 1257.62,-28.28"/>
</g>
<!-- Node16 -->
<g id="node16" class="node">
<title>Node16</title>
<g id="a_node16"><a xlink:href="gui__event_8h.html" target="_top" xlink:title=" ">
<polygon fill="white" stroke="black" points="1336,-56.5 1336,-75.5 1403,-75.5 1403,-56.5 1336,-56.5"/>
<text text-anchor="middle" x="1369.5" y="-63.5" font-family="Helvetica,sans-Serif" font-size="10.00">gui_event.h</text>
</a>
</g>
</g>
<!-- Node11&#45;&gt;Node16 -->
<g id="edge15" class="edge">
<title>Node11&#45;&gt;Node16</title>
<path fill="none" stroke="midnightblue" d="M1148.17,-112.44C1196.72,-102.48 1276.55,-86.09 1325.9,-75.95"/>
<polygon fill="midnightblue" stroke="midnightblue" points="1326.86,-79.33 1335.95,-73.89 1325.45,-72.47 1326.86,-79.33"/>
</g>
<!-- Node16&#45;&gt;Node15 -->
<g id="edge17" class="edge">
<title>Node16&#45;&gt;Node15</title>
<path fill="none" stroke="midnightblue" d="M1350.33,-56.44C1330.59,-47.64 1299.61,-33.81 1277.01,-23.72"/>
<polygon fill="midnightblue" stroke="midnightblue" points="1278.14,-20.4 1267.58,-19.52 1275.29,-26.79 1278.14,-20.4"/>
</g>
<!-- Node17 -->
<g id="node17" class="node">
<title>Node17</title>
<g id="a_node17"><a xlink:title=" ">
<polygon fill="white" stroke="#bfbfbf" points="1338.5,-0.5 1338.5,-19.5 1438.5,-19.5 1438.5,-0.5 1338.5,-0.5"/>
<text text-anchor="middle" x="1388.5" y="-7.5" font-family="Helvetica,sans-Serif" font-size="10.00">sml/events/event.h</text>
</a>
</g>
</g>
<!-- Node16&#45;&gt;Node17 -->
<g id="edge16" class="edge">
<title>Node16&#45;&gt;Node17</title>
<path fill="none" stroke="midnightblue" d="M1372.64,-56.08C1375.18,-48.85 1378.86,-38.41 1382.03,-29.4"/>
<polygon fill="midnightblue" stroke="midnightblue" points="1385.4,-30.35 1385.42,-19.75 1378.8,-28.02 1385.4,-30.35"/>
</g>
<!-- Node18 -->
<g id="node18" class="node">
<title>Node18</title>
<g id="a_node18"><a xlink:title=" ">
<polygon fill="white" stroke="#bfbfbf" points="1457,-0.5 1457,-19.5 1534,-19.5 1534,-0.5 1457,-0.5"/>
<text text-anchor="middle" x="1495.5" y="-7.5" font-family="Helvetica,sans-Serif" font-size="10.00">sml/sml_log.h</text>
</a>
</g>
</g>
<!-- Node16&#45;&gt;Node18 -->
<g id="edge18" class="edge">
<title>Node16&#45;&gt;Node18</title>
<path fill="none" stroke="midnightblue" d="M1389.47,-56.44C1410.11,-47.6 1442.56,-33.69 1466.13,-23.59"/>
<polygon fill="midnightblue" stroke="midnightblue" points="1467.82,-26.67 1475.63,-19.52 1465.06,-20.24 1467.82,-26.67"/>
</g>
<!-- Node20 -->
<g id="node20" class="node">
<title>Node20</title>
<g id="a_node20"><a xlink:title=" ">
<polygon fill="white" stroke="#bfbfbf" points="825,-56.5 825,-75.5 908,-75.5 908,-56.5 825,-56.5"/>
<text text-anchor="middle" x="866.5" y="-63.5" font-family="Helvetica,sans-Serif" font-size="10.00">sml/math/blur.h</text>
</a>
</g>
</g>
<!-- Node19&#45;&gt;Node20 -->
<g id="edge20" class="edge">
<title>Node19&#45;&gt;Node20</title>
<path fill="none" stroke="midnightblue" d="M893.22,-112.08C888.79,-104.61 882.34,-93.72 876.88,-84.52"/>
<polygon fill="midnightblue" stroke="midnightblue" points="879.79,-82.57 871.69,-75.75 873.77,-86.14 879.79,-82.57"/>
</g>
<!-- Node21 -->
<g id="node21" class="node">
<title>Node21</title>
<g id="a_node21"><a xlink:title=" ">
<polygon fill="white" stroke="#bfbfbf" points="654,-56.5 654,-75.5 807,-75.5 807,-56.5 654,-56.5"/>
<text text-anchor="middle" x="730.5" y="-63.5" font-family="Helvetica,sans-Serif" font-size="10.00">sml/graphics_wrapper/texture.h</text>
</a>
</g>
</g>
<!-- Node19&#45;&gt;Node21 -->
<g id="edge21" class="edge">
<title>Node19&#45;&gt;Node21</title>
<path fill="none" stroke="midnightblue" d="M871.88,-112.44C843.49,-103.32 798.36,-88.81 766.75,-78.65"/>
<polygon fill="midnightblue" stroke="midnightblue" points="767.59,-75.24 757,-75.52 765.44,-81.91 767.59,-75.24"/>
</g>
<!-- Node22&#45;&gt;Node5 -->
<g id="edge26" class="edge">
<title>Node22&#45;&gt;Node5</title>
<path fill="none" stroke="midnightblue" d="M284.15,-168.32C266.83,-159.66 239.98,-146.24 220,-136.25"/>
<polygon fill="midnightblue" stroke="midnightblue" points="221.32,-133 210.81,-131.65 218.19,-139.26 221.32,-133"/>
</g>
<!-- Node23 -->
<g id="node23" class="node">
<title>Node23</title>
<g id="a_node23"><a xlink:title=" ">
<polygon fill="white" stroke="#bfbfbf" points="297,-112.5 297,-131.5 440,-131.5 440,-112.5 297,-112.5"/>
<text text-anchor="middle" x="368.5" y="-119.5" font-family="Helvetica,sans-Serif" font-size="10.00">sml/graphics_wrapper/color.h</text>
</a>
</g>
</g>
<!-- Node22&#45;&gt;Node23 -->
<g id="edge24" class="edge">
<title>Node22&#45;&gt;Node23</title>
<path fill="none" stroke="midnightblue" d="M312.26,-168.32C322.27,-160.26 337.39,-148.08 349.43,-138.37"/>
<polygon fill="midnightblue" stroke="midnightblue" points="351.95,-140.83 357.54,-131.83 347.56,-135.38 351.95,-140.83"/>
</g>
<!-- Node24 -->
<g id="node24" class="node">
<title>Node24</title>
<g id="a_node24"><a xlink:title=" ">
<polygon fill="white" stroke="#bfbfbf" points="358.5,-56.5 358.5,-75.5 466.5,-75.5 466.5,-56.5 358.5,-56.5"/>
<text text-anchor="middle" x="412.5" y="-63.5" font-family="Helvetica,sans-Serif" font-size="10.00">sml/math/rectangle.h</text>
</a>
</g>
</g>
<!-- Node22&#45;&gt;Node24 -->
<g id="edge25" class="edge">
<title>Node22&#45;&gt;Node24</title>
<path fill="none" stroke="midnightblue" d="M295.86,-168.15C288.12,-154.77 276.48,-129.15 288.5,-112 302.3,-92.31 325.63,-81.21 348.35,-74.95"/>
<polygon fill="midnightblue" stroke="midnightblue" points="349.5,-78.27 358.37,-72.48 347.82,-71.48 349.5,-78.27"/>
</g>
<!-- Node25&#45;&gt;Node12 -->
<g id="edge28" class="edge">
<title>Node25&#45;&gt;Node12</title>
<path fill="none" stroke="midnightblue" d="M506.5,-168.37C506.5,-150.62 506.5,-109.67 506.5,-85.6"/>
<polygon fill="midnightblue" stroke="midnightblue" points="510,-85.59 506.5,-75.59 503,-85.59 510,-85.59"/>
</g>
<!-- Node25&#45;&gt;Node24 -->
<g id="edge29" class="edge">
<title>Node25&#45;&gt;Node24</title>
<path fill="none" stroke="midnightblue" d="M499.12,-168.37C483.47,-150.05 446.72,-107.05 426.48,-83.36"/>
<polygon fill="midnightblue" stroke="midnightblue" points="429,-80.92 419.84,-75.59 423.68,-85.47 429,-80.92"/>
</g>
<!-- Node26 -->
<g id="node26" class="node">
<title>Node26</title>
<g id="a_node26"><a xlink:href="fill_8h.html" target="_top" xlink:title=" ">
<polygon fill="white" stroke="black" points="535,-112.5 535,-131.5 570,-131.5 570,-112.5 535,-112.5"/>
<text text-anchor="middle" x="552.5" y="-119.5" font-family="Helvetica,sans-Serif" font-size="10.00">fill.h</text>
</a>
</g>
</g>
<!-- Node25&#45;&gt;Node26 -->
<g id="edge30" class="edge">
<title>Node25&#45;&gt;Node26</title>
<path fill="none" stroke="midnightblue" d="M514.1,-168.08C520.73,-160.3 530.52,-148.8 538.56,-139.37"/>
<polygon fill="midnightblue" stroke="midnightblue" points="541.23,-141.63 545.05,-131.75 535.9,-137.09 541.23,-141.63"/>
</g>
<!-- Node28 -->
<g id="node28" class="node">
<title>Node28</title>
<g id="a_node28"><a xlink:href="image_8h.html" target="_top" xlink:title=" ">
<polygon fill="white" stroke="black" points="588,-112.5 588,-131.5 677,-131.5 677,-112.5 588,-112.5"/>
<text text-anchor="middle" x="632.5" y="-119.5" font-family="Helvetica,sans-Serif" font-size="10.00">../media/image.h</text>
</a>
</g>
</g>
<!-- Node25&#45;&gt;Node28 -->
<g id="edge35" class="edge">
<title>Node25&#45;&gt;Node28</title>
<path fill="none" stroke="midnightblue" d="M526.47,-168.44C547.11,-159.6 579.56,-145.69 603.13,-135.59"/>
<polygon fill="midnightblue" stroke="midnightblue" points="604.82,-138.67 612.63,-131.52 602.06,-132.24 604.82,-138.67"/>
</g>
<!-- Node26&#45;&gt;Node12 -->
<g id="edge31" class="edge">
<title>Node26&#45;&gt;Node12</title>
<path fill="none" stroke="midnightblue" d="M544.9,-112.08C538.27,-104.3 528.48,-92.8 520.44,-83.37"/>
<polygon fill="midnightblue" stroke="midnightblue" points="523.1,-81.09 513.95,-75.75 517.77,-85.63 523.1,-81.09"/>
</g>
<!-- Node26&#45;&gt;Node21 -->
<g id="edge34" class="edge">
<title>Node26&#45;&gt;Node21</title>
<path fill="none" stroke="midnightblue" d="M570.19,-115.01C573.29,-113.99 576.48,-112.95 579.5,-112 617.23,-100.09 660.53,-87.27 691.06,-78.38"/>
<polygon fill="midnightblue" stroke="midnightblue" points="692.28,-81.67 700.9,-75.52 690.32,-74.95 692.28,-81.67"/>
</g>
<!-- Node26&#45;&gt;Node24 -->
<g id="edge33" class="edge">
<title>Node26&#45;&gt;Node24</title>
<path fill="none" stroke="midnightblue" d="M534.77,-114.16C512,-105.38 472.08,-89.98 444.06,-79.17"/>
<polygon fill="midnightblue" stroke="midnightblue" points="445.29,-75.89 434.7,-75.56 442.77,-82.43 445.29,-75.89"/>
</g>
<!-- Node27 -->
<g id="node27" class="node">
<title>Node27</title>
<g id="a_node27"><a xlink:title=" ">
<polygon fill="white" stroke="#bfbfbf" points="547,-56.5 547,-75.5 636,-75.5 636,-56.5 547,-56.5"/>
<text text-anchor="middle" x="591.5" y="-63.5" font-family="Helvetica,sans-Serif" font-size="10.00">sml/math/vec2.h</text>
</a>
</g>
</g>
<!-- Node26&#45;&gt;Node27 -->
<g id="edge32" class="edge">
<title>Node26&#45;&gt;Node27</title>
<path fill="none" stroke="midnightblue" d="M558.94,-112.08C564.45,-104.46 572.53,-93.26 579.26,-83.94"/>
<polygon fill="midnightblue" stroke="midnightblue" points="582.16,-85.91 585.18,-75.75 576.49,-81.81 582.16,-85.91"/>
</g>
<!-- Node28&#45;&gt;Node21 -->
<g id="edge36" class="edge">
<title>Node28&#45;&gt;Node21</title>
<path fill="none" stroke="midnightblue" d="M648.25,-112.32C663.82,-103.74 687.88,-90.49 705.96,-80.52"/>
<polygon fill="midnightblue" stroke="midnightblue" points="707.72,-83.55 714.79,-75.65 704.35,-77.42 707.72,-83.55"/>
</g>
</g>
</svg>
        <g id="navigator" transform="translate(0 0)" fill="#404254">
                <rect fill="#f2f5e9" fill-opacity="0.5" stroke="#606060" stroke-width=".5" x="0" y="0" width="60" height="60"/>
                <use id="zoomplus" xlink:href="#zoomPlus" x="17" y="9" onmousedown="handleZoom(evt,'in')"/>
                <use id="zoomminus" xlink:href="#zoomMin" x="42" y="9" onmousedown="handleZoom(evt,'out')"/>
                <use id="reset" xlink:href="#resetDef" x="30" y="36" onmousedown="handleReset()"/>
                <g id="arrowUp" xlink:href="#dirArrow" transform="translate(30 24)" onmousedown="handlePan(0,-1)">
                  <use xlink:href="#rim" fill="#404040">
                        <set attributeName="fill" to="#808080" begin="arrowUp.mouseover" end="arrowUp.mouseout"/>
                  </use>
                  <path fill="none" stroke="white" stroke-width="1.5" d="M0,-3.0v7 M-2.5,-0.5L0,-3.0L2.5,-0.5"/>
                </g>
                <g id="arrowRight" xlink:href="#dirArrow" transform="rotate(90) translate(36 -43)" onmousedown="handlePan(1,0)">
                  <use xlink:href="#rim" fill="#404040">
                        <set attributeName="fill" to="#808080" begin="arrowRight.mouseover" end="arrowRight.mouseout"/>
                  </use>
                  <path fill="none" stroke="white" stroke-width="1.5" d="M0,-3.0v7 M-2.5,-0.5L0,-3.0L2.5,-0.5"/>
                </g>
                <g id="arrowDown" xlink:href="#dirArrow" transform="rotate(180) translate(-30 -48)" onmousedown="handlePan(0,1)">
                  <use xlink:href="#rim" fill="#404040">
                        <set attributeName="fill" to="#808080" begin="arrowDown.mouseover" end="arrowDown.mouseout"/>
                  </use>
                  <path fill="none" stroke="white" stroke-width="1.5" d="M0,-3.0v7 M-2.5,-0.5L0,-3.0L2.5,-0.5"/>
                </g>
                <g id="arrowLeft" xlink:href="#dirArrow" transform="rotate(270) translate(-36 17)" onmousedown="handlePan(-1,0)">
                  <use xlink:href="#rim" fill="#404040">
                        <set attributeName="fill" to="#808080" begin="arrowLeft.mouseover" end="arrowLeft.mouseout"/>
                  </use>
                  <path fill="none" stroke="white" stroke-width="1.5" d="M0,-3.0v7 M-2.5,-0.5L0,-3.0L2.5,-0.5"/>
                </g>
        </g>
        <svg viewBox="0 0 15 15" width="100%" height="30px" preserveAspectRatio="xMaxYMin meet">
         <g id="arrow_out" transform="scale(0.3 0.3)">
          <a xlink:href="skin_8cpp__incl_org.svg" target="_base">
           <rect id="button" ry="5" rx="5" y="6" x="6" height="38" width="38"
                fill="#f2f5e9" fill-opacity="0.5" stroke="#606060" stroke-width="1.0"/>
           <path id="arrow"
             d="M 11.500037,31.436501 C 11.940474,20.09759 22.043105,11.32322 32.158766,21.979434 L 37.068811,17.246167 C 37.068811,17.246167 37.088388,32 37.088388,32 L 22.160133,31.978069 C 22.160133,31.978069 26.997745,27.140456 26.997745,27.140456 C 18.528582,18.264221 13.291696,25.230495 11.500037,31.436501 z"
             style="fill:#404040;"/>
          </a>
         </g>
        </svg>
</svg>
