<?xml version="1.0" encoding="UTF-8" standalone="no"?>
<!DOCTYPE svg PUBLIC "-//W3C//DTD SVG 1.1//EN"
 "http://www.w3.org/Graphics/SVG/1.1/DTD/svg11.dtd">
<!-- Generated by graphviz version 2.50.0 (20211204.2007)
 -->
<!-- Title: skin.cpp Pages: 1 -->
<svg width="1375pt" height="408pt"
 viewBox="0.00 0.00 1374.50 408.00" xmlns="http://www.w3.org/2000/svg" xmlns:xlink="http://www.w3.org/1999/xlink">
<g id="graph0" class="graph" transform="scale(1 1) rotate(0) translate(4 404)">
<title>skin.cpp</title>
<polygon fill="white" stroke="transparent" points="-4,4 -4,-404 1370.5,-404 1370.5,4 -4,4"/>
<!-- Node1 -->
<g id="node1" class="node">
<title>Node1</title>
<g id="a_node1"><a xlink:title=" ">
<polygon fill="#bfbfbf" stroke="black" points="157.5,-380.5 157.5,-399.5 210.5,-399.5 210.5,-380.5 157.5,-380.5"/>
<text text-anchor="middle" x="184" y="-387.5" font-family="Helvetica,sans-Serif" font-size="10.00">skin.cpp</text>
</a>
</g>
</g>
<!-- Node2 -->
<g id="node2" class="node">
<title>Node2</title>
<g id="a_node2"><a xlink:title=" ">
<polygon fill="white" stroke="#bfbfbf" points="0,-313.5 0,-343.5 112,-343.5 112,-313.5 0,-313.5"/>
<text text-anchor="start" x="8" y="-331.5" font-family="Helvetica,sans-Serif" font-size="10.00">sml/graphics_wrapper</text>
<text text-anchor="middle" x="56" y="-320.5" font-family="Helvetica,sans-Serif" font-size="10.00">/primitives.h</text>
</a>
</g>
</g>
<!-- Node1&#45;&gt;Node2 -->
<g id="edge1" class="edge">
<title>Node1&#45;&gt;Node2</title>
<path fill="none" stroke="midnightblue" d="M165.66,-380.48C147.43,-372 118.9,-358.74 95.5,-347.86"/>
<polygon fill="midnightblue" stroke="midnightblue" points="96.71,-344.56 86.17,-343.52 93.76,-350.91 96.71,-344.56"/>
</g>
<!-- Node3 -->
<g id="node3" class="node">
<title>Node3</title>
<g id="a_node3"><a xlink:href="skin_8h.html" target="_top" xlink:title=" ">
<polygon fill="white" stroke="black" points="92,-257.5 92,-276.5 188,-276.5 188,-257.5 92,-257.5"/>
<text text-anchor="middle" x="140" y="-264.5" font-family="Helvetica,sans-Serif" font-size="10.00">scene/style/skin.h</text>
</a>
</g>
</g>
<!-- Node1&#45;&gt;Node3 -->
<g id="edge2" class="edge">
<title>Node1&#45;&gt;Node3</title>
<path fill="none" stroke="midnightblue" d="M178.59,-380.33C173.25,-371.47 165.17,-357.19 160,-344 152.55,-324.99 146.97,-302.23 143.63,-286.6"/>
<polygon fill="midnightblue" stroke="midnightblue" points="147.02,-285.74 141.59,-276.64 140.16,-287.14 147.02,-285.74"/>
</g>
<!-- Node7 -->
<g id="node7" class="node">
<title>Node7</title>
<g id="a_node7"><a xlink:href="control_8h.html" target="_top" xlink:title=" ">
<polygon fill="white" stroke="black" points="168.5,-319 168.5,-338 289.5,-338 289.5,-319 168.5,-319"/>
<text text-anchor="middle" x="229" y="-326" font-family="Helvetica,sans-Serif" font-size="10.00">scene/controls/control.h</text>
</a>
</g>
</g>
<!-- Node1&#45;&gt;Node7 -->
<g id="edge6" class="edge">
<title>Node1&#45;&gt;Node7</title>
<path fill="none" stroke="midnightblue" d="M190.45,-380.48C197.2,-371.55 207.97,-357.31 216.41,-346.14"/>
<polygon fill="midnightblue" stroke="midnightblue" points="219.32,-348.1 222.56,-338.01 213.74,-343.87 219.32,-348.1"/>
</g>
<!-- Node29 -->
<g id="node29" class="node">
<title>Node29</title>
<g id="a_node29"><a xlink:href="utils_8h.html" target="_top" xlink:title=" ">
<polygon fill="white" stroke="black" points="308,-319 308,-338 380,-338 380,-319 308,-319"/>
<text text-anchor="middle" x="344" y="-326" font-family="Helvetica,sans-Serif" font-size="10.00">scene/utils.h</text>
</a>
</g>
</g>
<!-- Node1&#45;&gt;Node29 -->
<g id="edge38" class="edge">
<title>Node1&#45;&gt;Node29</title>
<path fill="none" stroke="midnightblue" d="M206.92,-380.48C234.37,-370.27 280.52,-353.11 311.6,-341.55"/>
<polygon fill="midnightblue" stroke="midnightblue" points="312.97,-344.78 321.12,-338.01 310.53,-338.21 312.97,-344.78"/>
</g>
<!-- Node4 -->
<g id="node4" class="node">
<title>Node4</title>
<g id="a_node4"><a xlink:title=" ">
<polygon fill="white" stroke="#bfbfbf" points="0,-190.5 0,-220.5 112,-220.5 112,-190.5 0,-190.5"/>
<text text-anchor="start" x="8" y="-208.5" font-family="Helvetica,sans-Serif" font-size="10.00">sml/graphics_wrapper</text>
<text text-anchor="middle" x="56" y="-197.5" font-family="Helvetica,sans-Serif" font-size="10.00">/renderer.h</text>
</a>
</g>
</g>
<!-- Node3&#45;&gt;Node4 -->
<g id="edge3" class="edge">
<title>Node3&#45;&gt;Node4</title>
<path fill="none" stroke="midnightblue" d="M127.96,-257.48C116.59,-249.42 99.09,-237.02 84.2,-226.47"/>
<polygon fill="midnightblue" stroke="midnightblue" points="85.98,-223.45 75.8,-220.52 81.93,-229.16 85.98,-223.45"/>
</g>
<!-- Node5 -->
<g id="node5" class="node">
<title>Node5</title>
<g id="a_node5"><a xlink:href="insets_8h.html" target="_top" xlink:title=" ">
<polygon fill="white" stroke="black" points="93.5,-129 93.5,-148 186.5,-148 186.5,-129 93.5,-129"/>
<text text-anchor="middle" x="140" y="-136" font-family="Helvetica,sans-Serif" font-size="10.00">../../paint/insets.h</text>
</a>
</g>
</g>
<!-- Node3&#45;&gt;Node5 -->
<g id="edge4" class="edge">
<title>Node3&#45;&gt;Node5</title>
<path fill="none" stroke="midnightblue" d="M140,-257.31C140,-236.99 140,-186.05 140,-158.28"/>
<polygon fill="midnightblue" stroke="midnightblue" points="143.5,-158.26 140,-148.26 136.5,-158.26 143.5,-158.26"/>
</g>
<!-- Node6 -->
<g id="node6" class="node">
<title>Node6</title>
<g id="a_node6"><a xlink:title=" ">
<polygon fill="white" stroke="#bfbfbf" points="115.5,-62 115.5,-81 164.5,-81 164.5,-62 115.5,-62"/>
<text text-anchor="middle" x="140" y="-69" font-family="Helvetica,sans-Serif" font-size="10.00">stdint.h</text>
</a>
</g>
</g>
<!-- Node5&#45;&gt;Node6 -->
<g id="edge5" class="edge">
<title>Node5&#45;&gt;Node6</title>
<path fill="none" stroke="midnightblue" d="M140,-128.73C140,-119.18 140,-103.62 140,-91.28"/>
<polygon fill="midnightblue" stroke="midnightblue" points="143.5,-91.13 140,-81.13 136.5,-91.13 143.5,-91.13"/>
</g>
<!-- Node7&#45;&gt;Node3 -->
<g id="edge37" class="edge">
<title>Node7&#45;&gt;Node3</title>
<path fill="none" stroke="midnightblue" d="M216.25,-318.98C201.97,-309.43 178.6,-293.81 161.49,-282.37"/>
<polygon fill="midnightblue" stroke="midnightblue" points="162.99,-279.16 152.73,-276.51 159.1,-284.98 162.99,-279.16"/>
</g>
<!-- Node8 -->
<g id="node8" class="node">
<title>Node8</title>
<g id="a_node8"><a xlink:href="parent_8h.html" target="_top" xlink:title=" ">
<polygon fill="white" stroke="black" points="217.5,-257.5 217.5,-276.5 278.5,-276.5 278.5,-257.5 217.5,-257.5"/>
<text text-anchor="middle" x="248" y="-264.5" font-family="Helvetica,sans-Serif" font-size="10.00">../parent.h</text>
</a>
</g>
</g>
<!-- Node7&#45;&gt;Node8 -->
<g id="edge7" class="edge">
<title>Node7&#45;&gt;Node8</title>
<path fill="none" stroke="midnightblue" d="M231.72,-318.98C234.43,-310.49 238.67,-297.2 242.15,-286.32"/>
<polygon fill="midnightblue" stroke="midnightblue" points="245.57,-287.1 245.28,-276.51 238.91,-284.97 245.57,-287.1"/>
</g>
<!-- Node8&#45;&gt;Node5 -->
<g id="edge22" class="edge">
<title>Node8&#45;&gt;Node5</title>
<path fill="none" stroke="midnightblue" d="M236.76,-257.38C225.94,-248.79 209.43,-234.91 197,-221 178.73,-200.55 161.19,-174.1 150.51,-156.97"/>
<polygon fill="midnightblue" stroke="midnightblue" points="153.26,-154.78 145.05,-148.08 147.3,-158.43 153.26,-154.78"/>
</g>
<!-- Node9 -->
<g id="node9" class="node">
<title>Node9</title>
<g id="a_node9"><a xlink:href="component_8h.html" target="_top" xlink:title=" ">
<polygon fill="white" stroke="black" points="709.5,-196 709.5,-215 782.5,-215 782.5,-196 709.5,-196"/>
<text text-anchor="middle" x="746" y="-203" font-family="Helvetica,sans-Serif" font-size="10.00">component.h</text>
</a>
</g>
</g>
<!-- Node8&#45;&gt;Node9 -->
<g id="edge8" class="edge">
<title>Node8&#45;&gt;Node9</title>
<path fill="none" stroke="midnightblue" d="M278.78,-262.32C363.16,-252.24 598.59,-224.11 699.32,-212.08"/>
<polygon fill="midnightblue" stroke="midnightblue" points="699.98,-215.52 709.49,-210.86 699.15,-208.57 699.98,-215.52"/>
</g>
<!-- Node22 -->
<g id="node22" class="node">
<title>Node22</title>
<g id="a_node22"><a xlink:href="border_8h.html" target="_top" xlink:title=" ">
<polygon fill="white" stroke="black" points="206,-196 206,-215 290,-215 290,-196 206,-196"/>
<text text-anchor="middle" x="248" y="-203" font-family="Helvetica,sans-Serif" font-size="10.00">../paint/border.h</text>
</a>
</g>
</g>
<!-- Node8&#45;&gt;Node22 -->
<g id="edge23" class="edge">
<title>Node8&#45;&gt;Node22</title>
<path fill="none" stroke="midnightblue" d="M248,-257.48C248,-249.08 248,-235.98 248,-225.16"/>
<polygon fill="midnightblue" stroke="midnightblue" points="251.5,-225.01 248,-215.01 244.5,-225.01 251.5,-225.01"/>
</g>
<!-- Node25 -->
<g id="node25" class="node">
<title>Node25</title>
<g id="a_node25"><a xlink:href="background_8h.html" target="_top" xlink:title=" ">
<polygon fill="white" stroke="black" points="367,-196 367,-215 475,-215 475,-196 367,-196"/>
<text text-anchor="middle" x="421" y="-203" font-family="Helvetica,sans-Serif" font-size="10.00">../paint/background.h</text>
</a>
</g>
</g>
<!-- Node8&#45;&gt;Node25 -->
<g id="edge27" class="edge">
<title>Node8&#45;&gt;Node25</title>
<path fill="none" stroke="midnightblue" d="M272.79,-257.48C302.59,-247.22 352.79,-229.96 386.4,-218.4"/>
<polygon fill="midnightblue" stroke="midnightblue" points="387.94,-221.57 396.26,-215.01 385.66,-214.95 387.94,-221.57"/>
</g>
<!-- Node10 -->
<g id="node10" class="node">
<title>Node10</title>
<g id="a_node10"><a xlink:title=" ">
<polygon fill="white" stroke="#bfbfbf" points="610,-129 610,-148 750,-148 750,-129 610,-129"/>
<text text-anchor="middle" x="680" y="-136" font-family="Helvetica,sans-Serif" font-size="10.00">sml/sml_graphics_wrapper.h</text>
</a>
</g>
</g>
<!-- Node9&#45;&gt;Node10 -->
<g id="edge9" class="edge">
<title>Node9&#45;&gt;Node10</title>
<path fill="none" stroke="midnightblue" d="M737.1,-195.73C726.61,-185.4 708.98,-168.04 696.08,-155.33"/>
<polygon fill="midnightblue" stroke="midnightblue" points="698.34,-152.65 688.76,-148.13 693.43,-157.64 698.34,-152.65"/>
</g>
<!-- Node11 -->
<g id="node11" class="node">
<title>Node11</title>
<g id="a_node11"><a xlink:href="gui__event__dispatching_8h.html" target="_top" xlink:title=" ">
<polygon fill="white" stroke="black" points="924,-123.5 924,-153.5 1024,-153.5 1024,-123.5 924,-123.5"/>
<text text-anchor="start" x="932" y="-141.5" font-family="Helvetica,sans-Serif" font-size="10.00">../events/gui_event</text>
<text text-anchor="middle" x="974" y="-130.5" font-family="Helvetica,sans-Serif" font-size="10.00">_dispatching.h</text>
</a>
</g>
</g>
<!-- Node9&#45;&gt;Node11 -->
<g id="edge10" class="edge">
<title>Node9&#45;&gt;Node11</title>
<path fill="none" stroke="midnightblue" d="M776.28,-195.87C811.53,-185.82 870.58,-168.99 914.99,-156.32"/>
<polygon fill="midnightblue" stroke="midnightblue" points="916.14,-159.64 924.79,-153.53 914.22,-152.9 916.14,-159.64"/>
</g>
<!-- Node19 -->
<g id="node19" class="node">
<title>Node19</title>
<g id="a_node19"><a xlink:href="shadow_8h.html" target="_top" xlink:title=" ">
<polygon fill="white" stroke="black" points="768,-129 768,-148 858,-148 858,-129 768,-129"/>
<text text-anchor="middle" x="813" y="-136" font-family="Helvetica,sans-Serif" font-size="10.00">../paint/shadow.h</text>
</a>
</g>
</g>
<!-- Node9&#45;&gt;Node19 -->
<g id="edge19" class="edge">
<title>Node9&#45;&gt;Node19</title>
<path fill="none" stroke="midnightblue" d="M755.04,-195.73C765.68,-185.4 783.58,-168.04 796.68,-155.33"/>
<polygon fill="midnightblue" stroke="midnightblue" points="799.37,-157.6 804.11,-148.13 794.49,-152.58 799.37,-157.6"/>
</g>
<!-- Node12 -->
<g id="node12" class="node">
<title>Node12</title>
<g id="a_node12"><a xlink:title=" ">
<polygon fill="white" stroke="#bfbfbf" points="399,-62 399,-81 443,-81 443,-62 399,-62"/>
<text text-anchor="middle" x="421" y="-69" font-family="Helvetica,sans-Serif" font-size="10.00">vector</text>
</a>
</g>
</g>
<!-- Node11&#45;&gt;Node12 -->
<g id="edge11" class="edge">
<title>Node11&#45;&gt;Node12</title>
<path fill="none" stroke="midnightblue" d="M923.98,-130.22C906.03,-127.74 885.63,-125.07 867,-123 683.44,-102.59 631.67,-133.78 453,-87 450.84,-86.44 448.65,-85.74 446.47,-84.95"/>
<polygon fill="midnightblue" stroke="midnightblue" points="447.8,-81.71 437.22,-81.13 445.12,-88.18 447.8,-81.71"/>
</g>
<!-- Node13 -->
<g id="node13" class="node">
<title>Node13</title>
<g id="a_node13"><a xlink:title=" ">
<polygon fill="white" stroke="#bfbfbf" points="800.5,-62 800.5,-81 955.5,-81 955.5,-62 800.5,-62"/>
<text text-anchor="middle" x="878" y="-69" font-family="Helvetica,sans-Serif" font-size="10.00">sml/events/event_dispatching.h</text>
</a>
</g>
</g>
<!-- Node11&#45;&gt;Node13 -->
<g id="edge12" class="edge">
<title>Node11&#45;&gt;Node13</title>
<path fill="none" stroke="midnightblue" d="M953.17,-123.4C937.22,-112.6 915.3,-97.76 899.25,-86.89"/>
<polygon fill="midnightblue" stroke="midnightblue" points="900.81,-83.72 890.56,-81.01 896.88,-89.51 900.81,-83.72"/>
</g>
<!-- Node14 -->
<g id="node14" class="node">
<title>Node14</title>
<g id="a_node14"><a xlink:title=" ">
<polygon fill="white" stroke="#bfbfbf" points="973.5,-56.5 973.5,-86.5 1072.5,-86.5 1072.5,-56.5 973.5,-56.5"/>
<text text-anchor="start" x="981.5" y="-74.5" font-family="Helvetica,sans-Serif" font-size="10.00">sml/events/listener</text>
<text text-anchor="middle" x="1023" y="-63.5" font-family="Helvetica,sans-Serif" font-size="10.00">_notifier.h</text>
</a>
</g>
</g>
<!-- Node11&#45;&gt;Node14 -->
<g id="edge13" class="edge">
<title>Node11&#45;&gt;Node14</title>
<path fill="none" stroke="midnightblue" d="M984.63,-123.4C990.92,-115.05 999.04,-104.29 1006.18,-94.81"/>
<polygon fill="midnightblue" stroke="midnightblue" points="1009.16,-96.67 1012.39,-86.58 1003.57,-92.45 1009.16,-96.67"/>
</g>
<!-- Node15 -->
<g id="node15" class="node">
<title>Node15</title>
<g id="a_node15"><a xlink:title=" ">
<polygon fill="white" stroke="#bfbfbf" points="1009.5,-0.5 1009.5,-19.5 1152.5,-19.5 1152.5,-0.5 1009.5,-0.5"/>
<text text-anchor="middle" x="1081" y="-7.5" font-family="Helvetica,sans-Serif" font-size="10.00">sml/events/system_events.h</text>
</a>
</g>
</g>
<!-- Node11&#45;&gt;Node15 -->
<g id="edge14" class="edge">
<title>Node11&#45;&gt;Node15</title>
<path fill="none" stroke="midnightblue" d="M1024.01,-126.88C1045.73,-119.52 1069.11,-107.26 1082,-87 1092.82,-69.99 1090.37,-46.22 1086.64,-29.82"/>
<polygon fill="midnightblue" stroke="midnightblue" points="1089.93,-28.58 1083.99,-19.81 1083.16,-30.37 1089.93,-28.58"/>
</g>
<!-- Node16 -->
<g id="node16" class="node">
<title>Node16</title>
<g id="a_node16"><a xlink:href="gui__event_8h.html" target="_top" xlink:title=" ">
<polygon fill="white" stroke="black" points="1168.5,-62 1168.5,-81 1235.5,-81 1235.5,-62 1168.5,-62"/>
<text text-anchor="middle" x="1202" y="-69" font-family="Helvetica,sans-Serif" font-size="10.00">gui_event.h</text>
</a>
</g>
</g>
<!-- Node11&#45;&gt;Node16 -->
<g id="edge15" class="edge">
<title>Node11&#45;&gt;Node16</title>
<path fill="none" stroke="midnightblue" d="M1023.19,-123.48C1064.77,-111.62 1123.57,-94.86 1162.23,-83.84"/>
<polygon fill="midnightblue" stroke="midnightblue" points="1163.43,-87.14 1172.08,-81.03 1161.51,-80.4 1163.43,-87.14"/>
</g>
<!-- Node16&#45;&gt;Node15 -->
<g id="edge17" class="edge">
<title>Node16&#45;&gt;Node15</title>
<path fill="none" stroke="midnightblue" d="M1184.66,-61.98C1164.45,-52.03 1130.81,-35.49 1107.36,-23.96"/>
<polygon fill="midnightblue" stroke="midnightblue" points="1108.82,-20.78 1098.3,-19.51 1105.73,-27.06 1108.82,-20.78"/>
</g>
<!-- Node17 -->
<g id="node17" class="node">
<title>Node17</title>
<g id="a_node17"><a xlink:title=" ">
<polygon fill="white" stroke="#bfbfbf" points="1171,-0.5 1171,-19.5 1271,-19.5 1271,-0.5 1171,-0.5"/>
<text text-anchor="middle" x="1221" y="-7.5" font-family="Helvetica,sans-Serif" font-size="10.00">sml/events/event.h</text>
</a>
</g>
</g>
<!-- Node16&#45;&gt;Node17 -->
<g id="edge16" class="edge">
<title>Node16&#45;&gt;Node17</title>
<path fill="none" stroke="midnightblue" d="M1204.72,-61.98C1207.43,-53.49 1211.67,-40.2 1215.15,-29.32"/>
<polygon fill="midnightblue" stroke="midnightblue" points="1218.57,-30.1 1218.28,-19.51 1211.91,-27.97 1218.57,-30.1"/>
</g>
<!-- Node18 -->
<g id="node18" class="node">
<title>Node18</title>
<g id="a_node18"><a xlink:title=" ">
<polygon fill="white" stroke="#bfbfbf" points="1289.5,-0.5 1289.5,-19.5 1366.5,-19.5 1366.5,-0.5 1289.5,-0.5"/>
<text text-anchor="middle" x="1328" y="-7.5" font-family="Helvetica,sans-Serif" font-size="10.00">sml/sml_log.h</text>
</a>
</g>
</g>
<!-- Node16&#45;&gt;Node18 -->
<g id="edge18" class="edge">
<title>Node16&#45;&gt;Node18</title>
<path fill="none" stroke="midnightblue" d="M1220.05,-61.98C1241.2,-51.99 1276.44,-35.35 1300.88,-23.81"/>
<polygon fill="midnightblue" stroke="midnightblue" points="1302.43,-26.94 1309.98,-19.51 1299.44,-20.61 1302.43,-26.94"/>
</g>
<!-- Node20 -->
<g id="node20" class="node">
<title>Node20</title>
<g id="a_node20"><a xlink:title=" ">
<polygon fill="white" stroke="#bfbfbf" points="699.5,-62 699.5,-81 782.5,-81 782.5,-62 699.5,-62"/>
<text text-anchor="middle" x="741" y="-69" font-family="Helvetica,sans-Serif" font-size="10.00">sml/math/blur.h</text>
</a>
</g>
</g>
<!-- Node19&#45;&gt;Node20 -->
<g id="edge20" class="edge">
<title>Node19&#45;&gt;Node20</title>
<path fill="none" stroke="midnightblue" d="M803.29,-128.73C791.74,-118.31 772.25,-100.71 758.14,-87.97"/>
<polygon fill="midnightblue" stroke="midnightblue" points="760.32,-85.23 750.56,-81.13 755.63,-90.43 760.32,-85.23"/>
</g>
<!-- Node21 -->
<g id="node21" class="node">
<title>Node21</title>
<g id="a_node21"><a xlink:title=" ">
<polygon fill="white" stroke="#bfbfbf" points="569,-56.5 569,-86.5 681,-86.5 681,-56.5 569,-56.5"/>
<text text-anchor="start" x="577" y="-74.5" font-family="Helvetica,sans-Serif" font-size="10.00">sml/graphics_wrapper</text>
<text text-anchor="middle" x="625" y="-63.5" font-family="Helvetica,sans-Serif" font-size="10.00">/texture.h</text>
</a>
</g>
</g>
<!-- Node19&#45;&gt;Node21 -->
<g id="edge21" class="edge">
<title>Node19&#45;&gt;Node21</title>
<path fill="none" stroke="midnightblue" d="M788.04,-128.87C759.34,-118.95 711.5,-102.41 675.05,-89.81"/>
<polygon fill="midnightblue" stroke="midnightblue" points="676.17,-86.49 665.57,-86.53 673.88,-93.1 676.17,-86.49"/>
</g>
<!-- Node22&#45;&gt;Node5 -->
<g id="edge26" class="edge">
<title>Node22&#45;&gt;Node5</title>
<path fill="none" stroke="midnightblue" d="M233.43,-195.73C215.38,-184.87 184.39,-166.22 163.08,-153.39"/>
<polygon fill="midnightblue" stroke="midnightblue" points="164.71,-150.29 154.33,-148.13 161.1,-156.28 164.71,-150.29"/>
</g>
<!-- Node23 -->
<g id="node23" class="node">
<title>Node23</title>
<g id="a_node23"><a xlink:title=" ">
<polygon fill="white" stroke="#bfbfbf" points="243,-123.5 243,-153.5 355,-153.5 355,-123.5 243,-123.5"/>
<text text-anchor="start" x="251" y="-141.5" font-family="Helvetica,sans-Serif" font-size="10.00">sml/graphics_wrapper</text>
<text text-anchor="middle" x="299" y="-130.5" font-family="Helvetica,sans-Serif" font-size="10.00">/color.h</text>
</a>
</g>
</g>
<!-- Node22&#45;&gt;Node23 -->
<g id="edge24" class="edge">
<title>Node22&#45;&gt;Node23</title>
<path fill="none" stroke="midnightblue" d="M254.88,-195.73C261.7,-187.03 272.44,-173.34 281.62,-161.65"/>
<polygon fill="midnightblue" stroke="midnightblue" points="284.53,-163.62 287.95,-153.59 279.02,-159.3 284.53,-163.62"/>
</g>
<!-- Node24 -->
<g id="node24" class="node">
<title>Node24</title>
<g id="a_node24"><a xlink:title=" ">
<polygon fill="white" stroke="#bfbfbf" points="273,-62 273,-81 381,-81 381,-62 273,-62"/>
<text text-anchor="middle" x="327" y="-69" font-family="Helvetica,sans-Serif" font-size="10.00">sml/math/rectangle.h</text>
</a>
</g>
</g>
<!-- Node22&#45;&gt;Node24 -->
<g id="edge25" class="edge">
<title>Node22&#45;&gt;Node24</title>
<path fill="none" stroke="midnightblue" d="M243.04,-195.96C234.67,-180.33 219.98,-146.57 234,-123 245.01,-104.49 265.43,-92.35 284.34,-84.62"/>
<polygon fill="midnightblue" stroke="midnightblue" points="285.62,-87.88 293.74,-81.07 283.15,-81.33 285.62,-87.88"/>
</g>
<!-- Node25&#45;&gt;Node12 -->
<g id="edge28" class="edge">
<title>Node25&#45;&gt;Node12</title>
<path fill="none" stroke="midnightblue" d="M421,-195.84C421,-174.67 421,-119.95 421,-91.03"/>
<polygon fill="midnightblue" stroke="midnightblue" points="424.5,-91.02 421,-81.02 417.5,-91.02 424.5,-91.02"/>
</g>
<!-- Node25&#45;&gt;Node24 -->
<g id="edge29" class="edge">
<title>Node25&#45;&gt;Node24</title>
<path fill="none" stroke="midnightblue" d="M415.07,-195.89C404.78,-180.98 382.9,-149.39 364,-123 355.86,-111.63 346.56,-98.94 339.32,-89.12"/>
<polygon fill="midnightblue" stroke="midnightblue" points="342.1,-87 333.34,-81.04 336.47,-91.16 342.1,-87"/>
</g>
<!-- Node26 -->
<g id="node26" class="node">
<title>Node26</title>
<g id="a_node26"><a xlink:href="fill_8h.html" target="_top" xlink:title=" ">
<polygon fill="white" stroke="black" points="449.5,-129 449.5,-148 484.5,-148 484.5,-129 449.5,-129"/>
<text text-anchor="middle" x="467" y="-136" font-family="Helvetica,sans-Serif" font-size="10.00">fill.h</text>
</a>
</g>
</g>
<!-- Node25&#45;&gt;Node26 -->
<g id="edge30" class="edge">
<title>Node25&#45;&gt;Node26</title>
<path fill="none" stroke="midnightblue" d="M427.2,-195.73C434.31,-185.7 446.11,-169.01 455.02,-156.42"/>
<polygon fill="midnightblue" stroke="midnightblue" points="457.97,-158.31 460.89,-148.13 452.26,-154.27 457.97,-158.31"/>
</g>
<!-- Node28 -->
<g id="node28" class="node">
<title>Node28</title>
<g id="a_node28"><a xlink:href="image_8h.html" target="_top" xlink:title=" ">
<polygon fill="white" stroke="black" points="502.5,-129 502.5,-148 591.5,-148 591.5,-129 502.5,-129"/>
<text text-anchor="middle" x="547" y="-136" font-family="Helvetica,sans-Serif" font-size="10.00">../media/image.h</text>
</a>
</g>
</g>
<!-- Node25&#45;&gt;Node28 -->
<g id="edge35" class="edge">
<title>Node25&#45;&gt;Node28</title>
<path fill="none" stroke="midnightblue" d="M437.73,-195.87C459.1,-184.84 496.3,-165.66 521.28,-152.77"/>
<polygon fill="midnightblue" stroke="midnightblue" points="522.92,-155.86 530.2,-148.17 519.71,-149.64 522.92,-155.86"/>
</g>
<!-- Node26&#45;&gt;Node12 -->
<g id="edge31" class="edge">
<title>Node26&#45;&gt;Node12</title>
<path fill="none" stroke="midnightblue" d="M460.8,-128.73C453.69,-118.7 441.89,-102.01 432.98,-89.42"/>
<polygon fill="midnightblue" stroke="midnightblue" points="435.74,-87.27 427.11,-81.13 430.03,-91.31 435.74,-87.27"/>
</g>
<!-- Node26&#45;&gt;Node21 -->
<g id="edge34" class="edge">
<title>Node26&#45;&gt;Node21</title>
<path fill="none" stroke="midnightblue" d="M482.25,-128.88C486.04,-126.86 490.13,-124.78 494,-123 520.3,-110.92 550.39,-99.19 575.09,-90.07"/>
<polygon fill="midnightblue" stroke="midnightblue" points="576.43,-93.31 584.62,-86.59 574.02,-86.73 576.43,-93.31"/>
</g>
<!-- Node26&#45;&gt;Node24 -->
<g id="edge33" class="edge">
<title>Node26&#45;&gt;Node24</title>
<path fill="none" stroke="midnightblue" d="M449.27,-129.27C425.44,-118.21 382.85,-98.43 354.75,-85.39"/>
<polygon fill="midnightblue" stroke="midnightblue" points="356.02,-82.11 345.48,-81.08 353.07,-88.46 356.02,-82.11"/>
</g>
<!-- Node27 -->
<g id="node27" class="node">
<title>Node27</title>
<g id="a_node27"><a xlink:title=" ">
<polygon fill="white" stroke="#bfbfbf" points="461.5,-62 461.5,-81 550.5,-81 550.5,-62 461.5,-62"/>
<text text-anchor="middle" x="506" y="-69" font-family="Helvetica,sans-Serif" font-size="10.00">sml/math/vec2.h</text>
</a>
</g>
</g>
<!-- Node26&#45;&gt;Node27 -->
<g id="edge32" class="edge">
<title>Node26&#45;&gt;Node27</title>
<path fill="none" stroke="midnightblue" d="M472.26,-128.73C478.22,-118.79 488.1,-102.34 495.63,-89.79"/>
<polygon fill="midnightblue" stroke="midnightblue" points="498.68,-91.5 500.82,-81.13 492.68,-87.9 498.68,-91.5"/>
</g>
<!-- Node28&#45;&gt;Node21 -->
<g id="edge36" class="edge">
<title>Node28&#45;&gt;Node21</title>
<path fill="none" stroke="midnightblue" d="M557.52,-128.73C568.36,-119.7 585.67,-105.27 600.04,-93.3"/>
<polygon fill="midnightblue" stroke="midnightblue" points="602.65,-95.68 608.09,-86.59 598.17,-90.3 602.65,-95.68"/>
</g>
</g>
</svg>
