<?xml version="1.0" encoding="UTF-8" standalone="no"?>
<!DOCTYPE svg PUBLIC "-//W3C//DTD SVG 1.1//EN"
 "http://www.w3.org/Graphics/SVG/1.1/DTD/svg11.dtd">
<!-- Generated by graphviz version 2.50.0 (20211204.2007)
 -->
<!-- Title: slider.h Pages: 1 -->
<!--zoomable 420 -->
<svg id="main" version="1.1" xmlns="http://www.w3.org/2000/svg" xmlns:xlink="http://www.w3.org/1999/xlink" xml:space="preserve" onload="init(evt)">
<style type="text/css"><![CDATA[
.edge:hover path { stroke: red; }
.edge:hover polygon { stroke: red; fill: red; }
]]></style>
<script type="text/javascript"><![CDATA[
var edges = document.getElementsByTagName('g');
if (edges && edges.length) {
  for (var i=0;i<edges.length;i++) {
    if (edges[i].id.substr(0,4)=='edge') {
      edges[i].setAttribute('class','edge');
    }
  }
}
]]></script>
        <defs>
                <circle id="rim" cx="0" cy="0" r="7"/>
                <circle id="rim2" cx="0" cy="0" r="3.5"/>
                <g id="zoomPlus">
                        <use xlink:href="#rim" fill="#404040">
                                <set attributeName="fill" to="#808080" begin="zoomplus.mouseover" end="zoomplus.mouseout"/>
                        </use>
                        <path d="M-4,0h8M0,-4v8" fill="none" stroke="white" stroke-width="1.5" pointer-events="none"/>
                </g>
                <g id="zoomMin">
                        <use xlink:href="#rim" fill="#404040">
                                <set attributeName="fill" to="#808080" begin="zoomminus.mouseover" end="zoomminus.mouseout"/>
                        </use>
                        <path d="M-4,0h8" fill="none" stroke="white" stroke-width="1.5" pointer-events="none"/>
                </g>
                <g id="dirArrow">
                        <path fill="none" stroke="white" stroke-width="1.5" d="M0,-3.0v7 M-2.5,-0.5L0,-3.0L2.5,-0.5"/>
                </g>
               <g id="resetDef">
                       <use xlink:href="#rim2" fill="#404040">
                               <set attributeName="fill" to="#808080" begin="reset.mouseover" end="reset.mouseout"/>
                       </use>
               </g>
        </defs>

<script type="text/javascript">
var viewWidth = 1225;
var viewHeight = 420;
var sectionId = 'dynsection-0';
</script>
<script xlink:href="svgpan.js"/>
<svg id="graph" class="graph">
<g id="viewport">
<title>slider.h</title>
<polygon fill="white" stroke="transparent" points="-4,4 -4,-416 1220.62,-416 1220.62,4 -4,4"/>
<!-- Node1 -->
<g id="node1" class="node">
<title>Node1</title>
<g id="a_node1"><a xlink:title=" ">
<polygon fill="#bfbfbf" stroke="black" points="951.5,-392.5 951.5,-411.5 998.5,-411.5 998.5,-392.5 951.5,-392.5"/>
<text text-anchor="middle" x="975" y="-399.5" font-family="Helvetica,sans-Serif" font-size="10.00">slider.h</text>
</a>
</g>
</g>
<!-- Node2 -->
<g id="node2" class="node">
<title>Node2</title>
<g id="a_node2"><a xlink:href="control_8h.html" target="_top" xlink:title=" ">
<polygon fill="white" stroke="black" points="1132,-280.5 1132,-299.5 1186,-299.5 1186,-280.5 1132,-280.5"/>
<text text-anchor="middle" x="1159" y="-287.5" font-family="Helvetica,sans-Serif" font-size="10.00">control.h</text>
</a>
</g>
</g>
<!-- Node1&#45;&gt;Node2 -->
<g id="edge1" class="edge">
<title>Node1&#45;&gt;Node2</title>
<path fill="none" stroke="midnightblue" d="M990.76,-392.42C1006.98,-383.51 1032.94,-369.09 1055,-356 1083.71,-338.96 1116.27,-318.41 1137.19,-305.04"/>
<polygon fill="midnightblue" stroke="midnightblue" points="1139.13,-307.96 1145.66,-299.61 1135.35,-302.06 1139.13,-307.96"/>
</g>
<!-- Node28 -->
<g id="node28" class="node">
<title>Node28</title>
<g id="a_node28"><a xlink:href="box__container_8h.html" target="_top" xlink:title=" ">
<polygon fill="white" stroke="black" points="904,-336.5 904,-355.5 1046,-355.5 1046,-336.5 904,-336.5"/>
<text text-anchor="middle" x="975" y="-343.5" font-family="Helvetica,sans-Serif" font-size="10.00">../containers/box_container.h</text>
</a>
</g>
</g>
<!-- Node1&#45;&gt;Node28 -->
<g id="edge36" class="edge">
<title>Node1&#45;&gt;Node28</title>
<path fill="none" stroke="midnightblue" d="M975,-392.08C975,-385.01 975,-374.86 975,-365.99"/>
<polygon fill="midnightblue" stroke="midnightblue" points="978.5,-365.75 975,-355.75 971.5,-365.75 978.5,-365.75"/>
</g>
<!-- Node32 -->
<g id="node32" class="node">
<title>Node32</title>
<g id="a_node32"><a xlink:href="text_8h.html" target="_top" xlink:title=" ">
<polygon fill="white" stroke="black" points="752.5,-280.5 752.5,-299.5 837.5,-299.5 837.5,-280.5 752.5,-280.5"/>
<text text-anchor="middle" x="795" y="-287.5" font-family="Helvetica,sans-Serif" font-size="10.00">../shapes/text.h</text>
</a>
</g>
</g>
<!-- Node1&#45;&gt;Node32 -->
<g id="edge41" class="edge">
<title>Node1&#45;&gt;Node32</title>
<path fill="none" stroke="midnightblue" d="M959.19,-392.5C942.93,-383.66 916.95,-369.29 895,-356 867.35,-339.26 836.24,-318.77 816.17,-305.32"/>
<polygon fill="midnightblue" stroke="midnightblue" points="818.03,-302.36 807.78,-299.68 814.12,-308.17 818.03,-302.36"/>
</g>
<!-- Node3 -->
<g id="node3" class="node">
<title>Node3</title>
<g id="a_node3"><a xlink:href="parent_8h.html" target="_top" xlink:title=" ">
<polygon fill="white" stroke="black" points="917.5,-224.5 917.5,-243.5 978.5,-243.5 978.5,-224.5 917.5,-224.5"/>
<text text-anchor="middle" x="948" y="-231.5" font-family="Helvetica,sans-Serif" font-size="10.00">../parent.h</text>
</a>
</g>
</g>
<!-- Node2&#45;&gt;Node3 -->
<g id="edge2" class="edge">
<title>Node2&#45;&gt;Node3</title>
<path fill="none" stroke="midnightblue" d="M1131.85,-282.05C1095.55,-272.76 1030.91,-256.22 988.75,-245.43"/>
<polygon fill="midnightblue" stroke="midnightblue" points="989.37,-241.97 978.81,-242.89 987.63,-248.76 989.37,-241.97"/>
</g>
<!-- Node26 -->
<g id="node26" class="node">
<title>Node26</title>
<g id="a_node26"><a xlink:href="skin_8h.html" target="_top" xlink:title=" ">
<polygon fill="white" stroke="black" points="1121,-224.5 1121,-243.5 1197,-243.5 1197,-224.5 1121,-224.5"/>
<text text-anchor="middle" x="1159" y="-231.5" font-family="Helvetica,sans-Serif" font-size="10.00">../style/skin.h</text>
</a>
</g>
</g>
<!-- Node2&#45;&gt;Node26 -->
<g id="edge33" class="edge">
<title>Node2&#45;&gt;Node26</title>
<path fill="none" stroke="midnightblue" d="M1159,-280.08C1159,-273.01 1159,-262.86 1159,-253.99"/>
<polygon fill="midnightblue" stroke="midnightblue" points="1162.5,-253.75 1159,-243.75 1155.5,-253.75 1162.5,-253.75"/>
</g>
<!-- Node4 -->
<g id="node4" class="node">
<title>Node4</title>
<g id="a_node4"><a xlink:href="component_8h.html" target="_top" xlink:title=" ">
<polygon fill="white" stroke="black" points="539.5,-168.5 539.5,-187.5 612.5,-187.5 612.5,-168.5 539.5,-168.5"/>
<text text-anchor="middle" x="576" y="-175.5" font-family="Helvetica,sans-Serif" font-size="10.00">component.h</text>
</a>
</g>
</g>
<!-- Node3&#45;&gt;Node4 -->
<g id="edge3" class="edge">
<title>Node3&#45;&gt;Node4</title>
<path fill="none" stroke="midnightblue" d="M917.48,-225.85C914.29,-225.18 911.08,-224.55 908,-224 806.87,-205.8 687.21,-191.29 622.75,-184.04"/>
<polygon fill="midnightblue" stroke="midnightblue" points="622.84,-180.53 612.52,-182.9 622.07,-187.49 622.84,-180.53"/>
</g>
<!-- Node17 -->
<g id="node17" class="node">
<title>Node17</title>
<g id="a_node17"><a xlink:href="insets_8h.html" target="_top" xlink:title=" ">
<polygon fill="white" stroke="black" points="1077,-112.5 1077,-131.5 1161,-131.5 1161,-112.5 1077,-112.5"/>
<text text-anchor="middle" x="1119" y="-119.5" font-family="Helvetica,sans-Serif" font-size="10.00">../paint/insets.h</text>
</a>
</g>
</g>
<!-- Node3&#45;&gt;Node17 -->
<g id="edge17" class="edge">
<title>Node3&#45;&gt;Node17</title>
<path fill="none" stroke="midnightblue" d="M958.92,-224.32C975.39,-211.38 1007.78,-186.58 1037,-168 1055.21,-156.42 1076.62,-144.73 1092.99,-136.17"/>
<polygon fill="midnightblue" stroke="midnightblue" points="1094.71,-139.22 1101.99,-131.52 1091.5,-133.01 1094.71,-139.22"/>
</g>
<!-- Node19 -->
<g id="node19" class="node">
<title>Node19</title>
<g id="a_node19"><a xlink:href="border_8h.html" target="_top" xlink:title=" ">
<polygon fill="white" stroke="black" points="906,-168.5 906,-187.5 990,-187.5 990,-168.5 906,-168.5"/>
<text text-anchor="middle" x="948" y="-175.5" font-family="Helvetica,sans-Serif" font-size="10.00">../paint/border.h</text>
</a>
</g>
</g>
<!-- Node3&#45;&gt;Node19 -->
<g id="edge19" class="edge">
<title>Node3&#45;&gt;Node19</title>
<path fill="none" stroke="midnightblue" d="M948,-224.08C948,-217.01 948,-206.86 948,-197.99"/>
<polygon fill="midnightblue" stroke="midnightblue" points="951.5,-197.75 948,-187.75 944.5,-197.75 951.5,-197.75"/>
</g>
<!-- Node22 -->
<g id="node22" class="node">
<title>Node22</title>
<g id="a_node22"><a xlink:href="background_8h.html" target="_top" xlink:title=" ">
<polygon fill="white" stroke="black" points="708,-168.5 708,-187.5 816,-187.5 816,-168.5 708,-168.5"/>
<text text-anchor="middle" x="762" y="-175.5" font-family="Helvetica,sans-Serif" font-size="10.00">../paint/background.h</text>
</a>
</g>
</g>
<!-- Node3&#45;&gt;Node22 -->
<g id="edge23" class="edge">
<title>Node3&#45;&gt;Node22</title>
<path fill="none" stroke="midnightblue" d="M918.53,-224.44C886.83,-215.24 836.27,-200.56 801.23,-190.39"/>
<polygon fill="midnightblue" stroke="midnightblue" points="801.91,-186.94 791.33,-187.52 799.96,-193.67 801.91,-186.94"/>
</g>
<!-- Node5 -->
<g id="node5" class="node">
<title>Node5</title>
<g id="a_node5"><a xlink:title=" ">
<polygon fill="white" stroke="#bfbfbf" points="191,-112.5 191,-131.5 331,-131.5 331,-112.5 191,-112.5"/>
<text text-anchor="middle" x="261" y="-119.5" font-family="Helvetica,sans-Serif" font-size="10.00">sml/sml_graphics_wrapper.h</text>
</a>
</g>
</g>
<!-- Node4&#45;&gt;Node5 -->
<g id="edge4" class="edge">
<title>Node4&#45;&gt;Node5</title>
<path fill="none" stroke="midnightblue" d="M539.25,-170.7C485.56,-161.5 385.1,-144.27 320.71,-133.24"/>
<polygon fill="midnightblue" stroke="midnightblue" points="321.15,-129.76 310.7,-131.52 319.96,-136.66 321.15,-129.76"/>
</g>
<!-- Node6 -->
<g id="node6" class="node">
<title>Node6</title>
<g id="a_node6"><a xlink:href="gui__event__dispatching_8h.html" target="_top" xlink:title=" ">
<polygon fill="white" stroke="black" points="349.5,-112.5 349.5,-131.5 512.5,-131.5 512.5,-112.5 349.5,-112.5"/>
<text text-anchor="middle" x="431" y="-119.5" font-family="Helvetica,sans-Serif" font-size="10.00">../events/gui_event_dispatching.h</text>
</a>
</g>
</g>
<!-- Node4&#45;&gt;Node6 -->
<g id="edge5" class="edge">
<title>Node4&#45;&gt;Node6</title>
<path fill="none" stroke="midnightblue" d="M553.02,-168.44C528.84,-159.44 490.58,-145.19 463.35,-135.05"/>
<polygon fill="midnightblue" stroke="midnightblue" points="464.46,-131.73 453.87,-131.52 462.02,-138.29 464.46,-131.73"/>
</g>
<!-- Node14 -->
<g id="node14" class="node">
<title>Node14</title>
<g id="a_node14"><a xlink:href="shadow_8h.html" target="_top" xlink:title=" ">
<polygon fill="white" stroke="black" points="531,-112.5 531,-131.5 621,-131.5 621,-112.5 531,-112.5"/>
<text text-anchor="middle" x="576" y="-119.5" font-family="Helvetica,sans-Serif" font-size="10.00">../paint/shadow.h</text>
</a>
</g>
</g>
<!-- Node4&#45;&gt;Node14 -->
<g id="edge14" class="edge">
<title>Node4&#45;&gt;Node14</title>
<path fill="none" stroke="midnightblue" d="M576,-168.08C576,-161.01 576,-150.86 576,-141.99"/>
<polygon fill="midnightblue" stroke="midnightblue" points="579.5,-141.75 576,-131.75 572.5,-141.75 579.5,-141.75"/>
</g>
<!-- Node7 -->
<g id="node7" class="node">
<title>Node7</title>
<g id="a_node7"><a xlink:title=" ">
<polygon fill="white" stroke="#bfbfbf" points="627,-56.5 627,-75.5 671,-75.5 671,-56.5 627,-56.5"/>
<text text-anchor="middle" x="649" y="-63.5" font-family="Helvetica,sans-Serif" font-size="10.00">vector</text>
</a>
</g>
</g>
<!-- Node6&#45;&gt;Node7 -->
<g id="edge6" class="edge">
<title>Node6&#45;&gt;Node7</title>
<path fill="none" stroke="midnightblue" d="M468.16,-112.44C505.77,-103.66 565.57,-89.45 617,-76 617.1,-75.97 617.2,-75.95 617.3,-75.92"/>
<polygon fill="midnightblue" stroke="midnightblue" points="618.25,-79.29 627,-73.3 616.43,-72.53 618.25,-79.29"/>
</g>
<!-- Node8 -->
<g id="node8" class="node">
<title>Node8</title>
<g id="a_node8"><a xlink:title=" ">
<polygon fill="white" stroke="#bfbfbf" points="154.5,-56.5 154.5,-75.5 309.5,-75.5 309.5,-56.5 154.5,-56.5"/>
<text text-anchor="middle" x="232" y="-63.5" font-family="Helvetica,sans-Serif" font-size="10.00">sml/events/event_dispatching.h</text>
</a>
</g>
</g>
<!-- Node6&#45;&gt;Node8 -->
<g id="edge7" class="edge">
<title>Node6&#45;&gt;Node8</title>
<path fill="none" stroke="midnightblue" d="M399.47,-112.44C365.41,-103.2 310.99,-88.44 273.48,-78.26"/>
<polygon fill="midnightblue" stroke="midnightblue" points="273.95,-74.76 263.38,-75.52 272.12,-81.51 273.95,-74.76"/>
</g>
<!-- Node9 -->
<g id="node9" class="node">
<title>Node9</title>
<g id="a_node9"><a xlink:title=" ">
<polygon fill="white" stroke="#bfbfbf" points="327.5,-56.5 327.5,-75.5 468.5,-75.5 468.5,-56.5 327.5,-56.5"/>
<text text-anchor="middle" x="398" y="-63.5" font-family="Helvetica,sans-Serif" font-size="10.00">sml/events/listener_notifier.h</text>
</a>
</g>
</g>
<!-- Node6&#45;&gt;Node9 -->
<g id="edge8" class="edge">
<title>Node6&#45;&gt;Node9</title>
<path fill="none" stroke="midnightblue" d="M425.55,-112.08C420.99,-104.61 414.33,-93.72 408.71,-84.52"/>
<polygon fill="midnightblue" stroke="midnightblue" points="411.55,-82.46 403.35,-75.75 405.58,-86.11 411.55,-82.46"/>
</g>
<!-- Node10 -->
<g id="node10" class="node">
<title>Node10</title>
<g id="a_node10"><a xlink:title=" ">
<polygon fill="white" stroke="#bfbfbf" points="319.5,-0.5 319.5,-19.5 462.5,-19.5 462.5,-0.5 319.5,-0.5"/>
<text text-anchor="middle" x="391" y="-7.5" font-family="Helvetica,sans-Serif" font-size="10.00">sml/events/system_events.h</text>
</a>
</g>
</g>
<!-- Node6&#45;&gt;Node10 -->
<g id="edge9" class="edge">
<title>Node6&#45;&gt;Node10</title>
<path fill="none" stroke="midnightblue" d="M444.76,-112.44C462.53,-100.25 489.74,-77.05 477,-56 467.59,-40.46 450.85,-30.02 434.62,-23.15"/>
<polygon fill="midnightblue" stroke="midnightblue" points="435.77,-19.85 425.18,-19.51 433.25,-26.37 435.77,-19.85"/>
</g>
<!-- Node11 -->
<g id="node11" class="node">
<title>Node11</title>
<g id="a_node11"><a xlink:href="gui__event_8h.html" target="_top" xlink:title=" ">
<polygon fill="white" stroke="black" points="69.5,-56.5 69.5,-75.5 136.5,-75.5 136.5,-56.5 69.5,-56.5"/>
<text text-anchor="middle" x="103" y="-63.5" font-family="Helvetica,sans-Serif" font-size="10.00">gui_event.h</text>
</a>
</g>
</g>
<!-- Node6&#45;&gt;Node11 -->
<g id="edge10" class="edge">
<title>Node6&#45;&gt;Node11</title>
<path fill="none" stroke="midnightblue" d="M370.58,-112.48C314.84,-104.4 229.57,-91.46 146.95,-76.29"/>
<polygon fill="midnightblue" stroke="midnightblue" points="147.36,-72.81 136.89,-74.43 146.09,-79.69 147.36,-72.81"/>
</g>
<!-- Node11&#45;&gt;Node10 -->
<g id="edge12" class="edge">
<title>Node11&#45;&gt;Node10</title>
<path fill="none" stroke="midnightblue" d="M136.91,-57.64C139.64,-57.08 142.37,-56.52 145,-56 208.75,-43.34 282.05,-30.1 331.94,-21.29"/>
<polygon fill="midnightblue" stroke="midnightblue" points="332.67,-24.71 341.91,-19.53 331.45,-17.82 332.67,-24.71"/>
</g>
<!-- Node12 -->
<g id="node12" class="node">
<title>Node12</title>
<g id="a_node12"><a xlink:title=" ">
<polygon fill="white" stroke="#bfbfbf" points="0,-0.5 0,-19.5 100,-19.5 100,-0.5 0,-0.5"/>
<text text-anchor="middle" x="50" y="-7.5" font-family="Helvetica,sans-Serif" font-size="10.00">sml/events/event.h</text>
</a>
</g>
</g>
<!-- Node11&#45;&gt;Node12 -->
<g id="edge11" class="edge">
<title>Node11&#45;&gt;Node12</title>
<path fill="none" stroke="midnightblue" d="M94.25,-56.08C86.53,-48.22 75.1,-36.57 65.78,-27.08"/>
<polygon fill="midnightblue" stroke="midnightblue" points="68.09,-24.44 58.59,-19.75 63.1,-29.34 68.09,-24.44"/>
</g>
<!-- Node13 -->
<g id="node13" class="node">
<title>Node13</title>
<g id="a_node13"><a xlink:title=" ">
<polygon fill="white" stroke="#bfbfbf" points="118.5,-0.5 118.5,-19.5 195.5,-19.5 195.5,-0.5 118.5,-0.5"/>
<text text-anchor="middle" x="157" y="-7.5" font-family="Helvetica,sans-Serif" font-size="10.00">sml/sml_log.h</text>
</a>
</g>
</g>
<!-- Node11&#45;&gt;Node13 -->
<g id="edge13" class="edge">
<title>Node11&#45;&gt;Node13</title>
<path fill="none" stroke="midnightblue" d="M111.92,-56.08C119.78,-48.22 131.43,-36.57 140.92,-27.08"/>
<polygon fill="midnightblue" stroke="midnightblue" points="143.65,-29.3 148.25,-19.75 138.7,-24.35 143.65,-29.3"/>
</g>
<!-- Node15 -->
<g id="node15" class="node">
<title>Node15</title>
<g id="a_node15"><a xlink:title=" ">
<polygon fill="white" stroke="#bfbfbf" points="525.5,-56.5 525.5,-75.5 608.5,-75.5 608.5,-56.5 525.5,-56.5"/>
<text text-anchor="middle" x="567" y="-63.5" font-family="Helvetica,sans-Serif" font-size="10.00">sml/math/blur.h</text>
</a>
</g>
</g>
<!-- Node14&#45;&gt;Node15 -->
<g id="edge15" class="edge">
<title>Node14&#45;&gt;Node15</title>
<path fill="none" stroke="midnightblue" d="M574.51,-112.08C573.32,-104.93 571.61,-94.64 570.12,-85.69"/>
<polygon fill="midnightblue" stroke="midnightblue" points="573.55,-85.04 568.46,-75.75 566.65,-86.19 573.55,-85.04"/>
</g>
<!-- Node16 -->
<g id="node16" class="node">
<title>Node16</title>
<g id="a_node16"><a xlink:title=" ">
<polygon fill="white" stroke="#bfbfbf" points="689.5,-56.5 689.5,-75.5 842.5,-75.5 842.5,-56.5 689.5,-56.5"/>
<text text-anchor="middle" x="766" y="-63.5" font-family="Helvetica,sans-Serif" font-size="10.00">sml/graphics_wrapper/texture.h</text>
</a>
</g>
</g>
<!-- Node14&#45;&gt;Node16 -->
<g id="edge16" class="edge">
<title>Node14&#45;&gt;Node16</title>
<path fill="none" stroke="midnightblue" d="M606.11,-112.44C638.63,-103.2 690.58,-88.44 726.39,-78.26"/>
<polygon fill="midnightblue" stroke="midnightblue" points="727.37,-81.62 736.03,-75.52 725.46,-74.88 727.37,-81.62"/>
</g>
<!-- Node18 -->
<g id="node18" class="node">
<title>Node18</title>
<g id="a_node18"><a xlink:title=" ">
<polygon fill="white" stroke="#bfbfbf" points="1094.5,-56.5 1094.5,-75.5 1143.5,-75.5 1143.5,-56.5 1094.5,-56.5"/>
<text text-anchor="middle" x="1119" y="-63.5" font-family="Helvetica,sans-Serif" font-size="10.00">stdint.h</text>
</a>
</g>
</g>
<!-- Node17&#45;&gt;Node18 -->
<g id="edge18" class="edge">
<title>Node17&#45;&gt;Node18</title>
<path fill="none" stroke="midnightblue" d="M1119,-112.08C1119,-105.01 1119,-94.86 1119,-85.99"/>
<polygon fill="midnightblue" stroke="midnightblue" points="1122.5,-85.75 1119,-75.75 1115.5,-85.75 1122.5,-85.75"/>
</g>
<!-- Node19&#45;&gt;Node17 -->
<g id="edge22" class="edge">
<title>Node19&#45;&gt;Node17</title>
<path fill="none" stroke="midnightblue" d="M975.1,-168.44C1003.99,-159.32 1049.92,-144.81 1082.11,-134.65"/>
<polygon fill="midnightblue" stroke="midnightblue" points="1083.55,-137.87 1092.03,-131.52 1081.44,-131.19 1083.55,-137.87"/>
</g>
<!-- Node20 -->
<g id="node20" class="node">
<title>Node20</title>
<g id="a_node20"><a xlink:title=" ">
<polygon fill="white" stroke="#bfbfbf" points="876.5,-112.5 876.5,-131.5 1019.5,-131.5 1019.5,-112.5 876.5,-112.5"/>
<text text-anchor="middle" x="948" y="-119.5" font-family="Helvetica,sans-Serif" font-size="10.00">sml/graphics_wrapper/color.h</text>
</a>
</g>
</g>
<!-- Node19&#45;&gt;Node20 -->
<g id="edge20" class="edge">
<title>Node19&#45;&gt;Node20</title>
<path fill="none" stroke="midnightblue" d="M948,-168.08C948,-161.01 948,-150.86 948,-141.99"/>
<polygon fill="midnightblue" stroke="midnightblue" points="951.5,-141.75 948,-131.75 944.5,-141.75 951.5,-141.75"/>
</g>
<!-- Node21 -->
<g id="node21" class="node">
<title>Node21</title>
<g id="a_node21"><a xlink:title=" ">
<polygon fill="white" stroke="#bfbfbf" points="968,-56.5 968,-75.5 1076,-75.5 1076,-56.5 968,-56.5"/>
<text text-anchor="middle" x="1022" y="-63.5" font-family="Helvetica,sans-Serif" font-size="10.00">sml/math/rectangle.h</text>
</a>
</g>
</g>
<!-- Node19&#45;&gt;Node21 -->
<g id="edge21" class="edge">
<title>Node19&#45;&gt;Node21</title>
<path fill="none" stroke="midnightblue" d="M979.02,-168.44C997.03,-161.69 1018.23,-150.3 1029,-132 1037.27,-117.95 1034.06,-99.21 1029.64,-85.46"/>
<polygon fill="midnightblue" stroke="midnightblue" points="1032.78,-83.86 1026.04,-75.69 1026.22,-86.28 1032.78,-83.86"/>
</g>
<!-- Node22&#45;&gt;Node7 -->
<g id="edge24" class="edge">
<title>Node22&#45;&gt;Node7</title>
<path fill="none" stroke="midnightblue" d="M728.09,-168.36C707.97,-161.59 683.47,-150.2 668,-132 656.95,-118.99 652.32,-99.83 650.38,-85.68"/>
<polygon fill="midnightblue" stroke="midnightblue" points="653.85,-85.21 649.34,-75.62 646.89,-85.93 653.85,-85.21"/>
</g>
<!-- Node22&#45;&gt;Node21 -->
<g id="edge25" class="edge">
<title>Node22&#45;&gt;Node21</title>
<path fill="none" stroke="midnightblue" d="M773.39,-168.49C792.06,-154.88 830.76,-128.12 867,-112 900.7,-97.01 940.72,-85.54 971.65,-77.93"/>
<polygon fill="midnightblue" stroke="midnightblue" points="972.87,-81.24 981.77,-75.5 971.23,-74.43 972.87,-81.24"/>
</g>
<!-- Node23 -->
<g id="node23" class="node">
<title>Node23</title>
<g id="a_node23"><a xlink:href="fill_8h.html" target="_top" xlink:title=" ">
<polygon fill="white" stroke="black" points="784.5,-112.5 784.5,-131.5 819.5,-131.5 819.5,-112.5 784.5,-112.5"/>
<text text-anchor="middle" x="802" y="-119.5" font-family="Helvetica,sans-Serif" font-size="10.00">fill.h</text>
</a>
</g>
</g>
<!-- Node22&#45;&gt;Node23 -->
<g id="edge26" class="edge">
<title>Node22&#45;&gt;Node23</title>
<path fill="none" stroke="midnightblue" d="M768.61,-168.08C774.26,-160.46 782.54,-149.26 789.45,-139.94"/>
<polygon fill="midnightblue" stroke="midnightblue" points="792.38,-141.87 795.52,-131.75 786.75,-137.7 792.38,-141.87"/>
</g>
<!-- Node25 -->
<g id="node25" class="node">
<title>Node25</title>
<g id="a_node25"><a xlink:href="image_8h.html" target="_top" xlink:title=" ">
<polygon fill="white" stroke="black" points="677.5,-112.5 677.5,-131.5 766.5,-131.5 766.5,-112.5 677.5,-112.5"/>
<text text-anchor="middle" x="722" y="-119.5" font-family="Helvetica,sans-Serif" font-size="10.00">../media/image.h</text>
</a>
</g>
</g>
<!-- Node22&#45;&gt;Node25 -->
<g id="edge31" class="edge">
<title>Node22&#45;&gt;Node25</title>
<path fill="none" stroke="midnightblue" d="M755.39,-168.08C749.74,-160.46 741.46,-149.26 734.55,-139.94"/>
<polygon fill="midnightblue" stroke="midnightblue" points="737.25,-137.7 728.48,-131.75 731.62,-141.87 737.25,-137.7"/>
</g>
<!-- Node23&#45;&gt;Node7 -->
<g id="edge27" class="edge">
<title>Node23&#45;&gt;Node7</title>
<path fill="none" stroke="midnightblue" d="M784.45,-114.81C759.16,-105.88 712.08,-89.26 680.63,-78.16"/>
<polygon fill="midnightblue" stroke="midnightblue" points="681.62,-74.8 671.02,-74.77 679.29,-81.4 681.62,-74.8"/>
</g>
<!-- Node23&#45;&gt;Node16 -->
<g id="edge30" class="edge">
<title>Node23&#45;&gt;Node16</title>
<path fill="none" stroke="midnightblue" d="M796.06,-112.08C791.02,-104.53 783.66,-93.49 777.49,-84.23"/>
<polygon fill="midnightblue" stroke="midnightblue" points="780.29,-82.13 771.83,-75.75 774.47,-86.01 780.29,-82.13"/>
</g>
<!-- Node23&#45;&gt;Node21 -->
<g id="edge29" class="edge">
<title>Node23&#45;&gt;Node21</title>
<path fill="none" stroke="midnightblue" d="M819.57,-115.92C824.25,-114.61 829.31,-113.22 834,-112 881.7,-99.59 936.55,-86.61 974.65,-77.79"/>
<polygon fill="midnightblue" stroke="midnightblue" points="975.48,-81.19 984.44,-75.53 973.91,-74.37 975.48,-81.19"/>
</g>
<!-- Node24 -->
<g id="node24" class="node">
<title>Node24</title>
<g id="a_node24"><a xlink:title=" ">
<polygon fill="white" stroke="#bfbfbf" points="860.5,-56.5 860.5,-75.5 949.5,-75.5 949.5,-56.5 860.5,-56.5"/>
<text text-anchor="middle" x="905" y="-63.5" font-family="Helvetica,sans-Serif" font-size="10.00">sml/math/vec2.h</text>
</a>
</g>
</g>
<!-- Node23&#45;&gt;Node24 -->
<g id="edge28" class="edge">
<title>Node23&#45;&gt;Node24</title>
<path fill="none" stroke="midnightblue" d="M818.55,-112.32C834.99,-103.7 860.43,-90.36 879.47,-80.39"/>
<polygon fill="midnightblue" stroke="midnightblue" points="881.26,-83.4 888.49,-75.65 878.01,-77.2 881.26,-83.4"/>
</g>
<!-- Node25&#45;&gt;Node16 -->
<g id="edge32" class="edge">
<title>Node25&#45;&gt;Node16</title>
<path fill="none" stroke="midnightblue" d="M729.27,-112.08C735.54,-104.38 744.79,-93.03 752.43,-83.65"/>
<polygon fill="midnightblue" stroke="midnightblue" points="755.27,-85.71 758.87,-75.75 749.84,-81.29 755.27,-85.71"/>
</g>
<!-- Node26&#45;&gt;Node17 -->
<g id="edge35" class="edge">
<title>Node26&#45;&gt;Node17</title>
<path fill="none" stroke="midnightblue" d="M1175.56,-224.32C1196.08,-212.38 1226.76,-189.85 1213,-168 1202.99,-152.11 1185.65,-141.71 1168.56,-134.96"/>
<polygon fill="midnightblue" stroke="midnightblue" points="1169.74,-131.66 1159.15,-131.57 1167.37,-138.25 1169.74,-131.66"/>
</g>
<!-- Node27 -->
<g id="node27" class="node">
<title>Node27</title>
<g id="a_node27"><a xlink:title=" ">
<polygon fill="white" stroke="#bfbfbf" points="1046,-168.5 1046,-187.5 1204,-187.5 1204,-168.5 1046,-168.5"/>
<text text-anchor="middle" x="1125" y="-175.5" font-family="Helvetica,sans-Serif" font-size="10.00">sml/graphics_wrapper/renderer.h</text>
</a>
</g>
</g>
<!-- Node26&#45;&gt;Node27 -->
<g id="edge34" class="edge">
<title>Node26&#45;&gt;Node27</title>
<path fill="none" stroke="midnightblue" d="M1153.39,-224.08C1148.63,-216.53 1141.68,-205.49 1135.85,-196.23"/>
<polygon fill="midnightblue" stroke="midnightblue" points="1138.8,-194.35 1130.51,-187.75 1132.88,-198.08 1138.8,-194.35"/>
</g>
<!-- Node29 -->
<g id="node29" class="node">
<title>Node29</title>
<g id="a_node29"><a xlink:title=" ">
<polygon fill="white" stroke="#bfbfbf" points="1030.5,-280.5 1030.5,-299.5 1113.5,-299.5 1113.5,-280.5 1030.5,-280.5"/>
<text text-anchor="middle" x="1072" y="-287.5" font-family="Helvetica,sans-Serif" font-size="10.00">unordered_map</text>
</a>
</g>
</g>
<!-- Node28&#45;&gt;Node29 -->
<g id="edge37" class="edge">
<title>Node28&#45;&gt;Node29</title>
<path fill="none" stroke="midnightblue" d="M990.58,-336.32C1006,-327.74 1029.81,-314.49 1047.71,-304.52"/>
<polygon fill="midnightblue" stroke="midnightblue" points="1049.42,-307.58 1056.45,-299.65 1046.01,-301.46 1049.42,-307.58"/>
</g>
<!-- Node30 -->
<g id="node30" class="node">
<title>Node30</title>
<g id="a_node30"><a xlink:href="container_8h.html" target="_top" xlink:title=" ">
<polygon fill="white" stroke="black" points="856,-280.5 856,-299.5 920,-299.5 920,-280.5 856,-280.5"/>
<text text-anchor="middle" x="888" y="-287.5" font-family="Helvetica,sans-Serif" font-size="10.00">container.h</text>
</a>
</g>
</g>
<!-- Node28&#45;&gt;Node30 -->
<g id="edge38" class="edge">
<title>Node28&#45;&gt;Node30</title>
<path fill="none" stroke="midnightblue" d="M961.02,-336.32C947.45,-327.9 926.62,-314.97 910.68,-305.07"/>
<polygon fill="midnightblue" stroke="midnightblue" points="912.29,-301.95 901.94,-299.65 908.59,-307.9 912.29,-301.95"/>
</g>
<!-- Node31 -->
<g id="node31" class="node">
<title>Node31</title>
<g id="a_node31"><a xlink:title=" ">
<polygon fill="white" stroke="#bfbfbf" points="938,-280.5 938,-299.5 1012,-299.5 1012,-280.5 938,-280.5"/>
<text text-anchor="middle" x="975" y="-287.5" font-family="Helvetica,sans-Serif" font-size="10.00">sys/syscall.h</text>
</a>
</g>
</g>
<!-- Node28&#45;&gt;Node31 -->
<g id="edge40" class="edge">
<title>Node28&#45;&gt;Node31</title>
<path fill="none" stroke="midnightblue" d="M975,-336.08C975,-329.01 975,-318.86 975,-309.99"/>
<polygon fill="midnightblue" stroke="midnightblue" points="978.5,-309.75 975,-299.75 971.5,-309.75 978.5,-309.75"/>
</g>
<!-- Node30&#45;&gt;Node3 -->
<g id="edge39" class="edge">
<title>Node30&#45;&gt;Node3</title>
<path fill="none" stroke="midnightblue" d="M897.64,-280.32C906.51,-272.34 919.87,-260.31 930.61,-250.65"/>
<polygon fill="midnightblue" stroke="midnightblue" points="933.09,-253.13 938.18,-243.83 928.41,-247.92 933.09,-253.13"/>
</g>
<!-- Node33 -->
<g id="node33" class="node">
<title>Node33</title>
<g id="a_node33"><a xlink:title=" ">
<polygon fill="white" stroke="#bfbfbf" points="759,-224.5 759,-243.5 899,-243.5 899,-224.5 759,-224.5"/>
<text text-anchor="middle" x="829" y="-231.5" font-family="Helvetica,sans-Serif" font-size="10.00">sml/graphics_wrapper/text.h</text>
</a>
</g>
</g>
<!-- Node32&#45;&gt;Node33 -->
<g id="edge42" class="edge">
<title>Node32&#45;&gt;Node33</title>
<path fill="none" stroke="midnightblue" d="M800.61,-280.08C805.37,-272.53 812.32,-261.49 818.15,-252.23"/>
<polygon fill="midnightblue" stroke="midnightblue" points="821.12,-254.08 823.49,-243.75 815.2,-250.35 821.12,-254.08"/>
</g>
<!-- Node34 -->
<g id="node34" class="node">
<title>Node34</title>
<g id="a_node34"><a xlink:href="shape_8h.html" target="_top" xlink:title=" ">
<polygon fill="white" stroke="black" points="689.5,-224.5 689.5,-243.5 740.5,-243.5 740.5,-224.5 689.5,-224.5"/>
<text text-anchor="middle" x="715" y="-231.5" font-family="Helvetica,sans-Serif" font-size="10.00">shape.h</text>
</a>
</g>
</g>
<!-- Node32&#45;&gt;Node34 -->
<g id="edge43" class="edge">
<title>Node32&#45;&gt;Node34</title>
<path fill="none" stroke="midnightblue" d="M782.15,-280.32C769.78,-271.98 750.87,-259.21 736.26,-249.35"/>
<polygon fill="midnightblue" stroke="midnightblue" points="738.07,-246.35 727.82,-243.65 734.15,-252.15 738.07,-246.35"/>
</g>
<!-- Node34&#45;&gt;Node4 -->
<g id="edge44" class="edge">
<title>Node34&#45;&gt;Node4</title>
<path fill="none" stroke="midnightblue" d="M692.98,-224.44C669.9,-215.48 633.44,-201.31 607.36,-191.18"/>
<polygon fill="midnightblue" stroke="midnightblue" points="608.51,-187.88 597.92,-187.52 605.98,-194.4 608.51,-187.88"/>
</g>
<!-- Node34&#45;&gt;Node19 -->
<g id="edge46" class="edge">
<title>Node34&#45;&gt;Node19</title>
<path fill="none" stroke="midnightblue" d="M740.59,-226.33C743.76,-225.53 746.95,-224.74 750,-224 800.69,-211.72 858.93,-198.61 899.06,-189.72"/>
<polygon fill="midnightblue" stroke="midnightblue" points="899.84,-193.13 908.85,-187.56 898.33,-186.3 899.84,-193.13"/>
</g>
<!-- Node34&#45;&gt;Node22 -->
<g id="edge45" class="edge">
<title>Node34&#45;&gt;Node22</title>
<path fill="none" stroke="midnightblue" d="M722.76,-224.08C729.54,-216.3 739.54,-204.8 747.76,-195.37"/>
<polygon fill="midnightblue" stroke="midnightblue" points="750.46,-197.59 754.38,-187.75 745.18,-193 750.46,-197.59"/>
</g>
</g>
</svg>
        <g id="navigator" transform="translate(0 0)" fill="#404254">
                <rect fill="#f2f5e9" fill-opacity="0.5" stroke="#606060" stroke-width=".5" x="0" y="0" width="60" height="60"/>
                <use id="zoomplus" xlink:href="#zoomPlus" x="17" y="9" onmousedown="handleZoom(evt,'in')"/>
                <use id="zoomminus" xlink:href="#zoomMin" x="42" y="9" onmousedown="handleZoom(evt,'out')"/>
                <use id="reset" xlink:href="#resetDef" x="30" y="36" onmousedown="handleReset()"/>
                <g id="arrowUp" xlink:href="#dirArrow" transform="translate(30 24)" onmousedown="handlePan(0,-1)">
                  <use xlink:href="#rim" fill="#404040">
                        <set attributeName="fill" to="#808080" begin="arrowUp.mouseover" end="arrowUp.mouseout"/>
                  </use>
                  <path fill="none" stroke="white" stroke-width="1.5" d="M0,-3.0v7 M-2.5,-0.5L0,-3.0L2.5,-0.5"/>
                </g>
                <g id="arrowRight" xlink:href="#dirArrow" transform="rotate(90) translate(36 -43)" onmousedown="handlePan(1,0)">
                  <use xlink:href="#rim" fill="#404040">
                        <set attributeName="fill" to="#808080" begin="arrowRight.mouseover" end="arrowRight.mouseout"/>
                  </use>
                  <path fill="none" stroke="white" stroke-width="1.5" d="M0,-3.0v7 M-2.5,-0.5L0,-3.0L2.5,-0.5"/>
                </g>
                <g id="arrowDown" xlink:href="#dirArrow" transform="rotate(180) translate(-30 -48)" onmousedown="handlePan(0,1)">
                  <use xlink:href="#rim" fill="#404040">
                        <set attributeName="fill" to="#808080" begin="arrowDown.mouseover" end="arrowDown.mouseout"/>
                  </use>
                  <path fill="none" stroke="white" stroke-width="1.5" d="M0,-3.0v7 M-2.5,-0.5L0,-3.0L2.5,-0.5"/>
                </g>
                <g id="arrowLeft" xlink:href="#dirArrow" transform="rotate(270) translate(-36 17)" onmousedown="handlePan(-1,0)">
                  <use xlink:href="#rim" fill="#404040">
                        <set attributeName="fill" to="#808080" begin="arrowLeft.mouseover" end="arrowLeft.mouseout"/>
                  </use>
                  <path fill="none" stroke="white" stroke-width="1.5" d="M0,-3.0v7 M-2.5,-0.5L0,-3.0L2.5,-0.5"/>
                </g>
        </g>
        <svg viewBox="0 0 15 15" width="100%" height="30px" preserveAspectRatio="xMaxYMin meet">
         <g id="arrow_out" transform="scale(0.3 0.3)">
          <a xlink:href="slider_8h__incl_org.svg" target="_base">
           <rect id="button" ry="5" rx="5" y="6" x="6" height="38" width="38"
                fill="#f2f5e9" fill-opacity="0.5" stroke="#606060" stroke-width="1.0"/>
           <path id="arrow"
             d="M 11.500037,31.436501 C 11.940474,20.09759 22.043105,11.32322 32.158766,21.979434 L 37.068811,17.246167 C 37.068811,17.246167 37.088388,32 37.088388,32 L 22.160133,31.978069 C 22.160133,31.978069 26.997745,27.140456 26.997745,27.140456 C 18.528582,18.264221 13.291696,25.230495 11.500037,31.436501 z"
             style="fill:#404040;"/>
          </a>
         </g>
        </svg>
</svg>
