<?xml version="1.0" encoding="UTF-8" standalone="no"?>
<!DOCTYPE svg PUBLIC "-//W3C//DTD SVG 1.1//EN"
 "http://www.w3.org/Graphics/SVG/1.1/DTD/svg11.dtd">
<!-- Generated by graphviz version 2.50.0 (20211204.2007)
 -->
<!-- Title: slider.cpp Pages: 1 -->
<!--zoomable 475 -->
<svg id="main" version="1.1" xmlns="http://www.w3.org/2000/svg" xmlns:xlink="http://www.w3.org/1999/xlink" xml:space="preserve" onload="init(evt)">
<style type="text/css"><![CDATA[
.edge:hover path { stroke: red; }
.edge:hover polygon { stroke: red; fill: red; }
]]></style>
<script type="text/javascript"><![CDATA[
var edges = document.getElementsByTagName('g');
if (edges && edges.length) {
  for (var i=0;i<edges.length;i++) {
    if (edges[i].id.substr(0,4)=='edge') {
      edges[i].setAttribute('class','edge');
    }
  }
}
]]></script>
        <defs>
                <circle id="rim" cx="0" cy="0" r="7"/>
                <circle id="rim2" cx="0" cy="0" r="3.5"/>
                <g id="zoomPlus">
                        <use xlink:href="#rim" fill="#404040">
                                <set attributeName="fill" to="#808080" begin="zoomplus.mouseover" end="zoomplus.mouseout"/>
                        </use>
                        <path d="M-4,0h8M0,-4v8" fill="none" stroke="white" stroke-width="1.5" pointer-events="none"/>
                </g>
                <g id="zoomMin">
                        <use xlink:href="#rim" fill="#404040">
                                <set attributeName="fill" to="#808080" begin="zoomminus.mouseover" end="zoomminus.mouseout"/>
                        </use>
                        <path d="M-4,0h8" fill="none" stroke="white" stroke-width="1.5" pointer-events="none"/>
                </g>
                <g id="dirArrow">
                        <path fill="none" stroke="white" stroke-width="1.5" d="M0,-3.0v7 M-2.5,-0.5L0,-3.0L2.5,-0.5"/>
                </g>
               <g id="resetDef">
                       <use xlink:href="#rim2" fill="#404040">
                               <set attributeName="fill" to="#808080" begin="reset.mouseover" end="reset.mouseout"/>
                       </use>
               </g>
        </defs>

<script type="text/javascript">
var viewWidth = 1199;
var viewHeight = 475;
var sectionId = 'dynsection-0';
</script>
<script xlink:href="svgpan.js"/>
<svg id="graph" class="graph">
<g id="viewport">
<title>slider.cpp</title>
<polygon fill="white" stroke="transparent" points="-4,4 -4,-471 1195.39,-471 1195.39,4 -4,4"/>
<!-- Node1 -->
<g id="node1" class="node">
<title>Node1</title>
<g id="a_node1"><a xlink:title=" ">
<polygon fill="#bfbfbf" stroke="black" points="820.5,-447.5 820.5,-466.5 878.5,-466.5 878.5,-447.5 820.5,-447.5"/>
<text text-anchor="middle" x="849.5" y="-454.5" font-family="Helvetica,sans-Serif" font-size="10.00">slider.cpp</text>
</a>
</g>
</g>
<!-- Node2 -->
<g id="node2" class="node">
<title>Node2</title>
<g id="a_node2"><a xlink:href="slider_8h.html" target="_top" xlink:title=" ">
<polygon fill="white" stroke="black" points="937.5,-386 937.5,-405 1051.5,-405 1051.5,-386 937.5,-386"/>
<text text-anchor="middle" x="994.5" y="-393" font-family="Helvetica,sans-Serif" font-size="10.00">scene/controls/slider.h</text>
</a>
</g>
</g>
<!-- Node1&#45;&gt;Node2 -->
<g id="edge1" class="edge">
<title>Node1&#45;&gt;Node2</title>
<path fill="none" stroke="midnightblue" d="M870.27,-447.48C894.93,-437.36 936.25,-420.4 964.4,-408.85"/>
<polygon fill="midnightblue" stroke="midnightblue" points="965.84,-412.04 973.76,-405.01 963.18,-405.57 965.84,-412.04"/>
</g>
<!-- Node29 -->
<g id="node29" class="node">
<title>Node29</title>
<g id="a_node29"><a xlink:href="default__skins_8h.html" target="_top" xlink:title=" ">
<polygon fill="white" stroke="black" points="738,-380.5 738,-410.5 837,-410.5 837,-380.5 738,-380.5"/>
<text text-anchor="start" x="746" y="-398.5" font-family="Helvetica,sans-Serif" font-size="10.00">scene/style/default</text>
<text text-anchor="middle" x="787.5" y="-387.5" font-family="Helvetica,sans-Serif" font-size="10.00">_skins.h</text>
</a>
</g>
</g>
<!-- Node1&#45;&gt;Node29 -->
<g id="edge37" class="edge">
<title>Node1&#45;&gt;Node29</title>
<path fill="none" stroke="midnightblue" d="M840.62,-447.48C832.53,-439.72 820.26,-427.94 809.55,-417.66"/>
<polygon fill="midnightblue" stroke="midnightblue" points="811.75,-414.92 802.11,-410.52 806.9,-419.97 811.75,-414.92"/>
</g>
<!-- Node3 -->
<g id="node3" class="node">
<title>Node3</title>
<g id="a_node3"><a xlink:href="control_8h.html" target="_top" xlink:title=" ">
<polygon fill="white" stroke="black" points="1054.5,-324.5 1054.5,-343.5 1108.5,-343.5 1108.5,-324.5 1054.5,-324.5"/>
<text text-anchor="middle" x="1081.5" y="-331.5" font-family="Helvetica,sans-Serif" font-size="10.00">control.h</text>
</a>
</g>
</g>
<!-- Node2&#45;&gt;Node3 -->
<g id="edge2" class="edge">
<title>Node2&#45;&gt;Node3</title>
<path fill="none" stroke="midnightblue" d="M1006.96,-385.98C1020.92,-376.43 1043.76,-360.81 1060.49,-349.37"/>
<polygon fill="midnightblue" stroke="midnightblue" points="1062.78,-352.04 1069.06,-343.51 1058.83,-346.27 1062.78,-352.04"/>
</g>
<!-- Node4 -->
<g id="node4" class="node">
<title>Node4</title>
<g id="a_node4"><a xlink:href="parent_8h.html" target="_top" xlink:title=" ">
<polygon fill="white" stroke="black" points="888,-263 888,-282 949,-282 949,-263 888,-263"/>
<text text-anchor="middle" x="918.5" y="-270" font-family="Helvetica,sans-Serif" font-size="10.00">../parent.h</text>
</a>
</g>
</g>
<!-- Node3&#45;&gt;Node4 -->
<g id="edge3" class="edge">
<title>Node3&#45;&gt;Node4</title>
<path fill="none" stroke="midnightblue" d="M1058.15,-324.48C1030.19,-314.27 983.17,-297.11 951.51,-285.55"/>
<polygon fill="midnightblue" stroke="midnightblue" points="952.4,-282.15 941.81,-282.01 950,-288.73 952.4,-282.15"/>
</g>
<!-- Node27 -->
<g id="node27" class="node">
<title>Node27</title>
<g id="a_node27"><a xlink:href="skin_8h.html" target="_top" xlink:title=" ">
<polygon fill="white" stroke="black" points="1090.5,-263 1090.5,-282 1166.5,-282 1166.5,-263 1090.5,-263"/>
<text text-anchor="middle" x="1128.5" y="-270" font-family="Helvetica,sans-Serif" font-size="10.00">../style/skin.h</text>
</a>
</g>
</g>
<!-- Node3&#45;&gt;Node27 -->
<g id="edge34" class="edge">
<title>Node3&#45;&gt;Node27</title>
<path fill="none" stroke="midnightblue" d="M1088.23,-324.48C1095.28,-315.55 1106.53,-301.31 1115.35,-290.14"/>
<polygon fill="midnightblue" stroke="midnightblue" points="1118.33,-292.03 1121.78,-282.01 1112.83,-287.69 1118.33,-292.03"/>
</g>
<!-- Node5 -->
<g id="node5" class="node">
<title>Node5</title>
<g id="a_node5"><a xlink:href="component_8h.html" target="_top" xlink:title=" ">
<polygon fill="white" stroke="black" points="487,-196 487,-215 560,-215 560,-196 487,-196"/>
<text text-anchor="middle" x="523.5" y="-203" font-family="Helvetica,sans-Serif" font-size="10.00">component.h</text>
</a>
</g>
</g>
<!-- Node4&#45;&gt;Node5 -->
<g id="edge4" class="edge">
<title>Node4&#45;&gt;Node5</title>
<path fill="none" stroke="midnightblue" d="M887.83,-266.45C819,-255.13 651.84,-227.62 570.08,-214.17"/>
<polygon fill="midnightblue" stroke="midnightblue" points="570.51,-210.69 560.08,-212.52 569.38,-217.6 570.51,-210.69"/>
</g>
<!-- Node18 -->
<g id="node18" class="node">
<title>Node18</title>
<g id="a_node18"><a xlink:href="insets_8h.html" target="_top" xlink:title=" ">
<polygon fill="white" stroke="black" points="1055.5,-129 1055.5,-148 1139.5,-148 1139.5,-129 1055.5,-129"/>
<text text-anchor="middle" x="1097.5" y="-136" font-family="Helvetica,sans-Serif" font-size="10.00">../paint/insets.h</text>
</a>
</g>
</g>
<!-- Node4&#45;&gt;Node18 -->
<g id="edge18" class="edge">
<title>Node4&#45;&gt;Node18</title>
<path fill="none" stroke="midnightblue" d="M929.07,-262.95C947.81,-247.86 988.24,-215.68 1023.5,-190 1040.89,-177.34 1061.09,-163.62 1075.98,-153.68"/>
<polygon fill="midnightblue" stroke="midnightblue" points="1078.11,-156.47 1084.5,-148.02 1074.23,-150.64 1078.11,-156.47"/>
</g>
<!-- Node20 -->
<g id="node20" class="node">
<title>Node20</title>
<g id="a_node20"><a xlink:href="border_8h.html" target="_top" xlink:title=" ">
<polygon fill="white" stroke="black" points="887.5,-196 887.5,-215 971.5,-215 971.5,-196 887.5,-196"/>
<text text-anchor="middle" x="929.5" y="-203" font-family="Helvetica,sans-Serif" font-size="10.00">../paint/border.h</text>
</a>
</g>
</g>
<!-- Node4&#45;&gt;Node20 -->
<g id="edge20" class="edge">
<title>Node4&#45;&gt;Node20</title>
<path fill="none" stroke="midnightblue" d="M919.98,-262.73C921.6,-253.18 924.23,-237.62 926.32,-225.28"/>
<polygon fill="midnightblue" stroke="midnightblue" points="929.82,-225.57 928.04,-215.13 922.92,-224.4 929.82,-225.57"/>
</g>
<!-- Node23 -->
<g id="node23" class="node">
<title>Node23</title>
<g id="a_node23"><a xlink:href="background_8h.html" target="_top" xlink:title=" ">
<polygon fill="white" stroke="black" points="721.5,-196 721.5,-215 829.5,-215 829.5,-196 721.5,-196"/>
<text text-anchor="middle" x="775.5" y="-203" font-family="Helvetica,sans-Serif" font-size="10.00">../paint/background.h</text>
</a>
</g>
</g>
<!-- Node4&#45;&gt;Node23 -->
<g id="edge24" class="edge">
<title>Node4&#45;&gt;Node23</title>
<path fill="none" stroke="midnightblue" d="M899.51,-262.87C875.04,-251.75 832.3,-232.32 803.94,-219.43"/>
<polygon fill="midnightblue" stroke="midnightblue" points="805.12,-216.12 794.57,-215.17 802.22,-222.49 805.12,-216.12"/>
</g>
<!-- Node6 -->
<g id="node6" class="node">
<title>Node6</title>
<g id="a_node6"><a xlink:title=" ">
<polygon fill="white" stroke="#bfbfbf" points="453.5,-129 453.5,-148 593.5,-148 593.5,-129 453.5,-129"/>
<text text-anchor="middle" x="523.5" y="-136" font-family="Helvetica,sans-Serif" font-size="10.00">sml/sml_graphics_wrapper.h</text>
</a>
</g>
</g>
<!-- Node5&#45;&gt;Node6 -->
<g id="edge5" class="edge">
<title>Node5&#45;&gt;Node6</title>
<path fill="none" stroke="midnightblue" d="M523.5,-195.73C523.5,-186.18 523.5,-170.62 523.5,-158.28"/>
<polygon fill="midnightblue" stroke="midnightblue" points="527,-158.13 523.5,-148.13 520,-158.13 527,-158.13"/>
</g>
<!-- Node7 -->
<g id="node7" class="node">
<title>Node7</title>
<g id="a_node7"><a xlink:href="gui__event__dispatching_8h.html" target="_top" xlink:title=" ">
<polygon fill="white" stroke="black" points="227.5,-123.5 227.5,-153.5 327.5,-153.5 327.5,-123.5 227.5,-123.5"/>
<text text-anchor="start" x="235.5" y="-141.5" font-family="Helvetica,sans-Serif" font-size="10.00">../events/gui_event</text>
<text text-anchor="middle" x="277.5" y="-130.5" font-family="Helvetica,sans-Serif" font-size="10.00">_dispatching.h</text>
</a>
</g>
</g>
<!-- Node5&#45;&gt;Node7 -->
<g id="edge6" class="edge">
<title>Node5&#45;&gt;Node7</title>
<path fill="none" stroke="midnightblue" d="M491.09,-195.94C452.15,-185.65 386.04,-168.18 337.66,-155.4"/>
<polygon fill="midnightblue" stroke="midnightblue" points="338.49,-151.99 327.93,-152.82 336.7,-158.76 338.49,-151.99"/>
</g>
<!-- Node15 -->
<g id="node15" class="node">
<title>Node15</title>
<g id="a_node15"><a xlink:href="shadow_8h.html" target="_top" xlink:title=" ">
<polygon fill="white" stroke="black" points="345.5,-129 345.5,-148 435.5,-148 435.5,-129 345.5,-129"/>
<text text-anchor="middle" x="390.5" y="-136" font-family="Helvetica,sans-Serif" font-size="10.00">../paint/shadow.h</text>
</a>
</g>
</g>
<!-- Node5&#45;&gt;Node15 -->
<g id="edge15" class="edge">
<title>Node5&#45;&gt;Node15</title>
<path fill="none" stroke="midnightblue" d="M505.84,-195.87C483.18,-184.8 443.67,-165.49 417.3,-152.6"/>
<polygon fill="midnightblue" stroke="midnightblue" points="418.76,-149.41 408.23,-148.17 415.68,-155.7 418.76,-149.41"/>
</g>
<!-- Node8 -->
<g id="node8" class="node">
<title>Node8</title>
<g id="a_node8"><a xlink:title=" ">
<polygon fill="white" stroke="#bfbfbf" points="668.5,-62 668.5,-81 712.5,-81 712.5,-62 668.5,-62"/>
<text text-anchor="middle" x="690.5" y="-69" font-family="Helvetica,sans-Serif" font-size="10.00">vector</text>
</a>
</g>
</g>
<!-- Node7&#45;&gt;Node8 -->
<g id="edge7" class="edge">
<title>Node7&#45;&gt;Node8</title>
<path fill="none" stroke="midnightblue" d="M327.62,-124.71C330.61,-124.09 333.59,-123.52 336.5,-123 478.71,-97.71 520.45,-126.12 659.5,-87 661.43,-86.46 663.39,-85.81 665.34,-85.08"/>
<polygon fill="midnightblue" stroke="midnightblue" points="666.96,-88.19 674.79,-81.06 664.22,-81.75 666.96,-88.19"/>
</g>
<!-- Node9 -->
<g id="node9" class="node">
<title>Node9</title>
<g id="a_node9"><a xlink:title=" ">
<polygon fill="white" stroke="#bfbfbf" points="117,-62 117,-81 272,-81 272,-62 117,-62"/>
<text text-anchor="middle" x="194.5" y="-69" font-family="Helvetica,sans-Serif" font-size="10.00">sml/events/event_dispatching.h</text>
</a>
</g>
</g>
<!-- Node7&#45;&gt;Node9 -->
<g id="edge8" class="edge">
<title>Node7&#45;&gt;Node9</title>
<path fill="none" stroke="midnightblue" d="M259.49,-123.4C245.91,-112.76 227.32,-98.2 213.5,-87.38"/>
<polygon fill="midnightblue" stroke="midnightblue" points="215.63,-84.6 205.6,-81.19 211.32,-90.12 215.63,-84.6"/>
</g>
<!-- Node10 -->
<g id="node10" class="node">
<title>Node10</title>
<g id="a_node10"><a xlink:title=" ">
<polygon fill="white" stroke="#bfbfbf" points="0,-56.5 0,-86.5 99,-86.5 99,-56.5 0,-56.5"/>
<text text-anchor="start" x="8" y="-74.5" font-family="Helvetica,sans-Serif" font-size="10.00">sml/events/listener</text>
<text text-anchor="middle" x="49.5" y="-63.5" font-family="Helvetica,sans-Serif" font-size="10.00">_notifier.h</text>
</a>
</g>
</g>
<!-- Node7&#45;&gt;Node10 -->
<g id="edge9" class="edge">
<title>Node7&#45;&gt;Node10</title>
<path fill="none" stroke="midnightblue" d="M228.31,-123.48C193.22,-113.47 145.86,-99.97 108.7,-89.38"/>
<polygon fill="midnightblue" stroke="midnightblue" points="109.57,-85.99 99,-86.61 107.65,-92.72 109.57,-85.99"/>
</g>
<!-- Node11 -->
<g id="node11" class="node">
<title>Node11</title>
<g id="a_node11"><a xlink:title=" ">
<polygon fill="white" stroke="#bfbfbf" points="190,-0.5 190,-19.5 333,-19.5 333,-0.5 190,-0.5"/>
<text text-anchor="middle" x="261.5" y="-7.5" font-family="Helvetica,sans-Serif" font-size="10.00">sml/events/system_events.h</text>
</a>
</g>
</g>
<!-- Node7&#45;&gt;Node11 -->
<g id="edge10" class="edge">
<title>Node7&#45;&gt;Node11</title>
<path fill="none" stroke="midnightblue" d="M280.34,-123.48C283.17,-107.1 286.44,-79.28 281.5,-56 279.5,-46.59 275.4,-36.76 271.43,-28.7"/>
<polygon fill="midnightblue" stroke="midnightblue" points="274.39,-26.81 266.63,-19.59 268.19,-30.07 274.39,-26.81"/>
</g>
<!-- Node12 -->
<g id="node12" class="node">
<title>Node12</title>
<g id="a_node12"><a xlink:href="gui__event_8h.html" target="_top" xlink:title=" ">
<polygon fill="white" stroke="black" points="329,-62 329,-81 396,-81 396,-62 329,-62"/>
<text text-anchor="middle" x="362.5" y="-69" font-family="Helvetica,sans-Serif" font-size="10.00">gui_event.h</text>
</a>
</g>
</g>
<!-- Node7&#45;&gt;Node12 -->
<g id="edge11" class="edge">
<title>Node7&#45;&gt;Node12</title>
<path fill="none" stroke="midnightblue" d="M295.94,-123.4C309.85,-112.76 328.89,-98.2 343.04,-87.38"/>
<polygon fill="midnightblue" stroke="midnightblue" points="345.31,-90.05 351.13,-81.19 341.06,-84.49 345.31,-90.05"/>
</g>
<!-- Node12&#45;&gt;Node11 -->
<g id="edge13" class="edge">
<title>Node12&#45;&gt;Node11</title>
<path fill="none" stroke="midnightblue" d="M348.03,-61.98C331.53,-52.25 304.32,-36.23 284.82,-24.74"/>
<polygon fill="midnightblue" stroke="midnightblue" points="286.34,-21.57 275.94,-19.51 282.78,-27.6 286.34,-21.57"/>
</g>
<!-- Node13 -->
<g id="node13" class="node">
<title>Node13</title>
<g id="a_node13"><a xlink:title=" ">
<polygon fill="white" stroke="#bfbfbf" points="351.5,-0.5 351.5,-19.5 451.5,-19.5 451.5,-0.5 351.5,-0.5"/>
<text text-anchor="middle" x="401.5" y="-7.5" font-family="Helvetica,sans-Serif" font-size="10.00">sml/events/event.h</text>
</a>
</g>
</g>
<!-- Node12&#45;&gt;Node13 -->
<g id="edge12" class="edge">
<title>Node12&#45;&gt;Node13</title>
<path fill="none" stroke="midnightblue" d="M368.09,-61.98C373.88,-53.14 383.09,-39.09 390.37,-27.98"/>
<polygon fill="midnightblue" stroke="midnightblue" points="393.37,-29.79 395.92,-19.51 387.51,-25.95 393.37,-29.79"/>
</g>
<!-- Node14 -->
<g id="node14" class="node">
<title>Node14</title>
<g id="a_node14"><a xlink:title=" ">
<polygon fill="white" stroke="#bfbfbf" points="470,-0.5 470,-19.5 547,-19.5 547,-0.5 470,-0.5"/>
<text text-anchor="middle" x="508.5" y="-7.5" font-family="Helvetica,sans-Serif" font-size="10.00">sml/sml_log.h</text>
</a>
</g>
</g>
<!-- Node12&#45;&gt;Node14 -->
<g id="edge14" class="edge">
<title>Node12&#45;&gt;Node14</title>
<path fill="none" stroke="midnightblue" d="M383.42,-61.98C408.25,-51.86 449.84,-34.9 478.19,-23.35"/>
<polygon fill="midnightblue" stroke="midnightblue" points="479.68,-26.52 487.62,-19.51 477.04,-20.04 479.68,-26.52"/>
</g>
<!-- Node16 -->
<g id="node16" class="node">
<title>Node16</title>
<g id="a_node16"><a xlink:title=" ">
<polygon fill="white" stroke="#bfbfbf" points="414,-62 414,-81 497,-81 497,-62 414,-62"/>
<text text-anchor="middle" x="455.5" y="-69" font-family="Helvetica,sans-Serif" font-size="10.00">sml/math/blur.h</text>
</a>
</g>
</g>
<!-- Node15&#45;&gt;Node16 -->
<g id="edge16" class="edge">
<title>Node15&#45;&gt;Node16</title>
<path fill="none" stroke="midnightblue" d="M399.27,-128.73C409.6,-118.4 426.96,-101.04 439.67,-88.33"/>
<polygon fill="midnightblue" stroke="midnightblue" points="442.28,-90.67 446.87,-81.13 437.33,-85.72 442.28,-90.67"/>
</g>
<!-- Node17 -->
<g id="node17" class="node">
<title>Node17</title>
<g id="a_node17"><a xlink:title=" ">
<polygon fill="white" stroke="#bfbfbf" points="538.5,-56.5 538.5,-86.5 650.5,-86.5 650.5,-56.5 538.5,-56.5"/>
<text text-anchor="start" x="546.5" y="-74.5" font-family="Helvetica,sans-Serif" font-size="10.00">sml/graphics_wrapper</text>
<text text-anchor="middle" x="594.5" y="-63.5" font-family="Helvetica,sans-Serif" font-size="10.00">/texture.h</text>
</a>
</g>
</g>
<!-- Node15&#45;&gt;Node17 -->
<g id="edge17" class="edge">
<title>Node15&#45;&gt;Node17</title>
<path fill="none" stroke="midnightblue" d="M417.59,-128.87C448.93,-118.88 501.3,-102.2 540.94,-89.56"/>
<polygon fill="midnightblue" stroke="midnightblue" points="542.01,-92.9 550.47,-86.53 539.88,-86.23 542.01,-92.9"/>
</g>
<!-- Node19 -->
<g id="node19" class="node">
<title>Node19</title>
<g id="a_node19"><a xlink:title=" ">
<polygon fill="white" stroke="#bfbfbf" points="1073,-62 1073,-81 1122,-81 1122,-62 1073,-62"/>
<text text-anchor="middle" x="1097.5" y="-69" font-family="Helvetica,sans-Serif" font-size="10.00">stdint.h</text>
</a>
</g>
</g>
<!-- Node18&#45;&gt;Node19 -->
<g id="edge19" class="edge">
<title>Node18&#45;&gt;Node19</title>
<path fill="none" stroke="midnightblue" d="M1097.5,-128.73C1097.5,-119.18 1097.5,-103.62 1097.5,-91.28"/>
<polygon fill="midnightblue" stroke="midnightblue" points="1101,-91.13 1097.5,-81.13 1094,-91.13 1101,-91.13"/>
</g>
<!-- Node20&#45;&gt;Node18 -->
<g id="edge23" class="edge">
<title>Node20&#45;&gt;Node18</title>
<path fill="none" stroke="midnightblue" d="M951.81,-195.87C981.01,-184.57 1032.38,-164.7 1065.66,-151.82"/>
<polygon fill="midnightblue" stroke="midnightblue" points="1067.3,-154.94 1075.37,-148.06 1064.78,-148.41 1067.3,-154.94"/>
</g>
<!-- Node21 -->
<g id="node21" class="node">
<title>Node21</title>
<g id="a_node21"><a xlink:title=" ">
<polygon fill="white" stroke="#bfbfbf" points="887.5,-123.5 887.5,-153.5 999.5,-153.5 999.5,-123.5 887.5,-123.5"/>
<text text-anchor="start" x="895.5" y="-141.5" font-family="Helvetica,sans-Serif" font-size="10.00">sml/graphics_wrapper</text>
<text text-anchor="middle" x="943.5" y="-130.5" font-family="Helvetica,sans-Serif" font-size="10.00">/color.h</text>
</a>
</g>
</g>
<!-- Node20&#45;&gt;Node21 -->
<g id="edge21" class="edge">
<title>Node20&#45;&gt;Node21</title>
<path fill="none" stroke="midnightblue" d="M931.39,-195.73C933.17,-187.46 935.93,-174.66 938.36,-163.37"/>
<polygon fill="midnightblue" stroke="midnightblue" points="941.78,-164.1 940.47,-153.59 934.94,-162.63 941.78,-164.1"/>
</g>
<!-- Node22 -->
<g id="node22" class="node">
<title>Node22</title>
<g id="a_node22"><a xlink:title=" ">
<polygon fill="white" stroke="#bfbfbf" points="838.5,-62 838.5,-81 946.5,-81 946.5,-62 838.5,-62"/>
<text text-anchor="middle" x="892.5" y="-69" font-family="Helvetica,sans-Serif" font-size="10.00">sml/math/rectangle.h</text>
</a>
</g>
</g>
<!-- Node20&#45;&gt;Node22 -->
<g id="edge22" class="edge">
<title>Node20&#45;&gt;Node22</title>
<path fill="none" stroke="midnightblue" d="M954.78,-195.93C973.32,-188.15 997.16,-174.7 1008.5,-154 1015.12,-141.92 1016.05,-134.52 1008.5,-123 995.71,-103.48 973.56,-91.47 952.02,-84.09"/>
<polygon fill="midnightblue" stroke="midnightblue" points="952.79,-80.66 942.2,-81.02 950.7,-87.34 952.79,-80.66"/>
</g>
<!-- Node23&#45;&gt;Node8 -->
<g id="edge25" class="edge">
<title>Node23&#45;&gt;Node8</title>
<path fill="none" stroke="midnightblue" d="M769.92,-195.84C756.05,-174.3 719.8,-118 701.46,-89.52"/>
<polygon fill="midnightblue" stroke="midnightblue" points="704.34,-87.53 695.99,-81.02 698.46,-91.32 704.34,-87.53"/>
</g>
<!-- Node23&#45;&gt;Node22 -->
<g id="edge26" class="edge">
<title>Node23&#45;&gt;Node22</title>
<path fill="none" stroke="midnightblue" d="M782.75,-195.84C795.33,-180.84 822.13,-149.14 845.5,-123 855.85,-111.42 867.78,-98.61 877.03,-88.79"/>
<polygon fill="midnightblue" stroke="midnightblue" points="879.75,-91.01 884.07,-81.34 874.66,-86.2 879.75,-91.01"/>
</g>
<!-- Node24 -->
<g id="node24" class="node">
<title>Node24</title>
<g id="a_node24"><a xlink:href="fill_8h.html" target="_top" xlink:title=" ">
<polygon fill="white" stroke="black" points="758,-129 758,-148 793,-148 793,-129 758,-129"/>
<text text-anchor="middle" x="775.5" y="-136" font-family="Helvetica,sans-Serif" font-size="10.00">fill.h</text>
</a>
</g>
</g>
<!-- Node23&#45;&gt;Node24 -->
<g id="edge27" class="edge">
<title>Node23&#45;&gt;Node24</title>
<path fill="none" stroke="midnightblue" d="M775.5,-195.73C775.5,-186.18 775.5,-170.62 775.5,-158.28"/>
<polygon fill="midnightblue" stroke="midnightblue" points="779,-158.13 775.5,-148.13 772,-158.13 779,-158.13"/>
</g>
<!-- Node26 -->
<g id="node26" class="node">
<title>Node26</title>
<g id="a_node26"><a xlink:href="image_8h.html" target="_top" xlink:title=" ">
<polygon fill="white" stroke="black" points="612,-129 612,-148 701,-148 701,-129 612,-129"/>
<text text-anchor="middle" x="656.5" y="-136" font-family="Helvetica,sans-Serif" font-size="10.00">../media/image.h</text>
</a>
</g>
</g>
<!-- Node23&#45;&gt;Node26 -->
<g id="edge32" class="edge">
<title>Node23&#45;&gt;Node26</title>
<path fill="none" stroke="midnightblue" d="M759.45,-195.73C739.38,-184.77 704.8,-165.88 681.31,-153.05"/>
<polygon fill="midnightblue" stroke="midnightblue" points="682.75,-149.85 672.29,-148.13 679.39,-155.99 682.75,-149.85"/>
</g>
<!-- Node24&#45;&gt;Node8 -->
<g id="edge28" class="edge">
<title>Node24&#45;&gt;Node8</title>
<path fill="none" stroke="midnightblue" d="M764.04,-128.73C750.14,-118.11 726.52,-100.05 709.81,-87.26"/>
<polygon fill="midnightblue" stroke="midnightblue" points="711.85,-84.42 701.78,-81.13 707.6,-89.98 711.85,-84.42"/>
</g>
<!-- Node24&#45;&gt;Node17 -->
<g id="edge31" class="edge">
<title>Node24&#45;&gt;Node17</title>
<path fill="none" stroke="midnightblue" d="M757.82,-131.15C731.6,-121.74 681.47,-103.73 643.63,-90.14"/>
<polygon fill="midnightblue" stroke="midnightblue" points="644.4,-86.7 633.8,-86.61 642.03,-93.29 644.4,-86.7"/>
</g>
<!-- Node24&#45;&gt;Node22 -->
<g id="edge30" class="edge">
<title>Node24&#45;&gt;Node22</title>
<path fill="none" stroke="midnightblue" d="M791.28,-128.73C811.01,-117.77 845.01,-98.88 868.11,-86.05"/>
<polygon fill="midnightblue" stroke="midnightblue" points="869.93,-89.04 876.97,-81.13 866.53,-82.92 869.93,-89.04"/>
</g>
<!-- Node25 -->
<g id="node25" class="node">
<title>Node25</title>
<g id="a_node25"><a xlink:title=" ">
<polygon fill="white" stroke="#bfbfbf" points="731,-62 731,-81 820,-81 820,-62 731,-62"/>
<text text-anchor="middle" x="775.5" y="-69" font-family="Helvetica,sans-Serif" font-size="10.00">sml/math/vec2.h</text>
</a>
</g>
</g>
<!-- Node24&#45;&gt;Node25 -->
<g id="edge29" class="edge">
<title>Node24&#45;&gt;Node25</title>
<path fill="none" stroke="midnightblue" d="M775.5,-128.73C775.5,-119.18 775.5,-103.62 775.5,-91.28"/>
<polygon fill="midnightblue" stroke="midnightblue" points="779,-91.13 775.5,-81.13 772,-91.13 779,-91.13"/>
</g>
<!-- Node26&#45;&gt;Node17 -->
<g id="edge33" class="edge">
<title>Node26&#45;&gt;Node17</title>
<path fill="none" stroke="midnightblue" d="M648.14,-128.73C639.68,-119.86 626.27,-105.81 614.98,-93.97"/>
<polygon fill="midnightblue" stroke="midnightblue" points="617.37,-91.41 607.94,-86.59 612.31,-96.24 617.37,-91.41"/>
</g>
<!-- Node27&#45;&gt;Node18 -->
<g id="edge36" class="edge">
<title>Node27&#45;&gt;Node18</title>
<path fill="none" stroke="midnightblue" d="M1144.46,-262.92C1158.47,-254.37 1177.93,-239.83 1186.5,-221 1192.21,-208.46 1193.43,-201.91 1186.5,-190 1175.92,-171.83 1156.09,-159.66 1137.84,-151.84"/>
<polygon fill="midnightblue" stroke="midnightblue" points="1139.08,-148.56 1128.49,-148.13 1136.5,-155.07 1139.08,-148.56"/>
</g>
<!-- Node28 -->
<g id="node28" class="node">
<title>Node28</title>
<g id="a_node28"><a xlink:title=" ">
<polygon fill="white" stroke="#bfbfbf" points="1065.5,-190.5 1065.5,-220.5 1177.5,-220.5 1177.5,-190.5 1065.5,-190.5"/>
<text text-anchor="start" x="1073.5" y="-208.5" font-family="Helvetica,sans-Serif" font-size="10.00">sml/graphics_wrapper</text>
<text text-anchor="middle" x="1121.5" y="-197.5" font-family="Helvetica,sans-Serif" font-size="10.00">/renderer.h</text>
</a>
</g>
</g>
<!-- Node27&#45;&gt;Node28 -->
<g id="edge35" class="edge">
<title>Node27&#45;&gt;Node28</title>
<path fill="none" stroke="midnightblue" d="M1127.56,-262.73C1126.67,-254.54 1125.31,-241.92 1124.11,-230.71"/>
<polygon fill="midnightblue" stroke="midnightblue" points="1127.57,-230.16 1123.02,-220.59 1120.61,-230.91 1127.57,-230.16"/>
</g>
<!-- Node29&#45;&gt;Node10 -->
<g id="edge38" class="edge">
<title>Node29&#45;&gt;Node10</title>
<path fill="none" stroke="midnightblue" d="M737.77,-390.52C585.59,-377.68 136.5,-334.61 136.5,-273.5 136.5,-273.5 136.5,-273.5 136.5,-204.5 136.5,-159.23 100.39,-117.5 74.69,-93.54"/>
<polygon fill="midnightblue" stroke="midnightblue" points="76.87,-90.79 67.11,-86.69 72.18,-95.99 76.87,-90.79"/>
</g>
<!-- Node29&#45;&gt;Node15 -->
<g id="edge54" class="edge">
<title>Node29&#45;&gt;Node15</title>
<path fill="none" stroke="midnightblue" d="M737.96,-392.19C668.2,-386.17 541.81,-364.64 472.5,-288 435.73,-247.34 409.08,-187.3 397.27,-157.56"/>
<polygon fill="midnightblue" stroke="midnightblue" points="400.47,-156.13 393.6,-148.06 393.94,-158.65 400.47,-156.13"/>
</g>
<!-- Node29&#45;&gt;Node18 -->
<g id="edge53" class="edge">
<title>Node29&#45;&gt;Node18</title>
<path fill="none" stroke="midnightblue" d="M837.28,-383.87C866.04,-376.07 901.88,-363.4 929.5,-344 931.98,-342.26 1044.37,-204.63 1083.91,-156.16"/>
<polygon fill="midnightblue" stroke="midnightblue" points="1086.8,-158.16 1090.4,-148.2 1081.37,-153.74 1086.8,-158.16"/>
</g>
<!-- Node29&#45;&gt;Node20 -->
<g id="edge52" class="edge">
<title>Node29&#45;&gt;Node20</title>
<path fill="none" stroke="midnightblue" d="M832.87,-380.43C873.94,-365 931.93,-335.85 958.5,-288 970.17,-266.98 955.9,-240.38 943.58,-223.39"/>
<polygon fill="midnightblue" stroke="midnightblue" points="946.34,-221.24 937.45,-215.47 940.8,-225.52 946.34,-221.24"/>
</g>
<!-- Node29&#45;&gt;Node23 -->
<g id="edge51" class="edge">
<title>Node29&#45;&gt;Node23</title>
<path fill="none" stroke="midnightblue" d="M795.5,-380.44C800.63,-370.59 806.81,-356.92 809.5,-344 818.53,-300.65 798.03,-250.24 785.08,-224.16"/>
<polygon fill="midnightblue" stroke="midnightblue" points="788.11,-222.41 780.41,-215.14 781.89,-225.63 788.11,-222.41"/>
</g>
<!-- Node29&#45;&gt;Node27 -->
<g id="edge55" class="edge">
<title>Node29&#45;&gt;Node27</title>
<path fill="none" stroke="midnightblue" d="M837.22,-388.45C926.95,-377.32 1107.65,-353.82 1117.5,-344 1130.77,-330.77 1132.2,-308.56 1131.15,-292.6"/>
<polygon fill="midnightblue" stroke="midnightblue" points="1134.59,-291.88 1130.07,-282.3 1127.63,-292.61 1134.59,-291.88"/>
</g>
<!-- Node30 -->
<g id="node30" class="node">
<title>Node30</title>
<g id="a_node30"><a xlink:href="image__view_8h.html" target="_top" xlink:title=" ">
<polygon fill="white" stroke="black" points="481.5,-263 481.5,-282 565.5,-282 565.5,-263 481.5,-263"/>
<text text-anchor="middle" x="523.5" y="-270" font-family="Helvetica,sans-Serif" font-size="10.00">../image_view.h</text>
</a>
</g>
</g>
<!-- Node29&#45;&gt;Node30 -->
<g id="edge39" class="edge">
<title>Node29&#45;&gt;Node30</title>
<path fill="none" stroke="midnightblue" d="M737.58,-391.32C693.32,-386.51 628.45,-374.41 580.5,-344 559.8,-330.88 543.2,-307.64 533.36,-291.45"/>
<polygon fill="midnightblue" stroke="midnightblue" points="536.18,-289.32 528.14,-282.43 530.12,-292.83 536.18,-289.32"/>
</g>
<!-- Node31 -->
<g id="node31" class="node">
<title>Node31</title>
<g id="a_node31"><a xlink:href="text_8h.html" target="_top" xlink:title=" ">
<polygon fill="white" stroke="black" points="589,-324.5 589,-343.5 674,-343.5 674,-324.5 589,-324.5"/>
<text text-anchor="middle" x="631.5" y="-331.5" font-family="Helvetica,sans-Serif" font-size="10.00">../shapes/text.h</text>
</a>
</g>
</g>
<!-- Node29&#45;&gt;Node31 -->
<g id="edge42" class="edge">
<title>Node29&#45;&gt;Node31</title>
<path fill="none" stroke="midnightblue" d="M750.53,-380.4C724.12,-370.33 688.94,-356.91 663.69,-347.28"/>
<polygon fill="midnightblue" stroke="midnightblue" points="664.79,-343.95 654.2,-343.66 662.3,-350.49 664.79,-343.95"/>
</g>
<!-- Node34 -->
<g id="node34" class="node">
<title>Node34</title>
<g id="a_node34"><a xlink:href="rectangle_8h.html" target="_top" xlink:title=" ">
<polygon fill="white" stroke="black" points="692.5,-324.5 692.5,-343.5 800.5,-343.5 800.5,-324.5 692.5,-324.5"/>
<text text-anchor="middle" x="746.5" y="-331.5" font-family="Helvetica,sans-Serif" font-size="10.00">../shapes/rectangle.h</text>
</a>
</g>
</g>
<!-- Node29&#45;&gt;Node34 -->
<g id="edge48" class="edge">
<title>Node29&#45;&gt;Node34</title>
<path fill="none" stroke="midnightblue" d="M777.78,-380.4C771.95,-371.93 764.48,-361.1 758.31,-352.14"/>
<polygon fill="midnightblue" stroke="midnightblue" points="761.02,-349.91 752.47,-343.66 755.26,-353.88 761.02,-349.91"/>
</g>
<!-- Node30&#45;&gt;Node5 -->
<g id="edge40" class="edge">
<title>Node30&#45;&gt;Node5</title>
<path fill="none" stroke="midnightblue" d="M523.5,-262.73C523.5,-253.18 523.5,-237.62 523.5,-225.28"/>
<polygon fill="midnightblue" stroke="midnightblue" points="527,-225.13 523.5,-215.13 520,-225.13 527,-225.13"/>
</g>
<!-- Node30&#45;&gt;Node26 -->
<g id="edge41" class="edge">
<title>Node30&#45;&gt;Node26</title>
<path fill="none" stroke="midnightblue" d="M532.23,-262.84C554.21,-241.02 612.14,-183.53 640.46,-155.42"/>
<polygon fill="midnightblue" stroke="midnightblue" points="643.28,-157.55 647.91,-148.02 638.35,-152.58 643.28,-157.55"/>
</g>
<!-- Node32 -->
<g id="node32" class="node">
<title>Node32</title>
<g id="a_node32"><a xlink:title=" ">
<polygon fill="white" stroke="#bfbfbf" points="583.5,-257.5 583.5,-287.5 695.5,-287.5 695.5,-257.5 583.5,-257.5"/>
<text text-anchor="start" x="591.5" y="-275.5" font-family="Helvetica,sans-Serif" font-size="10.00">sml/graphics_wrapper</text>
<text text-anchor="middle" x="639.5" y="-264.5" font-family="Helvetica,sans-Serif" font-size="10.00">/text.h</text>
</a>
</g>
</g>
<!-- Node31&#45;&gt;Node32 -->
<g id="edge43" class="edge">
<title>Node31&#45;&gt;Node32</title>
<path fill="none" stroke="midnightblue" d="M632.65,-324.48C633.59,-317.47 634.97,-307.19 636.25,-297.7"/>
<polygon fill="midnightblue" stroke="midnightblue" points="639.75,-297.9 637.61,-287.52 632.81,-296.97 639.75,-297.9"/>
</g>
<!-- Node33 -->
<g id="node33" class="node">
<title>Node33</title>
<g id="a_node33"><a xlink:href="shape_8h.html" target="_top" xlink:title=" ">
<polygon fill="white" stroke="black" points="721,-263 721,-282 772,-282 772,-263 721,-263"/>
<text text-anchor="middle" x="746.5" y="-270" font-family="Helvetica,sans-Serif" font-size="10.00">shape.h</text>
</a>
</g>
</g>
<!-- Node31&#45;&gt;Node33 -->
<g id="edge44" class="edge">
<title>Node31&#45;&gt;Node33</title>
<path fill="none" stroke="midnightblue" d="M647.98,-324.48C667.11,-314.58 698.87,-298.14 721.15,-286.62"/>
<polygon fill="midnightblue" stroke="midnightblue" points="722.78,-289.71 730.05,-282.01 719.56,-283.5 722.78,-289.71"/>
</g>
<!-- Node33&#45;&gt;Node5 -->
<g id="edge45" class="edge">
<title>Node33&#45;&gt;Node5</title>
<path fill="none" stroke="midnightblue" d="M722.6,-262.97C716.7,-260.94 710.39,-258.84 704.5,-257 657.53,-242.35 603.08,-227.44 566.27,-217.65"/>
<polygon fill="midnightblue" stroke="midnightblue" points="566.94,-214.21 556.37,-215.03 565.14,-220.98 566.94,-214.21"/>
</g>
<!-- Node33&#45;&gt;Node20 -->
<g id="edge47" class="edge">
<title>Node33&#45;&gt;Node20</title>
<path fill="none" stroke="midnightblue" d="M770.8,-262.87C802.88,-251.47 859.53,-231.35 895.75,-218.49"/>
<polygon fill="midnightblue" stroke="midnightblue" points="897.14,-221.71 905.39,-215.06 894.8,-215.11 897.14,-221.71"/>
</g>
<!-- Node33&#45;&gt;Node23 -->
<g id="edge46" class="edge">
<title>Node33&#45;&gt;Node23</title>
<path fill="none" stroke="midnightblue" d="M750.41,-262.73C754.76,-252.99 761.9,-236.98 767.46,-224.53"/>
<polygon fill="midnightblue" stroke="midnightblue" points="770.77,-225.69 771.65,-215.13 764.38,-222.83 770.77,-225.69"/>
</g>
<!-- Node34&#45;&gt;Node22 -->
<g id="edge49" class="edge">
<title>Node34&#45;&gt;Node22</title>
<path fill="none" stroke="midnightblue" d="M755.27,-324.49C773.12,-306.74 814.07,-263.84 838.5,-221 851.62,-197.99 875.67,-125.2 886.7,-90.82"/>
<polygon fill="midnightblue" stroke="midnightblue" points="890.09,-91.71 889.79,-81.12 883.42,-89.59 890.09,-91.71"/>
</g>
<!-- Node34&#45;&gt;Node33 -->
<g id="edge50" class="edge">
<title>Node34&#45;&gt;Node33</title>
<path fill="none" stroke="midnightblue" d="M746.5,-324.48C746.5,-316.08 746.5,-302.98 746.5,-292.16"/>
<polygon fill="midnightblue" stroke="midnightblue" points="750,-292.01 746.5,-282.01 743,-292.01 750,-292.01"/>
</g>
</g>
</svg>
        <g id="navigator" transform="translate(0 0)" fill="#404254">
                <rect fill="#f2f5e9" fill-opacity="0.5" stroke="#606060" stroke-width=".5" x="0" y="0" width="60" height="60"/>
                <use id="zoomplus" xlink:href="#zoomPlus" x="17" y="9" onmousedown="handleZoom(evt,'in')"/>
                <use id="zoomminus" xlink:href="#zoomMin" x="42" y="9" onmousedown="handleZoom(evt,'out')"/>
                <use id="reset" xlink:href="#resetDef" x="30" y="36" onmousedown="handleReset()"/>
                <g id="arrowUp" xlink:href="#dirArrow" transform="translate(30 24)" onmousedown="handlePan(0,-1)">
                  <use xlink:href="#rim" fill="#404040">
                        <set attributeName="fill" to="#808080" begin="arrowUp.mouseover" end="arrowUp.mouseout"/>
                  </use>
                  <path fill="none" stroke="white" stroke-width="1.5" d="M0,-3.0v7 M-2.5,-0.5L0,-3.0L2.5,-0.5"/>
                </g>
                <g id="arrowRight" xlink:href="#dirArrow" transform="rotate(90) translate(36 -43)" onmousedown="handlePan(1,0)">
                  <use xlink:href="#rim" fill="#404040">
                        <set attributeName="fill" to="#808080" begin="arrowRight.mouseover" end="arrowRight.mouseout"/>
                  </use>
                  <path fill="none" stroke="white" stroke-width="1.5" d="M0,-3.0v7 M-2.5,-0.5L0,-3.0L2.5,-0.5"/>
                </g>
                <g id="arrowDown" xlink:href="#dirArrow" transform="rotate(180) translate(-30 -48)" onmousedown="handlePan(0,1)">
                  <use xlink:href="#rim" fill="#404040">
                        <set attributeName="fill" to="#808080" begin="arrowDown.mouseover" end="arrowDown.mouseout"/>
                  </use>
                  <path fill="none" stroke="white" stroke-width="1.5" d="M0,-3.0v7 M-2.5,-0.5L0,-3.0L2.5,-0.5"/>
                </g>
                <g id="arrowLeft" xlink:href="#dirArrow" transform="rotate(270) translate(-36 17)" onmousedown="handlePan(-1,0)">
                  <use xlink:href="#rim" fill="#404040">
                        <set attributeName="fill" to="#808080" begin="arrowLeft.mouseover" end="arrowLeft.mouseout"/>
                  </use>
                  <path fill="none" stroke="white" stroke-width="1.5" d="M0,-3.0v7 M-2.5,-0.5L0,-3.0L2.5,-0.5"/>
                </g>
        </g>
        <svg viewBox="0 0 15 15" width="100%" height="30px" preserveAspectRatio="xMaxYMin meet">
         <g id="arrow_out" transform="scale(0.3 0.3)">
          <a xlink:href="slider_8cpp__incl_org.svg" target="_base">
           <rect id="button" ry="5" rx="5" y="6" x="6" height="38" width="38"
                fill="#f2f5e9" fill-opacity="0.5" stroke="#606060" stroke-width="1.0"/>
           <path id="arrow"
             d="M 11.500037,31.436501 C 11.940474,20.09759 22.043105,11.32322 32.158766,21.979434 L 37.068811,17.246167 C 37.068811,17.246167 37.088388,32 37.088388,32 L 22.160133,31.978069 C 22.160133,31.978069 26.997745,27.140456 26.997745,27.140456 C 18.528582,18.264221 13.291696,25.230495 11.500037,31.436501 z"
             style="fill:#404040;"/>
          </a>
         </g>
        </svg>
</svg>
