<?xml version="1.0" encoding="UTF-8" standalone="no"?>
<!DOCTYPE svg PUBLIC "-//W3C//DTD SVG 1.1//EN"
 "http://www.w3.org/Graphics/SVG/1.1/DTD/svg11.dtd">
<!-- Generated by graphviz version 2.50.0 (20211204.2007)
 -->
<!-- Title: Sgl::DefaultSkins::ButtonBaseSkin::InteractionStyle Pages: 1 -->
<svg width="180pt" height="248pt"
 viewBox="0.00 0.00 179.50 248.00" xmlns="http://www.w3.org/2000/svg" xmlns:xlink="http://www.w3.org/1999/xlink">
<g id="graph0" class="graph" transform="scale(1 1) rotate(0) translate(4 244)">
<title>Sgl::DefaultSkins::ButtonBaseSkin::InteractionStyle</title>
<polygon fill="white" stroke="transparent" points="-4,4 -4,-244 175.5,-244 175.5,4 -4,4"/>
<!-- Node1 -->
<g id="node1" class="node">
<title>Node1</title>
<g id="a_node1"><a xlink:title=" ">
<polygon fill="#bfbfbf" stroke="black" points="0,-0.5 0,-68.5 170,-68.5 170,-0.5 0,-0.5"/>
<text text-anchor="start" x="8" y="-56.5" font-family="Helvetica,sans-Serif" font-size="10.00">Sgl::DefaultSkins::ButtonBaseSkin</text>
<text text-anchor="middle" x="85" y="-45.5" font-family="Helvetica,sans-Serif" font-size="10.00">::InteractionStyle</text>
<polyline fill="none" stroke="black" points="0,-38.5 170,-38.5 "/>
<text text-anchor="middle" x="85" y="-26.5" font-family="Helvetica,sans-Serif" font-size="10.00"> </text>
<polyline fill="none" stroke="black" points="0,-19.5 170,-19.5 "/>
<text text-anchor="middle" x="85" y="-7.5" font-family="Helvetica,sans-Serif" font-size="10.00"> </text>
</a>
</g>
</g>
<!-- Node2 -->
<g id="node2" class="node">
<title>Node2</title>
<g id="a_node2"><a xlink:title=" ">
<polygon fill="white" stroke="#bfbfbf" points="24,-149.5 24,-206.5 64,-206.5 64,-149.5 24,-149.5"/>
<text text-anchor="middle" x="44" y="-194.5" font-family="Helvetica,sans-Serif" font-size="10.00">Color</text>
<polyline fill="none" stroke="#bfbfbf" points="24,-187.5 64,-187.5 "/>
<text text-anchor="middle" x="44" y="-175.5" font-family="Helvetica,sans-Serif" font-size="10.00"> </text>
<polyline fill="none" stroke="#bfbfbf" points="24,-168.5 64,-168.5 "/>
<text text-anchor="middle" x="44" y="-156.5" font-family="Helvetica,sans-Serif" font-size="10.00"> </text>
</a>
</g>
</g>
<!-- Node2&#45;&gt;Node1 -->
<g id="edge1" class="edge">
<title>Node2&#45;&gt;Node1</title>
<path fill="none" stroke="#404040" d="M42.15,-149.49C41.8,-131.28 43.06,-107.14 50,-87 50.87,-84.47 51.9,-81.94 53.06,-79.45"/>
<polygon fill="none" stroke="#404040" points="53.1,-79.36 52.4,-72.18 58.75,-68.77 59.46,-75.95 53.1,-79.36"/>
<text text-anchor="middle" x="77.5" y="-90" font-family="Helvetica,sans-Serif" font-size="10.00"> +foreground</text>
</g>
<!-- Node3 -->
<g id="node3" class="node">
<title>Node3</title>
<g id="a_node3"><a xlink:href="class_sgl_1_1_background.html" target="_top" xlink:title=" ">
<polygon fill="white" stroke="black" points="82.5,-116.5 82.5,-239.5 171.5,-239.5 171.5,-116.5 82.5,-116.5"/>
<text text-anchor="middle" x="127" y="-227.5" font-family="Helvetica,sans-Serif" font-size="10.00">Sgl::Background</text>
<polyline fill="none" stroke="black" points="82.5,-220.5 171.5,-220.5 "/>
<text text-anchor="middle" x="127" y="-208.5" font-family="Helvetica,sans-Serif" font-size="10.00"> </text>
<polyline fill="none" stroke="black" points="82.5,-201.5 171.5,-201.5 "/>
<text text-anchor="start" x="90.5" y="-189.5" font-family="Helvetica,sans-Serif" font-size="10.00">+ Background()</text>
<text text-anchor="start" x="90.5" y="-178.5" font-family="Helvetica,sans-Serif" font-size="10.00">+ Background()</text>
<text text-anchor="start" x="90.5" y="-167.5" font-family="Helvetica,sans-Serif" font-size="10.00">+ Background()</text>
<text text-anchor="start" x="90.5" y="-156.5" font-family="Helvetica,sans-Serif" font-size="10.00">+ Background()</text>
<text text-anchor="start" x="90.5" y="-145.5" font-family="Helvetica,sans-Serif" font-size="10.00">+ addFill()</text>
<text text-anchor="start" x="90.5" y="-134.5" font-family="Helvetica,sans-Serif" font-size="10.00">and 5 more...</text>
<text text-anchor="start" x="90.5" y="-123.5" font-family="Helvetica,sans-Serif" font-size="10.00">+ fillArea()</text>
</a>
</g>
</g>
<!-- Node3&#45;&gt;Node1 -->
<g id="edge2" class="edge">
<title>Node3&#45;&gt;Node1</title>
<path fill="none" stroke="#404040" d="M113.28,-116.19C110.74,-106.37 107.95,-96.36 105,-87 104.26,-84.64 103.46,-82.24 102.63,-79.82"/>
<polygon fill="none" stroke="#404040" points="102.63,-79.81 96.83,-75.52 98.56,-68.52 104.35,-72.8 102.63,-79.81"/>
<text text-anchor="middle" x="137" y="-90" font-family="Helvetica,sans-Serif" font-size="10.00"> +background</text>
</g>
</g>
</svg>
