<?xml version="1.0" encoding="UTF-8" standalone="no"?>
<!DOCTYPE svg PUBLIC "-//W3C//DTD SVG 1.1//EN"
 "http://www.w3.org/Graphics/SVG/1.1/DTD/svg11.dtd">
<!-- Generated by graphviz version 2.50.0 (20211204.2007)
 -->
<!-- Title: Sgl::DefaultSkins::ButtonBaseSkin::InteractionStyle Pages: 1 -->
<svg width="164pt" height="259pt"
 viewBox="0.00 0.00 164.00 259.00" xmlns="http://www.w3.org/2000/svg" xmlns:xlink="http://www.w3.org/1999/xlink">
<g id="graph0" class="graph" transform="scale(1 1) rotate(0) translate(4 255)">
<title>Sgl::DefaultSkins::ButtonBaseSkin::InteractionStyle</title>
<polygon fill="white" stroke="transparent" points="-4,4 -4,-255 160,-255 160,4 -4,4"/>
<!-- Node1 -->
<g id="node1" class="node">
<title>Node1</title>
<g id="a_node1"><a xlink:title=" ">
<polygon fill="#bfbfbf" stroke="black" points="0,-0.5 0,-79.5 139,-79.5 139,-0.5 0,-0.5"/>
<text text-anchor="start" x="8" y="-67.5" font-family="Helvetica,sans-Serif" font-size="10.00">Sgl::DefaultSkins::</text>
<text text-anchor="start" x="8" y="-56.5" font-family="Helvetica,sans-Serif" font-size="10.00">ButtonBaseSkin::Interaction</text>
<text text-anchor="middle" x="69.5" y="-45.5" font-family="Helvetica,sans-Serif" font-size="10.00">Style</text>
<polyline fill="none" stroke="black" points="0,-38.5 139,-38.5 "/>
<text text-anchor="middle" x="69.5" y="-26.5" font-family="Helvetica,sans-Serif" font-size="10.00"> </text>
<polyline fill="none" stroke="black" points="0,-19.5 139,-19.5 "/>
<text text-anchor="middle" x="69.5" y="-7.5" font-family="Helvetica,sans-Serif" font-size="10.00"> </text>
</a>
</g>
</g>
<!-- Node2 -->
<g id="node2" class="node">
<title>Node2</title>
<g id="a_node2"><a xlink:title=" ">
<polygon fill="white" stroke="#bfbfbf" points="8.5,-160.5 8.5,-217.5 48.5,-217.5 48.5,-160.5 8.5,-160.5"/>
<text text-anchor="middle" x="28.5" y="-205.5" font-family="Helvetica,sans-Serif" font-size="10.00">Color</text>
<polyline fill="none" stroke="#bfbfbf" points="8.5,-198.5 48.5,-198.5 "/>
<text text-anchor="middle" x="28.5" y="-186.5" font-family="Helvetica,sans-Serif" font-size="10.00"> </text>
<polyline fill="none" stroke="#bfbfbf" points="8.5,-179.5 48.5,-179.5 "/>
<text text-anchor="middle" x="28.5" y="-167.5" font-family="Helvetica,sans-Serif" font-size="10.00"> </text>
</a>
</g>
</g>
<!-- Node2&#45;&gt;Node1 -->
<g id="edge1" class="edge">
<title>Node2&#45;&gt;Node1</title>
<path fill="none" stroke="#404040" d="M26.95,-160.19C26.76,-142.07 28.08,-118.14 34.5,-98 35.27,-95.58 36.17,-93.16 37.16,-90.75"/>
<polygon fill="none" stroke="#404040" points="37.27,-90.51 36.23,-83.38 42.41,-79.67 43.46,-86.8 37.27,-90.51"/>
<text text-anchor="middle" x="62" y="-101" font-family="Helvetica,sans-Serif" font-size="10.00"> +foreground</text>
</g>
<!-- Node3 -->
<g id="node3" class="node">
<title>Node3</title>
<g id="a_node3"><a xlink:href="class_sgl_1_1_background.html" target="_top" xlink:title=" ">
<polygon fill="white" stroke="black" points="67,-127.5 67,-250.5 156,-250.5 156,-127.5 67,-127.5"/>
<text text-anchor="middle" x="111.5" y="-238.5" font-family="Helvetica,sans-Serif" font-size="10.00">Sgl::Background</text>
<polyline fill="none" stroke="black" points="67,-231.5 156,-231.5 "/>
<text text-anchor="middle" x="111.5" y="-219.5" font-family="Helvetica,sans-Serif" font-size="10.00"> </text>
<polyline fill="none" stroke="black" points="67,-212.5 156,-212.5 "/>
<text text-anchor="start" x="75" y="-200.5" font-family="Helvetica,sans-Serif" font-size="10.00">+ Background()</text>
<text text-anchor="start" x="75" y="-189.5" font-family="Helvetica,sans-Serif" font-size="10.00">+ Background()</text>
<text text-anchor="start" x="75" y="-178.5" font-family="Helvetica,sans-Serif" font-size="10.00">+ Background()</text>
<text text-anchor="start" x="75" y="-167.5" font-family="Helvetica,sans-Serif" font-size="10.00">+ Background()</text>
<text text-anchor="start" x="75" y="-156.5" font-family="Helvetica,sans-Serif" font-size="10.00">+ addFill()</text>
<text text-anchor="start" x="75" y="-145.5" font-family="Helvetica,sans-Serif" font-size="10.00">and 5 more...</text>
<text text-anchor="start" x="75" y="-134.5" font-family="Helvetica,sans-Serif" font-size="10.00">+ fillArea()</text>
</a>
</g>
</g>
<!-- Node3&#45;&gt;Node1 -->
<g id="edge2" class="edge">
<title>Node3&#45;&gt;Node1</title>
<path fill="none" stroke="#404040" d="M97.51,-127.27C95,-117.44 92.29,-107.41 89.5,-98 88.84,-95.78 88.14,-93.51 87.42,-91.23"/>
<polygon fill="none" stroke="#404040" points="87.41,-91.18 81.74,-86.72 83.67,-79.77 89.34,-84.23 87.41,-91.18"/>
<text text-anchor="middle" x="121.5" y="-101" font-family="Helvetica,sans-Serif" font-size="10.00"> +background</text>
</g>
</g>
</svg>
