<?xml version="1.0" encoding="UTF-8" standalone="no"?>
<!DOCTYPE svg PUBLIC "-//W3C//DTD SVG 1.1//EN"
 "http://www.w3.org/Graphics/SVG/1.1/DTD/svg11.dtd">
<!-- Generated by graphviz version 2.50.0 (20211204.2007)
 -->
<!-- Title: Sgl::DefaultSkins::ButtonBaseSkin::StaticStyle Pages: 1 -->
<svg width="322pt" height="408pt"
 viewBox="0.00 0.00 322.00 408.00" xmlns="http://www.w3.org/2000/svg" xmlns:xlink="http://www.w3.org/1999/xlink">
<g id="graph0" class="graph" transform="scale(1 1) rotate(0) translate(4 404)">
<title>Sgl::DefaultSkins::ButtonBaseSkin::StaticStyle</title>
<polygon fill="white" stroke="transparent" points="-4,4 -4,-404 318,-404 318,4 -4,4"/>
<!-- Node1 -->
<g id="node1" class="node">
<title>Node1</title>
<g id="a_node1"><a xlink:title=" ">
<polygon fill="#bfbfbf" stroke="black" points="19,-0.5 19,-79.5 189,-79.5 189,-0.5 19,-0.5"/>
<text text-anchor="start" x="27" y="-67.5" font-family="Helvetica,sans-Serif" font-size="10.00">Sgl::DefaultSkins::ButtonBaseSkin</text>
<text text-anchor="middle" x="104" y="-56.5" font-family="Helvetica,sans-Serif" font-size="10.00">::StaticStyle</text>
<polyline fill="none" stroke="black" points="19,-49.5 189,-49.5 "/>
<text text-anchor="middle" x="104" y="-37.5" font-family="Helvetica,sans-Serif" font-size="10.00"> </text>
<polyline fill="none" stroke="black" points="19,-30.5 189,-30.5 "/>
<text text-anchor="start" x="27" y="-18.5" font-family="Helvetica,sans-Serif" font-size="10.00">+ StaticStyle()</text>
<text text-anchor="start" x="27" y="-7.5" font-family="Helvetica,sans-Serif" font-size="10.00">+ StaticStyle()</text>
</a>
</g>
</g>
<!-- Node2 -->
<g id="node2" class="node">
<title>Node2</title>
<g id="a_node2"><a xlink:href="struct_sgl_1_1_insets.html" target="_top" xlink:title=" ">
<polygon fill="white" stroke="black" points="64.5,-149.5 64.5,-261.5 143.5,-261.5 143.5,-149.5 64.5,-149.5"/>
<text text-anchor="middle" x="104" y="-249.5" font-family="Helvetica,sans-Serif" font-size="10.00">Sgl::Insets</text>
<polyline fill="none" stroke="black" points="64.5,-242.5 143.5,-242.5 "/>
<text text-anchor="middle" x="104" y="-230.5" font-family="Helvetica,sans-Serif" font-size="10.00"> </text>
<polyline fill="none" stroke="black" points="64.5,-223.5 143.5,-223.5 "/>
<text text-anchor="start" x="72.5" y="-211.5" font-family="Helvetica,sans-Serif" font-size="10.00">+ Insets()</text>
<text text-anchor="start" x="72.5" y="-200.5" font-family="Helvetica,sans-Serif" font-size="10.00">+ Insets()</text>
<text text-anchor="start" x="72.5" y="-189.5" font-family="Helvetica,sans-Serif" font-size="10.00">+ Insets()</text>
<text text-anchor="start" x="72.5" y="-178.5" font-family="Helvetica,sans-Serif" font-size="10.00">+ Insets()</text>
<text text-anchor="start" x="72.5" y="-167.5" font-family="Helvetica,sans-Serif" font-size="10.00">+ operator+=()</text>
<text text-anchor="start" x="72.5" y="-156.5" font-family="Helvetica,sans-Serif" font-size="10.00">+ operator&#45;=()</text>
</a>
</g>
</g>
<!-- Node2&#45;&gt;Node1 -->
<g id="edge1" class="edge">
<title>Node2&#45;&gt;Node1</title>
<path fill="none" stroke="#404040" d="M104,-149.15C104,-130.55 104,-109.92 104,-91.7"/>
<polygon fill="none" stroke="#404040" points="104,-91.53 100,-85.53 104,-79.53 108,-85.53 104,-91.53"/>
<text text-anchor="middle" x="155.5" y="-123" font-family="Helvetica,sans-Serif" font-size="10.00"> +paddingIconAndLabel</text>
<text text-anchor="middle" x="155.5" y="-112" font-family="Helvetica,sans-Serif" font-size="10.00">+paddingIconOnly</text>
<text text-anchor="middle" x="155.5" y="-101" font-family="Helvetica,sans-Serif" font-size="10.00">+paddingLabelOnly</text>
</g>
<!-- Node2&#45;&gt;Node2 -->
<g id="edge2" class="edge">
<title>Node2&#45;&gt;Node2</title>
<path fill="none" stroke="#404040" d="M143.51,-222.2C153.76,-221.17 161.5,-215.61 161.5,-205.5 161.5,-199.81 159.05,-195.57 155.08,-192.75"/>
<polygon fill="none" stroke="#404040" points="154.86,-192.68 147.89,-194.52 143.51,-188.8 150.48,-186.95 154.86,-192.68"/>
<text text-anchor="middle" x="183.5" y="-203" font-family="Helvetica,sans-Serif" font-size="10.00"> +EMPTY</text>
</g>
<!-- Node3 -->
<g id="node3" class="node">
<title>Node3</title>
<g id="a_node3"><a xlink:title=" ">
<polygon fill="white" stroke="#bfbfbf" points="0,-342.5 0,-399.5 46,-399.5 46,-342.5 0,-342.5"/>
<text text-anchor="middle" x="23" y="-387.5" font-family="Helvetica,sans-Serif" font-size="10.00">int32_t</text>
<polyline fill="none" stroke="#bfbfbf" points="0,-380.5 46,-380.5 "/>
<text text-anchor="middle" x="23" y="-368.5" font-family="Helvetica,sans-Serif" font-size="10.00"> </text>
<polyline fill="none" stroke="#bfbfbf" points="0,-361.5 46,-361.5 "/>
<text text-anchor="middle" x="23" y="-349.5" font-family="Helvetica,sans-Serif" font-size="10.00"> </text>
</a>
</g>
</g>
<!-- Node3&#45;&gt;Node1 -->
<g id="edge4" class="edge">
<title>Node3&#45;&gt;Node1</title>
<path fill="none" stroke="#404040" d="M15.87,-342.48C6.15,-299.68 -7.55,-215.18 16,-149 23.8,-127.08 38.16,-106.39 53.05,-89.09"/>
<polygon fill="none" stroke="#404040" points="53.33,-88.78 54.36,-81.64 61.34,-79.85 60.31,-86.98 53.33,-88.78"/>
<text text-anchor="middle" x="35.5" y="-203" font-family="Helvetica,sans-Serif" font-size="10.00"> +margin</text>
</g>
<!-- Node3&#45;&gt;Node2 -->
<g id="edge3" class="edge">
<title>Node3&#45;&gt;Node2</title>
<path fill="none" stroke="#404040" d="M36.74,-342.26C46.21,-323.14 59.22,-296.89 71.27,-272.56"/>
<polygon fill="none" stroke="#404040" points="71.4,-272.3 70.48,-265.15 76.73,-261.55 77.65,-268.7 71.4,-272.3"/>
<text text-anchor="middle" x="86" y="-316" font-family="Helvetica,sans-Serif" font-size="10.00"> +bottom</text>
<text text-anchor="middle" x="86" y="-305" font-family="Helvetica,sans-Serif" font-size="10.00">+left</text>
<text text-anchor="middle" x="86" y="-294" font-family="Helvetica,sans-Serif" font-size="10.00">+right</text>
<text text-anchor="middle" x="86" y="-283" font-family="Helvetica,sans-Serif" font-size="10.00">+top</text>
</g>
<!-- Node4 -->
<g id="node4" class="node">
<title>Node4</title>
<g id="a_node4"><a xlink:href="class_sgl_1_1_border.html" target="_top" xlink:title=" ">
<polygon fill="white" stroke="black" points="224,-149.5 224,-261.5 314,-261.5 314,-149.5 224,-149.5"/>
<text text-anchor="middle" x="269" y="-249.5" font-family="Helvetica,sans-Serif" font-size="10.00">Sgl::Border</text>
<polyline fill="none" stroke="black" points="224,-242.5 314,-242.5 "/>
<text text-anchor="middle" x="269" y="-230.5" font-family="Helvetica,sans-Serif" font-size="10.00"> </text>
<polyline fill="none" stroke="black" points="224,-223.5 314,-223.5 "/>
<text text-anchor="start" x="232" y="-211.5" font-family="Helvetica,sans-Serif" font-size="10.00">+ Border()</text>
<text text-anchor="start" x="232" y="-200.5" font-family="Helvetica,sans-Serif" font-size="10.00">+ Border()</text>
<text text-anchor="start" x="232" y="-189.5" font-family="Helvetica,sans-Serif" font-size="10.00">+ Border()</text>
<text text-anchor="start" x="232" y="-178.5" font-family="Helvetica,sans-Serif" font-size="10.00">+ getThickness()</text>
<text text-anchor="start" x="232" y="-167.5" font-family="Helvetica,sans-Serif" font-size="10.00">+ getColor()</text>
<text text-anchor="start" x="232" y="-156.5" font-family="Helvetica,sans-Serif" font-size="10.00">+ encloseArea()</text>
</a>
</g>
</g>
<!-- Node4&#45;&gt;Node1 -->
<g id="edge5" class="edge">
<title>Node4&#45;&gt;Node1</title>
<path fill="none" stroke="#404040" d="M246.74,-149.47C237.59,-131.53 225.66,-112.52 211,-98 206.96,-94 202.58,-90.21 197.98,-86.62"/>
<polygon fill="none" stroke="#404040" points="197.97,-86.62 190.77,-86.33 188.26,-79.57 195.47,-79.85 197.97,-86.62"/>
<text text-anchor="middle" x="253.5" y="-112" font-family="Helvetica,sans-Serif" font-size="10.00"> +border</text>
</g>
</g>
</svg>
