<?xml version="1.0" encoding="UTF-8" standalone="no"?>
<!DOCTYPE svg PUBLIC "-//W3C//DTD SVG 1.1//EN"
 "http://www.w3.org/Graphics/SVG/1.1/DTD/svg11.dtd">
<!-- Generated by graphviz version 2.50.0 (20211204.2007)
 -->
<!-- Title: Sgl::AnchorPane::Constraints Pages: 1 -->
<svg width="258pt" height="320pt"
 viewBox="0.00 0.00 258.00 320.00" xmlns="http://www.w3.org/2000/svg" xmlns:xlink="http://www.w3.org/1999/xlink">
<g id="graph0" class="graph" transform="scale(1 1) rotate(0) translate(4 316)">
<title>Sgl::AnchorPane::Constraints</title>
<polygon fill="white" stroke="transparent" points="-4,4 -4,-316 254,-316 254,4 -4,4"/>
<!-- Node1 -->
<g id="node1" class="node">
<title>Node1</title>
<g id="a_node1"><a xlink:title=" ">
<polygon fill="#bfbfbf" stroke="black" points="44,-0.5 44,-57.5 190,-57.5 190,-0.5 44,-0.5"/>
<text text-anchor="middle" x="117" y="-45.5" font-family="Helvetica,sans-Serif" font-size="10.00">Sgl::AnchorPane::Constraints</text>
<polyline fill="none" stroke="black" points="44,-38.5 190,-38.5 "/>
<text text-anchor="middle" x="117" y="-26.5" font-family="Helvetica,sans-Serif" font-size="10.00"> </text>
<polyline fill="none" stroke="black" points="44,-19.5 190,-19.5 "/>
<text text-anchor="middle" x="117" y="-7.5" font-family="Helvetica,sans-Serif" font-size="10.00"> </text>
</a>
</g>
</g>
<!-- Node2 -->
<g id="node2" class="node">
<title>Node2</title>
<g id="a_node2"><a xlink:href="struct_sgl_1_1_anchor_pane_1_1_anchors.html" target="_top" xlink:title=" ">
<polygon fill="white" stroke="black" points="0,-116.5 0,-173.5 132,-173.5 132,-116.5 0,-116.5"/>
<text text-anchor="middle" x="66" y="-161.5" font-family="Helvetica,sans-Serif" font-size="10.00">Sgl::AnchorPane::Anchors</text>
<polyline fill="none" stroke="black" points="0,-154.5 132,-154.5 "/>
<text text-anchor="middle" x="66" y="-142.5" font-family="Helvetica,sans-Serif" font-size="10.00"> </text>
<polyline fill="none" stroke="black" points="0,-135.5 132,-135.5 "/>
<text text-anchor="middle" x="66" y="-123.5" font-family="Helvetica,sans-Serif" font-size="10.00"> </text>
</a>
</g>
</g>
<!-- Node2&#45;&gt;Node1 -->
<g id="edge1" class="edge">
<title>Node2&#45;&gt;Node1</title>
<path fill="none" stroke="#404040" d="M78.35,-116.4C84.75,-102.09 92.68,-84.36 99.69,-68.7"/>
<polygon fill="none" stroke="#404040" points="99.69,-68.69 98.49,-61.58 104.59,-57.74 105.79,-64.85 99.69,-68.69"/>
<text text-anchor="middle" x="119" y="-84.5" font-family="Helvetica,sans-Serif" font-size="10.00"> +anchors</text>
</g>
<!-- Node3 -->
<g id="node3" class="node">
<title>Node3</title>
<g id="a_node3"><a xlink:title=" ">
<polygon fill="white" stroke="#bfbfbf" points="43,-254.5 43,-311.5 89,-311.5 89,-254.5 43,-254.5"/>
<text text-anchor="middle" x="66" y="-299.5" font-family="Helvetica,sans-Serif" font-size="10.00">int32_t</text>
<polyline fill="none" stroke="#bfbfbf" points="43,-292.5 89,-292.5 "/>
<text text-anchor="middle" x="66" y="-280.5" font-family="Helvetica,sans-Serif" font-size="10.00"> </text>
<polyline fill="none" stroke="#bfbfbf" points="43,-273.5 89,-273.5 "/>
<text text-anchor="middle" x="66" y="-261.5" font-family="Helvetica,sans-Serif" font-size="10.00"> </text>
</a>
</g>
</g>
<!-- Node3&#45;&gt;Node2 -->
<g id="edge2" class="edge">
<title>Node3&#45;&gt;Node2</title>
<path fill="none" stroke="#404040" d="M66,-254.48C66,-234.79 66,-207.99 66,-185.95"/>
<polygon fill="none" stroke="#404040" points="66,-185.95 62,-179.95 66,-173.95 70,-179.95 66,-185.95"/>
<text text-anchor="middle" x="101" y="-228" font-family="Helvetica,sans-Serif" font-size="10.00"> +bottomAnchor</text>
<text text-anchor="middle" x="101" y="-217" font-family="Helvetica,sans-Serif" font-size="10.00">+leftAnchor</text>
<text text-anchor="middle" x="101" y="-206" font-family="Helvetica,sans-Serif" font-size="10.00">+rightAnchor</text>
<text text-anchor="middle" x="101" y="-195" font-family="Helvetica,sans-Serif" font-size="10.00">+topAnchor</text>
</g>
<!-- Node4 -->
<g id="node4" class="node">
<title>Node4</title>
<g id="a_node4"><a xlink:title=" ">
<polygon fill="white" stroke="#bfbfbf" points="150.5,-116.5 150.5,-173.5 185.5,-173.5 185.5,-116.5 150.5,-116.5"/>
<text text-anchor="middle" x="168" y="-161.5" font-family="Helvetica,sans-Serif" font-size="10.00">bool</text>
<polyline fill="none" stroke="#bfbfbf" points="150.5,-154.5 185.5,-154.5 "/>
<text text-anchor="middle" x="168" y="-142.5" font-family="Helvetica,sans-Serif" font-size="10.00"> </text>
<polyline fill="none" stroke="#bfbfbf" points="150.5,-135.5 185.5,-135.5 "/>
<text text-anchor="middle" x="168" y="-123.5" font-family="Helvetica,sans-Serif" font-size="10.00"> </text>
</a>
</g>
</g>
<!-- Node4&#45;&gt;Node1 -->
<g id="edge3" class="edge">
<title>Node4&#45;&gt;Node1</title>
<path fill="none" stroke="#404040" d="M160.16,-116.33C156.22,-103.77 151.01,-88.88 145,-76 143.8,-73.43 142.49,-70.82 141.11,-68.21"/>
<polygon fill="none" stroke="#404040" points="141.07,-68.14 134.64,-64.87 135.19,-57.68 141.62,-60.95 141.07,-68.14"/>
<text text-anchor="middle" x="201.5" y="-90" font-family="Helvetica,sans-Serif" font-size="10.00"> +isHorizontalRelative</text>
<text text-anchor="middle" x="201.5" y="-79" font-family="Helvetica,sans-Serif" font-size="10.00">+isVerticalRelative</text>
</g>
</g>
</svg>
