<?xml version="1.0" encoding="UTF-8" standalone="no"?>
<!DOCTYPE svg PUBLIC "-//W3C//DTD SVG 1.1//EN"
 "http://www.w3.org/Graphics/SVG/1.1/DTD/svg11.dtd">
<!-- Generated by graphviz version 2.50.0 (20211204.2007)
 -->
<!-- Title: text.cpp Pages: 1 -->
<svg width="1210pt" height="464pt"
 viewBox="0.00 0.00 1209.92 464.00" xmlns="http://www.w3.org/2000/svg" xmlns:xlink="http://www.w3.org/1999/xlink">
<g id="graph0" class="graph" transform="scale(1 1) rotate(0) translate(4 460)">
<title>text.cpp</title>
<polygon fill="white" stroke="transparent" points="-4,4 -4,-460 1205.92,-460 1205.92,4 -4,4"/>
<!-- Node1 -->
<g id="node1" class="node">
<title>Node1</title>
<g id="a_node1"><a xlink:title=" ">
<polygon fill="#bfbfbf" stroke="black" points="690.5,-436.5 690.5,-455.5 742.5,-455.5 742.5,-436.5 690.5,-436.5"/>
<text text-anchor="middle" x="716.5" y="-443.5" font-family="Helvetica,sans-Serif" font-size="10.00">text.cpp</text>
</a>
</g>
</g>
<!-- Node2 -->
<g id="node2" class="node">
<title>Node2</title>
<g id="a_node2"><a xlink:title=" ">
<polygon fill="white" stroke="#bfbfbf" points="918.5,-62 918.5,-81 1026.5,-81 1026.5,-62 918.5,-62"/>
<text text-anchor="middle" x="972.5" y="-69" font-family="Helvetica,sans-Serif" font-size="10.00">sml/math/rectangle.h</text>
</a>
</g>
</g>
<!-- Node1&#45;&gt;Node2 -->
<g id="edge1" class="edge">
<title>Node1&#45;&gt;Node2</title>
<path fill="none" stroke="midnightblue" d="M742.55,-441.27C820.82,-429.33 1048.5,-389.03 1048.5,-324 1048.5,-324 1048.5,-324 1048.5,-199 1048.5,-153.62 1012.12,-110.48 989.7,-88.2"/>
<polygon fill="midnightblue" stroke="midnightblue" points="992.07,-85.63 982.44,-81.23 987.22,-90.68 992.07,-85.63"/>
</g>
<!-- Node3 -->
<g id="node3" class="node">
<title>Node3</title>
<g id="a_node3"><a xlink:href="text_8h.html" target="_top" xlink:title=" ">
<polygon fill="white" stroke="black" points="437,-313.5 437,-332.5 542,-332.5 542,-313.5 437,-313.5"/>
<text text-anchor="middle" x="489.5" y="-320.5" font-family="Helvetica,sans-Serif" font-size="10.00">scene/shapes/text.h</text>
</a>
</g>
</g>
<!-- Node1&#45;&gt;Node3 -->
<g id="edge2" class="edge">
<title>Node1&#45;&gt;Node3</title>
<path fill="none" stroke="midnightblue" d="M700.54,-436.49C661.64,-415.76 561.7,-362.49 514.68,-337.42"/>
<polygon fill="midnightblue" stroke="midnightblue" points="516.22,-334.28 505.75,-332.66 512.93,-340.45 516.22,-334.28"/>
</g>
<!-- Node27 -->
<g id="node27" class="node">
<title>Node27</title>
<g id="a_node27"><a xlink:href="default__skins_8h.html" target="_top" xlink:title=" ">
<polygon fill="white" stroke="black" points="667,-369.5 667,-399.5 766,-399.5 766,-369.5 667,-369.5"/>
<text text-anchor="start" x="675" y="-387.5" font-family="Helvetica,sans-Serif" font-size="10.00">scene/style/default</text>
<text text-anchor="middle" x="716.5" y="-376.5" font-family="Helvetica,sans-Serif" font-size="10.00">_skins.h</text>
</a>
</g>
</g>
<!-- Node1&#45;&gt;Node27 -->
<g id="edge34" class="edge">
<title>Node1&#45;&gt;Node27</title>
<path fill="none" stroke="midnightblue" d="M716.5,-436.48C716.5,-429.47 716.5,-419.19 716.5,-409.7"/>
<polygon fill="midnightblue" stroke="midnightblue" points="720,-409.52 716.5,-399.52 713,-409.52 720,-409.52"/>
</g>
<!-- Node4 -->
<g id="node4" class="node">
<title>Node4</title>
<g id="a_node4"><a xlink:title=" ">
<polygon fill="white" stroke="#bfbfbf" points="366.5,-246.5 366.5,-276.5 478.5,-276.5 478.5,-246.5 366.5,-246.5"/>
<text text-anchor="start" x="374.5" y="-264.5" font-family="Helvetica,sans-Serif" font-size="10.00">sml/graphics_wrapper</text>
<text text-anchor="middle" x="422.5" y="-253.5" font-family="Helvetica,sans-Serif" font-size="10.00">/text.h</text>
</a>
</g>
</g>
<!-- Node3&#45;&gt;Node4 -->
<g id="edge3" class="edge">
<title>Node3&#45;&gt;Node4</title>
<path fill="none" stroke="midnightblue" d="M479.9,-313.48C471.08,-305.64 457.65,-293.71 446,-283.37"/>
<polygon fill="midnightblue" stroke="midnightblue" points="448.09,-280.55 438.29,-276.52 443.44,-285.78 448.09,-280.55"/>
</g>
<!-- Node5 -->
<g id="node5" class="node">
<title>Node5</title>
<g id="a_node5"><a xlink:href="shape_8h.html" target="_top" xlink:title=" ">
<polygon fill="white" stroke="black" points="637,-252 637,-271 688,-271 688,-252 637,-252"/>
<text text-anchor="middle" x="662.5" y="-259" font-family="Helvetica,sans-Serif" font-size="10.00">shape.h</text>
</a>
</g>
</g>
<!-- Node3&#45;&gt;Node5 -->
<g id="edge4" class="edge">
<title>Node3&#45;&gt;Node5</title>
<path fill="none" stroke="midnightblue" d="M514.29,-313.48C544.09,-303.22 594.29,-285.96 627.9,-274.4"/>
<polygon fill="midnightblue" stroke="midnightblue" points="629.44,-277.57 637.76,-271.01 627.16,-270.95 629.44,-277.57"/>
</g>
<!-- Node6 -->
<g id="node6" class="node">
<title>Node6</title>
<g id="a_node6"><a xlink:href="component_8h.html" target="_top" xlink:title=" ">
<polygon fill="white" stroke="black" points="427.5,-190.5 427.5,-209.5 509.5,-209.5 509.5,-190.5 427.5,-190.5"/>
<text text-anchor="middle" x="468.5" y="-197.5" font-family="Helvetica,sans-Serif" font-size="10.00">../component.h</text>
</a>
</g>
</g>
<!-- Node5&#45;&gt;Node6 -->
<g id="edge5" class="edge">
<title>Node5&#45;&gt;Node6</title>
<path fill="none" stroke="midnightblue" d="M636.74,-252.6C603.24,-242.33 544.5,-224.31 506.04,-212.51"/>
<polygon fill="midnightblue" stroke="midnightblue" points="506.84,-209.1 496.25,-209.51 504.79,-215.79 506.84,-209.1"/>
</g>
<!-- Node19 -->
<g id="node19" class="node">
<title>Node19</title>
<g id="a_node19"><a xlink:href="background_8h.html" target="_top" xlink:title=" ">
<polygon fill="white" stroke="black" points="656,-190.5 656,-209.5 773,-209.5 773,-190.5 656,-190.5"/>
<text text-anchor="middle" x="714.5" y="-197.5" font-family="Helvetica,sans-Serif" font-size="10.00">../../paint/background.h</text>
</a>
</g>
</g>
<!-- Node5&#45;&gt;Node19 -->
<g id="edge19" class="edge">
<title>Node5&#45;&gt;Node19</title>
<path fill="none" stroke="midnightblue" d="M669.95,-251.98C677.83,-242.96 690.44,-228.52 700.24,-217.31"/>
<polygon fill="midnightblue" stroke="midnightblue" points="703.12,-219.34 707.06,-209.51 697.85,-214.74 703.12,-219.34"/>
</g>
<!-- Node23 -->
<g id="node23" class="node">
<title>Node23</title>
<g id="a_node23"><a xlink:href="border_8h.html" target="_top" xlink:title=" ">
<polygon fill="white" stroke="black" points="842,-190.5 842,-209.5 935,-209.5 935,-190.5 842,-190.5"/>
<text text-anchor="middle" x="888.5" y="-197.5" font-family="Helvetica,sans-Serif" font-size="10.00">../../paint/border.h</text>
</a>
</g>
</g>
<!-- Node5&#45;&gt;Node23 -->
<g id="edge29" class="edge">
<title>Node5&#45;&gt;Node23</title>
<path fill="none" stroke="midnightblue" d="M688.43,-253.67C726.99,-243.52 799.88,-224.33 846.22,-212.13"/>
<polygon fill="midnightblue" stroke="midnightblue" points="847.19,-215.49 855.97,-209.56 845.41,-208.72 847.19,-215.49"/>
</g>
<!-- Node7 -->
<g id="node7" class="node">
<title>Node7</title>
<g id="a_node7"><a xlink:title=" ">
<polygon fill="white" stroke="#bfbfbf" points="398.5,-129 398.5,-148 538.5,-148 538.5,-129 398.5,-129"/>
<text text-anchor="middle" x="468.5" y="-136" font-family="Helvetica,sans-Serif" font-size="10.00">sml/sml_graphics_wrapper.h</text>
</a>
</g>
</g>
<!-- Node6&#45;&gt;Node7 -->
<g id="edge6" class="edge">
<title>Node6&#45;&gt;Node7</title>
<path fill="none" stroke="midnightblue" d="M468.5,-190.48C468.5,-182.08 468.5,-168.98 468.5,-158.16"/>
<polygon fill="midnightblue" stroke="midnightblue" points="472,-158.01 468.5,-148.01 465,-158.01 472,-158.01"/>
</g>
<!-- Node8 -->
<g id="node8" class="node">
<title>Node8</title>
<g id="a_node8"><a xlink:href="gui__event__dispatching_8h.html" target="_top" xlink:title=" ">
<polygon fill="white" stroke="black" points="172.5,-123.5 172.5,-153.5 272.5,-153.5 272.5,-123.5 172.5,-123.5"/>
<text text-anchor="start" x="180.5" y="-141.5" font-family="Helvetica,sans-Serif" font-size="10.00">../events/gui_event</text>
<text text-anchor="middle" x="222.5" y="-130.5" font-family="Helvetica,sans-Serif" font-size="10.00">_dispatching.h</text>
</a>
</g>
</g>
<!-- Node6&#45;&gt;Node8 -->
<g id="edge7" class="edge">
<title>Node6&#45;&gt;Node8</title>
<path fill="none" stroke="midnightblue" d="M432.64,-190.42C397.04,-181.9 340.66,-168.37 282.77,-154.3"/>
<polygon fill="midnightblue" stroke="midnightblue" points="283.25,-150.82 272.71,-151.86 281.6,-157.62 283.25,-150.82"/>
</g>
<!-- Node16 -->
<g id="node16" class="node">
<title>Node16</title>
<g id="a_node16"><a xlink:href="shadow_8h.html" target="_top" xlink:title=" ">
<polygon fill="white" stroke="black" points="290.5,-129 290.5,-148 380.5,-148 380.5,-129 290.5,-129"/>
<text text-anchor="middle" x="335.5" y="-136" font-family="Helvetica,sans-Serif" font-size="10.00">../paint/shadow.h</text>
</a>
</g>
</g>
<!-- Node6&#45;&gt;Node16 -->
<g id="edge16" class="edge">
<title>Node6&#45;&gt;Node16</title>
<path fill="none" stroke="midnightblue" d="M449.44,-190.48C427.03,-180.45 389.59,-163.7 363.79,-152.15"/>
<polygon fill="midnightblue" stroke="midnightblue" points="365.08,-148.9 354.52,-148.01 362.22,-155.29 365.08,-148.9"/>
</g>
<!-- Node9 -->
<g id="node9" class="node">
<title>Node9</title>
<g id="a_node9"><a xlink:title=" ">
<polygon fill="white" stroke="#bfbfbf" points="521.5,-62 521.5,-81 565.5,-81 565.5,-62 521.5,-62"/>
<text text-anchor="middle" x="543.5" y="-69" font-family="Helvetica,sans-Serif" font-size="10.00">vector</text>
</a>
</g>
</g>
<!-- Node8&#45;&gt;Node9 -->
<g id="edge8" class="edge">
<title>Node8&#45;&gt;Node9</title>
<path fill="none" stroke="midnightblue" d="M272.65,-124.87C275.64,-124.21 278.6,-123.58 281.5,-123 382.51,-102.69 411.63,-115.96 510.5,-87 512.65,-86.37 514.84,-85.64 517.02,-84.83"/>
<polygon fill="midnightblue" stroke="midnightblue" points="518.4,-88.05 526.35,-81.04 515.76,-81.57 518.4,-88.05"/>
</g>
<!-- Node10 -->
<g id="node10" class="node">
<title>Node10</title>
<g id="a_node10"><a xlink:title=" ">
<polygon fill="white" stroke="#bfbfbf" points="0,-62 0,-81 155,-81 155,-62 0,-62"/>
<text text-anchor="middle" x="77.5" y="-69" font-family="Helvetica,sans-Serif" font-size="10.00">sml/events/event_dispatching.h</text>
</a>
</g>
</g>
<!-- Node8&#45;&gt;Node10 -->
<g id="edge9" class="edge">
<title>Node8&#45;&gt;Node10</title>
<path fill="none" stroke="midnightblue" d="M191.04,-123.4C165.6,-111.99 130.1,-96.08 105.6,-85.1"/>
<polygon fill="midnightblue" stroke="midnightblue" points="107.03,-81.9 96.48,-81.01 104.17,-88.29 107.03,-81.9"/>
</g>
<!-- Node11 -->
<g id="node11" class="node">
<title>Node11</title>
<g id="a_node11"><a xlink:title=" ">
<polygon fill="white" stroke="#bfbfbf" points="402,-56.5 402,-86.5 501,-86.5 501,-56.5 402,-56.5"/>
<text text-anchor="start" x="410" y="-74.5" font-family="Helvetica,sans-Serif" font-size="10.00">sml/events/listener</text>
<text text-anchor="middle" x="451.5" y="-63.5" font-family="Helvetica,sans-Serif" font-size="10.00">_notifier.h</text>
</a>
</g>
</g>
<!-- Node8&#45;&gt;Node11 -->
<g id="edge10" class="edge">
<title>Node8&#45;&gt;Node11</title>
<path fill="none" stroke="midnightblue" d="M271.91,-123.48C307.15,-113.47 354.72,-99.97 392.04,-89.38"/>
<polygon fill="midnightblue" stroke="midnightblue" points="393.12,-92.71 401.79,-86.61 391.21,-85.97 393.12,-92.71"/>
</g>
<!-- Node12 -->
<g id="node12" class="node">
<title>Node12</title>
<g id="a_node12"><a xlink:title=" ">
<polygon fill="white" stroke="#bfbfbf" points="79,-0.5 79,-19.5 222,-19.5 222,-0.5 79,-0.5"/>
<text text-anchor="middle" x="150.5" y="-7.5" font-family="Helvetica,sans-Serif" font-size="10.00">sml/events/system_events.h</text>
</a>
</g>
</g>
<!-- Node8&#45;&gt;Node12 -->
<g id="edge11" class="edge">
<title>Node8&#45;&gt;Node12</title>
<path fill="none" stroke="midnightblue" d="M214.52,-123.48C201.33,-100.31 175.02,-54.07 160.57,-28.69"/>
<polygon fill="midnightblue" stroke="midnightblue" points="163.49,-26.75 155.5,-19.79 157.41,-30.21 163.49,-26.75"/>
</g>
<!-- Node13 -->
<g id="node13" class="node">
<title>Node13</title>
<g id="a_node13"><a xlink:href="gui__event_8h.html" target="_top" xlink:title=" ">
<polygon fill="white" stroke="black" points="212,-62 212,-81 279,-81 279,-62 212,-62"/>
<text text-anchor="middle" x="245.5" y="-69" font-family="Helvetica,sans-Serif" font-size="10.00">gui_event.h</text>
</a>
</g>
</g>
<!-- Node8&#45;&gt;Node13 -->
<g id="edge12" class="edge">
<title>Node8&#45;&gt;Node13</title>
<path fill="none" stroke="midnightblue" d="M227.49,-123.4C230.86,-113.86 235.35,-101.18 239,-90.86"/>
<polygon fill="midnightblue" stroke="midnightblue" points="242.39,-91.79 242.42,-81.19 235.79,-89.45 242.39,-91.79"/>
</g>
<!-- Node13&#45;&gt;Node12 -->
<g id="edge14" class="edge">
<title>Node13&#45;&gt;Node12</title>
<path fill="none" stroke="midnightblue" d="M231.89,-61.98C216.44,-52.3 191.01,-36.37 172.68,-24.89"/>
<polygon fill="midnightblue" stroke="midnightblue" points="174.42,-21.85 164.09,-19.51 170.7,-27.78 174.42,-21.85"/>
</g>
<!-- Node14 -->
<g id="node14" class="node">
<title>Node14</title>
<g id="a_node14"><a xlink:title=" ">
<polygon fill="white" stroke="#bfbfbf" points="335.5,-0.5 335.5,-19.5 435.5,-19.5 435.5,-0.5 335.5,-0.5"/>
<text text-anchor="middle" x="385.5" y="-7.5" font-family="Helvetica,sans-Serif" font-size="10.00">sml/events/event.h</text>
</a>
</g>
</g>
<!-- Node13&#45;&gt;Node14 -->
<g id="edge13" class="edge">
<title>Node13&#45;&gt;Node14</title>
<path fill="none" stroke="midnightblue" d="M265.56,-61.98C289.26,-51.9 328.91,-35.05 356.08,-23.5"/>
<polygon fill="midnightblue" stroke="midnightblue" points="357.64,-26.64 365.48,-19.51 354.91,-20.2 357.64,-26.64"/>
</g>
<!-- Node15 -->
<g id="node15" class="node">
<title>Node15</title>
<g id="a_node15"><a xlink:title=" ">
<polygon fill="white" stroke="#bfbfbf" points="240,-0.5 240,-19.5 317,-19.5 317,-0.5 240,-0.5"/>
<text text-anchor="middle" x="278.5" y="-7.5" font-family="Helvetica,sans-Serif" font-size="10.00">sml/sml_log.h</text>
</a>
</g>
</g>
<!-- Node13&#45;&gt;Node15 -->
<g id="edge15" class="edge">
<title>Node13&#45;&gt;Node15</title>
<path fill="none" stroke="midnightblue" d="M250.23,-61.98C255.08,-53.23 262.77,-39.37 268.9,-28.31"/>
<polygon fill="midnightblue" stroke="midnightblue" points="271.99,-29.95 273.78,-19.51 265.87,-26.56 271.99,-29.95"/>
</g>
<!-- Node17 -->
<g id="node17" class="node">
<title>Node17</title>
<g id="a_node17"><a xlink:title=" ">
<polygon fill="white" stroke="#bfbfbf" points="297,-62 297,-81 380,-81 380,-62 297,-62"/>
<text text-anchor="middle" x="338.5" y="-69" font-family="Helvetica,sans-Serif" font-size="10.00">sml/math/blur.h</text>
</a>
</g>
</g>
<!-- Node16&#45;&gt;Node17 -->
<g id="edge17" class="edge">
<title>Node16&#45;&gt;Node17</title>
<path fill="none" stroke="midnightblue" d="M335.9,-128.73C336.35,-119.18 337.06,-103.62 337.63,-91.28"/>
<polygon fill="midnightblue" stroke="midnightblue" points="341.14,-91.28 338.1,-81.13 334.14,-90.96 341.14,-91.28"/>
</g>
<!-- Node18 -->
<g id="node18" class="node">
<title>Node18</title>
<g id="a_node18"><a xlink:title=" ">
<polygon fill="white" stroke="#bfbfbf" points="583.5,-56.5 583.5,-86.5 695.5,-86.5 695.5,-56.5 583.5,-56.5"/>
<text text-anchor="start" x="591.5" y="-74.5" font-family="Helvetica,sans-Serif" font-size="10.00">sml/graphics_wrapper</text>
<text text-anchor="middle" x="639.5" y="-63.5" font-family="Helvetica,sans-Serif" font-size="10.00">/texture.h</text>
</a>
</g>
</g>
<!-- Node16&#45;&gt;Node18 -->
<g id="edge18" class="edge">
<title>Node16&#45;&gt;Node18</title>
<path fill="none" stroke="midnightblue" d="M365.68,-129C373.42,-126.93 381.74,-124.79 389.5,-123 468.08,-104.83 490.83,-104.15 573.34,-87.2"/>
<polygon fill="midnightblue" stroke="midnightblue" points="574.07,-90.63 583.15,-85.17 572.65,-83.77 574.07,-90.63"/>
</g>
<!-- Node19&#45;&gt;Node2 -->
<g id="edge21" class="edge">
<title>Node19&#45;&gt;Node2</title>
<path fill="none" stroke="midnightblue" d="M729.25,-190.36C743.85,-181.64 766.68,-167.57 785.5,-154 803.18,-141.25 804.43,-133.56 823.5,-123 855.81,-105.11 895.56,-92.03 925.87,-83.67"/>
<polygon fill="midnightblue" stroke="midnightblue" points="927.01,-86.99 935.77,-81.02 925.2,-80.23 927.01,-86.99"/>
</g>
<!-- Node19&#45;&gt;Node9 -->
<g id="edge20" class="edge">
<title>Node19&#45;&gt;Node9</title>
<path fill="none" stroke="midnightblue" d="M714.66,-190.41C714.46,-174.81 711.76,-141.71 693.5,-123 654.9,-83.46 626.1,-106.76 574.5,-87 573.08,-86.46 571.63,-85.87 570.18,-85.27"/>
<polygon fill="midnightblue" stroke="midnightblue" points="571.25,-81.92 560.69,-81.08 568.42,-88.32 571.25,-81.92"/>
</g>
<!-- Node20 -->
<g id="node20" class="node">
<title>Node20</title>
<g id="a_node20"><a xlink:href="fill_8h.html" target="_top" xlink:title=" ">
<polygon fill="white" stroke="black" points="741,-129 741,-148 776,-148 776,-129 741,-129"/>
<text text-anchor="middle" x="758.5" y="-136" font-family="Helvetica,sans-Serif" font-size="10.00">fill.h</text>
</a>
</g>
</g>
<!-- Node19&#45;&gt;Node20 -->
<g id="edge22" class="edge">
<title>Node19&#45;&gt;Node20</title>
<path fill="none" stroke="midnightblue" d="M720.8,-190.48C727.4,-181.55 737.94,-167.31 746.19,-156.14"/>
<polygon fill="midnightblue" stroke="midnightblue" points="749.08,-158.13 752.21,-148.01 743.45,-153.97 749.08,-158.13"/>
</g>
<!-- Node22 -->
<g id="node22" class="node">
<title>Node22</title>
<g id="a_node22"><a xlink:href="image_8h.html" target="_top" xlink:title=" ">
<polygon fill="white" stroke="black" points="595,-129 595,-148 684,-148 684,-129 595,-129"/>
<text text-anchor="middle" x="639.5" y="-136" font-family="Helvetica,sans-Serif" font-size="10.00">../media/image.h</text>
</a>
</g>
</g>
<!-- Node19&#45;&gt;Node22 -->
<g id="edge27" class="edge">
<title>Node19&#45;&gt;Node22</title>
<path fill="none" stroke="midnightblue" d="M703.75,-190.48C691.95,-181.11 672.76,-165.88 658.42,-154.51"/>
<polygon fill="midnightblue" stroke="midnightblue" points="660.24,-151.48 650.23,-148.01 655.88,-156.97 660.24,-151.48"/>
</g>
<!-- Node20&#45;&gt;Node2 -->
<g id="edge25" class="edge">
<title>Node20&#45;&gt;Node2</title>
<path fill="none" stroke="midnightblue" d="M776.24,-128.87C780.83,-126.81 785.8,-124.71 790.5,-123 835.44,-106.69 888.22,-92.58 925.34,-83.45"/>
<polygon fill="midnightblue" stroke="midnightblue" points="926.48,-86.78 935.37,-81.01 924.83,-79.98 926.48,-86.78"/>
</g>
<!-- Node20&#45;&gt;Node9 -->
<g id="edge23" class="edge">
<title>Node20&#45;&gt;Node9</title>
<path fill="none" stroke="midnightblue" d="M741.14,-128.9C736.46,-126.79 731.35,-124.66 726.5,-123 660.8,-100.57 640.06,-109.83 574.5,-87 572.88,-86.44 571.23,-85.81 569.58,-85.16"/>
<polygon fill="midnightblue" stroke="midnightblue" points="570.86,-81.9 560.29,-81.12 568.07,-88.32 570.86,-81.9"/>
</g>
<!-- Node20&#45;&gt;Node18 -->
<g id="edge26" class="edge">
<title>Node20&#45;&gt;Node18</title>
<path fill="none" stroke="midnightblue" d="M742.45,-128.73C725.05,-119.23 696.76,-103.78 674.23,-91.47"/>
<polygon fill="midnightblue" stroke="midnightblue" points="675.75,-88.31 665.29,-86.59 672.39,-94.45 675.75,-88.31"/>
</g>
<!-- Node21 -->
<g id="node21" class="node">
<title>Node21</title>
<g id="a_node21"><a xlink:title=" ">
<polygon fill="white" stroke="#bfbfbf" points="714,-62 714,-81 803,-81 803,-62 714,-62"/>
<text text-anchor="middle" x="758.5" y="-69" font-family="Helvetica,sans-Serif" font-size="10.00">sml/math/vec2.h</text>
</a>
</g>
</g>
<!-- Node20&#45;&gt;Node21 -->
<g id="edge24" class="edge">
<title>Node20&#45;&gt;Node21</title>
<path fill="none" stroke="midnightblue" d="M758.5,-128.73C758.5,-119.18 758.5,-103.62 758.5,-91.28"/>
<polygon fill="midnightblue" stroke="midnightblue" points="762,-91.13 758.5,-81.13 755,-91.13 762,-91.13"/>
</g>
<!-- Node22&#45;&gt;Node18 -->
<g id="edge28" class="edge">
<title>Node22&#45;&gt;Node18</title>
<path fill="none" stroke="midnightblue" d="M639.5,-128.73C639.5,-120.54 639.5,-107.92 639.5,-96.71"/>
<polygon fill="midnightblue" stroke="midnightblue" points="643,-96.59 639.5,-86.59 636,-96.59 643,-96.59"/>
</g>
<!-- Node23&#45;&gt;Node2 -->
<g id="edge31" class="edge">
<title>Node23&#45;&gt;Node2</title>
<path fill="none" stroke="midnightblue" d="M907.95,-190.39C922.68,-182.88 942.23,-170.57 953.5,-154 966.3,-135.18 970.55,-108.87 971.92,-91.28"/>
<polygon fill="midnightblue" stroke="midnightblue" points="975.42,-91.33 972.47,-81.16 968.43,-90.95 975.42,-91.33"/>
</g>
<!-- Node24 -->
<g id="node24" class="node">
<title>Node24</title>
<g id="a_node24"><a xlink:title=" ">
<polygon fill="white" stroke="#bfbfbf" points="832.5,-123.5 832.5,-153.5 944.5,-153.5 944.5,-123.5 832.5,-123.5"/>
<text text-anchor="start" x="840.5" y="-141.5" font-family="Helvetica,sans-Serif" font-size="10.00">sml/graphics_wrapper</text>
<text text-anchor="middle" x="888.5" y="-130.5" font-family="Helvetica,sans-Serif" font-size="10.00">/color.h</text>
</a>
</g>
</g>
<!-- Node23&#45;&gt;Node24 -->
<g id="edge30" class="edge">
<title>Node23&#45;&gt;Node24</title>
<path fill="none" stroke="midnightblue" d="M888.5,-190.48C888.5,-183.47 888.5,-173.19 888.5,-163.7"/>
<polygon fill="midnightblue" stroke="midnightblue" points="892,-163.52 888.5,-153.52 885,-163.52 892,-163.52"/>
</g>
<!-- Node25 -->
<g id="node25" class="node">
<title>Node25</title>
<g id="a_node25"><a xlink:href="insets_8h.html" target="_top" xlink:title=" ">
<polygon fill="white" stroke="black" points="1077,-129 1077,-148 1128,-148 1128,-129 1077,-129"/>
<text text-anchor="middle" x="1102.5" y="-136" font-family="Helvetica,sans-Serif" font-size="10.00">insets.h</text>
</a>
</g>
</g>
<!-- Node23&#45;&gt;Node25 -->
<g id="edge32" class="edge">
<title>Node23&#45;&gt;Node25</title>
<path fill="none" stroke="midnightblue" d="M919.16,-190.48C958.35,-179.58 1026.03,-160.76 1067.29,-149.29"/>
<polygon fill="midnightblue" stroke="midnightblue" points="1068.22,-152.66 1076.92,-146.61 1066.35,-145.92 1068.22,-152.66"/>
</g>
<!-- Node26 -->
<g id="node26" class="node">
<title>Node26</title>
<g id="a_node26"><a xlink:title=" ">
<polygon fill="white" stroke="#bfbfbf" points="1078,-62 1078,-81 1127,-81 1127,-62 1078,-62"/>
<text text-anchor="middle" x="1102.5" y="-69" font-family="Helvetica,sans-Serif" font-size="10.00">stdint.h</text>
</a>
</g>
</g>
<!-- Node25&#45;&gt;Node26 -->
<g id="edge33" class="edge">
<title>Node25&#45;&gt;Node26</title>
<path fill="none" stroke="midnightblue" d="M1102.5,-128.73C1102.5,-119.18 1102.5,-103.62 1102.5,-91.28"/>
<polygon fill="midnightblue" stroke="midnightblue" points="1106,-91.13 1102.5,-81.13 1099,-91.13 1106,-91.13"/>
</g>
<!-- Node27&#45;&gt;Node3 -->
<g id="edge39" class="edge">
<title>Node27&#45;&gt;Node3</title>
<path fill="none" stroke="midnightblue" d="M666.96,-370.52C626.61,-359.94 570.23,-345.16 531.93,-335.12"/>
<polygon fill="midnightblue" stroke="midnightblue" points="532.68,-331.7 522.12,-332.55 530.9,-338.47 532.68,-331.7"/>
</g>
<!-- Node27&#45;&gt;Node11 -->
<g id="edge35" class="edge">
<title>Node27&#45;&gt;Node11</title>
<path fill="none" stroke="midnightblue" d="M703.25,-369.43C685.09,-349.72 652.03,-312.34 628.5,-277 585.64,-212.63 602.18,-177.69 547.5,-123 534.02,-109.52 516.18,-98.8 499.55,-90.77"/>
<polygon fill="midnightblue" stroke="midnightblue" points="501.01,-87.59 490.46,-86.58 498.08,-93.95 501.01,-87.59"/>
</g>
<!-- Node27&#45;&gt;Node16 -->
<g id="edge46" class="edge">
<title>Node27&#45;&gt;Node16</title>
<path fill="none" stroke="midnightblue" d="M666.98,-382.14C607.83,-378.89 507.04,-368.14 428.5,-333 391.81,-316.59 377.85,-311.66 357.5,-277 335.44,-239.42 333.54,-186.59 334.34,-158.62"/>
<polygon fill="midnightblue" stroke="midnightblue" points="337.86,-158.42 334.8,-148.27 330.86,-158.11 337.86,-158.42"/>
</g>
<!-- Node27&#45;&gt;Node19 -->
<g id="edge43" class="edge">
<title>Node27&#45;&gt;Node19</title>
<path fill="none" stroke="midnightblue" d="M716.35,-369.48C715.99,-337.1 715.11,-257.04 714.71,-220.16"/>
<polygon fill="midnightblue" stroke="midnightblue" points="718.21,-219.78 714.6,-209.82 711.21,-219.86 718.21,-219.78"/>
</g>
<!-- Node27&#45;&gt;Node23 -->
<g id="edge44" class="edge">
<title>Node27&#45;&gt;Node23</title>
<path fill="none" stroke="midnightblue" d="M766.13,-378.66C797.91,-372.93 837.54,-360.39 861.5,-333 889.52,-300.97 891.35,-247.8 890.06,-219.71"/>
<polygon fill="midnightblue" stroke="midnightblue" points="893.55,-219.41 889.42,-209.65 886.57,-219.86 893.55,-219.41"/>
</g>
<!-- Node27&#45;&gt;Node25 -->
<g id="edge45" class="edge">
<title>Node27&#45;&gt;Node25</title>
<path fill="none" stroke="midnightblue" d="M766.33,-374.02C800.26,-366.22 845.38,-353.11 881.5,-333 970.6,-283.39 1055.35,-193.22 1088.18,-156.12"/>
<polygon fill="midnightblue" stroke="midnightblue" points="1091.1,-158.1 1095.05,-148.27 1085.83,-153.49 1091.1,-158.1"/>
</g>
<!-- Node28 -->
<g id="node28" class="node">
<title>Node28</title>
<g id="a_node28"><a xlink:href="image__view_8h.html" target="_top" xlink:title=" ">
<polygon fill="white" stroke="black" points="496.5,-252 496.5,-271 580.5,-271 580.5,-252 496.5,-252"/>
<text text-anchor="middle" x="538.5" y="-259" font-family="Helvetica,sans-Serif" font-size="10.00">../image_view.h</text>
</a>
</g>
</g>
<!-- Node27&#45;&gt;Node28 -->
<g id="edge36" class="edge">
<title>Node27&#45;&gt;Node28</title>
<path fill="none" stroke="midnightblue" d="M667.2,-369.49C643.71,-361.29 616.1,-349.28 594.5,-333 575.07,-318.35 558.56,-295.44 548.61,-279.74"/>
<polygon fill="midnightblue" stroke="midnightblue" points="551.49,-277.75 543.29,-271.04 545.51,-281.39 551.49,-277.75"/>
</g>
<!-- Node29 -->
<g id="node29" class="node">
<title>Node29</title>
<g id="a_node29"><a xlink:href="rectangle_8h.html" target="_top" xlink:title=" ">
<polygon fill="white" stroke="black" points="744.5,-313.5 744.5,-332.5 852.5,-332.5 852.5,-313.5 744.5,-313.5"/>
<text text-anchor="middle" x="798.5" y="-320.5" font-family="Helvetica,sans-Serif" font-size="10.00">../shapes/rectangle.h</text>
</a>
</g>
</g>
<!-- Node27&#45;&gt;Node29 -->
<g id="edge40" class="edge">
<title>Node27&#45;&gt;Node29</title>
<path fill="none" stroke="midnightblue" d="M735.93,-369.4C748.71,-360.13 765.39,-348.03 778.31,-338.65"/>
<polygon fill="midnightblue" stroke="midnightblue" points="780.53,-341.36 786.57,-332.66 776.42,-335.7 780.53,-341.36"/>
</g>
<!-- Node30 -->
<g id="node30" class="node">
<title>Node30</title>
<g id="a_node30"><a xlink:href="skin_8h.html" target="_top" xlink:title=" ">
<polygon fill="white" stroke="black" points="1111,-313.5 1111,-332.5 1154,-332.5 1154,-313.5 1111,-313.5"/>
<text text-anchor="middle" x="1132.5" y="-320.5" font-family="Helvetica,sans-Serif" font-size="10.00">skin.h</text>
</a>
</g>
</g>
<!-- Node27&#45;&gt;Node30 -->
<g id="edge47" class="edge">
<title>Node27&#45;&gt;Node30</title>
<path fill="none" stroke="midnightblue" d="M766.27,-376.38C852.83,-364 1028.76,-338.84 1100.73,-328.54"/>
<polygon fill="midnightblue" stroke="midnightblue" points="1101.56,-331.96 1110.97,-327.08 1100.57,-325.03 1101.56,-331.96"/>
</g>
<!-- Node28&#45;&gt;Node6 -->
<g id="edge37" class="edge">
<title>Node28&#45;&gt;Node6</title>
<path fill="none" stroke="midnightblue" d="M528.47,-251.98C517.45,-242.61 499.54,-227.38 486.16,-216.01"/>
<polygon fill="midnightblue" stroke="midnightblue" points="488.4,-213.32 478.51,-209.51 483.86,-218.65 488.4,-213.32"/>
</g>
<!-- Node28&#45;&gt;Node22 -->
<g id="edge38" class="edge">
<title>Node28&#45;&gt;Node22</title>
<path fill="none" stroke="midnightblue" d="M545.76,-251.8C562.51,-231.74 604.03,-181.99 625.76,-155.96"/>
<polygon fill="midnightblue" stroke="midnightblue" points="628.58,-158.04 632.3,-148.12 623.21,-153.56 628.58,-158.04"/>
</g>
<!-- Node29&#45;&gt;Node2 -->
<g id="edge41" class="edge">
<title>Node29&#45;&gt;Node2</title>
<path fill="none" stroke="midnightblue" d="M813.93,-313.32C842.69,-296.51 905.12,-257.03 944.5,-210 962.49,-188.51 966.87,-181.23 973.5,-154 976.76,-140.61 973.64,-136.78 973.5,-123 973.4,-112.53 973.17,-100.83 972.96,-91.34"/>
<polygon fill="midnightblue" stroke="midnightblue" points="976.45,-90.99 972.72,-81.08 969.46,-91.16 976.45,-90.99"/>
</g>
<!-- Node29&#45;&gt;Node5 -->
<g id="edge42" class="edge">
<title>Node29&#45;&gt;Node5</title>
<path fill="none" stroke="midnightblue" d="M779.01,-313.48C756.09,-303.45 717.81,-286.7 691.42,-275.15"/>
<polygon fill="midnightblue" stroke="midnightblue" points="692.51,-271.81 681.95,-271.01 689.71,-278.22 692.51,-271.81"/>
</g>
<!-- Node30&#45;&gt;Node25 -->
<g id="edge49" class="edge">
<title>Node30&#45;&gt;Node25</title>
<path fill="none" stroke="midnightblue" d="M1154.31,-313.45C1169.44,-306.22 1188.45,-294.26 1197.5,-277 1203.89,-264.8 1202.41,-258.87 1197.5,-246 1182.55,-206.79 1145.8,-172.85 1122.64,-154.36"/>
<polygon fill="midnightblue" stroke="midnightblue" points="1124.55,-151.42 1114.5,-148.06 1120.26,-156.95 1124.55,-151.42"/>
</g>
<!-- Node31 -->
<g id="node31" class="node">
<title>Node31</title>
<g id="a_node31"><a xlink:title=" ">
<polygon fill="white" stroke="#bfbfbf" points="1076.5,-246.5 1076.5,-276.5 1188.5,-276.5 1188.5,-246.5 1076.5,-246.5"/>
<text text-anchor="start" x="1084.5" y="-264.5" font-family="Helvetica,sans-Serif" font-size="10.00">sml/graphics_wrapper</text>
<text text-anchor="middle" x="1132.5" y="-253.5" font-family="Helvetica,sans-Serif" font-size="10.00">/renderer.h</text>
</a>
</g>
</g>
<!-- Node30&#45;&gt;Node31 -->
<g id="edge48" class="edge">
<title>Node30&#45;&gt;Node31</title>
<path fill="none" stroke="midnightblue" d="M1132.5,-313.48C1132.5,-306.47 1132.5,-296.19 1132.5,-286.7"/>
<polygon fill="midnightblue" stroke="midnightblue" points="1136,-286.52 1132.5,-276.52 1129,-286.52 1136,-286.52"/>
</g>
</g>
</svg>
