<?xml version="1.0" encoding="UTF-8" standalone="no"?>
<!DOCTYPE svg PUBLIC "-//W3C//DTD SVG 1.1//EN"
 "http://www.w3.org/Graphics/SVG/1.1/DTD/svg11.dtd">
<!-- Generated by graphviz version 2.50.0 (20211204.2007)
 -->
<!-- Title: text.h Pages: 1 -->
<svg width="463pt" height="308pt"
 viewBox="0.00 0.00 463.00 308.00" xmlns="http://www.w3.org/2000/svg" xmlns:xlink="http://www.w3.org/1999/xlink">
<g id="graph0" class="graph" transform="scale(1 1) rotate(0) translate(4 304)">
<title>text.h</title>
<polygon fill="white" stroke="transparent" points="-4,4 -4,-304 459,-304 459,4 -4,4"/>
<!-- Node1 -->
<g id="node1" class="node">
<title>Node1</title>
<g id="a_node1"><a xlink:title=" ">
<polygon fill="#bfbfbf" stroke="black" points="227,-280.5 227,-299.5 268,-299.5 268,-280.5 227,-280.5"/>
<text text-anchor="middle" x="247.5" y="-287.5" font-family="Helvetica,sans-Serif" font-size="10.00">text.h</text>
</a>
</g>
</g>
<!-- Node2 -->
<g id="node2" class="node">
<title>Node2</title>
<g id="a_node2"><a xlink:href="default__skins_8h.html" target="_top" xlink:title=" ">
<polygon fill="white" stroke="black" points="171,-224.5 171,-243.5 254,-243.5 254,-224.5 171,-224.5"/>
<text text-anchor="middle" x="212.5" y="-231.5" font-family="Helvetica,sans-Serif" font-size="10.00">default_skins.h</text>
</a>
</g>
</g>
<!-- Node1&#45;&gt;Node2 -->
<g id="edge1" class="edge">
<title>Node1&#45;&gt;Node2</title>
<path fill="none" stroke="midnightblue" d="M236.2,-271.57C230.18,-262.27 223.03,-251.25 218.17,-243.75"/>
<polygon fill="midnightblue" stroke="midnightblue" points="233.34,-273.6 241.72,-280.08 239.22,-269.79 233.34,-273.6"/>
</g>
<!-- Node14 -->
<g id="node14" class="node">
<title>Node14</title>
<g id="a_node14"><a xlink:href="text_8cpp.html" target="_top" xlink:title=" ">
<polygon fill="white" stroke="black" points="293.5,-168.5 293.5,-187.5 345.5,-187.5 345.5,-168.5 293.5,-168.5"/>
<text text-anchor="middle" x="319.5" y="-175.5" font-family="Helvetica,sans-Serif" font-size="10.00">text.cpp</text>
</a>
</g>
</g>
<!-- Node1&#45;&gt;Node14 -->
<g id="edge17" class="edge">
<title>Node1&#45;&gt;Node14</title>
<path fill="none" stroke="midnightblue" d="M258.66,-271.96C274.26,-248.12 302.02,-205.71 313.88,-187.59"/>
<polygon fill="midnightblue" stroke="midnightblue" points="255.7,-270.08 253.15,-280.37 261.55,-273.92 255.7,-270.08"/>
</g>
<!-- Node3 -->
<g id="node3" class="node">
<title>Node3</title>
<g id="a_node3"><a xlink:href="button_8h.html" target="_top" xlink:title=" ">
<polygon fill="white" stroke="black" points="223.5,-168.5 223.5,-187.5 275.5,-187.5 275.5,-168.5 223.5,-168.5"/>
<text text-anchor="middle" x="249.5" y="-175.5" font-family="Helvetica,sans-Serif" font-size="10.00">button.h</text>
</a>
</g>
</g>
<!-- Node2&#45;&gt;Node3 -->
<g id="edge2" class="edge">
<title>Node2&#45;&gt;Node3</title>
<path fill="none" stroke="midnightblue" d="M224.45,-215.57C230.81,-206.27 238.37,-195.25 243.5,-187.75"/>
<polygon fill="midnightblue" stroke="midnightblue" points="221.37,-213.86 218.61,-224.08 227.15,-217.81 221.37,-213.86"/>
</g>
<!-- Node6 -->
<g id="node6" class="node">
<title>Node6</title>
<g id="a_node6"><a xlink:href="default__skins_8cpp.html" target="_top" xlink:title=" ">
<polygon fill="white" stroke="black" points="0,-112.5 0,-131.5 93,-131.5 93,-112.5 0,-112.5"/>
<text text-anchor="middle" x="46.5" y="-119.5" font-family="Helvetica,sans-Serif" font-size="10.00">default_skins.cpp</text>
</a>
</g>
</g>
<!-- Node2&#45;&gt;Node6 -->
<g id="edge13" class="edge">
<title>Node2&#45;&gt;Node6</title>
<path fill="none" stroke="midnightblue" d="M160.68,-226.26C116.16,-219.28 56.93,-206.74 42.5,-188 29.81,-171.51 37.43,-145.15 42.72,-131.62"/>
<polygon fill="midnightblue" stroke="midnightblue" points="160.37,-229.75 170.78,-227.79 161.42,-222.83 160.37,-229.75"/>
</g>
<!-- Node12 -->
<g id="node12" class="node">
<title>Node12</title>
<g id="a_node12"><a xlink:href="scroll__bar_8cpp.html" target="_top" xlink:title=" ">
<polygon fill="white" stroke="black" points="52,-168.5 52,-187.5 129,-187.5 129,-168.5 52,-168.5"/>
<text text-anchor="middle" x="90.5" y="-175.5" font-family="Helvetica,sans-Serif" font-size="10.00">scroll_bar.cpp</text>
</a>
</g>
</g>
<!-- Node2&#45;&gt;Node12 -->
<g id="edge14" class="edge">
<title>Node2&#45;&gt;Node12</title>
<path fill="none" stroke="midnightblue" d="M183.96,-220.37C161.11,-210.26 129.69,-196.35 109.74,-187.52"/>
<polygon fill="midnightblue" stroke="midnightblue" points="182.61,-223.6 193.17,-224.44 185.44,-217.2 182.61,-223.6"/>
</g>
<!-- Node13 -->
<g id="node13" class="node">
<title>Node13</title>
<g id="a_node13"><a xlink:href="slider_8cpp.html" target="_top" xlink:title=" ">
<polygon fill="white" stroke="black" points="147.5,-168.5 147.5,-187.5 205.5,-187.5 205.5,-168.5 147.5,-168.5"/>
<text text-anchor="middle" x="176.5" y="-175.5" font-family="Helvetica,sans-Serif" font-size="10.00">slider.cpp</text>
</a>
</g>
</g>
<!-- Node2&#45;&gt;Node13 -->
<g id="edge15" class="edge">
<title>Node2&#45;&gt;Node13</title>
<path fill="none" stroke="midnightblue" d="M200.88,-215.57C194.68,-206.27 187.33,-195.25 182.33,-187.75"/>
<polygon fill="midnightblue" stroke="midnightblue" points="198.1,-217.7 206.56,-224.08 203.92,-213.82 198.1,-217.7"/>
</g>
<!-- Node2&#45;&gt;Node14 -->
<g id="edge16" class="edge">
<title>Node2&#45;&gt;Node14</title>
<path fill="none" stroke="midnightblue" d="M238.8,-219.73C258.61,-209.73 285.21,-196.31 302.35,-187.65"/>
<polygon fill="midnightblue" stroke="midnightblue" points="237.04,-216.69 229.69,-224.32 240.2,-222.94 237.04,-216.69"/>
</g>
<!-- Node4 -->
<g id="node4" class="node">
<title>Node4</title>
<g id="a_node4"><a xlink:href="button_8cpp.html" target="_top" xlink:title=" ">
<polygon fill="white" stroke="black" points="301.5,-112.5 301.5,-131.5 363.5,-131.5 363.5,-112.5 301.5,-112.5"/>
<text text-anchor="middle" x="332.5" y="-119.5" font-family="Helvetica,sans-Serif" font-size="10.00">button.cpp</text>
</a>
</g>
</g>
<!-- Node3&#45;&gt;Node4 -->
<g id="edge3" class="edge">
<title>Node3&#45;&gt;Node4</title>
<path fill="none" stroke="midnightblue" d="M271.6,-162.62C286.76,-152.76 306.38,-139.99 319.2,-131.65"/>
<polygon fill="midnightblue" stroke="midnightblue" points="269.31,-159.94 262.84,-168.32 273.13,-165.8 269.31,-159.94"/>
</g>
<!-- Node5 -->
<g id="node5" class="node">
<title>Node5</title>
<g id="a_node5"><a xlink:href="context__menu_8cpp.html" target="_top" xlink:title=" ">
<polygon fill="white" stroke="black" points="81,-0.5 81,-19.5 178,-19.5 178,-0.5 81,-0.5"/>
<text text-anchor="middle" x="129.5" y="-7.5" font-family="Helvetica,sans-Serif" font-size="10.00">context_menu.cpp</text>
</a>
</g>
</g>
<!-- Node3&#45;&gt;Node5 -->
<g id="edge4" class="edge">
<title>Node3&#45;&gt;Node5</title>
<path fill="none" stroke="midnightblue" d="M232.7,-160.98C224.4,-152.69 214.48,-142.18 206.5,-132 175.48,-92.41 145.47,-39.96 134.19,-19.6"/>
<polygon fill="midnightblue" stroke="midnightblue" points="230.46,-163.68 240.05,-168.17 235.35,-158.68 230.46,-163.68"/>
</g>
<!-- Node3&#45;&gt;Node6 -->
<g id="edge5" class="edge">
<title>Node3&#45;&gt;Node6</title>
<path fill="none" stroke="midnightblue" d="M213.67,-167.47C175.4,-157.29 115.29,-141.3 78.54,-131.52"/>
<polygon fill="midnightblue" stroke="midnightblue" points="212.81,-170.86 223.38,-170.05 214.61,-164.1 212.81,-170.86"/>
</g>
<!-- Node7 -->
<g id="node7" class="node">
<title>Node7</title>
<g id="a_node7"><a xlink:href="menu__bar_8h.html" target="_top" xlink:title=" ">
<polygon fill="white" stroke="black" points="216,-112.5 216,-131.5 283,-131.5 283,-112.5 216,-112.5"/>
<text text-anchor="middle" x="249.5" y="-119.5" font-family="Helvetica,sans-Serif" font-size="10.00">menu_bar.h</text>
</a>
</g>
</g>
<!-- Node3&#45;&gt;Node7 -->
<g id="edge6" class="edge">
<title>Node3&#45;&gt;Node7</title>
<path fill="none" stroke="midnightblue" d="M249.5,-157.8C249.5,-148.91 249.5,-138.78 249.5,-131.75"/>
<polygon fill="midnightblue" stroke="midnightblue" points="246,-158.08 249.5,-168.08 253,-158.08 246,-158.08"/>
</g>
<!-- Node8 -->
<g id="node8" class="node">
<title>Node8</title>
<g id="a_node8"><a xlink:href="menu__bar_8cpp.html" target="_top" xlink:title=" ">
<polygon fill="white" stroke="black" points="378,-0.5 378,-19.5 455,-19.5 455,-0.5 378,-0.5"/>
<text text-anchor="middle" x="416.5" y="-7.5" font-family="Helvetica,sans-Serif" font-size="10.00">menu_bar.cpp</text>
</a>
</g>
</g>
<!-- Node7&#45;&gt;Node8 -->
<g id="edge7" class="edge">
<title>Node7&#45;&gt;Node8</title>
<path fill="none" stroke="midnightblue" d="M271.19,-106.71C306.38,-83.53 374.86,-38.43 403.46,-19.59"/>
<polygon fill="midnightblue" stroke="midnightblue" points="269.03,-103.94 262.6,-112.37 272.88,-109.79 269.03,-103.94"/>
</g>
<!-- Node9 -->
<g id="node9" class="node">
<title>Node9</title>
<g id="a_node9"><a xlink:href="scene_8h.html" target="_top" xlink:title=" ">
<polygon fill="white" stroke="black" points="224,-56.5 224,-75.5 275,-75.5 275,-56.5 224,-56.5"/>
<text text-anchor="middle" x="249.5" y="-63.5" font-family="Helvetica,sans-Serif" font-size="10.00">scene.h</text>
</a>
</g>
</g>
<!-- Node7&#45;&gt;Node9 -->
<g id="edge8" class="edge">
<title>Node7&#45;&gt;Node9</title>
<path fill="none" stroke="midnightblue" d="M249.5,-101.8C249.5,-92.91 249.5,-82.78 249.5,-75.75"/>
<polygon fill="midnightblue" stroke="midnightblue" points="246,-102.08 249.5,-112.08 253,-102.08 246,-102.08"/>
</g>
<!-- Node9&#45;&gt;Node5 -->
<g id="edge10" class="edge">
<title>Node9&#45;&gt;Node5</title>
<path fill="none" stroke="midnightblue" d="M221.13,-52.23C198.68,-42.13 167.96,-28.31 148.43,-19.52"/>
<polygon fill="midnightblue" stroke="midnightblue" points="219.93,-55.53 230.49,-56.44 222.8,-49.15 219.93,-55.53"/>
</g>
<!-- Node9&#45;&gt;Node8 -->
<g id="edge11" class="edge">
<title>Node9&#45;&gt;Node8</title>
<path fill="none" stroke="midnightblue" d="M284.93,-53.54C316.44,-43.35 361.81,-28.69 390.19,-19.51"/>
<polygon fill="midnightblue" stroke="midnightblue" points="283.67,-50.27 275.23,-56.68 285.82,-56.93 283.67,-50.27"/>
</g>
<!-- Node10 -->
<g id="node10" class="node">
<title>Node10</title>
<g id="a_node10"><a xlink:href="component_8cpp.html" target="_top" xlink:title=" ">
<polygon fill="white" stroke="black" points="277,-0.5 277,-19.5 360,-19.5 360,-0.5 277,-0.5"/>
<text text-anchor="middle" x="318.5" y="-7.5" font-family="Helvetica,sans-Serif" font-size="10.00">component.cpp</text>
</a>
</g>
</g>
<!-- Node9&#45;&gt;Node10 -->
<g id="edge9" class="edge">
<title>Node9&#45;&gt;Node10</title>
<path fill="none" stroke="midnightblue" d="M268.54,-50.1C280.96,-40.38 296.74,-28.03 307.21,-19.83"/>
<polygon fill="midnightblue" stroke="midnightblue" points="266.3,-47.4 260.59,-56.32 270.62,-52.92 266.3,-47.4"/>
</g>
<!-- Node11 -->
<g id="node11" class="node">
<title>Node11</title>
<g id="a_node11"><a xlink:href="scene_8cpp.html" target="_top" xlink:title=" ">
<polygon fill="white" stroke="black" points="196.5,-0.5 196.5,-19.5 258.5,-19.5 258.5,-0.5 196.5,-0.5"/>
<text text-anchor="middle" x="227.5" y="-7.5" font-family="Helvetica,sans-Serif" font-size="10.00">scene.cpp</text>
</a>
</g>
</g>
<!-- Node9&#45;&gt;Node11 -->
<g id="edge12" class="edge">
<title>Node9&#45;&gt;Node11</title>
<path fill="none" stroke="midnightblue" d="M242.04,-46.69C238.33,-37.59 234.02,-27.01 231.07,-19.75"/>
<polygon fill="midnightblue" stroke="midnightblue" points="238.85,-48.14 245.87,-56.08 245.34,-45.5 238.85,-48.14"/>
</g>
</g>
</svg>
