<?xml version="1.0" encoding="UTF-8" standalone="no"?>
<!DOCTYPE svg PUBLIC "-//W3C//DTD SVG 1.1//EN"
 "http://www.w3.org/Graphics/SVG/1.1/DTD/svg11.dtd">
<!-- Generated by graphviz version 2.50.0 (20211204.2007)
 -->
<!-- Title: utils.h Pages: 1 -->
<svg width="142pt" height="84pt"
 viewBox="0.00 0.00 141.50 84.00" xmlns="http://www.w3.org/2000/svg" xmlns:xlink="http://www.w3.org/1999/xlink">
<g id="graph0" class="graph" transform="scale(1 1) rotate(0) translate(4 80)">
<title>utils.h</title>
<polygon fill="white" stroke="transparent" points="-4,4 -4,-80 137.5,-80 137.5,4 -4,4"/>
<!-- Node1 -->
<g id="node1" class="node">
<title>Node1</title>
<g id="a_node1"><a xlink:title=" ">
<polygon fill="#bfbfbf" stroke="black" points="47.5,-56.5 47.5,-75.5 90.5,-75.5 90.5,-56.5 47.5,-56.5"/>
<text text-anchor="middle" x="69" y="-63.5" font-family="Helvetica,sans-Serif" font-size="10.00">utils.h</text>
</a>
</g>
</g>
<!-- Node2 -->
<g id="node2" class="node">
<title>Node2</title>
<g id="a_node2"><a xlink:href="parent_8cpp.html" target="_top" xlink:title=" ">
<polygon fill="white" stroke="black" points="0,-0.5 0,-19.5 62,-19.5 62,-0.5 0,-0.5"/>
<text text-anchor="middle" x="31" y="-7.5" font-family="Helvetica,sans-Serif" font-size="10.00">parent.cpp</text>
</a>
</g>
</g>
<!-- Node1&#45;&gt;Node2 -->
<g id="edge1" class="edge">
<title>Node1&#45;&gt;Node2</title>
<path fill="none" stroke="midnightblue" d="M56.94,-47.86C50.36,-38.5 42.49,-27.33 37.16,-19.75"/>
<polygon fill="midnightblue" stroke="midnightblue" points="54.11,-49.92 62.73,-56.08 59.83,-45.89 54.11,-49.92"/>
</g>
<!-- Node3 -->
<g id="node3" class="node">
<title>Node3</title>
<g id="a_node3"><a xlink:href="skin_8cpp.html" target="_top" xlink:title=" ">
<polygon fill="white" stroke="black" points="80.5,-0.5 80.5,-19.5 133.5,-19.5 133.5,-0.5 80.5,-0.5"/>
<text text-anchor="middle" x="107" y="-7.5" font-family="Helvetica,sans-Serif" font-size="10.00">skin.cpp</text>
</a>
</g>
</g>
<!-- Node1&#45;&gt;Node3 -->
<g id="edge2" class="edge">
<title>Node1&#45;&gt;Node3</title>
<path fill="none" stroke="midnightblue" d="M81.06,-47.86C87.64,-38.5 95.51,-27.33 100.84,-19.75"/>
<polygon fill="midnightblue" stroke="midnightblue" points="78.17,-45.89 75.27,-56.08 83.89,-49.92 78.17,-45.89"/>
</g>
</g>
</svg>
